<?xml version="1.0" encoding="UTF-8" standalone="no"?>
<!DOCTYPE svg PUBLIC "-//W3C//DTD SVG 1.1//EN"
 "http://www.w3.org/Graphics/SVG/1.1/DTD/svg11.dtd">
<!-- Generated by graphviz version 2.43.0 (0)
 -->
<!-- Title: src/wmtk/operations/AttributeTransferEdge.cpp Pages: 1 -->
<svg width="842pt" height="434pt"
 viewBox="0.00 0.00 841.50 434.00" xmlns="http://www.w3.org/2000/svg" xmlns:xlink="http://www.w3.org/1999/xlink">
<g id="graph0" class="graph" transform="scale(1 1) rotate(0) translate(4 430)">
<title>src/wmtk/operations/AttributeTransferEdge.cpp</title>
<!-- Node1 -->
<g id="Node000001" class="node">
<title>Node1</title>
<g id="a_Node000001"><a xlink:title=" ">
<polygon fill="#999999" stroke="#666666" points="159,-426 13,-426 13,-396 159,-396 159,-426"/>
<text text-anchor="start" x="21" y="-414" font-family="Helvetica,sans-Serif" font-size="10.00">src/wmtk/operations</text>
<text text-anchor="middle" x="86" y="-403" font-family="Helvetica,sans-Serif" font-size="10.00">/AttributeTransferEdge.cpp</text>
</a>
</g>
</g>
<!-- Node2 -->
<g id="Node000002" class="node">
<title>Node2</title>
<g id="a_Node000002"><a xlink:href="_attribute_transfer_edge_8hpp.html" target="_top" xlink:title=" ">
<polygon fill="white" stroke="#666666" points="157.5,-360 14.5,-360 14.5,-341 157.5,-341 157.5,-360"/>
<text text-anchor="middle" x="86" y="-348" font-family="Helvetica,sans-Serif" font-size="10.00">AttributeTransferEdge.hpp</text>
</a>
</g>
</g>
<!-- Node1&#45;&gt;Node2 -->
<g id="edge1_Node000001_Node000002" class="edge">
<title>Node1&#45;&gt;Node2</title>
<g id="a_edge1_Node000001_Node000002"><a xlink:title=" ">
<path fill="none" stroke="#63b8ff" d="M86,-395.84C86,-388.21 86,-378.7 86,-370.45"/>
<polygon fill="#63b8ff" stroke="#63b8ff" points="89.5,-370.27 86,-360.27 82.5,-370.27 89.5,-370.27"/>
</a>
</g>
</g>
<!-- Node3 -->
<g id="Node000003" class="node">
<title>Node3</title>
<g id="a_Node000003"><a xlink:title=" ">
<polygon fill="#e0e0e0" stroke="#999999" points="58,-299.5 0,-299.5 0,-280.5 58,-280.5 58,-299.5"/>
<text text-anchor="middle" x="29" y="-287.5" font-family="Helvetica,sans-Serif" font-size="10.00">memory</text>
</a>
</g>
</g>
<!-- Node2&#45;&gt;Node3 -->
<g id="edge2_Node000002_Node000003" class="edge">
<title>Node2&#45;&gt;Node3</title>
<g id="a_edge2_Node000002_Node000003"><a xlink:title=" ">
<path fill="none" stroke="#63b8ff" d="M77.59,-340.87C68.92,-331.97 55.2,-317.89 44.54,-306.95"/>
<polygon fill="#63b8ff" stroke="#63b8ff" points="46.93,-304.39 37.45,-299.67 41.92,-309.27 46.93,-304.39"/>
</a>
</g>
</g>
<!-- Node4 -->
<g id="Node000004" class="node">
<title>Node4</title>
<g id="a_Node000004"><a xlink:title=" ">
<polygon fill="#e0e0e0" stroke="#999999" points="161.5,-19 114.5,-19 114.5,0 161.5,0 161.5,-19"/>
<text text-anchor="middle" x="138" y="-7" font-family="Helvetica,sans-Serif" font-size="10.00">vector</text>
</a>
</g>
</g>
<!-- Node2&#45;&gt;Node4 -->
<g id="edge3_Node000002_Node000004" class="edge">
<title>Node2&#45;&gt;Node4</title>
<g id="a_edge3_Node000002_Node000004"><a xlink:title=" ">
<path fill="none" stroke="#63b8ff" d="M86,-340.84C86,-321.21 86,-271.82 86,-230.5 86,-230.5 86,-230.5 86,-118.5 86,-89.04 91.81,-81.34 105,-55 110,-45.02 117.25,-34.95 123.68,-26.91"/>
<polygon fill="#63b8ff" stroke="#63b8ff" points="126.47,-29.02 130.19,-19.1 121.1,-24.54 126.47,-29.02"/>
</a>
</g>
</g>
<!-- Node5 -->
<g id="Node000005" class="node">
<title>Node5</title>
<g id="a_Node000005"><a xlink:href="_mesh_attribute_handle_8hpp.html" target="_top" xlink:title=" ">
<polygon fill="white" stroke="#666666" points="506.5,-305 345.5,-305 345.5,-275 506.5,-275 506.5,-305"/>
<text text-anchor="start" x="353.5" y="-293" font-family="Helvetica,sans-Serif" font-size="10.00">wmtk/attribute/MeshAttribute</text>
<text text-anchor="middle" x="426" y="-282" font-family="Helvetica,sans-Serif" font-size="10.00">Handle.hpp</text>
</a>
</g>
</g>
<!-- Node2&#45;&gt;Node5 -->
<g id="edge4_Node000002_Node000005" class="edge">
<title>Node2&#45;&gt;Node5</title>
<g id="a_edge4_Node000002_Node000005"><a xlink:title=" ">
<path fill="none" stroke="#63b8ff" d="M135.44,-340.99C187.62,-332.01 271.04,-317.66 335.13,-306.63"/>
<polygon fill="#63b8ff" stroke="#63b8ff" points="335.98,-310.04 345.24,-304.89 334.8,-303.14 335.98,-310.04"/>
</a>
</g>
</g>
<!-- Node6 -->
<g id="Node000006" class="node">
<title>Node6</title>
<g id="a_Node000006"><a xlink:href="_rational_8hpp.html" target="_top" xlink:title=" ">
<polygon fill="white" stroke="#666666" points="695.5,-129 562.5,-129 562.5,-110 695.5,-110 695.5,-129"/>
<text text-anchor="middle" x="629" y="-117" font-family="Helvetica,sans-Serif" font-size="10.00">wmtk/utils/Rational.hpp</text>
</a>
</g>
</g>
<!-- Node5&#45;&gt;Node6 -->
<g id="edge5_Node000005_Node000006" class="edge">
<title>Node5&#45;&gt;Node6</title>
<g id="a_edge5_Node000005_Node000006"><a xlink:title=" ">
<path fill="none" stroke="#63b8ff" d="M506.55,-281.13C537.12,-274.34 570.06,-261.85 593,-239 620.2,-211.9 626.97,-164.95 628.58,-139.03"/>
<polygon fill="#63b8ff" stroke="#63b8ff" points="632.08,-139.17 629,-129.03 625.08,-138.87 632.08,-139.17"/>
</a>
</g>
</g>
<!-- Node11 -->
<g id="Node000011" class="node">
<title>Node11</title>
<g id="a_Node000011"><a xlink:href="_typed_attribute_handle_8hpp.html" target="_top" xlink:title=" ">
<polygon fill="white" stroke="#666666" points="281.5,-184 138.5,-184 138.5,-165 281.5,-165 281.5,-184"/>
<text text-anchor="middle" x="210" y="-172" font-family="Helvetica,sans-Serif" font-size="10.00">TypedAttributeHandle.hpp</text>
</a>
</g>
</g>
<!-- Node5&#45;&gt;Node11 -->
<g id="edge10_Node000005_Node000011" class="edge">
<title>Node5&#45;&gt;Node11</title>
<g id="a_edge10_Node000005_Node000011"><a xlink:title=" ">
<path fill="none" stroke="#63b8ff" d="M398.35,-274.88C378.91,-264.92 352.32,-251.23 329,-239 296.41,-221.91 258.99,-201.87 234.95,-188.95"/>
<polygon fill="#63b8ff" stroke="#63b8ff" points="236.59,-185.86 226.13,-184.2 233.28,-192.02 236.59,-185.86"/>
</a>
</g>
</g>
<!-- Node17 -->
<g id="Node000017" class="node">
<title>Node17</title>
<g id="a_Node000017"><a xlink:href="_hybrid_rational_attribute_8hpp.html" target="_top" xlink:title=" ">
<polygon fill="white" stroke="#666666" points="514.5,-239 337.5,-239 337.5,-220 514.5,-220 514.5,-239"/>
<text text-anchor="middle" x="426" y="-227" font-family="Helvetica,sans-Serif" font-size="10.00">utils/HybridRationalAttribute.hpp</text>
</a>
</g>
</g>
<!-- Node5&#45;&gt;Node17 -->
<g id="edge19_Node000005_Node000017" class="edge">
<title>Node5&#45;&gt;Node17</title>
<g id="a_edge19_Node000005_Node000017"><a xlink:title=" ">
<path fill="none" stroke="#63b8ff" d="M426,-274.84C426,-267.21 426,-257.7 426,-249.45"/>
<polygon fill="#63b8ff" stroke="#63b8ff" points="429.5,-249.27 426,-239.27 422.5,-249.27 429.5,-249.27"/>
</a>
</g>
</g>
<!-- Node24 -->
<g id="Node000024" class="node">
<title>Node24</title>
<g id="a_Node000024"><a xlink:title=" ">
<polygon fill="#e0e0e0" stroke="#999999" points="583.5,-239 532.5,-239 532.5,-220 583.5,-220 583.5,-239"/>
<text text-anchor="middle" x="558" y="-227" font-family="Helvetica,sans-Serif" font-size="10.00">variant</text>
</a>
</g>
</g>
<!-- Node5&#45;&gt;Node24 -->
<g id="edge34_Node000005_Node000024" class="edge">
<title>Node5&#45;&gt;Node24</title>
<g id="a_edge34_Node000005_Node000024"><a xlink:title=" ">
<path fill="none" stroke="#63b8ff" d="M457.62,-274.99C479.35,-265.36 507.97,-252.67 529.09,-243.31"/>
<polygon fill="#63b8ff" stroke="#63b8ff" points="530.78,-246.39 538.51,-239.14 527.95,-239.99 530.78,-246.39"/>
</a>
</g>
</g>
<!-- Node7 -->
<g id="Node000007" class="node">
<title>Node7</title>
<g id="a_Node000007"><a xlink:title=" ">
<polygon fill="#e0e0e0" stroke="#999999" points="833.5,-74 764.5,-74 764.5,-55 833.5,-55 833.5,-74"/>
<text text-anchor="middle" x="799" y="-62" font-family="Helvetica,sans-Serif" font-size="10.00">Eigen/Core</text>
</a>
</g>
</g>
<!-- Node6&#45;&gt;Node7 -->
<g id="edge6_Node000006_Node000007" class="edge">
<title>Node6&#45;&gt;Node7</title>
<g id="a_edge6_Node000006_Node000007"><a xlink:title=" ">
<path fill="none" stroke="#63b8ff" d="M656.31,-109.98C684.85,-101.09 729.83,-87.07 761.64,-77.15"/>
<polygon fill="#63b8ff" stroke="#63b8ff" points="762.97,-80.4 771.47,-74.08 760.88,-73.72 762.97,-80.4"/>
</a>
</g>
</g>
<!-- Node8 -->
<g id="Node000008" class="node">
<title>Node8</title>
<g id="a_Node000008"><a xlink:title=" ">
<polygon fill="#e0e0e0" stroke="#999999" points="746.5,-74 699.5,-74 699.5,-55 746.5,-55 746.5,-74"/>
<text text-anchor="middle" x="723" y="-62" font-family="Helvetica,sans-Serif" font-size="10.00">gmp.h</text>
</a>
</g>
</g>
<!-- Node6&#45;&gt;Node8 -->
<g id="edge7_Node000006_Node000008" class="edge">
<title>Node6&#45;&gt;Node8</title>
<g id="a_edge7_Node000006_Node000008"><a xlink:title=" ">
<path fill="none" stroke="#63b8ff" d="M644.1,-109.98C658.82,-101.69 681.42,-88.94 698.67,-79.22"/>
<polygon fill="#63b8ff" stroke="#63b8ff" points="700.63,-82.13 707.62,-74.17 697.19,-76.03 700.63,-82.13"/>
</a>
</g>
</g>
<!-- Node9 -->
<g id="Node000009" class="node">
<title>Node9</title>
<g id="a_Node000009"><a xlink:title=" ">
<polygon fill="#e0e0e0" stroke="#999999" points="619,-74 559,-74 559,-55 619,-55 619,-74"/>
<text text-anchor="middle" x="589" y="-62" font-family="Helvetica,sans-Serif" font-size="10.00">iostream</text>
</a>
</g>
</g>
<!-- Node6&#45;&gt;Node9 -->
<g id="edge8_Node000006_Node000009" class="edge">
<title>Node6&#45;&gt;Node9</title>
<g id="a_edge8_Node000006_Node000009"><a xlink:title=" ">
<path fill="none" stroke="#63b8ff" d="M622.39,-109.75C616.74,-102.26 608.46,-91.28 601.55,-82.13"/>
<polygon fill="#63b8ff" stroke="#63b8ff" points="604.3,-79.96 595.48,-74.09 598.71,-84.18 604.3,-79.96"/>
</a>
</g>
</g>
<!-- Node10 -->
<g id="Node000010" class="node">
<title>Node10</title>
<g id="a_Node000010"><a xlink:title=" ">
<polygon fill="#e0e0e0" stroke="#999999" points="681,-74 637,-74 637,-55 681,-55 681,-74"/>
<text text-anchor="middle" x="659" y="-62" font-family="Helvetica,sans-Serif" font-size="10.00">string</text>
</a>
</g>
</g>
<!-- Node6&#45;&gt;Node10 -->
<g id="edge9_Node000006_Node000010" class="edge">
<title>Node6&#45;&gt;Node10</title>
<g id="a_edge9_Node000006_Node000010"><a xlink:title=" ">
<path fill="none" stroke="#63b8ff" d="M633.95,-109.75C638.06,-102.49 644.03,-91.95 649.1,-82.98"/>
<polygon fill="#63b8ff" stroke="#63b8ff" points="652.26,-84.52 654.14,-74.09 646.17,-81.07 652.26,-84.52"/>
</a>
</g>
</g>
<!-- Node11&#45;&gt;Node6 -->
<g id="edge15_Node000011_Node000006" class="edge">
<title>Node11&#45;&gt;Node6</title>
<g id="a_edge15_Node000011_Node000006"><a xlink:title=" ">
<path fill="none" stroke="#63b8ff" d="M277.32,-164.98C352.26,-155.51 473.16,-140.21 551.86,-130.26"/>
<polygon fill="#63b8ff" stroke="#63b8ff" points="552.71,-133.68 562.19,-128.95 551.83,-126.73 552.71,-133.68"/>
</a>
</g>
</g>
<!-- Node12 -->
<g id="Node000012" class="node">
<title>Node12</title>
<g id="a_Node000012"><a xlink:href="_primitive_type_8hpp.html" target="_top" xlink:title=" ">
<polygon fill="white" stroke="#666666" points="336.5,-74 201.5,-74 201.5,-55 336.5,-55 336.5,-74"/>
<text text-anchor="middle" x="269" y="-62" font-family="Helvetica,sans-Serif" font-size="10.00">wmtk/PrimitiveType.hpp</text>
</a>
</g>
</g>
<!-- Node11&#45;&gt;Node12 -->
<g id="edge11_Node000011_Node000012" class="edge">
<title>Node11&#45;&gt;Node12</title>
<g id="a_edge11_Node000011_Node000012"><a xlink:title=" ">
<path fill="none" stroke="#63b8ff" d="M219.91,-164.9C228.95,-156.56 242.07,-143.13 250,-129 257.84,-115.03 262.77,-97.47 265.64,-84.37"/>
<polygon fill="#63b8ff" stroke="#63b8ff" points="269.15,-84.68 267.65,-74.19 262.28,-83.32 269.15,-84.68"/>
</a>
</g>
</g>
<!-- Node15 -->
<g id="Node000015" class="node">
<title>Node15</title>
<g id="a_Node000015"><a xlink:href="_attribute_handle_8hpp.html" target="_top" xlink:title=" ">
<polygon fill="white" stroke="#666666" points="240.5,-129 125.5,-129 125.5,-110 240.5,-110 240.5,-129"/>
<text text-anchor="middle" x="183" y="-117" font-family="Helvetica,sans-Serif" font-size="10.00">AttributeHandle.hpp</text>
</a>
</g>
</g>
<!-- Node11&#45;&gt;Node15 -->
<g id="edge16_Node000011_Node000015" class="edge">
<title>Node11&#45;&gt;Node15</title>
<g id="a_edge16_Node000011_Node000015"><a xlink:title=" ">
<path fill="none" stroke="#63b8ff" d="M205.54,-164.75C201.88,-157.57 196.59,-147.18 192.05,-138.27"/>
<polygon fill="#63b8ff" stroke="#63b8ff" points="195.03,-136.41 187.38,-129.09 188.8,-139.59 195.03,-136.41"/>
</a>
</g>
</g>
<!-- Node12&#45;&gt;Node4 -->
<g id="edge14_Node000012_Node000004" class="edge">
<title>Node12&#45;&gt;Node4</title>
<g id="a_edge14_Node000012_Node000004"><a xlink:title=" ">
<path fill="none" stroke="#63b8ff" d="M247.95,-54.98C226.59,-46.34 193.3,-32.87 168.94,-23.02"/>
<polygon fill="#63b8ff" stroke="#63b8ff" points="170.01,-19.68 159.43,-19.17 167.39,-26.17 170.01,-19.68"/>
</a>
</g>
</g>
<!-- Node13 -->
<g id="Node000013" class="node">
<title>Node13</title>
<g id="a_Node000013"><a xlink:title=" ">
<polygon fill="#e0e0e0" stroke="#999999" points="344.5,-19 279.5,-19 279.5,0 344.5,0 344.5,-19"/>
<text text-anchor="middle" x="312" y="-7" font-family="Helvetica,sans-Serif" font-size="10.00">stdexcept</text>
</a>
</g>
</g>
<!-- Node12&#45;&gt;Node13 -->
<g id="edge12_Node000012_Node000013" class="edge">
<title>Node12&#45;&gt;Node13</title>
<g id="a_edge12_Node000012_Node000013"><a xlink:title=" ">
<path fill="none" stroke="#63b8ff" d="M276.1,-54.75C282.17,-47.26 291.09,-36.28 298.51,-27.13"/>
<polygon fill="#63b8ff" stroke="#63b8ff" points="301.45,-29.06 305.03,-19.09 296.01,-24.65 301.45,-29.06"/>
</a>
</g>
</g>
<!-- Node14 -->
<g id="Node000014" class="node">
<title>Node14</title>
<g id="a_Node000014"><a xlink:title=" ">
<polygon fill="#e0e0e0" stroke="#999999" points="261.5,-19 188.5,-19 188.5,0 261.5,0 261.5,-19"/>
<text text-anchor="middle" x="225" y="-7" font-family="Helvetica,sans-Serif" font-size="10.00">string_view</text>
</a>
</g>
</g>
<!-- Node12&#45;&gt;Node14 -->
<g id="edge13_Node000012_Node000014" class="edge">
<title>Node12&#45;&gt;Node14</title>
<g id="a_edge13_Node000012_Node000014"><a xlink:title=" ">
<path fill="none" stroke="#63b8ff" d="M261.73,-54.75C255.46,-47.18 246.21,-36.05 238.57,-26.84"/>
<polygon fill="#63b8ff" stroke="#63b8ff" points="241.21,-24.55 232.13,-19.09 235.83,-29.02 241.21,-24.55"/>
</a>
</g>
</g>
<!-- Node15&#45;&gt;Node12 -->
<g id="edge18_Node000015_Node000012" class="edge">
<title>Node15&#45;&gt;Node12</title>
<g id="a_edge18_Node000015_Node000012"><a xlink:title=" ">
<path fill="none" stroke="#63b8ff" d="M196.82,-109.98C210.15,-101.77 230.58,-89.18 246.31,-79.49"/>
<polygon fill="#63b8ff" stroke="#63b8ff" points="248.25,-82.4 254.93,-74.17 244.58,-76.44 248.25,-82.4"/>
</a>
</g>
</g>
<!-- Node16 -->
<g id="Node000016" class="node">
<title>Node16</title>
<g id="a_Node000016"><a xlink:title=" ">
<polygon fill="#e0e0e0" stroke="#999999" points="183.5,-74 114.5,-74 114.5,-55 183.5,-55 183.5,-74"/>
<text text-anchor="middle" x="149" y="-62" font-family="Helvetica,sans-Serif" font-size="10.00">type_traits</text>
</a>
</g>
</g>
<!-- Node15&#45;&gt;Node16 -->
<g id="edge17_Node000015_Node000016" class="edge">
<title>Node15&#45;&gt;Node16</title>
<g id="a_edge17_Node000015_Node000016"><a xlink:title=" ">
<path fill="none" stroke="#63b8ff" d="M177.39,-109.75C172.68,-102.42 165.83,-91.73 160.03,-82.7"/>
<polygon fill="#63b8ff" stroke="#63b8ff" points="162.86,-80.62 154.51,-74.09 156.96,-84.4 162.86,-80.62"/>
</a>
</g>
</g>
<!-- Node17&#45;&gt;Node6 -->
<g id="edge33_Node000017_Node000006" class="edge">
<title>Node17&#45;&gt;Node6</title>
<g id="a_edge33_Node000017_Node000006"><a xlink:title=" ">
<path fill="none" stroke="#63b8ff" d="M468.55,-219.94C496.72,-213.04 533.72,-201.55 563,-184 583.78,-171.54 603.21,-151.42 615.53,-137.17"/>
<polygon fill="#63b8ff" stroke="#63b8ff" points="618.49,-139.08 622.23,-129.17 613.12,-134.59 618.49,-139.08"/>
</a>
</g>
</g>
<!-- Node17&#45;&gt;Node7 -->
<g id="edge21_Node000017_Node000007" class="edge">
<title>Node17&#45;&gt;Node7</title>
<g id="a_edge21_Node000017_Node000007"><a xlink:title=" ">
<path fill="none" stroke="#63b8ff" d="M464.81,-219.95C498.22,-212.1 547.46,-199.38 589,-184 642.51,-164.19 655.44,-157.27 705,-129 731.61,-113.82 760.59,-93.64 779.23,-80.15"/>
<polygon fill="#63b8ff" stroke="#63b8ff" points="781.48,-82.83 787.5,-74.11 777.36,-77.18 781.48,-82.83"/>
</a>
</g>
</g>
<!-- Node17&#45;&gt;Node11 -->
<g id="edge32_Node000017_Node000011" class="edge">
<title>Node17&#45;&gt;Node11</title>
<g id="a_edge32_Node000017_Node000011"><a xlink:title=" ">
<path fill="none" stroke="#63b8ff" d="M391.3,-219.98C354.25,-210.89 295.41,-196.46 254.87,-186.51"/>
<polygon fill="#63b8ff" stroke="#63b8ff" points="255.52,-183.07 244.98,-184.08 253.85,-189.86 255.52,-183.07"/>
</a>
</g>
</g>
<!-- Node18 -->
<g id="Node000018" class="node">
<title>Node18</title>
<g id="a_Node000018"><a xlink:title=" ">
<polygon fill="#e0e0e0" stroke="#999999" points="398,-184 300,-184 300,-165 398,-165 398,-184"/>
<text text-anchor="middle" x="349" y="-172" font-family="Helvetica,sans-Serif" font-size="10.00">spdlog/fmt/fmt.h</text>
</a>
</g>
</g>
<!-- Node17&#45;&gt;Node18 -->
<g id="edge20_Node000017_Node000018" class="edge">
<title>Node17&#45;&gt;Node18</title>
<g id="a_edge20_Node000017_Node000018"><a xlink:title=" ">
<path fill="none" stroke="#63b8ff" d="M413.63,-219.98C401.91,-211.92 384.08,-199.65 370.11,-190.03"/>
<polygon fill="#63b8ff" stroke="#63b8ff" points="371.82,-186.96 361.6,-184.17 367.85,-192.72 371.82,-186.96"/>
</a>
</g>
</g>
<!-- Node19 -->
<g id="Node000019" class="node">
<title>Node19</title>
<g id="a_Node000019"><a xlink:title=" ">
<polygon fill="#e0e0e0" stroke="#999999" points="395.5,-74 354.5,-74 354.5,-55 395.5,-55 395.5,-74"/>
<text text-anchor="middle" x="375" y="-62" font-family="Helvetica,sans-Serif" font-size="10.00">tuple</text>
</a>
</g>
</g>
<!-- Node17&#45;&gt;Node19 -->
<g id="edge22_Node000017_Node000019" class="edge">
<title>Node17&#45;&gt;Node19</title>
<g id="a_edge22_Node000017_Node000019"><a xlink:title=" ">
<path fill="none" stroke="#63b8ff" d="M423.47,-219.86C419.89,-207.62 413.07,-184.56 407,-165 398.2,-136.63 387.57,-103.86 381.05,-83.92"/>
<polygon fill="#63b8ff" stroke="#63b8ff" points="384.32,-82.68 377.89,-74.27 377.67,-84.86 384.32,-82.68"/>
</a>
</g>
</g>
<!-- Node20 -->
<g id="Node000020" class="node">
<title>Node20</title>
<g id="a_Node000020"><a xlink:href="_tuple_8hpp.html" target="_top" xlink:title=" ">
<polygon fill="white" stroke="#666666" points="554,-184 460,-184 460,-165 554,-165 554,-184"/>
<text text-anchor="middle" x="507" y="-172" font-family="Helvetica,sans-Serif" font-size="10.00">wmtk/Tuple.hpp</text>
</a>
</g>
</g>
<!-- Node17&#45;&gt;Node20 -->
<g id="edge23_Node000017_Node000020" class="edge">
<title>Node17&#45;&gt;Node20</title>
<g id="a_edge23_Node000017_Node000020"><a xlink:title=" ">
<path fill="none" stroke="#63b8ff" d="M439.01,-219.98C451.46,-211.84 470.46,-199.41 485.21,-189.76"/>
<polygon fill="#63b8ff" stroke="#63b8ff" points="487.3,-192.57 493.75,-184.17 483.46,-186.72 487.3,-192.57"/>
</a>
</g>
</g>
<!-- Node20&#45;&gt;Node12 -->
<g id="edge24_Node000020_Node000012" class="edge">
<title>Node20&#45;&gt;Node12</title>
<g id="a_edge24_Node000020_Node000012"><a xlink:title=" ">
<path fill="none" stroke="#63b8ff" d="M487.93,-164.84C446.13,-145.88 346.3,-100.58 297.22,-78.31"/>
<polygon fill="#63b8ff" stroke="#63b8ff" points="298.39,-74.99 287.83,-74.05 295.49,-81.37 298.39,-74.99"/>
</a>
</g>
</g>
<!-- Node21 -->
<g id="Node000021" class="node">
<title>Node21</title>
<g id="a_Node000021"><a xlink:href="_tuple_8hxx.html" target="_top" xlink:title=" ">
<polygon fill="white" stroke="#666666" points="544.5,-129 481.5,-129 481.5,-110 544.5,-110 544.5,-129"/>
<text text-anchor="middle" x="513" y="-117" font-family="Helvetica,sans-Serif" font-size="10.00">Tuple.hxx</text>
</a>
</g>
</g>
<!-- Node20&#45;&gt;Node21 -->
<g id="edge25_Node000020_Node000021" class="edge">
<title>Node20&#45;&gt;Node21</title>
<g id="a_edge25_Node000020_Node000021"><a xlink:title=" ">
<path fill="none" stroke="#63b8ff" d="M502.82,-164.75C502.11,-157.72 502.82,-147.62 504.47,-138.84"/>
<polygon fill="#63b8ff" stroke="#63b8ff" points="507.87,-139.64 506.9,-129.09 501.08,-137.95 507.87,-139.64"/>
</a>
</g>
</g>
<!-- Node21&#45;&gt;Node9 -->
<g id="edge27_Node000021_Node000009" class="edge">
<title>Node21&#45;&gt;Node9</title>
<g id="a_edge27_Node000021_Node000009"><a xlink:title=" ">
<path fill="none" stroke="#63b8ff" d="M525.21,-109.98C536.78,-101.92 554.38,-89.65 568.16,-80.03"/>
<polygon fill="#63b8ff" stroke="#63b8ff" points="570.37,-82.76 576.57,-74.17 566.36,-77.02 570.37,-82.76"/>
</a>
</g>
</g>
<!-- Node21&#45;&gt;Node10 -->
<g id="edge29_Node000021_Node000010" class="edge">
<title>Node21&#45;&gt;Node10</title>
<g id="a_edge29_Node000021_Node000010"><a xlink:title=" ">
<path fill="none" stroke="#63b8ff" d="M536.46,-109.98C561.01,-101.07 599.72,-87.02 627.05,-77.1"/>
<polygon fill="#63b8ff" stroke="#63b8ff" points="628.35,-80.35 636.56,-73.65 625.97,-73.77 628.35,-80.35"/>
</a>
</g>
</g>
<!-- Node21&#45;&gt;Node19 -->
<g id="edge30_Node000021_Node000019" class="edge">
<title>Node21&#45;&gt;Node19</title>
<g id="a_edge30_Node000021_Node000019"><a xlink:title=" ">
<path fill="none" stroke="#63b8ff" d="M490.83,-109.98C467.69,-101.1 431.25,-87.1 405.43,-77.19"/>
<polygon fill="#63b8ff" stroke="#63b8ff" points="406.35,-73.79 395.76,-73.47 403.84,-80.33 406.35,-73.79"/>
</a>
</g>
</g>
<!-- Node21&#45;&gt;Node20 -->
<g id="edge31_Node000021_Node000020" class="edge">
<title>Node21&#45;&gt;Node20</title>
<g id="a_edge31_Node000021_Node000020"><a xlink:title=" ">
<path fill="none" stroke="#63b8ff" d="M517.16,-129.09C517.9,-136.06 517.2,-146.15 515.57,-154.95"/>
<polygon fill="#63b8ff" stroke="#63b8ff" points="512.15,-154.2 513.16,-164.75 518.95,-155.88 512.15,-154.2"/>
</a>
</g>
</g>
<!-- Node22 -->
<g id="Node000022" class="node">
<title>Node22</title>
<g id="a_Node000022"><a xlink:title=" ">
<polygon fill="#e0e0e0" stroke="#999999" points="466.5,-74 413.5,-74 413.5,-55 466.5,-55 466.5,-74"/>
<text text-anchor="middle" x="440" y="-62" font-family="Helvetica,sans-Serif" font-size="10.00">cstddef</text>
</a>
</g>
</g>
<!-- Node21&#45;&gt;Node22 -->
<g id="edge26_Node000021_Node000022" class="edge">
<title>Node21&#45;&gt;Node22</title>
<g id="a_edge26_Node000021_Node000022"><a xlink:title=" ">
<path fill="none" stroke="#63b8ff" d="M501.27,-109.98C490.27,-102 473.58,-89.88 460.4,-80.31"/>
<polygon fill="#63b8ff" stroke="#63b8ff" points="462.09,-77.21 451.94,-74.17 457.98,-82.88 462.09,-77.21"/>
</a>
</g>
</g>
<!-- Node23 -->
<g id="Node000023" class="node">
<title>Node23</title>
<g id="a_Node000023"><a xlink:title=" ">
<polygon fill="#e0e0e0" stroke="#999999" points="541,-74 485,-74 485,-55 541,-55 541,-74"/>
<text text-anchor="middle" x="513" y="-62" font-family="Helvetica,sans-Serif" font-size="10.00">optional</text>
</a>
</g>
</g>
<!-- Node21&#45;&gt;Node23 -->
<g id="edge28_Node000021_Node000023" class="edge">
<title>Node21&#45;&gt;Node23</title>
<g id="a_edge28_Node000021_Node000023"><a xlink:title=" ">
<path fill="none" stroke="#63b8ff" d="M513,-109.75C513,-102.8 513,-92.85 513,-84.13"/>
<polygon fill="#63b8ff" stroke="#63b8ff" points="516.5,-84.09 513,-74.09 509.5,-84.09 516.5,-84.09"/>
</a>
</g>
</g>
</g>
</svg>
