<?xml version="1.0" encoding="UTF-8" standalone="no"?>
<!DOCTYPE svg PUBLIC "-//W3C//DTD SVG 1.1//EN"
 "http://www.w3.org/Graphics/SVG/1.1/DTD/svg11.dtd">
<!-- Generated by graphviz version 2.43.0 (0)
 -->
<!-- Title: src/wmtk/operations/attribute_update/AttributeTransferStrategy.hpp Pages: 1 -->
<svg width="2241pt" height="302pt"
 viewBox="0.00 0.00 2241.00 302.00" xmlns="http://www.w3.org/2000/svg" xmlns:xlink="http://www.w3.org/1999/xlink">
<g id="graph0" class="graph" transform="scale(1 1) rotate(0) translate(4 298)">
<title>src/wmtk/operations/attribute_update/AttributeTransferStrategy.hpp</title>
<!-- Node1 -->
<g id="Node000001" class="node">
<title>Node1</title>
<g id="a_Node000001"><a xlink:title=" ">
<polygon fill="#999999" stroke="#666666" points="1363,-294 1217,-294 1217,-253 1363,-253 1363,-294"/>
<text text-anchor="start" x="1225" y="-282" font-family="Helvetica,sans-Serif" font-size="10.00">src/wmtk/operations</text>
<text text-anchor="start" x="1225" y="-271" font-family="Helvetica,sans-Serif" font-size="10.00">/attribute_update/Attribute</text>
<text text-anchor="middle" x="1290" y="-260" font-family="Helvetica,sans-Serif" font-size="10.00">TransferStrategy.hpp</text>
</a>
</g>
</g>
<!-- Node2 -->
<g id="Node000002" class="node">
<title>Node2</title>
<g id="a_Node000002"><a xlink:href="_c_d_t_8cpp.html" target="_top" xlink:title=" ">
<polygon fill="white" stroke="#666666" points="146,-206 0,-206 0,-176 146,-176 146,-206"/>
<text text-anchor="start" x="8" y="-194" font-family="Helvetica,sans-Serif" font-size="10.00">components/CDT/wmtk</text>
<text text-anchor="middle" x="73" y="-183" font-family="Helvetica,sans-Serif" font-size="10.00">/components/CDT/CDT.cpp</text>
</a>
</g>
</g>
<!-- Node1&#45;&gt;Node2 -->
<g id="edge1_Node000001_Node000002" class="edge">
<title>Node1&#45;&gt;Node2</title>
<g id="a_edge1_Node000001_Node000002"><a xlink:title=" ">
<path fill="none" stroke="#63b8ff" d="M1206.75,-271.09C980.39,-266.84 357.19,-252.2 155,-217 140.78,-214.52 125.56,-210.33 112.14,-206.09"/>
<polygon fill="#63b8ff" stroke="#63b8ff" points="1206.84,-274.6 1216.9,-271.28 1206.97,-267.6 1206.84,-274.6"/>
</a>
</g>
</g>
<!-- Node3 -->
<g id="Node000003" class="node">
<title>Node3</title>
<g id="a_Node000003"><a xlink:href="_isotropic_remeshing_8cpp.html" target="_top" xlink:title=" ">
<polygon fill="white" stroke="#666666" points="331.5,-217 164.5,-217 164.5,-165 331.5,-165 331.5,-217"/>
<text text-anchor="start" x="172.5" y="-205" font-family="Helvetica,sans-Serif" font-size="10.00">components/isotropic</text>
<text text-anchor="start" x="172.5" y="-194" font-family="Helvetica,sans-Serif" font-size="10.00">_remeshing/wmtk/components</text>
<text text-anchor="start" x="172.5" y="-183" font-family="Helvetica,sans-Serif" font-size="10.00">/isotropic_remeshing/internal</text>
<text text-anchor="middle" x="248" y="-172" font-family="Helvetica,sans-Serif" font-size="10.00">/IsotropicRemeshing.cpp</text>
</a>
</g>
</g>
<!-- Node1&#45;&gt;Node3 -->
<g id="edge2_Node000001_Node000003" class="edge">
<title>Node1&#45;&gt;Node3</title>
<g id="a_edge2_Node000001_Node000003"><a xlink:title=" ">
<path fill="none" stroke="#63b8ff" d="M1206.59,-273.4C1040.48,-273.91 657.02,-268.76 340,-217 337.22,-216.55 334.41,-216.04 331.58,-215.5"/>
<polygon fill="#63b8ff" stroke="#63b8ff" points="1206.75,-276.89 1216.73,-273.36 1206.72,-269.89 1206.75,-276.89"/>
</a>
</g>
</g>
<!-- Node4 -->
<g id="Node000004" class="node">
<title>Node4</title>
<g id="a_Node000004"><a xlink:href="internal_2marching_8cpp.html" target="_top" xlink:title=" ">
<polygon fill="white" stroke="#666666" points="508.5,-211.5 349.5,-211.5 349.5,-170.5 508.5,-170.5 508.5,-211.5"/>
<text text-anchor="start" x="357.5" y="-199.5" font-family="Helvetica,sans-Serif" font-size="10.00">components/marching</text>
<text text-anchor="start" x="357.5" y="-188.5" font-family="Helvetica,sans-Serif" font-size="10.00">/wmtk/components/marching</text>
<text text-anchor="middle" x="429" y="-177.5" font-family="Helvetica,sans-Serif" font-size="10.00">/internal/Marching.cpp</text>
</a>
</g>
</g>
<!-- Node1&#45;&gt;Node4 -->
<g id="edge3_Node000001_Node000004" class="edge">
<title>Node1&#45;&gt;Node4</title>
<g id="a_edge3_Node000001_Node000004"><a xlink:title=" ">
<path fill="none" stroke="#63b8ff" d="M1206.37,-272C1063.97,-269.92 765.79,-260.25 518,-217 509.78,-215.56 501.23,-213.68 492.81,-211.59"/>
<polygon fill="#63b8ff" stroke="#63b8ff" points="1206.71,-275.51 1216.76,-272.14 1206.81,-268.51 1206.71,-275.51"/>
</a>
</g>
</g>
<!-- Node5 -->
<g id="Node000005" class="node">
<title>Node5</title>
<g id="a_Node000005"><a xlink:href="multimesh_8cpp.html" target="_top" xlink:title=" ">
<polygon fill="white" stroke="#666666" points="693,-211.5 527,-211.5 527,-170.5 693,-170.5 693,-211.5"/>
<text text-anchor="start" x="535" y="-199.5" font-family="Helvetica,sans-Serif" font-size="10.00">components/multimesh</text>
<text text-anchor="start" x="535" y="-188.5" font-family="Helvetica,sans-Serif" font-size="10.00">/wmtk/components/multimesh</text>
<text text-anchor="middle" x="610" y="-177.5" font-family="Helvetica,sans-Serif" font-size="10.00">/multimesh.cpp</text>
</a>
</g>
</g>
<!-- Node1&#45;&gt;Node5 -->
<g id="edge4_Node000001_Node000005" class="edge">
<title>Node1&#45;&gt;Node5</title>
<g id="a_edge4_Node000001_Node000005"><a xlink:title=" ">
<path fill="none" stroke="#63b8ff" d="M1206.47,-269.12C1091.92,-263.46 879.99,-249.34 702,-217 693.69,-215.49 685.05,-213.59 676.52,-211.52"/>
<polygon fill="#63b8ff" stroke="#63b8ff" points="1206.42,-272.62 1216.57,-269.61 1206.76,-265.63 1206.42,-272.62"/>
</a>
</g>
</g>
<!-- Node6 -->
<g id="Node000006" class="node">
<title>Node6</title>
<g id="a_Node000006"><a xlink:href="internal_2periodic__optimization_8cpp.html" target="_top" xlink:title=" ">
<polygon fill="white" stroke="#666666" points="888.5,-217 711.5,-217 711.5,-165 888.5,-165 888.5,-217"/>
<text text-anchor="start" x="719.5" y="-205" font-family="Helvetica,sans-Serif" font-size="10.00">components/periodic</text>
<text text-anchor="start" x="719.5" y="-194" font-family="Helvetica,sans-Serif" font-size="10.00">_optimization/wmtk/components</text>
<text text-anchor="start" x="719.5" y="-183" font-family="Helvetica,sans-Serif" font-size="10.00">/periodic_optimization/internal</text>
<text text-anchor="middle" x="800" y="-172" font-family="Helvetica,sans-Serif" font-size="10.00">/periodic_optimization.cpp</text>
</a>
</g>
</g>
<!-- Node1&#45;&gt;Node6 -->
<g id="edge5_Node000001_Node000006" class="edge">
<title>Node1&#45;&gt;Node6</title>
<g id="a_edge5_Node000001_Node000006"><a xlink:title=" ">
<path fill="none" stroke="#63b8ff" d="M1206.79,-263.49C1126.93,-254.2 1003.13,-238.1 897,-217 894.27,-216.46 891.5,-215.88 888.71,-215.29"/>
<polygon fill="#63b8ff" stroke="#63b8ff" points="1206.46,-266.97 1216.79,-264.65 1207.26,-260.02 1206.46,-266.97"/>
</a>
</g>
</g>
<!-- Node7 -->
<g id="Node000007" class="node">
<title>Node7</title>
<g id="a_Node000007"><a xlink:href="periodic__optimization_8cpp.html" target="_top" xlink:title=" ">
<polygon fill="white" stroke="#666666" points="1083.5,-217 906.5,-217 906.5,-165 1083.5,-165 1083.5,-217"/>
<text text-anchor="start" x="914.5" y="-205" font-family="Helvetica,sans-Serif" font-size="10.00">components/periodic</text>
<text text-anchor="start" x="914.5" y="-194" font-family="Helvetica,sans-Serif" font-size="10.00">_optimization/wmtk/components</text>
<text text-anchor="start" x="914.5" y="-183" font-family="Helvetica,sans-Serif" font-size="10.00">/periodic_optimization/periodic</text>
<text text-anchor="middle" x="995" y="-172" font-family="Helvetica,sans-Serif" font-size="10.00">_optimization.cpp</text>
</a>
</g>
</g>
<!-- Node1&#45;&gt;Node7 -->
<g id="edge6_Node000001_Node000007" class="edge">
<title>Node1&#45;&gt;Node7</title>
<g id="a_edge6_Node000001_Node000007"><a xlink:title=" ">
<path fill="none" stroke="#63b8ff" d="M1208.54,-250.27C1169.79,-239.7 1123.39,-227.04 1083.75,-216.22"/>
<polygon fill="#63b8ff" stroke="#63b8ff" points="1207.64,-253.65 1218.21,-252.91 1209.49,-246.9 1207.64,-253.65"/>
</a>
</g>
</g>
<!-- Node8 -->
<g id="Node000008" class="node">
<title>Node8</title>
<g id="a_Node000008"><a xlink:href="shortestedge__collapse_8cpp.html" target="_top" xlink:title=" ">
<polygon fill="white" stroke="#666666" points="1297,-217 1101,-217 1101,-165 1297,-165 1297,-217"/>
<text text-anchor="start" x="1109" y="-205" font-family="Helvetica,sans-Serif" font-size="10.00">components/shortestedge</text>
<text text-anchor="start" x="1109" y="-194" font-family="Helvetica,sans-Serif" font-size="10.00">_collapse/wmtk/components</text>
<text text-anchor="start" x="1109" y="-183" font-family="Helvetica,sans-Serif" font-size="10.00">/shortestedge_collapse/shortestedge</text>
<text text-anchor="middle" x="1199" y="-172" font-family="Helvetica,sans-Serif" font-size="10.00">_collapse.cpp</text>
</a>
</g>
</g>
<!-- Node1&#45;&gt;Node8 -->
<g id="edge7_Node000001_Node000008" class="edge">
<title>Node1&#45;&gt;Node8</title>
<g id="a_edge7_Node000001_Node000008"><a xlink:title=" ">
<path fill="none" stroke="#63b8ff" d="M1259.81,-245.79C1249.37,-236.56 1237.72,-226.26 1227.44,-217.16"/>
<polygon fill="#63b8ff" stroke="#63b8ff" points="1257.7,-248.6 1267.51,-252.6 1262.33,-243.35 1257.7,-248.6"/>
</a>
</g>
</g>
<!-- Node9 -->
<g id="Node000009" class="node">
<title>Node9</title>
<g id="a_Node000009"><a xlink:href="test__component__multimesh__from__tag_8cpp.html" target="_top" xlink:title=" ">
<polygon fill="white" stroke="#666666" points="1449,-211.5 1315,-211.5 1315,-170.5 1449,-170.5 1449,-211.5"/>
<text text-anchor="start" x="1323" y="-199.5" font-family="Helvetica,sans-Serif" font-size="10.00">components/tests/test</text>
<text text-anchor="start" x="1323" y="-188.5" font-family="Helvetica,sans-Serif" font-size="10.00">_component_multimesh</text>
<text text-anchor="middle" x="1382" y="-177.5" font-family="Helvetica,sans-Serif" font-size="10.00">_from_tag.cpp</text>
</a>
</g>
</g>
<!-- Node1&#45;&gt;Node9 -->
<g id="edge8_Node000001_Node000009" class="edge">
<title>Node1&#45;&gt;Node9</title>
<g id="a_edge8_Node000001_Node000009"><a xlink:title=" ">
<path fill="none" stroke="#63b8ff" d="M1320.41,-245.89C1333.17,-234.72 1347.75,-221.97 1359.52,-211.67"/>
<polygon fill="#63b8ff" stroke="#63b8ff" points="1317.96,-243.38 1312.74,-252.6 1322.57,-248.65 1317.96,-243.38"/>
</a>
</g>
</g>
<!-- Node10 -->
<g id="Node000010" class="node">
<title>Node10</title>
<g id="a_Node000010"><a xlink:href="test__component__wildmeshing_8cpp.html" target="_top" xlink:title=" ">
<polygon fill="white" stroke="#666666" points="1631,-206 1467,-206 1467,-176 1631,-176 1631,-206"/>
<text text-anchor="start" x="1475" y="-194" font-family="Helvetica,sans-Serif" font-size="10.00">components/tests/test</text>
<text text-anchor="middle" x="1549" y="-183" font-family="Helvetica,sans-Serif" font-size="10.00">_component_wildmeshing.cpp</text>
</a>
</g>
</g>
<!-- Node1&#45;&gt;Node10 -->
<g id="edge9_Node000001_Node000010" class="edge">
<title>Node1&#45;&gt;Node10</title>
<g id="a_edge9_Node000001_Node000010"><a xlink:title=" ">
<path fill="none" stroke="#63b8ff" d="M1362.79,-249.88C1408.02,-235.82 1464.75,-218.19 1503.64,-206.1"/>
<polygon fill="#63b8ff" stroke="#63b8ff" points="1361.54,-246.6 1353.03,-252.91 1363.62,-253.28 1361.54,-246.6"/>
</a>
</g>
</g>
<!-- Node11 -->
<g id="Node000011" class="node">
<title>Node11</title>
<g id="a_Node000011"><a xlink:href="triangle__insertion_8cpp.html" target="_top" xlink:title=" ">
<polygon fill="white" stroke="#666666" points="1807,-217 1649,-217 1649,-165 1807,-165 1807,-217"/>
<text text-anchor="start" x="1657" y="-205" font-family="Helvetica,sans-Serif" font-size="10.00">components/triangle</text>
<text text-anchor="start" x="1657" y="-194" font-family="Helvetica,sans-Serif" font-size="10.00">_insertion/wmtk/components</text>
<text text-anchor="start" x="1657" y="-183" font-family="Helvetica,sans-Serif" font-size="10.00">/triangle_insertion/triangle</text>
<text text-anchor="middle" x="1728" y="-172" font-family="Helvetica,sans-Serif" font-size="10.00">_insertion.cpp</text>
</a>
</g>
</g>
<!-- Node1&#45;&gt;Node11 -->
<g id="edge10_Node000001_Node000011" class="edge">
<title>Node1&#45;&gt;Node11</title>
<g id="a_edge10_Node000001_Node000011"><a xlink:title=" ">
<path fill="none" stroke="#63b8ff" d="M1373.47,-262.12C1444.71,-252.58 1549.67,-236.92 1640,-217 1642.95,-216.35 1645.94,-215.66 1648.96,-214.94"/>
<polygon fill="#63b8ff" stroke="#63b8ff" points="1372.66,-258.7 1363.21,-263.48 1373.58,-265.64 1372.66,-258.7"/>
</a>
</g>
</g>
<!-- Node12 -->
<g id="Node000012" class="node">
<title>Node12</title>
<g id="a_Node000012"><a xlink:href="wildmeshing_8cpp.html" target="_top" xlink:title=" ">
<polygon fill="white" stroke="#666666" points="2080,-41 1904,-41 1904,0 2080,0 2080,-41"/>
<text text-anchor="start" x="1912" y="-29" font-family="Helvetica,sans-Serif" font-size="10.00">components/wildmeshing</text>
<text text-anchor="start" x="1912" y="-18" font-family="Helvetica,sans-Serif" font-size="10.00">/wmtk/components/wildmeshing</text>
<text text-anchor="middle" x="1992" y="-7" font-family="Helvetica,sans-Serif" font-size="10.00">/wildmeshing.cpp</text>
</a>
</g>
</g>
<!-- Node1&#45;&gt;Node12 -->
<g id="edge11_Node000001_Node000012" class="edge">
<title>Node1&#45;&gt;Node12</title>
<g id="a_edge11_Node000001_Node000012"><a xlink:title=" ">
<path fill="none" stroke="#63b8ff" d="M1373.5,-271.81C1502.41,-269.41 1742.68,-259.21 1816,-217 1840.81,-202.72 1835.59,-186.92 1854,-165 1893.12,-118.41 1943.68,-68.06 1971.45,-41.13"/>
<polygon fill="#63b8ff" stroke="#63b8ff" points="1373.21,-268.32 1363.28,-271.99 1373.34,-275.32 1373.21,-268.32"/>
</a>
</g>
</g>
<!-- Node13 -->
<g id="Node000013" class="node">
<title>Node13</title>
<g id="a_Node000013"><a xlink:href="_attribute_transfer_strategy_8cpp.html" target="_top" xlink:title=" ">
<polygon fill="white" stroke="#666666" points="2009,-211.5 1863,-211.5 1863,-170.5 2009,-170.5 2009,-211.5"/>
<text text-anchor="start" x="1871" y="-199.5" font-family="Helvetica,sans-Serif" font-size="10.00">src/wmtk/operations</text>
<text text-anchor="start" x="1871" y="-188.5" font-family="Helvetica,sans-Serif" font-size="10.00">/attribute_update/Attribute</text>
<text text-anchor="middle" x="1936" y="-177.5" font-family="Helvetica,sans-Serif" font-size="10.00">TransferStrategy.cpp</text>
</a>
</g>
</g>
<!-- Node1&#45;&gt;Node13 -->
<g id="edge12_Node000001_Node000013" class="edge">
<title>Node1&#45;&gt;Node13</title>
<g id="a_edge12_Node000001_Node000013"><a xlink:title=" ">
<path fill="none" stroke="#63b8ff" d="M1373.44,-268.93C1483.29,-263.16 1682.04,-249 1849,-217 1856.87,-215.49 1865.06,-213.59 1873.13,-211.52"/>
<polygon fill="#63b8ff" stroke="#63b8ff" points="1373.22,-265.44 1363.41,-269.45 1373.58,-272.43 1373.22,-265.44"/>
</a>
</g>
</g>
<!-- Node14 -->
<g id="Node000014" class="node">
<title>Node14</title>
<g id="a_Node000014"><a xlink:href="_cast_attribute_transfer_strategy_8hpp.html" target="_top" xlink:title=" ">
<polygon fill="white" stroke="#666666" points="2233,-211.5 2065,-211.5 2065,-170.5 2233,-170.5 2233,-211.5"/>
<text text-anchor="start" x="2073" y="-199.5" font-family="Helvetica,sans-Serif" font-size="10.00">src/wmtk/operations</text>
<text text-anchor="start" x="2073" y="-188.5" font-family="Helvetica,sans-Serif" font-size="10.00">/attribute_update/CastAttribute</text>
<text text-anchor="middle" x="2149" y="-177.5" font-family="Helvetica,sans-Serif" font-size="10.00">TransferStrategy.hpp</text>
</a>
</g>
</g>
<!-- Node1&#45;&gt;Node14 -->
<g id="edge13_Node000001_Node000014" class="edge">
<title>Node1&#45;&gt;Node14</title>
<g id="a_edge13_Node000001_Node000014"><a xlink:title=" ">
<path fill="none" stroke="#63b8ff" d="M1373.44,-271.23C1514.07,-268.02 1806.89,-256.72 2051,-217 2060.01,-215.53 2069.41,-213.63 2078.66,-211.53"/>
<polygon fill="#63b8ff" stroke="#63b8ff" points="1373.09,-267.74 1363.17,-271.46 1373.24,-274.74 1373.09,-267.74"/>
</a>
</g>
</g>
<!-- Node15 -->
<g id="Node000015" class="node">
<title>Node15</title>
<g id="a_Node000015"><a xlink:href="make__cast__attribute__transfer__strategy_8cpp.html" target="_top" xlink:title=" ">
<polygon fill="white" stroke="#666666" points="2089.5,-129 1956.5,-129 1956.5,-77 2089.5,-77 2089.5,-129"/>
<text text-anchor="start" x="1964.5" y="-117" font-family="Helvetica,sans-Serif" font-size="10.00">src/wmtk/operations</text>
<text text-anchor="start" x="1964.5" y="-106" font-family="Helvetica,sans-Serif" font-size="10.00">/attribute_update/make</text>
<text text-anchor="start" x="1964.5" y="-95" font-family="Helvetica,sans-Serif" font-size="10.00">_cast_attribute_transfer</text>
<text text-anchor="middle" x="2023" y="-84" font-family="Helvetica,sans-Serif" font-size="10.00">_strategy.cpp</text>
</a>
</g>
</g>
<!-- Node1&#45;&gt;Node15 -->
<g id="edge17_Node000001_Node000015" class="edge">
<title>Node1&#45;&gt;Node15</title>
<g id="a_edge17_Node000001_Node000015"><a xlink:title=" ">
<path fill="none" stroke="#63b8ff" d="M1373.35,-272.23C1555.01,-270.78 1973.94,-262.49 2018,-217 2040.13,-194.15 2036.26,-154.97 2030.43,-129.28"/>
<polygon fill="#63b8ff" stroke="#63b8ff" points="1373.28,-268.73 1363.31,-272.3 1373.34,-275.73 1373.28,-268.73"/>
</a>
</g>
</g>
<!-- Node14&#45;&gt;Node15 -->
<g id="edge14_Node000014_Node000015" class="edge">
<title>Node14&#45;&gt;Node15</title>
<g id="a_edge14_Node000014_Node000015"><a xlink:title=" ">
<path fill="none" stroke="#63b8ff" d="M2112.13,-164.84C2095.75,-153.66 2076.5,-140.52 2060.09,-129.32"/>
<polygon fill="#63b8ff" stroke="#63b8ff" points="2110.18,-167.74 2120.41,-170.49 2114.12,-161.96 2110.18,-167.74"/>
</a>
</g>
</g>
<!-- Node16 -->
<g id="Node000016" class="node">
<title>Node16</title>
<g id="a_Node000016"><a xlink:href="cast__attribute_8hpp.html" target="_top" xlink:title=" ">
<polygon fill="white" stroke="#666666" points="2216.5,-118 2107.5,-118 2107.5,-88 2216.5,-88 2216.5,-118"/>
<text text-anchor="start" x="2115.5" y="-106" font-family="Helvetica,sans-Serif" font-size="10.00">src/wmtk/utils/cast</text>
<text text-anchor="middle" x="2162" y="-95" font-family="Helvetica,sans-Serif" font-size="10.00">_attribute.hpp</text>
</a>
</g>
</g>
<!-- Node14&#45;&gt;Node16 -->
<g id="edge15_Node000014_Node000016" class="edge">
<title>Node14&#45;&gt;Node16</title>
<g id="a_edge15_Node000014_Node000016"><a xlink:title=" ">
<path fill="none" stroke="#63b8ff" d="M2153.46,-160.53C2155.63,-146.16 2158.14,-129.56 2159.87,-118.08"/>
<polygon fill="#63b8ff" stroke="#63b8ff" points="2149.98,-160.07 2151.95,-170.49 2156.91,-161.12 2149.98,-160.07"/>
</a>
</g>
</g>
<!-- Node16&#45;&gt;Node12 -->
<g id="edge16_Node000016_Node000012" class="edge">
<title>Node16&#45;&gt;Node12</title>
<g id="a_edge16_Node000016_Node000012"><a xlink:title=" ">
<path fill="none" stroke="#63b8ff" d="M2123.29,-83.67C2096.46,-70.96 2060.77,-54.06 2033.37,-41.09"/>
<polygon fill="#63b8ff" stroke="#63b8ff" points="2121.85,-86.86 2132.39,-87.98 2124.85,-80.53 2121.85,-86.86"/>
</a>
</g>
</g>
</g>
</svg>
