<?xml version="1.0" encoding="UTF-8" standalone="no"?>
<!DOCTYPE svg PUBLIC "-//W3C//DTD SVG 1.1//EN"
 "http://www.w3.org/Graphics/SVG/1.1/DTD/svg11.dtd">
<!-- Generated by graphviz version 2.43.0 (0)
 -->
<!-- Title: src/wmtk/Cell.cpp Pages: 1 -->
<svg width="574pt" height="247pt"
 viewBox="0.00 0.00 574.00 247.00" xmlns="http://www.w3.org/2000/svg" xmlns:xlink="http://www.w3.org/1999/xlink">
<g id="graph0" class="graph" transform="scale(1 1) rotate(0) translate(4 243)">
<title>src/wmtk/Cell.cpp</title>
<!-- Node1 -->
<g id="Node000001" class="node">
<title>Node1</title>
<g id="a_Node000001"><a xlink:title=" ">
<polygon fill="#999999" stroke="#666666" points="389.5,-239 285.5,-239 285.5,-220 389.5,-220 389.5,-239"/>
<text text-anchor="middle" x="337.5" y="-227" font-family="Helvetica,sans-Serif" font-size="10.00">src/wmtk/Cell.cpp</text>
</a>
</g>
</g>
<!-- Node2 -->
<g id="Node000002" class="node">
<title>Node2</title>
<g id="a_Node000002"><a xlink:href="_cell_8hpp.html" target="_top" xlink:title=" ">
<polygon fill="white" stroke="#666666" points="244.5,-184 188.5,-184 188.5,-165 244.5,-165 244.5,-184"/>
<text text-anchor="middle" x="216.5" y="-172" font-family="Helvetica,sans-Serif" font-size="10.00">Cell.hpp</text>
</a>
</g>
</g>
<!-- Node1&#45;&gt;Node2 -->
<g id="edge1_Node000001_Node000002" class="edge">
<title>Node1&#45;&gt;Node2</title>
<g id="a_edge1_Node000001_Node000002"><a xlink:title=" ">
<path fill="none" stroke="#63b8ff" d="M318.06,-219.98C298.51,-211.42 268.12,-198.11 245.68,-188.28"/>
<polygon fill="#63b8ff" stroke="#63b8ff" points="246.86,-184.98 236.29,-184.17 244.05,-191.39 246.86,-184.98"/>
</a>
</g>
</g>
<!-- Node13 -->
<g id="Node000013" class="node">
<title>Node13</title>
<g id="a_Node000013"><a xlink:title=" ">
<polygon fill="#e0e0e0" stroke="#999999" points="566,-19 525,-19 525,0 566,0 566,-19"/>
<text text-anchor="middle" x="545.5" y="-7" font-family="Helvetica,sans-Serif" font-size="10.00">tuple</text>
</a>
</g>
</g>
<!-- Node1&#45;&gt;Node13 -->
<g id="edge18_Node000001_Node000013" class="edge">
<title>Node1&#45;&gt;Node13</title>
<g id="a_edge18_Node000001_Node000013"><a xlink:title=" ">
<path fill="none" stroke="#63b8ff" d="M360.29,-219.86C378.25,-212.28 403.24,-199.97 421.5,-184 475.29,-136.94 518.46,-62.21 536.45,-28.29"/>
<polygon fill="#63b8ff" stroke="#63b8ff" points="539.69,-29.63 541.2,-19.15 533.48,-26.4 539.69,-29.63"/>
</a>
</g>
</g>
<!-- Node14 -->
<g id="Node000014" class="node">
<title>Node14</title>
<g id="a_Node000014"><a xlink:href="_simplex_8hpp.html" target="_top" xlink:title=" ">
<polygon fill="white" stroke="#666666" points="412.5,-184 262.5,-184 262.5,-165 412.5,-165 412.5,-184"/>
<text text-anchor="middle" x="337.5" y="-172" font-family="Helvetica,sans-Serif" font-size="10.00">wmtk/simplex/Simplex.hpp</text>
</a>
</g>
</g>
<!-- Node1&#45;&gt;Node14 -->
<g id="edge15_Node000001_Node000014" class="edge">
<title>Node1&#45;&gt;Node14</title>
<g id="a_edge15_Node000001_Node000014"><a xlink:title=" ">
<path fill="none" stroke="#63b8ff" d="M337.5,-219.75C337.5,-212.8 337.5,-202.85 337.5,-194.13"/>
<polygon fill="#63b8ff" stroke="#63b8ff" points="341,-194.09 337.5,-184.09 334,-194.09 341,-194.09"/>
</a>
</g>
</g>
<!-- Node3 -->
<g id="Node000003" class="node">
<title>Node3</title>
<g id="a_Node000003"><a xlink:href="_primitive_type_8hpp.html" target="_top" xlink:title=" ">
<polygon fill="white" stroke="#666666" points="252.5,-74 148.5,-74 148.5,-55 252.5,-55 252.5,-74"/>
<text text-anchor="middle" x="200.5" y="-62" font-family="Helvetica,sans-Serif" font-size="10.00">PrimitiveType.hpp</text>
</a>
</g>
</g>
<!-- Node2&#45;&gt;Node3 -->
<g id="edge2_Node000002_Node000003" class="edge">
<title>Node2&#45;&gt;Node3</title>
<g id="a_edge2_Node000002_Node000003"><a xlink:title=" ">
<path fill="none" stroke="#63b8ff" d="M215.19,-164.66C212.6,-147.17 206.77,-107.8 203.28,-84.27"/>
<polygon fill="#63b8ff" stroke="#63b8ff" points="206.71,-83.54 201.78,-74.16 199.79,-84.56 206.71,-83.54"/>
</a>
</g>
</g>
<!-- Node7 -->
<g id="Node000007" class="node">
<title>Node7</title>
<g id="a_Node000007"><a xlink:href="_tuple_8hpp.html" target="_top" xlink:title=" ">
<polygon fill="white" stroke="#666666" points="369,-129 306,-129 306,-110 369,-110 369,-129"/>
<text text-anchor="middle" x="337.5" y="-117" font-family="Helvetica,sans-Serif" font-size="10.00">Tuple.hpp</text>
</a>
</g>
</g>
<!-- Node2&#45;&gt;Node7 -->
<g id="edge6_Node000002_Node000007" class="edge">
<title>Node2&#45;&gt;Node7</title>
<g id="a_edge6_Node000002_Node000007"><a xlink:title=" ">
<path fill="none" stroke="#63b8ff" d="M235.94,-164.98C255.49,-156.42 285.88,-143.11 308.32,-133.28"/>
<polygon fill="#63b8ff" stroke="#63b8ff" points="309.95,-136.39 317.71,-129.17 307.14,-129.98 309.95,-136.39"/>
</a>
</g>
</g>
<!-- Node4 -->
<g id="Node000004" class="node">
<title>Node4</title>
<g id="a_Node000004"><a xlink:title=" ">
<polygon fill="#e0e0e0" stroke="#999999" points="65,-19 0,-19 0,0 65,0 65,-19"/>
<text text-anchor="middle" x="32.5" y="-7" font-family="Helvetica,sans-Serif" font-size="10.00">stdexcept</text>
</a>
</g>
</g>
<!-- Node3&#45;&gt;Node4 -->
<g id="edge3_Node000003_Node000004" class="edge">
<title>Node3&#45;&gt;Node4</title>
<g id="a_edge3_Node000003_Node000004"><a xlink:title=" ">
<path fill="none" stroke="#63b8ff" d="M173.51,-54.98C145.3,-46.09 100.86,-32.07 69.42,-22.15"/>
<polygon fill="#63b8ff" stroke="#63b8ff" points="70.29,-18.75 59.7,-19.08 68.19,-25.43 70.29,-18.75"/>
</a>
</g>
</g>
<!-- Node5 -->
<g id="Node000005" class="node">
<title>Node5</title>
<g id="a_Node000005"><a xlink:title=" ">
<polygon fill="#e0e0e0" stroke="#999999" points="156,-19 83,-19 83,0 156,0 156,-19"/>
<text text-anchor="middle" x="119.5" y="-7" font-family="Helvetica,sans-Serif" font-size="10.00">string_view</text>
</a>
</g>
</g>
<!-- Node3&#45;&gt;Node5 -->
<g id="edge4_Node000003_Node000005" class="edge">
<title>Node3&#45;&gt;Node5</title>
<g id="a_edge4_Node000003_Node000005"><a xlink:title=" ">
<path fill="none" stroke="#63b8ff" d="M187.49,-54.98C175.04,-46.84 156.04,-34.41 141.29,-24.76"/>
<polygon fill="#63b8ff" stroke="#63b8ff" points="143.04,-21.72 132.75,-19.17 139.2,-27.57 143.04,-21.72"/>
</a>
</g>
</g>
<!-- Node6 -->
<g id="Node000006" class="node">
<title>Node6</title>
<g id="a_Node000006"><a xlink:title=" ">
<polygon fill="#e0e0e0" stroke="#999999" points="221,-19 174,-19 174,0 221,0 221,-19"/>
<text text-anchor="middle" x="197.5" y="-7" font-family="Helvetica,sans-Serif" font-size="10.00">vector</text>
</a>
</g>
</g>
<!-- Node3&#45;&gt;Node6 -->
<g id="edge5_Node000003_Node000006" class="edge">
<title>Node3&#45;&gt;Node6</title>
<g id="a_edge5_Node000003_Node000006"><a xlink:title=" ">
<path fill="none" stroke="#63b8ff" d="M200,-54.75C199.61,-47.8 199.05,-37.85 198.55,-29.13"/>
<polygon fill="#63b8ff" stroke="#63b8ff" points="202.05,-28.88 197.99,-19.09 195.06,-29.27 202.05,-28.88"/>
</a>
</g>
</g>
<!-- Node7&#45;&gt;Node3 -->
<g id="edge7_Node000007_Node000003" class="edge">
<title>Node7&#45;&gt;Node3</title>
<g id="a_edge7_Node000007_Node000003"><a xlink:title=" ">
<path fill="none" stroke="#63b8ff" d="M315.49,-109.98C293.05,-101.3 258.02,-87.75 232.51,-77.88"/>
<polygon fill="#63b8ff" stroke="#63b8ff" points="233.5,-74.51 222.91,-74.17 230.98,-81.04 233.5,-74.51"/>
</a>
</g>
</g>
<!-- Node8 -->
<g id="Node000008" class="node">
<title>Node8</title>
<g id="a_Node000008"><a xlink:href="_tuple_8hxx.html" target="_top" xlink:title=" ">
<polygon fill="white" stroke="#666666" points="372,-74 309,-74 309,-55 372,-55 372,-74"/>
<text text-anchor="middle" x="340.5" y="-62" font-family="Helvetica,sans-Serif" font-size="10.00">Tuple.hxx</text>
</a>
</g>
</g>
<!-- Node7&#45;&gt;Node8 -->
<g id="edge8_Node000007_Node000008" class="edge">
<title>Node7&#45;&gt;Node8</title>
<g id="a_edge8_Node000007_Node000008"><a xlink:title=" ">
<path fill="none" stroke="#63b8ff" d="M332.83,-109.75C331.73,-102.8 331.86,-92.85 332.97,-84.13"/>
<polygon fill="#63b8ff" stroke="#63b8ff" points="336.45,-84.57 334.88,-74.09 329.57,-83.26 336.45,-84.57"/>
</a>
</g>
</g>
<!-- Node8&#45;&gt;Node7 -->
<g id="edge14_Node000008_Node000007" class="edge">
<title>Node8&#45;&gt;Node7</title>
<g id="a_edge14_Node000008_Node000007"><a xlink:title=" ">
<path fill="none" stroke="#63b8ff" d="M345.14,-74.09C346.26,-80.99 346.15,-90.93 345.06,-99.66"/>
<polygon fill="#63b8ff" stroke="#63b8ff" points="341.57,-99.27 343.16,-109.75 348.45,-100.57 341.57,-99.27"/>
</a>
</g>
</g>
<!-- Node9 -->
<g id="Node000009" class="node">
<title>Node9</title>
<g id="a_Node000009"><a xlink:title=" ">
<polygon fill="#e0e0e0" stroke="#999999" points="292,-19 239,-19 239,0 292,0 292,-19"/>
<text text-anchor="middle" x="265.5" y="-7" font-family="Helvetica,sans-Serif" font-size="10.00">cstddef</text>
</a>
</g>
</g>
<!-- Node8&#45;&gt;Node9 -->
<g id="edge9_Node000008_Node000009" class="edge">
<title>Node8&#45;&gt;Node9</title>
<g id="a_edge9_Node000008_Node000009"><a xlink:title=" ">
<path fill="none" stroke="#63b8ff" d="M328.45,-54.98C317.04,-46.92 299.67,-34.65 286.07,-25.03"/>
<polygon fill="#63b8ff" stroke="#63b8ff" points="287.96,-22.08 277.77,-19.17 283.92,-27.8 287.96,-22.08"/>
</a>
</g>
</g>
<!-- Node10 -->
<g id="Node000010" class="node">
<title>Node10</title>
<g id="a_Node000010"><a xlink:title=" ">
<polygon fill="#e0e0e0" stroke="#999999" points="370.5,-19 310.5,-19 310.5,0 370.5,0 370.5,-19"/>
<text text-anchor="middle" x="340.5" y="-7" font-family="Helvetica,sans-Serif" font-size="10.00">iostream</text>
</a>
</g>
</g>
<!-- Node8&#45;&gt;Node10 -->
<g id="edge10_Node000008_Node000010" class="edge">
<title>Node8&#45;&gt;Node10</title>
<g id="a_edge10_Node000008_Node000010"><a xlink:title=" ">
<path fill="none" stroke="#63b8ff" d="M340.5,-54.75C340.5,-47.8 340.5,-37.85 340.5,-29.13"/>
<polygon fill="#63b8ff" stroke="#63b8ff" points="344,-29.09 340.5,-19.09 337,-29.09 344,-29.09"/>
</a>
</g>
</g>
<!-- Node11 -->
<g id="Node000011" class="node">
<title>Node11</title>
<g id="a_Node000011"><a xlink:title=" ">
<polygon fill="#e0e0e0" stroke="#999999" points="444.5,-19 388.5,-19 388.5,0 444.5,0 444.5,-19"/>
<text text-anchor="middle" x="416.5" y="-7" font-family="Helvetica,sans-Serif" font-size="10.00">optional</text>
</a>
</g>
</g>
<!-- Node8&#45;&gt;Node11 -->
<g id="edge11_Node000008_Node000011" class="edge">
<title>Node8&#45;&gt;Node11</title>
<g id="a_edge11_Node000008_Node000011"><a xlink:title=" ">
<path fill="none" stroke="#63b8ff" d="M352.71,-54.98C364.28,-46.92 381.88,-34.65 395.66,-25.03"/>
<polygon fill="#63b8ff" stroke="#63b8ff" points="397.87,-27.76 404.07,-19.17 393.86,-22.02 397.87,-27.76"/>
</a>
</g>
</g>
<!-- Node12 -->
<g id="Node000012" class="node">
<title>Node12</title>
<g id="a_Node000012"><a xlink:title=" ">
<polygon fill="#e0e0e0" stroke="#999999" points="506.5,-19 462.5,-19 462.5,0 506.5,0 506.5,-19"/>
<text text-anchor="middle" x="484.5" y="-7" font-family="Helvetica,sans-Serif" font-size="10.00">string</text>
</a>
</g>
</g>
<!-- Node8&#45;&gt;Node12 -->
<g id="edge12_Node000008_Node000012" class="edge">
<title>Node8&#45;&gt;Node12</title>
<g id="a_edge12_Node000008_Node000012"><a xlink:title=" ">
<path fill="none" stroke="#63b8ff" d="M363.64,-54.98C387.75,-46.11 425.7,-32.14 452.63,-22.23"/>
<polygon fill="#63b8ff" stroke="#63b8ff" points="454.19,-25.38 462.37,-18.65 451.77,-18.82 454.19,-25.38"/>
</a>
</g>
</g>
<!-- Node8&#45;&gt;Node13 -->
<g id="edge13_Node000008_Node000013" class="edge">
<title>Node8&#45;&gt;Node13</title>
<g id="a_edge13_Node000008_Node000013"><a xlink:title=" ">
<path fill="none" stroke="#63b8ff" d="M372.18,-55.72C405.37,-47.51 459.24,-34 515.15,-19.04"/>
<polygon fill="#63b8ff" stroke="#63b8ff" points="516.11,-22.4 524.86,-16.43 514.3,-15.64 516.11,-22.4"/>
</a>
</g>
</g>
<!-- Node14&#45;&gt;Node3 -->
<g id="edge16_Node000014_Node000003" class="edge">
<title>Node14&#45;&gt;Node3</title>
<g id="a_edge16_Node000014_Node000003"><a xlink:title=" ">
<path fill="none" stroke="#63b8ff" d="M326.29,-164.66C302.89,-146.22 248.63,-103.45 219.62,-80.57"/>
<polygon fill="#63b8ff" stroke="#63b8ff" points="221.5,-77.6 211.48,-74.16 217.17,-83.1 221.5,-77.6"/>
</a>
</g>
</g>
<!-- Node14&#45;&gt;Node7 -->
<g id="edge17_Node000014_Node000007" class="edge">
<title>Node14&#45;&gt;Node7</title>
<g id="a_edge17_Node000014_Node000007"><a xlink:title=" ">
<path fill="none" stroke="#63b8ff" d="M337.5,-164.75C337.5,-157.8 337.5,-147.85 337.5,-139.13"/>
<polygon fill="#63b8ff" stroke="#63b8ff" points="341,-139.09 337.5,-129.09 334,-139.09 341,-139.09"/>
</a>
</g>
</g>
</g>
</svg>
