<?xml version="1.0" encoding="UTF-8" standalone="no"?>
<!DOCTYPE svg PUBLIC "-//W3C//DTD SVG 1.1//EN"
 "http://www.w3.org/Graphics/SVG/1.1/DTD/svg11.dtd">
<!-- Generated by graphviz version 2.43.0 (0)
 -->
<!-- Title: src/wmtk/operations/internal/CollapseAlternateFacetData.hpp Pages: 1 -->
<svg width="736pt" height="335pt"
 viewBox="0.00 0.00 736.00 335.00" xmlns="http://www.w3.org/2000/svg" xmlns:xlink="http://www.w3.org/1999/xlink">
<g id="graph0" class="graph" transform="scale(1 1) rotate(0) translate(4 331)">
<title>src/wmtk/operations/internal/CollapseAlternateFacetData.hpp</title>
<!-- Node1 -->
<g id="Node000001" class="node">
<title>Node1</title>
<g id="a_Node000001"><a xlink:title=" ">
<polygon fill="#999999" stroke="#666666" points="215,-327 68,-327 68,-286 215,-286 215,-327"/>
<text text-anchor="start" x="76" y="-315" font-family="Helvetica,sans-Serif" font-size="10.00">src/wmtk/operations</text>
<text text-anchor="start" x="76" y="-304" font-family="Helvetica,sans-Serif" font-size="10.00">/internal/CollapseAlternate</text>
<text text-anchor="middle" x="141.5" y="-293" font-family="Helvetica,sans-Serif" font-size="10.00">FacetData.hpp</text>
</a>
</g>
</g>
<!-- Node2 -->
<g id="Node000002" class="node">
<title>Node2</title>
<g id="a_Node000002"><a xlink:title=" ">
<polygon fill="#e0e0e0" stroke="#999999" points="94.5,-184 52.5,-184 52.5,-165 94.5,-165 94.5,-184"/>
<text text-anchor="middle" x="73.5" y="-172" font-family="Helvetica,sans-Serif" font-size="10.00">array</text>
</a>
</g>
</g>
<!-- Node1&#45;&gt;Node2 -->
<g id="edge1_Node000001_Node000002" class="edge">
<title>Node1&#45;&gt;Node2</title>
<g id="a_edge1_Node000001_Node000002"><a xlink:title=" ">
<path fill="none" stroke="#63b8ff" d="M129.27,-285.99C122.83,-275.47 114.96,-262.18 108.5,-250 98.49,-231.13 88.23,-208.89 81.43,-193.65"/>
<polygon fill="#63b8ff" stroke="#63b8ff" points="84.57,-192.09 77.32,-184.35 78.16,-194.91 84.57,-192.09"/>
</a>
</g>
</g>
<!-- Node3 -->
<g id="Node000003" class="node">
<title>Node3</title>
<g id="a_Node000003"><a xlink:title=" ">
<polygon fill="#e0e0e0" stroke="#999999" points="47,-19 0,-19 0,0 47,0 47,-19"/>
<text text-anchor="middle" x="23.5" y="-7" font-family="Helvetica,sans-Serif" font-size="10.00">vector</text>
</a>
</g>
</g>
<!-- Node1&#45;&gt;Node3 -->
<g id="edge2_Node000001_Node000003" class="edge">
<title>Node1&#45;&gt;Node3</title>
<g id="a_edge2_Node000001_Node000003"><a xlink:title=" ">
<path fill="none" stroke="#63b8ff" d="M136.8,-285.81C131.18,-260.46 122.5,-214.96 122.5,-175.5 122.5,-175.5 122.5,-175.5 122.5,-118.5 122.5,-75.35 79.03,-41.96 49.7,-24.35"/>
<polygon fill="#63b8ff" stroke="#63b8ff" points="51.16,-21.15 40.74,-19.19 47.66,-27.21 51.16,-21.15"/>
</a>
</g>
</g>
<!-- Node4 -->
<g id="Node000004" class="node">
<title>Node4</title>
<g id="a_Node000004"><a xlink:href="_tuple_8hpp.html" target="_top" xlink:title=" ">
<polygon fill="white" stroke="#666666" points="332.5,-129 238.5,-129 238.5,-110 332.5,-110 332.5,-129"/>
<text text-anchor="middle" x="285.5" y="-117" font-family="Helvetica,sans-Serif" font-size="10.00">wmtk/Tuple.hpp</text>
</a>
</g>
</g>
<!-- Node1&#45;&gt;Node4 -->
<g id="edge3_Node000001_Node000004" class="edge">
<title>Node1&#45;&gt;Node4</title>
<g id="a_edge3_Node000001_Node000004"><a xlink:title=" ">
<path fill="none" stroke="#63b8ff" d="M144.92,-285.92C150.98,-256.43 166.14,-200.32 198.5,-165 211.72,-150.57 230.69,-140.11 247.55,-132.97"/>
<polygon fill="#63b8ff" stroke="#63b8ff" points="249.17,-136.09 257.17,-129.15 246.58,-129.59 249.17,-136.09"/>
</a>
</g>
</g>
<!-- Node14 -->
<g id="Node000014" class="node">
<title>Node14</title>
<g id="a_Node000014"><a xlink:href="_collapse_alternate_facet_option_data_8hpp.html" target="_top" xlink:title=" ">
<polygon fill="white" stroke="#666666" points="398,-250 189,-250 189,-220 398,-220 398,-250"/>
<text text-anchor="start" x="197" y="-238" font-family="Helvetica,sans-Serif" font-size="10.00">wmtk/operations/internal</text>
<text text-anchor="middle" x="293.5" y="-227" font-family="Helvetica,sans-Serif" font-size="10.00">/CollapseAlternateFacetOptionData.hpp</text>
</a>
</g>
</g>
<!-- Node1&#45;&gt;Node14 -->
<g id="edge15_Node000001_Node000014" class="edge">
<title>Node1&#45;&gt;Node14</title>
<g id="a_edge15_Node000001_Node000014"><a xlink:title=" ">
<path fill="none" stroke="#63b8ff" d="M184.24,-285.96C205.97,-276.02 232.21,-264.03 253.52,-254.28"/>
<polygon fill="#63b8ff" stroke="#63b8ff" points="255,-257.45 262.63,-250.11 252.08,-251.09 255,-257.45"/>
</a>
</g>
</g>
<!-- Node5 -->
<g id="Node000005" class="node">
<title>Node5</title>
<g id="a_Node000005"><a xlink:href="_primitive_type_8hpp.html" target="_top" xlink:title=" ">
<polygon fill="white" stroke="#666666" points="254.5,-74 150.5,-74 150.5,-55 254.5,-55 254.5,-74"/>
<text text-anchor="middle" x="202.5" y="-62" font-family="Helvetica,sans-Serif" font-size="10.00">PrimitiveType.hpp</text>
</a>
</g>
</g>
<!-- Node4&#45;&gt;Node5 -->
<g id="edge4_Node000004_Node000005" class="edge">
<title>Node4&#45;&gt;Node5</title>
<g id="a_edge4_Node000004_Node000005"><a xlink:title=" ">
<path fill="none" stroke="#63b8ff" d="M272.16,-109.98C259.41,-101.84 239.95,-89.41 224.83,-79.76"/>
<polygon fill="#63b8ff" stroke="#63b8ff" points="226.39,-76.6 216.08,-74.17 222.62,-82.5 226.39,-76.6"/>
</a>
</g>
</g>
<!-- Node8 -->
<g id="Node000008" class="node">
<title>Node8</title>
<g id="a_Node000008"><a xlink:href="_tuple_8hxx.html" target="_top" xlink:title=" ">
<polygon fill="white" stroke="#666666" points="362,-74 299,-74 299,-55 362,-55 362,-74"/>
<text text-anchor="middle" x="330.5" y="-62" font-family="Helvetica,sans-Serif" font-size="10.00">Tuple.hxx</text>
</a>
</g>
</g>
<!-- Node4&#45;&gt;Node8 -->
<g id="edge8_Node000004_Node000008" class="edge">
<title>Node4&#45;&gt;Node8</title>
<g id="a_edge8_Node000004_Node000008"><a xlink:title=" ">
<path fill="none" stroke="#63b8ff" d="M287.76,-109.75C292.66,-102.03 302.01,-90.6 310.87,-81.28"/>
<polygon fill="#63b8ff" stroke="#63b8ff" points="313.47,-83.63 318.08,-74.09 308.53,-78.67 313.47,-83.63"/>
</a>
</g>
</g>
<!-- Node5&#45;&gt;Node3 -->
<g id="edge7_Node000005_Node000003" class="edge">
<title>Node5&#45;&gt;Node3</title>
<g id="a_edge7_Node000005_Node000003"><a xlink:title=" ">
<path fill="none" stroke="#63b8ff" d="M173.74,-54.98C141.86,-45.54 90.5,-30.34 56.87,-20.38"/>
<polygon fill="#63b8ff" stroke="#63b8ff" points="57.63,-16.95 47.04,-17.47 55.64,-23.67 57.63,-16.95"/>
</a>
</g>
</g>
<!-- Node6 -->
<g id="Node000006" class="node">
<title>Node6</title>
<g id="a_Node000006"><a xlink:title=" ">
<polygon fill="#e0e0e0" stroke="#999999" points="130,-19 65,-19 65,0 130,0 130,-19"/>
<text text-anchor="middle" x="97.5" y="-7" font-family="Helvetica,sans-Serif" font-size="10.00">stdexcept</text>
</a>
</g>
</g>
<!-- Node5&#45;&gt;Node6 -->
<g id="edge5_Node000005_Node000006" class="edge">
<title>Node5&#45;&gt;Node6</title>
<g id="a_edge5_Node000005_Node000006"><a xlink:title=" ">
<path fill="none" stroke="#63b8ff" d="M185.63,-54.98C168.89,-46.54 143,-33.47 123.61,-23.68"/>
<polygon fill="#63b8ff" stroke="#63b8ff" points="125.18,-20.55 114.68,-19.17 122.03,-26.8 125.18,-20.55"/>
</a>
</g>
</g>
<!-- Node7 -->
<g id="Node000007" class="node">
<title>Node7</title>
<g id="a_Node000007"><a xlink:title=" ">
<polygon fill="#e0e0e0" stroke="#999999" points="221,-19 148,-19 148,0 221,0 221,-19"/>
<text text-anchor="middle" x="184.5" y="-7" font-family="Helvetica,sans-Serif" font-size="10.00">string_view</text>
</a>
</g>
</g>
<!-- Node5&#45;&gt;Node7 -->
<g id="edge6_Node000005_Node000007" class="edge">
<title>Node5&#45;&gt;Node7</title>
<g id="a_edge6_Node000005_Node000007"><a xlink:title=" ">
<path fill="none" stroke="#63b8ff" d="M199.53,-54.75C197.14,-47.72 193.71,-37.62 190.73,-28.84"/>
<polygon fill="#63b8ff" stroke="#63b8ff" points="193.95,-27.43 187.42,-19.09 187.32,-29.68 193.95,-27.43"/>
</a>
</g>
</g>
<!-- Node8&#45;&gt;Node4 -->
<g id="edge14_Node000008_Node000004" class="edge">
<title>Node8&#45;&gt;Node4</title>
<g id="a_edge14_Node000008_Node000004"><a xlink:title=" ">
<path fill="none" stroke="#63b8ff" d="M328.29,-74.17C323.4,-81.9 313.99,-93.41 305.09,-102.76"/>
<polygon fill="#63b8ff" stroke="#63b8ff" points="302.46,-100.45 297.84,-109.98 307.4,-105.4 302.46,-100.45"/>
</a>
</g>
</g>
<!-- Node9 -->
<g id="Node000009" class="node">
<title>Node9</title>
<g id="a_Node000009"><a xlink:title=" ">
<polygon fill="#e0e0e0" stroke="#999999" points="292,-19 239,-19 239,0 292,0 292,-19"/>
<text text-anchor="middle" x="265.5" y="-7" font-family="Helvetica,sans-Serif" font-size="10.00">cstddef</text>
</a>
</g>
</g>
<!-- Node8&#45;&gt;Node9 -->
<g id="edge9_Node000008_Node000009" class="edge">
<title>Node8&#45;&gt;Node9</title>
<g id="a_edge9_Node000008_Node000009"><a xlink:title=" ">
<path fill="none" stroke="#63b8ff" d="M320.06,-54.98C310.35,-47.07 295.68,-35.11 284,-25.58"/>
<polygon fill="#63b8ff" stroke="#63b8ff" points="286.1,-22.78 276.13,-19.17 281.67,-28.2 286.1,-22.78"/>
</a>
</g>
</g>
<!-- Node10 -->
<g id="Node000010" class="node">
<title>Node10</title>
<g id="a_Node000010"><a xlink:title=" ">
<polygon fill="#e0e0e0" stroke="#999999" points="504.5,-19 444.5,-19 444.5,0 504.5,0 504.5,-19"/>
<text text-anchor="middle" x="474.5" y="-7" font-family="Helvetica,sans-Serif" font-size="10.00">iostream</text>
</a>
</g>
</g>
<!-- Node8&#45;&gt;Node10 -->
<g id="edge10_Node000008_Node000010" class="edge">
<title>Node8&#45;&gt;Node10</title>
<g id="a_edge10_Node000008_Node000010"><a xlink:title=" ">
<path fill="none" stroke="#63b8ff" d="M353.64,-54.98C377.32,-46.27 414.37,-32.63 441.21,-22.75"/>
<polygon fill="#63b8ff" stroke="#63b8ff" points="442.77,-25.91 450.94,-19.17 440.35,-19.34 442.77,-25.91"/>
</a>
</g>
</g>
<!-- Node11 -->
<g id="Node000011" class="node">
<title>Node11</title>
<g id="a_Node000011"><a xlink:title=" ">
<polygon fill="#e0e0e0" stroke="#999999" points="366.5,-19 310.5,-19 310.5,0 366.5,0 366.5,-19"/>
<text text-anchor="middle" x="338.5" y="-7" font-family="Helvetica,sans-Serif" font-size="10.00">optional</text>
</a>
</g>
</g>
<!-- Node8&#45;&gt;Node11 -->
<g id="edge11_Node000008_Node000011" class="edge">
<title>Node8&#45;&gt;Node11</title>
<g id="a_edge11_Node000008_Node000011"><a xlink:title=" ">
<path fill="none" stroke="#63b8ff" d="M331.82,-54.75C332.87,-47.8 334.37,-37.85 335.69,-29.13"/>
<polygon fill="#63b8ff" stroke="#63b8ff" points="339.17,-29.5 337.2,-19.09 332.25,-28.45 339.17,-29.5"/>
</a>
</g>
</g>
<!-- Node12 -->
<g id="Node000012" class="node">
<title>Node12</title>
<g id="a_Node000012"><a xlink:title=" ">
<polygon fill="#e0e0e0" stroke="#999999" points="566.5,-19 522.5,-19 522.5,0 566.5,0 566.5,-19"/>
<text text-anchor="middle" x="544.5" y="-7" font-family="Helvetica,sans-Serif" font-size="10.00">string</text>
</a>
</g>
</g>
<!-- Node8&#45;&gt;Node12 -->
<g id="edge12_Node000008_Node000012" class="edge">
<title>Node8&#45;&gt;Node12</title>
<g id="a_edge12_Node000008_Node000012"><a xlink:title=" ">
<path fill="none" stroke="#63b8ff" d="M362.31,-56.06C396.94,-47.9 454.19,-34.21 512.44,-19.22"/>
<polygon fill="#63b8ff" stroke="#63b8ff" points="513.36,-22.6 522.17,-16.71 511.61,-15.82 513.36,-22.6"/>
</a>
</g>
</g>
<!-- Node13 -->
<g id="Node000013" class="node">
<title>Node13</title>
<g id="a_Node000013"><a xlink:title=" ">
<polygon fill="#e0e0e0" stroke="#999999" points="426,-19 385,-19 385,0 426,0 426,-19"/>
<text text-anchor="middle" x="405.5" y="-7" font-family="Helvetica,sans-Serif" font-size="10.00">tuple</text>
</a>
</g>
</g>
<!-- Node8&#45;&gt;Node13 -->
<g id="edge13_Node000008_Node000013" class="edge">
<title>Node8&#45;&gt;Node13</title>
<g id="a_edge13_Node000008_Node000013"><a xlink:title=" ">
<path fill="none" stroke="#63b8ff" d="M342.55,-54.98C353.96,-46.92 371.33,-34.65 384.93,-25.03"/>
<polygon fill="#63b8ff" stroke="#63b8ff" points="387.08,-27.8 393.23,-19.17 383.04,-22.08 387.08,-27.8"/>
</a>
</g>
</g>
<!-- Node14&#45;&gt;Node2 -->
<g id="edge16_Node000014_Node000002" class="edge">
<title>Node14&#45;&gt;Node2</title>
<g id="a_edge16_Node000014_Node000002"><a xlink:title=" ">
<path fill="none" stroke="#63b8ff" d="M240.8,-219.99C198.23,-208.67 139.76,-193.12 104.41,-183.72"/>
<polygon fill="#63b8ff" stroke="#63b8ff" points="105.22,-180.31 94.66,-181.13 103.42,-187.08 105.22,-180.31"/>
</a>
</g>
</g>
<!-- Node15 -->
<g id="Node000015" class="node">
<title>Node15</title>
<g id="a_Node000015"><a xlink:href="_dart_8hpp.html" target="_top" xlink:title=" ">
<polygon fill="white" stroke="#666666" points="482.5,-129 350.5,-129 350.5,-110 482.5,-110 482.5,-129"/>
<text text-anchor="middle" x="416.5" y="-117" font-family="Helvetica,sans-Serif" font-size="10.00">wmtk/autogen/Dart.hpp</text>
</a>
</g>
</g>
<!-- Node14&#45;&gt;Node15 -->
<g id="edge17_Node000014_Node000015" class="edge">
<title>Node14&#45;&gt;Node15</title>
<g id="a_edge17_Node000014_Node000015"><a xlink:title=" ">
<path fill="none" stroke="#63b8ff" d="M333.95,-219.89C352.5,-211.76 373.62,-199.94 388.5,-184 400.3,-171.35 407.68,-152.91 411.87,-139.16"/>
<polygon fill="#63b8ff" stroke="#63b8ff" points="415.3,-139.9 414.58,-129.33 408.55,-138.04 415.3,-139.9"/>
</a>
</g>
</g>
<!-- Node17 -->
<g id="Node000017" class="node">
<title>Node17</title>
<g id="a_Node000017"><a xlink:href="_simplex_dart_8hpp.html" target="_top" xlink:title=" ">
<polygon fill="white" stroke="#666666" points="379.5,-184 207.5,-184 207.5,-165 379.5,-165 379.5,-184"/>
<text text-anchor="middle" x="293.5" y="-172" font-family="Helvetica,sans-Serif" font-size="10.00">wmtk/autogen/SimplexDart.hpp</text>
</a>
</g>
</g>
<!-- Node14&#45;&gt;Node17 -->
<g id="edge21_Node000014_Node000017" class="edge">
<title>Node14&#45;&gt;Node17</title>
<g id="a_edge21_Node000014_Node000017"><a xlink:title=" ">
<path fill="none" stroke="#63b8ff" d="M293.5,-219.84C293.5,-212.21 293.5,-202.7 293.5,-194.45"/>
<polygon fill="#63b8ff" stroke="#63b8ff" points="297,-194.27 293.5,-184.27 290,-194.27 297,-194.27"/>
</a>
</g>
</g>
<!-- Node15&#45;&gt;Node12 -->
<g id="edge19_Node000015_Node000012" class="edge">
<title>Node15&#45;&gt;Node12</title>
<g id="a_edge19_Node000015_Node000012"><a xlink:title=" ">
<path fill="none" stroke="#63b8ff" d="M418.64,-110C422.4,-96.67 431.35,-70.77 447.5,-55 457.35,-45.39 488.42,-31.95 512.78,-22.36"/>
<polygon fill="#63b8ff" stroke="#63b8ff" points="514.33,-25.51 522.39,-18.64 511.8,-18.99 514.33,-25.51"/>
</a>
</g>
</g>
<!-- Node15&#45;&gt;Node13 -->
<g id="edge20_Node000015_Node000013" class="edge">
<title>Node15&#45;&gt;Node13</title>
<g id="a_edge20_Node000015_Node000013"><a xlink:title=" ">
<path fill="none" stroke="#63b8ff" d="M415.6,-109.66C413.82,-92.17 409.81,-52.8 407.41,-29.27"/>
<polygon fill="#63b8ff" stroke="#63b8ff" points="410.88,-28.75 406.38,-19.16 403.91,-29.46 410.88,-28.75"/>
</a>
</g>
</g>
<!-- Node16 -->
<g id="Node000016" class="node">
<title>Node16</title>
<g id="a_Node000016"><a xlink:title=" ">
<polygon fill="#e0e0e0" stroke="#999999" points="518.5,-74 456.5,-74 456.5,-55 518.5,-55 518.5,-74"/>
<text text-anchor="middle" x="487.5" y="-62" font-family="Helvetica,sans-Serif" font-size="10.00">cinttypes</text>
</a>
</g>
</g>
<!-- Node15&#45;&gt;Node16 -->
<g id="edge18_Node000015_Node000016" class="edge">
<title>Node15&#45;&gt;Node16</title>
<g id="a_edge18_Node000015_Node000016"><a xlink:title=" ">
<path fill="none" stroke="#63b8ff" d="M427.91,-109.98C438.61,-102 454.84,-89.88 467.66,-80.31"/>
<polygon fill="#63b8ff" stroke="#63b8ff" points="469.97,-82.96 475.89,-74.17 465.78,-77.35 469.97,-82.96"/>
</a>
</g>
</g>
<!-- Node17&#45;&gt;Node4 -->
<g id="edge23_Node000017_Node000004" class="edge">
<title>Node17&#45;&gt;Node4</title>
<g id="a_edge23_Node000017_Node000004"><a xlink:title=" ">
<path fill="none" stroke="#63b8ff" d="M292.18,-164.75C291.13,-157.8 289.63,-147.85 288.31,-139.13"/>
<polygon fill="#63b8ff" stroke="#63b8ff" points="291.75,-138.45 286.8,-129.09 284.83,-139.5 291.75,-138.45"/>
</a>
</g>
</g>
<!-- Node17&#45;&gt;Node5 -->
<g id="edge22_Node000017_Node000005" class="edge">
<title>Node17&#45;&gt;Node5</title>
<g id="a_edge22_Node000017_Node000005"><a xlink:title=" ">
<path fill="none" stroke="#63b8ff" d="M275.97,-164.88C261.81,-157.15 242.22,-144.65 229.5,-129 218.65,-115.65 211.47,-97.3 207.27,-83.75"/>
<polygon fill="#63b8ff" stroke="#63b8ff" points="210.63,-82.77 204.52,-74.11 203.89,-84.69 210.63,-82.77"/>
</a>
</g>
</g>
<!-- Node17&#45;&gt;Node15 -->
<g id="edge31_Node000017_Node000015" class="edge">
<title>Node17&#45;&gt;Node15</title>
<g id="a_edge31_Node000017_Node000015"><a xlink:title=" ">
<path fill="none" stroke="#63b8ff" d="M313.26,-164.98C333.23,-156.38 364.3,-142.99 387.15,-133.15"/>
<polygon fill="#63b8ff" stroke="#63b8ff" points="388.58,-136.34 396.38,-129.17 385.81,-129.91 388.58,-136.34"/>
</a>
</g>
</g>
<!-- Node18 -->
<g id="Node000018" class="node">
<title>Node18</title>
<g id="a_Node000018"><a xlink:href="_types_8hpp.html" target="_top" xlink:title=" ">
<polygon fill="white" stroke="#666666" points="651.5,-129 555.5,-129 555.5,-110 651.5,-110 651.5,-129"/>
<text text-anchor="middle" x="603.5" y="-117" font-family="Helvetica,sans-Serif" font-size="10.00">wmtk/Types.hpp</text>
</a>
</g>
</g>
<!-- Node17&#45;&gt;Node18 -->
<g id="edge24_Node000017_Node000018" class="edge">
<title>Node17&#45;&gt;Node18</title>
<g id="a_edge24_Node000017_Node000018"><a xlink:title=" ">
<path fill="none" stroke="#63b8ff" d="M343.31,-164.98C398.36,-155.57 486.95,-140.43 545.2,-130.47"/>
<polygon fill="#63b8ff" stroke="#63b8ff" points="546.08,-133.87 555.35,-128.73 544.9,-126.97 546.08,-133.87"/>
</a>
</g>
</g>
<!-- Node19 -->
<g id="Node000019" class="node">
<title>Node19</title>
<g id="a_Node000019"><a xlink:title=" ">
<polygon fill="#e0e0e0" stroke="#999999" points="728,-19 659,-19 659,0 728,0 728,-19"/>
<text text-anchor="middle" x="693.5" y="-7" font-family="Helvetica,sans-Serif" font-size="10.00">Eigen/Core</text>
</a>
</g>
</g>
<!-- Node18&#45;&gt;Node19 -->
<g id="edge25_Node000018_Node000019" class="edge">
<title>Node18&#45;&gt;Node19</title>
<g id="a_edge25_Node000018_Node000019"><a xlink:title=" ">
<path fill="none" stroke="#63b8ff" d="M628.78,-109.88C645.66,-102.83 667,-91.18 679.5,-74 688.94,-61.02 692.22,-42.87 693.26,-29.3"/>
<polygon fill="#63b8ff" stroke="#63b8ff" points="696.76,-29.33 693.7,-19.19 689.77,-29.02 696.76,-29.33"/>
</a>
</g>
</g>
<!-- Node20 -->
<g id="Node000020" class="node">
<title>Node20</title>
<g id="a_Node000020"><a xlink:href="_rational_8hpp.html" target="_top" xlink:title=" ">
<polygon fill="white" stroke="#666666" points="670,-74 537,-74 537,-55 670,-55 670,-74"/>
<text text-anchor="middle" x="603.5" y="-62" font-family="Helvetica,sans-Serif" font-size="10.00">wmtk/utils/Rational.hpp</text>
</a>
</g>
</g>
<!-- Node18&#45;&gt;Node20 -->
<g id="edge26_Node000018_Node000020" class="edge">
<title>Node18&#45;&gt;Node20</title>
<g id="a_edge26_Node000018_Node000020"><a xlink:title=" ">
<path fill="none" stroke="#63b8ff" d="M603.5,-109.75C603.5,-102.8 603.5,-92.85 603.5,-84.13"/>
<polygon fill="#63b8ff" stroke="#63b8ff" points="607,-84.09 603.5,-74.09 600,-84.09 607,-84.09"/>
</a>
</g>
</g>
<!-- Node20&#45;&gt;Node10 -->
<g id="edge29_Node000020_Node000010" class="edge">
<title>Node20&#45;&gt;Node10</title>
<g id="a_edge29_Node000020_Node000010"><a xlink:title=" ">
<path fill="none" stroke="#63b8ff" d="M582.77,-54.98C561.74,-46.34 528.95,-32.87 504.96,-23.02"/>
<polygon fill="#63b8ff" stroke="#63b8ff" points="506.18,-19.73 495.6,-19.17 503.52,-26.21 506.18,-19.73"/>
</a>
</g>
</g>
<!-- Node20&#45;&gt;Node12 -->
<g id="edge30_Node000020_Node000012" class="edge">
<title>Node20&#45;&gt;Node12</title>
<g id="a_edge30_Node000020_Node000012"><a xlink:title=" ">
<path fill="none" stroke="#63b8ff" d="M594.02,-54.98C585.3,-47.15 572.16,-35.34 561.6,-25.86"/>
<polygon fill="#63b8ff" stroke="#63b8ff" points="563.93,-23.25 554.15,-19.17 559.25,-28.46 563.93,-23.25"/>
</a>
</g>
</g>
<!-- Node20&#45;&gt;Node19 -->
<g id="edge27_Node000020_Node000019" class="edge">
<title>Node20&#45;&gt;Node19</title>
<g id="a_edge27_Node000020_Node000019"><a xlink:title=" ">
<path fill="none" stroke="#63b8ff" d="M617.96,-54.98C631.92,-46.77 653.29,-34.18 669.75,-24.49"/>
<polygon fill="#63b8ff" stroke="#63b8ff" points="671.94,-27.26 678.78,-19.17 668.38,-21.23 671.94,-27.26"/>
</a>
</g>
</g>
<!-- Node21 -->
<g id="Node000021" class="node">
<title>Node21</title>
<g id="a_Node000021"><a xlink:title=" ">
<polygon fill="#e0e0e0" stroke="#999999" points="632,-19 585,-19 585,0 632,0 632,-19"/>
<text text-anchor="middle" x="608.5" y="-7" font-family="Helvetica,sans-Serif" font-size="10.00">gmp.h</text>
</a>
</g>
</g>
<!-- Node20&#45;&gt;Node21 -->
<g id="edge28_Node000020_Node000021" class="edge">
<title>Node20&#45;&gt;Node21</title>
<g id="a_edge28_Node000020_Node000021"><a xlink:title=" ">
<path fill="none" stroke="#63b8ff" d="M604.33,-54.75C604.98,-47.8 605.92,-37.85 606.74,-29.13"/>
<polygon fill="#63b8ff" stroke="#63b8ff" points="610.23,-29.37 607.69,-19.09 603.27,-28.72 610.23,-29.37"/>
</a>
</g>
</g>
</g>
</svg>
