<?xml version="1.0" encoding="UTF-8" standalone="no"?>
<!DOCTYPE svg PUBLIC "-//W3C//DTD SVG 1.1//EN"
 "http://www.w3.org/Graphics/SVG/1.1/DTD/svg11.dtd">
<!-- Generated by graphviz version 2.43.0 (0)
 -->
<!-- Title: src/wmtk/utils/EigenMatrixWriter.hpp Pages: 1 -->
<svg width="1375pt" height="126pt"
 viewBox="0.00 0.00 1375.00 126.00" xmlns="http://www.w3.org/2000/svg" xmlns:xlink="http://www.w3.org/1999/xlink">
<g id="graph0" class="graph" transform="scale(1 1) rotate(0) translate(4 122)">
<title>src/wmtk/utils/EigenMatrixWriter.hpp</title>
<!-- Node1 -->
<g id="Node000001" class="node">
<title>Node1</title>
<g id="a_Node000001"><a xlink:title=" ">
<polygon fill="#999999" stroke="#666666" points="758,-118 611,-118 611,-88 758,-88 758,-118"/>
<text text-anchor="start" x="619" y="-106" font-family="Helvetica,sans-Serif" font-size="10.00">src/wmtk/utils/EigenMatrix</text>
<text text-anchor="middle" x="684.5" y="-95" font-family="Helvetica,sans-Serif" font-size="10.00">Writer.hpp</text>
</a>
</g>
</g>
<!-- Node2 -->
<g id="Node000002" class="node">
<title>Node2</title>
<g id="a_Node000002"><a xlink:href="get__vf_8cpp.html" target="_top" xlink:title=" ">
<polygon fill="white" stroke="#666666" points="143,-46.5 0,-46.5 0,-5.5 143,-5.5 143,-46.5"/>
<text text-anchor="start" x="8" y="-34.5" font-family="Helvetica,sans-Serif" font-size="10.00">components/CDT/wmtk</text>
<text text-anchor="start" x="8" y="-23.5" font-family="Helvetica,sans-Serif" font-size="10.00">/components/CDT/internal</text>
<text text-anchor="middle" x="71.5" y="-12.5" font-family="Helvetica,sans-Serif" font-size="10.00">/get_vf.cpp</text>
</a>
</g>
</g>
<!-- Node1&#45;&gt;Node2 -->
<g id="edge1_Node000001_Node000002" class="edge">
<title>Node1&#45;&gt;Node2</title>
<g id="a_edge1_Node000001_Node000002"><a xlink:title=" ">
<path fill="none" stroke="#63b8ff" d="M600.39,-99.43C494.87,-94.99 308.79,-83.12 152.5,-52 145.14,-50.53 137.5,-48.66 129.98,-46.6"/>
<polygon fill="#63b8ff" stroke="#63b8ff" points="600.53,-102.94 610.66,-99.85 600.81,-95.94 600.53,-102.94"/>
</a>
</g>
</g>
<!-- Node3 -->
<g id="Node000003" class="node">
<title>Node3</title>
<g id="a_Node000003"><a xlink:href="fusion_8cpp.html" target="_top" xlink:title=" ">
<polygon fill="white" stroke="#666666" points="327.5,-41 161.5,-41 161.5,-11 327.5,-11 327.5,-41"/>
<text text-anchor="start" x="169.5" y="-29" font-family="Helvetica,sans-Serif" font-size="10.00">components/fusion/wmtk</text>
<text text-anchor="middle" x="244.5" y="-18" font-family="Helvetica,sans-Serif" font-size="10.00">/components/fusion/fusion.cpp</text>
</a>
</g>
</g>
<!-- Node1&#45;&gt;Node3 -->
<g id="edge2_Node000001_Node000003" class="edge">
<title>Node1&#45;&gt;Node3</title>
<g id="a_edge2_Node000001_Node000003"><a xlink:title=" ">
<path fill="none" stroke="#63b8ff" d="M600.52,-92.86C529.72,-84.46 425.94,-70.51 336.5,-52 321.91,-48.98 306.21,-45 291.98,-41.1"/>
<polygon fill="#63b8ff" stroke="#63b8ff" points="600.38,-96.37 610.72,-94.06 601.2,-89.42 600.38,-96.37"/>
</a>
</g>
</g>
<!-- Node4 -->
<g id="Node000004" class="node">
<title>Node4</title>
<g id="a_Node000004"><a xlink:href="test__component__fusion_8cpp.html" target="_top" xlink:title=" ">
<polygon fill="white" stroke="#666666" points="477.5,-41 345.5,-41 345.5,-11 477.5,-11 477.5,-41"/>
<text text-anchor="start" x="353.5" y="-29" font-family="Helvetica,sans-Serif" font-size="10.00">components/tests/test</text>
<text text-anchor="middle" x="411.5" y="-18" font-family="Helvetica,sans-Serif" font-size="10.00">_component_fusion.cpp</text>
</a>
</g>
</g>
<!-- Node1&#45;&gt;Node4 -->
<g id="edge3_Node000001_Node000004" class="edge">
<title>Node1&#45;&gt;Node4</title>
<g id="a_edge3_Node000001_Node000004"><a xlink:title=" ">
<path fill="none" stroke="#63b8ff" d="M614.02,-85.55C576.06,-76.35 528.51,-64.29 486.5,-52 475.17,-48.69 462.99,-44.78 451.81,-41.05"/>
<polygon fill="#63b8ff" stroke="#63b8ff" points="613.42,-89.01 623.96,-87.95 615.06,-82.2 613.42,-89.01"/>
</a>
</g>
</g>
<!-- Node5 -->
<g id="Node000005" class="node">
<title>Node5</title>
<g id="a_Node000005"><a xlink:href="tetwild__simplification_8cpp.html" target="_top" xlink:title=" ">
<polygon fill="white" stroke="#666666" points="683.5,-52 495.5,-52 495.5,0 683.5,0 683.5,-52"/>
<text text-anchor="start" x="503.5" y="-40" font-family="Helvetica,sans-Serif" font-size="10.00">components/tetwild</text>
<text text-anchor="start" x="503.5" y="-29" font-family="Helvetica,sans-Serif" font-size="10.00">_simplification/wmtk</text>
<text text-anchor="start" x="503.5" y="-18" font-family="Helvetica,sans-Serif" font-size="10.00">/components/tetwild_simplification</text>
<text text-anchor="middle" x="589.5" y="-7" font-family="Helvetica,sans-Serif" font-size="10.00">/tetwild_simplification.cpp</text>
</a>
</g>
</g>
<!-- Node1&#45;&gt;Node5 -->
<g id="edge4_Node000001_Node000005" class="edge">
<title>Node1&#45;&gt;Node5</title>
<g id="a_edge4_Node000001_Node000005"><a xlink:title=" ">
<path fill="none" stroke="#63b8ff" d="M658.71,-81.64C647.25,-72.59 633.63,-61.84 621.52,-52.28"/>
<polygon fill="#63b8ff" stroke="#63b8ff" points="656.61,-84.44 666.63,-87.89 660.95,-78.95 656.61,-84.44"/>
</a>
</g>
</g>
<!-- Node6 -->
<g id="Node000006" class="node">
<title>Node6</title>
<g id="a_Node000006"><a xlink:href="triangle__insertion_8cpp.html" target="_top" xlink:title=" ">
<polygon fill="white" stroke="#666666" points="859.5,-52 701.5,-52 701.5,0 859.5,0 859.5,-52"/>
<text text-anchor="start" x="709.5" y="-40" font-family="Helvetica,sans-Serif" font-size="10.00">components/triangle</text>
<text text-anchor="start" x="709.5" y="-29" font-family="Helvetica,sans-Serif" font-size="10.00">_insertion/wmtk/components</text>
<text text-anchor="start" x="709.5" y="-18" font-family="Helvetica,sans-Serif" font-size="10.00">/triangle_insertion/triangle</text>
<text text-anchor="middle" x="780.5" y="-7" font-family="Helvetica,sans-Serif" font-size="10.00">_insertion.cpp</text>
</a>
</g>
</g>
<!-- Node1&#45;&gt;Node6 -->
<g id="edge5_Node000001_Node000006" class="edge">
<title>Node1&#45;&gt;Node6</title>
<g id="a_edge5_Node000001_Node000006"><a xlink:title=" ">
<path fill="none" stroke="#63b8ff" d="M710.56,-81.64C722.15,-72.59 735.91,-61.84 748.15,-52.28"/>
<polygon fill="#63b8ff" stroke="#63b8ff" points="708.28,-78.98 702.56,-87.89 712.59,-84.49 708.28,-78.98"/>
</a>
</g>
</g>
<!-- Node7 -->
<g id="Node000007" class="node">
<title>Node7</title>
<g id="a_Node000007"><a xlink:href="internal_2winding__number_8cpp.html" target="_top" xlink:title=" ">
<polygon fill="white" stroke="#666666" points="1031,-52 878,-52 878,0 1031,0 1031,-52"/>
<text text-anchor="start" x="886" y="-40" font-family="Helvetica,sans-Serif" font-size="10.00">components/winding</text>
<text text-anchor="start" x="886" y="-29" font-family="Helvetica,sans-Serif" font-size="10.00">_number/wmtk/components</text>
<text text-anchor="start" x="886" y="-18" font-family="Helvetica,sans-Serif" font-size="10.00">/winding_number/internal</text>
<text text-anchor="middle" x="954.5" y="-7" font-family="Helvetica,sans-Serif" font-size="10.00">/winding_number.cpp</text>
</a>
</g>
</g>
<!-- Node1&#45;&gt;Node7 -->
<g id="edge6_Node000001_Node000007" class="edge">
<title>Node1&#45;&gt;Node7</title>
<g id="a_edge6_Node000001_Node000007"><a xlink:title=" ">
<path fill="none" stroke="#63b8ff" d="M747.09,-85.28C782.72,-75.7 828.16,-63.34 868.5,-52 871.49,-51.16 874.54,-50.3 877.63,-49.42"/>
<polygon fill="#63b8ff" stroke="#63b8ff" points="746.06,-81.94 737.31,-87.91 747.88,-88.7 746.06,-81.94"/>
</a>
</g>
</g>
<!-- Node8 -->
<g id="Node000008" class="node">
<title>Node8</title>
<g id="a_Node000008"><a xlink:href="winding__number_8cpp.html" target="_top" xlink:title=" ">
<polygon fill="white" stroke="#666666" points="1202,-52 1049,-52 1049,0 1202,0 1202,-52"/>
<text text-anchor="start" x="1057" y="-40" font-family="Helvetica,sans-Serif" font-size="10.00">components/winding</text>
<text text-anchor="start" x="1057" y="-29" font-family="Helvetica,sans-Serif" font-size="10.00">_number/wmtk/components</text>
<text text-anchor="start" x="1057" y="-18" font-family="Helvetica,sans-Serif" font-size="10.00">/winding_number/winding</text>
<text text-anchor="middle" x="1125.5" y="-7" font-family="Helvetica,sans-Serif" font-size="10.00">_number.cpp</text>
</a>
</g>
</g>
<!-- Node1&#45;&gt;Node8 -->
<g id="edge7_Node000001_Node000008" class="edge">
<title>Node1&#45;&gt;Node8</title>
<g id="a_edge7_Node000001_Node000008"><a xlink:title=" ">
<path fill="none" stroke="#63b8ff" d="M768,-93.77C840.54,-85.79 948.15,-71.95 1040.5,-52 1043.21,-51.42 1045.95,-50.79 1048.72,-50.13"/>
<polygon fill="#63b8ff" stroke="#63b8ff" points="767.57,-90.3 758.01,-94.86 768.33,-97.26 767.57,-90.3"/>
</a>
</g>
</g>
<!-- Node9 -->
<g id="Node000009" class="node">
<title>Node9</title>
<g id="a_Node000009"><a xlink:href="_eigen_matrix_writer_8cpp.html" target="_top" xlink:title=" ">
<polygon fill="white" stroke="#666666" points="1367,-41 1220,-41 1220,-11 1367,-11 1367,-41"/>
<text text-anchor="start" x="1228" y="-29" font-family="Helvetica,sans-Serif" font-size="10.00">src/wmtk/utils/EigenMatrix</text>
<text text-anchor="middle" x="1293.5" y="-18" font-family="Helvetica,sans-Serif" font-size="10.00">Writer.cpp</text>
</a>
</g>
</g>
<!-- Node1&#45;&gt;Node9 -->
<g id="edge8_Node000001_Node000009" class="edge">
<title>Node1&#45;&gt;Node9</title>
<g id="a_edge8_Node000001_Node000009"><a xlink:title=" ">
<path fill="none" stroke="#63b8ff" d="M768.24,-99.25C872.83,-94.63 1056.85,-82.59 1211.5,-52 1225.22,-49.29 1239.93,-45.19 1253.04,-41.1"/>
<polygon fill="#63b8ff" stroke="#63b8ff" points="767.9,-95.76 758.06,-99.69 768.2,-102.76 767.9,-95.76"/>
</a>
</g>
</g>
</g>
</svg>
