<?xml version="1.0" encoding="UTF-8" standalone="no"?>
<!DOCTYPE svg PUBLIC "-//W3C//DTD SVG 1.1//EN"
 "http://www.w3.org/Graphics/SVG/1.1/DTD/svg11.dtd">
<!-- Generated by graphviz version 2.43.0 (0)
 -->
<!-- Title: src/wmtk/utils/EigenMatrixWriter.cpp Pages: 1 -->
<svg width="669pt" height="368pt"
 viewBox="0.00 0.00 668.50 368.00" xmlns="http://www.w3.org/2000/svg" xmlns:xlink="http://www.w3.org/1999/xlink">
<g id="graph0" class="graph" transform="scale(1 1) rotate(0) translate(4 364)">
<title>src/wmtk/utils/EigenMatrixWriter.cpp</title>
<!-- Node1 -->
<g id="Node000001" class="node">
<title>Node1</title>
<g id="a_Node000001"><a xlink:title=" ">
<polygon fill="#999999" stroke="#666666" points="215.5,-360 68.5,-360 68.5,-330 215.5,-330 215.5,-360"/>
<text text-anchor="start" x="76.5" y="-348" font-family="Helvetica,sans-Serif" font-size="10.00">src/wmtk/utils/EigenMatrix</text>
<text text-anchor="middle" x="142" y="-337" font-family="Helvetica,sans-Serif" font-size="10.00">Writer.cpp</text>
</a>
</g>
</g>
<!-- Node2 -->
<g id="Node000002" class="node">
<title>Node2</title>
<g id="a_Node000002"><a xlink:href="_eigen_matrix_writer_8hpp.html" target="_top" xlink:title=" ">
<polygon fill="white" stroke="#666666" points="204.5,-294 79.5,-294 79.5,-275 204.5,-275 204.5,-294"/>
<text text-anchor="middle" x="142" y="-282" font-family="Helvetica,sans-Serif" font-size="10.00">EigenMatrixWriter.hpp</text>
</a>
</g>
</g>
<!-- Node1&#45;&gt;Node2 -->
<g id="edge1_Node000001_Node000002" class="edge">
<title>Node1&#45;&gt;Node2</title>
<g id="a_edge1_Node000001_Node000002"><a xlink:title=" ">
<path fill="none" stroke="#63b8ff" d="M142,-329.84C142,-322.21 142,-312.7 142,-304.45"/>
<polygon fill="#63b8ff" stroke="#63b8ff" points="145.5,-304.27 142,-294.27 138.5,-304.27 145.5,-304.27"/>
</a>
</g>
</g>
<!-- Node3 -->
<g id="Node000003" class="node">
<title>Node3</title>
<g id="a_Node000003"><a xlink:title=" ">
<polygon fill="#e0e0e0" stroke="#999999" points="38,-239 0,-239 0,-220 38,-220 38,-239"/>
<text text-anchor="middle" x="19" y="-227" font-family="Helvetica,sans-Serif" font-size="10.00">map</text>
</a>
</g>
</g>
<!-- Node2&#45;&gt;Node3 -->
<g id="edge2_Node000002_Node000003" class="edge">
<title>Node2&#45;&gt;Node3</title>
<g id="a_edge2_Node000002_Node000003"><a xlink:title=" ">
<path fill="none" stroke="#63b8ff" d="M122.24,-274.98C102.04,-266.28 70.45,-252.67 47.54,-242.8"/>
<polygon fill="#63b8ff" stroke="#63b8ff" points="48.88,-239.56 38.31,-238.82 46.11,-245.99 48.88,-239.56"/>
</a>
</g>
</g>
<!-- Node4 -->
<g id="Node000004" class="node">
<title>Node4</title>
<g id="a_Node000004"><a xlink:href="_types_8hpp.html" target="_top" xlink:title=" ">
<polygon fill="white" stroke="#666666" points="152,-239 56,-239 56,-220 152,-220 152,-239"/>
<text text-anchor="middle" x="104" y="-227" font-family="Helvetica,sans-Serif" font-size="10.00">wmtk/Types.hpp</text>
</a>
</g>
</g>
<!-- Node2&#45;&gt;Node4 -->
<g id="edge3_Node000002_Node000004" class="edge">
<title>Node2&#45;&gt;Node4</title>
<g id="a_edge3_Node000002_Node000004"><a xlink:title=" ">
<path fill="none" stroke="#63b8ff" d="M135.73,-274.75C130.41,-267.34 122.64,-256.5 116.12,-247.41"/>
<polygon fill="#63b8ff" stroke="#63b8ff" points="118.83,-245.18 110.16,-239.09 113.14,-249.26 118.83,-245.18"/>
</a>
</g>
</g>
<!-- Node6 -->
<g id="Node000006" class="node">
<title>Node6</title>
<g id="a_Node000006"><a xlink:href="_rational_8hpp.html" target="_top" xlink:title=" ">
<polygon fill="white" stroke="#666666" points="231.5,-184 98.5,-184 98.5,-165 231.5,-165 231.5,-184"/>
<text text-anchor="middle" x="165" y="-172" font-family="Helvetica,sans-Serif" font-size="10.00">wmtk/utils/Rational.hpp</text>
</a>
</g>
</g>
<!-- Node2&#45;&gt;Node6 -->
<g id="edge27_Node000002_Node000006" class="edge">
<title>Node2&#45;&gt;Node6</title>
<g id="a_edge27_Node000002_Node000006"><a xlink:title=" ">
<path fill="none" stroke="#63b8ff" d="M146.7,-274.94C151.25,-266.19 157.89,-252.08 161,-239 164.48,-224.35 165.39,-207.31 165.48,-194.56"/>
<polygon fill="#63b8ff" stroke="#63b8ff" points="168.97,-194.23 165.38,-184.26 161.97,-194.3 168.97,-194.23"/>
</a>
</g>
</g>
<!-- Node10 -->
<g id="Node000010" class="node">
<title>Node10</title>
<g id="a_Node000010"><a xlink:href="_mesh_writer_8hpp.html" target="_top" xlink:title=" ">
<polygon fill="white" stroke="#666666" points="374,-239 238,-239 238,-220 374,-220 374,-239"/>
<text text-anchor="middle" x="306" y="-227" font-family="Helvetica,sans-Serif" font-size="10.00">wmtk/io/MeshWriter.hpp</text>
</a>
</g>
</g>
<!-- Node2&#45;&gt;Node10 -->
<g id="edge10_Node000002_Node000010" class="edge">
<title>Node2&#45;&gt;Node10</title>
<g id="a_edge10_Node000002_Node000010"><a xlink:title=" ">
<path fill="none" stroke="#63b8ff" d="M168.35,-274.98C195.76,-266.13 238.89,-252.19 269.56,-242.28"/>
<polygon fill="#63b8ff" stroke="#63b8ff" points="271,-245.49 279.44,-239.08 268.85,-238.83 271,-245.49"/>
</a>
</g>
</g>
<!-- Node5 -->
<g id="Node000005" class="node">
<title>Node5</title>
<g id="a_Node000005"><a xlink:title=" ">
<polygon fill="#e0e0e0" stroke="#999999" points="71.5,-129 2.5,-129 2.5,-110 71.5,-110 71.5,-129"/>
<text text-anchor="middle" x="37" y="-117" font-family="Helvetica,sans-Serif" font-size="10.00">Eigen/Core</text>
</a>
</g>
</g>
<!-- Node4&#45;&gt;Node5 -->
<g id="edge4_Node000004_Node000005" class="edge">
<title>Node4&#45;&gt;Node5</title>
<g id="a_edge4_Node000004_Node000005"><a xlink:title=" ">
<path fill="none" stroke="#63b8ff" d="M98.52,-219.66C87.42,-201.77 62.13,-161 47.67,-137.69"/>
<polygon fill="#63b8ff" stroke="#63b8ff" points="50.62,-135.81 42.37,-129.16 44.67,-139.5 50.62,-135.81"/>
</a>
</g>
</g>
<!-- Node4&#45;&gt;Node6 -->
<g id="edge5_Node000004_Node000006" class="edge">
<title>Node4&#45;&gt;Node6</title>
<g id="a_edge5_Node000004_Node000006"><a xlink:title=" ">
<path fill="none" stroke="#63b8ff" d="M113.8,-219.98C122.82,-212.15 136.41,-200.34 147.32,-190.86"/>
<polygon fill="#63b8ff" stroke="#63b8ff" points="149.77,-193.37 155.02,-184.17 145.18,-188.09 149.77,-193.37"/>
</a>
</g>
</g>
<!-- Node6&#45;&gt;Node5 -->
<g id="edge6_Node000006_Node000005" class="edge">
<title>Node6&#45;&gt;Node5</title>
<g id="a_edge6_Node000006_Node000005"><a xlink:title=" ">
<path fill="none" stroke="#63b8ff" d="M144.43,-164.98C123.57,-156.34 91.03,-142.87 67.23,-133.02"/>
<polygon fill="#63b8ff" stroke="#63b8ff" points="68.52,-129.76 57.94,-129.17 65.84,-136.23 68.52,-129.76"/>
</a>
</g>
</g>
<!-- Node7 -->
<g id="Node000007" class="node">
<title>Node7</title>
<g id="a_Node000007"><a xlink:title=" ">
<polygon fill="#e0e0e0" stroke="#999999" points="136.5,-129 89.5,-129 89.5,-110 136.5,-110 136.5,-129"/>
<text text-anchor="middle" x="113" y="-117" font-family="Helvetica,sans-Serif" font-size="10.00">gmp.h</text>
</a>
</g>
</g>
<!-- Node6&#45;&gt;Node7 -->
<g id="edge7_Node000006_Node000007" class="edge">
<title>Node6&#45;&gt;Node7</title>
<g id="a_edge7_Node000006_Node000007"><a xlink:title=" ">
<path fill="none" stroke="#63b8ff" d="M156.41,-164.75C148.84,-157.03 137.62,-145.6 128.49,-136.28"/>
<polygon fill="#63b8ff" stroke="#63b8ff" points="130.93,-133.78 121.43,-129.09 125.93,-138.68 130.93,-133.78"/>
</a>
</g>
</g>
<!-- Node8 -->
<g id="Node000008" class="node">
<title>Node8</title>
<g id="a_Node000008"><a xlink:title=" ">
<polygon fill="#e0e0e0" stroke="#999999" points="155,-19 95,-19 95,0 155,0 155,-19"/>
<text text-anchor="middle" x="125" y="-7" font-family="Helvetica,sans-Serif" font-size="10.00">iostream</text>
</a>
</g>
</g>
<!-- Node6&#45;&gt;Node8 -->
<g id="edge8_Node000006_Node000008" class="edge">
<title>Node6&#45;&gt;Node8</title>
<g id="a_edge8_Node000006_Node000008"><a xlink:title=" ">
<path fill="none" stroke="#63b8ff" d="M162.85,-164.74C156.58,-139.2 138.23,-64.43 129.6,-29.23"/>
<polygon fill="#63b8ff" stroke="#63b8ff" points="132.94,-28.18 127.16,-19.31 126.15,-29.85 132.94,-28.18"/>
</a>
</g>
</g>
<!-- Node9 -->
<g id="Node000009" class="node">
<title>Node9</title>
<g id="a_Node000009"><a xlink:title=" ">
<polygon fill="#e0e0e0" stroke="#999999" points="217,-19 173,-19 173,0 217,0 217,-19"/>
<text text-anchor="middle" x="195" y="-7" font-family="Helvetica,sans-Serif" font-size="10.00">string</text>
</a>
</g>
</g>
<!-- Node6&#45;&gt;Node9 -->
<g id="edge9_Node000006_Node000009" class="edge">
<title>Node6&#45;&gt;Node9</title>
<g id="a_edge9_Node000006_Node000009"><a xlink:title=" ">
<path fill="none" stroke="#63b8ff" d="M168.24,-164.76C171.42,-155.87 176.18,-141.65 179,-129 186.77,-94.18 191.32,-52.7 193.47,-29.2"/>
<polygon fill="#63b8ff" stroke="#63b8ff" points="196.96,-29.48 194.34,-19.21 189.98,-28.87 196.96,-29.48"/>
</a>
</g>
</g>
<!-- Node10&#45;&gt;Node6 -->
<g id="edge25_Node000010_Node000006" class="edge">
<title>Node10&#45;&gt;Node6</title>
<g id="a_edge25_Node000010_Node000006"><a xlink:title=" ">
<path fill="none" stroke="#63b8ff" d="M283.35,-219.98C260.15,-211.27 223.88,-197.63 197.6,-187.75"/>
<polygon fill="#63b8ff" stroke="#63b8ff" points="198.66,-184.41 188.07,-184.17 196.2,-190.97 198.66,-184.41"/>
</a>
</g>
</g>
<!-- Node11 -->
<g id="Node000011" class="node">
<title>Node11</title>
<g id="a_Node000011"><a xlink:href="_primitive_8hpp.html" target="_top" xlink:title=" ">
<polygon fill="white" stroke="#666666" points="378.5,-184 265.5,-184 265.5,-165 378.5,-165 378.5,-184"/>
<text text-anchor="middle" x="322" y="-172" font-family="Helvetica,sans-Serif" font-size="10.00">wmtk/Primitive.hpp</text>
</a>
</g>
</g>
<!-- Node10&#45;&gt;Node11 -->
<g id="edge11_Node000010_Node000011" class="edge">
<title>Node10&#45;&gt;Node11</title>
<g id="a_edge11_Node000010_Node000011"><a xlink:title=" ">
<path fill="none" stroke="#63b8ff" d="M308.64,-219.75C310.76,-212.72 313.81,-202.62 316.46,-193.84"/>
<polygon fill="#63b8ff" stroke="#63b8ff" points="319.87,-194.67 319.41,-184.09 313.17,-192.65 319.87,-194.67"/>
</a>
</g>
</g>
<!-- Node15 -->
<g id="Node000015" class="node">
<title>Node15</title>
<g id="a_Node000015"><a xlink:title=" ">
<polygon fill="#e0e0e0" stroke="#999999" points="660.5,-19 613.5,-19 613.5,0 660.5,0 660.5,-19"/>
<text text-anchor="middle" x="637" y="-7" font-family="Helvetica,sans-Serif" font-size="10.00">vector</text>
</a>
</g>
</g>
<!-- Node10&#45;&gt;Node15 -->
<g id="edge26_Node000010_Node000015" class="edge">
<title>Node10&#45;&gt;Node15</title>
<g id="a_edge26_Node000010_Node000015"><a xlink:title=" ">
<path fill="none" stroke="#63b8ff" d="M323.28,-219.84C340.09,-211.24 366.22,-197.44 388,-184 476.35,-129.48 576.21,-56.1 617.52,-25.19"/>
<polygon fill="#63b8ff" stroke="#63b8ff" points="619.74,-27.9 625.64,-19.1 615.54,-22.3 619.74,-27.9"/>
</a>
</g>
</g>
<!-- Node12 -->
<g id="Node000012" class="node">
<title>Node12</title>
<g id="a_Node000012"><a xlink:href="_primitive_type_8hpp.html" target="_top" xlink:title=" ">
<polygon fill="white" stroke="#666666" points="528,-74 424,-74 424,-55 528,-55 528,-74"/>
<text text-anchor="middle" x="476" y="-62" font-family="Helvetica,sans-Serif" font-size="10.00">PrimitiveType.hpp</text>
</a>
</g>
</g>
<!-- Node11&#45;&gt;Node12 -->
<g id="edge12_Node000011_Node000012" class="edge">
<title>Node11&#45;&gt;Node12</title>
<g id="a_edge12_Node000011_Node000012"><a xlink:title=" ">
<path fill="none" stroke="#63b8ff" d="M334.34,-164.84C360.7,-146.36 422.73,-102.86 455.26,-80.05"/>
<polygon fill="#63b8ff" stroke="#63b8ff" points="457.42,-82.8 463.6,-74.2 453.4,-77.07 457.42,-82.8"/>
</a>
</g>
</g>
<!-- Node16 -->
<g id="Node000016" class="node">
<title>Node16</title>
<g id="a_Node000016"><a xlink:href="_tuple_8hpp.html" target="_top" xlink:title=" ">
<polygon fill="white" stroke="#666666" points="353.5,-129 290.5,-129 290.5,-110 353.5,-110 353.5,-129"/>
<text text-anchor="middle" x="322" y="-117" font-family="Helvetica,sans-Serif" font-size="10.00">Tuple.hpp</text>
</a>
</g>
</g>
<!-- Node11&#45;&gt;Node16 -->
<g id="edge16_Node000011_Node000016" class="edge">
<title>Node11&#45;&gt;Node16</title>
<g id="a_edge16_Node000011_Node000016"><a xlink:title=" ">
<path fill="none" stroke="#63b8ff" d="M322,-164.75C322,-157.8 322,-147.85 322,-139.13"/>
<polygon fill="#63b8ff" stroke="#63b8ff" points="325.5,-139.09 322,-129.09 318.5,-139.09 325.5,-139.09"/>
</a>
</g>
</g>
<!-- Node13 -->
<g id="Node000013" class="node">
<title>Node13</title>
<g id="a_Node000013"><a xlink:title=" ">
<polygon fill="#e0e0e0" stroke="#999999" points="595.5,-19 530.5,-19 530.5,0 595.5,0 595.5,-19"/>
<text text-anchor="middle" x="563" y="-7" font-family="Helvetica,sans-Serif" font-size="10.00">stdexcept</text>
</a>
</g>
</g>
<!-- Node12&#45;&gt;Node13 -->
<g id="edge13_Node000012_Node000013" class="edge">
<title>Node12&#45;&gt;Node13</title>
<g id="a_edge13_Node000012_Node000013"><a xlink:title=" ">
<path fill="none" stroke="#63b8ff" d="M489.98,-54.98C503.47,-46.77 524.13,-34.18 540.04,-24.49"/>
<polygon fill="#63b8ff" stroke="#63b8ff" points="542.05,-27.36 548.77,-19.17 538.41,-21.38 542.05,-27.36"/>
</a>
</g>
</g>
<!-- Node14 -->
<g id="Node000014" class="node">
<title>Node14</title>
<g id="a_Node000014"><a xlink:title=" ">
<polygon fill="#e0e0e0" stroke="#999999" points="512.5,-19 439.5,-19 439.5,0 512.5,0 512.5,-19"/>
<text text-anchor="middle" x="476" y="-7" font-family="Helvetica,sans-Serif" font-size="10.00">string_view</text>
</a>
</g>
</g>
<!-- Node12&#45;&gt;Node14 -->
<g id="edge14_Node000012_Node000014" class="edge">
<title>Node12&#45;&gt;Node14</title>
<g id="a_edge14_Node000012_Node000014"><a xlink:title=" ">
<path fill="none" stroke="#63b8ff" d="M476,-54.75C476,-47.8 476,-37.85 476,-29.13"/>
<polygon fill="#63b8ff" stroke="#63b8ff" points="479.5,-29.09 476,-19.09 472.5,-29.09 479.5,-29.09"/>
</a>
</g>
</g>
<!-- Node12&#45;&gt;Node15 -->
<g id="edge15_Node000012_Node000015" class="edge">
<title>Node12&#45;&gt;Node15</title>
<g id="a_edge15_Node000012_Node000015"><a xlink:title=" ">
<path fill="none" stroke="#63b8ff" d="M501.87,-54.98C529.5,-45.89 573.39,-31.44 603.61,-21.49"/>
<polygon fill="#63b8ff" stroke="#63b8ff" points="604.89,-24.75 613.3,-18.3 602.7,-18.11 604.89,-24.75"/>
</a>
</g>
</g>
<!-- Node16&#45;&gt;Node12 -->
<g id="edge17_Node000016_Node000012" class="edge">
<title>Node16&#45;&gt;Node12</title>
<g id="a_edge17_Node000016_Node000012"><a xlink:title=" ">
<path fill="none" stroke="#63b8ff" d="M346.74,-109.98C372.37,-101.16 412.63,-87.31 441.41,-77.41"/>
<polygon fill="#63b8ff" stroke="#63b8ff" points="442.75,-80.65 451.06,-74.08 440.47,-74.03 442.75,-80.65"/>
</a>
</g>
</g>
<!-- Node17 -->
<g id="Node000017" class="node">
<title>Node17</title>
<g id="a_Node000017"><a xlink:href="_tuple_8hxx.html" target="_top" xlink:title=" ">
<polygon fill="white" stroke="#666666" points="353.5,-74 290.5,-74 290.5,-55 353.5,-55 353.5,-74"/>
<text text-anchor="middle" x="322" y="-62" font-family="Helvetica,sans-Serif" font-size="10.00">Tuple.hxx</text>
</a>
</g>
</g>
<!-- Node16&#45;&gt;Node17 -->
<g id="edge18_Node000016_Node000017" class="edge">
<title>Node16&#45;&gt;Node17</title>
<g id="a_edge18_Node000016_Node000017"><a xlink:title=" ">
<path fill="none" stroke="#63b8ff" d="M316.83,-109.75C315.34,-102.8 314.9,-92.85 315.52,-84.13"/>
<polygon fill="#63b8ff" stroke="#63b8ff" points="319.01,-84.47 316.87,-74.09 312.07,-83.53 319.01,-84.47"/>
</a>
</g>
</g>
<!-- Node17&#45;&gt;Node8 -->
<g id="edge20_Node000017_Node000008" class="edge">
<title>Node17&#45;&gt;Node8</title>
<g id="a_edge20_Node000017_Node000008"><a xlink:title=" ">
<path fill="none" stroke="#63b8ff" d="M290.35,-54.98C256.35,-45.84 202.23,-31.28 165.23,-21.32"/>
<polygon fill="#63b8ff" stroke="#63b8ff" points="165.84,-17.86 155.28,-18.65 164.03,-24.62 165.84,-17.86"/>
</a>
</g>
</g>
<!-- Node17&#45;&gt;Node9 -->
<g id="edge22_Node000017_Node000009" class="edge">
<title>Node17&#45;&gt;Node9</title>
<g id="a_edge22_Node000017_Node000009"><a xlink:title=" ">
<path fill="none" stroke="#63b8ff" d="M301.6,-54.98C280.98,-46.38 248.89,-32.99 225.31,-23.15"/>
<polygon fill="#63b8ff" stroke="#63b8ff" points="226.35,-19.79 215.78,-19.17 223.66,-26.25 226.35,-19.79"/>
</a>
</g>
</g>
<!-- Node17&#45;&gt;Node16 -->
<g id="edge24_Node000017_Node000016" class="edge">
<title>Node17&#45;&gt;Node16</title>
<g id="a_edge24_Node000017_Node000016"><a xlink:title=" ">
<path fill="none" stroke="#63b8ff" d="M327.13,-74.09C328.64,-80.99 329.09,-90.93 328.49,-99.66"/>
<polygon fill="#63b8ff" stroke="#63b8ff" points="325,-99.38 327.17,-109.75 331.94,-100.29 325,-99.38"/>
</a>
</g>
</g>
<!-- Node18 -->
<g id="Node000018" class="node">
<title>Node18</title>
<g id="a_Node000018"><a xlink:title=" ">
<polygon fill="#e0e0e0" stroke="#999999" points="421.5,-19 368.5,-19 368.5,0 421.5,0 421.5,-19"/>
<text text-anchor="middle" x="395" y="-7" font-family="Helvetica,sans-Serif" font-size="10.00">cstddef</text>
</a>
</g>
</g>
<!-- Node17&#45;&gt;Node18 -->
<g id="edge19_Node000017_Node000018" class="edge">
<title>Node17&#45;&gt;Node18</title>
<g id="a_edge19_Node000017_Node000018"><a xlink:title=" ">
<path fill="none" stroke="#63b8ff" d="M333.73,-54.98C344.73,-47 361.42,-34.88 374.6,-25.31"/>
<polygon fill="#63b8ff" stroke="#63b8ff" points="377.02,-27.88 383.06,-19.17 372.91,-22.21 377.02,-27.88"/>
</a>
</g>
</g>
<!-- Node19 -->
<g id="Node000019" class="node">
<title>Node19</title>
<g id="a_Node000019"><a xlink:title=" ">
<polygon fill="#e0e0e0" stroke="#999999" points="291,-19 235,-19 235,0 291,0 291,-19"/>
<text text-anchor="middle" x="263" y="-7" font-family="Helvetica,sans-Serif" font-size="10.00">optional</text>
</a>
</g>
</g>
<!-- Node17&#45;&gt;Node19 -->
<g id="edge21_Node000017_Node000019" class="edge">
<title>Node17&#45;&gt;Node19</title>
<g id="a_edge21_Node000017_Node000019"><a xlink:title=" ">
<path fill="none" stroke="#63b8ff" d="M312.52,-54.98C303.8,-47.15 290.66,-35.34 280.1,-25.86"/>
<polygon fill="#63b8ff" stroke="#63b8ff" points="282.43,-23.25 272.65,-19.17 277.75,-28.46 282.43,-23.25"/>
</a>
</g>
</g>
<!-- Node20 -->
<g id="Node000020" class="node">
<title>Node20</title>
<g id="a_Node000020"><a xlink:title=" ">
<polygon fill="#e0e0e0" stroke="#999999" points="350.5,-19 309.5,-19 309.5,0 350.5,0 350.5,-19"/>
<text text-anchor="middle" x="330" y="-7" font-family="Helvetica,sans-Serif" font-size="10.00">tuple</text>
</a>
</g>
</g>
<!-- Node17&#45;&gt;Node20 -->
<g id="edge23_Node000017_Node000020" class="edge">
<title>Node17&#45;&gt;Node20</title>
<g id="a_edge23_Node000017_Node000020"><a xlink:title=" ">
<path fill="none" stroke="#63b8ff" d="M323.32,-54.75C324.37,-47.8 325.87,-37.85 327.19,-29.13"/>
<polygon fill="#63b8ff" stroke="#63b8ff" points="330.67,-29.5 328.7,-19.09 323.75,-28.45 330.67,-29.5"/>
</a>
</g>
</g>
</g>
</svg>
