<?xml version="1.0" encoding="UTF-8" standalone="no"?>
<!DOCTYPE svg PUBLIC "-//W3C//DTD SVG 1.1//EN"
 "http://www.w3.org/Graphics/SVG/1.1/DTD/svg11.dtd">
<!-- Generated by graphviz version 2.43.0 (0)
 -->
<!-- Title: src/wmtk/function/Function.hpp Pages: 1 -->
<svg width="1323pt" height="192pt"
 viewBox="0.00 0.00 1323.00 192.00" xmlns="http://www.w3.org/2000/svg" xmlns:xlink="http://www.w3.org/1999/xlink">
<g id="graph0" class="graph" transform="scale(1 1) rotate(0) translate(4 188)">
<title>src/wmtk/function/Function.hpp</title>
<!-- Node1 -->
<g id="Node000001" class="node">
<title>Node1</title>
<g id="a_Node000001"><a xlink:title=" ">
<polygon fill="#999999" stroke="#666666" points="561,-184 391,-184 391,-165 561,-165 561,-184"/>
<text text-anchor="middle" x="476" y="-172" font-family="Helvetica,sans-Serif" font-size="10.00">src/wmtk/function/Function.hpp</text>
</a>
</g>
</g>
<!-- Node2 -->
<g id="Node000002" class="node">
<title>Node2</title>
<g id="a_Node000002"><a xlink:href="_function_8cpp.html" target="_top" xlink:title=" ">
<polygon fill="white" stroke="#666666" points="179.5,-118 10.5,-118 10.5,-99 179.5,-99 179.5,-118"/>
<text text-anchor="middle" x="95" y="-106" font-family="Helvetica,sans-Serif" font-size="10.00">src/wmtk/function/Function.cpp</text>
</a>
</g>
</g>
<!-- Node1&#45;&gt;Node2 -->
<g id="edge1_Node000001_Node000002" class="edge">
<title>Node1&#45;&gt;Node2</title>
<g id="a_edge1_Node000001_Node000002"><a xlink:title=" ">
<path fill="none" stroke="#63b8ff" d="M404.91,-163.5C346.73,-155.07 262.37,-142.29 189,-129 170.8,-125.7 150.71,-121.6 133.79,-118.01"/>
<polygon fill="#63b8ff" stroke="#63b8ff" points="404.71,-167.01 415.1,-164.97 405.71,-160.08 404.71,-167.01"/>
</a>
</g>
</g>
<!-- Node3 -->
<g id="Node000003" class="node">
<title>Node3</title>
<g id="a_Node000003"><a xlink:href="_local_neighbors_sum_function_8hpp.html" target="_top" xlink:title=" ">
<polygon fill="white" stroke="#666666" points="944,-123.5 762,-123.5 762,-93.5 944,-93.5 944,-123.5"/>
<text text-anchor="start" x="770" y="-111.5" font-family="Helvetica,sans-Serif" font-size="10.00">src/wmtk/function/LocalNeighbors</text>
<text text-anchor="middle" x="853" y="-100.5" font-family="Helvetica,sans-Serif" font-size="10.00">SumFunction.hpp</text>
</a>
</g>
</g>
<!-- Node1&#45;&gt;Node3 -->
<g id="edge2_Node000001_Node000003" class="edge">
<title>Node1&#45;&gt;Node3</title>
<g id="a_edge2_Node000001_Node000003"><a xlink:title=" ">
<path fill="none" stroke="#63b8ff" d="M542.77,-163.41C598.94,-154.77 681.33,-141.74 753,-129 762.58,-127.3 772.66,-125.43 782.58,-123.54"/>
<polygon fill="#63b8ff" stroke="#63b8ff" points="541.95,-160 532.59,-164.97 543.01,-166.92 541.95,-160"/>
</a>
</g>
</g>
<!-- Node8 -->
<g id="Node000008" class="node">
<title>Node8</title>
<g id="a_Node000008"><a xlink:href="_a_m_i_p_s_optimization_smoothing_8hpp.html" target="_top" xlink:title=" ">
<polygon fill="white" stroke="#666666" points="569.5,-123.5 382.5,-123.5 382.5,-93.5 569.5,-93.5 569.5,-123.5"/>
<text text-anchor="start" x="390.5" y="-111.5" font-family="Helvetica,sans-Serif" font-size="10.00">src/wmtk/operations</text>
<text text-anchor="middle" x="476" y="-100.5" font-family="Helvetica,sans-Serif" font-size="10.00">/AMIPSOptimizationSmoothing.hpp</text>
</a>
</g>
</g>
<!-- Node1&#45;&gt;Node8 -->
<g id="edge7_Node000001_Node000008" class="edge">
<title>Node1&#45;&gt;Node8</title>
<g id="a_edge7_Node000001_Node000008"><a xlink:title=" ">
<path fill="none" stroke="#63b8ff" d="M476,-154.85C476,-144.97 476,-133.01 476,-123.86"/>
<polygon fill="#63b8ff" stroke="#63b8ff" points="472.5,-154.87 476,-164.87 479.5,-154.87 472.5,-154.87"/>
</a>
</g>
</g>
<!-- Node10 -->
<g id="Node000010" class="node">
<title>Node10</title>
<g id="a_Node000010"><a xlink:href="_a_m_i_p_s_optimization_smoothing_periodic_8hpp.html" target="_top" xlink:title=" ">
<polygon fill="white" stroke="#666666" points="364,-129 198,-129 198,-88 364,-88 364,-129"/>
<text text-anchor="start" x="206" y="-117" font-family="Helvetica,sans-Serif" font-size="10.00">src/wmtk/operations</text>
<text text-anchor="start" x="206" y="-106" font-family="Helvetica,sans-Serif" font-size="10.00">/AMIPSOptimizationSmoothing</text>
<text text-anchor="middle" x="281" y="-95" font-family="Helvetica,sans-Serif" font-size="10.00">Periodic.hpp</text>
</a>
</g>
</g>
<!-- Node1&#45;&gt;Node10 -->
<g id="edge12_Node000001_Node000010" class="edge">
<title>Node1&#45;&gt;Node10</title>
<g id="a_edge12_Node000001_Node000010"><a xlink:title=" ">
<path fill="none" stroke="#63b8ff" d="M439.98,-161.68C412.12,-152.53 372.93,-139.67 340.44,-129.01"/>
<polygon fill="#63b8ff" stroke="#63b8ff" points="439.11,-165.08 449.7,-164.87 441.29,-158.42 439.11,-165.08"/>
</a>
</g>
</g>
<!-- Node12 -->
<g id="Node000012" class="node">
<title>Node12</title>
<g id="a_Node000012"><a xlink:href="_optimization_smoothing_8hpp.html" target="_top" xlink:title=" ">
<polygon fill="white" stroke="#666666" points="744,-123.5 588,-123.5 588,-93.5 744,-93.5 744,-123.5"/>
<text text-anchor="start" x="596" y="-111.5" font-family="Helvetica,sans-Serif" font-size="10.00">src/wmtk/operations</text>
<text text-anchor="middle" x="666" y="-100.5" font-family="Helvetica,sans-Serif" font-size="10.00">/OptimizationSmoothing.hpp</text>
</a>
</g>
</g>
<!-- Node1&#45;&gt;Node12 -->
<g id="edge15_Node000001_Node000012" class="edge">
<title>Node1&#45;&gt;Node12</title>
<g id="a_edge15_Node000001_Node000012"><a xlink:title=" ">
<path fill="none" stroke="#63b8ff" d="M511.42,-161.57C543.35,-150.81 590.32,-134.99 624.09,-123.62"/>
<polygon fill="#63b8ff" stroke="#63b8ff" points="509.98,-158.36 501.62,-164.87 512.22,-164.99 509.98,-158.36"/>
</a>
</g>
</g>
<!-- Node4 -->
<g id="Node000004" class="node">
<title>Node4</title>
<g id="a_Node000004"><a xlink:href="internal_2periodic__optimization_8cpp.html" target="_top" xlink:title=" ">
<polygon fill="white" stroke="#666666" points="564.5,-52 387.5,-52 387.5,0 564.5,0 564.5,-52"/>
<text text-anchor="start" x="395.5" y="-40" font-family="Helvetica,sans-Serif" font-size="10.00">components/periodic</text>
<text text-anchor="start" x="395.5" y="-29" font-family="Helvetica,sans-Serif" font-size="10.00">_optimization/wmtk/components</text>
<text text-anchor="start" x="395.5" y="-18" font-family="Helvetica,sans-Serif" font-size="10.00">/periodic_optimization/internal</text>
<text text-anchor="middle" x="476" y="-7" font-family="Helvetica,sans-Serif" font-size="10.00">/periodic_optimization.cpp</text>
</a>
</g>
</g>
<!-- Node3&#45;&gt;Node4 -->
<g id="edge3_Node000003_Node000004" class="edge">
<title>Node3&#45;&gt;Node4</title>
<g id="a_edge3_Node000003_Node000004"><a xlink:title=" ">
<path fill="none" stroke="#63b8ff" d="M771.58,-91.53C696.27,-76.73 593.16,-56.35 574,-52 570.92,-51.3 567.78,-50.58 564.62,-49.83"/>
<polygon fill="#63b8ff" stroke="#63b8ff" points="771.06,-95 781.55,-93.49 772.41,-88.13 771.06,-95"/>
</a>
</g>
</g>
<!-- Node5 -->
<g id="Node000005" class="node">
<title>Node5</title>
<g id="a_Node000005"><a xlink:href="test__component__wildmeshing_8cpp.html" target="_top" xlink:title=" ">
<polygon fill="white" stroke="#666666" points="747,-41 583,-41 583,-11 747,-11 747,-41"/>
<text text-anchor="start" x="591" y="-29" font-family="Helvetica,sans-Serif" font-size="10.00">components/tests/test</text>
<text text-anchor="middle" x="665" y="-18" font-family="Helvetica,sans-Serif" font-size="10.00">_component_wildmeshing.cpp</text>
</a>
</g>
</g>
<!-- Node3&#45;&gt;Node5 -->
<g id="edge4_Node000003_Node000005" class="edge">
<title>Node3&#45;&gt;Node5</title>
<g id="a_edge4_Node000003_Node000005"><a xlink:title=" ">
<path fill="none" stroke="#63b8ff" d="M811.01,-89.52C776.89,-74.91 729.44,-54.59 698,-41.13"/>
<polygon fill="#63b8ff" stroke="#63b8ff" points="809.68,-92.76 820.25,-93.48 812.44,-86.32 809.68,-92.76"/>
</a>
</g>
</g>
<!-- Node6 -->
<g id="Node000006" class="node">
<title>Node6</title>
<g id="a_Node000006"><a xlink:href="wildmeshing_8cpp.html" target="_top" xlink:title=" ">
<polygon fill="white" stroke="#666666" points="941,-46.5 765,-46.5 765,-5.5 941,-5.5 941,-46.5"/>
<text text-anchor="start" x="773" y="-34.5" font-family="Helvetica,sans-Serif" font-size="10.00">components/wildmeshing</text>
<text text-anchor="start" x="773" y="-23.5" font-family="Helvetica,sans-Serif" font-size="10.00">/wmtk/components/wildmeshing</text>
<text text-anchor="middle" x="853" y="-12.5" font-family="Helvetica,sans-Serif" font-size="10.00">/wildmeshing.cpp</text>
</a>
</g>
</g>
<!-- Node3&#45;&gt;Node6 -->
<g id="edge5_Node000003_Node000006" class="edge">
<title>Node3&#45;&gt;Node6</title>
<g id="a_edge5_Node000003_Node000006"><a xlink:title=" ">
<path fill="none" stroke="#63b8ff" d="M853,-83.44C853,-71.67 853,-57.69 853,-46.59"/>
<polygon fill="#63b8ff" stroke="#63b8ff" points="849.5,-83.48 853,-93.48 856.5,-83.48 849.5,-83.48"/>
</a>
</g>
</g>
<!-- Node7 -->
<g id="Node000007" class="node">
<title>Node7</title>
<g id="a_Node000007"><a xlink:href="_local_neighbors_sum_function_8cpp.html" target="_top" xlink:title=" ">
<polygon fill="white" stroke="#666666" points="1315,-41 1133,-41 1133,-11 1315,-11 1315,-41"/>
<text text-anchor="start" x="1141" y="-29" font-family="Helvetica,sans-Serif" font-size="10.00">src/wmtk/function/LocalNeighbors</text>
<text text-anchor="middle" x="1224" y="-18" font-family="Helvetica,sans-Serif" font-size="10.00">SumFunction.cpp</text>
</a>
</g>
</g>
<!-- Node3&#45;&gt;Node7 -->
<g id="edge6_Node000003_Node000007" class="edge">
<title>Node3&#45;&gt;Node7</title>
<g id="a_edge6_Node000003_Node000007"><a xlink:title=" ">
<path fill="none" stroke="#63b8ff" d="M935.76,-91.51C989.53,-80.88 1061.07,-66.3 1124,-52 1138.83,-48.63 1154.84,-44.74 1169.61,-41.05"/>
<polygon fill="#63b8ff" stroke="#63b8ff" points="935.07,-88.08 925.93,-93.45 936.42,-94.95 935.07,-88.08"/>
</a>
</g>
</g>
<!-- Node8&#45;&gt;Node4 -->
<g id="edge8_Node000008_Node000004" class="edge">
<title>Node8&#45;&gt;Node4</title>
<g id="a_edge8_Node000008_Node000004"><a xlink:title=" ">
<path fill="none" stroke="#63b8ff" d="M476,-83.22C476,-73.42 476,-62.12 476,-52.24"/>
<polygon fill="#63b8ff" stroke="#63b8ff" points="472.5,-83.48 476,-93.48 479.5,-83.48 472.5,-83.48"/>
</a>
</g>
</g>
<!-- Node8&#45;&gt;Node5 -->
<g id="edge9_Node000008_Node000005" class="edge">
<title>Node8&#45;&gt;Node5</title>
<g id="a_edge9_Node000008_Node000005"><a xlink:title=" ">
<path fill="none" stroke="#63b8ff" d="M518.21,-89.52C552.51,-74.91 600.22,-54.59 631.82,-41.13"/>
<polygon fill="#63b8ff" stroke="#63b8ff" points="516.75,-86.34 508.92,-93.48 519.49,-92.78 516.75,-86.34"/>
</a>
</g>
</g>
<!-- Node8&#45;&gt;Node6 -->
<g id="edge10_Node000008_Node000006" class="edge">
<title>Node8&#45;&gt;Node6</title>
<g id="a_edge10_Node000008_Node000006"><a xlink:title=" ">
<path fill="none" stroke="#63b8ff" d="M559.2,-91.55C627.71,-78.31 719.33,-60.35 756,-52 763.46,-50.3 771.22,-48.45 778.96,-46.54"/>
<polygon fill="#63b8ff" stroke="#63b8ff" points="558.42,-88.13 549.26,-93.47 559.75,-95.01 558.42,-88.13"/>
</a>
</g>
</g>
<!-- Node9 -->
<g id="Node000009" class="node">
<title>Node9</title>
<g id="a_Node000009"><a xlink:href="_a_m_i_p_s_optimization_smoothing_8cpp.html" target="_top" xlink:title=" ">
<polygon fill="white" stroke="#666666" points="370,-41 184,-41 184,-11 370,-11 370,-41"/>
<text text-anchor="start" x="192" y="-29" font-family="Helvetica,sans-Serif" font-size="10.00">src/wmtk/operations</text>
<text text-anchor="middle" x="277" y="-18" font-family="Helvetica,sans-Serif" font-size="10.00">/AMIPSOptimizationSmoothing.cpp</text>
</a>
</g>
</g>
<!-- Node8&#45;&gt;Node9 -->
<g id="edge11_Node000008_Node000009" class="edge">
<title>Node8&#45;&gt;Node9</title>
<g id="a_edge11_Node000008_Node000009"><a xlink:title=" ">
<path fill="none" stroke="#63b8ff" d="M432.01,-89.71C395.87,-75.09 345.35,-54.65 311.93,-41.13"/>
<polygon fill="#63b8ff" stroke="#63b8ff" points="430.75,-92.97 441.34,-93.48 433.38,-86.48 430.75,-92.97"/>
</a>
</g>
</g>
<!-- Node10&#45;&gt;Node4 -->
<g id="edge13_Node000010_Node000004" class="edge">
<title>Node10&#45;&gt;Node4</title>
<g id="a_edge13_Node000010_Node000004"><a xlink:title=" ">
<path fill="none" stroke="#63b8ff" d="M338.11,-83.92C362.31,-73.93 390.54,-62.28 415.13,-52.13"/>
<polygon fill="#63b8ff" stroke="#63b8ff" points="336.61,-80.76 328.7,-87.81 339.28,-87.23 336.61,-80.76"/>
</a>
</g>
</g>
<!-- Node11 -->
<g id="Node000011" class="node">
<title>Node11</title>
<g id="a_Node000011"><a xlink:href="_a_m_i_p_s_optimization_smoothing_periodic_8cpp.html" target="_top" xlink:title=" ">
<polygon fill="white" stroke="#666666" points="166,-46.5 0,-46.5 0,-5.5 166,-5.5 166,-46.5"/>
<text text-anchor="start" x="8" y="-34.5" font-family="Helvetica,sans-Serif" font-size="10.00">src/wmtk/operations</text>
<text text-anchor="start" x="8" y="-23.5" font-family="Helvetica,sans-Serif" font-size="10.00">/AMIPSOptimizationSmoothing</text>
<text text-anchor="middle" x="83" y="-12.5" font-family="Helvetica,sans-Serif" font-size="10.00">Periodic.cpp</text>
</a>
</g>
</g>
<!-- Node10&#45;&gt;Node11 -->
<g id="edge14_Node000010_Node000011" class="edge">
<title>Node10&#45;&gt;Node11</title>
<g id="a_edge14_Node000010_Node000011"><a xlink:title=" ">
<path fill="none" stroke="#63b8ff" d="M223.52,-84.13C194.19,-72.21 158.92,-57.87 131.06,-46.54"/>
<polygon fill="#63b8ff" stroke="#63b8ff" points="222.24,-87.39 232.82,-87.91 224.87,-80.9 222.24,-87.39"/>
</a>
</g>
</g>
<!-- Node12&#45;&gt;Node4 -->
<g id="edge16_Node000012_Node000004" class="edge">
<title>Node12&#45;&gt;Node4</title>
<g id="a_edge16_Node000012_Node000004"><a xlink:title=" ">
<path fill="none" stroke="#63b8ff" d="M623.68,-89.57C597.63,-78.53 563.86,-64.22 535.18,-52.07"/>
<polygon fill="#63b8ff" stroke="#63b8ff" points="622.33,-92.8 632.9,-93.48 625.06,-86.35 622.33,-92.8"/>
</a>
</g>
</g>
<!-- Node12&#45;&gt;Node5 -->
<g id="edge17_Node000012_Node000005" class="edge">
<title>Node12&#45;&gt;Node5</title>
<g id="a_edge17_Node000012_Node000005"><a xlink:title=" ">
<path fill="none" stroke="#63b8ff" d="M665.7,-83.24C665.53,-69.48 665.32,-52.75 665.18,-41.13"/>
<polygon fill="#63b8ff" stroke="#63b8ff" points="662.2,-83.52 665.83,-93.48 669.2,-83.44 662.2,-83.52"/>
</a>
</g>
</g>
<!-- Node12&#45;&gt;Node6 -->
<g id="edge18_Node000012_Node000006" class="edge">
<title>Node12&#45;&gt;Node6</title>
<g id="a_edge18_Node000012_Node000006"><a xlink:title=" ">
<path fill="none" stroke="#63b8ff" d="M707.81,-89.5C737.41,-76.76 777.09,-59.68 807.49,-46.59"/>
<polygon fill="#63b8ff" stroke="#63b8ff" points="706.37,-86.31 698.57,-93.48 709.14,-92.74 706.37,-86.31"/>
</a>
</g>
</g>
<!-- Node13 -->
<g id="Node000013" class="node">
<title>Node13</title>
<g id="a_Node000013"><a xlink:href="_optimization_smoothing_8cpp.html" target="_top" xlink:title=" ">
<polygon fill="white" stroke="#666666" points="1114.5,-41 959.5,-41 959.5,-11 1114.5,-11 1114.5,-41"/>
<text text-anchor="start" x="967.5" y="-29" font-family="Helvetica,sans-Serif" font-size="10.00">src/wmtk/operations</text>
<text text-anchor="middle" x="1037" y="-18" font-family="Helvetica,sans-Serif" font-size="10.00">/OptimizationSmoothing.cpp</text>
</a>
</g>
</g>
<!-- Node12&#45;&gt;Node13 -->
<g id="edge19_Node000012_Node000013" class="edge">
<title>Node12&#45;&gt;Node13</title>
<g id="a_edge19_Node000012_Node000013"><a xlink:title=" ">
<path fill="none" stroke="#63b8ff" d="M737.4,-91.26C742.67,-90.13 747.92,-89.03 753,-88 840.22,-70.26 863.34,-72.32 950,-52 963.46,-48.84 977.95,-44.9 991.17,-41.09"/>
<polygon fill="#63b8ff" stroke="#63b8ff" points="736.28,-87.92 727.25,-93.45 737.76,-94.76 736.28,-87.92"/>
</a>
</g>
</g>
</g>
</svg>
