<?xml version="1.0" encoding="UTF-8" standalone="no"?>
<!DOCTYPE svg PUBLIC "-//W3C//DTD SVG 1.1//EN"
 "http://www.w3.org/Graphics/SVG/1.1/DTD/svg11.dtd">
<!-- Generated by graphviz version 2.43.0 (0)
 -->
<!-- Title: src/wmtk/function/LocalNeighborsSumFunction.hpp Pages: 1 -->
<!--zoomable 434 -->

<svg id="main" version="1.1" xmlns="http://www.w3.org/2000/svg" xmlns:xlink="http://www.w3.org/1999/xlink" xml:space="preserve" onload="init(evt)">
<style type="text/css"><![CDATA[
.node, .edge {opacity: 0.7;}
.node.selected, .edge.selected {opacity: 1;}
.edge:hover path { stroke: red; }
.edge:hover polygon { stroke: red; fill: red; }
]]></style>

<defs>
  <circle id="rim" cx="0" cy="0" r="7"/>
  <circle id="rim2" cx="0" cy="0" r="3.5"/>
  <g id="zoomPlus">
    <use xlink:href="#rim" fill="#404040"><set attributeName="fill" to="#808080" begin="zoomplus.mouseover" end="zoomplus.mouseout"/></use>
    <path d="M-4,0h8M0,-4v8" fill="none" stroke="white" stroke-width="1.5" pointer-events="none"/>
  </g>
  <g id="zoomMin">
    <use xlink:href="#rim" fill="#404040"><set attributeName="fill" to="#808080" begin="zoomminus.mouseover" end="zoomminus.mouseout"/></use>
    <path d="M-4,0h8" fill="none" stroke="white" stroke-width="1.5" pointer-events="none"/>
  </g>
  <g id="arrowUp" transform="translate(30 24)">
    <use xlink:href="#rim"/>
    <path pointer-events="none" fill="none" stroke="white" stroke-width="1.5" d="M0,-3.0v7 M-2.5,-0.5L0,-3.0L2.5,-0.5"/>
  </g>
  <g id="arrowRight" transform="rotate(90) translate(36 -43)">
    <use xlink:href="#rim"/>
    <path pointer-events="none" fill="none" stroke="white" stroke-width="1.5" d="M0,-3.0v7 M-2.5,-0.5L0,-3.0L2.5,-0.5"/>
  </g>
  <g id="arrowDown" transform="rotate(180) translate(-30 -48)">
    <use xlink:href="#rim"/>
    <path pointer-events="none" fill="none" stroke="white" stroke-width="1.5" d="M0,-3.0v7 M-2.5,-0.5L0,-3.0L2.5,-0.5"/>
  </g>
  <g id="arrowLeft" transform="rotate(270) translate(-36 17)">
    <use xlink:href="#rim"/>
    <path pointer-events="none" fill="none" stroke="white" stroke-width="1.5" d="M0,-3.0v7 M-2.5,-0.5L0,-3.0L2.5,-0.5"/>
  </g>
  <g id="resetDef">
    <use xlink:href="#rim2" fill="#404040"><set attributeName="fill" to="#808080" begin="reset.mouseover" end="reset.mouseout"/></use>
  </g>
</defs>
<script type="application/ecmascript">
var viewWidth = 780;
var viewHeight = 434;
var sectionId = 'dynsection-0';
</script>
<script type="application/ecmascript" xlink:href="svg.min.js"/>
<svg id="graph" class="graph">
<g id="viewport">
<title>src/wmtk/function/LocalNeighborsSumFunction.hpp</title>
<!-- Node1 -->
<g id="Node000001" class="node">
<title>Node1</title>
<g id="a_Node000001"><a xlink:title=" ">
<polygon fill="#999999" stroke="#666666" points="652.5,-426 470.5,-426 470.5,-396 652.5,-396 652.5,-426"/>
<text text-anchor="start" x="478.5" y="-414" font-family="Helvetica,sans-Serif" font-size="10.00">src/wmtk/function/LocalNeighbors</text>
<text text-anchor="middle" x="561.5" y="-403" font-family="Helvetica,sans-Serif" font-size="10.00">SumFunction.hpp</text>
</a>
</g>
</g>
<!-- Node2 -->
<g id="Node000002" class="node">
<title>Node2</title>
<g id="a_Node000002"><a xlink:href="_function_8hpp.html" target="_top" xlink:title=" ">
<polygon fill="white" stroke="#666666" points="601,-360 522,-360 522,-341 601,-341 601,-360"/>
<text text-anchor="middle" x="561.5" y="-348" font-family="Helvetica,sans-Serif" font-size="10.00">Function.hpp</text>
</a>
</g>
</g>
<!-- Node1&#45;&gt;Node2 -->
<g id="edge1_Node000001_Node000002" class="edge">
<title>Node1&#45;&gt;Node2</title>
<g id="a_edge1_Node000001_Node000002"><a xlink:title=" ">
<path fill="none" stroke="#63b8ff" d="M561.5,-395.84C561.5,-388.21 561.5,-378.7 561.5,-370.45"/>
<polygon fill="#63b8ff" stroke="#63b8ff" points="565,-370.27 561.5,-360.27 558,-370.27 565,-370.27"/>
</a>
</g>
</g>
<!-- Node3 -->
<g id="Node000003" class="node">
<title>Node3</title>
<g id="a_Node000003"><a xlink:href="_mesh_attribute_handle_8hpp.html" target="_top" xlink:title=" ">
<polygon fill="white" stroke="#666666" points="643.5,-305 479.5,-305 479.5,-275 643.5,-275 643.5,-305"/>
<text text-anchor="start" x="487.5" y="-293" font-family="Helvetica,sans-Serif" font-size="10.00">wmtk/attribute//MeshAttribute</text>
<text text-anchor="middle" x="561.5" y="-282" font-family="Helvetica,sans-Serif" font-size="10.00">Handle.hpp</text>
</a>
</g>
</g>
<!-- Node2&#45;&gt;Node3 -->
<g id="edge2_Node000002_Node000003" class="edge">
<title>Node2&#45;&gt;Node3</title>
<g id="a_edge2_Node000002_Node000003"><a xlink:title=" ">
<path fill="none" stroke="#63b8ff" d="M561.5,-340.87C561.5,-334.11 561.5,-324.35 561.5,-315.26"/>
<polygon fill="#63b8ff" stroke="#63b8ff" points="565,-315.11 561.5,-305.11 558,-315.11 565,-315.11"/>
</a>
</g>
</g>
<!-- Node5 -->
<g id="Node000005" class="node">
<title>Node5</title>
<g id="a_Node000005"><a xlink:title=" ">
<polygon fill="#e0e0e0" stroke="#999999" points="772,-74 703,-74 703,-55 772,-55 772,-74"/>
<text text-anchor="middle" x="737.5" y="-62" font-family="Helvetica,sans-Serif" font-size="10.00">Eigen/Core</text>
</a>
</g>
</g>
<!-- Node2&#45;&gt;Node5 -->
<g id="edge36_Node000002_Node000005" class="edge">
<title>Node2&#45;&gt;Node5</title>
<g id="a_edge36_Node000002_Node000005"><a xlink:title=" ">
<path fill="none" stroke="#63b8ff" d="M601.44,-341.15C653.36,-327.68 737.5,-295.79 737.5,-230.5 737.5,-230.5 737.5,-230.5 737.5,-173.5 737.5,-142.19 737.5,-105.77 737.5,-84.23"/>
<polygon fill="#63b8ff" stroke="#63b8ff" points="741,-84.18 737.5,-74.18 734,-84.18 741,-84.18"/>
</a>
</g>
</g>
<!-- Node24 -->
<g id="Node000024" class="node">
<title>Node24</title>
<g id="a_Node000024"><a xlink:href="_simplex_8hpp.html" target="_top" xlink:title=" ">
<polygon fill="white" stroke="#666666" points="307.5,-239 157.5,-239 157.5,-220 307.5,-220 307.5,-239"/>
<text text-anchor="middle" x="232.5" y="-227" font-family="Helvetica,sans-Serif" font-size="10.00">wmtk/simplex/Simplex.hpp</text>
</a>
</g>
</g>
<!-- Node2&#45;&gt;Node24 -->
<g id="edge33_Node000002_Node000024" class="edge">
<title>Node2&#45;&gt;Node24</title>
<g id="a_edge33_Node000002_Node000024"><a xlink:title=" ">
<path fill="none" stroke="#63b8ff" d="M537.84,-340.94C480.24,-320.11 332.59,-266.7 265.98,-242.61"/>
<polygon fill="#63b8ff" stroke="#63b8ff" points="266.98,-239.25 256.39,-239.14 264.6,-245.83 266.98,-239.25"/>
</a>
</g>
</g>
<!-- Node4 -->
<g id="Node000004" class="node">
<title>Node4</title>
<g id="a_Node000004"><a xlink:href="_rational_8hpp.html" target="_top" xlink:title=" ">
<polygon fill="white" stroke="#666666" points="633,-129 500,-129 500,-110 633,-110 633,-129"/>
<text text-anchor="middle" x="566.5" y="-117" font-family="Helvetica,sans-Serif" font-size="10.00">wmtk/utils/Rational.hpp</text>
</a>
</g>
</g>
<!-- Node3&#45;&gt;Node4 -->
<g id="edge3_Node000003_Node000004" class="edge">
<title>Node3&#45;&gt;Node4</title>
<g id="a_edge3_Node000003_Node000004"><a xlink:title=" ">
<path fill="none" stroke="#63b8ff" d="M616.54,-274.91C634.68,-267.36 652.91,-255.99 663.5,-239 676.83,-217.63 652.78,-177.13 642.5,-165 630.91,-151.32 613.98,-140.83 599.04,-133.48"/>
<polygon fill="#63b8ff" stroke="#63b8ff" points="600.13,-130.13 589.59,-129.11 597.19,-136.48 600.13,-130.13"/>
</a>
</g>
</g>
<!-- Node9 -->
<g id="Node000009" class="node">
<title>Node9</title>
<g id="a_Node000009"><a xlink:href="_typed_attribute_handle_8hpp.html" target="_top" xlink:title=" ">
<polygon fill="white" stroke="#666666" points="441,-184 298,-184 298,-165 441,-165 441,-184"/>
<text text-anchor="middle" x="369.5" y="-172" font-family="Helvetica,sans-Serif" font-size="10.00">TypedAttributeHandle.hpp</text>
</a>
</g>
</g>
<!-- Node3&#45;&gt;Node9 -->
<g id="edge8_Node000003_Node000009" class="edge">
<title>Node3&#45;&gt;Node9</title>
<g id="a_edge8_Node000003_Node000009"><a xlink:title=" ">
<path fill="none" stroke="#63b8ff" d="M479.12,-277.41C451.32,-270.13 421.74,-258.28 399.5,-239 385.99,-227.29 378.12,-208.16 373.85,-193.95"/>
<polygon fill="#63b8ff" stroke="#63b8ff" points="377.22,-193.01 371.26,-184.26 370.46,-194.82 377.22,-193.01"/>
</a>
</g>
</g>
<!-- Node16 -->
<g id="Node000016" class="node">
<title>Node16</title>
<g id="a_Node000016"><a xlink:href="_hybrid_rational_attribute_8hpp.html" target="_top" xlink:title=" ">
<polygon fill="white" stroke="#666666" points="585,-239 408,-239 408,-220 585,-220 585,-239"/>
<text text-anchor="middle" x="496.5" y="-227" font-family="Helvetica,sans-Serif" font-size="10.00">utils/HybridRationalAttribute.hpp</text>
</a>
</g>
</g>
<!-- Node3&#45;&gt;Node16 -->
<g id="edge17_Node000003_Node000016" class="edge">
<title>Node3&#45;&gt;Node16</title>
<g id="a_edge17_Node000003_Node000016"><a xlink:title=" ">
<path fill="none" stroke="#63b8ff" d="M545.77,-274.84C536.14,-266.17 523.81,-255.08 513.89,-246.15"/>
<polygon fill="#63b8ff" stroke="#63b8ff" points="516.01,-243.35 506.24,-239.27 511.33,-248.56 516.01,-243.35"/>
</a>
</g>
</g>
<!-- Node23 -->
<g id="Node000023" class="node">
<title>Node23</title>
<g id="a_Node000023"><a xlink:title=" ">
<polygon fill="#e0e0e0" stroke="#999999" points="654,-239 603,-239 603,-220 654,-220 654,-239"/>
<text text-anchor="middle" x="628.5" y="-227" font-family="Helvetica,sans-Serif" font-size="10.00">variant</text>
</a>
</g>
</g>
<!-- Node3&#45;&gt;Node23 -->
<g id="edge32_Node000003_Node000023" class="edge">
<title>Node3&#45;&gt;Node23</title>
<g id="a_edge32_Node000003_Node000023"><a xlink:title=" ">
<path fill="none" stroke="#63b8ff" d="M577.72,-274.84C587.74,-266.09 600.61,-254.85 610.88,-245.88"/>
<polygon fill="#63b8ff" stroke="#63b8ff" points="613.23,-248.48 618.46,-239.27 608.63,-243.21 613.23,-248.48"/>
</a>
</g>
</g>
<!-- Node4&#45;&gt;Node5 -->
<g id="edge4_Node000004_Node000005" class="edge">
<title>Node4&#45;&gt;Node5</title>
<g id="a_edge4_Node000004_Node000005"><a xlink:title=" ">
<path fill="none" stroke="#63b8ff" d="M593.97,-109.98C622.68,-101.09 667.92,-87.07 699.92,-77.15"/>
<polygon fill="#63b8ff" stroke="#63b8ff" points="701.3,-80.39 709.81,-74.08 699.22,-73.7 701.3,-80.39"/>
</a>
</g>
</g>
<!-- Node6 -->
<g id="Node000006" class="node">
<title>Node6</title>
<g id="a_Node000006"><a xlink:title=" ">
<polygon fill="#e0e0e0" stroke="#999999" points="685,-74 638,-74 638,-55 685,-55 685,-74"/>
<text text-anchor="middle" x="661.5" y="-62" font-family="Helvetica,sans-Serif" font-size="10.00">gmp.h</text>
</a>
</g>
</g>
<!-- Node4&#45;&gt;Node6 -->
<g id="edge5_Node000004_Node000006" class="edge">
<title>Node4&#45;&gt;Node6</title>
<g id="a_edge5_Node000004_Node000006"><a xlink:title=" ">
<path fill="none" stroke="#63b8ff" d="M581.76,-109.98C596.63,-101.69 619.48,-88.94 636.92,-79.22"/>
<polygon fill="#63b8ff" stroke="#63b8ff" points="638.93,-82.1 645.96,-74.17 635.52,-75.99 638.93,-82.1"/>
</a>
</g>
</g>
<!-- Node7 -->
<g id="Node000007" class="node">
<title>Node7</title>
<g id="a_Node000007"><a xlink:title=" ">
<polygon fill="#e0e0e0" stroke="#999999" points="557.5,-74 497.5,-74 497.5,-55 557.5,-55 557.5,-74"/>
<text text-anchor="middle" x="527.5" y="-62" font-family="Helvetica,sans-Serif" font-size="10.00">iostream</text>
</a>
</g>
</g>
<!-- Node4&#45;&gt;Node7 -->
<g id="edge6_Node000004_Node000007" class="edge">
<title>Node4&#45;&gt;Node7</title>
<g id="a_edge6_Node000004_Node000007"><a xlink:title=" ">
<path fill="none" stroke="#63b8ff" d="M560.06,-109.75C554.61,-102.34 546.64,-91.5 539.94,-82.41"/>
<polygon fill="#63b8ff" stroke="#63b8ff" points="542.57,-80.07 533.82,-74.09 536.93,-84.22 542.57,-80.07"/>
</a>
</g>
</g>
<!-- Node8 -->
<g id="Node000008" class="node">
<title>Node8</title>
<g id="a_Node000008"><a xlink:title=" ">
<polygon fill="#e0e0e0" stroke="#999999" points="619.5,-74 575.5,-74 575.5,-55 619.5,-55 619.5,-74"/>
<text text-anchor="middle" x="597.5" y="-62" font-family="Helvetica,sans-Serif" font-size="10.00">string</text>
</a>
</g>
</g>
<!-- Node4&#45;&gt;Node8 -->
<g id="edge7_Node000004_Node000008" class="edge">
<title>Node4&#45;&gt;Node8</title>
<g id="a_edge7_Node000004_Node000008"><a xlink:title=" ">
<path fill="none" stroke="#63b8ff" d="M571.62,-109.75C575.86,-102.49 582.03,-91.95 587.28,-82.98"/>
<polygon fill="#63b8ff" stroke="#63b8ff" points="590.45,-84.49 592.48,-74.09 584.41,-80.95 590.45,-84.49"/>
</a>
</g>
</g>
<!-- Node9&#45;&gt;Node4 -->
<g id="edge13_Node000009_Node000004" class="edge">
<title>Node9&#45;&gt;Node4</title>
<g id="a_edge13_Node000009_Node000004"><a xlink:title=" ">
<path fill="none" stroke="#63b8ff" d="M401.15,-164.98C434.66,-155.97 487.7,-141.7 524.64,-131.76"/>
<polygon fill="#63b8ff" stroke="#63b8ff" points="525.85,-135.06 534.6,-129.08 524.03,-128.3 525.85,-135.06"/>
</a>
</g>
</g>
<!-- Node10 -->
<g id="Node000010" class="node">
<title>Node10</title>
<g id="a_Node000010"><a xlink:href="_primitive_type_8hpp.html" target="_top" xlink:title=" ">
<polygon fill="white" stroke="#666666" points="187,-74 52,-74 52,-55 187,-55 187,-74"/>
<text text-anchor="middle" x="119.5" y="-62" font-family="Helvetica,sans-Serif" font-size="10.00">wmtk/PrimitiveType.hpp</text>
</a>
</g>
</g>
<!-- Node9&#45;&gt;Node10 -->
<g id="edge9_Node000009_Node000010" class="edge">
<title>Node9&#45;&gt;Node10</title>
<g id="a_edge9_Node000009_Node000010"><a xlink:title=" ">
<path fill="none" stroke="#63b8ff" d="M327.42,-164.98C295.75,-157.71 251.75,-145.75 215.5,-129 200.14,-121.9 163.09,-96.4 139.77,-79.96"/>
<polygon fill="#63b8ff" stroke="#63b8ff" points="141.76,-77.08 131.57,-74.15 137.71,-82.79 141.76,-77.08"/>
</a>
</g>
</g>
<!-- Node14 -->
<g id="Node000014" class="node">
<title>Node14</title>
<g id="a_Node000014"><a xlink:href="_attribute_handle_8hpp.html" target="_top" xlink:title=" ">
<polygon fill="white" stroke="#666666" points="339,-129 224,-129 224,-110 339,-110 339,-129"/>
<text text-anchor="middle" x="281.5" y="-117" font-family="Helvetica,sans-Serif" font-size="10.00">AttributeHandle.hpp</text>
</a>
</g>
</g>
<!-- Node9&#45;&gt;Node14 -->
<g id="edge14_Node000009_Node000014" class="edge">
<title>Node9&#45;&gt;Node14</title>
<g id="a_edge14_Node000009_Node000014"><a xlink:title=" ">
<path fill="none" stroke="#63b8ff" d="M355.36,-164.98C341.71,-156.77 320.81,-144.18 304.72,-134.49"/>
<polygon fill="#63b8ff" stroke="#63b8ff" points="306.27,-131.33 295.9,-129.17 302.66,-137.33 306.27,-131.33"/>
</a>
</g>
</g>
<!-- Node11 -->
<g id="Node000011" class="node">
<title>Node11</title>
<g id="a_Node000011"><a xlink:title=" ">
<polygon fill="#e0e0e0" stroke="#999999" points="65,-19 0,-19 0,0 65,0 65,-19"/>
<text text-anchor="middle" x="32.5" y="-7" font-family="Helvetica,sans-Serif" font-size="10.00">stdexcept</text>
</a>
</g>
</g>
<!-- Node10&#45;&gt;Node11 -->
<g id="edge10_Node000010_Node000011" class="edge">
<title>Node10&#45;&gt;Node11</title>
<g id="a_edge10_Node000010_Node000011"><a xlink:title=" ">
<path fill="none" stroke="#63b8ff" d="M105.52,-54.98C92.03,-46.77 71.37,-34.18 55.46,-24.49"/>
<polygon fill="#63b8ff" stroke="#63b8ff" points="57.09,-21.38 46.73,-19.17 53.45,-27.36 57.09,-21.38"/>
</a>
</g>
</g>
<!-- Node12 -->
<g id="Node000012" class="node">
<title>Node12</title>
<g id="a_Node000012"><a xlink:title=" ">
<polygon fill="#e0e0e0" stroke="#999999" points="156,-19 83,-19 83,0 156,0 156,-19"/>
<text text-anchor="middle" x="119.5" y="-7" font-family="Helvetica,sans-Serif" font-size="10.00">string_view</text>
</a>
</g>
</g>
<!-- Node10&#45;&gt;Node12 -->
<g id="edge11_Node000010_Node000012" class="edge">
<title>Node10&#45;&gt;Node12</title>
<g id="a_edge11_Node000010_Node000012"><a xlink:title=" ">
<path fill="none" stroke="#63b8ff" d="M119.5,-54.75C119.5,-47.8 119.5,-37.85 119.5,-29.13"/>
<polygon fill="#63b8ff" stroke="#63b8ff" points="123,-29.09 119.5,-19.09 116,-29.09 123,-29.09"/>
</a>
</g>
</g>
<!-- Node13 -->
<g id="Node000013" class="node">
<title>Node13</title>
<g id="a_Node000013"><a xlink:title=" ">
<polygon fill="#e0e0e0" stroke="#999999" points="221,-19 174,-19 174,0 221,0 221,-19"/>
<text text-anchor="middle" x="197.5" y="-7" font-family="Helvetica,sans-Serif" font-size="10.00">vector</text>
</a>
</g>
</g>
<!-- Node10&#45;&gt;Node13 -->
<g id="edge12_Node000010_Node000013" class="edge">
<title>Node10&#45;&gt;Node13</title>
<g id="a_edge12_Node000010_Node000013"><a xlink:title=" ">
<path fill="none" stroke="#63b8ff" d="M132.03,-54.98C143.9,-46.92 161.96,-34.65 176.11,-25.03"/>
<polygon fill="#63b8ff" stroke="#63b8ff" points="178.44,-27.69 184.74,-19.17 174.5,-21.9 178.44,-27.69"/>
</a>
</g>
</g>
<!-- Node14&#45;&gt;Node10 -->
<g id="edge16_Node000014_Node000010" class="edge">
<title>Node14&#45;&gt;Node10</title>
<g id="a_edge16_Node000014_Node000010"><a xlink:title=" ">
<path fill="none" stroke="#63b8ff" d="M255.47,-109.98C228.39,-101.13 185.79,-87.19 155.49,-77.28"/>
<polygon fill="#63b8ff" stroke="#63b8ff" points="156.32,-73.87 145.73,-74.08 154.15,-80.52 156.32,-73.87"/>
</a>
</g>
</g>
<!-- Node15 -->
<g id="Node000015" class="node">
<title>Node15</title>
<g id="a_Node000015"><a xlink:title=" ">
<polygon fill="#e0e0e0" stroke="#999999" points="274,-74 205,-74 205,-55 274,-55 274,-74"/>
<text text-anchor="middle" x="239.5" y="-62" font-family="Helvetica,sans-Serif" font-size="10.00">type_traits</text>
</a>
</g>
</g>
<!-- Node14&#45;&gt;Node15 -->
<g id="edge15_Node000014_Node000015" class="edge">
<title>Node14&#45;&gt;Node15</title>
<g id="a_edge15_Node000014_Node000015"><a xlink:title=" ">
<path fill="none" stroke="#63b8ff" d="M274.56,-109.75C268.63,-102.26 259.93,-91.28 252.68,-82.13"/>
<polygon fill="#63b8ff" stroke="#63b8ff" points="255.26,-79.75 246.31,-74.09 249.77,-84.1 255.26,-79.75"/>
</a>
</g>
</g>
<!-- Node16&#45;&gt;Node4 -->
<g id="edge31_Node000016_Node000004" class="edge">
<title>Node16&#45;&gt;Node4</title>
<g id="a_edge31_Node000016_Node000004"><a xlink:title=" ">
<path fill="none" stroke="#63b8ff" d="M499.65,-219.87C504.45,-207.24 514.35,-183.28 526.5,-165 533.32,-154.75 542.39,-144.45 550.18,-136.35"/>
<polygon fill="#63b8ff" stroke="#63b8ff" points="552.85,-138.63 557.4,-129.06 547.87,-133.7 552.85,-138.63"/>
</a>
</g>
</g>
<!-- Node16&#45;&gt;Node5 -->
<g id="edge19_Node000016_Node000005" class="edge">
<title>Node16&#45;&gt;Node5</title>
<g id="a_edge19_Node000016_Node000005"><a xlink:title=" ">
<path fill="none" stroke="#63b8ff" d="M550.87,-219.98C579.91,-213.53 615.19,-202.5 642.5,-184 682.01,-157.24 713.13,-109.09 727.98,-83.17"/>
<polygon fill="#63b8ff" stroke="#63b8ff" points="731.21,-84.57 733.02,-74.13 725.1,-81.16 731.21,-84.57"/>
</a>
</g>
</g>
<!-- Node16&#45;&gt;Node9 -->
<g id="edge30_Node000016_Node000009" class="edge">
<title>Node16&#45;&gt;Node9</title>
<g id="a_edge30_Node000016_Node000009"><a xlink:title=" ">
<path fill="none" stroke="#63b8ff" d="M476.1,-219.98C455.48,-211.38 423.39,-197.99 399.81,-188.15"/>
<polygon fill="#63b8ff" stroke="#63b8ff" points="400.85,-184.79 390.28,-184.17 398.16,-191.25 400.85,-184.79"/>
</a>
</g>
</g>
<!-- Node17 -->
<g id="Node000017" class="node">
<title>Node17</title>
<g id="a_Node000017"><a xlink:title=" ">
<polygon fill="#e0e0e0" stroke="#999999" points="633.5,-184 535.5,-184 535.5,-165 633.5,-165 633.5,-184"/>
<text text-anchor="middle" x="584.5" y="-172" font-family="Helvetica,sans-Serif" font-size="10.00">spdlog/fmt/fmt.h</text>
</a>
</g>
</g>
<!-- Node16&#45;&gt;Node17 -->
<g id="edge18_Node000016_Node000017" class="edge">
<title>Node16&#45;&gt;Node17</title>
<g id="a_edge18_Node000016_Node000017"><a xlink:title=" ">
<path fill="none" stroke="#63b8ff" d="M510.64,-219.98C524.29,-211.77 545.19,-199.18 561.28,-189.49"/>
<polygon fill="#63b8ff" stroke="#63b8ff" points="563.34,-192.33 570.1,-184.17 559.73,-186.33 563.34,-192.33"/>
</a>
</g>
</g>
<!-- Node18 -->
<g id="Node000018" class="node">
<title>Node18</title>
<g id="a_Node000018"><a xlink:title=" ">
<polygon fill="#e0e0e0" stroke="#999999" points="479,-74 438,-74 438,-55 479,-55 479,-74"/>
<text text-anchor="middle" x="458.5" y="-62" font-family="Helvetica,sans-Serif" font-size="10.00">tuple</text>
</a>
</g>
</g>
<!-- Node16&#45;&gt;Node18 -->
<g id="edge20_Node000016_Node000018" class="edge">
<title>Node16&#45;&gt;Node18</title>
<g id="a_edge20_Node000016_Node000018"><a xlink:title=" ">
<path fill="none" stroke="#63b8ff" d="M494.46,-219.74C488.5,-194.2 471.07,-119.43 462.87,-84.23"/>
<polygon fill="#63b8ff" stroke="#63b8ff" points="466.23,-83.25 460.55,-74.31 459.42,-84.84 466.23,-83.25"/>
</a>
</g>
</g>
<!-- Node19 -->
<g id="Node000019" class="node">
<title>Node19</title>
<g id="a_Node000019"><a xlink:href="_tuple_8hpp.html" target="_top" xlink:title=" ">
<polygon fill="white" stroke="#666666" points="279.5,-184 185.5,-184 185.5,-165 279.5,-165 279.5,-184"/>
<text text-anchor="middle" x="232.5" y="-172" font-family="Helvetica,sans-Serif" font-size="10.00">wmtk/Tuple.hpp</text>
</a>
</g>
</g>
<!-- Node16&#45;&gt;Node19 -->
<g id="edge21_Node000016_Node000019" class="edge">
<title>Node16&#45;&gt;Node19</title>
<g id="a_edge21_Node000016_Node000019"><a xlink:title=" ">
<path fill="none" stroke="#63b8ff" d="M454.08,-219.98C408.13,-210.76 334.75,-196.03 285.15,-186.07"/>
<polygon fill="#63b8ff" stroke="#63b8ff" points="285.74,-182.62 275.25,-184.08 284.36,-189.48 285.74,-182.62"/>
</a>
</g>
</g>
<!-- Node19&#45;&gt;Node10 -->
<g id="edge22_Node000019_Node000010" class="edge">
<title>Node19&#45;&gt;Node10</title>
<g id="a_edge22_Node000019_Node000010"><a xlink:title=" ">
<path fill="none" stroke="#63b8ff" d="M222.13,-164.87C211.67,-156.07 195.16,-141.92 181.5,-129 165,-113.4 146.94,-94.71 134.6,-81.66"/>
<polygon fill="#63b8ff" stroke="#63b8ff" points="137.11,-79.23 127.71,-74.35 132.01,-84.03 137.11,-79.23"/>
</a>
</g>
</g>
<!-- Node20 -->
<g id="Node000020" class="node">
<title>Node20</title>
<g id="a_Node000020"><a xlink:href="_tuple_8hxx.html" target="_top" xlink:title=" ">
<polygon fill="white" stroke="#666666" points="425,-129 362,-129 362,-110 425,-110 425,-129"/>
<text text-anchor="middle" x="393.5" y="-117" font-family="Helvetica,sans-Serif" font-size="10.00">Tuple.hxx</text>
</a>
</g>
</g>
<!-- Node19&#45;&gt;Node20 -->
<g id="edge23_Node000019_Node000020" class="edge">
<title>Node19&#45;&gt;Node20</title>
<g id="a_edge23_Node000019_Node000020"><a xlink:title=" ">
<path fill="none" stroke="#63b8ff" d="M253.25,-164.98C278.32,-156.09 320.71,-142.07 352.42,-132.15"/>
<polygon fill="#63b8ff" stroke="#63b8ff" points="353.79,-135.39 362.3,-129.08 351.71,-128.7 353.79,-135.39"/>
</a>
</g>
</g>
<!-- Node20&#45;&gt;Node7 -->
<g id="edge25_Node000020_Node000007" class="edge">
<title>Node20&#45;&gt;Node7</title>
<g id="a_edge25_Node000020_Node000007"><a xlink:title=" ">
<path fill="none" stroke="#63b8ff" d="M415.03,-109.98C436.97,-101.3 471.24,-87.75 496.19,-77.88"/>
<polygon fill="#63b8ff" stroke="#63b8ff" points="497.57,-81.1 505.58,-74.17 494.99,-74.59 497.57,-81.1"/>
</a>
</g>
</g>
<!-- Node20&#45;&gt;Node8 -->
<g id="edge27_Node000020_Node000008" class="edge">
<title>Node20&#45;&gt;Node8</title>
<g id="a_edge27_Node000020_Node000008"><a xlink:title=" ">
<path fill="none" stroke="#63b8ff" d="M425.11,-110.53C457.86,-102.24 510.77,-88.74 565.6,-74.21"/>
<polygon fill="#63b8ff" stroke="#63b8ff" points="566.73,-77.53 575.5,-71.58 564.93,-70.76 566.73,-77.53"/>
</a>
</g>
</g>
<!-- Node20&#45;&gt;Node18 -->
<g id="edge28_Node000020_Node000018" class="edge">
<title>Node20&#45;&gt;Node18</title>
<g id="a_edge28_Node000020_Node000018"><a xlink:title=" ">
<path fill="none" stroke="#63b8ff" d="M403.94,-109.98C413.65,-102.07 428.32,-90.11 440,-80.58"/>
<polygon fill="#63b8ff" stroke="#63b8ff" points="442.33,-83.2 447.87,-74.17 437.9,-77.78 442.33,-83.2"/>
</a>
</g>
</g>
<!-- Node20&#45;&gt;Node19 -->
<g id="edge29_Node000020_Node000019" class="edge">
<title>Node20&#45;&gt;Node19</title>
<g id="a_edge29_Node000020_Node000019"><a xlink:title=" ">
<path fill="none" stroke="#63b8ff" d="M372.31,-129.17C347.12,-138.1 304.86,-152.07 273.31,-161.94"/>
<polygon fill="#63b8ff" stroke="#63b8ff" points="272,-158.68 263.48,-164.98 274.07,-165.37 272,-158.68"/>
</a>
</g>
</g>
<!-- Node21 -->
<g id="Node000021" class="node">
<title>Node21</title>
<g id="a_Node000021"><a xlink:title=" ">
<polygon fill="#e0e0e0" stroke="#999999" points="420,-74 367,-74 367,-55 420,-55 420,-74"/>
<text text-anchor="middle" x="393.5" y="-62" font-family="Helvetica,sans-Serif" font-size="10.00">cstddef</text>
</a>
</g>
</g>
<!-- Node20&#45;&gt;Node21 -->
<g id="edge24_Node000020_Node000021" class="edge">
<title>Node20&#45;&gt;Node21</title>
<g id="a_edge24_Node000020_Node000021"><a xlink:title=" ">
<path fill="none" stroke="#63b8ff" d="M393.5,-109.75C393.5,-102.8 393.5,-92.85 393.5,-84.13"/>
<polygon fill="#63b8ff" stroke="#63b8ff" points="397,-84.09 393.5,-74.09 390,-84.09 397,-84.09"/>
</a>
</g>
</g>
<!-- Node22 -->
<g id="Node000022" class="node">
<title>Node22</title>
<g id="a_Node000022"><a xlink:title=" ">
<polygon fill="#e0e0e0" stroke="#999999" points="348.5,-74 292.5,-74 292.5,-55 348.5,-55 348.5,-74"/>
<text text-anchor="middle" x="320.5" y="-62" font-family="Helvetica,sans-Serif" font-size="10.00">optional</text>
</a>
</g>
</g>
<!-- Node20&#45;&gt;Node22 -->
<g id="edge26_Node000020_Node000022" class="edge">
<title>Node20&#45;&gt;Node22</title>
<g id="a_edge26_Node000020_Node000022"><a xlink:title=" ">
<path fill="none" stroke="#63b8ff" d="M381.77,-109.98C370.77,-102 354.08,-89.88 340.9,-80.31"/>
<polygon fill="#63b8ff" stroke="#63b8ff" points="342.59,-77.21 332.44,-74.17 338.48,-82.88 342.59,-77.21"/>
</a>
</g>
</g>
<!-- Node24&#45;&gt;Node10 -->
<g id="edge34_Node000024_Node000010" class="edge">
<title>Node24&#45;&gt;Node10</title>
<g id="a_edge34_Node000024_Node000010"><a xlink:title=" ">
<path fill="none" stroke="#63b8ff" d="M218.11,-219.74C205.81,-211.67 188.28,-198.75 176.5,-184 151.43,-152.61 133.9,-108.39 125.38,-83.8"/>
<polygon fill="#63b8ff" stroke="#63b8ff" points="128.69,-82.66 122.2,-74.28 122.05,-84.88 128.69,-82.66"/>
</a>
</g>
</g>
<!-- Node24&#45;&gt;Node19 -->
<g id="edge35_Node000024_Node000019" class="edge">
<title>Node24&#45;&gt;Node19</title>
<g id="a_edge35_Node000024_Node000019"><a xlink:title=" ">
<path fill="none" stroke="#63b8ff" d="M232.5,-219.75C232.5,-212.8 232.5,-202.85 232.5,-194.13"/>
<polygon fill="#63b8ff" stroke="#63b8ff" points="236,-194.09 232.5,-184.09 229,-194.09 236,-194.09"/>
</a>
</g>
</g>
</g>
</svg>

<g id="navigator" transform="translate(0 0)" fill="#404254">
  <rect fill="#f2f5e9" fill-opacity="0.5" stroke="#606060" stroke-width=".5" x="0" y="0" width="60" height="60"/>
  <use id="zoomplus" xlink:href="#zoomPlus" x="17" y="9" onmousedown="handleZoom(evt,'in')"/>
  <use id="zoomminus" xlink:href="#zoomMin" x="42" y="9" onmousedown="handleZoom(evt,'out')"/>
  <use id="reset" xlink:href="#resetDef" x="30" y="36" onmousedown="handleReset()"/>
   <use id="arrowup" xlink:href="#arrowUp" x="0" y="0" onmousedown="handlePan(0,-1)"/>
  <use id="arrowright" xlink:href="#arrowRight" x="0" y="0" onmousedown="handlePan(1,0)"/>
  <use id="arrowdown" xlink:href="#arrowDown" x="0" y="0" onmousedown="handlePan(0,1)"/>
  <use id="arrowleft" xlink:href="#arrowLeft" x="0" y="0" onmousedown="handlePan(-1,0)"/>
</g>
<svg viewBox="0 0 15 15" width="100%" height="30px" preserveAspectRatio="xMaxYMin meet">
 <g id="arrow_out" transform="scale(0.3 0.3)">
  <a xlink:href="_local_neighbors_sum_function_8hpp__incl_org.svg" target="_base">
   <rect id="button" ry="5" rx="5" y="6" x="6" height="38" width="38"
        fill="#f2f5e9" fill-opacity="0.5" stroke="#606060" stroke-width="1.0"/>
   <path id="arrow"
     d="M 11.500037,31.436501 C 11.940474,20.09759 22.043105,11.32322 32.158766,21.979434 L 37.068811,17.246167 C 37.068811,17.246167 37.088388,32 37.088388,32 L 22.160133,31.978069 C 22.160133,31.978069 26.997745,27.140456 26.997745,27.140456 C 18.528582,18.264221 13.291696,25.230495 11.500037,31.436501 z"
     style="fill:#404040;"/>
  </a>
 </g>
</svg>

<style type='text/css'>
<![CDATA[
[data-mouse-over-selected='false'] { opacity: 0.7; }
[data-mouse-over-selected='true']  { opacity: 1.0; }
]]>
</style>
<script type="application/ecmascript"><![CDATA[
document.addEventListener('DOMContentLoaded', (event) => {
  highlightEdges();
  highlightAdjacentNodes();
});
]]></script>
</svg>
