<?xml version="1.0" encoding="UTF-8" standalone="no"?>
<!DOCTYPE svg PUBLIC "-//W3C//DTD SVG 1.1//EN"
 "http://www.w3.org/Graphics/SVG/1.1/DTD/svg11.dtd">
<!-- Generated by graphviz version 2.43.0 (0)
 -->
<!-- Title: src/wmtk/io/MeshWriter.hpp Pages: 1 -->
<!--zoomable 258 -->

<svg id="main" version="1.1" xmlns="http://www.w3.org/2000/svg" xmlns:xlink="http://www.w3.org/1999/xlink" xml:space="preserve" onload="init(evt)">
<style type="text/css"><![CDATA[
.node, .edge {opacity: 0.7;}
.node.selected, .edge.selected {opacity: 1;}
.edge:hover path { stroke: red; }
.edge:hover polygon { stroke: red; fill: red; }
]]></style>

<defs>
  <circle id="rim" cx="0" cy="0" r="7"/>
  <circle id="rim2" cx="0" cy="0" r="3.5"/>
  <g id="zoomPlus">
    <use xlink:href="#rim" fill="#404040"><set attributeName="fill" to="#808080" begin="zoomplus.mouseover" end="zoomplus.mouseout"/></use>
    <path d="M-4,0h8M0,-4v8" fill="none" stroke="white" stroke-width="1.5" pointer-events="none"/>
  </g>
  <g id="zoomMin">
    <use xlink:href="#rim" fill="#404040"><set attributeName="fill" to="#808080" begin="zoomminus.mouseover" end="zoomminus.mouseout"/></use>
    <path d="M-4,0h8" fill="none" stroke="white" stroke-width="1.5" pointer-events="none"/>
  </g>
  <g id="arrowUp" transform="translate(30 24)">
    <use xlink:href="#rim"/>
    <path pointer-events="none" fill="none" stroke="white" stroke-width="1.5" d="M0,-3.0v7 M-2.5,-0.5L0,-3.0L2.5,-0.5"/>
  </g>
  <g id="arrowRight" transform="rotate(90) translate(36 -43)">
    <use xlink:href="#rim"/>
    <path pointer-events="none" fill="none" stroke="white" stroke-width="1.5" d="M0,-3.0v7 M-2.5,-0.5L0,-3.0L2.5,-0.5"/>
  </g>
  <g id="arrowDown" transform="rotate(180) translate(-30 -48)">
    <use xlink:href="#rim"/>
    <path pointer-events="none" fill="none" stroke="white" stroke-width="1.5" d="M0,-3.0v7 M-2.5,-0.5L0,-3.0L2.5,-0.5"/>
  </g>
  <g id="arrowLeft" transform="rotate(270) translate(-36 17)">
    <use xlink:href="#rim"/>
    <path pointer-events="none" fill="none" stroke="white" stroke-width="1.5" d="M0,-3.0v7 M-2.5,-0.5L0,-3.0L2.5,-0.5"/>
  </g>
  <g id="resetDef">
    <use xlink:href="#rim2" fill="#404040"><set attributeName="fill" to="#808080" begin="reset.mouseover" end="reset.mouseout"/></use>
  </g>
</defs>
<script type="application/ecmascript">
var viewWidth = 4394;
var viewHeight = 258;
var sectionId = 'dynsection-1';
</script>
<script type="application/ecmascript" xlink:href="svg.min.js"/>
<svg id="graph" class="graph">
<g id="viewport">
<title>src/wmtk/io/MeshWriter.hpp</title>
<!-- Node1 -->
<g id="Node000001" class="node">
<title>Node1</title>
<g id="a_Node000001"><a xlink:title=" ">
<polygon fill="#999999" stroke="#666666" points="884,-250 731,-250 731,-231 884,-231 884,-250"/>
<text text-anchor="middle" x="807.5" y="-238" font-family="Helvetica,sans-Serif" font-size="10.00">src/wmtk/io/MeshWriter.hpp</text>
</a>
</g>
</g>
<!-- Node2 -->
<g id="Node000002" class="node">
<title>Node2</title>
<g id="a_Node000002"><a xlink:href="_mesh_8cpp.html" target="_top" xlink:title=" ">
<polygon fill="white" stroke="#666666" points="324,-189.5 213,-189.5 213,-170.5 324,-170.5 324,-189.5"/>
<text text-anchor="middle" x="268.5" y="-177.5" font-family="Helvetica,sans-Serif" font-size="10.00">src/wmtk/Mesh.cpp</text>
</a>
</g>
</g>
<!-- Node1&#45;&gt;Node2 -->
<g id="edge1_Node000001_Node000002" class="edge">
<title>Node1&#45;&gt;Node2</title>
<g id="a_edge1_Node000001_Node000002"><a xlink:title=" ">
<path fill="none" stroke="#63b8ff" d="M720.44,-234.54C624.88,-228.35 467.13,-215.95 332.5,-195 323.17,-193.55 313.17,-191.57 303.9,-189.55"/>
<polygon fill="#63b8ff" stroke="#63b8ff" points="720.43,-238.05 730.63,-235.19 720.88,-231.06 720.43,-238.05"/>
</a>
</g>
</g>
<!-- Node3 -->
<g id="Node000003" class="node">
<title>Node3</title>
<g id="a_Node000003"><a xlink:href="_mesh__multimesh_8cpp.html" target="_top" xlink:title=" ">
<polygon fill="white" stroke="#666666" points="511,-189.5 342,-189.5 342,-170.5 511,-170.5 511,-189.5"/>
<text text-anchor="middle" x="426.5" y="-177.5" font-family="Helvetica,sans-Serif" font-size="10.00">src/wmtk/Mesh_multimesh.cpp</text>
</a>
</g>
</g>
<!-- Node1&#45;&gt;Node3 -->
<g id="edge2_Node000001_Node000003" class="edge">
<title>Node1&#45;&gt;Node3</title>
<g id="a_edge2_Node000001_Node000003"><a xlink:title=" ">
<path fill="none" stroke="#63b8ff" d="M742.05,-229.45C668.69,-218.19 550.99,-200.11 481.97,-189.52"/>
<polygon fill="#63b8ff" stroke="#63b8ff" points="741.68,-232.94 752.1,-230.99 742.75,-226.02 741.68,-232.94"/>
</a>
</g>
</g>
<!-- Node4 -->
<g id="Node000004" class="node">
<title>Node4</title>
<g id="a_Node000004"><a xlink:href="_attribute_8cpp.html" target="_top" xlink:title=" ">
<polygon fill="white" stroke="#666666" points="636,-195 529,-195 529,-165 636,-165 636,-195"/>
<text text-anchor="start" x="537" y="-183" font-family="Helvetica,sans-Serif" font-size="10.00">src/wmtk/attribute</text>
<text text-anchor="middle" x="582.5" y="-172" font-family="Helvetica,sans-Serif" font-size="10.00">/Attribute.cpp</text>
</a>
</g>
</g>
<!-- Node1&#45;&gt;Node4 -->
<g id="edge3_Node000001_Node000004" class="edge">
<title>Node1&#45;&gt;Node4</title>
<g id="a_edge3_Node000001_Node000004"><a xlink:title=" ">
<path fill="none" stroke="#63b8ff" d="M764.94,-228.43C728.41,-218.94 675.58,-205.2 636.16,-194.95"/>
<polygon fill="#63b8ff" stroke="#63b8ff" points="764.22,-231.86 774.78,-230.99 765.99,-225.09 764.22,-231.86"/>
</a>
</g>
</g>
<!-- Node5 -->
<g id="Node000005" class="node">
<title>Node5</title>
<g id="a_Node000005"><a xlink:href="_attribute_manager_8cpp.html" target="_top" xlink:title=" ">
<polygon fill="white" stroke="#666666" points="1071,-118 946,-118 946,-88 1071,-88 1071,-118"/>
<text text-anchor="start" x="954" y="-106" font-family="Helvetica,sans-Serif" font-size="10.00">src/wmtk/attribute</text>
<text text-anchor="middle" x="1008.5" y="-95" font-family="Helvetica,sans-Serif" font-size="10.00">/AttributeManager.cpp</text>
</a>
</g>
</g>
<!-- Node1&#45;&gt;Node5 -->
<g id="edge4_Node000001_Node000005" class="edge">
<title>Node1&#45;&gt;Node5</title>
<g id="a_edge4_Node000001_Node000005"><a xlink:title=" ">
<path fill="none" stroke="#63b8ff" d="M874.53,-228.54C899.87,-221.94 927.8,-211.49 949.5,-195 976.34,-174.61 994.49,-138.25 1002.98,-118.21"/>
<polygon fill="#63b8ff" stroke="#63b8ff" points="873.48,-225.19 864.59,-230.96 875.14,-231.99 873.48,-225.19"/>
</a>
</g>
</g>
<!-- Node6 -->
<g id="Node000006" class="node">
<title>Node6</title>
<g id="a_Node000006"><a xlink:href="_mesh_attributes_8cpp.html" target="_top" xlink:title=" ">
<polygon fill="white" stroke="#666666" points="940.5,-195 826.5,-195 826.5,-165 940.5,-165 940.5,-195"/>
<text text-anchor="start" x="834.5" y="-183" font-family="Helvetica,sans-Serif" font-size="10.00">src/wmtk/attribute</text>
<text text-anchor="middle" x="883.5" y="-172" font-family="Helvetica,sans-Serif" font-size="10.00">/MeshAttributes.cpp</text>
</a>
</g>
</g>
<!-- Node1&#45;&gt;Node6 -->
<g id="edge5_Node000001_Node000006" class="edge">
<title>Node1&#45;&gt;Node6</title>
<g id="a_edge5_Node000001_Node000006"><a xlink:title=" ">
<path fill="none" stroke="#63b8ff" d="M826.64,-224.77C838.45,-215.68 853.51,-204.09 865.16,-195.11"/>
<polygon fill="#63b8ff" stroke="#63b8ff" points="824.5,-221.99 818.71,-230.87 828.77,-227.54 824.5,-221.99"/>
</a>
</g>
</g>
<!-- Node7 -->
<g id="Node000007" class="node">
<title>Node7</title>
<g id="a_Node000007"><a xlink:href="_h_d_f5_writer_8hpp.html" target="_top" xlink:title=" ">
<polygon fill="white" stroke="#666666" points="808.5,-189.5 654.5,-189.5 654.5,-170.5 808.5,-170.5 808.5,-189.5"/>
<text text-anchor="middle" x="731.5" y="-177.5" font-family="Helvetica,sans-Serif" font-size="10.00">src/wmtk/io/HDF5Writer.hpp</text>
</a>
</g>
</g>
<!-- Node1&#45;&gt;Node7 -->
<g id="edge6_Node000001_Node000007" class="edge">
<title>Node1&#45;&gt;Node7</title>
<g id="a_edge6_Node000001_Node000007"><a xlink:title=" ">
<path fill="none" stroke="#63b8ff" d="M788.06,-224.54C773.71,-213.49 754.68,-198.84 742.76,-189.67"/>
<polygon fill="#63b8ff" stroke="#63b8ff" points="786.23,-227.54 796.29,-230.87 790.5,-221.99 786.23,-227.54"/>
</a>
</g>
</g>
<!-- Node16 -->
<g id="Node000016" class="node">
<title>Node16</title>
<g id="a_Node000016"><a xlink:href="_paraview_writer_8hpp.html" target="_top" xlink:title=" ">
<polygon fill="white" stroke="#666666" points="1942,-189.5 1771,-189.5 1771,-170.5 1942,-170.5 1942,-189.5"/>
<text text-anchor="middle" x="1856.5" y="-177.5" font-family="Helvetica,sans-Serif" font-size="10.00">src/wmtk/io/ParaviewWriter.hpp</text>
</a>
</g>
</g>
<!-- Node1&#45;&gt;Node16 -->
<g id="edge16_Node000001_Node000016" class="edge">
<title>Node1&#45;&gt;Node16</title>
<g id="a_edge16_Node000001_Node000016"><a xlink:title=" ">
<path fill="none" stroke="#63b8ff" d="M894.26,-234.66C1091.99,-223.63 1574.11,-196.75 1770.81,-185.78"/>
<polygon fill="#63b8ff" stroke="#63b8ff" points="894,-231.17 884.21,-235.22 894.39,-238.16 894,-231.17"/>
</a>
</g>
</g>
<!-- Node29 -->
<g id="Node000029" class="node">
<title>Node29</title>
<g id="a_Node000029"><a xlink:href="_eigen_matrix_writer_8hpp.html" target="_top" xlink:title=" ">
<polygon fill="white" stroke="#666666" points="3712,-195 3565,-195 3565,-165 3712,-165 3712,-195"/>
<text text-anchor="start" x="3573" y="-183" font-family="Helvetica,sans-Serif" font-size="10.00">src/wmtk/utils/EigenMatrix</text>
<text text-anchor="middle" x="3638.5" y="-172" font-family="Helvetica,sans-Serif" font-size="10.00">Writer.hpp</text>
</a>
</g>
</g>
<!-- Node1&#45;&gt;Node29 -->
<g id="edge31_Node000001_Node000029" class="edge">
<title>Node1&#45;&gt;Node29</title>
<g id="a_edge31_Node000001_Node000029"><a xlink:title=" ">
<path fill="none" stroke="#63b8ff" d="M894.39,-237.7C1319.05,-228.93 3171.68,-190.65 3564.95,-182.52"/>
<polygon fill="#63b8ff" stroke="#63b8ff" points="894.25,-234.21 884.32,-237.91 894.39,-241.21 894.25,-234.21"/>
</a>
</g>
</g>
<!-- Node8 -->
<g id="Node000008" class="node">
<title>Node8</title>
<g id="a_Node000008"><a xlink:href="multimesh__from__tag_8cpp.html" target="_top" xlink:title=" ">
<polygon fill="white" stroke="#666666" points="493,-129 316,-129 316,-77 493,-77 493,-129"/>
<text text-anchor="start" x="324" y="-117" font-family="Helvetica,sans-Serif" font-size="10.00">components/multimesh</text>
<text text-anchor="start" x="324" y="-106" font-family="Helvetica,sans-Serif" font-size="10.00">_from_tag/wmtk/components</text>
<text text-anchor="start" x="324" y="-95" font-family="Helvetica,sans-Serif" font-size="10.00">/multimesh_from_tag/multimesh</text>
<text text-anchor="middle" x="404.5" y="-84" font-family="Helvetica,sans-Serif" font-size="10.00">_from_tag.cpp</text>
</a>
</g>
</g>
<!-- Node7&#45;&gt;Node8 -->
<g id="edge7_Node000007_Node000008" class="edge">
<title>Node7&#45;&gt;Node8</title>
<g id="a_edge7_Node000007_Node000008"><a xlink:title=" ">
<path fill="none" stroke="#63b8ff" d="M680.62,-168.42C634.14,-158.63 563.56,-143.45 502.5,-129 499.42,-128.27 496.3,-127.52 493.14,-126.76"/>
<polygon fill="#63b8ff" stroke="#63b8ff" points="679.94,-171.86 690.45,-170.49 681.38,-165 679.94,-171.86"/>
</a>
</g>
</g>
<!-- Node9 -->
<g id="Node000009" class="node">
<title>Node9</title>
<g id="a_Node000009"><a xlink:href="output_8cpp.html" target="_top" xlink:title=" ">
<polygon fill="white" stroke="#666666" points="928,-118 759,-118 759,-88 928,-88 928,-118"/>
<text text-anchor="start" x="767" y="-106" font-family="Helvetica,sans-Serif" font-size="10.00">components/output/wmtk</text>
<text text-anchor="middle" x="843.5" y="-95" font-family="Helvetica,sans-Serif" font-size="10.00">/components/output/output.cpp</text>
</a>
</g>
</g>
<!-- Node7&#45;&gt;Node9 -->
<g id="edge8_Node000007_Node000009" class="edge">
<title>Node7&#45;&gt;Node9</title>
<g id="a_edge8_Node000007_Node000009"><a xlink:title=" ">
<path fill="none" stroke="#63b8ff" d="M752.78,-164.75C772.76,-151.37 802.5,-131.45 822.43,-118.11"/>
<polygon fill="#63b8ff" stroke="#63b8ff" points="750.71,-161.92 744.35,-170.4 754.6,-167.74 750.71,-161.92"/>
</a>
</g>
</g>
<!-- Node10 -->
<g id="Node000010" class="node">
<title>Node10</title>
<g id="a_Node000010"><a xlink:href="_tag_intersection_8hpp.html" target="_top" xlink:title=" ">
<polygon fill="white" stroke="#666666" points="703.5,-123.5 511.5,-123.5 511.5,-82.5 703.5,-82.5 703.5,-123.5"/>
<text text-anchor="start" x="519.5" y="-111.5" font-family="Helvetica,sans-Serif" font-size="10.00">components/tag_intersection</text>
<text text-anchor="start" x="519.5" y="-100.5" font-family="Helvetica,sans-Serif" font-size="10.00">/wmtk/components/tag_intersection</text>
<text text-anchor="middle" x="607.5" y="-89.5" font-family="Helvetica,sans-Serif" font-size="10.00">/internal/TagIntersection.hpp</text>
</a>
</g>
</g>
<!-- Node7&#45;&gt;Node10 -->
<g id="edge9_Node000007_Node000010" class="edge">
<title>Node7&#45;&gt;Node10</title>
<g id="a_edge9_Node000007_Node000010"><a xlink:title=" ">
<path fill="none" stroke="#63b8ff" d="M708.54,-165.12C689.23,-153.43 661.4,-136.6 639.83,-123.55"/>
<polygon fill="#63b8ff" stroke="#63b8ff" points="706.91,-168.22 717.28,-170.4 710.53,-162.23 706.91,-168.22"/>
</a>
</g>
</g>
<!-- Node12 -->
<g id="Node000012" class="node">
<title>Node12</title>
<g id="a_Node000012"><a xlink:href="tag__intersection_8cpp.html" target="_top" xlink:title=" ">
<polygon fill="white" stroke="#666666" points="868.5,-41 676.5,-41 676.5,0 868.5,0 868.5,-41"/>
<text text-anchor="start" x="684.5" y="-29" font-family="Helvetica,sans-Serif" font-size="10.00">components/tag_intersection</text>
<text text-anchor="start" x="684.5" y="-18" font-family="Helvetica,sans-Serif" font-size="10.00">/wmtk/components/tag_intersection</text>
<text text-anchor="middle" x="772.5" y="-7" font-family="Helvetica,sans-Serif" font-size="10.00">/tag_intersection.cpp</text>
</a>
</g>
</g>
<!-- Node7&#45;&gt;Node12 -->
<g id="edge13_Node000007_Node000012" class="edge">
<title>Node7&#45;&gt;Node12</title>
<g id="a_edge13_Node000007_Node000012"><a xlink:title=" ">
<path fill="none" stroke="#63b8ff" d="M733.54,-160.44C736.09,-139.78 741.17,-105.55 749.5,-77 753.06,-64.78 758.45,-51.61 763.12,-41.16"/>
<polygon fill="#63b8ff" stroke="#63b8ff" points="730.06,-160.05 732.38,-170.39 737.01,-160.87 730.06,-160.05"/>
</a>
</g>
</g>
<!-- Node14 -->
<g id="Node000014" class="node">
<title>Node14</title>
<g id="a_Node000014"><a xlink:href="_cache_8cpp.html" target="_top" xlink:title=" ">
<polygon fill="white" stroke="#666666" points="127,-112.5 0,-112.5 0,-93.5 127,-93.5 127,-112.5"/>
<text text-anchor="middle" x="63.5" y="-100.5" font-family="Helvetica,sans-Serif" font-size="10.00">src/wmtk/io/Cache.cpp</text>
</a>
</g>
</g>
<!-- Node7&#45;&gt;Node14 -->
<g id="edge14_Node000007_Node000014" class="edge">
<title>Node7&#45;&gt;Node14</title>
<g id="a_edge14_Node000007_Node000014"><a xlink:title=" ">
<path fill="none" stroke="#63b8ff" d="M673.38,-168.91C663.76,-167.45 653.86,-166.08 644.5,-165 419.21,-138.96 357.66,-174.59 135.5,-129 117.48,-125.3 97.8,-118.25 83.58,-112.58"/>
<polygon fill="#63b8ff" stroke="#63b8ff" points="672.87,-172.38 683.29,-170.46 673.95,-165.46 672.87,-172.38"/>
</a>
</g>
</g>
<!-- Node15 -->
<g id="Node000015" class="node">
<title>Node15</title>
<g id="a_Node000015"><a xlink:href="_h_d_f5_writer_8cpp.html" target="_top" xlink:title=" ">
<polygon fill="white" stroke="#666666" points="298,-112.5 145,-112.5 145,-93.5 298,-93.5 298,-112.5"/>
<text text-anchor="middle" x="221.5" y="-100.5" font-family="Helvetica,sans-Serif" font-size="10.00">src/wmtk/io/HDF5Writer.cpp</text>
</a>
</g>
</g>
<!-- Node7&#45;&gt;Node15 -->
<g id="edge15_Node000007_Node000015" class="edge">
<title>Node7&#45;&gt;Node15</title>
<g id="a_edge15_Node000007_Node000015"><a xlink:title=" ">
<path fill="none" stroke="#63b8ff" d="M671.37,-168.9C662.38,-167.51 653.2,-166.16 644.5,-165 494.76,-144.99 454.68,-158.43 306.5,-129 285.83,-124.89 262.94,-118.02 246.13,-112.52"/>
<polygon fill="#63b8ff" stroke="#63b8ff" points="671,-172.38 681.42,-170.47 672.09,-165.46 671,-172.38"/>
</a>
</g>
</g>
<!-- Node11 -->
<g id="Node000011" class="node">
<title>Node11</title>
<g id="a_Node000011"><a xlink:href="_tag_intersection_8cpp.html" target="_top" xlink:title=" ">
<polygon fill="white" stroke="#666666" points="458.5,-41 266.5,-41 266.5,0 458.5,0 458.5,-41"/>
<text text-anchor="start" x="274.5" y="-29" font-family="Helvetica,sans-Serif" font-size="10.00">components/tag_intersection</text>
<text text-anchor="start" x="274.5" y="-18" font-family="Helvetica,sans-Serif" font-size="10.00">/wmtk/components/tag_intersection</text>
<text text-anchor="middle" x="362.5" y="-7" font-family="Helvetica,sans-Serif" font-size="10.00">/internal/TagIntersection.cpp</text>
</a>
</g>
</g>
<!-- Node10&#45;&gt;Node11 -->
<g id="edge10_Node000010_Node000011" class="edge">
<title>Node10&#45;&gt;Node11</title>
<g id="a_edge10_Node000010_Node000011"><a xlink:title=" ">
<path fill="none" stroke="#63b8ff" d="M538.25,-79.25C501.6,-67.2 457.04,-52.56 421.96,-41.04"/>
<polygon fill="#63b8ff" stroke="#63b8ff" points="537.29,-82.61 547.88,-82.41 539.47,-75.96 537.29,-82.61"/>
</a>
</g>
</g>
<!-- Node10&#45;&gt;Node12 -->
<g id="edge11_Node000010_Node000012" class="edge">
<title>Node10&#45;&gt;Node12</title>
<g id="a_edge11_Node000010_Node000012"><a xlink:title=" ">
<path fill="none" stroke="#63b8ff" d="M657.17,-77.77C681.18,-66.05 709.63,-52.17 732.27,-41.13"/>
<polygon fill="#63b8ff" stroke="#63b8ff" points="655.32,-74.78 647.86,-82.31 658.39,-81.07 655.32,-74.78"/>
</a>
</g>
</g>
<!-- Node13 -->
<g id="Node000013" class="node">
<title>Node13</title>
<g id="a_Node000013"><a xlink:href="test__component__tag__intersection_8cpp.html" target="_top" xlink:title=" ">
<polygon fill="white" stroke="#666666" points="658,-35.5 477,-35.5 477,-5.5 658,-5.5 658,-35.5"/>
<text text-anchor="start" x="485" y="-23.5" font-family="Helvetica,sans-Serif" font-size="10.00">components/tests/test</text>
<text text-anchor="middle" x="567.5" y="-12.5" font-family="Helvetica,sans-Serif" font-size="10.00">_component_tag_intersection.cpp</text>
</a>
</g>
</g>
<!-- Node10&#45;&gt;Node13 -->
<g id="edge12_Node000010_Node000013" class="edge">
<title>Node10&#45;&gt;Node13</title>
<g id="a_edge12_Node000010_Node000013"><a xlink:title=" ">
<path fill="none" stroke="#63b8ff" d="M593.03,-72.87C586.77,-60.29 579.74,-46.13 574.64,-35.87"/>
<polygon fill="#63b8ff" stroke="#63b8ff" points="590.03,-74.7 597.61,-82.1 596.3,-71.59 590.03,-74.7"/>
</a>
</g>
</g>
<!-- Node16&#45;&gt;Node5 -->
<g id="edge29_Node000016_Node000005" class="edge">
<title>Node16&#45;&gt;Node5</title>
<g id="a_edge29_Node000016_Node000005"><a xlink:title=" ">
<path fill="none" stroke="#63b8ff" d="M1760.7,-176.11C1582.61,-170.21 1207.07,-155.05 1079.5,-129 1067.08,-126.46 1053.88,-122.26 1042.27,-118.02"/>
<polygon fill="#63b8ff" stroke="#63b8ff" points="1760.74,-179.62 1770.85,-176.45 1760.97,-172.62 1760.74,-179.62"/>
</a>
</g>
</g>
<!-- Node16&#45;&gt;Node9 -->
<g id="edge20_Node000016_Node000009" class="edge">
<title>Node16&#45;&gt;Node9</title>
<g id="a_edge20_Node000016_Node000009"><a xlink:title=" ">
<path fill="none" stroke="#63b8ff" d="M1760.78,-176.33C1558.43,-170.26 1093,-154.01 936.5,-129 920.65,-126.47 903.61,-122.32 888.5,-118.12"/>
<polygon fill="#63b8ff" stroke="#63b8ff" points="1760.7,-179.82 1770.8,-176.62 1760.91,-172.83 1760.7,-179.82"/>
</a>
</g>
</g>
<!-- Node17 -->
<g id="Node000017" class="node">
<title>Node17</title>
<g id="a_Node000017"><a xlink:href="tests_2input_8cpp.html" target="_top" xlink:title=" ">
<polygon fill="white" stroke="#666666" points="3001,-123.5 2866,-123.5 2866,-82.5 3001,-82.5 3001,-123.5"/>
<text text-anchor="start" x="2874" y="-111.5" font-family="Helvetica,sans-Serif" font-size="10.00">components/input/wmtk</text>
<text text-anchor="start" x="2874" y="-100.5" font-family="Helvetica,sans-Serif" font-size="10.00">/components/input/tests</text>
<text text-anchor="middle" x="2933.5" y="-89.5" font-family="Helvetica,sans-Serif" font-size="10.00">/input.cpp</text>
</a>
</g>
</g>
<!-- Node16&#45;&gt;Node17 -->
<g id="edge17_Node000016_Node000017" class="edge">
<title>Node16&#45;&gt;Node17</title>
<g id="a_edge17_Node000016_Node000017"><a xlink:title=" ">
<path fill="none" stroke="#63b8ff" d="M1952.35,-177.43C2167.8,-173.37 2684.95,-160.56 2856.5,-129 2863.96,-127.63 2871.71,-125.72 2879.28,-123.57"/>
<polygon fill="#63b8ff" stroke="#63b8ff" points="1952.25,-173.93 1942.32,-177.61 1952.38,-180.93 1952.25,-173.93"/>
</a>
</g>
</g>
<!-- Node18 -->
<g id="Node000018" class="node">
<title>Node18</title>
<g id="a_Node000018"><a xlink:href="_isotropic_remeshing_8cpp.html" target="_top" xlink:title=" ">
<polygon fill="white" stroke="#666666" points="1256,-129 1089,-129 1089,-77 1256,-77 1256,-129"/>
<text text-anchor="start" x="1097" y="-117" font-family="Helvetica,sans-Serif" font-size="10.00">components/isotropic</text>
<text text-anchor="start" x="1097" y="-106" font-family="Helvetica,sans-Serif" font-size="10.00">_remeshing/wmtk/components</text>
<text text-anchor="start" x="1097" y="-95" font-family="Helvetica,sans-Serif" font-size="10.00">/isotropic_remeshing/internal</text>
<text text-anchor="middle" x="1172.5" y="-84" font-family="Helvetica,sans-Serif" font-size="10.00">/IsotropicRemeshing.cpp</text>
</a>
</g>
</g>
<!-- Node16&#45;&gt;Node18 -->
<g id="edge18_Node000016_Node000018" class="edge">
<title>Node16&#45;&gt;Node18</title>
<g id="a_edge18_Node000016_Node000018"><a xlink:title=" ">
<path fill="none" stroke="#63b8ff" d="M1760.52,-176.23C1642.85,-171.61 1437.71,-159.59 1264.5,-129 1261.73,-128.51 1258.92,-127.98 1256.09,-127.4"/>
<polygon fill="#63b8ff" stroke="#63b8ff" points="1760.45,-179.73 1770.58,-176.62 1760.72,-172.74 1760.45,-179.73"/>
</a>
</g>
</g>
<!-- Node19 -->
<g id="Node000019" class="node">
<title>Node19</title>
<g id="a_Node000019"><a xlink:href="tests_2marching_8cpp.html" target="_top" xlink:title=" ">
<polygon fill="white" stroke="#666666" points="1433,-123.5 1274,-123.5 1274,-82.5 1433,-82.5 1433,-123.5"/>
<text text-anchor="start" x="1282" y="-111.5" font-family="Helvetica,sans-Serif" font-size="10.00">components/marching</text>
<text text-anchor="start" x="1282" y="-100.5" font-family="Helvetica,sans-Serif" font-size="10.00">/wmtk/components/marching</text>
<text text-anchor="middle" x="1353.5" y="-89.5" font-family="Helvetica,sans-Serif" font-size="10.00">/tests/marching.cpp</text>
</a>
</g>
</g>
<!-- Node16&#45;&gt;Node19 -->
<g id="edge19_Node000016_Node000019" class="edge">
<title>Node16&#45;&gt;Node19</title>
<g id="a_edge19_Node000016_Node000019"><a xlink:title=" ">
<path fill="none" stroke="#63b8ff" d="M1760.73,-171.76C1676.18,-164.34 1549.86,-150.78 1441.5,-129 1433.87,-127.47 1425.94,-125.6 1418.1,-123.59"/>
<polygon fill="#63b8ff" stroke="#63b8ff" points="1760.57,-175.25 1770.83,-172.63 1761.17,-168.28 1760.57,-175.25"/>
</a>
</g>
</g>
<!-- Node20 -->
<g id="Node000020" class="node">
<title>Node20</title>
<g id="a_Node000020"><a xlink:href="internal_2periodic__optimization_8cpp.html" target="_top" xlink:title=" ">
<polygon fill="white" stroke="#666666" points="1628,-129 1451,-129 1451,-77 1628,-77 1628,-129"/>
<text text-anchor="start" x="1459" y="-117" font-family="Helvetica,sans-Serif" font-size="10.00">components/periodic</text>
<text text-anchor="start" x="1459" y="-106" font-family="Helvetica,sans-Serif" font-size="10.00">_optimization/wmtk/components</text>
<text text-anchor="start" x="1459" y="-95" font-family="Helvetica,sans-Serif" font-size="10.00">/periodic_optimization/internal</text>
<text text-anchor="middle" x="1539.5" y="-84" font-family="Helvetica,sans-Serif" font-size="10.00">/periodic_optimization.cpp</text>
</a>
</g>
</g>
<!-- Node16&#45;&gt;Node20 -->
<g id="edge21_Node000016_Node000020" class="edge">
<title>Node16&#45;&gt;Node20</title>
<g id="a_edge21_Node000016_Node000020"><a xlink:title=" ">
<path fill="none" stroke="#63b8ff" d="M1807.48,-168.28C1762.83,-158.42 1695.12,-143.21 1636.5,-129 1633.71,-128.32 1630.88,-127.63 1628.02,-126.93"/>
<polygon fill="#63b8ff" stroke="#63b8ff" points="1806.96,-171.75 1817.48,-170.49 1808.46,-164.92 1806.96,-171.75"/>
</a>
</g>
</g>
<!-- Node21 -->
<g id="Node000021" class="node">
<title>Node21</title>
<g id="a_Node000021"><a xlink:href="test__component__fusion_8cpp.html" target="_top" xlink:title=" ">
<polygon fill="white" stroke="#666666" points="3151.5,-118 3019.5,-118 3019.5,-88 3151.5,-88 3151.5,-118"/>
<text text-anchor="start" x="3027.5" y="-106" font-family="Helvetica,sans-Serif" font-size="10.00">components/tests/test</text>
<text text-anchor="middle" x="3085.5" y="-95" font-family="Helvetica,sans-Serif" font-size="10.00">_component_fusion.cpp</text>
</a>
</g>
</g>
<!-- Node16&#45;&gt;Node21 -->
<g id="edge22_Node000016_Node000021" class="edge">
<title>Node16&#45;&gt;Node21</title>
<g id="a_edge22_Node000016_Node000021"><a xlink:title=" ">
<path fill="none" stroke="#63b8ff" d="M1952.16,-178.22C2190.8,-175.74 2807.66,-165.85 3009.5,-129 3022.89,-126.56 3037.17,-122.32 3049.69,-118.02"/>
<polygon fill="#63b8ff" stroke="#63b8ff" points="1952.08,-174.72 1942.12,-178.32 1952.15,-181.72 1952.08,-174.72"/>
</a>
</g>
</g>
<!-- Node22 -->
<g id="Node000022" class="node">
<title>Node22</title>
<g id="a_Node000022"><a xlink:href="test__component__isotropic__remeshing_8cpp.html" target="_top" xlink:title=" ">
<polygon fill="white" stroke="#666666" points="1771,-123.5 1646,-123.5 1646,-82.5 1771,-82.5 1771,-123.5"/>
<text text-anchor="start" x="1654" y="-111.5" font-family="Helvetica,sans-Serif" font-size="10.00">components/tests/test</text>
<text text-anchor="start" x="1654" y="-100.5" font-family="Helvetica,sans-Serif" font-size="10.00">_component_isotropic</text>
<text text-anchor="middle" x="1708.5" y="-89.5" font-family="Helvetica,sans-Serif" font-size="10.00">_remeshing.cpp</text>
</a>
</g>
</g>
<!-- Node16&#45;&gt;Node22 -->
<g id="edge23_Node000016_Node000022" class="edge">
<title>Node16&#45;&gt;Node22</title>
<g id="a_edge23_Node000016_Node000022"><a xlink:title=" ">
<path fill="none" stroke="#63b8ff" d="M1830.35,-165.75C1807.26,-154.05 1773.3,-136.84 1747.09,-123.55"/>
<polygon fill="#63b8ff" stroke="#63b8ff" points="1829.02,-169 1839.52,-170.4 1832.18,-162.75 1829.02,-169"/>
</a>
</g>
</g>
<!-- Node23 -->
<g id="Node000023" class="node">
<title>Node23</title>
<g id="a_Node000023"><a xlink:href="test__component__multimesh__from__tag_8cpp.html" target="_top" xlink:title=" ">
<polygon fill="white" stroke="#666666" points="1923.5,-123.5 1789.5,-123.5 1789.5,-82.5 1923.5,-82.5 1923.5,-123.5"/>
<text text-anchor="start" x="1797.5" y="-111.5" font-family="Helvetica,sans-Serif" font-size="10.00">components/tests/test</text>
<text text-anchor="start" x="1797.5" y="-100.5" font-family="Helvetica,sans-Serif" font-size="10.00">_component_multimesh</text>
<text text-anchor="middle" x="1856.5" y="-89.5" font-family="Helvetica,sans-Serif" font-size="10.00">_from_tag.cpp</text>
</a>
</g>
</g>
<!-- Node16&#45;&gt;Node23 -->
<g id="edge24_Node000016_Node000023" class="edge">
<title>Node16&#45;&gt;Node23</title>
<g id="a_edge24_Node000016_Node000023"><a xlink:title=" ">
<path fill="none" stroke="#63b8ff" d="M1856.5,-160.11C1856.5,-149 1856.5,-134.96 1856.5,-123.71"/>
<polygon fill="#63b8ff" stroke="#63b8ff" points="1853,-160.4 1856.5,-170.4 1860,-160.4 1853,-160.4"/>
</a>
</g>
</g>
<!-- Node24 -->
<g id="Node000024" class="node">
<title>Node24</title>
<g id="a_Node000024"><a xlink:href="test__component__procedural_8cpp.html" target="_top" xlink:title=" ">
<polygon fill="white" stroke="#666666" points="2095.5,-118 1941.5,-118 1941.5,-88 2095.5,-88 2095.5,-118"/>
<text text-anchor="start" x="1949.5" y="-106" font-family="Helvetica,sans-Serif" font-size="10.00">components/tests/test</text>
<text text-anchor="middle" x="2018.5" y="-95" font-family="Helvetica,sans-Serif" font-size="10.00">_component_procedural.cpp</text>
</a>
</g>
</g>
<!-- Node16&#45;&gt;Node24 -->
<g id="edge25_Node000016_Node000024" class="edge">
<title>Node16&#45;&gt;Node24</title>
<g id="a_edge25_Node000016_Node000024"><a xlink:title=" ">
<path fill="none" stroke="#63b8ff" d="M1884.2,-166.17C1913.07,-152.81 1958.16,-131.93 1988.02,-118.11"/>
<polygon fill="#63b8ff" stroke="#63b8ff" points="1882.69,-163.02 1875.08,-170.4 1885.63,-169.37 1882.69,-163.02"/>
</a>
</g>
</g>
<!-- Node25 -->
<g id="Node000025" class="node">
<title>Node25</title>
<g id="a_Node000025"><a xlink:href="test__component__regular__space_8cpp.html" target="_top" xlink:title=" ">
<polygon fill="white" stroke="#666666" points="2283.5,-118 2113.5,-118 2113.5,-88 2283.5,-88 2283.5,-118"/>
<text text-anchor="start" x="2121.5" y="-106" font-family="Helvetica,sans-Serif" font-size="10.00">components/tests/test</text>
<text text-anchor="middle" x="2198.5" y="-95" font-family="Helvetica,sans-Serif" font-size="10.00">_component_regular_space.cpp</text>
</a>
</g>
</g>
<!-- Node16&#45;&gt;Node25 -->
<g id="edge26_Node000016_Node000025" class="edge">
<title>Node16&#45;&gt;Node25</title>
<g id="a_edge26_Node000016_Node000025"><a xlink:title=" ">
<path fill="none" stroke="#63b8ff" d="M1913.35,-168.56C1963.76,-159.06 2039.28,-144.23 2104.5,-129 2118.64,-125.7 2133.89,-121.79 2147.91,-118.06"/>
<polygon fill="#63b8ff" stroke="#63b8ff" points="1912.49,-165.16 1903.31,-170.44 1913.78,-172.04 1912.49,-165.16"/>
</a>
</g>
</g>
<!-- Node26 -->
<g id="Node000026" class="node">
<title>Node26</title>
<g id="a_Node000026"><a xlink:href="test__component__wildmeshing_8cpp.html" target="_top" xlink:title=" ">
<polygon fill="white" stroke="#666666" points="2465.5,-118 2301.5,-118 2301.5,-88 2465.5,-88 2465.5,-118"/>
<text text-anchor="start" x="2309.5" y="-106" font-family="Helvetica,sans-Serif" font-size="10.00">components/tests/test</text>
<text text-anchor="middle" x="2383.5" y="-95" font-family="Helvetica,sans-Serif" font-size="10.00">_component_wildmeshing.cpp</text>
</a>
</g>
</g>
<!-- Node16&#45;&gt;Node26 -->
<g id="edge27_Node000016_Node000026" class="edge">
<title>Node16&#45;&gt;Node26</title>
<g id="a_edge27_Node000016_Node000026"><a xlink:title=" ">
<path fill="none" stroke="#63b8ff" d="M1952.36,-172.27C2041.13,-165.04 2176.54,-151.44 2292.5,-129 2307.3,-126.14 2323.21,-122.1 2337.53,-118.11"/>
<polygon fill="#63b8ff" stroke="#63b8ff" points="1952,-168.79 1942.31,-173.08 1952.56,-175.77 1952,-168.79"/>
</a>
</g>
</g>
<!-- Node27 -->
<g id="Node000027" class="node">
<title>Node27</title>
<g id="a_Node000027"><a xlink:href="wildmeshing_8cpp.html" target="_top" xlink:title=" ">
<polygon fill="white" stroke="#666666" points="2659.5,-123.5 2483.5,-123.5 2483.5,-82.5 2659.5,-82.5 2659.5,-123.5"/>
<text text-anchor="start" x="2491.5" y="-111.5" font-family="Helvetica,sans-Serif" font-size="10.00">components/wildmeshing</text>
<text text-anchor="start" x="2491.5" y="-100.5" font-family="Helvetica,sans-Serif" font-size="10.00">/wmtk/components/wildmeshing</text>
<text text-anchor="middle" x="2571.5" y="-89.5" font-family="Helvetica,sans-Serif" font-size="10.00">/wildmeshing.cpp</text>
</a>
</g>
</g>
<!-- Node16&#45;&gt;Node27 -->
<g id="edge28_Node000016_Node000027" class="edge">
<title>Node16&#45;&gt;Node27</title>
<g id="a_edge28_Node000016_Node000027"><a xlink:title=" ">
<path fill="none" stroke="#63b8ff" d="M1952.1,-176.34C2074.08,-171.8 2291.23,-159.8 2474.5,-129 2483.33,-127.52 2492.54,-125.62 2501.61,-123.53"/>
<polygon fill="#63b8ff" stroke="#63b8ff" points="1951.91,-172.85 1942.04,-176.71 1952.16,-179.84 1951.91,-172.85"/>
</a>
</g>
</g>
<!-- Node28 -->
<g id="Node000028" class="node">
<title>Node28</title>
<g id="a_Node000028"><a xlink:href="_paraview_writer_8cpp.html" target="_top" xlink:title=" ">
<polygon fill="white" stroke="#666666" points="2847.5,-112.5 2677.5,-112.5 2677.5,-93.5 2847.5,-93.5 2847.5,-112.5"/>
<text text-anchor="middle" x="2762.5" y="-100.5" font-family="Helvetica,sans-Serif" font-size="10.00">src/wmtk/io/ParaviewWriter.cpp</text>
</a>
</g>
</g>
<!-- Node16&#45;&gt;Node28 -->
<g id="edge30_Node000016_Node000028" class="edge">
<title>Node16&#45;&gt;Node28</title>
<g id="a_edge30_Node000016_Node000028"><a xlink:title=" ">
<path fill="none" stroke="#63b8ff" d="M1952.44,-179.23C2105.06,-178.22 2412.11,-170.57 2668.5,-129 2691.67,-125.24 2717.39,-118.2 2736.06,-112.54"/>
<polygon fill="#63b8ff" stroke="#63b8ff" points="1952.14,-175.73 1942.16,-179.29 1952.18,-182.73 1952.14,-175.73"/>
</a>
</g>
</g>
<!-- Node29&#45;&gt;Node21 -->
<g id="edge34_Node000029_Node000021" class="edge">
<title>Node29&#45;&gt;Node21</title>
<g id="a_edge34_Node000029_Node000021"><a xlink:title=" ">
<path fill="none" stroke="#63b8ff" d="M3554.59,-175.74C3458.45,-170.75 3296.63,-158.44 3160.5,-129 3147.89,-126.27 3134.43,-122.18 3122.44,-118.09"/>
<polygon fill="#63b8ff" stroke="#63b8ff" points="3554.67,-179.25 3564.84,-176.26 3555.02,-172.26 3554.67,-179.25"/>
</a>
</g>
</g>
<!-- Node30 -->
<g id="Node000030" class="node">
<title>Node30</title>
<g id="a_Node000030"><a xlink:href="get__vf_8cpp.html" target="_top" xlink:title=" ">
<polygon fill="white" stroke="#666666" points="4386,-123.5 4243,-123.5 4243,-82.5 4386,-82.5 4386,-123.5"/>
<text text-anchor="start" x="4251" y="-111.5" font-family="Helvetica,sans-Serif" font-size="10.00">components/CDT/wmtk</text>
<text text-anchor="start" x="4251" y="-100.5" font-family="Helvetica,sans-Serif" font-size="10.00">/components/CDT/internal</text>
<text text-anchor="middle" x="4314.5" y="-89.5" font-family="Helvetica,sans-Serif" font-size="10.00">/get_vf.cpp</text>
</a>
</g>
</g>
<!-- Node29&#45;&gt;Node30 -->
<g id="edge32_Node000029_Node000030" class="edge">
<title>Node29&#45;&gt;Node30</title>
<g id="a_edge32_Node000029_Node000030"><a xlink:title=" ">
<path fill="none" stroke="#63b8ff" d="M3722.39,-177.74C3838.48,-174.68 4054.22,-164.29 4234.5,-129 4241.93,-127.55 4249.64,-125.65 4257.21,-123.56"/>
<polygon fill="#63b8ff" stroke="#63b8ff" points="3722.06,-174.24 3712.15,-177.99 3722.24,-181.24 3722.06,-174.24"/>
</a>
</g>
</g>
<!-- Node31 -->
<g id="Node000031" class="node">
<title>Node31</title>
<g id="a_Node000031"><a xlink:href="fusion_8cpp.html" target="_top" xlink:title=" ">
<polygon fill="white" stroke="#666666" points="3335.5,-118 3169.5,-118 3169.5,-88 3335.5,-88 3335.5,-118"/>
<text text-anchor="start" x="3177.5" y="-106" font-family="Helvetica,sans-Serif" font-size="10.00">components/fusion/wmtk</text>
<text text-anchor="middle" x="3252.5" y="-95" font-family="Helvetica,sans-Serif" font-size="10.00">/components/fusion/fusion.cpp</text>
</a>
</g>
</g>
<!-- Node29&#45;&gt;Node31 -->
<g id="edge33_Node000029_Node000031" class="edge">
<title>Node29&#45;&gt;Node31</title>
<g id="a_edge33_Node000029_Node000031"><a xlink:title=" ">
<path fill="none" stroke="#63b8ff" d="M3554.69,-166.96C3495.65,-157.93 3414.88,-144.51 3344.5,-129 3330.28,-125.87 3314.96,-121.93 3300.98,-118.12"/>
<polygon fill="#63b8ff" stroke="#63b8ff" points="3554.31,-170.44 3564.72,-168.48 3555.36,-163.52 3554.31,-170.44"/>
</a>
</g>
</g>
<!-- Node32 -->
<g id="Node000032" class="node">
<title>Node32</title>
<g id="a_Node000032"><a xlink:href="tetwild__simplification_8cpp.html" target="_top" xlink:title=" ">
<polygon fill="white" stroke="#666666" points="3541.5,-129 3353.5,-129 3353.5,-77 3541.5,-77 3541.5,-129"/>
<text text-anchor="start" x="3361.5" y="-117" font-family="Helvetica,sans-Serif" font-size="10.00">components/tetwild</text>
<text text-anchor="start" x="3361.5" y="-106" font-family="Helvetica,sans-Serif" font-size="10.00">_simplification/wmtk</text>
<text text-anchor="start" x="3361.5" y="-95" font-family="Helvetica,sans-Serif" font-size="10.00">/components/tetwild_simplification</text>
<text text-anchor="middle" x="3447.5" y="-84" font-family="Helvetica,sans-Serif" font-size="10.00">/tetwild_simplification.cpp</text>
</a>
</g>
</g>
<!-- Node29&#45;&gt;Node32 -->
<g id="edge35_Node000029_Node000032" class="edge">
<title>Node29&#45;&gt;Node32</title>
<g id="a_edge35_Node000029_Node000032"><a xlink:title=" ">
<path fill="none" stroke="#63b8ff" d="M3593.2,-161.21C3568.8,-151.63 3538.28,-139.65 3511.49,-129.13"/>
<polygon fill="#63b8ff" stroke="#63b8ff" points="3591.99,-164.5 3602.57,-164.89 3594.55,-157.98 3591.99,-164.5"/>
</a>
</g>
</g>
<!-- Node33 -->
<g id="Node000033" class="node">
<title>Node33</title>
<g id="a_Node000033"><a xlink:href="triangle__insertion_8cpp.html" target="_top" xlink:title=" ">
<polygon fill="white" stroke="#666666" points="3717.5,-129 3559.5,-129 3559.5,-77 3717.5,-77 3717.5,-129"/>
<text text-anchor="start" x="3567.5" y="-117" font-family="Helvetica,sans-Serif" font-size="10.00">components/triangle</text>
<text text-anchor="start" x="3567.5" y="-106" font-family="Helvetica,sans-Serif" font-size="10.00">_insertion/wmtk/components</text>
<text text-anchor="start" x="3567.5" y="-95" font-family="Helvetica,sans-Serif" font-size="10.00">/triangle_insertion/triangle</text>
<text text-anchor="middle" x="3638.5" y="-84" font-family="Helvetica,sans-Serif" font-size="10.00">_insertion.cpp</text>
</a>
</g>
</g>
<!-- Node29&#45;&gt;Node33 -->
<g id="edge36_Node000029_Node000033" class="edge">
<title>Node29&#45;&gt;Node33</title>
<g id="a_edge36_Node000029_Node000033"><a xlink:title=" ">
<path fill="none" stroke="#63b8ff" d="M3638.5,-154.86C3638.5,-146.69 3638.5,-137.54 3638.5,-129.28"/>
<polygon fill="#63b8ff" stroke="#63b8ff" points="3635,-154.89 3638.5,-164.89 3642,-154.89 3635,-154.89"/>
</a>
</g>
</g>
<!-- Node34 -->
<g id="Node000034" class="node">
<title>Node34</title>
<g id="a_Node000034"><a xlink:href="internal_2winding__number_8cpp.html" target="_top" xlink:title=" ">
<polygon fill="white" stroke="#666666" points="3889,-129 3736,-129 3736,-77 3889,-77 3889,-129"/>
<text text-anchor="start" x="3744" y="-117" font-family="Helvetica,sans-Serif" font-size="10.00">components/winding</text>
<text text-anchor="start" x="3744" y="-106" font-family="Helvetica,sans-Serif" font-size="10.00">_number/wmtk/components</text>
<text text-anchor="start" x="3744" y="-95" font-family="Helvetica,sans-Serif" font-size="10.00">/winding_number/internal</text>
<text text-anchor="middle" x="3812.5" y="-84" font-family="Helvetica,sans-Serif" font-size="10.00">/winding_number.cpp</text>
</a>
</g>
</g>
<!-- Node29&#45;&gt;Node34 -->
<g id="edge37_Node000029_Node000034" class="edge">
<title>Node29&#45;&gt;Node34</title>
<g id="a_edge37_Node000029_Node000034"><a xlink:title=" ">
<path fill="none" stroke="#63b8ff" d="M3680.66,-160.83C3702.74,-151.31 3730.12,-139.51 3754.21,-129.13"/>
<polygon fill="#63b8ff" stroke="#63b8ff" points="3679.03,-157.72 3671.23,-164.89 3681.8,-164.15 3679.03,-157.72"/>
</a>
</g>
</g>
<!-- Node35 -->
<g id="Node000035" class="node">
<title>Node35</title>
<g id="a_Node000035"><a xlink:href="winding__number_8cpp.html" target="_top" xlink:title=" ">
<polygon fill="white" stroke="#666666" points="4060,-129 3907,-129 3907,-77 4060,-77 4060,-129"/>
<text text-anchor="start" x="3915" y="-117" font-family="Helvetica,sans-Serif" font-size="10.00">components/winding</text>
<text text-anchor="start" x="3915" y="-106" font-family="Helvetica,sans-Serif" font-size="10.00">_number/wmtk/components</text>
<text text-anchor="start" x="3915" y="-95" font-family="Helvetica,sans-Serif" font-size="10.00">/winding_number/winding</text>
<text text-anchor="middle" x="3983.5" y="-84" font-family="Helvetica,sans-Serif" font-size="10.00">_number.cpp</text>
</a>
</g>
</g>
<!-- Node29&#45;&gt;Node35 -->
<g id="edge38_Node000029_Node000035" class="edge">
<title>Node29&#45;&gt;Node35</title>
<g id="a_edge38_Node000029_Node000035"><a xlink:title=" ">
<path fill="none" stroke="#63b8ff" d="M3722.06,-165.04C3773.26,-155.96 3839.98,-143.2 3898.5,-129 3901.19,-128.35 3903.92,-127.66 3906.68,-126.95"/>
<polygon fill="#63b8ff" stroke="#63b8ff" points="3721.27,-161.62 3712.03,-166.8 3722.49,-168.51 3721.27,-161.62"/>
</a>
</g>
</g>
<!-- Node36 -->
<g id="Node000036" class="node">
<title>Node36</title>
<g id="a_Node000036"><a xlink:href="_eigen_matrix_writer_8cpp.html" target="_top" xlink:title=" ">
<polygon fill="white" stroke="#666666" points="4225,-118 4078,-118 4078,-88 4225,-88 4225,-118"/>
<text text-anchor="start" x="4086" y="-106" font-family="Helvetica,sans-Serif" font-size="10.00">src/wmtk/utils/EigenMatrix</text>
<text text-anchor="middle" x="4151.5" y="-95" font-family="Helvetica,sans-Serif" font-size="10.00">Writer.cpp</text>
</a>
</g>
</g>
<!-- Node29&#45;&gt;Node36 -->
<g id="edge39_Node000029_Node000036" class="edge">
<title>Node29&#45;&gt;Node36</title>
<g id="a_edge39_Node000029_Node000036"><a xlink:title=" ">
<path fill="none" stroke="#63b8ff" d="M3722.48,-173.76C3809.87,-167.26 3950.33,-153.87 4069.5,-129 4083.05,-126.17 4097.58,-122.1 4110.58,-118.06"/>
<polygon fill="#63b8ff" stroke="#63b8ff" points="3722.08,-170.28 3712.36,-174.5 3722.59,-177.26 3722.08,-170.28"/>
</a>
</g>
</g>
</g>
</svg>

<g id="navigator" transform="translate(0 0)" fill="#404254">
  <rect fill="#f2f5e9" fill-opacity="0.5" stroke="#606060" stroke-width=".5" x="0" y="0" width="60" height="60"/>
  <use id="zoomplus" xlink:href="#zoomPlus" x="17" y="9" onmousedown="handleZoom(evt,'in')"/>
  <use id="zoomminus" xlink:href="#zoomMin" x="42" y="9" onmousedown="handleZoom(evt,'out')"/>
  <use id="reset" xlink:href="#resetDef" x="30" y="36" onmousedown="handleReset()"/>
   <use id="arrowup" xlink:href="#arrowUp" x="0" y="0" onmousedown="handlePan(0,-1)"/>
  <use id="arrowright" xlink:href="#arrowRight" x="0" y="0" onmousedown="handlePan(1,0)"/>
  <use id="arrowdown" xlink:href="#arrowDown" x="0" y="0" onmousedown="handlePan(0,1)"/>
  <use id="arrowleft" xlink:href="#arrowLeft" x="0" y="0" onmousedown="handlePan(-1,0)"/>
</g>
<svg viewBox="0 0 15 15" width="100%" height="30px" preserveAspectRatio="xMaxYMin meet">
 <g id="arrow_out" transform="scale(0.3 0.3)">
  <a xlink:href="_mesh_writer_8hpp__dep__incl_org.svg" target="_base">
   <rect id="button" ry="5" rx="5" y="6" x="6" height="38" width="38"
        fill="#f2f5e9" fill-opacity="0.5" stroke="#606060" stroke-width="1.0"/>
   <path id="arrow"
     d="M 11.500037,31.436501 C 11.940474,20.09759 22.043105,11.32322 32.158766,21.979434 L 37.068811,17.246167 C 37.068811,17.246167 37.088388,32 37.088388,32 L 22.160133,31.978069 C 22.160133,31.978069 26.997745,27.140456 26.997745,27.140456 C 18.528582,18.264221 13.291696,25.230495 11.500037,31.436501 z"
     style="fill:#404040;"/>
  </a>
 </g>
</svg>

<style type='text/css'>
<![CDATA[
[data-mouse-over-selected='false'] { opacity: 0.7; }
[data-mouse-over-selected='true']  { opacity: 1.0; }
]]>
</style>
<script type="application/ecmascript"><![CDATA[
document.addEventListener('DOMContentLoaded', (event) => {
  highlightEdges();
  highlightAdjacentNodes();
});
]]></script>
</svg>
