<?xml version="1.0" encoding="UTF-8" standalone="no"?>
<!DOCTYPE svg PUBLIC "-//W3C//DTD SVG 1.1//EN"
 "http://www.w3.org/Graphics/SVG/1.1/DTD/svg11.dtd">
<!-- Generated by graphviz version 2.43.0 (0)
 -->
<!-- Title: src/wmtk/io/MshReader.hpp Pages: 1 -->
<!--zoomable 247 -->

<svg id="main" version="1.1" xmlns="http://www.w3.org/2000/svg" xmlns:xlink="http://www.w3.org/1999/xlink" xml:space="preserve" onload="init(evt)">
<style type="text/css"><![CDATA[
.node, .edge {opacity: 0.7;}
.node.selected, .edge.selected {opacity: 1;}
.edge:hover path { stroke: red; }
.edge:hover polygon { stroke: red; fill: red; }
]]></style>

<defs>
  <circle id="rim" cx="0" cy="0" r="7"/>
  <circle id="rim2" cx="0" cy="0" r="3.5"/>
  <g id="zoomPlus">
    <use xlink:href="#rim" fill="#404040"><set attributeName="fill" to="#808080" begin="zoomplus.mouseover" end="zoomplus.mouseout"/></use>
    <path d="M-4,0h8M0,-4v8" fill="none" stroke="white" stroke-width="1.5" pointer-events="none"/>
  </g>
  <g id="zoomMin">
    <use xlink:href="#rim" fill="#404040"><set attributeName="fill" to="#808080" begin="zoomminus.mouseover" end="zoomminus.mouseout"/></use>
    <path d="M-4,0h8" fill="none" stroke="white" stroke-width="1.5" pointer-events="none"/>
  </g>
  <g id="arrowUp" transform="translate(30 24)">
    <use xlink:href="#rim"/>
    <path pointer-events="none" fill="none" stroke="white" stroke-width="1.5" d="M0,-3.0v7 M-2.5,-0.5L0,-3.0L2.5,-0.5"/>
  </g>
  <g id="arrowRight" transform="rotate(90) translate(36 -43)">
    <use xlink:href="#rim"/>
    <path pointer-events="none" fill="none" stroke="white" stroke-width="1.5" d="M0,-3.0v7 M-2.5,-0.5L0,-3.0L2.5,-0.5"/>
  </g>
  <g id="arrowDown" transform="rotate(180) translate(-30 -48)">
    <use xlink:href="#rim"/>
    <path pointer-events="none" fill="none" stroke="white" stroke-width="1.5" d="M0,-3.0v7 M-2.5,-0.5L0,-3.0L2.5,-0.5"/>
  </g>
  <g id="arrowLeft" transform="rotate(270) translate(-36 17)">
    <use xlink:href="#rim"/>
    <path pointer-events="none" fill="none" stroke="white" stroke-width="1.5" d="M0,-3.0v7 M-2.5,-0.5L0,-3.0L2.5,-0.5"/>
  </g>
  <g id="resetDef">
    <use xlink:href="#rim2" fill="#404040"><set attributeName="fill" to="#808080" begin="reset.mouseover" end="reset.mouseout"/></use>
  </g>
</defs>
<script type="application/ecmascript">
var viewWidth = 1696;
var viewHeight = 247;
var sectionId = 'dynsection-1';
</script>
<script type="application/ecmascript" xlink:href="svg.min.js"/>
<svg id="graph" class="graph">
<g id="viewport">
<title>src/wmtk/io/MshReader.hpp</title>
<!-- Node1 -->
<g id="Node000001" class="node">
<title>Node1</title>
<g id="a_Node000001"><a xlink:title=" ">
<polygon fill="#999999" stroke="#666666" points="1060.5,-239 908.5,-239 908.5,-220 1060.5,-220 1060.5,-239"/>
<text text-anchor="middle" x="984.5" y="-227" font-family="Helvetica,sans-Serif" font-size="10.00">src/wmtk/io/MshReader.hpp</text>
</a>
</g>
</g>
<!-- Node2 -->
<g id="Node000002" class="node">
<title>Node2</title>
<g id="a_Node000002"><a xlink:href="_mesh_reader_8hpp.html" target="_top" xlink:title=" ">
<polygon fill="white" stroke="#666666" points="977.5,-184 819.5,-184 819.5,-165 977.5,-165 977.5,-184"/>
<text text-anchor="middle" x="898.5" y="-172" font-family="Helvetica,sans-Serif" font-size="10.00">src/wmtk/io/MeshReader.hpp</text>
</a>
</g>
</g>
<!-- Node1&#45;&gt;Node2 -->
<g id="edge1_Node000001_Node000002" class="edge">
<title>Node1&#45;&gt;Node2</title>
<g id="a_edge1_Node000001_Node000002"><a xlink:title=" ">
<path fill="none" stroke="#63b8ff" d="M962.1,-214.7C946.43,-205.04 925.99,-192.44 912.57,-184.17"/>
<polygon fill="#63b8ff" stroke="#63b8ff" points="960.33,-217.72 970.68,-219.98 964.01,-211.76 960.33,-217.72"/>
</a>
</g>
</g>
<!-- Node15 -->
<g id="Node000015" class="node">
<title>Node15</title>
<g id="a_Node000015"><a xlink:href="_msh_reader_8cpp.html" target="_top" xlink:title=" ">
<polygon fill="white" stroke="#666666" points="1147,-184 996,-184 996,-165 1147,-165 1147,-184"/>
<text text-anchor="middle" x="1071.5" y="-172" font-family="Helvetica,sans-Serif" font-size="10.00">src/wmtk/io/MshReader.cpp</text>
</a>
</g>
</g>
<!-- Node1&#45;&gt;Node15 -->
<g id="edge15_Node000001_Node000015" class="edge">
<title>Node1&#45;&gt;Node15</title>
<g id="a_edge15_Node000001_Node000015"><a xlink:title=" ">
<path fill="none" stroke="#63b8ff" d="M1007.16,-214.7C1023.01,-205.04 1043.69,-192.44 1057.27,-184.17"/>
<polygon fill="#63b8ff" stroke="#63b8ff" points="1005.2,-211.79 998.48,-219.98 1008.84,-217.77 1005.2,-211.79"/>
</a>
</g>
</g>
<!-- Node3 -->
<g id="Node000003" class="node">
<title>Node3</title>
<g id="a_Node000003"><a xlink:href="input_8cpp.html" target="_top" xlink:title=" ">
<polygon fill="white" stroke="#666666" points="155,-118 0,-118 0,-88 155,-88 155,-118"/>
<text text-anchor="start" x="8" y="-106" font-family="Helvetica,sans-Serif" font-size="10.00">components/input/wmtk</text>
<text text-anchor="middle" x="77.5" y="-95" font-family="Helvetica,sans-Serif" font-size="10.00">/components/input/input.cpp</text>
</a>
</g>
</g>
<!-- Node2&#45;&gt;Node3 -->
<g id="edge2_Node000002_Node000003" class="edge">
<title>Node2&#45;&gt;Node3</title>
<g id="a_edge2_Node000002_Node000003"><a xlink:title=" ">
<path fill="none" stroke="#63b8ff" d="M809.06,-174.46C669.94,-174.52 393.75,-168.92 163.5,-129 148.79,-126.45 133.02,-122.3 119.05,-118.1"/>
<polygon fill="#63b8ff" stroke="#63b8ff" points="809.25,-177.96 819.25,-174.44 809.24,-170.96 809.25,-177.96"/>
</a>
</g>
</g>
<!-- Node4 -->
<g id="Node000004" class="node">
<title>Node4</title>
<g id="a_Node000004"><a xlink:href="tests_2marching_8cpp.html" target="_top" xlink:title=" ">
<polygon fill="white" stroke="#666666" points="332,-123.5 173,-123.5 173,-82.5 332,-82.5 332,-123.5"/>
<text text-anchor="start" x="181" y="-111.5" font-family="Helvetica,sans-Serif" font-size="10.00">components/marching</text>
<text text-anchor="start" x="181" y="-100.5" font-family="Helvetica,sans-Serif" font-size="10.00">/wmtk/components/marching</text>
<text text-anchor="middle" x="252.5" y="-89.5" font-family="Helvetica,sans-Serif" font-size="10.00">/tests/marching.cpp</text>
</a>
</g>
</g>
<!-- Node2&#45;&gt;Node4 -->
<g id="edge3_Node000002_Node000004" class="edge">
<title>Node2&#45;&gt;Node4</title>
<g id="a_edge3_Node000002_Node000004"><a xlink:title=" ">
<path fill="none" stroke="#63b8ff" d="M809.2,-171.79C698.43,-168.43 504.2,-158.48 340.5,-129 332.37,-127.54 323.92,-125.64 315.6,-123.54"/>
<polygon fill="#63b8ff" stroke="#63b8ff" points="809.23,-175.29 819.32,-172.09 809.43,-168.3 809.23,-175.29"/>
</a>
</g>
</g>
<!-- Node5 -->
<g id="Node000005" class="node">
<title>Node5</title>
<g id="a_Node000005"><a xlink:href="multimesh__from__tag_8cpp.html" target="_top" xlink:title=" ">
<polygon fill="white" stroke="#666666" points="527,-129 350,-129 350,-77 527,-77 527,-129"/>
<text text-anchor="start" x="358" y="-117" font-family="Helvetica,sans-Serif" font-size="10.00">components/multimesh</text>
<text text-anchor="start" x="358" y="-106" font-family="Helvetica,sans-Serif" font-size="10.00">_from_tag/wmtk/components</text>
<text text-anchor="start" x="358" y="-95" font-family="Helvetica,sans-Serif" font-size="10.00">/multimesh_from_tag/multimesh</text>
<text text-anchor="middle" x="438.5" y="-84" font-family="Helvetica,sans-Serif" font-size="10.00">_from_tag.cpp</text>
</a>
</g>
</g>
<!-- Node2&#45;&gt;Node5 -->
<g id="edge4_Node000002_Node000005" class="edge">
<title>Node2&#45;&gt;Node5</title>
<g id="a_edge4_Node000002_Node000005"><a xlink:title=" ">
<path fill="none" stroke="#63b8ff" d="M809.26,-165.83C735.47,-158.71 628.15,-146.54 535.5,-129 532.77,-128.48 529.99,-127.93 527.2,-127.35"/>
<polygon fill="#63b8ff" stroke="#63b8ff" points="809.16,-169.34 819.44,-166.8 809.82,-162.37 809.16,-169.34"/>
</a>
</g>
</g>
<!-- Node6 -->
<g id="Node000006" class="node">
<title>Node6</title>
<g id="a_Node000006"><a xlink:href="internal_2periodic__optimization_8cpp.html" target="_top" xlink:title=" ">
<polygon fill="white" stroke="#666666" points="722,-129 545,-129 545,-77 722,-77 722,-129"/>
<text text-anchor="start" x="553" y="-117" font-family="Helvetica,sans-Serif" font-size="10.00">components/periodic</text>
<text text-anchor="start" x="553" y="-106" font-family="Helvetica,sans-Serif" font-size="10.00">_optimization/wmtk/components</text>
<text text-anchor="start" x="553" y="-95" font-family="Helvetica,sans-Serif" font-size="10.00">/periodic_optimization/internal</text>
<text text-anchor="middle" x="633.5" y="-84" font-family="Helvetica,sans-Serif" font-size="10.00">/periodic_optimization.cpp</text>
</a>
</g>
</g>
<!-- Node2&#45;&gt;Node6 -->
<g id="edge5_Node000002_Node000006" class="edge">
<title>Node2&#45;&gt;Node6</title>
<g id="a_edge5_Node000002_Node000006"><a xlink:title=" ">
<path fill="none" stroke="#63b8ff" d="M856.32,-162.44C820.32,-153 767.33,-139.1 722.06,-127.23"/>
<polygon fill="#63b8ff" stroke="#63b8ff" points="855.45,-165.83 866.01,-164.98 857.22,-159.06 855.45,-165.83"/>
</a>
</g>
</g>
<!-- Node7 -->
<g id="Node000007" class="node">
<title>Node7</title>
<g id="a_Node000007"><a xlink:href="_tag_intersection_8hpp.html" target="_top" xlink:title=" ">
<polygon fill="white" stroke="#666666" points="932.5,-123.5 740.5,-123.5 740.5,-82.5 932.5,-82.5 932.5,-123.5"/>
<text text-anchor="start" x="748.5" y="-111.5" font-family="Helvetica,sans-Serif" font-size="10.00">components/tag_intersection</text>
<text text-anchor="start" x="748.5" y="-100.5" font-family="Helvetica,sans-Serif" font-size="10.00">/wmtk/components/tag_intersection</text>
<text text-anchor="middle" x="836.5" y="-89.5" font-family="Helvetica,sans-Serif" font-size="10.00">/internal/TagIntersection.hpp</text>
</a>
</g>
</g>
<!-- Node2&#45;&gt;Node7 -->
<g id="edge6_Node000002_Node000007" class="edge">
<title>Node2&#45;&gt;Node7</title>
<g id="a_edge6_Node000002_Node000007"><a xlink:title=" ">
<path fill="none" stroke="#63b8ff" d="M884.09,-157.35C875.13,-147.3 863.54,-134.32 854.05,-123.67"/>
<polygon fill="#63b8ff" stroke="#63b8ff" points="881.63,-159.85 890.9,-164.98 886.85,-155.19 881.63,-159.85"/>
</a>
</g>
</g>
<!-- Node9 -->
<g id="Node000009" class="node">
<title>Node9</title>
<g id="a_Node000009"><a xlink:href="tag__intersection_8cpp.html" target="_top" xlink:title=" ">
<polygon fill="white" stroke="#666666" points="1096.5,-41 904.5,-41 904.5,0 1096.5,0 1096.5,-41"/>
<text text-anchor="start" x="912.5" y="-29" font-family="Helvetica,sans-Serif" font-size="10.00">components/tag_intersection</text>
<text text-anchor="start" x="912.5" y="-18" font-family="Helvetica,sans-Serif" font-size="10.00">/wmtk/components/tag_intersection</text>
<text text-anchor="middle" x="1000.5" y="-7" font-family="Helvetica,sans-Serif" font-size="10.00">/tag_intersection.cpp</text>
</a>
</g>
</g>
<!-- Node2&#45;&gt;Node9 -->
<g id="edge10_Node000002_Node000009" class="edge">
<title>Node2&#45;&gt;Node9</title>
<g id="a_edge10_Node000002_Node000009"><a xlink:title=" ">
<path fill="none" stroke="#63b8ff" d="M915.59,-157.9C923.97,-149.76 933.87,-139.36 941.5,-129 962.59,-100.38 981.27,-63.35 991.71,-41.07"/>
<polygon fill="#63b8ff" stroke="#63b8ff" points="913.01,-155.52 908.15,-164.94 917.82,-160.61 913.01,-155.52"/>
</a>
</g>
</g>
<!-- Node11 -->
<g id="Node000011" class="node">
<title>Node11</title>
<g id="a_Node000011"><a xlink:href="wildmeshing_8cpp.html" target="_top" xlink:title=" ">
<polygon fill="white" stroke="#666666" points="1164.5,-123.5 988.5,-123.5 988.5,-82.5 1164.5,-82.5 1164.5,-123.5"/>
<text text-anchor="start" x="996.5" y="-111.5" font-family="Helvetica,sans-Serif" font-size="10.00">components/wildmeshing</text>
<text text-anchor="start" x="996.5" y="-100.5" font-family="Helvetica,sans-Serif" font-size="10.00">/wmtk/components/wildmeshing</text>
<text text-anchor="middle" x="1076.5" y="-89.5" font-family="Helvetica,sans-Serif" font-size="10.00">/wildmeshing.cpp</text>
</a>
</g>
</g>
<!-- Node2&#45;&gt;Node11 -->
<g id="edge11_Node000002_Node000011" class="edge">
<title>Node2&#45;&gt;Node11</title>
<g id="a_edge11_Node000002_Node000011"><a xlink:title=" ">
<path fill="none" stroke="#63b8ff" d="M929.93,-161.23C956.65,-150.79 995.5,-135.63 1026.49,-123.53"/>
<polygon fill="#63b8ff" stroke="#63b8ff" points="928.37,-158.08 920.33,-164.98 930.91,-164.6 928.37,-158.08"/>
</a>
</g>
</g>
<!-- Node12 -->
<g id="Node000012" class="node">
<title>Node12</title>
<g id="a_Node000012"><a xlink:href="_cache_8cpp.html" target="_top" xlink:title=" ">
<polygon fill="white" stroke="#666666" points="1310,-112.5 1183,-112.5 1183,-93.5 1310,-93.5 1310,-112.5"/>
<text text-anchor="middle" x="1246.5" y="-100.5" font-family="Helvetica,sans-Serif" font-size="10.00">src/wmtk/io/Cache.cpp</text>
</a>
</g>
</g>
<!-- Node2&#45;&gt;Node12 -->
<g id="edge12_Node000002_Node000012" class="edge">
<title>Node2&#45;&gt;Node12</title>
<g id="a_edge12_Node000002_Node000012"><a xlink:title=" ">
<path fill="none" stroke="#63b8ff" d="M982.46,-163.67C1037.31,-156.33 1110.23,-144.83 1173.5,-129 1191.04,-124.61 1210.39,-117.9 1224.75,-112.53"/>
<polygon fill="#63b8ff" stroke="#63b8ff" points="981.89,-160.22 972.43,-164.99 982.8,-167.16 981.89,-160.22"/>
</a>
</g>
</g>
<!-- Node13 -->
<g id="Node000013" class="node">
<title>Node13</title>
<g id="a_Node000013"><a xlink:href="_cached_multi_mesh_8cpp.html" target="_top" xlink:title=" ">
<polygon fill="white" stroke="#666666" points="1512.5,-112.5 1328.5,-112.5 1328.5,-93.5 1512.5,-93.5 1512.5,-112.5"/>
<text text-anchor="middle" x="1420.5" y="-100.5" font-family="Helvetica,sans-Serif" font-size="10.00">src/wmtk/io/CachedMultiMesh.cpp</text>
</a>
</g>
</g>
<!-- Node2&#45;&gt;Node13 -->
<g id="edge13_Node000002_Node000013" class="edge">
<title>Node2&#45;&gt;Node13</title>
<g id="a_edge13_Node000002_Node000013"><a xlink:title=" ">
<path fill="none" stroke="#63b8ff" d="M987.87,-164.71C1101.76,-153.41 1287.75,-134.58 1319.5,-129 1343.7,-124.75 1370.69,-117.96 1390.68,-112.53"/>
<polygon fill="#63b8ff" stroke="#63b8ff" points="987.37,-161.25 977.76,-165.72 988.06,-168.21 987.37,-161.25"/>
</a>
</g>
</g>
<!-- Node14 -->
<g id="Node000014" class="node">
<title>Node14</title>
<g id="a_Node000014"><a xlink:href="_mesh_reader_8cpp.html" target="_top" xlink:title=" ">
<polygon fill="white" stroke="#666666" points="1688,-112.5 1531,-112.5 1531,-93.5 1688,-93.5 1688,-112.5"/>
<text text-anchor="middle" x="1609.5" y="-100.5" font-family="Helvetica,sans-Serif" font-size="10.00">src/wmtk/io/MeshReader.cpp</text>
</a>
</g>
</g>
<!-- Node2&#45;&gt;Node14 -->
<g id="edge14_Node000002_Node000014" class="edge">
<title>Node2&#45;&gt;Node14</title>
<g id="a_edge14_Node000002_Node000014"><a xlink:title=" ">
<path fill="none" stroke="#63b8ff" d="M987.62,-165.03C1226.33,-146.34 1290.34,-169.17 1521.5,-129 1543.25,-125.22 1567.33,-118.17 1584.79,-112.52"/>
<polygon fill="#63b8ff" stroke="#63b8ff" points="987.28,-161.55 977.59,-165.83 987.84,-168.52 987.28,-161.55"/>
</a>
</g>
</g>
<!-- Node8 -->
<g id="Node000008" class="node">
<title>Node8</title>
<g id="a_Node000008"><a xlink:href="_tag_intersection_8cpp.html" target="_top" xlink:title=" ">
<polygon fill="white" stroke="#666666" points="686.5,-41 494.5,-41 494.5,0 686.5,0 686.5,-41"/>
<text text-anchor="start" x="502.5" y="-29" font-family="Helvetica,sans-Serif" font-size="10.00">components/tag_intersection</text>
<text text-anchor="start" x="502.5" y="-18" font-family="Helvetica,sans-Serif" font-size="10.00">/wmtk/components/tag_intersection</text>
<text text-anchor="middle" x="590.5" y="-7" font-family="Helvetica,sans-Serif" font-size="10.00">/internal/TagIntersection.cpp</text>
</a>
</g>
</g>
<!-- Node7&#45;&gt;Node8 -->
<g id="edge7_Node000007_Node000008" class="edge">
<title>Node7&#45;&gt;Node8</title>
<g id="a_edge7_Node000007_Node000008"><a xlink:title=" ">
<path fill="none" stroke="#63b8ff" d="M766.97,-79.25C730.16,-67.2 685.43,-52.56 650.21,-41.04"/>
<polygon fill="#63b8ff" stroke="#63b8ff" points="766.04,-82.63 776.64,-82.41 768.22,-75.97 766.04,-82.63"/>
</a>
</g>
</g>
<!-- Node7&#45;&gt;Node9 -->
<g id="edge8_Node000007_Node000009" class="edge">
<title>Node7&#45;&gt;Node9</title>
<g id="a_edge8_Node000007_Node000009"><a xlink:title=" ">
<path fill="none" stroke="#63b8ff" d="M885.87,-77.77C909.74,-66.05 938.01,-52.17 960.51,-41.13"/>
<polygon fill="#63b8ff" stroke="#63b8ff" points="884.05,-74.76 876.62,-82.31 887.14,-81.04 884.05,-74.76"/>
</a>
</g>
</g>
<!-- Node10 -->
<g id="Node000010" class="node">
<title>Node10</title>
<g id="a_Node000010"><a xlink:href="test__component__tag__intersection_8cpp.html" target="_top" xlink:title=" ">
<polygon fill="white" stroke="#666666" points="886,-35.5 705,-35.5 705,-5.5 886,-5.5 886,-35.5"/>
<text text-anchor="start" x="713" y="-23.5" font-family="Helvetica,sans-Serif" font-size="10.00">components/tests/test</text>
<text text-anchor="middle" x="795.5" y="-12.5" font-family="Helvetica,sans-Serif" font-size="10.00">_component_tag_intersection.cpp</text>
</a>
</g>
</g>
<!-- Node7&#45;&gt;Node10 -->
<g id="edge9_Node000007_Node000010" class="edge">
<title>Node7&#45;&gt;Node10</title>
<g id="a_edge9_Node000007_Node000010"><a xlink:title=" ">
<path fill="none" stroke="#63b8ff" d="M821.67,-72.87C815.26,-60.29 808.04,-46.13 802.82,-35.87"/>
<polygon fill="#63b8ff" stroke="#63b8ff" points="818.71,-74.78 826.37,-82.1 824.95,-71.6 818.71,-74.78"/>
</a>
</g>
</g>
</g>
</svg>

<g id="navigator" transform="translate(0 0)" fill="#404254">
  <rect fill="#f2f5e9" fill-opacity="0.5" stroke="#606060" stroke-width=".5" x="0" y="0" width="60" height="60"/>
  <use id="zoomplus" xlink:href="#zoomPlus" x="17" y="9" onmousedown="handleZoom(evt,'in')"/>
  <use id="zoomminus" xlink:href="#zoomMin" x="42" y="9" onmousedown="handleZoom(evt,'out')"/>
  <use id="reset" xlink:href="#resetDef" x="30" y="36" onmousedown="handleReset()"/>
   <use id="arrowup" xlink:href="#arrowUp" x="0" y="0" onmousedown="handlePan(0,-1)"/>
  <use id="arrowright" xlink:href="#arrowRight" x="0" y="0" onmousedown="handlePan(1,0)"/>
  <use id="arrowdown" xlink:href="#arrowDown" x="0" y="0" onmousedown="handlePan(0,1)"/>
  <use id="arrowleft" xlink:href="#arrowLeft" x="0" y="0" onmousedown="handlePan(-1,0)"/>
</g>
<svg viewBox="0 0 15 15" width="100%" height="30px" preserveAspectRatio="xMaxYMin meet">
 <g id="arrow_out" transform="scale(0.3 0.3)">
  <a xlink:href="_msh_reader_8hpp__dep__incl_org.svg" target="_base">
   <rect id="button" ry="5" rx="5" y="6" x="6" height="38" width="38"
        fill="#f2f5e9" fill-opacity="0.5" stroke="#606060" stroke-width="1.0"/>
   <path id="arrow"
     d="M 11.500037,31.436501 C 11.940474,20.09759 22.043105,11.32322 32.158766,21.979434 L 37.068811,17.246167 C 37.068811,17.246167 37.088388,32 37.088388,32 L 22.160133,31.978069 C 22.160133,31.978069 26.997745,27.140456 26.997745,27.140456 C 18.528582,18.264221 13.291696,25.230495 11.500037,31.436501 z"
     style="fill:#404040;"/>
  </a>
 </g>
</svg>

<style type='text/css'>
<![CDATA[
[data-mouse-over-selected='false'] { opacity: 0.7; }
[data-mouse-over-selected='true']  { opacity: 1.0; }
]]>
</style>
<script type="application/ecmascript"><![CDATA[
document.addEventListener('DOMContentLoaded', (event) => {
  highlightEdges();
  highlightAdjacentNodes();
});
]]></script>
</svg>
