<?xml version="1.0" encoding="UTF-8" standalone="no"?>
<!DOCTYPE svg PUBLIC "-//W3C//DTD SVG 1.1//EN"
 "http://www.w3.org/Graphics/SVG/1.1/DTD/svg11.dtd">
<!-- Generated by graphviz version 2.43.0 (0)
 -->
<!-- Title: src/wmtk/operations/attribute_new/NewAttributeStrategy.hpp Pages: 1 -->
<!--zoomable 456 -->

<svg id="main" version="1.1" xmlns="http://www.w3.org/2000/svg" xmlns:xlink="http://www.w3.org/1999/xlink" xml:space="preserve" onload="init(evt)">
<style type="text/css"><![CDATA[
.node, .edge {opacity: 0.7;}
.node.selected, .edge.selected {opacity: 1;}
.edge:hover path { stroke: red; }
.edge:hover polygon { stroke: red; fill: red; }
]]></style>

<defs>
  <circle id="rim" cx="0" cy="0" r="7"/>
  <circle id="rim2" cx="0" cy="0" r="3.5"/>
  <g id="zoomPlus">
    <use xlink:href="#rim" fill="#404040"><set attributeName="fill" to="#808080" begin="zoomplus.mouseover" end="zoomplus.mouseout"/></use>
    <path d="M-4,0h8M0,-4v8" fill="none" stroke="white" stroke-width="1.5" pointer-events="none"/>
  </g>
  <g id="zoomMin">
    <use xlink:href="#rim" fill="#404040"><set attributeName="fill" to="#808080" begin="zoomminus.mouseover" end="zoomminus.mouseout"/></use>
    <path d="M-4,0h8" fill="none" stroke="white" stroke-width="1.5" pointer-events="none"/>
  </g>
  <g id="arrowUp" transform="translate(30 24)">
    <use xlink:href="#rim"/>
    <path pointer-events="none" fill="none" stroke="white" stroke-width="1.5" d="M0,-3.0v7 M-2.5,-0.5L0,-3.0L2.5,-0.5"/>
  </g>
  <g id="arrowRight" transform="rotate(90) translate(36 -43)">
    <use xlink:href="#rim"/>
    <path pointer-events="none" fill="none" stroke="white" stroke-width="1.5" d="M0,-3.0v7 M-2.5,-0.5L0,-3.0L2.5,-0.5"/>
  </g>
  <g id="arrowDown" transform="rotate(180) translate(-30 -48)">
    <use xlink:href="#rim"/>
    <path pointer-events="none" fill="none" stroke="white" stroke-width="1.5" d="M0,-3.0v7 M-2.5,-0.5L0,-3.0L2.5,-0.5"/>
  </g>
  <g id="arrowLeft" transform="rotate(270) translate(-36 17)">
    <use xlink:href="#rim"/>
    <path pointer-events="none" fill="none" stroke="white" stroke-width="1.5" d="M0,-3.0v7 M-2.5,-0.5L0,-3.0L2.5,-0.5"/>
  </g>
  <g id="resetDef">
    <use xlink:href="#rim2" fill="#404040"><set attributeName="fill" to="#808080" begin="reset.mouseover" end="reset.mouseout"/></use>
  </g>
</defs>
<script type="application/ecmascript">
var viewWidth = 940;
var viewHeight = 456;
var sectionId = 'dynsection-0';
</script>
<script type="application/ecmascript" xlink:href="svg.min.js"/>
<svg id="graph" class="graph">
<g id="viewport">
<title>src/wmtk/operations/attribute_new/NewAttributeStrategy.hpp</title>
<!-- Node1 -->
<g id="Node000001" class="node">
<title>Node1</title>
<g id="a_Node000001"><a xlink:title=" ">
<polygon fill="#999999" stroke="#666666" points="624,-448 469,-448 469,-407 624,-407 624,-448"/>
<text text-anchor="start" x="477" y="-436" font-family="Helvetica,sans-Serif" font-size="10.00">src/wmtk/operations</text>
<text text-anchor="start" x="477" y="-425" font-family="Helvetica,sans-Serif" font-size="10.00">/attribute_new/NewAttribute</text>
<text text-anchor="middle" x="546.5" y="-414" font-family="Helvetica,sans-Serif" font-size="10.00">Strategy.hpp</text>
</a>
</g>
</g>
<!-- Node2 -->
<g id="Node000002" class="node">
<title>Node2</title>
<g id="a_Node000002"><a xlink:title=" ">
<polygon fill="#e0e0e0" stroke="#999999" points="65,-365.5 0,-365.5 0,-346.5 65,-346.5 65,-365.5"/>
<text text-anchor="middle" x="32.5" y="-353.5" font-family="Helvetica,sans-Serif" font-size="10.00">functional</text>
</a>
</g>
</g>
<!-- Node1&#45;&gt;Node2 -->
<g id="edge1_Node000001_Node000002" class="edge">
<title>Node1&#45;&gt;Node2</title>
<g id="a_edge1_Node000001_Node000002"><a xlink:title=" ">
<path fill="none" stroke="#63b8ff" d="M469,-421.37C375.81,-414.27 215.02,-399.02 79.5,-371 75.78,-370.23 71.93,-369.3 68.1,-368.3"/>
<polygon fill="#63b8ff" stroke="#63b8ff" points="68.73,-364.84 58.16,-365.51 66.84,-371.58 68.73,-364.84"/>
</a>
</g>
</g>
<!-- Node3 -->
<g id="Node000003" class="node">
<title>Node3</title>
<g id="a_Node000003"><a xlink:href="_primitive_type_8hpp.html" target="_top" xlink:title=" ">
<polygon fill="white" stroke="#666666" points="194,-74 59,-74 59,-55 194,-55 194,-74"/>
<text text-anchor="middle" x="126.5" y="-62" font-family="Helvetica,sans-Serif" font-size="10.00">wmtk/PrimitiveType.hpp</text>
</a>
</g>
</g>
<!-- Node1&#45;&gt;Node3 -->
<g id="edge2_Node000001_Node000003" class="edge">
<title>Node1&#45;&gt;Node3</title>
<g id="a_edge2_Node000001_Node000003"><a xlink:title=" ">
<path fill="none" stroke="#63b8ff" d="M468.88,-419.37C339.43,-405.31 93.5,-368.42 93.5,-291 93.5,-291 93.5,-291 93.5,-173.5 93.5,-140.63 107.66,-104.49 117.43,-83.46"/>
<polygon fill="#63b8ff" stroke="#63b8ff" points="120.71,-84.71 121.91,-74.18 114.41,-81.66 120.71,-84.71"/>
</a>
</g>
</g>
<!-- Node7 -->
<g id="Node000007" class="node">
<title>Node7</title>
<g id="a_Node000007"><a xlink:href="_types_8hpp.html" target="_top" xlink:title=" ">
<polygon fill="white" stroke="#666666" points="814.5,-184 718.5,-184 718.5,-165 814.5,-165 814.5,-184"/>
<text text-anchor="middle" x="766.5" y="-172" font-family="Helvetica,sans-Serif" font-size="10.00">wmtk/Types.hpp</text>
</a>
</g>
</g>
<!-- Node1&#45;&gt;Node7 -->
<g id="edge6_Node000001_Node000007" class="edge">
<title>Node1&#45;&gt;Node7</title>
<g id="a_edge6_Node000001_Node000007"><a xlink:title=" ">
<path fill="none" stroke="#63b8ff" d="M563.76,-406.8C605.82,-358.82 713.01,-236.53 752.02,-192.02"/>
<polygon fill="#63b8ff" stroke="#63b8ff" points="754.72,-194.25 758.68,-184.42 749.45,-189.64 754.72,-194.25"/>
</a>
</g>
</g>
<!-- Node13 -->
<g id="Node000013" class="node">
<title>Node13</title>
<g id="a_Node000013"><a xlink:href="_attribute_transfer_edge_8hpp.html" target="_top" xlink:title=" ">
<polygon fill="white" stroke="#666666" points="869,-371 724,-371 724,-341 869,-341 869,-371"/>
<text text-anchor="start" x="732" y="-359" font-family="Helvetica,sans-Serif" font-size="10.00">wmtk/operations/Attribute</text>
<text text-anchor="middle" x="796.5" y="-348" font-family="Helvetica,sans-Serif" font-size="10.00">TransferEdge.hpp</text>
</a>
</g>
</g>
<!-- Node1&#45;&gt;Node13 -->
<g id="edge13_Node000001_Node000013" class="edge">
<title>Node1&#45;&gt;Node13</title>
<g id="a_edge13_Node000001_Node000013"><a xlink:title=" ">
<path fill="none" stroke="#63b8ff" d="M616.8,-406.96C654.43,-396.5 700.28,-383.75 736.26,-373.75"/>
<polygon fill="#63b8ff" stroke="#63b8ff" points="737.43,-377.05 746.13,-371 735.55,-370.31 737.43,-377.05"/>
</a>
</g>
</g>
<!-- Node15 -->
<g id="Node000015" class="node">
<title>Node15</title>
<g id="a_Node000015"><a xlink:href="_mesh_attribute_handle_8hpp.html" target="_top" xlink:title=" ">
<polygon fill="white" stroke="#666666" points="627,-305 466,-305 466,-275 627,-275 627,-305"/>
<text text-anchor="start" x="474" y="-293" font-family="Helvetica,sans-Serif" font-size="10.00">wmtk/attribute/MeshAttribute</text>
<text text-anchor="middle" x="546.5" y="-282" font-family="Helvetica,sans-Serif" font-size="10.00">Handle.hpp</text>
</a>
</g>
</g>
<!-- Node1&#45;&gt;Node15 -->
<g id="edge43_Node000001_Node000015" class="edge">
<title>Node1&#45;&gt;Node15</title>
<g id="a_edge43_Node000001_Node000015"><a xlink:title=" ">
<path fill="none" stroke="#63b8ff" d="M546.5,-406.8C546.5,-382.65 546.5,-341.72 546.5,-315.55"/>
<polygon fill="#63b8ff" stroke="#63b8ff" points="550,-315.33 546.5,-305.33 543,-315.33 550,-315.33"/>
</a>
</g>
</g>
<!-- Node27 -->
<g id="Node000027" class="node">
<title>Node27</title>
<g id="a_Node000027"><a xlink:href="_simplex_8hpp.html" target="_top" xlink:title=" ">
<polygon fill="white" stroke="#666666" points="298.5,-239 148.5,-239 148.5,-220 298.5,-220 298.5,-239"/>
<text text-anchor="middle" x="223.5" y="-227" font-family="Helvetica,sans-Serif" font-size="10.00">wmtk/simplex/Simplex.hpp</text>
</a>
</g>
</g>
<!-- Node1&#45;&gt;Node27 -->
<g id="edge40_Node000001_Node000027" class="edge">
<title>Node1&#45;&gt;Node27</title>
<g id="a_edge40_Node000001_Node000027"><a xlink:title=" ">
<path fill="none" stroke="#63b8ff" d="M514.35,-406.99C449.18,-367.45 302.94,-278.71 246.41,-244.4"/>
<polygon fill="#63b8ff" stroke="#63b8ff" points="247.9,-241.21 237.53,-239.02 244.27,-247.2 247.9,-241.21"/>
</a>
</g>
</g>
<!-- Node28 -->
<g id="Node000028" class="node">
<title>Node28</title>
<g id="a_Node000028"><a xlink:title=" ">
<polygon fill="#e0e0e0" stroke="#999999" points="931.5,-365.5 887.5,-365.5 887.5,-346.5 931.5,-346.5 931.5,-365.5"/>
<text text-anchor="middle" x="909.5" y="-353.5" font-family="Helvetica,sans-Serif" font-size="10.00">bitset</text>
</a>
</g>
</g>
<!-- Node1&#45;&gt;Node28 -->
<g id="edge44_Node000001_Node000028" class="edge">
<title>Node1&#45;&gt;Node28</title>
<g id="a_edge44_Node000001_Node000028"><a xlink:title=" ">
<path fill="none" stroke="#63b8ff" d="M624.28,-419.25C692.4,-411.54 793.51,-396.82 878.5,-371 880.13,-370.5 881.79,-369.94 883.45,-369.34"/>
<polygon fill="#63b8ff" stroke="#63b8ff" points="884.83,-372.55 892.75,-365.51 882.17,-366.08 884.83,-372.55"/>
</a>
</g>
</g>
<!-- Node4 -->
<g id="Node000004" class="node">
<title>Node4</title>
<g id="a_Node000004"><a xlink:title=" ">
<polygon fill="#e0e0e0" stroke="#999999" points="203,-19 138,-19 138,0 203,0 203,-19"/>
<text text-anchor="middle" x="170.5" y="-7" font-family="Helvetica,sans-Serif" font-size="10.00">stdexcept</text>
</a>
</g>
</g>
<!-- Node3&#45;&gt;Node4 -->
<g id="edge3_Node000003_Node000004" class="edge">
<title>Node3&#45;&gt;Node4</title>
<g id="a_edge3_Node000003_Node000004"><a xlink:title=" ">
<path fill="none" stroke="#63b8ff" d="M133.77,-54.75C140.04,-47.18 149.29,-36.05 156.93,-26.84"/>
<polygon fill="#63b8ff" stroke="#63b8ff" points="159.67,-29.02 163.37,-19.09 154.29,-24.55 159.67,-29.02"/>
</a>
</g>
</g>
<!-- Node5 -->
<g id="Node000005" class="node">
<title>Node5</title>
<g id="a_Node000005"><a xlink:title=" ">
<polygon fill="#e0e0e0" stroke="#999999" points="120,-19 47,-19 47,0 120,0 120,-19"/>
<text text-anchor="middle" x="83.5" y="-7" font-family="Helvetica,sans-Serif" font-size="10.00">string_view</text>
</a>
</g>
</g>
<!-- Node3&#45;&gt;Node5 -->
<g id="edge4_Node000003_Node000005" class="edge">
<title>Node3&#45;&gt;Node5</title>
<g id="a_edge4_Node000003_Node000005"><a xlink:title=" ">
<path fill="none" stroke="#63b8ff" d="M119.4,-54.75C113.33,-47.26 104.41,-36.28 96.99,-27.13"/>
<polygon fill="#63b8ff" stroke="#63b8ff" points="99.49,-24.65 90.47,-19.09 94.05,-29.06 99.49,-24.65"/>
</a>
</g>
</g>
<!-- Node6 -->
<g id="Node000006" class="node">
<title>Node6</title>
<g id="a_Node000006"><a xlink:title=" ">
<polygon fill="#e0e0e0" stroke="#999999" points="567,-19 520,-19 520,0 567,0 567,-19"/>
<text text-anchor="middle" x="543.5" y="-7" font-family="Helvetica,sans-Serif" font-size="10.00">vector</text>
</a>
</g>
</g>
<!-- Node3&#45;&gt;Node6 -->
<g id="edge5_Node000003_Node000006" class="edge">
<title>Node3&#45;&gt;Node6</title>
<g id="a_edge5_Node000003_Node000006"><a xlink:title=" ">
<path fill="none" stroke="#63b8ff" d="M193.5,-54.98C283.75,-43.51 440.99,-23.53 509.72,-14.79"/>
<polygon fill="#63b8ff" stroke="#63b8ff" points="510.49,-18.22 519.97,-13.49 509.61,-11.28 510.49,-18.22"/>
</a>
</g>
</g>
<!-- Node8 -->
<g id="Node000008" class="node">
<title>Node8</title>
<g id="a_Node000008"><a xlink:title=" ">
<polygon fill="#e0e0e0" stroke="#999999" points="779,-74 710,-74 710,-55 779,-55 779,-74"/>
<text text-anchor="middle" x="744.5" y="-62" font-family="Helvetica,sans-Serif" font-size="10.00">Eigen/Core</text>
</a>
</g>
</g>
<!-- Node7&#45;&gt;Node8 -->
<g id="edge7_Node000007_Node000008" class="edge">
<title>Node7&#45;&gt;Node8</title>
<g id="a_edge7_Node000007_Node000008"><a xlink:title=" ">
<path fill="none" stroke="#63b8ff" d="M764.7,-164.66C761.14,-147.17 753.12,-107.8 748.32,-84.27"/>
<polygon fill="#63b8ff" stroke="#63b8ff" points="751.69,-83.26 746.26,-74.16 744.83,-84.66 751.69,-83.26"/>
</a>
</g>
</g>
<!-- Node9 -->
<g id="Node000009" class="node">
<title>Node9</title>
<g id="a_Node000009"><a xlink:href="_rational_8hpp.html" target="_top" xlink:title=" ">
<polygon fill="white" stroke="#666666" points="624,-129 491,-129 491,-110 624,-110 624,-129"/>
<text text-anchor="middle" x="557.5" y="-117" font-family="Helvetica,sans-Serif" font-size="10.00">wmtk/utils/Rational.hpp</text>
</a>
</g>
</g>
<!-- Node7&#45;&gt;Node9 -->
<g id="edge8_Node000007_Node000009" class="edge">
<title>Node7&#45;&gt;Node9</title>
<g id="a_edge8_Node000007_Node000009"><a xlink:title=" ">
<path fill="none" stroke="#63b8ff" d="M732.92,-164.98C697.15,-155.91 640.38,-141.52 601.16,-131.57"/>
<polygon fill="#63b8ff" stroke="#63b8ff" points="601.9,-128.15 591.34,-129.08 600.18,-134.93 601.9,-128.15"/>
</a>
</g>
</g>
<!-- Node9&#45;&gt;Node8 -->
<g id="edge9_Node000009_Node000008" class="edge">
<title>Node9&#45;&gt;Node8</title>
<g id="a_edge9_Node000009_Node000008"><a xlink:title=" ">
<path fill="none" stroke="#63b8ff" d="M587.54,-109.98C619.21,-101.01 669.27,-86.82 704.31,-76.89"/>
<polygon fill="#63b8ff" stroke="#63b8ff" points="705.55,-80.18 714.22,-74.08 703.64,-73.44 705.55,-80.18"/>
</a>
</g>
</g>
<!-- Node10 -->
<g id="Node000010" class="node">
<title>Node10</title>
<g id="a_Node000010"><a xlink:title=" ">
<polygon fill="#e0e0e0" stroke="#999999" points="692,-74 645,-74 645,-55 692,-55 692,-74"/>
<text text-anchor="middle" x="668.5" y="-62" font-family="Helvetica,sans-Serif" font-size="10.00">gmp.h</text>
</a>
</g>
</g>
<!-- Node9&#45;&gt;Node10 -->
<g id="edge10_Node000009_Node000010" class="edge">
<title>Node9&#45;&gt;Node10</title>
<g id="a_edge10_Node000009_Node000010"><a xlink:title=" ">
<path fill="none" stroke="#63b8ff" d="M575.33,-109.98C593.11,-101.5 620.65,-88.35 641.18,-78.54"/>
<polygon fill="#63b8ff" stroke="#63b8ff" points="642.83,-81.64 650.34,-74.17 639.81,-75.32 642.83,-81.64"/>
</a>
</g>
</g>
<!-- Node11 -->
<g id="Node000011" class="node">
<title>Node11</title>
<g id="a_Node000011"><a xlink:title=" ">
<polygon fill="#e0e0e0" stroke="#999999" points="626.5,-74 566.5,-74 566.5,-55 626.5,-55 626.5,-74"/>
<text text-anchor="middle" x="596.5" y="-62" font-family="Helvetica,sans-Serif" font-size="10.00">iostream</text>
</a>
</g>
</g>
<!-- Node9&#45;&gt;Node11 -->
<g id="edge11_Node000009_Node000011" class="edge">
<title>Node9&#45;&gt;Node11</title>
<g id="a_edge11_Node000009_Node000011"><a xlink:title=" ">
<path fill="none" stroke="#63b8ff" d="M563.94,-109.75C569.39,-102.34 577.36,-91.5 584.06,-82.41"/>
<polygon fill="#63b8ff" stroke="#63b8ff" points="587.07,-84.22 590.18,-74.09 581.43,-80.07 587.07,-84.22"/>
</a>
</g>
</g>
<!-- Node12 -->
<g id="Node000012" class="node">
<title>Node12</title>
<g id="a_Node000012"><a xlink:title=" ">
<polygon fill="#e0e0e0" stroke="#999999" points="548.5,-74 504.5,-74 504.5,-55 548.5,-55 548.5,-74"/>
<text text-anchor="middle" x="526.5" y="-62" font-family="Helvetica,sans-Serif" font-size="10.00">string</text>
</a>
</g>
</g>
<!-- Node9&#45;&gt;Node12 -->
<g id="edge12_Node000009_Node000012" class="edge">
<title>Node9&#45;&gt;Node12</title>
<g id="a_edge12_Node000009_Node000012"><a xlink:title=" ">
<path fill="none" stroke="#63b8ff" d="M552.38,-109.75C548.14,-102.49 541.97,-91.95 536.72,-82.98"/>
<polygon fill="#63b8ff" stroke="#63b8ff" points="539.59,-80.95 531.52,-74.09 533.55,-84.49 539.59,-80.95"/>
</a>
</g>
</g>
<!-- Node13&#45;&gt;Node6 -->
<g id="edge15_Node000013_Node000006" class="edge">
<title>Node13&#45;&gt;Node6</title>
<g id="a_edge15_Node000013_Node000006"><a xlink:title=" ">
<path fill="none" stroke="#63b8ff" d="M805.59,-340.69C818.99,-318.17 842.5,-272.67 842.5,-230.5 842.5,-230.5 842.5,-230.5 842.5,-118.5 842.5,-81.45 820.6,-73.5 788.5,-55 720.98,-16.08 627.06,-9.91 577.41,-9.66"/>
<polygon fill="#63b8ff" stroke="#63b8ff" points="577.21,-6.16 567.22,-9.69 577.23,-13.16 577.21,-6.16"/>
</a>
</g>
</g>
<!-- Node14 -->
<g id="Node000014" class="node">
<title>Node14</title>
<g id="a_Node000014"><a xlink:title=" ">
<polygon fill="#e0e0e0" stroke="#999999" points="814.5,-299.5 756.5,-299.5 756.5,-280.5 814.5,-280.5 814.5,-299.5"/>
<text text-anchor="middle" x="785.5" y="-287.5" font-family="Helvetica,sans-Serif" font-size="10.00">memory</text>
</a>
</g>
</g>
<!-- Node13&#45;&gt;Node14 -->
<g id="edge14_Node000013_Node000014" class="edge">
<title>Node13&#45;&gt;Node14</title>
<g id="a_edge14_Node000013_Node000014"><a xlink:title=" ">
<path fill="none" stroke="#63b8ff" d="M794.06,-340.8C792.5,-331.7 790.45,-319.79 788.75,-309.9"/>
<polygon fill="#63b8ff" stroke="#63b8ff" points="792.16,-309.11 787.02,-299.84 785.26,-310.29 792.16,-309.11"/>
</a>
</g>
</g>
<!-- Node13&#45;&gt;Node15 -->
<g id="edge16_Node000013_Node000015" class="edge">
<title>Node13&#45;&gt;Node15</title>
<g id="a_edge16_Node000013_Node000015"><a xlink:title=" ">
<path fill="none" stroke="#63b8ff" d="M741.64,-340.95C703.13,-331.1 651.49,-317.88 611.01,-307.51"/>
<polygon fill="#63b8ff" stroke="#63b8ff" points="611.79,-304.1 601.24,-305.01 610.06,-310.88 611.79,-304.1"/>
</a>
</g>
</g>
<!-- Node15&#45;&gt;Node9 -->
<g id="edge17_Node000015_Node000009" class="edge">
<title>Node15&#45;&gt;Node9</title>
<g id="a_edge17_Node000015_Node000009"><a xlink:title=" ">
<path fill="none" stroke="#63b8ff" d="M598.15,-274.97C616.01,-267.37 634.13,-255.94 644.5,-239 654.5,-222.66 646.71,-183.54 633.5,-165 623.38,-150.8 607.2,-140.42 592.36,-133.28"/>
<polygon fill="#63b8ff" stroke="#63b8ff" points="593.44,-129.93 582.88,-129.04 590.59,-136.32 593.44,-129.93"/>
</a>
</g>
</g>
<!-- Node16 -->
<g id="Node000016" class="node">
<title>Node16</title>
<g id="a_Node000016"><a xlink:href="_typed_attribute_handle_8hpp.html" target="_top" xlink:title=" ">
<polygon fill="white" stroke="#666666" points="432,-184 289,-184 289,-165 432,-165 432,-184"/>
<text text-anchor="middle" x="360.5" y="-172" font-family="Helvetica,sans-Serif" font-size="10.00">TypedAttributeHandle.hpp</text>
</a>
</g>
</g>
<!-- Node15&#45;&gt;Node16 -->
<g id="edge18_Node000015_Node000016" class="edge">
<title>Node15&#45;&gt;Node16</title>
<g id="a_edge18_Node000015_Node000016"><a xlink:title=" ">
<path fill="none" stroke="#63b8ff" d="M465.9,-281.18C435.33,-274.39 402.4,-261.9 379.5,-239 367.69,-227.19 363.16,-208.35 361.46,-194.25"/>
<polygon fill="#63b8ff" stroke="#63b8ff" points="364.94,-193.86 360.61,-184.19 357.96,-194.45 364.94,-193.86"/>
</a>
</g>
</g>
<!-- Node19 -->
<g id="Node000019" class="node">
<title>Node19</title>
<g id="a_Node000019"><a xlink:href="_hybrid_rational_attribute_8hpp.html" target="_top" xlink:title=" ">
<polygon fill="white" stroke="#666666" points="635,-239 458,-239 458,-220 635,-220 635,-239"/>
<text text-anchor="middle" x="546.5" y="-227" font-family="Helvetica,sans-Serif" font-size="10.00">utils/HybridRationalAttribute.hpp</text>
</a>
</g>
</g>
<!-- Node15&#45;&gt;Node19 -->
<g id="edge24_Node000015_Node000019" class="edge">
<title>Node15&#45;&gt;Node19</title>
<g id="a_edge24_Node000015_Node000019"><a xlink:title=" ">
<path fill="none" stroke="#63b8ff" d="M546.5,-274.84C546.5,-267.21 546.5,-257.7 546.5,-249.45"/>
<polygon fill="#63b8ff" stroke="#63b8ff" points="550,-249.27 546.5,-239.27 543,-249.27 550,-249.27"/>
</a>
</g>
</g>
<!-- Node26 -->
<g id="Node000026" class="node">
<title>Node26</title>
<g id="a_Node000026"><a xlink:title=" ">
<polygon fill="#e0e0e0" stroke="#999999" points="440,-239 389,-239 389,-220 440,-220 440,-239"/>
<text text-anchor="middle" x="414.5" y="-227" font-family="Helvetica,sans-Serif" font-size="10.00">variant</text>
</a>
</g>
</g>
<!-- Node15&#45;&gt;Node26 -->
<g id="edge39_Node000015_Node000026" class="edge">
<title>Node15&#45;&gt;Node26</title>
<g id="a_edge39_Node000015_Node000026"><a xlink:title=" ">
<path fill="none" stroke="#63b8ff" d="M514.88,-274.99C493.15,-265.36 464.53,-252.67 443.41,-243.31"/>
<polygon fill="#63b8ff" stroke="#63b8ff" points="444.55,-239.99 433.99,-239.14 441.72,-246.39 444.55,-239.99"/>
</a>
</g>
</g>
<!-- Node16&#45;&gt;Node3 -->
<g id="edge19_Node000016_Node000003" class="edge">
<title>Node16&#45;&gt;Node3</title>
<g id="a_edge19_Node000016_Node000003"><a xlink:title=" ">
<path fill="none" stroke="#63b8ff" d="M327.41,-164.96C299.74,-157.25 259.61,-144.72 226.5,-129 197.02,-115 165.66,-93.96 146.08,-79.98"/>
<polygon fill="#63b8ff" stroke="#63b8ff" points="148.12,-77.14 137.96,-74.11 144.01,-82.81 148.12,-77.14"/>
</a>
</g>
</g>
<!-- Node16&#45;&gt;Node9 -->
<g id="edge20_Node000016_Node000009" class="edge">
<title>Node16&#45;&gt;Node9</title>
<g id="a_edge20_Node000016_Node000009"><a xlink:title=" ">
<path fill="none" stroke="#63b8ff" d="M392.15,-164.98C425.66,-155.97 478.7,-141.7 515.64,-131.76"/>
<polygon fill="#63b8ff" stroke="#63b8ff" points="516.85,-135.06 525.6,-129.08 515.03,-128.3 516.85,-135.06"/>
</a>
</g>
</g>
<!-- Node17 -->
<g id="Node000017" class="node">
<title>Node17</title>
<g id="a_Node000017"><a xlink:href="_attribute_handle_8hpp.html" target="_top" xlink:title=" ">
<polygon fill="white" stroke="#666666" points="351,-129 236,-129 236,-110 351,-110 351,-129"/>
<text text-anchor="middle" x="293.5" y="-117" font-family="Helvetica,sans-Serif" font-size="10.00">AttributeHandle.hpp</text>
</a>
</g>
</g>
<!-- Node16&#45;&gt;Node17 -->
<g id="edge21_Node000016_Node000017" class="edge">
<title>Node16&#45;&gt;Node17</title>
<g id="a_edge21_Node000016_Node000017"><a xlink:title=" ">
<path fill="none" stroke="#63b8ff" d="M349.74,-164.98C339.73,-157.07 324.61,-145.11 312.57,-135.58"/>
<polygon fill="#63b8ff" stroke="#63b8ff" points="314.47,-132.63 304.46,-129.17 310.13,-138.12 314.47,-132.63"/>
</a>
</g>
</g>
<!-- Node17&#45;&gt;Node3 -->
<g id="edge23_Node000017_Node000003" class="edge">
<title>Node17&#45;&gt;Node3</title>
<g id="a_edge23_Node000017_Node000003"><a xlink:title=" ">
<path fill="none" stroke="#63b8ff" d="M266.67,-109.98C238.63,-101.09 194.45,-87.07 163.2,-77.15"/>
<polygon fill="#63b8ff" stroke="#63b8ff" points="164.13,-73.77 153.54,-74.08 162.01,-80.44 164.13,-73.77"/>
</a>
</g>
</g>
<!-- Node18 -->
<g id="Node000018" class="node">
<title>Node18</title>
<g id="a_Node000018"><a xlink:title=" ">
<polygon fill="#e0e0e0" stroke="#999999" points="281,-74 212,-74 212,-55 281,-55 281,-74"/>
<text text-anchor="middle" x="246.5" y="-62" font-family="Helvetica,sans-Serif" font-size="10.00">type_traits</text>
</a>
</g>
</g>
<!-- Node17&#45;&gt;Node18 -->
<g id="edge22_Node000017_Node000018" class="edge">
<title>Node17&#45;&gt;Node18</title>
<g id="a_edge22_Node000017_Node000018"><a xlink:title=" ">
<path fill="none" stroke="#63b8ff" d="M285.74,-109.75C279.03,-102.18 269.16,-91.05 260.99,-81.84"/>
<polygon fill="#63b8ff" stroke="#63b8ff" points="263.37,-79.25 254.12,-74.09 258.13,-83.89 263.37,-79.25"/>
</a>
</g>
</g>
<!-- Node19&#45;&gt;Node8 -->
<g id="edge26_Node000019_Node000008" class="edge">
<title>Node19&#45;&gt;Node8</title>
<g id="a_edge26_Node000019_Node000008"><a xlink:title=" ">
<path fill="none" stroke="#63b8ff" d="M568.07,-219.96C586.44,-212.12 613.04,-199.41 633.5,-184 674.21,-153.34 712.78,-106.88 731.93,-82.23"/>
<polygon fill="#63b8ff" stroke="#63b8ff" points="734.78,-84.28 738.07,-74.21 729.22,-80.02 734.78,-84.28"/>
</a>
</g>
</g>
<!-- Node19&#45;&gt;Node9 -->
<g id="edge38_Node000019_Node000009" class="edge">
<title>Node19&#45;&gt;Node9</title>
<g id="a_edge38_Node000019_Node000009"><a xlink:title=" ">
<path fill="none" stroke="#63b8ff" d="M537.54,-219.61C526.43,-207.46 509.86,-184.92 517.5,-165 521.74,-153.94 530.14,-143.91 538.14,-136.18"/>
<polygon fill="#63b8ff" stroke="#63b8ff" points="540.75,-138.55 545.86,-129.27 536.08,-133.33 540.75,-138.55"/>
</a>
</g>
</g>
<!-- Node19&#45;&gt;Node16 -->
<g id="edge37_Node000019_Node000016" class="edge">
<title>Node19&#45;&gt;Node16</title>
<g id="a_edge37_Node000019_Node000016"><a xlink:title=" ">
<path fill="none" stroke="#63b8ff" d="M516.62,-219.98C485.12,-211.01 435.33,-196.82 400.47,-186.89"/>
<polygon fill="#63b8ff" stroke="#63b8ff" points="401.19,-183.46 390.62,-184.08 399.28,-190.19 401.19,-183.46"/>
</a>
</g>
</g>
<!-- Node20 -->
<g id="Node000020" class="node">
<title>Node20</title>
<g id="a_Node000020"><a xlink:title=" ">
<polygon fill="#e0e0e0" stroke="#999999" points="624.5,-184 526.5,-184 526.5,-165 624.5,-165 624.5,-184"/>
<text text-anchor="middle" x="575.5" y="-172" font-family="Helvetica,sans-Serif" font-size="10.00">spdlog/fmt/fmt.h</text>
</a>
</g>
</g>
<!-- Node19&#45;&gt;Node20 -->
<g id="edge25_Node000019_Node000020" class="edge">
<title>Node19&#45;&gt;Node20</title>
<g id="a_edge25_Node000019_Node000020"><a xlink:title=" ">
<path fill="none" stroke="#63b8ff" d="M551.29,-219.75C555.26,-212.49 561.03,-201.95 565.93,-192.98"/>
<polygon fill="#63b8ff" stroke="#63b8ff" points="569.07,-194.54 570.8,-184.09 562.93,-191.18 569.07,-194.54"/>
</a>
</g>
</g>
<!-- Node21 -->
<g id="Node000021" class="node">
<title>Node21</title>
<g id="a_Node000021"><a xlink:title=" ">
<polygon fill="#e0e0e0" stroke="#999999" points="486,-74 445,-74 445,-55 486,-55 486,-74"/>
<text text-anchor="middle" x="465.5" y="-62" font-family="Helvetica,sans-Serif" font-size="10.00">tuple</text>
</a>
</g>
</g>
<!-- Node19&#45;&gt;Node21 -->
<g id="edge27_Node000019_Node000021" class="edge">
<title>Node19&#45;&gt;Node21</title>
<g id="a_edge27_Node000019_Node000021"><a xlink:title=" ">
<path fill="none" stroke="#63b8ff" d="M539.04,-219.98C531.59,-211.28 520.06,-197.19 511.5,-184 496.45,-160.82 492.58,-154.73 482.5,-129 476.77,-114.37 472.29,-97.11 469.36,-84.28"/>
<polygon fill="#63b8ff" stroke="#63b8ff" points="472.75,-83.36 467.21,-74.32 465.9,-84.84 472.75,-83.36"/>
</a>
</g>
</g>
<!-- Node22 -->
<g id="Node000022" class="node">
<title>Node22</title>
<g id="a_Node000022"><a xlink:href="_tuple_8hpp.html" target="_top" xlink:title=" ">
<polygon fill="white" stroke="#666666" points="270.5,-184 176.5,-184 176.5,-165 270.5,-165 270.5,-184"/>
<text text-anchor="middle" x="223.5" y="-172" font-family="Helvetica,sans-Serif" font-size="10.00">wmtk/Tuple.hpp</text>
</a>
</g>
</g>
<!-- Node19&#45;&gt;Node22 -->
<g id="edge28_Node000019_Node000022" class="edge">
<title>Node19&#45;&gt;Node22</title>
<g id="a_edge28_Node000019_Node000022"><a xlink:title=" ">
<path fill="none" stroke="#63b8ff" d="M494.6,-219.98C436.11,-210.39 341.29,-194.83 280.7,-184.89"/>
<polygon fill="#63b8ff" stroke="#63b8ff" points="280.97,-181.38 270.54,-183.22 279.84,-188.29 280.97,-181.38"/>
</a>
</g>
</g>
<!-- Node22&#45;&gt;Node3 -->
<g id="edge29_Node000022_Node000003" class="edge">
<title>Node22&#45;&gt;Node3</title>
<g id="a_edge29_Node000022_Node000003"><a xlink:title=" ">
<path fill="none" stroke="#63b8ff" d="M215.56,-164.66C199.28,-146.54 161.9,-104.91 141.11,-81.77"/>
<polygon fill="#63b8ff" stroke="#63b8ff" points="143.56,-79.26 134.28,-74.16 138.35,-83.94 143.56,-79.26"/>
</a>
</g>
</g>
<!-- Node23 -->
<g id="Node000023" class="node">
<title>Node23</title>
<g id="a_Node000023"><a xlink:href="_tuple_8hxx.html" target="_top" xlink:title=" ">
<polygon fill="white" stroke="#666666" points="432,-129 369,-129 369,-110 432,-110 432,-129"/>
<text text-anchor="middle" x="400.5" y="-117" font-family="Helvetica,sans-Serif" font-size="10.00">Tuple.hxx</text>
</a>
</g>
</g>
<!-- Node22&#45;&gt;Node23 -->
<g id="edge30_Node000022_Node000023" class="edge">
<title>Node22&#45;&gt;Node23</title>
<g id="a_edge30_Node000022_Node000023"><a xlink:title=" ">
<path fill="none" stroke="#63b8ff" d="M246.82,-164.98C275.4,-155.82 323.98,-141.23 358.95,-131.28"/>
<polygon fill="#63b8ff" stroke="#63b8ff" points="360.21,-134.56 368.88,-128.47 358.3,-127.82 360.21,-134.56"/>
</a>
</g>
</g>
<!-- Node23&#45;&gt;Node11 -->
<g id="edge32_Node000023_Node000011" class="edge">
<title>Node23&#45;&gt;Node11</title>
<g id="a_edge32_Node000023_Node000011"><a xlink:title=" ">
<path fill="none" stroke="#63b8ff" d="M431.99,-109.98C465.82,-100.84 519.67,-86.28 556.48,-76.32"/>
<polygon fill="#63b8ff" stroke="#63b8ff" points="557.64,-79.64 566.37,-73.65 555.81,-72.88 557.64,-79.64"/>
</a>
</g>
</g>
<!-- Node23&#45;&gt;Node12 -->
<g id="edge34_Node000023_Node000012" class="edge">
<title>Node23&#45;&gt;Node12</title>
<g id="a_edge34_Node000023_Node000012"><a xlink:title=" ">
<path fill="none" stroke="#63b8ff" d="M420.74,-109.98C441.2,-101.38 473.03,-87.99 496.43,-78.15"/>
<polygon fill="#63b8ff" stroke="#63b8ff" points="498.03,-81.27 505.89,-74.17 495.31,-74.82 498.03,-81.27"/>
</a>
</g>
</g>
<!-- Node23&#45;&gt;Node21 -->
<g id="edge35_Node000023_Node000021" class="edge">
<title>Node23&#45;&gt;Node21</title>
<g id="a_edge35_Node000023_Node000021"><a xlink:title=" ">
<path fill="none" stroke="#63b8ff" d="M410.94,-109.98C420.65,-102.07 435.32,-90.11 447,-80.58"/>
<polygon fill="#63b8ff" stroke="#63b8ff" points="449.33,-83.2 454.87,-74.17 444.9,-77.78 449.33,-83.2"/>
</a>
</g>
</g>
<!-- Node23&#45;&gt;Node22 -->
<g id="edge36_Node000023_Node000022" class="edge">
<title>Node23&#45;&gt;Node22</title>
<g id="a_edge36_Node000023_Node000022"><a xlink:title=" ">
<path fill="none" stroke="#63b8ff" d="M376.97,-129.08C348.88,-138.08 301.67,-152.27 266.94,-162.18"/>
<polygon fill="#63b8ff" stroke="#63b8ff" points="265.72,-158.89 257.05,-164.98 267.63,-165.63 265.72,-158.89"/>
</a>
</g>
</g>
<!-- Node24 -->
<g id="Node000024" class="node">
<title>Node24</title>
<g id="a_Node000024"><a xlink:title=" ">
<polygon fill="#e0e0e0" stroke="#999999" points="427,-74 374,-74 374,-55 427,-55 427,-74"/>
<text text-anchor="middle" x="400.5" y="-62" font-family="Helvetica,sans-Serif" font-size="10.00">cstddef</text>
</a>
</g>
</g>
<!-- Node23&#45;&gt;Node24 -->
<g id="edge31_Node000023_Node000024" class="edge">
<title>Node23&#45;&gt;Node24</title>
<g id="a_edge31_Node000023_Node000024"><a xlink:title=" ">
<path fill="none" stroke="#63b8ff" d="M400.5,-109.75C400.5,-102.8 400.5,-92.85 400.5,-84.13"/>
<polygon fill="#63b8ff" stroke="#63b8ff" points="404,-84.09 400.5,-74.09 397,-84.09 404,-84.09"/>
</a>
</g>
</g>
<!-- Node25 -->
<g id="Node000025" class="node">
<title>Node25</title>
<g id="a_Node000025"><a xlink:title=" ">
<polygon fill="#e0e0e0" stroke="#999999" points="355.5,-74 299.5,-74 299.5,-55 355.5,-55 355.5,-74"/>
<text text-anchor="middle" x="327.5" y="-62" font-family="Helvetica,sans-Serif" font-size="10.00">optional</text>
</a>
</g>
</g>
<!-- Node23&#45;&gt;Node25 -->
<g id="edge33_Node000023_Node000025" class="edge">
<title>Node23&#45;&gt;Node25</title>
<g id="a_edge33_Node000023_Node000025"><a xlink:title=" ">
<path fill="none" stroke="#63b8ff" d="M388.77,-109.98C377.77,-102 361.08,-89.88 347.9,-80.31"/>
<polygon fill="#63b8ff" stroke="#63b8ff" points="349.59,-77.21 339.44,-74.17 345.48,-82.88 349.59,-77.21"/>
</a>
</g>
</g>
<!-- Node27&#45;&gt;Node3 -->
<g id="edge41_Node000027_Node000003" class="edge">
<title>Node27&#45;&gt;Node3</title>
<g id="a_edge41_Node000027_Node000003"><a xlink:title=" ">
<path fill="none" stroke="#63b8ff" d="M208.44,-219.91C195.87,-212.03 178.34,-199.3 167.5,-184 145.46,-152.88 134.39,-108.86 129.59,-84.17"/>
<polygon fill="#63b8ff" stroke="#63b8ff" points="133.03,-83.52 127.81,-74.3 126.14,-84.77 133.03,-83.52"/>
</a>
</g>
</g>
<!-- Node27&#45;&gt;Node22 -->
<g id="edge42_Node000027_Node000022" class="edge">
<title>Node27&#45;&gt;Node22</title>
<g id="a_edge42_Node000027_Node000022"><a xlink:title=" ">
<path fill="none" stroke="#63b8ff" d="M223.5,-219.75C223.5,-212.8 223.5,-202.85 223.5,-194.13"/>
<polygon fill="#63b8ff" stroke="#63b8ff" points="227,-194.09 223.5,-184.09 220,-194.09 227,-194.09"/>
</a>
</g>
</g>
</g>
</svg>

<g id="navigator" transform="translate(0 0)" fill="#404254">
  <rect fill="#f2f5e9" fill-opacity="0.5" stroke="#606060" stroke-width=".5" x="0" y="0" width="60" height="60"/>
  <use id="zoomplus" xlink:href="#zoomPlus" x="17" y="9" onmousedown="handleZoom(evt,'in')"/>
  <use id="zoomminus" xlink:href="#zoomMin" x="42" y="9" onmousedown="handleZoom(evt,'out')"/>
  <use id="reset" xlink:href="#resetDef" x="30" y="36" onmousedown="handleReset()"/>
   <use id="arrowup" xlink:href="#arrowUp" x="0" y="0" onmousedown="handlePan(0,-1)"/>
  <use id="arrowright" xlink:href="#arrowRight" x="0" y="0" onmousedown="handlePan(1,0)"/>
  <use id="arrowdown" xlink:href="#arrowDown" x="0" y="0" onmousedown="handlePan(0,1)"/>
  <use id="arrowleft" xlink:href="#arrowLeft" x="0" y="0" onmousedown="handlePan(-1,0)"/>
</g>
<svg viewBox="0 0 15 15" width="100%" height="30px" preserveAspectRatio="xMaxYMin meet">
 <g id="arrow_out" transform="scale(0.3 0.3)">
  <a xlink:href="_new_attribute_strategy_8hpp__incl_org.svg" target="_base">
   <rect id="button" ry="5" rx="5" y="6" x="6" height="38" width="38"
        fill="#f2f5e9" fill-opacity="0.5" stroke="#606060" stroke-width="1.0"/>
   <path id="arrow"
     d="M 11.500037,31.436501 C 11.940474,20.09759 22.043105,11.32322 32.158766,21.979434 L 37.068811,17.246167 C 37.068811,17.246167 37.088388,32 37.088388,32 L 22.160133,31.978069 C 22.160133,31.978069 26.997745,27.140456 26.997745,27.140456 C 18.528582,18.264221 13.291696,25.230495 11.500037,31.436501 z"
     style="fill:#404040;"/>
  </a>
 </g>
</svg>

<style type='text/css'>
<![CDATA[
[data-mouse-over-selected='false'] { opacity: 0.7; }
[data-mouse-over-selected='true']  { opacity: 1.0; }
]]>
</style>
<script type="application/ecmascript"><![CDATA[
document.addEventListener('DOMContentLoaded', (event) => {
  highlightEdges();
  highlightAdjacentNodes();
});
]]></script>
</svg>
