<?xml version="1.0" encoding="UTF-8" standalone="no"?>
<!DOCTYPE svg PUBLIC "-//W3C//DTD SVG 1.1//EN"
 "http://www.w3.org/Graphics/SVG/1.1/DTD/svg11.dtd">
<!-- Generated by graphviz version 2.43.0 (0)
 -->
<!-- Title: src/wmtk/invariants/NoBoundaryCollapseToInteriorInvariant.hpp Pages: 1 -->
<svg width="746pt" height="137pt"
 viewBox="0.00 0.00 746.00 137.00" xmlns="http://www.w3.org/2000/svg" xmlns:xlink="http://www.w3.org/1999/xlink">
<g id="graph0" class="graph" transform="scale(1 1) rotate(0) translate(4 133)">
<title>src/wmtk/invariants/NoBoundaryCollapseToInteriorInvariant.hpp</title>
<!-- Node1 -->
<g id="Node000001" class="node">
<title>Node1</title>
<g id="a_Node000001"><a xlink:title=" ">
<polygon fill="#999999" stroke="#666666" points="455,-129 288,-129 288,-88 455,-88 455,-129"/>
<text text-anchor="start" x="296" y="-117" font-family="Helvetica,sans-Serif" font-size="10.00">src/wmtk/invariants</text>
<text text-anchor="start" x="296" y="-106" font-family="Helvetica,sans-Serif" font-size="10.00">/NoBoundaryCollapseToInterior</text>
<text text-anchor="middle" x="371.5" y="-95" font-family="Helvetica,sans-Serif" font-size="10.00">Invariant.hpp</text>
</a>
</g>
</g>
<!-- Node2 -->
<g id="Node000002" class="node">
<title>Node2</title>
<g id="a_Node000002"><a xlink:href="internal_2periodic__optimization_8cpp.html" target="_top" xlink:title=" ">
<polygon fill="white" stroke="#666666" points="177,-52 0,-52 0,0 177,0 177,-52"/>
<text text-anchor="start" x="8" y="-40" font-family="Helvetica,sans-Serif" font-size="10.00">components/periodic</text>
<text text-anchor="start" x="8" y="-29" font-family="Helvetica,sans-Serif" font-size="10.00">_optimization/wmtk/components</text>
<text text-anchor="start" x="8" y="-18" font-family="Helvetica,sans-Serif" font-size="10.00">/periodic_optimization/internal</text>
<text text-anchor="middle" x="88.5" y="-7" font-family="Helvetica,sans-Serif" font-size="10.00">/periodic_optimization.cpp</text>
</a>
</g>
</g>
<!-- Node1&#45;&gt;Node2 -->
<g id="edge1_Node000001_Node000002" class="edge">
<title>Node1&#45;&gt;Node2</title>
<g id="a_edge1_Node000001_Node000002"><a xlink:title=" ">
<path fill="none" stroke="#63b8ff" d="M292.64,-85.07C256.56,-74.8 213.66,-62.6 176.52,-52.04"/>
<polygon fill="#63b8ff" stroke="#63b8ff" points="292.06,-88.54 302.63,-87.91 293.97,-81.81 292.06,-88.54"/>
</a>
</g>
</g>
<!-- Node3 -->
<g id="Node000003" class="node">
<title>Node3</title>
<g id="a_Node000003"><a xlink:href="test__component__wildmeshing_8cpp.html" target="_top" xlink:title=" ">
<polygon fill="white" stroke="#666666" points="359.5,-41 195.5,-41 195.5,-11 359.5,-11 359.5,-41"/>
<text text-anchor="start" x="203.5" y="-29" font-family="Helvetica,sans-Serif" font-size="10.00">components/tests/test</text>
<text text-anchor="middle" x="277.5" y="-18" font-family="Helvetica,sans-Serif" font-size="10.00">_component_wildmeshing.cpp</text>
</a>
</g>
</g>
<!-- Node1&#45;&gt;Node3 -->
<g id="edge2_Node000001_Node000003" class="edge">
<title>Node1&#45;&gt;Node3</title>
<g id="a_edge2_Node000001_Node000003"><a xlink:title=" ">
<path fill="none" stroke="#63b8ff" d="M340.44,-80.9C324.93,-67.61 306.79,-52.08 293.98,-41.12"/>
<polygon fill="#63b8ff" stroke="#63b8ff" points="338.39,-83.75 348.26,-87.6 342.95,-78.44 338.39,-83.75"/>
</a>
</g>
</g>
<!-- Node4 -->
<g id="Node000004" class="node">
<title>Node4</title>
<g id="a_Node000004"><a xlink:href="wildmeshing_8cpp.html" target="_top" xlink:title=" ">
<polygon fill="white" stroke="#666666" points="553.5,-46.5 377.5,-46.5 377.5,-5.5 553.5,-5.5 553.5,-46.5"/>
<text text-anchor="start" x="385.5" y="-34.5" font-family="Helvetica,sans-Serif" font-size="10.00">components/wildmeshing</text>
<text text-anchor="start" x="385.5" y="-23.5" font-family="Helvetica,sans-Serif" font-size="10.00">/wmtk/components/wildmeshing</text>
<text text-anchor="middle" x="465.5" y="-12.5" font-family="Helvetica,sans-Serif" font-size="10.00">/wildmeshing.cpp</text>
</a>
</g>
</g>
<!-- Node1&#45;&gt;Node4 -->
<g id="edge3_Node000001_Node000004" class="edge">
<title>Node1&#45;&gt;Node4</title>
<g id="a_edge3_Node000001_Node000004"><a xlink:title=" ">
<path fill="none" stroke="#63b8ff" d="M402.57,-80.89C415.61,-69.72 430.51,-56.97 442.53,-46.67"/>
<polygon fill="#63b8ff" stroke="#63b8ff" points="400.05,-78.44 394.74,-87.6 404.61,-83.75 400.05,-78.44"/>
</a>
</g>
</g>
<!-- Node5 -->
<g id="Node000005" class="node">
<title>Node5</title>
<g id="a_Node000005"><a xlink:href="_no_boundary_collapse_to_interior_invariant_8cpp.html" target="_top" xlink:title=" ">
<polygon fill="white" stroke="#666666" points="738,-46.5 571,-46.5 571,-5.5 738,-5.5 738,-46.5"/>
<text text-anchor="start" x="579" y="-34.5" font-family="Helvetica,sans-Serif" font-size="10.00">src/wmtk/invariants</text>
<text text-anchor="start" x="579" y="-23.5" font-family="Helvetica,sans-Serif" font-size="10.00">/NoBoundaryCollapseToInterior</text>
<text text-anchor="middle" x="654.5" y="-12.5" font-family="Helvetica,sans-Serif" font-size="10.00">Invariant.cpp</text>
</a>
</g>
</g>
<!-- Node1&#45;&gt;Node5 -->
<g id="edge4_Node000001_Node000005" class="edge">
<title>Node1&#45;&gt;Node5</title>
<g id="a_edge4_Node000001_Node000005"><a xlink:title=" ">
<path fill="none" stroke="#63b8ff" d="M450.14,-85.13C492.73,-73.02 544.86,-58.19 585.81,-46.54"/>
<polygon fill="#63b8ff" stroke="#63b8ff" points="449.03,-81.81 440.37,-87.91 450.94,-88.54 449.03,-81.81"/>
</a>
</g>
</g>
</g>
</svg>
