<?xml version="1.0" encoding="UTF-8" standalone="no"?>
<!DOCTYPE svg PUBLIC "-//W3C//DTD SVG 1.1//EN"
 "http://www.w3.org/Graphics/SVG/1.1/DTD/svg11.dtd">
<!-- Generated by graphviz version 2.43.0 (0)
 -->
<!-- Title: src/wmtk/operations/OperationSequence.hpp Pages: 1 -->
<!--zoomable 192 -->

<svg id="main" version="1.1" xmlns="http://www.w3.org/2000/svg" xmlns:xlink="http://www.w3.org/1999/xlink" xml:space="preserve" onload="init(evt)">
<style type="text/css"><![CDATA[
.node, .edge {opacity: 0.7;}
.node.selected, .edge.selected {opacity: 1;}
.edge:hover path { stroke: red; }
.edge:hover polygon { stroke: red; fill: red; }
]]></style>

<defs>
  <circle id="rim" cx="0" cy="0" r="7"/>
  <circle id="rim2" cx="0" cy="0" r="3.5"/>
  <g id="zoomPlus">
    <use xlink:href="#rim" fill="#404040"><set attributeName="fill" to="#808080" begin="zoomplus.mouseover" end="zoomplus.mouseout"/></use>
    <path d="M-4,0h8M0,-4v8" fill="none" stroke="white" stroke-width="1.5" pointer-events="none"/>
  </g>
  <g id="zoomMin">
    <use xlink:href="#rim" fill="#404040"><set attributeName="fill" to="#808080" begin="zoomminus.mouseover" end="zoomminus.mouseout"/></use>
    <path d="M-4,0h8" fill="none" stroke="white" stroke-width="1.5" pointer-events="none"/>
  </g>
  <g id="arrowUp" transform="translate(30 24)">
    <use xlink:href="#rim"/>
    <path pointer-events="none" fill="none" stroke="white" stroke-width="1.5" d="M0,-3.0v7 M-2.5,-0.5L0,-3.0L2.5,-0.5"/>
  </g>
  <g id="arrowRight" transform="rotate(90) translate(36 -43)">
    <use xlink:href="#rim"/>
    <path pointer-events="none" fill="none" stroke="white" stroke-width="1.5" d="M0,-3.0v7 M-2.5,-0.5L0,-3.0L2.5,-0.5"/>
  </g>
  <g id="arrowDown" transform="rotate(180) translate(-30 -48)">
    <use xlink:href="#rim"/>
    <path pointer-events="none" fill="none" stroke="white" stroke-width="1.5" d="M0,-3.0v7 M-2.5,-0.5L0,-3.0L2.5,-0.5"/>
  </g>
  <g id="arrowLeft" transform="rotate(270) translate(-36 17)">
    <use xlink:href="#rim"/>
    <path pointer-events="none" fill="none" stroke="white" stroke-width="1.5" d="M0,-3.0v7 M-2.5,-0.5L0,-3.0L2.5,-0.5"/>
  </g>
  <g id="resetDef">
    <use xlink:href="#rim2" fill="#404040"><set attributeName="fill" to="#808080" begin="reset.mouseover" end="reset.mouseout"/></use>
  </g>
</defs>
<script type="application/ecmascript">
var viewWidth = 1070;
var viewHeight = 192;
var sectionId = 'dynsection-1';
</script>
<script type="application/ecmascript" xlink:href="svg.min.js"/>
<svg id="graph" class="graph">
<g id="viewport">
<title>src/wmtk/operations/OperationSequence.hpp</title>
<!-- Node1 -->
<g id="Node000001" class="node">
<title>Node1</title>
<g id="a_Node000001"><a xlink:title=" ">
<polygon fill="#999999" stroke="#666666" points="685.5,-184 549.5,-184 549.5,-154 685.5,-154 685.5,-184"/>
<text text-anchor="start" x="557.5" y="-172" font-family="Helvetica,sans-Serif" font-size="10.00">src/wmtk/operations</text>
<text text-anchor="middle" x="617.5" y="-161" font-family="Helvetica,sans-Serif" font-size="10.00">/OperationSequence.hpp</text>
</a>
</g>
</g>
<!-- Node2 -->
<g id="Node000002" class="node">
<title>Node2</title>
<g id="a_Node000002"><a xlink:href="_and_operation_sequence_8hpp.html" target="_top" xlink:title=" ">
<polygon fill="white" stroke="#666666" points="780,-118 625,-118 625,-88 780,-88 780,-118"/>
<text text-anchor="start" x="633" y="-106" font-family="Helvetica,sans-Serif" font-size="10.00">src/wmtk/operations</text>
<text text-anchor="middle" x="702.5" y="-95" font-family="Helvetica,sans-Serif" font-size="10.00">/AndOperationSequence.hpp</text>
</a>
</g>
</g>
<!-- Node1&#45;&gt;Node2 -->
<g id="edge1_Node000001_Node000002" class="edge">
<title>Node1&#45;&gt;Node2</title>
<g id="a_edge1_Node000001_Node000002"><a xlink:title=" ">
<path fill="none" stroke="#63b8ff" d="M644.39,-147.75C657.17,-138.13 672.14,-126.86 683.69,-118.16"/>
<polygon fill="#63b8ff" stroke="#63b8ff" points="642.25,-144.99 636.36,-153.8 646.46,-150.58 642.25,-144.99"/>
</a>
</g>
</g>
<!-- Node7 -->
<g id="Node000007" class="node">
<title>Node7</title>
<g id="a_Node000007"><a xlink:href="_min_operation_sequence_8hpp.html" target="_top" xlink:title=" ">
<polygon fill="white" stroke="#666666" points="441.5,-118 287.5,-118 287.5,-88 441.5,-88 441.5,-118"/>
<text text-anchor="start" x="295.5" y="-106" font-family="Helvetica,sans-Serif" font-size="10.00">src/wmtk/operations</text>
<text text-anchor="middle" x="364.5" y="-95" font-family="Helvetica,sans-Serif" font-size="10.00">/MinOperationSequence.hpp</text>
</a>
</g>
</g>
<!-- Node1&#45;&gt;Node7 -->
<g id="edge6_Node000001_Node000007" class="edge">
<title>Node1&#45;&gt;Node7</title>
<g id="a_edge6_Node000001_Node000007"><a xlink:title=" ">
<path fill="none" stroke="#63b8ff" d="M552.08,-151.45C511.09,-141.08 458.83,-127.86 419.89,-118.01"/>
<polygon fill="#63b8ff" stroke="#63b8ff" points="551.43,-154.9 561.98,-153.95 553.14,-148.11 551.43,-154.9"/>
</a>
</g>
</g>
<!-- Node9 -->
<g id="Node000009" class="node">
<title>Node9</title>
<g id="a_Node000009"><a xlink:href="_operation_sequence_8cpp.html" target="_top" xlink:title=" ">
<polygon fill="white" stroke="#666666" points="933,-118 798,-118 798,-88 933,-88 933,-118"/>
<text text-anchor="start" x="806" y="-106" font-family="Helvetica,sans-Serif" font-size="10.00">src/wmtk/operations</text>
<text text-anchor="middle" x="865.5" y="-95" font-family="Helvetica,sans-Serif" font-size="10.00">/OperationSequence.cpp</text>
</a>
</g>
</g>
<!-- Node1&#45;&gt;Node9 -->
<g id="edge11_Node000001_Node000009" class="edge">
<title>Node1&#45;&gt;Node9</title>
<g id="a_edge11_Node000001_Node000009"><a xlink:title=" ">
<path fill="none" stroke="#63b8ff" d="M681.63,-151.45C721.81,-141.08 773.03,-127.86 811.2,-118.01"/>
<polygon fill="#63b8ff" stroke="#63b8ff" points="680.73,-148.07 671.92,-153.95 682.48,-154.85 680.73,-148.07"/>
</a>
</g>
</g>
<!-- Node10 -->
<g id="Node000010" class="node">
<title>Node10</title>
<g id="a_Node000010"><a xlink:href="_or_operation_sequence_8hpp.html" target="_top" xlink:title=" ">
<polygon fill="white" stroke="#666666" points="607,-118 460,-118 460,-88 607,-88 607,-118"/>
<text text-anchor="start" x="468" y="-106" font-family="Helvetica,sans-Serif" font-size="10.00">src/wmtk/operations</text>
<text text-anchor="middle" x="533.5" y="-95" font-family="Helvetica,sans-Serif" font-size="10.00">/OrOperationSequence.hpp</text>
</a>
</g>
</g>
<!-- Node1&#45;&gt;Node10 -->
<g id="edge12_Node000001_Node000010" class="edge">
<title>Node1&#45;&gt;Node10</title>
<g id="a_edge12_Node000001_Node000010"><a xlink:title=" ">
<path fill="none" stroke="#63b8ff" d="M590.56,-147.48C578.01,-137.91 563.39,-126.77 552.09,-118.16"/>
<polygon fill="#63b8ff" stroke="#63b8ff" points="588.78,-150.52 598.86,-153.8 593.02,-144.95 588.78,-150.52"/>
</a>
</g>
</g>
<!-- Node3 -->
<g id="Node000003" class="node">
<title>Node3</title>
<g id="a_Node000003"><a xlink:href="internal_2periodic__optimization_8cpp.html" target="_top" xlink:title=" ">
<polygon fill="white" stroke="#666666" points="707,-52 530,-52 530,0 707,0 707,-52"/>
<text text-anchor="start" x="538" y="-40" font-family="Helvetica,sans-Serif" font-size="10.00">components/periodic</text>
<text text-anchor="start" x="538" y="-29" font-family="Helvetica,sans-Serif" font-size="10.00">_optimization/wmtk/components</text>
<text text-anchor="start" x="538" y="-18" font-family="Helvetica,sans-Serif" font-size="10.00">/periodic_optimization/internal</text>
<text text-anchor="middle" x="618.5" y="-7" font-family="Helvetica,sans-Serif" font-size="10.00">/periodic_optimization.cpp</text>
</a>
</g>
</g>
<!-- Node2&#45;&gt;Node3 -->
<g id="edge2_Node000002_Node000003" class="edge">
<title>Node2&#45;&gt;Node3</title>
<g id="a_edge2_Node000002_Node000003"><a xlink:title=" ">
<path fill="none" stroke="#63b8ff" d="M679.11,-81.11C669.09,-72.17 657.31,-61.65 646.81,-52.28"/>
<polygon fill="#63b8ff" stroke="#63b8ff" points="676.91,-83.84 686.7,-87.89 681.57,-78.62 676.91,-83.84"/>
</a>
</g>
</g>
<!-- Node4 -->
<g id="Node000004" class="node">
<title>Node4</title>
<g id="a_Node000004"><a xlink:href="test__component__wildmeshing_8cpp.html" target="_top" xlink:title=" ">
<polygon fill="white" stroke="#666666" points="889.5,-41 725.5,-41 725.5,-11 889.5,-11 889.5,-41"/>
<text text-anchor="start" x="733.5" y="-29" font-family="Helvetica,sans-Serif" font-size="10.00">components/tests/test</text>
<text text-anchor="middle" x="807.5" y="-18" font-family="Helvetica,sans-Serif" font-size="10.00">_component_wildmeshing.cpp</text>
</a>
</g>
</g>
<!-- Node2&#45;&gt;Node4 -->
<g id="edge3_Node000002_Node000004" class="edge">
<title>Node2&#45;&gt;Node4</title>
<g id="a_edge3_Node000002_Node000004"><a xlink:title=" ">
<path fill="none" stroke="#63b8ff" d="M730.67,-81.88C748.73,-68.98 771.73,-52.55 787.84,-41.04"/>
<polygon fill="#63b8ff" stroke="#63b8ff" points="728.35,-79.23 722.25,-87.89 732.42,-84.93 728.35,-79.23"/>
</a>
</g>
</g>
<!-- Node5 -->
<g id="Node000005" class="node">
<title>Node5</title>
<g id="a_Node000005"><a xlink:href="wildmeshing_8cpp.html" target="_top" xlink:title=" ">
<polygon fill="white" stroke="#666666" points="347.5,-46.5 171.5,-46.5 171.5,-5.5 347.5,-5.5 347.5,-46.5"/>
<text text-anchor="start" x="179.5" y="-34.5" font-family="Helvetica,sans-Serif" font-size="10.00">components/wildmeshing</text>
<text text-anchor="start" x="179.5" y="-23.5" font-family="Helvetica,sans-Serif" font-size="10.00">/wmtk/components/wildmeshing</text>
<text text-anchor="middle" x="259.5" y="-12.5" font-family="Helvetica,sans-Serif" font-size="10.00">/wildmeshing.cpp</text>
</a>
</g>
</g>
<!-- Node2&#45;&gt;Node5 -->
<g id="edge4_Node000002_Node000005" class="edge">
<title>Node2&#45;&gt;Node5</title>
<g id="a_edge4_Node000002_Node000005"><a xlink:title=" ">
<path fill="none" stroke="#63b8ff" d="M614.77,-87.77C499.43,-70.82 467.82,-73.98 356.5,-52 348.4,-50.4 339.96,-48.53 331.59,-46.55"/>
<polygon fill="#63b8ff" stroke="#63b8ff" points="614.29,-91.24 624.7,-89.25 615.32,-84.32 614.29,-91.24"/>
</a>
</g>
</g>
<!-- Node6 -->
<g id="Node000006" class="node">
<title>Node6</title>
<g id="a_Node000006"><a xlink:href="_and_operation_sequence_8cpp.html" target="_top" xlink:title=" ">
<polygon fill="white" stroke="#666666" points="1061.5,-41 907.5,-41 907.5,-11 1061.5,-11 1061.5,-41"/>
<text text-anchor="start" x="915.5" y="-29" font-family="Helvetica,sans-Serif" font-size="10.00">src/wmtk/operations</text>
<text text-anchor="middle" x="984.5" y="-18" font-family="Helvetica,sans-Serif" font-size="10.00">/AndOperationSequence.cpp</text>
</a>
</g>
</g>
<!-- Node2&#45;&gt;Node6 -->
<g id="edge5_Node000002_Node000006" class="edge">
<title>Node2&#45;&gt;Node6</title>
<g id="a_edge5_Node000002_Node000006"><a xlink:title=" ">
<path fill="none" stroke="#63b8ff" d="M769.57,-85.47C807.5,-75.98 855.74,-63.67 898.5,-52 911.1,-48.56 924.69,-44.69 937.27,-41.04"/>
<polygon fill="#63b8ff" stroke="#63b8ff" points="768.52,-82.13 759.67,-87.95 770.22,-88.92 768.52,-82.13"/>
</a>
</g>
</g>
<!-- Node7&#45;&gt;Node3 -->
<g id="edge7_Node000007_Node000003" class="edge">
<title>Node7&#45;&gt;Node3</title>
<g id="a_edge7_Node000007_Node000003"><a xlink:title=" ">
<path fill="none" stroke="#63b8ff" d="M421.91,-85.05C454.91,-75.3 496.98,-62.88 533.73,-52.03"/>
<polygon fill="#63b8ff" stroke="#63b8ff" points="420.58,-81.79 411.98,-87.98 422.56,-88.51 420.58,-81.79"/>
</a>
</g>
</g>
<!-- Node7&#45;&gt;Node4 -->
<g id="edge8_Node000007_Node000004" class="edge">
<title>Node7&#45;&gt;Node4</title>
<g id="a_edge8_Node000007_Node000004"><a xlink:title=" ">
<path fill="none" stroke="#63b8ff" d="M452.03,-87.96C570.83,-70.82 603.23,-75.15 716.5,-52 731.11,-49.02 746.83,-44.99 761.03,-41.05"/>
<polygon fill="#63b8ff" stroke="#63b8ff" points="451.19,-84.55 441.81,-89.46 452.21,-91.47 451.19,-84.55"/>
</a>
</g>
</g>
<!-- Node7&#45;&gt;Node5 -->
<g id="edge9_Node000007_Node000005" class="edge">
<title>Node7&#45;&gt;Node5</title>
<g id="a_edge9_Node000007_Node000005"><a xlink:title=" ">
<path fill="none" stroke="#63b8ff" d="M336.23,-81.81C320.98,-70.91 302.23,-57.52 287.09,-46.7"/>
<polygon fill="#63b8ff" stroke="#63b8ff" points="334.58,-84.93 344.75,-87.89 338.65,-79.23 334.58,-84.93"/>
</a>
</g>
</g>
<!-- Node8 -->
<g id="Node000008" class="node">
<title>Node8</title>
<g id="a_Node000008"><a xlink:href="_min_operation_sequence_8cpp.html" target="_top" xlink:title=" ">
<polygon fill="white" stroke="#666666" points="153,-41 0,-41 0,-11 153,-11 153,-41"/>
<text text-anchor="start" x="8" y="-29" font-family="Helvetica,sans-Serif" font-size="10.00">src/wmtk/operations</text>
<text text-anchor="middle" x="76.5" y="-18" font-family="Helvetica,sans-Serif" font-size="10.00">/MinOperationSequence.cpp</text>
</a>
</g>
</g>
<!-- Node7&#45;&gt;Node8 -->
<g id="edge10_Node000007_Node000008" class="edge">
<title>Node7&#45;&gt;Node8</title>
<g id="a_edge10_Node000007_Node000008"><a xlink:title=" ">
<path fill="none" stroke="#63b8ff" d="M294.92,-85.51C255.89,-76.08 206.38,-63.8 162.5,-52 149.89,-48.61 136.29,-44.75 123.72,-41.1"/>
<polygon fill="#63b8ff" stroke="#63b8ff" points="294.58,-89.03 305.12,-87.97 296.22,-82.22 294.58,-89.03"/>
</a>
</g>
</g>
<!-- Node10&#45;&gt;Node3 -->
<g id="edge13_Node000010_Node000003" class="edge">
<title>Node10&#45;&gt;Node3</title>
<g id="a_edge13_Node000010_Node000003"><a xlink:title=" ">
<path fill="none" stroke="#63b8ff" d="M557.17,-81.11C567.3,-72.17 579.23,-61.65 589.85,-52.28"/>
<polygon fill="#63b8ff" stroke="#63b8ff" points="554.67,-78.65 549.49,-87.89 559.3,-83.9 554.67,-78.65"/>
</a>
</g>
</g>
<!-- Node10&#45;&gt;Node4 -->
<g id="edge14_Node000010_Node000004" class="edge">
<title>Node10&#45;&gt;Node4</title>
<g id="a_edge14_Node000010_Node000004"><a xlink:title=" ">
<path fill="none" stroke="#63b8ff" d="M594.91,-85.24C630.44,-75.54 676,-63.1 716.5,-52 729.46,-48.45 743.45,-44.61 756.49,-41.03"/>
<polygon fill="#63b8ff" stroke="#63b8ff" points="593.9,-81.89 585.17,-87.9 595.74,-88.65 593.9,-81.89"/>
</a>
</g>
</g>
<!-- Node10&#45;&gt;Node5 -->
<g id="edge15_Node000010_Node000005" class="edge">
<title>Node10&#45;&gt;Node5</title>
<g id="a_edge15_Node000010_Node000005"><a xlink:title=" ">
<path fill="none" stroke="#63b8ff" d="M472.49,-85.3C430.59,-73.83 374.83,-58.57 330.87,-46.54"/>
<polygon fill="#63b8ff" stroke="#63b8ff" points="471.71,-88.72 482.28,-87.98 473.56,-81.97 471.71,-88.72"/>
</a>
</g>
</g>
<!-- Node11 -->
<g id="Node000011" class="node">
<title>Node11</title>
<g id="a_Node000011"><a xlink:href="_or_operation_sequence_8cpp.html" target="_top" xlink:title=" ">
<polygon fill="white" stroke="#666666" points="511.5,-41 365.5,-41 365.5,-11 511.5,-11 511.5,-41"/>
<text text-anchor="start" x="373.5" y="-29" font-family="Helvetica,sans-Serif" font-size="10.00">src/wmtk/operations</text>
<text text-anchor="middle" x="438.5" y="-18" font-family="Helvetica,sans-Serif" font-size="10.00">/OrOperationSequence.cpp</text>
</a>
</g>
</g>
<!-- Node10&#45;&gt;Node11 -->
<g id="edge16_Node000010_Node000011" class="edge">
<title>Node10&#45;&gt;Node11</title>
<g id="a_edge16_Node000010_Node000011"><a xlink:title=" ">
<path fill="none" stroke="#63b8ff" d="M507.57,-81.53C491.29,-68.68 470.73,-52.44 456.29,-41.04"/>
<polygon fill="#63b8ff" stroke="#63b8ff" points="505.61,-84.44 515.63,-87.89 509.95,-78.95 505.61,-84.44"/>
</a>
</g>
</g>
</g>
</svg>

<g id="navigator" transform="translate(0 0)" fill="#404254">
  <rect fill="#f2f5e9" fill-opacity="0.5" stroke="#606060" stroke-width=".5" x="0" y="0" width="60" height="60"/>
  <use id="zoomplus" xlink:href="#zoomPlus" x="17" y="9" onmousedown="handleZoom(evt,'in')"/>
  <use id="zoomminus" xlink:href="#zoomMin" x="42" y="9" onmousedown="handleZoom(evt,'out')"/>
  <use id="reset" xlink:href="#resetDef" x="30" y="36" onmousedown="handleReset()"/>
   <use id="arrowup" xlink:href="#arrowUp" x="0" y="0" onmousedown="handlePan(0,-1)"/>
  <use id="arrowright" xlink:href="#arrowRight" x="0" y="0" onmousedown="handlePan(1,0)"/>
  <use id="arrowdown" xlink:href="#arrowDown" x="0" y="0" onmousedown="handlePan(0,1)"/>
  <use id="arrowleft" xlink:href="#arrowLeft" x="0" y="0" onmousedown="handlePan(-1,0)"/>
</g>
<svg viewBox="0 0 15 15" width="100%" height="30px" preserveAspectRatio="xMaxYMin meet">
 <g id="arrow_out" transform="scale(0.3 0.3)">
  <a xlink:href="_operation_sequence_8hpp__dep__incl_org.svg" target="_base">
   <rect id="button" ry="5" rx="5" y="6" x="6" height="38" width="38"
        fill="#f2f5e9" fill-opacity="0.5" stroke="#606060" stroke-width="1.0"/>
   <path id="arrow"
     d="M 11.500037,31.436501 C 11.940474,20.09759 22.043105,11.32322 32.158766,21.979434 L 37.068811,17.246167 C 37.068811,17.246167 37.088388,32 37.088388,32 L 22.160133,31.978069 C 22.160133,31.978069 26.997745,27.140456 26.997745,27.140456 C 18.528582,18.264221 13.291696,25.230495 11.500037,31.436501 z"
     style="fill:#404040;"/>
  </a>
 </g>
</svg>

<style type='text/css'>
<![CDATA[
[data-mouse-over-selected='false'] { opacity: 0.7; }
[data-mouse-over-selected='true']  { opacity: 1.0; }
]]>
</style>
<script type="application/ecmascript"><![CDATA[
document.addEventListener('DOMContentLoaded', (event) => {
  highlightEdges();
  highlightAdjacentNodes();
});
]]></script>
</svg>
