<?xml version="1.0" encoding="UTF-8" standalone="no"?>
<!DOCTYPE svg PUBLIC "-//W3C//DTD SVG 1.1//EN"
 "http://www.w3.org/Graphics/SVG/1.1/DTD/svg11.dtd">
<!-- Generated by graphviz version 2.43.0 (0)
 -->
<!-- Title: src/wmtk/io/ParaviewWriter.hpp Pages: 1 -->
<svg width="2401pt" height="115pt"
 viewBox="0.00 0.00 2400.50 115.00" xmlns="http://www.w3.org/2000/svg" xmlns:xlink="http://www.w3.org/1999/xlink">
<g id="graph0" class="graph" transform="scale(1 1) rotate(0) translate(4 111)">
<title>src/wmtk/io/ParaviewWriter.hpp</title>
<!-- Node1 -->
<g id="Node000001" class="node">
<title>Node1</title>
<g id="a_Node000001"><a xlink:title=" ">
<polygon fill="#999999" stroke="#666666" points="1270,-107 1099,-107 1099,-88 1270,-88 1270,-107"/>
<text text-anchor="middle" x="1184.5" y="-95" font-family="Helvetica,sans-Serif" font-size="10.00">src/wmtk/io/ParaviewWriter.hpp</text>
</a>
</g>
</g>
<!-- Node2 -->
<g id="Node000002" class="node">
<title>Node2</title>
<g id="a_Node000002"><a xlink:href="tests_2input_8cpp.html" target="_top" xlink:title=" ">
<polygon fill="white" stroke="#666666" points="135,-46.5 0,-46.5 0,-5.5 135,-5.5 135,-46.5"/>
<text text-anchor="start" x="8" y="-34.5" font-family="Helvetica,sans-Serif" font-size="10.00">components/input/wmtk</text>
<text text-anchor="start" x="8" y="-23.5" font-family="Helvetica,sans-Serif" font-size="10.00">/components/input/tests</text>
<text text-anchor="middle" x="67.5" y="-12.5" font-family="Helvetica,sans-Serif" font-size="10.00">/input.cpp</text>
</a>
</g>
</g>
<!-- Node1&#45;&gt;Node2 -->
<g id="edge1_Node000001_Node000002" class="edge">
<title>Node1&#45;&gt;Node2</title>
<g id="a_edge1_Node000001_Node000002"><a xlink:title=" ">
<path fill="none" stroke="#63b8ff" d="M1088.41,-95.76C866.38,-93.51 323.06,-84.72 143.5,-52 135.98,-50.63 128.19,-48.7 120.58,-46.5"/>
<polygon fill="#63b8ff" stroke="#63b8ff" points="1088.7,-99.26 1098.73,-95.86 1088.77,-92.26 1088.7,-99.26"/>
</a>
</g>
</g>
<!-- Node3 -->
<g id="Node000003" class="node">
<title>Node3</title>
<g id="a_Node000003"><a xlink:href="_isotropic_remeshing_8cpp.html" target="_top" xlink:title=" ">
<polygon fill="white" stroke="#666666" points="320,-52 153,-52 153,0 320,0 320,-52"/>
<text text-anchor="start" x="161" y="-40" font-family="Helvetica,sans-Serif" font-size="10.00">components/isotropic</text>
<text text-anchor="start" x="161" y="-29" font-family="Helvetica,sans-Serif" font-size="10.00">_remeshing/wmtk/components</text>
<text text-anchor="start" x="161" y="-18" font-family="Helvetica,sans-Serif" font-size="10.00">/isotropic_remeshing/internal</text>
<text text-anchor="middle" x="236.5" y="-7" font-family="Helvetica,sans-Serif" font-size="10.00">/IsotropicRemeshing.cpp</text>
</a>
</g>
</g>
<!-- Node1&#45;&gt;Node3 -->
<g id="edge2_Node000001_Node000003" class="edge">
<title>Node1&#45;&gt;Node3</title>
<g id="a_edge2_Node000001_Node000003"><a xlink:title=" ">
<path fill="none" stroke="#63b8ff" d="M1088.83,-94.1C897.21,-88.87 472.41,-75.02 328.5,-52 325.72,-51.56 322.91,-51.06 320.07,-50.52"/>
<polygon fill="#63b8ff" stroke="#63b8ff" points="1088.8,-97.6 1098.89,-94.37 1088.99,-90.6 1088.8,-97.6"/>
</a>
</g>
</g>
<!-- Node4 -->
<g id="Node000004" class="node">
<title>Node4</title>
<g id="a_Node000004"><a xlink:href="tests_2marching_8cpp.html" target="_top" xlink:title=" ">
<polygon fill="white" stroke="#666666" points="497,-46.5 338,-46.5 338,-5.5 497,-5.5 497,-46.5"/>
<text text-anchor="start" x="346" y="-34.5" font-family="Helvetica,sans-Serif" font-size="10.00">components/marching</text>
<text text-anchor="start" x="346" y="-23.5" font-family="Helvetica,sans-Serif" font-size="10.00">/wmtk/components/marching</text>
<text text-anchor="middle" x="417.5" y="-12.5" font-family="Helvetica,sans-Serif" font-size="10.00">/tests/marching.cpp</text>
</a>
</g>
</g>
<!-- Node1&#45;&gt;Node4 -->
<g id="edge3_Node000001_Node000004" class="edge">
<title>Node1&#45;&gt;Node4</title>
<g id="a_edge3_Node000001_Node000004"><a xlink:title=" ">
<path fill="none" stroke="#63b8ff" d="M1088.77,-96.57C956.62,-95.23 711.28,-87.56 505.5,-52 497.21,-50.57 488.57,-48.66 480.1,-46.53"/>
<polygon fill="#63b8ff" stroke="#63b8ff" points="1088.84,-100.07 1098.87,-96.66 1088.9,-93.07 1088.84,-100.07"/>
</a>
</g>
</g>
<!-- Node5 -->
<g id="Node000005" class="node">
<title>Node5</title>
<g id="a_Node000005"><a xlink:href="output_8cpp.html" target="_top" xlink:title=" ">
<polygon fill="white" stroke="#666666" points="684,-41 515,-41 515,-11 684,-11 684,-41"/>
<text text-anchor="start" x="523" y="-29" font-family="Helvetica,sans-Serif" font-size="10.00">components/output/wmtk</text>
<text text-anchor="middle" x="599.5" y="-18" font-family="Helvetica,sans-Serif" font-size="10.00">/components/output/output.cpp</text>
</a>
</g>
</g>
<!-- Node1&#45;&gt;Node5 -->
<g id="edge4_Node000001_Node000005" class="edge">
<title>Node1&#45;&gt;Node5</title>
<g id="a_edge4_Node000001_Node000005"><a xlink:title=" ">
<path fill="none" stroke="#63b8ff" d="M1088.53,-92.72C988.89,-87.65 828.82,-76.3 692.5,-52 677.03,-49.24 660.38,-45.14 645.5,-41.05"/>
<polygon fill="#63b8ff" stroke="#63b8ff" points="1088.42,-96.22 1098.58,-93.22 1088.76,-89.23 1088.42,-96.22"/>
</a>
</g>
</g>
<!-- Node6 -->
<g id="Node000006" class="node">
<title>Node6</title>
<g id="a_Node000006"><a xlink:href="internal_2periodic__optimization_8cpp.html" target="_top" xlink:title=" ">
<polygon fill="white" stroke="#666666" points="879,-52 702,-52 702,0 879,0 879,-52"/>
<text text-anchor="start" x="710" y="-40" font-family="Helvetica,sans-Serif" font-size="10.00">components/periodic</text>
<text text-anchor="start" x="710" y="-29" font-family="Helvetica,sans-Serif" font-size="10.00">_optimization/wmtk/components</text>
<text text-anchor="start" x="710" y="-18" font-family="Helvetica,sans-Serif" font-size="10.00">/periodic_optimization/internal</text>
<text text-anchor="middle" x="790.5" y="-7" font-family="Helvetica,sans-Serif" font-size="10.00">/periodic_optimization.cpp</text>
</a>
</g>
</g>
<!-- Node1&#45;&gt;Node6 -->
<g id="edge5_Node000001_Node000006" class="edge">
<title>Node1&#45;&gt;Node6</title>
<g id="a_edge5_Node000001_Node000006"><a xlink:title=" ">
<path fill="none" stroke="#63b8ff" d="M1104.35,-86.67C1044.58,-78.8 961.09,-66.68 888.5,-52 885.4,-51.37 882.26,-50.71 879.08,-50.02"/>
<polygon fill="#63b8ff" stroke="#63b8ff" points="1104.11,-90.17 1114.48,-87.99 1105.02,-83.23 1104.11,-90.17"/>
</a>
</g>
</g>
<!-- Node7 -->
<g id="Node000007" class="node">
<title>Node7</title>
<g id="a_Node000007"><a xlink:href="test__component__fusion_8cpp.html" target="_top" xlink:title=" ">
<polygon fill="white" stroke="#666666" points="1029.5,-41 897.5,-41 897.5,-11 1029.5,-11 1029.5,-41"/>
<text text-anchor="start" x="905.5" y="-29" font-family="Helvetica,sans-Serif" font-size="10.00">components/tests/test</text>
<text text-anchor="middle" x="963.5" y="-18" font-family="Helvetica,sans-Serif" font-size="10.00">_component_fusion.cpp</text>
</a>
</g>
</g>
<!-- Node1&#45;&gt;Node7 -->
<g id="edge6_Node000001_Node000007" class="edge">
<title>Node1&#45;&gt;Node7</title>
<g id="a_edge6_Node000001_Node000007"><a xlink:title=" ">
<path fill="none" stroke="#63b8ff" d="M1145.73,-84.98C1116.26,-76.15 1074.74,-63.56 1038.5,-52 1027.65,-48.54 1015.95,-44.69 1005.09,-41.08"/>
<polygon fill="#63b8ff" stroke="#63b8ff" points="1145.04,-88.43 1155.62,-87.94 1147.04,-81.72 1145.04,-88.43"/>
</a>
</g>
</g>
<!-- Node8 -->
<g id="Node000008" class="node">
<title>Node8</title>
<g id="a_Node000008"><a xlink:href="test__component__isotropic__remeshing_8cpp.html" target="_top" xlink:title=" ">
<polygon fill="white" stroke="#666666" points="1173,-46.5 1048,-46.5 1048,-5.5 1173,-5.5 1173,-46.5"/>
<text text-anchor="start" x="1056" y="-34.5" font-family="Helvetica,sans-Serif" font-size="10.00">components/tests/test</text>
<text text-anchor="start" x="1056" y="-23.5" font-family="Helvetica,sans-Serif" font-size="10.00">_component_isotropic</text>
<text text-anchor="middle" x="1110.5" y="-12.5" font-family="Helvetica,sans-Serif" font-size="10.00">_remeshing.cpp</text>
</a>
</g>
</g>
<!-- Node1&#45;&gt;Node8 -->
<g id="edge7_Node000001_Node000008" class="edge">
<title>Node1&#45;&gt;Node8</title>
<g id="a_edge7_Node000001_Node000008"><a xlink:title=" ">
<path fill="none" stroke="#63b8ff" d="M1167.94,-80.95C1157.16,-70.82 1143.01,-57.53 1131.45,-46.67"/>
<polygon fill="#63b8ff" stroke="#63b8ff" points="1165.74,-83.68 1175.43,-87.98 1170.53,-78.58 1165.74,-83.68"/>
</a>
</g>
</g>
<!-- Node9 -->
<g id="Node000009" class="node">
<title>Node9</title>
<g id="a_Node000009"><a xlink:href="test__component__multimesh__from__tag_8cpp.html" target="_top" xlink:title=" ">
<polygon fill="white" stroke="#666666" points="1325.5,-46.5 1191.5,-46.5 1191.5,-5.5 1325.5,-5.5 1325.5,-46.5"/>
<text text-anchor="start" x="1199.5" y="-34.5" font-family="Helvetica,sans-Serif" font-size="10.00">components/tests/test</text>
<text text-anchor="start" x="1199.5" y="-23.5" font-family="Helvetica,sans-Serif" font-size="10.00">_component_multimesh</text>
<text text-anchor="middle" x="1258.5" y="-12.5" font-family="Helvetica,sans-Serif" font-size="10.00">_from_tag.cpp</text>
</a>
</g>
</g>
<!-- Node1&#45;&gt;Node9 -->
<g id="edge8_Node000001_Node000009" class="edge">
<title>Node1&#45;&gt;Node9</title>
<g id="a_edge8_Node000001_Node000009"><a xlink:title=" ">
<path fill="none" stroke="#63b8ff" d="M1201.06,-80.95C1211.84,-70.82 1225.99,-57.53 1237.55,-46.67"/>
<polygon fill="#63b8ff" stroke="#63b8ff" points="1198.47,-78.58 1193.57,-87.98 1203.26,-83.68 1198.47,-78.58"/>
</a>
</g>
</g>
<!-- Node10 -->
<g id="Node000010" class="node">
<title>Node10</title>
<g id="a_Node000010"><a xlink:href="test__component__procedural_8cpp.html" target="_top" xlink:title=" ">
<polygon fill="white" stroke="#666666" points="1497.5,-41 1343.5,-41 1343.5,-11 1497.5,-11 1497.5,-41"/>
<text text-anchor="start" x="1351.5" y="-29" font-family="Helvetica,sans-Serif" font-size="10.00">components/tests/test</text>
<text text-anchor="middle" x="1420.5" y="-18" font-family="Helvetica,sans-Serif" font-size="10.00">_component_procedural.cpp</text>
</a>
</g>
</g>
<!-- Node1&#45;&gt;Node10 -->
<g id="edge9_Node000001_Node000010" class="edge">
<title>Node1&#45;&gt;Node10</title>
<g id="a_edge9_Node000001_Node000010"><a xlink:title=" ">
<path fill="none" stroke="#63b8ff" d="M1223.06,-85.14C1264.02,-73.08 1328.83,-54 1372.94,-41.01"/>
<polygon fill="#63b8ff" stroke="#63b8ff" points="1222.04,-81.8 1213.44,-87.98 1224.02,-88.51 1222.04,-81.8"/>
</a>
</g>
</g>
<!-- Node11 -->
<g id="Node000011" class="node">
<title>Node11</title>
<g id="a_Node000011"><a xlink:href="test__component__regular__space_8cpp.html" target="_top" xlink:title=" ">
<polygon fill="white" stroke="#666666" points="1685.5,-41 1515.5,-41 1515.5,-11 1685.5,-11 1685.5,-41"/>
<text text-anchor="start" x="1523.5" y="-29" font-family="Helvetica,sans-Serif" font-size="10.00">components/tests/test</text>
<text text-anchor="middle" x="1600.5" y="-18" font-family="Helvetica,sans-Serif" font-size="10.00">_component_regular_space.cpp</text>
</a>
</g>
</g>
<!-- Node1&#45;&gt;Node11 -->
<g id="edge10_Node000001_Node000011" class="edge">
<title>Node1&#45;&gt;Node11</title>
<g id="a_edge10_Node000001_Node000011"><a xlink:title=" ">
<path fill="none" stroke="#63b8ff" d="M1276.52,-86.82C1341.2,-79.28 1429.57,-67.49 1506.5,-52 1521.4,-49 1537.44,-45.02 1551.98,-41.12"/>
<polygon fill="#63b8ff" stroke="#63b8ff" points="1275.89,-83.37 1266.35,-87.99 1276.69,-90.33 1275.89,-83.37"/>
</a>
</g>
</g>
<!-- Node12 -->
<g id="Node000012" class="node">
<title>Node12</title>
<g id="a_Node000012"><a xlink:href="test__component__wildmeshing_8cpp.html" target="_top" xlink:title=" ">
<polygon fill="white" stroke="#666666" points="1867.5,-41 1703.5,-41 1703.5,-11 1867.5,-11 1867.5,-41"/>
<text text-anchor="start" x="1711.5" y="-29" font-family="Helvetica,sans-Serif" font-size="10.00">components/tests/test</text>
<text text-anchor="middle" x="1785.5" y="-18" font-family="Helvetica,sans-Serif" font-size="10.00">_component_wildmeshing.cpp</text>
</a>
</g>
</g>
<!-- Node1&#45;&gt;Node12 -->
<g id="edge11_Node000001_Node000012" class="edge">
<title>Node1&#45;&gt;Node12</title>
<g id="a_edge11_Node000001_Node000012"><a xlink:title=" ">
<path fill="none" stroke="#63b8ff" d="M1280.47,-93.31C1383.5,-88.68 1551.63,-77.64 1694.5,-52 1709.66,-49.28 1725.95,-45.19 1740.51,-41.1"/>
<polygon fill="#63b8ff" stroke="#63b8ff" points="1280.24,-89.81 1270.4,-93.75 1280.54,-96.81 1280.24,-89.81"/>
</a>
</g>
</g>
<!-- Node13 -->
<g id="Node000013" class="node">
<title>Node13</title>
<g id="a_Node000013"><a xlink:href="wildmeshing_8cpp.html" target="_top" xlink:title=" ">
<polygon fill="white" stroke="#666666" points="2061.5,-46.5 1885.5,-46.5 1885.5,-5.5 2061.5,-5.5 2061.5,-46.5"/>
<text text-anchor="start" x="1893.5" y="-34.5" font-family="Helvetica,sans-Serif" font-size="10.00">components/wildmeshing</text>
<text text-anchor="start" x="1893.5" y="-23.5" font-family="Helvetica,sans-Serif" font-size="10.00">/wmtk/components/wildmeshing</text>
<text text-anchor="middle" x="1973.5" y="-12.5" font-family="Helvetica,sans-Serif" font-size="10.00">/wildmeshing.cpp</text>
</a>
</g>
</g>
<!-- Node1&#45;&gt;Node13 -->
<g id="edge12_Node000001_Node000013" class="edge">
<title>Node1&#45;&gt;Node13</title>
<g id="a_edge12_Node000001_Node000013"><a xlink:title=" ">
<path fill="none" stroke="#63b8ff" d="M1280.27,-96.01C1414.41,-94.04 1665.48,-85.67 1876.5,-52 1885.52,-50.56 1894.91,-48.66 1904.16,-46.55"/>
<polygon fill="#63b8ff" stroke="#63b8ff" points="1279.98,-92.51 1270.03,-96.15 1280.08,-99.51 1279.98,-92.51"/>
</a>
</g>
</g>
<!-- Node14 -->
<g id="Node000014" class="node">
<title>Node14</title>
<g id="a_Node000014"><a xlink:href="_attribute_manager_8cpp.html" target="_top" xlink:title=" ">
<polygon fill="white" stroke="#666666" points="2204,-41 2079,-41 2079,-11 2204,-11 2204,-41"/>
<text text-anchor="start" x="2087" y="-29" font-family="Helvetica,sans-Serif" font-size="10.00">src/wmtk/attribute</text>
<text text-anchor="middle" x="2141.5" y="-18" font-family="Helvetica,sans-Serif" font-size="10.00">/AttributeManager.cpp</text>
</a>
</g>
</g>
<!-- Node1&#45;&gt;Node14 -->
<g id="edge13_Node000001_Node000014" class="edge">
<title>Node1&#45;&gt;Node14</title>
<g id="a_edge13_Node000001_Node000014"><a xlink:title=" ">
<path fill="none" stroke="#63b8ff" d="M1280.05,-95.17C1476.89,-91.87 1921.6,-81.31 2070.5,-52 2082.94,-49.55 2096.14,-45.37 2107.75,-41.12"/>
<polygon fill="#63b8ff" stroke="#63b8ff" points="1279.95,-91.67 1270.01,-95.34 1280.07,-98.67 1279.95,-91.67"/>
</a>
</g>
</g>
<!-- Node15 -->
<g id="Node000015" class="node">
<title>Node15</title>
<g id="a_Node000015"><a xlink:href="_paraview_writer_8cpp.html" target="_top" xlink:title=" ">
<polygon fill="white" stroke="#666666" points="2392.5,-35.5 2222.5,-35.5 2222.5,-16.5 2392.5,-16.5 2392.5,-35.5"/>
<text text-anchor="middle" x="2307.5" y="-23.5" font-family="Helvetica,sans-Serif" font-size="10.00">src/wmtk/io/ParaviewWriter.cpp</text>
</a>
</g>
</g>
<!-- Node1&#45;&gt;Node15 -->
<g id="edge14_Node000001_Node000015" class="edge">
<title>Node1&#45;&gt;Node15</title>
<g id="a_edge14_Node000001_Node000015"><a xlink:title=" ">
<path fill="none" stroke="#63b8ff" d="M1280.58,-95C1500.55,-91.14 2035.48,-79.19 2213.5,-52 2236.87,-48.43 2262.79,-41.29 2281.49,-35.55"/>
<polygon fill="#63b8ff" stroke="#63b8ff" points="1280.28,-91.51 1270.34,-95.18 1280.4,-98.51 1280.28,-91.51"/>
</a>
</g>
</g>
</g>
</svg>
