<?xml version="1.0" encoding="UTF-8" standalone="no"?>
<!DOCTYPE svg PUBLIC "-//W3C//DTD SVG 1.1//EN"
 "http://www.w3.org/Graphics/SVG/1.1/DTD/svg11.dtd">
<!-- Generated by graphviz version 2.43.0 (0)
 -->
<!-- Title: src/wmtk/function/PerSimplexFunction.hpp Pages: 1 -->
<!--zoomable 379 -->

<svg id="main" version="1.1" xmlns="http://www.w3.org/2000/svg" xmlns:xlink="http://www.w3.org/1999/xlink" xml:space="preserve" onload="init(evt)">
<style type="text/css"><![CDATA[
.node, .edge {opacity: 0.7;}
.node.selected, .edge.selected {opacity: 1;}
.edge:hover path { stroke: red; }
.edge:hover polygon { stroke: red; fill: red; }
]]></style>

<defs>
  <circle id="rim" cx="0" cy="0" r="7"/>
  <circle id="rim2" cx="0" cy="0" r="3.5"/>
  <g id="zoomPlus">
    <use xlink:href="#rim" fill="#404040"><set attributeName="fill" to="#808080" begin="zoomplus.mouseover" end="zoomplus.mouseout"/></use>
    <path d="M-4,0h8M0,-4v8" fill="none" stroke="white" stroke-width="1.5" pointer-events="none"/>
  </g>
  <g id="zoomMin">
    <use xlink:href="#rim" fill="#404040"><set attributeName="fill" to="#808080" begin="zoomminus.mouseover" end="zoomminus.mouseout"/></use>
    <path d="M-4,0h8" fill="none" stroke="white" stroke-width="1.5" pointer-events="none"/>
  </g>
  <g id="arrowUp" transform="translate(30 24)">
    <use xlink:href="#rim"/>
    <path pointer-events="none" fill="none" stroke="white" stroke-width="1.5" d="M0,-3.0v7 M-2.5,-0.5L0,-3.0L2.5,-0.5"/>
  </g>
  <g id="arrowRight" transform="rotate(90) translate(36 -43)">
    <use xlink:href="#rim"/>
    <path pointer-events="none" fill="none" stroke="white" stroke-width="1.5" d="M0,-3.0v7 M-2.5,-0.5L0,-3.0L2.5,-0.5"/>
  </g>
  <g id="arrowDown" transform="rotate(180) translate(-30 -48)">
    <use xlink:href="#rim"/>
    <path pointer-events="none" fill="none" stroke="white" stroke-width="1.5" d="M0,-3.0v7 M-2.5,-0.5L0,-3.0L2.5,-0.5"/>
  </g>
  <g id="arrowLeft" transform="rotate(270) translate(-36 17)">
    <use xlink:href="#rim"/>
    <path pointer-events="none" fill="none" stroke="white" stroke-width="1.5" d="M0,-3.0v7 M-2.5,-0.5L0,-3.0L2.5,-0.5"/>
  </g>
  <g id="resetDef">
    <use xlink:href="#rim2" fill="#404040"><set attributeName="fill" to="#808080" begin="reset.mouseover" end="reset.mouseout"/></use>
  </g>
</defs>
<script type="application/ecmascript">
var viewWidth = 771;
var viewHeight = 379;
var sectionId = 'dynsection-0';
</script>
<script type="application/ecmascript" xlink:href="svg.min.js"/>
<svg id="graph" class="graph">
<g id="viewport">
<title>src/wmtk/function/PerSimplexFunction.hpp</title>
<!-- Node1 -->
<g id="Node000001" class="node">
<title>Node1</title>
<g id="a_Node000001"><a xlink:title=" ">
<polygon fill="#999999" stroke="#666666" points="668,-371 505,-371 505,-341 668,-341 668,-371"/>
<text text-anchor="start" x="513" y="-359" font-family="Helvetica,sans-Serif" font-size="10.00">src/wmtk/function/PerSimplex</text>
<text text-anchor="middle" x="586.5" y="-348" font-family="Helvetica,sans-Serif" font-size="10.00">Function.hpp</text>
</a>
</g>
</g>
<!-- Node2 -->
<g id="Node000002" class="node">
<title>Node2</title>
<g id="a_Node000002"><a xlink:href="_primitive_8hpp.html" target="_top" xlink:title=" ">
<polygon fill="white" stroke="#666666" points="279,-239 166,-239 166,-220 279,-220 279,-239"/>
<text text-anchor="middle" x="222.5" y="-227" font-family="Helvetica,sans-Serif" font-size="10.00">wmtk/Primitive.hpp</text>
</a>
</g>
</g>
<!-- Node1&#45;&gt;Node2 -->
<g id="edge1_Node000001_Node000002" class="edge">
<title>Node1&#45;&gt;Node2</title>
<g id="a_edge1_Node000001_Node000002"><a xlink:title=" ">
<path fill="none" stroke="#63b8ff" d="M545.45,-340.96C473.3,-316.28 324.98,-265.55 257.42,-242.44"/>
<polygon fill="#63b8ff" stroke="#63b8ff" points="258.27,-239.03 247.67,-239.11 256,-245.66 258.27,-239.03"/>
</a>
</g>
</g>
<!-- Node14 -->
<g id="Node000014" class="node">
<title>Node14</title>
<g id="a_Node000014"><a xlink:href="_mesh_attribute_handle_8hpp.html" target="_top" xlink:title=" ">
<polygon fill="white" stroke="#666666" points="667,-305 506,-305 506,-275 667,-275 667,-305"/>
<text text-anchor="start" x="514" y="-293" font-family="Helvetica,sans-Serif" font-size="10.00">wmtk/attribute/MeshAttribute</text>
<text text-anchor="middle" x="586.5" y="-282" font-family="Helvetica,sans-Serif" font-size="10.00">Handle.hpp</text>
</a>
</g>
</g>
<!-- Node1&#45;&gt;Node14 -->
<g id="edge15_Node000001_Node000014" class="edge">
<title>Node1&#45;&gt;Node14</title>
<g id="a_edge15_Node000001_Node000014"><a xlink:title=" ">
<path fill="none" stroke="#63b8ff" d="M586.5,-340.8C586.5,-333.34 586.5,-323.99 586.5,-315.41"/>
<polygon fill="#63b8ff" stroke="#63b8ff" points="590,-315.16 586.5,-305.16 583,-315.16 590,-315.16"/>
</a>
</g>
</g>
<!-- Node16 -->
<g id="Node000016" class="node">
<title>Node16</title>
<g id="a_Node000016"><a xlink:title=" ">
<polygon fill="#e0e0e0" stroke="#999999" points="757,-74 688,-74 688,-55 757,-55 757,-74"/>
<text text-anchor="middle" x="722.5" y="-62" font-family="Helvetica,sans-Serif" font-size="10.00">Eigen/Core</text>
</a>
</g>
</g>
<!-- Node1&#45;&gt;Node16 -->
<g id="edge35_Node000001_Node000016" class="edge">
<title>Node1&#45;&gt;Node16</title>
<g id="a_edge35_Node000001_Node000016"><a xlink:title=" ">
<path fill="none" stroke="#63b8ff" d="M642.19,-340.87C693.75,-324.05 762.5,-290.38 762.5,-230.5 762.5,-230.5 762.5,-230.5 762.5,-173.5 762.5,-139.67 745.03,-103.38 733.18,-82.66"/>
<polygon fill="#63b8ff" stroke="#63b8ff" points="736.18,-80.86 728.06,-74.06 730.16,-84.44 736.18,-80.86"/>
</a>
</g>
</g>
<!-- Node3 -->
<g id="Node000003" class="node">
<title>Node3</title>
<g id="a_Node000003"><a xlink:href="_primitive_type_8hpp.html" target="_top" xlink:title=" ">
<polygon fill="white" stroke="#666666" points="171.5,-74 67.5,-74 67.5,-55 171.5,-55 171.5,-74"/>
<text text-anchor="middle" x="119.5" y="-62" font-family="Helvetica,sans-Serif" font-size="10.00">PrimitiveType.hpp</text>
</a>
</g>
</g>
<!-- Node2&#45;&gt;Node3 -->
<g id="edge2_Node000002_Node000003" class="edge">
<title>Node2&#45;&gt;Node3</title>
<g id="a_edge2_Node000002_Node000003"><a xlink:title=" ">
<path fill="none" stroke="#63b8ff" d="M213.27,-219.9C204.43,-211.34 191.05,-197.57 181.5,-184 158.1,-150.75 137.71,-107.55 127.15,-83.57"/>
<polygon fill="#63b8ff" stroke="#63b8ff" points="130.32,-82.06 123.14,-74.27 123.89,-84.84 130.32,-82.06"/>
</a>
</g>
</g>
<!-- Node7 -->
<g id="Node000007" class="node">
<title>Node7</title>
<g id="a_Node000007"><a xlink:href="_tuple_8hpp.html" target="_top" xlink:title=" ">
<polygon fill="white" stroke="#666666" points="254,-184 191,-184 191,-165 254,-165 254,-184"/>
<text text-anchor="middle" x="222.5" y="-172" font-family="Helvetica,sans-Serif" font-size="10.00">Tuple.hpp</text>
</a>
</g>
</g>
<!-- Node2&#45;&gt;Node7 -->
<g id="edge6_Node000002_Node000007" class="edge">
<title>Node2&#45;&gt;Node7</title>
<g id="a_edge6_Node000002_Node000007"><a xlink:title=" ">
<path fill="none" stroke="#63b8ff" d="M222.5,-219.75C222.5,-212.8 222.5,-202.85 222.5,-194.13"/>
<polygon fill="#63b8ff" stroke="#63b8ff" points="226,-194.09 222.5,-184.09 219,-194.09 226,-194.09"/>
</a>
</g>
</g>
<!-- Node4 -->
<g id="Node000004" class="node">
<title>Node4</title>
<g id="a_Node000004"><a xlink:title=" ">
<polygon fill="#e0e0e0" stroke="#999999" points="65,-19 0,-19 0,0 65,0 65,-19"/>
<text text-anchor="middle" x="32.5" y="-7" font-family="Helvetica,sans-Serif" font-size="10.00">stdexcept</text>
</a>
</g>
</g>
<!-- Node3&#45;&gt;Node4 -->
<g id="edge3_Node000003_Node000004" class="edge">
<title>Node3&#45;&gt;Node4</title>
<g id="a_edge3_Node000003_Node000004"><a xlink:title=" ">
<path fill="none" stroke="#63b8ff" d="M105.52,-54.98C92.03,-46.77 71.37,-34.18 55.46,-24.49"/>
<polygon fill="#63b8ff" stroke="#63b8ff" points="57.09,-21.38 46.73,-19.17 53.45,-27.36 57.09,-21.38"/>
</a>
</g>
</g>
<!-- Node5 -->
<g id="Node000005" class="node">
<title>Node5</title>
<g id="a_Node000005"><a xlink:title=" ">
<polygon fill="#e0e0e0" stroke="#999999" points="156,-19 83,-19 83,0 156,0 156,-19"/>
<text text-anchor="middle" x="119.5" y="-7" font-family="Helvetica,sans-Serif" font-size="10.00">string_view</text>
</a>
</g>
</g>
<!-- Node3&#45;&gt;Node5 -->
<g id="edge4_Node000003_Node000005" class="edge">
<title>Node3&#45;&gt;Node5</title>
<g id="a_edge4_Node000003_Node000005"><a xlink:title=" ">
<path fill="none" stroke="#63b8ff" d="M119.5,-54.75C119.5,-47.8 119.5,-37.85 119.5,-29.13"/>
<polygon fill="#63b8ff" stroke="#63b8ff" points="123,-29.09 119.5,-19.09 116,-29.09 123,-29.09"/>
</a>
</g>
</g>
<!-- Node6 -->
<g id="Node000006" class="node">
<title>Node6</title>
<g id="a_Node000006"><a xlink:title=" ">
<polygon fill="#e0e0e0" stroke="#999999" points="221,-19 174,-19 174,0 221,0 221,-19"/>
<text text-anchor="middle" x="197.5" y="-7" font-family="Helvetica,sans-Serif" font-size="10.00">vector</text>
</a>
</g>
</g>
<!-- Node3&#45;&gt;Node6 -->
<g id="edge5_Node000003_Node000006" class="edge">
<title>Node3&#45;&gt;Node6</title>
<g id="a_edge5_Node000003_Node000006"><a xlink:title=" ">
<path fill="none" stroke="#63b8ff" d="M132.03,-54.98C143.9,-46.92 161.96,-34.65 176.11,-25.03"/>
<polygon fill="#63b8ff" stroke="#63b8ff" points="178.44,-27.69 184.74,-19.17 174.5,-21.9 178.44,-27.69"/>
</a>
</g>
</g>
<!-- Node7&#45;&gt;Node3 -->
<g id="edge7_Node000007_Node000003" class="edge">
<title>Node7&#45;&gt;Node3</title>
<g id="a_edge7_Node000007_Node000003"><a xlink:title=" ">
<path fill="none" stroke="#63b8ff" d="M212.64,-164.93C202.73,-156.19 187.14,-142.07 174.5,-129 159.84,-113.84 144.19,-95.54 133.35,-82.49"/>
<polygon fill="#63b8ff" stroke="#63b8ff" points="135.74,-79.89 126.68,-74.39 130.34,-84.34 135.74,-79.89"/>
</a>
</g>
</g>
<!-- Node8 -->
<g id="Node000008" class="node">
<title>Node8</title>
<g id="a_Node000008"><a xlink:href="_tuple_8hxx.html" target="_top" xlink:title=" ">
<polygon fill="white" stroke="#666666" points="413,-129 350,-129 350,-110 413,-110 413,-129"/>
<text text-anchor="middle" x="381.5" y="-117" font-family="Helvetica,sans-Serif" font-size="10.00">Tuple.hxx</text>
</a>
</g>
</g>
<!-- Node7&#45;&gt;Node8 -->
<g id="edge8_Node000007_Node000008" class="edge">
<title>Node7&#45;&gt;Node8</title>
<g id="a_edge8_Node000007_Node000008"><a xlink:title=" ">
<path fill="none" stroke="#63b8ff" d="M242.93,-164.98C267.66,-156.09 309.53,-142.07 340.86,-132.15"/>
<polygon fill="#63b8ff" stroke="#63b8ff" points="342.13,-135.42 350.62,-129.08 340.03,-128.74 342.13,-135.42"/>
</a>
</g>
</g>
<!-- Node8&#45;&gt;Node7 -->
<g id="edge14_Node000008_Node000007" class="edge">
<title>Node8&#45;&gt;Node7</title>
<g id="a_edge14_Node000008_Node000007"><a xlink:title=" ">
<path fill="none" stroke="#63b8ff" d="M360.64,-129.17C335.78,-138.1 294.06,-152.07 262.88,-161.94"/>
<polygon fill="#63b8ff" stroke="#63b8ff" points="261.66,-158.65 253.16,-164.98 263.75,-165.33 261.66,-158.65"/>
</a>
</g>
</g>
<!-- Node9 -->
<g id="Node000009" class="node">
<title>Node9</title>
<g id="a_Node000009"><a xlink:title=" ">
<polygon fill="#e0e0e0" stroke="#999999" points="405,-74 352,-74 352,-55 405,-55 405,-74"/>
<text text-anchor="middle" x="378.5" y="-62" font-family="Helvetica,sans-Serif" font-size="10.00">cstddef</text>
</a>
</g>
</g>
<!-- Node8&#45;&gt;Node9 -->
<g id="edge9_Node000008_Node000009" class="edge">
<title>Node8&#45;&gt;Node9</title>
<g id="a_edge9_Node000008_Node000009"><a xlink:title=" ">
<path fill="none" stroke="#63b8ff" d="M381,-109.75C380.61,-102.8 380.05,-92.85 379.55,-84.13"/>
<polygon fill="#63b8ff" stroke="#63b8ff" points="383.05,-83.88 378.99,-74.09 376.06,-84.27 383.05,-83.88"/>
</a>
</g>
</g>
<!-- Node10 -->
<g id="Node000010" class="node">
<title>Node10</title>
<g id="a_Node000010"><a xlink:title=" ">
<polygon fill="#e0e0e0" stroke="#999999" points="604.5,-74 544.5,-74 544.5,-55 604.5,-55 604.5,-74"/>
<text text-anchor="middle" x="574.5" y="-62" font-family="Helvetica,sans-Serif" font-size="10.00">iostream</text>
</a>
</g>
</g>
<!-- Node8&#45;&gt;Node10 -->
<g id="edge10_Node000008_Node000010" class="edge">
<title>Node8&#45;&gt;Node10</title>
<g id="a_edge10_Node000008_Node000010"><a xlink:title=" ">
<path fill="none" stroke="#63b8ff" d="M412.51,-109.98C445.62,-100.89 498.22,-86.45 534.45,-76.5"/>
<polygon fill="#63b8ff" stroke="#63b8ff" points="535.49,-79.84 544.2,-73.82 533.63,-73.09 535.49,-79.84"/>
</a>
</g>
</g>
<!-- Node11 -->
<g id="Node000011" class="node">
<title>Node11</title>
<g id="a_Node000011"><a xlink:title=" ">
<polygon fill="#e0e0e0" stroke="#999999" points="333.5,-74 277.5,-74 277.5,-55 333.5,-55 333.5,-74"/>
<text text-anchor="middle" x="305.5" y="-62" font-family="Helvetica,sans-Serif" font-size="10.00">optional</text>
</a>
</g>
</g>
<!-- Node8&#45;&gt;Node11 -->
<g id="edge11_Node000008_Node000011" class="edge">
<title>Node8&#45;&gt;Node11</title>
<g id="a_edge11_Node000008_Node000011"><a xlink:title=" ">
<path fill="none" stroke="#63b8ff" d="M369.29,-109.98C357.72,-101.92 340.12,-89.65 326.34,-80.03"/>
<polygon fill="#63b8ff" stroke="#63b8ff" points="328.14,-77.02 317.93,-74.17 324.13,-82.76 328.14,-77.02"/>
</a>
</g>
</g>
<!-- Node12 -->
<g id="Node000012" class="node">
<title>Node12</title>
<g id="a_Node000012"><a xlink:title=" ">
<polygon fill="#e0e0e0" stroke="#999999" points="526.5,-74 482.5,-74 482.5,-55 526.5,-55 526.5,-74"/>
<text text-anchor="middle" x="504.5" y="-62" font-family="Helvetica,sans-Serif" font-size="10.00">string</text>
</a>
</g>
</g>
<!-- Node8&#45;&gt;Node12 -->
<g id="edge12_Node000008_Node000012" class="edge">
<title>Node8&#45;&gt;Node12</title>
<g id="a_edge12_Node000008_Node000012"><a xlink:title=" ">
<path fill="none" stroke="#63b8ff" d="M401.26,-109.98C421.23,-101.38 452.3,-87.99 475.15,-78.15"/>
<polygon fill="#63b8ff" stroke="#63b8ff" points="476.58,-81.34 484.38,-74.17 473.81,-74.91 476.58,-81.34"/>
</a>
</g>
</g>
<!-- Node13 -->
<g id="Node000013" class="node">
<title>Node13</title>
<g id="a_Node000013"><a xlink:title=" ">
<polygon fill="#e0e0e0" stroke="#999999" points="464,-74 423,-74 423,-55 464,-55 464,-74"/>
<text text-anchor="middle" x="443.5" y="-62" font-family="Helvetica,sans-Serif" font-size="10.00">tuple</text>
</a>
</g>
</g>
<!-- Node8&#45;&gt;Node13 -->
<g id="edge13_Node000008_Node000013" class="edge">
<title>Node8&#45;&gt;Node13</title>
<g id="a_edge13_Node000008_Node000013"><a xlink:title=" ">
<path fill="none" stroke="#63b8ff" d="M391.46,-109.98C400.63,-102.15 414.44,-90.34 425.53,-80.86"/>
<polygon fill="#63b8ff" stroke="#63b8ff" points="428.03,-83.33 433.36,-74.17 423.48,-78.01 428.03,-83.33"/>
</a>
</g>
</g>
<!-- Node15 -->
<g id="Node000015" class="node">
<title>Node15</title>
<g id="a_Node000015"><a xlink:href="_rational_8hpp.html" target="_top" xlink:title=" ">
<polygon fill="white" stroke="#666666" points="624,-129 491,-129 491,-110 624,-110 624,-129"/>
<text text-anchor="middle" x="557.5" y="-117" font-family="Helvetica,sans-Serif" font-size="10.00">wmtk/utils/Rational.hpp</text>
</a>
</g>
</g>
<!-- Node14&#45;&gt;Node15 -->
<g id="edge16_Node000014_Node000015" class="edge">
<title>Node14&#45;&gt;Node15</title>
<g id="a_edge16_Node000014_Node000015"><a xlink:title=" ">
<path fill="none" stroke="#63b8ff" d="M598.73,-274.79C606.04,-265.33 614.62,-252.25 618.5,-239 620.87,-230.9 620.29,-228.25 618.5,-220 611.43,-187.35 588.16,-155.48 572.49,-136.93"/>
<polygon fill="#63b8ff" stroke="#63b8ff" points="574.93,-134.4 565.72,-129.17 569.66,-139.01 574.93,-134.4"/>
</a>
</g>
</g>
<!-- Node18 -->
<g id="Node000018" class="node">
<title>Node18</title>
<g id="a_Node000018"><a xlink:href="_typed_attribute_handle_8hpp.html" target="_top" xlink:title=" ">
<polygon fill="white" stroke="#666666" points="415,-184 272,-184 272,-165 415,-165 415,-184"/>
<text text-anchor="middle" x="343.5" y="-172" font-family="Helvetica,sans-Serif" font-size="10.00">TypedAttributeHandle.hpp</text>
</a>
</g>
</g>
<!-- Node14&#45;&gt;Node18 -->
<g id="edge21_Node000014_Node000018" class="edge">
<title>Node14&#45;&gt;Node18</title>
<g id="a_edge21_Node000014_Node000018"><a xlink:title=" ">
<path fill="none" stroke="#63b8ff" d="M521.23,-274.94C490.52,-266.85 454.02,-255.05 423.5,-239 399.14,-226.18 374.9,-205.56 359.6,-191.31"/>
<polygon fill="#63b8ff" stroke="#63b8ff" points="361.73,-188.5 352.07,-184.14 356.9,-193.57 361.73,-188.5"/>
</a>
</g>
</g>
<!-- Node21 -->
<g id="Node000021" class="node">
<title>Node21</title>
<g id="a_Node000021"><a xlink:href="_hybrid_rational_attribute_8hpp.html" target="_top" xlink:title=" ">
<polygon fill="white" stroke="#666666" points="609,-239 432,-239 432,-220 609,-220 609,-239"/>
<text text-anchor="middle" x="520.5" y="-227" font-family="Helvetica,sans-Serif" font-size="10.00">utils/HybridRationalAttribute.hpp</text>
</a>
</g>
</g>
<!-- Node14&#45;&gt;Node21 -->
<g id="edge27_Node000014_Node000021" class="edge">
<title>Node14&#45;&gt;Node21</title>
<g id="a_edge27_Node000014_Node000021"><a xlink:title=" ">
<path fill="none" stroke="#63b8ff" d="M570.52,-274.84C560.75,-266.17 548.23,-255.08 538.16,-246.15"/>
<polygon fill="#63b8ff" stroke="#63b8ff" points="540.19,-243.28 530.39,-239.27 535.55,-248.52 540.19,-243.28"/>
</a>
</g>
</g>
<!-- Node23 -->
<g id="Node000023" class="node">
<title>Node23</title>
<g id="a_Node000023"><a xlink:title=" ">
<polygon fill="#e0e0e0" stroke="#999999" points="734,-239 683,-239 683,-220 734,-220 734,-239"/>
<text text-anchor="middle" x="708.5" y="-227" font-family="Helvetica,sans-Serif" font-size="10.00">variant</text>
</a>
</g>
</g>
<!-- Node14&#45;&gt;Node23 -->
<g id="edge34_Node000014_Node000023" class="edge">
<title>Node14&#45;&gt;Node23</title>
<g id="a_edge34_Node000014_Node000023"><a xlink:title=" ">
<path fill="none" stroke="#63b8ff" d="M615.72,-274.99C635.62,-265.45 661.78,-252.9 681.25,-243.57"/>
<polygon fill="#63b8ff" stroke="#63b8ff" points="682.98,-246.62 690.48,-239.14 679.95,-240.31 682.98,-246.62"/>
</a>
</g>
</g>
<!-- Node15&#45;&gt;Node10 -->
<g id="edge19_Node000015_Node000010" class="edge">
<title>Node15&#45;&gt;Node10</title>
<g id="a_edge19_Node000015_Node000010"><a xlink:title=" ">
<path fill="none" stroke="#63b8ff" d="M560.31,-109.75C562.56,-102.72 565.8,-92.62 568.62,-83.84"/>
<polygon fill="#63b8ff" stroke="#63b8ff" points="572.02,-84.68 571.75,-74.09 565.36,-82.54 572.02,-84.68"/>
</a>
</g>
</g>
<!-- Node15&#45;&gt;Node12 -->
<g id="edge20_Node000015_Node000012" class="edge">
<title>Node15&#45;&gt;Node12</title>
<g id="a_edge20_Node000015_Node000012"><a xlink:title=" ">
<path fill="none" stroke="#63b8ff" d="M548.75,-109.75C541.03,-102.03 529.6,-90.6 520.28,-81.28"/>
<polygon fill="#63b8ff" stroke="#63b8ff" points="522.64,-78.69 513.09,-74.09 517.69,-83.64 522.64,-78.69"/>
</a>
</g>
</g>
<!-- Node15&#45;&gt;Node16 -->
<g id="edge17_Node000015_Node000016" class="edge">
<title>Node15&#45;&gt;Node16</title>
<g id="a_edge17_Node000015_Node000016"><a xlink:title=" ">
<path fill="none" stroke="#63b8ff" d="M584.01,-109.98C611.71,-101.09 655.36,-87.07 686.24,-77.15"/>
<polygon fill="#63b8ff" stroke="#63b8ff" points="687.33,-80.47 695.78,-74.08 685.19,-73.81 687.33,-80.47"/>
</a>
</g>
</g>
<!-- Node17 -->
<g id="Node000017" class="node">
<title>Node17</title>
<g id="a_Node000017"><a xlink:title=" ">
<polygon fill="#e0e0e0" stroke="#999999" points="670,-74 623,-74 623,-55 670,-55 670,-74"/>
<text text-anchor="middle" x="646.5" y="-62" font-family="Helvetica,sans-Serif" font-size="10.00">gmp.h</text>
</a>
</g>
</g>
<!-- Node15&#45;&gt;Node17 -->
<g id="edge18_Node000015_Node000017" class="edge">
<title>Node15&#45;&gt;Node17</title>
<g id="a_edge18_Node000015_Node000017"><a xlink:title=" ">
<path fill="none" stroke="#63b8ff" d="M571.8,-109.98C585.6,-101.77 606.74,-89.18 623.01,-79.49"/>
<polygon fill="#63b8ff" stroke="#63b8ff" points="625.14,-82.29 631.94,-74.17 621.56,-76.28 625.14,-82.29"/>
</a>
</g>
</g>
<!-- Node18&#45;&gt;Node3 -->
<g id="edge22_Node000018_Node000003" class="edge">
<title>Node18&#45;&gt;Node3</title>
<g id="a_edge22_Node000018_Node000003"><a xlink:title=" ">
<path fill="none" stroke="#63b8ff" d="M307.37,-164.95C279.24,-157.53 239.72,-145.39 207.5,-129 181.19,-115.61 154.12,-94.83 137.08,-80.71"/>
<polygon fill="#63b8ff" stroke="#63b8ff" points="139.04,-77.79 129.14,-74.01 134.52,-83.14 139.04,-77.79"/>
</a>
</g>
</g>
<!-- Node18&#45;&gt;Node15 -->
<g id="edge23_Node000018_Node000015" class="edge">
<title>Node18&#45;&gt;Node15</title>
<g id="a_edge23_Node000018_Node000015"><a xlink:title=" ">
<path fill="none" stroke="#63b8ff" d="M377.88,-164.98C414.59,-155.89 472.88,-141.46 513.05,-131.51"/>
<polygon fill="#63b8ff" stroke="#63b8ff" points="513.98,-134.88 522.85,-129.08 512.3,-128.09 513.98,-134.88"/>
</a>
</g>
</g>
<!-- Node19 -->
<g id="Node000019" class="node">
<title>Node19</title>
<g id="a_Node000019"><a xlink:href="_attribute_handle_8hpp.html" target="_top" xlink:title=" ">
<polygon fill="white" stroke="#666666" points="332,-129 217,-129 217,-110 332,-110 332,-129"/>
<text text-anchor="middle" x="274.5" y="-117" font-family="Helvetica,sans-Serif" font-size="10.00">AttributeHandle.hpp</text>
</a>
</g>
</g>
<!-- Node18&#45;&gt;Node19 -->
<g id="edge24_Node000018_Node000019" class="edge">
<title>Node18&#45;&gt;Node19</title>
<g id="a_edge24_Node000018_Node000019"><a xlink:title=" ">
<path fill="none" stroke="#63b8ff" d="M332.41,-164.98C322.01,-157 306.24,-144.88 293.78,-135.31"/>
<polygon fill="#63b8ff" stroke="#63b8ff" points="295.85,-132.49 285.79,-129.17 291.59,-138.04 295.85,-132.49"/>
</a>
</g>
</g>
<!-- Node19&#45;&gt;Node3 -->
<g id="edge26_Node000019_Node000003" class="edge">
<title>Node19&#45;&gt;Node3</title>
<g id="a_edge26_Node000019_Node000003"><a xlink:title=" ">
<path fill="none" stroke="#63b8ff" d="M249.6,-109.98C223.8,-101.16 183.28,-87.31 154.32,-77.41"/>
<polygon fill="#63b8ff" stroke="#63b8ff" points="155.19,-74.01 144.6,-74.08 152.93,-80.63 155.19,-74.01"/>
</a>
</g>
</g>
<!-- Node20 -->
<g id="Node000020" class="node">
<title>Node20</title>
<g id="a_Node000020"><a xlink:title=" ">
<polygon fill="#e0e0e0" stroke="#999999" points="259,-74 190,-74 190,-55 259,-55 259,-74"/>
<text text-anchor="middle" x="224.5" y="-62" font-family="Helvetica,sans-Serif" font-size="10.00">type_traits</text>
</a>
</g>
</g>
<!-- Node19&#45;&gt;Node20 -->
<g id="edge25_Node000019_Node000020" class="edge">
<title>Node19&#45;&gt;Node20</title>
<g id="a_edge25_Node000019_Node000020"><a xlink:title=" ">
<path fill="none" stroke="#63b8ff" d="M266.24,-109.75C259.04,-102.11 248.39,-90.82 239.65,-81.56"/>
<polygon fill="#63b8ff" stroke="#63b8ff" points="242.01,-78.96 232.6,-74.09 236.92,-83.76 242.01,-78.96"/>
</a>
</g>
</g>
<!-- Node21&#45;&gt;Node7 -->
<g id="edge31_Node000021_Node000007" class="edge">
<title>Node21&#45;&gt;Node7</title>
<g id="a_edge31_Node000021_Node000007"><a xlink:title=" ">
<path fill="none" stroke="#63b8ff" d="M467.52,-219.98C417.53,-211.79 340.24,-198.79 264.54,-184.34"/>
<polygon fill="#63b8ff" stroke="#63b8ff" points="264.83,-180.83 254.35,-182.38 263.52,-187.71 264.83,-180.83"/>
</a>
</g>
</g>
<!-- Node21&#45;&gt;Node13 -->
<g id="edge30_Node000021_Node000013" class="edge">
<title>Node21&#45;&gt;Node13</title>
<g id="a_edge30_Node000021_Node000013"><a xlink:title=" ">
<path fill="none" stroke="#63b8ff" d="M503.11,-219.88C489.76,-212.32 472.05,-200.02 462.5,-184 443.89,-152.79 441.82,-109.12 442.39,-84.44"/>
<polygon fill="#63b8ff" stroke="#63b8ff" points="445.89,-84.4 442.8,-74.27 438.9,-84.12 445.89,-84.4"/>
</a>
</g>
</g>
<!-- Node21&#45;&gt;Node15 -->
<g id="edge33_Node000021_Node000015" class="edge">
<title>Node21&#45;&gt;Node15</title>
<g id="a_edge33_Node000021_Node000015"><a xlink:title=" ">
<path fill="none" stroke="#63b8ff" d="M539.17,-219.97C552.83,-212.59 570.36,-200.5 578.5,-184 585.94,-168.92 578.24,-150.57 570.15,-137.49"/>
<polygon fill="#63b8ff" stroke="#63b8ff" points="572.91,-135.32 564.4,-129.01 567.11,-139.25 572.91,-135.32"/>
</a>
</g>
</g>
<!-- Node21&#45;&gt;Node16 -->
<g id="edge29_Node000021_Node000016" class="edge">
<title>Node21&#45;&gt;Node16</title>
<g id="a_edge29_Node000021_Node000016"><a xlink:title=" ">
<path fill="none" stroke="#63b8ff" d="M536.45,-219.97C551.64,-211.58 574.88,-198.01 593.5,-184 637.6,-150.81 684,-105.12 707.28,-81.34"/>
<polygon fill="#63b8ff" stroke="#63b8ff" points="709.8,-83.77 714.25,-74.16 704.78,-78.9 709.8,-83.77"/>
</a>
</g>
</g>
<!-- Node21&#45;&gt;Node18 -->
<g id="edge32_Node000021_Node000018" class="edge">
<title>Node21&#45;&gt;Node18</title>
<g id="a_edge32_Node000021_Node000018"><a xlink:title=" ">
<path fill="none" stroke="#63b8ff" d="M492.06,-219.98C462.22,-211.05 415.12,-196.94 381.97,-187.02"/>
<polygon fill="#63b8ff" stroke="#63b8ff" points="382.74,-183.6 372.16,-184.08 380.74,-190.3 382.74,-183.6"/>
</a>
</g>
</g>
<!-- Node22 -->
<g id="Node000022" class="node">
<title>Node22</title>
<g id="a_Node000022"><a xlink:title=" ">
<polygon fill="#e0e0e0" stroke="#999999" points="569.5,-184 471.5,-184 471.5,-165 569.5,-165 569.5,-184"/>
<text text-anchor="middle" x="520.5" y="-172" font-family="Helvetica,sans-Serif" font-size="10.00">spdlog/fmt/fmt.h</text>
</a>
</g>
</g>
<!-- Node21&#45;&gt;Node22 -->
<g id="edge28_Node000021_Node000022" class="edge">
<title>Node21&#45;&gt;Node22</title>
<g id="a_edge28_Node000021_Node000022"><a xlink:title=" ">
<path fill="none" stroke="#63b8ff" d="M520.5,-219.75C520.5,-212.8 520.5,-202.85 520.5,-194.13"/>
<polygon fill="#63b8ff" stroke="#63b8ff" points="524,-194.09 520.5,-184.09 517,-194.09 524,-194.09"/>
</a>
</g>
</g>
</g>
</svg>

<g id="navigator" transform="translate(0 0)" fill="#404254">
  <rect fill="#f2f5e9" fill-opacity="0.5" stroke="#606060" stroke-width=".5" x="0" y="0" width="60" height="60"/>
  <use id="zoomplus" xlink:href="#zoomPlus" x="17" y="9" onmousedown="handleZoom(evt,'in')"/>
  <use id="zoomminus" xlink:href="#zoomMin" x="42" y="9" onmousedown="handleZoom(evt,'out')"/>
  <use id="reset" xlink:href="#resetDef" x="30" y="36" onmousedown="handleReset()"/>
   <use id="arrowup" xlink:href="#arrowUp" x="0" y="0" onmousedown="handlePan(0,-1)"/>
  <use id="arrowright" xlink:href="#arrowRight" x="0" y="0" onmousedown="handlePan(1,0)"/>
  <use id="arrowdown" xlink:href="#arrowDown" x="0" y="0" onmousedown="handlePan(0,1)"/>
  <use id="arrowleft" xlink:href="#arrowLeft" x="0" y="0" onmousedown="handlePan(-1,0)"/>
</g>
<svg viewBox="0 0 15 15" width="100%" height="30px" preserveAspectRatio="xMaxYMin meet">
 <g id="arrow_out" transform="scale(0.3 0.3)">
  <a xlink:href="_per_simplex_function_8hpp__incl_org.svg" target="_base">
   <rect id="button" ry="5" rx="5" y="6" x="6" height="38" width="38"
        fill="#f2f5e9" fill-opacity="0.5" stroke="#606060" stroke-width="1.0"/>
   <path id="arrow"
     d="M 11.500037,31.436501 C 11.940474,20.09759 22.043105,11.32322 32.158766,21.979434 L 37.068811,17.246167 C 37.068811,17.246167 37.088388,32 37.088388,32 L 22.160133,31.978069 C 22.160133,31.978069 26.997745,27.140456 26.997745,27.140456 C 18.528582,18.264221 13.291696,25.230495 11.500037,31.436501 z"
     style="fill:#404040;"/>
  </a>
 </g>
</svg>

<style type='text/css'>
<![CDATA[
[data-mouse-over-selected='false'] { opacity: 0.7; }
[data-mouse-over-selected='true']  { opacity: 1.0; }
]]>
</style>
<script type="application/ecmascript"><![CDATA[
document.addEventListener('DOMContentLoaded', (event) => {
  highlightEdges();
  highlightAdjacentNodes();
});
]]></script>
</svg>
