<?xml version="1.0" encoding="UTF-8" standalone="no"?>
<!DOCTYPE svg PUBLIC "-//W3C//DTD SVG 1.1//EN"
 "http://www.w3.org/Graphics/SVG/1.1/DTD/svg11.dtd">
<!-- Generated by graphviz version 2.43.0 (0)
 -->
<!-- Title: src/wmtk/autogen/SimplexDart.cpp Pages: 1 -->
<svg width="1802pt" height="335pt"
 viewBox="0.00 0.00 1802.31 335.00" xmlns="http://www.w3.org/2000/svg" xmlns:xlink="http://www.w3.org/1999/xlink">
<g id="graph0" class="graph" transform="scale(1 1) rotate(0) translate(4 331)">
<title>src/wmtk/autogen/SimplexDart.cpp</title>
<!-- Node1 -->
<g id="Node000001" class="node">
<title>Node1</title>
<g id="a_Node000001"><a xlink:title=" ">
<polygon fill="#999999" stroke="#666666" points="645.5,-327 498.5,-327 498.5,-297 645.5,-297 645.5,-327"/>
<text text-anchor="start" x="506.5" y="-315" font-family="Helvetica,sans-Serif" font-size="10.00">src/wmtk/autogen/Simplex</text>
<text text-anchor="middle" x="572" y="-304" font-family="Helvetica,sans-Serif" font-size="10.00">Dart.cpp</text>
</a>
</g>
</g>
<!-- Node2 -->
<g id="Node000002" class="node">
<title>Node2</title>
<g id="a_Node000002"><a xlink:href="_simplex_dart_8hpp.html" target="_top" xlink:title=" ">
<polygon fill="white" stroke="#666666" points="98,-195 0,-195 0,-176 98,-176 98,-195"/>
<text text-anchor="middle" x="49" y="-183" font-family="Helvetica,sans-Serif" font-size="10.00">SimplexDart.hpp</text>
</a>
</g>
</g>
<!-- Node1&#45;&gt;Node2 -->
<g id="edge1_Node000001_Node000002" class="edge">
<title>Node1&#45;&gt;Node2</title>
<g id="a_edge1_Node000001_Node000002"><a xlink:title=" ">
<path fill="none" stroke="#63b8ff" d="M498.43,-309.45C359.84,-305.77 71.19,-294.17 41,-261 27.22,-245.86 33.4,-221.19 40.21,-204.42"/>
<polygon fill="#63b8ff" stroke="#63b8ff" points="43.47,-205.71 44.36,-195.16 37.08,-202.85 43.47,-205.71"/>
</a>
</g>
</g>
<!-- Node20 -->
<g id="Node000020" class="node">
<title>Node20</title>
<g id="a_Node000020"><a xlink:title=" ">
<polygon fill="#e0e0e0" stroke="#999999" points="560,-134.5 508,-134.5 508,-115.5 560,-115.5 560,-134.5"/>
<text text-anchor="middle" x="534" y="-122.5" font-family="Helvetica,sans-Serif" font-size="10.00">cassert</text>
</a>
</g>
</g>
<!-- Node1&#45;&gt;Node20 -->
<g id="edge26_Node000001_Node000020" class="edge">
<title>Node1&#45;&gt;Node20</title>
<g id="a_edge26_Node000001_Node000020"><a xlink:title=" ">
<path fill="none" stroke="#63b8ff" d="M569.08,-296.79C562.28,-263.67 545.37,-181.34 537.78,-144.42"/>
<polygon fill="#63b8ff" stroke="#63b8ff" points="541.19,-143.62 535.75,-134.53 534.34,-145.03 541.19,-143.62"/>
</a>
</g>
</g>
<!-- Node21 -->
<g id="Node000021" class="node">
<title>Node21</title>
<g id="a_Node000021"><a xlink:href="_tuple_inspector_8hpp.html" target="_top" xlink:title=" ">
<polygon fill="white" stroke="#666666" points="486,-195 324,-195 324,-176 486,-176 486,-195"/>
<text text-anchor="middle" x="405" y="-183" font-family="Helvetica,sans-Serif" font-size="10.00">wmtk/utils/TupleInspector.hpp</text>
</a>
</g>
</g>
<!-- Node1&#45;&gt;Node21 -->
<g id="edge27_Node000001_Node000021" class="edge">
<title>Node1&#45;&gt;Node21</title>
<g id="a_edge27_Node000001_Node000021"><a xlink:title=" ">
<path fill="none" stroke="#63b8ff" d="M498.47,-303.12C469.81,-296.36 439.09,-283.89 419,-261 405.6,-245.73 403.27,-221.79 403.53,-205.18"/>
<polygon fill="#63b8ff" stroke="#63b8ff" points="407.03,-205.21 404.02,-195.05 400.04,-204.87 407.03,-205.21"/>
</a>
</g>
</g>
<!-- Node22 -->
<g id="Node000022" class="node">
<title>Node22</title>
<g id="a_Node000022"><a xlink:href="edge__mesh_2_simplex_dart_8hpp.html" target="_top" xlink:title=" ">
<polygon fill="white" stroke="#666666" points="1497,-195 1339,-195 1339,-176 1497,-176 1497,-195"/>
<text text-anchor="middle" x="1418" y="-183" font-family="Helvetica,sans-Serif" font-size="10.00">edge_mesh/SimplexDart.hpp</text>
</a>
</g>
</g>
<!-- Node1&#45;&gt;Node22 -->
<g id="edge32_Node000001_Node000022" class="edge">
<title>Node1&#45;&gt;Node22</title>
<g id="a_edge32_Node000001_Node000022"><a xlink:title=" ">
<path fill="none" stroke="#63b8ff" d="M645.72,-300.76C717.16,-290.79 828.54,-275.12 925,-261 1078.29,-238.56 1258.21,-211.08 1352.6,-196.58"/>
<polygon fill="#63b8ff" stroke="#63b8ff" points="1353.22,-200.03 1362.57,-195.05 1352.16,-193.11 1353.22,-200.03"/>
</a>
</g>
</g>
<!-- Node26 -->
<g id="Node000026" class="node">
<title>Node26</title>
<g id="a_Node000026"><a xlink:href="point__mesh_2_simplex_dart_8hpp.html" target="_top" xlink:title=" ">
<polygon fill="white" stroke="#666666" points="893,-195 735,-195 735,-176 893,-176 893,-195"/>
<text text-anchor="middle" x="814" y="-183" font-family="Helvetica,sans-Serif" font-size="10.00">point_mesh/SimplexDart.hpp</text>
</a>
</g>
</g>
<!-- Node1&#45;&gt;Node26 -->
<g id="edge39_Node000001_Node000026" class="edge">
<title>Node1&#45;&gt;Node26</title>
<g id="a_edge39_Node000001_Node000026"><a xlink:title=" ">
<path fill="none" stroke="#63b8ff" d="M638.04,-296.99C667.68,-289.04 702.34,-277.34 731,-261 758.22,-245.49 784.19,-219.82 799.61,-203.04"/>
<polygon fill="#63b8ff" stroke="#63b8ff" points="802.6,-204.95 806.67,-195.17 797.39,-200.28 802.6,-204.95"/>
</a>
</g>
</g>
<!-- Node28 -->
<g id="Node000028" class="node">
<title>Node28</title>
<g id="a_Node000028"><a xlink:href="simplex__index__from__valid__index_8hpp.html" target="_top" xlink:title=" ">
<polygon fill="white" stroke="#666666" points="544,-261 428,-261 428,-231 544,-231 544,-261"/>
<text text-anchor="start" x="436" y="-249" font-family="Helvetica,sans-Serif" font-size="10.00">simplex_index_from</text>
<text text-anchor="middle" x="486" y="-238" font-family="Helvetica,sans-Serif" font-size="10.00">_valid_index.hpp</text>
</a>
</g>
</g>
<!-- Node1&#45;&gt;Node28 -->
<g id="edge45_Node000001_Node000028" class="edge">
<title>Node1&#45;&gt;Node28</title>
<g id="a_edge45_Node000001_Node000028"><a xlink:title=" ">
<path fill="none" stroke="#63b8ff" d="M552.91,-296.8C541.22,-288.1 526.07,-276.82 513.15,-267.2"/>
<polygon fill="#63b8ff" stroke="#63b8ff" points="515.14,-264.33 505.03,-261.16 510.97,-269.94 515.14,-264.33"/>
</a>
</g>
</g>
<!-- Node29 -->
<g id="Node000029" class="node">
<title>Node29</title>
<g id="a_Node000029"><a xlink:href="convert_8hpp.html" target="_top" xlink:title=" ">
<polygon fill="white" stroke="#666666" points="722,-255.5 600,-255.5 600,-236.5 722,-236.5 722,-255.5"/>
<text text-anchor="middle" x="661" y="-243.5" font-family="Helvetica,sans-Serif" font-size="10.00">subgroup/convert.hpp</text>
</a>
</g>
</g>
<!-- Node1&#45;&gt;Node29 -->
<g id="edge47_Node000001_Node000029" class="edge">
<title>Node1&#45;&gt;Node29</title>
<g id="a_edge47_Node000001_Node000029"><a xlink:title=" ">
<path fill="none" stroke="#63b8ff" d="M591.75,-296.8C606.26,-286.37 625.9,-272.24 640.56,-261.69"/>
<polygon fill="#63b8ff" stroke="#63b8ff" points="642.88,-264.34 648.96,-255.66 638.8,-258.66 642.88,-264.34"/>
</a>
</g>
</g>
<!-- Node32 -->
<g id="Node000032" class="node">
<title>Node32</title>
<g id="a_Node000032"><a xlink:href="tet__mesh_2_simplex_dart_8hpp.html" target="_top" xlink:title=" ">
<polygon fill="white" stroke="#666666" points="1104.5,-195 957.5,-195 957.5,-176 1104.5,-176 1104.5,-195"/>
<text text-anchor="middle" x="1031" y="-183" font-family="Helvetica,sans-Serif" font-size="10.00">tet_mesh/SimplexDart.hpp</text>
</a>
</g>
</g>
<!-- Node1&#45;&gt;Node32 -->
<g id="edge54_Node000001_Node000032" class="edge">
<title>Node1&#45;&gt;Node32</title>
<g id="a_edge54_Node000001_Node000032"><a xlink:title=" ">
<path fill="none" stroke="#63b8ff" d="M627.1,-296.92C665.52,-287.04 717.94,-273.42 764,-261 844.8,-239.21 939.04,-212.64 991.17,-197.85"/>
<polygon fill="#63b8ff" stroke="#63b8ff" points="992.35,-201.15 1001.02,-195.05 990.44,-194.42 992.35,-201.15"/>
</a>
</g>
</g>
<!-- Node34 -->
<g id="Node000034" class="node">
<title>Node34</title>
<g id="a_Node000034"><a xlink:href="tri__mesh_2_simplex_dart_8hpp.html" target="_top" xlink:title=" ">
<polygon fill="white" stroke="#666666" points="1303,-195 1159,-195 1159,-176 1303,-176 1303,-195"/>
<text text-anchor="middle" x="1231" y="-183" font-family="Helvetica,sans-Serif" font-size="10.00">tri_mesh/SimplexDart.hpp</text>
</a>
</g>
</g>
<!-- Node1&#45;&gt;Node34 -->
<g id="edge61_Node000001_Node000034" class="edge">
<title>Node1&#45;&gt;Node34</title>
<g id="a_edge61_Node000001_Node000034"><a xlink:title=" ">
<path fill="none" stroke="#63b8ff" d="M645.68,-297.08C778.99,-271.89 1057.39,-219.3 1175.8,-196.93"/>
<polygon fill="#63b8ff" stroke="#63b8ff" points="1176.56,-200.35 1185.73,-195.05 1175.26,-193.47 1176.56,-200.35"/>
</a>
</g>
</g>
<!-- Node36 -->
<g id="Node000036" class="node">
<title>Node36</title>
<g id="a_Node000036"><a xlink:href="tuple__from__valid__index_8hpp.html" target="_top" xlink:title=" ">
<polygon fill="white" stroke="#666666" points="372,-255.5 220,-255.5 220,-236.5 372,-236.5 372,-255.5"/>
<text text-anchor="middle" x="296" y="-243.5" font-family="Helvetica,sans-Serif" font-size="10.00">tuple_from_valid_index.hpp</text>
</a>
</g>
</g>
<!-- Node1&#45;&gt;Node36 -->
<g id="edge68_Node000001_Node000036" class="edge">
<title>Node1&#45;&gt;Node36</title>
<g id="a_edge68_Node000001_Node000036"><a xlink:title=" ">
<path fill="none" stroke="#63b8ff" d="M511.43,-296.95C460.58,-285.16 388.98,-268.56 342.53,-257.79"/>
<polygon fill="#63b8ff" stroke="#63b8ff" points="343.26,-254.37 332.73,-255.52 341.68,-261.19 343.26,-254.37"/>
</a>
</g>
</g>
<!-- Node38 -->
<g id="Node000038" class="node">
<title>Node38</title>
<g id="a_Node000038"><a xlink:href="valid__index__from__tuple_8hpp.html" target="_top" xlink:title=" ">
<polygon fill="white" stroke="#666666" points="202,-255.5 50,-255.5 50,-236.5 202,-236.5 202,-255.5"/>
<text text-anchor="middle" x="126" y="-243.5" font-family="Helvetica,sans-Serif" font-size="10.00">valid_index_from_tuple.hpp</text>
</a>
</g>
</g>
<!-- Node1&#45;&gt;Node38 -->
<g id="edge73_Node000001_Node000038" class="edge">
<title>Node1&#45;&gt;Node38</title>
<g id="a_edge73_Node000001_Node000038"><a xlink:title=" ">
<path fill="none" stroke="#63b8ff" d="M498.29,-301.35C425.27,-291.66 310.31,-276.05 211,-261 203.01,-259.79 194.61,-258.47 186.32,-257.13"/>
<polygon fill="#63b8ff" stroke="#63b8ff" points="186.74,-253.65 176.31,-255.5 185.62,-260.56 186.74,-253.65"/>
</a>
</g>
</g>
<!-- Node3 -->
<g id="Node000003" class="node">
<title>Node3</title>
<g id="a_Node000003"><a xlink:href="_primitive_type_8hpp.html" target="_top" xlink:title=" ">
<polygon fill="white" stroke="#666666" points="540.5,-74 405.5,-74 405.5,-55 540.5,-55 540.5,-74"/>
<text text-anchor="middle" x="473" y="-62" font-family="Helvetica,sans-Serif" font-size="10.00">wmtk/PrimitiveType.hpp</text>
</a>
</g>
</g>
<!-- Node2&#45;&gt;Node3 -->
<g id="edge2_Node000002_Node000003" class="edge">
<title>Node2&#45;&gt;Node3</title>
<g id="a_edge2_Node000002_Node000003"><a xlink:title=" ">
<path fill="none" stroke="#63b8ff" d="M62.26,-175.78C86.91,-159.99 141.93,-126.79 193,-110 259.39,-88.18 338.26,-76.88 395.35,-71.13"/>
<polygon fill="#63b8ff" stroke="#63b8ff" points="395.78,-74.61 405.39,-70.16 395.1,-67.64 395.78,-74.61"/>
</a>
</g>
</g>
<!-- Node7 -->
<g id="Node000007" class="node">
<title>Node7</title>
<g id="a_Node000007"><a xlink:href="_tuple_8hpp.html" target="_top" xlink:title=" ">
<polygon fill="white" stroke="#666666" points="296,-134.5 202,-134.5 202,-115.5 296,-115.5 296,-134.5"/>
<text text-anchor="middle" x="249" y="-122.5" font-family="Helvetica,sans-Serif" font-size="10.00">wmtk/Tuple.hpp</text>
</a>
</g>
</g>
<!-- Node2&#45;&gt;Node7 -->
<g id="edge6_Node000002_Node000007" class="edge">
<title>Node2&#45;&gt;Node7</title>
<g id="a_edge6_Node000002_Node000007"><a xlink:title=" ">
<path fill="none" stroke="#63b8ff" d="M78.08,-175.99C112.89,-165.81 171.32,-148.72 210.01,-137.4"/>
<polygon fill="#63b8ff" stroke="#63b8ff" points="211.27,-140.68 219.88,-134.52 209.3,-133.96 211.27,-140.68"/>
</a>
</g>
</g>
<!-- Node14 -->
<g id="Node000014" class="node">
<title>Node14</title>
<g id="a_Node000014"><a xlink:href="_types_8hpp.html" target="_top" xlink:title=" ">
<polygon fill="white" stroke="#666666" points="1070,-134.5 974,-134.5 974,-115.5 1070,-115.5 1070,-134.5"/>
<text text-anchor="middle" x="1022" y="-122.5" font-family="Helvetica,sans-Serif" font-size="10.00">wmtk/Types.hpp</text>
</a>
</g>
</g>
<!-- Node2&#45;&gt;Node14 -->
<g id="edge15_Node000002_Node000014" class="edge">
<title>Node2&#45;&gt;Node14</title>
<g id="a_edge15_Node000002_Node000014"><a xlink:title=" ">
<path fill="none" stroke="#63b8ff" d="M98,-181.32C123.37,-179.69 154.85,-177.7 183,-176 462.95,-159.12 533.08,-157.37 813,-140 863.97,-136.84 921.9,-132.93 963.83,-130.05"/>
<polygon fill="#63b8ff" stroke="#63b8ff" points="964.13,-133.54 973.86,-129.36 963.65,-126.55 964.13,-133.54"/>
</a>
</g>
</g>
<!-- Node18 -->
<g id="Node000018" class="node">
<title>Node18</title>
<g id="a_Node000018"><a xlink:href="_dart_8hpp.html" target="_top" xlink:title=" ">
<polygon fill="white" stroke="#666666" points="102.5,-74 43.5,-74 43.5,-55 102.5,-55 102.5,-74"/>
<text text-anchor="middle" x="73" y="-62" font-family="Helvetica,sans-Serif" font-size="10.00">Dart.hpp</text>
</a>
</g>
</g>
<!-- Node2&#45;&gt;Node18 -->
<g id="edge22_Node000002_Node000018" class="edge">
<title>Node2&#45;&gt;Node18</title>
<g id="a_edge22_Node000002_Node000018"><a xlink:title=" ">
<path fill="none" stroke="#63b8ff" d="M50.73,-175.94C54.58,-156.82 63.97,-110.27 69.24,-84.12"/>
<polygon fill="#63b8ff" stroke="#63b8ff" points="72.68,-84.8 71.22,-74.3 65.82,-83.41 72.68,-84.8"/>
</a>
</g>
</g>
<!-- Node4 -->
<g id="Node000004" class="node">
<title>Node4</title>
<g id="a_Node000004"><a xlink:title=" ">
<polygon fill="#e0e0e0" stroke="#999999" points="505.5,-19 440.5,-19 440.5,0 505.5,0 505.5,-19"/>
<text text-anchor="middle" x="473" y="-7" font-family="Helvetica,sans-Serif" font-size="10.00">stdexcept</text>
</a>
</g>
</g>
<!-- Node3&#45;&gt;Node4 -->
<g id="edge3_Node000003_Node000004" class="edge">
<title>Node3&#45;&gt;Node4</title>
<g id="a_edge3_Node000003_Node000004"><a xlink:title=" ">
<path fill="none" stroke="#63b8ff" d="M473,-54.75C473,-47.8 473,-37.85 473,-29.13"/>
<polygon fill="#63b8ff" stroke="#63b8ff" points="476.5,-29.09 473,-19.09 469.5,-29.09 476.5,-29.09"/>
</a>
</g>
</g>
<!-- Node5 -->
<g id="Node000005" class="node">
<title>Node5</title>
<g id="a_Node000005"><a xlink:title=" ">
<polygon fill="#e0e0e0" stroke="#999999" points="675.5,-19 602.5,-19 602.5,0 675.5,0 675.5,-19"/>
<text text-anchor="middle" x="639" y="-7" font-family="Helvetica,sans-Serif" font-size="10.00">string_view</text>
</a>
</g>
</g>
<!-- Node3&#45;&gt;Node5 -->
<g id="edge4_Node000003_Node000005" class="edge">
<title>Node3&#45;&gt;Node5</title>
<g id="a_edge4_Node000003_Node000005"><a xlink:title=" ">
<path fill="none" stroke="#63b8ff" d="M499.67,-54.98C527.54,-46.09 571.45,-32.07 602.52,-22.15"/>
<polygon fill="#63b8ff" stroke="#63b8ff" points="603.66,-25.46 612.12,-19.08 601.53,-18.79 603.66,-25.46"/>
</a>
</g>
</g>
<!-- Node6 -->
<g id="Node000006" class="node">
<title>Node6</title>
<g id="a_Node000006"><a xlink:title=" ">
<polygon fill="#e0e0e0" stroke="#999999" points="422.5,-19 375.5,-19 375.5,0 422.5,0 422.5,-19"/>
<text text-anchor="middle" x="399" y="-7" font-family="Helvetica,sans-Serif" font-size="10.00">vector</text>
</a>
</g>
</g>
<!-- Node3&#45;&gt;Node6 -->
<g id="edge5_Node000003_Node000006" class="edge">
<title>Node3&#45;&gt;Node6</title>
<g id="a_edge5_Node000003_Node000006"><a xlink:title=" ">
<path fill="none" stroke="#63b8ff" d="M461.11,-54.98C449.85,-46.92 432.71,-34.65 419.29,-25.03"/>
<polygon fill="#63b8ff" stroke="#63b8ff" points="421.27,-22.15 411.11,-19.17 417.2,-27.84 421.27,-22.15"/>
</a>
</g>
</g>
<!-- Node7&#45;&gt;Node3 -->
<g id="edge7_Node000007_Node000003" class="edge">
<title>Node7&#45;&gt;Node3</title>
<g id="a_edge7_Node000007_Node000003"><a xlink:title=" ">
<path fill="none" stroke="#63b8ff" d="M281.57,-115.49C320.97,-105.2 387.39,-87.86 430.71,-76.54"/>
<polygon fill="#63b8ff" stroke="#63b8ff" points="431.6,-79.93 440.39,-74.02 429.83,-73.16 431.6,-79.93"/>
</a>
</g>
</g>
<!-- Node8 -->
<g id="Node000008" class="node">
<title>Node8</title>
<g id="a_Node000008"><a xlink:href="_tuple_8hxx.html" target="_top" xlink:title=" ">
<polygon fill="white" stroke="#666666" points="280.5,-74 217.5,-74 217.5,-55 280.5,-55 280.5,-74"/>
<text text-anchor="middle" x="249" y="-62" font-family="Helvetica,sans-Serif" font-size="10.00">Tuple.hxx</text>
</a>
</g>
</g>
<!-- Node7&#45;&gt;Node8 -->
<g id="edge8_Node000007_Node000008" class="edge">
<title>Node7&#45;&gt;Node8</title>
<g id="a_edge8_Node000007_Node000008"><a xlink:title=" ">
<path fill="none" stroke="#63b8ff" d="M244.04,-115.37C242.29,-107.25 241.82,-94.81 242.64,-84.39"/>
<polygon fill="#63b8ff" stroke="#63b8ff" points="246.15,-84.55 244.04,-74.17 239.22,-83.6 246.15,-84.55"/>
</a>
</g>
</g>
<!-- Node8&#45;&gt;Node7 -->
<g id="edge14_Node000008_Node000007" class="edge">
<title>Node8&#45;&gt;Node7</title>
<g id="a_edge14_Node000008_Node000007"><a xlink:title=" ">
<path fill="none" stroke="#63b8ff" d="M253.96,-74.17C255.71,-82.3 256.18,-94.74 255.35,-105.16"/>
<polygon fill="#63b8ff" stroke="#63b8ff" points="251.85,-104.99 253.96,-115.37 258.78,-105.94 251.85,-104.99"/>
</a>
</g>
</g>
<!-- Node9 -->
<g id="Node000009" class="node">
<title>Node9</title>
<g id="a_Node000009"><a xlink:title=" ">
<polygon fill="#e0e0e0" stroke="#999999" points="213.5,-19 160.5,-19 160.5,0 213.5,0 213.5,-19"/>
<text text-anchor="middle" x="187" y="-7" font-family="Helvetica,sans-Serif" font-size="10.00">cstddef</text>
</a>
</g>
</g>
<!-- Node8&#45;&gt;Node9 -->
<g id="edge9_Node000008_Node000009" class="edge">
<title>Node8&#45;&gt;Node9</title>
<g id="a_edge9_Node000008_Node000009"><a xlink:title=" ">
<path fill="none" stroke="#63b8ff" d="M239.04,-54.98C229.87,-47.15 216.06,-35.34 204.97,-25.86"/>
<polygon fill="#63b8ff" stroke="#63b8ff" points="207.02,-23.01 197.14,-19.17 202.47,-28.33 207.02,-23.01"/>
</a>
</g>
</g>
<!-- Node10 -->
<g id="Node000010" class="node">
<title>Node10</title>
<g id="a_Node000010"><a xlink:title=" ">
<polygon fill="#e0e0e0" stroke="#999999" points="584,-19 524,-19 524,0 584,0 584,-19"/>
<text text-anchor="middle" x="554" y="-7" font-family="Helvetica,sans-Serif" font-size="10.00">iostream</text>
</a>
</g>
</g>
<!-- Node8&#45;&gt;Node10 -->
<g id="edge10_Node000008_Node000010" class="edge">
<title>Node8&#45;&gt;Node10</title>
<g id="a_edge10_Node000008_Node000010"><a xlink:title=" ">
<path fill="none" stroke="#63b8ff" d="M280.62,-58.72C328.79,-51.33 423.65,-36.34 513.95,-19.13"/>
<polygon fill="#63b8ff" stroke="#63b8ff" points="514.64,-22.56 523.8,-17.24 513.32,-15.68 514.64,-22.56"/>
</a>
</g>
</g>
<!-- Node11 -->
<g id="Node000011" class="node">
<title>Node11</title>
<g id="a_Node000011"><a xlink:title=" ">
<polygon fill="#e0e0e0" stroke="#999999" points="288,-19 232,-19 232,0 288,0 288,-19"/>
<text text-anchor="middle" x="260" y="-7" font-family="Helvetica,sans-Serif" font-size="10.00">optional</text>
</a>
</g>
</g>
<!-- Node8&#45;&gt;Node11 -->
<g id="edge11_Node000008_Node000011" class="edge">
<title>Node8&#45;&gt;Node11</title>
<g id="a_edge11_Node000008_Node000011"><a xlink:title=" ">
<path fill="none" stroke="#63b8ff" d="M250.82,-54.75C252.26,-47.8 254.32,-37.85 256.13,-29.13"/>
<polygon fill="#63b8ff" stroke="#63b8ff" points="259.61,-29.59 258.22,-19.09 252.76,-28.17 259.61,-29.59"/>
</a>
</g>
</g>
<!-- Node12 -->
<g id="Node000012" class="node">
<title>Node12</title>
<g id="a_Node000012"><a xlink:title=" ">
<polygon fill="#e0e0e0" stroke="#999999" points="350,-19 306,-19 306,0 350,0 350,-19"/>
<text text-anchor="middle" x="328" y="-7" font-family="Helvetica,sans-Serif" font-size="10.00">string</text>
</a>
</g>
</g>
<!-- Node8&#45;&gt;Node12 -->
<g id="edge12_Node000008_Node000012" class="edge">
<title>Node8&#45;&gt;Node12</title>
<g id="a_edge12_Node000008_Node000012"><a xlink:title=" ">
<path fill="none" stroke="#63b8ff" d="M261.69,-54.98C273.83,-46.84 292.36,-34.41 306.75,-24.76"/>
<polygon fill="#63b8ff" stroke="#63b8ff" points="308.72,-27.65 315.08,-19.17 304.82,-21.84 308.72,-27.65"/>
</a>
</g>
</g>
<!-- Node13 -->
<g id="Node000013" class="node">
<title>Node13</title>
<g id="a_Node000013"><a xlink:title=" ">
<polygon fill="#e0e0e0" stroke="#999999" points="142.5,-19 101.5,-19 101.5,0 142.5,0 142.5,-19"/>
<text text-anchor="middle" x="122" y="-7" font-family="Helvetica,sans-Serif" font-size="10.00">tuple</text>
</a>
</g>
</g>
<!-- Node8&#45;&gt;Node13 -->
<g id="edge13_Node000008_Node000013" class="edge">
<title>Node8&#45;&gt;Node13</title>
<g id="a_edge13_Node000008_Node000013"><a xlink:title=" ">
<path fill="none" stroke="#63b8ff" d="M228.6,-54.98C207.98,-46.38 175.89,-32.99 152.31,-23.15"/>
<polygon fill="#63b8ff" stroke="#63b8ff" points="153.35,-19.79 142.78,-19.17 150.66,-26.25 153.35,-19.79"/>
</a>
</g>
</g>
<!-- Node15 -->
<g id="Node000015" class="node">
<title>Node15</title>
<g id="a_Node000015"><a xlink:title=" ">
<polygon fill="#e0e0e0" stroke="#999999" points="1104.5,-19 1035.5,-19 1035.5,0 1104.5,0 1104.5,-19"/>
<text text-anchor="middle" x="1070" y="-7" font-family="Helvetica,sans-Serif" font-size="10.00">Eigen/Core</text>
</a>
</g>
</g>
<!-- Node14&#45;&gt;Node15 -->
<g id="edge16_Node000014_Node000015" class="edge">
<title>Node14&#45;&gt;Node15</title>
<g id="a_edge16_Node000014_Node000015"><a xlink:title=" ">
<path fill="none" stroke="#63b8ff" d="M1025.61,-115.47C1033.39,-97.06 1051.9,-53.29 1062.4,-28.48"/>
<polygon fill="#63b8ff" stroke="#63b8ff" points="1065.68,-29.7 1066.35,-19.13 1059.23,-26.98 1065.68,-29.7"/>
</a>
</g>
</g>
<!-- Node16 -->
<g id="Node000016" class="node">
<title>Node16</title>
<g id="a_Node000016"><a xlink:href="_rational_8hpp.html" target="_top" xlink:title=" ">
<polygon fill="white" stroke="#666666" points="835.5,-74 702.5,-74 702.5,-55 835.5,-55 835.5,-74"/>
<text text-anchor="middle" x="769" y="-62" font-family="Helvetica,sans-Serif" font-size="10.00">wmtk/utils/Rational.hpp</text>
</a>
</g>
</g>
<!-- Node14&#45;&gt;Node16 -->
<g id="edge17_Node000014_Node000016" class="edge">
<title>Node14&#45;&gt;Node16</title>
<g id="a_edge17_Node000014_Node000016"><a xlink:title=" ">
<path fill="none" stroke="#63b8ff" d="M985.21,-115.49C940.43,-105.14 864.74,-87.64 815.84,-76.33"/>
<polygon fill="#63b8ff" stroke="#63b8ff" points="816.36,-72.86 805.83,-74.02 814.79,-79.68 816.36,-72.86"/>
</a>
</g>
</g>
<!-- Node16&#45;&gt;Node10 -->
<g id="edge20_Node000016_Node000010" class="edge">
<title>Node16&#45;&gt;Node10</title>
<g id="a_edge20_Node000016_Node000010"><a xlink:title=" ">
<path fill="none" stroke="#63b8ff" d="M734.46,-54.98C696.16,-45.54 634.46,-30.34 594.07,-20.38"/>
<polygon fill="#63b8ff" stroke="#63b8ff" points="594.83,-16.96 584.29,-17.97 593.16,-23.76 594.83,-16.96"/>
</a>
</g>
</g>
<!-- Node16&#45;&gt;Node12 -->
<g id="edge21_Node000016_Node000012" class="edge">
<title>Node16&#45;&gt;Node12</title>
<g id="a_edge21_Node000016_Node000012"><a xlink:title=" ">
<path fill="none" stroke="#63b8ff" d="M702.2,-58.25C622.2,-51.48 484.28,-38.22 367,-19 364.78,-18.64 362.49,-18.23 360.19,-17.79"/>
<polygon fill="#63b8ff" stroke="#63b8ff" points="360.69,-14.32 350.2,-15.76 359.3,-21.18 360.69,-14.32"/>
</a>
</g>
</g>
<!-- Node16&#45;&gt;Node15 -->
<g id="edge18_Node000016_Node000015" class="edge">
<title>Node16&#45;&gt;Node15</title>
<g id="a_edge18_Node000016_Node000015"><a xlink:title=" ">
<path fill="none" stroke="#63b8ff" d="M817.36,-54.98C874.78,-44.87 969.74,-28.15 1025.44,-18.35"/>
<polygon fill="#63b8ff" stroke="#63b8ff" points="1026.12,-21.78 1035.36,-16.6 1024.91,-14.89 1026.12,-21.78"/>
</a>
</g>
</g>
<!-- Node17 -->
<g id="Node000017" class="node">
<title>Node17</title>
<g id="a_Node000017"><a xlink:title=" ">
<polygon fill="#e0e0e0" stroke="#999999" points="792.5,-19 745.5,-19 745.5,0 792.5,0 792.5,-19"/>
<text text-anchor="middle" x="769" y="-7" font-family="Helvetica,sans-Serif" font-size="10.00">gmp.h</text>
</a>
</g>
</g>
<!-- Node16&#45;&gt;Node17 -->
<g id="edge19_Node000016_Node000017" class="edge">
<title>Node16&#45;&gt;Node17</title>
<g id="a_edge19_Node000016_Node000017"><a xlink:title=" ">
<path fill="none" stroke="#63b8ff" d="M769,-54.75C769,-47.8 769,-37.85 769,-29.13"/>
<polygon fill="#63b8ff" stroke="#63b8ff" points="772.5,-29.09 769,-19.09 765.5,-29.09 772.5,-29.09"/>
</a>
</g>
</g>
<!-- Node18&#45;&gt;Node12 -->
<g id="edge24_Node000018_Node000012" class="edge">
<title>Node18&#45;&gt;Node12</title>
<g id="a_edge24_Node000018_Node000012"><a xlink:title=" ">
<path fill="none" stroke="#63b8ff" d="M102.86,-58.27C144.08,-50.9 220.95,-36.61 295.65,-19.19"/>
<polygon fill="#63b8ff" stroke="#63b8ff" points="296.77,-22.52 305.7,-16.82 295.16,-15.71 296.77,-22.52"/>
</a>
</g>
</g>
<!-- Node18&#45;&gt;Node13 -->
<g id="edge25_Node000018_Node000013" class="edge">
<title>Node18&#45;&gt;Node13</title>
<g id="a_edge25_Node000018_Node000013"><a xlink:title=" ">
<path fill="none" stroke="#63b8ff" d="M81.09,-54.75C88.16,-47.11 98.59,-35.82 107.15,-26.56"/>
<polygon fill="#63b8ff" stroke="#63b8ff" points="109.84,-28.81 114.06,-19.09 104.7,-24.06 109.84,-28.81"/>
</a>
</g>
</g>
<!-- Node19 -->
<g id="Node000019" class="node">
<title>Node19</title>
<g id="a_Node000019"><a xlink:title=" ">
<polygon fill="#e0e0e0" stroke="#999999" points="83,-19 21,-19 21,0 83,0 83,-19"/>
<text text-anchor="middle" x="52" y="-7" font-family="Helvetica,sans-Serif" font-size="10.00">cinttypes</text>
</a>
</g>
</g>
<!-- Node18&#45;&gt;Node19 -->
<g id="edge23_Node000018_Node000019" class="edge">
<title>Node18&#45;&gt;Node19</title>
<g id="a_edge23_Node000018_Node000019"><a xlink:title=" ">
<path fill="none" stroke="#63b8ff" d="M69.53,-54.75C66.72,-47.65 62.66,-37.4 59.15,-28.56"/>
<polygon fill="#63b8ff" stroke="#63b8ff" points="62.34,-27.1 55.4,-19.09 55.83,-29.68 62.34,-27.1"/>
</a>
</g>
</g>
<!-- Node21&#45;&gt;Node3 -->
<g id="edge30_Node000021_Node000003" class="edge">
<title>Node21&#45;&gt;Node3</title>
<g id="a_edge30_Node000021_Node000003"><a xlink:title=" ">
<path fill="none" stroke="#63b8ff" d="M406.29,-175.66C408.72,-161.1 414.94,-131.53 428,-110 434.72,-98.92 444.79,-88.61 453.71,-80.71"/>
<polygon fill="#63b8ff" stroke="#63b8ff" points="456.06,-83.3 461.44,-74.17 451.54,-77.95 456.06,-83.3"/>
</a>
</g>
</g>
<!-- Node21&#45;&gt;Node7 -->
<g id="edge31_Node000021_Node000007" class="edge">
<title>Node21&#45;&gt;Node7</title>
<g id="a_edge31_Node000021_Node000007"><a xlink:title=" ">
<path fill="none" stroke="#63b8ff" d="M382.32,-175.99C355.74,-166.03 311.52,-149.45 281.36,-138.13"/>
<polygon fill="#63b8ff" stroke="#63b8ff" points="282.3,-134.75 271.71,-134.52 279.85,-141.31 282.3,-134.75"/>
</a>
</g>
</g>
<!-- Node21&#45;&gt;Node12 -->
<g id="edge29_Node000021_Node000012" class="edge">
<title>Node21&#45;&gt;Node12</title>
<g id="a_edge29_Node000021_Node000012"><a xlink:title=" ">
<path fill="none" stroke="#63b8ff" d="M401.08,-175.63C389.03,-148.4 352.39,-65.61 336.03,-28.65"/>
<polygon fill="#63b8ff" stroke="#63b8ff" points="339.07,-26.87 331.83,-19.14 332.67,-29.7 339.07,-26.87"/>
</a>
</g>
</g>
<!-- Node21&#45;&gt;Node20 -->
<g id="edge28_Node000021_Node000020" class="edge">
<title>Node21&#45;&gt;Node20</title>
<g id="a_edge28_Node000021_Node000020"><a xlink:title=" ">
<path fill="none" stroke="#63b8ff" d="M423.76,-175.99C445.35,-166.2 481.03,-150.02 505.93,-138.73"/>
<polygon fill="#63b8ff" stroke="#63b8ff" points="507.56,-141.83 515.22,-134.52 504.67,-135.46 507.56,-141.83"/>
</a>
</g>
</g>
<!-- Node22&#45;&gt;Node3 -->
<g id="edge34_Node000022_Node000003" class="edge">
<title>Node22&#45;&gt;Node3</title>
<g id="a_edge34_Node000022_Node000003"><a xlink:title=" ">
<path fill="none" stroke="#63b8ff" d="M1420.08,-175.81C1423.26,-160.08 1427.22,-126.94 1409,-110 1401.17,-102.72 774.01,-77.35 550.8,-68.54"/>
<polygon fill="#63b8ff" stroke="#63b8ff" points="550.92,-65.04 540.79,-68.15 550.65,-72.04 550.92,-65.04"/>
</a>
</g>
</g>
<!-- Node22&#45;&gt;Node14 -->
<g id="edge35_Node000022_Node000014" class="edge">
<title>Node22&#45;&gt;Node14</title>
<g id="a_edge35_Node000022_Node000014"><a xlink:title=" ">
<path fill="none" stroke="#63b8ff" d="M1360.42,-175.99C1285.54,-164.93 1155.45,-145.71 1080.24,-134.6"/>
<polygon fill="#63b8ff" stroke="#63b8ff" points="1080.41,-131.09 1070.01,-133.09 1079.39,-138.02 1080.41,-131.09"/>
</a>
</g>
</g>
<!-- Node22&#45;&gt;Node15 -->
<g id="edge33_Node000022_Node000015" class="edge">
<title>Node22&#45;&gt;Node15</title>
<g id="a_edge33_Node000022_Node000015"><a xlink:title=" ">
<path fill="none" stroke="#63b8ff" d="M1497.4,-180.47C1600.36,-174.42 1769.06,-161.36 1788,-140 1796.85,-130.02 1795.82,-120.8 1788,-110 1742.19,-46.69 1697.6,-70.48 1621,-55 1435.58,-17.53 1209.03,-11.38 1114.62,-10.53"/>
<polygon fill="#63b8ff" stroke="#63b8ff" points="1114.59,-7.03 1104.57,-10.46 1114.54,-14.03 1114.59,-7.03"/>
</a>
</g>
</g>
<!-- Node23 -->
<g id="Node000023" class="node">
<title>Node23</title>
<g id="a_Node000023"><a xlink:href="array__to__map_8hpp.html" target="_top" xlink:title=" ">
<polygon fill="white" stroke="#666666" points="1400,-140 1288,-140 1288,-110 1400,-110 1400,-140"/>
<text text-anchor="start" x="1296" y="-128" font-family="Helvetica,sans-Serif" font-size="10.00">wmtk/utils/array_to</text>
<text text-anchor="middle" x="1344" y="-117" font-family="Helvetica,sans-Serif" font-size="10.00">_map.hpp</text>
</a>
</g>
</g>
<!-- Node22&#45;&gt;Node23 -->
<g id="edge36_Node000022_Node000023" class="edge">
<title>Node22&#45;&gt;Node23</title>
<g id="a_edge36_Node000022_Node000023"><a xlink:title=" ">
<path fill="none" stroke="#63b8ff" d="M1407.08,-175.87C1397.32,-168.15 1382.63,-156.54 1369.88,-146.46"/>
<polygon fill="#63b8ff" stroke="#63b8ff" points="1371.87,-143.57 1361.85,-140.11 1367.53,-149.06 1371.87,-143.57"/>
</a>
</g>
</g>
<!-- Node24 -->
<g id="Node000024" class="node">
<title>Node24</title>
<g id="a_Node000024"><a xlink:href="edge__mesh_2autogenerated__tables_8hpp.html" target="_top" xlink:title=" ">
<polygon fill="white" stroke="#666666" points="1762,-134.5 1618,-134.5 1618,-115.5 1762,-115.5 1762,-134.5"/>
<text text-anchor="middle" x="1690" y="-122.5" font-family="Helvetica,sans-Serif" font-size="10.00">autogenerated_tables.hpp</text>
</a>
</g>
</g>
<!-- Node22&#45;&gt;Node24 -->
<g id="edge37_Node000022_Node000024" class="edge">
<title>Node22&#45;&gt;Node24</title>
<g id="a_edge37_Node000022_Node000024"><a xlink:title=" ">
<path fill="none" stroke="#63b8ff" d="M1457.55,-175.99C1505.9,-165.6 1587.75,-147.99 1640.3,-136.69"/>
<polygon fill="#63b8ff" stroke="#63b8ff" points="1641.36,-140.04 1650.4,-134.52 1639.89,-133.2 1641.36,-140.04"/>
</a>
</g>
</g>
<!-- Node25 -->
<g id="Node000025" class="node">
<title>Node25</title>
<g id="a_Node000025"><a xlink:title=" ">
<polygon fill="#e0e0e0" stroke="#999999" points="1388,-74 1338,-74 1338,-55 1388,-55 1388,-74"/>
<text text-anchor="middle" x="1363" y="-62" font-family="Helvetica,sans-Serif" font-size="10.00">cstdint</text>
</a>
</g>
</g>
<!-- Node24&#45;&gt;Node25 -->
<g id="edge38_Node000024_Node000025" class="edge">
<title>Node24&#45;&gt;Node25</title>
<g id="a_edge38_Node000024_Node000025"><a xlink:title=" ">
<path fill="none" stroke="#63b8ff" d="M1642.45,-115.49C1576.11,-103.63 1457.3,-82.37 1398.28,-71.81"/>
<polygon fill="#63b8ff" stroke="#63b8ff" points="1398.78,-68.35 1388.32,-70.03 1397.55,-75.24 1398.78,-68.35"/>
</a>
</g>
</g>
<!-- Node26&#45;&gt;Node3 -->
<g id="edge43_Node000026_Node000003" class="edge">
<title>Node26&#45;&gt;Node3</title>
<g id="a_edge43_Node000026_Node000003"><a xlink:title=" ">
<path fill="none" stroke="#63b8ff" d="M817.09,-175.86C821.97,-160.51 829.34,-128.36 813,-110 795.84,-90.72 645.89,-77.14 550.94,-70.38"/>
<polygon fill="#63b8ff" stroke="#63b8ff" points="551.01,-66.88 540.79,-69.67 550.52,-73.86 551.01,-66.88"/>
</a>
</g>
</g>
<!-- Node26&#45;&gt;Node14 -->
<g id="edge44_Node000026_Node000014" class="edge">
<title>Node26&#45;&gt;Node14</title>
<g id="a_edge44_Node000026_Node000014"><a xlink:title=" ">
<path fill="none" stroke="#63b8ff" d="M844.24,-175.99C880.6,-165.77 941.73,-148.58 981.97,-137.26"/>
<polygon fill="#63b8ff" stroke="#63b8ff" points="983.04,-140.59 991.72,-134.52 981.14,-133.85 983.04,-140.59"/>
</a>
</g>
</g>
<!-- Node26&#45;&gt;Node15 -->
<g id="edge40_Node000026_Node000015" class="edge">
<title>Node26&#45;&gt;Node15</title>
<g id="a_edge40_Node000026_Node000015"><a xlink:title=" ">
<path fill="none" stroke="#63b8ff" d="M826.7,-175.87C867.81,-147.93 997.62,-59.7 1048.88,-24.85"/>
<polygon fill="#63b8ff" stroke="#63b8ff" points="1050.93,-27.7 1057.23,-19.18 1046.99,-21.91 1050.93,-27.7"/>
</a>
</g>
</g>
<!-- Node26&#45;&gt;Node20 -->
<g id="edge42_Node000026_Node000020" class="edge">
<title>Node26&#45;&gt;Node20</title>
<g id="a_edge42_Node000026_Node000020"><a xlink:title=" ">
<path fill="none" stroke="#63b8ff" d="M746.61,-175.98C696.92,-168.81 628,-156.97 569,-140 567.07,-139.44 565.09,-138.82 563.11,-138.15"/>
<polygon fill="#63b8ff" stroke="#63b8ff" points="563.97,-134.74 553.38,-134.55 561.55,-141.3 563.97,-134.74"/>
</a>
</g>
</g>
<!-- Node27 -->
<g id="Node000027" class="node">
<title>Node27</title>
<g id="a_Node000027"><a xlink:title=" ">
<polygon fill="#e0e0e0" stroke="#999999" points="804,-134.5 762,-134.5 762,-115.5 804,-115.5 804,-134.5"/>
<text text-anchor="middle" x="783" y="-122.5" font-family="Helvetica,sans-Serif" font-size="10.00">array</text>
</a>
</g>
</g>
<!-- Node26&#45;&gt;Node27 -->
<g id="edge41_Node000026_Node000027" class="edge">
<title>Node26&#45;&gt;Node27</title>
<g id="a_edge41_Node000026_Node000027"><a xlink:title=" ">
<path fill="none" stroke="#63b8ff" d="M809.43,-175.87C804.94,-167.4 797.97,-154.24 792.31,-143.57"/>
<polygon fill="#63b8ff" stroke="#63b8ff" points="795.37,-141.86 787.59,-134.67 789.18,-145.14 795.37,-141.86"/>
</a>
</g>
</g>
<!-- Node28&#45;&gt;Node3 -->
<g id="edge46_Node000028_Node000003" class="edge">
<title>Node28&#45;&gt;Node3</title>
<g id="a_edge46_Node000028_Node000003"><a xlink:title=" ">
<path fill="none" stroke="#63b8ff" d="M489.28,-230.65C491.39,-220.71 493.92,-207.12 495,-195 495.75,-186.59 497.81,-183.96 495,-176 488.17,-156.62 472.83,-159.38 466,-140 459.53,-121.66 463.02,-99.3 467.03,-83.89"/>
<polygon fill="#63b8ff" stroke="#63b8ff" points="470.46,-84.63 469.91,-74.05 463.74,-82.67 470.46,-84.63"/>
</a>
</g>
</g>
<!-- Node29&#45;&gt;Node3 -->
<g id="edge48_Node000029_Node000003" class="edge">
<title>Node29&#45;&gt;Node3</title>
<g id="a_edge48_Node000029_Node000003"><a xlink:title=" ">
<path fill="none" stroke="#63b8ff" d="M639.09,-236.38C604.48,-221.7 537.19,-188.63 499,-140 486.08,-123.54 479.32,-100.2 475.97,-84.05"/>
<polygon fill="#63b8ff" stroke="#63b8ff" points="479.41,-83.39 474.16,-74.19 472.52,-84.66 479.41,-83.39"/>
</a>
</g>
</g>
<!-- Node30 -->
<g id="Node000030" class="node">
<title>Node30</title>
<g id="a_Node000030"><a xlink:href="convert_8hxx.html" target="_top" xlink:title=" ">
<polygon fill="white" stroke="#666666" points="698,-195 624,-195 624,-176 698,-176 698,-195"/>
<text text-anchor="middle" x="661" y="-183" font-family="Helvetica,sans-Serif" font-size="10.00">convert.hxx</text>
</a>
</g>
</g>
<!-- Node29&#45;&gt;Node30 -->
<g id="edge49_Node000029_Node000030" class="edge">
<title>Node29&#45;&gt;Node30</title>
<g id="a_edge49_Node000029_Node000030"><a xlink:title=" ">
<path fill="none" stroke="#63b8ff" d="M656.04,-236.37C654.29,-228.25 653.82,-215.81 654.64,-205.39"/>
<polygon fill="#63b8ff" stroke="#63b8ff" points="658.15,-205.55 656.04,-195.17 651.22,-204.6 658.15,-205.55"/>
</a>
</g>
</g>
<!-- Node30&#45;&gt;Node20 -->
<g id="edge50_Node000030_Node000020" class="edge">
<title>Node30&#45;&gt;Node20</title>
<g id="a_edge50_Node000030_Node000020"><a xlink:title=" ">
<path fill="none" stroke="#63b8ff" d="M642.53,-175.99C621.28,-166.2 586.15,-150.02 561.63,-138.73"/>
<polygon fill="#63b8ff" stroke="#63b8ff" points="563.04,-135.52 552.49,-134.52 560.11,-141.88 563.04,-135.52"/>
</a>
</g>
</g>
<!-- Node30&#45;&gt;Node29 -->
<g id="edge51_Node000030_Node000029" class="edge">
<title>Node30&#45;&gt;Node29</title>
<g id="a_edge51_Node000030_Node000029"><a xlink:title=" ">
<path fill="none" stroke="#63b8ff" d="M665.96,-195.17C667.71,-203.3 668.18,-215.74 667.35,-226.16"/>
<polygon fill="#63b8ff" stroke="#63b8ff" points="663.85,-225.99 665.96,-236.37 670.78,-226.94 663.85,-225.99"/>
</a>
</g>
</g>
<!-- Node31 -->
<g id="Node000031" class="node">
<title>Node31</title>
<g id="a_Node000031"><a xlink:href="subgroup__transformations_8hpp.html" target="_top" xlink:title=" ">
<polygon fill="white" stroke="#666666" points="744,-134.5 578,-134.5 578,-115.5 744,-115.5 744,-134.5"/>
<text text-anchor="middle" x="661" y="-122.5" font-family="Helvetica,sans-Serif" font-size="10.00">subgroup_transformations.hpp</text>
</a>
</g>
</g>
<!-- Node30&#45;&gt;Node31 -->
<g id="edge52_Node000030_Node000031" class="edge">
<title>Node30&#45;&gt;Node31</title>
<g id="a_edge52_Node000030_Node000031"><a xlink:title=" ">
<path fill="none" stroke="#63b8ff" d="M661,-175.87C661,-167.75 661,-155.31 661,-144.89"/>
<polygon fill="#63b8ff" stroke="#63b8ff" points="664.5,-144.67 661,-134.67 657.5,-144.67 664.5,-144.67"/>
</a>
</g>
</g>
<!-- Node31&#45;&gt;Node25 -->
<g id="edge53_Node000031_Node000025" class="edge">
<title>Node31&#45;&gt;Node25</title>
<g id="a_edge53_Node000031_Node000025"><a xlink:title=" ">
<path fill="none" stroke="#63b8ff" d="M712.48,-115.44C725.66,-113.45 739.83,-111.48 753,-110 970.94,-85.51 1234.28,-71.57 1327.89,-67.1"/>
<polygon fill="#63b8ff" stroke="#63b8ff" points="1328.13,-70.59 1337.95,-66.62 1327.8,-63.6 1328.13,-70.59"/>
</a>
</g>
</g>
<!-- Node32&#45;&gt;Node3 -->
<g id="edge56_Node000032_Node000003" class="edge">
<title>Node32&#45;&gt;Node3</title>
<g id="a_edge56_Node000032_Node000003"><a xlink:title=" ">
<path fill="none" stroke="#63b8ff" d="M1012.53,-175.9C977.93,-160.18 900.61,-126.85 832,-110 736.76,-86.61 624.13,-75.2 550.77,-69.86"/>
<polygon fill="#63b8ff" stroke="#63b8ff" points="550.9,-66.36 540.68,-69.14 550.41,-73.34 550.9,-66.36"/>
</a>
</g>
</g>
<!-- Node32&#45;&gt;Node14 -->
<g id="edge57_Node000032_Node000014" class="edge">
<title>Node32&#45;&gt;Node14</title>
<g id="a_edge57_Node000032_Node000014"><a xlink:title=" ">
<path fill="none" stroke="#63b8ff" d="M1029.67,-175.87C1028.41,-167.66 1026.47,-155.04 1024.85,-144.55"/>
<polygon fill="#63b8ff" stroke="#63b8ff" points="1028.31,-144.02 1023.33,-134.67 1021.39,-145.08 1028.31,-144.02"/>
</a>
</g>
</g>
<!-- Node32&#45;&gt;Node15 -->
<g id="edge55_Node000032_Node000015" class="edge">
<title>Node32&#45;&gt;Node15</title>
<g id="a_edge55_Node000032_Node000015"><a xlink:title=" ">
<path fill="none" stroke="#63b8ff" d="M1045.37,-175.96C1056.87,-168.21 1072.18,-155.62 1079,-140 1095.09,-103.13 1084.37,-54.72 1076.4,-28.78"/>
<polygon fill="#63b8ff" stroke="#63b8ff" points="1079.68,-27.56 1073.24,-19.14 1073.03,-29.74 1079.68,-27.56"/>
</a>
</g>
</g>
<!-- Node32&#45;&gt;Node23 -->
<g id="edge58_Node000032_Node000023" class="edge">
<title>Node32&#45;&gt;Node23</title>
<g id="a_edge58_Node000032_Node000023"><a xlink:title=" ">
<path fill="none" stroke="#63b8ff" d="M1081.44,-175.97C1129.47,-167.74 1204.02,-154.65 1277.73,-140.21"/>
<polygon fill="#63b8ff" stroke="#63b8ff" points="1278.52,-143.63 1287.65,-138.26 1277.17,-136.76 1278.52,-143.63"/>
</a>
</g>
</g>
<!-- Node33 -->
<g id="Node000033" class="node">
<title>Node33</title>
<g id="a_Node000033"><a xlink:href="tet__mesh_2autogenerated__tables_8hpp.html" target="_top" xlink:title=" ">
<polygon fill="white" stroke="#666666" points="1270,-134.5 1126,-134.5 1126,-115.5 1270,-115.5 1270,-134.5"/>
<text text-anchor="middle" x="1198" y="-122.5" font-family="Helvetica,sans-Serif" font-size="10.00">autogenerated_tables.hpp</text>
</a>
</g>
</g>
<!-- Node32&#45;&gt;Node33 -->
<g id="edge59_Node000032_Node000033" class="edge">
<title>Node32&#45;&gt;Node33</title>
<g id="a_edge59_Node000032_Node000033"><a xlink:title=" ">
<path fill="none" stroke="#63b8ff" d="M1055.28,-175.99C1083.98,-165.94 1131.89,-149.16 1164.2,-137.84"/>
<polygon fill="#63b8ff" stroke="#63b8ff" points="1165.41,-141.13 1173.69,-134.52 1163.09,-134.52 1165.41,-141.13"/>
</a>
</g>
</g>
<!-- Node33&#45;&gt;Node25 -->
<g id="edge60_Node000033_Node000025" class="edge">
<title>Node33&#45;&gt;Node25</title>
<g id="a_edge60_Node000033_Node000025"><a xlink:title=" ">
<path fill="none" stroke="#63b8ff" d="M1221.99,-115.49C1250.22,-105.49 1297.28,-88.8 1329.19,-77.49"/>
<polygon fill="#63b8ff" stroke="#63b8ff" points="1330.72,-80.66 1338.98,-74.02 1328.38,-74.06 1330.72,-80.66"/>
</a>
</g>
</g>
<!-- Node34&#45;&gt;Node3 -->
<g id="edge63_Node000034_Node000003" class="edge">
<title>Node34&#45;&gt;Node3</title>
<g id="a_edge63_Node000034_Node000003"><a xlink:title=" ">
<path fill="none" stroke="#63b8ff" d="M1158.88,-176.97C1104.8,-170.24 1029.34,-158.52 965,-140 931.69,-130.41 926.59,-118.58 893,-110 776.09,-80.13 635.94,-70.27 550.73,-67.04"/>
<polygon fill="#63b8ff" stroke="#63b8ff" points="550.73,-63.54 540.61,-66.68 550.48,-70.54 550.73,-63.54"/>
</a>
</g>
</g>
<!-- Node34&#45;&gt;Node14 -->
<g id="edge64_Node000034_Node000014" class="edge">
<title>Node34&#45;&gt;Node14</title>
<g id="a_edge64_Node000034_Node000014"><a xlink:title=" ">
<path fill="none" stroke="#63b8ff" d="M1200.61,-175.99C1164.08,-165.77 1102.66,-148.58 1062.23,-137.26"/>
<polygon fill="#63b8ff" stroke="#63b8ff" points="1063,-133.84 1052.43,-134.52 1061.11,-140.58 1063,-133.84"/>
</a>
</g>
</g>
<!-- Node34&#45;&gt;Node15 -->
<g id="edge62_Node000034_Node000015" class="edge">
<title>Node34&#45;&gt;Node15</title>
<g id="a_edge62_Node000034_Node000015"><a xlink:title=" ">
<path fill="none" stroke="#63b8ff" d="M1303.18,-178.27C1312.21,-177.5 1321.32,-176.73 1330,-176 1378.99,-171.9 1737.68,-176.15 1771,-140 1780.04,-130.2 1779.72,-120.09 1771,-110 1727.8,-59.98 1262.34,-23.77 1114.68,-13.48"/>
<polygon fill="#63b8ff" stroke="#63b8ff" points="1114.82,-9.98 1104.61,-12.78 1114.34,-16.96 1114.82,-9.98"/>
</a>
</g>
</g>
<!-- Node34&#45;&gt;Node23 -->
<g id="edge65_Node000034_Node000023" class="edge">
<title>Node34&#45;&gt;Node23</title>
<g id="a_edge65_Node000034_Node000023"><a xlink:title=" ">
<path fill="none" stroke="#63b8ff" d="M1247.67,-175.87C1263.43,-167.71 1287.6,-155.2 1307.79,-144.75"/>
<polygon fill="#63b8ff" stroke="#63b8ff" points="1309.46,-147.82 1316.74,-140.11 1306.25,-141.6 1309.46,-147.82"/>
</a>
</g>
</g>
<!-- Node35 -->
<g id="Node000035" class="node">
<title>Node35</title>
<g id="a_Node000035"><a xlink:href="tri__mesh_2autogenerated__tables_8hpp.html" target="_top" xlink:title=" ">
<polygon fill="white" stroke="#666666" points="1600,-134.5 1456,-134.5 1456,-115.5 1600,-115.5 1600,-134.5"/>
<text text-anchor="middle" x="1528" y="-122.5" font-family="Helvetica,sans-Serif" font-size="10.00">autogenerated_tables.hpp</text>
</a>
</g>
</g>
<!-- Node34&#45;&gt;Node35 -->
<g id="edge66_Node000034_Node000035" class="edge">
<title>Node34&#45;&gt;Node35</title>
<g id="a_edge66_Node000034_Node000035"><a xlink:title=" ">
<path fill="none" stroke="#63b8ff" d="M1274.19,-175.99C1327.31,-165.53 1417.47,-147.77 1474.8,-136.48"/>
<polygon fill="#63b8ff" stroke="#63b8ff" points="1475.63,-139.88 1484.76,-134.52 1474.27,-133.02 1475.63,-139.88"/>
</a>
</g>
</g>
<!-- Node35&#45;&gt;Node25 -->
<g id="edge67_Node000035_Node000025" class="edge">
<title>Node35&#45;&gt;Node25</title>
<g id="a_edge67_Node000035_Node000025"><a xlink:title=" ">
<path fill="none" stroke="#63b8ff" d="M1504.01,-115.49C1475.78,-105.49 1428.72,-88.8 1396.81,-77.49"/>
<polygon fill="#63b8ff" stroke="#63b8ff" points="1397.62,-74.06 1387.02,-74.02 1395.28,-80.66 1397.62,-74.06"/>
</a>
</g>
</g>
<!-- Node36&#45;&gt;Node7 -->
<g id="edge72_Node000036_Node000007" class="edge">
<title>Node36&#45;&gt;Node7</title>
<g id="a_edge72_Node000036_Node000007"><a xlink:title=" ">
<path fill="none" stroke="#63b8ff" d="M247.85,-236.44C224.05,-229.52 197.4,-217.11 183,-195 168.87,-173.29 196.58,-152.38 220.31,-139.38"/>
<polygon fill="#63b8ff" stroke="#63b8ff" points="222.19,-142.35 229.45,-134.63 218.96,-136.13 222.19,-142.35"/>
</a>
</g>
</g>
<!-- Node37 -->
<g id="Node000037" class="node">
<title>Node37</title>
<g id="a_Node000037"><a xlink:href="_primitive_8hpp.html" target="_top" xlink:title=" ">
<polygon fill="white" stroke="#666666" points="305.5,-195 192.5,-195 192.5,-176 305.5,-176 305.5,-195"/>
<text text-anchor="middle" x="249" y="-183" font-family="Helvetica,sans-Serif" font-size="10.00">wmtk/Primitive.hpp</text>
</a>
</g>
</g>
<!-- Node36&#45;&gt;Node37 -->
<g id="edge69_Node000036_Node000037" class="edge">
<title>Node36&#45;&gt;Node37</title>
<g id="a_edge69_Node000036_Node000037"><a xlink:title=" ">
<path fill="none" stroke="#63b8ff" d="M289.06,-236.37C282.05,-227.64 271.04,-213.93 262.33,-203.09"/>
<polygon fill="#63b8ff" stroke="#63b8ff" points="264.96,-200.77 255.96,-195.17 259.5,-205.16 264.96,-200.77"/>
</a>
</g>
</g>
<!-- Node37&#45;&gt;Node3 -->
<g id="edge70_Node000037_Node000003" class="edge">
<title>Node37&#45;&gt;Node3</title>
<g id="a_edge70_Node000037_Node000003"><a xlink:title=" ">
<path fill="none" stroke="#63b8ff" d="M265.11,-175.94C303.6,-155.49 401.16,-103.67 447.63,-78.98"/>
<polygon fill="#63b8ff" stroke="#63b8ff" points="449.55,-81.92 456.74,-74.14 446.26,-75.74 449.55,-81.92"/>
</a>
</g>
</g>
<!-- Node37&#45;&gt;Node7 -->
<g id="edge71_Node000037_Node000007" class="edge">
<title>Node37&#45;&gt;Node7</title>
<g id="a_edge71_Node000037_Node000007"><a xlink:title=" ">
<path fill="none" stroke="#63b8ff" d="M249,-175.87C249,-167.75 249,-155.31 249,-144.89"/>
<polygon fill="#63b8ff" stroke="#63b8ff" points="252.5,-144.67 249,-134.67 245.5,-144.67 252.5,-144.67"/>
</a>
</g>
</g>
<!-- Node38&#45;&gt;Node7 -->
<g id="edge74_Node000038_Node000007" class="edge">
<title>Node38&#45;&gt;Node7</title>
<g id="a_edge74_Node000038_Node000007"><a xlink:title=" ">
<path fill="none" stroke="#63b8ff" d="M131.01,-236.2C139.2,-222.33 156.5,-194.99 176,-176 190.58,-161.8 209.63,-148.9 224.61,-139.77"/>
<polygon fill="#63b8ff" stroke="#63b8ff" points="226.52,-142.7 233.33,-134.59 222.95,-136.68 226.52,-142.7"/>
</a>
</g>
</g>
</g>
</svg>
