<?xml version="1.0" encoding="UTF-8" standalone="no"?>
<!DOCTYPE svg PUBLIC "-//W3C//DTD SVG 1.1//EN"
 "http://www.w3.org/Graphics/SVG/1.1/DTD/svg11.dtd">
<!-- Generated by graphviz version 2.43.0 (0)
 -->
<!-- Title: src/wmtk/operations/attribute_new/SplitNewAttributeStrategy.hpp Pages: 1 -->
<svg width="2099pt" height="291pt"
 viewBox="0.00 0.00 2098.50 291.00" xmlns="http://www.w3.org/2000/svg" xmlns:xlink="http://www.w3.org/1999/xlink">
<g id="graph0" class="graph" transform="scale(1 1) rotate(0) translate(4 287)">
<title>src/wmtk/operations/attribute_new/SplitNewAttributeStrategy.hpp</title>
<!-- Node1 -->
<g id="Node000001" class="node">
<title>Node1</title>
<g id="a_Node000001"><a xlink:title=" ">
<polygon fill="#999999" stroke="#666666" points="1239,-283 1063,-283 1063,-242 1239,-242 1239,-283"/>
<text text-anchor="start" x="1071" y="-271" font-family="Helvetica,sans-Serif" font-size="10.00">src/wmtk/operations</text>
<text text-anchor="start" x="1071" y="-260" font-family="Helvetica,sans-Serif" font-size="10.00">/attribute_new/SplitNewAttribute</text>
<text text-anchor="middle" x="1151" y="-249" font-family="Helvetica,sans-Serif" font-size="10.00">Strategy.hpp</text>
</a>
</g>
</g>
<!-- Node2 -->
<g id="Node000002" class="node">
<title>Node2</title>
<g id="a_Node000002"><a xlink:href="_isotropic_remeshing_8cpp.html" target="_top" xlink:title=" ">
<polygon fill="white" stroke="#666666" points="663.5,-52 496.5,-52 496.5,0 663.5,0 663.5,-52"/>
<text text-anchor="start" x="504.5" y="-40" font-family="Helvetica,sans-Serif" font-size="10.00">components/isotropic</text>
<text text-anchor="start" x="504.5" y="-29" font-family="Helvetica,sans-Serif" font-size="10.00">_remeshing/wmtk/components</text>
<text text-anchor="start" x="504.5" y="-18" font-family="Helvetica,sans-Serif" font-size="10.00">/isotropic_remeshing/internal</text>
<text text-anchor="middle" x="580" y="-7" font-family="Helvetica,sans-Serif" font-size="10.00">/IsotropicRemeshing.cpp</text>
</a>
</g>
</g>
<!-- Node1&#45;&gt;Node2 -->
<g id="edge1_Node000001_Node000002" class="edge">
<title>Node1&#45;&gt;Node2</title>
<g id="a_edge1_Node000001_Node000002"><a xlink:title=" ">
<path fill="none" stroke="#63b8ff" d="M1052.55,-259.47C820.05,-254.17 250.41,-238.06 170,-206 120.79,-186.38 101.29,-177.06 79,-129 27.2,-17.32 250.63,-93.87 487,-52 490.05,-51.46 493.14,-50.87 496.25,-50.23"/>
<polygon fill="#63b8ff" stroke="#63b8ff" points="1052.61,-262.97 1062.69,-259.7 1052.77,-255.97 1052.61,-262.97"/>
</a>
</g>
</g>
<!-- Node3 -->
<g id="Node000003" class="node">
<title>Node3</title>
<g id="a_Node000003"><a xlink:href="internal_2marching_8cpp.html" target="_top" xlink:title=" ">
<polygon fill="white" stroke="#666666" points="259.5,-129 100.5,-129 100.5,-88 259.5,-88 259.5,-129"/>
<text text-anchor="start" x="108.5" y="-117" font-family="Helvetica,sans-Serif" font-size="10.00">components/marching</text>
<text text-anchor="start" x="108.5" y="-106" font-family="Helvetica,sans-Serif" font-size="10.00">/wmtk/components/marching</text>
<text text-anchor="middle" x="180" y="-95" font-family="Helvetica,sans-Serif" font-size="10.00">/internal/Marching.cpp</text>
</a>
</g>
</g>
<!-- Node1&#45;&gt;Node3 -->
<g id="edge2_Node000001_Node000003" class="edge">
<title>Node1&#45;&gt;Node3</title>
<g id="a_edge2_Node000001_Node000003"><a xlink:title=" ">
<path fill="none" stroke="#63b8ff" d="M1052.7,-252.54C954.32,-243.04 798.76,-226.58 665,-206 487.36,-178.67 443.98,-165.56 268,-129 265.24,-128.43 262.44,-127.84 259.61,-127.24"/>
<polygon fill="#63b8ff" stroke="#63b8ff" points="1052.64,-256.05 1062.93,-253.52 1053.31,-249.08 1052.64,-256.05"/>
</a>
</g>
</g>
<!-- Node4 -->
<g id="Node000004" class="node">
<title>Node4</title>
<g id="a_Node000004"><a xlink:href="internal_2periodic__optimization_8cpp.html" target="_top" xlink:title=" ">
<polygon fill="white" stroke="#666666" points="1531.5,-52 1354.5,-52 1354.5,0 1531.5,0 1531.5,-52"/>
<text text-anchor="start" x="1362.5" y="-40" font-family="Helvetica,sans-Serif" font-size="10.00">components/periodic</text>
<text text-anchor="start" x="1362.5" y="-29" font-family="Helvetica,sans-Serif" font-size="10.00">_optimization/wmtk/components</text>
<text text-anchor="start" x="1362.5" y="-18" font-family="Helvetica,sans-Serif" font-size="10.00">/periodic_optimization/internal</text>
<text text-anchor="middle" x="1443" y="-7" font-family="Helvetica,sans-Serif" font-size="10.00">/periodic_optimization.cpp</text>
</a>
</g>
</g>
<!-- Node1&#45;&gt;Node4 -->
<g id="edge3_Node000001_Node000004" class="edge">
<title>Node1&#45;&gt;Node4</title>
<g id="a_edge3_Node000001_Node000004"><a xlink:title=" ">
<path fill="none" stroke="#63b8ff" d="M1208.69,-237.84C1258.4,-215.34 1329.86,-177.71 1380,-129 1402.99,-106.66 1421.12,-74.29 1431.91,-52.04"/>
<polygon fill="#63b8ff" stroke="#63b8ff" points="1207.07,-234.73 1199.37,-242 1209.92,-241.12 1207.07,-234.73"/>
</a>
</g>
</g>
<!-- Node5 -->
<g id="Node000005" class="node">
<title>Node5</title>
<g id="a_Node000005"><a xlink:href="_regular_space_8cpp.html" target="_top" xlink:title=" ">
<polygon fill="white" stroke="#666666" points="144,-52 0,-52 0,0 144,0 144,-52"/>
<text text-anchor="start" x="8" y="-40" font-family="Helvetica,sans-Serif" font-size="10.00">components/regular</text>
<text text-anchor="start" x="8" y="-29" font-family="Helvetica,sans-Serif" font-size="10.00">_space/wmtk/components</text>
<text text-anchor="start" x="8" y="-18" font-family="Helvetica,sans-Serif" font-size="10.00">/regular_space/internal</text>
<text text-anchor="middle" x="72" y="-7" font-family="Helvetica,sans-Serif" font-size="10.00">/RegularSpace.cpp</text>
</a>
</g>
</g>
<!-- Node1&#45;&gt;Node5 -->
<g id="edge4_Node000001_Node000005" class="edge">
<title>Node1&#45;&gt;Node5</title>
<g id="a_edge4_Node000001_Node000005"><a xlink:title=" ">
<path fill="none" stroke="#63b8ff" d="M1052.46,-259.18C798.04,-252.82 136.3,-233.69 98,-206 50.67,-171.78 58.39,-92.79 66.15,-52.16"/>
<polygon fill="#63b8ff" stroke="#63b8ff" points="1052.72,-262.69 1062.8,-259.44 1052.89,-255.69 1052.72,-262.69"/>
</a>
</g>
</g>
<!-- Node6 -->
<g id="Node000006" class="node">
<title>Node6</title>
<g id="a_Node000006"><a xlink:href="test__component__isotropic__remeshing_8cpp.html" target="_top" xlink:title=" ">
<polygon fill="white" stroke="#666666" points="806.5,-46.5 681.5,-46.5 681.5,-5.5 806.5,-5.5 806.5,-46.5"/>
<text text-anchor="start" x="689.5" y="-34.5" font-family="Helvetica,sans-Serif" font-size="10.00">components/tests/test</text>
<text text-anchor="start" x="689.5" y="-23.5" font-family="Helvetica,sans-Serif" font-size="10.00">_component_isotropic</text>
<text text-anchor="middle" x="744" y="-12.5" font-family="Helvetica,sans-Serif" font-size="10.00">_remeshing.cpp</text>
</a>
</g>
</g>
<!-- Node1&#45;&gt;Node6 -->
<g id="edge5_Node000001_Node000006" class="edge">
<title>Node1&#45;&gt;Node6</title>
<g id="a_edge5_Node000001_Node000006"><a xlink:title=" ">
<path fill="none" stroke="#63b8ff" d="M1052.39,-256.84C800.83,-243.92 150.74,-203.54 91,-129 79.6,-114.78 78.52,-101.28 91,-88 135.3,-40.87 608.58,-64.73 672,-52 679.01,-50.59 686.26,-48.67 693.34,-46.51"/>
<polygon fill="#63b8ff" stroke="#63b8ff" points="1052.46,-260.35 1062.62,-257.37 1052.81,-253.36 1052.46,-260.35"/>
</a>
</g>
</g>
<!-- Node7 -->
<g id="Node000007" class="node">
<title>Node7</title>
<g id="a_Node000007"><a xlink:href="test__component__wildmeshing_8cpp.html" target="_top" xlink:title=" ">
<polygon fill="white" stroke="#666666" points="1162,-41 998,-41 998,-11 1162,-11 1162,-41"/>
<text text-anchor="start" x="1006" y="-29" font-family="Helvetica,sans-Serif" font-size="10.00">components/tests/test</text>
<text text-anchor="middle" x="1080" y="-18" font-family="Helvetica,sans-Serif" font-size="10.00">_component_wildmeshing.cpp</text>
</a>
</g>
</g>
<!-- Node1&#45;&gt;Node7 -->
<g id="edge6_Node000001_Node000007" class="edge">
<title>Node1&#45;&gt;Node7</title>
<g id="a_edge6_Node000001_Node000007"><a xlink:title=" ">
<path fill="none" stroke="#63b8ff" d="M1146.41,-231.75C1140.49,-196.68 1128.79,-136.98 1111,-88 1104.92,-71.25 1095.32,-53.19 1088.41,-41.1"/>
<polygon fill="#63b8ff" stroke="#63b8ff" points="1142.99,-232.5 1148.07,-241.8 1149.9,-231.36 1142.99,-232.5"/>
</a>
</g>
</g>
<!-- Node8 -->
<g id="Node000008" class="node">
<title>Node8</title>
<g id="a_Node000008"><a xlink:href="wildmeshing_8cpp.html" target="_top" xlink:title=" ">
<polygon fill="white" stroke="#666666" points="1901,-46.5 1725,-46.5 1725,-5.5 1901,-5.5 1901,-46.5"/>
<text text-anchor="start" x="1733" y="-34.5" font-family="Helvetica,sans-Serif" font-size="10.00">components/wildmeshing</text>
<text text-anchor="start" x="1733" y="-23.5" font-family="Helvetica,sans-Serif" font-size="10.00">/wmtk/components/wildmeshing</text>
<text text-anchor="middle" x="1813" y="-12.5" font-family="Helvetica,sans-Serif" font-size="10.00">/wildmeshing.cpp</text>
</a>
</g>
</g>
<!-- Node1&#45;&gt;Node8 -->
<g id="edge7_Node000001_Node000008" class="edge">
<title>Node1&#45;&gt;Node8</title>
<g id="a_edge7_Node000001_Node000008"><a xlink:title=" ">
<path fill="none" stroke="#63b8ff" d="M1249.1,-249.54C1318.11,-240.17 1412.35,-225.47 1494,-206 1552.52,-192.05 1565.08,-181.28 1623,-165 1687.76,-146.8 1718.81,-172.64 1770,-129 1794.86,-107.8 1805.67,-69.78 1810.12,-46.62"/>
<polygon fill="#63b8ff" stroke="#63b8ff" points="1248.56,-246.08 1239.11,-250.88 1249.49,-253.02 1248.56,-246.08"/>
</a>
</g>
</g>
<!-- Node9 -->
<g id="Node000009" class="node">
<title>Node9</title>
<g id="a_Node000009"><a xlink:href="_attribute_transfer_configuration_8cpp.html" target="_top" xlink:title=" ">
<polygon fill="white" stroke="#666666" points="464.5,-123.5 277.5,-123.5 277.5,-93.5 464.5,-93.5 464.5,-123.5"/>
<text text-anchor="start" x="285.5" y="-111.5" font-family="Helvetica,sans-Serif" font-size="10.00">src/wmtk/operations</text>
<text text-anchor="middle" x="371" y="-100.5" font-family="Helvetica,sans-Serif" font-size="10.00">/AttributeTransferConfiguration.cpp</text>
</a>
</g>
</g>
<!-- Node1&#45;&gt;Node9 -->
<g id="edge8_Node000001_Node000009" class="edge">
<title>Node1&#45;&gt;Node9</title>
<g id="a_edge8_Node000001_Node000009"><a xlink:title=" ">
<path fill="none" stroke="#63b8ff" d="M1052.4,-242.29C893.22,-211.27 583.32,-150.87 443.05,-123.54"/>
<polygon fill="#63b8ff" stroke="#63b8ff" points="1052.18,-245.81 1062.66,-244.29 1053.52,-238.94 1052.18,-245.81"/>
</a>
</g>
</g>
<!-- Node10 -->
<g id="Node000010" class="node">
<title>Node10</title>
<g id="a_Node000010"><a xlink:href="_edge_split_8cpp.html" target="_top" xlink:title=" ">
<polygon fill="white" stroke="#666666" points="1761,-123.5 1645,-123.5 1645,-93.5 1761,-93.5 1761,-123.5"/>
<text text-anchor="start" x="1653" y="-111.5" font-family="Helvetica,sans-Serif" font-size="10.00">src/wmtk/operations</text>
<text text-anchor="middle" x="1703" y="-100.5" font-family="Helvetica,sans-Serif" font-size="10.00">/EdgeSplit.cpp</text>
</a>
</g>
</g>
<!-- Node1&#45;&gt;Node10 -->
<g id="edge9_Node000001_Node000010" class="edge">
<title>Node1&#45;&gt;Node10</title>
<g id="a_edge9_Node000001_Node000010"><a xlink:title=" ">
<path fill="none" stroke="#63b8ff" d="M1249.03,-243.96C1299.55,-234.19 1361.95,-220.97 1417,-206 1507.77,-181.31 1611.86,-143.8 1665.96,-123.59"/>
<polygon fill="#63b8ff" stroke="#63b8ff" points="1248.25,-240.54 1239.08,-245.87 1249.57,-247.42 1248.25,-240.54"/>
</a>
</g>
</g>
<!-- Node11 -->
<g id="Node000011" class="node">
<title>Node11</title>
<g id="a_Node000011"><a xlink:href="_edge_split_8hpp.html" target="_top" xlink:title=" ">
<polygon fill="white" stroke="#666666" points="1065,-200.5 949,-200.5 949,-170.5 1065,-170.5 1065,-200.5"/>
<text text-anchor="start" x="957" y="-188.5" font-family="Helvetica,sans-Serif" font-size="10.00">src/wmtk/operations</text>
<text text-anchor="middle" x="1007" y="-177.5" font-family="Helvetica,sans-Serif" font-size="10.00">/EdgeSplit.hpp</text>
</a>
</g>
</g>
<!-- Node1&#45;&gt;Node11 -->
<g id="edge10_Node000001_Node000011" class="edge">
<title>Node1&#45;&gt;Node11</title>
<g id="a_edge10_Node000001_Node000011"><a xlink:title=" ">
<path fill="none" stroke="#63b8ff" d="M1104.54,-237.3C1081.34,-225.22 1054.06,-211.01 1034.26,-200.7"/>
<polygon fill="#63b8ff" stroke="#63b8ff" points="1103.06,-240.48 1113.54,-241.99 1106.29,-234.27 1103.06,-240.48"/>
</a>
</g>
</g>
<!-- Node22 -->
<g id="Node000022" class="node">
<title>Node22</title>
<g id="a_Node000022"><a xlink:href="_split_new_attribute_strategy_8cpp.html" target="_top" xlink:title=" ">
<polygon fill="white" stroke="#666666" points="1808,-206 1632,-206 1632,-165 1808,-165 1808,-206"/>
<text text-anchor="start" x="1640" y="-194" font-family="Helvetica,sans-Serif" font-size="10.00">src/wmtk/operations</text>
<text text-anchor="start" x="1640" y="-183" font-family="Helvetica,sans-Serif" font-size="10.00">/attribute_new/SplitNewAttribute</text>
<text text-anchor="middle" x="1720" y="-172" font-family="Helvetica,sans-Serif" font-size="10.00">Strategy.cpp</text>
</a>
</g>
</g>
<!-- Node1&#45;&gt;Node22 -->
<g id="edge42_Node000001_Node000022" class="edge">
<title>Node1&#45;&gt;Node22</title>
<g id="a_edge42_Node000001_Node000022"><a xlink:title=" ">
<path fill="none" stroke="#63b8ff" d="M1249.18,-251.87C1343.87,-242.1 1491.11,-225.64 1618,-206 1622.54,-205.3 1627.19,-204.54 1631.88,-203.75"/>
<polygon fill="#63b8ff" stroke="#63b8ff" points="1248.63,-248.41 1239.04,-252.91 1249.35,-255.37 1248.63,-248.41"/>
</a>
</g>
</g>
<!-- Node23 -->
<g id="Node000023" class="node">
<title>Node23</title>
<g id="a_Node000023"><a xlink:href="multi__mesh__edge__split_8cpp.html" target="_top" xlink:title=" ">
<polygon fill="white" stroke="#666666" points="2090.5,-129 1959.5,-129 1959.5,-88 2090.5,-88 2090.5,-129"/>
<text text-anchor="start" x="1967.5" y="-117" font-family="Helvetica,sans-Serif" font-size="10.00">src/wmtk/operations</text>
<text text-anchor="start" x="1967.5" y="-106" font-family="Helvetica,sans-Serif" font-size="10.00">/utils/multi_mesh_edge</text>
<text text-anchor="middle" x="2025" y="-95" font-family="Helvetica,sans-Serif" font-size="10.00">_split.cpp</text>
</a>
</g>
</g>
<!-- Node1&#45;&gt;Node23 -->
<g id="edge43_Node000001_Node000023" class="edge">
<title>Node1&#45;&gt;Node23</title>
<g id="a_edge43_Node000001_Node000023"><a xlink:title=" ">
<path fill="none" stroke="#63b8ff" d="M1249.1,-259.88C1452.68,-255.79 1907.1,-242.62 1967,-206 1995.18,-188.77 2011.43,-152.23 2019.22,-129.39"/>
<polygon fill="#63b8ff" stroke="#63b8ff" points="1248.94,-256.38 1239.01,-260.08 1249.08,-263.38 1248.94,-256.38"/>
</a>
</g>
</g>
<!-- Node24 -->
<g id="Node000024" class="node">
<title>Node24</title>
<g id="a_Node000024"><a xlink:href="multi__mesh__edge__split_8hpp.html" target="_top" xlink:title=" ">
<polygon fill="white" stroke="#666666" points="1957.5,-206 1826.5,-206 1826.5,-165 1957.5,-165 1957.5,-206"/>
<text text-anchor="start" x="1834.5" y="-194" font-family="Helvetica,sans-Serif" font-size="10.00">src/wmtk/operations</text>
<text text-anchor="start" x="1834.5" y="-183" font-family="Helvetica,sans-Serif" font-size="10.00">/utils/multi_mesh_edge</text>
<text text-anchor="middle" x="1892" y="-172" font-family="Helvetica,sans-Serif" font-size="10.00">_split.hpp</text>
</a>
</g>
</g>
<!-- Node1&#45;&gt;Node24 -->
<g id="edge44_Node000001_Node000024" class="edge">
<title>Node1&#45;&gt;Node24</title>
<g id="a_edge44_Node000001_Node000024"><a xlink:title=" ">
<path fill="none" stroke="#63b8ff" d="M1249.51,-258.56C1380.08,-253.46 1617.24,-240.03 1817,-206 1820.05,-205.48 1823.16,-204.9 1826.29,-204.26"/>
<polygon fill="#63b8ff" stroke="#63b8ff" points="1249,-255.08 1239.14,-258.95 1249.27,-262.07 1249,-255.08"/>
</a>
</g>
</g>
<!-- Node11&#45;&gt;Node2 -->
<g id="edge11_Node000011_Node000002" class="edge">
<title>Node11&#45;&gt;Node2</title>
<g id="a_edge11_Node000011_Node000002"><a xlink:title=" ">
<path fill="none" stroke="#63b8ff" d="M949.57,-166.91C925.69,-157.91 898.58,-145.34 877,-129 858.35,-114.88 863.95,-100.22 844,-88 777.41,-47.2 747.94,-70.25 672,-52 669.26,-51.34 666.49,-50.66 663.68,-49.96"/>
<polygon fill="#63b8ff" stroke="#63b8ff" points="948.64,-170.3 959.23,-170.43 951.04,-163.72 948.64,-170.3"/>
</a>
</g>
</g>
<!-- Node11&#45;&gt;Node3 -->
<g id="edge12_Node000011_Node000003" class="edge">
<title>Node11&#45;&gt;Node3</title>
<g id="a_edge12_Node000011_Node000003"><a xlink:title=" ">
<path fill="none" stroke="#63b8ff" d="M938.45,-182.63C807.52,-178.32 513.06,-165.16 268,-129 265.21,-128.59 262.38,-128.14 259.53,-127.66"/>
<polygon fill="#63b8ff" stroke="#63b8ff" points="938.62,-186.13 948.72,-182.96 938.84,-179.14 938.62,-186.13"/>
</a>
</g>
</g>
<!-- Node11&#45;&gt;Node4 -->
<g id="edge13_Node000011_Node000004" class="edge">
<title>Node11&#45;&gt;Node4</title>
<g id="a_edge13_Node000011_Node000004"><a xlink:title=" ">
<path fill="none" stroke="#63b8ff" d="M1075.4,-178.49C1160.51,-170.12 1300.21,-153.21 1346,-129 1355.18,-124.15 1394.94,-80.76 1420.62,-52.16"/>
<polygon fill="#63b8ff" stroke="#63b8ff" points="1074.92,-175.02 1065.3,-179.46 1075.59,-181.98 1074.92,-175.02"/>
</a>
</g>
</g>
<!-- Node11&#45;&gt;Node5 -->
<g id="edge14_Node000011_Node000005" class="edge">
<title>Node11&#45;&gt;Node5</title>
<g id="a_edge14_Node000011_Node000005"><a xlink:title=" ">
<path fill="none" stroke="#63b8ff" d="M938.84,-178.18C807.12,-165.78 528.82,-138.65 510,-129 488.16,-117.8 494.84,-99.21 473,-88 345.68,-22.63 293.1,-81.23 153,-52 150.12,-51.4 147.19,-50.74 144.25,-50.03"/>
<polygon fill="#63b8ff" stroke="#63b8ff" points="938.55,-181.67 948.83,-179.12 939.2,-174.7 938.55,-181.67"/>
</a>
</g>
</g>
<!-- Node11&#45;&gt;Node6 -->
<g id="edge15_Node000011_Node000006" class="edge">
<title>Node11&#45;&gt;Node6</title>
<g id="a_edge15_Node000011_Node000006"><a xlink:title=" ">
<path fill="none" stroke="#63b8ff" d="M973.32,-165.12C956.75,-155.06 936.78,-142.15 920,-129 899.22,-112.71 898.86,-102.82 877,-88 852.29,-71.25 822.25,-57.02 796.97,-46.54"/>
<polygon fill="#63b8ff" stroke="#63b8ff" points="971.76,-168.26 982.14,-170.4 975.36,-162.26 971.76,-168.26"/>
</a>
</g>
</g>
<!-- Node11&#45;&gt;Node7 -->
<g id="edge16_Node000011_Node000007" class="edge">
<title>Node11&#45;&gt;Node7</title>
<g id="a_edge16_Node000011_Node000007"><a xlink:title=" ">
<path fill="none" stroke="#63b8ff" d="M1054.42,-165.59C1069.88,-156.89 1085.29,-144.89 1094,-129 1109.47,-100.79 1096.26,-61.82 1087.06,-41.17"/>
<polygon fill="#63b8ff" stroke="#63b8ff" points="1052.6,-162.59 1045.37,-170.33 1055.85,-168.79 1052.6,-162.59"/>
</a>
</g>
</g>
<!-- Node11&#45;&gt;Node8 -->
<g id="edge17_Node000011_Node000008" class="edge">
<title>Node11&#45;&gt;Node8</title>
<g id="a_edge17_Node000011_Node000008"><a xlink:title=" ">
<path fill="none" stroke="#63b8ff" d="M1075.21,-180.89C1220.92,-172.79 1553.1,-152.03 1599,-129 1620.94,-117.99 1615.53,-101.54 1636,-88 1654.44,-75.81 1703.24,-59.36 1744.94,-46.61"/>
<polygon fill="#63b8ff" stroke="#63b8ff" points="1074.84,-177.41 1065.04,-181.45 1075.22,-184.4 1074.84,-177.41"/>
</a>
</g>
</g>
<!-- Node11&#45;&gt;Node9 -->
<g id="edge18_Node000011_Node000009" class="edge">
<title>Node11&#45;&gt;Node9</title>
<g id="a_edge18_Node000011_Node000009"><a xlink:title=" ">
<path fill="none" stroke="#63b8ff" d="M938.83,-179.01C837.89,-170.51 642.82,-152.63 478,-129 466.88,-127.41 455.15,-125.5 443.69,-123.51"/>
<polygon fill="#63b8ff" stroke="#63b8ff" points="938.64,-182.51 948.9,-179.85 939.22,-175.53 938.64,-182.51"/>
</a>
</g>
</g>
<!-- Node11&#45;&gt;Node10 -->
<g id="edge19_Node000011_Node000010" class="edge">
<title>Node11&#45;&gt;Node10</title>
<g id="a_edge19_Node000011_Node000010"><a xlink:title=" ">
<path fill="none" stroke="#63b8ff" d="M1075.18,-182.35C1190.47,-177.86 1430.93,-164.7 1631,-129 1639.03,-127.57 1647.47,-125.66 1655.63,-123.59"/>
<polygon fill="#63b8ff" stroke="#63b8ff" points="1074.95,-178.86 1065.09,-182.74 1075.21,-185.86 1074.95,-178.86"/>
</a>
</g>
</g>
<!-- Node12 -->
<g id="Node000012" class="node">
<title>Node12</title>
<g id="a_Node000012"><a xlink:href="_tet_cell_split_8hpp.html" target="_top" xlink:title=" ">
<polygon fill="white" stroke="#666666" points="835.5,-123.5 686.5,-123.5 686.5,-93.5 835.5,-93.5 835.5,-123.5"/>
<text text-anchor="start" x="694.5" y="-111.5" font-family="Helvetica,sans-Serif" font-size="10.00">src/wmtk/operations</text>
<text text-anchor="middle" x="761" y="-100.5" font-family="Helvetica,sans-Serif" font-size="10.00">/composite/TetCellSplit.hpp</text>
</a>
</g>
</g>
<!-- Node11&#45;&gt;Node12 -->
<g id="edge20_Node000011_Node000012" class="edge">
<title>Node11&#45;&gt;Node12</title>
<g id="a_edge20_Node000011_Node000012"><a xlink:title=" ">
<path fill="none" stroke="#63b8ff" d="M951.44,-167.56C907.92,-154.29 848.09,-136.05 807.17,-123.58"/>
<polygon fill="#63b8ff" stroke="#63b8ff" points="950.43,-170.91 961.02,-170.48 952.47,-164.22 950.43,-170.91"/>
</a>
</g>
</g>
<!-- Node14 -->
<g id="Node000014" class="node">
<title>Node14</title>
<g id="a_Node000014"><a xlink:href="_tet_edge_swap_8hpp.html" target="_top" xlink:title=" ">
<polygon fill="white" stroke="#666666" points="1589.5,-123.5 1430.5,-123.5 1430.5,-93.5 1589.5,-93.5 1589.5,-123.5"/>
<text text-anchor="start" x="1438.5" y="-111.5" font-family="Helvetica,sans-Serif" font-size="10.00">src/wmtk/operations</text>
<text text-anchor="middle" x="1510" y="-100.5" font-family="Helvetica,sans-Serif" font-size="10.00">/composite/TetEdgeSwap.hpp</text>
</a>
</g>
</g>
<!-- Node11&#45;&gt;Node14 -->
<g id="edge22_Node000011_Node000014" class="edge">
<title>Node11&#45;&gt;Node14</title>
<g id="a_edge22_Node000011_Node000014"><a xlink:title=" ">
<path fill="none" stroke="#63b8ff" d="M1075.28,-174.32C1167.76,-160.53 1332.5,-135.97 1430.46,-121.36"/>
<polygon fill="#63b8ff" stroke="#63b8ff" points="1074.57,-170.89 1065.19,-175.82 1075.6,-177.81 1074.57,-170.89"/>
</a>
</g>
</g>
<!-- Node16 -->
<g id="Node000016" class="node">
<title>Node16</title>
<g id="a_Node000016"><a xlink:href="_tet_face_swap_8hpp.html" target="_top" xlink:title=" ">
<polygon fill="white" stroke="#666666" points="1336.5,-123.5 1179.5,-123.5 1179.5,-93.5 1336.5,-93.5 1336.5,-123.5"/>
<text text-anchor="start" x="1187.5" y="-111.5" font-family="Helvetica,sans-Serif" font-size="10.00">src/wmtk/operations</text>
<text text-anchor="middle" x="1258" y="-100.5" font-family="Helvetica,sans-Serif" font-size="10.00">/composite/TetFaceSwap.hpp</text>
</a>
</g>
</g>
<!-- Node11&#45;&gt;Node16 -->
<g id="edge27_Node000011_Node000016" class="edge">
<title>Node11&#45;&gt;Node16</title>
<g id="a_edge27_Node000011_Node000016"><a xlink:title=" ">
<path fill="none" stroke="#63b8ff" d="M1063.69,-167.56C1108.1,-154.29 1169.14,-136.05 1210.89,-123.58"/>
<polygon fill="#63b8ff" stroke="#63b8ff" points="1062.5,-164.26 1053.92,-170.48 1064.5,-170.97 1062.5,-164.26"/>
</a>
</g>
</g>
<!-- Node18 -->
<g id="Node000018" class="node">
<title>Node18</title>
<g id="a_Node000018"><a xlink:href="_tri_edge_swap_8hpp.html" target="_top" xlink:title=" ">
<polygon fill="white" stroke="#666666" points="1085,-123.5 929,-123.5 929,-93.5 1085,-93.5 1085,-123.5"/>
<text text-anchor="start" x="937" y="-111.5" font-family="Helvetica,sans-Serif" font-size="10.00">src/wmtk/operations</text>
<text text-anchor="middle" x="1007" y="-100.5" font-family="Helvetica,sans-Serif" font-size="10.00">/composite/TriEdgeSwap.hpp</text>
</a>
</g>
</g>
<!-- Node11&#45;&gt;Node18 -->
<g id="edge32_Node000011_Node000018" class="edge">
<title>Node11&#45;&gt;Node18</title>
<g id="a_edge32_Node000011_Node000018"><a xlink:title=" ">
<path fill="none" stroke="#63b8ff" d="M1007,-160.04C1007,-147.95 1007,-133.79 1007,-123.54"/>
<polygon fill="#63b8ff" stroke="#63b8ff" points="1003.5,-160.39 1007,-170.39 1010.5,-160.39 1003.5,-160.39"/>
</a>
</g>
</g>
<!-- Node20 -->
<g id="Node000020" class="node">
<title>Node20</title>
<g id="a_Node000020"><a xlink:href="_tri_face_split_8hpp.html" target="_top" xlink:title=" ">
<polygon fill="white" stroke="#666666" points="668.5,-123.5 519.5,-123.5 519.5,-93.5 668.5,-93.5 668.5,-123.5"/>
<text text-anchor="start" x="527.5" y="-111.5" font-family="Helvetica,sans-Serif" font-size="10.00">src/wmtk/operations</text>
<text text-anchor="middle" x="594" y="-100.5" font-family="Helvetica,sans-Serif" font-size="10.00">/composite/TriFaceSplit.hpp</text>
</a>
</g>
</g>
<!-- Node11&#45;&gt;Node20 -->
<g id="edge39_Node000011_Node000020" class="edge">
<title>Node11&#45;&gt;Node20</title>
<g id="a_edge39_Node000011_Node000020"><a xlink:title=" ">
<path fill="none" stroke="#63b8ff" d="M938.98,-174.36C872.09,-164.09 767.2,-147.16 677,-129 668.73,-127.33 660.03,-125.44 651.49,-123.51"/>
<polygon fill="#63b8ff" stroke="#63b8ff" points="938.56,-177.84 948.97,-175.89 939.61,-170.92 938.56,-177.84"/>
</a>
</g>
</g>
<!-- Node13 -->
<g id="Node000013" class="node">
<title>Node13</title>
<g id="a_Node000013"><a xlink:href="_tet_cell_split_8cpp.html" target="_top" xlink:title=" ">
<polygon fill="white" stroke="#666666" points="478.5,-41 329.5,-41 329.5,-11 478.5,-11 478.5,-41"/>
<text text-anchor="start" x="337.5" y="-29" font-family="Helvetica,sans-Serif" font-size="10.00">src/wmtk/operations</text>
<text text-anchor="middle" x="404" y="-18" font-family="Helvetica,sans-Serif" font-size="10.00">/composite/TetCellSplit.cpp</text>
</a>
</g>
</g>
<!-- Node12&#45;&gt;Node13 -->
<g id="edge21_Node000012_Node000013" class="edge">
<title>Node12&#45;&gt;Node13</title>
<g id="a_edge21_Node000012_Node000013"><a xlink:title=" ">
<path fill="none" stroke="#63b8ff" d="M692.07,-91.26C686.97,-90.13 681.91,-89.03 677,-88 592.9,-70.28 570.49,-72.42 487,-52 474.14,-48.85 460.31,-44.92 447.7,-41.1"/>
<polygon fill="#63b8ff" stroke="#63b8ff" points="691.34,-94.68 701.87,-93.45 692.87,-87.85 691.34,-94.68"/>
</a>
</g>
</g>
<!-- Node14&#45;&gt;Node4 -->
<g id="edge23_Node000014_Node000004" class="edge">
<title>Node14&#45;&gt;Node4</title>
<g id="a_edge23_Node000014_Node000004"><a xlink:title=" ">
<path fill="none" stroke="#63b8ff" d="M1491.86,-85.71C1483.26,-75.38 1472.94,-62.97 1464,-52.24"/>
<polygon fill="#63b8ff" stroke="#63b8ff" points="1489.24,-88.03 1498.33,-93.48 1494.62,-83.55 1489.24,-88.03"/>
</a>
</g>
</g>
<!-- Node14&#45;&gt;Node7 -->
<g id="edge24_Node000014_Node000007" class="edge">
<title>Node14&#45;&gt;Node7</title>
<g id="a_edge24_Node000014_Node000007"><a xlink:title=" ">
<path fill="none" stroke="#63b8ff" d="M1420.52,-95.49C1351.89,-85.64 1254.99,-70.36 1171,-52 1156.75,-48.89 1141.42,-44.92 1127.46,-41.06"/>
<polygon fill="#63b8ff" stroke="#63b8ff" points="1420.04,-98.96 1430.44,-96.9 1421.03,-92.03 1420.04,-98.96"/>
</a>
</g>
</g>
<!-- Node14&#45;&gt;Node8 -->
<g id="edge25_Node000014_Node000008" class="edge">
<title>Node14&#45;&gt;Node8</title>
<g id="a_edge25_Node000014_Node000008"><a xlink:title=" ">
<path fill="none" stroke="#63b8ff" d="M1572.53,-90.89C1621.06,-77.99 1688.45,-60.09 1739.55,-46.51"/>
<polygon fill="#63b8ff" stroke="#63b8ff" points="1571.54,-87.53 1562.78,-93.48 1573.34,-94.29 1571.54,-87.53"/>
</a>
</g>
</g>
<!-- Node15 -->
<g id="Node000015" class="node">
<title>Node15</title>
<g id="a_Node000015"><a xlink:href="_tet_edge_swap_8cpp.html" target="_top" xlink:title=" ">
<polygon fill="white" stroke="#666666" points="1707,-41 1549,-41 1549,-11 1707,-11 1707,-41"/>
<text text-anchor="start" x="1557" y="-29" font-family="Helvetica,sans-Serif" font-size="10.00">src/wmtk/operations</text>
<text text-anchor="middle" x="1628" y="-18" font-family="Helvetica,sans-Serif" font-size="10.00">/composite/TetEdgeSwap.cpp</text>
</a>
</g>
</g>
<!-- Node14&#45;&gt;Node15 -->
<g id="edge26_Node000014_Node000015" class="edge">
<title>Node14&#45;&gt;Node15</title>
<g id="a_edge26_Node000014_Node000015"><a xlink:title=" ">
<path fill="none" stroke="#63b8ff" d="M1538.86,-87.81C1560.05,-73.36 1588.31,-54.07 1607.29,-41.13"/>
<polygon fill="#63b8ff" stroke="#63b8ff" points="1536.84,-84.95 1530.55,-93.48 1540.79,-90.73 1536.84,-84.95"/>
</a>
</g>
</g>
<!-- Node16&#45;&gt;Node4 -->
<g id="edge28_Node000016_Node000004" class="edge">
<title>Node16&#45;&gt;Node4</title>
<g id="a_edge28_Node000016_Node000004"><a xlink:title=" ">
<path fill="none" stroke="#63b8ff" d="M1299.54,-89.42C1324.86,-78.41 1357.58,-64.17 1385.38,-52.07"/>
<polygon fill="#63b8ff" stroke="#63b8ff" points="1298,-86.28 1290.22,-93.48 1300.79,-92.7 1298,-86.28"/>
</a>
</g>
</g>
<!-- Node16&#45;&gt;Node7 -->
<g id="edge29_Node000016_Node000007" class="edge">
<title>Node16&#45;&gt;Node7</title>
<g id="a_edge29_Node000016_Node000007"><a xlink:title=" ">
<path fill="none" stroke="#63b8ff" d="M1217.83,-89.33C1185.56,-74.74 1140.88,-54.53 1111.25,-41.13"/>
<polygon fill="#63b8ff" stroke="#63b8ff" points="1216.44,-92.55 1226.99,-93.48 1219.33,-86.17 1216.44,-92.55"/>
</a>
</g>
</g>
<!-- Node16&#45;&gt;Node8 -->
<g id="edge30_Node000016_Node000008" class="edge">
<title>Node16&#45;&gt;Node8</title>
<g id="a_edge30_Node000016_Node000008"><a xlink:title=" ">
<path fill="none" stroke="#63b8ff" d="M1346.59,-96.91C1477.18,-81.29 1707,-53.7 1716,-52 1724.37,-50.42 1733.1,-48.53 1741.73,-46.51"/>
<polygon fill="#63b8ff" stroke="#63b8ff" points="1346.1,-93.45 1336.59,-98.11 1346.93,-100.4 1346.1,-93.45"/>
</a>
</g>
</g>
<!-- Node17 -->
<g id="Node000017" class="node">
<title>Node17</title>
<g id="a_Node000017"><a xlink:href="_tet_face_swap_8cpp.html" target="_top" xlink:title=" ">
<polygon fill="white" stroke="#666666" points="1336,-41 1180,-41 1180,-11 1336,-11 1336,-41"/>
<text text-anchor="start" x="1188" y="-29" font-family="Helvetica,sans-Serif" font-size="10.00">src/wmtk/operations</text>
<text text-anchor="middle" x="1258" y="-18" font-family="Helvetica,sans-Serif" font-size="10.00">/composite/TetFaceSwap.cpp</text>
</a>
</g>
</g>
<!-- Node16&#45;&gt;Node17 -->
<g id="edge31_Node000016_Node000017" class="edge">
<title>Node16&#45;&gt;Node17</title>
<g id="a_edge31_Node000016_Node000017"><a xlink:title=" ">
<path fill="none" stroke="#63b8ff" d="M1258,-83.24C1258,-69.48 1258,-52.75 1258,-41.13"/>
<polygon fill="#63b8ff" stroke="#63b8ff" points="1254.5,-83.48 1258,-93.48 1261.5,-83.48 1254.5,-83.48"/>
</a>
</g>
</g>
<!-- Node18&#45;&gt;Node2 -->
<g id="edge33_Node000018_Node000002" class="edge">
<title>Node18&#45;&gt;Node2</title>
<g id="a_edge33_Node000018_Node000002"><a xlink:title=" ">
<path fill="none" stroke="#63b8ff" d="M918.94,-93.94C835.98,-80.99 717.8,-61.99 672,-52 669.25,-51.4 666.46,-50.77 663.65,-50.12"/>
<polygon fill="#63b8ff" stroke="#63b8ff" points="918.45,-97.41 928.87,-95.49 919.53,-90.49 918.45,-97.41"/>
</a>
</g>
</g>
<!-- Node18&#45;&gt;Node4 -->
<g id="edge34_Node000018_Node000004" class="edge">
<title>Node18&#45;&gt;Node4</title>
<g id="a_edge34_Node000018_Node000004"><a xlink:title=" ">
<path fill="none" stroke="#63b8ff" d="M1095.53,-95.12C1163.94,-85.03 1260.85,-69.61 1345,-52 1348.09,-51.35 1351.24,-50.67 1354.41,-49.97"/>
<polygon fill="#63b8ff" stroke="#63b8ff" points="1094.61,-91.71 1085.22,-96.63 1095.62,-98.64 1094.61,-91.71"/>
</a>
</g>
</g>
<!-- Node18&#45;&gt;Node6 -->
<g id="edge35_Node000018_Node000006" class="edge">
<title>Node18&#45;&gt;Node6</title>
<g id="a_edge35_Node000018_Node000006"><a xlink:title=" ">
<path fill="none" stroke="#63b8ff" d="M945.57,-90.71C907.75,-80.13 858.38,-65.89 815,-52 809.65,-50.29 804.09,-48.44 798.55,-46.56"/>
<polygon fill="#63b8ff" stroke="#63b8ff" points="944.85,-94.14 955.42,-93.45 946.72,-87.4 944.85,-94.14"/>
</a>
</g>
</g>
<!-- Node18&#45;&gt;Node7 -->
<g id="edge36_Node000018_Node000007" class="edge">
<title>Node18&#45;&gt;Node7</title>
<g id="a_edge36_Node000018_Node000007"><a xlink:title=" ">
<path fill="none" stroke="#63b8ff" d="M1026.45,-86.05C1039.35,-71.83 1055.92,-53.56 1067.19,-41.13"/>
<polygon fill="#63b8ff" stroke="#63b8ff" points="1023.84,-83.72 1019.72,-93.48 1029.03,-88.42 1023.84,-83.72"/>
</a>
</g>
</g>
<!-- Node18&#45;&gt;Node8 -->
<g id="edge37_Node000018_Node000008" class="edge">
<title>Node18&#45;&gt;Node8</title>
<g id="a_edge37_Node000018_Node000008"><a xlink:title=" ">
<path fill="none" stroke="#63b8ff" d="M1095.31,-96.14C1119.8,-93.22 1146.41,-90.27 1171,-88 1412.72,-65.66 1476.32,-90.46 1716,-52 1725.01,-50.55 1734.41,-48.65 1743.65,-46.53"/>
<polygon fill="#63b8ff" stroke="#63b8ff" points="1094.84,-92.67 1085.33,-97.34 1095.67,-99.62 1094.84,-92.67"/>
</a>
</g>
</g>
<!-- Node19 -->
<g id="Node000019" class="node">
<title>Node19</title>
<g id="a_Node000019"><a xlink:href="_tri_edge_swap_8cpp.html" target="_top" xlink:title=" ">
<polygon fill="white" stroke="#666666" points="979.5,-41 824.5,-41 824.5,-11 979.5,-11 979.5,-41"/>
<text text-anchor="start" x="832.5" y="-29" font-family="Helvetica,sans-Serif" font-size="10.00">src/wmtk/operations</text>
<text text-anchor="middle" x="902" y="-18" font-family="Helvetica,sans-Serif" font-size="10.00">/composite/TriEdgeSwap.cpp</text>
</a>
</g>
</g>
<!-- Node18&#45;&gt;Node19 -->
<g id="edge38_Node000018_Node000019" class="edge">
<title>Node18&#45;&gt;Node19</title>
<g id="a_edge38_Node000018_Node000019"><a xlink:title=" ">
<path fill="none" stroke="#63b8ff" d="M980.56,-87.23C961.8,-72.85 937.09,-53.9 920.43,-41.13"/>
<polygon fill="#63b8ff" stroke="#63b8ff" points="978.64,-90.17 988.71,-93.48 982.9,-84.62 978.64,-90.17"/>
</a>
</g>
</g>
<!-- Node20&#45;&gt;Node5 -->
<g id="edge40_Node000020_Node000005" class="edge">
<title>Node20&#45;&gt;Node5</title>
<g id="a_edge40_Node000020_Node000005"><a xlink:title=" ">
<path fill="none" stroke="#63b8ff" d="M524.99,-91.41C518.59,-90.16 512.18,-89 506,-88 350.31,-62.9 307.54,-83.41 153,-52 150.12,-51.41 147.19,-50.77 144.24,-50.07"/>
<polygon fill="#63b8ff" stroke="#63b8ff" points="524.52,-94.89 535.01,-93.44 525.9,-88.02 524.52,-94.89"/>
</a>
</g>
</g>
<!-- Node21 -->
<g id="Node000021" class="node">
<title>Node21</title>
<g id="a_Node000021"><a xlink:href="_tri_face_split_8cpp.html" target="_top" xlink:title=" ">
<polygon fill="white" stroke="#666666" points="311.5,-41 162.5,-41 162.5,-11 311.5,-11 311.5,-41"/>
<text text-anchor="start" x="170.5" y="-29" font-family="Helvetica,sans-Serif" font-size="10.00">src/wmtk/operations</text>
<text text-anchor="middle" x="237" y="-18" font-family="Helvetica,sans-Serif" font-size="10.00">/composite/TriFaceSplit.cpp</text>
</a>
</g>
</g>
<!-- Node20&#45;&gt;Node21 -->
<g id="edge41_Node000020_Node000021" class="edge">
<title>Node20&#45;&gt;Node21</title>
<g id="a_edge41_Node000020_Node000021"><a xlink:title=" ">
<path fill="none" stroke="#63b8ff" d="M521.48,-91.27C516.24,-90.15 511.04,-89.05 506,-88 423.56,-70.89 401.75,-72.17 320,-52 307.14,-48.83 293.32,-44.88 280.71,-41.07"/>
<polygon fill="#63b8ff" stroke="#63b8ff" points="521.04,-94.75 531.55,-93.44 522.51,-87.91 521.04,-94.75"/>
</a>
</g>
</g>
<!-- Node24&#45;&gt;Node10 -->
<g id="edge46_Node000024_Node000010" class="edge">
<title>Node24&#45;&gt;Node10</title>
<g id="a_edge46_Node000024_Node000010"><a xlink:title=" ">
<path fill="none" stroke="#63b8ff" d="M1833.41,-161.25C1802.33,-148.92 1765.18,-134.17 1738.49,-123.58"/>
<polygon fill="#63b8ff" stroke="#63b8ff" points="1832.25,-164.56 1842.84,-164.99 1834.83,-158.05 1832.25,-164.56"/>
</a>
</g>
</g>
<!-- Node24&#45;&gt;Node23 -->
<g id="edge47_Node000024_Node000023" class="edge">
<title>Node24&#45;&gt;Node23</title>
<g id="a_edge47_Node000024_Node000023"><a xlink:title=" ">
<path fill="none" stroke="#63b8ff" d="M1935.59,-159.92C1953.28,-149.95 1973.43,-138.58 1990.11,-129.17"/>
<polygon fill="#63b8ff" stroke="#63b8ff" points="1933.59,-157.03 1926.6,-164.99 1937.03,-163.13 1933.59,-157.03"/>
</a>
</g>
</g>
<!-- Node25 -->
<g id="Node000025" class="node">
<title>Node25</title>
<g id="a_Node000025"><a xlink:href="extract__operation__tuples_8cpp.html" target="_top" xlink:title=" ">
<polygon fill="white" stroke="#666666" points="1941,-129 1817,-129 1817,-88 1941,-88 1941,-129"/>
<text text-anchor="start" x="1825" y="-117" font-family="Helvetica,sans-Serif" font-size="10.00">src/wmtk/multimesh</text>
<text text-anchor="start" x="1825" y="-106" font-family="Helvetica,sans-Serif" font-size="10.00">/operations/extract</text>
<text text-anchor="middle" x="1879" y="-95" font-family="Helvetica,sans-Serif" font-size="10.00">_operation_tuples.cpp</text>
</a>
</g>
</g>
<!-- Node24&#45;&gt;Node25 -->
<g id="edge45_Node000024_Node000025" class="edge">
<title>Node24&#45;&gt;Node25</title>
<g id="a_edge45_Node000024_Node000025"><a xlink:title=" ">
<path fill="none" stroke="#63b8ff" d="M1886.83,-154.69C1885.34,-146.08 1883.75,-136.9 1882.39,-129.07"/>
<polygon fill="#63b8ff" stroke="#63b8ff" points="1883.43,-155.54 1888.58,-164.79 1890.33,-154.34 1883.43,-155.54"/>
</a>
</g>
</g>
</g>
</svg>
