<?xml version="1.0" encoding="UTF-8" standalone="no"?>
<!DOCTYPE svg PUBLIC "-//W3C//DTD SVG 1.1//EN"
 "http://www.w3.org/Graphics/SVG/1.1/DTD/svg11.dtd">
<!-- Generated by graphviz version 2.43.0 (0)
 -->
<!-- Title: src/wmtk/operations/composite/TriEdgeSwap.hpp Pages: 1 -->
<!--zoomable 126 -->

<svg id="main" version="1.1" xmlns="http://www.w3.org/2000/svg" xmlns:xlink="http://www.w3.org/1999/xlink" xml:space="preserve" onload="init(evt)">
<style type="text/css"><![CDATA[
.node, .edge {opacity: 0.7;}
.node.selected, .edge.selected {opacity: 1;}
.edge:hover path { stroke: red; }
.edge:hover polygon { stroke: red; fill: red; }
]]></style>

<defs>
  <circle id="rim" cx="0" cy="0" r="7"/>
  <circle id="rim2" cx="0" cy="0" r="3.5"/>
  <g id="zoomPlus">
    <use xlink:href="#rim" fill="#404040"><set attributeName="fill" to="#808080" begin="zoomplus.mouseover" end="zoomplus.mouseout"/></use>
    <path d="M-4,0h8M0,-4v8" fill="none" stroke="white" stroke-width="1.5" pointer-events="none"/>
  </g>
  <g id="zoomMin">
    <use xlink:href="#rim" fill="#404040"><set attributeName="fill" to="#808080" begin="zoomminus.mouseover" end="zoomminus.mouseout"/></use>
    <path d="M-4,0h8" fill="none" stroke="white" stroke-width="1.5" pointer-events="none"/>
  </g>
  <g id="arrowUp" transform="translate(30 24)">
    <use xlink:href="#rim"/>
    <path pointer-events="none" fill="none" stroke="white" stroke-width="1.5" d="M0,-3.0v7 M-2.5,-0.5L0,-3.0L2.5,-0.5"/>
  </g>
  <g id="arrowRight" transform="rotate(90) translate(36 -43)">
    <use xlink:href="#rim"/>
    <path pointer-events="none" fill="none" stroke="white" stroke-width="1.5" d="M0,-3.0v7 M-2.5,-0.5L0,-3.0L2.5,-0.5"/>
  </g>
  <g id="arrowDown" transform="rotate(180) translate(-30 -48)">
    <use xlink:href="#rim"/>
    <path pointer-events="none" fill="none" stroke="white" stroke-width="1.5" d="M0,-3.0v7 M-2.5,-0.5L0,-3.0L2.5,-0.5"/>
  </g>
  <g id="arrowLeft" transform="rotate(270) translate(-36 17)">
    <use xlink:href="#rim"/>
    <path pointer-events="none" fill="none" stroke="white" stroke-width="1.5" d="M0,-3.0v7 M-2.5,-0.5L0,-3.0L2.5,-0.5"/>
  </g>
  <g id="resetDef">
    <use xlink:href="#rim2" fill="#404040"><set attributeName="fill" to="#808080" begin="reset.mouseover" end="reset.mouseout"/></use>
  </g>
</defs>
<script type="application/ecmascript">
var viewWidth = 1063;
var viewHeight = 126;
var sectionId = 'dynsection-1';
</script>
<script type="application/ecmascript" xlink:href="svg.min.js"/>
<svg id="graph" class="graph">
<g id="viewport">
<title>src/wmtk/operations/composite/TriEdgeSwap.hpp</title>
<!-- Node1 -->
<g id="Node000001" class="node">
<title>Node1</title>
<g id="a_Node000001"><a xlink:title=" ">
<polygon fill="#999999" stroke="#666666" points="601.5,-118 445.5,-118 445.5,-88 601.5,-88 601.5,-118"/>
<text text-anchor="start" x="453.5" y="-106" font-family="Helvetica,sans-Serif" font-size="10.00">src/wmtk/operations</text>
<text text-anchor="middle" x="523.5" y="-95" font-family="Helvetica,sans-Serif" font-size="10.00">/composite/TriEdgeSwap.hpp</text>
</a>
</g>
</g>
<!-- Node2 -->
<g id="Node000002" class="node">
<title>Node2</title>
<g id="a_Node000002"><a xlink:href="_isotropic_remeshing_8cpp.html" target="_top" xlink:title=" ">
<polygon fill="white" stroke="#666666" points="167,-52 0,-52 0,0 167,0 167,-52"/>
<text text-anchor="start" x="8" y="-40" font-family="Helvetica,sans-Serif" font-size="10.00">components/isotropic</text>
<text text-anchor="start" x="8" y="-29" font-family="Helvetica,sans-Serif" font-size="10.00">_remeshing/wmtk/components</text>
<text text-anchor="start" x="8" y="-18" font-family="Helvetica,sans-Serif" font-size="10.00">/isotropic_remeshing/internal</text>
<text text-anchor="middle" x="83.5" y="-7" font-family="Helvetica,sans-Serif" font-size="10.00">/IsotropicRemeshing.cpp</text>
</a>
</g>
</g>
<!-- Node1&#45;&gt;Node2 -->
<g id="edge1_Node000001_Node000002" class="edge">
<title>Node1&#45;&gt;Node2</title>
<g id="a_edge1_Node000001_Node000002"><a xlink:title=" ">
<path fill="none" stroke="#63b8ff" d="M435.08,-92.33C364.43,-83.88 263.09,-70.12 175.5,-52 172.74,-51.43 169.95,-50.83 167.13,-50.19"/>
<polygon fill="#63b8ff" stroke="#63b8ff" points="434.94,-95.84 445.28,-93.54 435.76,-88.89 434.94,-95.84"/>
</a>
</g>
</g>
<!-- Node3 -->
<g id="Node000003" class="node">
<title>Node3</title>
<g id="a_Node000003"><a xlink:href="internal_2periodic__optimization_8cpp.html" target="_top" xlink:title=" ">
<polygon fill="white" stroke="#666666" points="362,-52 185,-52 185,0 362,0 362,-52"/>
<text text-anchor="start" x="193" y="-40" font-family="Helvetica,sans-Serif" font-size="10.00">components/periodic</text>
<text text-anchor="start" x="193" y="-29" font-family="Helvetica,sans-Serif" font-size="10.00">_optimization/wmtk/components</text>
<text text-anchor="start" x="193" y="-18" font-family="Helvetica,sans-Serif" font-size="10.00">/periodic_optimization/internal</text>
<text text-anchor="middle" x="273.5" y="-7" font-family="Helvetica,sans-Serif" font-size="10.00">/periodic_optimization.cpp</text>
</a>
</g>
</g>
<!-- Node1&#45;&gt;Node3 -->
<g id="edge2_Node000001_Node000003" class="edge">
<title>Node1&#45;&gt;Node3</title>
<g id="a_edge2_Node000001_Node000003"><a xlink:title=" ">
<path fill="none" stroke="#63b8ff" d="M466.99,-85.05C434.51,-75.3 393.11,-62.88 356.94,-52.03"/>
<polygon fill="#63b8ff" stroke="#63b8ff" points="466.19,-88.46 476.77,-87.98 468.2,-81.76 466.19,-88.46"/>
</a>
</g>
</g>
<!-- Node4 -->
<g id="Node000004" class="node">
<title>Node4</title>
<g id="a_Node000004"><a xlink:href="test__component__isotropic__remeshing_8cpp.html" target="_top" xlink:title=" ">
<polygon fill="white" stroke="#666666" points="505,-46.5 380,-46.5 380,-5.5 505,-5.5 505,-46.5"/>
<text text-anchor="start" x="388" y="-34.5" font-family="Helvetica,sans-Serif" font-size="10.00">components/tests/test</text>
<text text-anchor="start" x="388" y="-23.5" font-family="Helvetica,sans-Serif" font-size="10.00">_component_isotropic</text>
<text text-anchor="middle" x="442.5" y="-12.5" font-family="Helvetica,sans-Serif" font-size="10.00">_remeshing.cpp</text>
</a>
</g>
</g>
<!-- Node1&#45;&gt;Node4 -->
<g id="edge3_Node000001_Node000004" class="edge">
<title>Node1&#45;&gt;Node4</title>
<g id="a_edge3_Node000001_Node000004"><a xlink:title=" ">
<path fill="none" stroke="#63b8ff" d="M500.69,-80.88C489.12,-70.16 475.14,-57.22 463.78,-46.7"/>
<polygon fill="#63b8ff" stroke="#63b8ff" points="498.55,-83.67 508.26,-87.89 503.3,-78.53 498.55,-83.67"/>
</a>
</g>
</g>
<!-- Node5 -->
<g id="Node000005" class="node">
<title>Node5</title>
<g id="a_Node000005"><a xlink:href="test__component__wildmeshing_8cpp.html" target="_top" xlink:title=" ">
<polygon fill="white" stroke="#666666" points="687.5,-41 523.5,-41 523.5,-11 687.5,-11 687.5,-41"/>
<text text-anchor="start" x="531.5" y="-29" font-family="Helvetica,sans-Serif" font-size="10.00">components/tests/test</text>
<text text-anchor="middle" x="605.5" y="-18" font-family="Helvetica,sans-Serif" font-size="10.00">_component_wildmeshing.cpp</text>
</a>
</g>
</g>
<!-- Node1&#45;&gt;Node5 -->
<g id="edge4_Node000001_Node000005" class="edge">
<title>Node1&#45;&gt;Node5</title>
<g id="a_edge4_Node000001_Node000005"><a xlink:title=" ">
<path fill="none" stroke="#63b8ff" d="M546.66,-80.82C560.58,-68.08 577.91,-52.24 590.15,-41.04"/>
<polygon fill="#63b8ff" stroke="#63b8ff" points="543.94,-78.56 538.92,-87.89 548.66,-83.73 543.94,-78.56"/>
</a>
</g>
</g>
<!-- Node6 -->
<g id="Node000006" class="node">
<title>Node6</title>
<g id="a_Node000006"><a xlink:href="wildmeshing_8cpp.html" target="_top" xlink:title=" ">
<polygon fill="white" stroke="#666666" points="881.5,-46.5 705.5,-46.5 705.5,-5.5 881.5,-5.5 881.5,-46.5"/>
<text text-anchor="start" x="713.5" y="-34.5" font-family="Helvetica,sans-Serif" font-size="10.00">components/wildmeshing</text>
<text text-anchor="start" x="713.5" y="-23.5" font-family="Helvetica,sans-Serif" font-size="10.00">/wmtk/components/wildmeshing</text>
<text text-anchor="middle" x="793.5" y="-12.5" font-family="Helvetica,sans-Serif" font-size="10.00">/wildmeshing.cpp</text>
</a>
</g>
</g>
<!-- Node1&#45;&gt;Node6 -->
<g id="edge5_Node000001_Node000006" class="edge">
<title>Node1&#45;&gt;Node6</title>
<g id="a_edge5_Node000001_Node000006"><a xlink:title=" ">
<path fill="none" stroke="#63b8ff" d="M583.62,-85.3C624.9,-73.83 679.85,-58.57 723.17,-46.54"/>
<polygon fill="#63b8ff" stroke="#63b8ff" points="582.67,-81.93 573.97,-87.98 584.54,-88.68 582.67,-81.93"/>
</a>
</g>
</g>
<!-- Node7 -->
<g id="Node000007" class="node">
<title>Node7</title>
<g id="a_Node000007"><a xlink:href="_tri_edge_swap_8cpp.html" target="_top" xlink:title=" ">
<polygon fill="white" stroke="#666666" points="1055,-41 900,-41 900,-11 1055,-11 1055,-41"/>
<text text-anchor="start" x="908" y="-29" font-family="Helvetica,sans-Serif" font-size="10.00">src/wmtk/operations</text>
<text text-anchor="middle" x="977.5" y="-18" font-family="Helvetica,sans-Serif" font-size="10.00">/composite/TriEdgeSwap.cpp</text>
</a>
</g>
</g>
<!-- Node1&#45;&gt;Node7 -->
<g id="edge6_Node000001_Node000007" class="edge">
<title>Node1&#45;&gt;Node7</title>
<g id="a_edge6_Node000001_Node000007"><a xlink:title=" ">
<path fill="none" stroke="#63b8ff" d="M612.05,-93.56C686.76,-85.58 796.3,-71.84 890.5,-52 904.49,-49.05 919.53,-45.04 933.1,-41.1"/>
<polygon fill="#63b8ff" stroke="#63b8ff" points="611.32,-90.12 601.74,-94.65 612.05,-97.08 611.32,-90.12"/>
</a>
</g>
</g>
</g>
</svg>

<g id="navigator" transform="translate(0 0)" fill="#404254">
  <rect fill="#f2f5e9" fill-opacity="0.5" stroke="#606060" stroke-width=".5" x="0" y="0" width="60" height="60"/>
  <use id="zoomplus" xlink:href="#zoomPlus" x="17" y="9" onmousedown="handleZoom(evt,'in')"/>
  <use id="zoomminus" xlink:href="#zoomMin" x="42" y="9" onmousedown="handleZoom(evt,'out')"/>
  <use id="reset" xlink:href="#resetDef" x="30" y="36" onmousedown="handleReset()"/>
   <use id="arrowup" xlink:href="#arrowUp" x="0" y="0" onmousedown="handlePan(0,-1)"/>
  <use id="arrowright" xlink:href="#arrowRight" x="0" y="0" onmousedown="handlePan(1,0)"/>
  <use id="arrowdown" xlink:href="#arrowDown" x="0" y="0" onmousedown="handlePan(0,1)"/>
  <use id="arrowleft" xlink:href="#arrowLeft" x="0" y="0" onmousedown="handlePan(-1,0)"/>
</g>
<svg viewBox="0 0 15 15" width="100%" height="30px" preserveAspectRatio="xMaxYMin meet">
 <g id="arrow_out" transform="scale(0.3 0.3)">
  <a xlink:href="_tri_edge_swap_8hpp__dep__incl_org.svg" target="_base">
   <rect id="button" ry="5" rx="5" y="6" x="6" height="38" width="38"
        fill="#f2f5e9" fill-opacity="0.5" stroke="#606060" stroke-width="1.0"/>
   <path id="arrow"
     d="M 11.500037,31.436501 C 11.940474,20.09759 22.043105,11.32322 32.158766,21.979434 L 37.068811,17.246167 C 37.068811,17.246167 37.088388,32 37.088388,32 L 22.160133,31.978069 C 22.160133,31.978069 26.997745,27.140456 26.997745,27.140456 C 18.528582,18.264221 13.291696,25.230495 11.500037,31.436501 z"
     style="fill:#404040;"/>
  </a>
 </g>
</svg>

<style type='text/css'>
<![CDATA[
[data-mouse-over-selected='false'] { opacity: 0.7; }
[data-mouse-over-selected='true']  { opacity: 1.0; }
]]>
</style>
<script type="application/ecmascript"><![CDATA[
document.addEventListener('DOMContentLoaded', (event) => {
  highlightEdges();
  highlightAdjacentNodes();
});
]]></script>
</svg>
