<?xml version="1.0" encoding="UTF-8" standalone="no"?>
<!DOCTYPE svg PUBLIC "-//W3C//DTD SVG 1.1//EN"
 "http://www.w3.org/Graphics/SVG/1.1/DTD/svg11.dtd">
<!-- Generated by graphviz version 2.43.0 (0)
 -->
<!-- Title: src/wmtk/attribute/TypedAttributeHandle.hpp Pages: 1 -->
<svg width="523pt" height="203pt"
 viewBox="0.00 0.00 523.00 203.00" xmlns="http://www.w3.org/2000/svg" xmlns:xlink="http://www.w3.org/1999/xlink">
<g id="graph0" class="graph" transform="scale(1 1) rotate(0) translate(4 199)">
<title>src/wmtk/attribute/TypedAttributeHandle.hpp</title>
<!-- Node1 -->
<g id="Node000001" class="node">
<title>Node1</title>
<g id="a_Node000001"><a xlink:title=" ">
<polygon fill="#999999" stroke="#666666" points="391.5,-195 245.5,-195 245.5,-165 391.5,-165 391.5,-195"/>
<text text-anchor="start" x="253.5" y="-183" font-family="Helvetica,sans-Serif" font-size="10.00">src/wmtk/attribute</text>
<text text-anchor="middle" x="318.5" y="-172" font-family="Helvetica,sans-Serif" font-size="10.00">/TypedAttributeHandle.hpp</text>
</a>
</g>
</g>
<!-- Node2 -->
<g id="Node000002" class="node">
<title>Node2</title>
<g id="a_Node000002"><a xlink:href="_primitive_type_8hpp.html" target="_top" xlink:title=" ">
<polygon fill="white" stroke="#666666" points="428,-74 293,-74 293,-55 428,-55 428,-74"/>
<text text-anchor="middle" x="360.5" y="-62" font-family="Helvetica,sans-Serif" font-size="10.00">wmtk/PrimitiveType.hpp</text>
</a>
</g>
</g>
<!-- Node1&#45;&gt;Node2 -->
<g id="edge1_Node000001_Node000002" class="edge">
<title>Node1&#45;&gt;Node2</title>
<g id="a_edge1_Node000001_Node000002"><a xlink:title=" ">
<path fill="none" stroke="#63b8ff" d="M321.84,-164.75C325.34,-150.62 331.32,-128.48 338.5,-110 342.01,-100.96 346.69,-91.27 350.82,-83.25"/>
<polygon fill="#63b8ff" stroke="#63b8ff" points="354.05,-84.63 355.65,-74.16 347.87,-81.35 354.05,-84.63"/>
</a>
</g>
</g>
<!-- Node6 -->
<g id="Node000006" class="node">
<title>Node6</title>
<g id="a_Node000006"><a xlink:href="_rational_8hpp.html" target="_top" xlink:title=" ">
<polygon fill="white" stroke="#666666" points="249,-129 116,-129 116,-110 249,-110 249,-129"/>
<text text-anchor="middle" x="182.5" y="-117" font-family="Helvetica,sans-Serif" font-size="10.00">wmtk/utils/Rational.hpp</text>
</a>
</g>
</g>
<!-- Node1&#45;&gt;Node6 -->
<g id="edge5_Node000001_Node000006" class="edge">
<title>Node1&#45;&gt;Node6</title>
<g id="a_edge5_Node000001_Node000006"><a xlink:title=" ">
<path fill="none" stroke="#63b8ff" d="M285.92,-164.99C263.44,-155.31 233.78,-142.56 211.99,-133.18"/>
<polygon fill="#63b8ff" stroke="#63b8ff" points="213.15,-129.88 202.58,-129.14 210.39,-136.31 213.15,-129.88"/>
</a>
</g>
</g>
<!-- Node11 -->
<g id="Node000011" class="node">
<title>Node11</title>
<g id="a_Node000011"><a xlink:href="_attribute_handle_8hpp.html" target="_top" xlink:title=" ">
<polygon fill="white" stroke="#666666" points="462,-129 347,-129 347,-110 462,-110 462,-129"/>
<text text-anchor="middle" x="404.5" y="-117" font-family="Helvetica,sans-Serif" font-size="10.00">AttributeHandle.hpp</text>
</a>
</g>
</g>
<!-- Node1&#45;&gt;Node11 -->
<g id="edge10_Node000001_Node000011" class="edge">
<title>Node1&#45;&gt;Node11</title>
<g id="a_edge10_Node000001_Node000011"><a xlink:title=" ">
<path fill="none" stroke="#63b8ff" d="M339.32,-164.84C352.65,-155.77 369.89,-144.04 383.29,-134.92"/>
<polygon fill="#63b8ff" stroke="#63b8ff" points="385.57,-137.61 391.87,-129.09 381.63,-131.83 385.57,-137.61"/>
</a>
</g>
</g>
<!-- Node3 -->
<g id="Node000003" class="node">
<title>Node3</title>
<g id="a_Node000003"><a xlink:title=" ">
<polygon fill="#e0e0e0" stroke="#999999" points="306,-19 241,-19 241,0 306,0 306,-19"/>
<text text-anchor="middle" x="273.5" y="-7" font-family="Helvetica,sans-Serif" font-size="10.00">stdexcept</text>
</a>
</g>
</g>
<!-- Node2&#45;&gt;Node3 -->
<g id="edge2_Node000002_Node000003" class="edge">
<title>Node2&#45;&gt;Node3</title>
<g id="a_edge2_Node000002_Node000003"><a xlink:title=" ">
<path fill="none" stroke="#63b8ff" d="M346.52,-54.98C333.03,-46.77 312.37,-34.18 296.46,-24.49"/>
<polygon fill="#63b8ff" stroke="#63b8ff" points="298.09,-21.38 287.73,-19.17 294.45,-27.36 298.09,-21.38"/>
</a>
</g>
</g>
<!-- Node4 -->
<g id="Node000004" class="node">
<title>Node4</title>
<g id="a_Node000004"><a xlink:title=" ">
<polygon fill="#e0e0e0" stroke="#999999" points="397,-19 324,-19 324,0 397,0 397,-19"/>
<text text-anchor="middle" x="360.5" y="-7" font-family="Helvetica,sans-Serif" font-size="10.00">string_view</text>
</a>
</g>
</g>
<!-- Node2&#45;&gt;Node4 -->
<g id="edge3_Node000002_Node000004" class="edge">
<title>Node2&#45;&gt;Node4</title>
<g id="a_edge3_Node000002_Node000004"><a xlink:title=" ">
<path fill="none" stroke="#63b8ff" d="M360.5,-54.75C360.5,-47.8 360.5,-37.85 360.5,-29.13"/>
<polygon fill="#63b8ff" stroke="#63b8ff" points="364,-29.09 360.5,-19.09 357,-29.09 364,-29.09"/>
</a>
</g>
</g>
<!-- Node5 -->
<g id="Node000005" class="node">
<title>Node5</title>
<g id="a_Node000005"><a xlink:title=" ">
<polygon fill="#e0e0e0" stroke="#999999" points="462,-19 415,-19 415,0 462,0 462,-19"/>
<text text-anchor="middle" x="438.5" y="-7" font-family="Helvetica,sans-Serif" font-size="10.00">vector</text>
</a>
</g>
</g>
<!-- Node2&#45;&gt;Node5 -->
<g id="edge4_Node000002_Node000005" class="edge">
<title>Node2&#45;&gt;Node5</title>
<g id="a_edge4_Node000002_Node000005"><a xlink:title=" ">
<path fill="none" stroke="#63b8ff" d="M373.03,-54.98C384.9,-46.92 402.96,-34.65 417.11,-25.03"/>
<polygon fill="#63b8ff" stroke="#63b8ff" points="419.44,-27.69 425.74,-19.17 415.5,-21.9 419.44,-27.69"/>
</a>
</g>
</g>
<!-- Node7 -->
<g id="Node000007" class="node">
<title>Node7</title>
<g id="a_Node000007"><a xlink:title=" ">
<polygon fill="#e0e0e0" stroke="#999999" points="69,-74 0,-74 0,-55 69,-55 69,-74"/>
<text text-anchor="middle" x="34.5" y="-62" font-family="Helvetica,sans-Serif" font-size="10.00">Eigen/Core</text>
</a>
</g>
</g>
<!-- Node6&#45;&gt;Node7 -->
<g id="edge6_Node000006_Node000007" class="edge">
<title>Node6&#45;&gt;Node7</title>
<g id="a_edge6_Node000006_Node000007"><a xlink:title=" ">
<path fill="none" stroke="#63b8ff" d="M158.72,-109.98C134.27,-101.23 95.97,-87.51 68.35,-77.62"/>
<polygon fill="#63b8ff" stroke="#63b8ff" points="69.31,-74.25 58.71,-74.17 66.95,-80.84 69.31,-74.25"/>
</a>
</g>
</g>
<!-- Node8 -->
<g id="Node000008" class="node">
<title>Node8</title>
<g id="a_Node000008"><a xlink:title=" ">
<polygon fill="#e0e0e0" stroke="#999999" points="134,-74 87,-74 87,-55 134,-55 134,-74"/>
<text text-anchor="middle" x="110.5" y="-62" font-family="Helvetica,sans-Serif" font-size="10.00">gmp.h</text>
</a>
</g>
</g>
<!-- Node6&#45;&gt;Node8 -->
<g id="edge7_Node000006_Node000008" class="edge">
<title>Node6&#45;&gt;Node8</title>
<g id="a_edge7_Node000006_Node000008"><a xlink:title=" ">
<path fill="none" stroke="#63b8ff" d="M170.93,-109.98C160.08,-102 143.62,-89.88 130.62,-80.31"/>
<polygon fill="#63b8ff" stroke="#63b8ff" points="132.41,-77.28 122.28,-74.17 128.26,-82.92 132.41,-77.28"/>
</a>
</g>
</g>
<!-- Node9 -->
<g id="Node000009" class="node">
<title>Node9</title>
<g id="a_Node000009"><a xlink:title=" ">
<polygon fill="#e0e0e0" stroke="#999999" points="212.5,-74 152.5,-74 152.5,-55 212.5,-55 212.5,-74"/>
<text text-anchor="middle" x="182.5" y="-62" font-family="Helvetica,sans-Serif" font-size="10.00">iostream</text>
</a>
</g>
</g>
<!-- Node6&#45;&gt;Node9 -->
<g id="edge8_Node000006_Node000009" class="edge">
<title>Node6&#45;&gt;Node9</title>
<g id="a_edge8_Node000006_Node000009"><a xlink:title=" ">
<path fill="none" stroke="#63b8ff" d="M182.5,-109.75C182.5,-102.8 182.5,-92.85 182.5,-84.13"/>
<polygon fill="#63b8ff" stroke="#63b8ff" points="186,-84.09 182.5,-74.09 179,-84.09 186,-84.09"/>
</a>
</g>
</g>
<!-- Node10 -->
<g id="Node000010" class="node">
<title>Node10</title>
<g id="a_Node000010"><a xlink:title=" ">
<polygon fill="#e0e0e0" stroke="#999999" points="274.5,-74 230.5,-74 230.5,-55 274.5,-55 274.5,-74"/>
<text text-anchor="middle" x="252.5" y="-62" font-family="Helvetica,sans-Serif" font-size="10.00">string</text>
</a>
</g>
</g>
<!-- Node6&#45;&gt;Node10 -->
<g id="edge9_Node000006_Node000010" class="edge">
<title>Node6&#45;&gt;Node10</title>
<g id="a_edge9_Node000006_Node000010"><a xlink:title=" ">
<path fill="none" stroke="#63b8ff" d="M193.75,-109.98C204.3,-102 220.3,-89.88 232.94,-80.31"/>
<polygon fill="#63b8ff" stroke="#63b8ff" points="235.19,-83 241.05,-74.17 230.96,-77.42 235.19,-83"/>
</a>
</g>
</g>
<!-- Node11&#45;&gt;Node2 -->
<g id="edge12_Node000011_Node000002" class="edge">
<title>Node11&#45;&gt;Node2</title>
<g id="a_edge12_Node000011_Node000002"><a xlink:title=" ">
<path fill="none" stroke="#63b8ff" d="M397.23,-109.75C390.96,-102.18 381.71,-91.05 374.07,-81.84"/>
<polygon fill="#63b8ff" stroke="#63b8ff" points="376.71,-79.55 367.63,-74.09 371.33,-84.02 376.71,-79.55"/>
</a>
</g>
</g>
<!-- Node12 -->
<g id="Node000012" class="node">
<title>Node12</title>
<g id="a_Node000012"><a xlink:title=" ">
<polygon fill="#e0e0e0" stroke="#999999" points="515,-74 446,-74 446,-55 515,-55 515,-74"/>
<text text-anchor="middle" x="480.5" y="-62" font-family="Helvetica,sans-Serif" font-size="10.00">type_traits</text>
</a>
</g>
</g>
<!-- Node11&#45;&gt;Node12 -->
<g id="edge11_Node000011_Node000012" class="edge">
<title>Node11&#45;&gt;Node12</title>
<g id="a_edge11_Node000011_Node000012"><a xlink:title=" ">
<path fill="none" stroke="#63b8ff" d="M416.71,-109.98C428.28,-101.92 445.88,-89.65 459.66,-80.03"/>
<polygon fill="#63b8ff" stroke="#63b8ff" points="461.87,-82.76 468.07,-74.17 457.86,-77.02 461.87,-82.76"/>
</a>
</g>
</g>
</g>
</svg>
