<?xml version="1.0" encoding="UTF-8" standalone="no"?>
<!DOCTYPE svg PUBLIC "-//W3C//DTD SVG 1.1//EN"
 "http://www.w3.org/Graphics/SVG/1.1/DTD/svg11.dtd">
<!-- Generated by graphviz version 2.43.0 (0)
 -->
<!-- Title: wmtk::TetMesh::is_boundary Pages: 1 -->
<svg width="1747pt" height="527pt"
 viewBox="0.00 0.00 1747.00 527.00" xmlns="http://www.w3.org/2000/svg" xmlns:xlink="http://www.w3.org/1999/xlink">
<g id="graph0" class="graph" transform="scale(1 1) rotate(0) translate(4 523)">
<title>wmtk::TetMesh::is_boundary</title>
<!-- Node1 -->
<g id="Node000001" class="node">
<title>Node1</title>
<g id="a_Node000001"><a xlink:title="returns if a simplex is on the boundary of hte mesh. For anything but dimension &#45; 1 this checks if th...">
<polygon fill="#999999" stroke="#666666" points="156,-294.5 0,-294.5 0,-275.5 156,-275.5 156,-294.5"/>
<text text-anchor="middle" x="78" y="-282.5" font-family="Helvetica,sans-Serif" font-size="10.00">wmtk::TetMesh::is_boundary</text>
</a>
</g>
</g>
<!-- Node2 -->
<g id="Node000002" class="node">
<title>Node2</title>
<g id="a_Node000002"><a xlink:href="classwmtk_1_1_tet_mesh.html#a5eb060aa0a69f3ce5108fe199decc578" target="_top" xlink:title=" ">
<polygon fill="white" stroke="#666666" points="377,-326.5 192,-326.5 192,-307.5 377,-307.5 377,-326.5"/>
<text text-anchor="middle" x="284.5" y="-314.5" font-family="Helvetica,sans-Serif" font-size="10.00">wmtk::TetMesh::is_boundary_edge</text>
</a>
</g>
</g>
<!-- Node1&#45;&gt;Node2 -->
<g id="edge1_Node000001_Node000002" class="edge">
<title>Node1&#45;&gt;Node2</title>
<g id="a_edge1_Node000001_Node000002"><a xlink:title=" ">
<path fill="none" stroke="#63b8ff" d="M139.8,-294.51C162.67,-298.09 188.87,-302.19 212.59,-305.9"/>
<polygon fill="#63b8ff" stroke="#63b8ff" points="212.16,-309.38 222.58,-307.47 213.24,-302.46 212.16,-309.38"/>
</a>
</g>
</g>
<!-- Node19 -->
<g id="Node000019" class="node">
<title>Node19</title>
<g id="a_Node000019"><a xlink:href="classwmtk_1_1_tet_mesh.html#af4002e7a36e20373deb54576caffa682" target="_top" xlink:title=" ">
<polygon fill="white" stroke="#666666" points="595,-379.5 413,-379.5 413,-360.5 595,-360.5 595,-379.5"/>
<text text-anchor="middle" x="504" y="-367.5" font-family="Helvetica,sans-Serif" font-size="10.00">wmtk::TetMesh::is_boundary_face</text>
</a>
</g>
</g>
<!-- Node1&#45;&gt;Node19 -->
<g id="edge22_Node000001_Node000019" class="edge">
<title>Node1&#45;&gt;Node19</title>
<g id="a_edge22_Node000001_Node000019"><a xlink:title=" ">
<path fill="none" stroke="#63b8ff" d="M96.01,-294.5C117.62,-306.1 156.38,-325.36 192,-335 260.93,-353.66 341.06,-362.38 402.72,-366.46"/>
<polygon fill="#63b8ff" stroke="#63b8ff" points="402.64,-369.96 412.84,-367.09 403.08,-362.97 402.64,-369.96"/>
</a>
</g>
</g>
<!-- Node21 -->
<g id="Node000021" class="node">
<title>Node21</title>
<g id="a_Node000021"><a xlink:href="classwmtk_1_1_tet_mesh.html#a31b2ec618edb4d478e36f0868a85d86e" target="_top" xlink:title=" ">
<polygon fill="white" stroke="#666666" points="362.5,-279 206.5,-279 206.5,-249 362.5,-249 362.5,-279"/>
<text text-anchor="start" x="214.5" y="-267" font-family="Helvetica,sans-Serif" font-size="10.00">wmtk::TetMesh::is_boundary</text>
<text text-anchor="middle" x="284.5" y="-256" font-family="Helvetica,sans-Serif" font-size="10.00">_vertex</text>
</a>
</g>
</g>
<!-- Node1&#45;&gt;Node21 -->
<g id="edge23_Node000001_Node000021" class="edge">
<title>Node1&#45;&gt;Node21</title>
<g id="a_edge23_Node000001_Node000021"><a xlink:title=" ">
<path fill="none" stroke="#63b8ff" d="M118.43,-275.49C140.56,-272.17 169.09,-268.83 196.2,-266.28"/>
<polygon fill="#63b8ff" stroke="#63b8ff" points="196.85,-269.73 206.5,-265.34 196.22,-262.76 196.85,-269.73"/>
</a>
</g>
</g>
<!-- Node3 -->
<g id="Node000003" class="node">
<title>Node3</title>
<g id="a_Node000003"><a xlink:href="namespacewmtk_1_1simplex.html#abee08ace6632fab4e958282840e65e43" target="_top" xlink:title=" ">
<polygon fill="white" stroke="#666666" points="575.5,-342 432.5,-342 432.5,-312 575.5,-312 575.5,-342"/>
<text text-anchor="start" x="440.5" y="-330" font-family="Helvetica,sans-Serif" font-size="10.00">wmtk::simplex::cofaces</text>
<text text-anchor="middle" x="504" y="-319" font-family="Helvetica,sans-Serif" font-size="10.00">_single_dimension_tuples</text>
</a>
</g>
</g>
<!-- Node2&#45;&gt;Node3 -->
<g id="edge2_Node000002_Node000003" class="edge">
<title>Node2&#45;&gt;Node3</title>
<g id="a_edge2_Node000002_Node000003"><a xlink:title=" ">
<path fill="none" stroke="#63b8ff" d="M377.11,-321.21C392.11,-321.9 407.55,-322.61 422.26,-323.29"/>
<polygon fill="#63b8ff" stroke="#63b8ff" points="422.16,-326.79 432.31,-323.75 422.49,-319.79 422.16,-326.79"/>
</a>
</g>
</g>
<!-- Node17 -->
<g id="Node000017" class="node">
<title>Node17</title>
<g id="a_Node000017"><a xlink:href="classwmtk_1_1simplex_1_1_simplex.html#a753a9245716f207b57cd92fcab5936e7" target="_top" xlink:title=" ">
<polygon fill="white" stroke="#666666" points="571.5,-231 436.5,-231 436.5,-201 571.5,-201 571.5,-231"/>
<text text-anchor="start" x="444.5" y="-219" font-family="Helvetica,sans-Serif" font-size="10.00">wmtk::simplex::Simplex</text>
<text text-anchor="middle" x="504" y="-208" font-family="Helvetica,sans-Serif" font-size="10.00">::edge</text>
</a>
</g>
</g>
<!-- Node2&#45;&gt;Node17 -->
<g id="edge18_Node000002_Node000017" class="edge">
<title>Node2&#45;&gt;Node17</title>
<g id="a_edge18_Node000002_Node000017"><a xlink:title=" ">
<path fill="none" stroke="#63b8ff" d="M332.95,-307.47C347.86,-303.08 363.85,-296.81 377,-288 397.71,-274.13 392.33,-258.92 413,-245 418.58,-241.24 424.68,-237.94 430.99,-235.05"/>
<polygon fill="#63b8ff" stroke="#63b8ff" points="432.5,-238.22 440.35,-231.11 429.78,-231.77 432.5,-238.22"/>
</a>
</g>
</g>
<!-- Node2&#45;&gt;Node19 -->
<g id="edge20_Node000002_Node000019" class="edge">
<title>Node2&#45;&gt;Node19</title>
<g id="a_edge20_Node000002_Node000019"><a xlink:title=" ">
<path fill="none" stroke="#63b8ff" d="M319.2,-326.5C344.83,-333.61 381.02,-343.37 413,-351 423.47,-353.5 434.66,-356 445.47,-358.32"/>
<polygon fill="#63b8ff" stroke="#63b8ff" points="444.74,-361.75 455.25,-360.41 446.2,-354.9 444.74,-361.75"/>
</a>
</g>
</g>
<!-- Node4 -->
<g id="Node000004" class="node">
<title>Node4</title>
<g id="a_Node000004"><a xlink:href="namespacewmtk_1_1utils.html#aad86a1efd04407e94f9bd5f92b3ed5d0" target="_top" xlink:title=" ">
<polygon fill="white" stroke="#666666" points="777,-471 655,-471 655,-441 777,-441 777,-471"/>
<text text-anchor="start" x="663" y="-459" font-family="Helvetica,sans-Serif" font-size="10.00">wmtk::utils::primitive</text>
<text text-anchor="middle" x="716" y="-448" font-family="Helvetica,sans-Serif" font-size="10.00">_range</text>
</a>
</g>
</g>
<!-- Node3&#45;&gt;Node4 -->
<g id="edge3_Node000003_Node000004" class="edge">
<title>Node3&#45;&gt;Node4</title>
<g id="a_edge3_Node000003_Node000004"><a xlink:title=" ">
<path fill="none" stroke="#63b8ff" d="M575.79,-339.34C582.72,-342.41 589.28,-346.24 595,-351 623.72,-374.92 603.16,-402.06 631,-427 635.42,-430.96 640.4,-434.38 645.68,-437.34"/>
<polygon fill="#63b8ff" stroke="#63b8ff" points="644.3,-440.56 654.81,-441.89 647.42,-434.29 644.3,-440.56"/>
</a>
</g>
</g>
<!-- Node8 -->
<g id="Node000008" class="node">
<title>Node8</title>
<g id="a_Node000008"><a xlink:href="classwmtk_1_1simplex_1_1_simplex.html#ad2cc0340a0772b7d6f03ba7a781d1163" target="_top" xlink:title=" ">
<polygon fill="white" stroke="#666666" points="1448.5,-401 1313.5,-401 1313.5,-371 1448.5,-371 1448.5,-401"/>
<text text-anchor="start" x="1321.5" y="-389" font-family="Helvetica,sans-Serif" font-size="10.00">wmtk::simplex::Simplex</text>
<text text-anchor="middle" x="1381" y="-378" font-family="Helvetica,sans-Serif" font-size="10.00">::primitive_type</text>
</a>
</g>
</g>
<!-- Node3&#45;&gt;Node8 -->
<g id="edge8_Node000003_Node000008" class="edge">
<title>Node3&#45;&gt;Node8</title>
<g id="a_edge8_Node000003_Node000008"><a xlink:title=" ">
<path fill="none" stroke="#63b8ff" d="M575.59,-341.25C582.4,-343.96 589,-347.18 595,-351 616.02,-364.39 608.42,-383.45 631,-394 748.36,-448.8 1136.6,-413.47 1303.09,-395.1"/>
<polygon fill="#63b8ff" stroke="#63b8ff" points="1303.7,-398.55 1313.25,-393.97 1302.92,-391.6 1303.7,-398.55"/>
</a>
</g>
</g>
<!-- Node9 -->
<g id="Node000009" class="node">
<title>Node9</title>
<g id="a_Node000009"><a xlink:href="namespacewmtk_1_1simplex.html#a0101f27eb2ad82814390b92ab1a4d1a0" target="_top" xlink:title=" ">
<polygon fill="white" stroke="#666666" points="1224.5,-327 1073.5,-327 1073.5,-297 1224.5,-297 1224.5,-327"/>
<text text-anchor="start" x="1081.5" y="-315" font-family="Helvetica,sans-Serif" font-size="10.00">wmtk::simplex::top</text>
<text text-anchor="middle" x="1149" y="-304" font-family="Helvetica,sans-Serif" font-size="10.00">_dimension_cofaces_tuples</text>
</a>
</g>
</g>
<!-- Node3&#45;&gt;Node9 -->
<g id="edge9_Node000003_Node000009" class="edge">
<title>Node3&#45;&gt;Node9</title>
<g id="a_edge9_Node000003_Node000009"><a xlink:title=" ">
<path fill="none" stroke="#63b8ff" d="M575.53,-325.37C674.89,-323.07 861.77,-318.73 1021,-315 1034.66,-314.68 1049.15,-314.34 1063.26,-314.01"/>
<polygon fill="#63b8ff" stroke="#63b8ff" points="1063.54,-317.5 1073.46,-313.77 1063.38,-310.5 1063.54,-317.5"/>
</a>
</g>
</g>
<!-- Node14 -->
<g id="Node000014" class="node">
<title>Node14</title>
<g id="a_Node000014"><a xlink:href="classwmtk_1_1_mesh.html#abaf00438d0700358b160e310d69725c9" target="_top" xlink:title=" ">
<polygon fill="white" stroke="#666666" points="801,-298.5 631,-298.5 631,-279.5 801,-279.5 801,-298.5"/>
<text text-anchor="middle" x="716" y="-286.5" font-family="Helvetica,sans-Serif" font-size="10.00">wmtk::Mesh::top_simplex_type</text>
</a>
</g>
</g>
<!-- Node3&#45;&gt;Node14 -->
<g id="edge15_Node000003_Node000014" class="edge">
<title>Node3&#45;&gt;Node14</title>
<g id="a_edge15_Node000003_Node000014"><a xlink:title=" ">
<path fill="none" stroke="#63b8ff" d="M575.51,-314.24C600.33,-309.75 628.03,-304.74 652.17,-300.37"/>
<polygon fill="#63b8ff" stroke="#63b8ff" points="653.06,-303.77 662.28,-298.54 651.81,-296.88 653.06,-303.77"/>
</a>
</g>
</g>
<!-- Node16 -->
<g id="Node000016" class="node">
<title>Node16</title>
<g id="a_Node000016"><a xlink:href="classwmtk_1_1simplex_1_1_simplex.html#aca78b1fb0a3c28c0036cf7919bfb0789" target="_top" xlink:title=" ">
<polygon fill="white" stroke="#666666" points="783.5,-385 648.5,-385 648.5,-355 783.5,-355 783.5,-385"/>
<text text-anchor="start" x="656.5" y="-373" font-family="Helvetica,sans-Serif" font-size="10.00">wmtk::simplex::Simplex</text>
<text text-anchor="middle" x="716" y="-362" font-family="Helvetica,sans-Serif" font-size="10.00">::tuple</text>
</a>
</g>
</g>
<!-- Node3&#45;&gt;Node16 -->
<g id="edge17_Node000003_Node000016" class="edge">
<title>Node3&#45;&gt;Node16</title>
<g id="a_edge17_Node000003_Node000016"><a xlink:title=" ">
<path fill="none" stroke="#63b8ff" d="M575.51,-341.44C595.68,-345.57 617.77,-350.09 638.29,-354.29"/>
<polygon fill="#63b8ff" stroke="#63b8ff" points="637.73,-357.75 648.23,-356.33 639.13,-350.89 637.73,-357.75"/>
</a>
</g>
</g>
<!-- Node5 -->
<g id="Node000005" class="node">
<title>Node5</title>
<g id="a_Node000005"><a xlink:href="namespacewmtk_1_1utils.html#a8dab5bd8df4c7c658413914f37210244" target="_top" xlink:title=" ">
<polygon fill="white" stroke="#666666" points="990,-471 868,-471 868,-441 990,-441 990,-471"/>
<text text-anchor="start" x="876" y="-459" font-family="Helvetica,sans-Serif" font-size="10.00">wmtk::utils::primitive</text>
<text text-anchor="middle" x="929" y="-448" font-family="Helvetica,sans-Serif" font-size="10.00">_range</text>
</a>
</g>
</g>
<!-- Node4&#45;&gt;Node5 -->
<g id="edge4_Node000004_Node000005" class="edge">
<title>Node4&#45;&gt;Node5</title>
<g id="a_edge4_Node000004_Node000005"><a xlink:title=" ">
<path fill="none" stroke="#63b8ff" d="M777.18,-456C802.24,-456 831.5,-456 857.55,-456"/>
<polygon fill="#63b8ff" stroke="#63b8ff" points="857.74,-459.5 867.74,-456 857.74,-452.5 857.74,-459.5"/>
</a>
</g>
</g>
<!-- Node5&#45;&gt;Node5 -->
<g id="edge7_Node000005_Node000005" class="edge">
<title>Node5&#45;&gt;Node5</title>
<g id="a_edge7_Node000005_Node000005"><a xlink:title=" ">
<path fill="none" stroke="#63b8ff" d="M891.73,-471.28C883.45,-480.41 895.88,-489 929,-489 948.67,-489 961.04,-485.97 966.11,-481.6"/>
<polygon fill="#63b8ff" stroke="#63b8ff" points="969.61,-481.33 966.27,-471.28 962.61,-481.22 969.61,-481.33"/>
</a>
</g>
</g>
<!-- Node6 -->
<g id="Node000006" class="node">
<title>Node6</title>
<g id="a_Node000006"><a xlink:href="namespacewmtk.html#a3b08a5d7fb42f02c54bae85758b39f59" target="_top" xlink:title="Get the primitive type corresponding to its unique integer id.">
<polygon fill="white" stroke="#666666" points="1207,-471 1091,-471 1091,-441 1207,-441 1207,-471"/>
<text text-anchor="start" x="1099" y="-459" font-family="Helvetica,sans-Serif" font-size="10.00">wmtk::get_primitive</text>
<text text-anchor="middle" x="1149" y="-448" font-family="Helvetica,sans-Serif" font-size="10.00">_type_from_id</text>
</a>
</g>
</g>
<!-- Node5&#45;&gt;Node6 -->
<g id="edge5_Node000005_Node000006" class="edge">
<title>Node5&#45;&gt;Node6</title>
<g id="a_edge5_Node000005_Node000006"><a xlink:title=" ">
<path fill="none" stroke="#63b8ff" d="M990.15,-456C1018.22,-456 1051.74,-456 1080.66,-456"/>
<polygon fill="#63b8ff" stroke="#63b8ff" points="1080.68,-459.5 1090.68,-456 1080.68,-452.5 1080.68,-459.5"/>
</a>
</g>
</g>
<!-- Node7 -->
<g id="Node000007" class="node">
<title>Node7</title>
<g id="a_Node000007"><a xlink:href="namespacewmtk.html#a5cf45c152e856196bb734c6f48919a24" target="_top" xlink:title="Get a unique integer id corresponding to each primitive type.">
<polygon fill="white" stroke="#666666" points="1207,-519 1091,-519 1091,-489 1207,-489 1207,-519"/>
<text text-anchor="start" x="1099" y="-507" font-family="Helvetica,sans-Serif" font-size="10.00">wmtk::get_primitive</text>
<text text-anchor="middle" x="1149" y="-496" font-family="Helvetica,sans-Serif" font-size="10.00">_type_id</text>
</a>
</g>
</g>
<!-- Node5&#45;&gt;Node7 -->
<g id="edge6_Node000005_Node000007" class="edge">
<title>Node5&#45;&gt;Node7</title>
<g id="a_edge6_Node000005_Node000007"><a xlink:title=" ">
<path fill="none" stroke="#63b8ff" d="M990.15,-469.24C1018.22,-475.42 1051.74,-482.81 1080.66,-489.17"/>
<polygon fill="#63b8ff" stroke="#63b8ff" points="1080.16,-492.65 1090.68,-491.38 1081.66,-485.81 1080.16,-492.65"/>
</a>
</g>
</g>
<!-- Node9&#45;&gt;Node8 -->
<g id="edge14_Node000009_Node000008" class="edge">
<title>Node9&#45;&gt;Node8</title>
<g id="a_edge14_Node000009_Node000008"><a xlink:title=" ">
<path fill="none" stroke="#63b8ff" d="M1196.82,-327.06C1233.51,-338.87 1284.69,-355.33 1323.62,-367.86"/>
<polygon fill="#63b8ff" stroke="#63b8ff" points="1322.65,-371.23 1333.24,-370.96 1324.8,-364.56 1322.65,-371.23"/>
</a>
</g>
</g>
<!-- Node10 -->
<g id="Node000010" class="node">
<title>Node10</title>
<g id="a_Node000010"><a xlink:href="classwmtk_1_1simplex_1_1_simplex_collection.html#a1e7079b3b75f70dd28c524556cab76cf" target="_top" xlink:title="Add simplex to the collection.">
<polygon fill="white" stroke="#666666" points="1485,-268.5 1277,-268.5 1277,-249.5 1485,-249.5 1485,-268.5"/>
<text text-anchor="middle" x="1381" y="-256.5" font-family="Helvetica,sans-Serif" font-size="10.00">wmtk::simplex::SimplexCollection::add</text>
</a>
</g>
</g>
<!-- Node9&#45;&gt;Node10 -->
<g id="edge10_Node000009_Node000010" class="edge">
<title>Node9&#45;&gt;Node10</title>
<g id="a_edge10_Node000009_Node000010"><a xlink:title=" ">
<path fill="none" stroke="#63b8ff" d="M1215.29,-296.95C1251.16,-288.69 1295.01,-278.58 1328.45,-270.88"/>
<polygon fill="#63b8ff" stroke="#63b8ff" points="1329.51,-274.23 1338.47,-268.57 1327.94,-267.4 1329.51,-274.23"/>
</a>
</g>
</g>
<!-- Node11 -->
<g id="Node000011" class="node">
<title>Node11</title>
<g id="a_Node000011"><a xlink:href="namespacewmtk.html#a441d6ad4f19569c7d4946e743da1a925" target="_top" xlink:title=" ">
<polygon fill="white" stroke="#666666" points="1442,-327 1320,-327 1320,-297 1442,-297 1442,-327"/>
<text text-anchor="start" x="1328" y="-315" font-family="Helvetica,sans-Serif" font-size="10.00">wmtk::log_and_throw</text>
<text text-anchor="middle" x="1381" y="-304" font-family="Helvetica,sans-Serif" font-size="10.00">_error</text>
</a>
</g>
</g>
<!-- Node9&#45;&gt;Node11 -->
<g id="edge11_Node000009_Node000011" class="edge">
<title>Node9&#45;&gt;Node11</title>
<g id="a_edge11_Node000009_Node000011"><a xlink:title=" ">
<path fill="none" stroke="#63b8ff" d="M1224.67,-312C1252.01,-312 1282.82,-312 1309.75,-312"/>
<polygon fill="#63b8ff" stroke="#63b8ff" points="1309.87,-315.5 1319.87,-312 1309.87,-308.5 1309.87,-315.5"/>
</a>
</g>
</g>
<!-- Node12 -->
<g id="Node000012" class="node">
<title>Node12</title>
<g id="a_Node000012"><a xlink:href="namespacewmtk.html#a6a35f11c12436093d26fdd8be6fecc06" target="_top" xlink:title="Retrieves the current logger.">
<polygon fill="white" stroke="#666666" points="1602,-321.5 1521,-321.5 1521,-302.5 1602,-302.5 1602,-321.5"/>
<text text-anchor="middle" x="1561.5" y="-309.5" font-family="Helvetica,sans-Serif" font-size="10.00">wmtk::logger</text>
</a>
</g>
</g>
<!-- Node11&#45;&gt;Node12 -->
<g id="edge12_Node000011_Node000012" class="edge">
<title>Node11&#45;&gt;Node12</title>
<g id="a_edge12_Node000011_Node000012"><a xlink:title=" ">
<path fill="none" stroke="#63b8ff" d="M1442.43,-312C1464.68,-312 1489.61,-312 1510.81,-312"/>
<polygon fill="#63b8ff" stroke="#63b8ff" points="1510.89,-315.5 1520.89,-312 1510.89,-308.5 1510.89,-315.5"/>
</a>
</g>
</g>
<!-- Node13 -->
<g id="Node000013" class="node">
<title>Node13</title>
<g id="a_Node000013"><a xlink:href="namespacewmtk.html#a3daa7951a5f8b78cf4600dc047fcc180" target="_top" xlink:title="Setup a logger object to be used by WildmeshToolkit.">
<polygon fill="white" stroke="#666666" points="1739,-321.5 1638,-321.5 1638,-302.5 1739,-302.5 1739,-321.5"/>
<text text-anchor="middle" x="1688.5" y="-309.5" font-family="Helvetica,sans-Serif" font-size="10.00">wmtk::set_logger</text>
</a>
</g>
</g>
<!-- Node12&#45;&gt;Node13 -->
<g id="edge13_Node000012_Node000013" class="edge">
<title>Node12&#45;&gt;Node13</title>
<g id="a_edge13_Node000012_Node000013"><a xlink:title=" ">
<path fill="none" stroke="#63b8ff" d="M1602.05,-312C1610.17,-312 1618.9,-312 1627.55,-312"/>
<polygon fill="#63b8ff" stroke="#63b8ff" points="1627.65,-315.5 1637.65,-312 1627.65,-308.5 1627.65,-315.5"/>
</a>
</g>
</g>
<!-- Node15 -->
<g id="Node000015" class="node">
<title>Node15</title>
<g id="a_Node000015"><a xlink:href="classwmtk_1_1_mesh.html#a933f681cf24a63b155c9462280385200" target="_top" xlink:title=" ">
<polygon fill="white" stroke="#666666" points="989.5,-306 868.5,-306 868.5,-276 989.5,-276 989.5,-306"/>
<text text-anchor="start" x="876.5" y="-294" font-family="Helvetica,sans-Serif" font-size="10.00">wmtk::Mesh::top_cell</text>
<text text-anchor="middle" x="929" y="-283" font-family="Helvetica,sans-Serif" font-size="10.00">_dimension</text>
</a>
</g>
</g>
<!-- Node14&#45;&gt;Node15 -->
<g id="edge16_Node000014_Node000015" class="edge">
<title>Node14&#45;&gt;Node15</title>
<g id="a_edge16_Node000014_Node000015"><a xlink:title=" ">
<path fill="none" stroke="#63b8ff" d="M801.3,-289.8C820.2,-289.98 840.04,-290.17 858.27,-290.34"/>
<polygon fill="#63b8ff" stroke="#63b8ff" points="858.47,-293.84 868.5,-290.44 858.53,-286.84 858.47,-293.84"/>
</a>
</g>
</g>
<!-- Node18 -->
<g id="Node000018" class="node">
<title>Node18</title>
<g id="a_Node000018"><a xlink:href="classwmtk_1_1simplex_1_1_simplex.html#ab6d51ca0c220792c1c09824d152bb53a" target="_top" xlink:title=" ">
<polygon fill="white" stroke="#666666" points="783.5,-172 648.5,-172 648.5,-142 783.5,-142 783.5,-172"/>
<text text-anchor="start" x="656.5" y="-160" font-family="Helvetica,sans-Serif" font-size="10.00">wmtk::simplex::Simplex</text>
<text text-anchor="middle" x="716" y="-149" font-family="Helvetica,sans-Serif" font-size="10.00">::Simplex</text>
</a>
</g>
</g>
<!-- Node17&#45;&gt;Node18 -->
<g id="edge19_Node000017_Node000018" class="edge">
<title>Node17&#45;&gt;Node18</title>
<g id="a_edge19_Node000017_Node000018"><a xlink:title=" ">
<path fill="none" stroke="#63b8ff" d="M558.54,-200.96C586.92,-192.98 621.97,-183.14 651.7,-174.78"/>
<polygon fill="#63b8ff" stroke="#63b8ff" points="652.88,-178.09 661.56,-172.01 650.99,-171.35 652.88,-178.09"/>
</a>
</g>
</g>
<!-- Node20 -->
<g id="Node000020" class="node">
<title>Node20</title>
<g id="a_Node000020"><a xlink:href="classwmtk_1_1attribute_1_1_accessor.html#a4b89ff4381fe73d4827b663203a964fc" target="_top" xlink:title=" ">
<polygon fill="white" stroke="#666666" points="787,-519 645,-519 645,-489 787,-489 787,-519"/>
<text text-anchor="start" x="653" y="-507" font-family="Helvetica,sans-Serif" font-size="10.00">wmtk::attribute::Accessor</text>
<text text-anchor="middle" x="716" y="-496" font-family="Helvetica,sans-Serif" font-size="10.00">::const_vector_attribute</text>
</a>
</g>
</g>
<!-- Node19&#45;&gt;Node20 -->
<g id="edge21_Node000019_Node000020" class="edge">
<title>Node19&#45;&gt;Node20</title>
<g id="a_edge21_Node000019_Node000020"><a xlink:title=" ">
<path fill="none" stroke="#63b8ff" d="M513.13,-379.51C531.77,-400.72 579.98,-452.26 631,-480 634.42,-481.86 638.01,-483.59 641.69,-485.2"/>
<polygon fill="#63b8ff" stroke="#63b8ff" points="640.39,-488.45 650.98,-488.94 643.01,-481.96 640.39,-488.45"/>
</a>
</g>
</g>
<!-- Node21&#45;&gt;Node1 -->
<g id="edge24_Node000021_Node000001" class="edge">
<title>Node21&#45;&gt;Node1</title>
<g id="a_edge24_Node000021_Node000001"><a xlink:title=" ">
<path fill="none" stroke="#63b8ff" d="M206.21,-278.51C193.12,-280.04 179.45,-281.49 166.12,-282.74"/>
<polygon fill="#63b8ff" stroke="#63b8ff" points="165.66,-279.26 156.02,-283.65 166.3,-286.24 165.66,-279.26"/>
</a>
</g>
</g>
<!-- Node22 -->
<g id="Node000022" class="node">
<title>Node22</title>
<g id="a_Node000022"><a xlink:href="namespacewmtk_1_1simplex.html#a0e571467fb4068842d9c1a38a433f1ed" target="_top" xlink:title=" ">
<polygon fill="white" stroke="#666666" points="575.5,-273.5 432.5,-273.5 432.5,-254.5 575.5,-254.5 575.5,-273.5"/>
<text text-anchor="middle" x="504" y="-261.5" font-family="Helvetica,sans-Serif" font-size="10.00">wmtk::simplex::open_star</text>
</a>
</g>
</g>
<!-- Node21&#45;&gt;Node22 -->
<g id="edge25_Node000021_Node000022" class="edge">
<title>Node21&#45;&gt;Node22</title>
<g id="a_edge25_Node000021_Node000022"><a xlink:title=" ">
<path fill="none" stroke="#63b8ff" d="M362.79,-264C382.13,-264 402.93,-264 422.42,-264"/>
<polygon fill="#63b8ff" stroke="#63b8ff" points="422.48,-267.5 432.48,-264 422.48,-260.5 422.48,-267.5"/>
</a>
</g>
</g>
<!-- Node26 -->
<g id="Node000026" class="node">
<title>Node26</title>
<g id="a_Node000026"><a xlink:href="classwmtk_1_1simplex_1_1_simplex_collection.html#a3c5684abe23553010bb7f87840e9518d" target="_top" xlink:title="Return const reference to the simplex vector.">
<polygon fill="white" stroke="#666666" points="1021,-30 837,-30 837,0 1021,0 1021,-30"/>
<text text-anchor="start" x="845" y="-18" font-family="Helvetica,sans-Serif" font-size="10.00">wmtk::simplex::SimplexCollection</text>
<text text-anchor="middle" x="929" y="-7" font-family="Helvetica,sans-Serif" font-size="10.00">::simplex_vector</text>
</a>
</g>
</g>
<!-- Node21&#45;&gt;Node26 -->
<g id="edge39_Node000021_Node000026" class="edge">
<title>Node21&#45;&gt;Node26</title>
<g id="a_edge39_Node000021_Node000026"><a xlink:title=" ">
<path fill="none" stroke="#63b8ff" d="M295.8,-248.83C315.28,-221.36 360.34,-163.53 413,-134 544.17,-60.44 718.45,-32.29 826.9,-21.56"/>
<polygon fill="#63b8ff" stroke="#63b8ff" points="827.24,-25.05 836.86,-20.61 826.57,-18.08 827.24,-25.05"/>
</a>
</g>
</g>
<!-- Node30 -->
<g id="Node000030" class="node">
<title>Node30</title>
<g id="a_Node000030"><a xlink:href="classwmtk_1_1simplex_1_1_simplex.html#a7de67a391b9f48b57f4ecb4c412ccaee" target="_top" xlink:title=" ">
<polygon fill="white" stroke="#666666" points="571.5,-173 436.5,-173 436.5,-143 571.5,-143 571.5,-173"/>
<text text-anchor="start" x="444.5" y="-161" font-family="Helvetica,sans-Serif" font-size="10.00">wmtk::simplex::Simplex</text>
<text text-anchor="middle" x="504" y="-150" font-family="Helvetica,sans-Serif" font-size="10.00">::vertex</text>
</a>
</g>
</g>
<!-- Node21&#45;&gt;Node30 -->
<g id="edge40_Node000021_Node000030" class="edge">
<title>Node21&#45;&gt;Node30</title>
<g id="a_edge40_Node000021_Node000030"><a xlink:title=" ">
<path fill="none" stroke="#63b8ff" d="M309.83,-248.78C335.06,-233.35 375.93,-209.35 413,-192 424.58,-186.58 437.28,-181.36 449.4,-176.71"/>
<polygon fill="#63b8ff" stroke="#63b8ff" points="450.83,-179.91 458.95,-173.11 448.36,-173.36 450.83,-179.91"/>
</a>
</g>
</g>
<!-- Node22&#45;&gt;Node14 -->
<g id="edge38_Node000022_Node000014" class="edge">
<title>Node22&#45;&gt;Node14</title>
<g id="a_edge38_Node000022_Node000014"><a xlink:title=" ">
<path fill="none" stroke="#63b8ff" d="M575.51,-272.39C591.3,-274.27 608.26,-276.29 624.72,-278.25"/>
<polygon fill="#63b8ff" stroke="#63b8ff" points="624.55,-281.76 634.9,-279.46 625.38,-274.81 624.55,-281.76"/>
</a>
</g>
</g>
<!-- Node22&#45;&gt;Node22 -->
<g id="edge26_Node000022_Node000022" class="edge">
<title>Node22&#45;&gt;Node22</title>
<g id="a_edge26_Node000022_Node000022"><a xlink:title=" ">
<path fill="none" stroke="#63b8ff" d="M471.32,-273.58C455.43,-282.23 466.32,-291.5 504,-291.5 531.08,-291.5 544.33,-286.71 543.73,-280.81"/>
<polygon fill="#63b8ff" stroke="#63b8ff" points="546.17,-278.29 536.68,-273.58 541.16,-283.18 546.17,-278.29"/>
</a>
</g>
</g>
<!-- Node23 -->
<g id="Node000023" class="node">
<title>Node23</title>
<g id="a_Node000023"><a xlink:href="namespacewmtk_1_1simplex.html#ad3819c31e843e174b473e7b97446a93f" target="_top" xlink:title=" ">
<polygon fill="white" stroke="#666666" points="775.5,-220 656.5,-220 656.5,-190 775.5,-190 775.5,-220"/>
<text text-anchor="start" x="664.5" y="-208" font-family="Helvetica,sans-Serif" font-size="10.00">wmtk::simplex::open</text>
<text text-anchor="middle" x="716" y="-197" font-family="Helvetica,sans-Serif" font-size="10.00">_star_slow</text>
</a>
</g>
</g>
<!-- Node22&#45;&gt;Node23 -->
<g id="edge27_Node000022_Node000023" class="edge">
<title>Node22&#45;&gt;Node23</title>
<g id="a_edge27_Node000022_Node000023"><a xlink:title=" ">
<path fill="none" stroke="#63b8ff" d="M541.4,-254.5C557.8,-250.16 577.4,-244.91 595,-240 614.4,-234.58 635.51,-228.49 654.54,-222.93"/>
<polygon fill="#63b8ff" stroke="#63b8ff" points="655.66,-226.25 664.28,-220.08 653.7,-219.53 655.66,-226.25"/>
</a>
</g>
</g>
<!-- Node23&#45;&gt;Node10 -->
<g id="edge28_Node000023_Node000010" class="edge">
<title>Node23&#45;&gt;Node10</title>
<g id="a_edge28_Node000023_Node000010"><a xlink:title=" ">
<path fill="none" stroke="#63b8ff" d="M775.63,-218.46C795.06,-222.46 816.87,-226.44 837,-229 984.71,-247.75 1156.49,-254.79 1266.64,-257.42"/>
<polygon fill="#63b8ff" stroke="#63b8ff" points="1266.69,-260.92 1276.77,-257.66 1266.85,-253.93 1266.69,-260.92"/>
</a>
</g>
</g>
<!-- Node24 -->
<g id="Node000024" class="node">
<title>Node24</title>
<g id="a_Node000024"><a xlink:href="classwmtk_1_1simplex_1_1_simplex_collection.html#a38ace43495e709c9387d3f3a091013f5" target="_top" xlink:title="Check if simplex is contained in collection.">
<polygon fill="white" stroke="#666666" points="1021,-220 837,-220 837,-190 1021,-190 1021,-220"/>
<text text-anchor="start" x="845" y="-208" font-family="Helvetica,sans-Serif" font-size="10.00">wmtk::simplex::SimplexCollection</text>
<text text-anchor="middle" x="929" y="-197" font-family="Helvetica,sans-Serif" font-size="10.00">::contains</text>
</a>
</g>
</g>
<!-- Node23&#45;&gt;Node24 -->
<g id="edge29_Node000023_Node000024" class="edge">
<title>Node23&#45;&gt;Node24</title>
<g id="a_edge29_Node000023_Node000024"><a xlink:title=" ">
<path fill="none" stroke="#63b8ff" d="M775.78,-205C791.58,-205 809.13,-205 826.53,-205"/>
<polygon fill="#63b8ff" stroke="#63b8ff" points="826.75,-208.5 836.75,-205 826.75,-201.5 826.75,-208.5"/>
</a>
</g>
</g>
<!-- Node25 -->
<g id="Node000025" class="node">
<title>Node25</title>
<g id="a_Node000025"><a xlink:href="namespacewmtk_1_1simplex.html#aee89641a0de7b5ddf8d15bf376f9d33b" target="_top" xlink:title="Returns all faces of a simplex.">
<polygon fill="white" stroke="#666666" points="990,-153.5 868,-153.5 868,-134.5 990,-134.5 990,-153.5"/>
<text text-anchor="middle" x="929" y="-141.5" font-family="Helvetica,sans-Serif" font-size="10.00">wmtk::simplex::faces</text>
</a>
</g>
</g>
<!-- Node23&#45;&gt;Node25 -->
<g id="edge30_Node000023_Node000025" class="edge">
<title>Node23&#45;&gt;Node25</title>
<g id="a_edge30_Node000023_Node000025"><a xlink:title=" ">
<path fill="none" stroke="#63b8ff" d="M769.89,-189.93C780.21,-186.98 790.94,-183.9 801,-181 829.22,-172.86 860.93,-163.62 885.61,-156.41"/>
<polygon fill="#63b8ff" stroke="#63b8ff" points="886.77,-159.72 895.39,-153.55 884.81,-153 886.77,-159.72"/>
</a>
</g>
</g>
<!-- Node23&#45;&gt;Node26 -->
<g id="edge32_Node000023_Node000026" class="edge">
<title>Node23&#45;&gt;Node26</title>
<g id="a_edge32_Node000023_Node000026"><a xlink:title=" ">
<path fill="none" stroke="#63b8ff" d="M775.56,-196.78C785.02,-193.21 794,-188.15 801,-181 845.04,-136.01 793.65,-89.65 837,-44 840.02,-40.82 843.38,-37.99 846.99,-35.47"/>
<polygon fill="#63b8ff" stroke="#63b8ff" points="849.07,-38.3 855.81,-30.13 845.44,-32.32 849.07,-38.3"/>
</a>
</g>
</g>
<!-- Node27 -->
<g id="Node000027" class="node">
<title>Node27</title>
<g id="a_Node000027"><a xlink:href="classwmtk_1_1simplex_1_1_simplex_collection.html#ab318c99d54327383ff1b985bed043f3a" target="_top" xlink:title="Sort simplex vector and remove duplicates.">
<polygon fill="white" stroke="#666666" points="1241,-73 1057,-73 1057,-43 1241,-43 1241,-73"/>
<text text-anchor="start" x="1065" y="-61" font-family="Helvetica,sans-Serif" font-size="10.00">wmtk::simplex::SimplexCollection</text>
<text text-anchor="middle" x="1149" y="-50" font-family="Helvetica,sans-Serif" font-size="10.00">::sort_and_clean</text>
</a>
</g>
</g>
<!-- Node23&#45;&gt;Node27 -->
<g id="edge33_Node000023_Node000027" class="edge">
<title>Node23&#45;&gt;Node27</title>
<g id="a_edge33_Node000023_Node000027"><a xlink:title=" ">
<path fill="none" stroke="#63b8ff" d="M775.55,-196.17C784.9,-192.66 793.84,-187.78 801,-181 836.52,-147.38 798.04,-106.57 837,-77 869.01,-52.7 968.62,-50.21 1046.59,-52.39"/>
<polygon fill="#63b8ff" stroke="#63b8ff" points="1046.84,-55.9 1056.95,-52.72 1047.06,-48.91 1046.84,-55.9"/>
</a>
</g>
</g>
<!-- Node28 -->
<g id="Node000028" class="node">
<title>Node28</title>
<g id="a_Node000028"><a xlink:href="namespacewmtk_1_1simplex.html#a87de7137d8d21f1643dd604d73e8f765" target="_top" xlink:title="Get all top dimension cofaces of the given simplex.">
<polygon fill="white" stroke="#666666" points="987,-116 871,-116 871,-86 987,-86 987,-116"/>
<text text-anchor="start" x="879" y="-104" font-family="Helvetica,sans-Serif" font-size="10.00">wmtk::simplex::top</text>
<text text-anchor="middle" x="929" y="-93" font-family="Helvetica,sans-Serif" font-size="10.00">_dimension_cofaces</text>
</a>
</g>
</g>
<!-- Node23&#45;&gt;Node28 -->
<g id="edge34_Node000023_Node000028" class="edge">
<title>Node23&#45;&gt;Node28</title>
<g id="a_edge34_Node000023_Node000028"><a xlink:title=" ">
<path fill="none" stroke="#63b8ff" d="M775.6,-194.2C784.63,-190.91 793.45,-186.61 801,-181 824.75,-163.36 813.07,-142.4 837,-125 844.2,-119.76 852.46,-115.67 861,-112.47"/>
<polygon fill="#63b8ff" stroke="#63b8ff" points="862.34,-115.71 870.72,-109.22 860.13,-109.07 862.34,-115.71"/>
</a>
</g>
</g>
<!-- Node25&#45;&gt;Node25 -->
<g id="edge31_Node000025_Node000025" class="edge">
<title>Node25&#45;&gt;Node25</title>
<g id="a_edge31_Node000025_Node000025"><a xlink:title=" ">
<path fill="none" stroke="#63b8ff" d="M896.32,-153.58C880.43,-162.23 891.32,-171.5 929,-171.5 956.08,-171.5 969.33,-166.71 968.73,-160.81"/>
<polygon fill="#63b8ff" stroke="#63b8ff" points="971.17,-158.29 961.68,-153.58 966.16,-163.18 971.17,-158.29"/>
</a>
</g>
</g>
<!-- Node28&#45;&gt;Node9 -->
<g id="edge37_Node000028_Node000009" class="edge">
<title>Node28&#45;&gt;Node9</title>
<g id="a_edge37_Node000028_Node000009"><a xlink:title=" ">
<path fill="none" stroke="#63b8ff" d="M987.15,-109.41C999.05,-112.93 1011,-117.92 1021,-125 1080.79,-167.33 1120.92,-247.36 1138.26,-287.6"/>
<polygon fill="#63b8ff" stroke="#63b8ff" points="1135.08,-289.06 1142.18,-296.93 1141.53,-286.35 1135.08,-289.06"/>
</a>
</g>
</g>
<!-- Node28&#45;&gt;Node27 -->
<g id="edge36_Node000028_Node000027" class="edge">
<title>Node28&#45;&gt;Node27</title>
<g id="a_edge36_Node000028_Node000027"><a xlink:title=" ">
<path fill="none" stroke="#63b8ff" d="M987.28,-89.7C1010.11,-85.2 1036.88,-79.92 1061.95,-74.97"/>
<polygon fill="#63b8ff" stroke="#63b8ff" points="1062.7,-78.39 1071.84,-73.02 1061.35,-71.52 1062.7,-78.39"/>
</a>
</g>
</g>
<!-- Node29 -->
<g id="Node000029" class="node">
<title>Node29</title>
<g id="a_Node000029"><a xlink:href="classwmtk_1_1simplex_1_1_simplex_collection.html#a0d0c1765c4ed8ffd0f163661111bfb08" target="_top" xlink:title=" ">
<polygon fill="white" stroke="#666666" points="1241,-121 1057,-121 1057,-91 1241,-91 1241,-121"/>
<text text-anchor="start" x="1065" y="-109" font-family="Helvetica,sans-Serif" font-size="10.00">wmtk::simplex::SimplexCollection</text>
<text text-anchor="middle" x="1149" y="-98" font-family="Helvetica,sans-Serif" font-size="10.00">::mesh</text>
</a>
</g>
</g>
<!-- Node28&#45;&gt;Node29 -->
<g id="edge35_Node000028_Node000029" class="edge">
<title>Node28&#45;&gt;Node29</title>
<g id="a_edge35_Node000028_Node000029"><a xlink:title=" ">
<path fill="none" stroke="#63b8ff" d="M987.28,-102.31C1005.6,-102.73 1026.46,-103.21 1046.94,-103.68"/>
<polygon fill="#63b8ff" stroke="#63b8ff" points="1046.88,-107.18 1056.95,-103.91 1047.04,-100.18 1046.88,-107.18"/>
</a>
</g>
</g>
<!-- Node30&#45;&gt;Node18 -->
<g id="edge41_Node000030_Node000018" class="edge">
<title>Node30&#45;&gt;Node18</title>
<g id="a_edge41_Node000030_Node000018"><a xlink:title=" ">
<path fill="none" stroke="#63b8ff" d="M571.73,-157.68C592.88,-157.58 616.44,-157.47 638.23,-157.37"/>
<polygon fill="#63b8ff" stroke="#63b8ff" points="638.46,-160.86 648.44,-157.32 638.42,-153.86 638.46,-160.86"/>
</a>
</g>
</g>
</g>
</svg>
