<?xml version="1.0" encoding="UTF-8" standalone="no"?>
<!DOCTYPE svg PUBLIC "-//W3C//DTD SVG 1.1//EN"
 "http://www.w3.org/Graphics/SVG/1.1/DTD/svg11.dtd">
<!-- Generated by graphviz version 2.43.0 (0)
 -->
<!-- Title: wmtk::TetMesh::vertex_tuple_from_id Pages: 1 -->
<!--zoomable 475 -->

<svg id="main" version="1.1" xmlns="http://www.w3.org/2000/svg" xmlns:xlink="http://www.w3.org/1999/xlink" xml:space="preserve" onload="init(evt)">
<style type="text/css"><![CDATA[
.node, .edge {opacity: 0.7;}
.node.selected, .edge.selected {opacity: 1;}
.edge:hover path { stroke: red; }
.edge:hover polygon { stroke: red; fill: red; }
]]></style>

<defs>
  <circle id="rim" cx="0" cy="0" r="7"/>
  <circle id="rim2" cx="0" cy="0" r="3.5"/>
  <g id="zoomPlus">
    <use xlink:href="#rim" fill="#404040"><set attributeName="fill" to="#808080" begin="zoomplus.mouseover" end="zoomplus.mouseout"/></use>
    <path d="M-4,0h8M0,-4v8" fill="none" stroke="white" stroke-width="1.5" pointer-events="none"/>
  </g>
  <g id="zoomMin">
    <use xlink:href="#rim" fill="#404040"><set attributeName="fill" to="#808080" begin="zoomminus.mouseover" end="zoomminus.mouseout"/></use>
    <path d="M-4,0h8" fill="none" stroke="white" stroke-width="1.5" pointer-events="none"/>
  </g>
  <g id="arrowUp" transform="translate(30 24)">
    <use xlink:href="#rim"/>
    <path pointer-events="none" fill="none" stroke="white" stroke-width="1.5" d="M0,-3.0v7 M-2.5,-0.5L0,-3.0L2.5,-0.5"/>
  </g>
  <g id="arrowRight" transform="rotate(90) translate(36 -43)">
    <use xlink:href="#rim"/>
    <path pointer-events="none" fill="none" stroke="white" stroke-width="1.5" d="M0,-3.0v7 M-2.5,-0.5L0,-3.0L2.5,-0.5"/>
  </g>
  <g id="arrowDown" transform="rotate(180) translate(-30 -48)">
    <use xlink:href="#rim"/>
    <path pointer-events="none" fill="none" stroke="white" stroke-width="1.5" d="M0,-3.0v7 M-2.5,-0.5L0,-3.0L2.5,-0.5"/>
  </g>
  <g id="arrowLeft" transform="rotate(270) translate(-36 17)">
    <use xlink:href="#rim"/>
    <path pointer-events="none" fill="none" stroke="white" stroke-width="1.5" d="M0,-3.0v7 M-2.5,-0.5L0,-3.0L2.5,-0.5"/>
  </g>
  <g id="resetDef">
    <use xlink:href="#rim2" fill="#404040"><set attributeName="fill" to="#808080" begin="reset.mouseover" end="reset.mouseout"/></use>
  </g>
</defs>
<script type="application/ecmascript">
var viewWidth = 1191;
var viewHeight = 475;
var sectionId = 'dynsection-52';
</script>
<script type="application/ecmascript" xlink:href="svg.min.js"/>
<svg id="graph" class="graph">
<g id="viewport">
<title>wmtk::TetMesh::vertex_tuple_from_id</title>
<!-- Node1 -->
<g id="Node000001" class="node">
<title>Node1</title>
<g id="a_Node000001"><a xlink:title=" ">
<polygon fill="#999999" stroke="#666666" points="128,-318.5 0,-318.5 0,-288.5 128,-288.5 128,-318.5"/>
<text text-anchor="start" x="8" y="-306.5" font-family="Helvetica,sans-Serif" font-size="10.00">wmtk::TetMesh::vertex</text>
<text text-anchor="middle" x="64" y="-295.5" font-family="Helvetica,sans-Serif" font-size="10.00">_tuple_from_id</text>
</a>
</g>
</g>
<!-- Node2 -->
<g id="Node000002" class="node">
<title>Node2</title>
<g id="a_Node000002"><a xlink:href="classwmtk_1_1_tet_mesh.html#aa8424e5e4d709981e9e10d659f87f97d" target="_top" xlink:title=" ">
<polygon fill="white" stroke="#666666" points="281.5,-350 175.5,-350 175.5,-331 281.5,-331 281.5,-350"/>
<text text-anchor="middle" x="228.5" y="-338" font-family="Helvetica,sans-Serif" font-size="10.00">wmtk::TetMesh::id</text>
</a>
</g>
</g>
<!-- Node1&#45;&gt;Node2 -->
<g id="edge1_Node000001_Node000002" class="edge">
<title>Node1&#45;&gt;Node2</title>
<g id="a_edge1_Node000001_Node000002"><a xlink:title=" ">
<path fill="none" stroke="#63b8ff" d="M128.29,-317.91C143.93,-321.47 160.51,-325.25 175.54,-328.67"/>
<polygon fill="#63b8ff" stroke="#63b8ff" points="175.14,-332.17 185.67,-330.97 176.69,-325.34 175.14,-332.17"/>
</a>
</g>
</g>
<!-- Node3 -->
<g id="Node000003" class="node">
<title>Node3</title>
<g id="a_Node000003"><a xlink:href="classwmtk_1_1_tet_mesh.html#a9a30d64d4b874e9bb156e6c771e7f08c" target="_top" xlink:title="returns if a tuple is counterclockwise or not">
<polygon fill="white" stroke="#666666" points="293,-313 164,-313 164,-294 293,-294 293,-313"/>
<text text-anchor="middle" x="228.5" y="-301" font-family="Helvetica,sans-Serif" font-size="10.00">wmtk::TetMesh::is_ccw</text>
</a>
</g>
</g>
<!-- Node1&#45;&gt;Node3 -->
<g id="edge2_Node000001_Node000003" class="edge">
<title>Node1&#45;&gt;Node3</title>
<g id="a_edge2_Node000001_Node000003"><a xlink:title=" ">
<path fill="none" stroke="#63b8ff" d="M128.29,-303.5C136.59,-303.5 145.15,-303.5 153.61,-303.5"/>
<polygon fill="#63b8ff" stroke="#63b8ff" points="153.85,-307 163.85,-303.5 153.85,-300 153.85,-307"/>
</a>
</g>
</g>
<!-- Node10 -->
<g id="Node000010" class="node">
<title>Node10</title>
<g id="a_Node000010"><a xlink:href="classwmtk_1_1_tet_mesh.html#af07828ce32b19a3d5fc8e1cb6f365029" target="_top" xlink:title="check validity of tuple including its hash">
<polygon fill="white" stroke="#666666" points="463,-275 329,-275 329,-256 463,-256 463,-275"/>
<text text-anchor="middle" x="396" y="-263" font-family="Helvetica,sans-Serif" font-size="10.00">wmtk::TetMesh::is_valid</text>
</a>
</g>
</g>
<!-- Node1&#45;&gt;Node10 -->
<g id="edge29_Node000001_Node000010" class="edge">
<title>Node1&#45;&gt;Node10</title>
<g id="a_edge29_Node000001_Node000010"><a xlink:title=" ">
<path fill="none" stroke="#63b8ff" d="M128.21,-290.32C140.06,-288.15 152.38,-286.09 164,-284.5 215.43,-277.47 273.68,-272.7 318.82,-269.7"/>
<polygon fill="#63b8ff" stroke="#63b8ff" points="319.08,-273.19 328.83,-269.05 318.62,-266.2 319.08,-273.19"/>
</a>
</g>
</g>
<!-- Node4 -->
<g id="Node000004" class="node">
<title>Node4</title>
<g id="a_Node000004"><a xlink:href="namespacewmtk_1_1autogen_1_1tet__mesh.html#a4243da89f13477619412eb6b6820fd7f" target="_top" xlink:title=" ">
<polygon fill="white" stroke="#666666" points="451,-342.5 341,-342.5 341,-312.5 451,-312.5 451,-342.5"/>
<text text-anchor="start" x="349" y="-330.5" font-family="Helvetica,sans-Serif" font-size="10.00">wmtk::autogen::tet</text>
<text text-anchor="middle" x="396" y="-319.5" font-family="Helvetica,sans-Serif" font-size="10.00">_mesh::is_ccw</text>
</a>
</g>
</g>
<!-- Node3&#45;&gt;Node4 -->
<g id="edge3_Node000003_Node000004" class="edge">
<title>Node3&#45;&gt;Node4</title>
<g id="a_edge3_Node000003_Node000004"><a xlink:title=" ">
<path fill="none" stroke="#63b8ff" d="M293.01,-312.71C305.33,-314.5 318.26,-316.37 330.6,-318.16"/>
<polygon fill="#63b8ff" stroke="#63b8ff" points="330.42,-321.67 340.82,-319.64 331.42,-314.74 330.42,-321.67"/>
</a>
</g>
</g>
<!-- Node3&#45;&gt;Node10 -->
<g id="edge10_Node000003_Node000010" class="edge">
<title>Node3&#45;&gt;Node10</title>
<g id="a_edge10_Node000003_Node000010"><a xlink:title=" ">
<path fill="none" stroke="#63b8ff" d="M271.26,-293.91C293.2,-288.87 320.28,-282.66 343.51,-277.32"/>
<polygon fill="#63b8ff" stroke="#63b8ff" points="344.57,-280.67 353.54,-275.02 343.01,-273.85 344.57,-280.67"/>
</a>
</g>
</g>
<!-- Node5 -->
<g id="Node000005" class="node">
<title>Node5</title>
<g id="a_Node000005"><a xlink:href="namespacewmtk_1_1autogen_1_1tet__mesh.html#ace6b80b1be9aec0d6a5ac5d144b40965" target="_top" xlink:title=" ">
<polygon fill="white" stroke="#666666" points="837,-424 715,-424 715,-383 837,-383 837,-424"/>
<text text-anchor="start" x="723" y="-412" font-family="Helvetica,sans-Serif" font-size="10.00">wmtk::autogen::tet</text>
<text text-anchor="start" x="723" y="-401" font-family="Helvetica,sans-Serif" font-size="10.00">_mesh::local_id_table</text>
<text text-anchor="middle" x="776" y="-390" font-family="Helvetica,sans-Serif" font-size="10.00">_offset</text>
</a>
</g>
</g>
<!-- Node4&#45;&gt;Node5 -->
<g id="edge4_Node000004_Node000005" class="edge">
<title>Node4&#45;&gt;Node5</title>
<g id="a_edge4_Node000004_Node000005"><a xlink:title=" ">
<path fill="none" stroke="#63b8ff" d="M443.66,-342.51C460.92,-347.73 480.74,-353.31 499,-357.5 568.31,-373.41 648.6,-386.16 704.65,-394.17"/>
<polygon fill="#63b8ff" stroke="#63b8ff" points="704.44,-397.68 714.83,-395.61 705.42,-390.74 704.44,-397.68"/>
</a>
</g>
</g>
<!-- Node9 -->
<g id="Node000009" class="node">
<title>Node9</title>
<g id="a_Node000009"><a xlink:href="namespacewmtk_1_1autogen_1_1tet__mesh.html#a217b7c5c5312a716ad27c99abcfc0eb1" target="_top" xlink:title=" ">
<polygon fill="white" stroke="#666666" points="645,-348 523,-348 523,-307 645,-307 645,-348"/>
<text text-anchor="start" x="531" y="-336" font-family="Helvetica,sans-Serif" font-size="10.00">wmtk::autogen::tet</text>
<text text-anchor="start" x="531" y="-325" font-family="Helvetica,sans-Serif" font-size="10.00">_mesh::tuple_is_valid</text>
<text text-anchor="middle" x="584" y="-314" font-family="Helvetica,sans-Serif" font-size="10.00">_for_ccw</text>
</a>
</g>
</g>
<!-- Node4&#45;&gt;Node9 -->
<g id="edge8_Node000004_Node000009" class="edge">
<title>Node4&#45;&gt;Node9</title>
<g id="a_edge8_Node000004_Node000009"><a xlink:title=" ">
<path fill="none" stroke="#63b8ff" d="M451.05,-327.5C470.32,-327.5 492.31,-327.5 512.74,-327.5"/>
<polygon fill="#63b8ff" stroke="#63b8ff" points="512.94,-331 522.94,-327.5 512.94,-324 512.94,-331"/>
</a>
</g>
</g>
<!-- Node6 -->
<g id="Node000006" class="node">
<title>Node6</title>
<g id="a_Node000006"><a xlink:href="classwmtk_1_1utils_1_1_tuple_inspector.html#a3a04acf16e0eff80ade8e0fb8753ac1b" target="_top" xlink:title=" ">
<polygon fill="white" stroke="#666666" points="1031,-466.5 883,-466.5 883,-436.5 1031,-436.5 1031,-466.5"/>
<text text-anchor="start" x="891" y="-454.5" font-family="Helvetica,sans-Serif" font-size="10.00">wmtk::utils::TupleInspector</text>
<text text-anchor="middle" x="957" y="-443.5" font-family="Helvetica,sans-Serif" font-size="10.00">::local_eid</text>
</a>
</g>
</g>
<!-- Node5&#45;&gt;Node6 -->
<g id="edge5_Node000005_Node000006" class="edge">
<title>Node5&#45;&gt;Node6</title>
<g id="a_edge5_Node000005_Node000006"><a xlink:title=" ">
<path fill="none" stroke="#63b8ff" d="M837.1,-419.62C854.08,-424.17 872.65,-429.15 889.96,-433.79"/>
<polygon fill="#63b8ff" stroke="#63b8ff" points="889.42,-437.27 899.98,-436.48 891.23,-430.51 889.42,-437.27"/>
</a>
</g>
</g>
<!-- Node7 -->
<g id="Node000007" class="node">
<title>Node7</title>
<g id="a_Node000007"><a xlink:href="classwmtk_1_1utils_1_1_tuple_inspector.html#ae4f5c770f4a2f9440eef24448929432d" target="_top" xlink:title=" ">
<polygon fill="white" stroke="#666666" points="1031,-418.5 883,-418.5 883,-388.5 1031,-388.5 1031,-418.5"/>
<text text-anchor="start" x="891" y="-406.5" font-family="Helvetica,sans-Serif" font-size="10.00">wmtk::utils::TupleInspector</text>
<text text-anchor="middle" x="957" y="-395.5" font-family="Helvetica,sans-Serif" font-size="10.00">::local_fid</text>
</a>
</g>
</g>
<!-- Node5&#45;&gt;Node7 -->
<g id="edge6_Node000005_Node000007" class="edge">
<title>Node5&#45;&gt;Node7</title>
<g id="a_edge6_Node000005_Node000007"><a xlink:title=" ">
<path fill="none" stroke="#63b8ff" d="M837.1,-403.5C848.53,-403.5 860.67,-403.5 872.67,-403.5"/>
<polygon fill="#63b8ff" stroke="#63b8ff" points="872.69,-407 882.69,-403.5 872.69,-400 872.69,-407"/>
</a>
</g>
</g>
<!-- Node8 -->
<g id="Node000008" class="node">
<title>Node8</title>
<g id="a_Node000008"><a xlink:href="classwmtk_1_1utils_1_1_tuple_inspector.html#a92f5faa08a7f78424f5cd1ec79dcedbb" target="_top" xlink:title=" ">
<polygon fill="white" stroke="#666666" points="1031,-370.5 883,-370.5 883,-340.5 1031,-340.5 1031,-370.5"/>
<text text-anchor="start" x="891" y="-358.5" font-family="Helvetica,sans-Serif" font-size="10.00">wmtk::utils::TupleInspector</text>
<text text-anchor="middle" x="957" y="-347.5" font-family="Helvetica,sans-Serif" font-size="10.00">::local_vid</text>
</a>
</g>
</g>
<!-- Node5&#45;&gt;Node8 -->
<g id="edge7_Node000005_Node000008" class="edge">
<title>Node5&#45;&gt;Node8</title>
<g id="a_edge7_Node000005_Node000008"><a xlink:title=" ">
<path fill="none" stroke="#63b8ff" d="M837.1,-387.38C854.08,-382.83 872.65,-377.85 889.96,-373.21"/>
<polygon fill="#63b8ff" stroke="#63b8ff" points="891.23,-376.49 899.98,-370.52 889.42,-369.73 891.23,-376.49"/>
</a>
</g>
</g>
<!-- Node9&#45;&gt;Node5 -->
<g id="edge9_Node000009_Node000005" class="edge">
<title>Node9&#45;&gt;Node5</title>
<g id="a_edge9_Node000009_Node000005"><a xlink:title=" ">
<path fill="none" stroke="#63b8ff" d="M636.42,-348.07C660.39,-357.66 689.09,-369.14 714.14,-379.16"/>
<polygon fill="#63b8ff" stroke="#63b8ff" points="712.96,-382.45 723.54,-382.92 715.56,-375.95 712.96,-382.45"/>
</a>
</g>
</g>
<!-- Node10&#45;&gt;Node9 -->
<g id="edge28_Node000010_Node000009" class="edge">
<title>Node10&#45;&gt;Node9</title>
<g id="a_edge28_Node000010_Node000009"><a xlink:title=" ">
<path fill="none" stroke="#63b8ff" d="M425.65,-275.05C448.92,-282.81 482.72,-294.07 513.03,-304.18"/>
<polygon fill="#63b8ff" stroke="#63b8ff" points="512.14,-307.57 522.74,-307.41 514.36,-300.93 512.14,-307.57"/>
</a>
</g>
</g>
<!-- Node11 -->
<g id="Node000011" class="node">
<title>Node11</title>
<g id="a_Node000011"><a xlink:href="classwmtk_1_1_tet_mesh.html#ad4ba72346d616d38086be74705865e55" target="_top" xlink:title=" ">
<polygon fill="white" stroke="#666666" points="669,-261.5 499,-261.5 499,-231.5 669,-231.5 669,-261.5"/>
<text text-anchor="start" x="507" y="-249.5" font-family="Helvetica,sans-Serif" font-size="10.00">wmtk::TetMesh::is_connectivity</text>
<text text-anchor="middle" x="584" y="-238.5" font-family="Helvetica,sans-Serif" font-size="10.00">_valid</text>
</a>
</g>
</g>
<!-- Node10&#45;&gt;Node11 -->
<g id="edge11_Node000010_Node000011" class="edge">
<title>Node10&#45;&gt;Node11</title>
<g id="a_edge11_Node000010_Node000011"><a xlink:title=" ">
<path fill="none" stroke="#63b8ff" d="M463.1,-258.75C471.43,-257.9 480.08,-257.01 488.74,-256.13"/>
<polygon fill="#63b8ff" stroke="#63b8ff" points="489.3,-259.59 498.89,-255.09 488.59,-252.63 489.3,-259.59"/>
</a>
</g>
</g>
<!-- Node23 -->
<g id="Node000023" class="node">
<title>Node23</title>
<g id="a_Node000023"><a xlink:href="classwmtk_1_1_mesh.html#a8cc8686f0688613806f43720b6db49e7" target="_top" xlink:title="check validity of tuple including its hash">
<polygon fill="white" stroke="#666666" points="644,-74 524,-74 524,-55 644,-55 644,-74"/>
<text text-anchor="middle" x="584" y="-62" font-family="Helvetica,sans-Serif" font-size="10.00">wmtk::Mesh::is_valid</text>
</a>
</g>
</g>
<!-- Node10&#45;&gt;Node23 -->
<g id="edge24_Node000010_Node000023" class="edge">
<title>Node10&#45;&gt;Node23</title>
<g id="a_edge24_Node000010_Node000023"><a xlink:title=" ">
<path fill="none" stroke="#63b8ff" d="M405.97,-255.81C435.44,-223.97 529.5,-122.32 567.17,-81.6"/>
<polygon fill="#63b8ff" stroke="#63b8ff" points="569.9,-83.81 574.12,-74.1 564.76,-79.06 569.9,-83.81"/>
</a>
</g>
</g>
<!-- Node12 -->
<g id="Node000012" class="node">
<title>Node12</title>
<g id="a_Node000012"><a xlink:href="classwmtk_1_1_mesh.html#a3e8ff83c4a5526a40d18bb9883c6c6c9" target="_top" xlink:title="read in the m_capacities return the upper bound for the number of entities of the given dimension">
<polygon fill="white" stroke="#666666" points="1019,-286 895,-286 895,-267 1019,-267 1019,-286"/>
<text text-anchor="middle" x="957" y="-274" font-family="Helvetica,sans-Serif" font-size="10.00">wmtk::Mesh::capacity</text>
</a>
</g>
</g>
<!-- Node11&#45;&gt;Node12 -->
<g id="edge12_Node000011_Node000012" class="edge">
<title>Node11&#45;&gt;Node12</title>
<g id="a_edge12_Node000011_Node000012"><a xlink:title=" ">
<path fill="none" stroke="#63b8ff" d="M613.8,-261.58C630.59,-270.95 651.78,-283.79 669,-297.5 686.95,-311.79 683.86,-325.57 705,-334.5 763.14,-359.05 785.77,-349.78 847,-334.5 879.79,-326.32 913.54,-306.21 934.62,-291.98"/>
<polygon fill="#63b8ff" stroke="#63b8ff" points="936.88,-294.67 943.11,-286.1 932.89,-288.92 936.88,-294.67"/>
</a>
</g>
</g>
<!-- Node14 -->
<g id="Node000014" class="node">
<title>Node14</title>
<g id="a_Node000014"><a xlink:href="classwmtk_1_1attribute_1_1_caching_accessor.html#a196b6b32e2495b971113d552be7f45d9" target="_top" xlink:title=" ">
<polygon fill="white" stroke="#666666" points="844.5,-326 707.5,-326 707.5,-285 844.5,-285 844.5,-326"/>
<text text-anchor="start" x="715.5" y="-314" font-family="Helvetica,sans-Serif" font-size="10.00">wmtk::attribute::Caching</text>
<text text-anchor="start" x="715.5" y="-303" font-family="Helvetica,sans-Serif" font-size="10.00">Accessor::const_scalar</text>
<text text-anchor="middle" x="776" y="-292" font-family="Helvetica,sans-Serif" font-size="10.00">_attribute</text>
</a>
</g>
</g>
<!-- Node11&#45;&gt;Node14 -->
<g id="edge14_Node000011_Node000014" class="edge">
<title>Node11&#45;&gt;Node14</title>
<g id="a_edge14_Node000011_Node000014"><a xlink:title=" ">
<path fill="none" stroke="#63b8ff" d="M633.44,-261.54C653.36,-267.73 676.91,-275.04 699.02,-281.91"/>
<polygon fill="#63b8ff" stroke="#63b8ff" points="698.14,-285.3 708.73,-284.92 700.22,-278.61 698.14,-285.3"/>
</a>
</g>
</g>
<!-- Node15 -->
<g id="Node000015" class="node">
<title>Node15</title>
<g id="a_Node000015"><a xlink:href="classwmtk_1_1attribute_1_1_caching_accessor.html#ab850fe07669c7bc92ca6cf6e86c60ee0" target="_top" xlink:title=" ">
<polygon fill="white" stroke="#666666" points="844.5,-267 707.5,-267 707.5,-226 844.5,-226 844.5,-267"/>
<text text-anchor="start" x="715.5" y="-255" font-family="Helvetica,sans-Serif" font-size="10.00">wmtk::attribute::Caching</text>
<text text-anchor="start" x="715.5" y="-244" font-family="Helvetica,sans-Serif" font-size="10.00">Accessor::const_vector</text>
<text text-anchor="middle" x="776" y="-233" font-family="Helvetica,sans-Serif" font-size="10.00">_attribute</text>
</a>
</g>
</g>
<!-- Node11&#45;&gt;Node15 -->
<g id="edge15_Node000011_Node000015" class="edge">
<title>Node11&#45;&gt;Node15</title>
<g id="a_edge15_Node000011_Node000015"><a xlink:title=" ">
<path fill="none" stroke="#63b8ff" d="M669.17,-246.5C678.47,-246.5 687.91,-246.5 697.13,-246.5"/>
<polygon fill="#63b8ff" stroke="#63b8ff" points="697.43,-250 707.43,-246.5 697.43,-243 697.43,-250"/>
</a>
</g>
</g>
<!-- Node16 -->
<g id="Node000016" class="node">
<title>Node16</title>
<g id="a_Node000016"><a xlink:href="classwmtk_1_1_mesh.html#ae0e8f71e9e17a90be9423117efcc4c81" target="_top" xlink:title=" ">
<polygon fill="white" stroke="#666666" points="837,-207.5 715,-207.5 715,-177.5 837,-177.5 837,-207.5"/>
<text text-anchor="start" x="723" y="-195.5" font-family="Helvetica,sans-Serif" font-size="10.00">wmtk::Mesh::get_flag</text>
<text text-anchor="middle" x="776" y="-184.5" font-family="Helvetica,sans-Serif" font-size="10.00">_accessor</text>
</a>
</g>
</g>
<!-- Node11&#45;&gt;Node16 -->
<g id="edge16_Node000011_Node000016" class="edge">
<title>Node11&#45;&gt;Node16</title>
<g id="a_edge16_Node000011_Node000016"><a xlink:title=" ">
<path fill="none" stroke="#63b8ff" d="M637.93,-231.46C660.99,-224.9 688.2,-217.17 712.28,-210.33"/>
<polygon fill="#63b8ff" stroke="#63b8ff" points="713.37,-213.66 722.03,-207.55 711.45,-206.92 713.37,-213.66"/>
</a>
</g>
</g>
<!-- Node19 -->
<g id="Node000019" class="node">
<title>Node19</title>
<g id="a_Node000019"><a xlink:href="classwmtk_1_1attribute_1_1_accessor.html#a2d587e12c47a6d839ab80e9198cf75b5" target="_top" xlink:title=" ">
<polygon fill="white" stroke="#666666" points="847,-159.5 705,-159.5 705,-129.5 847,-129.5 847,-159.5"/>
<text text-anchor="start" x="713" y="-147.5" font-family="Helvetica,sans-Serif" font-size="10.00">wmtk::attribute::Accessor</text>
<text text-anchor="middle" x="776" y="-136.5" font-family="Helvetica,sans-Serif" font-size="10.00">::index_access</text>
</a>
</g>
</g>
<!-- Node11&#45;&gt;Node19 -->
<g id="edge20_Node000011_Node000019" class="edge">
<title>Node11&#45;&gt;Node19</title>
<g id="a_edge20_Node000011_Node000019"><a xlink:title=" ">
<path fill="none" stroke="#63b8ff" d="M604.9,-231.36C628,-214.33 667.7,-186.67 705,-168.5 708.77,-166.66 712.71,-164.91 716.73,-163.24"/>
<polygon fill="#63b8ff" stroke="#63b8ff" points="718.16,-166.44 726.17,-159.51 715.59,-159.92 718.16,-166.44"/>
</a>
</g>
</g>
<!-- Node21 -->
<g id="Node000021" class="node">
<title>Node21</title>
<g id="a_Node000021"><a xlink:href="namespacewmtk.html#a6a35f11c12436093d26fdd8be6fecc06" target="_top" xlink:title="Retrieves the current logger.">
<polygon fill="white" stroke="#666666" points="816.5,-111 735.5,-111 735.5,-92 816.5,-92 816.5,-111"/>
<text text-anchor="middle" x="776" y="-99" font-family="Helvetica,sans-Serif" font-size="10.00">wmtk::logger</text>
</a>
</g>
</g>
<!-- Node11&#45;&gt;Node21 -->
<g id="edge22_Node000011_Node000021" class="edge">
<title>Node11&#45;&gt;Node21</title>
<g id="a_edge22_Node000011_Node000021"><a xlink:title=" ">
<path fill="none" stroke="#63b8ff" d="M595.28,-231.13C613.92,-204.48 655.95,-149.73 705,-120.5 711.32,-116.73 718.4,-113.7 725.57,-111.25"/>
<polygon fill="#63b8ff" stroke="#63b8ff" points="726.79,-114.54 735.33,-108.27 724.75,-107.84 726.79,-114.54"/>
</a>
</g>
</g>
<!-- Node13 -->
<g id="Node000013" class="node">
<title>Node13</title>
<g id="a_Node000013"><a xlink:href="namespacewmtk.html#a5cf45c152e856196bb734c6f48919a24" target="_top" xlink:title="Get a unique integer id corresponding to each primitive type.">
<polygon fill="white" stroke="#666666" points="1183,-282.5 1067,-282.5 1067,-252.5 1183,-252.5 1183,-282.5"/>
<text text-anchor="start" x="1075" y="-270.5" font-family="Helvetica,sans-Serif" font-size="10.00">wmtk::get_primitive</text>
<text text-anchor="middle" x="1125" y="-259.5" font-family="Helvetica,sans-Serif" font-size="10.00">_type_id</text>
</a>
</g>
</g>
<!-- Node12&#45;&gt;Node13 -->
<g id="edge13_Node000012_Node000013" class="edge">
<title>Node12&#45;&gt;Node13</title>
<g id="a_edge13_Node000012_Node000013"><a xlink:title=" ">
<path fill="none" stroke="#63b8ff" d="M1019.34,-273.17C1031.46,-272.52 1044.25,-271.82 1056.56,-271.16"/>
<polygon fill="#63b8ff" stroke="#63b8ff" points="1056.97,-274.64 1066.76,-270.6 1056.59,-267.65 1056.97,-274.64"/>
</a>
</g>
</g>
<!-- Node17 -->
<g id="Node000017" class="node">
<title>Node17</title>
<g id="a_Node000017"><a xlink:href="classwmtk_1_1_mesh.html#a6dbab927a2ee85f77a87f075fd5c1d94" target="_top" xlink:title=" ">
<polygon fill="white" stroke="#666666" points="1022,-216.5 892,-216.5 892,-186.5 1022,-186.5 1022,-216.5"/>
<text text-anchor="start" x="900" y="-204.5" font-family="Helvetica,sans-Serif" font-size="10.00">wmtk::Mesh::get_const</text>
<text text-anchor="middle" x="957" y="-193.5" font-family="Helvetica,sans-Serif" font-size="10.00">_flag_accessor</text>
</a>
</g>
</g>
<!-- Node16&#45;&gt;Node17 -->
<g id="edge17_Node000016_Node000017" class="edge">
<title>Node16&#45;&gt;Node17</title>
<g id="a_edge17_Node000016_Node000017"><a xlink:title=" ">
<path fill="none" stroke="#63b8ff" d="M837.1,-195.52C851.38,-196.24 866.78,-197.01 881.61,-197.76"/>
<polygon fill="#63b8ff" stroke="#63b8ff" points="881.6,-201.26 891.76,-198.27 881.95,-194.27 881.6,-201.26"/>
</a>
</g>
</g>
<!-- Node17&#45;&gt;Node13 -->
<g id="edge19_Node000017_Node000013" class="edge">
<title>Node17&#45;&gt;Node13</title>
<g id="a_edge19_Node000017_Node000013"><a xlink:title=" ">
<path fill="none" stroke="#63b8ff" d="M996.08,-216.64C1020.02,-226.16 1051.09,-238.51 1076.61,-248.66"/>
<polygon fill="#63b8ff" stroke="#63b8ff" points="1075.51,-251.99 1086.09,-252.43 1078.09,-245.48 1075.51,-251.99"/>
</a>
</g>
</g>
<!-- Node18 -->
<g id="Node000018" class="node">
<title>Node18</title>
<g id="a_Node000018"><a xlink:href="classwmtk_1_1_mesh.html#a357182137d99f1e4a7ff536eadfc0e56" target="_top" xlink:title=" ">
<polygon fill="white" stroke="#666666" points="1181.5,-216.5 1068.5,-216.5 1068.5,-186.5 1181.5,-186.5 1181.5,-216.5"/>
<text text-anchor="start" x="1076.5" y="-204.5" font-family="Helvetica,sans-Serif" font-size="10.00">wmtk::Mesh::create</text>
<text text-anchor="middle" x="1125" y="-193.5" font-family="Helvetica,sans-Serif" font-size="10.00">_const_accessor</text>
</a>
</g>
</g>
<!-- Node17&#45;&gt;Node18 -->
<g id="edge18_Node000017_Node000018" class="edge">
<title>Node17&#45;&gt;Node18</title>
<g id="a_edge18_Node000017_Node000018"><a xlink:title=" ">
<path fill="none" stroke="#63b8ff" d="M1022.18,-201.5C1033.96,-201.5 1046.28,-201.5 1058.12,-201.5"/>
<polygon fill="#63b8ff" stroke="#63b8ff" points="1058.36,-205 1068.36,-201.5 1058.36,-198 1058.36,-205"/>
</a>
</g>
</g>
<!-- Node20 -->
<g id="Node000020" class="node">
<title>Node20</title>
<g id="a_Node000020"><a xlink:href="classwmtk_1_1attribute_1_1_accessor.html#afd97a48ec5d1db975a030428df81f617" target="_top" xlink:title=" ">
<polygon fill="white" stroke="#666666" points="1028,-159.5 886,-159.5 886,-129.5 1028,-129.5 1028,-159.5"/>
<text text-anchor="start" x="894" y="-147.5" font-family="Helvetica,sans-Serif" font-size="10.00">wmtk::attribute::Accessor</text>
<text text-anchor="middle" x="957" y="-136.5" font-family="Helvetica,sans-Serif" font-size="10.00">::caching_base_type</text>
</a>
</g>
</g>
<!-- Node19&#45;&gt;Node20 -->
<g id="edge21_Node000019_Node000020" class="edge">
<title>Node19&#45;&gt;Node20</title>
<g id="a_edge21_Node000019_Node000020"><a xlink:title=" ">
<path fill="none" stroke="#63b8ff" d="M847.23,-144.5C856.58,-144.5 866.23,-144.5 875.73,-144.5"/>
<polygon fill="#63b8ff" stroke="#63b8ff" points="875.97,-148 885.97,-144.5 875.97,-141 875.97,-148"/>
</a>
</g>
</g>
<!-- Node22 -->
<g id="Node000022" class="node">
<title>Node22</title>
<g id="a_Node000022"><a xlink:href="namespacewmtk.html#a3daa7951a5f8b78cf4600dc047fcc180" target="_top" xlink:title="Setup a logger object to be used by WildmeshToolkit.">
<polygon fill="white" stroke="#666666" points="1007.5,-111 906.5,-111 906.5,-92 1007.5,-92 1007.5,-111"/>
<text text-anchor="middle" x="957" y="-99" font-family="Helvetica,sans-Serif" font-size="10.00">wmtk::set_logger</text>
</a>
</g>
</g>
<!-- Node21&#45;&gt;Node22 -->
<g id="edge23_Node000021_Node000022" class="edge">
<title>Node21&#45;&gt;Node22</title>
<g id="a_edge23_Node000021_Node000022"><a xlink:title=" ">
<path fill="none" stroke="#63b8ff" d="M816.73,-101.5C840.09,-101.5 870.1,-101.5 896.27,-101.5"/>
<polygon fill="#63b8ff" stroke="#63b8ff" points="896.47,-105 906.47,-101.5 896.47,-98 896.47,-105"/>
</a>
</g>
</g>
<!-- Node24 -->
<g id="Node000024" class="node">
<title>Node24</title>
<g id="a_Node000024"><a xlink:href="classwmtk_1_1_tuple.html#a0023f575be92cd5ceeeaaaa3762ea06d" target="_top" xlink:title="Checks if a tuple is &quot;null&quot;. This merely implies the global index is &#45;1.">
<polygon fill="white" stroke="#666666" points="832.5,-74 719.5,-74 719.5,-55 832.5,-55 832.5,-74"/>
<text text-anchor="middle" x="776" y="-62" font-family="Helvetica,sans-Serif" font-size="10.00">wmtk::Tuple::is_null</text>
</a>
</g>
</g>
<!-- Node23&#45;&gt;Node24 -->
<g id="edge25_Node000023_Node000024" class="edge">
<title>Node23&#45;&gt;Node24</title>
<g id="a_edge25_Node000023_Node000024"><a xlink:title=" ">
<path fill="none" stroke="#63b8ff" d="M644.08,-64.5C664.67,-64.5 687.91,-64.5 709.03,-64.5"/>
<polygon fill="#63b8ff" stroke="#63b8ff" points="709.21,-68 719.21,-64.5 709.21,-61 709.21,-68"/>
</a>
</g>
</g>
<!-- Node25 -->
<g id="Node000025" class="node">
<title>Node25</title>
<g id="a_Node000025"><a xlink:href="classwmtk_1_1_mesh.html#ade176d345902d97af8c5da04aa3a095b" target="_top" xlink:title=" ">
<polygon fill="white" stroke="#666666" points="846,-19 706,-19 706,0 846,0 846,-19"/>
<text text-anchor="middle" x="776" y="-7" font-family="Helvetica,sans-Serif" font-size="10.00">wmtk::Mesh::is_removed</text>
</a>
</g>
</g>
<!-- Node23&#45;&gt;Node25 -->
<g id="edge26_Node000023_Node000025" class="edge">
<title>Node23&#45;&gt;Node25</title>
<g id="a_edge26_Node000023_Node000025"><a xlink:title=" ">
<path fill="none" stroke="#63b8ff" d="M618.1,-54.92C649.74,-45.76 697.61,-31.9 732.15,-21.9"/>
<polygon fill="#63b8ff" stroke="#63b8ff" points="733.33,-25.21 741.97,-19.06 731.39,-18.48 733.33,-25.21"/>
</a>
</g>
</g>
<!-- Node25&#45;&gt;Node25 -->
<g id="edge27_Node000025_Node000025" class="edge">
<title>Node25&#45;&gt;Node25</title>
<g id="a_edge27_Node000025_Node000025"><a xlink:title=" ">
<path fill="none" stroke="#63b8ff" d="M748.26,-19.08C734.76,-27.73 744.01,-37 776,-37 797.49,-37 808.72,-32.82 809.68,-27.45"/>
<polygon fill="#63b8ff" stroke="#63b8ff" points="812.39,-25.21 803.74,-19.08 806.68,-29.26 812.39,-25.21"/>
</a>
</g>
</g>
</g>
</svg>

<g id="navigator" transform="translate(0 0)" fill="#404254">
  <rect fill="#f2f5e9" fill-opacity="0.5" stroke="#606060" stroke-width=".5" x="0" y="0" width="60" height="60"/>
  <use id="zoomplus" xlink:href="#zoomPlus" x="17" y="9" onmousedown="handleZoom(evt,'in')"/>
  <use id="zoomminus" xlink:href="#zoomMin" x="42" y="9" onmousedown="handleZoom(evt,'out')"/>
  <use id="reset" xlink:href="#resetDef" x="30" y="36" onmousedown="handleReset()"/>
   <use id="arrowup" xlink:href="#arrowUp" x="0" y="0" onmousedown="handlePan(0,-1)"/>
  <use id="arrowright" xlink:href="#arrowRight" x="0" y="0" onmousedown="handlePan(1,0)"/>
  <use id="arrowdown" xlink:href="#arrowDown" x="0" y="0" onmousedown="handlePan(0,1)"/>
  <use id="arrowleft" xlink:href="#arrowLeft" x="0" y="0" onmousedown="handlePan(-1,0)"/>
</g>
<svg viewBox="0 0 15 15" width="100%" height="30px" preserveAspectRatio="xMaxYMin meet">
 <g id="arrow_out" transform="scale(0.3 0.3)">
  <a xlink:href="classwmtk_1_1_tet_mesh_ab247e83a140cafd3d62e06508ba128c7_cgraph_org.svg" target="_base">
   <rect id="button" ry="5" rx="5" y="6" x="6" height="38" width="38"
        fill="#f2f5e9" fill-opacity="0.5" stroke="#606060" stroke-width="1.0"/>
   <path id="arrow"
     d="M 11.500037,31.436501 C 11.940474,20.09759 22.043105,11.32322 32.158766,21.979434 L 37.068811,17.246167 C 37.068811,17.246167 37.088388,32 37.088388,32 L 22.160133,31.978069 C 22.160133,31.978069 26.997745,27.140456 26.997745,27.140456 C 18.528582,18.264221 13.291696,25.230495 11.500037,31.436501 z"
     style="fill:#404040;"/>
  </a>
 </g>
</svg>

<style type='text/css'>
<![CDATA[
[data-mouse-over-selected='false'] { opacity: 0.7; }
[data-mouse-over-selected='true']  { opacity: 1.0; }
]]>
</style>
<script type="application/ecmascript"><![CDATA[
document.addEventListener('DOMContentLoaded', (event) => {
  highlightEdges();
  highlightAdjacentNodes();
});
]]></script>
</svg>
