<?xml version="1.0" encoding="UTF-8" standalone="no"?>
<!DOCTYPE svg PUBLIC "-//W3C//DTD SVG 1.1//EN"
 "http://www.w3.org/Graphics/SVG/1.1/DTD/svg11.dtd">
<!-- Generated by graphviz version 2.43.0 (0)
 -->
<!-- Title: wmtk::TetMesh::tuple_from_id Pages: 1 -->
<svg width="1349pt" height="475pt"
 viewBox="0.00 0.00 1349.00 474.50" xmlns="http://www.w3.org/2000/svg" xmlns:xlink="http://www.w3.org/1999/xlink">
<g id="graph0" class="graph" transform="scale(1 1) rotate(0) translate(4 470.5)">
<title>wmtk::TetMesh::tuple_from_id</title>
<!-- Node1 -->
<g id="Node000001" class="node">
<title>Node1</title>
<g id="a_Node000001"><a xlink:title="internal function that returns the tuple of requested type, and has the global index cid">
<polygon fill="#999999" stroke="#666666" points="122,-293.5 0,-293.5 0,-263.5 122,-263.5 122,-293.5"/>
<text text-anchor="start" x="8" y="-281.5" font-family="Helvetica,sans-Serif" font-size="10.00">wmtk::TetMesh::tuple</text>
<text text-anchor="middle" x="61" y="-270.5" font-family="Helvetica,sans-Serif" font-size="10.00">_from_id</text>
</a>
</g>
</g>
<!-- Node2 -->
<g id="Node000002" class="node">
<title>Node2</title>
<g id="a_Node000002"><a xlink:href="classwmtk_1_1_tet_mesh.html#a68609916210858129ba39958a273e78e" target="_top" xlink:title=" ">
<polygon fill="white" stroke="#666666" points="282.5,-365.5 161.5,-365.5 161.5,-335.5 282.5,-335.5 282.5,-365.5"/>
<text text-anchor="start" x="169.5" y="-353.5" font-family="Helvetica,sans-Serif" font-size="10.00">wmtk::TetMesh::edge</text>
<text text-anchor="middle" x="222" y="-342.5" font-family="Helvetica,sans-Serif" font-size="10.00">_tuple_from_id</text>
</a>
</g>
</g>
<!-- Node1&#45;&gt;Node2 -->
<g id="edge1_Node000001_Node000002" class="edge">
<title>Node1&#45;&gt;Node2</title>
<g id="a_edge1_Node000001_Node000002"><a xlink:title=" ">
<path fill="none" stroke="#63b8ff" d="M90.21,-293.54C109.15,-303.4 134.8,-316.31 158,-326.5 161.92,-328.22 166,-329.94 170.12,-331.62"/>
<polygon fill="#63b8ff" stroke="#63b8ff" points="169.17,-335.01 179.75,-335.46 171.76,-328.51 169.17,-335.01"/>
</a>
</g>
</g>
<!-- Node27 -->
<g id="Node000027" class="node">
<title>Node27</title>
<g id="a_Node000027"><a xlink:href="classwmtk_1_1_tet_mesh.html#a6d216046ac28a11f7d0fd07f9e090ba3" target="_top" xlink:title=" ">
<polygon fill="white" stroke="#666666" points="281,-317.5 163,-317.5 163,-287.5 281,-287.5 281,-317.5"/>
<text text-anchor="start" x="171" y="-305.5" font-family="Helvetica,sans-Serif" font-size="10.00">wmtk::TetMesh::face</text>
<text text-anchor="middle" x="222" y="-294.5" font-family="Helvetica,sans-Serif" font-size="10.00">_tuple_from_id</text>
</a>
</g>
</g>
<!-- Node1&#45;&gt;Node27 -->
<g id="edge31_Node000001_Node000027" class="edge">
<title>Node1&#45;&gt;Node27</title>
<g id="a_edge31_Node000001_Node000027"><a xlink:title=" ">
<path fill="none" stroke="#63b8ff" d="M122.11,-287.57C132.14,-289.09 142.6,-290.67 152.81,-292.21"/>
<polygon fill="#63b8ff" stroke="#63b8ff" points="152.5,-295.7 162.91,-293.73 153.54,-288.78 152.5,-295.7"/>
</a>
</g>
</g>
<!-- Node28 -->
<g id="Node000028" class="node">
<title>Node28</title>
<g id="a_Node000028"><a xlink:href="classwmtk_1_1_tet_mesh.html#a8e0e56365f9c2cb86588a9d7b1874203" target="_top" xlink:title=" ">
<polygon fill="white" stroke="#666666" points="277,-221.5 167,-221.5 167,-191.5 277,-191.5 277,-221.5"/>
<text text-anchor="start" x="175" y="-209.5" font-family="Helvetica,sans-Serif" font-size="10.00">wmtk::TetMesh::tet</text>
<text text-anchor="middle" x="222" y="-198.5" font-family="Helvetica,sans-Serif" font-size="10.00">_tuple_from_id</text>
</a>
</g>
</g>
<!-- Node1&#45;&gt;Node28 -->
<g id="edge35_Node000001_Node000028" class="edge">
<title>Node1&#45;&gt;Node28</title>
<g id="a_edge35_Node000001_Node000028"><a xlink:title=" ">
<path fill="none" stroke="#63b8ff" d="M90.21,-263.46C109.15,-253.6 134.8,-240.69 158,-230.5 161.92,-228.78 166,-227.06 170.12,-225.38"/>
<polygon fill="#63b8ff" stroke="#63b8ff" points="171.76,-228.49 179.75,-221.54 169.17,-221.99 171.76,-228.49"/>
</a>
</g>
</g>
<!-- Node29 -->
<g id="Node000029" class="node">
<title>Node29</title>
<g id="a_Node000029"><a xlink:href="classwmtk_1_1_tet_mesh.html#ab247e83a140cafd3d62e06508ba128c7" target="_top" xlink:title=" ">
<polygon fill="white" stroke="#666666" points="286,-269.5 158,-269.5 158,-239.5 286,-239.5 286,-269.5"/>
<text text-anchor="start" x="166" y="-257.5" font-family="Helvetica,sans-Serif" font-size="10.00">wmtk::TetMesh::vertex</text>
<text text-anchor="middle" x="222" y="-246.5" font-family="Helvetica,sans-Serif" font-size="10.00">_tuple_from_id</text>
</a>
</g>
</g>
<!-- Node1&#45;&gt;Node29 -->
<g id="edge38_Node000001_Node000029" class="edge">
<title>Node1&#45;&gt;Node29</title>
<g id="a_edge38_Node000001_Node000029"><a xlink:title=" ">
<path fill="none" stroke="#63b8ff" d="M122.11,-269.43C130.52,-268.16 139.23,-266.84 147.85,-265.54"/>
<polygon fill="#63b8ff" stroke="#63b8ff" points="148.52,-268.98 157.89,-264.03 147.48,-262.06 148.52,-268.98"/>
</a>
</g>
</g>
<!-- Node3 -->
<g id="Node000003" class="node">
<title>Node3</title>
<g id="a_Node000003"><a xlink:href="classwmtk_1_1_tet_mesh.html#aa8424e5e4d709981e9e10d659f87f97d" target="_top" xlink:title=" ">
<polygon fill="white" stroke="#666666" points="439.5,-349 333.5,-349 333.5,-330 439.5,-330 439.5,-349"/>
<text text-anchor="middle" x="386.5" y="-337" font-family="Helvetica,sans-Serif" font-size="10.00">wmtk::TetMesh::id</text>
</a>
</g>
</g>
<!-- Node2&#45;&gt;Node3 -->
<g id="edge2_Node000002_Node000003" class="edge">
<title>Node2&#45;&gt;Node3</title>
<g id="a_edge2_Node000002_Node000003"><a xlink:title=" ">
<path fill="none" stroke="#63b8ff" d="M282.59,-346.47C295.87,-345.57 309.98,-344.61 323.36,-343.71"/>
<polygon fill="#63b8ff" stroke="#63b8ff" points="323.69,-347.19 333.43,-343.02 323.21,-340.21 323.69,-347.19"/>
</a>
</g>
</g>
<!-- Node4 -->
<g id="Node000004" class="node">
<title>Node4</title>
<g id="a_Node000004"><a xlink:href="classwmtk_1_1_tet_mesh.html#a9a30d64d4b874e9bb156e6c771e7f08c" target="_top" xlink:title="returns if a tuple is counterclockwise or not">
<polygon fill="white" stroke="#666666" points="451,-312 322,-312 322,-293 451,-293 451,-312"/>
<text text-anchor="middle" x="386.5" y="-300" font-family="Helvetica,sans-Serif" font-size="10.00">wmtk::TetMesh::is_ccw</text>
</a>
</g>
</g>
<!-- Node2&#45;&gt;Node4 -->
<g id="edge3_Node000002_Node000004" class="edge">
<title>Node2&#45;&gt;Node4</title>
<g id="a_edge3_Node000002_Node000004"><a xlink:title=" ">
<path fill="none" stroke="#63b8ff" d="M273.97,-335.44C296.31,-328.85 322.21,-321.2 343.43,-314.93"/>
<polygon fill="#63b8ff" stroke="#63b8ff" points="344.52,-318.25 353.12,-312.06 342.54,-311.54 344.52,-318.25"/>
</a>
</g>
</g>
<!-- Node11 -->
<g id="Node000011" class="node">
<title>Node11</title>
<g id="a_Node000011"><a xlink:href="classwmtk_1_1_tet_mesh.html#af07828ce32b19a3d5fc8e1cb6f365029" target="_top" xlink:title="check validity of tuple including its hash">
<polygon fill="white" stroke="#666666" points="621,-262 487,-262 487,-243 621,-243 621,-262"/>
<text text-anchor="middle" x="554" y="-250" font-family="Helvetica,sans-Serif" font-size="10.00">wmtk::TetMesh::is_valid</text>
</a>
</g>
</g>
<!-- Node2&#45;&gt;Node11 -->
<g id="edge30_Node000002_Node000011" class="edge">
<title>Node2&#45;&gt;Node11</title>
<g id="a_edge30_Node000002_Node000011"><a xlink:title=" ">
<path fill="none" stroke="#63b8ff" d="M267.72,-365.59C316.48,-379.14 395.01,-392.21 451,-358.5 480.3,-340.86 463.25,-315.11 487,-290.5 496.42,-280.74 508.89,-272.7 520.45,-266.57"/>
<polygon fill="#63b8ff" stroke="#63b8ff" points="522.07,-269.67 529.45,-262.07 518.94,-263.41 522.07,-269.67"/>
</a>
</g>
</g>
<!-- Node5 -->
<g id="Node000005" class="node">
<title>Node5</title>
<g id="a_Node000005"><a xlink:href="namespacewmtk_1_1autogen_1_1tet__mesh.html#a4243da89f13477619412eb6b6820fd7f" target="_top" xlink:title=" ">
<polygon fill="white" stroke="#666666" points="609,-329.5 499,-329.5 499,-299.5 609,-299.5 609,-329.5"/>
<text text-anchor="start" x="507" y="-317.5" font-family="Helvetica,sans-Serif" font-size="10.00">wmtk::autogen::tet</text>
<text text-anchor="middle" x="554" y="-306.5" font-family="Helvetica,sans-Serif" font-size="10.00">_mesh::is_ccw</text>
</a>
</g>
</g>
<!-- Node4&#45;&gt;Node5 -->
<g id="edge4_Node000004_Node000005" class="edge">
<title>Node4&#45;&gt;Node5</title>
<g id="a_edge4_Node000004_Node000005"><a xlink:title=" ">
<path fill="none" stroke="#63b8ff" d="M451.01,-307.11C463.33,-308 476.26,-308.94 488.6,-309.83"/>
<polygon fill="#63b8ff" stroke="#63b8ff" points="488.59,-313.34 498.82,-310.57 489.1,-306.36 488.59,-313.34"/>
</a>
</g>
</g>
<!-- Node4&#45;&gt;Node11 -->
<g id="edge11_Node000004_Node000011" class="edge">
<title>Node4&#45;&gt;Node11</title>
<g id="a_edge11_Node000004_Node000011"><a xlink:title=" ">
<path fill="none" stroke="#63b8ff" d="M419.02,-292.98C445.28,-285.04 482.88,-273.68 511.57,-265.02"/>
<polygon fill="#63b8ff" stroke="#63b8ff" points="512.76,-268.31 521.32,-262.07 510.73,-261.61 512.76,-268.31"/>
</a>
</g>
</g>
<!-- Node6 -->
<g id="Node000006" class="node">
<title>Node6</title>
<g id="a_Node000006"><a xlink:href="namespacewmtk_1_1autogen_1_1tet__mesh.html#ace6b80b1be9aec0d6a5ac5d144b40965" target="_top" xlink:title=" ">
<polygon fill="white" stroke="#666666" points="995,-424 873,-424 873,-383 995,-383 995,-424"/>
<text text-anchor="start" x="881" y="-412" font-family="Helvetica,sans-Serif" font-size="10.00">wmtk::autogen::tet</text>
<text text-anchor="start" x="881" y="-401" font-family="Helvetica,sans-Serif" font-size="10.00">_mesh::local_id_table</text>
<text text-anchor="middle" x="934" y="-390" font-family="Helvetica,sans-Serif" font-size="10.00">_offset</text>
</a>
</g>
</g>
<!-- Node5&#45;&gt;Node6 -->
<g id="edge5_Node000005_Node000006" class="edge">
<title>Node5&#45;&gt;Node6</title>
<g id="a_edge5_Node000005_Node000006"><a xlink:title=" ">
<path fill="none" stroke="#63b8ff" d="M603.31,-329.52C620.21,-334.56 639.38,-340.03 657,-344.5 726.67,-362.17 807.12,-378.96 863.12,-390.08"/>
<polygon fill="#63b8ff" stroke="#63b8ff" points="862.45,-393.51 872.94,-392.02 863.81,-386.65 862.45,-393.51"/>
</a>
</g>
</g>
<!-- Node10 -->
<g id="Node000010" class="node">
<title>Node10</title>
<g id="a_Node000010"><a xlink:href="namespacewmtk_1_1autogen_1_1tet__mesh.html#a217b7c5c5312a716ad27c99abcfc0eb1" target="_top" xlink:title=" ">
<polygon fill="white" stroke="#666666" points="803,-335 681,-335 681,-294 803,-294 803,-335"/>
<text text-anchor="start" x="689" y="-323" font-family="Helvetica,sans-Serif" font-size="10.00">wmtk::autogen::tet</text>
<text text-anchor="start" x="689" y="-312" font-family="Helvetica,sans-Serif" font-size="10.00">_mesh::tuple_is_valid</text>
<text text-anchor="middle" x="742" y="-301" font-family="Helvetica,sans-Serif" font-size="10.00">_for_ccw</text>
</a>
</g>
</g>
<!-- Node5&#45;&gt;Node10 -->
<g id="edge9_Node000005_Node000010" class="edge">
<title>Node5&#45;&gt;Node10</title>
<g id="a_edge9_Node000005_Node000010"><a xlink:title=" ">
<path fill="none" stroke="#63b8ff" d="M609.05,-314.5C628.32,-314.5 650.31,-314.5 670.74,-314.5"/>
<polygon fill="#63b8ff" stroke="#63b8ff" points="670.94,-318 680.94,-314.5 670.94,-311 670.94,-318"/>
</a>
</g>
</g>
<!-- Node7 -->
<g id="Node000007" class="node">
<title>Node7</title>
<g id="a_Node000007"><a xlink:href="classwmtk_1_1utils_1_1_tuple_inspector.html#a3a04acf16e0eff80ade8e0fb8753ac1b" target="_top" xlink:title=" ">
<polygon fill="white" stroke="#666666" points="1189,-466.5 1041,-466.5 1041,-436.5 1189,-436.5 1189,-466.5"/>
<text text-anchor="start" x="1049" y="-454.5" font-family="Helvetica,sans-Serif" font-size="10.00">wmtk::utils::TupleInspector</text>
<text text-anchor="middle" x="1115" y="-443.5" font-family="Helvetica,sans-Serif" font-size="10.00">::local_eid</text>
</a>
</g>
</g>
<!-- Node6&#45;&gt;Node7 -->
<g id="edge6_Node000006_Node000007" class="edge">
<title>Node6&#45;&gt;Node7</title>
<g id="a_edge6_Node000006_Node000007"><a xlink:title=" ">
<path fill="none" stroke="#63b8ff" d="M995.1,-419.62C1012.08,-424.17 1030.65,-429.15 1047.96,-433.79"/>
<polygon fill="#63b8ff" stroke="#63b8ff" points="1047.42,-437.27 1057.98,-436.48 1049.23,-430.51 1047.42,-437.27"/>
</a>
</g>
</g>
<!-- Node8 -->
<g id="Node000008" class="node">
<title>Node8</title>
<g id="a_Node000008"><a xlink:href="classwmtk_1_1utils_1_1_tuple_inspector.html#ae4f5c770f4a2f9440eef24448929432d" target="_top" xlink:title=" ">
<polygon fill="white" stroke="#666666" points="1189,-418.5 1041,-418.5 1041,-388.5 1189,-388.5 1189,-418.5"/>
<text text-anchor="start" x="1049" y="-406.5" font-family="Helvetica,sans-Serif" font-size="10.00">wmtk::utils::TupleInspector</text>
<text text-anchor="middle" x="1115" y="-395.5" font-family="Helvetica,sans-Serif" font-size="10.00">::local_fid</text>
</a>
</g>
</g>
<!-- Node6&#45;&gt;Node8 -->
<g id="edge7_Node000006_Node000008" class="edge">
<title>Node6&#45;&gt;Node8</title>
<g id="a_edge7_Node000006_Node000008"><a xlink:title=" ">
<path fill="none" stroke="#63b8ff" d="M995.1,-403.5C1006.53,-403.5 1018.67,-403.5 1030.67,-403.5"/>
<polygon fill="#63b8ff" stroke="#63b8ff" points="1030.69,-407 1040.69,-403.5 1030.69,-400 1030.69,-407"/>
</a>
</g>
</g>
<!-- Node9 -->
<g id="Node000009" class="node">
<title>Node9</title>
<g id="a_Node000009"><a xlink:href="classwmtk_1_1utils_1_1_tuple_inspector.html#a92f5faa08a7f78424f5cd1ec79dcedbb" target="_top" xlink:title=" ">
<polygon fill="white" stroke="#666666" points="1189,-370.5 1041,-370.5 1041,-340.5 1189,-340.5 1189,-370.5"/>
<text text-anchor="start" x="1049" y="-358.5" font-family="Helvetica,sans-Serif" font-size="10.00">wmtk::utils::TupleInspector</text>
<text text-anchor="middle" x="1115" y="-347.5" font-family="Helvetica,sans-Serif" font-size="10.00">::local_vid</text>
</a>
</g>
</g>
<!-- Node6&#45;&gt;Node9 -->
<g id="edge8_Node000006_Node000009" class="edge">
<title>Node6&#45;&gt;Node9</title>
<g id="a_edge8_Node000006_Node000009"><a xlink:title=" ">
<path fill="none" stroke="#63b8ff" d="M995.1,-387.38C1012.08,-382.83 1030.65,-377.85 1047.96,-373.21"/>
<polygon fill="#63b8ff" stroke="#63b8ff" points="1049.23,-376.49 1057.98,-370.52 1047.42,-369.73 1049.23,-376.49"/>
</a>
</g>
</g>
<!-- Node10&#45;&gt;Node6 -->
<g id="edge10_Node000010_Node000006" class="edge">
<title>Node10&#45;&gt;Node6</title>
<g id="a_edge10_Node000010_Node000006"><a xlink:title=" ">
<path fill="none" stroke="#63b8ff" d="M782.39,-335.08C805.64,-347 835.77,-362.07 863,-374.5 866.15,-375.94 869.39,-377.38 872.66,-378.82"/>
<polygon fill="#63b8ff" stroke="#63b8ff" points="871.4,-382.09 881.97,-382.85 874.18,-375.67 871.4,-382.09"/>
</a>
</g>
</g>
<!-- Node11&#45;&gt;Node10 -->
<g id="edge29_Node000011_Node000010" class="edge">
<title>Node11&#45;&gt;Node10</title>
<g id="a_edge29_Node000011_Node000010"><a xlink:title=" ">
<path fill="none" stroke="#63b8ff" d="M583.65,-262.05C606.92,-269.81 640.72,-281.07 671.03,-291.18"/>
<polygon fill="#63b8ff" stroke="#63b8ff" points="670.14,-294.57 680.74,-294.41 672.36,-287.93 670.14,-294.57"/>
</a>
</g>
</g>
<!-- Node12 -->
<g id="Node000012" class="node">
<title>Node12</title>
<g id="a_Node000012"><a xlink:href="classwmtk_1_1_tet_mesh.html#ad4ba72346d616d38086be74705865e55" target="_top" xlink:title=" ">
<polygon fill="white" stroke="#666666" points="827,-262.5 657,-262.5 657,-232.5 827,-232.5 827,-262.5"/>
<text text-anchor="start" x="665" y="-250.5" font-family="Helvetica,sans-Serif" font-size="10.00">wmtk::TetMesh::is_connectivity</text>
<text text-anchor="middle" x="742" y="-239.5" font-family="Helvetica,sans-Serif" font-size="10.00">_valid</text>
</a>
</g>
</g>
<!-- Node11&#45;&gt;Node12 -->
<g id="edge12_Node000011_Node000012" class="edge">
<title>Node11&#45;&gt;Node12</title>
<g id="a_edge12_Node000011_Node000012"><a xlink:title=" ">
<path fill="none" stroke="#63b8ff" d="M621.1,-250.72C629.43,-250.5 638.08,-250.27 646.74,-250.03"/>
<polygon fill="#63b8ff" stroke="#63b8ff" points="646.99,-253.53 656.89,-249.76 646.8,-246.53 646.99,-253.53"/>
</a>
</g>
</g>
<!-- Node24 -->
<g id="Node000024" class="node">
<title>Node24</title>
<g id="a_Node000024"><a xlink:href="classwmtk_1_1_mesh.html#a8cc8686f0688613806f43720b6db49e7" target="_top" xlink:title="check validity of tuple including its hash">
<polygon fill="white" stroke="#666666" points="802,-56 682,-56 682,-37 802,-37 802,-56"/>
<text text-anchor="middle" x="742" y="-44" font-family="Helvetica,sans-Serif" font-size="10.00">wmtk::Mesh::is_valid</text>
</a>
</g>
</g>
<!-- Node11&#45;&gt;Node24 -->
<g id="edge25_Node000011_Node000024" class="edge">
<title>Node11&#45;&gt;Node24</title>
<g id="a_edge25_Node000011_Node000024"><a xlink:title=" ">
<path fill="none" stroke="#63b8ff" d="M563.72,-242.84C592.94,-210.48 687.68,-105.56 725.34,-63.84"/>
<polygon fill="#63b8ff" stroke="#63b8ff" points="727.98,-66.15 732.08,-56.38 722.78,-61.45 727.98,-66.15"/>
</a>
</g>
</g>
<!-- Node13 -->
<g id="Node000013" class="node">
<title>Node13</title>
<g id="a_Node000013"><a xlink:href="classwmtk_1_1_mesh.html#a3e8ff83c4a5526a40d18bb9883c6c6c9" target="_top" xlink:title="read in the m_capacities return the upper bound for the number of entities of the given dimension">
<polygon fill="white" stroke="#666666" points="1177,-219 1053,-219 1053,-200 1177,-200 1177,-219"/>
<text text-anchor="middle" x="1115" y="-207" font-family="Helvetica,sans-Serif" font-size="10.00">wmtk::Mesh::capacity</text>
</a>
</g>
</g>
<!-- Node12&#45;&gt;Node13 -->
<g id="edge13_Node000012_Node000013" class="edge">
<title>Node12&#45;&gt;Node13</title>
<g id="a_edge13_Node000012_Node000013"><a xlink:title=" ">
<path fill="none" stroke="#63b8ff" d="M827.13,-233.29C839.15,-231.52 851.37,-229.86 863,-228.5 923.4,-221.44 992.31,-216.44 1042.62,-213.35"/>
<polygon fill="#63b8ff" stroke="#63b8ff" points="1042.98,-216.84 1052.75,-212.74 1042.55,-209.85 1042.98,-216.84"/>
</a>
</g>
</g>
<!-- Node15 -->
<g id="Node000015" class="node">
<title>Node15</title>
<g id="a_Node000015"><a xlink:href="classwmtk_1_1attribute_1_1_caching_accessor.html#a196b6b32e2495b971113d552be7f45d9" target="_top" xlink:title=" ">
<polygon fill="white" stroke="#666666" points="1002.5,-133 865.5,-133 865.5,-92 1002.5,-92 1002.5,-133"/>
<text text-anchor="start" x="873.5" y="-121" font-family="Helvetica,sans-Serif" font-size="10.00">wmtk::attribute::Caching</text>
<text text-anchor="start" x="873.5" y="-110" font-family="Helvetica,sans-Serif" font-size="10.00">Accessor::const_scalar</text>
<text text-anchor="middle" x="934" y="-99" font-family="Helvetica,sans-Serif" font-size="10.00">_attribute</text>
</a>
</g>
</g>
<!-- Node12&#45;&gt;Node15 -->
<g id="edge15_Node000012_Node000015" class="edge">
<title>Node12&#45;&gt;Node15</title>
<g id="a_edge15_Node000012_Node000015"><a xlink:title=" ">
<path fill="none" stroke="#63b8ff" d="M757.3,-232.25C778.64,-210.17 820.83,-169.05 863,-142.5 865.6,-140.86 868.31,-139.27 871.08,-137.74"/>
<polygon fill="#63b8ff" stroke="#63b8ff" points="872.85,-140.76 880.1,-133.04 869.61,-134.56 872.85,-140.76"/>
</a>
</g>
</g>
<!-- Node16 -->
<g id="Node000016" class="node">
<title>Node16</title>
<g id="a_Node000016"><a xlink:href="classwmtk_1_1attribute_1_1_caching_accessor.html#ab850fe07669c7bc92ca6cf6e86c60ee0" target="_top" xlink:title=" ">
<polygon fill="white" stroke="#666666" points="1002.5,-365 865.5,-365 865.5,-324 1002.5,-324 1002.5,-365"/>
<text text-anchor="start" x="873.5" y="-353" font-family="Helvetica,sans-Serif" font-size="10.00">wmtk::attribute::Caching</text>
<text text-anchor="start" x="873.5" y="-342" font-family="Helvetica,sans-Serif" font-size="10.00">Accessor::const_vector</text>
<text text-anchor="middle" x="934" y="-331" font-family="Helvetica,sans-Serif" font-size="10.00">_attribute</text>
</a>
</g>
</g>
<!-- Node12&#45;&gt;Node16 -->
<g id="edge16_Node000012_Node000016" class="edge">
<title>Node12&#45;&gt;Node16</title>
<g id="a_edge16_Node000012_Node000016"><a xlink:title=" ">
<path fill="none" stroke="#63b8ff" d="M781.68,-262.56C796.3,-268.87 812.82,-276.78 827,-285.5 844.5,-296.26 845.39,-303.91 863,-314.5 865.78,-316.17 868.66,-317.79 871.61,-319.37"/>
<polygon fill="#63b8ff" stroke="#63b8ff" points="870.1,-322.53 880.6,-323.93 873.27,-316.28 870.1,-322.53"/>
</a>
</g>
</g>
<!-- Node17 -->
<g id="Node000017" class="node">
<title>Node17</title>
<g id="a_Node000017"><a xlink:href="classwmtk_1_1_mesh.html#ae0e8f71e9e17a90be9423117efcc4c81" target="_top" xlink:title=" ">
<polygon fill="white" stroke="#666666" points="995,-181.5 873,-181.5 873,-151.5 995,-151.5 995,-181.5"/>
<text text-anchor="start" x="881" y="-169.5" font-family="Helvetica,sans-Serif" font-size="10.00">wmtk::Mesh::get_flag</text>
<text text-anchor="middle" x="934" y="-158.5" font-family="Helvetica,sans-Serif" font-size="10.00">_accessor</text>
</a>
</g>
</g>
<!-- Node12&#45;&gt;Node17 -->
<g id="edge17_Node000012_Node000017" class="edge">
<title>Node12&#45;&gt;Node17</title>
<g id="a_edge17_Node000012_Node000017"><a xlink:title=" ">
<path fill="none" stroke="#63b8ff" d="M777.33,-232.45C801.3,-221.98 834.05,-207.77 863,-195.5 870.75,-192.22 878.99,-188.76 887.01,-185.43"/>
<polygon fill="#63b8ff" stroke="#63b8ff" points="888.37,-188.66 896.26,-181.59 885.68,-182.19 888.37,-188.66"/>
</a>
</g>
</g>
<!-- Node20 -->
<g id="Node000020" class="node">
<title>Node20</title>
<g id="a_Node000020"><a xlink:href="classwmtk_1_1attribute_1_1_accessor.html#a2d587e12c47a6d839ab80e9198cf75b5" target="_top" xlink:title=" ">
<polygon fill="white" stroke="#666666" points="1005,-305.5 863,-305.5 863,-275.5 1005,-275.5 1005,-305.5"/>
<text text-anchor="start" x="871" y="-293.5" font-family="Helvetica,sans-Serif" font-size="10.00">wmtk::attribute::Accessor</text>
<text text-anchor="middle" x="934" y="-282.5" font-family="Helvetica,sans-Serif" font-size="10.00">::index_access</text>
</a>
</g>
</g>
<!-- Node12&#45;&gt;Node20 -->
<g id="edge21_Node000012_Node000020" class="edge">
<title>Node12&#45;&gt;Node20</title>
<g id="a_edge21_Node000012_Node000020"><a xlink:title=" ">
<path fill="none" stroke="#63b8ff" d="M809.45,-262.54C824.64,-265.98 840.9,-269.66 856.47,-273.18"/>
<polygon fill="#63b8ff" stroke="#63b8ff" points="856.06,-276.68 866.58,-275.47 857.6,-269.85 856.06,-276.68"/>
</a>
</g>
</g>
<!-- Node22 -->
<g id="Node000022" class="node">
<title>Node22</title>
<g id="a_Node000022"><a xlink:href="namespacewmtk.html#a6a35f11c12436093d26fdd8be6fecc06" target="_top" xlink:title="Retrieves the current logger.">
<polygon fill="white" stroke="#666666" points="974.5,-257 893.5,-257 893.5,-238 974.5,-238 974.5,-257"/>
<text text-anchor="middle" x="934" y="-245" font-family="Helvetica,sans-Serif" font-size="10.00">wmtk::logger</text>
</a>
</g>
</g>
<!-- Node12&#45;&gt;Node22 -->
<g id="edge23_Node000012_Node000022" class="edge">
<title>Node12&#45;&gt;Node22</title>
<g id="a_edge23_Node000012_Node000022"><a xlink:title=" ">
<path fill="none" stroke="#63b8ff" d="M827.17,-247.5C846.24,-247.5 865.9,-247.5 883.02,-247.5"/>
<polygon fill="#63b8ff" stroke="#63b8ff" points="883.33,-251 893.33,-247.5 883.33,-244 883.33,-251"/>
</a>
</g>
</g>
<!-- Node14 -->
<g id="Node000014" class="node">
<title>Node14</title>
<g id="a_Node000014"><a xlink:href="namespacewmtk.html#a5cf45c152e856196bb734c6f48919a24" target="_top" xlink:title="Get a unique integer id corresponding to each primitive type.">
<polygon fill="white" stroke="#666666" points="1341,-224.5 1225,-224.5 1225,-194.5 1341,-194.5 1341,-224.5"/>
<text text-anchor="start" x="1233" y="-212.5" font-family="Helvetica,sans-Serif" font-size="10.00">wmtk::get_primitive</text>
<text text-anchor="middle" x="1283" y="-201.5" font-family="Helvetica,sans-Serif" font-size="10.00">_type_id</text>
</a>
</g>
</g>
<!-- Node13&#45;&gt;Node14 -->
<g id="edge14_Node000013_Node000014" class="edge">
<title>Node13&#45;&gt;Node14</title>
<g id="a_edge14_Node000013_Node000014"><a xlink:title=" ">
<path fill="none" stroke="#63b8ff" d="M1177.34,-209.5C1189.46,-209.5 1202.25,-209.5 1214.56,-209.5"/>
<polygon fill="#63b8ff" stroke="#63b8ff" points="1214.76,-213 1224.76,-209.5 1214.76,-206 1214.76,-213"/>
</a>
</g>
</g>
<!-- Node18 -->
<g id="Node000018" class="node">
<title>Node18</title>
<g id="a_Node000018"><a xlink:href="classwmtk_1_1_mesh.html#a6dbab927a2ee85f77a87f075fd5c1d94" target="_top" xlink:title=" ">
<polygon fill="white" stroke="#666666" points="1180,-181.5 1050,-181.5 1050,-151.5 1180,-151.5 1180,-181.5"/>
<text text-anchor="start" x="1058" y="-169.5" font-family="Helvetica,sans-Serif" font-size="10.00">wmtk::Mesh::get_const</text>
<text text-anchor="middle" x="1115" y="-158.5" font-family="Helvetica,sans-Serif" font-size="10.00">_flag_accessor</text>
</a>
</g>
</g>
<!-- Node17&#45;&gt;Node18 -->
<g id="edge18_Node000017_Node000018" class="edge">
<title>Node17&#45;&gt;Node18</title>
<g id="a_edge18_Node000017_Node000018"><a xlink:title=" ">
<path fill="none" stroke="#63b8ff" d="M995.1,-166.5C1009.38,-166.5 1024.78,-166.5 1039.61,-166.5"/>
<polygon fill="#63b8ff" stroke="#63b8ff" points="1039.76,-170 1049.76,-166.5 1039.76,-163 1039.76,-170"/>
</a>
</g>
</g>
<!-- Node18&#45;&gt;Node14 -->
<g id="edge20_Node000018_Node000014" class="edge">
<title>Node18&#45;&gt;Node14</title>
<g id="a_edge20_Node000018_Node000014"><a xlink:title=" ">
<path fill="none" stroke="#63b8ff" d="M1174.06,-181.54C1187.3,-184.97 1201.47,-188.64 1215.05,-192.16"/>
<polygon fill="#63b8ff" stroke="#63b8ff" points="1214.26,-195.57 1224.81,-194.69 1216.01,-188.79 1214.26,-195.57"/>
</a>
</g>
</g>
<!-- Node19 -->
<g id="Node000019" class="node">
<title>Node19</title>
<g id="a_Node000019"><a xlink:href="classwmtk_1_1_mesh.html#a357182137d99f1e4a7ff536eadfc0e56" target="_top" xlink:title=" ">
<polygon fill="white" stroke="#666666" points="1339.5,-176.5 1226.5,-176.5 1226.5,-146.5 1339.5,-146.5 1339.5,-176.5"/>
<text text-anchor="start" x="1234.5" y="-164.5" font-family="Helvetica,sans-Serif" font-size="10.00">wmtk::Mesh::create</text>
<text text-anchor="middle" x="1283" y="-153.5" font-family="Helvetica,sans-Serif" font-size="10.00">_const_accessor</text>
</a>
</g>
</g>
<!-- Node18&#45;&gt;Node19 -->
<g id="edge19_Node000018_Node000019" class="edge">
<title>Node18&#45;&gt;Node19</title>
<g id="a_edge19_Node000018_Node000019"><a xlink:title=" ">
<path fill="none" stroke="#63b8ff" d="M1180.18,-164.57C1191.96,-164.21 1204.28,-163.84 1216.12,-163.48"/>
<polygon fill="#63b8ff" stroke="#63b8ff" points="1216.47,-166.98 1226.36,-163.18 1216.26,-159.98 1216.47,-166.98"/>
</a>
</g>
</g>
<!-- Node21 -->
<g id="Node000021" class="node">
<title>Node21</title>
<g id="a_Node000021"><a xlink:href="classwmtk_1_1attribute_1_1_accessor.html#afd97a48ec5d1db975a030428df81f617" target="_top" xlink:title=" ">
<polygon fill="white" stroke="#666666" points="1186,-305.5 1044,-305.5 1044,-275.5 1186,-275.5 1186,-305.5"/>
<text text-anchor="start" x="1052" y="-293.5" font-family="Helvetica,sans-Serif" font-size="10.00">wmtk::attribute::Accessor</text>
<text text-anchor="middle" x="1115" y="-282.5" font-family="Helvetica,sans-Serif" font-size="10.00">::caching_base_type</text>
</a>
</g>
</g>
<!-- Node20&#45;&gt;Node21 -->
<g id="edge22_Node000020_Node000021" class="edge">
<title>Node20&#45;&gt;Node21</title>
<g id="a_edge22_Node000020_Node000021"><a xlink:title=" ">
<path fill="none" stroke="#63b8ff" d="M1005.23,-290.5C1014.58,-290.5 1024.23,-290.5 1033.73,-290.5"/>
<polygon fill="#63b8ff" stroke="#63b8ff" points="1033.97,-294 1043.97,-290.5 1033.97,-287 1033.97,-294"/>
</a>
</g>
</g>
<!-- Node23 -->
<g id="Node000023" class="node">
<title>Node23</title>
<g id="a_Node000023"><a xlink:href="namespacewmtk.html#a3daa7951a5f8b78cf4600dc047fcc180" target="_top" xlink:title="Setup a logger object to be used by WildmeshToolkit.">
<polygon fill="white" stroke="#666666" points="1165.5,-257 1064.5,-257 1064.5,-238 1165.5,-238 1165.5,-257"/>
<text text-anchor="middle" x="1115" y="-245" font-family="Helvetica,sans-Serif" font-size="10.00">wmtk::set_logger</text>
</a>
</g>
</g>
<!-- Node22&#45;&gt;Node23 -->
<g id="edge24_Node000022_Node000023" class="edge">
<title>Node22&#45;&gt;Node23</title>
<g id="a_edge24_Node000022_Node000023"><a xlink:title=" ">
<path fill="none" stroke="#63b8ff" d="M974.73,-247.5C998.09,-247.5 1028.1,-247.5 1054.27,-247.5"/>
<polygon fill="#63b8ff" stroke="#63b8ff" points="1054.47,-251 1064.47,-247.5 1054.47,-244 1054.47,-251"/>
</a>
</g>
</g>
<!-- Node25 -->
<g id="Node000025" class="node">
<title>Node25</title>
<g id="a_Node000025"><a xlink:href="classwmtk_1_1_tuple.html#a0023f575be92cd5ceeeaaaa3762ea06d" target="_top" xlink:title="Checks if a tuple is &quot;null&quot;. This merely implies the global index is &#45;1.">
<polygon fill="white" stroke="#666666" points="990.5,-19 877.5,-19 877.5,0 990.5,0 990.5,-19"/>
<text text-anchor="middle" x="934" y="-7" font-family="Helvetica,sans-Serif" font-size="10.00">wmtk::Tuple::is_null</text>
</a>
</g>
</g>
<!-- Node24&#45;&gt;Node25 -->
<g id="edge26_Node000024_Node000025" class="edge">
<title>Node24&#45;&gt;Node25</title>
<g id="a_edge26_Node000024_Node000025"><a xlink:title=" ">
<path fill="none" stroke="#63b8ff" d="M791.93,-36.97C816.99,-32.09 847.68,-26.11 874.04,-20.98"/>
<polygon fill="#63b8ff" stroke="#63b8ff" points="874.76,-24.41 883.91,-19.06 873.42,-17.54 874.76,-24.41"/>
</a>
</g>
</g>
<!-- Node26 -->
<g id="Node000026" class="node">
<title>Node26</title>
<g id="a_Node000026"><a xlink:href="classwmtk_1_1_mesh.html#ade176d345902d97af8c5da04aa3a095b" target="_top" xlink:title=" ">
<polygon fill="white" stroke="#666666" points="1004,-56 864,-56 864,-37 1004,-37 1004,-56"/>
<text text-anchor="middle" x="934" y="-44" font-family="Helvetica,sans-Serif" font-size="10.00">wmtk::Mesh::is_removed</text>
</a>
</g>
</g>
<!-- Node24&#45;&gt;Node26 -->
<g id="edge27_Node000024_Node000026" class="edge">
<title>Node24&#45;&gt;Node26</title>
<g id="a_edge27_Node000024_Node000026"><a xlink:title=" ">
<path fill="none" stroke="#63b8ff" d="M802.08,-46.5C818.47,-46.5 836.53,-46.5 853.87,-46.5"/>
<polygon fill="#63b8ff" stroke="#63b8ff" points="853.98,-50 863.98,-46.5 853.98,-43 853.98,-50"/>
</a>
</g>
</g>
<!-- Node26&#45;&gt;Node26 -->
<g id="edge28_Node000026_Node000026" class="edge">
<title>Node26&#45;&gt;Node26</title>
<g id="a_edge28_Node000026_Node000026"><a xlink:title=" ">
<path fill="none" stroke="#63b8ff" d="M906.26,-56.08C892.76,-64.73 902.01,-74 934,-74 955.49,-74 966.72,-69.82 967.68,-64.45"/>
<polygon fill="#63b8ff" stroke="#63b8ff" points="970.39,-62.21 961.74,-56.08 964.68,-66.26 970.39,-62.21"/>
</a>
</g>
</g>
<!-- Node27&#45;&gt;Node3 -->
<g id="edge32_Node000027_Node000003" class="edge">
<title>Node27&#45;&gt;Node3</title>
<g id="a_edge32_Node000027_Node000003"><a xlink:title=" ">
<path fill="none" stroke="#63b8ff" d="M281.21,-315.75C298.33,-319.65 316.93,-323.89 333.63,-327.69"/>
<polygon fill="#63b8ff" stroke="#63b8ff" points="333.22,-331.19 343.75,-329.99 334.77,-324.36 333.22,-331.19"/>
</a>
</g>
</g>
<!-- Node27&#45;&gt;Node4 -->
<g id="edge33_Node000027_Node000004" class="edge">
<title>Node27&#45;&gt;Node4</title>
<g id="a_edge33_Node000027_Node000004"><a xlink:title=" ">
<path fill="none" stroke="#63b8ff" d="M281.21,-302.5C291.11,-302.5 301.51,-302.5 311.75,-302.5"/>
<polygon fill="#63b8ff" stroke="#63b8ff" points="311.92,-306 321.92,-302.5 311.92,-299 311.92,-306"/>
</a>
</g>
</g>
<!-- Node27&#45;&gt;Node11 -->
<g id="edge34_Node000027_Node000011" class="edge">
<title>Node27&#45;&gt;Node11</title>
<g id="a_edge34_Node000027_Node000011"><a xlink:title=" ">
<path fill="none" stroke="#63b8ff" d="M281.04,-291.52C294.47,-289.1 308.72,-286.63 322,-284.5 373.57,-276.24 431.82,-268.18 476.92,-262.22"/>
<polygon fill="#63b8ff" stroke="#63b8ff" points="477.47,-265.68 486.92,-260.9 476.55,-258.74 477.47,-265.68"/>
</a>
</g>
</g>
<!-- Node28&#45;&gt;Node4 -->
<g id="edge36_Node000028_Node000004" class="edge">
<title>Node28&#45;&gt;Node4</title>
<g id="a_edge36_Node000028_Node000004"><a xlink:title=" ">
<path fill="none" stroke="#63b8ff" d="M267.04,-221.57C273.53,-224.28 280.03,-227.27 286,-230.5 315.91,-246.65 347.15,-270.61 366.47,-286.38"/>
<polygon fill="#63b8ff" stroke="#63b8ff" points="364.28,-289.12 374.22,-292.8 368.75,-283.73 364.28,-289.12"/>
</a>
</g>
</g>
<!-- Node28&#45;&gt;Node11 -->
<g id="edge37_Node000028_Node000011" class="edge">
<title>Node28&#45;&gt;Node11</title>
<g id="a_edge37_Node000028_Node000011"><a xlink:title=" ">
<path fill="none" stroke="#63b8ff" d="M277.12,-214.04C331.51,-221.63 415.81,-233.38 476.92,-241.89"/>
<polygon fill="#63b8ff" stroke="#63b8ff" points="476.51,-245.37 486.9,-243.29 477.48,-238.44 476.51,-245.37"/>
</a>
</g>
</g>
<!-- Node29&#45;&gt;Node3 -->
<g id="edge39_Node000029_Node000003" class="edge">
<title>Node29&#45;&gt;Node3</title>
<g id="a_edge39_Node000029_Node000003"><a xlink:title=" ">
<path fill="none" stroke="#63b8ff" d="M270.47,-269.52C275.93,-272.12 281.23,-275.11 286,-278.5 306.3,-292.96 301.08,-307.95 322,-321.5 324.56,-323.16 327.28,-324.67 330.09,-326.04"/>
<polygon fill="#63b8ff" stroke="#63b8ff" points="328.74,-329.27 339.31,-329.97 331.49,-322.83 328.74,-329.27"/>
</a>
</g>
</g>
<!-- Node29&#45;&gt;Node4 -->
<g id="edge40_Node000029_Node000004" class="edge">
<title>Node29&#45;&gt;Node4</title>
<g id="a_edge40_Node000029_Node000004"><a xlink:title=" ">
<path fill="none" stroke="#63b8ff" d="M273.97,-269.56C296.31,-276.15 322.21,-283.8 343.43,-290.07"/>
<polygon fill="#63b8ff" stroke="#63b8ff" points="342.54,-293.46 353.12,-292.94 344.52,-286.75 342.54,-293.46"/>
</a>
</g>
</g>
<!-- Node29&#45;&gt;Node11 -->
<g id="edge41_Node000029_Node000011" class="edge">
<title>Node29&#45;&gt;Node11</title>
<g id="a_edge41_Node000029_Node000011"><a xlink:title=" ">
<path fill="none" stroke="#63b8ff" d="M286.1,-251.57C298.02,-251.12 310.39,-250.73 322,-250.5 373.52,-249.46 431.52,-249.97 476.51,-250.73"/>
<polygon fill="#63b8ff" stroke="#63b8ff" points="476.72,-254.24 486.78,-250.91 476.84,-247.24 476.72,-254.24"/>
</a>
</g>
</g>
</g>
</svg>
