<?xml version="1.0" encoding="UTF-8" standalone="no"?>
<!DOCTYPE svg PUBLIC "-//W3C//DTD SVG 1.1//EN"
 "http://www.w3.org/Graphics/SVG/1.1/DTD/svg11.dtd">
<!-- Generated by graphviz version 2.43.0 (0)
 -->
<!-- Title: wmtk::operations::AMIPSOptimizationSmoothingPeriodic::WMTKAMIPSProblem::gradient Pages: 1 -->
<svg width="522pt" height="197pt"
 viewBox="0.00 0.00 522.00 196.86" xmlns="http://www.w3.org/2000/svg" xmlns:xlink="http://www.w3.org/1999/xlink">
<g id="graph0" class="graph" transform="scale(1 1) rotate(0) translate(4 192.86)">
<title>wmtk::operations::AMIPSOptimizationSmoothingPeriodic::WMTKAMIPSProblem::gradient</title>
<!-- Node1 -->
<g id="Node000001" class="node">
<title>Node1</title>
<g id="a_Node000001"><a xlink:title=" ">
<polygon fill="#999999" stroke="#666666" points="217,-131.5 0,-131.5 0,-90.5 217,-90.5 217,-131.5"/>
<text text-anchor="start" x="8" y="-119.5" font-family="Helvetica,sans-Serif" font-size="10.00">wmtk::operations::AMIPSOptimization</text>
<text text-anchor="start" x="8" y="-108.5" font-family="Helvetica,sans-Serif" font-size="10.00">SmoothingPeriodic::WMTKAMIPSProblem</text>
<text text-anchor="middle" x="108.5" y="-97.5" font-family="Helvetica,sans-Serif" font-size="10.00">::gradient</text>
</a>
</g>
</g>
<!-- Node2 -->
<g id="Node000002" class="node">
<title>Node2</title>
<g id="a_Node000002"><a xlink:href="namespacewmtk.html#ad12ad5f8ec07682b8da79699a2628b6a" target="_top" xlink:title=" ">
<polygon fill="white" stroke="#666666" points="492,-168.5 421,-168.5 421,-149.5 492,-149.5 492,-168.5"/>
<text text-anchor="middle" x="456.5" y="-156.5" font-family="Helvetica,sans-Serif" font-size="10.00">wmtk::pow</text>
</a>
</g>
</g>
<!-- Node1&#45;&gt;Node2 -->
<g id="edge1_Node000001_Node000002" class="edge">
<title>Node1&#45;&gt;Node2</title>
<g id="a_edge1_Node000001_Node000002"><a xlink:title=" ">
<path fill="none" stroke="#63b8ff" d="M140.07,-131.64C168.07,-149.22 211.37,-173.14 253,-183 309.21,-196.31 376.03,-182.9 417.11,-171.43"/>
<polygon fill="#63b8ff" stroke="#63b8ff" points="418.34,-174.72 426.97,-168.57 416.39,-167.99 418.34,-174.72"/>
</a>
</g>
</g>
<!-- Node3 -->
<g id="Node000003" class="node">
<title>Node3</title>
<g id="a_Node000003"><a xlink:href="namespacewmtk_1_1function.html#a9e3b11628e6438129ff662e14c320619" target="_top" xlink:title=" ">
<polygon fill="white" stroke="#666666" points="363,-126 253,-126 253,-96 363,-96 363,-126"/>
<text text-anchor="start" x="261" y="-114" font-family="Helvetica,sans-Serif" font-size="10.00">wmtk::function::Tet</text>
<text text-anchor="middle" x="308" y="-103" font-family="Helvetica,sans-Serif" font-size="10.00">_AMIPS_energy</text>
</a>
</g>
</g>
<!-- Node1&#45;&gt;Node3 -->
<g id="edge2_Node000001_Node000003" class="edge">
<title>Node1&#45;&gt;Node3</title>
<g id="a_edge2_Node000001_Node000003"><a xlink:title=" ">
<path fill="none" stroke="#63b8ff" d="M217.21,-111C225.84,-111 234.38,-111 242.56,-111"/>
<polygon fill="#63b8ff" stroke="#63b8ff" points="242.71,-114.5 252.71,-111 242.71,-107.5 242.71,-114.5"/>
</a>
</g>
</g>
<!-- Node5 -->
<g id="Node000005" class="node">
<title>Node5</title>
<g id="a_Node000005"><a xlink:href="namespacewmtk_1_1function.html#a198aa9739019d6fdb0c869dcefe468b7" target="_top" xlink:title=" ">
<polygon fill="white" stroke="#666666" points="363,-174 253,-174 253,-144 363,-144 363,-174"/>
<text text-anchor="start" x="261" y="-162" font-family="Helvetica,sans-Serif" font-size="10.00">wmtk::function::Tet</text>
<text text-anchor="middle" x="308" y="-151" font-family="Helvetica,sans-Serif" font-size="10.00">_AMIPS_jacobian</text>
</a>
</g>
</g>
<!-- Node1&#45;&gt;Node5 -->
<g id="edge5_Node000001_Node000005" class="edge">
<title>Node1&#45;&gt;Node5</title>
<g id="a_edge5_Node000001_Node000005"><a xlink:title=" ">
<path fill="none" stroke="#63b8ff" d="M194.12,-131.57C210.44,-135.53 227.28,-139.62 242.82,-143.4"/>
<polygon fill="#63b8ff" stroke="#63b8ff" points="242.28,-146.87 252.82,-145.83 243.93,-140.07 242.28,-146.87"/>
</a>
</g>
</g>
<!-- Node6 -->
<g id="Node000006" class="node">
<title>Node6</title>
<g id="a_Node000006"><a xlink:href="namespacewmtk_1_1function.html#acd1fbbd6c163ab50ae7d2f684690f439" target="_top" xlink:title=" ">
<polygon fill="white" stroke="#666666" points="361.5,-78 254.5,-78 254.5,-48 361.5,-48 361.5,-78"/>
<text text-anchor="start" x="262.5" y="-66" font-family="Helvetica,sans-Serif" font-size="10.00">wmtk::function::Tri</text>
<text text-anchor="middle" x="308" y="-55" font-family="Helvetica,sans-Serif" font-size="10.00">_AMIPS_energy</text>
</a>
</g>
</g>
<!-- Node1&#45;&gt;Node6 -->
<g id="edge7_Node000001_Node000006" class="edge">
<title>Node1&#45;&gt;Node6</title>
<g id="a_edge7_Node000001_Node000006"><a xlink:title=" ">
<path fill="none" stroke="#63b8ff" d="M194.12,-90.43C211.02,-86.33 228.5,-82.08 244.49,-78.19"/>
<polygon fill="#63b8ff" stroke="#63b8ff" points="245.35,-81.58 254.25,-75.82 243.7,-74.78 245.35,-81.58"/>
</a>
</g>
</g>
<!-- Node7 -->
<g id="Node000007" class="node">
<title>Node7</title>
<g id="a_Node000007"><a xlink:href="namespacewmtk_1_1function.html#a9567d869f1e3e762ec382755de6da7df" target="_top" xlink:title=" ">
<polygon fill="white" stroke="#666666" points="361.5,-30 254.5,-30 254.5,0 361.5,0 361.5,-30"/>
<text text-anchor="start" x="262.5" y="-18" font-family="Helvetica,sans-Serif" font-size="10.00">wmtk::function::Tri</text>
<text text-anchor="middle" x="308" y="-7" font-family="Helvetica,sans-Serif" font-size="10.00">_AMIPS_jacobian</text>
</a>
</g>
</g>
<!-- Node1&#45;&gt;Node7 -->
<g id="edge8_Node000001_Node000007" class="edge">
<title>Node1&#45;&gt;Node7</title>
<g id="a_edge8_Node000001_Node000007"><a xlink:title=" ">
<path fill="none" stroke="#63b8ff" d="M149.15,-90.48C177.83,-75.79 217.6,-55.74 253,-39 256.3,-37.44 259.73,-35.85 263.18,-34.27"/>
<polygon fill="#63b8ff" stroke="#63b8ff" points="264.66,-37.44 272.32,-30.12 261.77,-31.06 264.66,-37.44"/>
</a>
</g>
</g>
<!-- Node3&#45;&gt;Node2 -->
<g id="edge3_Node000003_Node000002" class="edge">
<title>Node3&#45;&gt;Node2</title>
<g id="a_edge3_Node000003_Node000002"><a xlink:title=" ">
<path fill="none" stroke="#63b8ff" d="M354.95,-126.06C374.82,-132.56 397.81,-140.1 416.79,-146.32"/>
<polygon fill="#63b8ff" stroke="#63b8ff" points="415.72,-149.65 426.31,-149.44 417.9,-143 415.72,-149.65"/>
</a>
</g>
</g>
<!-- Node4 -->
<g id="Node000004" class="node">
<title>Node4</title>
<g id="a_Node000004"><a xlink:href="namespacewmtk_1_1function.html#a1b329f7277ad003d215e82a05b95339b" target="_top" xlink:title=" ">
<polygon fill="white" stroke="#666666" points="514,-126 399,-126 399,-96 514,-96 514,-126"/>
<text text-anchor="start" x="407" y="-114" font-family="Helvetica,sans-Serif" font-size="10.00">wmtk::function::Tet</text>
<text text-anchor="middle" x="456.5" y="-103" font-family="Helvetica,sans-Serif" font-size="10.00">_AMIPS_energy_aux</text>
</a>
</g>
</g>
<!-- Node3&#45;&gt;Node4 -->
<g id="edge4_Node000003_Node000004" class="edge">
<title>Node3&#45;&gt;Node4</title>
<g id="a_edge4_Node000003_Node000004"><a xlink:title=" ">
<path fill="none" stroke="#63b8ff" d="M363.13,-111C371.36,-111 379.94,-111 388.4,-111"/>
<polygon fill="#63b8ff" stroke="#63b8ff" points="388.64,-114.5 398.64,-111 388.64,-107.5 388.64,-114.5"/>
</a>
</g>
</g>
<!-- Node5&#45;&gt;Node2 -->
<g id="edge6_Node000005_Node000002" class="edge">
<title>Node5&#45;&gt;Node2</title>
<g id="a_edge6_Node000005_Node000002"><a xlink:title=" ">
<path fill="none" stroke="#63b8ff" d="M363.13,-159C378.76,-159 395.64,-159 410.64,-159"/>
<polygon fill="#63b8ff" stroke="#63b8ff" points="410.69,-162.5 420.69,-159 410.69,-155.5 410.69,-162.5"/>
</a>
</g>
</g>
</g>
</svg>
