<?xml version="1.0" encoding="UTF-8" standalone="no"?>
<!DOCTYPE svg PUBLIC "-//W3C//DTD SVG 1.1//EN"
 "http://www.w3.org/Graphics/SVG/1.1/DTD/svg11.dtd">
<!-- Generated by graphviz version 2.43.0 (0)
 -->
<!-- Title: wmtk::attribute::internal::CompoundAccessor&lt; N, MeshType, AttributeType &gt; Pages: 1 -->
<svg width="463pt" height="120pt"
 viewBox="0.00 0.00 463.00 119.50" xmlns="http://www.w3.org/2000/svg" xmlns:xlink="http://www.w3.org/1999/xlink">
<g id="graph0" class="graph" transform="scale(1 1) rotate(0) translate(4 115.5)">
<title>wmtk::attribute::internal::CompoundAccessor&lt; N, MeshType, AttributeType &gt;</title>
<!-- Node1 -->
<g id="Node000001" class="node">
<title>Node1</title>
<g id="a_Node000001"><a xlink:title=" ">
<polygon fill="#999999" stroke="#666666" points="151,-78.5 0,-78.5 0,-37.5 151,-37.5 151,-78.5"/>
<text text-anchor="start" x="8" y="-66.5" font-family="Helvetica,sans-Serif" font-size="10.00">wmtk::attribute::internal</text>
<text text-anchor="start" x="8" y="-55.5" font-family="Helvetica,sans-Serif" font-size="10.00">::CompoundAccessor&lt; N,</text>
<text text-anchor="middle" x="75.5" y="-44.5" font-family="Helvetica,sans-Serif" font-size="10.00"> MeshType, AttributeType &gt;</text>
</a>
</g>
</g>
<!-- Node2 -->
<g id="Node000002" class="node">
<title>Node2</title>
<g id="a_Node000002"><a xlink:href="classwmtk_1_1attribute_1_1utils_1_1_hybrid_rational_accessor.html" target="_top" xlink:title=" ">
<polygon fill="white" stroke="#666666" points="454.5,-111.5 315.5,-111.5 315.5,-70.5 454.5,-70.5 454.5,-111.5"/>
<text text-anchor="start" x="323.5" y="-99.5" font-family="Helvetica,sans-Serif" font-size="10.00">wmtk::attribute::utils</text>
<text text-anchor="start" x="323.5" y="-88.5" font-family="Helvetica,sans-Serif" font-size="10.00">::HybridRationalAccessor</text>
<text text-anchor="middle" x="385" y="-77.5" font-family="Helvetica,sans-Serif" font-size="10.00">&lt; D, MeshType &gt;</text>
</a>
</g>
</g>
<!-- Node1&#45;&gt;Node2 -->
<g id="edge1_Node000001_Node000002" class="edge">
<title>Node1&#45;&gt;Node2</title>
<g id="a_edge1_Node000001_Node000002"><a xlink:title=" ">
<path fill="none" stroke="#63b8ff" d="M161.26,-72.98C163.87,-73.34 166.45,-73.68 169,-74 217.67,-80.12 272.83,-84.43 315.09,-87.18"/>
<polygon fill="#63b8ff" stroke="#63b8ff" points="161.53,-69.48 151.13,-71.52 160.53,-76.41 161.53,-69.48"/>
</a>
</g>
</g>
<!-- Node3 -->
<g id="Node000003" class="node">
<title>Node3</title>
<g id="a_Node000003"><a xlink:href="classwmtk_1_1attribute_1_1internal_1_1_compound_accessor.html" target="_top" xlink:title=" ">
<polygon fill="white" stroke="#666666" points="455,-52 315,-52 315,0 455,0 455,-52"/>
<text text-anchor="start" x="323" y="-40" font-family="Helvetica,sans-Serif" font-size="10.00">wmtk::attribute::internal</text>
<text text-anchor="start" x="323" y="-29" font-family="Helvetica,sans-Serif" font-size="10.00">::CompoundAccessor&lt; 3,</text>
<text text-anchor="start" x="323" y="-18" font-family="Helvetica,sans-Serif" font-size="10.00"> wmtk::Mesh, char, wmtk</text>
<text text-anchor="middle" x="385" y="-7" font-family="Helvetica,sans-Serif" font-size="10.00">::Rational, double &gt;</text>
</a>
</g>
</g>
<!-- Node1&#45;&gt;Node3 -->
<g id="edge2_Node000001_Node000003" class="edge">
<title>Node1&#45;&gt;Node3</title>
<g id="a_edge2_Node000001_Node000003"><a xlink:title=" ">
<path fill="none" stroke="orange" stroke-dasharray="5,2" d="M161.46,-49.16C209.76,-44.13 269.49,-37.92 314.9,-33.19"/>
<polygon fill="orange" stroke="orange" points="160.91,-45.7 151.33,-50.21 161.64,-52.66 160.91,-45.7"/>
</a>
</g>
<text text-anchor="start" x="169" y="-62" font-family="Helvetica,sans-Serif" font-size="10.00" fill="grey"> &lt; 3, wmtk::Mesh, char,</text>
<text text-anchor="middle" x="233" y="-51" font-family="Helvetica,sans-Serif" font-size="10.00" fill="grey"> wmtk::Rational, double &gt;</text>
</g>
</g>
</svg>
