<?xml version="1.0" encoding="UTF-8" standalone="no"?>
<!DOCTYPE svg PUBLIC "-//W3C//DTD SVG 1.1//EN"
 "http://www.w3.org/Graphics/SVG/1.1/DTD/svg11.dtd">
<!-- Generated by graphviz version 2.43.0 (0)
 -->
<!-- Title: wmtk::operations::Operation::use_random_priority Pages: 1 -->
<svg width="909pt" height="757pt"
 viewBox="0.00 0.00 909.00 756.50" xmlns="http://www.w3.org/2000/svg" xmlns:xlink="http://www.w3.org/1999/xlink">
<g id="graph0" class="graph" transform="scale(1 1) rotate(0) translate(4 752.5)">
<title>wmtk::operations::Operation::use_random_priority</title>
<!-- Node1 -->
<g id="Node000001" class="node">
<title>Node1</title>
<g id="a_Node000001"><a xlink:title=" ">
<polygon fill="#999999" stroke="#666666" points="901,-271.5 745,-271.5 745,-241.5 901,-241.5 901,-271.5"/>
<text text-anchor="start" x="753" y="-259.5" font-family="Helvetica,sans-Serif" font-size="10.00">wmtk::operations::Operation</text>
<text text-anchor="middle" x="823" y="-248.5" font-family="Helvetica,sans-Serif" font-size="10.00">::use_random_priority</text>
</a>
</g>
</g>
<!-- Node2 -->
<g id="Node000002" class="node">
<title>Node2</title>
<g id="a_Node000002"><a xlink:href="classwmtk_1_1_scheduler.html#a246ccf6605333ebb7c020aa8fae1e959" target="_top" xlink:title=" ">
<polygon fill="white" stroke="#666666" points="684,-295.5 564,-295.5 564,-265.5 684,-265.5 684,-295.5"/>
<text text-anchor="start" x="572" y="-283.5" font-family="Helvetica,sans-Serif" font-size="10.00">wmtk::Scheduler::run</text>
<text text-anchor="middle" x="624" y="-272.5" font-family="Helvetica,sans-Serif" font-size="10.00">_operation_on_all</text>
</a>
</g>
</g>
<!-- Node1&#45;&gt;Node2 -->
<g id="edge1_Node000001_Node000002" class="edge">
<title>Node1&#45;&gt;Node2</title>
<g id="a_edge1_Node000001_Node000002"><a xlink:title=" ">
<path fill="none" stroke="#63b8ff" d="M734.97,-267.1C717.83,-269.19 700.23,-271.33 684.27,-273.28"/>
<polygon fill="#63b8ff" stroke="#63b8ff" points="735.48,-270.57 744.99,-265.88 734.64,-263.62 735.48,-270.57"/>
</a>
</g>
</g>
<!-- Node21 -->
<g id="Node000021" class="node">
<title>Node21</title>
<g id="a_Node000021"><a xlink:href="classwmtk_1_1_scheduler.html#a4a654a64c9b1823bb3ddb5fa7a59c7d8" target="_top" xlink:title=" ">
<polygon fill="white" stroke="#666666" points="473,-642.5 353,-642.5 353,-612.5 473,-612.5 473,-642.5"/>
<text text-anchor="start" x="361" y="-630.5" font-family="Helvetica,sans-Serif" font-size="10.00">wmtk::Scheduler::run</text>
<text text-anchor="middle" x="413" y="-619.5" font-family="Helvetica,sans-Serif" font-size="10.00">_operation_on_all</text>
</a>
</g>
</g>
<!-- Node1&#45;&gt;Node21 -->
<g id="edge33_Node000001_Node000021" class="edge">
<title>Node1&#45;&gt;Node21</title>
<g id="a_edge33_Node000001_Node000021"><a xlink:title=" ">
<path fill="none" stroke="#63b8ff" d="M807.23,-280.27C766.81,-343.27 647.69,-515.7 503,-603.5 493.97,-608.98 483.68,-613.23 473.38,-616.52"/>
<polygon fill="#63b8ff" stroke="#63b8ff" points="810.21,-282.11 812.62,-271.79 804.3,-278.36 810.21,-282.11"/>
</a>
</g>
</g>
<!-- Node32 -->
<g id="Node000032" class="node">
<title>Node32</title>
<g id="a_Node000032"><a xlink:href="classwmtk_1_1operations_1_1_operation_sequence.html#a166e5d0fdd181db1acf50eced9d93614" target="_top" xlink:title=" ">
<polygon fill="white" stroke="#666666" points="709,-247.5 539,-247.5 539,-217.5 709,-217.5 709,-247.5"/>
<text text-anchor="start" x="547" y="-235.5" font-family="Helvetica,sans-Serif" font-size="10.00">wmtk::operations::Operation</text>
<text text-anchor="middle" x="624" y="-224.5" font-family="Helvetica,sans-Serif" font-size="10.00">Sequence::use_random_priority</text>
</a>
</g>
</g>
<!-- Node1&#45;&gt;Node32 -->
<g id="edge34_Node000001_Node000032" class="edge">
<title>Node1&#45;&gt;Node32</title>
<g id="a_edge34_Node000001_Node000032"><a xlink:title=" ">
<path fill="none" stroke="#63b8ff" d="M734.98,-245.9C726.39,-244.85 717.68,-243.79 709.13,-242.75"/>
<polygon fill="#63b8ff" stroke="#63b8ff" points="734.64,-249.38 744.99,-247.12 735.48,-242.43 734.64,-249.38"/>
</a>
</g>
</g>
<!-- Node33 -->
<g id="Node000033" class="node">
<title>Node33</title>
<g id="a_Node000033"><a xlink:href="classwmtk_1_1operations_1_1_operation_sequence.html#a4274a0460e2f70a1018e30e9ddf7f2b7" target="_top" xlink:title=" ">
<polygon fill="white" stroke="#666666" points="709,-199.5 539,-199.5 539,-169.5 709,-169.5 709,-199.5"/>
<text text-anchor="start" x="547" y="-187.5" font-family="Helvetica,sans-Serif" font-size="10.00">wmtk::operations::Operation</text>
<text text-anchor="middle" x="624" y="-176.5" font-family="Helvetica,sans-Serif" font-size="10.00">Sequence::use_random_priority</text>
</a>
</g>
</g>
<!-- Node1&#45;&gt;Node33 -->
<g id="edge35_Node000001_Node000033" class="edge">
<title>Node1&#45;&gt;Node33</title>
<g id="a_edge35_Node000001_Node000033"><a xlink:title=" ">
<path fill="none" stroke="#63b8ff" d="M779.99,-237.19C758.93,-227.89 732.87,-216.94 709,-208.5 700.13,-205.36 690.64,-202.34 681.33,-199.56"/>
<polygon fill="#63b8ff" stroke="#63b8ff" points="778.74,-240.47 789.29,-241.34 781.59,-234.07 778.74,-240.47"/>
</a>
</g>
</g>
<!-- Node3 -->
<g id="Node000003" class="node">
<title>Node3</title>
<g id="a_Node000003"><a xlink:href="namespacewmtk_1_1components_1_1internal.html#a49432d47b0fca2f5fe80f1e9c634fa14" target="_top" xlink:title=" ">
<polygon fill="white" stroke="#666666" points="490,-576.5 336,-576.5 336,-546.5 490,-546.5 490,-576.5"/>
<text text-anchor="start" x="344" y="-564.5" font-family="Helvetica,sans-Serif" font-size="10.00">wmtk::components::internal</text>
<text text-anchor="middle" x="413" y="-553.5" font-family="Helvetica,sans-Serif" font-size="10.00">::isotropic_remeshing</text>
</a>
</g>
</g>
<!-- Node2&#45;&gt;Node3 -->
<g id="edge2_Node000002_Node000003" class="edge">
<title>Node2&#45;&gt;Node3</title>
<g id="a_edge2_Node000002_Node000003"><a xlink:title=" ">
<path fill="none" stroke="#63b8ff" d="M615.2,-305.22C599.91,-350.43 562.24,-447.46 503,-509.5 488.05,-525.16 467.34,-537.63 449.67,-546.43"/>
<polygon fill="#63b8ff" stroke="#63b8ff" points="618.55,-306.24 618.36,-295.64 611.9,-304.04 618.55,-306.24"/>
</a>
</g>
</g>
<!-- Node11 -->
<g id="Node000011" class="node">
<title>Node11</title>
<g id="a_Node000011"><a xlink:href="namespacewmtk_1_1components_1_1internal.html#a8890d5e5bb5f11779d4e40e07882253a" target="_top" xlink:title=" ">
<polygon fill="white" stroke="#666666" points="490,-482.5 336,-482.5 336,-452.5 490,-452.5 490,-482.5"/>
<text text-anchor="start" x="344" y="-470.5" font-family="Helvetica,sans-Serif" font-size="10.00">wmtk::components::internal</text>
<text text-anchor="middle" x="413" y="-459.5" font-family="Helvetica,sans-Serif" font-size="10.00">::periodic_optimization</text>
</a>
</g>
</g>
<!-- Node2&#45;&gt;Node11 -->
<g id="edge11_Node000002_Node000011" class="edge">
<title>Node2&#45;&gt;Node11</title>
<g id="a_edge11_Node000002_Node000011"><a xlink:title=" ">
<path fill="none" stroke="#63b8ff" d="M611.65,-305.04C593.74,-340.99 555.5,-407.6 503,-443.5 497.98,-446.93 492.49,-449.88 486.78,-452.4"/>
<polygon fill="#63b8ff" stroke="#63b8ff" points="614.94,-306.29 616.16,-295.76 608.64,-303.23 614.94,-306.29"/>
</a>
</g>
</g>
<!-- Node13 -->
<g id="Node000013" class="node">
<title>Node13</title>
<g id="a_Node000013"><a xlink:href="classwmtk_1_1components_1_1_marching.html#a93c8d735afd009d73bfc4700b4f8e3f6" target="_top" xlink:title="Perform the actual marching.">
<polygon fill="white" stroke="#666666" points="493.5,-434.5 332.5,-434.5 332.5,-404.5 493.5,-404.5 493.5,-434.5"/>
<text text-anchor="start" x="340.5" y="-422.5" font-family="Helvetica,sans-Serif" font-size="10.00">wmtk::components::Marching</text>
<text text-anchor="middle" x="413" y="-411.5" font-family="Helvetica,sans-Serif" font-size="10.00">::process</text>
</a>
</g>
</g>
<!-- Node2&#45;&gt;Node13 -->
<g id="edge14_Node000002_Node000013" class="edge">
<title>Node2&#45;&gt;Node13</title>
<g id="a_edge14_Node000002_Node000013"><a xlink:title=" ">
<path fill="none" stroke="#63b8ff" d="M605.11,-303.56C583.63,-329.68 545.18,-371.7 503,-395.5 497.01,-398.88 490.52,-401.8 483.86,-404.33"/>
<polygon fill="#63b8ff" stroke="#63b8ff" points="607.92,-305.66 611.47,-295.68 602.47,-301.26 607.92,-305.66"/>
</a>
</g>
</g>
<!-- Node17 -->
<g id="Node000017" class="node">
<title>Node17</title>
<g id="a_Node000017"><a xlink:href="classwmtk_1_1components_1_1internal_1_1_regular_space.html#af9adef544fff10ba9257d128fd13393c" target="_top" xlink:title=" ">
<polygon fill="white" stroke="#666666" points="498,-386.5 328,-386.5 328,-356.5 498,-356.5 498,-386.5"/>
<text text-anchor="start" x="336" y="-374.5" font-family="Helvetica,sans-Serif" font-size="10.00">wmtk::components::internal</text>
<text text-anchor="middle" x="413" y="-363.5" font-family="Helvetica,sans-Serif" font-size="10.00">::RegularSpace::regularize_tags</text>
</a>
</g>
</g>
<!-- Node2&#45;&gt;Node17 -->
<g id="edge18_Node000002_Node000017" class="edge">
<title>Node2&#45;&gt;Node17</title>
<g id="a_edge18_Node000002_Node000017"><a xlink:title=" ">
<path fill="none" stroke="#63b8ff" d="M591.41,-300.97C567.81,-315.55 534.36,-334.75 503,-347.5 494.85,-350.82 486.09,-353.82 477.36,-356.48"/>
<polygon fill="#63b8ff" stroke="#63b8ff" points="593.33,-303.9 599.95,-295.63 589.62,-297.97 593.33,-303.9"/>
</a>
</g>
</g>
<!-- Node2&#45;&gt;Node21 -->
<g id="edge22_Node000002_Node000021" class="edge">
<title>Node2&#45;&gt;Node21</title>
<g id="a_edge22_Node000002_Node000021"><a xlink:title=" ">
<path fill="none" stroke="#63b8ff" d="M610.67,-305.12C593.09,-340.88 560.57,-409.59 539,-470.5 518.56,-528.23 546.32,-560.22 503,-603.5 494.85,-611.64 484.24,-617.11 473.21,-620.75"/>
<polygon fill="#63b8ff" stroke="#63b8ff" points="613.91,-306.45 615.21,-295.94 607.64,-303.35 613.91,-306.45"/>
</a>
</g>
</g>
<!-- Node22 -->
<g id="Node000022" class="node">
<title>Node22</title>
<g id="a_Node000022"><a xlink:href="namespacewmtk_1_1components.html#ae3a4b32383fdc9c2eb8334cc8ef947a5" target="_top" xlink:title="Perform shortest&#45;edge collapse on a triangular surface mesh.">
<polygon fill="white" stroke="#666666" points="503,-338.5 323,-338.5 323,-308.5 503,-308.5 503,-338.5"/>
<text text-anchor="start" x="331" y="-326.5" font-family="Helvetica,sans-Serif" font-size="10.00">wmtk::components::shortestedge</text>
<text text-anchor="middle" x="413" y="-315.5" font-family="Helvetica,sans-Serif" font-size="10.00">_collapse</text>
</a>
</g>
</g>
<!-- Node2&#45;&gt;Node22 -->
<g id="edge23_Node000002_Node000022" class="edge">
<title>Node2&#45;&gt;Node22</title>
<g id="a_edge23_Node000002_Node000022"><a xlink:title=" ">
<path fill="none" stroke="#63b8ff" d="M553.94,-294.71C532.48,-299.12 508.77,-304 487.05,-308.47"/>
<polygon fill="#63b8ff" stroke="#63b8ff" points="554.86,-298.09 563.95,-292.65 553.45,-291.24 554.86,-298.09"/>
</a>
</g>
</g>
<!-- Node24 -->
<g id="Node000024" class="node">
<title>Node24</title>
<g id="a_Node000024"><a xlink:href="test__component__isotropic__remeshing_8cpp.html#aea53cf81f06956121812b88e2c7aab0b" target="_top" xlink:title=" ">
<polygon fill="white" stroke="#666666" points="448.5,-290 377.5,-290 377.5,-271 448.5,-271 448.5,-290"/>
<text text-anchor="middle" x="413" y="-278" font-family="Helvetica,sans-Serif" font-size="10.00">TEST_CASE</text>
</a>
</g>
</g>
<!-- Node2&#45;&gt;Node24 -->
<g id="edge25_Node000002_Node000024" class="edge">
<title>Node2&#45;&gt;Node24</title>
<g id="a_edge25_Node000002_Node000024"><a xlink:title=" ">
<path fill="none" stroke="#63b8ff" d="M553.71,-280.5C518.5,-280.5 477.24,-280.5 448.74,-280.5"/>
<polygon fill="#63b8ff" stroke="#63b8ff" points="553.95,-284 563.95,-280.5 553.95,-277 553.95,-284"/>
</a>
</g>
</g>
<!-- Node25 -->
<g id="Node000025" class="node">
<title>Node25</title>
<g id="a_Node000025"><a xlink:href="test__component__isotropic__remeshing_8cpp.html#adf1e479866f5fbf4faa9038ece31a877" target="_top" xlink:title=" ">
<polygon fill="white" stroke="#666666" points="448.5,-253 377.5,-253 377.5,-234 448.5,-234 448.5,-253"/>
<text text-anchor="middle" x="413" y="-241" font-family="Helvetica,sans-Serif" font-size="10.00">TEST_CASE</text>
</a>
</g>
</g>
<!-- Node2&#45;&gt;Node25 -->
<g id="edge26_Node000002_Node000025" class="edge">
<title>Node2&#45;&gt;Node25</title>
<g id="a_edge26_Node000002_Node000025"><a xlink:title=" ">
<path fill="none" stroke="#63b8ff" d="M553.71,-268.23C518.5,-262 477.24,-254.7 448.74,-249.65"/>
<polygon fill="#63b8ff" stroke="#63b8ff" points="553.49,-271.75 563.95,-270.05 554.71,-264.86 553.49,-271.75"/>
</a>
</g>
</g>
<!-- Node26 -->
<g id="Node000026" class="node">
<title>Node26</title>
<g id="a_Node000026"><a xlink:href="test__component__isotropic__remeshing_8cpp.html#a31e4ea2702c2b6a505c9c68567b67626" target="_top" xlink:title=" ">
<polygon fill="white" stroke="#666666" points="448.5,-216 377.5,-216 377.5,-197 448.5,-197 448.5,-216"/>
<text text-anchor="middle" x="413" y="-204" font-family="Helvetica,sans-Serif" font-size="10.00">TEST_CASE</text>
</a>
</g>
</g>
<!-- Node2&#45;&gt;Node26 -->
<g id="edge27_Node000002_Node000026" class="edge">
<title>Node2&#45;&gt;Node26</title>
<g id="a_edge27_Node000002_Node000026"><a xlink:title=" ">
<path fill="none" stroke="#63b8ff" d="M554.23,-263.66C548.96,-261.53 543.82,-259.15 539,-256.5 520.24,-246.19 522.15,-234.06 503,-224.5 486.22,-216.12 465.81,-211.64 448.77,-209.25"/>
<polygon fill="#63b8ff" stroke="#63b8ff" points="553.22,-267.02 563.82,-267.24 555.67,-260.46 553.22,-267.02"/>
</a>
</g>
</g>
<!-- Node27 -->
<g id="Node000027" class="node">
<title>Node27</title>
<g id="a_Node000027"><a xlink:href="test__component__isotropic__remeshing_8cpp.html#afae984272ab99cf6b50b4d11f8941283" target="_top" xlink:title=" ">
<polygon fill="white" stroke="#666666" points="448.5,-179 377.5,-179 377.5,-160 448.5,-160 448.5,-179"/>
<text text-anchor="middle" x="413" y="-167" font-family="Helvetica,sans-Serif" font-size="10.00">TEST_CASE</text>
</a>
</g>
</g>
<!-- Node2&#45;&gt;Node27 -->
<g id="edge28_Node000002_Node000027" class="edge">
<title>Node2&#45;&gt;Node27</title>
<g id="a_edge28_Node000002_Node000027"><a xlink:title=" ">
<path fill="none" stroke="#63b8ff" d="M554.44,-266.21C548.91,-263.51 543.67,-260.31 539,-256.5 512.19,-234.64 530.65,-208.29 503,-187.5 487.5,-175.85 466.35,-171.24 448.56,-169.59"/>
<polygon fill="#63b8ff" stroke="#63b8ff" points="553.38,-269.56 563.95,-270.28 556.13,-263.13 553.38,-269.56"/>
</a>
</g>
</g>
<!-- Node28 -->
<g id="Node000028" class="node">
<title>Node28</title>
<g id="a_Node000028"><a xlink:href="test__component__isotropic__remeshing_8cpp.html#ac951acaed01f46f17ad5496ddaeccd3f" target="_top" xlink:title=" ">
<polygon fill="white" stroke="#666666" points="448.5,-142 377.5,-142 377.5,-123 448.5,-123 448.5,-142"/>
<text text-anchor="middle" x="413" y="-130" font-family="Helvetica,sans-Serif" font-size="10.00">TEST_CASE</text>
</a>
</g>
</g>
<!-- Node2&#45;&gt;Node28 -->
<g id="edge29_Node000002_Node000028" class="edge">
<title>Node2&#45;&gt;Node28</title>
<g id="a_edge29_Node000002_Node000028"><a xlink:title=" ">
<path fill="none" stroke="#63b8ff" d="M554.71,-267.43C548.97,-264.49 543.61,-260.89 539,-256.5 502.97,-222.19 540.36,-183.36 503,-150.5 488.32,-137.59 466.98,-132.96 448.88,-131.62"/>
<polygon fill="#63b8ff" stroke="#63b8ff" points="553.43,-270.69 563.99,-271.54 556.26,-264.29 553.43,-270.69"/>
</a>
</g>
</g>
<!-- Node29 -->
<g id="Node000029" class="node">
<title>Node29</title>
<g id="a_Node000029"><a xlink:href="test__component__isotropic__remeshing_8cpp.html#af719811f9a666b9a9f90fc755260e951" target="_top" xlink:title=" ">
<polygon fill="white" stroke="#666666" points="448.5,-105 377.5,-105 377.5,-86 448.5,-86 448.5,-105"/>
<text text-anchor="middle" x="413" y="-93" font-family="Helvetica,sans-Serif" font-size="10.00">TEST_CASE</text>
</a>
</g>
</g>
<!-- Node2&#45;&gt;Node29 -->
<g id="edge30_Node000002_Node000029" class="edge">
<title>Node2&#45;&gt;Node29</title>
<g id="a_edge30_Node000002_Node000029"><a xlink:title=" ">
<path fill="none" stroke="#63b8ff" d="M554.6,-267.96C548.84,-264.91 543.5,-261.15 539,-256.5 493.4,-209.43 550.42,-158.74 503,-113.5 488.74,-99.9 467.19,-95.29 448.86,-94.13"/>
<polygon fill="#63b8ff" stroke="#63b8ff" points="553.4,-271.26 563.95,-272.18 556.28,-264.88 553.4,-271.26"/>
</a>
</g>
</g>
<!-- Node30 -->
<g id="Node000030" class="node">
<title>Node30</title>
<g id="a_Node000030"><a xlink:href="namespacewmtk_1_1components.html#a9d6d11e3b7ba03911492ecfc79622247" target="_top" xlink:title=" ">
<polygon fill="white" stroke="#666666" points="490,-67.5 336,-67.5 336,-37.5 490,-37.5 490,-67.5"/>
<text text-anchor="start" x="344" y="-55.5" font-family="Helvetica,sans-Serif" font-size="10.00">wmtk::components::triangle</text>
<text text-anchor="middle" x="413" y="-44.5" font-family="Helvetica,sans-Serif" font-size="10.00">_insertion</text>
</a>
</g>
</g>
<!-- Node2&#45;&gt;Node30 -->
<g id="edge31_Node000002_Node000030" class="edge">
<title>Node2&#45;&gt;Node30</title>
<g id="a_edge31_Node000002_Node000030"><a xlink:title=" ">
<path fill="none" stroke="#63b8ff" d="M554.36,-268.19C548.64,-265.09 543.39,-261.26 539,-256.5 483.69,-196.53 558.75,-136.06 503,-76.5 499.28,-72.53 494.98,-69.19 490.32,-66.38"/>
<polygon fill="#63b8ff" stroke="#63b8ff" points="553.11,-271.46 563.66,-272.46 556.03,-265.1 553.11,-271.46"/>
</a>
</g>
</g>
<!-- Node31 -->
<g id="Node000031" class="node">
<title>Node31</title>
<g id="a_Node000031"><a xlink:href="namespacewmtk_1_1components.html#ac6ca52668bd22e164d4baf59ec533864" target="_top" xlink:title=" ">
<polygon fill="white" stroke="#666666" points="502.5,-19 323.5,-19 323.5,0 502.5,0 502.5,-19"/>
<text text-anchor="middle" x="413" y="-7" font-family="Helvetica,sans-Serif" font-size="10.00">wmtk::components::wildmeshing</text>
</a>
</g>
</g>
<!-- Node2&#45;&gt;Node31 -->
<g id="edge32_Node000002_Node000031" class="edge">
<title>Node2&#45;&gt;Node31</title>
<g id="a_edge32_Node000002_Node000031"><a xlink:title=" ">
<path fill="none" stroke="#63b8ff" d="M554.42,-268.51C548.64,-265.36 543.35,-261.42 539,-256.5 471,-179.68 573.57,-102.96 503,-28.5 499.41,-24.72 495.27,-21.59 490.78,-19.02"/>
<polygon fill="#63b8ff" stroke="#63b8ff" points="553.29,-271.85 563.83,-272.85 556.21,-265.49 553.29,-271.85"/>
</a>
</g>
</g>
<!-- Node3&#45;&gt;Node3 -->
<g id="edge3_Node000003_Node000003" class="edge">
<title>Node3&#45;&gt;Node3</title>
<g id="a_edge3_Node000003_Node000003"><a xlink:title=" ">
<path fill="none" stroke="#63b8ff" d="M449.76,-587.1C444.74,-591.47 432.48,-594.5 413,-594.5 380.19,-594.5 367.88,-585.91 376.09,-576.78"/>
<polygon fill="#63b8ff" stroke="#63b8ff" points="453.26,-586.83 449.91,-576.78 446.26,-586.72 453.26,-586.83"/>
</a>
</g>
</g>
<!-- Node4 -->
<g id="Node000004" class="node">
<title>Node4</title>
<g id="a_Node000004"><a xlink:href="namespacewmtk_1_1components.html#ae6dfdbd73d7018f6f21bb2396872c796" target="_top" xlink:title=" ">
<polygon fill="white" stroke="#666666" points="276,-748.5 118,-748.5 118,-718.5 276,-718.5 276,-748.5"/>
<text text-anchor="start" x="126" y="-736.5" font-family="Helvetica,sans-Serif" font-size="10.00">wmtk::components::isotropic</text>
<text text-anchor="middle" x="197" y="-725.5" font-family="Helvetica,sans-Serif" font-size="10.00">_remeshing</text>
</a>
</g>
</g>
<!-- Node3&#45;&gt;Node4 -->
<g id="edge4_Node000003_Node000004" class="edge">
<title>Node3&#45;&gt;Node4</title>
<g id="a_edge4_Node000003_Node000004"><a xlink:title=" ">
<path fill="none" stroke="#63b8ff" d="M352.8,-581.21C341.78,-587.01 331.18,-594.34 323,-603.5 289.87,-640.62 323.29,-675.46 287,-709.5 283.38,-712.89 279.33,-715.82 275.02,-718.34"/>
<polygon fill="#63b8ff" stroke="#63b8ff" points="354.64,-584.2 362.11,-576.69 351.58,-577.91 354.64,-584.2"/>
</a>
</g>
</g>
<!-- Node5 -->
<g id="Node000005" class="node">
<title>Node5</title>
<g id="a_Node000005"><a xlink:href="test__component__isotropic__remeshing_8cpp.html#a64dc4992576434e79fdb0838f9092ab8" target="_top" xlink:title=" ">
<polygon fill="white" stroke="#666666" points="232.5,-700 161.5,-700 161.5,-681 232.5,-681 232.5,-700"/>
<text text-anchor="middle" x="197" y="-688" font-family="Helvetica,sans-Serif" font-size="10.00">TEST_CASE</text>
</a>
</g>
</g>
<!-- Node3&#45;&gt;Node5 -->
<g id="edge5_Node000003_Node000005" class="edge">
<title>Node3&#45;&gt;Node5</title>
<g id="a_edge5_Node000003_Node000005"><a xlink:title=" ">
<path fill="none" stroke="#63b8ff" d="M356.36,-580.95C344.41,-586.9 332.52,-594.35 323,-603.5 298.06,-627.47 314.65,-651.71 287,-672.5 271.5,-684.15 250.35,-688.76 232.56,-690.41"/>
<polygon fill="#63b8ff" stroke="#63b8ff" points="357.9,-584.09 365.48,-576.69 354.94,-577.75 357.9,-584.09"/>
</a>
</g>
</g>
<!-- Node6 -->
<g id="Node000006" class="node">
<title>Node6</title>
<g id="a_Node000006"><a xlink:href="test__component__isotropic__remeshing_8cpp.html#aae475685ae29b731655dd43137a950d6" target="_top" xlink:title=" ">
<polygon fill="white" stroke="#666666" points="232.5,-663 161.5,-663 161.5,-644 232.5,-644 232.5,-663"/>
<text text-anchor="middle" x="197" y="-651" font-family="Helvetica,sans-Serif" font-size="10.00">TEST_CASE</text>
</a>
</g>
</g>
<!-- Node3&#45;&gt;Node6 -->
<g id="edge6_Node000003_Node000006" class="edge">
<title>Node3&#45;&gt;Node6</title>
<g id="a_edge6_Node000003_Node000006"><a xlink:title=" ">
<path fill="none" stroke="#63b8ff" d="M364.54,-580.85C350.7,-587.29 335.86,-595.01 323,-603.5 305.14,-615.3 306.15,-625.94 287,-635.5 270.22,-643.88 249.81,-648.36 232.77,-650.75"/>
<polygon fill="#63b8ff" stroke="#63b8ff" points="366.25,-583.91 373.92,-576.6 363.36,-577.53 366.25,-583.91"/>
</a>
</g>
</g>
<!-- Node7 -->
<g id="Node000007" class="node">
<title>Node7</title>
<g id="a_Node000007"><a xlink:href="test__component__isotropic__remeshing_8cpp.html#ab3fcea88943daf212aeeda03eb0baa8b" target="_top" xlink:title=" ">
<polygon fill="white" stroke="#666666" points="232.5,-626 161.5,-626 161.5,-607 232.5,-607 232.5,-626"/>
<text text-anchor="middle" x="197" y="-614" font-family="Helvetica,sans-Serif" font-size="10.00">TEST_CASE</text>
</a>
</g>
</g>
<!-- Node3&#45;&gt;Node7 -->
<g id="edge7_Node000003_Node000007" class="edge">
<title>Node3&#45;&gt;Node7</title>
<g id="a_edge7_Node000003_Node000007"><a xlink:title=" ">
<path fill="none" stroke="#63b8ff" d="M354.96,-579.54C333.73,-585.94 309.37,-592.94 287,-598.5 269.25,-602.91 249.32,-607.02 232.82,-610.2"/>
<polygon fill="#63b8ff" stroke="#63b8ff" points="356.24,-582.81 364.78,-576.55 354.2,-576.11 356.24,-582.81"/>
</a>
</g>
</g>
<!-- Node8 -->
<g id="Node000008" class="node">
<title>Node8</title>
<g id="a_Node000008"><a xlink:href="test__component__isotropic__remeshing_8cpp.html#aceca2caa1612565bd919bd8cf0ea0232" target="_top" xlink:title=" ">
<polygon fill="white" stroke="#666666" points="232.5,-589 161.5,-589 161.5,-570 232.5,-570 232.5,-589"/>
<text text-anchor="middle" x="197" y="-577" font-family="Helvetica,sans-Serif" font-size="10.00">TEST_CASE</text>
</a>
</g>
</g>
<!-- Node3&#45;&gt;Node8 -->
<g id="edge8_Node000003_Node000008" class="edge">
<title>Node3&#45;&gt;Node8</title>
<g id="a_edge8_Node000003_Node000008"><a xlink:title=" ">
<path fill="none" stroke="#63b8ff" d="M325.9,-568.74C293.19,-571.49 257.77,-574.47 232.52,-576.6"/>
<polygon fill="#63b8ff" stroke="#63b8ff" points="326.28,-572.22 335.95,-567.9 325.69,-565.25 326.28,-572.22"/>
</a>
</g>
</g>
<!-- Node9 -->
<g id="Node000009" class="node">
<title>Node9</title>
<g id="a_Node000009"><a xlink:href="test__component__isotropic__remeshing_8cpp.html#a51ae85bc413e9940267e8a366e0bcc9f" target="_top" xlink:title=" ">
<polygon fill="white" stroke="#666666" points="232.5,-552 161.5,-552 161.5,-533 232.5,-533 232.5,-552"/>
<text text-anchor="middle" x="197" y="-540" font-family="Helvetica,sans-Serif" font-size="10.00">TEST_CASE</text>
</a>
</g>
</g>
<!-- Node3&#45;&gt;Node9 -->
<g id="edge9_Node000003_Node000009" class="edge">
<title>Node3&#45;&gt;Node9</title>
<g id="a_edge9_Node000003_Node000009"><a xlink:title=" ">
<path fill="none" stroke="#63b8ff" d="M325.9,-553.86C293.19,-550.95 257.77,-547.81 232.52,-545.56"/>
<polygon fill="#63b8ff" stroke="#63b8ff" points="325.68,-557.35 335.95,-554.75 326.3,-550.38 325.68,-557.35"/>
</a>
</g>
</g>
<!-- Node10 -->
<g id="Node000010" class="node">
<title>Node10</title>
<g id="a_Node000010"><a xlink:href="test__component__isotropic__remeshing_8cpp.html#a9e0dd9408a6fe42f1fb8e8764f740dda" target="_top" xlink:title=" ">
<polygon fill="white" stroke="#666666" points="232.5,-515 161.5,-515 161.5,-496 232.5,-496 232.5,-515"/>
<text text-anchor="middle" x="197" y="-503" font-family="Helvetica,sans-Serif" font-size="10.00">TEST_CASE</text>
</a>
</g>
</g>
<!-- Node3&#45;&gt;Node10 -->
<g id="edge10_Node000003_Node000010" class="edge">
<title>Node3&#45;&gt;Node10</title>
<g id="a_edge10_Node000003_Node000010"><a xlink:title=" ">
<path fill="none" stroke="#63b8ff" d="M354.65,-543.51C333.49,-537.14 309.25,-530.16 287,-524.5 269.24,-519.98 249.3,-515.66 232.8,-512.28"/>
<polygon fill="#63b8ff" stroke="#63b8ff" points="353.87,-546.93 364.46,-546.48 355.9,-540.23 353.87,-546.93"/>
</a>
</g>
</g>
<!-- Node11&#45;&gt;Node11 -->
<g id="edge13_Node000011_Node000011" class="edge">
<title>Node11&#45;&gt;Node11</title>
<g id="a_edge13_Node000011_Node000011"><a xlink:title=" ">
<path fill="none" stroke="#63b8ff" d="M449.76,-493.1C444.74,-497.47 432.48,-500.5 413,-500.5 380.19,-500.5 367.88,-491.91 376.09,-482.78"/>
<polygon fill="#63b8ff" stroke="#63b8ff" points="453.26,-492.83 449.91,-482.78 446.26,-492.72 453.26,-492.83"/>
</a>
</g>
</g>
<!-- Node12 -->
<g id="Node000012" class="node">
<title>Node12</title>
<g id="a_Node000012"><a xlink:href="namespacewmtk_1_1components.html#a4166e4880553cfacbf79ac3515a637cd" target="_top" xlink:title=" ">
<polygon fill="white" stroke="#666666" points="274.5,-477.5 119.5,-477.5 119.5,-447.5 274.5,-447.5 274.5,-477.5"/>
<text text-anchor="start" x="127.5" y="-465.5" font-family="Helvetica,sans-Serif" font-size="10.00">wmtk::components::periodic</text>
<text text-anchor="middle" x="197" y="-454.5" font-family="Helvetica,sans-Serif" font-size="10.00">_optimization</text>
</a>
</g>
</g>
<!-- Node11&#45;&gt;Node12 -->
<g id="edge12_Node000011_Node000012" class="edge">
<title>Node11&#45;&gt;Node12</title>
<g id="a_edge12_Node000011_Node000012"><a xlink:title=" ">
<path fill="none" stroke="#63b8ff" d="M325.54,-465.48C308.66,-465.09 291.06,-464.67 274.53,-464.29"/>
<polygon fill="#63b8ff" stroke="#63b8ff" points="325.87,-468.99 335.95,-465.72 326.03,-461.99 325.87,-468.99"/>
</a>
</g>
</g>
<!-- Node14 -->
<g id="Node000014" class="node">
<title>Node14</title>
<g id="a_Node000014"><a xlink:href="namespacewmtk_1_1components.html#a6f27411696c9ba6e294768451f31351f" target="_top" xlink:title="Perform maching tetrahedra/triangles.">
<polygon fill="white" stroke="#666666" points="278,-429 116,-429 116,-410 278,-410 278,-429"/>
<text text-anchor="middle" x="197" y="-417" font-family="Helvetica,sans-Serif" font-size="10.00">wmtk::components::marching</text>
</a>
</g>
</g>
<!-- Node13&#45;&gt;Node14 -->
<g id="edge15_Node000013_Node000014" class="edge">
<title>Node13&#45;&gt;Node14</title>
<g id="a_edge15_Node000013_Node000014"><a xlink:title=" ">
<path fill="none" stroke="#63b8ff" d="M322.26,-419.5C307.6,-419.5 292.51,-419.5 278.11,-419.5"/>
<polygon fill="#63b8ff" stroke="#63b8ff" points="322.31,-423 332.31,-419.5 322.31,-416 322.31,-423"/>
</a>
</g>
</g>
<!-- Node15 -->
<g id="Node000015" class="node">
<title>Node15</title>
<g id="a_Node000015"><a xlink:href="tests_2marching_8cpp.html#a74e4ea64dd134ace15ef3292b4eb9753" target="_top" xlink:title=" ">
<polygon fill="white" stroke="#666666" points="71,-447 0,-447 0,-428 71,-428 71,-447"/>
<text text-anchor="middle" x="35.5" y="-435" font-family="Helvetica,sans-Serif" font-size="10.00">TEST_CASE</text>
</a>
</g>
</g>
<!-- Node14&#45;&gt;Node15 -->
<g id="edge16_Node000014_Node000015" class="edge">
<title>Node14&#45;&gt;Node15</title>
<g id="a_edge16_Node000014_Node000015"><a xlink:title=" ">
<path fill="none" stroke="#63b8ff" d="M105.53,-429.71C93.38,-431.08 81.58,-432.41 71.26,-433.58"/>
<polygon fill="#63b8ff" stroke="#63b8ff" points="106.24,-433.15 115.78,-428.55 105.45,-426.2 106.24,-433.15"/>
</a>
</g>
</g>
<!-- Node16 -->
<g id="Node000016" class="node">
<title>Node16</title>
<g id="a_Node000016"><a xlink:href="tests_2marching_8cpp.html#af20fbc246d1ad31be8d9ec0011ac52d6" target="_top" xlink:title=" ">
<polygon fill="white" stroke="#666666" points="71,-410 0,-410 0,-391 71,-391 71,-410"/>
<text text-anchor="middle" x="35.5" y="-398" font-family="Helvetica,sans-Serif" font-size="10.00">TEST_CASE</text>
</a>
</g>
</g>
<!-- Node14&#45;&gt;Node16 -->
<g id="edge17_Node000014_Node000016" class="edge">
<title>Node14&#45;&gt;Node16</title>
<g id="a_edge17_Node000014_Node000016"><a xlink:title=" ">
<path fill="none" stroke="#63b8ff" d="M105.53,-408.72C93.38,-407.28 81.58,-405.87 71.26,-404.64"/>
<polygon fill="#63b8ff" stroke="#63b8ff" points="105.44,-412.24 115.78,-409.94 106.27,-405.29 105.44,-412.24"/>
</a>
</g>
</g>
<!-- Node18 -->
<g id="Node000018" class="node">
<title>Node18</title>
<g id="a_Node000018"><a xlink:href="namespacewmtk_1_1components.html#a7cec0c38121ddd036af26c760311d0e8" target="_top" xlink:title=" ">
<polygon fill="white" stroke="#666666" points="272.5,-391.5 121.5,-391.5 121.5,-361.5 272.5,-361.5 272.5,-391.5"/>
<text text-anchor="start" x="129.5" y="-379.5" font-family="Helvetica,sans-Serif" font-size="10.00">wmtk::components::regular</text>
<text text-anchor="middle" x="197" y="-368.5" font-family="Helvetica,sans-Serif" font-size="10.00">_space</text>
</a>
</g>
</g>
<!-- Node17&#45;&gt;Node18 -->
<g id="edge19_Node000017_Node000018" class="edge">
<title>Node17&#45;&gt;Node18</title>
<g id="a_edge19_Node000017_Node000018"><a xlink:title=" ">
<path fill="none" stroke="#63b8ff" d="M317.45,-373.71C302.5,-374.06 287.23,-374.42 272.82,-374.75"/>
<polygon fill="#63b8ff" stroke="#63b8ff" points="317.81,-377.2 327.73,-373.47 317.65,-370.2 317.81,-377.2"/>
</a>
</g>
</g>
<!-- Node19 -->
<g id="Node000019" class="node">
<title>Node19</title>
<g id="a_Node000019"><a xlink:href="test__component__regular__space_8cpp.html#a728024a1ea7ac078fd93d4035f705520" target="_top" xlink:title=" ">
<polygon fill="white" stroke="#666666" points="232.5,-343 161.5,-343 161.5,-324 232.5,-324 232.5,-343"/>
<text text-anchor="middle" x="197" y="-331" font-family="Helvetica,sans-Serif" font-size="10.00">TEST_CASE</text>
</a>
</g>
</g>
<!-- Node17&#45;&gt;Node19 -->
<g id="edge20_Node000017_Node000019" class="edge">
<title>Node17&#45;&gt;Node19</title>
<g id="a_edge20_Node000017_Node000019"><a xlink:title=" ">
<path fill="none" stroke="#63b8ff" d="M317.53,-354.72C287.25,-349.35 255.62,-343.73 232.5,-339.63"/>
<polygon fill="#63b8ff" stroke="#63b8ff" points="317.27,-358.23 327.73,-356.54 318.49,-351.34 317.27,-358.23"/>
</a>
</g>
</g>
<!-- Node20 -->
<g id="Node000020" class="node">
<title>Node20</title>
<g id="a_Node000020"><a xlink:href="test__component__regular__space_8cpp.html#a5e69783b3ce0c074477e3081ab8cf658" target="_top" xlink:title=" ">
<polygon fill="white" stroke="#666666" points="232.5,-306 161.5,-306 161.5,-287 232.5,-287 232.5,-306"/>
<text text-anchor="middle" x="197" y="-294" font-family="Helvetica,sans-Serif" font-size="10.00">TEST_CASE</text>
</a>
</g>
</g>
<!-- Node17&#45;&gt;Node20 -->
<g id="edge21_Node000017_Node000020" class="edge">
<title>Node17&#45;&gt;Node20</title>
<g id="a_edge21_Node000017_Node000020"><a xlink:title=" ">
<path fill="none" stroke="#63b8ff" d="M333.8,-352.71C330.09,-351.1 326.47,-349.37 323,-347.5 304.16,-337.33 306.1,-325.17 287,-315.5 270.22,-307.01 249.81,-302.31 232.77,-299.71"/>
<polygon fill="#63b8ff" stroke="#63b8ff" points="332.61,-356 343.2,-356.44 335.19,-349.49 332.61,-356"/>
</a>
</g>
</g>
<!-- Node23 -->
<g id="Node000023" class="node">
<title>Node23</title>
<g id="a_Node000023"><a xlink:href="namespacewmtk_1_1components.html#a3154cdbc6047eee67258b69cc7d5e7cf" target="_top" xlink:title="Perform shortest&#45;edge collapse on a triangular surface mesh.">
<polygon fill="white" stroke="#666666" points="287,-268.5 107,-268.5 107,-238.5 287,-238.5 287,-268.5"/>
<text text-anchor="start" x="115" y="-256.5" font-family="Helvetica,sans-Serif" font-size="10.00">wmtk::components::shortestedge</text>
<text text-anchor="middle" x="197" y="-245.5" font-family="Helvetica,sans-Serif" font-size="10.00">_collapse</text>
</a>
</g>
</g>
<!-- Node22&#45;&gt;Node23 -->
<g id="edge24_Node000022_Node000023" class="edge">
<title>Node22&#45;&gt;Node23</title>
<g id="a_edge24_Node000022_Node000023"><a xlink:title=" ">
<path fill="none" stroke="#63b8ff" d="M338.5,-305.35C333.2,-303.53 327.98,-301.58 323,-299.5 305.91,-292.36 304.05,-285.73 287,-278.5 278.28,-274.8 268.85,-271.48 259.51,-268.56"/>
<polygon fill="#63b8ff" stroke="#63b8ff" points="337.51,-308.71 348.1,-308.48 339.68,-302.05 337.51,-308.71"/>
</a>
</g>
</g>
</g>
</svg>
