<?xml version="1.0" encoding="UTF-8" standalone="no"?>
<!DOCTYPE svg PUBLIC "-//W3C//DTD SVG 1.1//EN"
 "http://www.w3.org/Graphics/SVG/1.1/DTD/svg11.dtd">
<!-- Generated by graphviz version 2.43.0 (0)
 -->
<!-- Title: wmtk::simplex::utils::SimplexComparisons::equal Pages: 1 -->
<!--zoomable 720 -->

<svg id="main" version="1.1" xmlns="http://www.w3.org/2000/svg" xmlns:xlink="http://www.w3.org/1999/xlink" xml:space="preserve" onload="init(evt)">
<style type="text/css"><![CDATA[
.node, .edge {opacity: 0.7;}
.node.selected, .edge.selected {opacity: 1;}
.edge:hover path { stroke: red; }
.edge:hover polygon { stroke: red; fill: red; }
]]></style>

<defs>
  <circle id="rim" cx="0" cy="0" r="7"/>
  <circle id="rim2" cx="0" cy="0" r="3.5"/>
  <g id="zoomPlus">
    <use xlink:href="#rim" fill="#404040"><set attributeName="fill" to="#808080" begin="zoomplus.mouseover" end="zoomplus.mouseout"/></use>
    <path d="M-4,0h8M0,-4v8" fill="none" stroke="white" stroke-width="1.5" pointer-events="none"/>
  </g>
  <g id="zoomMin">
    <use xlink:href="#rim" fill="#404040"><set attributeName="fill" to="#808080" begin="zoomminus.mouseover" end="zoomminus.mouseout"/></use>
    <path d="M-4,0h8" fill="none" stroke="white" stroke-width="1.5" pointer-events="none"/>
  </g>
  <g id="arrowUp" transform="translate(30 24)">
    <use xlink:href="#rim"/>
    <path pointer-events="none" fill="none" stroke="white" stroke-width="1.5" d="M0,-3.0v7 M-2.5,-0.5L0,-3.0L2.5,-0.5"/>
  </g>
  <g id="arrowRight" transform="rotate(90) translate(36 -43)">
    <use xlink:href="#rim"/>
    <path pointer-events="none" fill="none" stroke="white" stroke-width="1.5" d="M0,-3.0v7 M-2.5,-0.5L0,-3.0L2.5,-0.5"/>
  </g>
  <g id="arrowDown" transform="rotate(180) translate(-30 -48)">
    <use xlink:href="#rim"/>
    <path pointer-events="none" fill="none" stroke="white" stroke-width="1.5" d="M0,-3.0v7 M-2.5,-0.5L0,-3.0L2.5,-0.5"/>
  </g>
  <g id="arrowLeft" transform="rotate(270) translate(-36 17)">
    <use xlink:href="#rim"/>
    <path pointer-events="none" fill="none" stroke="white" stroke-width="1.5" d="M0,-3.0v7 M-2.5,-0.5L0,-3.0L2.5,-0.5"/>
  </g>
  <g id="resetDef">
    <use xlink:href="#rim2" fill="#404040"><set attributeName="fill" to="#808080" begin="reset.mouseover" end="reset.mouseout"/></use>
  </g>
</defs>
<script type="application/ecmascript">
var viewWidth = 826;
var viewHeight = 720;
var sectionId = 'dynsection-1';
</script>
<script type="application/ecmascript" xlink:href="svg.min.js"/>
<svg id="graph" class="graph">
<g id="viewport">
<title>wmtk::simplex::utils::SimplexComparisons::equal</title>
<!-- Node1 -->
<g id="Node000001" class="node">
<title>Node1</title>
<g id="a_Node000001"><a xlink:title=" ">
<polygon fill="#999999" stroke="#666666" points="818,-381 692,-381 692,-340 818,-340 818,-381"/>
<text text-anchor="start" x="700" y="-369" font-family="Helvetica,sans-Serif" font-size="10.00">wmtk::simplex::utils</text>
<text text-anchor="start" x="700" y="-358" font-family="Helvetica,sans-Serif" font-size="10.00">::SimplexComparisons</text>
<text text-anchor="middle" x="755" y="-347" font-family="Helvetica,sans-Serif" font-size="10.00">::equal</text>
</a>
</g>
</g>
<!-- Node2 -->
<g id="Node000002" class="node">
<title>Node2</title>
<g id="a_Node000002"><a xlink:href="classwmtk_1_1invariants_1_1_collapse_energy_before_invariant.html#aaf60c03541b2a73aebe4ebad561f2535" target="_top" xlink:title=" ">
<polygon fill="white" stroke="#666666" points="637,-711.5 473,-711.5 473,-681.5 637,-681.5 637,-711.5"/>
<text text-anchor="start" x="481" y="-699.5" font-family="Helvetica,sans-Serif" font-size="10.00">wmtk::invariants::Collapse</text>
<text text-anchor="middle" x="555" y="-688.5" font-family="Helvetica,sans-Serif" font-size="10.00">EnergyBeforeInvariant::before</text>
</a>
</g>
</g>
<!-- Node1&#45;&gt;Node2 -->
<g id="edge1_Node000001_Node000002" class="edge">
<title>Node1&#45;&gt;Node2</title>
<g id="a_edge1_Node000001_Node000002"><a xlink:title=" ">
<path fill="none" stroke="#63b8ff" d="M753.78,-391.22C751.6,-453.8 737.41,-596.51 656,-672.5 650.52,-677.62 644.14,-681.7 637.32,-684.95"/>
<polygon fill="#63b8ff" stroke="#63b8ff" points="757.28,-391.29 754.05,-381.2 750.29,-391.1 757.28,-391.29"/>
</a>
</g>
</g>
<!-- Node3 -->
<g id="Node000003" class="node">
<title>Node3</title>
<g id="a_Node000003"><a xlink:href="classwmtk_1_1invariants_1_1_collapse_energy_before_invariant_double.html#aedec3d60165b7fe7541a9caa18f6c131" target="_top" xlink:title=" ">
<polygon fill="white" stroke="#666666" points="635.5,-663 474.5,-663 474.5,-622 635.5,-622 635.5,-663"/>
<text text-anchor="start" x="482.5" y="-651" font-family="Helvetica,sans-Serif" font-size="10.00">wmtk::invariants::Collapse</text>
<text text-anchor="start" x="482.5" y="-640" font-family="Helvetica,sans-Serif" font-size="10.00">EnergyBeforeInvariantDouble</text>
<text text-anchor="middle" x="555" y="-629" font-family="Helvetica,sans-Serif" font-size="10.00">::before</text>
</a>
</g>
</g>
<!-- Node1&#45;&gt;Node3 -->
<g id="edge2_Node000001_Node000003" class="edge">
<title>Node1&#45;&gt;Node3</title>
<g id="a_edge2_Node000001_Node000003"><a xlink:title=" ">
<path fill="none" stroke="#63b8ff" d="M750.81,-391.47C743.66,-444.68 721.47,-553.51 656,-613.5 650,-619 643.02,-623.45 635.59,-627.07"/>
<polygon fill="#63b8ff" stroke="#63b8ff" points="754.31,-391.66 752.08,-381.3 747.37,-390.79 754.31,-391.66"/>
</a>
</g>
</g>
<!-- Node4 -->
<g id="Node000004" class="node">
<title>Node4</title>
<g id="a_Node000004"><a xlink:href="classwmtk_1_1invariants_1_1_collapse_soft_energy_before_invariant.html#aab8e4687323543f65ee7a38e93b9e32d" target="_top" xlink:title=" ">
<polygon fill="white" stroke="#666666" points="628.5,-604 481.5,-604 481.5,-563 628.5,-563 628.5,-604"/>
<text text-anchor="start" x="489.5" y="-592" font-family="Helvetica,sans-Serif" font-size="10.00">wmtk::invariants::Collapse</text>
<text text-anchor="start" x="489.5" y="-581" font-family="Helvetica,sans-Serif" font-size="10.00">SoftEnergyBeforeInvariant</text>
<text text-anchor="middle" x="555" y="-570" font-family="Helvetica,sans-Serif" font-size="10.00">::before</text>
</a>
</g>
</g>
<!-- Node1&#45;&gt;Node4 -->
<g id="edge3_Node000001_Node000004" class="edge">
<title>Node1&#45;&gt;Node4</title>
<g id="a_edge3_Node000001_Node000004"><a xlink:title=" ">
<path fill="none" stroke="#63b8ff" d="M746.8,-391.06C735.11,-433.91 707.91,-511.43 656,-554.5 648,-561.14 638.55,-566.26 628.7,-570.2"/>
<polygon fill="#63b8ff" stroke="#63b8ff" points="750.23,-391.77 749.38,-381.21 743.46,-389.99 750.23,-391.77"/>
</a>
</g>
</g>
<!-- Node5 -->
<g id="Node000005" class="node">
<title>Node5</title>
<g id="a_Node000005"><a xlink:href="classwmtk_1_1simplex_1_1utils_1_1_simplex_comparisons.html#a64c61b4dc2a24ac2254da283a59f100d" target="_top" xlink:title=" ">
<polygon fill="white" stroke="#666666" points="618,-545 492,-545 492,-504 618,-504 618,-545"/>
<text text-anchor="start" x="500" y="-533" font-family="Helvetica,sans-Serif" font-size="10.00">wmtk::simplex::utils</text>
<text text-anchor="start" x="500" y="-522" font-family="Helvetica,sans-Serif" font-size="10.00">::SimplexComparisons</text>
<text text-anchor="middle" x="555" y="-511" font-family="Helvetica,sans-Serif" font-size="10.00">::equal</text>
</a>
</g>
</g>
<!-- Node1&#45;&gt;Node5 -->
<g id="edge4_Node000001_Node000005" class="edge">
<title>Node1&#45;&gt;Node5</title>
<g id="a_edge4_Node000001_Node000005"><a xlink:title=" ">
<path fill="none" stroke="#63b8ff" d="M738.25,-390.3C721.47,-419.41 692.33,-463.08 656,-489.5 644.7,-497.72 631.29,-504.15 618.03,-509.12"/>
<polygon fill="#63b8ff" stroke="#63b8ff" points="741.41,-391.84 743.26,-381.41 735.31,-388.4 741.41,-391.84"/>
</a>
</g>
</g>
<!-- Node6 -->
<g id="Node000006" class="node">
<title>Node6</title>
<g id="a_Node000006"><a xlink:href="classwmtk_1_1operations_1_1_a_m_i_p_s_optimization_smoothing.html#a2c409cd3da46f4360119e142ef3c3682" target="_top" xlink:title="returns an empty vector in case of failure">
<polygon fill="white" stroke="#666666" points="202,-444.5 0,-444.5 0,-414.5 202,-414.5 202,-444.5"/>
<text text-anchor="start" x="8" y="-432.5" font-family="Helvetica,sans-Serif" font-size="10.00">wmtk::operations::AMIPSOptimization</text>
<text text-anchor="middle" x="101" y="-421.5" font-family="Helvetica,sans-Serif" font-size="10.00">Smoothing::execute</text>
</a>
</g>
</g>
<!-- Node1&#45;&gt;Node6 -->
<g id="edge5_Node000001_Node000006" class="edge">
<title>Node1&#45;&gt;Node6</title>
<g id="a_edge5_Node000001_Node000006"><a xlink:title=" ">
<path fill="none" stroke="#63b8ff" d="M734.39,-389.48C716.9,-412.51 688.99,-443.03 656,-456.5 480.37,-528.19 246.98,-473.56 148.73,-444.57"/>
<polygon fill="#63b8ff" stroke="#63b8ff" points="737.24,-391.5 740.35,-381.37 731.61,-387.35 737.24,-391.5"/>
</a>
</g>
</g>
<!-- Node7 -->
<g id="Node000007" class="node">
<title>Node7</title>
<g id="a_Node000007"><a xlink:href="classwmtk_1_1operations_1_1_a_m_i_p_s_optimization_smoothing_periodic.html#a86df18fe3713cb41dca1687487dea61b" target="_top" xlink:title="returns an empty vector in case of failure">
<polygon fill="white" stroke="#666666" points="656,-447.5 454,-447.5 454,-417.5 656,-417.5 656,-447.5"/>
<text text-anchor="start" x="462" y="-435.5" font-family="Helvetica,sans-Serif" font-size="10.00">wmtk::operations::AMIPSOptimization</text>
<text text-anchor="middle" x="555" y="-424.5" font-family="Helvetica,sans-Serif" font-size="10.00">SmoothingPeriodic::execute</text>
</a>
</g>
</g>
<!-- Node1&#45;&gt;Node7 -->
<g id="edge6_Node000001_Node000007" class="edge">
<title>Node1&#45;&gt;Node7</title>
<g id="a_edge6_Node000001_Node000007"><a xlink:title=" ">
<path fill="none" stroke="#63b8ff" d="M707.54,-385.85C691.54,-393.88 673.29,-402.28 656,-408.5 646.76,-411.83 636.88,-414.83 627.05,-417.5"/>
<polygon fill="#63b8ff" stroke="#63b8ff" points="709.37,-388.85 716.68,-381.19 706.18,-382.62 709.37,-388.85"/>
</a>
</g>
</g>
<!-- Node8 -->
<g id="Node000008" class="node">
<title>Node8</title>
<g id="a_Node000008"><a xlink:href="classwmtk_1_1_tri_mesh_1_1_tri_mesh_operation_executor.html#a15a37c1d8c6556c11d387fbf78060f4e" target="_top" xlink:title=" ">
<polygon fill="white" stroke="#666666" points="644.5,-399.5 465.5,-399.5 465.5,-369.5 644.5,-369.5 644.5,-399.5"/>
<text text-anchor="start" x="473.5" y="-387.5" font-family="Helvetica,sans-Serif" font-size="10.00">wmtk::TriMesh::TriMeshOperation</text>
<text text-anchor="middle" x="555" y="-376.5" font-family="Helvetica,sans-Serif" font-size="10.00">Executor::get_incident_face_data</text>
</a>
</g>
</g>
<!-- Node1&#45;&gt;Node8 -->
<g id="edge7_Node000001_Node000008" class="edge">
<title>Node1&#45;&gt;Node8</title>
<g id="a_edge7_Node000001_Node000008"><a xlink:title=" ">
<path fill="none" stroke="#63b8ff" d="M681.9,-369.24C669.82,-370.7 657.16,-372.24 644.72,-373.75"/>
<polygon fill="#63b8ff" stroke="#63b8ff" points="682.39,-372.71 691.89,-368.03 681.55,-365.76 682.39,-372.71"/>
</a>
</g>
</g>
<!-- Node9 -->
<g id="Node000009" class="node">
<title>Node9</title>
<g id="a_Node000009"><a xlink:href="namespacewmtk_1_1function_1_1utils.html#a10708966079a04e25ba0ea7953479662" target="_top" xlink:title="get attributes from a simplex">
<polygon fill="white" stroke="#666666" points="622.5,-351.5 487.5,-351.5 487.5,-321.5 622.5,-321.5 622.5,-351.5"/>
<text text-anchor="start" x="495.5" y="-339.5" font-family="Helvetica,sans-Serif" font-size="10.00">wmtk::function::utils</text>
<text text-anchor="middle" x="555" y="-328.5" font-family="Helvetica,sans-Serif" font-size="10.00">::get_simplex_attributes</text>
</a>
</g>
</g>
<!-- Node1&#45;&gt;Node9 -->
<g id="edge8_Node000001_Node000009" class="edge">
<title>Node1&#45;&gt;Node9</title>
<g id="a_edge8_Node000001_Node000009"><a xlink:title=" ">
<path fill="none" stroke="#63b8ff" d="M681.93,-351.76C662.57,-349.42 641.73,-346.89 622.69,-344.58"/>
<polygon fill="#63b8ff" stroke="#63b8ff" points="681.55,-355.24 691.89,-352.97 682.39,-348.29 681.55,-355.24"/>
</a>
</g>
</g>
<!-- Node12 -->
<g id="Node000012" class="node">
<title>Node12</title>
<g id="a_Node000012"><a xlink:href="namespacewmtk_1_1simplex.html#a0ca1602c328b51a103411fcac3d70ebe" target="_top" xlink:title="Check if the edge to collapse satisfying the link condition.">
<polygon fill="white" stroke="#666666" points="611.5,-303.5 498.5,-303.5 498.5,-273.5 611.5,-273.5 611.5,-303.5"/>
<text text-anchor="start" x="506.5" y="-291.5" font-family="Helvetica,sans-Serif" font-size="10.00">wmtk::simplex::link</text>
<text text-anchor="middle" x="555" y="-280.5" font-family="Helvetica,sans-Serif" font-size="10.00">_condition</text>
</a>
</g>
</g>
<!-- Node1&#45;&gt;Node12 -->
<g id="edge12_Node000001_Node000012" class="edge">
<title>Node1&#45;&gt;Node12</title>
<g id="a_edge12_Node000001_Node000012"><a xlink:title=" ">
<path fill="none" stroke="#63b8ff" d="M707.54,-335.15C691.54,-327.12 673.29,-318.72 656,-312.5 641.89,-307.42 626.27,-303.09 611.66,-299.57"/>
<polygon fill="#63b8ff" stroke="#63b8ff" points="706.18,-338.38 716.68,-339.81 709.37,-332.15 706.18,-338.38"/>
</a>
</g>
</g>
<!-- Node17 -->
<g id="Node000017" class="node">
<title>Node17</title>
<g id="a_Node000017"><a xlink:href="namespacewmtk_1_1simplex.html#aead7bf4f261c58bdb33bd0bf7fcd541d" target="_top" xlink:title=" ">
<polygon fill="white" stroke="#666666" points="611.5,-255.5 498.5,-255.5 498.5,-225.5 611.5,-225.5 611.5,-255.5"/>
<text text-anchor="start" x="506.5" y="-243.5" font-family="Helvetica,sans-Serif" font-size="10.00">wmtk::simplex::link</text>
<text text-anchor="middle" x="555" y="-232.5" font-family="Helvetica,sans-Serif" font-size="10.00">_condition</text>
</a>
</g>
</g>
<!-- Node1&#45;&gt;Node17 -->
<g id="edge18_Node000001_Node000017" class="edge">
<title>Node1&#45;&gt;Node17</title>
<g id="a_edge18_Node000001_Node000017"><a xlink:title=" ">
<path fill="none" stroke="#63b8ff" d="M732.24,-332.02C714.14,-310.31 686.49,-281.37 656,-264.5 642.49,-257.02 626.69,-251.86 611.69,-248.3"/>
<polygon fill="#63b8ff" stroke="#63b8ff" points="729.66,-334.4 738.69,-339.94 735.09,-329.98 729.66,-334.4"/>
</a>
</g>
</g>
<!-- Node18 -->
<g id="Node000018" class="node">
<title>Node18</title>
<g id="a_Node000018"><a xlink:href="namespacewmtk_1_1simplex.html#aad86388bdc8c1685d7d55fad016f0ca2" target="_top" xlink:title=" ">
<polygon fill="white" stroke="#666666" points="611.5,-207.5 498.5,-207.5 498.5,-177.5 611.5,-177.5 611.5,-207.5"/>
<text text-anchor="start" x="506.5" y="-195.5" font-family="Helvetica,sans-Serif" font-size="10.00">wmtk::simplex::link</text>
<text text-anchor="middle" x="555" y="-184.5" font-family="Helvetica,sans-Serif" font-size="10.00">_condition</text>
</a>
</g>
</g>
<!-- Node1&#45;&gt;Node18 -->
<g id="edge19_Node000001_Node000018" class="edge">
<title>Node1&#45;&gt;Node18</title>
<g id="a_edge19_Node000001_Node000018"><a xlink:title=" ">
<path fill="none" stroke="#63b8ff" d="M741.77,-330.8C726.6,-297.74 697.56,-245.2 656,-216.5 643,-207.52 627.03,-201.88 611.71,-198.35"/>
<polygon fill="#63b8ff" stroke="#63b8ff" points="738.59,-332.27 745.86,-339.98 744.99,-329.42 738.59,-332.27"/>
</a>
</g>
</g>
<!-- Node19 -->
<g id="Node000019" class="node">
<title>Node19</title>
<g id="a_Node000019"><a xlink:href="classwmtk_1_1simplex_1_1utils_1_1_mesh_simplex_comparator_1_1_equal.html#a1860a38e7a3e000b6a3c5010c836550d" target="_top" xlink:title=" ">
<polygon fill="white" stroke="#666666" points="628,-159 482,-159 482,-118 628,-118 628,-159"/>
<text text-anchor="start" x="490" y="-147" font-family="Helvetica,sans-Serif" font-size="10.00">wmtk::simplex::utils</text>
<text text-anchor="start" x="490" y="-136" font-family="Helvetica,sans-Serif" font-size="10.00">::MeshSimplexComparator</text>
<text text-anchor="middle" x="555" y="-125" font-family="Helvetica,sans-Serif" font-size="10.00">::Equal::operator()</text>
</a>
</g>
</g>
<!-- Node1&#45;&gt;Node19 -->
<g id="edge20_Node000001_Node000019" class="edge">
<title>Node1&#45;&gt;Node19</title>
<g id="a_edge20_Node000001_Node000019"><a xlink:title=" ">
<path fill="none" stroke="#63b8ff" d="M746.56,-329.99C734.65,-287.58 707.24,-211.24 656,-168.5 647.86,-161.71 638.21,-156.45 628.18,-152.39"/>
<polygon fill="#63b8ff" stroke="#63b8ff" points="743.21,-331 749.19,-339.74 749.97,-329.18 743.21,-331"/>
</a>
</g>
</g>
<!-- Node20 -->
<g id="Node000020" class="node">
<title>Node20</title>
<g id="a_Node000020"><a xlink:href="structwmtk_1_1simplex_1_1internal_1_1_simplex_equal_functor.html#adf088974d25815e4aa13559301ecd9db" target="_top" xlink:title=" ">
<polygon fill="white" stroke="#666666" points="621.5,-100 488.5,-100 488.5,-59 621.5,-59 621.5,-100"/>
<text text-anchor="start" x="496.5" y="-88" font-family="Helvetica,sans-Serif" font-size="10.00">wmtk::simplex::internal</text>
<text text-anchor="start" x="496.5" y="-77" font-family="Helvetica,sans-Serif" font-size="10.00">::SimplexEqualFunctor</text>
<text text-anchor="middle" x="555" y="-66" font-family="Helvetica,sans-Serif" font-size="10.00">::operator()</text>
</a>
</g>
</g>
<!-- Node1&#45;&gt;Node20 -->
<g id="edge21_Node000001_Node000020" class="edge">
<title>Node1&#45;&gt;Node20</title>
<g id="a_edge21_Node000001_Node000020"><a xlink:title=" ">
<path fill="none" stroke="#63b8ff" d="M750.77,-329.65C743.56,-276.64 721.28,-168.24 656,-108.5 646.33,-99.65 634.12,-93.49 621.58,-89.2"/>
<polygon fill="#63b8ff" stroke="#63b8ff" points="747.32,-330.3 752.05,-339.78 754.27,-329.42 747.32,-330.3"/>
</a>
</g>
</g>
<!-- Node21 -->
<g id="Node000021" class="node">
<title>Node21</title>
<g id="a_Node000021"><a xlink:href="structwmtk_1_1simplex_1_1internal_1_1_homogeneous_simplex_equal_functor.html#a11c73b0efcb6ade6021ef2a8cb8aa42a" target="_top" xlink:title=" ">
<polygon fill="white" stroke="#666666" points="653,-41 457,-41 457,0 653,0 653,-41"/>
<text text-anchor="start" x="465" y="-29" font-family="Helvetica,sans-Serif" font-size="10.00">wmtk::simplex::internal</text>
<text text-anchor="start" x="465" y="-18" font-family="Helvetica,sans-Serif" font-size="10.00">::HomogeneousSimplexEqualFunctor</text>
<text text-anchor="middle" x="555" y="-7" font-family="Helvetica,sans-Serif" font-size="10.00">::operator()</text>
</a>
</g>
</g>
<!-- Node1&#45;&gt;Node21 -->
<g id="edge22_Node000001_Node000021" class="edge">
<title>Node1&#45;&gt;Node21</title>
<g id="a_edge22_Node000001_Node000021"><a xlink:title=" ">
<path fill="none" stroke="#63b8ff" d="M753.42,-329.35C750.53,-267.11 735.06,-126.76 656,-49.5 652.77,-46.34 649.21,-43.52 645.43,-41.01"/>
<polygon fill="#63b8ff" stroke="#63b8ff" points="749.93,-329.82 753.81,-339.68 756.93,-329.56 749.93,-329.82"/>
</a>
</g>
</g>
<!-- Node10 -->
<g id="Node000010" class="node">
<title>Node10</title>
<g id="a_Node000010"><a xlink:href="classwmtk_1_1function_1_1_per_simplex_autodiff_function.html#a2925164a2ef8ed1f86a9c07075972967" target="_top" xlink:title=" ">
<polygon fill="white" stroke="#666666" points="418,-423.5 238,-423.5 238,-393.5 418,-393.5 418,-423.5"/>
<text text-anchor="start" x="246" y="-411.5" font-family="Helvetica,sans-Serif" font-size="10.00">wmtk::function::PerSimplex</text>
<text text-anchor="middle" x="328" y="-400.5" font-family="Helvetica,sans-Serif" font-size="10.00">AutodiffFunction::get_coordinates</text>
</a>
</g>
</g>
<!-- Node9&#45;&gt;Node10 -->
<g id="edge9_Node000009_Node000010" class="edge">
<title>Node9&#45;&gt;Node10</title>
<g id="a_edge9_Node000009_Node000010"><a xlink:title=" ">
<path fill="none" stroke="#63b8ff" d="M477.45,-351.9C469.4,-354.39 461.44,-357.25 454,-360.5 436.38,-368.2 435.51,-376.56 418,-384.5 410.57,-387.87 402.56,-390.85 394.51,-393.46"/>
<polygon fill="#63b8ff" stroke="#63b8ff" points="478.67,-355.19 487.3,-349.03 476.72,-348.47 478.67,-355.19"/>
</a>
</g>
</g>
<!-- Node11 -->
<g id="Node000011" class="node">
<title>Node11</title>
<g id="a_Node000011"><a xlink:href="classwmtk_1_1function_1_1_a_m_i_p_s.html#a36709a007132c33f85efe0b4abd16b93" target="_top" xlink:title=" ">
<polygon fill="white" stroke="#666666" points="391.5,-375.5 264.5,-375.5 264.5,-345.5 391.5,-345.5 391.5,-375.5"/>
<text text-anchor="start" x="272.5" y="-363.5" font-family="Helvetica,sans-Serif" font-size="10.00">wmtk::function::AMIPS</text>
<text text-anchor="middle" x="328" y="-352.5" font-family="Helvetica,sans-Serif" font-size="10.00">::get_raw_coordinates</text>
</a>
</g>
</g>
<!-- Node9&#45;&gt;Node11 -->
<g id="edge10_Node000009_Node000011" class="edge">
<title>Node9&#45;&gt;Node11</title>
<g id="a_edge10_Node000009_Node000011"><a xlink:title=" ">
<path fill="none" stroke="#63b8ff" d="M477.28,-344.68C449.35,-347.66 418.13,-350.99 391.57,-353.83"/>
<polygon fill="#63b8ff" stroke="#63b8ff" points="477.83,-348.14 487.41,-343.6 477.09,-341.18 477.83,-348.14"/>
</a>
</g>
</g>
<!-- Node11&#45;&gt;Node6 -->
<g id="edge11_Node000011_Node000006" class="edge">
<title>Node11&#45;&gt;Node6</title>
<g id="a_edge11_Node000011_Node000006"><a xlink:title=" ">
<path fill="none" stroke="#63b8ff" d="M259.52,-378.27C252.24,-380.31 244.96,-382.41 238,-384.5 206.79,-393.86 171.91,-405.43 145.29,-414.49"/>
<polygon fill="#63b8ff" stroke="#63b8ff" points="260.72,-381.57 269.41,-375.52 258.84,-374.82 260.72,-381.57"/>
</a>
</g>
</g>
<!-- Node13 -->
<g id="Node000013" class="node">
<title>Node13</title>
<g id="a_Node000013"><a xlink:href="namespacewmtk_1_1simplex.html#a3307260114e435efa2ea5848902fa5cb" target="_top" xlink:title=" ">
<polygon fill="white" stroke="#666666" points="384.5,-327.5 271.5,-327.5 271.5,-297.5 384.5,-297.5 384.5,-327.5"/>
<text text-anchor="start" x="279.5" y="-315.5" font-family="Helvetica,sans-Serif" font-size="10.00">wmtk::simplex::link</text>
<text text-anchor="middle" x="328" y="-304.5" font-family="Helvetica,sans-Serif" font-size="10.00">_condition</text>
</a>
</g>
</g>
<!-- Node12&#45;&gt;Node13 -->
<g id="edge13_Node000012_Node000013" class="edge">
<title>Node12&#45;&gt;Node13</title>
<g id="a_edge13_Node000012_Node000013"><a xlink:title=" ">
<path fill="none" stroke="#63b8ff" d="M488.41,-295.5C455.53,-299 416.15,-303.2 384.76,-306.55"/>
<polygon fill="#63b8ff" stroke="#63b8ff" points="488.81,-298.97 498.38,-294.43 488.07,-292.01 488.81,-298.97"/>
</a>
</g>
</g>
<!-- Node14 -->
<g id="Node000014" class="node">
<title>Node14</title>
<g id="a_Node000014"><a xlink:href="namespacewmtk_1_1components_1_1internal.html#a8890d5e5bb5f11779d4e40e07882253a" target="_top" xlink:title=" ">
<polygon fill="white" stroke="#666666" points="405,-261.5 251,-261.5 251,-231.5 405,-231.5 405,-261.5"/>
<text text-anchor="start" x="259" y="-249.5" font-family="Helvetica,sans-Serif" font-size="10.00">wmtk::components::internal</text>
<text text-anchor="middle" x="328" y="-238.5" font-family="Helvetica,sans-Serif" font-size="10.00">::periodic_optimization</text>
</a>
</g>
</g>
<!-- Node12&#45;&gt;Node14 -->
<g id="edge14_Node000012_Node000014" class="edge">
<title>Node12&#45;&gt;Node14</title>
<g id="a_edge14_Node000012_Node000014"><a xlink:title=" ">
<path fill="none" stroke="#63b8ff" d="M488.25,-276.23C462.23,-271.37 432.16,-265.76 405.19,-260.72"/>
<polygon fill="#63b8ff" stroke="#63b8ff" points="487.91,-279.72 498.38,-278.12 489.19,-272.84 487.91,-279.72"/>
</a>
</g>
</g>
<!-- Node16 -->
<g id="Node000016" class="node">
<title>Node16</title>
<g id="a_Node000016"><a xlink:href="namespacewmtk_1_1components.html#ac6ca52668bd22e164d4baf59ec533864" target="_top" xlink:title=" ">
<polygon fill="white" stroke="#666666" points="417.5,-213 238.5,-213 238.5,-194 417.5,-194 417.5,-213"/>
<text text-anchor="middle" x="328" y="-201" font-family="Helvetica,sans-Serif" font-size="10.00">wmtk::components::wildmeshing</text>
</a>
</g>
</g>
<!-- Node12&#45;&gt;Node16 -->
<g id="edge17_Node000012_Node000016" class="edge">
<title>Node12&#45;&gt;Node16</title>
<g id="a_edge17_Node000012_Node000016"><a xlink:title=" ">
<path fill="none" stroke="#63b8ff" d="M488.37,-278.98C476.39,-275.55 464.41,-270.87 454,-264.5 433.03,-251.67 439.13,-235.06 418,-222.5 411.48,-218.63 404.28,-215.54 396.88,-213.07"/>
<polygon fill="#63b8ff" stroke="#63b8ff" points="487.82,-282.46 498.38,-281.59 489.59,-275.68 487.82,-282.46"/>
</a>
</g>
</g>
<!-- Node14&#45;&gt;Node14 -->
<g id="edge16_Node000014_Node000014" class="edge">
<title>Node14&#45;&gt;Node14</title>
<g id="a_edge16_Node000014_Node000014"><a xlink:title=" ">
<path fill="none" stroke="#63b8ff" d="M367.56,-272.1C362.15,-276.47 348.97,-279.5 328,-279.5 292.69,-279.5 279.45,-270.91 288.27,-261.78"/>
<polygon fill="#63b8ff" stroke="#63b8ff" points="371.06,-271.83 367.73,-261.78 364.06,-271.72 371.06,-271.83"/>
</a>
</g>
</g>
<!-- Node15 -->
<g id="Node000015" class="node">
<title>Node15</title>
<g id="a_Node000015"><a xlink:href="namespacewmtk_1_1components.html#a4166e4880553cfacbf79ac3515a637cd" target="_top" xlink:title=" ">
<polygon fill="white" stroke="#666666" points="178.5,-261.5 23.5,-261.5 23.5,-231.5 178.5,-231.5 178.5,-261.5"/>
<text text-anchor="start" x="31.5" y="-249.5" font-family="Helvetica,sans-Serif" font-size="10.00">wmtk::components::periodic</text>
<text text-anchor="middle" x="101" y="-238.5" font-family="Helvetica,sans-Serif" font-size="10.00">_optimization</text>
</a>
</g>
</g>
<!-- Node14&#45;&gt;Node15 -->
<g id="edge15_Node000014_Node000015" class="edge">
<title>Node14&#45;&gt;Node15</title>
<g id="a_edge15_Node000014_Node000015"><a xlink:title=" ">
<path fill="none" stroke="#63b8ff" d="M240.63,-246.5C220.29,-246.5 198.75,-246.5 178.86,-246.5"/>
<polygon fill="#63b8ff" stroke="#63b8ff" points="240.83,-250 250.83,-246.5 240.83,-243 240.83,-250"/>
</a>
</g>
</g>
</g>
</svg>

<g id="navigator" transform="translate(0 0)" fill="#404254">
  <rect fill="#f2f5e9" fill-opacity="0.5" stroke="#606060" stroke-width=".5" x="0" y="0" width="60" height="60"/>
  <use id="zoomplus" xlink:href="#zoomPlus" x="17" y="9" onmousedown="handleZoom(evt,'in')"/>
  <use id="zoomminus" xlink:href="#zoomMin" x="42" y="9" onmousedown="handleZoom(evt,'out')"/>
  <use id="reset" xlink:href="#resetDef" x="30" y="36" onmousedown="handleReset()"/>
   <use id="arrowup" xlink:href="#arrowUp" x="0" y="0" onmousedown="handlePan(0,-1)"/>
  <use id="arrowright" xlink:href="#arrowRight" x="0" y="0" onmousedown="handlePan(1,0)"/>
  <use id="arrowdown" xlink:href="#arrowDown" x="0" y="0" onmousedown="handlePan(0,1)"/>
  <use id="arrowleft" xlink:href="#arrowLeft" x="0" y="0" onmousedown="handlePan(-1,0)"/>
</g>
<svg viewBox="0 0 15 15" width="100%" height="30px" preserveAspectRatio="xMaxYMin meet">
 <g id="arrow_out" transform="scale(0.3 0.3)">
  <a xlink:href="classwmtk_1_1simplex_1_1utils_1_1_simplex_comparisons_a855a7009bb50500e9b336a05d424b34d_icgraph_org.svg" target="_base">
   <rect id="button" ry="5" rx="5" y="6" x="6" height="38" width="38"
        fill="#f2f5e9" fill-opacity="0.5" stroke="#606060" stroke-width="1.0"/>
   <path id="arrow"
     d="M 11.500037,31.436501 C 11.940474,20.09759 22.043105,11.32322 32.158766,21.979434 L 37.068811,17.246167 C 37.068811,17.246167 37.088388,32 37.088388,32 L 22.160133,31.978069 C 22.160133,31.978069 26.997745,27.140456 26.997745,27.140456 C 18.528582,18.264221 13.291696,25.230495 11.500037,31.436501 z"
     style="fill:#404040;"/>
  </a>
 </g>
</svg>

<style type='text/css'>
<![CDATA[
[data-mouse-over-selected='false'] { opacity: 0.7; }
[data-mouse-over-selected='true']  { opacity: 1.0; }
]]>
</style>
<script type="application/ecmascript"><![CDATA[
document.addEventListener('DOMContentLoaded', (event) => {
  highlightEdges();
  highlightAdjacentNodes();
});
]]></script>
</svg>
