<?xml version="1.0" encoding="UTF-8" standalone="no"?>
<!DOCTYPE svg PUBLIC "-//W3C//DTD SVG 1.1//EN"
 "http://www.w3.org/Graphics/SVG/1.1/DTD/svg11.dtd">
<!-- Generated by graphviz version 2.43.0 (0)
 -->
<!-- Title: wmtk::multimesh::MultiMeshManager::lub_map Pages: 1 -->
<!--zoomable 609 -->

<svg id="main" version="1.1" xmlns="http://www.w3.org/2000/svg" xmlns:xlink="http://www.w3.org/1999/xlink" xml:space="preserve" onload="init(evt)">
<style type="text/css"><![CDATA[
.node, .edge {opacity: 0.7;}
.node.selected, .edge.selected {opacity: 1;}
.edge:hover path { stroke: red; }
.edge:hover polygon { stroke: red; fill: red; }
]]></style>

<defs>
  <circle id="rim" cx="0" cy="0" r="7"/>
  <circle id="rim2" cx="0" cy="0" r="3.5"/>
  <g id="zoomPlus">
    <use xlink:href="#rim" fill="#404040"><set attributeName="fill" to="#808080" begin="zoomplus.mouseover" end="zoomplus.mouseout"/></use>
    <path d="M-4,0h8M0,-4v8" fill="none" stroke="white" stroke-width="1.5" pointer-events="none"/>
  </g>
  <g id="zoomMin">
    <use xlink:href="#rim" fill="#404040"><set attributeName="fill" to="#808080" begin="zoomminus.mouseover" end="zoomminus.mouseout"/></use>
    <path d="M-4,0h8" fill="none" stroke="white" stroke-width="1.5" pointer-events="none"/>
  </g>
  <g id="arrowUp" transform="translate(30 24)">
    <use xlink:href="#rim"/>
    <path pointer-events="none" fill="none" stroke="white" stroke-width="1.5" d="M0,-3.0v7 M-2.5,-0.5L0,-3.0L2.5,-0.5"/>
  </g>
  <g id="arrowRight" transform="rotate(90) translate(36 -43)">
    <use xlink:href="#rim"/>
    <path pointer-events="none" fill="none" stroke="white" stroke-width="1.5" d="M0,-3.0v7 M-2.5,-0.5L0,-3.0L2.5,-0.5"/>
  </g>
  <g id="arrowDown" transform="rotate(180) translate(-30 -48)">
    <use xlink:href="#rim"/>
    <path pointer-events="none" fill="none" stroke="white" stroke-width="1.5" d="M0,-3.0v7 M-2.5,-0.5L0,-3.0L2.5,-0.5"/>
  </g>
  <g id="arrowLeft" transform="rotate(270) translate(-36 17)">
    <use xlink:href="#rim"/>
    <path pointer-events="none" fill="none" stroke="white" stroke-width="1.5" d="M0,-3.0v7 M-2.5,-0.5L0,-3.0L2.5,-0.5"/>
  </g>
  <g id="resetDef">
    <use xlink:href="#rim2" fill="#404040"><set attributeName="fill" to="#808080" begin="reset.mouseover" end="reset.mouseout"/></use>
  </g>
</defs>
<script type="application/ecmascript">
var viewWidth = 1768;
var viewHeight = 609;
var sectionId = 'dynsection-45';
</script>
<script type="application/ecmascript" xlink:href="svg.min.js"/>
<svg id="graph" class="graph">
<g id="viewport">
<title>wmtk::multimesh::MultiMeshManager::lub_map</title>
<!-- Node1 -->
<g id="Node000001" class="node">
<title>Node1</title>
<g id="a_Node000001"><a xlink:title="maps a simplex from this mesh to any other mesh using the LUB as the root">
<polygon fill="#999999" stroke="#666666" points="160,-84.5 0,-84.5 0,-54.5 160,-54.5 160,-84.5"/>
<text text-anchor="start" x="8" y="-72.5" font-family="Helvetica,sans-Serif" font-size="10.00">wmtk::multimesh::MultiMesh</text>
<text text-anchor="middle" x="80" y="-61.5" font-family="Helvetica,sans-Serif" font-size="10.00">Manager::lub_map</text>
</a>
</g>
</g>
<!-- Node2 -->
<g id="Node000002" class="node">
<title>Node2</title>
<g id="a_Node000002"><a xlink:href="classwmtk_1_1multimesh_1_1_multi_mesh_manager.html#ab5c1f3b38daa298b1ef25867a2dcd349" target="_top" xlink:title="maps a simplex from this mesh to any other mesh using the LUB as the root">
<polygon fill="white" stroke="#666666" points="362.5,-256.5 202.5,-256.5 202.5,-226.5 362.5,-226.5 362.5,-256.5"/>
<text text-anchor="start" x="210.5" y="-244.5" font-family="Helvetica,sans-Serif" font-size="10.00">wmtk::multimesh::MultiMesh</text>
<text text-anchor="middle" x="282.5" y="-233.5" font-family="Helvetica,sans-Serif" font-size="10.00">Manager::lub_map_tuples</text>
</a>
</g>
</g>
<!-- Node1&#45;&gt;Node2 -->
<g id="edge1_Node000001_Node000002" class="edge">
<title>Node1&#45;&gt;Node2</title>
<g id="a_edge1_Node000001_Node000002"><a xlink:title=" ">
<path fill="none" stroke="#63b8ff" d="M98.79,-84.76C134.46,-115.36 214.82,-184.3 256.05,-219.67"/>
<polygon fill="#63b8ff" stroke="#63b8ff" points="253.88,-222.42 263.75,-226.27 258.44,-217.1 253.88,-222.42"/>
</a>
</g>
</g>
<!-- Node26 -->
<g id="Node000026" class="node">
<title>Node26</title>
<g id="a_Node000026"><a xlink:href="classwmtk_1_1simplex_1_1_simplex.html#ad2cc0340a0772b7d6f03ba7a781d1163" target="_top" xlink:title=" ">
<polygon fill="white" stroke="#666666" points="1469.5,-122.5 1334.5,-122.5 1334.5,-92.5 1469.5,-92.5 1469.5,-122.5"/>
<text text-anchor="start" x="1342.5" y="-110.5" font-family="Helvetica,sans-Serif" font-size="10.00">wmtk::simplex::Simplex</text>
<text text-anchor="middle" x="1402" y="-99.5" font-family="Helvetica,sans-Serif" font-size="10.00">::primitive_type</text>
</a>
</g>
</g>
<!-- Node1&#45;&gt;Node26 -->
<g id="edge41_Node000001_Node000026" class="edge">
<title>Node1&#45;&gt;Node26</title>
<g id="a_edge41_Node000001_Node000026"><a xlink:title=" ">
<path fill="none" stroke="#63b8ff" d="M160.17,-69.5C242.56,-69.5 375.32,-69.5 490,-69.5 490,-69.5 490,-69.5 953,-69.5 1083.78,-69.5 1235.27,-85.78 1324.34,-97.02"/>
<polygon fill="#63b8ff" stroke="#63b8ff" points="1323.99,-100.51 1334.36,-98.3 1324.88,-93.56 1323.99,-100.51"/>
</a>
</g>
</g>
<!-- Node33 -->
<g id="Node000033" class="node">
<title>Node33</title>
<g id="a_Node000033"><a xlink:href="namespacewmtk_1_1simplex_1_1utils.html#a358c30268c189fc8f00538b520aab4f8" target="_top" xlink:title=" ">
<polygon fill="white" stroke="#666666" points="369,-41 196,-41 196,0 369,0 369,-41"/>
<text text-anchor="start" x="204" y="-29" font-family="Helvetica,sans-Serif" font-size="10.00">wmtk::simplex::utils</text>
<text text-anchor="start" x="204" y="-18" font-family="Helvetica,sans-Serif" font-size="10.00">::tuple_vector_to_homogeneous</text>
<text text-anchor="middle" x="282.5" y="-7" font-family="Helvetica,sans-Serif" font-size="10.00">_simplex_vector</text>
</a>
</g>
</g>
<!-- Node1&#45;&gt;Node33 -->
<g id="edge42_Node000001_Node000033" class="edge">
<title>Node1&#45;&gt;Node33</title>
<g id="a_edge42_Node000001_Node000033"><a xlink:title=" ">
<path fill="none" stroke="#63b8ff" d="M142.52,-54.47C156.78,-50.98 172.27,-47.19 187.57,-43.46"/>
<polygon fill="#63b8ff" stroke="#63b8ff" points="188.69,-46.78 197.58,-41.01 187.03,-39.98 188.69,-46.78"/>
</a>
</g>
</g>
<!-- Node3 -->
<g id="Node000003" class="node">
<title>Node3</title>
<g id="a_Node000003"><a xlink:href="classwmtk_1_1multimesh_1_1_multi_mesh_manager.html#a812e0992812b2c48a889e10ae9e50758" target="_top" xlink:title=" ">
<polygon fill="white" stroke="#666666" points="792.5,-392.5 632.5,-392.5 632.5,-362.5 792.5,-362.5 792.5,-392.5"/>
<text text-anchor="start" x="640.5" y="-380.5" font-family="Helvetica,sans-Serif" font-size="10.00">wmtk::multimesh::MultiMesh</text>
<text text-anchor="middle" x="712.5" y="-369.5" font-family="Helvetica,sans-Serif" font-size="10.00">Manager::absolute_id</text>
</a>
</g>
</g>
<!-- Node2&#45;&gt;Node3 -->
<g id="edge2_Node000002_Node000003" class="edge">
<title>Node2&#45;&gt;Node3</title>
<g id="a_edge2_Node000002_Node000003"><a xlink:title=" ">
<path fill="none" stroke="#63b8ff" d="M294.59,-256.54C313.87,-281.37 356.2,-330.28 405,-351.5 473.54,-381.31 558.75,-386.29 621.91,-384.69"/>
<polygon fill="#63b8ff" stroke="#63b8ff" points="622.37,-388.18 632.25,-384.36 622.15,-381.18 622.37,-388.18"/>
</a>
</g>
</g>
<!-- Node5 -->
<g id="Node000005" class="node">
<title>Node5</title>
<g id="a_Node000005"><a xlink:href="classwmtk_1_1_mesh.html#a2102fdea06a0c543437e67d77aeb2013" target="_top" xlink:title="returns a unique identifier for this mesh within a single multimesh structure">
<polygon fill="white" stroke="#666666" points="553.5,-428.5 428.5,-428.5 428.5,-398.5 553.5,-398.5 553.5,-428.5"/>
<text text-anchor="start" x="436.5" y="-416.5" font-family="Helvetica,sans-Serif" font-size="10.00">wmtk::Mesh::absolute</text>
<text text-anchor="middle" x="491" y="-405.5" font-family="Helvetica,sans-Serif" font-size="10.00">_multi_mesh_id</text>
</a>
</g>
</g>
<!-- Node2&#45;&gt;Node5 -->
<g id="edge5_Node000002_Node000005" class="edge">
<title>Node2&#45;&gt;Node5</title>
<g id="a_edge5_Node000002_Node000005"><a xlink:title=" ">
<path fill="none" stroke="#63b8ff" d="M292.51,-256.79C310.36,-285.81 353.02,-349.12 405,-384.5 410.33,-388.13 416.15,-391.34 422.17,-394.18"/>
<polygon fill="#63b8ff" stroke="#63b8ff" points="421.19,-397.56 431.76,-398.33 423.97,-391.14 421.19,-397.56"/>
</a>
</g>
</g>
<!-- Node6 -->
<g id="Node000006" class="node">
<title>Node6</title>
<g id="a_Node000006"><a xlink:href="classwmtk_1_1multimesh_1_1_multi_mesh_manager.html#a4f99281b52dfca1c9baff535917d58a7" target="_top" xlink:title=" ">
<polygon fill="white" stroke="#666666" points="792.5,-342.5 632.5,-342.5 632.5,-312.5 792.5,-312.5 792.5,-342.5"/>
<text text-anchor="start" x="640.5" y="-330.5" font-family="Helvetica,sans-Serif" font-size="10.00">wmtk::multimesh::MultiMesh</text>
<text text-anchor="middle" x="712.5" y="-319.5" font-family="Helvetica,sans-Serif" font-size="10.00">Manager::is_child</text>
</a>
</g>
</g>
<!-- Node2&#45;&gt;Node6 -->
<g id="edge7_Node000002_Node000006" class="edge">
<title>Node2&#45;&gt;Node6</title>
<g id="a_edge7_Node000002_Node000006"><a xlink:title=" ">
<path fill="none" stroke="#63b8ff" d="M358.54,-256.58C433.49,-271.64 548.51,-294.75 626.72,-310.46"/>
<polygon fill="#63b8ff" stroke="#63b8ff" points="626.05,-313.9 636.54,-312.44 627.43,-307.04 626.05,-313.9"/>
</a>
</g>
</g>
<!-- Node7 -->
<g id="Node000007" class="node">
<title>Node7</title>
<g id="a_Node000007"><a xlink:href="classwmtk_1_1multimesh_1_1_multi_mesh_manager.html#a81d71e39e4f82968119c346e4f1ebda9" target="_top" xlink:title=" ">
<polygon fill="white" stroke="#666666" points="577,-256.5 405,-256.5 405,-226.5 577,-226.5 577,-256.5"/>
<text text-anchor="start" x="413" y="-244.5" font-family="Helvetica,sans-Serif" font-size="10.00">wmtk::multimesh::MultiMesh</text>
<text text-anchor="middle" x="491" y="-233.5" font-family="Helvetica,sans-Serif" font-size="10.00">Manager::least_upper_bound_id</text>
</a>
</g>
</g>
<!-- Node2&#45;&gt;Node7 -->
<g id="edge8_Node000002_Node000007" class="edge">
<title>Node2&#45;&gt;Node7</title>
<g id="a_edge8_Node000002_Node000007"><a xlink:title=" ">
<path fill="none" stroke="#63b8ff" d="M362.75,-241.5C373.18,-241.5 383.95,-241.5 394.61,-241.5"/>
<polygon fill="#63b8ff" stroke="#63b8ff" points="394.79,-245 404.79,-241.5 394.79,-238 394.79,-245"/>
</a>
</g>
</g>
<!-- Node8 -->
<g id="Node000008" class="node">
<title>Node8</title>
<g id="a_Node000008"><a xlink:href="classwmtk_1_1multimesh_1_1_multi_mesh_manager.html#aefe5179057c978e227c3349d13578c4a" target="_top" xlink:title=" ">
<polygon fill="white" stroke="#666666" points="571,-208.5 411,-208.5 411,-178.5 571,-178.5 571,-208.5"/>
<text text-anchor="start" x="419" y="-196.5" font-family="Helvetica,sans-Serif" font-size="10.00">wmtk::multimesh::MultiMesh</text>
<text text-anchor="middle" x="491" y="-185.5" font-family="Helvetica,sans-Serif" font-size="10.00">Manager::map_up_to_tuples</text>
</a>
</g>
</g>
<!-- Node2&#45;&gt;Node8 -->
<g id="edge9_Node000002_Node000008" class="edge">
<title>Node2&#45;&gt;Node8</title>
<g id="a_edge9_Node000002_Node000008"><a xlink:title=" ">
<path fill="none" stroke="#63b8ff" d="M348.27,-226.44C369.61,-221.49 393.5,-215.93 415.5,-210.82"/>
<polygon fill="#63b8ff" stroke="#63b8ff" points="416.51,-214.18 425.46,-208.5 414.93,-207.36 416.51,-214.18"/>
</a>
</g>
</g>
<!-- Node2&#45;&gt;Node26 -->
<g id="edge37_Node000002_Node000026" class="edge">
<title>Node2&#45;&gt;Node26</title>
<g id="a_edge37_Node000002_Node000026"><a xlink:title=" ">
<path fill="none" stroke="#63b8ff" d="M296.27,-226.49C316.65,-203.69 358.94,-160.95 405,-141.5 531.26,-88.18 574.44,-107.5 711.5,-107.5 711.5,-107.5 711.5,-107.5 953,-107.5 1083.31,-107.5 1234.94,-107.5 1324.17,-107.5"/>
<polygon fill="#63b8ff" stroke="#63b8ff" points="1324.21,-111 1334.21,-107.5 1324.21,-104 1324.21,-111"/>
</a>
</g>
</g>
<!-- Node31 -->
<g id="Node000031" class="node">
<title>Node31</title>
<g id="a_Node000031"><a xlink:href="classwmtk_1_1simplex_1_1_simplex.html#aca78b1fb0a3c28c0036cf7919bfb0789" target="_top" xlink:title=" ">
<polygon fill="white" stroke="#666666" points="780,-165.5 645,-165.5 645,-135.5 780,-135.5 780,-165.5"/>
<text text-anchor="start" x="653" y="-153.5" font-family="Helvetica,sans-Serif" font-size="10.00">wmtk::simplex::Simplex</text>
<text text-anchor="middle" x="712.5" y="-142.5" font-family="Helvetica,sans-Serif" font-size="10.00">::tuple</text>
</a>
</g>
</g>
<!-- Node2&#45;&gt;Node31 -->
<g id="edge40_Node000002_Node000031" class="edge">
<title>Node2&#45;&gt;Node31</title>
<g id="a_edge40_Node000002_Node000031"><a xlink:title=" ">
<path fill="none" stroke="#63b8ff" d="M302.34,-226.43C325.13,-209.16 365.39,-181.68 405,-169.5 480.54,-146.26 571.38,-143.57 634.46,-145.41"/>
<polygon fill="#63b8ff" stroke="#63b8ff" points="634.62,-148.92 644.73,-145.76 634.85,-141.92 634.62,-148.92"/>
</a>
</g>
</g>
<!-- Node32 -->
<g id="Node000032" class="node">
<title>Node32</title>
<g id="a_Node000032"><a xlink:href="classwmtk_1_1multimesh_1_1_multi_mesh_manager.html#ab29db13e4be68177d7ae3c188d7b275e" target="_top" xlink:title=" ">
<polygon fill="white" stroke="#666666" points="571,-342.5 411,-342.5 411,-312.5 571,-312.5 571,-342.5"/>
<text text-anchor="start" x="419" y="-330.5" font-family="Helvetica,sans-Serif" font-size="10.00">wmtk::multimesh::MultiMesh</text>
<text text-anchor="middle" x="491" y="-319.5" font-family="Helvetica,sans-Serif" font-size="10.00">Manager::relative_id</text>
</a>
</g>
</g>
<!-- Node2&#45;&gt;Node32 -->
<g id="edge38_Node000002_Node000032" class="edge">
<title>Node2&#45;&gt;Node32</title>
<g id="a_edge38_Node000002_Node000032"><a xlink:title=" ">
<path fill="none" stroke="#63b8ff" d="M313.55,-256.73C337.89,-268.79 373.24,-285.68 405,-298.5 414.11,-302.18 423.88,-305.8 433.44,-309.18"/>
<polygon fill="#63b8ff" stroke="#63b8ff" points="432.3,-312.48 442.9,-312.46 434.6,-305.87 432.3,-312.48"/>
</a>
</g>
</g>
<!-- Node3&#45;&gt;Node3 -->
<g id="edge3_Node000003_Node000003" class="edge">
<title>Node3&#45;&gt;Node3</title>
<g id="a_edge3_Node000003_Node000003"><a xlink:title=" ">
<path fill="none" stroke="#63b8ff" d="M673.83,-392.78C665.23,-401.91 678.12,-410.5 712.5,-410.5 732.91,-410.5 745.75,-407.47 751.01,-403.1"/>
<polygon fill="#63b8ff" stroke="#63b8ff" points="754.51,-402.83 751.17,-392.78 747.51,-402.72 754.51,-402.83"/>
</a>
</g>
</g>
<!-- Node4 -->
<g id="Node000004" class="node">
<title>Node4</title>
<g id="a_Node000004"><a xlink:href="classwmtk_1_1multimesh_1_1_multi_mesh_manager.html#a7d39339adb56b1798fe817d81bfcc67c" target="_top" xlink:title="Specifies whether this structure is the root of a multi&#45;mesh tree.">
<polygon fill="white" stroke="#666666" points="1032,-392.5 872,-392.5 872,-362.5 1032,-362.5 1032,-392.5"/>
<text text-anchor="start" x="880" y="-380.5" font-family="Helvetica,sans-Serif" font-size="10.00">wmtk::multimesh::MultiMesh</text>
<text text-anchor="middle" x="952" y="-369.5" font-family="Helvetica,sans-Serif" font-size="10.00">Manager::is_root</text>
</a>
</g>
</g>
<!-- Node3&#45;&gt;Node4 -->
<g id="edge4_Node000003_Node000004" class="edge">
<title>Node3&#45;&gt;Node4</title>
<g id="a_edge4_Node000003_Node000004"><a xlink:title=" ">
<path fill="none" stroke="#63b8ff" d="M792.58,-377.5C814.7,-377.5 838.89,-377.5 861.56,-377.5"/>
<polygon fill="#63b8ff" stroke="#63b8ff" points="861.86,-381 871.86,-377.5 861.86,-374 861.86,-381"/>
</a>
</g>
</g>
<!-- Node5&#45;&gt;Node3 -->
<g id="edge6_Node000005_Node000003" class="edge">
<title>Node5&#45;&gt;Node3</title>
<g id="a_edge6_Node000005_Node000003"><a xlink:title=" ">
<path fill="none" stroke="#63b8ff" d="M553.73,-403.38C574.93,-399.9 599.12,-395.93 622.08,-392.17"/>
<polygon fill="#63b8ff" stroke="#63b8ff" points="622.88,-395.58 632.18,-390.51 621.74,-388.67 622.88,-395.58"/>
</a>
</g>
</g>
<!-- Node9 -->
<g id="Node000009" class="node">
<title>Node9</title>
<g id="a_Node000009"><a xlink:href="classwmtk_1_1multimesh_1_1_multi_mesh_manager.html#af6fd8d8b5cc1e8b2c877718b99374f03" target="_top" xlink:title=" ">
<polygon fill="white" stroke="#666666" points="812,-294.5 613,-294.5 613,-264.5 812,-264.5 812,-294.5"/>
<text text-anchor="start" x="621" y="-282.5" font-family="Helvetica,sans-Serif" font-size="10.00">wmtk::multimesh::MultiMesh</text>
<text text-anchor="middle" x="712.5" y="-271.5" font-family="Helvetica,sans-Serif" font-size="10.00">Manager::map_tuple_to_parent_tuple</text>
</a>
</g>
</g>
<!-- Node8&#45;&gt;Node9 -->
<g id="edge10_Node000008_Node000009" class="edge">
<title>Node8&#45;&gt;Node9</title>
<g id="a_edge10_Node000008_Node000009"><a xlink:title=" ">
<path fill="none" stroke="#63b8ff" d="M550,-208.56C559.11,-211.3 568.37,-214.31 577,-217.5 610.34,-229.8 646.88,-246.89 673.45,-260.01"/>
<polygon fill="#63b8ff" stroke="#63b8ff" points="671.9,-263.15 682.41,-264.48 675.02,-256.89 671.9,-263.15"/>
</a>
</g>
</g>
<!-- Node8&#45;&gt;Node26 -->
<g id="edge35_Node000008_Node000026" class="edge">
<title>Node8&#45;&gt;Node26</title>
<g id="a_edge35_Node000008_Node000026"><a xlink:title=" ">
<path fill="none" stroke="#63b8ff" d="M571.32,-189.98C636.13,-186.82 730.08,-181.59 812,-174.5 996.19,-158.57 1211.92,-132 1324.22,-117.57"/>
<polygon fill="#63b8ff" stroke="#63b8ff" points="1324.96,-121.01 1334.43,-116.26 1324.06,-114.07 1324.96,-121.01"/>
</a>
</g>
</g>
<!-- Node8&#45;&gt;Node31 -->
<g id="edge36_Node000008_Node000031" class="edge">
<title>Node8&#45;&gt;Node31</title>
<g id="a_edge36_Node000008_Node000031"><a xlink:title=" ">
<path fill="none" stroke="#63b8ff" d="M568.77,-178.46C590.22,-174.26 613.53,-169.69 634.97,-165.49"/>
<polygon fill="#63b8ff" stroke="#63b8ff" points="635.86,-168.89 645,-163.53 634.51,-162.02 635.86,-168.89"/>
</a>
</g>
</g>
<!-- Node9&#45;&gt;Node4 -->
<g id="edge12_Node000009_Node000004" class="edge">
<title>Node9&#45;&gt;Node4</title>
<g id="a_edge12_Node000009_Node000004"><a xlink:title=" ">
<path fill="none" stroke="#63b8ff" d="M795.56,-294.58C801.34,-297.11 806.89,-300.06 812,-303.5 834.71,-318.8 825.21,-338.31 848,-353.5 852.54,-356.52 857.4,-359.17 862.47,-361.48"/>
<polygon fill="#63b8ff" stroke="#63b8ff" points="861.18,-364.74 871.76,-365.3 863.84,-358.26 861.18,-364.74"/>
</a>
</g>
</g>
<!-- Node10 -->
<g id="Node000010" class="node">
<title>Node10</title>
<g id="a_Node000010"><a xlink:href="classwmtk_1_1_mesh.html#a357182137d99f1e4a7ff536eadfc0e56" target="_top" xlink:title=" ">
<polygon fill="white" stroke="#666666" points="1008.5,-294.5 895.5,-294.5 895.5,-264.5 1008.5,-264.5 1008.5,-294.5"/>
<text text-anchor="start" x="903.5" y="-282.5" font-family="Helvetica,sans-Serif" font-size="10.00">wmtk::Mesh::create</text>
<text text-anchor="middle" x="952" y="-271.5" font-family="Helvetica,sans-Serif" font-size="10.00">_const_accessor</text>
</a>
</g>
</g>
<!-- Node9&#45;&gt;Node10 -->
<g id="edge11_Node000009_Node000010" class="edge">
<title>Node9&#45;&gt;Node10</title>
<g id="a_edge11_Node000009_Node000010"><a xlink:title=" ">
<path fill="none" stroke="#63b8ff" d="M812.16,-279.5C836.8,-279.5 862.64,-279.5 885.25,-279.5"/>
<polygon fill="#63b8ff" stroke="#63b8ff" points="885.4,-283 895.4,-279.5 885.4,-276 885.4,-283"/>
</a>
</g>
</g>
<!-- Node11 -->
<g id="Node000011" class="node">
<title>Node11</title>
<g id="a_Node000011"><a xlink:href="classwmtk_1_1multimesh_1_1_multi_mesh_manager.html#a6f9186ced3e97aef2a0af71a3aa5c6a0" target="_top" xlink:title=" ">
<polygon fill="white" stroke="#666666" points="1056,-344.5 848,-344.5 848,-314.5 1056,-314.5 1056,-344.5"/>
<text text-anchor="start" x="856" y="-332.5" font-family="Helvetica,sans-Serif" font-size="10.00">wmtk::multimesh::MultiMesh</text>
<text text-anchor="middle" x="952" y="-321.5" font-family="Helvetica,sans-Serif" font-size="10.00">Manager::map_tuple_between_meshes</text>
</a>
</g>
</g>
<!-- Node9&#45;&gt;Node11 -->
<g id="edge13_Node000009_Node000011" class="edge">
<title>Node9&#45;&gt;Node11</title>
<g id="a_edge13_Node000009_Node000011"><a xlink:title=" ">
<path fill="none" stroke="#63b8ff" d="M784.76,-294.5C811.41,-300.11 841.88,-306.53 869.39,-312.32"/>
<polygon fill="#63b8ff" stroke="#63b8ff" points="868.88,-315.79 879.38,-314.42 870.32,-308.94 868.88,-315.79"/>
</a>
</g>
</g>
<!-- Node12 -->
<g id="Node000012" class="node">
<title>Node12</title>
<g id="a_Node000012"><a xlink:href="classwmtk_1_1_mesh.html#a8cc8686f0688613806f43720b6db49e7" target="_top" xlink:title="check validity of tuple including its hash">
<polygon fill="white" stroke="#666666" points="1237,-438 1117,-438 1117,-419 1237,-419 1237,-438"/>
<text text-anchor="middle" x="1177" y="-426" font-family="Helvetica,sans-Serif" font-size="10.00">wmtk::Mesh::is_valid</text>
</a>
</g>
</g>
<!-- Node11&#45;&gt;Node12 -->
<g id="edge14_Node000011_Node000012" class="edge">
<title>Node11&#45;&gt;Node12</title>
<g id="a_edge14_Node000011_Node000012"><a xlink:title=" ">
<path fill="none" stroke="#63b8ff" d="M1030.1,-344.51C1038.97,-347.1 1047.78,-350.08 1056,-353.5 1093.45,-369.06 1132.5,-395.74 1155.52,-412.73"/>
<polygon fill="#63b8ff" stroke="#63b8ff" points="1153.69,-415.73 1163.79,-418.93 1157.89,-410.13 1153.69,-415.73"/>
</a>
</g>
</g>
<!-- Node15 -->
<g id="Node000015" class="node">
<title>Node15</title>
<g id="a_Node000015"><a xlink:href="namespacewmtk_1_1multimesh_1_1utils.html#a7d748ef4839b09a5460e8af97b9fa678" target="_top" xlink:title=" ">
<polygon fill="white" stroke="#666666" points="1251.5,-347.5 1102.5,-347.5 1102.5,-317.5 1251.5,-317.5 1251.5,-347.5"/>
<text text-anchor="start" x="1110.5" y="-335.5" font-family="Helvetica,sans-Serif" font-size="10.00">wmtk::multimesh::utils</text>
<text text-anchor="middle" x="1177" y="-324.5" font-family="Helvetica,sans-Serif" font-size="10.00">::read_tuple_map_attribute</text>
</a>
</g>
</g>
<!-- Node11&#45;&gt;Node15 -->
<g id="edge18_Node000011_Node000015" class="edge">
<title>Node11&#45;&gt;Node15</title>
<g id="a_edge18_Node000011_Node000015"><a xlink:title=" ">
<path fill="none" stroke="#63b8ff" d="M1056.01,-330.89C1068.11,-331.05 1080.33,-331.21 1092.12,-331.37"/>
<polygon fill="#63b8ff" stroke="#63b8ff" points="1092.3,-334.87 1102.35,-331.51 1092.4,-327.87 1092.3,-334.87"/>
</a>
</g>
</g>
<!-- Node20 -->
<g id="Node000020" class="node">
<title>Node20</title>
<g id="a_Node000020"><a xlink:href="classwmtk_1_1_mesh.html#a965a8a24158c4aa8580c57ba09f885f7" target="_top" xlink:title="switch the orientation of the Tuple of the given dimension">
<polygon fill="white" stroke="#666666" points="1234,-251.5 1120,-251.5 1120,-221.5 1234,-221.5 1234,-251.5"/>
<text text-anchor="start" x="1128" y="-239.5" font-family="Helvetica,sans-Serif" font-size="10.00">wmtk::Mesh::switch</text>
<text text-anchor="middle" x="1177" y="-228.5" font-family="Helvetica,sans-Serif" font-size="10.00">_tuple</text>
</a>
</g>
</g>
<!-- Node11&#45;&gt;Node20 -->
<g id="edge23_Node000011_Node000020" class="edge">
<title>Node11&#45;&gt;Node20</title>
<g id="a_edge23_Node000011_Node000020"><a xlink:title=" ">
<path fill="none" stroke="#63b8ff" d="M1033.78,-314.42C1041.57,-311.41 1049.13,-307.81 1056,-303.5 1077.11,-290.25 1071.1,-274.08 1092,-260.5 1097.64,-256.84 1103.85,-253.72 1110.25,-251.08"/>
<polygon fill="#63b8ff" stroke="#63b8ff" points="1111.6,-254.31 1119.74,-247.53 1109.15,-247.75 1111.6,-254.31"/>
</a>
</g>
</g>
<!-- Node21 -->
<g id="Node000021" class="node">
<title>Node21</title>
<g id="a_Node000021"><a xlink:href="namespacewmtk_1_1simplex.html#a0101f27eb2ad82814390b92ab1a4d1a0" target="_top" xlink:title=" ">
<polygon fill="white" stroke="#666666" points="1252.5,-299.5 1101.5,-299.5 1101.5,-269.5 1252.5,-269.5 1252.5,-299.5"/>
<text text-anchor="start" x="1109.5" y="-287.5" font-family="Helvetica,sans-Serif" font-size="10.00">wmtk::simplex::top</text>
<text text-anchor="middle" x="1177" y="-276.5" font-family="Helvetica,sans-Serif" font-size="10.00">_dimension_cofaces_tuples</text>
</a>
</g>
</g>
<!-- Node11&#45;&gt;Node21 -->
<g id="edge24_Node000011_Node000021" class="edge">
<title>Node11&#45;&gt;Node21</title>
<g id="a_edge24_Node000011_Node000021"><a xlink:title=" ">
<path fill="none" stroke="#63b8ff" d="M1027.57,-314.45C1048.12,-310.31 1070.55,-305.78 1091.61,-301.53"/>
<polygon fill="#63b8ff" stroke="#63b8ff" points="1092.39,-304.94 1101.5,-299.53 1091.01,-298.08 1092.39,-304.94"/>
</a>
</g>
</g>
<!-- Node27 -->
<g id="Node000027" class="node">
<title>Node27</title>
<g id="a_Node000027"><a xlink:href="classwmtk_1_1_mesh.html#abaf00438d0700358b160e310d69725c9" target="_top" xlink:title=" ">
<polygon fill="white" stroke="#666666" points="1262,-589 1092,-589 1092,-570 1262,-570 1262,-589"/>
<text text-anchor="middle" x="1177" y="-577" font-family="Helvetica,sans-Serif" font-size="10.00">wmtk::Mesh::top_simplex_type</text>
</a>
</g>
</g>
<!-- Node11&#45;&gt;Node27 -->
<g id="edge30_Node000011_Node000027" class="edge">
<title>Node11&#45;&gt;Node27</title>
<g id="a_edge30_Node000011_Node000027"><a xlink:title=" ">
<path fill="none" stroke="#63b8ff" d="M1045.53,-344.72C1049.32,-347.26 1052.84,-350.17 1056,-353.5 1118.77,-419.65 1030.89,-487.82 1092,-555.5 1095.38,-559.24 1099.3,-562.42 1103.56,-565.11"/>
<polygon fill="#63b8ff" stroke="#63b8ff" points="1102.25,-568.38 1112.72,-569.99 1105.54,-562.2 1102.25,-568.38"/>
</a>
</g>
</g>
<!-- Node29 -->
<g id="Node000029" class="node">
<title>Node29</title>
<g id="a_Node000029"><a xlink:href="namespacewmtk_1_1multimesh_1_1utils.html#aa0392bf28bb6c304127cf0eea634fee8" target="_top" xlink:title=" ">
<polygon fill="white" stroke="#666666" points="1242,-546.5 1112,-546.5 1112,-516.5 1242,-516.5 1242,-546.5"/>
<text text-anchor="start" x="1120" y="-534.5" font-family="Helvetica,sans-Serif" font-size="10.00">wmtk::multimesh::utils</text>
<text text-anchor="middle" x="1177" y="-523.5" font-family="Helvetica,sans-Serif" font-size="10.00">::transport_tuple</text>
</a>
</g>
</g>
<!-- Node11&#45;&gt;Node29 -->
<g id="edge32_Node000011_Node000029" class="edge">
<title>Node11&#45;&gt;Node29</title>
<g id="a_edge32_Node000011_Node000029"><a xlink:title=" ">
<path fill="none" stroke="#63b8ff" d="M1043.35,-344.66C1047.86,-347.2 1052.12,-350.12 1056,-353.5 1089.72,-382.9 1067.65,-409.97 1092,-447.5 1107.48,-471.36 1130.65,-493.88 1148.74,-509.59"/>
<polygon fill="#63b8ff" stroke="#63b8ff" points="1146.76,-512.5 1156.65,-516.31 1151.29,-507.17 1146.76,-512.5"/>
</a>
</g>
</g>
<!-- Node13 -->
<g id="Node000013" class="node">
<title>Node13</title>
<g id="a_Node000013"><a xlink:href="classwmtk_1_1_tuple.html#a0023f575be92cd5ceeeaaaa3762ea06d" target="_top" xlink:title="Checks if a tuple is &quot;null&quot;. This merely implies the global index is &#45;1.">
<polygon fill="white" stroke="#666666" points="1458.5,-438 1345.5,-438 1345.5,-419 1458.5,-419 1458.5,-438"/>
<text text-anchor="middle" x="1402" y="-426" font-family="Helvetica,sans-Serif" font-size="10.00">wmtk::Tuple::is_null</text>
</a>
</g>
</g>
<!-- Node12&#45;&gt;Node13 -->
<g id="edge15_Node000012_Node000013" class="edge">
<title>Node12&#45;&gt;Node13</title>
<g id="a_edge15_Node000012_Node000013"><a xlink:title=" ">
<path fill="none" stroke="#63b8ff" d="M1237.17,-428.5C1267.32,-428.5 1304.05,-428.5 1335.1,-428.5"/>
<polygon fill="#63b8ff" stroke="#63b8ff" points="1335.39,-432 1345.39,-428.5 1335.39,-425 1335.39,-432"/>
</a>
</g>
</g>
<!-- Node14 -->
<g id="Node000014" class="node">
<title>Node14</title>
<g id="a_Node000014"><a xlink:href="classwmtk_1_1_mesh.html#ade176d345902d97af8c5da04aa3a095b" target="_top" xlink:title=" ">
<polygon fill="white" stroke="#666666" points="1472,-475 1332,-475 1332,-456 1472,-456 1472,-475"/>
<text text-anchor="middle" x="1402" y="-463" font-family="Helvetica,sans-Serif" font-size="10.00">wmtk::Mesh::is_removed</text>
</a>
</g>
</g>
<!-- Node12&#45;&gt;Node14 -->
<g id="edge16_Node000012_Node000014" class="edge">
<title>Node12&#45;&gt;Node14</title>
<g id="a_edge16_Node000012_Node000014"><a xlink:title=" ">
<path fill="none" stroke="#63b8ff" d="M1235.43,-438.03C1265.35,-442.99 1302.14,-449.1 1333.43,-454.29"/>
<polygon fill="#63b8ff" stroke="#63b8ff" points="1332.94,-457.76 1343.38,-455.94 1334.09,-450.85 1332.94,-457.76"/>
</a>
</g>
</g>
<!-- Node14&#45;&gt;Node14 -->
<g id="edge17_Node000014_Node000014" class="edge">
<title>Node14&#45;&gt;Node14</title>
<g id="a_edge17_Node000014_Node000014"><a xlink:title=" ">
<path fill="none" stroke="#63b8ff" d="M1374.26,-475.08C1360.76,-483.73 1370.01,-493 1402,-493 1423.49,-493 1434.72,-488.82 1435.68,-483.45"/>
<polygon fill="#63b8ff" stroke="#63b8ff" points="1438.39,-481.21 1429.74,-475.08 1432.68,-485.26 1438.39,-481.21"/>
</a>
</g>
</g>
<!-- Node16 -->
<g id="Node000016" class="node">
<title>Node16</title>
<g id="a_Node000016"><a xlink:href="classwmtk_1_1attribute_1_1_accessor.html#a4b89ff4381fe73d4827b663203a964fc" target="_top" xlink:title=" ">
<polygon fill="white" stroke="#666666" points="1473,-352.5 1331,-352.5 1331,-322.5 1473,-322.5 1473,-352.5"/>
<text text-anchor="start" x="1339" y="-340.5" font-family="Helvetica,sans-Serif" font-size="10.00">wmtk::attribute::Accessor</text>
<text text-anchor="middle" x="1402" y="-329.5" font-family="Helvetica,sans-Serif" font-size="10.00">::const_vector_attribute</text>
</a>
</g>
</g>
<!-- Node15&#45;&gt;Node16 -->
<g id="edge19_Node000015_Node000016" class="edge">
<title>Node15&#45;&gt;Node16</title>
<g id="a_edge19_Node000015_Node000016"><a xlink:title=" ">
<path fill="none" stroke="#63b8ff" d="M1251.64,-334.15C1273.75,-334.65 1298.12,-335.19 1320.64,-335.7"/>
<polygon fill="#63b8ff" stroke="#63b8ff" points="1320.77,-339.2 1330.85,-335.93 1320.93,-332.2 1320.77,-339.2"/>
</a>
</g>
</g>
<!-- Node17 -->
<g id="Node000017" class="node">
<title>Node17</title>
<g id="a_Node000017"><a xlink:href="classwmtk_1_1attribute_1_1_tuple_accessor.html#adf0b07ce3ed74d51723e2beed2d3f25e" target="_top" xlink:title=" ">
<polygon fill="white" stroke="#666666" points="1485.5,-304.5 1318.5,-304.5 1318.5,-274.5 1485.5,-274.5 1485.5,-304.5"/>
<text text-anchor="start" x="1326.5" y="-292.5" font-family="Helvetica,sans-Serif" font-size="10.00">wmtk::attribute::TupleAccessor</text>
<text text-anchor="middle" x="1402" y="-281.5" font-family="Helvetica,sans-Serif" font-size="10.00">::const_vector_attribute</text>
</a>
</g>
</g>
<!-- Node15&#45;&gt;Node17 -->
<g id="edge20_Node000015_Node000017" class="edge">
<title>Node15&#45;&gt;Node17</title>
<g id="a_edge20_Node000015_Node000017"><a xlink:title=" ">
<path fill="none" stroke="#63b8ff" d="M1251.64,-318.3C1271.26,-314.52 1292.66,-310.39 1312.97,-306.47"/>
<polygon fill="#63b8ff" stroke="#63b8ff" points="1313.69,-309.9 1322.84,-304.57 1312.36,-303.03 1313.69,-309.9"/>
</a>
</g>
</g>
<!-- Node18 -->
<g id="Node000018" class="node">
<title>Node18</title>
<g id="a_Node000018"><a xlink:href="classwmtk_1_1attribute_1_1_accessor_base.html#abd60539d5779de287d2a0ec31b16c77a" target="_top" xlink:title=" ">
<polygon fill="white" stroke="#666666" points="1473,-256.5 1331,-256.5 1331,-226.5 1473,-226.5 1473,-256.5"/>
<text text-anchor="start" x="1339" y="-244.5" font-family="Helvetica,sans-Serif" font-size="10.00">wmtk::attribute::Accessor</text>
<text text-anchor="middle" x="1402" y="-233.5" font-family="Helvetica,sans-Serif" font-size="10.00">Base::dimension</text>
</a>
</g>
</g>
<!-- Node15&#45;&gt;Node18 -->
<g id="edge21_Node000015_Node000018" class="edge">
<title>Node15&#45;&gt;Node18</title>
<g id="a_edge21_Node000015_Node000018"><a xlink:title=" ">
<path fill="none" stroke="#63b8ff" d="M1245.19,-317.32C1251.09,-314.81 1256.79,-311.89 1262,-308.5 1282.9,-294.92 1276.77,-278.56 1298,-265.5 1305.19,-261.08 1313.13,-257.47 1321.31,-254.52"/>
<polygon fill="#63b8ff" stroke="#63b8ff" points="1322.56,-257.79 1330.99,-251.36 1320.39,-251.14 1322.56,-257.79"/>
</a>
</g>
</g>
<!-- Node19 -->
<g id="Node000019" class="node">
<title>Node19</title>
<g id="a_Node000019"><a xlink:href="classwmtk_1_1attribute_1_1_tuple_accessor.html#a8d04c3529eb7adeead49e8faa7a119db" target="_top" xlink:title=" ">
<polygon fill="white" stroke="#666666" points="1485.5,-400.5 1318.5,-400.5 1318.5,-370.5 1485.5,-370.5 1485.5,-400.5"/>
<text text-anchor="start" x="1326.5" y="-388.5" font-family="Helvetica,sans-Serif" font-size="10.00">wmtk::attribute::TupleAccessor</text>
<text text-anchor="middle" x="1402" y="-377.5" font-family="Helvetica,sans-Serif" font-size="10.00">::dimension</text>
</a>
</g>
</g>
<!-- Node15&#45;&gt;Node19 -->
<g id="edge22_Node000015_Node000019" class="edge">
<title>Node15&#45;&gt;Node19</title>
<g id="a_edge22_Node000015_Node000019"><a xlink:title=" ">
<path fill="none" stroke="#63b8ff" d="M1239.95,-347.57C1258.6,-352.08 1279.13,-357.02 1298,-361.5 1307.15,-363.67 1316.76,-365.93 1326.28,-368.17"/>
<polygon fill="#63b8ff" stroke="#63b8ff" points="1325.61,-371.6 1336.15,-370.47 1327.21,-364.79 1325.61,-371.6"/>
</a>
</g>
</g>
<!-- Node22 -->
<g id="Node000022" class="node">
<title>Node22</title>
<g id="a_Node000022"><a xlink:href="classwmtk_1_1simplex_1_1_simplex_collection.html#a1e7079b3b75f70dd28c524556cab76cf" target="_top" xlink:title="Add simplex to the collection.">
<polygon fill="white" stroke="#666666" points="1506,-160 1298,-160 1298,-141 1506,-141 1506,-160"/>
<text text-anchor="middle" x="1402" y="-148" font-family="Helvetica,sans-Serif" font-size="10.00">wmtk::simplex::SimplexCollection::add</text>
</a>
</g>
</g>
<!-- Node21&#45;&gt;Node22 -->
<g id="edge25_Node000021_Node000022" class="edge">
<title>Node21&#45;&gt;Node22</title>
<g id="a_edge25_Node000021_Node000022"><a xlink:title=" ">
<path fill="none" stroke="#63b8ff" d="M1249.33,-269.47C1253.89,-266.93 1258.18,-263.96 1262,-260.5 1294.23,-231.29 1264.41,-197.13 1298,-169.5 1299.83,-168 1301.73,-166.6 1303.7,-165.3"/>
<polygon fill="#63b8ff" stroke="#63b8ff" points="1305.76,-168.16 1312.75,-160.19 1302.32,-162.06 1305.76,-168.16"/>
</a>
</g>
</g>
<!-- Node23 -->
<g id="Node000023" class="node">
<title>Node23</title>
<g id="a_Node000023"><a xlink:href="namespacewmtk.html#a441d6ad4f19569c7d4946e743da1a925" target="_top" xlink:title=" ">
<polygon fill="white" stroke="#666666" points="1463,-208.5 1341,-208.5 1341,-178.5 1463,-178.5 1463,-208.5"/>
<text text-anchor="start" x="1349" y="-196.5" font-family="Helvetica,sans-Serif" font-size="10.00">wmtk::log_and_throw</text>
<text text-anchor="middle" x="1402" y="-185.5" font-family="Helvetica,sans-Serif" font-size="10.00">_error</text>
</a>
</g>
</g>
<!-- Node21&#45;&gt;Node23 -->
<g id="edge26_Node000021_Node000023" class="edge">
<title>Node21&#45;&gt;Node23</title>
<g id="a_edge26_Node000021_Node000023"><a xlink:title=" ">
<path fill="none" stroke="#63b8ff" d="M1245.19,-269.32C1251.09,-266.81 1256.79,-263.89 1262,-260.5 1282.9,-246.92 1276.77,-230.56 1298,-217.5 1308.08,-211.3 1319.61,-206.7 1331.23,-203.29"/>
<polygon fill="#63b8ff" stroke="#63b8ff" points="1332.21,-206.65 1340.98,-200.69 1330.41,-199.89 1332.21,-206.65"/>
</a>
</g>
</g>
<!-- Node21&#45;&gt;Node26 -->
<g id="edge29_Node000021_Node000026" class="edge">
<title>Node21&#45;&gt;Node26</title>
<g id="a_edge29_Node000021_Node000026"><a xlink:title=" ">
<path fill="none" stroke="#63b8ff" d="M1250.53,-269.44C1254.7,-266.9 1258.58,-263.94 1262,-260.5 1303.96,-218.28 1255.01,-172.67 1298,-131.5 1305.54,-124.28 1314.8,-119.09 1324.66,-115.37"/>
<polygon fill="#63b8ff" stroke="#63b8ff" points="1325.83,-118.67 1334.26,-112.24 1323.66,-112.01 1325.83,-118.67"/>
</a>
</g>
</g>
<!-- Node24 -->
<g id="Node000024" class="node">
<title>Node24</title>
<g id="a_Node000024"><a xlink:href="namespacewmtk.html#a6a35f11c12436093d26fdd8be6fecc06" target="_top" xlink:title="Retrieves the current logger.">
<polygon fill="white" stroke="#666666" points="1623,-203 1542,-203 1542,-184 1623,-184 1623,-203"/>
<text text-anchor="middle" x="1582.5" y="-191" font-family="Helvetica,sans-Serif" font-size="10.00">wmtk::logger</text>
</a>
</g>
</g>
<!-- Node23&#45;&gt;Node24 -->
<g id="edge27_Node000023_Node000024" class="edge">
<title>Node23&#45;&gt;Node24</title>
<g id="a_edge27_Node000023_Node000024"><a xlink:title=" ">
<path fill="none" stroke="#63b8ff" d="M1463.43,-193.5C1485.68,-193.5 1510.61,-193.5 1531.81,-193.5"/>
<polygon fill="#63b8ff" stroke="#63b8ff" points="1531.89,-197 1541.89,-193.5 1531.89,-190 1531.89,-197"/>
</a>
</g>
</g>
<!-- Node25 -->
<g id="Node000025" class="node">
<title>Node25</title>
<g id="a_Node000025"><a xlink:href="namespacewmtk.html#a3daa7951a5f8b78cf4600dc047fcc180" target="_top" xlink:title="Setup a logger object to be used by WildmeshToolkit.">
<polygon fill="white" stroke="#666666" points="1760,-203 1659,-203 1659,-184 1760,-184 1760,-203"/>
<text text-anchor="middle" x="1709.5" y="-191" font-family="Helvetica,sans-Serif" font-size="10.00">wmtk::set_logger</text>
</a>
</g>
</g>
<!-- Node24&#45;&gt;Node25 -->
<g id="edge28_Node000024_Node000025" class="edge">
<title>Node24&#45;&gt;Node25</title>
<g id="a_edge28_Node000024_Node000025"><a xlink:title=" ">
<path fill="none" stroke="#63b8ff" d="M1623.05,-193.5C1631.17,-193.5 1639.9,-193.5 1648.55,-193.5"/>
<polygon fill="#63b8ff" stroke="#63b8ff" points="1648.65,-197 1658.65,-193.5 1648.65,-190 1648.65,-197"/>
</a>
</g>
</g>
<!-- Node28 -->
<g id="Node000028" class="node">
<title>Node28</title>
<g id="a_Node000028"><a xlink:href="classwmtk_1_1_mesh.html#a933f681cf24a63b155c9462280385200" target="_top" xlink:title=" ">
<polygon fill="white" stroke="#666666" points="1462.5,-600.5 1341.5,-600.5 1341.5,-570.5 1462.5,-570.5 1462.5,-600.5"/>
<text text-anchor="start" x="1349.5" y="-588.5" font-family="Helvetica,sans-Serif" font-size="10.00">wmtk::Mesh::top_cell</text>
<text text-anchor="middle" x="1402" y="-577.5" font-family="Helvetica,sans-Serif" font-size="10.00">_dimension</text>
</a>
</g>
</g>
<!-- Node27&#45;&gt;Node28 -->
<g id="edge31_Node000027_Node000028" class="edge">
<title>Node27&#45;&gt;Node28</title>
<g id="a_edge31_Node000027_Node000028"><a xlink:title=" ">
<path fill="none" stroke="#63b8ff" d="M1262.31,-581.77C1284.99,-582.38 1309.26,-583.03 1331.07,-583.62"/>
<polygon fill="#63b8ff" stroke="#63b8ff" points="1331.13,-587.12 1341.22,-583.89 1331.32,-580.12 1331.13,-587.12"/>
</a>
</g>
</g>
<!-- Node30 -->
<g id="Node000030" class="node">
<title>Node30</title>
<g id="a_Node000030"><a xlink:href="namespacewmtk_1_1multimesh_1_1utils_1_1internal.html#a11885fe5aebd05551827804b0142945d" target="_top" xlink:title=" ">
<polygon fill="white" stroke="#666666" points="1467,-552 1337,-552 1337,-511 1467,-511 1467,-552"/>
<text text-anchor="start" x="1345" y="-540" font-family="Helvetica,sans-Serif" font-size="10.00">wmtk::multimesh::utils</text>
<text text-anchor="start" x="1345" y="-529" font-family="Helvetica,sans-Serif" font-size="10.00">::internal::transport</text>
<text text-anchor="middle" x="1402" y="-518" font-family="Helvetica,sans-Serif" font-size="10.00">_tuple_dart</text>
</a>
</g>
</g>
<!-- Node29&#45;&gt;Node30 -->
<g id="edge33_Node000029_Node000030" class="edge">
<title>Node29&#45;&gt;Node30</title>
<g id="a_edge33_Node000029_Node000030"><a xlink:title=" ">
<path fill="none" stroke="#63b8ff" d="M1242.2,-525.32C1268.56,-524.65 1299.24,-524.57 1326.57,-525.09"/>
<polygon fill="#63b8ff" stroke="#63b8ff" points="1326.79,-528.6 1336.87,-525.32 1326.95,-521.6 1326.79,-528.6"/>
</a>
</g>
</g>
<!-- Node30&#45;&gt;Node29 -->
<g id="edge34_Node000030_Node000029" class="edge">
<title>Node30&#45;&gt;Node29</title>
<g id="a_edge34_Node000030_Node000029"><a xlink:title=" ">
<path fill="none" stroke="#63b8ff" d="M1336.87,-537.68C1310.52,-538.35 1279.83,-538.43 1252.5,-537.91"/>
<polygon fill="#63b8ff" stroke="#63b8ff" points="1252.28,-534.4 1242.2,-537.68 1252.12,-541.4 1252.28,-534.4"/>
</a>
</g>
</g>
<!-- Node32&#45;&gt;Node6 -->
<g id="edge39_Node000032_Node000006" class="edge">
<title>Node32&#45;&gt;Node6</title>
<g id="a_edge39_Node000032_Node000006"><a xlink:title=" ">
<path fill="none" stroke="#63b8ff" d="M571.24,-327.5C587.72,-327.5 605.19,-327.5 622,-327.5"/>
<polygon fill="#63b8ff" stroke="#63b8ff" points="622.37,-331 632.37,-327.5 622.37,-324 622.37,-331"/>
</a>
</g>
</g>
</g>
</svg>

<g id="navigator" transform="translate(0 0)" fill="#404254">
  <rect fill="#f2f5e9" fill-opacity="0.5" stroke="#606060" stroke-width=".5" x="0" y="0" width="60" height="60"/>
  <use id="zoomplus" xlink:href="#zoomPlus" x="17" y="9" onmousedown="handleZoom(evt,'in')"/>
  <use id="zoomminus" xlink:href="#zoomMin" x="42" y="9" onmousedown="handleZoom(evt,'out')"/>
  <use id="reset" xlink:href="#resetDef" x="30" y="36" onmousedown="handleReset()"/>
   <use id="arrowup" xlink:href="#arrowUp" x="0" y="0" onmousedown="handlePan(0,-1)"/>
  <use id="arrowright" xlink:href="#arrowRight" x="0" y="0" onmousedown="handlePan(1,0)"/>
  <use id="arrowdown" xlink:href="#arrowDown" x="0" y="0" onmousedown="handlePan(0,1)"/>
  <use id="arrowleft" xlink:href="#arrowLeft" x="0" y="0" onmousedown="handlePan(-1,0)"/>
</g>
<svg viewBox="0 0 15 15" width="100%" height="30px" preserveAspectRatio="xMaxYMin meet">
 <g id="arrow_out" transform="scale(0.3 0.3)">
  <a xlink:href="classwmtk_1_1multimesh_1_1_multi_mesh_manager_afda2cea3f093e5fd59ad9ed58f1c0f33_cgraph_org.svg" target="_base">
   <rect id="button" ry="5" rx="5" y="6" x="6" height="38" width="38"
        fill="#f2f5e9" fill-opacity="0.5" stroke="#606060" stroke-width="1.0"/>
   <path id="arrow"
     d="M 11.500037,31.436501 C 11.940474,20.09759 22.043105,11.32322 32.158766,21.979434 L 37.068811,17.246167 C 37.068811,17.246167 37.088388,32 37.088388,32 L 22.160133,31.978069 C 22.160133,31.978069 26.997745,27.140456 26.997745,27.140456 C 18.528582,18.264221 13.291696,25.230495 11.500037,31.436501 z"
     style="fill:#404040;"/>
  </a>
 </g>
</svg>

<style type='text/css'>
<![CDATA[
[data-mouse-over-selected='false'] { opacity: 0.7; }
[data-mouse-over-selected='true']  { opacity: 1.0; }
]]>
</style>
<script type="application/ecmascript"><![CDATA[
document.addEventListener('DOMContentLoaded', (event) => {
  highlightEdges();
  highlightAdjacentNodes();
});
]]></script>
</svg>
