<?xml version="1.0" encoding="UTF-8" standalone="no"?>
<!DOCTYPE svg PUBLIC "-//W3C//DTD SVG 1.1//EN"
 "http://www.w3.org/Graphics/SVG/1.1/DTD/svg11.dtd">
<!-- Generated by graphviz version 2.43.0 (0)
 -->
<!-- Title: wmtk::multimesh::MultiMeshManager::child_id Pages: 1 -->
<!--zoomable 449 -->

<svg id="main" version="1.1" xmlns="http://www.w3.org/2000/svg" xmlns:xlink="http://www.w3.org/1999/xlink" xml:space="preserve" onload="init(evt)">
<style type="text/css"><![CDATA[
.node, .edge {opacity: 0.7;}
.node.selected, .edge.selected {opacity: 1;}
.edge:hover path { stroke: red; }
.edge:hover polygon { stroke: red; fill: red; }
]]></style>

<defs>
  <circle id="rim" cx="0" cy="0" r="7"/>
  <circle id="rim2" cx="0" cy="0" r="3.5"/>
  <g id="zoomPlus">
    <use xlink:href="#rim" fill="#404040"><set attributeName="fill" to="#808080" begin="zoomplus.mouseover" end="zoomplus.mouseout"/></use>
    <path d="M-4,0h8M0,-4v8" fill="none" stroke="white" stroke-width="1.5" pointer-events="none"/>
  </g>
  <g id="zoomMin">
    <use xlink:href="#rim" fill="#404040"><set attributeName="fill" to="#808080" begin="zoomminus.mouseover" end="zoomminus.mouseout"/></use>
    <path d="M-4,0h8" fill="none" stroke="white" stroke-width="1.5" pointer-events="none"/>
  </g>
  <g id="arrowUp" transform="translate(30 24)">
    <use xlink:href="#rim"/>
    <path pointer-events="none" fill="none" stroke="white" stroke-width="1.5" d="M0,-3.0v7 M-2.5,-0.5L0,-3.0L2.5,-0.5"/>
  </g>
  <g id="arrowRight" transform="rotate(90) translate(36 -43)">
    <use xlink:href="#rim"/>
    <path pointer-events="none" fill="none" stroke="white" stroke-width="1.5" d="M0,-3.0v7 M-2.5,-0.5L0,-3.0L2.5,-0.5"/>
  </g>
  <g id="arrowDown" transform="rotate(180) translate(-30 -48)">
    <use xlink:href="#rim"/>
    <path pointer-events="none" fill="none" stroke="white" stroke-width="1.5" d="M0,-3.0v7 M-2.5,-0.5L0,-3.0L2.5,-0.5"/>
  </g>
  <g id="arrowLeft" transform="rotate(270) translate(-36 17)">
    <use xlink:href="#rim"/>
    <path pointer-events="none" fill="none" stroke="white" stroke-width="1.5" d="M0,-3.0v7 M-2.5,-0.5L0,-3.0L2.5,-0.5"/>
  </g>
  <g id="resetDef">
    <use xlink:href="#rim2" fill="#404040"><set attributeName="fill" to="#808080" begin="reset.mouseover" end="reset.mouseout"/></use>
  </g>
</defs>
<script type="application/ecmascript">
var viewWidth = 1822;
var viewHeight = 449;
var sectionId = 'dynsection-14';
</script>
<script type="application/ecmascript" xlink:href="svg.min.js"/>
<svg id="graph" class="graph">
<g id="viewport">
<title>wmtk::multimesh::MultiMeshManager::child_id</title>
<!-- Node1 -->
<g id="Node000001" class="node">
<title>Node1</title>
<g id="a_Node000001"><a xlink:title="Specifies the child id of this mesh if it a child mesh in a mult&#45;mesh tree.">
<polygon fill="#999999" stroke="#666666" points="1814,-193.51 1654,-193.51 1654,-163.51 1814,-163.51 1814,-193.51"/>
<text text-anchor="start" x="1662" y="-181.51" font-family="Helvetica,sans-Serif" font-size="10.00">wmtk::multimesh::MultiMesh</text>
<text text-anchor="middle" x="1734" y="-170.51" font-family="Helvetica,sans-Serif" font-size="10.00">Manager::child_id</text>
</a>
</g>
</g>
<!-- Node2 -->
<g id="Node000002" class="node">
<title>Node2</title>
<g id="a_Node000002"><a xlink:href="classwmtk_1_1multimesh_1_1_multi_mesh_manager.html#a69e485e6bb6293cafd0b96526522f556" target="_top" xlink:title="Deregister a child mesh.">
<polygon fill="white" stroke="#666666" points="1605.5,-330.51 1429.5,-330.51 1429.5,-300.51 1605.5,-300.51 1605.5,-330.51"/>
<text text-anchor="start" x="1437.5" y="-318.51" font-family="Helvetica,sans-Serif" font-size="10.00">wmtk::multimesh::MultiMesh</text>
<text text-anchor="middle" x="1517.5" y="-307.51" font-family="Helvetica,sans-Serif" font-size="10.00">Manager::deregister_child_mesh</text>
</a>
</g>
</g>
<!-- Node1&#45;&gt;Node2 -->
<g id="edge1_Node000001_Node000002" class="edge">
<title>Node1&#45;&gt;Node2</title>
<g id="a_edge1_Node000001_Node000002"><a xlink:title=" ">
<path fill="none" stroke="#63b8ff" d="M1700.72,-199.13C1657.15,-226.95 1580.59,-275.86 1542.05,-300.47"/>
<polygon fill="#63b8ff" stroke="#63b8ff" points="1702.68,-202.03 1709.23,-193.69 1698.91,-196.13 1702.68,-202.03"/>
</a>
</g>
</g>
<!-- Node14 -->
<g id="Node000014" class="node">
<title>Node14</title>
<g id="a_Node000014"><a xlink:href="classwmtk_1_1multimesh_1_1_multi_mesh_manager.html#ae0a6966669a330ff022fb795818c90f3" target="_top" xlink:title=" ">
<polygon fill="white" stroke="#666666" points="1600.5,-215.51 1434.5,-215.51 1434.5,-185.51 1600.5,-185.51 1600.5,-215.51"/>
<text text-anchor="start" x="1442.5" y="-203.51" font-family="Helvetica,sans-Serif" font-size="10.00">wmtk::multimesh::MultiMesh</text>
<text text-anchor="middle" x="1517.5" y="-192.51" font-family="Helvetica,sans-Serif" font-size="10.00">Manager::map_to_child_tuples</text>
</a>
</g>
</g>
<!-- Node1&#45;&gt;Node14 -->
<g id="edge13_Node000001_Node000014" class="edge">
<title>Node1&#45;&gt;Node14</title>
<g id="a_edge13_Node000001_Node000014"><a xlink:title=" ">
<path fill="none" stroke="#63b8ff" d="M1643.49,-187.69C1629.3,-189.14 1614.68,-190.64 1600.67,-192.08"/>
<polygon fill="#63b8ff" stroke="#63b8ff" points="1644.15,-191.14 1653.74,-186.64 1643.43,-184.18 1644.15,-191.14"/>
</a>
</g>
</g>
<!-- Node31 -->
<g id="Node000031" class="node">
<title>Node31</title>
<g id="a_Node000031"><a xlink:href="classwmtk_1_1multimesh_1_1_multi_mesh_manager.html#aee135fbde11aefaf476a00007f524d25" target="_top" xlink:title=" ">
<polygon fill="white" stroke="#666666" points="1365.5,-143.51 1199.5,-143.51 1199.5,-113.51 1365.5,-113.51 1365.5,-143.51"/>
<text text-anchor="start" x="1207.5" y="-131.51" font-family="Helvetica,sans-Serif" font-size="10.00">wmtk::multimesh::MultiMesh</text>
<text text-anchor="middle" x="1282.5" y="-120.51" font-family="Helvetica,sans-Serif" font-size="10.00">Manager::map_to_child_tuples</text>
</a>
</g>
</g>
<!-- Node1&#45;&gt;Node31 -->
<g id="edge46_Node000001_Node000031" class="edge">
<title>Node1&#45;&gt;Node31</title>
<g id="a_edge46_Node000001_Node000031"><a xlink:title=" ">
<path fill="none" stroke="#63b8ff" d="M1643.75,-168.58C1562.73,-159.57 1444.24,-146.39 1365.55,-137.64"/>
<polygon fill="#63b8ff" stroke="#63b8ff" points="1643.61,-172.09 1653.93,-169.71 1644.38,-165.13 1643.61,-172.09"/>
</a>
</g>
</g>
<!-- Node32 -->
<g id="Node000032" class="node">
<title>Node32</title>
<g id="a_Node000032"><a xlink:href="classwmtk_1_1operations_1_1utils_1_1_update_edge_operation_multi_mesh_map_functor.html#a572bd6605137e21189ac91b5290af06d" target="_top" xlink:title=" ">
<polygon fill="white" stroke="#666666" points="1618,-129.01 1417,-129.01 1417,-88.01 1618,-88.01 1618,-129.01"/>
<text text-anchor="start" x="1425" y="-117.01" font-family="Helvetica,sans-Serif" font-size="10.00">wmtk::operations::utils</text>
<text text-anchor="start" x="1425" y="-106.01" font-family="Helvetica,sans-Serif" font-size="10.00">::UpdateEdgeOperationMultiMesh</text>
<text text-anchor="middle" x="1517.5" y="-95.01" font-family="Helvetica,sans-Serif" font-size="10.00">MapFunctor::update_ear_replacement</text>
</a>
</g>
</g>
<!-- Node1&#45;&gt;Node32 -->
<g id="edge47_Node000001_Node000032" class="edge">
<title>Node1&#45;&gt;Node32</title>
<g id="a_edge47_Node000001_Node000032"><a xlink:title=" ">
<path fill="none" stroke="#63b8ff" d="M1677.31,-160.34C1647.98,-150.76 1611.89,-138.98 1581.53,-129.08"/>
<polygon fill="#63b8ff" stroke="#63b8ff" points="1676.39,-163.72 1686.98,-163.49 1678.56,-157.06 1676.39,-163.72"/>
</a>
</g>
</g>
<!-- Node3 -->
<g id="Node000003" class="node">
<title>Node3</title>
<g id="a_Node000003"><a xlink:href="classwmtk_1_1_mesh.html#ad43e9c7d4db3d24c9d9c30fa381cf54b" target="_top" xlink:title="Deregister a child mesh.">
<polygon fill="white" stroke="#666666" points="1139.5,-356.51 1007.5,-356.51 1007.5,-326.51 1139.5,-326.51 1139.5,-356.51"/>
<text text-anchor="start" x="1015.5" y="-344.51" font-family="Helvetica,sans-Serif" font-size="10.00">wmtk::Mesh::deregister</text>
<text text-anchor="middle" x="1073.5" y="-333.51" font-family="Helvetica,sans-Serif" font-size="10.00">_child_mesh</text>
</a>
</g>
</g>
<!-- Node2&#45;&gt;Node3 -->
<g id="edge2_Node000002_Node000003" class="edge">
<title>Node2&#45;&gt;Node3</title>
<g id="a_edge2_Node000002_Node000003"><a xlink:title=" ">
<path fill="none" stroke="#63b8ff" d="M1419.27,-321.23C1334.41,-326.22 1213.6,-333.33 1139.82,-337.67"/>
<polygon fill="#63b8ff" stroke="#63b8ff" points="1419.66,-324.71 1429.44,-320.63 1419.25,-317.72 1419.66,-324.71"/>
</a>
</g>
</g>
<!-- Node4 -->
<g id="Node000004" class="node">
<title>Node4</title>
<g id="a_Node000004"><a xlink:href="classwmtk_1_1components_1_1internal_1_1_multi_mesh_from_tag.html#a01b37640de0da31a48634f312aed4aa9" target="_top" xlink:title="Remove the substructure soup from the multimesh.">
<polygon fill="white" stroke="#666666" points="525,-240.51 338,-240.51 338,-210.51 525,-210.51 525,-240.51"/>
<text text-anchor="start" x="346" y="-228.51" font-family="Helvetica,sans-Serif" font-size="10.00">wmtk::components::internal</text>
<text text-anchor="middle" x="431.5" y="-217.51" font-family="Helvetica,sans-Serif" font-size="10.00">::MultiMeshFromTag::remove_soup</text>
</a>
</g>
</g>
<!-- Node3&#45;&gt;Node4 -->
<g id="edge3_Node000003_Node000004" class="edge">
<title>Node3&#45;&gt;Node4</title>
<g id="a_edge3_Node000003_Node000004"><a xlink:title=" ">
<path fill="none" stroke="#63b8ff" d="M1017.68,-359.38C917.31,-388.47 701.46,-433.81 561,-338.51 525.69,-314.55 557.07,-277.65 525,-249.51 521.13,-246.12 516.85,-243.19 512.3,-240.68"/>
<polygon fill="#63b8ff" stroke="#63b8ff" points="1018.71,-362.73 1027.31,-356.54 1016.73,-356.01 1018.71,-362.73"/>
</a>
</g>
</g>
<!-- Node5 -->
<g id="Node000005" class="node">
<title>Node5</title>
<g id="a_Node000005"><a xlink:href="namespacewmtk_1_1components.html#ac309092566399cef68679a1bb8107d1e" target="_top" xlink:title="Generate a multi&#45;mesh from a mesh with a tag that represents the substructure, the mesh is changed.">
<polygon fill="white" stroke="#666666" points="289,-307.51 120,-307.51 120,-277.51 289,-277.51 289,-307.51"/>
<text text-anchor="start" x="128" y="-295.51" font-family="Helvetica,sans-Serif" font-size="10.00">wmtk::components::multimesh</text>
<text text-anchor="middle" x="204.5" y="-284.51" font-family="Helvetica,sans-Serif" font-size="10.00">_from_tag</text>
</a>
</g>
</g>
<!-- Node4&#45;&gt;Node5 -->
<g id="edge4_Node000004_Node000005" class="edge">
<title>Node4&#45;&gt;Node5</title>
<g id="a_edge4_Node000004_Node000005"><a xlink:title=" ">
<path fill="none" stroke="#63b8ff" d="M354.93,-243.56C349.15,-245.41 343.45,-247.4 338,-249.51 321.13,-256.05 318.9,-262.06 302,-268.51 293.29,-271.83 283.96,-274.82 274.66,-277.47"/>
<polygon fill="#63b8ff" stroke="#63b8ff" points="356.17,-246.84 364.71,-240.56 354.12,-240.15 356.17,-246.84"/>
</a>
</g>
</g>
<!-- Node7 -->
<g id="Node000007" class="node">
<title>Node7</title>
<g id="a_Node000007"><a xlink:href="namespacewmtk_1_1components.html#a4166e4880553cfacbf79ac3515a637cd" target="_top" xlink:title=" ">
<polygon fill="white" stroke="#666666" points="282,-403.51 127,-403.51 127,-373.51 282,-373.51 282,-403.51"/>
<text text-anchor="start" x="135" y="-391.51" font-family="Helvetica,sans-Serif" font-size="10.00">wmtk::components::periodic</text>
<text text-anchor="middle" x="204.5" y="-380.51" font-family="Helvetica,sans-Serif" font-size="10.00">_optimization</text>
</a>
</g>
</g>
<!-- Node4&#45;&gt;Node7 -->
<g id="edge6_Node000004_Node000007" class="edge">
<title>Node4&#45;&gt;Node7</title>
<g id="a_edge6_Node000004_Node000007"><a xlink:title=" ">
<path fill="none" stroke="#63b8ff" d="M341.5,-246.43C340.29,-247.41 339.13,-248.44 338,-249.51 299.2,-286.43 340.98,-327.78 302,-364.51 296.22,-369.95 289.4,-374.22 282.1,-377.55"/>
<polygon fill="#63b8ff" stroke="#63b8ff" points="343.72,-249.15 349.94,-240.58 339.73,-243.4 343.72,-249.15"/>
</a>
</g>
</g>
<!-- Node8 -->
<g id="Node000008" class="node">
<title>Node8</title>
<g id="a_Node000008"><a xlink:href="test__component__multimesh__from__tag_8cpp.html#a2231774bf0d53fb5f6c1b34753afb255" target="_top" xlink:title=" ">
<polygon fill="white" stroke="#666666" points="240,-111.01 169,-111.01 169,-92.01 240,-92.01 240,-111.01"/>
<text text-anchor="middle" x="204.5" y="-99.01" font-family="Helvetica,sans-Serif" font-size="10.00">TEST_CASE</text>
</a>
</g>
</g>
<!-- Node4&#45;&gt;Node8 -->
<g id="edge7_Node000004_Node000008" class="edge">
<title>Node4&#45;&gt;Node8</title>
<g id="a_edge7_Node000004_Node000008"><a xlink:title=" ">
<path fill="none" stroke="#63b8ff" d="M391.81,-205.53C374.32,-195.46 354.04,-182.26 338,-167.51 318.37,-149.46 324.65,-133.58 302,-119.51 283.61,-108.09 259.72,-103.57 240.31,-101.91"/>
<polygon fill="#63b8ff" stroke="#63b8ff" points="390.23,-208.65 400.66,-210.5 393.66,-202.55 390.23,-208.65"/>
</a>
</g>
</g>
<!-- Node9 -->
<g id="Node000009" class="node">
<title>Node9</title>
<g id="a_Node000009"><a xlink:href="test__component__multimesh__from__tag_8cpp.html#a9a31cb828b93e2ddcf0a5063d4d1c9e6" target="_top" xlink:title=" ">
<polygon fill="white" stroke="#666666" points="240,-259.01 169,-259.01 169,-240.01 240,-240.01 240,-259.01"/>
<text text-anchor="middle" x="204.5" y="-247.01" font-family="Helvetica,sans-Serif" font-size="10.00">TEST_CASE</text>
</a>
</g>
</g>
<!-- Node4&#45;&gt;Node9 -->
<g id="edge8_Node000004_Node000009" class="edge">
<title>Node4&#45;&gt;Node9</title>
<g id="a_edge8_Node000004_Node000009"><a xlink:title=" ">
<path fill="none" stroke="#63b8ff" d="M327.52,-236.49C296.05,-239.85 263.59,-243.31 240.07,-245.82"/>
<polygon fill="#63b8ff" stroke="#63b8ff" points="328.11,-239.95 337.68,-235.41 327.37,-232.99 328.11,-239.95"/>
</a>
</g>
</g>
<!-- Node10 -->
<g id="Node000010" class="node">
<title>Node10</title>
<g id="a_Node000010"><a xlink:href="test__component__multimesh__from__tag_8cpp.html#a7a8f66a094907f369fa10876691f42f9" target="_top" xlink:title=" ">
<polygon fill="white" stroke="#666666" points="240,-222.01 169,-222.01 169,-203.01 240,-203.01 240,-222.01"/>
<text text-anchor="middle" x="204.5" y="-210.01" font-family="Helvetica,sans-Serif" font-size="10.00">TEST_CASE</text>
</a>
</g>
</g>
<!-- Node4&#45;&gt;Node10 -->
<g id="edge9_Node000004_Node000010" class="edge">
<title>Node4&#45;&gt;Node10</title>
<g id="a_edge9_Node000004_Node000010"><a xlink:title=" ">
<path fill="none" stroke="#63b8ff" d="M327.52,-219.56C296.05,-217.74 263.59,-215.87 240.07,-214.51"/>
<polygon fill="#63b8ff" stroke="#63b8ff" points="327.5,-223.06 337.68,-220.15 327.9,-216.08 327.5,-223.06"/>
</a>
</g>
</g>
<!-- Node11 -->
<g id="Node000011" class="node">
<title>Node11</title>
<g id="a_Node000011"><a xlink:href="test__component__multimesh__from__tag_8cpp.html#af55ce8249624ce4d6a3feaad760949a6" target="_top" xlink:title=" ">
<polygon fill="white" stroke="#666666" points="240,-185.01 169,-185.01 169,-166.01 240,-166.01 240,-185.01"/>
<text text-anchor="middle" x="204.5" y="-173.01" font-family="Helvetica,sans-Serif" font-size="10.00">TEST_CASE</text>
</a>
</g>
</g>
<!-- Node4&#45;&gt;Node11 -->
<g id="edge10_Node000004_Node000011" class="edge">
<title>Node4&#45;&gt;Node11</title>
<g id="a_edge10_Node000004_Node000011"><a xlink:title=" ">
<path fill="none" stroke="#63b8ff" d="M363.3,-207.97C343.6,-203.05 321.99,-197.86 302,-193.51 281.68,-189.09 258.81,-184.79 240.44,-181.51"/>
<polygon fill="#63b8ff" stroke="#63b8ff" points="362.55,-211.39 373.1,-210.44 364.26,-204.6 362.55,-211.39"/>
</a>
</g>
</g>
<!-- Node12 -->
<g id="Node000012" class="node">
<title>Node12</title>
<g id="a_Node000012"><a xlink:href="test__component__multimesh__from__tag_8cpp.html#a18cd3d411cfadc472201c20662d62869" target="_top" xlink:title=" ">
<polygon fill="white" stroke="#666666" points="240,-148.01 169,-148.01 169,-129.01 240,-129.01 240,-148.01"/>
<text text-anchor="middle" x="204.5" y="-136.01" font-family="Helvetica,sans-Serif" font-size="10.00">TEST_CASE</text>
</a>
</g>
</g>
<!-- Node4&#45;&gt;Node12 -->
<g id="edge11_Node000004_Node000012" class="edge">
<title>Node4&#45;&gt;Node12</title>
<g id="a_edge11_Node000004_Node000012"><a xlink:title=" ">
<path fill="none" stroke="#63b8ff" d="M398.6,-204.78C373.34,-189.27 336.67,-168.72 302,-156.51 282.07,-149.49 258.8,-145.05 240.11,-142.33"/>
<polygon fill="#63b8ff" stroke="#63b8ff" points="397.02,-207.92 407.36,-210.23 400.72,-201.98 397.02,-207.92"/>
</a>
</g>
</g>
<!-- Node13 -->
<g id="Node000013" class="node">
<title>Node13</title>
<g id="a_Node000013"><a xlink:href="namespacewmtk_1_1components.html#a9d6d11e3b7ba03911492ecfc79622247" target="_top" xlink:title=" ">
<polygon fill="white" stroke="#666666" points="281.5,-355.51 127.5,-355.51 127.5,-325.51 281.5,-325.51 281.5,-355.51"/>
<text text-anchor="start" x="135.5" y="-343.51" font-family="Helvetica,sans-Serif" font-size="10.00">wmtk::components::triangle</text>
<text text-anchor="middle" x="204.5" y="-332.51" font-family="Helvetica,sans-Serif" font-size="10.00">_insertion</text>
</a>
</g>
</g>
<!-- Node4&#45;&gt;Node13 -->
<g id="edge12_Node000004_Node000013" class="edge">
<title>Node4&#45;&gt;Node13</title>
<g id="a_edge12_Node000004_Node000013"><a xlink:title=" ">
<path fill="none" stroke="#63b8ff" d="M343.01,-245.9C341.29,-247.04 339.61,-248.24 338,-249.51 311.42,-270.39 328.69,-295.76 302,-316.51 295.87,-321.28 288.91,-325.11 281.6,-328.19"/>
<polygon fill="#63b8ff" stroke="#63b8ff" points="345.1,-248.74 352.02,-240.72 341.6,-242.67 345.1,-248.74"/>
</a>
</g>
</g>
<!-- Node6 -->
<g id="Node000006" class="node">
<title>Node6</title>
<g id="a_Node000006"><a xlink:href="test__component__multimesh__from__tag_8cpp.html#a2b0208caf4b963a36a43604c3e7cf34a" target="_top" xlink:title=" ">
<polygon fill="white" stroke="#666666" points="71,-302.01 0,-302.01 0,-283.01 71,-283.01 71,-302.01"/>
<text text-anchor="middle" x="35.5" y="-290.01" font-family="Helvetica,sans-Serif" font-size="10.00">TEST_CASE</text>
</a>
</g>
</g>
<!-- Node5&#45;&gt;Node6 -->
<g id="edge5_Node000005_Node000006" class="edge">
<title>Node5&#45;&gt;Node6</title>
<g id="a_edge5_Node000005_Node000006"><a xlink:title=" ">
<path fill="none" stroke="#63b8ff" d="M109.89,-292.51C96.07,-292.51 82.63,-292.51 71.1,-292.51"/>
<polygon fill="#63b8ff" stroke="#63b8ff" points="110,-296.01 120,-292.51 110,-289.01 110,-296.01"/>
</a>
</g>
</g>
<!-- Node14&#45;&gt;Node14 -->
<g id="edge44_Node000014_Node000014" class="edge">
<title>Node14&#45;&gt;Node14</title>
<g id="a_edge44_Node000014_Node000014"><a xlink:title=" ">
<path fill="none" stroke="#63b8ff" d="M1555.31,-226.11C1550.14,-230.48 1537.54,-233.51 1517.5,-233.51 1483.75,-233.51 1471.09,-224.92 1479.53,-215.78"/>
<polygon fill="#63b8ff" stroke="#63b8ff" points="1558.81,-225.84 1555.47,-215.78 1551.81,-225.73 1558.81,-225.84"/>
</a>
</g>
</g>
<!-- Node15 -->
<g id="Node000015" class="node">
<title>Node15</title>
<g id="a_Node000015"><a xlink:href="classwmtk_1_1multimesh_1_1_multi_mesh_manager.html#aa608e402a5d55152ce96cbacb88ba50a" target="_top" xlink:title=" ">
<polygon fill="white" stroke="#666666" points="1381,-191.51 1184,-191.51 1184,-161.51 1381,-161.51 1381,-191.51"/>
<text text-anchor="start" x="1192" y="-179.51" font-family="Helvetica,sans-Serif" font-size="10.00">wmtk::multimesh::MultiMesh</text>
<text text-anchor="middle" x="1282.5" y="-168.51" font-family="Helvetica,sans-Serif" font-size="10.00">Manager::map_down_relative_tuples</text>
</a>
</g>
</g>
<!-- Node14&#45;&gt;Node15 -->
<g id="edge14_Node000014_Node000015" class="edge">
<title>Node14&#45;&gt;Node15</title>
<g id="a_edge14_Node000014_Node000015"><a xlink:title=" ">
<path fill="none" stroke="#63b8ff" d="M1424.18,-191C1410.08,-189.55 1395.48,-188.04 1381.27,-186.58"/>
<polygon fill="#63b8ff" stroke="#63b8ff" points="1424.05,-194.5 1434.35,-192.05 1424.76,-187.54 1424.05,-194.5"/>
</a>
</g>
</g>
<!-- Node16 -->
<g id="Node000016" class="node">
<title>Node16</title>
<g id="a_Node000016"><a xlink:href="classwmtk_1_1multimesh_1_1_multi_mesh_manager.html#ae79d884089139ad2962aef5f496dbc8c" target="_top" xlink:title="optimized map fromsimplex from this mesh to one of its direct children">
<polygon fill="white" stroke="#666666" points="1362.5,-239.51 1202.5,-239.51 1202.5,-209.51 1362.5,-209.51 1362.5,-239.51"/>
<text text-anchor="start" x="1210.5" y="-227.51" font-family="Helvetica,sans-Serif" font-size="10.00">wmtk::multimesh::MultiMesh</text>
<text text-anchor="middle" x="1282.5" y="-216.51" font-family="Helvetica,sans-Serif" font-size="10.00">Manager::map_to_child</text>
</a>
</g>
</g>
<!-- Node14&#45;&gt;Node16 -->
<g id="edge15_Node000014_Node000016" class="edge">
<title>Node14&#45;&gt;Node16</title>
<g id="a_edge15_Node000014_Node000016"><a xlink:title=" ">
<path fill="none" stroke="#63b8ff" d="M1424.13,-210.02C1403.75,-212.12 1382.35,-214.33 1362.56,-216.37"/>
<polygon fill="#63b8ff" stroke="#63b8ff" points="1424.76,-213.48 1434.35,-208.97 1424.05,-206.51 1424.76,-213.48"/>
</a>
</g>
</g>
<!-- Node29 -->
<g id="Node000029" class="node">
<title>Node29</title>
<g id="a_Node000029"><a xlink:href="classwmtk_1_1_mesh.html#ae253a3cf3720e87d12b9560d43882e76" target="_top" xlink:title="optimized map fromsimplex from this mesh to one of its direct children">
<polygon fill="white" stroke="#666666" points="1342,-287.51 1223,-287.51 1223,-257.51 1342,-257.51 1342,-287.51"/>
<text text-anchor="start" x="1231" y="-275.51" font-family="Helvetica,sans-Serif" font-size="10.00">wmtk::Mesh::map_to</text>
<text text-anchor="middle" x="1282.5" y="-264.51" font-family="Helvetica,sans-Serif" font-size="10.00">_child_tuples</text>
</a>
</g>
</g>
<!-- Node14&#45;&gt;Node29 -->
<g id="edge42_Node000014_Node000029" class="edge">
<title>Node14&#45;&gt;Node29</title>
<g id="a_edge42_Node000014_Node000029"><a xlink:title=" ">
<path fill="none" stroke="#63b8ff" d="M1467.92,-219.04C1442.27,-228.48 1410.15,-239.78 1381,-248.51 1368.48,-252.26 1354.92,-255.87 1342.01,-259.11"/>
<polygon fill="#63b8ff" stroke="#63b8ff" points="1469.25,-222.27 1477.41,-215.52 1466.82,-215.71 1469.25,-222.27"/>
</a>
</g>
</g>
<!-- Node14&#45;&gt;Node31 -->
<g id="edge45_Node000014_Node000031" class="edge">
<title>Node14&#45;&gt;Node31</title>
<g id="a_edge45_Node000014_Node000031"><a xlink:title=" ">
<path fill="none" stroke="#63b8ff" d="M1448.08,-182.55C1437.55,-179.22 1426.9,-175.51 1417,-171.51 1400.23,-164.72 1397.91,-158.94 1381,-152.51 1372.28,-149.19 1362.95,-146.22 1353.64,-143.58"/>
<polygon fill="#63b8ff" stroke="#63b8ff" points="1447.1,-185.91 1457.69,-185.5 1449.16,-179.22 1447.1,-185.91"/>
</a>
</g>
</g>
<!-- Node17 -->
<g id="Node000017" class="node">
<title>Node17</title>
<g id="a_Node000017"><a xlink:href="classwmtk_1_1_mesh.html#ae608f09c361bbc3ccda3b4e02cc28940" target="_top" xlink:title="optimized map fromsimplex from this mesh to one of its direct children">
<polygon fill="white" stroke="#666666" points="1133,-202.51 1014,-202.51 1014,-172.51 1133,-172.51 1133,-202.51"/>
<text text-anchor="start" x="1022" y="-190.51" font-family="Helvetica,sans-Serif" font-size="10.00">wmtk::Mesh::map_to</text>
<text text-anchor="middle" x="1073.5" y="-179.51" font-family="Helvetica,sans-Serif" font-size="10.00">_child</text>
</a>
</g>
</g>
<!-- Node16&#45;&gt;Node17 -->
<g id="edge16_Node000016_Node000017" class="edge">
<title>Node16&#45;&gt;Node17</title>
<g id="a_edge16_Node000016_Node000017"><a xlink:title=" ">
<path fill="none" stroke="#63b8ff" d="M1192.32,-208.57C1172.36,-205 1151.68,-201.3 1133.32,-198.02"/>
<polygon fill="#63b8ff" stroke="#63b8ff" points="1191.9,-212.05 1202.36,-210.36 1193.13,-205.16 1191.9,-212.05"/>
</a>
</g>
</g>
<!-- Node18 -->
<g id="Node000018" class="node">
<title>Node18</title>
<g id="a_Node000018"><a xlink:href="classwmtk_1_1invariants_1_1_fusion_edge_invariant.html#abb8894b188e06d51bad0c0df062b37fe" target="_top" xlink:title=" ">
<polygon fill="white" stroke="#666666" points="930.5,-226.51 793.5,-226.51 793.5,-196.51 930.5,-196.51 930.5,-226.51"/>
<text text-anchor="start" x="801.5" y="-214.51" font-family="Helvetica,sans-Serif" font-size="10.00">wmtk::invariants::Fusion</text>
<text text-anchor="middle" x="862" y="-203.51" font-family="Helvetica,sans-Serif" font-size="10.00">EdgeInvariant::before</text>
</a>
</g>
</g>
<!-- Node17&#45;&gt;Node18 -->
<g id="edge17_Node000017_Node000018" class="edge">
<title>Node17&#45;&gt;Node18</title>
<g id="a_edge17_Node000017_Node000018"><a xlink:title=" ">
<path fill="none" stroke="#63b8ff" d="M1003.63,-195.4C980.13,-198.09 953.89,-201.1 930.5,-203.78"/>
<polygon fill="#63b8ff" stroke="#63b8ff" points="1004.33,-198.84 1013.86,-194.23 1003.53,-191.89 1004.33,-198.84"/>
</a>
</g>
</g>
<!-- Node19 -->
<g id="Node000019" class="node">
<title>Node19</title>
<g id="a_Node000019"><a xlink:href="classwmtk_1_1invariants_1_1uv_edge_invariant.html#a74dc103d7b91a971bdeaa197a1cf9dbd" target="_top" xlink:title=" ">
<polygon fill="white" stroke="#666666" points="932.5,-178.51 791.5,-178.51 791.5,-148.51 932.5,-148.51 932.5,-178.51"/>
<text text-anchor="start" x="799.5" y="-166.51" font-family="Helvetica,sans-Serif" font-size="10.00">wmtk::invariants::uvEdge</text>
<text text-anchor="middle" x="862" y="-155.51" font-family="Helvetica,sans-Serif" font-size="10.00">Invariant::before</text>
</a>
</g>
</g>
<!-- Node17&#45;&gt;Node19 -->
<g id="edge18_Node000017_Node000019" class="edge">
<title>Node17&#45;&gt;Node19</title>
<g id="a_edge18_Node000017_Node000019"><a xlink:title=" ">
<path fill="none" stroke="#63b8ff" d="M1003.92,-179.65C981.1,-177.04 955.68,-174.13 932.77,-171.5"/>
<polygon fill="#63b8ff" stroke="#63b8ff" points="1003.53,-183.13 1013.86,-180.79 1004.33,-176.18 1003.53,-183.13"/>
</a>
</g>
</g>
<!-- Node20 -->
<g id="Node000020" class="node">
<title>Node20</title>
<g id="a_Node000020"><a xlink:href="classwmtk_1_1invariants_1_1_no_child_mesh_attaching_invariant.html#a31d593e7cfecc62f5a1711ee37554535" target="_top" xlink:title=" ">
<polygon fill="white" stroke="#666666" points="933.5,-130.01 790.5,-130.01 790.5,-89.01 933.5,-89.01 933.5,-130.01"/>
<text text-anchor="start" x="798.5" y="-118.01" font-family="Helvetica,sans-Serif" font-size="10.00">wmtk::invariants::NoChild</text>
<text text-anchor="start" x="798.5" y="-107.01" font-family="Helvetica,sans-Serif" font-size="10.00">MeshAttachingInvariant</text>
<text text-anchor="middle" x="862" y="-96.01" font-family="Helvetica,sans-Serif" font-size="10.00">::before</text>
</a>
</g>
</g>
<!-- Node17&#45;&gt;Node20 -->
<g id="edge19_Node000017_Node000020" class="edge">
<title>Node17&#45;&gt;Node20</title>
<g id="a_edge19_Node000017_Node000020"><a xlink:title=" ">
<path fill="none" stroke="#63b8ff" d="M1031.53,-168.13C1011.16,-158.87 986.04,-147.98 963,-139.51 953.56,-136.04 943.51,-132.66 933.56,-129.5"/>
<polygon fill="#63b8ff" stroke="#63b8ff" points="1030.27,-171.41 1040.82,-172.4 1033.19,-165.04 1030.27,-171.41"/>
</a>
</g>
</g>
<!-- Node21 -->
<g id="Node000021" class="node">
<title>Node21</title>
<g id="a_Node000021"><a xlink:href="classwmtk_1_1components_1_1internal_1_1_multi_mesh_from_tag.html#a00b7df05e0cd44c1a2d4e6ee39dbaacf" target="_top" xlink:title="Create the adjacency (stored as attribute) of the substructure.">
<polygon fill="white" stroke="#666666" points="720,-329.01 566,-329.01 566,-288.01 720,-288.01 720,-329.01"/>
<text text-anchor="start" x="574" y="-317.01" font-family="Helvetica,sans-Serif" font-size="10.00">wmtk::components::internal</text>
<text text-anchor="start" x="574" y="-306.01" font-family="Helvetica,sans-Serif" font-size="10.00">::MultiMeshFromTag::build</text>
<text text-anchor="middle" x="643" y="-295.01" font-family="Helvetica,sans-Serif" font-size="10.00">_adjacency_matrix</text>
</a>
</g>
</g>
<!-- Node17&#45;&gt;Node21 -->
<g id="edge20_Node000017_Node000021" class="edge">
<title>Node17&#45;&gt;Node21</title>
<g id="a_edge20_Node000017_Node000021"><a xlink:title=" ">
<path fill="none" stroke="#63b8ff" d="M1039.84,-208.42C1026.36,-217.91 1011.1,-229.84 999,-242.51 979.33,-263.1 987.89,-281.67 963,-295.51 888.4,-336.99 788.11,-333.27 720.04,-323.72"/>
<polygon fill="#63b8ff" stroke="#63b8ff" points="1042.12,-211.1 1048.38,-202.56 1038.16,-205.33 1042.12,-211.1"/>
</a>
</g>
</g>
<!-- Node24 -->
<g id="Node000024" class="node">
<title>Node24</title>
<g id="a_Node000024"><a xlink:href="classwmtk_1_1operations_1_1_a_m_i_p_s_optimization_smoothing_periodic.html#a86df18fe3713cb41dca1687487dea61b" target="_top" xlink:title="returns an empty vector in case of failure">
<polygon fill="white" stroke="#666666" points="963,-70.51 761,-70.51 761,-40.51 963,-40.51 963,-70.51"/>
<text text-anchor="start" x="769" y="-58.51" font-family="Helvetica,sans-Serif" font-size="10.00">wmtk::operations::AMIPSOptimization</text>
<text text-anchor="middle" x="862" y="-47.51" font-family="Helvetica,sans-Serif" font-size="10.00">SmoothingPeriodic::execute</text>
</a>
</g>
</g>
<!-- Node17&#45;&gt;Node24 -->
<g id="edge31_Node000017_Node000024" class="edge">
<title>Node17&#45;&gt;Node24</title>
<g id="a_edge31_Node000017_Node000024"><a xlink:title=" ">
<path fill="none" stroke="#63b8ff" d="M1055.28,-164.2C1035.7,-139.39 1001.42,-100.85 963,-79.51 956.76,-76.04 950.02,-73.07 943.1,-70.53"/>
<polygon fill="#63b8ff" stroke="#63b8ff" points="1052.7,-166.57 1061.58,-172.35 1058.24,-162.29 1052.7,-166.57"/>
</a>
</g>
</g>
<!-- Node25 -->
<g id="Node000025" class="node">
<title>Node25</title>
<g id="a_Node000025"><a xlink:href="classwmtk_1_1components_1_1internal_1_1_multi_mesh_from_tag.html#a5c6d50173da15e964b0f1dc6367858e6" target="_top" xlink:title="Get tuples with different global_cid that all represent simplex(t_in, ptype) and are in the same tag&#45;...">
<polygon fill="white" stroke="#666666" points="939,-286.01 785,-286.01 785,-245.01 939,-245.01 939,-286.01"/>
<text text-anchor="start" x="793" y="-274.01" font-family="Helvetica,sans-Serif" font-size="10.00">wmtk::components::internal</text>
<text text-anchor="start" x="793" y="-263.01" font-family="Helvetica,sans-Serif" font-size="10.00">::MultiMeshFromTag::get</text>
<text text-anchor="middle" x="862" y="-252.01" font-family="Helvetica,sans-Serif" font-size="10.00">_connected_region</text>
</a>
</g>
</g>
<!-- Node17&#45;&gt;Node25 -->
<g id="edge32_Node000017_Node000025" class="edge">
<title>Node17&#45;&gt;Node25</title>
<g id="a_edge32_Node000017_Node000025"><a xlink:title=" ">
<path fill="none" stroke="#63b8ff" d="M1031.53,-206.89C1011.16,-216.15 986.04,-227.04 963,-235.51 954.07,-238.79 944.59,-241.99 935.18,-245"/>
<polygon fill="#63b8ff" stroke="#63b8ff" points="1033.19,-209.97 1040.82,-202.62 1030.27,-203.61 1033.19,-209.97"/>
</a>
</g>
</g>
<!-- Node27 -->
<g id="Node000027" class="node">
<title>Node27</title>
<g id="a_Node000027"><a xlink:href="classwmtk_1_1components_1_1internal_1_1_multi_mesh_from_tag.html#a7396baf219485919ab557c6407162e73" target="_top" xlink:title=" ">
<polygon fill="white" stroke="#666666" points="508.5,-159.01 354.5,-159.01 354.5,-118.01 508.5,-118.01 508.5,-159.01"/>
<text text-anchor="start" x="362.5" y="-147.01" font-family="Helvetica,sans-Serif" font-size="10.00">wmtk::components::internal</text>
<text text-anchor="start" x="362.5" y="-136.01" font-family="Helvetica,sans-Serif" font-size="10.00">::MultiMeshFromTag::is_root</text>
<text text-anchor="middle" x="431.5" y="-125.01" font-family="Helvetica,sans-Serif" font-size="10.00">_simplex_manifold</text>
</a>
</g>
</g>
<!-- Node17&#45;&gt;Node27 -->
<g id="edge35_Node000017_Node000027" class="edge">
<title>Node17&#45;&gt;Node27</title>
<g id="a_edge35_Node000017_Node000027"><a xlink:title=" ">
<path fill="none" stroke="#63b8ff" d="M1063.71,-162.84C1049.2,-126.34 1016.4,-59.27 963,-31.51 791.06,57.87 551.83,-66.22 465.34,-117.83"/>
<polygon fill="#63b8ff" stroke="#63b8ff" points="1060.48,-164.18 1067.32,-172.27 1067.01,-161.68 1060.48,-164.18"/>
</a>
</g>
</g>
<!-- Node22 -->
<g id="Node000022" class="node">
<title>Node22</title>
<g id="a_Node000022"><a xlink:href="classwmtk_1_1components_1_1internal_1_1_multi_mesh_from_tag.html#a96647e9413f2b7e13dd17f02cf29b12d" target="_top" xlink:title="Create a manifold mesh from the substructure.">
<polygon fill="white" stroke="#666666" points="513.5,-300.01 349.5,-300.01 349.5,-259.01 513.5,-259.01 513.5,-300.01"/>
<text text-anchor="start" x="357.5" y="-288.01" font-family="Helvetica,sans-Serif" font-size="10.00">wmtk::components::internal</text>
<text text-anchor="start" x="357.5" y="-277.01" font-family="Helvetica,sans-Serif" font-size="10.00">::MultiMeshFromTag::compute</text>
<text text-anchor="middle" x="431.5" y="-266.01" font-family="Helvetica,sans-Serif" font-size="10.00">_substructure_mesh</text>
</a>
</g>
</g>
<!-- Node21&#45;&gt;Node22 -->
<g id="edge21_Node000021_Node000022" class="edge">
<title>Node21&#45;&gt;Node22</title>
<g id="a_edge21_Node000021_Node000022"><a xlink:title=" ">
<path fill="none" stroke="#63b8ff" d="M555.72,-296.57C541.79,-294.64 527.41,-292.65 513.61,-290.74"/>
<polygon fill="#63b8ff" stroke="#63b8ff" points="555.39,-300.05 565.77,-297.96 556.35,-293.12 555.39,-300.05"/>
</a>
</g>
</g>
<!-- Node22&#45;&gt;Node5 -->
<g id="edge22_Node000022_Node000005" class="edge">
<title>Node22&#45;&gt;Node5</title>
<g id="a_edge22_Node000022_Node000005"><a xlink:title=" ">
<path fill="none" stroke="#63b8ff" d="M339.1,-284.79C322.62,-285.74 305.51,-286.73 289.26,-287.67"/>
<polygon fill="#63b8ff" stroke="#63b8ff" points="339.49,-288.27 349.27,-284.2 339.08,-281.29 339.49,-288.27"/>
</a>
</g>
</g>
<!-- Node22&#45;&gt;Node7 -->
<g id="edge23_Node000022_Node000007" class="edge">
<title>Node22&#45;&gt;Node7</title>
<g id="a_edge23_Node000022_Node000007"><a xlink:title=" ">
<path fill="none" stroke="#63b8ff" d="M396.94,-306.35C372.03,-325.07 336.54,-349.33 302,-364.51 294.26,-367.91 285.94,-370.89 277.56,-373.49"/>
<polygon fill="#63b8ff" stroke="#63b8ff" points="399.13,-309.08 404.96,-300.23 394.89,-303.51 399.13,-309.08"/>
</a>
</g>
</g>
<!-- Node22&#45;&gt;Node8 -->
<g id="edge24_Node000022_Node000008" class="edge">
<title>Node22&#45;&gt;Node8</title>
<g id="a_edge24_Node000022_Node000008"><a xlink:title=" ">
<path fill="none" stroke="#63b8ff" d="M341.29,-252.7C340.16,-251.68 339.06,-250.61 338,-249.51 296.54,-206.21 346.17,-160.05 302,-119.51 285.55,-104.41 260.67,-100.05 240.29,-99.4"/>
<polygon fill="#63b8ff" stroke="#63b8ff" points="339.24,-255.54 349.28,-258.92 343.54,-250.01 339.24,-255.54"/>
</a>
</g>
</g>
<!-- Node22&#45;&gt;Node9 -->
<g id="edge25_Node000022_Node000009" class="edge">
<title>Node22&#45;&gt;Node9</title>
<g id="a_edge25_Node000022_Node000009"><a xlink:title=" ">
<path fill="none" stroke="#63b8ff" d="M339.05,-267.32C304.22,-262.67 266.6,-257.66 240.19,-254.13"/>
<polygon fill="#63b8ff" stroke="#63b8ff" points="338.89,-270.83 349.27,-268.68 339.82,-263.89 338.89,-270.83"/>
</a>
</g>
</g>
<!-- Node22&#45;&gt;Node10 -->
<g id="edge26_Node000022_Node000010" class="edge">
<title>Node22&#45;&gt;Node10</title>
<g id="a_edge26_Node000022_Node000010"><a xlink:title=" ">
<path fill="none" stroke="#63b8ff" d="M352.65,-255.34C347.66,-253.46 342.74,-251.51 338,-249.51 321.33,-242.47 319.09,-236.46 302,-230.51 282.04,-223.56 258.78,-219.12 240.09,-216.39"/>
<polygon fill="#63b8ff" stroke="#63b8ff" points="351.72,-258.73 362.31,-258.88 354.12,-252.15 351.72,-258.73"/>
</a>
</g>
</g>
<!-- Node22&#45;&gt;Node11 -->
<g id="edge27_Node000022_Node000011" class="edge">
<title>Node22&#45;&gt;Node11</title>
<g id="a_edge27_Node000022_Node000011"><a xlink:title=" ">
<path fill="none" stroke="#63b8ff" d="M343.74,-253.58C341.76,-252.29 339.85,-250.93 338,-249.51 314.56,-231.45 326.55,-210.02 302,-193.51 283.9,-181.34 259.77,-176.84 240.17,-175.38"/>
<polygon fill="#63b8ff" stroke="#63b8ff" points="342.32,-256.81 352.72,-258.86 345.87,-250.78 342.32,-256.81"/>
</a>
</g>
</g>
<!-- Node22&#45;&gt;Node12 -->
<g id="edge28_Node000022_Node000012" class="edge">
<title>Node22&#45;&gt;Node12</title>
<g id="a_edge28_Node000022_Node000012"><a xlink:title=" ">
<path fill="none" stroke="#63b8ff" d="M341.93,-252.96C340.58,-251.85 339.26,-250.71 338,-249.51 305.8,-219.05 336.1,-184.82 302,-156.51 284.95,-142.36 260.34,-137.94 240.23,-137.01"/>
<polygon fill="#63b8ff" stroke="#63b8ff" points="339.94,-255.83 350.12,-258.79 344,-250.13 339.94,-255.83"/>
</a>
</g>
</g>
<!-- Node22&#45;&gt;Node13 -->
<g id="edge30_Node000022_Node000013" class="edge">
<title>Node22&#45;&gt;Node13</title>
<g id="a_edge30_Node000022_Node000013"><a xlink:title=" ">
<path fill="none" stroke="#63b8ff" d="M350.98,-302.9C334.8,-307.52 317.88,-312.25 302,-316.51 290.83,-319.51 278.89,-322.58 267.36,-325.48"/>
<polygon fill="#63b8ff" stroke="#63b8ff" points="352.29,-306.16 360.94,-300.04 350.36,-299.43 352.29,-306.16"/>
</a>
</g>
</g>
<!-- Node23 -->
<g id="Node000023" class="node">
<title>Node23</title>
<g id="a_Node000023"><a xlink:href="test__component__multimesh__from__tag_8cpp.html#a4caad3dd8a6355f2ca66fdb0b0af7999" target="_top" xlink:title=" ">
<polygon fill="white" stroke="#666666" points="240,-441.01 169,-441.01 169,-422.01 240,-422.01 240,-441.01"/>
<text text-anchor="middle" x="204.5" y="-429.01" font-family="Helvetica,sans-Serif" font-size="10.00">TEST_CASE</text>
</a>
</g>
</g>
<!-- Node22&#45;&gt;Node23 -->
<g id="edge29_Node000022_Node000023" class="edge">
<title>Node22&#45;&gt;Node23</title>
<g id="a_edge29_Node000022_Node000023"><a xlink:title=" ">
<path fill="none" stroke="#63b8ff" d="M410.78,-308.64C388.23,-339.52 348.4,-387.25 302,-412.51 283.1,-422.8 259.43,-427.56 240.26,-429.74"/>
<polygon fill="#63b8ff" stroke="#63b8ff" points="413.7,-310.58 416.67,-300.41 408,-306.5 413.7,-310.58"/>
</a>
</g>
</g>
<!-- Node26 -->
<g id="Node000026" class="node">
<title>Node26</title>
<g id="a_Node000026"><a xlink:href="classwmtk_1_1components_1_1internal_1_1_multi_mesh_from_tag.html#afb744eb2b5ec264a9a682ccfd3f8dfcb" target="_top" xlink:title="Compute the ids of the manifold substructure.">
<polygon fill="white" stroke="#666666" points="725,-270.01 561,-270.01 561,-229.01 725,-229.01 725,-270.01"/>
<text text-anchor="start" x="569" y="-258.01" font-family="Helvetica,sans-Serif" font-size="10.00">wmtk::components::internal</text>
<text text-anchor="start" x="569" y="-247.01" font-family="Helvetica,sans-Serif" font-size="10.00">::MultiMeshFromTag::compute</text>
<text text-anchor="middle" x="643" y="-236.01" font-family="Helvetica,sans-Serif" font-size="10.00">_substructure_ids</text>
</a>
</g>
</g>
<!-- Node25&#45;&gt;Node26 -->
<g id="edge33_Node000025_Node000026" class="edge">
<title>Node25&#45;&gt;Node26</title>
<g id="a_edge33_Node000025_Node000026"><a xlink:title=" ">
<path fill="none" stroke="#63b8ff" d="M774.73,-259.15C758.39,-257.94 741.35,-256.69 725.18,-255.49"/>
<polygon fill="#63b8ff" stroke="#63b8ff" points="774.57,-262.65 784.8,-259.89 775.08,-255.66 774.57,-262.65"/>
</a>
</g>
</g>
<!-- Node26&#45;&gt;Node22 -->
<g id="edge34_Node000026_Node000022" class="edge">
<title>Node26&#45;&gt;Node22</title>
<g id="a_edge34_Node000026_Node000022"><a xlink:title=" ">
<path fill="none" stroke="#63b8ff" d="M550.5,-262.61C538.27,-264.36 525.79,-266.15 513.75,-267.87"/>
<polygon fill="#63b8ff" stroke="#63b8ff" points="551.3,-266.03 560.7,-261.15 550.31,-259.1 551.3,-266.03"/>
</a>
</g>
</g>
<!-- Node27&#45;&gt;Node8 -->
<g id="edge37_Node000027_Node000008" class="edge">
<title>Node27&#45;&gt;Node8</title>
<g id="a_edge37_Node000027_Node000008"><a xlink:title=" ">
<path fill="none" stroke="#63b8ff" d="M344.2,-124.32C307.91,-118.35 267.76,-111.75 240.04,-107.19"/>
<polygon fill="#63b8ff" stroke="#63b8ff" points="343.89,-127.81 354.33,-125.98 345.03,-120.91 343.89,-127.81"/>
</a>
</g>
</g>
<!-- Node27&#45;&gt;Node9 -->
<g id="edge38_Node000027_Node000009" class="edge">
<title>Node27&#45;&gt;Node9</title>
<g id="a_edge38_Node000027_Node000009"><a xlink:title=" ">
<path fill="none" stroke="#63b8ff" d="M390.47,-164.75C374.01,-175.81 354.88,-188.99 338,-201.51 321.5,-213.75 320.62,-221.83 302,-230.51 282.66,-239.53 259.19,-244.27 240.25,-246.76"/>
<polygon fill="#63b8ff" stroke="#63b8ff" points="392.44,-167.65 398.81,-159.18 388.55,-161.83 392.44,-167.65"/>
</a>
</g>
</g>
<!-- Node27&#45;&gt;Node10 -->
<g id="edge39_Node000027_Node000010" class="edge">
<title>Node27&#45;&gt;Node10</title>
<g id="a_edge39_Node000027_Node000010"><a xlink:title=" ">
<path fill="none" stroke="#63b8ff" d="M379.23,-163.39C356.06,-173.86 328.09,-185.46 302,-193.51 281.93,-199.7 258.87,-204.33 240.33,-207.47"/>
<polygon fill="#63b8ff" stroke="#63b8ff" points="380.87,-166.48 388.51,-159.14 377.96,-160.12 380.87,-166.48"/>
</a>
</g>
</g>
<!-- Node27&#45;&gt;Node11 -->
<g id="edge40_Node000027_Node000011" class="edge">
<title>Node27&#45;&gt;Node11</title>
<g id="a_edge40_Node000027_Node000011"><a xlink:title=" ">
<path fill="none" stroke="#63b8ff" d="M344.2,-152.7C307.91,-158.67 267.76,-165.27 240.04,-169.83"/>
<polygon fill="#63b8ff" stroke="#63b8ff" points="345.03,-156.11 354.33,-151.04 343.89,-149.2 345.03,-156.11"/>
</a>
</g>
</g>
<!-- Node27&#45;&gt;Node12 -->
<g id="edge41_Node000027_Node000012" class="edge">
<title>Node27&#45;&gt;Node12</title>
<g id="a_edge41_Node000027_Node000012"><a xlink:title=" ">
<path fill="none" stroke="#63b8ff" d="M344.2,-138.51C307.91,-138.51 267.76,-138.51 240.04,-138.51"/>
<polygon fill="#63b8ff" stroke="#63b8ff" points="344.33,-142.01 354.33,-138.51 344.33,-135.01 344.33,-142.01"/>
</a>
</g>
</g>
<!-- Node28 -->
<g id="Node000028" class="node">
<title>Node28</title>
<g id="a_Node000028"><a xlink:href="classwmtk_1_1components_1_1internal_1_1_multi_mesh_from_tag.html#ae581997dd90bdc86e7d007f46ec28e14" target="_top" xlink:title=" ">
<polygon fill="white" stroke="#666666" points="302,-74.01 107,-74.01 107,-33.01 302,-33.01 302,-74.01"/>
<text text-anchor="start" x="115" y="-62.01" font-family="Helvetica,sans-Serif" font-size="10.00">wmtk::components::internal</text>
<text text-anchor="start" x="115" y="-51.01" font-family="Helvetica,sans-Serif" font-size="10.00">::MultiMeshFromTag::is_substructure</text>
<text text-anchor="middle" x="204.5" y="-40.01" font-family="Helvetica,sans-Serif" font-size="10.00">_simplex_manifold</text>
</a>
</g>
</g>
<!-- Node27&#45;&gt;Node28 -->
<g id="edge36_Node000027_Node000028" class="edge">
<title>Node27&#45;&gt;Node28</title>
<g id="a_edge36_Node000027_Node000028"><a xlink:title=" ">
<path fill="none" stroke="#63b8ff" d="M377.5,-113.72C354.54,-103.42 327.2,-91.75 302,-82.51 294.03,-79.59 285.62,-76.73 277.22,-74.02"/>
<polygon fill="#63b8ff" stroke="#63b8ff" points="376.17,-116.96 386.72,-117.89 379.05,-110.58 376.17,-116.96"/>
</a>
</g>
</g>
<!-- Node30 -->
<g id="Node000030" class="node">
<title>Node30</title>
<g id="a_Node000030"><a xlink:href="classwmtk_1_1invariants_1_1_separate_substructures_invariant.html#a61369d82ed2241444a204b1ccca89ba1" target="_top" xlink:title=" ">
<polygon fill="white" stroke="#666666" points="1148,-293.01 999,-293.01 999,-252.01 1148,-252.01 1148,-293.01"/>
<text text-anchor="start" x="1007" y="-281.01" font-family="Helvetica,sans-Serif" font-size="10.00">wmtk::invariants::Separate</text>
<text text-anchor="start" x="1007" y="-270.01" font-family="Helvetica,sans-Serif" font-size="10.00">SubstructuresInvariant</text>
<text text-anchor="middle" x="1073.5" y="-259.01" font-family="Helvetica,sans-Serif" font-size="10.00">::before</text>
</a>
</g>
</g>
<!-- Node29&#45;&gt;Node30 -->
<g id="edge43_Node000029_Node000030" class="edge">
<title>Node29&#45;&gt;Node30</title>
<g id="a_edge43_Node000029_Node000030"><a xlink:title=" ">
<path fill="none" stroke="#63b8ff" d="M1212.47,-272.51C1191.82,-272.51 1169.11,-272.51 1148.18,-272.51"/>
<polygon fill="#63b8ff" stroke="#63b8ff" points="1212.74,-276.01 1222.74,-272.51 1212.74,-269.01 1212.74,-276.01"/>
</a>
</g>
</g>
</g>
</svg>

<g id="navigator" transform="translate(0 0)" fill="#404254">
  <rect fill="#f2f5e9" fill-opacity="0.5" stroke="#606060" stroke-width=".5" x="0" y="0" width="60" height="60"/>
  <use id="zoomplus" xlink:href="#zoomPlus" x="17" y="9" onmousedown="handleZoom(evt,'in')"/>
  <use id="zoomminus" xlink:href="#zoomMin" x="42" y="9" onmousedown="handleZoom(evt,'out')"/>
  <use id="reset" xlink:href="#resetDef" x="30" y="36" onmousedown="handleReset()"/>
   <use id="arrowup" xlink:href="#arrowUp" x="0" y="0" onmousedown="handlePan(0,-1)"/>
  <use id="arrowright" xlink:href="#arrowRight" x="0" y="0" onmousedown="handlePan(1,0)"/>
  <use id="arrowdown" xlink:href="#arrowDown" x="0" y="0" onmousedown="handlePan(0,1)"/>
  <use id="arrowleft" xlink:href="#arrowLeft" x="0" y="0" onmousedown="handlePan(-1,0)"/>
</g>
<svg viewBox="0 0 15 15" width="100%" height="30px" preserveAspectRatio="xMaxYMin meet">
 <g id="arrow_out" transform="scale(0.3 0.3)">
  <a xlink:href="classwmtk_1_1multimesh_1_1_multi_mesh_manager_a0fdf5c6dbc3b4d5254526fc7e29e3bbd_icgraph_org.svg" target="_base">
   <rect id="button" ry="5" rx="5" y="6" x="6" height="38" width="38"
        fill="#f2f5e9" fill-opacity="0.5" stroke="#606060" stroke-width="1.0"/>
   <path id="arrow"
     d="M 11.500037,31.436501 C 11.940474,20.09759 22.043105,11.32322 32.158766,21.979434 L 37.068811,17.246167 C 37.068811,17.246167 37.088388,32 37.088388,32 L 22.160133,31.978069 C 22.160133,31.978069 26.997745,27.140456 26.997745,27.140456 C 18.528582,18.264221 13.291696,25.230495 11.500037,31.436501 z"
     style="fill:#404040;"/>
  </a>
 </g>
</svg>

<style type='text/css'>
<![CDATA[
[data-mouse-over-selected='false'] { opacity: 0.7; }
[data-mouse-over-selected='true']  { opacity: 1.0; }
]]>
</style>
<script type="application/ecmascript"><![CDATA[
document.addEventListener('DOMContentLoaded', (event) => {
  highlightEdges();
  highlightAdjacentNodes();
});
]]></script>
</svg>
