<?xml version="1.0" encoding="UTF-8" standalone="no"?>
<!DOCTYPE svg PUBLIC "-//W3C//DTD SVG 1.1//EN"
 "http://www.w3.org/Graphics/SVG/1.1/DTD/svg11.dtd">
<!-- Generated by graphviz version 2.43.0 (0)
 -->
<!-- Title: wmtk::Mesh::is_free Pages: 1 -->
<svg width="1264pt" height="958pt"
 viewBox="0.00 0.00 1264.00 958.00" xmlns="http://www.w3.org/2000/svg" xmlns:xlink="http://www.w3.org/1999/xlink">
<g id="graph0" class="graph" transform="scale(1 1) rotate(0) translate(4 954)">
<title>wmtk::Mesh::is_free</title>
<!-- Node1 -->
<g id="Node000001" class="node">
<title>Node1</title>
<g id="a_Node000001"><a xlink:title=" ">
<polygon fill="#999999" stroke="#666666" points="1256,-525 1140,-525 1140,-506 1256,-506 1256,-525"/>
<text text-anchor="middle" x="1198" y="-513" font-family="Helvetica,sans-Serif" font-size="10.00">wmtk::Mesh::is_free</text>
</a>
</g>
</g>
<!-- Node2 -->
<g id="Node000002" class="node">
<title>Node2</title>
<g id="a_Node000002"><a xlink:href="classwmtk_1_1operations_1_1_collapse_new_attribute_strategy.html#a0a4ee7f8de76cb4cd958357334e8f908" target="_top" xlink:title=" ">
<polygon fill="white" stroke="#666666" points="1093,-950 923,-950 923,-909 1093,-909 1093,-950"/>
<text text-anchor="start" x="931" y="-938" font-family="Helvetica,sans-Serif" font-size="10.00">wmtk::operations::Collapse</text>
<text text-anchor="start" x="931" y="-927" font-family="Helvetica,sans-Serif" font-size="10.00">NewAttributeStrategy::Collapse</text>
<text text-anchor="middle" x="1008" y="-916" font-family="Helvetica,sans-Serif" font-size="10.00">NewAttributeStrategy</text>
</a>
</g>
</g>
<!-- Node1&#45;&gt;Node2 -->
<g id="edge1_Node000001_Node000002" class="edge">
<title>Node1&#45;&gt;Node2</title>
<g id="a_edge1_Node000001_Node000002"><a xlink:title=" ">
<path fill="none" stroke="#63b8ff" d="M1194.77,-535.34C1186.42,-606.14 1154.89,-845.01 1104,-899.5 1100.69,-903.04 1096.98,-906.16 1092.97,-908.92"/>
<polygon fill="#63b8ff" stroke="#63b8ff" points="1198.27,-535.48 1195.94,-525.14 1191.32,-534.68 1198.27,-535.48"/>
</a>
</g>
</g>
<!-- Node3 -->
<g id="Node000003" class="node">
<title>Node3</title>
<g id="a_Node000003"><a xlink:href="classwmtk_1_1operations_1_1_edge_collapse.html#a64450fa42ff00ebaba65ddca6e94c605" target="_top" xlink:title=" ">
<polygon fill="white" stroke="#666666" points="1095,-890.5 921,-890.5 921,-860.5 1095,-860.5 1095,-890.5"/>
<text text-anchor="start" x="929" y="-878.5" font-family="Helvetica,sans-Serif" font-size="10.00">wmtk::operations::EdgeCollapse</text>
<text text-anchor="middle" x="1008" y="-867.5" font-family="Helvetica,sans-Serif" font-size="10.00">::EdgeCollapse</text>
</a>
</g>
</g>
<!-- Node1&#45;&gt;Node3 -->
<g id="edge2_Node000001_Node000003" class="edge">
<title>Node1&#45;&gt;Node3</title>
<g id="a_edge2_Node000001_Node000003"><a xlink:title=" ">
<path fill="none" stroke="#63b8ff" d="M1194.14,-535.44C1184.38,-600.68 1150.44,-806.1 1104,-851.5 1100.47,-854.95 1096.53,-857.92 1092.3,-860.49"/>
<polygon fill="#63b8ff" stroke="#63b8ff" points="1197.64,-535.68 1195.63,-525.28 1190.71,-534.66 1197.64,-535.68"/>
</a>
</g>
</g>
<!-- Node4 -->
<g id="Node000004" class="node">
<title>Node4</title>
<g id="a_Node000004"><a xlink:href="classwmtk_1_1_edge_mesh_1_1_edge_mesh_operation_executor.html#ae365a598aaead39c4d9fa3a01d486fa6" target="_top" xlink:title="gather all simplices that are deleted in a collapse">
<polygon fill="white" stroke="#666666" points="1090.5,-842 925.5,-842 925.5,-801 1090.5,-801 1090.5,-842"/>
<text text-anchor="start" x="933.5" y="-830" font-family="Helvetica,sans-Serif" font-size="10.00">wmtk::EdgeMesh::EdgeMesh</text>
<text text-anchor="start" x="933.5" y="-819" font-family="Helvetica,sans-Serif" font-size="10.00">OperationExecutor::get</text>
<text text-anchor="middle" x="1008" y="-808" font-family="Helvetica,sans-Serif" font-size="10.00">_collapse_simplices_to_delete</text>
</a>
</g>
</g>
<!-- Node1&#45;&gt;Node4 -->
<g id="edge3_Node000001_Node000004" class="edge">
<title>Node1&#45;&gt;Node4</title>
<g id="a_edge3_Node000001_Node000004"><a xlink:title=" ">
<path fill="none" stroke="#63b8ff" d="M1196.27,-535.45C1193.34,-585.94 1178.55,-719.98 1104,-792.5 1100.04,-796.35 1095.59,-799.69 1090.83,-802.58"/>
<polygon fill="#63b8ff" stroke="#63b8ff" points="1199.78,-535.39 1196.77,-525.23 1192.79,-535.05 1199.78,-535.39"/>
</a>
</g>
</g>
<!-- Node5 -->
<g id="Node000005" class="node">
<title>Node5</title>
<g id="a_Node000005"><a xlink:href="classwmtk_1_1_tri_mesh_1_1_tri_mesh_operation_executor.html#a17977fc07ce1f6618c8dd6e5cef42e6e" target="_top" xlink:title="gather all simplices that are deleted in a collapse">
<polygon fill="white" stroke="#666666" points="1097.5,-783 918.5,-783 918.5,-742 1097.5,-742 1097.5,-783"/>
<text text-anchor="start" x="926.5" y="-771" font-family="Helvetica,sans-Serif" font-size="10.00">wmtk::TriMesh::TriMeshOperation</text>
<text text-anchor="start" x="926.5" y="-760" font-family="Helvetica,sans-Serif" font-size="10.00">Executor::get_collapse_simplices</text>
<text text-anchor="middle" x="1008" y="-749" font-family="Helvetica,sans-Serif" font-size="10.00">_to_delete</text>
</a>
</g>
</g>
<!-- Node1&#45;&gt;Node5 -->
<g id="edge4_Node000001_Node000005" class="edge">
<title>Node1&#45;&gt;Node5</title>
<g id="a_edge4_Node000001_Node000005"><a xlink:title=" ">
<path fill="none" stroke="#63b8ff" d="M1194.2,-535.43C1187.16,-578.13 1164.69,-678.98 1104,-733.5 1100.54,-736.61 1096.75,-739.39 1092.74,-741.87"/>
<polygon fill="#63b8ff" stroke="#63b8ff" points="1197.68,-535.87 1195.74,-525.45 1190.76,-534.8 1197.68,-535.87"/>
</a>
</g>
</g>
<!-- Node6 -->
<g id="Node000006" class="node">
<title>Node6</title>
<g id="a_Node000006"><a xlink:href="classwmtk_1_1_edge_mesh.html#ab2c9399dcd6f0e68b65126cde5ee9fd6" target="_top" xlink:title=" ">
<polygon fill="white" stroke="#666666" points="1082.5,-706 933.5,-706 933.5,-687 1082.5,-687 1082.5,-706"/>
<text text-anchor="middle" x="1008" y="-694" font-family="Helvetica,sans-Serif" font-size="10.00">wmtk::EdgeMesh::initialize</text>
</a>
</g>
</g>
<!-- Node1&#45;&gt;Node6 -->
<g id="edge5_Node000001_Node000006" class="edge">
<title>Node1&#45;&gt;Node6</title>
<g id="a_edge5_Node000001_Node000006"><a xlink:title=" ">
<path fill="none" stroke="#63b8ff" d="M1191.76,-535.03C1181.32,-569.87 1154.49,-642.47 1104,-678.5 1097.58,-683.08 1090.31,-686.59 1082.73,-689.26"/>
<polygon fill="#63b8ff" stroke="#63b8ff" points="1195.2,-535.71 1194.58,-525.14 1188.47,-533.79 1195.2,-535.71"/>
</a>
</g>
</g>
<!-- Node20 -->
<g id="Node000020" class="node">
<title>Node20</title>
<g id="a_Node000020"><a xlink:href="classwmtk_1_1_tri_mesh.html#ab765cbb23c54975bbea2beec79439c6f" target="_top" xlink:title=" ">
<polygon fill="white" stroke="#666666" points="1076,-669 940,-669 940,-650 1076,-650 1076,-669"/>
<text text-anchor="middle" x="1008" y="-657" font-family="Helvetica,sans-Serif" font-size="10.00">wmtk::TriMesh::initialize</text>
</a>
</g>
</g>
<!-- Node1&#45;&gt;Node20 -->
<g id="edge21_Node000001_Node000020" class="edge">
<title>Node1&#45;&gt;Node20</title>
<g id="a_edge21_Node000001_Node000020"><a xlink:title=" ">
<path fill="none" stroke="#63b8ff" d="M1188.61,-534.54C1175.13,-562.77 1145.82,-615.21 1104,-641.5 1095.61,-646.77 1086.05,-650.57 1076.29,-653.29"/>
<polygon fill="#63b8ff" stroke="#63b8ff" points="1191.85,-535.88 1192.86,-525.33 1185.49,-532.95 1191.85,-535.88"/>
</a>
</g>
</g>
<!-- Node21 -->
<g id="Node000021" class="node">
<title>Node21</title>
<g id="a_Node000021"><a xlink:href="classwmtk_1_1_tet_mesh.html#a679a3ffd1a5375f69e9279e48ddbbb8b" target="_top" xlink:title=" ">
<polygon fill="white" stroke="#666666" points="1077.5,-632 938.5,-632 938.5,-613 1077.5,-613 1077.5,-632"/>
<text text-anchor="middle" x="1008" y="-620" font-family="Helvetica,sans-Serif" font-size="10.00">wmtk::TetMesh::initialize</text>
</a>
</g>
</g>
<!-- Node1&#45;&gt;Node21 -->
<g id="edge22_Node000001_Node000021" class="edge">
<title>Node1&#45;&gt;Node21</title>
<g id="a_edge22_Node000001_Node000021"><a xlink:title=" ">
<path fill="none" stroke="#63b8ff" d="M1183.93,-533.09C1167.62,-553.67 1137.73,-587.14 1104,-604.5 1095.79,-608.73 1086.72,-611.97 1077.55,-614.45"/>
<polygon fill="#63b8ff" stroke="#63b8ff" points="1186.72,-535.2 1190.06,-525.14 1181.18,-530.92 1186.72,-535.2"/>
</a>
</g>
</g>
<!-- Node22 -->
<g id="Node000022" class="node">
<title>Node22</title>
<g id="a_Node000022"><a xlink:href="namespacewmtk_1_1operations_1_1utils.html#a123e0fd8ab6a3a44b941fff19ae25834" target="_top" xlink:title=" ">
<polygon fill="white" stroke="#666666" points="1085.5,-595 930.5,-595 930.5,-554 1085.5,-554 1085.5,-595"/>
<text text-anchor="start" x="938.5" y="-583" font-family="Helvetica,sans-Serif" font-size="10.00">wmtk::operations::utils</text>
<text text-anchor="start" x="938.5" y="-572" font-family="Helvetica,sans-Serif" font-size="10.00">::multi_mesh_edge_collapse</text>
<text text-anchor="middle" x="1008" y="-561" font-family="Helvetica,sans-Serif" font-size="10.00">_with_modified_simplices</text>
</a>
</g>
</g>
<!-- Node1&#45;&gt;Node22 -->
<g id="edge23_Node000001_Node000022" class="edge">
<title>Node1&#45;&gt;Node22</title>
<g id="a_edge23_Node000001_Node000022"><a xlink:title=" ">
<path fill="none" stroke="#63b8ff" d="M1157.82,-528.29C1141.23,-533.67 1121.69,-539.95 1104,-545.5 1095.2,-548.26 1085.93,-551.14 1076.76,-553.96"/>
<polygon fill="#63b8ff" stroke="#63b8ff" points="1159.29,-531.49 1167.72,-525.08 1157.13,-524.84 1159.29,-531.49"/>
</a>
</g>
</g>
<!-- Node24 -->
<g id="Node000024" class="node">
<title>Node24</title>
<g id="a_Node000024"><a xlink:href="namespacewmtk_1_1operations_1_1utils.html#a3e79c22eaaba0353e301ffcc93ad6ed5" target="_top" xlink:title=" ">
<polygon fill="white" stroke="#666666" points="1079.5,-536 936.5,-536 936.5,-495 1079.5,-495 1079.5,-536"/>
<text text-anchor="start" x="944.5" y="-524" font-family="Helvetica,sans-Serif" font-size="10.00">wmtk::operations::utils</text>
<text text-anchor="start" x="944.5" y="-513" font-family="Helvetica,sans-Serif" font-size="10.00">::multi_mesh_edge_split</text>
<text text-anchor="middle" x="1008" y="-502" font-family="Helvetica,sans-Serif" font-size="10.00">_with_modified_simplices</text>
</a>
</g>
</g>
<!-- Node1&#45;&gt;Node24 -->
<g id="edge25_Node000001_Node000024" class="edge">
<title>Node1&#45;&gt;Node24</title>
<g id="a_edge25_Node000001_Node000024"><a xlink:title=" ">
<path fill="none" stroke="#63b8ff" d="M1129.37,-515.5C1113.17,-515.5 1095.84,-515.5 1079.51,-515.5"/>
<polygon fill="#63b8ff" stroke="#63b8ff" points="1129.83,-519 1139.83,-515.5 1129.83,-512 1129.83,-519"/>
</a>
</g>
</g>
<!-- Node26 -->
<g id="Node000026" class="node">
<title>Node26</title>
<g id="a_Node000026"><a xlink:href="classwmtk_1_1operations_1_1tet__mesh_1_1_edge_operation_data.html#a14e1d489352ad273f9d2205ea438e8b2" target="_top" xlink:title=" ">
<polygon fill="white" stroke="#666666" points="1083,-477 933,-477 933,-436 1083,-436 1083,-477"/>
<text text-anchor="start" x="941" y="-465" font-family="Helvetica,sans-Serif" font-size="10.00">wmtk::operations::tet</text>
<text text-anchor="start" x="941" y="-454" font-family="Helvetica,sans-Serif" font-size="10.00">_mesh::EdgeOperationData</text>
<text text-anchor="middle" x="1008" y="-443" font-family="Helvetica,sans-Serif" font-size="10.00">::new_vertices</text>
</a>
</g>
</g>
<!-- Node1&#45;&gt;Node26 -->
<g id="edge27_Node000001_Node000026" class="edge">
<title>Node1&#45;&gt;Node26</title>
<g id="a_edge27_Node000001_Node000026"><a xlink:title=" ">
<path fill="none" stroke="#63b8ff" d="M1156.61,-502.82C1132.75,-495.34 1101.97,-485.68 1074.7,-477.12"/>
<polygon fill="#63b8ff" stroke="#63b8ff" points="1155.79,-506.23 1166.38,-505.89 1157.88,-499.56 1155.79,-506.23"/>
</a>
</g>
</g>
<!-- Node27 -->
<g id="Node000027" class="node">
<title>Node27</title>
<g id="a_Node000027"><a xlink:href="classwmtk_1_1operations_1_1tri__mesh_1_1_edge_operation_data.html#a38257053d489d0dd4fdb6fccaa9569bb" target="_top" xlink:title=" ">
<polygon fill="white" stroke="#666666" points="1083,-418 933,-418 933,-377 1083,-377 1083,-418"/>
<text text-anchor="start" x="941" y="-406" font-family="Helvetica,sans-Serif" font-size="10.00">wmtk::operations::tri</text>
<text text-anchor="start" x="941" y="-395" font-family="Helvetica,sans-Serif" font-size="10.00">_mesh::EdgeOperationData</text>
<text text-anchor="middle" x="1008" y="-384" font-family="Helvetica,sans-Serif" font-size="10.00">::new_vertices</text>
</a>
</g>
</g>
<!-- Node1&#45;&gt;Node27 -->
<g id="edge28_Node000001_Node000027" class="edge">
<title>Node1&#45;&gt;Node27</title>
<g id="a_edge28_Node000001_Node000027"><a xlink:title=" ">
<path fill="none" stroke="#63b8ff" d="M1182.77,-497.9C1165.91,-478.13 1136.04,-446.35 1104,-427.5 1097.44,-423.64 1090.33,-420.22 1083.05,-417.21"/>
<polygon fill="#63b8ff" stroke="#63b8ff" points="1180.27,-500.37 1189.37,-505.81 1185.65,-495.89 1180.27,-500.37"/>
</a>
</g>
</g>
<!-- Node28 -->
<g id="Node000028" class="node">
<title>Node28</title>
<g id="a_Node000028"><a xlink:href="classwmtk_1_1operations_1_1edge__mesh_1_1_edge_operation_data.html#aafff3cd3190413db4c3a2a7347cf64c5" target="_top" xlink:title=" ">
<polygon fill="white" stroke="#666666" points="1083,-359 933,-359 933,-318 1083,-318 1083,-359"/>
<text text-anchor="start" x="941" y="-347" font-family="Helvetica,sans-Serif" font-size="10.00">wmtk::operations::edge</text>
<text text-anchor="start" x="941" y="-336" font-family="Helvetica,sans-Serif" font-size="10.00">_mesh::EdgeOperationData</text>
<text text-anchor="middle" x="1008" y="-325" font-family="Helvetica,sans-Serif" font-size="10.00">::new_vertices</text>
</a>
</g>
</g>
<!-- Node1&#45;&gt;Node28 -->
<g id="edge29_Node000001_Node000028" class="edge">
<title>Node1&#45;&gt;Node28</title>
<g id="a_edge29_Node000001_Node000028"><a xlink:title=" ">
<path fill="none" stroke="#63b8ff" d="M1189.94,-496.26C1177.45,-464.89 1148.52,-402.79 1104,-368.5 1097.7,-363.65 1090.59,-359.57 1083.18,-356.14"/>
<polygon fill="#63b8ff" stroke="#63b8ff" points="1186.82,-497.89 1193.67,-505.98 1193.35,-495.39 1186.82,-497.89"/>
</a>
</g>
</g>
<!-- Node29 -->
<g id="Node000029" class="node">
<title>Node29</title>
<g id="a_Node000029"><a xlink:href="classwmtk_1_1operations_1_1edge__mesh_1_1_split_new_attribute_topo_info.html#aca5fe41ad49eaa2a67cc796c16d1f8d1" target="_top" xlink:title=" ">
<polygon fill="white" stroke="#666666" points="1090,-299.5 926,-299.5 926,-247.5 1090,-247.5 1090,-299.5"/>
<text text-anchor="start" x="934" y="-287.5" font-family="Helvetica,sans-Serif" font-size="10.00">wmtk::operations::edge</text>
<text text-anchor="start" x="934" y="-276.5" font-family="Helvetica,sans-Serif" font-size="10.00">_mesh::SplitNewAttributeTopo</text>
<text text-anchor="start" x="934" y="-265.5" font-family="Helvetica,sans-Serif" font-size="10.00">Info::output_duplicated_free</text>
<text text-anchor="middle" x="1008" y="-254.5" font-family="Helvetica,sans-Serif" font-size="10.00">_simplices</text>
</a>
</g>
</g>
<!-- Node1&#45;&gt;Node29 -->
<g id="edge30_Node000001_Node000029" class="edge">
<title>Node1&#45;&gt;Node29</title>
<g id="a_edge30_Node000001_Node000029"><a xlink:title=" ">
<path fill="none" stroke="#63b8ff" d="M1193.37,-495.86C1184.91,-455.44 1160.19,-362.32 1104,-309.5 1099.76,-305.51 1095.03,-301.96 1090.02,-298.78"/>
<polygon fill="#63b8ff" stroke="#63b8ff" points="1189.96,-496.66 1195.34,-505.79 1196.83,-495.3 1189.96,-496.66"/>
</a>
</g>
</g>
<!-- Node30 -->
<g id="Node000030" class="node">
<title>Node30</title>
<g id="a_Node000030"><a xlink:href="classwmtk_1_1operations_1_1tet__mesh_1_1_split_new_attribute_topo_info.html#a403432505d92a55636997308d5e7d7f7" target="_top" xlink:title=" ">
<polygon fill="white" stroke="#666666" points="1090,-229.5 926,-229.5 926,-177.5 1090,-177.5 1090,-229.5"/>
<text text-anchor="start" x="934" y="-217.5" font-family="Helvetica,sans-Serif" font-size="10.00">wmtk::operations::tet</text>
<text text-anchor="start" x="934" y="-206.5" font-family="Helvetica,sans-Serif" font-size="10.00">_mesh::SplitNewAttributeTopo</text>
<text text-anchor="start" x="934" y="-195.5" font-family="Helvetica,sans-Serif" font-size="10.00">Info::output_duplicated_free</text>
<text text-anchor="middle" x="1008" y="-184.5" font-family="Helvetica,sans-Serif" font-size="10.00">_simplices</text>
</a>
</g>
</g>
<!-- Node1&#45;&gt;Node30 -->
<g id="edge31_Node000001_Node000030" class="edge">
<title>Node1&#45;&gt;Node30</title>
<g id="a_edge31_Node000001_Node000030"><a xlink:title=" ">
<path fill="none" stroke="#63b8ff" d="M1196.03,-495.8C1192.51,-445.89 1176.47,-313.11 1104,-238.5 1099.84,-234.21 1095.1,-230.45 1090.02,-227.14"/>
<polygon fill="#63b8ff" stroke="#63b8ff" points="1192.54,-496.12 1196.64,-505.89 1199.53,-495.7 1192.54,-496.12"/>
</a>
</g>
</g>
<!-- Node31 -->
<g id="Node000031" class="node">
<title>Node31</title>
<g id="a_Node000031"><a xlink:href="classwmtk_1_1operations_1_1tri__mesh_1_1_split_new_attribute_topo_info.html#a576a0ef6d41ffe904a494e8329fd956a" target="_top" xlink:title=" ">
<polygon fill="white" stroke="#666666" points="1090,-159.5 926,-159.5 926,-107.5 1090,-107.5 1090,-159.5"/>
<text text-anchor="start" x="934" y="-147.5" font-family="Helvetica,sans-Serif" font-size="10.00">wmtk::operations::tri</text>
<text text-anchor="start" x="934" y="-136.5" font-family="Helvetica,sans-Serif" font-size="10.00">_mesh::SplitNewAttributeTopo</text>
<text text-anchor="start" x="934" y="-125.5" font-family="Helvetica,sans-Serif" font-size="10.00">Info::output_duplicated_free</text>
<text text-anchor="middle" x="1008" y="-114.5" font-family="Helvetica,sans-Serif" font-size="10.00">_simplices</text>
</a>
</g>
</g>
<!-- Node1&#45;&gt;Node31 -->
<g id="edge32_Node000001_Node000031" class="edge">
<title>Node1&#45;&gt;Node31</title>
<g id="a_edge32_Node000001_Node000031"><a xlink:title=" ">
<path fill="none" stroke="#63b8ff" d="M1197.62,-495.68C1198.34,-437.53 1192.5,-265.45 1104,-168.5 1099.97,-164.09 1095.34,-160.23 1090.33,-156.85"/>
<polygon fill="#63b8ff" stroke="#63b8ff" points="1194.12,-495.66 1197.41,-505.73 1201.12,-495.8 1194.12,-495.66"/>
</a>
</g>
</g>
<!-- Node32 -->
<g id="Node000032" class="node">
<title>Node32</title>
<g id="a_Node000032"><a xlink:href="classwmtk_1_1operations_1_1_edge_collapse.html#af3e4b2eb2fa46a1475340c72f449ce9d" target="_top" xlink:title=" ">
<polygon fill="white" stroke="#666666" points="1095,-89.5 921,-89.5 921,-59.5 1095,-59.5 1095,-89.5"/>
<text text-anchor="start" x="929" y="-77.5" font-family="Helvetica,sans-Serif" font-size="10.00">wmtk::operations::EdgeCollapse</text>
<text text-anchor="middle" x="1008" y="-66.5" font-family="Helvetica,sans-Serif" font-size="10.00">::set_new_attribute_strategy</text>
</a>
</g>
</g>
<!-- Node1&#45;&gt;Node32 -->
<g id="edge33_Node000001_Node000032" class="edge">
<title>Node1&#45;&gt;Node32</title>
<g id="a_edge33_Node000001_Node000032"><a xlink:title=" ">
<path fill="none" stroke="#63b8ff" d="M1195.26,-495.32C1188.37,-420.01 1160.57,-156.68 1104,-98.5 1100.68,-95.09 1096.95,-92.13 1092.94,-89.58"/>
<polygon fill="#63b8ff" stroke="#63b8ff" points="1191.82,-496.09 1196.19,-505.74 1198.79,-495.47 1191.82,-496.09"/>
</a>
</g>
</g>
<!-- Node39 -->
<g id="Node000039" class="node">
<title>Node39</title>
<g id="a_Node000039"><a xlink:href="classwmtk_1_1operations_1_1_split_new_attribute_strategy.html#aa54d76c92c262b3957a5a13a2efdaf12" target="_top" xlink:title=" ">
<polygon fill="white" stroke="#666666" points="1104,-41 912,-41 912,0 1104,0 1104,-41"/>
<text text-anchor="start" x="920" y="-29" font-family="Helvetica,sans-Serif" font-size="10.00">wmtk::operations::SplitNew</text>
<text text-anchor="start" x="920" y="-18" font-family="Helvetica,sans-Serif" font-size="10.00">AttributeStrategy::SplitNewAttribute</text>
<text text-anchor="middle" x="1008" y="-7" font-family="Helvetica,sans-Serif" font-size="10.00">Strategy</text>
</a>
</g>
</g>
<!-- Node1&#45;&gt;Node39 -->
<g id="edge40_Node000001_Node000039" class="edge">
<title>Node1&#45;&gt;Node39</title>
<g id="a_edge40_Node000001_Node000039"><a xlink:title=" ">
<path fill="none" stroke="#63b8ff" d="M1195.68,-495.73C1189.95,-415.9 1164.78,-118.26 1104,-50.5 1100.88,-47.02 1097.36,-43.95 1093.57,-41.22"/>
<polygon fill="#63b8ff" stroke="#63b8ff" points="1192.2,-496.15 1196.38,-505.88 1199.18,-495.66 1192.2,-496.15"/>
</a>
</g>
</g>
<!-- Node6&#45;&gt;Node6 -->
<g id="edge17_Node000006_Node000006" class="edge">
<title>Node6&#45;&gt;Node6</title>
<g id="a_edge17_Node000006_Node000006"><a xlink:title=" ">
<path fill="none" stroke="#63b8ff" d="M1043.61,-714.07C1043.09,-719.62 1031.22,-724 1008,-724 974.23,-724 964.47,-714.73 978.72,-706.08"/>
<polygon fill="#63b8ff" stroke="#63b8ff" points="1046.23,-711.75 1037.28,-706.08 1040.75,-716.1 1046.23,-711.75"/>
</a>
</g>
</g>
<!-- Node7 -->
<g id="Node000007" class="node">
<title>Node7</title>
<g id="a_Node000007"><a xlink:href="classwmtk_1_1components_1_1internal_1_1_multi_mesh_from_tag.html#a96647e9413f2b7e13dd17f02cf29b12d" target="_top" xlink:title="Create a manifold mesh from the substructure.">
<polygon fill="white" stroke="#666666" points="476,-713 312,-713 312,-672 476,-672 476,-713"/>
<text text-anchor="start" x="320" y="-701" font-family="Helvetica,sans-Serif" font-size="10.00">wmtk::components::internal</text>
<text text-anchor="start" x="320" y="-690" font-family="Helvetica,sans-Serif" font-size="10.00">::MultiMeshFromTag::compute</text>
<text text-anchor="middle" x="394" y="-679" font-family="Helvetica,sans-Serif" font-size="10.00">_substructure_mesh</text>
</a>
</g>
</g>
<!-- Node6&#45;&gt;Node7 -->
<g id="edge6_Node000006_Node000007" class="edge">
<title>Node6&#45;&gt;Node7</title>
<g id="a_edge6_Node000006_Node000007"><a xlink:title=" ">
<path fill="none" stroke="#63b8ff" d="M923,-698.36C824.51,-700.18 656.37,-702.2 512,-698.5 500.41,-698.2 488.18,-697.74 476.17,-697.2"/>
<polygon fill="#63b8ff" stroke="#63b8ff" points="923.25,-701.85 933.19,-698.16 923.12,-694.85 923.25,-701.85"/>
</a>
</g>
</g>
<!-- Node18 -->
<g id="Node000018" class="node">
<title>Node18</title>
<g id="a_Node000018"><a xlink:href="classwmtk_1_1_edge_mesh.html#a5fc396537aa183d59d555e66aa8d1e70" target="_top" xlink:title=" ">
<polygon fill="white" stroke="#666666" points="875.5,-684 702.5,-684 702.5,-665 875.5,-665 875.5,-684"/>
<text text-anchor="middle" x="789" y="-672" font-family="Helvetica,sans-Serif" font-size="10.00">wmtk::EdgeMesh::initialize_free</text>
</a>
</g>
</g>
<!-- Node6&#45;&gt;Node18 -->
<g id="edge18_Node000006_Node000018" class="edge">
<title>Node6&#45;&gt;Node18</title>
<g id="a_edge18_Node000006_Node000018"><a xlink:title=" ">
<path fill="none" stroke="#63b8ff" d="M923.1,-687.99C907.5,-686.41 891.18,-684.76 875.53,-683.17"/>
<polygon fill="#63b8ff" stroke="#63b8ff" points="922.93,-691.49 933.23,-689.02 923.63,-684.53 922.93,-691.49"/>
</a>
</g>
</g>
<!-- Node8 -->
<g id="Node000008" class="node">
<title>Node8</title>
<g id="a_Node000008"><a xlink:href="namespacewmtk_1_1components.html#ac309092566399cef68679a1bb8107d1e" target="_top" xlink:title="Generate a multi&#45;mesh from a mesh with a tag that represents the substructure, the mesh is changed.">
<polygon fill="white" stroke="#666666" points="276,-872.5 107,-872.5 107,-842.5 276,-842.5 276,-872.5"/>
<text text-anchor="start" x="115" y="-860.5" font-family="Helvetica,sans-Serif" font-size="10.00">wmtk::components::multimesh</text>
<text text-anchor="middle" x="191.5" y="-849.5" font-family="Helvetica,sans-Serif" font-size="10.00">_from_tag</text>
</a>
</g>
</g>
<!-- Node7&#45;&gt;Node8 -->
<g id="edge7_Node000007_Node000008" class="edge">
<title>Node7&#45;&gt;Node8</title>
<g id="a_edge7_Node000007_Node000008"><a xlink:title=" ">
<path fill="none" stroke="#63b8ff" d="M376.05,-722.02C356.12,-754.11 320.1,-804.67 276,-833.5 270.7,-836.97 264.89,-839.94 258.88,-842.49"/>
<polygon fill="#63b8ff" stroke="#63b8ff" points="379.27,-723.46 381.47,-713.09 373.29,-719.82 379.27,-723.46"/>
</a>
</g>
</g>
<!-- Node10 -->
<g id="Node000010" class="node">
<title>Node10</title>
<g id="a_Node000010"><a xlink:href="namespacewmtk_1_1components.html#a4166e4880553cfacbf79ac3515a637cd" target="_top" xlink:title=" ">
<polygon fill="white" stroke="#666666" points="269,-824.5 114,-824.5 114,-794.5 269,-794.5 269,-824.5"/>
<text text-anchor="start" x="122" y="-812.5" font-family="Helvetica,sans-Serif" font-size="10.00">wmtk::components::periodic</text>
<text text-anchor="middle" x="191.5" y="-801.5" font-family="Helvetica,sans-Serif" font-size="10.00">_optimization</text>
</a>
</g>
</g>
<!-- Node7&#45;&gt;Node10 -->
<g id="edge9_Node000007_Node000010" class="edge">
<title>Node7&#45;&gt;Node10</title>
<g id="a_edge9_Node000007_Node000010"><a xlink:title=" ">
<path fill="none" stroke="#63b8ff" d="M364.91,-720.11C342.5,-740.75 309.43,-768.28 276,-785.5 269.43,-788.89 262.32,-791.85 255.11,-794.44"/>
<polygon fill="#63b8ff" stroke="#63b8ff" points="367.47,-722.51 372.37,-713.12 362.68,-717.4 367.47,-722.51"/>
</a>
</g>
</g>
<!-- Node11 -->
<g id="Node000011" class="node">
<title>Node11</title>
<g id="a_Node000011"><a xlink:href="test__component__multimesh__from__tag_8cpp.html#a2231774bf0d53fb5f6c1b34753afb255" target="_top" xlink:title=" ">
<polygon fill="white" stroke="#666666" points="227,-776 156,-776 156,-757 227,-757 227,-776"/>
<text text-anchor="middle" x="191.5" y="-764" font-family="Helvetica,sans-Serif" font-size="10.00">TEST_CASE</text>
</a>
</g>
</g>
<!-- Node7&#45;&gt;Node11 -->
<g id="edge10_Node000007_Node000011" class="edge">
<title>Node7&#45;&gt;Node11</title>
<g id="a_edge10_Node000007_Node000011"><a xlink:title=" ">
<path fill="none" stroke="#63b8ff" d="M346.7,-717.75C325.61,-728.43 300.04,-740.28 276,-748.5 260.28,-753.87 242.34,-757.99 227.12,-760.92"/>
<polygon fill="#63b8ff" stroke="#63b8ff" points="348.45,-720.78 355.74,-713.1 345.25,-714.56 348.45,-720.78"/>
</a>
</g>
</g>
<!-- Node12 -->
<g id="Node000012" class="node">
<title>Node12</title>
<g id="a_Node000012"><a xlink:href="test__component__multimesh__from__tag_8cpp.html#a9a31cb828b93e2ddcf0a5063d4d1c9e6" target="_top" xlink:title=" ">
<polygon fill="white" stroke="#666666" points="227,-739 156,-739 156,-720 227,-720 227,-739"/>
<text text-anchor="middle" x="191.5" y="-727" font-family="Helvetica,sans-Serif" font-size="10.00">TEST_CASE</text>
</a>
</g>
</g>
<!-- Node7&#45;&gt;Node12 -->
<g id="edge11_Node000007_Node000012" class="edge">
<title>Node7&#45;&gt;Node12</title>
<g id="a_edge11_Node000007_Node000012"><a xlink:title=" ">
<path fill="none" stroke="#63b8ff" d="M301.63,-709.36C275.11,-714.25 247.76,-719.3 227.07,-723.12"/>
<polygon fill="#63b8ff" stroke="#63b8ff" points="302.54,-712.75 311.74,-707.5 301.27,-705.87 302.54,-712.75"/>
</a>
</g>
</g>
<!-- Node13 -->
<g id="Node000013" class="node">
<title>Node13</title>
<g id="a_Node000013"><a xlink:href="test__component__multimesh__from__tag_8cpp.html#a7a8f66a094907f369fa10876691f42f9" target="_top" xlink:title=" ">
<polygon fill="white" stroke="#666666" points="227,-702 156,-702 156,-683 227,-683 227,-702"/>
<text text-anchor="middle" x="191.5" y="-690" font-family="Helvetica,sans-Serif" font-size="10.00">TEST_CASE</text>
</a>
</g>
</g>
<!-- Node7&#45;&gt;Node13 -->
<g id="edge12_Node000007_Node000013" class="edge">
<title>Node7&#45;&gt;Node13</title>
<g id="a_edge12_Node000007_Node000013"><a xlink:title=" ">
<path fill="none" stroke="#63b8ff" d="M301.63,-692.5C275.11,-692.5 247.76,-692.5 227.07,-692.5"/>
<polygon fill="#63b8ff" stroke="#63b8ff" points="301.74,-696 311.74,-692.5 301.74,-689 301.74,-696"/>
</a>
</g>
</g>
<!-- Node14 -->
<g id="Node000014" class="node">
<title>Node14</title>
<g id="a_Node000014"><a xlink:href="test__component__multimesh__from__tag_8cpp.html#af55ce8249624ce4d6a3feaad760949a6" target="_top" xlink:title=" ">
<polygon fill="white" stroke="#666666" points="227,-665 156,-665 156,-646 227,-646 227,-665"/>
<text text-anchor="middle" x="191.5" y="-653" font-family="Helvetica,sans-Serif" font-size="10.00">TEST_CASE</text>
</a>
</g>
</g>
<!-- Node7&#45;&gt;Node14 -->
<g id="edge13_Node000007_Node000014" class="edge">
<title>Node7&#45;&gt;Node14</title>
<g id="a_edge13_Node000007_Node000014"><a xlink:title=" ">
<path fill="none" stroke="#63b8ff" d="M301.63,-675.64C275.11,-670.75 247.76,-665.7 227.07,-661.88"/>
<polygon fill="#63b8ff" stroke="#63b8ff" points="301.27,-679.13 311.74,-677.5 302.54,-672.25 301.27,-679.13"/>
</a>
</g>
</g>
<!-- Node15 -->
<g id="Node000015" class="node">
<title>Node15</title>
<g id="a_Node000015"><a xlink:href="test__component__multimesh__from__tag_8cpp.html#a18cd3d411cfadc472201c20662d62869" target="_top" xlink:title=" ">
<polygon fill="white" stroke="#666666" points="227,-628 156,-628 156,-609 227,-609 227,-628"/>
<text text-anchor="middle" x="191.5" y="-616" font-family="Helvetica,sans-Serif" font-size="10.00">TEST_CASE</text>
</a>
</g>
</g>
<!-- Node7&#45;&gt;Node15 -->
<g id="edge14_Node000007_Node000015" class="edge">
<title>Node7&#45;&gt;Node15</title>
<g id="a_edge14_Node000007_Node000015"><a xlink:title=" ">
<path fill="none" stroke="#63b8ff" d="M345.62,-667.38C324.71,-657.04 299.57,-645.62 276,-637.5 260.26,-632.08 242.31,-627.77 227.09,-624.63"/>
<polygon fill="#63b8ff" stroke="#63b8ff" points="344.1,-670.53 354.61,-671.88 347.24,-664.27 344.1,-670.53"/>
</a>
</g>
</g>
<!-- Node16 -->
<g id="Node000016" class="node">
<title>Node16</title>
<g id="a_Node000016"><a xlink:href="test__component__multimesh__from__tag_8cpp.html#a4caad3dd8a6355f2ca66fdb0b0af7999" target="_top" xlink:title=" ">
<polygon fill="white" stroke="#666666" points="227,-591 156,-591 156,-572 227,-572 227,-591"/>
<text text-anchor="middle" x="191.5" y="-579" font-family="Helvetica,sans-Serif" font-size="10.00">TEST_CASE</text>
</a>
</g>
</g>
<!-- Node7&#45;&gt;Node16 -->
<g id="edge15_Node000007_Node000016" class="edge">
<title>Node7&#45;&gt;Node16</title>
<g id="a_edge15_Node000007_Node000016"><a xlink:title=" ">
<path fill="none" stroke="#63b8ff" d="M365.12,-664.67C342.82,-643.97 309.8,-616.62 276,-600.5 260.84,-593.27 242.79,-588.72 227.36,-585.89"/>
<polygon fill="#63b8ff" stroke="#63b8ff" points="362.87,-667.36 372.54,-671.69 367.68,-662.27 362.87,-667.36"/>
</a>
</g>
</g>
<!-- Node17 -->
<g id="Node000017" class="node">
<title>Node17</title>
<g id="a_Node000017"><a xlink:href="namespacewmtk_1_1components.html#a9d6d11e3b7ba03911492ecfc79622247" target="_top" xlink:title=" ">
<polygon fill="white" stroke="#666666" points="268.5,-553.5 114.5,-553.5 114.5,-523.5 268.5,-523.5 268.5,-553.5"/>
<text text-anchor="start" x="122.5" y="-541.5" font-family="Helvetica,sans-Serif" font-size="10.00">wmtk::components::triangle</text>
<text text-anchor="middle" x="191.5" y="-530.5" font-family="Helvetica,sans-Serif" font-size="10.00">_insertion</text>
</a>
</g>
</g>
<!-- Node7&#45;&gt;Node17 -->
<g id="edge16_Node000007_Node000017" class="edge">
<title>Node7&#45;&gt;Node17</title>
<g id="a_edge16_Node000007_Node000017"><a xlink:title=" ">
<path fill="none" stroke="#63b8ff" d="M373.75,-663.29C352.98,-633.96 317.26,-589.51 276,-563.5 269.86,-559.63 263.08,-556.33 256.13,-553.52"/>
<polygon fill="#63b8ff" stroke="#63b8ff" points="371.13,-665.65 379.71,-671.86 376.88,-661.65 371.13,-665.65"/>
</a>
</g>
</g>
<!-- Node9 -->
<g id="Node000009" class="node">
<title>Node9</title>
<g id="a_Node000009"><a xlink:href="test__component__multimesh__from__tag_8cpp.html#a2b0208caf4b963a36a43604c3e7cf34a" target="_top" xlink:title=" ">
<polygon fill="white" stroke="#666666" points="71,-867 0,-867 0,-848 71,-848 71,-867"/>
<text text-anchor="middle" x="35.5" y="-855" font-family="Helvetica,sans-Serif" font-size="10.00">TEST_CASE</text>
</a>
</g>
</g>
<!-- Node8&#45;&gt;Node9 -->
<g id="edge8_Node000008_Node000009" class="edge">
<title>Node8&#45;&gt;Node9</title>
<g id="a_edge8_Node000008_Node000009"><a xlink:title=" ">
<path fill="none" stroke="#63b8ff" d="M96.52,-857.5C87.57,-857.5 78.93,-857.5 71.14,-857.5"/>
<polygon fill="#63b8ff" stroke="#63b8ff" points="96.74,-861 106.74,-857.5 96.74,-854 96.74,-861"/>
</a>
</g>
</g>
<!-- Node19 -->
<g id="Node000019" class="node">
<title>Node19</title>
<g id="a_Node000019"><a xlink:href="classwmtk_1_1components_1_1internal_1_1_multi_mesh_from_tag.html#ad18667b876fc81c8cfb79a408d632b25" target="_top" xlink:title="Create a multimesh where the child&#45;mesh is just a soup (no connectivity) of m_mesh.">
<polygon fill="white" stroke="#666666" points="666,-689 512,-689 512,-648 666,-648 666,-689"/>
<text text-anchor="start" x="520" y="-677" font-family="Helvetica,sans-Serif" font-size="10.00">wmtk::components::internal</text>
<text text-anchor="start" x="520" y="-666" font-family="Helvetica,sans-Serif" font-size="10.00">::MultiMeshFromTag::create</text>
<text text-anchor="middle" x="589" y="-655" font-family="Helvetica,sans-Serif" font-size="10.00">_substructure_soup</text>
</a>
</g>
</g>
<!-- Node18&#45;&gt;Node19 -->
<g id="edge19_Node000018_Node000019" class="edge">
<title>Node18&#45;&gt;Node19</title>
<g id="a_edge19_Node000018_Node000019"><a xlink:title=" ">
<path fill="none" stroke="#63b8ff" d="M692.12,-671.59C683.41,-671.33 674.67,-671.07 666.17,-670.81"/>
<polygon fill="#63b8ff" stroke="#63b8ff" points="692.2,-675.1 702.31,-671.9 692.42,-668.1 692.2,-675.1"/>
</a>
</g>
</g>
<!-- Node19&#45;&gt;Node7 -->
<g id="edge20_Node000019_Node000007" class="edge">
<title>Node19&#45;&gt;Node7</title>
<g id="a_edge20_Node000019_Node000007"><a xlink:title=" ">
<path fill="none" stroke="#63b8ff" d="M501.94,-679.2C493.32,-680.27 484.59,-681.36 476.02,-682.43"/>
<polygon fill="#63b8ff" stroke="#63b8ff" points="502.51,-682.66 512,-677.95 501.64,-675.71 502.51,-682.66"/>
</a>
</g>
</g>
<!-- Node23 -->
<g id="Node000023" class="node">
<title>Node23</title>
<g id="a_Node000023"><a xlink:href="classwmtk_1_1operations_1_1_edge_collapse.html#a8d52e8ef34eb9d5b32c8d290270fe5d3" target="_top" xlink:title="returns an empty vector in case of failure">
<polygon fill="white" stroke="#666666" points="876,-589.5 702,-589.5 702,-559.5 876,-559.5 876,-589.5"/>
<text text-anchor="start" x="710" y="-577.5" font-family="Helvetica,sans-Serif" font-size="10.00">wmtk::operations::EdgeCollapse</text>
<text text-anchor="middle" x="789" y="-566.5" font-family="Helvetica,sans-Serif" font-size="10.00">::execute</text>
</a>
</g>
</g>
<!-- Node22&#45;&gt;Node23 -->
<g id="edge24_Node000022_Node000023" class="edge">
<title>Node22&#45;&gt;Node23</title>
<g id="a_edge24_Node000022_Node000023"><a xlink:title=" ">
<path fill="none" stroke="#63b8ff" d="M920.07,-574.5C905.61,-574.5 890.62,-574.5 876.17,-574.5"/>
<polygon fill="#63b8ff" stroke="#63b8ff" points="920.49,-578 930.49,-574.5 920.49,-571 920.49,-578"/>
</a>
</g>
</g>
<!-- Node25 -->
<g id="Node000025" class="node">
<title>Node25</title>
<g id="a_Node000025"><a xlink:href="classwmtk_1_1operations_1_1_edge_split.html#acf2afde09bd19955800804d11f7dfc2b" target="_top" xlink:title=" ">
<polygon fill="white" stroke="#666666" points="866,-530.5 712,-530.5 712,-500.5 866,-500.5 866,-530.5"/>
<text text-anchor="start" x="720" y="-518.5" font-family="Helvetica,sans-Serif" font-size="10.00">wmtk::operations::EdgeSplit</text>
<text text-anchor="middle" x="789" y="-507.5" font-family="Helvetica,sans-Serif" font-size="10.00">::execute</text>
</a>
</g>
</g>
<!-- Node24&#45;&gt;Node25 -->
<g id="edge26_Node000024_Node000025" class="edge">
<title>Node24&#45;&gt;Node25</title>
<g id="a_edge26_Node000024_Node000025"><a xlink:title=" ">
<path fill="none" stroke="#63b8ff" d="M926.13,-515.5C906.53,-515.5 885.65,-515.5 866.27,-515.5"/>
<polygon fill="#63b8ff" stroke="#63b8ff" points="926.25,-519 936.25,-515.5 926.25,-512 926.25,-519"/>
</a>
</g>
</g>
<!-- Node33 -->
<g id="Node000033" class="node">
<title>Node33</title>
<g id="a_Node000033"><a xlink:href="classwmtk_1_1operations_1_1_attribute_transfer_configuration.html#a2b24abc964e31f0c9c520d3a9e17904c" target="_top" xlink:title=" ">
<polygon fill="white" stroke="#666666" points="866,-137.5 712,-137.5 712,-107.5 866,-107.5 866,-137.5"/>
<text text-anchor="start" x="720" y="-125.5" font-family="Helvetica,sans-Serif" font-size="10.00">wmtk::operations::Attribute</text>
<text text-anchor="middle" x="789" y="-114.5" font-family="Helvetica,sans-Serif" font-size="10.00">TransferConfiguration::apply</text>
</a>
</g>
</g>
<!-- Node32&#45;&gt;Node33 -->
<g id="edge34_Node000032_Node000033" class="edge">
<title>Node32&#45;&gt;Node33</title>
<g id="a_edge34_Node000032_Node000033"><a xlink:title=" ">
<path fill="none" stroke="#63b8ff" d="M929.09,-91.73C905.78,-96.89 880.43,-102.5 857.82,-107.5"/>
<polygon fill="#63b8ff" stroke="#63b8ff" points="929.93,-95.13 938.94,-89.56 928.42,-88.3 929.93,-95.13"/>
</a>
</g>
</g>
<!-- Node34 -->
<g id="Node000034" class="node">
<title>Node34</title>
<g id="a_Node000034"><a xlink:href="classwmtk_1_1components_1_1internal_1_1_regular_space.html#af9adef544fff10ba9257d128fd13393c" target="_top" xlink:title=" ">
<polygon fill="white" stroke="#666666" points="874,-89.5 704,-89.5 704,-59.5 874,-59.5 874,-89.5"/>
<text text-anchor="start" x="712" y="-77.5" font-family="Helvetica,sans-Serif" font-size="10.00">wmtk::components::internal</text>
<text text-anchor="middle" x="789" y="-66.5" font-family="Helvetica,sans-Serif" font-size="10.00">::RegularSpace::regularize_tags</text>
</a>
</g>
</g>
<!-- Node32&#45;&gt;Node34 -->
<g id="edge35_Node000032_Node000034" class="edge">
<title>Node32&#45;&gt;Node34</title>
<g id="a_edge35_Node000032_Node000034"><a xlink:title=" ">
<path fill="none" stroke="#63b8ff" d="M910.75,-74.5C898.57,-74.5 886.18,-74.5 874.2,-74.5"/>
<polygon fill="#63b8ff" stroke="#63b8ff" points="910.92,-78 920.92,-74.5 910.92,-71 910.92,-78"/>
</a>
</g>
</g>
<!-- Node38 -->
<g id="Node000038" class="node">
<title>Node38</title>
<g id="a_Node000038"><a xlink:href="classwmtk_1_1operations_1_1_edge_collapse.html#a31e2fd32feacd5705864bda83c55c188" target="_top" xlink:title=" ">
<polygon fill="white" stroke="#666666" points="876,-41.5 702,-41.5 702,-11.5 876,-11.5 876,-41.5"/>
<text text-anchor="start" x="710" y="-29.5" font-family="Helvetica,sans-Serif" font-size="10.00">wmtk::operations::EdgeCollapse</text>
<text text-anchor="middle" x="789" y="-18.5" font-family="Helvetica,sans-Serif" font-size="10.00">::set_new_attribute_strategy</text>
</a>
</g>
</g>
<!-- Node32&#45;&gt;Node38 -->
<g id="edge39_Node000032_Node000038" class="edge">
<title>Node32&#45;&gt;Node38</title>
<g id="a_edge39_Node000032_Node000038"><a xlink:title=" ">
<path fill="none" stroke="#63b8ff" d="M929.09,-57.27C905.78,-52.11 880.43,-46.5 857.82,-41.5"/>
<polygon fill="#63b8ff" stroke="#63b8ff" points="928.42,-60.7 938.94,-59.44 929.93,-53.87 928.42,-60.7"/>
</a>
</g>
</g>
<!-- Node35 -->
<g id="Node000035" class="node">
<title>Node35</title>
<g id="a_Node000035"><a xlink:href="namespacewmtk_1_1components.html#a7cec0c38121ddd036af26c760311d0e8" target="_top" xlink:title=" ">
<polygon fill="white" stroke="#666666" points="664.5,-132.5 513.5,-132.5 513.5,-102.5 664.5,-102.5 664.5,-132.5"/>
<text text-anchor="start" x="521.5" y="-120.5" font-family="Helvetica,sans-Serif" font-size="10.00">wmtk::components::regular</text>
<text text-anchor="middle" x="589" y="-109.5" font-family="Helvetica,sans-Serif" font-size="10.00">_space</text>
</a>
</g>
</g>
<!-- Node34&#45;&gt;Node35 -->
<g id="edge36_Node000034_Node000035" class="edge">
<title>Node34&#45;&gt;Node35</title>
<g id="a_edge36_Node000034_Node000035"><a xlink:title=" ">
<path fill="none" stroke="#63b8ff" d="M708.67,-91.73C692.3,-95.28 675.19,-99 659.21,-102.47"/>
<polygon fill="#63b8ff" stroke="#63b8ff" points="709.72,-95.08 718.75,-89.54 708.23,-88.24 709.72,-95.08"/>
</a>
</g>
</g>
<!-- Node36 -->
<g id="Node000036" class="node">
<title>Node36</title>
<g id="a_Node000036"><a xlink:href="test__component__regular__space_8cpp.html#a728024a1ea7ac078fd93d4035f705520" target="_top" xlink:title=" ">
<polygon fill="white" stroke="#666666" points="624.5,-84 553.5,-84 553.5,-65 624.5,-65 624.5,-84"/>
<text text-anchor="middle" x="589" y="-72" font-family="Helvetica,sans-Serif" font-size="10.00">TEST_CASE</text>
</a>
</g>
</g>
<!-- Node34&#45;&gt;Node36 -->
<g id="edge37_Node000034_Node000036" class="edge">
<title>Node34&#45;&gt;Node36</title>
<g id="a_edge37_Node000034_Node000036"><a xlink:title=" ">
<path fill="none" stroke="#63b8ff" d="M693.59,-74.5C668.95,-74.5 643.93,-74.5 624.65,-74.5"/>
<polygon fill="#63b8ff" stroke="#63b8ff" points="693.74,-78 703.74,-74.5 693.74,-71 693.74,-78"/>
</a>
</g>
</g>
<!-- Node37 -->
<g id="Node000037" class="node">
<title>Node37</title>
<g id="a_Node000037"><a xlink:href="test__component__regular__space_8cpp.html#a5e69783b3ce0c074477e3081ab8cf658" target="_top" xlink:title=" ">
<polygon fill="white" stroke="#666666" points="624.5,-47 553.5,-47 553.5,-28 624.5,-28 624.5,-47"/>
<text text-anchor="middle" x="589" y="-35" font-family="Helvetica,sans-Serif" font-size="10.00">TEST_CASE</text>
</a>
</g>
</g>
<!-- Node34&#45;&gt;Node37 -->
<g id="edge38_Node000034_Node000037" class="edge">
<title>Node34&#45;&gt;Node37</title>
<g id="a_edge38_Node000034_Node000037"><a xlink:title=" ">
<path fill="none" stroke="#63b8ff" d="M697.57,-57.6C671.62,-52.75 644.88,-47.75 624.55,-43.96"/>
<polygon fill="#63b8ff" stroke="#63b8ff" points="696.99,-61.05 707.47,-59.45 698.28,-54.17 696.99,-61.05"/>
</a>
</g>
</g>
</g>
</svg>
