<?xml version="1.0" encoding="UTF-8" standalone="no"?>
<!DOCTYPE svg PUBLIC "-//W3C//DTD SVG 1.1//EN"
 "http://www.w3.org/Graphics/SVG/1.1/DTD/svg11.dtd">
<!-- Generated by graphviz version 2.43.0 (0)
 -->
<!-- Title: wmtk::TriMesh::TriMeshOperationExecutor::replace_incident_face Pages: 1 -->
<svg width="864pt" height="334pt"
 viewBox="0.00 0.00 864.00 333.50" xmlns="http://www.w3.org/2000/svg" xmlns:xlink="http://www.w3.org/1999/xlink">
<g id="graph0" class="graph" transform="scale(1 1) rotate(0) translate(4 329.5)">
<title>wmtk::TriMesh::TriMeshOperationExecutor::replace_incident_face</title>
<!-- Node1 -->
<g id="Node000001" class="node">
<title>Node1</title>
<g id="a_Node000001"><a xlink:title=" ">
<polygon fill="#999999" stroke="#666666" points="179,-228 0,-228 0,-198 179,-198 179,-228"/>
<text text-anchor="start" x="8" y="-216" font-family="Helvetica,sans-Serif" font-size="10.00">wmtk::TriMesh::TriMeshOperation</text>
<text text-anchor="middle" x="89.5" y="-205" font-family="Helvetica,sans-Serif" font-size="10.00">Executor::replace_incident_face</text>
</a>
</g>
</g>
<!-- Node2 -->
<g id="Node000002" class="node">
<title>Node2</title>
<g id="a_Node000002"><a xlink:href="namespacewmtk.html#a6a35f11c12436093d26fdd8be6fecc06" target="_top" xlink:title="Retrieves the current logger.">
<polygon fill="white" stroke="#666666" points="482,-325.5 401,-325.5 401,-306.5 482,-306.5 482,-325.5"/>
<text text-anchor="middle" x="441.5" y="-313.5" font-family="Helvetica,sans-Serif" font-size="10.00">wmtk::logger</text>
</a>
</g>
</g>
<!-- Node1&#45;&gt;Node2 -->
<g id="edge1_Node000001_Node000002" class="edge">
<title>Node1&#45;&gt;Node2</title>
<g id="a_edge1_Node000001_Node000002"><a xlink:title=" ">
<path fill="none" stroke="#63b8ff" d="M139.1,-228.07C194.76,-245.22 288.75,-273.85 370,-297 377.89,-299.25 386.29,-301.57 394.44,-303.79"/>
<polygon fill="#63b8ff" stroke="#63b8ff" points="393.65,-307.2 404.22,-306.44 395.48,-300.45 393.65,-307.2"/>
</a>
</g>
</g>
<!-- Node4 -->
<g id="Node000004" class="node">
<title>Node4</title>
<g id="a_Node000004"><a xlink:href="classwmtk_1_1_mesh.html#ac205d6addf4e76f000c70547253735f0" target="_top" xlink:title=" ">
<polygon fill="white" stroke="#666666" points="334,-207 215,-207 215,-177 334,-177 334,-207"/>
<text text-anchor="start" x="223" y="-195" font-family="Helvetica,sans-Serif" font-size="10.00">wmtk::Mesh::request</text>
<text text-anchor="middle" x="274.5" y="-184" font-family="Helvetica,sans-Serif" font-size="10.00">_simplex_indices</text>
</a>
</g>
</g>
<!-- Node1&#45;&gt;Node4 -->
<g id="edge3_Node000001_Node000004" class="edge">
<title>Node1&#45;&gt;Node4</title>
<g id="a_edge3_Node000001_Node000004"><a xlink:title=" ">
<path fill="none" stroke="#63b8ff" d="M179.05,-202.84C187.68,-201.85 196.34,-200.85 204.73,-199.89"/>
<polygon fill="#63b8ff" stroke="#63b8ff" points="205.27,-203.35 214.81,-198.74 204.47,-196.4 205.27,-203.35"/>
</a>
</g>
</g>
<!-- Node3 -->
<g id="Node000003" class="node">
<title>Node3</title>
<g id="a_Node000003"><a xlink:href="namespacewmtk.html#a3daa7951a5f8b78cf4600dc047fcc180" target="_top" xlink:title="Setup a logger object to be used by WildmeshToolkit.">
<polygon fill="white" stroke="#666666" points="677,-325.5 576,-325.5 576,-306.5 677,-306.5 677,-325.5"/>
<text text-anchor="middle" x="626.5" y="-313.5" font-family="Helvetica,sans-Serif" font-size="10.00">wmtk::set_logger</text>
</a>
</g>
</g>
<!-- Node2&#45;&gt;Node3 -->
<g id="edge2_Node000002_Node000003" class="edge">
<title>Node2&#45;&gt;Node3</title>
<g id="a_edge2_Node000002_Node000003"><a xlink:title=" ">
<path fill="none" stroke="#63b8ff" d="M482.21,-316C506.54,-316 538.15,-316 565.49,-316"/>
<polygon fill="#63b8ff" stroke="#63b8ff" points="565.73,-319.5 575.73,-316 565.73,-312.5 565.73,-319.5"/>
</a>
</g>
</g>
<!-- Node4&#45;&gt;Node2 -->
<g id="edge13_Node000004_Node000002" class="edge">
<title>Node4&#45;&gt;Node2</title>
<g id="a_edge13_Node000004_Node000002"><a xlink:title=" ">
<path fill="none" stroke="#63b8ff" d="M288.38,-207.25C311.83,-234.86 359.97,-290.84 370,-297 376.39,-300.92 383.58,-304.04 390.88,-306.53"/>
<polygon fill="#63b8ff" stroke="#63b8ff" points="390.23,-309.99 400.81,-309.54 392.26,-303.29 390.23,-309.99"/>
</a>
</g>
</g>
<!-- Node5 -->
<g id="Node000005" class="node">
<title>Node5</title>
<g id="a_Node000005"><a xlink:href="classwmtk_1_1_mesh.html#a3e8ff83c4a5526a40d18bb9883c6c6c9" target="_top" xlink:title="read in the m_capacities return the upper bound for the number of entities of the given dimension">
<polygon fill="white" stroke="#666666" points="688.5,-239.5 564.5,-239.5 564.5,-220.5 688.5,-220.5 688.5,-239.5"/>
<text text-anchor="middle" x="626.5" y="-227.5" font-family="Helvetica,sans-Serif" font-size="10.00">wmtk::Mesh::capacity</text>
</a>
</g>
</g>
<!-- Node4&#45;&gt;Node5 -->
<g id="edge4_Node000004_Node000005" class="edge">
<title>Node4&#45;&gt;Node5</title>
<g id="a_edge4_Node000004_Node000005"><a xlink:title=" ">
<path fill="none" stroke="#63b8ff" d="M334.16,-201.19C346.01,-202.9 358.39,-204.6 370,-206 432.2,-213.52 503.16,-220.02 554.49,-224.35"/>
<polygon fill="#63b8ff" stroke="#63b8ff" points="554.23,-227.84 564.49,-225.19 554.81,-220.87 554.23,-227.84"/>
</a>
</g>
</g>
<!-- Node6 -->
<g id="Node000006" class="node">
<title>Node6</title>
<g id="a_Node000006"><a xlink:href="namespacewmtk.html#a5cf45c152e856196bb734c6f48919a24" target="_top" xlink:title="Get a unique integer id corresponding to each primitive type.">
<polygon fill="white" stroke="#666666" points="856,-188 740,-188 740,-158 856,-158 856,-188"/>
<text text-anchor="start" x="748" y="-176" font-family="Helvetica,sans-Serif" font-size="10.00">wmtk::get_primitive</text>
<text text-anchor="middle" x="798" y="-165" font-family="Helvetica,sans-Serif" font-size="10.00">_type_id</text>
</a>
</g>
</g>
<!-- Node4&#45;&gt;Node6 -->
<g id="edge10_Node000004_Node000006" class="edge">
<title>Node4&#45;&gt;Node6</title>
<g id="a_edge10_Node000004_Node000006"><a xlink:title=" ">
<path fill="none" stroke="#63b8ff" d="M334.06,-189.87C431.55,-186.31 626.61,-179.21 729.65,-175.45"/>
<polygon fill="#63b8ff" stroke="#63b8ff" points="730.06,-178.94 739.93,-175.08 729.81,-171.95 730.06,-178.94"/>
</a>
</g>
</g>
<!-- Node7 -->
<g id="Node000007" class="node">
<title>Node7</title>
<g id="a_Node000007"><a xlink:href="classwmtk_1_1_mesh.html#ae0e8f71e9e17a90be9423117efcc4c81" target="_top" xlink:title=" ">
<polygon fill="white" stroke="#666666" points="502.5,-78 380.5,-78 380.5,-48 502.5,-48 502.5,-78"/>
<text text-anchor="start" x="388.5" y="-66" font-family="Helvetica,sans-Serif" font-size="10.00">wmtk::Mesh::get_flag</text>
<text text-anchor="middle" x="441.5" y="-55" font-family="Helvetica,sans-Serif" font-size="10.00">_accessor</text>
</a>
</g>
</g>
<!-- Node4&#45;&gt;Node7 -->
<g id="edge6_Node000004_Node000007" class="edge">
<title>Node4&#45;&gt;Node7</title>
<g id="a_edge6_Node000004_Node000007"><a xlink:title=" ">
<path fill="none" stroke="#63b8ff" d="M285.28,-176.91C300.7,-154.28 332.74,-111.57 370,-87 372.43,-85.4 374.97,-83.89 377.6,-82.48"/>
<polygon fill="#63b8ff" stroke="#63b8ff" points="379.31,-85.54 386.77,-78.02 376.24,-79.25 379.31,-85.54"/>
</a>
</g>
</g>
<!-- Node10 -->
<g id="Node000010" class="node">
<title>Node10</title>
<g id="a_Node000010"><a xlink:href="classwmtk_1_1attribute_1_1_accessor.html#a2d587e12c47a6d839ab80e9198cf75b5" target="_top" xlink:title=" ">
<polygon fill="white" stroke="#666666" points="512.5,-126 370.5,-126 370.5,-96 512.5,-96 512.5,-126"/>
<text text-anchor="start" x="378.5" y="-114" font-family="Helvetica,sans-Serif" font-size="10.00">wmtk::attribute::Accessor</text>
<text text-anchor="middle" x="441.5" y="-103" font-family="Helvetica,sans-Serif" font-size="10.00">::index_access</text>
</a>
</g>
</g>
<!-- Node4&#45;&gt;Node10 -->
<g id="edge11_Node000004_Node000010" class="edge">
<title>Node4&#45;&gt;Node10</title>
<g id="a_edge11_Node000004_Node000010"><a xlink:title=" ">
<path fill="none" stroke="#63b8ff" d="M301.16,-176.85C319.94,-166.02 346.19,-151.4 370,-140 377.13,-136.58 384.78,-133.18 392.31,-129.97"/>
<polygon fill="#63b8ff" stroke="#63b8ff" points="393.86,-133.12 401.74,-126.03 391.16,-126.66 393.86,-133.12"/>
</a>
</g>
</g>
<!-- Node12 -->
<g id="Node000012" class="node">
<title>Node12</title>
<g id="a_Node000012"><a xlink:href="namespacewmtk.html#a339897f6efeb23a997750141f12892ee" target="_top" xlink:title=" ">
<polygon fill="white" stroke="#666666" points="704,-163.5 549,-163.5 549,-144.5 704,-144.5 704,-163.5"/>
<text text-anchor="middle" x="626.5" y="-151.5" font-family="Helvetica,sans-Serif" font-size="10.00">wmtk::primitive_type_name</text>
</a>
</g>
</g>
<!-- Node4&#45;&gt;Node12 -->
<g id="edge14_Node000004_Node000012" class="edge">
<title>Node4&#45;&gt;Node12</title>
<g id="a_edge14_Node000004_Node000012"><a xlink:title=" ">
<path fill="none" stroke="#63b8ff" d="M334.16,-182.81C346.01,-181.1 358.39,-179.4 370,-178 426.07,-171.22 489.26,-165.27 538.77,-160.99"/>
<polygon fill="#63b8ff" stroke="#63b8ff" points="539.14,-164.47 548.8,-160.13 538.54,-157.5 539.14,-164.47"/>
</a>
</g>
</g>
<!-- Node13 -->
<g id="Node000013" class="node">
<title>Node13</title>
<g id="a_Node000013"><a xlink:href="classwmtk_1_1attribute_1_1_accessor_base.html#ada0ffe6f114ed47ad205989d8a6f67da" target="_top" xlink:title=" ">
<polygon fill="white" stroke="#666666" points="512.5,-30 370.5,-30 370.5,0 512.5,0 512.5,-30"/>
<text text-anchor="start" x="378.5" y="-18" font-family="Helvetica,sans-Serif" font-size="10.00">wmtk::attribute::Accessor</text>
<text text-anchor="middle" x="441.5" y="-7" font-family="Helvetica,sans-Serif" font-size="10.00">Base::reserved_size</text>
</a>
</g>
</g>
<!-- Node4&#45;&gt;Node13 -->
<g id="edge16_Node000004_Node000013" class="edge">
<title>Node4&#45;&gt;Node13</title>
<g id="a_edge16_Node000004_Node000013"><a xlink:title=" ">
<path fill="none" stroke="#63b8ff" d="M280.93,-176.54C292.48,-145.85 322.39,-76.94 370,-39 371.77,-37.59 373.62,-36.27 375.54,-35.01"/>
<polygon fill="#63b8ff" stroke="#63b8ff" points="377.38,-38 384.33,-30 373.91,-31.92 377.38,-38"/>
</a>
</g>
</g>
<!-- Node14 -->
<g id="Node000014" class="node">
<title>Node14</title>
<g id="a_Node000014"><a xlink:href="classwmtk_1_1attribute_1_1_caching_accessor.html#a73f8d78b708406dcd6433398e3954e72" target="_top" xlink:title=" ">
<polygon fill="white" stroke="#666666" points="513,-288 370,-288 370,-258 513,-258 513,-288"/>
<text text-anchor="start" x="378" y="-276" font-family="Helvetica,sans-Serif" font-size="10.00">wmtk::attribute::Caching</text>
<text text-anchor="middle" x="441.5" y="-265" font-family="Helvetica,sans-Serif" font-size="10.00">Accessor::scalar_attribute</text>
</a>
</g>
</g>
<!-- Node4&#45;&gt;Node14 -->
<g id="edge17_Node000004_Node000014" class="edge">
<title>Node4&#45;&gt;Node14</title>
<g id="a_edge17_Node000004_Node000014"><a xlink:title=" ">
<path fill="none" stroke="#63b8ff" d="M301.16,-207.15C319.94,-217.98 346.19,-232.6 370,-244 377.13,-247.42 384.78,-250.82 392.31,-254.03"/>
<polygon fill="#63b8ff" stroke="#63b8ff" points="391.16,-257.34 401.74,-257.97 393.86,-250.88 391.16,-257.34"/>
</a>
</g>
</g>
<!-- Node5&#45;&gt;Node6 -->
<g id="edge5_Node000005_Node000006" class="edge">
<title>Node5&#45;&gt;Node6</title>
<g id="a_edge5_Node000005_Node000006"><a xlink:title=" ">
<path fill="none" stroke="#63b8ff" d="M658.85,-220.45C672.72,-216.15 689.21,-210.94 704,-206 717.6,-201.46 732.24,-196.36 745.8,-191.55"/>
<polygon fill="#63b8ff" stroke="#63b8ff" points="747.2,-194.77 755.45,-188.11 744.85,-188.17 747.2,-194.77"/>
</a>
</g>
</g>
<!-- Node8 -->
<g id="Node000008" class="node">
<title>Node8</title>
<g id="a_Node000008"><a xlink:href="classwmtk_1_1_mesh.html#a6dbab927a2ee85f77a87f075fd5c1d94" target="_top" xlink:title=" ">
<polygon fill="white" stroke="#666666" points="691.5,-78 561.5,-78 561.5,-48 691.5,-48 691.5,-78"/>
<text text-anchor="start" x="569.5" y="-66" font-family="Helvetica,sans-Serif" font-size="10.00">wmtk::Mesh::get_const</text>
<text text-anchor="middle" x="626.5" y="-55" font-family="Helvetica,sans-Serif" font-size="10.00">_flag_accessor</text>
</a>
</g>
</g>
<!-- Node7&#45;&gt;Node8 -->
<g id="edge7_Node000007_Node000008" class="edge">
<title>Node7&#45;&gt;Node8</title>
<g id="a_edge7_Node000007_Node000008"><a xlink:title=" ">
<path fill="none" stroke="#63b8ff" d="M502.67,-63C518.06,-63 534.78,-63 550.8,-63"/>
<polygon fill="#63b8ff" stroke="#63b8ff" points="551.2,-66.5 561.2,-63 551.2,-59.5 551.2,-66.5"/>
</a>
</g>
</g>
<!-- Node8&#45;&gt;Node6 -->
<g id="edge9_Node000008_Node000006" class="edge">
<title>Node8&#45;&gt;Node6</title>
<g id="a_edge9_Node000008_Node000006"><a xlink:title=" ">
<path fill="none" stroke="#63b8ff" d="M685.49,-78.15C691.92,-80.71 698.22,-83.65 704,-87 732.93,-103.76 760.3,-130.95 777.76,-150.27"/>
<polygon fill="#63b8ff" stroke="#63b8ff" points="775.14,-152.59 784.39,-157.76 780.38,-147.95 775.14,-152.59"/>
</a>
</g>
</g>
<!-- Node9 -->
<g id="Node000009" class="node">
<title>Node9</title>
<g id="a_Node000009"><a xlink:href="classwmtk_1_1_mesh.html#a357182137d99f1e4a7ff536eadfc0e56" target="_top" xlink:title=" ">
<polygon fill="white" stroke="#666666" points="854.5,-78 741.5,-78 741.5,-48 854.5,-48 854.5,-78"/>
<text text-anchor="start" x="749.5" y="-66" font-family="Helvetica,sans-Serif" font-size="10.00">wmtk::Mesh::create</text>
<text text-anchor="middle" x="798" y="-55" font-family="Helvetica,sans-Serif" font-size="10.00">_const_accessor</text>
</a>
</g>
</g>
<!-- Node8&#45;&gt;Node9 -->
<g id="edge8_Node000008_Node000009" class="edge">
<title>Node8&#45;&gt;Node9</title>
<g id="a_edge8_Node000008_Node000009"><a xlink:title=" ">
<path fill="none" stroke="#63b8ff" d="M691.58,-63C704.53,-63 718.16,-63 731.16,-63"/>
<polygon fill="#63b8ff" stroke="#63b8ff" points="731.43,-66.5 741.43,-63 731.43,-59.5 731.43,-66.5"/>
</a>
</g>
</g>
<!-- Node11 -->
<g id="Node000011" class="node">
<title>Node11</title>
<g id="a_Node000011"><a xlink:href="classwmtk_1_1attribute_1_1_accessor.html#afd97a48ec5d1db975a030428df81f617" target="_top" xlink:title=" ">
<polygon fill="white" stroke="#666666" points="697.5,-126 555.5,-126 555.5,-96 697.5,-96 697.5,-126"/>
<text text-anchor="start" x="563.5" y="-114" font-family="Helvetica,sans-Serif" font-size="10.00">wmtk::attribute::Accessor</text>
<text text-anchor="middle" x="626.5" y="-103" font-family="Helvetica,sans-Serif" font-size="10.00">::caching_base_type</text>
</a>
</g>
</g>
<!-- Node10&#45;&gt;Node11 -->
<g id="edge12_Node000010_Node000011" class="edge">
<title>Node10&#45;&gt;Node11</title>
<g id="a_edge12_Node000010_Node000011"><a xlink:title=" ">
<path fill="none" stroke="#63b8ff" d="M512.73,-111C523.35,-111 534.37,-111 545.18,-111"/>
<polygon fill="#63b8ff" stroke="#63b8ff" points="545.46,-114.5 555.46,-111 545.46,-107.5 545.46,-114.5"/>
</a>
</g>
</g>
<!-- Node12&#45;&gt;Node6 -->
<g id="edge15_Node000012_Node000006" class="edge">
<title>Node12&#45;&gt;Node6</title>
<g id="a_edge15_Node000012_Node000006"><a xlink:title=" ">
<path fill="none" stroke="#63b8ff" d="M704.32,-162.61C712.85,-163.57 721.49,-164.54 729.88,-165.48"/>
<polygon fill="#63b8ff" stroke="#63b8ff" points="729.66,-168.97 739.98,-166.61 730.44,-162.02 729.66,-168.97"/>
</a>
</g>
</g>
</g>
</svg>
