<?xml version="1.0" encoding="UTF-8" standalone="no"?>
<!DOCTYPE svg PUBLIC "-//W3C//DTD SVG 1.1//EN"
 "http://www.w3.org/Graphics/SVG/1.1/DTD/svg11.dtd">
<!-- Generated by graphviz version 2.43.0 (0)
 -->
<!-- Title: wmtk::invariants::ValenceImprovementInvariant::before Pages: 1 -->
<svg width="1692pt" height="1023pt"
 viewBox="0.00 0.00 1692.00 1023.00" xmlns="http://www.w3.org/2000/svg" xmlns:xlink="http://www.w3.org/1999/xlink">
<g id="graph0" class="graph" transform="scale(1 1) rotate(0) translate(4 1019)">
<title>wmtk::invariants::ValenceImprovementInvariant::before</title>
<!-- Node1 -->
<g id="Node000001" class="node">
<title>Node1</title>
<g id="a_Node000001"><a xlink:title=" ">
<polygon fill="#999999" stroke="#666666" points="164,-685 0,-685 0,-655 164,-655 164,-685"/>
<text text-anchor="start" x="8" y="-673" font-family="Helvetica,sans-Serif" font-size="10.00">wmtk::invariants::Valence</text>
<text text-anchor="middle" x="82" y="-662" font-family="Helvetica,sans-Serif" font-size="10.00">ImprovementInvariant::before</text>
</a>
</g>
</g>
<!-- Node2 -->
<g id="Node000002" class="node">
<title>Node2</title>
<g id="a_Node000002"><a xlink:href="classwmtk_1_1simplex_1_1_simplex.html#a2b9d969f3c7b1d746abc29d228f91328" target="_top" xlink:title=" ">
<polygon fill="white" stroke="#666666" points="342,-1015 207,-1015 207,-985 342,-985 342,-1015"/>
<text text-anchor="start" x="215" y="-1003" font-family="Helvetica,sans-Serif" font-size="10.00">wmtk::simplex::Simplex</text>
<text text-anchor="middle" x="274.5" y="-992" font-family="Helvetica,sans-Serif" font-size="10.00">::face</text>
</a>
</g>
</g>
<!-- Node1&#45;&gt;Node2 -->
<g id="edge1_Node000001_Node000002" class="edge">
<title>Node1&#45;&gt;Node2</title>
<g id="a_edge1_Node000001_Node000002"><a xlink:title=" ">
<path fill="none" stroke="#63b8ff" d="M84.29,-685.23C89.31,-734.64 111.83,-892.09 200,-976 201.12,-977.07 202.3,-978.09 203.51,-979.07"/>
<polygon fill="#63b8ff" stroke="#63b8ff" points="201.82,-982.15 212.06,-984.88 205.76,-976.36 201.82,-982.15"/>
</a>
</g>
</g>
<!-- Node4 -->
<g id="Node000004" class="node">
<title>Node4</title>
<g id="a_Node000004"><a xlink:href="namespacewmtk_1_1simplex.html#aedab544fbb3e4c417608c0b5371e94d9" target="_top" xlink:title=" ">
<polygon fill="white" stroke="#666666" points="346,-716 203,-716 203,-686 346,-686 346,-716"/>
<text text-anchor="start" x="211" y="-704" font-family="Helvetica,sans-Serif" font-size="10.00">wmtk::simplex::faces</text>
<text text-anchor="middle" x="274.5" y="-693" font-family="Helvetica,sans-Serif" font-size="10.00">_single_dimension_tuples</text>
</a>
</g>
</g>
<!-- Node1&#45;&gt;Node4 -->
<g id="edge3_Node000001_Node000004" class="edge">
<title>Node1&#45;&gt;Node4</title>
<g id="a_edge3_Node000001_Node000004"><a xlink:title=" ">
<path fill="none" stroke="#63b8ff" d="M164.07,-683.19C173.51,-684.73 183.15,-686.3 192.59,-687.83"/>
<polygon fill="#63b8ff" stroke="#63b8ff" points="192.31,-691.33 202.74,-689.49 193.43,-684.42 192.31,-691.33"/>
</a>
</g>
</g>
<!-- Node6 -->
<g id="Node000006" class="node">
<title>Node6</title>
<g id="a_Node000006"><a xlink:href="classwmtk_1_1simplex_1_1_simplex.html#ad2cc0340a0772b7d6f03ba7a781d1163" target="_top" xlink:title=" ">
<polygon fill="white" stroke="#666666" points="1393.5,-788 1258.5,-788 1258.5,-758 1393.5,-758 1393.5,-788"/>
<text text-anchor="start" x="1266.5" y="-776" font-family="Helvetica,sans-Serif" font-size="10.00">wmtk::simplex::Simplex</text>
<text text-anchor="middle" x="1326" y="-765" font-family="Helvetica,sans-Serif" font-size="10.00">::primitive_type</text>
</a>
</g>
</g>
<!-- Node1&#45;&gt;Node6 -->
<g id="edge57_Node000001_Node000006" class="edge">
<title>Node1&#45;&gt;Node6</title>
<g id="a_edge57_Node000001_Node000006"><a xlink:title=" ">
<path fill="none" stroke="#63b8ff" d="M94.95,-685.31C137.56,-738.06 288.46,-909 454.5,-909 454.5,-909 454.5,-909 875,-909 1015,-909 1054.82,-907.89 1186,-859 1227.99,-843.35 1271.07,-814.29 1297.91,-794.31"/>
<polygon fill="#63b8ff" stroke="#63b8ff" points="1300.17,-796.99 1306.03,-788.17 1295.95,-791.41 1300.17,-796.99"/>
</a>
</g>
</g>
<!-- Node9 -->
<g id="Node000009" class="node">
<title>Node9</title>
<g id="a_Node000009"><a xlink:href="classwmtk_1_1simplex_1_1_simplex.html#aca78b1fb0a3c28c0036cf7919bfb0789" target="_top" xlink:title=" ">
<polygon fill="white" stroke="#666666" points="1161.5,-549 1026.5,-549 1026.5,-519 1161.5,-519 1161.5,-549"/>
<text text-anchor="start" x="1034.5" y="-537" font-family="Helvetica,sans-Serif" font-size="10.00">wmtk::simplex::Simplex</text>
<text text-anchor="middle" x="1094" y="-526" font-family="Helvetica,sans-Serif" font-size="10.00">::tuple</text>
</a>
</g>
</g>
<!-- Node1&#45;&gt;Node9 -->
<g id="edge59_Node000001_Node000009" class="edge">
<title>Node1&#45;&gt;Node9</title>
<g id="a_edge59_Node000001_Node000009"><a xlink:title=" ">
<path fill="none" stroke="#63b8ff" d="M101.36,-654.7C153.25,-613.1 306.76,-501 454.5,-501 454.5,-501 454.5,-501 655,-501 781.9,-501 928.9,-514.94 1016.24,-524.7"/>
<polygon fill="#63b8ff" stroke="#63b8ff" points="1016,-528.2 1026.33,-525.84 1016.79,-521.24 1016,-528.2"/>
</a>
</g>
</g>
<!-- Node15 -->
<g id="Node000015" class="node">
<title>Node15</title>
<g id="a_Node000015"><a xlink:href="namespacewmtk_1_1simplex.html#a3260444c136dbe145679b762c52f6a16" target="_top" xlink:title=" ">
<polygon fill="white" stroke="#666666" points="331,-649.5 218,-649.5 218,-630.5 331,-630.5 331,-649.5"/>
<text text-anchor="middle" x="274.5" y="-637.5" font-family="Helvetica,sans-Serif" font-size="10.00">wmtk::simplex::link</text>
</a>
</g>
</g>
<!-- Node1&#45;&gt;Node15 -->
<g id="edge25_Node000001_Node000015" class="edge">
<title>Node1&#45;&gt;Node15</title>
<g id="a_edge25_Node000001_Node000015"><a xlink:title=" ">
<path fill="none" stroke="#63b8ff" d="M164.07,-657.23C178.65,-654.94 193.69,-652.57 207.78,-650.35"/>
<polygon fill="#63b8ff" stroke="#63b8ff" points="208.51,-653.78 217.84,-648.76 207.42,-646.86 208.51,-653.78"/>
</a>
</g>
</g>
<!-- Node26 -->
<g id="Node000026" class="node">
<title>Node26</title>
<g id="a_Node000026"><a xlink:href="classwmtk_1_1simplex_1_1_simplex_collection.html#a3c5684abe23553010bb7f87840e9518d" target="_top" xlink:title="Return const reference to the simplex vector.">
<polygon fill="white" stroke="#666666" points="966,-30 782,-30 782,0 966,0 966,-30"/>
<text text-anchor="start" x="790" y="-18" font-family="Helvetica,sans-Serif" font-size="10.00">wmtk::simplex::SimplexCollection</text>
<text text-anchor="middle" x="874" y="-7" font-family="Helvetica,sans-Serif" font-size="10.00">::simplex_vector</text>
</a>
</g>
</g>
<!-- Node1&#45;&gt;Node26 -->
<g id="edge58_Node000001_Node000026" class="edge">
<title>Node1&#45;&gt;Node26</title>
<g id="a_edge58_Node000001_Node000026"><a xlink:title=" ">
<path fill="none" stroke="#63b8ff" d="M90.85,-654.84C108.11,-622.26 151.66,-543.91 200,-487 335.65,-327.31 386.48,-299.42 562,-185 655.21,-124.24 771.91,-64.5 832.41,-34.65"/>
<polygon fill="#63b8ff" stroke="#63b8ff" points="834.19,-37.67 841.63,-30.12 831.11,-31.39 834.19,-37.67"/>
</a>
</g>
</g>
<!-- Node32 -->
<g id="Node000032" class="node">
<title>Node32</title>
<g id="a_Node000032"><a xlink:href="classwmtk_1_1invariants_1_1_invariant.html#ac97548bf5f1167cd85081d1bde011139" target="_top" xlink:title=" ">
<polygon fill="white" stroke="#666666" points="349,-143 200,-143 200,-113 349,-113 349,-143"/>
<text text-anchor="start" x="208" y="-131" font-family="Helvetica,sans-Serif" font-size="10.00">wmtk::invariants::Invariant</text>
<text text-anchor="middle" x="274.5" y="-120" font-family="Helvetica,sans-Serif" font-size="10.00">::mesh</text>
</a>
</g>
</g>
<!-- Node1&#45;&gt;Node32 -->
<g id="edge56_Node000001_Node000032" class="edge">
<title>Node1&#45;&gt;Node32</title>
<g id="a_edge56_Node000001_Node000032"><a xlink:title=" ">
<path fill="none" stroke="#63b8ff" d="M84.56,-654.77C92.7,-578.18 132.45,-235.65 200,-157 202.64,-153.93 205.65,-151.18 208.91,-148.72"/>
<polygon fill="#63b8ff" stroke="#63b8ff" points="210.96,-151.55 217.45,-143.18 207.15,-145.68 210.96,-151.55"/>
</a>
</g>
</g>
<!-- Node33 -->
<g id="Node000033" class="node">
<title>Node33</title>
<g id="a_Node000033"><a xlink:href="classwmtk_1_1simplex_1_1_simplex.html#a7de67a391b9f48b57f4ecb4c412ccaee" target="_top" xlink:title=" ">
<polygon fill="white" stroke="#666666" points="342,-967 207,-967 207,-937 342,-937 342,-967"/>
<text text-anchor="start" x="215" y="-955" font-family="Helvetica,sans-Serif" font-size="10.00">wmtk::simplex::Simplex</text>
<text text-anchor="middle" x="274.5" y="-944" font-family="Helvetica,sans-Serif" font-size="10.00">::vertex</text>
</a>
</g>
</g>
<!-- Node1&#45;&gt;Node33 -->
<g id="edge60_Node000001_Node000033" class="edge">
<title>Node1&#45;&gt;Node33</title>
<g id="a_edge60_Node000001_Node000033"><a xlink:title=" ">
<path fill="none" stroke="#63b8ff" d="M85.88,-685.12C94.86,-728.28 126.29,-853.4 200,-923 203.55,-926.36 207.54,-929.34 211.77,-931.99"/>
<polygon fill="#63b8ff" stroke="#63b8ff" points="210.3,-935.17 220.74,-936.97 213.7,-929.05 210.3,-935.17"/>
</a>
</g>
</g>
<!-- Node3 -->
<g id="Node000003" class="node">
<title>Node3</title>
<g id="a_Node000003"><a xlink:href="classwmtk_1_1simplex_1_1_simplex.html#ab6d51ca0c220792c1c09824d152bb53a" target="_top" xlink:title=" ">
<polygon fill="white" stroke="#666666" points="523,-991 388,-991 388,-961 523,-961 523,-991"/>
<text text-anchor="start" x="396" y="-979" font-family="Helvetica,sans-Serif" font-size="10.00">wmtk::simplex::Simplex</text>
<text text-anchor="middle" x="455.5" y="-968" font-family="Helvetica,sans-Serif" font-size="10.00">::Simplex</text>
</a>
</g>
</g>
<!-- Node2&#45;&gt;Node3 -->
<g id="edge2_Node000002_Node000003" class="edge">
<title>Node2&#45;&gt;Node3</title>
<g id="a_edge2_Node000002_Node000003"><a xlink:title=" ">
<path fill="none" stroke="#63b8ff" d="M342.15,-991.06C353.68,-989.52 365.76,-987.9 377.54,-986.32"/>
<polygon fill="#63b8ff" stroke="#63b8ff" points="378.35,-989.74 387.79,-984.94 377.41,-982.8 378.35,-989.74"/>
</a>
</g>
</g>
<!-- Node5 -->
<g id="Node000005" class="node">
<title>Node5</title>
<g id="a_Node000005"><a xlink:href="namespacewmtk_1_1simplex.html#a61d5959a4d8e8d987997d4b8155f7488" target="_top" xlink:title=" ">
<polygon fill="white" stroke="#666666" points="518,-710.5 393,-710.5 393,-691.5 518,-691.5 518,-710.5"/>
<text text-anchor="middle" x="455.5" y="-698.5" font-family="Helvetica,sans-Serif" font-size="10.00">wmtk::simplex::edges</text>
</a>
</g>
</g>
<!-- Node4&#45;&gt;Node5 -->
<g id="edge4_Node000004_Node000005" class="edge">
<title>Node4&#45;&gt;Node5</title>
<g id="a_edge4_Node000004_Node000005"><a xlink:title=" ">
<path fill="none" stroke="#63b8ff" d="M346.25,-701C358.31,-701 370.85,-701 382.93,-701"/>
<polygon fill="#63b8ff" stroke="#63b8ff" points="382.95,-704.5 392.95,-701 382.95,-697.5 382.95,-704.5"/>
</a>
</g>
</g>
<!-- Node4&#45;&gt;Node6 -->
<g id="edge18_Node000004_Node000006" class="edge">
<title>Node4&#45;&gt;Node6</title>
<g id="a_edge18_Node000004_Node000006"><a xlink:title=" ">
<path fill="none" stroke="#63b8ff" d="M282.58,-716.15C297.14,-745.37 333.43,-809.19 385,-838 489.77,-896.54 532.99,-871 653,-871 653,-871 653,-871 875,-871 1014.66,-871 1050.82,-861.09 1186,-826 1219.06,-817.42 1255.06,-803.56 1282.14,-792.16"/>
<polygon fill="#63b8ff" stroke="#63b8ff" points="1283.87,-795.23 1291.69,-788.09 1281.12,-788.79 1283.87,-795.23"/>
</a>
</g>
</g>
<!-- Node12 -->
<g id="Node000012" class="node">
<title>Node12</title>
<g id="a_Node000012"><a xlink:href="classwmtk_1_1_mesh.html#abaf00438d0700358b160e310d69725c9" target="_top" xlink:title=" ">
<polygon fill="white" stroke="#666666" points="959,-804.5 789,-804.5 789,-785.5 959,-785.5 959,-804.5"/>
<text text-anchor="middle" x="874" y="-792.5" font-family="Helvetica,sans-Serif" font-size="10.00">wmtk::Mesh::top_simplex_type</text>
</a>
</g>
</g>
<!-- Node4&#45;&gt;Node12 -->
<g id="edge19_Node000004_Node000012" class="edge">
<title>Node4&#45;&gt;Node12</title>
<g id="a_edge19_Node000004_Node000012"><a xlink:title=" ">
<path fill="none" stroke="#63b8ff" d="M285.01,-716.18C301.67,-741.16 338.8,-790.05 385,-809 539.07,-872.19 744.08,-830.14 831.1,-807.17"/>
<polygon fill="#63b8ff" stroke="#63b8ff" points="832.13,-810.52 840.87,-804.54 830.31,-803.76 832.13,-810.52"/>
</a>
</g>
</g>
<!-- Node13 -->
<g id="Node000013" class="node">
<title>Node13</title>
<g id="a_Node000013"><a xlink:href="namespacewmtk_1_1simplex.html#aee89641a0de7b5ddf8d15bf376f9d33b" target="_top" xlink:title="Returns all faces of a simplex.">
<polygon fill="white" stroke="#666666" points="935,-434.5 813,-434.5 813,-415.5 935,-415.5 935,-434.5"/>
<text text-anchor="middle" x="874" y="-422.5" font-family="Helvetica,sans-Serif" font-size="10.00">wmtk::simplex::faces</text>
</a>
</g>
</g>
<!-- Node4&#45;&gt;Node13 -->
<g id="edge16_Node000004_Node000013" class="edge">
<title>Node4&#45;&gt;Node13</title>
<g id="a_edge16_Node000004_Node000013"><a xlink:title=" ">
<path fill="none" stroke="#63b8ff" d="M336.37,-685.84C340.92,-683.33 345.2,-680.41 349,-677 378.01,-650.95 356.67,-623.79 385,-597 503.29,-485.16 698.64,-445.47 802.68,-431.83"/>
<polygon fill="#63b8ff" stroke="#63b8ff" points="803.28,-435.28 812.76,-430.55 802.4,-428.33 803.28,-435.28"/>
</a>
</g>
</g>
<!-- Node14 -->
<g id="Node000014" class="node">
<title>Node14</title>
<g id="a_Node000014"><a xlink:href="namespacewmtk_1_1simplex.html#a04b1e47aa146538c1a677fc9c5538241" target="_top" xlink:title=" ">
<polygon fill="white" stroke="#666666" points="522.5,-624.5 388.5,-624.5 388.5,-605.5 522.5,-605.5 522.5,-624.5"/>
<text text-anchor="middle" x="455.5" y="-612.5" font-family="Helvetica,sans-Serif" font-size="10.00">wmtk::simplex::vertices</text>
</a>
</g>
</g>
<!-- Node4&#45;&gt;Node14 -->
<g id="edge20_Node000004_Node000014" class="edge">
<title>Node4&#45;&gt;Node14</title>
<g id="a_edge20_Node000004_Node000014"><a xlink:title=" ">
<path fill="none" stroke="#63b8ff" d="M326.65,-685.88C334.25,-683.18 341.9,-680.2 349,-677 378.86,-663.54 411.02,-643.8 431.88,-630.23"/>
<polygon fill="#63b8ff" stroke="#63b8ff" points="433.93,-633.08 440.35,-624.65 430.08,-627.23 433.93,-633.08"/>
</a>
</g>
</g>
<!-- Node5&#45;&gt;Node6 -->
<g id="edge5_Node000005_Node000006" class="edge">
<title>Node5&#45;&gt;Node6</title>
<g id="a_edge5_Node000005_Node000006"><a xlink:title=" ">
<path fill="none" stroke="#63b8ff" d="M476.44,-710.58C526.42,-734 661.67,-793.71 782,-814 947.49,-841.91 1144.58,-811.4 1249.86,-790.06"/>
<polygon fill="#63b8ff" stroke="#63b8ff" points="1250.67,-793.47 1259.76,-788.03 1249.26,-786.62 1250.67,-793.47"/>
</a>
</g>
</g>
<!-- Node7 -->
<g id="Node000007" class="node">
<title>Node7</title>
<g id="a_Node000007"><a xlink:href="classwmtk_1_1_mesh.html#a7f8a7b7d592fdbf672f2c6c9653487ea" target="_top" xlink:title=" ">
<polygon fill="white" stroke="#666666" points="711,-716 597,-716 597,-686 711,-686 711,-716"/>
<text text-anchor="start" x="605" y="-704" font-family="Helvetica,sans-Serif" font-size="10.00">wmtk::Mesh::switch</text>
<text text-anchor="middle" x="654" y="-693" font-family="Helvetica,sans-Serif" font-size="10.00">_tuples</text>
</a>
</g>
</g>
<!-- Node5&#45;&gt;Node7 -->
<g id="edge6_Node000005_Node000007" class="edge">
<title>Node5&#45;&gt;Node7</title>
<g id="a_edge6_Node000005_Node000007"><a xlink:title=" ">
<path fill="none" stroke="#63b8ff" d="M518.13,-701C540,-701 564.68,-701 586.9,-701"/>
<polygon fill="#63b8ff" stroke="#63b8ff" points="586.92,-704.5 596.92,-701 586.92,-697.5 586.92,-704.5"/>
</a>
</g>
</g>
<!-- Node5&#45;&gt;Node9 -->
<g id="edge15_Node000005_Node000009" class="edge">
<title>Node5&#45;&gt;Node9</title>
<g id="a_edge15_Node000005_Node000009"><a xlink:title=" ">
<path fill="none" stroke="#63b8ff" d="M493.01,-691.42C596.35,-664.31 892.06,-586.72 1025.83,-551.62"/>
<polygon fill="#63b8ff" stroke="#63b8ff" points="1026.78,-554.99 1035.56,-549.07 1025,-548.22 1026.78,-554.99"/>
</a>
</g>
</g>
<!-- Node8 -->
<g id="Node000008" class="node">
<title>Node8</title>
<g id="a_Node000008"><a xlink:href="classwmtk_1_1_mesh.html#a58bdbbfa0cd7bd9263241f6501db182a" target="_top" xlink:title="check if a simplex lies on a boundary or not">
<polygon fill="white" stroke="#666666" points="945,-710.5 803,-710.5 803,-691.5 945,-691.5 945,-710.5"/>
<text text-anchor="middle" x="874" y="-698.5" font-family="Helvetica,sans-Serif" font-size="10.00">wmtk::Mesh::is_boundary</text>
</a>
</g>
</g>
<!-- Node7&#45;&gt;Node8 -->
<g id="edge7_Node000007_Node000008" class="edge">
<title>Node7&#45;&gt;Node8</title>
<g id="a_edge7_Node000007_Node000008"><a xlink:title=" ">
<path fill="none" stroke="#63b8ff" d="M711.14,-701C735.97,-701 765.64,-701 792.75,-701"/>
<polygon fill="#63b8ff" stroke="#63b8ff" points="793,-704.5 803,-701 793,-697.5 793,-704.5"/>
</a>
</g>
</g>
<!-- Node10 -->
<g id="Node000010" class="node">
<title>Node10</title>
<g id="a_Node000010"><a xlink:href="classwmtk_1_1_mesh.html#a965a8a24158c4aa8580c57ba09f885f7" target="_top" xlink:title="switch the orientation of the Tuple of the given dimension">
<polygon fill="white" stroke="#666666" points="931,-673 817,-673 817,-643 931,-643 931,-673"/>
<text text-anchor="start" x="825" y="-661" font-family="Helvetica,sans-Serif" font-size="10.00">wmtk::Mesh::switch</text>
<text text-anchor="middle" x="874" y="-650" font-family="Helvetica,sans-Serif" font-size="10.00">_tuple</text>
</a>
</g>
</g>
<!-- Node7&#45;&gt;Node10 -->
<g id="edge11_Node000007_Node000010" class="edge">
<title>Node7&#45;&gt;Node10</title>
<g id="a_edge11_Node000007_Node000010"><a xlink:title=" ">
<path fill="none" stroke="#63b8ff" d="M711.14,-689.93C740.27,-684.18 776.04,-677.12 806.55,-671.11"/>
<polygon fill="#63b8ff" stroke="#63b8ff" points="807.54,-674.48 816.67,-669.11 806.18,-667.61 807.54,-674.48"/>
</a>
</g>
</g>
<!-- Node11 -->
<g id="Node000011" class="node">
<title>Node11</title>
<g id="a_Node000011"><a xlink:href="classwmtk_1_1_mesh.html#a933f681cf24a63b155c9462280385200" target="_top" xlink:title=" ">
<polygon fill="white" stroke="#666666" points="1154.5,-788 1033.5,-788 1033.5,-758 1154.5,-758 1154.5,-788"/>
<text text-anchor="start" x="1041.5" y="-776" font-family="Helvetica,sans-Serif" font-size="10.00">wmtk::Mesh::top_cell</text>
<text text-anchor="middle" x="1094" y="-765" font-family="Helvetica,sans-Serif" font-size="10.00">_dimension</text>
</a>
</g>
</g>
<!-- Node7&#45;&gt;Node11 -->
<g id="edge12_Node000007_Node000011" class="edge">
<title>Node7&#45;&gt;Node11</title>
<g id="a_edge12_Node000007_Node000011"><a xlink:title=" ">
<path fill="none" stroke="#63b8ff" d="M699.79,-716.09C723.9,-723.69 754.3,-732.45 782,-738 864.01,-754.43 959.84,-763.76 1023.22,-768.58"/>
<polygon fill="#63b8ff" stroke="#63b8ff" points="1023.26,-772.1 1033.49,-769.35 1023.78,-765.11 1023.26,-772.1"/>
</a>
</g>
</g>
<!-- Node7&#45;&gt;Node12 -->
<g id="edge13_Node000007_Node000012" class="edge">
<title>Node7&#45;&gt;Node12</title>
<g id="a_edge13_Node000007_Node000012"><a xlink:title=" ">
<path fill="none" stroke="#63b8ff" d="M692.74,-716.11C709.51,-723.4 729.2,-732.78 746,-743 763.32,-753.54 763.83,-762.01 782,-771 791.43,-775.67 801.88,-779.51 812.23,-782.64"/>
<polygon fill="#63b8ff" stroke="#63b8ff" points="811.52,-786.07 822.1,-785.42 813.43,-779.34 811.52,-786.07"/>
</a>
</g>
</g>
<!-- Node8&#45;&gt;Node6 -->
<g id="edge9_Node000008_Node000006" class="edge">
<title>Node8&#45;&gt;Node6</title>
<g id="a_edge9_Node000008_Node000006"><a xlink:title=" ">
<path fill="none" stroke="#63b8ff" d="M938.78,-710.5C1001.69,-719.96 1100.54,-735.03 1186,-749 1206.16,-752.3 1227.94,-755.99 1248.14,-759.48"/>
<polygon fill="#63b8ff" stroke="#63b8ff" points="1247.78,-762.97 1258.23,-761.22 1248.97,-756.07 1247.78,-762.97"/>
</a>
</g>
</g>
<!-- Node8&#45;&gt;Node8 -->
<g id="edge8_Node000008_Node000008" class="edge">
<title>Node8&#45;&gt;Node8</title>
<g id="a_edge8_Node000008_Node000008"><a xlink:title=" ">
<path fill="none" stroke="#63b8ff" d="M840.09,-710.58C823.6,-719.23 834.9,-728.5 874,-728.5 902.1,-728.5 915.85,-723.71 915.23,-717.81"/>
<polygon fill="#63b8ff" stroke="#63b8ff" points="917.48,-715.12 907.91,-710.58 912.57,-720.1 917.48,-715.12"/>
</a>
</g>
</g>
<!-- Node8&#45;&gt;Node9 -->
<g id="edge10_Node000008_Node000009" class="edge">
<title>Node8&#45;&gt;Node9</title>
<g id="a_edge10_Node000008_Node000009"><a xlink:title=" ">
<path fill="none" stroke="#63b8ff" d="M944.87,-691.4C952.27,-688.94 959.47,-685.86 966,-682 1018.22,-651.14 1059.55,-590.99 1079.66,-557.66"/>
<polygon fill="#63b8ff" stroke="#63b8ff" points="1082.69,-559.41 1084.76,-549.02 1076.66,-555.85 1082.69,-559.41"/>
</a>
</g>
</g>
<!-- Node12&#45;&gt;Node11 -->
<g id="edge14_Node000012_Node000011" class="edge">
<title>Node12&#45;&gt;Node11</title>
<g id="a_edge14_Node000012_Node000011"><a xlink:title=" ">
<path fill="none" stroke="#63b8ff" d="M959.28,-786.49C980.4,-784.36 1002.82,-782.1 1023.15,-780.05"/>
<polygon fill="#63b8ff" stroke="#63b8ff" points="1023.65,-783.52 1033.25,-779.03 1022.95,-776.55 1023.65,-783.52"/>
</a>
</g>
</g>
<!-- Node13&#45;&gt;Node13 -->
<g id="edge17_Node000013_Node000013" class="edge">
<title>Node13&#45;&gt;Node13</title>
<g id="a_edge17_Node000013_Node000013"><a xlink:title=" ">
<path fill="none" stroke="#63b8ff" d="M840.09,-434.58C823.6,-443.23 834.9,-452.5 874,-452.5 902.1,-452.5 915.85,-447.71 915.23,-441.81"/>
<polygon fill="#63b8ff" stroke="#63b8ff" points="917.48,-439.12 907.91,-434.58 912.57,-444.1 917.48,-439.12"/>
</a>
</g>
</g>
<!-- Node14&#45;&gt;Node6 -->
<g id="edge21_Node000014_Node000006" class="edge">
<title>Node14&#45;&gt;Node6</title>
<g id="a_edge21_Node000014_Node000006"><a xlink:title=" ">
<path fill="none" stroke="#63b8ff" d="M522.63,-616.03C581.32,-617.08 669.39,-618.99 746,-622 843.85,-625.85 870.18,-613.81 966,-634 1068.26,-655.54 1088.64,-679.03 1186,-717 1216.98,-729.08 1251.67,-743.06 1278.65,-754.03"/>
<polygon fill="#63b8ff" stroke="#63b8ff" points="1277.63,-757.39 1288.21,-757.92 1280.27,-750.91 1277.63,-757.39"/>
</a>
</g>
</g>
<!-- Node14&#45;&gt;Node7 -->
<g id="edge23_Node000014_Node000007" class="edge">
<title>Node14&#45;&gt;Node7</title>
<g id="a_edge23_Node000014_Node000007"><a xlink:title=" ">
<path fill="none" stroke="#63b8ff" d="M478.28,-624.53C509.73,-638.3 568.55,-664.04 609.19,-681.83"/>
<polygon fill="#63b8ff" stroke="#63b8ff" points="608.03,-685.14 618.6,-685.94 610.84,-678.73 608.03,-685.14"/>
</a>
</g>
</g>
<!-- Node14&#45;&gt;Node9 -->
<g id="edge24_Node000014_Node000009" class="edge">
<title>Node14&#45;&gt;Node9</title>
<g id="a_edge24_Node000014_Node000009"><a xlink:title=" ">
<path fill="none" stroke="#63b8ff" d="M471.12,-605.4C490.82,-593.03 527.43,-572.06 562,-563 719.31,-521.78 911.52,-523.56 1016.13,-528.67"/>
<polygon fill="#63b8ff" stroke="#63b8ff" points="1016.12,-532.18 1026.29,-529.19 1016.48,-525.19 1016.12,-532.18"/>
</a>
</g>
</g>
<!-- Node14&#45;&gt;Node10 -->
<g id="edge22_Node000014_Node000010" class="edge">
<title>Node14&#45;&gt;Node10</title>
<g id="a_edge22_Node000014_Node000010"><a xlink:title=" ">
<path fill="none" stroke="#63b8ff" d="M522.96,-621.86C600.76,-629.89 728.87,-643.12 806.64,-651.15"/>
<polygon fill="#63b8ff" stroke="#63b8ff" points="806.49,-654.65 816.8,-652.2 807.21,-647.69 806.49,-654.65"/>
</a>
</g>
</g>
<!-- Node15&#45;&gt;Node12 -->
<g id="edge55_Node000015_Node000012" class="edge">
<title>Node15&#45;&gt;Node12</title>
<g id="a_edge55_Node000015_Node000012"><a xlink:title=" ">
<path fill="none" stroke="#63b8ff" d="M300.47,-649.54C315.43,-655.96 334.33,-665.38 349,-677 368.54,-692.48 363.29,-707.76 385,-720 508.22,-789.43 675.34,-800.52 778.57,-799.63"/>
<polygon fill="#63b8ff" stroke="#63b8ff" points="778.71,-803.12 788.67,-799.5 778.62,-796.13 778.71,-803.12"/>
</a>
</g>
</g>
<!-- Node15&#45;&gt;Node15 -->
<g id="edge26_Node000015_Node000015" class="edge">
<title>Node15&#45;&gt;Node15</title>
<g id="a_edge26_Node000015_Node000015"><a xlink:title=" ">
<path fill="none" stroke="#63b8ff" d="M246.76,-649.58C233.26,-658.23 242.51,-667.5 274.5,-667.5 295.99,-667.5 307.22,-663.32 308.18,-657.95"/>
<polygon fill="#63b8ff" stroke="#63b8ff" points="310.89,-655.71 302.24,-649.58 305.18,-659.76 310.89,-655.71"/>
</a>
</g>
</g>
<!-- Node16 -->
<g id="Node000016" class="node">
<title>Node16</title>
<g id="a_Node000016"><a xlink:href="namespacewmtk_1_1simplex.html#a50d0026adbac4883ab00460ada1c1cfe" target="_top" xlink:title=" ">
<polygon fill="white" stroke="#666666" points="526,-348.5 385,-348.5 385,-329.5 526,-329.5 526,-348.5"/>
<text text-anchor="middle" x="455.5" y="-336.5" font-family="Helvetica,sans-Serif" font-size="10.00">wmtk::simplex::link_slow</text>
</a>
</g>
</g>
<!-- Node15&#45;&gt;Node16 -->
<g id="edge27_Node000015_Node000016" class="edge">
<title>Node15&#45;&gt;Node16</title>
<g id="a_edge27_Node000015_Node000016"><a xlink:title=" ">
<path fill="none" stroke="#63b8ff" d="M281.25,-630.33C306.71,-587.52 409.46,-414.74 443.49,-357.51"/>
<polygon fill="#63b8ff" stroke="#63b8ff" points="446.58,-359.17 448.68,-348.79 440.56,-355.6 446.58,-359.17"/>
</a>
</g>
</g>
<!-- Node16&#45;&gt;Node13 -->
<g id="edge51_Node000016_Node000013" class="edge">
<title>Node16&#45;&gt;Node13</title>
<g id="a_edge51_Node000016_Node000013"><a xlink:title=" ">
<path fill="none" stroke="#63b8ff" d="M467.53,-348.75C485.72,-364.15 523.82,-393.62 562,-406 641.62,-431.8 738.6,-433.36 802.87,-430.55"/>
<polygon fill="#63b8ff" stroke="#63b8ff" points="803.08,-434.04 812.9,-430.06 802.74,-427.05 803.08,-434.04"/>
</a>
</g>
</g>
<!-- Node17 -->
<g id="Node000017" class="node">
<title>Node17</title>
<g id="a_Node000017"><a xlink:href="classwmtk_1_1simplex_1_1_simplex_collection.html#a1e7079b3b75f70dd28c524556cab76cf" target="_top" xlink:title="Add simplex to the collection.">
<polygon fill="white" stroke="#666666" points="1430,-241.5 1222,-241.5 1222,-222.5 1430,-222.5 1430,-241.5"/>
<text text-anchor="middle" x="1326" y="-229.5" font-family="Helvetica,sans-Serif" font-size="10.00">wmtk::simplex::SimplexCollection::add</text>
</a>
</g>
</g>
<!-- Node16&#45;&gt;Node17 -->
<g id="edge28_Node000016_Node000017" class="edge">
<title>Node16&#45;&gt;Node17</title>
<g id="a_edge28_Node000016_Node000017"><a xlink:title=" ">
<path fill="none" stroke="#63b8ff" d="M526.13,-343.13C696.59,-352.81 1125.34,-374.56 1186,-352 1241.27,-331.44 1289.24,-277.94 1311.6,-249.84"/>
<polygon fill="#63b8ff" stroke="#63b8ff" points="1314.57,-251.72 1317.94,-241.68 1309.04,-247.43 1314.57,-251.72"/>
</a>
</g>
</g>
<!-- Node18 -->
<g id="Node000018" class="node">
<title>Node18</title>
<g id="a_Node000018"><a xlink:href="namespacewmtk_1_1simplex.html#a2ed8f83fbda4dc05306bfe8d2ce7ab94" target="_top" xlink:title="The closed star contains the input simplex, all its top dimension cofaces, and their faces.">
<polygon fill="white" stroke="#666666" points="729.5,-256.5 578.5,-256.5 578.5,-237.5 729.5,-237.5 729.5,-256.5"/>
<text text-anchor="middle" x="654" y="-244.5" font-family="Helvetica,sans-Serif" font-size="10.00">wmtk::simplex::closed_star</text>
</a>
</g>
</g>
<!-- Node16&#45;&gt;Node18 -->
<g id="edge29_Node000016_Node000018" class="edge">
<title>Node16&#45;&gt;Node18</title>
<g id="a_edge29_Node000016_Node000018"><a xlink:title=" ">
<path fill="none" stroke="#63b8ff" d="M475.44,-329.35C496.46,-318.72 531.46,-301.23 562,-287 581.53,-277.9 603.66,-268.16 621.21,-260.57"/>
<polygon fill="#63b8ff" stroke="#63b8ff" points="622.64,-263.76 630.44,-256.59 619.87,-257.33 622.64,-263.76"/>
</a>
</g>
</g>
<!-- Node16&#45;&gt;Node26 -->
<g id="edge53_Node000016_Node000026" class="edge">
<title>Node16&#45;&gt;Node26</title>
<g id="a_edge53_Node000016_Node000026"><a xlink:title=" ">
<path fill="none" stroke="#63b8ff" d="M462.85,-329.29C477.52,-307.65 516.09,-255.32 562,-229 634.95,-187.18 686.09,-244 746,-185 792.08,-139.62 737.62,-91.05 782,-44 785.01,-40.81 788.36,-37.97 791.97,-35.44"/>
<polygon fill="#63b8ff" stroke="#63b8ff" points="794.04,-38.28 800.77,-30.09 790.4,-32.3 794.04,-38.28"/>
</a>
</g>
</g>
<!-- Node27 -->
<g id="Node000027" class="node">
<title>Node27</title>
<g id="a_Node000027"><a xlink:href="classwmtk_1_1simplex_1_1_simplex_collection.html#ab318c99d54327383ff1b985bed043f3a" target="_top" xlink:title="Sort simplex vector and remove duplicates.">
<polygon fill="white" stroke="#666666" points="1186,-343 1002,-343 1002,-313 1186,-313 1186,-343"/>
<text text-anchor="start" x="1010" y="-331" font-family="Helvetica,sans-Serif" font-size="10.00">wmtk::simplex::SimplexCollection</text>
<text text-anchor="middle" x="1094" y="-320" font-family="Helvetica,sans-Serif" font-size="10.00">::sort_and_clean</text>
</a>
</g>
</g>
<!-- Node16&#45;&gt;Node27 -->
<g id="edge54_Node000016_Node000027" class="edge">
<title>Node16&#45;&gt;Node27</title>
<g id="a_edge54_Node000016_Node000027"><a xlink:title=" ">
<path fill="none" stroke="#63b8ff" d="M517.73,-329.48C532.21,-327.62 547.62,-325.95 562,-325 711.27,-315.14 884.64,-318.98 991.6,-323.12"/>
<polygon fill="#63b8ff" stroke="#63b8ff" points="991.61,-326.63 1001.74,-323.52 991.89,-319.63 991.61,-326.63"/>
</a>
</g>
</g>
<!-- Node31 -->
<g id="Node000031" class="node">
<title>Node31</title>
<g id="a_Node000031"><a xlink:href="classwmtk_1_1simplex_1_1_simplex_collection.html#a592a38f5119ed654001d88d032bcea9c" target="_top" xlink:title="Get intersection of two simplex collections.">
<polygon fill="white" stroke="#666666" points="746,-397 562,-397 562,-367 746,-367 746,-397"/>
<text text-anchor="start" x="570" y="-385" font-family="Helvetica,sans-Serif" font-size="10.00">wmtk::simplex::SimplexCollection</text>
<text text-anchor="middle" x="654" y="-374" font-family="Helvetica,sans-Serif" font-size="10.00">::get_intersection</text>
</a>
</g>
</g>
<!-- Node16&#45;&gt;Node31 -->
<g id="edge52_Node000016_Node000031" class="edge">
<title>Node16&#45;&gt;Node31</title>
<g id="a_edge52_Node000016_Node000031"><a xlink:title=" ">
<path fill="none" stroke="#63b8ff" d="M500.11,-348.54C521.97,-353.33 549.12,-359.27 574.45,-364.81"/>
<polygon fill="#63b8ff" stroke="#63b8ff" points="573.91,-368.28 584.42,-366.99 575.4,-361.44 573.91,-368.28"/>
</a>
</g>
</g>
<!-- Node18&#45;&gt;Node9 -->
<g id="edge50_Node000018_Node000009" class="edge">
<title>Node18&#45;&gt;Node9</title>
<g id="a_edge50_Node000018_Node000009"><a xlink:title=" ">
<path fill="none" stroke="#63b8ff" d="M679.46,-256.51C733.93,-278.32 868.14,-335.61 966,-407 1008.69,-438.14 1050.51,-483.71 1073.91,-510.95"/>
<polygon fill="#63b8ff" stroke="#63b8ff" points="1071.42,-513.43 1080.56,-518.78 1076.76,-508.9 1071.42,-513.43"/>
</a>
</g>
</g>
<!-- Node18&#45;&gt;Node12 -->
<g id="edge49_Node000018_Node000012" class="edge">
<title>Node18&#45;&gt;Node12</title>
<g id="a_edge49_Node000018_Node000012"><a xlink:title=" ">
<path fill="none" stroke="#63b8ff" d="M666.43,-256.6C686.58,-274.28 727.97,-314.22 746,-358 810.59,-514.87 692.92,-593.63 782,-738 794.37,-758.04 816.69,-772.18 836.13,-781.37"/>
<polygon fill="#63b8ff" stroke="#63b8ff" points="834.82,-784.62 845.38,-785.48 837.67,-778.22 834.82,-784.62"/>
</a>
</g>
</g>
<!-- Node18&#45;&gt;Node13 -->
<g id="edge31_Node000018_Node000013" class="edge">
<title>Node18&#45;&gt;Node13</title>
<g id="a_edge31_Node000018_Node000013"><a xlink:title=" ">
<path fill="none" stroke="#63b8ff" d="M665.28,-256.51C686.58,-276.09 737.24,-322.07 782,-358 804.98,-376.45 832.32,-396.32 851,-409.58"/>
<polygon fill="#63b8ff" stroke="#63b8ff" points="848.98,-412.44 859.16,-415.36 853.02,-406.73 848.98,-412.44"/>
</a>
</g>
</g>
<!-- Node18&#45;&gt;Node17 -->
<g id="edge30_Node000018_Node000017" class="edge">
<title>Node18&#45;&gt;Node17</title>
<g id="a_edge30_Node000018_Node000017"><a xlink:title=" ">
<path fill="none" stroke="#63b8ff" d="M718.46,-237.48C728.59,-233.67 738.26,-228.36 746,-221 782.03,-186.69 741.56,-143.98 782,-115 854.98,-62.71 1102.33,-82.45 1186,-115 1206.23,-122.87 1205.58,-133.8 1222,-148 1250.22,-172.41 1283.89,-199.5 1304.86,-216.14"/>
<polygon fill="#63b8ff" stroke="#63b8ff" points="1302.75,-218.93 1312.76,-222.39 1307.09,-213.44 1302.75,-218.93"/>
</a>
</g>
</g>
<!-- Node19 -->
<g id="Node000019" class="node">
<title>Node19</title>
<g id="a_Node000019"><a xlink:href="classwmtk_1_1_mesh.html#a8cc8686f0688613806f43720b6db49e7" target="_top" xlink:title="check validity of tuple including its hash">
<polygon fill="white" stroke="#666666" points="934,-191.5 814,-191.5 814,-172.5 934,-172.5 934,-191.5"/>
<text text-anchor="middle" x="874" y="-179.5" font-family="Helvetica,sans-Serif" font-size="10.00">wmtk::Mesh::is_valid</text>
</a>
</g>
</g>
<!-- Node18&#45;&gt;Node19 -->
<g id="edge32_Node000018_Node000019" class="edge">
<title>Node18&#45;&gt;Node19</title>
<g id="a_edge32_Node000018_Node000019"><a xlink:title=" ">
<path fill="none" stroke="#63b8ff" d="M701.7,-237.45C716.19,-233.76 732.02,-228.96 746,-223 763.25,-215.64 764.57,-207.91 782,-201 788.99,-198.23 796.45,-195.84 803.98,-193.78"/>
<polygon fill="#63b8ff" stroke="#63b8ff" points="805.05,-197.12 813.88,-191.26 803.32,-190.34 805.05,-197.12"/>
</a>
</g>
</g>
<!-- Node22 -->
<g id="Node000022" class="node">
<title>Node22</title>
<g id="a_Node000022"><a xlink:href="namespacewmtk.html#a441d6ad4f19569c7d4946e743da1a925" target="_top" xlink:title=" ">
<polygon fill="white" stroke="#666666" points="1387,-139 1265,-139 1265,-109 1387,-109 1387,-139"/>
<text text-anchor="start" x="1273" y="-127" font-family="Helvetica,sans-Serif" font-size="10.00">wmtk::log_and_throw</text>
<text text-anchor="middle" x="1326" y="-116" font-family="Helvetica,sans-Serif" font-size="10.00">_error</text>
</a>
</g>
</g>
<!-- Node18&#45;&gt;Node22 -->
<g id="edge36_Node000018_Node000022" class="edge">
<title>Node18&#45;&gt;Node22</title>
<g id="a_edge36_Node000018_Node000022"><a xlink:title=" ">
<path fill="none" stroke="#63b8ff" d="M720.35,-237.43C729.91,-233.61 738.91,-228.31 746,-221 791.34,-174.28 730.62,-118.98 782,-79 789.96,-72.81 1160.36,-77.01 1186,-81 1217.23,-85.87 1251.14,-96.25 1277.65,-105.59"/>
<polygon fill="#63b8ff" stroke="#63b8ff" points="1276.47,-108.89 1287.06,-108.98 1278.84,-102.3 1276.47,-108.89"/>
</a>
</g>
</g>
<!-- Node25 -->
<g id="Node000025" class="node">
<title>Node25</title>
<g id="a_Node000025"><a xlink:href="classwmtk_1_1simplex_1_1_simplex_collection.html#a1973c83eede96b64f422049c6fc52976" target="_top" xlink:title=" ">
<polygon fill="white" stroke="#666666" points="966,-154 782,-154 782,-124 966,-124 966,-154"/>
<text text-anchor="start" x="790" y="-142" font-family="Helvetica,sans-Serif" font-size="10.00">wmtk::simplex::SimplexCollection</text>
<text text-anchor="middle" x="874" y="-131" font-family="Helvetica,sans-Serif" font-size="10.00">::reserve</text>
</a>
</g>
</g>
<!-- Node18&#45;&gt;Node25 -->
<g id="edge39_Node000018_Node000025" class="edge">
<title>Node18&#45;&gt;Node25</title>
<g id="a_edge39_Node000018_Node000025"><a xlink:title=" ">
<path fill="none" stroke="#63b8ff" d="M717.67,-237.35C727.77,-233.92 737.64,-229.28 746,-223 770.87,-204.33 757.13,-181.67 782,-163 783.86,-161.6 785.79,-160.29 787.78,-159.05"/>
<polygon fill="#63b8ff" stroke="#63b8ff" points="789.76,-161.96 796.86,-154.1 786.41,-155.82 789.76,-161.96"/>
</a>
</g>
</g>
<!-- Node18&#45;&gt;Node26 -->
<g id="edge40_Node000018_Node000026" class="edge">
<title>Node18&#45;&gt;Node26</title>
<g id="a_edge40_Node000018_Node000026"><a xlink:title=" ">
<path fill="none" stroke="#63b8ff" d="M725.16,-237.35C732.96,-233.85 740.17,-229.18 746,-223 801.65,-163.94 727.86,-104.45 782,-44 784.86,-40.8 788.08,-37.96 791.54,-35.42"/>
<polygon fill="#63b8ff" stroke="#63b8ff" points="793.45,-38.36 800.03,-30.06 789.71,-32.44 793.45,-38.36"/>
</a>
</g>
</g>
<!-- Node18&#45;&gt;Node27 -->
<g id="edge41_Node000018_Node000027" class="edge">
<title>Node18&#45;&gt;Node27</title>
<g id="a_edge41_Node000018_Node000027"><a xlink:title=" ">
<path fill="none" stroke="#63b8ff" d="M729.53,-254.01C792.98,-260.88 886.24,-273.1 966,-292 982.41,-295.89 985.84,-299.18 1002,-304 1009,-306.09 1016.32,-308.18 1023.65,-310.2"/>
<polygon fill="#63b8ff" stroke="#63b8ff" points="1023.05,-313.67 1033.62,-312.92 1024.89,-306.91 1023.05,-313.67"/>
</a>
</g>
</g>
<!-- Node28 -->
<g id="Node000028" class="node">
<title>Node28</title>
<g id="a_Node000028"><a xlink:href="namespacewmtk_1_1simplex.html#a87de7137d8d21f1643dd604d73e8f765" target="_top" xlink:title="Get all top dimension cofaces of the given simplex.">
<polygon fill="white" stroke="#666666" points="932,-240 816,-240 816,-210 932,-210 932,-240"/>
<text text-anchor="start" x="824" y="-228" font-family="Helvetica,sans-Serif" font-size="10.00">wmtk::simplex::top</text>
<text text-anchor="middle" x="874" y="-217" font-family="Helvetica,sans-Serif" font-size="10.00">_dimension_cofaces</text>
</a>
</g>
</g>
<!-- Node18&#45;&gt;Node28 -->
<g id="edge42_Node000018_Node000028" class="edge">
<title>Node18&#45;&gt;Node28</title>
<g id="a_edge42_Node000018_Node000028"><a xlink:title=" ">
<path fill="none" stroke="#63b8ff" d="M729.72,-239.46C754.42,-236.97 781.73,-234.21 805.82,-231.78"/>
<polygon fill="#63b8ff" stroke="#63b8ff" points="806.34,-235.25 815.94,-230.76 805.64,-228.28 806.34,-235.25"/>
</a>
</g>
</g>
<!-- Node20 -->
<g id="Node000020" class="node">
<title>Node20</title>
<g id="a_Node000020"><a xlink:href="classwmtk_1_1_tuple.html#a0023f575be92cd5ceeeaaaa3762ea06d" target="_top" xlink:title="Checks if a tuple is &quot;null&quot;. This merely implies the global index is &#45;1.">
<polygon fill="white" stroke="#666666" points="1150.5,-143.5 1037.5,-143.5 1037.5,-124.5 1150.5,-124.5 1150.5,-143.5"/>
<text text-anchor="middle" x="1094" y="-131.5" font-family="Helvetica,sans-Serif" font-size="10.00">wmtk::Tuple::is_null</text>
</a>
</g>
</g>
<!-- Node19&#45;&gt;Node20 -->
<g id="edge33_Node000019_Node000020" class="edge">
<title>Node19&#45;&gt;Node20</title>
<g id="a_edge33_Node000019_Node000020"><a xlink:title=" ">
<path fill="none" stroke="#63b8ff" d="M924.78,-172.46C938.22,-169.65 952.71,-166.41 966,-163 982.21,-158.84 985.77,-156.07 1002,-152 1010.95,-149.75 1020.45,-147.61 1029.8,-145.64"/>
<polygon fill="#63b8ff" stroke="#63b8ff" points="1030.78,-149.01 1039.87,-143.57 1029.37,-142.16 1030.78,-149.01"/>
</a>
</g>
</g>
<!-- Node21 -->
<g id="Node000021" class="node">
<title>Node21</title>
<g id="a_Node000021"><a xlink:href="classwmtk_1_1_mesh.html#ade176d345902d97af8c5da04aa3a095b" target="_top" xlink:title=" ">
<polygon fill="white" stroke="#666666" points="1164,-180.5 1024,-180.5 1024,-161.5 1164,-161.5 1164,-180.5"/>
<text text-anchor="middle" x="1094" y="-168.5" font-family="Helvetica,sans-Serif" font-size="10.00">wmtk::Mesh::is_removed</text>
</a>
</g>
</g>
<!-- Node19&#45;&gt;Node21 -->
<g id="edge34_Node000019_Node000021" class="edge">
<title>Node19&#45;&gt;Node21</title>
<g id="a_edge34_Node000019_Node000021"><a xlink:title=" ">
<path fill="none" stroke="#63b8ff" d="M934.28,-179.01C958.66,-177.78 987.26,-176.34 1013.41,-175.02"/>
<polygon fill="#63b8ff" stroke="#63b8ff" points="1013.87,-178.5 1023.68,-174.5 1013.52,-171.51 1013.87,-178.5"/>
</a>
</g>
</g>
<!-- Node21&#45;&gt;Node21 -->
<g id="edge35_Node000021_Node000021" class="edge">
<title>Node21&#45;&gt;Node21</title>
<g id="a_edge35_Node000021_Node000021"><a xlink:title=" ">
<path fill="none" stroke="#63b8ff" d="M1060.09,-180.58C1043.6,-189.23 1054.9,-198.5 1094,-198.5 1122.1,-198.5 1135.85,-193.71 1135.23,-187.81"/>
<polygon fill="#63b8ff" stroke="#63b8ff" points="1137.48,-185.12 1127.91,-180.58 1132.57,-190.1 1137.48,-185.12"/>
</a>
</g>
</g>
<!-- Node23 -->
<g id="Node000023" class="node">
<title>Node23</title>
<g id="a_Node000023"><a xlink:href="namespacewmtk.html#a6a35f11c12436093d26fdd8be6fecc06" target="_top" xlink:title="Retrieves the current logger.">
<polygon fill="white" stroke="#666666" points="1547,-133.5 1466,-133.5 1466,-114.5 1547,-114.5 1547,-133.5"/>
<text text-anchor="middle" x="1506.5" y="-121.5" font-family="Helvetica,sans-Serif" font-size="10.00">wmtk::logger</text>
</a>
</g>
</g>
<!-- Node22&#45;&gt;Node23 -->
<g id="edge37_Node000022_Node000023" class="edge">
<title>Node22&#45;&gt;Node23</title>
<g id="a_edge37_Node000022_Node000023"><a xlink:title=" ">
<path fill="none" stroke="#63b8ff" d="M1387.43,-124C1409.68,-124 1434.61,-124 1455.81,-124"/>
<polygon fill="#63b8ff" stroke="#63b8ff" points="1455.89,-127.5 1465.89,-124 1455.89,-120.5 1455.89,-127.5"/>
</a>
</g>
</g>
<!-- Node24 -->
<g id="Node000024" class="node">
<title>Node24</title>
<g id="a_Node000024"><a xlink:href="namespacewmtk.html#a3daa7951a5f8b78cf4600dc047fcc180" target="_top" xlink:title="Setup a logger object to be used by WildmeshToolkit.">
<polygon fill="white" stroke="#666666" points="1684,-133.5 1583,-133.5 1583,-114.5 1684,-114.5 1684,-133.5"/>
<text text-anchor="middle" x="1633.5" y="-121.5" font-family="Helvetica,sans-Serif" font-size="10.00">wmtk::set_logger</text>
</a>
</g>
</g>
<!-- Node23&#45;&gt;Node24 -->
<g id="edge38_Node000023_Node000024" class="edge">
<title>Node23&#45;&gt;Node24</title>
<g id="a_edge38_Node000023_Node000024"><a xlink:title=" ">
<path fill="none" stroke="#63b8ff" d="M1547.05,-124C1555.17,-124 1563.9,-124 1572.55,-124"/>
<polygon fill="#63b8ff" stroke="#63b8ff" points="1572.65,-127.5 1582.65,-124 1572.65,-120.5 1572.65,-127.5"/>
</a>
</g>
</g>
<!-- Node28&#45;&gt;Node27 -->
<g id="edge44_Node000028_Node000027" class="edge">
<title>Node28&#45;&gt;Node27</title>
<g id="a_edge44_Node000028_Node000027"><a xlink:title=" ">
<path fill="none" stroke="#63b8ff" d="M932.05,-237.04C943.96,-241.18 955.93,-246.7 966,-254 988.16,-270.08 979.44,-288.49 1002,-304 1004.26,-305.55 1006.61,-307 1009.03,-308.36"/>
<polygon fill="#63b8ff" stroke="#63b8ff" points="1007.58,-311.55 1018.09,-312.88 1010.7,-305.28 1007.58,-311.55"/>
</a>
</g>
</g>
<!-- Node29 -->
<g id="Node000029" class="node">
<title>Node29</title>
<g id="a_Node000029"><a xlink:href="classwmtk_1_1simplex_1_1_simplex_collection.html#a0d0c1765c4ed8ffd0f163661111bfb08" target="_top" xlink:title=" ">
<polygon fill="white" stroke="#666666" points="1186,-295 1002,-295 1002,-265 1186,-265 1186,-295"/>
<text text-anchor="start" x="1010" y="-283" font-family="Helvetica,sans-Serif" font-size="10.00">wmtk::simplex::SimplexCollection</text>
<text text-anchor="middle" x="1094" y="-272" font-family="Helvetica,sans-Serif" font-size="10.00">::mesh</text>
</a>
</g>
</g>
<!-- Node28&#45;&gt;Node29 -->
<g id="edge43_Node000028_Node000029" class="edge">
<title>Node28&#45;&gt;Node29</title>
<g id="a_edge43_Node000028_Node000029"><a xlink:title=" ">
<path fill="none" stroke="#63b8ff" d="M932.28,-239.45C960.27,-246.51 994.19,-255.07 1023.64,-262.5"/>
<polygon fill="#63b8ff" stroke="#63b8ff" points="1022.89,-265.92 1033.44,-264.97 1024.6,-259.13 1022.89,-265.92"/>
</a>
</g>
</g>
<!-- Node30 -->
<g id="Node000030" class="node">
<title>Node30</title>
<g id="a_Node000030"><a xlink:href="namespacewmtk_1_1simplex.html#a0101f27eb2ad82814390b92ab1a4d1a0" target="_top" xlink:title=" ">
<polygon fill="white" stroke="#666666" points="1169.5,-247 1018.5,-247 1018.5,-217 1169.5,-217 1169.5,-247"/>
<text text-anchor="start" x="1026.5" y="-235" font-family="Helvetica,sans-Serif" font-size="10.00">wmtk::simplex::top</text>
<text text-anchor="middle" x="1094" y="-224" font-family="Helvetica,sans-Serif" font-size="10.00">_dimension_cofaces_tuples</text>
</a>
</g>
</g>
<!-- Node28&#45;&gt;Node30 -->
<g id="edge45_Node000028_Node000030" class="edge">
<title>Node28&#45;&gt;Node30</title>
<g id="a_edge45_Node000028_Node000030"><a xlink:title=" ">
<path fill="none" stroke="#63b8ff" d="M932.28,-226.84C955.55,-227.59 982.93,-228.47 1008.42,-229.28"/>
<polygon fill="#63b8ff" stroke="#63b8ff" points="1008.35,-232.78 1018.46,-229.61 1008.58,-225.79 1008.35,-232.78"/>
</a>
</g>
</g>
<!-- Node30&#45;&gt;Node6 -->
<g id="edge48_Node000030_Node000006" class="edge">
<title>Node30&#45;&gt;Node6</title>
<g id="a_edge48_Node000030_Node000006"><a xlink:title=" ">
<path fill="none" stroke="#63b8ff" d="M1169.7,-244.35C1175.69,-247.45 1181.25,-251.27 1186,-256 1258.08,-327.74 1308.5,-654.62 1321.62,-748.01"/>
<polygon fill="#63b8ff" stroke="#63b8ff" points="1318.16,-748.55 1323,-757.98 1325.09,-747.59 1318.16,-748.55"/>
</a>
</g>
</g>
<!-- Node30&#45;&gt;Node17 -->
<g id="edge46_Node000030_Node000017" class="edge">
<title>Node30&#45;&gt;Node17</title>
<g id="a_edge46_Node000030_Node000017"><a xlink:title=" ">
<path fill="none" stroke="#63b8ff" d="M1169.67,-232C1183.08,-232 1197.32,-232 1211.53,-232"/>
<polygon fill="#63b8ff" stroke="#63b8ff" points="1211.86,-235.5 1221.86,-232 1211.86,-228.5 1211.86,-235.5"/>
</a>
</g>
</g>
<!-- Node30&#45;&gt;Node22 -->
<g id="edge47_Node000030_Node000022" class="edge">
<title>Node30&#45;&gt;Node22</title>
<g id="a_edge47_Node000030_Node000022"><a xlink:title=" ">
<path fill="none" stroke="#63b8ff" d="M1161.36,-216.88C1169.78,-214.27 1178.18,-211.31 1186,-208 1226.29,-190.93 1268.82,-163.68 1296.06,-144.87"/>
<polygon fill="#63b8ff" stroke="#63b8ff" points="1298.15,-147.68 1304.35,-139.09 1294.15,-141.94 1298.15,-147.68"/>
</a>
</g>
</g>
<!-- Node33&#45;&gt;Node3 -->
<g id="edge61_Node000033_Node000003" class="edge">
<title>Node33&#45;&gt;Node3</title>
<g id="a_edge61_Node000033_Node000003"><a xlink:title=" ">
<path fill="none" stroke="#63b8ff" d="M342.15,-960.94C353.68,-962.48 365.76,-964.1 377.54,-965.68"/>
<polygon fill="#63b8ff" stroke="#63b8ff" points="377.41,-969.2 387.79,-967.06 378.35,-962.26 377.41,-969.2"/>
</a>
</g>
</g>
</g>
</svg>
