<?xml version="1.0" encoding="UTF-8" standalone="no"?>
<!DOCTYPE svg PUBLIC "-//W3C//DTD SVG 1.1//EN"
 "http://www.w3.org/Graphics/SVG/1.1/DTD/svg11.dtd">
<!-- Generated by graphviz version 2.43.0 (0)
 -->
<!-- Title: wmtk::simplex::RawSimplex::opposite_face Pages: 1 -->
<!--zoomable 168 -->

<svg id="main" version="1.1" xmlns="http://www.w3.org/2000/svg" xmlns:xlink="http://www.w3.org/1999/xlink" xml:space="preserve" onload="init(evt)">
<style type="text/css"><![CDATA[
.node, .edge {opacity: 0.7;}
.node.selected, .edge.selected {opacity: 1;}
.edge:hover path { stroke: red; }
.edge:hover polygon { stroke: red; fill: red; }
]]></style>

<defs>
  <circle id="rim" cx="0" cy="0" r="7"/>
  <circle id="rim2" cx="0" cy="0" r="3.5"/>
  <g id="zoomPlus">
    <use xlink:href="#rim" fill="#404040"><set attributeName="fill" to="#808080" begin="zoomplus.mouseover" end="zoomplus.mouseout"/></use>
    <path d="M-4,0h8M0,-4v8" fill="none" stroke="white" stroke-width="1.5" pointer-events="none"/>
  </g>
  <g id="zoomMin">
    <use xlink:href="#rim" fill="#404040"><set attributeName="fill" to="#808080" begin="zoomminus.mouseover" end="zoomminus.mouseout"/></use>
    <path d="M-4,0h8" fill="none" stroke="white" stroke-width="1.5" pointer-events="none"/>
  </g>
  <g id="arrowUp" transform="translate(30 24)">
    <use xlink:href="#rim"/>
    <path pointer-events="none" fill="none" stroke="white" stroke-width="1.5" d="M0,-3.0v7 M-2.5,-0.5L0,-3.0L2.5,-0.5"/>
  </g>
  <g id="arrowRight" transform="rotate(90) translate(36 -43)">
    <use xlink:href="#rim"/>
    <path pointer-events="none" fill="none" stroke="white" stroke-width="1.5" d="M0,-3.0v7 M-2.5,-0.5L0,-3.0L2.5,-0.5"/>
  </g>
  <g id="arrowDown" transform="rotate(180) translate(-30 -48)">
    <use xlink:href="#rim"/>
    <path pointer-events="none" fill="none" stroke="white" stroke-width="1.5" d="M0,-3.0v7 M-2.5,-0.5L0,-3.0L2.5,-0.5"/>
  </g>
  <g id="arrowLeft" transform="rotate(270) translate(-36 17)">
    <use xlink:href="#rim"/>
    <path pointer-events="none" fill="none" stroke="white" stroke-width="1.5" d="M0,-3.0v7 M-2.5,-0.5L0,-3.0L2.5,-0.5"/>
  </g>
  <g id="resetDef">
    <use xlink:href="#rim2" fill="#404040"><set attributeName="fill" to="#808080" begin="reset.mouseover" end="reset.mouseout"/></use>
  </g>
</defs>
<script type="application/ecmascript">
var viewWidth = 548;
var viewHeight = 168;
var sectionId = 'dynsection-8';
</script>
<script type="application/ecmascript" xlink:href="svg.min.js"/>
<svg id="graph" class="graph">
<g id="viewport">
<title>wmtk::simplex::RawSimplex::opposite_face</title>
<!-- Node1 -->
<g id="Node000001" class="node">
<title>Node1</title>
<g id="a_Node000001"><a xlink:title="Get the face opposite to the given vertex.">
<polygon fill="#999999" stroke="#666666" points="156,-114 0,-114 0,-84 156,-84 156,-114"/>
<text text-anchor="start" x="8" y="-102" font-family="Helvetica,sans-Serif" font-size="10.00">wmtk::simplex::RawSimplex</text>
<text text-anchor="middle" x="78" y="-91" font-family="Helvetica,sans-Serif" font-size="10.00">::opposite_face</text>
</a>
</g>
</g>
<!-- Node2 -->
<g id="Node000002" class="node">
<title>Node2</title>
<g id="a_Node000002"><a xlink:href="classwmtk_1_1_mesh.html#a58243712dc3e0d258ad645e7b08870db" target="_top" xlink:title="return the global id of the Tuple of the given dimension">
<polygon fill="white" stroke="#666666" points="316,-152.5 224,-152.5 224,-133.5 316,-133.5 316,-152.5"/>
<text text-anchor="middle" x="270" y="-140.5" font-family="Helvetica,sans-Serif" font-size="10.00">wmtk::Mesh::id</text>
</a>
</g>
</g>
<!-- Node1&#45;&gt;Node2 -->
<g id="edge1_Node000001_Node000002" class="edge">
<title>Node1&#45;&gt;Node2</title>
<g id="a_edge1_Node000001_Node000002"><a xlink:title=" ">
<path fill="none" stroke="#63b8ff" d="M143.86,-114.02C168.11,-119.64 195.29,-125.93 218.1,-131.21"/>
<polygon fill="#63b8ff" stroke="#63b8ff" points="217.39,-134.64 227.92,-133.49 218.97,-127.82 217.39,-134.64"/>
</a>
</g>
</g>
<!-- Node4 -->
<g id="Node000004" class="node">
<title>Node4</title>
<g id="a_Node000004"><a xlink:href="classwmtk_1_1_mesh.html#a8cc8686f0688613806f43720b6db49e7" target="_top" xlink:title="check validity of tuple including its hash">
<polygon fill="white" stroke="#666666" points="330,-108.5 210,-108.5 210,-89.5 330,-89.5 330,-108.5"/>
<text text-anchor="middle" x="270" y="-96.5" font-family="Helvetica,sans-Serif" font-size="10.00">wmtk::Mesh::is_valid</text>
</a>
</g>
</g>
<!-- Node1&#45;&gt;Node4 -->
<g id="edge3_Node000001_Node000004" class="edge">
<title>Node1&#45;&gt;Node4</title>
<g id="a_edge3_Node000001_Node000004"><a xlink:title=" ">
<path fill="none" stroke="#63b8ff" d="M156.01,-99C170.49,-99 185.56,-99 199.79,-99"/>
<polygon fill="#63b8ff" stroke="#63b8ff" points="199.98,-102.5 209.98,-99 199.98,-95.5 199.98,-102.5"/>
</a>
</g>
</g>
<!-- Node7 -->
<g id="Node000007" class="node">
<title>Node7</title>
<g id="a_Node000007"><a xlink:href="classwmtk_1_1simplex_1_1_raw_simplex.html#a6e46386655e8ef03f18f33dd9a4ac911" target="_top" xlink:title="Get the face opposite to the given vertex.">
<polygon fill="white" stroke="#666666" points="348,-57 192,-57 192,-27 348,-27 348,-57"/>
<text text-anchor="start" x="200" y="-45" font-family="Helvetica,sans-Serif" font-size="10.00">wmtk::simplex::RawSimplex</text>
<text text-anchor="middle" x="270" y="-34" font-family="Helvetica,sans-Serif" font-size="10.00">::opposite_face</text>
</a>
</g>
</g>
<!-- Node1&#45;&gt;Node7 -->
<g id="edge7_Node000001_Node000007" class="edge">
<title>Node1&#45;&gt;Node7</title>
<g id="a_edge7_Node000001_Node000007"><a xlink:title=" ">
<path fill="none" stroke="#63b8ff" d="M129.42,-83.87C153.89,-76.53 183.46,-67.66 209.07,-59.98"/>
<polygon fill="#63b8ff" stroke="#63b8ff" points="210.1,-63.32 218.68,-57.1 208.09,-56.62 210.1,-63.32"/>
</a>
</g>
</g>
<!-- Node3 -->
<g id="Node000003" class="node">
<title>Node3</title>
<g id="a_Node000003"><a xlink:href="classwmtk_1_1_mesh.html#a6f6c3b9a1d738d05ec8d84cabfa5e4b4" target="_top" xlink:title="Internal utility to allow id to be virtual with a non&#45;virtual overload in derived &#45;Mesh classes.">
<polygon fill="white" stroke="#666666" points="526,-159.5 398,-159.5 398,-140.5 526,-140.5 526,-159.5"/>
<text text-anchor="middle" x="462" y="-147.5" font-family="Helvetica,sans-Serif" font-size="10.00">wmtk::Mesh::id_virtual</text>
</a>
</g>
</g>
<!-- Node2&#45;&gt;Node3 -->
<g id="edge2_Node000002_Node000003" class="edge">
<title>Node2&#45;&gt;Node3</title>
<g id="a_edge2_Node000002_Node000003"><a xlink:title=" ">
<path fill="none" stroke="#63b8ff" d="M316.03,-144.66C337.44,-145.45 363.59,-146.41 387.75,-147.3"/>
<polygon fill="#63b8ff" stroke="#63b8ff" points="387.84,-150.81 397.97,-147.68 388.1,-143.81 387.84,-150.81"/>
</a>
</g>
</g>
<!-- Node5 -->
<g id="Node000005" class="node">
<title>Node5</title>
<g id="a_Node000005"><a xlink:href="classwmtk_1_1_tuple.html#a0023f575be92cd5ceeeaaaa3762ea06d" target="_top" xlink:title="Checks if a tuple is &quot;null&quot;. This merely implies the global index is &#45;1.">
<polygon fill="white" stroke="#666666" points="518.5,-122.5 405.5,-122.5 405.5,-103.5 518.5,-103.5 518.5,-122.5"/>
<text text-anchor="middle" x="462" y="-110.5" font-family="Helvetica,sans-Serif" font-size="10.00">wmtk::Tuple::is_null</text>
</a>
</g>
</g>
<!-- Node4&#45;&gt;Node5 -->
<g id="edge4_Node000004_Node000005" class="edge">
<title>Node4&#45;&gt;Node5</title>
<g id="a_edge4_Node000004_Node000005"><a xlink:title=" ">
<path fill="none" stroke="#63b8ff" d="M330.08,-103.35C350.67,-104.87 373.91,-106.58 395.03,-108.14"/>
<polygon fill="#63b8ff" stroke="#63b8ff" points="394.98,-111.64 405.21,-108.89 395.49,-104.66 394.98,-111.64"/>
</a>
</g>
</g>
<!-- Node6 -->
<g id="Node000006" class="node">
<title>Node6</title>
<g id="a_Node000006"><a xlink:href="classwmtk_1_1_mesh.html#ade176d345902d97af8c5da04aa3a095b" target="_top" xlink:title=" ">
<polygon fill="white" stroke="#666666" points="532,-67.5 392,-67.5 392,-48.5 532,-48.5 532,-67.5"/>
<text text-anchor="middle" x="462" y="-55.5" font-family="Helvetica,sans-Serif" font-size="10.00">wmtk::Mesh::is_removed</text>
</a>
</g>
</g>
<!-- Node4&#45;&gt;Node6 -->
<g id="edge5_Node000004_Node000006" class="edge">
<title>Node4&#45;&gt;Node6</title>
<g id="a_edge5_Node000004_Node000006"><a xlink:title=" ">
<path fill="none" stroke="#63b8ff" d="M315.07,-89.49C342.43,-83.59 377.79,-75.96 406.85,-69.69"/>
<polygon fill="#63b8ff" stroke="#63b8ff" points="407.81,-73.06 416.84,-67.53 406.33,-66.22 407.81,-73.06"/>
</a>
</g>
</g>
<!-- Node6&#45;&gt;Node6 -->
<g id="edge6_Node000006_Node000006" class="edge">
<title>Node6&#45;&gt;Node6</title>
<g id="a_edge6_Node000006_Node000006"><a xlink:title=" ">
<path fill="none" stroke="#63b8ff" d="M432.41,-67.58C418.01,-76.23 427.88,-85.5 462,-85.5 485.46,-85.5 497.45,-81.12 497.98,-75.57"/>
<polygon fill="#63b8ff" stroke="#63b8ff" points="500.57,-73.21 491.59,-67.58 495.11,-77.58 500.57,-73.21"/>
</a>
</g>
</g>
<!-- Node8 -->
<g id="Node000008" class="node">
<title>Node8</title>
<g id="a_Node000008"><a xlink:href="classwmtk_1_1simplex_1_1_raw_simplex.html#a8d0562f5e777dd3b1b143028030c3010" target="_top" xlink:title=" ">
<polygon fill="white" stroke="#666666" points="540,-30 384,-30 384,0 540,0 540,-30"/>
<text text-anchor="start" x="392" y="-18" font-family="Helvetica,sans-Serif" font-size="10.00">wmtk::simplex::RawSimplex</text>
<text text-anchor="middle" x="462" y="-7" font-family="Helvetica,sans-Serif" font-size="10.00">::dimension</text>
</a>
</g>
</g>
<!-- Node7&#45;&gt;Node8 -->
<g id="edge8_Node000007_Node000008" class="edge">
<title>Node7&#45;&gt;Node8</title>
<g id="a_edge8_Node000007_Node000008"><a xlink:title=" ">
<path fill="none" stroke="#63b8ff" d="M348.01,-31.06C356.51,-29.85 365.21,-28.61 373.83,-27.39"/>
<polygon fill="#63b8ff" stroke="#63b8ff" points="374.48,-30.83 383.88,-25.96 373.49,-23.9 374.48,-30.83"/>
</a>
</g>
</g>
</g>
</svg>

<g id="navigator" transform="translate(0 0)" fill="#404254">
  <rect fill="#f2f5e9" fill-opacity="0.5" stroke="#606060" stroke-width=".5" x="0" y="0" width="60" height="60"/>
  <use id="zoomplus" xlink:href="#zoomPlus" x="17" y="9" onmousedown="handleZoom(evt,'in')"/>
  <use id="zoomminus" xlink:href="#zoomMin" x="42" y="9" onmousedown="handleZoom(evt,'out')"/>
  <use id="reset" xlink:href="#resetDef" x="30" y="36" onmousedown="handleReset()"/>
   <use id="arrowup" xlink:href="#arrowUp" x="0" y="0" onmousedown="handlePan(0,-1)"/>
  <use id="arrowright" xlink:href="#arrowRight" x="0" y="0" onmousedown="handlePan(1,0)"/>
  <use id="arrowdown" xlink:href="#arrowDown" x="0" y="0" onmousedown="handlePan(0,1)"/>
  <use id="arrowleft" xlink:href="#arrowLeft" x="0" y="0" onmousedown="handlePan(-1,0)"/>
</g>
<svg viewBox="0 0 15 15" width="100%" height="30px" preserveAspectRatio="xMaxYMin meet">
 <g id="arrow_out" transform="scale(0.3 0.3)">
  <a xlink:href="classwmtk_1_1simplex_1_1_raw_simplex_a60c05e4d17eda4e850621ba72709cfcd_cgraph_org.svg" target="_base">
   <rect id="button" ry="5" rx="5" y="6" x="6" height="38" width="38"
        fill="#f2f5e9" fill-opacity="0.5" stroke="#606060" stroke-width="1.0"/>
   <path id="arrow"
     d="M 11.500037,31.436501 C 11.940474,20.09759 22.043105,11.32322 32.158766,21.979434 L 37.068811,17.246167 C 37.068811,17.246167 37.088388,32 37.088388,32 L 22.160133,31.978069 C 22.160133,31.978069 26.997745,27.140456 26.997745,27.140456 C 18.528582,18.264221 13.291696,25.230495 11.500037,31.436501 z"
     style="fill:#404040;"/>
  </a>
 </g>
</svg>

<style type='text/css'>
<![CDATA[
[data-mouse-over-selected='false'] { opacity: 0.7; }
[data-mouse-over-selected='true']  { opacity: 1.0; }
]]>
</style>
<script type="application/ecmascript"><![CDATA[
document.addEventListener('DOMContentLoaded', (event) => {
  highlightEdges();
  highlightAdjacentNodes();
});
]]></script>
</svg>
