<?xml version="1.0" encoding="UTF-8" standalone="no"?>
<!DOCTYPE svg PUBLIC "-//W3C//DTD SVG 1.1//EN"
 "http://www.w3.org/Graphics/SVG/1.1/DTD/svg11.dtd">
<!-- Generated by graphviz version 2.43.0 (0)
 -->
<!-- Title: wmtk::Mesh::orient_vertices Pages: 1 -->
<!--zoomable 470 -->

<svg id="main" version="1.1" xmlns="http://www.w3.org/2000/svg" xmlns:xlink="http://www.w3.org/1999/xlink" xml:space="preserve" onload="init(evt)">
<style type="text/css"><![CDATA[
.node, .edge {opacity: 0.7;}
.node.selected, .edge.selected {opacity: 1;}
.edge:hover path { stroke: red; }
.edge:hover polygon { stroke: red; fill: red; }
]]></style>

<defs>
  <circle id="rim" cx="0" cy="0" r="7"/>
  <circle id="rim2" cx="0" cy="0" r="3.5"/>
  <g id="zoomPlus">
    <use xlink:href="#rim" fill="#404040"><set attributeName="fill" to="#808080" begin="zoomplus.mouseover" end="zoomplus.mouseout"/></use>
    <path d="M-4,0h8M0,-4v8" fill="none" stroke="white" stroke-width="1.5" pointer-events="none"/>
  </g>
  <g id="zoomMin">
    <use xlink:href="#rim" fill="#404040"><set attributeName="fill" to="#808080" begin="zoomminus.mouseover" end="zoomminus.mouseout"/></use>
    <path d="M-4,0h8" fill="none" stroke="white" stroke-width="1.5" pointer-events="none"/>
  </g>
  <g id="arrowUp" transform="translate(30 24)">
    <use xlink:href="#rim"/>
    <path pointer-events="none" fill="none" stroke="white" stroke-width="1.5" d="M0,-3.0v7 M-2.5,-0.5L0,-3.0L2.5,-0.5"/>
  </g>
  <g id="arrowRight" transform="rotate(90) translate(36 -43)">
    <use xlink:href="#rim"/>
    <path pointer-events="none" fill="none" stroke="white" stroke-width="1.5" d="M0,-3.0v7 M-2.5,-0.5L0,-3.0L2.5,-0.5"/>
  </g>
  <g id="arrowDown" transform="rotate(180) translate(-30 -48)">
    <use xlink:href="#rim"/>
    <path pointer-events="none" fill="none" stroke="white" stroke-width="1.5" d="M0,-3.0v7 M-2.5,-0.5L0,-3.0L2.5,-0.5"/>
  </g>
  <g id="arrowLeft" transform="rotate(270) translate(-36 17)">
    <use xlink:href="#rim"/>
    <path pointer-events="none" fill="none" stroke="white" stroke-width="1.5" d="M0,-3.0v7 M-2.5,-0.5L0,-3.0L2.5,-0.5"/>
  </g>
  <g id="resetDef">
    <use xlink:href="#rim2" fill="#404040"><set attributeName="fill" to="#808080" begin="reset.mouseover" end="reset.mouseout"/></use>
  </g>
</defs>
<script type="application/ecmascript">
var viewWidth = 773;
var viewHeight = 470;
var sectionId = 'dynsection-111';
</script>
<script type="application/ecmascript" xlink:href="svg.min.js"/>
<svg id="graph" class="graph">
<g id="viewport">
<title>wmtk::Mesh::orient_vertices</title>
<!-- Node1 -->
<g id="Node000001" class="node">
<title>Node1</title>
<g id="a_Node000001"><a xlink:title=" ">
<polygon fill="#999999" stroke="#666666" points="765,-257.5 654,-257.5 654,-227.5 765,-227.5 765,-257.5"/>
<text text-anchor="start" x="662" y="-245.5" font-family="Helvetica,sans-Serif" font-size="10.00">wmtk::Mesh::orient</text>
<text text-anchor="middle" x="709.5" y="-234.5" font-family="Helvetica,sans-Serif" font-size="10.00">_vertices</text>
</a>
</g>
</g>
<!-- Node2 -->
<g id="Node000002" class="node">
<title>Node2</title>
<g id="a_Node000002"><a xlink:href="namespacewmtk_1_1components_1_1internal.html#a919ba35151931f21305c895ea3d52a2b" target="_top" xlink:title=" ">
<polygon fill="white" stroke="#666666" points="613,-407.5 459,-407.5 459,-377.5 613,-377.5 613,-407.5"/>
<text text-anchor="start" x="467" y="-395.5" font-family="Helvetica,sans-Serif" font-size="10.00">wmtk::components::internal</text>
<text text-anchor="middle" x="536" y="-384.5" font-family="Helvetica,sans-Serif" font-size="10.00">::adjust_sizing_field</text>
</a>
</g>
</g>
<!-- Node1&#45;&gt;Node2 -->
<g id="edge1_Node000001_Node000002" class="edge">
<title>Node1&#45;&gt;Node2</title>
<g id="a_edge1_Node000001_Node000002"><a xlink:title=" ">
<path fill="none" stroke="#63b8ff" d="M697.12,-267.09C682.68,-295.63 655.11,-342.12 618,-368.5 613.22,-371.9 607.95,-374.82 602.47,-377.33"/>
<polygon fill="#63b8ff" stroke="#63b8ff" points="700.41,-268.33 701.67,-257.81 694.13,-265.25 700.41,-268.33"/>
</a>
</g>
</g>
<!-- Node3 -->
<g id="Node000003" class="node">
<title>Node3</title>
<g id="a_Node000003"><a xlink:href="namespacewmtk_1_1components_1_1internal.html#a8890d5e5bb5f11779d4e40e07882253a" target="_top" xlink:title=" ">
<polygon fill="white" stroke="#666666" points="405,-437.5 251,-437.5 251,-407.5 405,-407.5 405,-437.5"/>
<text text-anchor="start" x="259" y="-425.5" font-family="Helvetica,sans-Serif" font-size="10.00">wmtk::components::internal</text>
<text text-anchor="middle" x="328" y="-414.5" font-family="Helvetica,sans-Serif" font-size="10.00">::periodic_optimization</text>
</a>
</g>
</g>
<!-- Node1&#45;&gt;Node3 -->
<g id="edge14_Node000001_Node000003" class="edge">
<title>Node1&#45;&gt;Node3</title>
<g id="a_edge14_Node000001_Node000003"><a xlink:title=" ">
<path fill="none" stroke="#63b8ff" d="M705.23,-267.42C698.11,-310.34 676.81,-397.2 618,-434.5 541.24,-483.18 428.56,-457.02 369.12,-437.52"/>
<polygon fill="#63b8ff" stroke="#63b8ff" points="708.7,-267.92 706.75,-257.51 701.78,-266.86 708.7,-267.92"/>
</a>
</g>
</g>
<!-- Node6 -->
<g id="Node000006" class="node">
<title>Node6</title>
<g id="a_Node000006"><a xlink:href="namespacewmtk_1_1components.html#a16475fcf3c7cd34eedc9f49d036dde97" target="_top" xlink:title=" ">
<polygon fill="white" stroke="#666666" points="609,-359.5 463,-359.5 463,-329.5 609,-329.5 609,-359.5"/>
<text text-anchor="start" x="471" y="-347.5" font-family="Helvetica,sans-Serif" font-size="10.00">wmtk::components::adjust</text>
<text text-anchor="middle" x="536" y="-336.5" font-family="Helvetica,sans-Serif" font-size="10.00">_sizing_field</text>
</a>
</g>
</g>
<!-- Node1&#45;&gt;Node6 -->
<g id="edge7_Node000001_Node000006" class="edge">
<title>Node1&#45;&gt;Node6</title>
<g id="a_edge7_Node000001_Node000006"><a xlink:title=" ">
<path fill="none" stroke="#63b8ff" d="M687.65,-265.09C670.47,-282.48 644.68,-305.93 618,-320.5 611.82,-323.87 605.11,-326.83 598.29,-329.4"/>
<polygon fill="#63b8ff" stroke="#63b8ff" points="690.48,-267.21 694.91,-257.58 685.44,-262.34 690.48,-267.21"/>
</a>
</g>
</g>
<!-- Node7 -->
<g id="Node000007" class="node">
<title>Node7</title>
<g id="a_Node000007"><a xlink:href="classwmtk_1_1invariants_1_1_collapse_energy_before_invariant.html#aaf60c03541b2a73aebe4ebad561f2535" target="_top" xlink:title=" ">
<polygon fill="white" stroke="#666666" points="618,-311.5 454,-311.5 454,-281.5 618,-281.5 618,-311.5"/>
<text text-anchor="start" x="462" y="-299.5" font-family="Helvetica,sans-Serif" font-size="10.00">wmtk::invariants::Collapse</text>
<text text-anchor="middle" x="536" y="-288.5" font-family="Helvetica,sans-Serif" font-size="10.00">EnergyBeforeInvariant::before</text>
</a>
</g>
</g>
<!-- Node1&#45;&gt;Node7 -->
<g id="edge8_Node000001_Node000007" class="edge">
<title>Node1&#45;&gt;Node7</title>
<g id="a_edge8_Node000001_Node000007"><a xlink:title=" ">
<path fill="none" stroke="#63b8ff" d="M654.14,-260.83C642.25,-264.75 629.72,-268.82 618,-272.5 608.62,-275.44 598.61,-278.49 588.93,-281.38"/>
<polygon fill="#63b8ff" stroke="#63b8ff" points="655.55,-264.05 663.94,-257.59 653.35,-257.41 655.55,-264.05"/>
</a>
</g>
</g>
<!-- Node8 -->
<g id="Node000008" class="node">
<title>Node8</title>
<g id="a_Node000008"><a xlink:href="classwmtk_1_1invariants_1_1_collapse_energy_before_invariant_double.html#aedec3d60165b7fe7541a9caa18f6c131" target="_top" xlink:title=" ">
<polygon fill="white" stroke="#666666" points="616.5,-263 455.5,-263 455.5,-222 616.5,-222 616.5,-263"/>
<text text-anchor="start" x="463.5" y="-251" font-family="Helvetica,sans-Serif" font-size="10.00">wmtk::invariants::Collapse</text>
<text text-anchor="start" x="463.5" y="-240" font-family="Helvetica,sans-Serif" font-size="10.00">EnergyBeforeInvariantDouble</text>
<text text-anchor="middle" x="536" y="-229" font-family="Helvetica,sans-Serif" font-size="10.00">::before</text>
</a>
</g>
</g>
<!-- Node1&#45;&gt;Node8 -->
<g id="edge9_Node000001_Node000008" class="edge">
<title>Node1&#45;&gt;Node8</title>
<g id="a_edge9_Node000001_Node000008"><a xlink:title=" ">
<path fill="none" stroke="#63b8ff" d="M643.56,-242.5C634.73,-242.5 625.58,-242.5 616.53,-242.5"/>
<polygon fill="#63b8ff" stroke="#63b8ff" points="643.76,-246 653.76,-242.5 643.76,-239 643.76,-246"/>
</a>
</g>
</g>
<!-- Node9 -->
<g id="Node000009" class="node">
<title>Node9</title>
<g id="a_Node000009"><a xlink:href="namespacewmtk_1_1function_1_1utils.html#a10708966079a04e25ba0ea7953479662" target="_top" xlink:title="get attributes from a simplex">
<polygon fill="white" stroke="#666666" points="603.5,-137.5 468.5,-137.5 468.5,-107.5 603.5,-107.5 603.5,-137.5"/>
<text text-anchor="start" x="476.5" y="-125.5" font-family="Helvetica,sans-Serif" font-size="10.00">wmtk::function::utils</text>
<text text-anchor="middle" x="536" y="-114.5" font-family="Helvetica,sans-Serif" font-size="10.00">::get_simplex_attributes</text>
</a>
</g>
</g>
<!-- Node1&#45;&gt;Node9 -->
<g id="edge10_Node000001_Node000009" class="edge">
<title>Node1&#45;&gt;Node9</title>
<g id="a_edge10_Node000001_Node000009"><a xlink:title=" ">
<path fill="none" stroke="#63b8ff" d="M692.43,-219.41C676.08,-197.6 648.83,-165.46 618,-146.5 612.5,-143.12 606.5,-140.19 600.34,-137.66"/>
<polygon fill="#63b8ff" stroke="#63b8ff" points="689.61,-221.49 698.34,-227.5 695.26,-217.36 689.61,-221.49"/>
</a>
</g>
</g>
<!-- Node13 -->
<g id="Node000013" class="node">
<title>Node13</title>
<g id="a_Node000013"><a xlink:href="namespacewmtk_1_1components_1_1internal.html#a19eecddab1770fc126938f03715626b0" target="_top" xlink:title=" ">
<polygon fill="white" stroke="#666666" points="614,-185.5 458,-185.5 458,-155.5 614,-155.5 614,-185.5"/>
<text text-anchor="start" x="466" y="-173.5" font-family="Helvetica,sans-Serif" font-size="10.00">wmtk::components::internal</text>
<text text-anchor="middle" x="536" y="-162.5" font-family="Helvetica,sans-Serif" font-size="10.00">::set_operation_energy_filter</text>
</a>
</g>
</g>
<!-- Node1&#45;&gt;Node13 -->
<g id="edge15_Node000001_Node000013" class="edge">
<title>Node1&#45;&gt;Node13</title>
<g id="a_edge15_Node000001_Node000013"><a xlink:title=" ">
<path fill="none" stroke="#63b8ff" d="M663.29,-223.52C635.05,-211.66 599.19,-196.61 572.9,-185.57"/>
<polygon fill="#63b8ff" stroke="#63b8ff" points="661.97,-226.76 672.55,-227.41 664.68,-220.31 661.97,-226.76"/>
</a>
</g>
</g>
<!-- Node14 -->
<g id="Node000014" class="node">
<title>Node14</title>
<g id="a_Node000014"><a xlink:href="namespacewmtk_1_1components.html#ad47dd9f4c68a8e70914d5a910e5fc0e4" target="_top" xlink:title=" ">
<polygon fill="white" stroke="#666666" points="603.5,-89.5 468.5,-89.5 468.5,-59.5 603.5,-59.5 603.5,-89.5"/>
<text text-anchor="start" x="476.5" y="-77.5" font-family="Helvetica,sans-Serif" font-size="10.00">wmtk::components::set</text>
<text text-anchor="middle" x="536" y="-66.5" font-family="Helvetica,sans-Serif" font-size="10.00">_operation_energy_filter</text>
</a>
</g>
</g>
<!-- Node1&#45;&gt;Node14 -->
<g id="edge18_Node000001_Node000014" class="edge">
<title>Node1&#45;&gt;Node14</title>
<g id="a_edge18_Node000001_Node000014"><a xlink:title=" ">
<path fill="none" stroke="#63b8ff" d="M699.43,-217.78C686.36,-185.59 659.18,-129.74 618,-98.5 613.44,-95.04 608.39,-92.08 603.11,-89.55"/>
<polygon fill="#63b8ff" stroke="#63b8ff" points="696.27,-219.31 703.18,-227.34 702.79,-216.76 696.27,-219.31"/>
</a>
</g>
</g>
<!-- Node15 -->
<g id="Node000015" class="node">
<title>Node15</title>
<g id="a_Node000015"><a xlink:href="namespacewmtk_1_1components.html#a4eb70b5440518ea86de4ae32116cd345" target="_top" xlink:title=" ">
<polygon fill="white" stroke="#666666" points="603.5,-41 468.5,-41 468.5,0 603.5,0 603.5,-41"/>
<text text-anchor="start" x="476.5" y="-29" font-family="Helvetica,sans-Serif" font-size="10.00">wmtk::components::set</text>
<text text-anchor="start" x="476.5" y="-18" font-family="Helvetica,sans-Serif" font-size="10.00">_operation_energy_filter</text>
<text text-anchor="middle" x="536" y="-7" font-family="Helvetica,sans-Serif" font-size="10.00">_after_sizing_field</text>
</a>
</g>
</g>
<!-- Node1&#45;&gt;Node15 -->
<g id="edge19_Node000001_Node000015" class="edge">
<title>Node1&#45;&gt;Node15</title>
<g id="a_edge19_Node000001_Node000015"><a xlink:title=" ">
<path fill="none" stroke="#63b8ff" d="M703.21,-217.61C693.36,-177.1 668.47,-96.82 618,-50.5 613.69,-46.55 608.82,-43.1 603.64,-40.1"/>
<polygon fill="#63b8ff" stroke="#63b8ff" points="699.83,-218.51 705.5,-227.46 706.65,-216.93 699.83,-218.51"/>
</a>
</g>
</g>
<!-- Node2&#45;&gt;Node2 -->
<g id="edge2_Node000002_Node000002" class="edge">
<title>Node2&#45;&gt;Node2</title>
<g id="a_edge2_Node000002_Node000002"><a xlink:title=" ">
<path fill="none" stroke="#63b8ff" d="M566.11,-418.1C561.99,-422.47 551.96,-425.5 536,-425.5 509.12,-425.5 499.05,-416.91 505.77,-407.78"/>
<polygon fill="#63b8ff" stroke="#63b8ff" points="569.61,-417.82 566.23,-407.78 562.61,-417.73 569.61,-417.82"/>
</a>
</g>
</g>
<!-- Node2&#45;&gt;Node3 -->
<g id="edge3_Node000002_Node000003" class="edge">
<title>Node2&#45;&gt;Node3</title>
<g id="a_edge3_Node000002_Node000003"><a xlink:title=" ">
<path fill="none" stroke="#63b8ff" d="M448.91,-405.04C434.39,-407.15 419.4,-409.33 405.15,-411.41"/>
<polygon fill="#63b8ff" stroke="#63b8ff" points="449.49,-408.49 458.88,-403.59 448.48,-401.56 449.49,-408.49"/>
</a>
</g>
</g>
<!-- Node5 -->
<g id="Node000005" class="node">
<title>Node5</title>
<g id="a_Node000005"><a xlink:href="namespacewmtk_1_1components.html#ac6ca52668bd22e164d4baf59ec533864" target="_top" xlink:title=" ">
<polygon fill="white" stroke="#666666" points="417.5,-321 238.5,-321 238.5,-302 417.5,-302 417.5,-321"/>
<text text-anchor="middle" x="328" y="-309" font-family="Helvetica,sans-Serif" font-size="10.00">wmtk::components::wildmeshing</text>
</a>
</g>
</g>
<!-- Node2&#45;&gt;Node5 -->
<g id="edge6_Node000002_Node000005" class="edge">
<title>Node2&#45;&gt;Node5</title>
<g id="a_edge6_Node000002_Node000005"><a xlink:title=" ">
<path fill="none" stroke="#63b8ff" d="M470.65,-374.33C464.99,-372.46 459.37,-370.51 454,-368.5 415.35,-354.04 371.85,-333.1 347.71,-321.03"/>
<polygon fill="#63b8ff" stroke="#63b8ff" points="469.6,-377.67 480.19,-377.39 471.74,-371.01 469.6,-377.67"/>
</a>
</g>
</g>
<!-- Node3&#45;&gt;Node3 -->
<g id="edge5_Node000003_Node000003" class="edge">
<title>Node3&#45;&gt;Node3</title>
<g id="a_edge5_Node000003_Node000003"><a xlink:title=" ">
<path fill="none" stroke="#63b8ff" d="M364.41,-448.1C359.43,-452.47 347.3,-455.5 328,-455.5 295.5,-455.5 283.31,-446.91 291.44,-437.78"/>
<polygon fill="#63b8ff" stroke="#63b8ff" points="367.91,-447.83 364.56,-437.78 360.91,-447.72 367.91,-447.83"/>
</a>
</g>
</g>
<!-- Node4 -->
<g id="Node000004" class="node">
<title>Node4</title>
<g id="a_Node000004"><a xlink:href="namespacewmtk_1_1components.html#a4166e4880553cfacbf79ac3515a637cd" target="_top" xlink:title=" ">
<polygon fill="white" stroke="#666666" points="178.5,-437.5 23.5,-437.5 23.5,-407.5 178.5,-407.5 178.5,-437.5"/>
<text text-anchor="start" x="31.5" y="-425.5" font-family="Helvetica,sans-Serif" font-size="10.00">wmtk::components::periodic</text>
<text text-anchor="middle" x="101" y="-414.5" font-family="Helvetica,sans-Serif" font-size="10.00">_optimization</text>
</a>
</g>
</g>
<!-- Node3&#45;&gt;Node4 -->
<g id="edge4_Node000003_Node000004" class="edge">
<title>Node3&#45;&gt;Node4</title>
<g id="a_edge4_Node000003_Node000004"><a xlink:title=" ">
<path fill="none" stroke="#63b8ff" d="M240.63,-422.5C220.29,-422.5 198.75,-422.5 178.86,-422.5"/>
<polygon fill="#63b8ff" stroke="#63b8ff" points="240.83,-426 250.83,-422.5 240.83,-419 240.83,-426"/>
</a>
</g>
</g>
<!-- Node10 -->
<g id="Node000010" class="node">
<title>Node10</title>
<g id="a_Node000010"><a xlink:href="classwmtk_1_1function_1_1_per_simplex_autodiff_function.html#a2925164a2ef8ed1f86a9c07075972967" target="_top" xlink:title=" ">
<polygon fill="white" stroke="#666666" points="418,-161.5 238,-161.5 238,-131.5 418,-131.5 418,-161.5"/>
<text text-anchor="start" x="246" y="-149.5" font-family="Helvetica,sans-Serif" font-size="10.00">wmtk::function::PerSimplex</text>
<text text-anchor="middle" x="328" y="-138.5" font-family="Helvetica,sans-Serif" font-size="10.00">AutodiffFunction::get_coordinates</text>
</a>
</g>
</g>
<!-- Node9&#45;&gt;Node10 -->
<g id="edge11_Node000009_Node000010" class="edge">
<title>Node9&#45;&gt;Node10</title>
<g id="a_edge11_Node000009_Node000010"><a xlink:title=" ">
<path fill="none" stroke="#63b8ff" d="M458.12,-131.46C445.13,-132.97 431.54,-134.55 418.25,-136.1"/>
<polygon fill="#63b8ff" stroke="#63b8ff" points="458.87,-134.89 468.4,-130.26 458.06,-127.94 458.87,-134.89"/>
</a>
</g>
</g>
<!-- Node11 -->
<g id="Node000011" class="node">
<title>Node11</title>
<g id="a_Node000011"><a xlink:href="classwmtk_1_1function_1_1_a_m_i_p_s.html#a36709a007132c33f85efe0b4abd16b93" target="_top" xlink:title=" ">
<polygon fill="white" stroke="#666666" points="391.5,-113.5 264.5,-113.5 264.5,-83.5 391.5,-83.5 391.5,-113.5"/>
<text text-anchor="start" x="272.5" y="-101.5" font-family="Helvetica,sans-Serif" font-size="10.00">wmtk::function::AMIPS</text>
<text text-anchor="middle" x="328" y="-90.5" font-family="Helvetica,sans-Serif" font-size="10.00">::get_raw_coordinates</text>
</a>
</g>
</g>
<!-- Node9&#45;&gt;Node11 -->
<g id="edge12_Node000009_Node000011" class="edge">
<title>Node9&#45;&gt;Node11</title>
<g id="a_edge12_Node000009_Node000011"><a xlink:title=" ">
<path fill="none" stroke="#63b8ff" d="M458.41,-113.58C436.37,-111.01 412.6,-108.24 391.52,-105.78"/>
<polygon fill="#63b8ff" stroke="#63b8ff" points="458.06,-117.06 468.4,-114.74 458.87,-110.11 458.06,-117.06"/>
</a>
</g>
</g>
<!-- Node12 -->
<g id="Node000012" class="node">
<title>Node12</title>
<g id="a_Node000012"><a xlink:href="classwmtk_1_1operations_1_1_a_m_i_p_s_optimization_smoothing.html#a2c409cd3da46f4360119e142ef3c3682" target="_top" xlink:title="returns an empty vector in case of failure">
<polygon fill="white" stroke="#666666" points="202,-113.5 0,-113.5 0,-83.5 202,-83.5 202,-113.5"/>
<text text-anchor="start" x="8" y="-101.5" font-family="Helvetica,sans-Serif" font-size="10.00">wmtk::operations::AMIPSOptimization</text>
<text text-anchor="middle" x="101" y="-90.5" font-family="Helvetica,sans-Serif" font-size="10.00">Smoothing::execute</text>
</a>
</g>
</g>
<!-- Node11&#45;&gt;Node12 -->
<g id="edge13_Node000011_Node000012" class="edge">
<title>Node11&#45;&gt;Node12</title>
<g id="a_edge13_Node000011_Node000012"><a xlink:title=" ">
<path fill="none" stroke="#63b8ff" d="M254.2,-98.5C237.64,-98.5 219.77,-98.5 202.3,-98.5"/>
<polygon fill="#63b8ff" stroke="#63b8ff" points="254.32,-102 264.32,-98.5 254.32,-95 254.32,-102"/>
</a>
</g>
</g>
<!-- Node13&#45;&gt;Node5 -->
<g id="edge17_Node000013_Node000005" class="edge">
<title>Node13&#45;&gt;Node5</title>
<g id="a_edge17_Node000013_Node000005"><a xlink:title=" ">
<path fill="none" stroke="#63b8ff" d="M494.59,-190.16C481.37,-197.06 466.8,-205.18 454,-213.5 409.38,-242.51 360.99,-283.48 339.88,-301.89"/>
<polygon fill="#63b8ff" stroke="#63b8ff" points="496.2,-193.27 503.49,-185.59 493,-187.04 496.2,-193.27"/>
</a>
</g>
</g>
<!-- Node13&#45;&gt;Node13 -->
<g id="edge16_Node000013_Node000013" class="edge">
<title>Node13&#45;&gt;Node13</title>
<g id="a_edge16_Node000013_Node000013"><a xlink:title=" ">
<path fill="none" stroke="#63b8ff" d="M566.11,-196.1C561.99,-200.47 551.96,-203.5 536,-203.5 509.12,-203.5 499.05,-194.91 505.77,-185.78"/>
<polygon fill="#63b8ff" stroke="#63b8ff" points="569.61,-195.82 566.23,-185.78 562.61,-195.73 569.61,-195.82"/>
</a>
</g>
</g>
</g>
</svg>

<g id="navigator" transform="translate(0 0)" fill="#404254">
  <rect fill="#f2f5e9" fill-opacity="0.5" stroke="#606060" stroke-width=".5" x="0" y="0" width="60" height="60"/>
  <use id="zoomplus" xlink:href="#zoomPlus" x="17" y="9" onmousedown="handleZoom(evt,'in')"/>
  <use id="zoomminus" xlink:href="#zoomMin" x="42" y="9" onmousedown="handleZoom(evt,'out')"/>
  <use id="reset" xlink:href="#resetDef" x="30" y="36" onmousedown="handleReset()"/>
   <use id="arrowup" xlink:href="#arrowUp" x="0" y="0" onmousedown="handlePan(0,-1)"/>
  <use id="arrowright" xlink:href="#arrowRight" x="0" y="0" onmousedown="handlePan(1,0)"/>
  <use id="arrowdown" xlink:href="#arrowDown" x="0" y="0" onmousedown="handlePan(0,1)"/>
  <use id="arrowleft" xlink:href="#arrowLeft" x="0" y="0" onmousedown="handlePan(-1,0)"/>
</g>
<svg viewBox="0 0 15 15" width="100%" height="30px" preserveAspectRatio="xMaxYMin meet">
 <g id="arrow_out" transform="scale(0.3 0.3)">
  <a xlink:href="classwmtk_1_1_mesh_ab832ace56e7e07d16291ad568f3d73d9_icgraph_org.svg" target="_base">
   <rect id="button" ry="5" rx="5" y="6" x="6" height="38" width="38"
        fill="#f2f5e9" fill-opacity="0.5" stroke="#606060" stroke-width="1.0"/>
   <path id="arrow"
     d="M 11.500037,31.436501 C 11.940474,20.09759 22.043105,11.32322 32.158766,21.979434 L 37.068811,17.246167 C 37.068811,17.246167 37.088388,32 37.088388,32 L 22.160133,31.978069 C 22.160133,31.978069 26.997745,27.140456 26.997745,27.140456 C 18.528582,18.264221 13.291696,25.230495 11.500037,31.436501 z"
     style="fill:#404040;"/>
  </a>
 </g>
</svg>

<style type='text/css'>
<![CDATA[
[data-mouse-over-selected='false'] { opacity: 0.7; }
[data-mouse-over-selected='true']  { opacity: 1.0; }
]]>
</style>
<script type="application/ecmascript"><![CDATA[
document.addEventListener('DOMContentLoaded', (event) => {
  highlightEdges();
  highlightAdjacentNodes();
});
]]></script>
</svg>
