<?xml version="1.0" encoding="UTF-8" standalone="no"?>
<!DOCTYPE svg PUBLIC "-//W3C//DTD SVG 1.1//EN"
 "http://www.w3.org/Graphics/SVG/1.1/DTD/svg11.dtd">
<!-- Generated by graphviz version 2.43.0 (0)
 -->
<!-- Title: wmtk::attribute::AttributeManager::register_attribute Pages: 1 -->
<!--zoomable 461 -->

<svg id="main" version="1.1" xmlns="http://www.w3.org/2000/svg" xmlns:xlink="http://www.w3.org/1999/xlink" xml:space="preserve" onload="init(evt)">
<style type="text/css"><![CDATA[
.node, .edge {opacity: 0.7;}
.node.selected, .edge.selected {opacity: 1;}
.edge:hover path { stroke: red; }
.edge:hover polygon { stroke: red; fill: red; }
]]></style>

<defs>
  <circle id="rim" cx="0" cy="0" r="7"/>
  <circle id="rim2" cx="0" cy="0" r="3.5"/>
  <g id="zoomPlus">
    <use xlink:href="#rim" fill="#404040"><set attributeName="fill" to="#808080" begin="zoomplus.mouseover" end="zoomplus.mouseout"/></use>
    <path d="M-4,0h8M0,-4v8" fill="none" stroke="white" stroke-width="1.5" pointer-events="none"/>
  </g>
  <g id="zoomMin">
    <use xlink:href="#rim" fill="#404040"><set attributeName="fill" to="#808080" begin="zoomminus.mouseover" end="zoomminus.mouseout"/></use>
    <path d="M-4,0h8" fill="none" stroke="white" stroke-width="1.5" pointer-events="none"/>
  </g>
  <g id="arrowUp" transform="translate(30 24)">
    <use xlink:href="#rim"/>
    <path pointer-events="none" fill="none" stroke="white" stroke-width="1.5" d="M0,-3.0v7 M-2.5,-0.5L0,-3.0L2.5,-0.5"/>
  </g>
  <g id="arrowRight" transform="rotate(90) translate(36 -43)">
    <use xlink:href="#rim"/>
    <path pointer-events="none" fill="none" stroke="white" stroke-width="1.5" d="M0,-3.0v7 M-2.5,-0.5L0,-3.0L2.5,-0.5"/>
  </g>
  <g id="arrowDown" transform="rotate(180) translate(-30 -48)">
    <use xlink:href="#rim"/>
    <path pointer-events="none" fill="none" stroke="white" stroke-width="1.5" d="M0,-3.0v7 M-2.5,-0.5L0,-3.0L2.5,-0.5"/>
  </g>
  <g id="arrowLeft" transform="rotate(270) translate(-36 17)">
    <use xlink:href="#rim"/>
    <path pointer-events="none" fill="none" stroke="white" stroke-width="1.5" d="M0,-3.0v7 M-2.5,-0.5L0,-3.0L2.5,-0.5"/>
  </g>
  <g id="resetDef">
    <use xlink:href="#rim2" fill="#404040"><set attributeName="fill" to="#808080" begin="reset.mouseover" end="reset.mouseout"/></use>
  </g>
</defs>
<script type="application/ecmascript">
var viewWidth = 1513;
var viewHeight = 461;
var sectionId = 'dynsection-31';
</script>
<script type="application/ecmascript" xlink:href="svg.min.js"/>
<svg id="graph" class="graph">
<g id="viewport">
<title>wmtk::attribute::AttributeManager::register_attribute</title>
<!-- Node1 -->
<g id="Node000001" class="node">
<title>Node1</title>
<g id="a_Node000001"><a xlink:title=" ">
<polygon fill="#999999" stroke="#666666" points="1505,-236.5 1355,-236.5 1355,-206.5 1505,-206.5 1505,-236.5"/>
<text text-anchor="start" x="1363" y="-224.5" font-family="Helvetica,sans-Serif" font-size="10.00">wmtk::attribute::Attribute</text>
<text text-anchor="middle" x="1430" y="-213.5" font-family="Helvetica,sans-Serif" font-size="10.00">Manager::register_attribute</text>
</a>
</g>
</g>
<!-- Node2 -->
<g id="Node000002" class="node">
<title>Node2</title>
<g id="a_Node000002"><a xlink:href="classwmtk_1_1_mesh.html#a3faf39088ce02c2a2f208c762d6f2b52" target="_top" xlink:title=" ">
<polygon fill="white" stroke="#666666" points="1319,-236.5 1199,-236.5 1199,-206.5 1319,-206.5 1319,-236.5"/>
<text text-anchor="start" x="1207" y="-224.5" font-family="Helvetica,sans-Serif" font-size="10.00">wmtk::Mesh::register</text>
<text text-anchor="middle" x="1259" y="-213.5" font-family="Helvetica,sans-Serif" font-size="10.00">_attribute_typed</text>
</a>
</g>
</g>
<!-- Node1&#45;&gt;Node2 -->
<g id="edge1_Node000001_Node000002" class="edge">
<title>Node1&#45;&gt;Node2</title>
<g id="a_edge1_Node000001_Node000002"><a xlink:title=" ">
<path fill="none" stroke="#63b8ff" d="M1344.73,-221.5C1336.06,-221.5 1327.4,-221.5 1319.09,-221.5"/>
<polygon fill="#63b8ff" stroke="#63b8ff" points="1344.87,-225 1354.87,-221.5 1344.87,-218 1344.87,-225"/>
</a>
</g>
</g>
<!-- Node3 -->
<g id="Node000003" class="node">
<title>Node3</title>
<g id="a_Node000003"><a xlink:href="classwmtk_1_1components_1_1_marching.html#a93c8d735afd009d73bfc4700b4f8e3f6" target="_top" xlink:title="Perform the actual marching.">
<polygon fill="white" stroke="#666666" points="1161.5,-279.5 1000.5,-279.5 1000.5,-249.5 1161.5,-249.5 1161.5,-279.5"/>
<text text-anchor="start" x="1008.5" y="-267.5" font-family="Helvetica,sans-Serif" font-size="10.00">wmtk::components::Marching</text>
<text text-anchor="middle" x="1081" y="-256.5" font-family="Helvetica,sans-Serif" font-size="10.00">::process</text>
</a>
</g>
</g>
<!-- Node2&#45;&gt;Node3 -->
<g id="edge2_Node000002_Node000003" class="edge">
<title>Node2&#45;&gt;Node3</title>
<g id="a_edge2_Node000002_Node000003"><a xlink:title=" ">
<path fill="none" stroke="#63b8ff" d="M1189.17,-238.32C1174.16,-241.98 1158.36,-245.84 1143.65,-249.44"/>
<polygon fill="#63b8ff" stroke="#63b8ff" points="1190.02,-241.71 1198.9,-235.94 1188.36,-234.91 1190.02,-241.71"/>
</a>
</g>
</g>
<!-- Node7 -->
<g id="Node000007" class="node">
<title>Node7</title>
<g id="a_Node000007"><a xlink:href="classwmtk_1_1multimesh_1_1_multi_mesh_manager.html#af1df24920145a685e467ff2bc082e056" target="_top" xlink:title="register a another mesh as a child of this mesh.">
<polygon fill="white" stroke="#666666" points="1163,-212.5 999,-212.5 999,-182.5 1163,-182.5 1163,-212.5"/>
<text text-anchor="start" x="1007" y="-200.5" font-family="Helvetica,sans-Serif" font-size="10.00">wmtk::multimesh::MultiMesh</text>
<text text-anchor="middle" x="1081" y="-189.5" font-family="Helvetica,sans-Serif" font-size="10.00">Manager::register_child_mesh</text>
</a>
</g>
</g>
<!-- Node2&#45;&gt;Node7 -->
<g id="edge6_Node000002_Node000007" class="edge">
<title>Node2&#45;&gt;Node7</title>
<g id="a_edge6_Node000002_Node000007"><a xlink:title=" ">
<path fill="none" stroke="#63b8ff" d="M1188.78,-212.06C1180.37,-210.91 1171.71,-209.73 1163.15,-208.57"/>
<polygon fill="#63b8ff" stroke="#63b8ff" points="1188.52,-215.56 1198.9,-213.44 1189.47,-208.62 1188.52,-215.56"/>
</a>
</g>
</g>
<!-- Node4 -->
<g id="Node000004" class="node">
<title>Node4</title>
<g id="a_Node000004"><a xlink:href="namespacewmtk_1_1components.html#a6f27411696c9ba6e294768451f31351f" target="_top" xlink:title="Perform maching tetrahedra/triangles.">
<polygon fill="white" stroke="#666666" points="963,-284 801,-284 801,-265 963,-265 963,-284"/>
<text text-anchor="middle" x="882" y="-272" font-family="Helvetica,sans-Serif" font-size="10.00">wmtk::components::marching</text>
</a>
</g>
</g>
<!-- Node3&#45;&gt;Node4 -->
<g id="edge3_Node000003_Node000004" class="edge">
<title>Node3&#45;&gt;Node4</title>
<g id="a_edge3_Node000003_Node000004"><a xlink:title=" ">
<path fill="none" stroke="#63b8ff" d="M990.29,-269.05C981.25,-269.51 972.11,-269.98 963.18,-270.43"/>
<polygon fill="#63b8ff" stroke="#63b8ff" points="990.63,-272.54 1000.44,-268.54 990.28,-265.55 990.63,-272.54"/>
</a>
</g>
</g>
<!-- Node5 -->
<g id="Node000005" class="node">
<title>Node5</title>
<g id="a_Node000005"><a xlink:href="tests_2marching_8cpp.html#a74e4ea64dd134ace15ef3292b4eb9753" target="_top" xlink:title=" ">
<polygon fill="white" stroke="#666666" points="723.5,-321 652.5,-321 652.5,-302 723.5,-302 723.5,-321"/>
<text text-anchor="middle" x="688" y="-309" font-family="Helvetica,sans-Serif" font-size="10.00">TEST_CASE</text>
</a>
</g>
</g>
<!-- Node4&#45;&gt;Node5 -->
<g id="edge4_Node000004_Node000005" class="edge">
<title>Node4&#45;&gt;Node5</title>
<g id="a_edge4_Node000004_Node000005"><a xlink:title=" ">
<path fill="none" stroke="#63b8ff" d="M821.39,-285.99C789.33,-292.17 750.91,-299.57 723.74,-304.8"/>
<polygon fill="#63b8ff" stroke="#63b8ff" points="822.4,-289.36 831.56,-284.03 821.07,-282.48 822.4,-289.36"/>
</a>
</g>
</g>
<!-- Node6 -->
<g id="Node000006" class="node">
<title>Node6</title>
<g id="a_Node000006"><a xlink:href="tests_2marching_8cpp.html#af20fbc246d1ad31be8d9ec0011ac52d6" target="_top" xlink:title=" ">
<polygon fill="white" stroke="#666666" points="723.5,-284 652.5,-284 652.5,-265 723.5,-265 723.5,-284"/>
<text text-anchor="middle" x="688" y="-272" font-family="Helvetica,sans-Serif" font-size="10.00">TEST_CASE</text>
</a>
</g>
</g>
<!-- Node4&#45;&gt;Node6 -->
<g id="edge5_Node000004_Node000006" class="edge">
<title>Node4&#45;&gt;Node6</title>
<g id="a_edge5_Node000004_Node000006"><a xlink:title=" ">
<path fill="none" stroke="#63b8ff" d="M790.79,-274.5C766.95,-274.5 742.62,-274.5 723.73,-274.5"/>
<polygon fill="#63b8ff" stroke="#63b8ff" points="790.97,-278 800.97,-274.5 790.96,-271 790.97,-278"/>
</a>
</g>
</g>
<!-- Node8 -->
<g id="Node000008" class="node">
<title>Node8</title>
<g id="a_Node000008"><a xlink:href="classwmtk_1_1_mesh.html#a8b92d89ea4f3d41af5fea130727b137c" target="_top" xlink:title="register a mesh as the child of this mesh">
<polygon fill="white" stroke="#666666" points="942,-202.5 822,-202.5 822,-172.5 942,-172.5 942,-202.5"/>
<text text-anchor="start" x="830" y="-190.5" font-family="Helvetica,sans-Serif" font-size="10.00">wmtk::Mesh::register</text>
<text text-anchor="middle" x="882" y="-179.5" font-family="Helvetica,sans-Serif" font-size="10.00">_child_mesh</text>
</a>
</g>
</g>
<!-- Node7&#45;&gt;Node8 -->
<g id="edge7_Node000007_Node000008" class="edge">
<title>Node7&#45;&gt;Node8</title>
<g id="a_edge7_Node000007_Node000008"><a xlink:title=" ">
<path fill="none" stroke="#63b8ff" d="M988.44,-192.85C972.7,-192.05 956.71,-191.24 942.11,-190.5"/>
<polygon fill="#63b8ff" stroke="#63b8ff" points="988.57,-196.36 998.74,-193.37 988.93,-189.37 988.57,-196.36"/>
</a>
</g>
</g>
<!-- Node9 -->
<g id="Node000009" class="node">
<title>Node9</title>
<g id="a_Node000009"><a xlink:href="classwmtk_1_1components_1_1internal_1_1_multi_mesh_from_tag.html#a96647e9413f2b7e13dd17f02cf29b12d" target="_top" xlink:title="Create a manifold mesh from the substructure.">
<polygon fill="white" stroke="#666666" points="574.5,-257 410.5,-257 410.5,-216 574.5,-216 574.5,-257"/>
<text text-anchor="start" x="418.5" y="-245" font-family="Helvetica,sans-Serif" font-size="10.00">wmtk::components::internal</text>
<text text-anchor="start" x="418.5" y="-234" font-family="Helvetica,sans-Serif" font-size="10.00">::MultiMeshFromTag::compute</text>
<text text-anchor="middle" x="492.5" y="-223" font-family="Helvetica,sans-Serif" font-size="10.00">_substructure_mesh</text>
</a>
</g>
</g>
<!-- Node8&#45;&gt;Node9 -->
<g id="edge8_Node000008_Node000009" class="edge">
<title>Node8&#45;&gt;Node9</title>
<g id="a_edge8_Node000008_Node000009"><a xlink:title=" ">
<path fill="none" stroke="#63b8ff" d="M821.41,-205.14C803.42,-209.86 783.54,-214.48 765,-217.5 701.57,-227.83 628.91,-232.55 574.73,-234.7"/>
<polygon fill="#63b8ff" stroke="#63b8ff" points="822.43,-208.49 831.18,-202.52 820.62,-201.73 822.43,-208.49"/>
</a>
</g>
</g>
<!-- Node20 -->
<g id="Node000020" class="node">
<title>Node20</title>
<g id="a_Node000020"><a xlink:href="classwmtk_1_1components_1_1internal_1_1_multi_mesh_from_tag.html#ad18667b876fc81c8cfb79a408d632b25" target="_top" xlink:title="Create a multimesh where the child&#45;mesh is just a soup (no connectivity) of m_mesh.">
<polygon fill="white" stroke="#666666" points="765,-208 611,-208 611,-167 765,-167 765,-208"/>
<text text-anchor="start" x="619" y="-196" font-family="Helvetica,sans-Serif" font-size="10.00">wmtk::components::internal</text>
<text text-anchor="start" x="619" y="-185" font-family="Helvetica,sans-Serif" font-size="10.00">::MultiMeshFromTag::create</text>
<text text-anchor="middle" x="688" y="-174" font-family="Helvetica,sans-Serif" font-size="10.00">_substructure_soup</text>
</a>
</g>
</g>
<!-- Node8&#45;&gt;Node20 -->
<g id="edge19_Node000008_Node000020" class="edge">
<title>Node8&#45;&gt;Node20</title>
<g id="a_edge19_Node000008_Node000020"><a xlink:title=" ">
<path fill="none" stroke="#63b8ff" d="M811.6,-187.5C796.57,-187.5 780.6,-187.5 765.33,-187.5"/>
<polygon fill="#63b8ff" stroke="#63b8ff" points="811.83,-191 821.83,-187.5 811.83,-184 811.83,-191"/>
</a>
</g>
</g>
<!-- Node21 -->
<g id="Node000021" class="node">
<title>Node21</title>
<g id="a_Node000021"><a xlink:href="classwmtk_1_1multimesh_1_1utils_1_1internal_1_1_tuple_tag.html#aded6749514cde25169eec3e5a9c2529e" target="_top" xlink:title=" ">
<polygon fill="white" stroke="#666666" points="761,-148.5 615,-148.5 615,-96.5 761,-96.5 761,-148.5"/>
<text text-anchor="start" x="623" y="-136.5" font-family="Helvetica,sans-Serif" font-size="10.00">wmtk::multimesh::utils</text>
<text text-anchor="start" x="623" y="-125.5" font-family="Helvetica,sans-Serif" font-size="10.00">::internal::TupleTag::</text>
<text text-anchor="start" x="623" y="-114.5" font-family="Helvetica,sans-Serif" font-size="10.00">extract_and_register_child</text>
<text text-anchor="middle" x="688" y="-103.5" font-family="Helvetica,sans-Serif" font-size="10.00">_mesh_from_tag_handle</text>
</a>
</g>
</g>
<!-- Node8&#45;&gt;Node21 -->
<g id="edge21_Node000008_Node000021" class="edge">
<title>Node8&#45;&gt;Node21</title>
<g id="a_edge21_Node000008_Node000021"><a xlink:title=" ">
<path fill="none" stroke="#63b8ff" d="M826.74,-169.13C806.35,-162.23 782.86,-154.27 761.11,-146.91"/>
<polygon fill="#63b8ff" stroke="#63b8ff" points="825.87,-172.53 836.47,-172.42 828.12,-165.9 825.87,-172.53"/>
</a>
</g>
</g>
<!-- Node26 -->
<g id="Node000026" class="node">
<title>Node26</title>
<g id="a_Node000026"><a xlink:href="namespacewmtk_1_1components.html#a52f9ca12856b67dee17249c6172e2bbe" target="_top" xlink:title=" ">
<polygon fill="white" stroke="#666666" points="169,-19 0,-19 0,0 169,0 169,-19"/>
<text text-anchor="middle" x="84.5" y="-7" font-family="Helvetica,sans-Serif" font-size="10.00">wmtk::components::multimesh</text>
</a>
</g>
</g>
<!-- Node8&#45;&gt;Node26 -->
<g id="edge32_Node000008_Node000026" class="edge">
<title>Node8&#45;&gt;Node26</title>
<g id="a_edge32_Node000008_Node000026"><a xlink:title=" ">
<path fill="none" stroke="#63b8ff" d="M861.76,-164.47C840.65,-140.9 804.46,-105.3 765,-87.5 565.83,2.33 301.94,3.33 169.25,-3.22"/>
<polygon fill="#63b8ff" stroke="#63b8ff" points="859.36,-167.04 868.58,-172.25 864.62,-162.42 859.36,-167.04"/>
</a>
</g>
</g>
<!-- Node10 -->
<g id="Node000010" class="node">
<title>Node10</title>
<g id="a_Node000010"><a xlink:href="namespacewmtk_1_1components.html#ac309092566399cef68679a1bb8107d1e" target="_top" xlink:title="Generate a multi&#45;mesh from a mesh with a tag that represents the substructure, the mesh is changed.">
<polygon fill="white" stroke="#666666" points="374,-452.5 205,-452.5 205,-422.5 374,-422.5 374,-452.5"/>
<text text-anchor="start" x="213" y="-440.5" font-family="Helvetica,sans-Serif" font-size="10.00">wmtk::components::multimesh</text>
<text text-anchor="middle" x="289.5" y="-429.5" font-family="Helvetica,sans-Serif" font-size="10.00">_from_tag</text>
</a>
</g>
</g>
<!-- Node9&#45;&gt;Node10 -->
<g id="edge9_Node000009_Node000010" class="edge">
<title>Node9&#45;&gt;Node10</title>
<g id="a_edge9_Node000009_Node000010"><a xlink:title=" ">
<path fill="none" stroke="#63b8ff" d="M479.48,-266.57C462.11,-306.16 426.25,-375.22 374,-413.5 369.25,-416.98 364.02,-419.95 358.55,-422.5"/>
<polygon fill="#63b8ff" stroke="#63b8ff" points="482.78,-267.75 483.49,-257.18 476.34,-265 482.78,-267.75"/>
</a>
</g>
</g>
<!-- Node12 -->
<g id="Node000012" class="node">
<title>Node12</title>
<g id="a_Node000012"><a xlink:href="namespacewmtk_1_1components.html#a4166e4880553cfacbf79ac3515a637cd" target="_top" xlink:title=" ">
<polygon fill="white" stroke="#666666" points="367,-404.5 212,-404.5 212,-374.5 367,-374.5 367,-404.5"/>
<text text-anchor="start" x="220" y="-392.5" font-family="Helvetica,sans-Serif" font-size="10.00">wmtk::components::periodic</text>
<text text-anchor="middle" x="289.5" y="-381.5" font-family="Helvetica,sans-Serif" font-size="10.00">_optimization</text>
</a>
</g>
</g>
<!-- Node9&#45;&gt;Node12 -->
<g id="edge11_Node000009_Node000012" class="edge">
<title>Node9&#45;&gt;Node12</title>
<g id="a_edge11_Node000009_Node000012"><a xlink:title=" ">
<path fill="none" stroke="#63b8ff" d="M472.47,-265.43C451.67,-294.82 415.69,-339.6 374,-365.5 368.49,-368.92 362.48,-371.87 356.28,-374.41"/>
<polygon fill="#63b8ff" stroke="#63b8ff" points="475.35,-267.41 478.18,-257.2 469.6,-263.42 475.35,-267.41"/>
</a>
</g>
</g>
<!-- Node13 -->
<g id="Node000013" class="node">
<title>Node13</title>
<g id="a_Node000013"><a xlink:href="test__component__multimesh__from__tag_8cpp.html#a2231774bf0d53fb5f6c1b34753afb255" target="_top" xlink:title=" ">
<polygon fill="white" stroke="#666666" points="325,-356 254,-356 254,-337 325,-337 325,-356"/>
<text text-anchor="middle" x="289.5" y="-344" font-family="Helvetica,sans-Serif" font-size="10.00">TEST_CASE</text>
</a>
</g>
</g>
<!-- Node9&#45;&gt;Node13 -->
<g id="edge12_Node000009_Node000013" class="edge">
<title>Node9&#45;&gt;Node13</title>
<g id="a_edge12_Node000009_Node000013"><a xlink:title=" ">
<path fill="none" stroke="#63b8ff" d="M463.94,-264.05C441.56,-284.85 408.21,-312.47 374,-328.5 358.83,-335.61 340.78,-339.95 325.35,-342.58"/>
<polygon fill="#63b8ff" stroke="#63b8ff" points="466.53,-266.42 471.39,-257.01 461.72,-261.34 466.53,-266.42"/>
</a>
</g>
</g>
<!-- Node14 -->
<g id="Node000014" class="node">
<title>Node14</title>
<g id="a_Node000014"><a xlink:href="test__component__multimesh__from__tag_8cpp.html#a9a31cb828b93e2ddcf0a5063d4d1c9e6" target="_top" xlink:title=" ">
<polygon fill="white" stroke="#666666" points="325,-319 254,-319 254,-300 325,-300 325,-319"/>
<text text-anchor="middle" x="289.5" y="-307" font-family="Helvetica,sans-Serif" font-size="10.00">TEST_CASE</text>
</a>
</g>
</g>
<!-- Node9&#45;&gt;Node14 -->
<g id="edge13_Node000009_Node000014" class="edge">
<title>Node9&#45;&gt;Node14</title>
<g id="a_edge13_Node000009_Node000014"><a xlink:title=" ">
<path fill="none" stroke="#63b8ff" d="M444.2,-261.62C423.16,-272.01 397.8,-283.48 374,-291.5 358.26,-296.8 340.31,-300.91 325.1,-303.86"/>
<polygon fill="#63b8ff" stroke="#63b8ff" points="445.87,-264.7 453.24,-257.09 442.73,-258.44 445.87,-264.7"/>
</a>
</g>
</g>
<!-- Node15 -->
<g id="Node000015" class="node">
<title>Node15</title>
<g id="a_Node000015"><a xlink:href="test__component__multimesh__from__tag_8cpp.html#a7a8f66a094907f369fa10876691f42f9" target="_top" xlink:title=" ">
<polygon fill="white" stroke="#666666" points="325,-282 254,-282 254,-263 325,-263 325,-282"/>
<text text-anchor="middle" x="289.5" y="-270" font-family="Helvetica,sans-Serif" font-size="10.00">TEST_CASE</text>
</a>
</g>
</g>
<!-- Node9&#45;&gt;Node15 -->
<g id="edge14_Node000009_Node000015" class="edge">
<title>Node9&#45;&gt;Node15</title>
<g id="a_edge14_Node000009_Node000015"><a xlink:title=" ">
<path fill="none" stroke="#63b8ff" d="M400.14,-252.86C373.42,-257.65 345.83,-262.59 325.01,-266.32"/>
<polygon fill="#63b8ff" stroke="#63b8ff" points="401.1,-256.25 410.32,-251.04 399.86,-249.36 401.1,-256.25"/>
</a>
</g>
</g>
<!-- Node16 -->
<g id="Node000016" class="node">
<title>Node16</title>
<g id="a_Node000016"><a xlink:href="test__component__multimesh__from__tag_8cpp.html#af55ce8249624ce4d6a3feaad760949a6" target="_top" xlink:title=" ">
<polygon fill="white" stroke="#666666" points="325,-245 254,-245 254,-226 325,-226 325,-245"/>
<text text-anchor="middle" x="289.5" y="-233" font-family="Helvetica,sans-Serif" font-size="10.00">TEST_CASE</text>
</a>
</g>
</g>
<!-- Node9&#45;&gt;Node16 -->
<g id="edge15_Node000009_Node000016" class="edge">
<title>Node9&#45;&gt;Node16</title>
<g id="a_edge15_Node000009_Node000016"><a xlink:title=" ">
<path fill="none" stroke="#63b8ff" d="M400.14,-236.05C373.42,-235.91 345.83,-235.78 325.01,-235.67"/>
<polygon fill="#63b8ff" stroke="#63b8ff" points="400.31,-239.55 410.32,-236.1 400.34,-232.55 400.31,-239.55"/>
</a>
</g>
</g>
<!-- Node17 -->
<g id="Node000017" class="node">
<title>Node17</title>
<g id="a_Node000017"><a xlink:href="test__component__multimesh__from__tag_8cpp.html#a18cd3d411cfadc472201c20662d62869" target="_top" xlink:title=" ">
<polygon fill="white" stroke="#666666" points="325,-208 254,-208 254,-189 325,-189 325,-208"/>
<text text-anchor="middle" x="289.5" y="-196" font-family="Helvetica,sans-Serif" font-size="10.00">TEST_CASE</text>
</a>
</g>
</g>
<!-- Node9&#45;&gt;Node17 -->
<g id="edge16_Node000009_Node000017" class="edge">
<title>Node9&#45;&gt;Node17</title>
<g id="a_edge16_Node000009_Node000017"><a xlink:title=" ">
<path fill="none" stroke="#63b8ff" d="M400.5,-219.3C373.66,-214.22 345.92,-208.98 325.01,-205.02"/>
<polygon fill="#63b8ff" stroke="#63b8ff" points="399.85,-222.73 410.32,-221.15 401.15,-215.86 399.85,-222.73"/>
</a>
</g>
</g>
<!-- Node18 -->
<g id="Node000018" class="node">
<title>Node18</title>
<g id="a_Node000018"><a xlink:href="test__component__multimesh__from__tag_8cpp.html#a4caad3dd8a6355f2ca66fdb0b0af7999" target="_top" xlink:title=" ">
<polygon fill="white" stroke="#666666" points="325,-171 254,-171 254,-152 325,-152 325,-171"/>
<text text-anchor="middle" x="289.5" y="-159" font-family="Helvetica,sans-Serif" font-size="10.00">TEST_CASE</text>
</a>
</g>
</g>
<!-- Node9&#45;&gt;Node18 -->
<g id="edge17_Node000009_Node000018" class="edge">
<title>Node9&#45;&gt;Node18</title>
<g id="a_edge17_Node000009_Node000018"><a xlink:title=" ">
<path fill="none" stroke="#63b8ff" d="M444.7,-211.26C423.56,-200.64 397.99,-188.83 374,-180.5 358.27,-175.04 340.32,-170.72 325.11,-167.59"/>
<polygon fill="#63b8ff" stroke="#63b8ff" points="443.27,-214.47 453.77,-215.89 446.45,-208.23 443.27,-214.47"/>
</a>
</g>
</g>
<!-- Node19 -->
<g id="Node000019" class="node">
<title>Node19</title>
<g id="a_Node000019"><a xlink:href="namespacewmtk_1_1components.html#a9d6d11e3b7ba03911492ecfc79622247" target="_top" xlink:title=" ">
<polygon fill="white" stroke="#666666" points="366.5,-133.5 212.5,-133.5 212.5,-103.5 366.5,-103.5 366.5,-133.5"/>
<text text-anchor="start" x="220.5" y="-121.5" font-family="Helvetica,sans-Serif" font-size="10.00">wmtk::components::triangle</text>
<text text-anchor="middle" x="289.5" y="-110.5" font-family="Helvetica,sans-Serif" font-size="10.00">_insertion</text>
</a>
</g>
</g>
<!-- Node9&#45;&gt;Node19 -->
<g id="edge18_Node000009_Node000019" class="edge">
<title>Node9&#45;&gt;Node19</title>
<g id="a_edge18_Node000009_Node000019"><a xlink:title=" ">
<path fill="none" stroke="#63b8ff" d="M449.86,-210.2C436.7,-201.29 422.38,-190.94 410,-180.5 392.46,-165.71 393.62,-155.39 374,-143.5 367.66,-139.66 360.69,-136.37 353.56,-133.56"/>
<polygon fill="#63b8ff" stroke="#63b8ff" points="448.04,-213.19 458.3,-215.83 451.92,-207.37 448.04,-213.19"/>
</a>
</g>
</g>
<!-- Node11 -->
<g id="Node000011" class="node">
<title>Node11</title>
<g id="a_Node000011"><a xlink:href="test__component__multimesh__from__tag_8cpp.html#a2b0208caf4b963a36a43604c3e7cf34a" target="_top" xlink:title=" ">
<polygon fill="white" stroke="#666666" points="120,-447 49,-447 49,-428 120,-428 120,-447"/>
<text text-anchor="middle" x="84.5" y="-435" font-family="Helvetica,sans-Serif" font-size="10.00">TEST_CASE</text>
</a>
</g>
</g>
<!-- Node10&#45;&gt;Node11 -->
<g id="edge10_Node000010_Node000011" class="edge">
<title>Node10&#45;&gt;Node11</title>
<g id="a_edge10_Node000010_Node000011"><a xlink:title=" ">
<path fill="none" stroke="#63b8ff" d="M194.64,-437.5C168.09,-437.5 140.85,-437.5 120.22,-437.5"/>
<polygon fill="#63b8ff" stroke="#63b8ff" points="194.76,-441 204.76,-437.5 194.76,-434 194.76,-441"/>
</a>
</g>
</g>
<!-- Node20&#45;&gt;Node9 -->
<g id="edge20_Node000020_Node000009" class="edge">
<title>Node20&#45;&gt;Node9</title>
<g id="a_edge20_Node000020_Node000009"><a xlink:title=" ">
<path fill="none" stroke="#63b8ff" d="M601,-209.28C592.27,-211.49 583.41,-213.73 574.73,-215.93"/>
<polygon fill="#63b8ff" stroke="#63b8ff" points="601.97,-212.64 610.8,-206.8 600.25,-205.86 601.97,-212.64"/>
</a>
</g>
</g>
<!-- Node22 -->
<g id="Node000022" class="node">
<title>Node22</title>
<g id="a_Node000022"><a xlink:href="namespacewmtk_1_1multimesh_1_1utils.html#a7abce025022d68cda1ab1de2663865df" target="_top" xlink:title="extract a child mesh based on the tag handle and the tag value, and register it to the input (parent)...">
<polygon fill="white" stroke="#666666" points="557.5,-171 427.5,-171 427.5,-130 557.5,-130 557.5,-171"/>
<text text-anchor="start" x="435.5" y="-159" font-family="Helvetica,sans-Serif" font-size="10.00">wmtk::multimesh::utils</text>
<text text-anchor="start" x="435.5" y="-148" font-family="Helvetica,sans-Serif" font-size="10.00">::extract_and_register</text>
<text text-anchor="middle" x="492.5" y="-137" font-family="Helvetica,sans-Serif" font-size="10.00">_child_mesh_from_tag</text>
</a>
</g>
</g>
<!-- Node21&#45;&gt;Node22 -->
<g id="edge22_Node000021_Node000022" class="edge">
<title>Node21&#45;&gt;Node22</title>
<g id="a_edge22_Node000021_Node000022"><a xlink:title=" ">
<path fill="none" stroke="#63b8ff" d="M604.7,-134.41C588.96,-136.69 572.71,-139.04 557.64,-141.22"/>
<polygon fill="#63b8ff" stroke="#63b8ff" points="605.55,-137.82 614.95,-132.93 604.55,-130.89 605.55,-137.82"/>
</a>
</g>
</g>
<!-- Node23 -->
<g id="Node000023" class="node">
<title>Node23</title>
<g id="a_Node000023"><a xlink:href="namespacewmtk_1_1multimesh_1_1utils.html#a3884bf7da96f02deb13cc2b7c8b3629e" target="_top" xlink:title="extract a child mesh based on the tag handle and the tag value, and register it to the input (parent)...">
<polygon fill="white" stroke="#666666" points="575,-112 410,-112 410,-71 575,-71 575,-112"/>
<text text-anchor="start" x="418" y="-100" font-family="Helvetica,sans-Serif" font-size="10.00">wmtk::multimesh::utils</text>
<text text-anchor="start" x="418" y="-89" font-family="Helvetica,sans-Serif" font-size="10.00">::extract_and_register</text>
<text text-anchor="middle" x="492.5" y="-78" font-family="Helvetica,sans-Serif" font-size="10.00">_child_mesh_from_tag_handle</text>
</a>
</g>
</g>
<!-- Node21&#45;&gt;Node23 -->
<g id="edge23_Node000021_Node000023" class="edge">
<title>Node21&#45;&gt;Node23</title>
<g id="a_edge23_Node000021_Node000023"><a xlink:title=" ">
<path fill="none" stroke="#63b8ff" d="M604.78,-109.33C594.94,-107.75 584.89,-106.14 575.06,-104.57"/>
<polygon fill="#63b8ff" stroke="#63b8ff" points="604.52,-112.83 614.95,-110.96 605.63,-105.92 604.52,-112.83"/>
</a>
</g>
</g>
<!-- Node23&#45;&gt;Node19 -->
<g id="edge31_Node000023_Node000019" class="edge">
<title>Node23&#45;&gt;Node19</title>
<g id="a_edge31_Node000023_Node000019"><a xlink:title=" ">
<path fill="none" stroke="#63b8ff" d="M399.66,-103.84C388.63,-105.32 377.45,-106.82 366.67,-108.27"/>
<polygon fill="#63b8ff" stroke="#63b8ff" points="400.3,-107.28 409.75,-102.48 399.37,-100.34 400.3,-107.28"/>
</a>
</g>
</g>
<!-- Node24 -->
<g id="Node000024" class="node">
<title>Node24</title>
<g id="a_Node000024"><a xlink:href="namespacewmtk_1_1multimesh_1_1utils.html#a4c77e0353f0106b750a18d225d22cd8a" target="_top" xlink:title="extract a child mesh based on the given tag and tag value, and register it to the input (parent) mesh">
<polygon fill="white" stroke="#666666" points="354.5,-85 224.5,-85 224.5,-44 354.5,-44 354.5,-85"/>
<text text-anchor="start" x="232.5" y="-73" font-family="Helvetica,sans-Serif" font-size="10.00">wmtk::multimesh::utils</text>
<text text-anchor="start" x="232.5" y="-62" font-family="Helvetica,sans-Serif" font-size="10.00">::extract_and_register</text>
<text text-anchor="middle" x="289.5" y="-51" font-family="Helvetica,sans-Serif" font-size="10.00">_child_mesh_from_tag</text>
</a>
</g>
</g>
<!-- Node23&#45;&gt;Node24 -->
<g id="edge24_Node000023_Node000024" class="edge">
<title>Node23&#45;&gt;Node24</title>
<g id="a_edge24_Node000023_Node000024"><a xlink:title=" ">
<path fill="none" stroke="#63b8ff" d="M399.78,-79.18C384.52,-77.13 368.99,-75.04 354.62,-73.11"/>
<polygon fill="#63b8ff" stroke="#63b8ff" points="399.37,-82.66 409.75,-80.52 400.3,-75.72 399.37,-82.66"/>
</a>
</g>
</g>
<!-- Node25 -->
<g id="Node000025" class="node">
<title>Node25</title>
<g id="a_Node000025"><a xlink:href="namespacewmtk_1_1utils.html#a4ea0d7c148b4066c6692a8e31c7b7b7a" target="_top" xlink:title=" ">
<polygon fill="white" stroke="#666666" points="161,-170 8,-170 8,-129 161,-129 161,-170"/>
<text text-anchor="start" x="16" y="-158" font-family="Helvetica,sans-Serif" font-size="10.00">wmtk::utils::generate</text>
<text text-anchor="start" x="16" y="-147" font-family="Helvetica,sans-Serif" font-size="10.00">_raw_tetmesh_with_surface</text>
<text text-anchor="middle" x="84.5" y="-136" font-family="Helvetica,sans-Serif" font-size="10.00">_from_input</text>
</a>
</g>
</g>
<!-- Node24&#45;&gt;Node25 -->
<g id="edge25_Node000024_Node000025" class="edge">
<title>Node24&#45;&gt;Node25</title>
<g id="a_edge25_Node000024_Node000025"><a xlink:title=" ">
<path fill="none" stroke="#63b8ff" d="M215.86,-89.17C212.14,-90.88 208.5,-92.65 205,-94.5 187.54,-103.7 186.51,-111.39 169,-120.5 163.28,-123.48 157.19,-126.26 151.01,-128.82"/>
<polygon fill="#63b8ff" stroke="#63b8ff" points="217.45,-92.29 225.22,-85.09 214.65,-85.88 217.45,-92.29"/>
</a>
</g>
</g>
<!-- Node24&#45;&gt;Node26 -->
<g id="edge27_Node000024_Node000026" class="edge">
<title>Node24&#45;&gt;Node26</title>
<g id="a_edge27_Node000024_Node000026"><a xlink:title=" ">
<path fill="none" stroke="#63b8ff" d="M214.47,-44.44C182.45,-35.77 146.49,-26.02 120.69,-19.03"/>
<polygon fill="#63b8ff" stroke="#63b8ff" points="213.7,-47.86 224.27,-47.1 215.53,-41.1 213.7,-47.86"/>
</a>
</g>
</g>
<!-- Node27 -->
<g id="Node000027" class="node">
<title>Node27</title>
<g id="a_Node000027"><a xlink:href="test__component__isotropic__remeshing_8cpp.html#aae475685ae29b731655dd43137a950d6" target="_top" xlink:title=" ">
<polygon fill="white" stroke="#666666" points="120,-111 49,-111 49,-92 120,-92 120,-111"/>
<text text-anchor="middle" x="84.5" y="-99" font-family="Helvetica,sans-Serif" font-size="10.00">TEST_CASE</text>
</a>
</g>
</g>
<!-- Node24&#45;&gt;Node27 -->
<g id="edge29_Node000024_Node000027" class="edge">
<title>Node24&#45;&gt;Node27</title>
<g id="a_edge29_Node000024_Node000027"><a xlink:title=" ">
<path fill="none" stroke="#63b8ff" d="M214.41,-78C182.16,-83.88 145.93,-90.49 120.11,-95.19"/>
<polygon fill="#63b8ff" stroke="#63b8ff" points="215.06,-81.44 224.27,-76.21 213.8,-74.56 215.06,-81.44"/>
</a>
</g>
</g>
<!-- Node28 -->
<g id="Node000028" class="node">
<title>Node28</title>
<g id="a_Node000028"><a xlink:href="test__component__isotropic__remeshing_8cpp.html#ab3fcea88943daf212aeeda03eb0baa8b" target="_top" xlink:title=" ">
<polygon fill="white" stroke="#666666" points="120,-74 49,-74 49,-55 120,-55 120,-74"/>
<text text-anchor="middle" x="84.5" y="-62" font-family="Helvetica,sans-Serif" font-size="10.00">TEST_CASE</text>
</a>
</g>
</g>
<!-- Node24&#45;&gt;Node28 -->
<g id="edge30_Node000024_Node000028" class="edge">
<title>Node24&#45;&gt;Node28</title>
<g id="a_edge30_Node000024_Node000028"><a xlink:title=" ">
<path fill="none" stroke="#63b8ff" d="M213.99,-64.5C181.85,-64.5 145.82,-64.5 120.11,-64.5"/>
<polygon fill="#63b8ff" stroke="#63b8ff" points="214.27,-68 224.27,-64.5 214.27,-61 214.27,-68"/>
</a>
</g>
</g>
<!-- Node25&#45;&gt;Node25 -->
<g id="edge26_Node000025_Node000025" class="edge">
<title>Node25&#45;&gt;Node25</title>
<g id="a_edge26_Node000025_Node000025"><a xlink:title=" ">
<path fill="none" stroke="#63b8ff" d="M119.6,-179.96C114.38,-184.74 102.68,-188 84.5,-188 55.41,-188 42.92,-179.65 47.01,-170.1"/>
<polygon fill="#63b8ff" stroke="#63b8ff" points="123.03,-180.64 121.99,-170.1 116.23,-178.99 123.03,-180.64"/>
</a>
</g>
</g>
<!-- Node26&#45;&gt;Node26 -->
<g id="edge28_Node000026_Node000026" class="edge">
<title>Node26&#45;&gt;Node26</title>
<g id="a_edge28_Node000026_Node000026"><a xlink:title=" ">
<path fill="none" stroke="#63b8ff" d="M122.75,-26.69C122.74,-32.42 109.99,-37 84.5,-37 48.24,-37 37.76,-27.73 53.06,-19.08"/>
<polygon fill="#63b8ff" stroke="#63b8ff" points="125.22,-24.2 115.94,-19.08 120,-28.87 125.22,-24.2"/>
</a>
</g>
</g>
</g>
</svg>

<g id="navigator" transform="translate(0 0)" fill="#404254">
  <rect fill="#f2f5e9" fill-opacity="0.5" stroke="#606060" stroke-width=".5" x="0" y="0" width="60" height="60"/>
  <use id="zoomplus" xlink:href="#zoomPlus" x="17" y="9" onmousedown="handleZoom(evt,'in')"/>
  <use id="zoomminus" xlink:href="#zoomMin" x="42" y="9" onmousedown="handleZoom(evt,'out')"/>
  <use id="reset" xlink:href="#resetDef" x="30" y="36" onmousedown="handleReset()"/>
   <use id="arrowup" xlink:href="#arrowUp" x="0" y="0" onmousedown="handlePan(0,-1)"/>
  <use id="arrowright" xlink:href="#arrowRight" x="0" y="0" onmousedown="handlePan(1,0)"/>
  <use id="arrowdown" xlink:href="#arrowDown" x="0" y="0" onmousedown="handlePan(0,1)"/>
  <use id="arrowleft" xlink:href="#arrowLeft" x="0" y="0" onmousedown="handlePan(-1,0)"/>
</g>
<svg viewBox="0 0 15 15" width="100%" height="30px" preserveAspectRatio="xMaxYMin meet">
 <g id="arrow_out" transform="scale(0.3 0.3)">
  <a xlink:href="classwmtk_1_1attribute_1_1_attribute_manager_ad8c21b193224524ed0f792b0e2d70f83_icgraph_org.svg" target="_base">
   <rect id="button" ry="5" rx="5" y="6" x="6" height="38" width="38"
        fill="#f2f5e9" fill-opacity="0.5" stroke="#606060" stroke-width="1.0"/>
   <path id="arrow"
     d="M 11.500037,31.436501 C 11.940474,20.09759 22.043105,11.32322 32.158766,21.979434 L 37.068811,17.246167 C 37.068811,17.246167 37.088388,32 37.088388,32 L 22.160133,31.978069 C 22.160133,31.978069 26.997745,27.140456 26.997745,27.140456 C 18.528582,18.264221 13.291696,25.230495 11.500037,31.436501 z"
     style="fill:#404040;"/>
  </a>
 </g>
</svg>

<style type='text/css'>
<![CDATA[
[data-mouse-over-selected='false'] { opacity: 0.7; }
[data-mouse-over-selected='true']  { opacity: 1.0; }
]]>
</style>
<script type="application/ecmascript"><![CDATA[
document.addEventListener('DOMContentLoaded', (event) => {
  highlightEdges();
  highlightAdjacentNodes();
});
]]></script>
</svg>
