<?xml version="1.0" encoding="UTF-8" standalone="no"?>
<!DOCTYPE svg PUBLIC "-//W3C//DTD SVG 1.1//EN"
 "http://www.w3.org/Graphics/SVG/1.1/DTD/svg11.dtd">
<!-- Generated by graphviz version 2.43.0 (0)
 -->
<!-- Title: wmtk::MeshCRTP::create_const_accessor Pages: 1 -->
<svg width="578pt" height="172pt"
 viewBox="0.00 0.00 578.00 172.00" xmlns="http://www.w3.org/2000/svg" xmlns:xlink="http://www.w3.org/1999/xlink">
<g id="graph0" class="graph" transform="scale(1 1) rotate(0) translate(4 168)">
<title>wmtk::MeshCRTP::create_const_accessor</title>
<!-- Node1 -->
<g id="Node000001" class="node">
<title>Node1</title>
<g id="a_Node000001"><a xlink:title="constructs a const accessor that is aware of the derived mesh&#39;s type">
<polygon fill="#999999" stroke="#666666" points="570,-99 432,-99 432,-69 570,-69 570,-99"/>
<text text-anchor="start" x="440" y="-87" font-family="Helvetica,sans-Serif" font-size="10.00">wmtk::MeshCRTP::create</text>
<text text-anchor="middle" x="501" y="-76" font-family="Helvetica,sans-Serif" font-size="10.00">_const_accessor</text>
</a>
</g>
</g>
<!-- Node2 -->
<g id="Node000002" class="node">
<title>Node2</title>
<g id="a_Node000002"><a xlink:href="classwmtk_1_1_simplex_inversion_invariant.html#a1163728175bfbd4dc26f4861019ee591" target="_top" xlink:title="we assume with local vid order (v0,v1,v2,v3) has positive volume (orient3d(v0,v1,v2,...">
<polygon fill="white" stroke="#666666" points="395.5,-164 216.5,-164 216.5,-134 395.5,-134 395.5,-164"/>
<text text-anchor="start" x="224.5" y="-152" font-family="Helvetica,sans-Serif" font-size="10.00">wmtk::SimplexInversionInvariant</text>
<text text-anchor="middle" x="306" y="-141" font-family="Helvetica,sans-Serif" font-size="10.00">::after</text>
</a>
</g>
</g>
<!-- Node1&#45;&gt;Node2 -->
<g id="edge1_Node000001_Node000002" class="edge">
<title>Node1&#45;&gt;Node2</title>
<g id="a_edge1_Node000001_Node000002"><a xlink:title=" ">
<path fill="none" stroke="#63b8ff" d="M455.25,-102.91C437.04,-110.28 415.68,-118.49 396,-125 386.58,-128.12 376.5,-131.13 366.64,-133.91"/>
<polygon fill="#63b8ff" stroke="#63b8ff" points="456.81,-106.06 464.74,-99.04 454.16,-99.58 456.81,-106.06"/>
</a>
</g>
</g>
<!-- Node3 -->
<g id="Node000003" class="node">
<title>Node3</title>
<g id="a_Node000003"><a xlink:href="namespacewmtk_1_1components.html#a12bd8646c56df6a1f46dba67ab86ebd7" target="_top" xlink:title=" ">
<polygon fill="white" stroke="#666666" points="386.5,-115.5 225.5,-115.5 225.5,-96.5 386.5,-96.5 386.5,-115.5"/>
<text text-anchor="middle" x="306" y="-103.5" font-family="Helvetica,sans-Serif" font-size="10.00">wmtk::components::delaunay</text>
</a>
</g>
</g>
<!-- Node1&#45;&gt;Node3 -->
<g id="edge2_Node000001_Node000003" class="edge">
<title>Node1&#45;&gt;Node3</title>
<g id="a_edge2_Node000001_Node000003"><a xlink:title=" ">
<path fill="none" stroke="#63b8ff" d="M421.87,-92.91C410.26,-94.23 398.28,-95.59 386.64,-96.92"/>
<polygon fill="#63b8ff" stroke="#63b8ff" points="422.42,-96.37 431.96,-91.76 421.62,-89.41 422.42,-96.37"/>
</a>
</g>
</g>
<!-- Node4 -->
<g id="Node000004" class="node">
<title>Node4</title>
<g id="a_Node000004"><a xlink:href="namespacewmtk_1_1components.html#a2b581580b9722fc41792176832d20b57" target="_top" xlink:title=" ">
<polygon fill="white" stroke="#666666" points="379,-78 233,-78 233,-48 379,-48 379,-78"/>
<text text-anchor="start" x="241" y="-66" font-family="Helvetica,sans-Serif" font-size="10.00">wmtk::components::points</text>
<text text-anchor="middle" x="306" y="-55" font-family="Helvetica,sans-Serif" font-size="10.00">_to_rowvectors</text>
</a>
</g>
</g>
<!-- Node1&#45;&gt;Node4 -->
<g id="edge3_Node000001_Node000004" class="edge">
<title>Node1&#45;&gt;Node4</title>
<g id="a_edge3_Node000001_Node000004"><a xlink:title=" ">
<path fill="none" stroke="#63b8ff" d="M421.78,-75.49C407.64,-73.95 392.96,-72.35 379.01,-70.84"/>
<polygon fill="#63b8ff" stroke="#63b8ff" points="421.64,-78.99 431.96,-76.6 422.39,-72.03 421.64,-78.99"/>
</a>
</g>
</g>
<!-- Node5 -->
<g id="Node000005" class="node">
<title>Node5</title>
<g id="a_Node000005"><a xlink:href="namespacewmtk_1_1components.html#ae3a4b32383fdc9c2eb8334cc8ef947a5" target="_top" xlink:title="Perform shortest&#45;edge collapse on a triangular surface mesh.">
<polygon fill="white" stroke="#666666" points="396,-30 216,-30 216,0 396,0 396,-30"/>
<text text-anchor="start" x="224" y="-18" font-family="Helvetica,sans-Serif" font-size="10.00">wmtk::components::shortestedge</text>
<text text-anchor="middle" x="306" y="-7" font-family="Helvetica,sans-Serif" font-size="10.00">_collapse</text>
</a>
</g>
</g>
<!-- Node1&#45;&gt;Node5 -->
<g id="edge4_Node000001_Node000005" class="edge">
<title>Node1&#45;&gt;Node5</title>
<g id="a_edge4_Node000001_Node000005"><a xlink:title=" ">
<path fill="none" stroke="#63b8ff" d="M458.94,-64.6C440.02,-56.09 417.13,-46.38 396,-39 386.93,-35.84 377.23,-32.84 367.68,-30.1"/>
<polygon fill="#63b8ff" stroke="#63b8ff" points="457.6,-67.83 468.15,-68.79 460.5,-61.46 457.6,-67.83"/>
</a>
</g>
</g>
<!-- Node6 -->
<g id="Node000006" class="node">
<title>Node6</title>
<g id="a_Node000006"><a xlink:href="namespacewmtk_1_1components.html#a3154cdbc6047eee67258b69cc7d5e7cf" target="_top" xlink:title="Perform shortest&#45;edge collapse on a triangular surface mesh.">
<polygon fill="white" stroke="#666666" points="180,-30 0,-30 0,0 180,0 180,-30"/>
<text text-anchor="start" x="8" y="-18" font-family="Helvetica,sans-Serif" font-size="10.00">wmtk::components::shortestedge</text>
<text text-anchor="middle" x="90" y="-7" font-family="Helvetica,sans-Serif" font-size="10.00">_collapse</text>
</a>
</g>
</g>
<!-- Node5&#45;&gt;Node6 -->
<g id="edge5_Node000005_Node000006" class="edge">
<title>Node5&#45;&gt;Node6</title>
<g id="a_edge5_Node000005_Node000006"><a xlink:title=" ">
<path fill="none" stroke="#63b8ff" d="M205.77,-15C197.19,-15 188.55,-15 180.06,-15"/>
<polygon fill="#63b8ff" stroke="#63b8ff" points="205.79,-18.5 215.79,-15 205.79,-11.5 205.79,-18.5"/>
</a>
</g>
</g>
</g>
</svg>
