<?xml version="1.0" encoding="UTF-8" standalone="no"?>
<!DOCTYPE svg PUBLIC "-//W3C//DTD SVG 1.1//EN"
 "http://www.w3.org/Graphics/SVG/1.1/DTD/svg11.dtd">
<!-- Generated by graphviz version 2.43.0 (0)
 -->
<!-- Title: wmtk::TetMesh::is_valid Pages: 1 -->
<svg width="920pt" height="575pt"
 viewBox="0.00 0.00 920.00 574.50" xmlns="http://www.w3.org/2000/svg" xmlns:xlink="http://www.w3.org/1999/xlink">
<g id="graph0" class="graph" transform="scale(1 1) rotate(0) translate(4 570.5)">
<title>wmtk::TetMesh::is_valid</title>
<!-- Node1 -->
<g id="Node000001" class="node">
<title>Node1</title>
<g id="a_Node000001"><a xlink:title="check validity of tuple including its hash">
<polygon fill="#999999" stroke="#666666" points="912,-409 778,-409 778,-390 912,-390 912,-409"/>
<text text-anchor="middle" x="845" y="-397" font-family="Helvetica,sans-Serif" font-size="10.00">wmtk::TetMesh::is_valid</text>
</a>
</g>
</g>
<!-- Node2 -->
<g id="Node000002" class="node">
<title>Node2</title>
<g id="a_Node000002"><a xlink:href="classwmtk_1_1_tet_mesh.html#a68609916210858129ba39958a273e78e" target="_top" xlink:title=" ">
<polygon fill="white" stroke="#666666" points="508,-470.5 387,-470.5 387,-440.5 508,-440.5 508,-470.5"/>
<text text-anchor="start" x="395" y="-458.5" font-family="Helvetica,sans-Serif" font-size="10.00">wmtk::TetMesh::edge</text>
<text text-anchor="middle" x="447.5" y="-447.5" font-family="Helvetica,sans-Serif" font-size="10.00">_tuple_from_id</text>
</a>
</g>
</g>
<!-- Node1&#45;&gt;Node2 -->
<g id="edge1_Node000001_Node000002" class="edge">
<title>Node1&#45;&gt;Node2</title>
<g id="a_edge1_Node000001_Node000002"><a xlink:title=" ">
<path fill="none" stroke="#63b8ff" d="M778.86,-410.69C766.62,-412.69 753.93,-414.71 742,-416.5 661.17,-428.6 567.53,-440.72 508.17,-448.16"/>
<polygon fill="#63b8ff" stroke="#63b8ff" points="779.7,-414.09 789,-409.01 778.56,-407.19 779.7,-414.09"/>
</a>
</g>
</g>
<!-- Node4 -->
<g id="Node000004" class="node">
<title>Node4</title>
<g id="a_Node000004"><a xlink:href="classwmtk_1_1_tet_mesh.html#a6d216046ac28a11f7d0fd07f9e090ba3" target="_top" xlink:title=" ">
<polygon fill="white" stroke="#666666" points="506.5,-422.5 388.5,-422.5 388.5,-392.5 506.5,-392.5 506.5,-422.5"/>
<text text-anchor="start" x="396.5" y="-410.5" font-family="Helvetica,sans-Serif" font-size="10.00">wmtk::TetMesh::face</text>
<text text-anchor="middle" x="447.5" y="-399.5" font-family="Helvetica,sans-Serif" font-size="10.00">_tuple_from_id</text>
</a>
</g>
</g>
<!-- Node1&#45;&gt;Node4 -->
<g id="edge3_Node000001_Node000004" class="edge">
<title>Node1&#45;&gt;Node4</title>
<g id="a_edge3_Node000001_Node000004"><a xlink:title=" ">
<path fill="none" stroke="#63b8ff" d="M767.77,-401.04C691.45,-402.59 575.69,-404.93 506.53,-406.33"/>
<polygon fill="#63b8ff" stroke="#63b8ff" points="767.88,-404.54 777.8,-400.84 767.73,-397.54 767.88,-404.54"/>
</a>
</g>
</g>
<!-- Node5 -->
<g id="Node000005" class="node">
<title>Node5</title>
<g id="a_Node000005"><a xlink:href="classwmtk_1_1_tet_mesh.html#a9a30d64d4b874e9bb156e6c771e7f08c" target="_top" xlink:title="returns if a tuple is counterclockwise or not">
<polygon fill="white" stroke="#666666" points="716,-485 587,-485 587,-466 716,-466 716,-485"/>
<text text-anchor="middle" x="651.5" y="-473" font-family="Helvetica,sans-Serif" font-size="10.00">wmtk::TetMesh::is_ccw</text>
</a>
</g>
</g>
<!-- Node1&#45;&gt;Node5 -->
<g id="edge5_Node000001_Node000005" class="edge">
<title>Node1&#45;&gt;Node5</title>
<g id="a_edge5_Node000001_Node000005"><a xlink:title=" ">
<path fill="none" stroke="#63b8ff" d="M819.01,-414.11C798.76,-425.48 769.23,-441.04 742,-451.5 727.13,-457.21 710.38,-462.09 695.42,-465.94"/>
<polygon fill="#63b8ff" stroke="#63b8ff" points="820.92,-417.05 827.88,-409.06 817.46,-410.97 820.92,-417.05"/>
</a>
</g>
</g>
<!-- Node6 -->
<g id="Node000006" class="node">
<title>Node6</title>
<g id="a_Node000006"><a xlink:href="classwmtk_1_1_tet_mesh.html#a8e0e56365f9c2cb86588a9d7b1874203" target="_top" xlink:title=" ">
<polygon fill="white" stroke="#666666" points="502.5,-566.5 392.5,-566.5 392.5,-536.5 502.5,-536.5 502.5,-566.5"/>
<text text-anchor="start" x="400.5" y="-554.5" font-family="Helvetica,sans-Serif" font-size="10.00">wmtk::TetMesh::tet</text>
<text text-anchor="middle" x="447.5" y="-543.5" font-family="Helvetica,sans-Serif" font-size="10.00">_tuple_from_id</text>
</a>
</g>
</g>
<!-- Node1&#45;&gt;Node6 -->
<g id="edge33_Node000001_Node000006" class="edge">
<title>Node1&#45;&gt;Node6</title>
<g id="a_edge33_Node000001_Node000006"><a xlink:title=" ">
<path fill="none" stroke="#63b8ff" d="M834.35,-418.25C818.98,-445.97 786.1,-497.1 742,-520.5 666.3,-560.67 564.24,-561.58 502.57,-557.39"/>
<polygon fill="#63b8ff" stroke="#63b8ff" points="837.57,-419.66 839.21,-409.2 831.4,-416.35 837.57,-419.66"/>
</a>
</g>
</g>
<!-- Node7 -->
<g id="Node000007" class="node">
<title>Node7</title>
<g id="a_Node000007"><a xlink:href="classwmtk_1_1_tet_mesh.html#ab247e83a140cafd3d62e06508ba128c7" target="_top" xlink:title=" ">
<polygon fill="white" stroke="#666666" points="511.5,-518.5 383.5,-518.5 383.5,-488.5 511.5,-488.5 511.5,-518.5"/>
<text text-anchor="start" x="391.5" y="-506.5" font-family="Helvetica,sans-Serif" font-size="10.00">wmtk::TetMesh::vertex</text>
<text text-anchor="middle" x="447.5" y="-495.5" font-family="Helvetica,sans-Serif" font-size="10.00">_tuple_from_id</text>
</a>
</g>
</g>
<!-- Node1&#45;&gt;Node7 -->
<g id="edge34_Node000001_Node000007" class="edge">
<title>Node1&#45;&gt;Node7</title>
<g id="a_edge34_Node000001_Node000007"><a xlink:title=" ">
<path fill="none" stroke="#63b8ff" d="M831.53,-417.25C814.37,-440 781.12,-478.41 742,-494.5 667.39,-525.19 572.87,-521.38 511.56,-513.99"/>
<polygon fill="#63b8ff" stroke="#63b8ff" points="834.41,-419.25 837.49,-409.11 828.76,-415.12 834.41,-419.25"/>
</a>
</g>
</g>
<!-- Node8 -->
<g id="Node000008" class="node">
<title>Node8</title>
<g id="a_Node000008"><a xlink:href="classwmtk_1_1operations_1_1utils_1_1_update_edge_operation_multi_mesh_map_functor.html#a9b36575024b847b2c0367ced7f1c5caa" target="_top" xlink:title=" ">
<polygon fill="white" stroke="#666666" points="742,-371 561,-371 561,-330 742,-330 742,-371"/>
<text text-anchor="start" x="569" y="-359" font-family="Helvetica,sans-Serif" font-size="10.00">wmtk::operations::utils</text>
<text text-anchor="start" x="569" y="-348" font-family="Helvetica,sans-Serif" font-size="10.00">::UpdateEdgeOperationMultiMesh</text>
<text text-anchor="middle" x="651.5" y="-337" font-family="Helvetica,sans-Serif" font-size="10.00">MapFunctor::operator()</text>
</a>
</g>
</g>
<!-- Node1&#45;&gt;Node8 -->
<g id="edge12_Node000001_Node000008" class="edge">
<title>Node1&#45;&gt;Node8</title>
<g id="a_edge12_Node000001_Node000008"><a xlink:title=" ">
<path fill="none" stroke="#63b8ff" d="M796.89,-387.45C777.61,-382.51 754.75,-376.66 732.97,-371.09"/>
<polygon fill="#63b8ff" stroke="#63b8ff" points="796.07,-390.85 806.62,-389.94 797.8,-384.07 796.07,-390.85"/>
</a>
</g>
</g>
<!-- Node9 -->
<g id="Node000009" class="node">
<title>Node9</title>
<g id="a_Node000009"><a xlink:href="classwmtk_1_1operations_1_1utils_1_1_update_edge_operation_multi_mesh_map_functor.html#a8784cdae3cf7a6f1ad6b5c361dd8fc03" target="_top" xlink:title=" ">
<polygon fill="white" stroke="#666666" points="742,-312 561,-312 561,-271 742,-271 742,-312"/>
<text text-anchor="start" x="569" y="-300" font-family="Helvetica,sans-Serif" font-size="10.00">wmtk::operations::utils</text>
<text text-anchor="start" x="569" y="-289" font-family="Helvetica,sans-Serif" font-size="10.00">::UpdateEdgeOperationMultiMesh</text>
<text text-anchor="middle" x="651.5" y="-278" font-family="Helvetica,sans-Serif" font-size="10.00">MapFunctor::operator()</text>
</a>
</g>
</g>
<!-- Node1&#45;&gt;Node9 -->
<g id="edge13_Node000001_Node000009" class="edge">
<title>Node1&#45;&gt;Node9</title>
<g id="a_edge13_Node000001_Node000009"><a xlink:title=" ">
<path fill="none" stroke="#63b8ff" d="M826.33,-383.04C806.92,-365.71 774.22,-338.61 742,-321.5 735.63,-318.12 728.81,-315.01 721.87,-312.19"/>
<polygon fill="#63b8ff" stroke="#63b8ff" points="824.03,-385.69 833.79,-389.82 828.74,-380.5 824.03,-385.69"/>
</a>
</g>
</g>
<!-- Node10 -->
<g id="Node000010" class="node">
<title>Node10</title>
<g id="a_Node000010"><a xlink:href="classwmtk_1_1operations_1_1utils_1_1_update_edge_operation_multi_mesh_map_functor.html#a756bab482d580d864f71439794990aac" target="_top" xlink:title=" ">
<polygon fill="white" stroke="#666666" points="742,-253 561,-253 561,-212 742,-212 742,-253"/>
<text text-anchor="start" x="569" y="-241" font-family="Helvetica,sans-Serif" font-size="10.00">wmtk::operations::utils</text>
<text text-anchor="start" x="569" y="-230" font-family="Helvetica,sans-Serif" font-size="10.00">::UpdateEdgeOperationMultiMesh</text>
<text text-anchor="middle" x="651.5" y="-219" font-family="Helvetica,sans-Serif" font-size="10.00">MapFunctor::operator()</text>
</a>
</g>
</g>
<!-- Node1&#45;&gt;Node10 -->
<g id="edge14_Node000001_Node000010" class="edge">
<title>Node1&#45;&gt;Node10</title>
<g id="a_edge14_Node000001_Node000010"><a xlink:title=" ">
<path fill="none" stroke="#63b8ff" d="M834.89,-380.81C819.64,-351.45 786.25,-294.56 742,-262.5 737.22,-259.04 732.02,-255.96 726.6,-253.22"/>
<polygon fill="#63b8ff" stroke="#63b8ff" points="831.87,-382.62 839.51,-389.97 838.12,-379.46 831.87,-382.62"/>
</a>
</g>
</g>
<!-- Node11 -->
<g id="Node000011" class="node">
<title>Node11</title>
<g id="a_Node000011"><a xlink:href="classwmtk_1_1_tet_mesh.html#a53d9ec91a1c80da4ae10dea485564f27" target="_top" xlink:title="switch the orientation of the Tuple of the given dimension">
<polygon fill="white" stroke="#666666" points="715.5,-158.5 587.5,-158.5 587.5,-128.5 715.5,-128.5 715.5,-158.5"/>
<text text-anchor="start" x="595.5" y="-146.5" font-family="Helvetica,sans-Serif" font-size="10.00">wmtk::TetMesh::switch</text>
<text text-anchor="middle" x="651.5" y="-135.5" font-family="Helvetica,sans-Serif" font-size="10.00">_tuple</text>
</a>
</g>
</g>
<!-- Node1&#45;&gt;Node11 -->
<g id="edge15_Node000001_Node000011" class="edge">
<title>Node1&#45;&gt;Node11</title>
<g id="a_edge15_Node000001_Node000011"><a xlink:title=" ">
<path fill="none" stroke="#63b8ff" d="M837.65,-380.26C824.57,-342.8 791.59,-258.91 742,-203.5 725.28,-184.82 701.54,-169.26 682.72,-158.67"/>
<polygon fill="#63b8ff" stroke="#63b8ff" points="834.41,-381.58 840.95,-389.92 841.04,-379.33 834.41,-381.58"/>
</a>
</g>
</g>
<!-- Node3 -->
<g id="Node000003" class="node">
<title>Node3</title>
<g id="a_Node000003"><a xlink:href="classwmtk_1_1_tet_mesh.html#a1ac65b024e2d1a8384dcf699297c9028" target="_top" xlink:title="internal function that returns the tuple of requested type, and has the global index cid">
<polygon fill="white" stroke="#666666" points="302.5,-509.5 180.5,-509.5 180.5,-479.5 302.5,-479.5 302.5,-509.5"/>
<text text-anchor="start" x="188.5" y="-497.5" font-family="Helvetica,sans-Serif" font-size="10.00">wmtk::TetMesh::tuple</text>
<text text-anchor="middle" x="241.5" y="-486.5" font-family="Helvetica,sans-Serif" font-size="10.00">_from_id</text>
</a>
</g>
</g>
<!-- Node2&#45;&gt;Node3 -->
<g id="edge2_Node000002_Node000003" class="edge">
<title>Node2&#45;&gt;Node3</title>
<g id="a_edge2_Node000002_Node000003"><a xlink:title=" ">
<path fill="none" stroke="#63b8ff" d="M376.82,-468.82C352.78,-473.42 326.07,-478.52 302.83,-482.97"/>
<polygon fill="#63b8ff" stroke="#63b8ff" points="377.78,-472.2 386.95,-466.89 376.47,-465.33 377.78,-472.2"/>
</a>
</g>
</g>
<!-- Node4&#45;&gt;Node3 -->
<g id="edge4_Node000004_Node000003" class="edge">
<title>Node4&#45;&gt;Node3</title>
<g id="a_edge4_Node000004_Node000003"><a xlink:title=" ">
<path fill="none" stroke="#63b8ff" d="M383.63,-425.96C378.97,-427.71 374.38,-429.56 370,-431.5 353.06,-438.99 350.44,-443.96 334,-452.5 315.7,-462.01 294.83,-471.68 277.65,-479.33"/>
<polygon fill="#63b8ff" stroke="#63b8ff" points="385.02,-429.18 393.25,-422.51 382.66,-422.59 385.02,-429.18"/>
</a>
</g>
</g>
<!-- Node5&#45;&gt;Node2 -->
<g id="edge6_Node000005_Node000002" class="edge">
<title>Node5&#45;&gt;Node2</title>
<g id="a_edge6_Node000005_Node000002"><a xlink:title=" ">
<path fill="none" stroke="#63b8ff" d="M576.64,-468.19C554.07,-465.95 529.53,-463.52 508.03,-461.39"/>
<polygon fill="#63b8ff" stroke="#63b8ff" points="576.57,-471.7 586.86,-469.2 577.26,-464.73 576.57,-471.7"/>
</a>
</g>
</g>
<!-- Node5&#45;&gt;Node4 -->
<g id="edge7_Node000005_Node000004" class="edge">
<title>Node5&#45;&gt;Node4</title>
<g id="a_edge7_Node000005_Node000004"><a xlink:title=" ">
<path fill="none" stroke="#63b8ff" d="M614.69,-462.59C589.64,-453.65 555.37,-441.58 525,-431.5 516.15,-428.56 506.69,-425.52 497.55,-422.62"/>
<polygon fill="#63b8ff" stroke="#63b8ff" points="613.55,-465.9 624.14,-465.97 615.91,-459.31 613.55,-465.9"/>
</a>
</g>
</g>
<!-- Node5&#45;&gt;Node6 -->
<g id="edge8_Node000005_Node000006" class="edge">
<title>Node5&#45;&gt;Node6</title>
<g id="a_edge8_Node000005_Node000006"><a xlink:title=" ">
<path fill="none" stroke="#63b8ff" d="M619.56,-489.22C594.34,-500.19 557.68,-515.63 525,-527.5 516.63,-530.54 507.66,-533.56 498.92,-536.38"/>
<polygon fill="#63b8ff" stroke="#63b8ff" points="621.2,-492.32 628.96,-485.11 618.4,-485.91 621.2,-492.32"/>
</a>
</g>
</g>
<!-- Node5&#45;&gt;Node7 -->
<g id="edge10_Node000005_Node000007" class="edge">
<title>Node5&#45;&gt;Node7</title>
<g id="a_edge10_Node000005_Node000007"><a xlink:title=" ">
<path fill="none" stroke="#63b8ff" d="M576.88,-485.7C555.55,-488.66 532.46,-491.86 511.82,-494.72"/>
<polygon fill="#63b8ff" stroke="#63b8ff" points="577.44,-489.16 586.86,-484.32 576.48,-482.23 577.44,-489.16"/>
</a>
</g>
</g>
<!-- Node6&#45;&gt;Node3 -->
<g id="edge9_Node000006_Node000003" class="edge">
<title>Node6&#45;&gt;Node3</title>
<g id="a_edge9_Node000006_Node000003"><a xlink:title=" ">
<path fill="none" stroke="#63b8ff" d="M383,-533.76C355.2,-525.99 322.92,-516.97 296.31,-509.54"/>
<polygon fill="#63b8ff" stroke="#63b8ff" points="382.06,-537.13 392.63,-536.45 383.95,-530.39 382.06,-537.13"/>
</a>
</g>
</g>
<!-- Node7&#45;&gt;Node3 -->
<g id="edge11_Node000007_Node000003" class="edge">
<title>Node7&#45;&gt;Node3</title>
<g id="a_edge11_Node000007_Node000003"><a xlink:title=" ">
<path fill="none" stroke="#63b8ff" d="M373.22,-500.27C350.04,-499.24 324.7,-498.13 302.56,-497.15"/>
<polygon fill="#63b8ff" stroke="#63b8ff" points="373.21,-503.77 383.35,-500.71 373.51,-496.78 373.21,-503.77"/>
</a>
</g>
</g>
<!-- Node12 -->
<g id="Node000012" class="node">
<title>Node12</title>
<g id="a_Node000012"><a xlink:href="classwmtk_1_1operations_1_1tet__mesh_1_1_edge_operation_data.html#a0b36950981ccdbd5b04a2d7eccc758a3" target="_top" xlink:title=" ">
<polygon fill="white" stroke="#666666" points="522.5,-374 372.5,-374 372.5,-333 522.5,-333 522.5,-374"/>
<text text-anchor="start" x="380.5" y="-362" font-family="Helvetica,sans-Serif" font-size="10.00">wmtk::operations::tet</text>
<text text-anchor="start" x="380.5" y="-351" font-family="Helvetica,sans-Serif" font-size="10.00">_mesh::EdgeOperationData</text>
<text text-anchor="middle" x="447.5" y="-340" font-family="Helvetica,sans-Serif" font-size="10.00">::input_endpoints</text>
</a>
</g>
</g>
<!-- Node11&#45;&gt;Node12 -->
<g id="edge16_Node000011_Node000012" class="edge">
<title>Node11&#45;&gt;Node12</title>
<g id="a_edge16_Node000011_Node000012"><a xlink:title=" ">
<path fill="none" stroke="#63b8ff" d="M614.27,-163.9C597.12,-174.49 576.95,-188.37 561,-203.5 549.57,-214.34 491.15,-294.49 463.3,-332.98"/>
<polygon fill="#63b8ff" stroke="#63b8ff" points="616.17,-166.83 622.92,-158.67 612.55,-160.84 616.17,-166.83"/>
</a>
</g>
</g>
<!-- Node15 -->
<g id="Node000015" class="node">
<title>Node15</title>
<g id="a_Node000015"><a xlink:href="namespacewmtk_1_1simplex.html#aead7bf4f261c58bdb33bd0bf7fcd541d" target="_top" xlink:title=" ">
<polygon fill="white" stroke="#666666" points="113,-177.5 0,-177.5 0,-147.5 113,-147.5 113,-177.5"/>
<text text-anchor="start" x="8" y="-165.5" font-family="Helvetica,sans-Serif" font-size="10.00">wmtk::simplex::link</text>
<text text-anchor="middle" x="56.5" y="-154.5" font-family="Helvetica,sans-Serif" font-size="10.00">_condition</text>
</a>
</g>
</g>
<!-- Node11&#45;&gt;Node15 -->
<g id="edge19_Node000011_Node000015" class="edge">
<title>Node11&#45;&gt;Node15</title>
<g id="a_edge19_Node000011_Node000015"><a xlink:title=" ">
<path fill="none" stroke="#63b8ff" d="M577.11,-145.85C456.9,-149.7 220.68,-157.27 113.16,-160.72"/>
<polygon fill="#63b8ff" stroke="#63b8ff" points="577.44,-149.34 587.32,-145.52 577.21,-142.35 577.44,-149.34"/>
</a>
</g>
</g>
<!-- Node16 -->
<g id="Node000016" class="node">
<title>Node16</title>
<g id="a_Node000016"><a xlink:href="classwmtk_1_1_tet_mesh.html#a1ff7ac5989c664b7754dd699fa1e9b1a" target="_top" xlink:title=" ">
<polygon fill="white" stroke="#666666" points="320.5,-115 162.5,-115 162.5,-96 320.5,-96 320.5,-115"/>
<text text-anchor="middle" x="241.5" y="-103" font-family="Helvetica,sans-Serif" font-size="10.00">wmtk::TetMesh::switch_edge</text>
</a>
</g>
</g>
<!-- Node11&#45;&gt;Node16 -->
<g id="edge20_Node000011_Node000016" class="edge">
<title>Node11&#45;&gt;Node16</title>
<g id="a_edge20_Node000011_Node000016"><a xlink:title=" ">
<path fill="none" stroke="#63b8ff" d="M577.36,-135.01C560.2,-133.11 541.96,-131.17 525,-129.5 456.05,-122.73 377.52,-116.15 320.79,-111.59"/>
<polygon fill="#63b8ff" stroke="#63b8ff" points="577.01,-138.49 587.33,-136.12 577.78,-131.54 577.01,-138.49"/>
</a>
</g>
</g>
<!-- Node17 -->
<g id="Node000017" class="node">
<title>Node17</title>
<g id="a_Node000017"><a xlink:href="classwmtk_1_1_tet_mesh.html#a6c405e0d239a6ec627a6b50963c52ea5" target="_top" xlink:title=" ">
<polygon fill="white" stroke="#666666" points="525,-29 370,-29 370,-10 525,-10 525,-29"/>
<text text-anchor="middle" x="447.5" y="-17" font-family="Helvetica,sans-Serif" font-size="10.00">wmtk::TetMesh::switch_face</text>
</a>
</g>
</g>
<!-- Node11&#45;&gt;Node17 -->
<g id="edge22_Node000011_Node000017" class="edge">
<title>Node11&#45;&gt;Node17</title>
<g id="a_edge22_Node000011_Node000017"><a xlink:title=" ">
<path fill="none" stroke="#63b8ff" d="M630.1,-121.23C606.91,-97.27 566.82,-59.75 525,-38.5 517.44,-34.66 509.05,-31.56 500.68,-29.08"/>
<polygon fill="#63b8ff" stroke="#63b8ff" points="627.58,-123.67 637.01,-128.5 632.65,-118.84 627.58,-123.67"/>
</a>
</g>
</g>
<!-- Node20 -->
<g id="Node000020" class="node">
<title>Node20</title>
<g id="a_Node000020"><a xlink:href="classwmtk_1_1_tet_mesh.html#ac89db402ec507958c553e5ed0a26c774" target="_top" xlink:title=" ">
<polygon fill="white" stroke="#666666" points="511.5,-77.5 383.5,-77.5 383.5,-47.5 511.5,-47.5 511.5,-77.5"/>
<text text-anchor="start" x="391.5" y="-65.5" font-family="Helvetica,sans-Serif" font-size="10.00">wmtk::TetMesh::switch</text>
<text text-anchor="middle" x="447.5" y="-54.5" font-family="Helvetica,sans-Serif" font-size="10.00">_tetrahedron</text>
</a>
</g>
</g>
<!-- Node11&#45;&gt;Node20 -->
<g id="edge25_Node000011_Node000020" class="edge">
<title>Node11&#45;&gt;Node20</title>
<g id="a_edge25_Node000011_Node000020"><a xlink:title=" ">
<path fill="none" stroke="#63b8ff" d="M605.42,-124.43C581.58,-114.45 551.78,-102.12 525,-91.5 513.38,-86.89 500.71,-82.03 489.08,-77.62"/>
<polygon fill="#63b8ff" stroke="#63b8ff" points="604.34,-127.77 614.91,-128.42 607.05,-121.32 604.34,-127.77"/>
</a>
</g>
</g>
<!-- Node21 -->
<g id="Node000021" class="node">
<title>Node21</title>
<g id="a_Node000021"><a xlink:href="classwmtk_1_1_tet_mesh.html#a87165a8f0949177c42845b725feac1dd" target="_top" xlink:title=" ">
<polygon fill="white" stroke="#666666" points="511.5,-239.5 383.5,-239.5 383.5,-209.5 511.5,-209.5 511.5,-239.5"/>
<text text-anchor="start" x="391.5" y="-227.5" font-family="Helvetica,sans-Serif" font-size="10.00">wmtk::TetMesh::switch</text>
<text text-anchor="middle" x="447.5" y="-216.5" font-family="Helvetica,sans-Serif" font-size="10.00">_vertex</text>
</a>
</g>
</g>
<!-- Node11&#45;&gt;Node21 -->
<g id="edge27_Node000011_Node000021" class="edge">
<title>Node11&#45;&gt;Node21</title>
<g id="a_edge27_Node000011_Node000021"><a xlink:title=" ">
<path fill="none" stroke="#63b8ff" d="M603.27,-162.44C567.59,-176.75 519.27,-196.12 486.16,-209.4"/>
<polygon fill="#63b8ff" stroke="#63b8ff" points="605,-165.52 612.98,-158.55 602.39,-159.02 605,-165.52"/>
</a>
</g>
</g>
<!-- Node13 -->
<g id="Node000013" class="node">
<title>Node13</title>
<g id="a_Node000013"><a xlink:href="classwmtk_1_1operations_1_1tet__mesh_1_1_split_new_attribute_topo_info.html#a89bd25c4ffb57ea07683a822dc5aae05" target="_top" xlink:title=" ">
<polygon fill="white" stroke="#666666" points="323.5,-443 159.5,-443 159.5,-402 323.5,-402 323.5,-443"/>
<text text-anchor="start" x="167.5" y="-431" font-family="Helvetica,sans-Serif" font-size="10.00">wmtk::operations::tet</text>
<text text-anchor="start" x="167.5" y="-420" font-family="Helvetica,sans-Serif" font-size="10.00">_mesh::SplitNewAttributeTopo</text>
<text text-anchor="middle" x="241.5" y="-409" font-family="Helvetica,sans-Serif" font-size="10.00">Info::input_ear_simplices</text>
</a>
</g>
</g>
<!-- Node12&#45;&gt;Node13 -->
<g id="edge17_Node000012_Node000013" class="edge">
<title>Node12&#45;&gt;Node13</title>
<g id="a_edge17_Node000012_Node000013"><a xlink:title=" ">
<path fill="none" stroke="#63b8ff" d="M380.18,-377.51C365.04,-382.87 348.99,-388.46 334,-393.5 325.79,-396.26 317.13,-399.1 308.56,-401.86"/>
<polygon fill="#63b8ff" stroke="#63b8ff" points="381.73,-380.68 389.98,-374.03 379.38,-374.08 381.73,-380.68"/>
</a>
</g>
</g>
<!-- Node14 -->
<g id="Node000014" class="node">
<title>Node14</title>
<g id="a_Node000014"><a xlink:href="classwmtk_1_1operations_1_1tet__mesh_1_1_collapse_new_attribute_topo_info.html#a9f0532f826f70f51e8b5a9a2275e426b" target="_top" xlink:title=" ">
<polygon fill="white" stroke="#666666" points="322,-384 161,-384 161,-343 322,-343 322,-384"/>
<text text-anchor="start" x="169" y="-372" font-family="Helvetica,sans-Serif" font-size="10.00">wmtk::operations::tet</text>
<text text-anchor="start" x="169" y="-361" font-family="Helvetica,sans-Serif" font-size="10.00">_mesh::CollapseNewAttribute</text>
<text text-anchor="middle" x="241.5" y="-350" font-family="Helvetica,sans-Serif" font-size="10.00">TopoInfo::merged_simplices</text>
</a>
</g>
</g>
<!-- Node12&#45;&gt;Node14 -->
<g id="edge18_Node000012_Node000014" class="edge">
<title>Node12&#45;&gt;Node14</title>
<g id="a_edge18_Node000012_Node000014"><a xlink:title=" ">
<path fill="none" stroke="#63b8ff" d="M362.24,-357.63C348.98,-358.28 335.32,-358.95 322.17,-359.59"/>
<polygon fill="#63b8ff" stroke="#63b8ff" points="362.46,-361.12 372.27,-357.14 362.11,-354.13 362.46,-361.12"/>
</a>
</g>
</g>
<!-- Node16&#45;&gt;Node15 -->
<g id="edge21_Node000016_Node000015" class="edge">
<title>Node16&#45;&gt;Node15</title>
<g id="a_edge21_Node000016_Node000015"><a xlink:title=" ">
<path fill="none" stroke="#63b8ff" d="M191.31,-117.54C177.55,-121.14 162.63,-125.26 149,-129.5 131.75,-134.86 112.93,-141.51 96.87,-147.43"/>
<polygon fill="#63b8ff" stroke="#63b8ff" points="192.29,-120.9 201.1,-115.01 190.54,-114.12 192.29,-120.9"/>
</a>
</g>
</g>
<!-- Node18 -->
<g id="Node000018" class="node">
<title>Node18</title>
<g id="a_Node000018"><a xlink:href="classwmtk_1_1_tet_mesh_1_1_tet_mesh_operation_executor.html#a0300c3eb5b2c02d01b447d69a3958727" target="_top" xlink:title="Get the incident tets and faces for an edge tuple.">
<polygon fill="white" stroke="#666666" points="334,-78 149,-78 149,-37 334,-37 334,-78"/>
<text text-anchor="start" x="157" y="-66" font-family="Helvetica,sans-Serif" font-size="10.00">wmtk::TetMesh::TetMeshOperation</text>
<text text-anchor="start" x="157" y="-55" font-family="Helvetica,sans-Serif" font-size="10.00">Executor::get_incident_tets</text>
<text text-anchor="middle" x="241.5" y="-44" font-family="Helvetica,sans-Serif" font-size="10.00">_and_faces</text>
</a>
</g>
</g>
<!-- Node17&#45;&gt;Node18 -->
<g id="edge23_Node000017_Node000018" class="edge">
<title>Node17&#45;&gt;Node18</title>
<g id="a_edge23_Node000017_Node000018"><a xlink:title=" ">
<path fill="none" stroke="#63b8ff" d="M385.03,-30.95C369.04,-33.93 351.46,-37.2 334.27,-40.41"/>
<polygon fill="#63b8ff" stroke="#63b8ff" points="386.1,-34.31 395.29,-29.04 384.81,-27.43 386.1,-34.31"/>
</a>
</g>
</g>
<!-- Node19 -->
<g id="Node000019" class="node">
<title>Node19</title>
<g id="a_Node000019"><a xlink:href="namespacewmtk_1_1simplex.html#ae52e68a7ebacf23d85b0b15c1565dd5a" target="_top" xlink:title=" ">
<polygon fill="white" stroke="#666666" points="313,-19 170,-19 170,0 313,0 313,-19"/>
<text text-anchor="middle" x="241.5" y="-7" font-family="Helvetica,sans-Serif" font-size="10.00">wmtk::simplex::open_star</text>
</a>
</g>
</g>
<!-- Node17&#45;&gt;Node19 -->
<g id="edge24_Node000017_Node000019" class="edge">
<title>Node17&#45;&gt;Node19</title>
<g id="a_edge24_Node000017_Node000019"><a xlink:title=" ">
<path fill="none" stroke="#63b8ff" d="M359.8,-15.25C344.21,-14.49 328.14,-13.7 313.07,-12.96"/>
<polygon fill="#63b8ff" stroke="#63b8ff" points="359.8,-18.75 369.96,-15.75 360.14,-11.76 359.8,-18.75"/>
</a>
</g>
</g>
<!-- Node20&#45;&gt;Node18 -->
<g id="edge26_Node000020_Node000018" class="edge">
<title>Node20&#45;&gt;Node18</title>
<g id="a_edge26_Node000020_Node000018"><a xlink:title=" ">
<path fill="none" stroke="#63b8ff" d="M373.33,-60.71C360.64,-60.4 347.3,-60.07 334.19,-59.75"/>
<polygon fill="#63b8ff" stroke="#63b8ff" points="373.27,-64.21 383.35,-60.95 373.44,-57.21 373.27,-64.21"/>
</a>
</g>
</g>
<!-- Node21&#45;&gt;Node15 -->
<g id="edge29_Node000021_Node000015" class="edge">
<title>Node21&#45;&gt;Node15</title>
<g id="a_edge29_Node000021_Node000015"><a xlink:title=" ">
<path fill="none" stroke="#63b8ff" d="M373.39,-208.09C360.31,-205.38 346.78,-202.74 334,-200.5 257.75,-187.15 169,-175.66 113.03,-168.91"/>
<polygon fill="#63b8ff" stroke="#63b8ff" points="372.79,-211.54 383.29,-210.16 374.22,-204.69 372.79,-211.54"/>
</a>
</g>
</g>
<!-- Node22 -->
<g id="Node000022" class="node">
<title>Node22</title>
<g id="a_Node000022"><a xlink:href="namespacewmtk_1_1simplex.html#a18647fe3e4b68cc5a6186aa5063fcd53" target="_top" xlink:title=" ">
<polygon fill="white" stroke="#666666" points="298,-325 185,-325 185,-306 298,-306 298,-325"/>
<text text-anchor="middle" x="241.5" y="-313" font-family="Helvetica,sans-Serif" font-size="10.00">wmtk::simplex::link</text>
</a>
</g>
</g>
<!-- Node21&#45;&gt;Node22 -->
<g id="edge28_Node000021_Node000022" class="edge">
<title>Node21&#45;&gt;Node22</title>
<g id="a_edge28_Node000021_Node000022"><a xlink:title=" ">
<path fill="none" stroke="#63b8ff" d="M419.65,-245.7C397.78,-261.94 365.47,-283.67 334,-296.5 322.73,-301.09 310.21,-304.63 298.14,-307.32"/>
<polygon fill="#63b8ff" stroke="#63b8ff" points="421.91,-248.37 427.78,-239.55 417.69,-242.79 421.91,-248.37"/>
</a>
</g>
</g>
<!-- Node23 -->
<g id="Node000023" class="node">
<title>Node23</title>
<g id="a_Node000023"><a xlink:href="namespacewmtk_1_1simplex.html#a428755c0a4c93af10690b6828a3c79f5" target="_top" xlink:title=" ">
<polygon fill="white" stroke="#666666" points="316,-239.5 167,-239.5 167,-209.5 316,-209.5 316,-239.5"/>
<text text-anchor="start" x="175" y="-227.5" font-family="Helvetica,sans-Serif" font-size="10.00">wmtk::simplex::link</text>
<text text-anchor="middle" x="241.5" y="-216.5" font-family="Helvetica,sans-Serif" font-size="10.00">_condition_closed_tetmesh</text>
</a>
</g>
</g>
<!-- Node21&#45;&gt;Node23 -->
<g id="edge30_Node000021_Node000023" class="edge">
<title>Node21&#45;&gt;Node23</title>
<g id="a_edge30_Node000021_Node000023"><a xlink:title=" ">
<path fill="none" stroke="#63b8ff" d="M373.19,-224.5C354.61,-224.5 334.66,-224.5 316.07,-224.5"/>
<polygon fill="#63b8ff" stroke="#63b8ff" points="373.35,-228 383.35,-224.5 373.35,-221 373.35,-228"/>
</a>
</g>
</g>
<!-- Node24 -->
<g id="Node000024" class="node">
<title>Node24</title>
<g id="a_Node000024"><a xlink:href="namespacewmtk_1_1simplex.html#a9c219fd0b4f590bc836d41011761968b" target="_top" xlink:title=" ">
<polygon fill="white" stroke="#666666" points="298,-287.5 185,-287.5 185,-257.5 298,-257.5 298,-287.5"/>
<text text-anchor="start" x="193" y="-275.5" font-family="Helvetica,sans-Serif" font-size="10.00">wmtk::simplex::link</text>
<text text-anchor="middle" x="241.5" y="-264.5" font-family="Helvetica,sans-Serif" font-size="10.00">_single_dimension</text>
</a>
</g>
</g>
<!-- Node21&#45;&gt;Node24 -->
<g id="edge32_Node000021_Node000024" class="edge">
<title>Node21&#45;&gt;Node24</title>
<g id="a_edge32_Node000021_Node000024"><a xlink:title=" ">
<path fill="none" stroke="#63b8ff" d="M373.6,-241.65C348.75,-247.5 321.38,-253.94 298.1,-259.42"/>
<polygon fill="#63b8ff" stroke="#63b8ff" points="374.42,-245.06 383.35,-239.36 372.81,-238.24 374.42,-245.06"/>
</a>
</g>
</g>
<!-- Node23&#45;&gt;Node15 -->
<g id="edge31_Node000023_Node000015" class="edge">
<title>Node23&#45;&gt;Node15</title>
<g id="a_edge31_Node000023_Node000015"><a xlink:title=" ">
<path fill="none" stroke="#63b8ff" d="M181.62,-206.21C170.75,-202.73 159.51,-199.06 149,-195.5 132.37,-189.87 114.15,-183.36 98.37,-177.63"/>
<polygon fill="#63b8ff" stroke="#63b8ff" points="180.88,-209.65 191.47,-209.35 183.01,-202.98 180.88,-209.65"/>
</a>
</g>
</g>
</g>
</svg>
