<?xml version="1.0" encoding="UTF-8" standalone="no"?>
<!DOCTYPE svg PUBLIC "-//W3C//DTD SVG 1.1//EN"
 "http://www.w3.org/Graphics/SVG/1.1/DTD/svg11.dtd">
<!-- Generated by graphviz version 2.43.0 (0)
 -->
<!-- Title: wmtk::operations::tri_mesh::SplitNewAttributeTopoInfo::input_ear_simplices Pages: 1 -->
<!--zoomable 709 -->

<svg id="main" version="1.1" xmlns="http://www.w3.org/2000/svg" xmlns:xlink="http://www.w3.org/1999/xlink" xml:space="preserve" onload="init(evt)">
<style type="text/css"><![CDATA[
.node, .edge {opacity: 0.7;}
.node.selected, .edge.selected {opacity: 1;}
.edge:hover path { stroke: red; }
.edge:hover polygon { stroke: red; fill: red; }
]]></style>

<defs>
  <circle id="rim" cx="0" cy="0" r="7"/>
  <circle id="rim2" cx="0" cy="0" r="3.5"/>
  <g id="zoomPlus">
    <use xlink:href="#rim" fill="#404040"><set attributeName="fill" to="#808080" begin="zoomplus.mouseover" end="zoomplus.mouseout"/></use>
    <path d="M-4,0h8M0,-4v8" fill="none" stroke="white" stroke-width="1.5" pointer-events="none"/>
  </g>
  <g id="zoomMin">
    <use xlink:href="#rim" fill="#404040"><set attributeName="fill" to="#808080" begin="zoomminus.mouseover" end="zoomminus.mouseout"/></use>
    <path d="M-4,0h8" fill="none" stroke="white" stroke-width="1.5" pointer-events="none"/>
  </g>
  <g id="arrowUp" transform="translate(30 24)">
    <use xlink:href="#rim"/>
    <path pointer-events="none" fill="none" stroke="white" stroke-width="1.5" d="M0,-3.0v7 M-2.5,-0.5L0,-3.0L2.5,-0.5"/>
  </g>
  <g id="arrowRight" transform="rotate(90) translate(36 -43)">
    <use xlink:href="#rim"/>
    <path pointer-events="none" fill="none" stroke="white" stroke-width="1.5" d="M0,-3.0v7 M-2.5,-0.5L0,-3.0L2.5,-0.5"/>
  </g>
  <g id="arrowDown" transform="rotate(180) translate(-30 -48)">
    <use xlink:href="#rim"/>
    <path pointer-events="none" fill="none" stroke="white" stroke-width="1.5" d="M0,-3.0v7 M-2.5,-0.5L0,-3.0L2.5,-0.5"/>
  </g>
  <g id="arrowLeft" transform="rotate(270) translate(-36 17)">
    <use xlink:href="#rim"/>
    <path pointer-events="none" fill="none" stroke="white" stroke-width="1.5" d="M0,-3.0v7 M-2.5,-0.5L0,-3.0L2.5,-0.5"/>
  </g>
  <g id="resetDef">
    <use xlink:href="#rim2" fill="#404040"><set attributeName="fill" to="#808080" begin="reset.mouseover" end="reset.mouseout"/></use>
  </g>
</defs>
<script type="application/ecmascript">
var viewWidth = 1721;
var viewHeight = 709;
var sectionId = 'dynsection-2';
</script>
<script type="application/ecmascript" xlink:href="svg.min.js"/>
<svg id="graph" class="graph">
<g id="viewport">
<title>wmtk::operations::tri_mesh::SplitNewAttributeTopoInfo::input_ear_simplices</title>
<!-- Node1 -->
<g id="Node000001" class="node">
<title>Node1</title>
<g id="a_Node000001"><a xlink:title=" ">
<polygon fill="#999999" stroke="#666666" points="164,-147.5 0,-147.5 0,-106.5 164,-106.5 164,-147.5"/>
<text text-anchor="start" x="8" y="-135.5" font-family="Helvetica,sans-Serif" font-size="10.00">wmtk::operations::tri</text>
<text text-anchor="start" x="8" y="-124.5" font-family="Helvetica,sans-Serif" font-size="10.00">_mesh::SplitNewAttributeTopo</text>
<text text-anchor="middle" x="82" y="-113.5" font-family="Helvetica,sans-Serif" font-size="10.00">Info::input_ear_simplices</text>
</a>
</g>
</g>
<!-- Node2 -->
<g id="Node000002" class="node">
<title>Node2</title>
<g id="a_Node000002"><a xlink:href="classwmtk_1_1operations_1_1tri__mesh_1_1_edge_operation_data.html#a8855b298c81dc9576891f77fa10c4b64" target="_top" xlink:title=" ">
<polygon fill="white" stroke="#666666" points="350,-295.5 200,-295.5 200,-254.5 350,-254.5 350,-295.5"/>
<text text-anchor="start" x="208" y="-283.5" font-family="Helvetica,sans-Serif" font-size="10.00">wmtk::operations::tri</text>
<text text-anchor="start" x="208" y="-272.5" font-family="Helvetica,sans-Serif" font-size="10.00">_mesh::EdgeOperationData</text>
<text text-anchor="middle" x="275" y="-261.5" font-family="Helvetica,sans-Serif" font-size="10.00">::ear_edges</text>
</a>
</g>
</g>
<!-- Node1&#45;&gt;Node2 -->
<g id="edge1_Node000001_Node000002" class="edge">
<title>Node1&#45;&gt;Node2</title>
<g id="a_edge1_Node000001_Node000002"><a xlink:title=" ">
<path fill="none" stroke="#63b8ff" d="M109.56,-147.58C143.39,-173.79 201.93,-219.16 239.27,-248.09"/>
<polygon fill="#63b8ff" stroke="#63b8ff" points="237.31,-251 247.36,-254.36 241.6,-245.47 237.31,-251"/>
</a>
</g>
</g>
<!-- Node5 -->
<g id="Node000005" class="node">
<title>Node5</title>
<g id="a_Node000005"><a xlink:href="namespacewmtk.html#a5cf45c152e856196bb734c6f48919a24" target="_top" xlink:title="Get a unique integer id corresponding to each primitive type.">
<polygon fill="white" stroke="#666666" points="1680,-263 1564,-263 1564,-233 1680,-233 1680,-263"/>
<text text-anchor="start" x="1572" y="-251" font-family="Helvetica,sans-Serif" font-size="10.00">wmtk::get_primitive</text>
<text text-anchor="middle" x="1622" y="-240" font-family="Helvetica,sans-Serif" font-size="10.00">_type_id</text>
</a>
</g>
</g>
<!-- Node1&#45;&gt;Node5 -->
<g id="edge4_Node000001_Node000005" class="edge">
<title>Node1&#45;&gt;Node5</title>
<g id="a_edge4_Node000001_Node000005"><a xlink:title=" ">
<path fill="none" stroke="#63b8ff" d="M155.3,-106.48C233.46,-86.15 362.02,-58 475,-58 475,-58 475,-58 1230.5,-58 1348.46,-58 1391.77,-22.91 1495,-80 1553.87,-112.55 1593.33,-185.45 1610.78,-223.63"/>
<polygon fill="#63b8ff" stroke="#63b8ff" points="1607.68,-225.26 1614.93,-232.98 1614.07,-222.42 1607.68,-225.26"/>
</a>
</g>
</g>
<!-- Node6 -->
<g id="Node000006" class="node">
<title>Node6</title>
<g id="a_Node000006"><a xlink:href="classwmtk_1_1operations_1_1tri__mesh_1_1_edge_operation_data.html#abde449107fdbb8d53b331d0071109a33" target="_top" xlink:title=" ">
<polygon fill="white" stroke="#666666" points="350,-201.5 200,-201.5 200,-160.5 350,-160.5 350,-201.5"/>
<text text-anchor="start" x="208" y="-189.5" font-family="Helvetica,sans-Serif" font-size="10.00">wmtk::operations::tri</text>
<text text-anchor="start" x="208" y="-178.5" font-family="Helvetica,sans-Serif" font-size="10.00">_mesh::EdgeOperationData</text>
<text text-anchor="middle" x="275" y="-167.5" font-family="Helvetica,sans-Serif" font-size="10.00">::input_endpoints</text>
</a>
</g>
</g>
<!-- Node1&#45;&gt;Node6 -->
<g id="edge5_Node000001_Node000006" class="edge">
<title>Node1&#45;&gt;Node6</title>
<g id="a_edge5_Node000001_Node000006"><a xlink:title=" ">
<path fill="none" stroke="#63b8ff" d="M155.75,-147.57C167.45,-150.88 179.63,-154.32 191.53,-157.68"/>
<polygon fill="#63b8ff" stroke="#63b8ff" points="190.87,-161.14 201.45,-160.49 192.78,-154.4 190.87,-161.14"/>
</a>
</g>
</g>
<!-- Node36 -->
<g id="Node000036" class="node">
<title>Node36</title>
<g id="a_Node000036"><a xlink:href="classwmtk_1_1_mesh.html#ac5778c1f8afef3a2b1b1c33a140b3166" target="_top" xlink:title="Evaluate the passed in function inside the parent scope.">
<polygon fill="white" stroke="#666666" points="332,-30 218,-30 218,0 332,0 332,-30"/>
<text text-anchor="start" x="226" y="-18" font-family="Helvetica,sans-Serif" font-size="10.00">wmtk::Mesh::parent</text>
<text text-anchor="middle" x="275" y="-7" font-family="Helvetica,sans-Serif" font-size="10.00">_scope</text>
</a>
</g>
</g>
<!-- Node1&#45;&gt;Node36 -->
<g id="edge49_Node000001_Node000036" class="edge">
<title>Node1&#45;&gt;Node36</title>
<g id="a_edge49_Node000001_Node000036"><a xlink:title=" ">
<path fill="none" stroke="#63b8ff" d="M108.3,-106.3C131.23,-88.22 166.47,-62.11 200,-44 206.51,-40.48 213.54,-37.17 220.59,-34.12"/>
<polygon fill="#63b8ff" stroke="#63b8ff" points="222.27,-37.21 230.16,-30.15 219.58,-30.75 222.27,-37.21"/>
</a>
</g>
</g>
<!-- Node3 -->
<g id="Node000003" class="node">
<title>Node3</title>
<g id="a_Node000003"><a xlink:href="classwmtk_1_1operations_1_1tri__mesh_1_1_edge_operation_data.html#ad6f95bf136af03b883df9899c2154923" target="_top" xlink:title=" ">
<polygon fill="white" stroke="#666666" points="551,-349.5 401,-349.5 401,-308.5 551,-308.5 551,-349.5"/>
<text text-anchor="start" x="409" y="-337.5" font-family="Helvetica,sans-Serif" font-size="10.00">wmtk::operations::tri</text>
<text text-anchor="start" x="409" y="-326.5" font-family="Helvetica,sans-Serif" font-size="10.00">_mesh::EdgeOperationData</text>
<text text-anchor="middle" x="476" y="-315.5" font-family="Helvetica,sans-Serif" font-size="10.00">::incident_face_datas</text>
</a>
</g>
</g>
<!-- Node2&#45;&gt;Node3 -->
<g id="edge2_Node000002_Node000003" class="edge">
<title>Node2&#45;&gt;Node3</title>
<g id="a_edge2_Node000002_Node000003"><a xlink:title=" ">
<path fill="none" stroke="#63b8ff" d="M350.1,-295.11C363.44,-298.73 377.43,-302.52 391.02,-306.21"/>
<polygon fill="#63b8ff" stroke="#63b8ff" points="390.27,-309.63 400.84,-308.88 392.1,-302.88 390.27,-309.63"/>
</a>
</g>
</g>
<!-- Node4 -->
<g id="Node000004" class="node">
<title>Node4</title>
<g id="a_Node000004"><a xlink:href="classwmtk_1_1operations_1_1_edge_operation_data.html#a37bc93fecbc4e30649298de051eee7ed" target="_top" xlink:title=" ">
<polygon fill="white" stroke="#666666" points="566,-290 386,-290 386,-260 566,-260 566,-290"/>
<text text-anchor="start" x="394" y="-278" font-family="Helvetica,sans-Serif" font-size="10.00">wmtk::operations::EdgeOperation</text>
<text text-anchor="middle" x="476" y="-267" font-family="Helvetica,sans-Serif" font-size="10.00">Data::tuple_from_id</text>
</a>
</g>
</g>
<!-- Node2&#45;&gt;Node4 -->
<g id="edge3_Node000002_Node000004" class="edge">
<title>Node2&#45;&gt;Node4</title>
<g id="a_edge3_Node000002_Node000004"><a xlink:title=" ">
<path fill="none" stroke="#63b8ff" d="M350.1,-275C358.44,-275 367.03,-275 375.63,-275"/>
<polygon fill="#63b8ff" stroke="#63b8ff" points="375.7,-278.5 385.7,-275 375.7,-271.5 375.7,-278.5"/>
</a>
</g>
</g>
<!-- Node7 -->
<g id="Node000007" class="node">
<title>Node7</title>
<g id="a_Node000007"><a xlink:href="classwmtk_1_1_tri_mesh.html#a17b808a46d1a31efc12d555e6721bd02" target="_top" xlink:title="switch the orientation of the Tuple of the given dimension">
<polygon fill="white" stroke="#666666" points="538.5,-242 413.5,-242 413.5,-212 538.5,-212 538.5,-242"/>
<text text-anchor="start" x="421.5" y="-230" font-family="Helvetica,sans-Serif" font-size="10.00">wmtk::TriMesh::switch</text>
<text text-anchor="middle" x="476" y="-219" font-family="Helvetica,sans-Serif" font-size="10.00">_tuple</text>
</a>
</g>
</g>
<!-- Node6&#45;&gt;Node7 -->
<g id="edge6_Node000006_Node000007" class="edge">
<title>Node6&#45;&gt;Node7</title>
<g id="a_edge6_Node000006_Node000007"><a xlink:title=" ">
<path fill="none" stroke="#63b8ff" d="M350.1,-198.13C367.47,-202.14 385.94,-206.41 403.2,-210.4"/>
<polygon fill="#63b8ff" stroke="#63b8ff" points="402.68,-213.87 413.21,-212.72 404.26,-207.05 402.68,-213.87"/>
</a>
</g>
</g>
<!-- Node8 -->
<g id="Node000008" class="node">
<title>Node8</title>
<g id="a_Node000008"><a xlink:href="classwmtk_1_1_tri_mesh.html#a9975c25ed665c9c9a7f1ae92818a1b7c" target="_top" xlink:title=" ">
<polygon fill="white" stroke="#666666" points="900,-237.5 797,-237.5 797,-218.5 900,-218.5 900,-237.5"/>
<text text-anchor="middle" x="848.5" y="-225.5" font-family="Helvetica,sans-Serif" font-size="10.00">wmtk::TriMesh::id</text>
</a>
</g>
</g>
<!-- Node7&#45;&gt;Node8 -->
<g id="edge7_Node000007_Node000008" class="edge">
<title>Node7&#45;&gt;Node8</title>
<g id="a_edge7_Node000007_Node000008"><a xlink:title=" ">
<path fill="none" stroke="#63b8ff" d="M538.66,-226.83C593.39,-226.71 675.52,-226.64 747,-227 759.8,-227.06 773.53,-227.17 786.59,-227.3"/>
<polygon fill="#63b8ff" stroke="#63b8ff" points="786.86,-230.8 796.89,-227.4 786.92,-223.8 786.86,-230.8"/>
</a>
</g>
</g>
<!-- Node12 -->
<g id="Node000012" class="node">
<title>Node12</title>
<g id="a_Node000012"><a xlink:href="classwmtk_1_1_tri_mesh.html#accbde91fccacdfdfd997e20d9ee9eb22" target="_top" xlink:title="returns if a tuple is counterclockwise or not">
<polygon fill="white" stroke="#666666" points="737.5,-255.5 611.5,-255.5 611.5,-236.5 737.5,-236.5 737.5,-255.5"/>
<text text-anchor="middle" x="674.5" y="-243.5" font-family="Helvetica,sans-Serif" font-size="10.00">wmtk::TriMesh::is_ccw</text>
</a>
</g>
</g>
<!-- Node7&#45;&gt;Node12 -->
<g id="edge12_Node000007_Node000012" class="edge">
<title>Node7&#45;&gt;Node12</title>
<g id="a_edge12_Node000007_Node000012"><a xlink:title=" ">
<path fill="none" stroke="#63b8ff" d="M538.63,-232.96C558.56,-234.89 580.83,-237.04 601.44,-239.03"/>
<polygon fill="#63b8ff" stroke="#63b8ff" points="601.12,-242.52 611.41,-240 601.79,-235.55 601.12,-242.52"/>
</a>
</g>
</g>
<!-- Node18 -->
<g id="Node000018" class="node">
<title>Node18</title>
<g id="a_Node000018"><a xlink:href="classwmtk_1_1_tri_mesh.html#a611704f60f24669e957325c7cb79f200" target="_top" xlink:title="check validity of tuple including its hash">
<polygon fill="white" stroke="#666666" points="914,-293.5 783,-293.5 783,-274.5 914,-274.5 914,-293.5"/>
<text text-anchor="middle" x="848.5" y="-281.5" font-family="Helvetica,sans-Serif" font-size="10.00">wmtk::TriMesh::is_valid</text>
</a>
</g>
</g>
<!-- Node7&#45;&gt;Node18 -->
<g id="edge46_Node000007_Node000018" class="edge">
<title>Node7&#45;&gt;Node18</title>
<g id="a_edge46_Node000007_Node000018"><a xlink:title=" ">
<path fill="none" stroke="#63b8ff" d="M535.61,-242.06C545.78,-244.89 556.23,-247.92 566,-251 582.23,-256.11 585.38,-260.39 602,-264 658.47,-276.27 723.73,-281.16 772.77,-283.04"/>
<polygon fill="#63b8ff" stroke="#63b8ff" points="772.86,-286.54 782.98,-283.4 773.11,-279.55 772.86,-286.54"/>
</a>
</g>
</g>
<!-- Node35 -->
<g id="Node000035" class="node">
<title>Node35</title>
<g id="a_Node000035"><a xlink:href="namespacewmtk_1_1autogen_1_1tri__mesh.html#a91e6b348f528d93ad6d9031bae1480da" target="_top" xlink:title=" ">
<polygon fill="white" stroke="#666666" points="747,-159 602,-159 602,-129 747,-129 747,-159"/>
<text text-anchor="start" x="610" y="-147" font-family="Helvetica,sans-Serif" font-size="10.00">wmtk::autogen::tri</text>
<text text-anchor="middle" x="674.5" y="-136" font-family="Helvetica,sans-Serif" font-size="10.00">_mesh::local_switch_tuple</text>
</a>
</g>
</g>
<!-- Node7&#45;&gt;Node35 -->
<g id="edge47_Node000007_Node000035" class="edge">
<title>Node7&#45;&gt;Node35</title>
<g id="a_edge47_Node000007_Node000035"><a xlink:title=" ">
<path fill="none" stroke="#63b8ff" d="M512.58,-211.97C545.04,-198.26 593.14,-177.94 628.3,-163.09"/>
<polygon fill="#63b8ff" stroke="#63b8ff" points="630,-166.17 637.85,-159.06 627.27,-159.73 630,-166.17"/>
</a>
</g>
</g>
<!-- Node9 -->
<g id="Node000009" class="node">
<title>Node9</title>
<g id="a_Node000009"><a xlink:href="classwmtk_1_1_mesh.html#a8cc8686f0688613806f43720b6db49e7" target="_top" xlink:title="check validity of tuple including its hash">
<polygon fill="white" stroke="#666666" points="1093.5,-240.5 973.5,-240.5 973.5,-221.5 1093.5,-221.5 1093.5,-240.5"/>
<text text-anchor="middle" x="1033.5" y="-228.5" font-family="Helvetica,sans-Serif" font-size="10.00">wmtk::Mesh::is_valid</text>
</a>
</g>
</g>
<!-- Node8&#45;&gt;Node9 -->
<g id="edge8_Node000008_Node000009" class="edge">
<title>Node8&#45;&gt;Node9</title>
<g id="a_edge8_Node000008_Node000009"><a xlink:title=" ">
<path fill="none" stroke="#63b8ff" d="M900.48,-228.84C919.93,-229.15 942.44,-229.52 963.3,-229.87"/>
<polygon fill="#63b8ff" stroke="#63b8ff" points="963.33,-233.37 973.39,-230.03 963.45,-226.37 963.33,-233.37"/>
</a>
</g>
</g>
<!-- Node10 -->
<g id="Node000010" class="node">
<title>Node10</title>
<g id="a_Node000010"><a xlink:href="classwmtk_1_1_tuple.html#a0023f575be92cd5ceeeaaaa3762ea06d" target="_top" xlink:title="Checks if a tuple is &quot;null&quot;. This merely implies the global index is &#45;1.">
<polygon fill="white" stroke="#666666" points="1286,-164.5 1173,-164.5 1173,-145.5 1286,-145.5 1286,-164.5"/>
<text text-anchor="middle" x="1229.5" y="-152.5" font-family="Helvetica,sans-Serif" font-size="10.00">wmtk::Tuple::is_null</text>
</a>
</g>
</g>
<!-- Node9&#45;&gt;Node10 -->
<g id="edge9_Node000009_Node000010" class="edge">
<title>Node9&#45;&gt;Node10</title>
<g id="a_edge9_Node000009_Node000010"><a xlink:title=" ">
<path fill="none" stroke="#63b8ff" d="M1093.85,-221.89C1101.93,-219.36 1109.88,-216.13 1117,-212 1137.4,-200.16 1132.64,-184.92 1153,-173 1156.27,-171.08 1159.74,-169.37 1163.32,-167.84"/>
<polygon fill="#63b8ff" stroke="#63b8ff" points="1164.87,-171 1172.99,-164.2 1162.4,-164.44 1164.87,-171"/>
</a>
</g>
</g>
<!-- Node11 -->
<g id="Node000011" class="node">
<title>Node11</title>
<g id="a_Node000011"><a xlink:href="classwmtk_1_1_mesh.html#ade176d345902d97af8c5da04aa3a095b" target="_top" xlink:title=" ">
<polygon fill="white" stroke="#666666" points="1299.5,-201.5 1159.5,-201.5 1159.5,-182.5 1299.5,-182.5 1299.5,-201.5"/>
<text text-anchor="middle" x="1229.5" y="-189.5" font-family="Helvetica,sans-Serif" font-size="10.00">wmtk::Mesh::is_removed</text>
</a>
</g>
</g>
<!-- Node9&#45;&gt;Node11 -->
<g id="edge10_Node000009_Node000011" class="edge">
<title>Node9&#45;&gt;Node11</title>
<g id="a_edge10_Node000009_Node000011"><a xlink:title=" ">
<path fill="none" stroke="#63b8ff" d="M1081.96,-221.46C1108.95,-216.03 1142.94,-209.2 1171.39,-203.48"/>
<polygon fill="#63b8ff" stroke="#63b8ff" points="1172.08,-206.91 1181.2,-201.51 1170.7,-200.05 1172.08,-206.91"/>
</a>
</g>
</g>
<!-- Node11&#45;&gt;Node11 -->
<g id="edge11_Node000011_Node000011" class="edge">
<title>Node11&#45;&gt;Node11</title>
<g id="a_edge11_Node000011_Node000011"><a xlink:title=" ">
<path fill="none" stroke="#63b8ff" d="M1200.52,-201.58C1186.43,-210.23 1196.09,-219.5 1229.5,-219.5 1252.47,-219.5 1264.22,-215.12 1264.73,-209.57"/>
<polygon fill="#63b8ff" stroke="#63b8ff" points="1267.4,-207.3 1258.48,-201.58 1261.89,-211.61 1267.4,-207.3"/>
</a>
</g>
</g>
<!-- Node13 -->
<g id="Node000013" class="node">
<title>Node13</title>
<g id="a_Node000013"><a xlink:href="namespacewmtk_1_1autogen_1_1tri__mesh.html#aaab85f5120a223c29bae0881cd7f2c87" target="_top" xlink:title=" ">
<polygon fill="white" stroke="#666666" points="902,-198 795,-198 795,-168 902,-168 902,-198"/>
<text text-anchor="start" x="803" y="-186" font-family="Helvetica,sans-Serif" font-size="10.00">wmtk::autogen::tri</text>
<text text-anchor="middle" x="848.5" y="-175" font-family="Helvetica,sans-Serif" font-size="10.00">_mesh::is_ccw</text>
</a>
</g>
</g>
<!-- Node12&#45;&gt;Node13 -->
<g id="edge13_Node000012_Node000013" class="edge">
<title>Node12&#45;&gt;Node13</title>
<g id="a_edge13_Node000012_Node000013"><a xlink:title=" ">
<path fill="none" stroke="#63b8ff" d="M701.62,-236.43C726.83,-227.2 765.67,-212.97 796.93,-201.52"/>
<polygon fill="#63b8ff" stroke="#63b8ff" points="798.18,-204.79 806.37,-198.07 795.78,-198.22 798.18,-204.79"/>
</a>
</g>
</g>
<!-- Node12&#45;&gt;Node18 -->
<g id="edge20_Node000012_Node000018" class="edge">
<title>Node12&#45;&gt;Node18</title>
<g id="a_edge20_Node000012_Node000018"><a xlink:title=" ">
<path fill="none" stroke="#63b8ff" d="M718.9,-255.59C741.91,-260.67 770.35,-266.96 794.63,-272.32"/>
<polygon fill="#63b8ff" stroke="#63b8ff" points="793.89,-275.74 804.41,-274.48 795.4,-268.91 793.89,-275.74"/>
</a>
</g>
</g>
<!-- Node14 -->
<g id="Node000014" class="node">
<title>Node14</title>
<g id="a_Node000014"><a xlink:href="namespacewmtk_1_1autogen_1_1tri__mesh.html#a1c9b651c47ee993e160a8dca570cf35c" target="_top" xlink:title=" ">
<polygon fill="white" stroke="#666666" points="1290.5,-127.5 1168.5,-127.5 1168.5,-86.5 1290.5,-86.5 1290.5,-127.5"/>
<text text-anchor="start" x="1176.5" y="-115.5" font-family="Helvetica,sans-Serif" font-size="10.00">wmtk::autogen::tri</text>
<text text-anchor="start" x="1176.5" y="-104.5" font-family="Helvetica,sans-Serif" font-size="10.00">_mesh::local_id_table</text>
<text text-anchor="middle" x="1229.5" y="-93.5" font-family="Helvetica,sans-Serif" font-size="10.00">_offset</text>
</a>
</g>
</g>
<!-- Node13&#45;&gt;Node14 -->
<g id="edge14_Node000013_Node000014" class="edge">
<title>Node13&#45;&gt;Node14</title>
<g id="a_edge14_Node000013_Node000014"><a xlink:title=" ">
<path fill="none" stroke="#63b8ff" d="M895.45,-167.95C912.47,-162.73 931.99,-157.16 950,-153 1020.27,-136.78 1101.78,-124 1158.39,-116.08"/>
<polygon fill="#63b8ff" stroke="#63b8ff" points="1158.89,-119.54 1168.31,-114.7 1157.93,-112.61 1158.89,-119.54"/>
</a>
</g>
</g>
<!-- Node17 -->
<g id="Node000017" class="node">
<title>Node17</title>
<g id="a_Node000017"><a xlink:href="namespacewmtk_1_1autogen_1_1tri__mesh.html#a786155d6d2270c482ffd6a96d3211867" target="_top" xlink:title=" ">
<polygon fill="white" stroke="#666666" points="1094.5,-203.5 972.5,-203.5 972.5,-162.5 1094.5,-162.5 1094.5,-203.5"/>
<text text-anchor="start" x="980.5" y="-191.5" font-family="Helvetica,sans-Serif" font-size="10.00">wmtk::autogen::tri</text>
<text text-anchor="start" x="980.5" y="-180.5" font-family="Helvetica,sans-Serif" font-size="10.00">_mesh::tuple_is_valid</text>
<text text-anchor="middle" x="1033.5" y="-169.5" font-family="Helvetica,sans-Serif" font-size="10.00">_for_ccw</text>
</a>
</g>
</g>
<!-- Node13&#45;&gt;Node17 -->
<g id="edge17_Node000013_Node000017" class="edge">
<title>Node13&#45;&gt;Node17</title>
<g id="a_edge17_Node000013_Node000017"><a xlink:title=" ">
<path fill="none" stroke="#63b8ff" d="M902.43,-183C921.04,-183 942.25,-183 962.07,-183"/>
<polygon fill="#63b8ff" stroke="#63b8ff" points="962.28,-186.5 972.28,-183 962.28,-179.5 962.28,-186.5"/>
</a>
</g>
</g>
<!-- Node15 -->
<g id="Node000015" class="node">
<title>Node15</title>
<g id="a_Node000015"><a xlink:href="classwmtk_1_1utils_1_1_tuple_inspector.html#a3a04acf16e0eff80ade8e0fb8753ac1b" target="_top" xlink:title=" ">
<polygon fill="white" stroke="#666666" points="1492.5,-119 1344.5,-119 1344.5,-89 1492.5,-89 1492.5,-119"/>
<text text-anchor="start" x="1352.5" y="-107" font-family="Helvetica,sans-Serif" font-size="10.00">wmtk::utils::TupleInspector</text>
<text text-anchor="middle" x="1418.5" y="-96" font-family="Helvetica,sans-Serif" font-size="10.00">::local_eid</text>
</a>
</g>
</g>
<!-- Node14&#45;&gt;Node15 -->
<g id="edge15_Node000014_Node000015" class="edge">
<title>Node14&#45;&gt;Node15</title>
<g id="a_edge15_Node000014_Node000015"><a xlink:title=" ">
<path fill="none" stroke="#63b8ff" d="M1290.7,-106.03C1304.58,-105.81 1319.58,-105.57 1334.25,-105.34"/>
<polygon fill="#63b8ff" stroke="#63b8ff" points="1334.39,-108.83 1344.33,-105.17 1334.28,-101.83 1334.39,-108.83"/>
</a>
</g>
</g>
<!-- Node16 -->
<g id="Node000016" class="node">
<title>Node16</title>
<g id="a_Node000016"><a xlink:href="classwmtk_1_1utils_1_1_tuple_inspector.html#a92f5faa08a7f78424f5cd1ec79dcedbb" target="_top" xlink:title=" ">
<polygon fill="white" stroke="#666666" points="1492.5,-167 1344.5,-167 1344.5,-137 1492.5,-137 1492.5,-167"/>
<text text-anchor="start" x="1352.5" y="-155" font-family="Helvetica,sans-Serif" font-size="10.00">wmtk::utils::TupleInspector</text>
<text text-anchor="middle" x="1418.5" y="-144" font-family="Helvetica,sans-Serif" font-size="10.00">::local_vid</text>
</a>
</g>
</g>
<!-- Node14&#45;&gt;Node16 -->
<g id="edge16_Node000014_Node000016" class="edge">
<title>Node14&#45;&gt;Node16</title>
<g id="a_edge16_Node000014_Node000016"><a xlink:title=" ">
<path fill="none" stroke="#63b8ff" d="M1290.7,-121.49C1308.08,-125.67 1327.24,-130.28 1345.28,-134.62"/>
<polygon fill="#63b8ff" stroke="#63b8ff" points="1344.62,-138.06 1355.16,-137 1346.26,-131.26 1344.62,-138.06"/>
</a>
</g>
</g>
<!-- Node17&#45;&gt;Node10 -->
<g id="edge18_Node000017_Node000010" class="edge">
<title>Node17&#45;&gt;Node10</title>
<g id="a_edge18_Node000017_Node000010"><a xlink:title=" ">
<path fill="none" stroke="#63b8ff" d="M1094.55,-174.33C1116.17,-171.21 1140.66,-167.68 1162.74,-164.49"/>
<polygon fill="#63b8ff" stroke="#63b8ff" points="1163.3,-167.95 1172.7,-163.05 1162.3,-161.02 1163.3,-167.95"/>
</a>
</g>
</g>
<!-- Node17&#45;&gt;Node14 -->
<g id="edge19_Node000017_Node000014" class="edge">
<title>Node17&#45;&gt;Node14</title>
<g id="a_edge19_Node000017_Node000014"><a xlink:title=" ">
<path fill="none" stroke="#63b8ff" d="M1086.07,-162.4C1106.85,-154.14 1131.04,-144.57 1153,-136 1156.97,-134.45 1161.07,-132.86 1165.2,-131.26"/>
<polygon fill="#63b8ff" stroke="#63b8ff" points="1166.79,-134.39 1174.85,-127.52 1164.26,-127.87 1166.79,-134.39"/>
</a>
</g>
</g>
<!-- Node18&#45;&gt;Node9 -->
<g id="edge43_Node000018_Node000009" class="edge">
<title>Node18&#45;&gt;Node9</title>
<g id="a_edge43_Node000018_Node000009"><a xlink:title=" ">
<path fill="none" stroke="#63b8ff" d="M882.64,-274.4C912.7,-265.7 957.17,-252.82 989.87,-243.35"/>
<polygon fill="#63b8ff" stroke="#63b8ff" points="990.98,-246.67 999.61,-240.53 989.03,-239.95 990.98,-246.67"/>
</a>
</g>
</g>
<!-- Node18&#45;&gt;Node17 -->
<g id="edge45_Node000018_Node000017" class="edge">
<title>Node18&#45;&gt;Node17</title>
<g id="a_edge45_Node000018_Node000017"><a xlink:title=" ">
<path fill="none" stroke="#63b8ff" d="M868.27,-274.4C881.53,-267.27 899.46,-256.93 914,-246 931.59,-232.78 931.21,-223.45 950,-212 954.08,-209.51 958.4,-207.2 962.85,-205.05"/>
<polygon fill="#63b8ff" stroke="#63b8ff" points="964.42,-208.18 972.1,-200.89 961.55,-201.8 964.42,-208.18"/>
</a>
</g>
</g>
<!-- Node19 -->
<g id="Node000019" class="node">
<title>Node19</title>
<g id="a_Node000019"><a xlink:href="classwmtk_1_1_tri_mesh.html#a6375662ccb85d7c8868b3c76d708bae5" target="_top" xlink:title=" ">
<polygon fill="white" stroke="#666666" points="1117,-398 950,-398 950,-368 1117,-368 1117,-398"/>
<text text-anchor="start" x="958" y="-386" font-family="Helvetica,sans-Serif" font-size="10.00">wmtk::TriMesh::is_connectivity</text>
<text text-anchor="middle" x="1033.5" y="-375" font-family="Helvetica,sans-Serif" font-size="10.00">_valid</text>
</a>
</g>
</g>
<!-- Node18&#45;&gt;Node19 -->
<g id="edge21_Node000018_Node000019" class="edge">
<title>Node18&#45;&gt;Node19</title>
<g id="a_edge21_Node000018_Node000019"><a xlink:title=" ">
<path fill="none" stroke="#63b8ff" d="M867.38,-293.67C897.02,-309.71 956.92,-342.11 995.84,-363.17"/>
<polygon fill="#63b8ff" stroke="#63b8ff" points="994.31,-366.32 1004.77,-368 997.64,-360.16 994.31,-366.32"/>
</a>
</g>
</g>
<!-- Node33 -->
<g id="Node000033" class="node">
<title>Node33</title>
<g id="a_Node000033"><a xlink:href="namespacewmtk.html#a6a35f11c12436093d26fdd8be6fecc06" target="_top" xlink:title="Retrieves the current logger.">
<polygon fill="white" stroke="#666666" points="1270,-586.5 1189,-586.5 1189,-567.5 1270,-567.5 1270,-586.5"/>
<text text-anchor="middle" x="1229.5" y="-574.5" font-family="Helvetica,sans-Serif" font-size="10.00">wmtk::logger</text>
</a>
</g>
</g>
<!-- Node18&#45;&gt;Node33 -->
<g id="edge44_Node000018_Node000033" class="edge">
<title>Node18&#45;&gt;Node33</title>
<g id="a_edge44_Node000018_Node000033"><a xlink:title=" ">
<path fill="none" stroke="#63b8ff" d="M849.69,-293.7C851.06,-333.62 862.06,-486.21 950,-553 1016.12,-603.23 1118.27,-597.03 1178.74,-587.4"/>
<polygon fill="#63b8ff" stroke="#63b8ff" points="1179.53,-590.82 1188.81,-585.71 1178.36,-583.92 1179.53,-590.82"/>
</a>
</g>
</g>
<!-- Node20 -->
<g id="Node000020" class="node">
<title>Node20</title>
<g id="a_Node000020"><a xlink:href="classwmtk_1_1_mesh.html#a3e8ff83c4a5526a40d18bb9883c6c6c9" target="_top" xlink:title="read in the m_capacities return the upper bound for the number of entities of the given dimension">
<polygon fill="white" stroke="#666666" points="1480.5,-257.5 1356.5,-257.5 1356.5,-238.5 1480.5,-238.5 1480.5,-257.5"/>
<text text-anchor="middle" x="1418.5" y="-245.5" font-family="Helvetica,sans-Serif" font-size="10.00">wmtk::Mesh::capacity</text>
</a>
</g>
</g>
<!-- Node19&#45;&gt;Node20 -->
<g id="edge22_Node000019_Node000020" class="edge">
<title>Node19&#45;&gt;Node20</title>
<g id="a_edge22_Node000019_Node000020"><a xlink:title=" ">
<path fill="none" stroke="#63b8ff" d="M1044.41,-367.91C1062.44,-341.92 1103.39,-289.35 1153,-267 1214.05,-239.5 1291.11,-237.11 1346.28,-240.18"/>
<polygon fill="#63b8ff" stroke="#63b8ff" points="1346.12,-243.68 1356.32,-240.82 1346.56,-236.69 1346.12,-243.68"/>
</a>
</g>
</g>
<!-- Node21 -->
<g id="Node000021" class="node">
<title>Node21</title>
<g id="a_Node000021"><a xlink:href="classwmtk_1_1attribute_1_1_caching_accessor.html#a196b6b32e2495b971113d552be7f45d9" target="_top" xlink:title=" ">
<polygon fill="white" stroke="#666666" points="1298,-376.5 1161,-376.5 1161,-335.5 1298,-335.5 1298,-376.5"/>
<text text-anchor="start" x="1169" y="-364.5" font-family="Helvetica,sans-Serif" font-size="10.00">wmtk::attribute::Caching</text>
<text text-anchor="start" x="1169" y="-353.5" font-family="Helvetica,sans-Serif" font-size="10.00">Accessor::const_scalar</text>
<text text-anchor="middle" x="1229.5" y="-342.5" font-family="Helvetica,sans-Serif" font-size="10.00">_attribute</text>
</a>
</g>
</g>
<!-- Node19&#45;&gt;Node21 -->
<g id="edge24_Node000019_Node000021" class="edge">
<title>Node19&#45;&gt;Node21</title>
<g id="a_edge24_Node000019_Node000021"><a xlink:title=" ">
<path fill="none" stroke="#63b8ff" d="M1117.05,-371.51C1128.27,-369.95 1139.74,-368.35 1150.86,-366.81"/>
<polygon fill="#63b8ff" stroke="#63b8ff" points="1151.54,-370.25 1160.96,-365.4 1150.57,-363.31 1151.54,-370.25"/>
</a>
</g>
</g>
<!-- Node22 -->
<g id="Node000022" class="node">
<title>Node22</title>
<g id="a_Node000022"><a xlink:href="classwmtk_1_1attribute_1_1_caching_accessor.html#ab850fe07669c7bc92ca6cf6e86c60ee0" target="_top" xlink:title=" ">
<polygon fill="white" stroke="#666666" points="1298,-317.5 1161,-317.5 1161,-276.5 1298,-276.5 1298,-317.5"/>
<text text-anchor="start" x="1169" y="-305.5" font-family="Helvetica,sans-Serif" font-size="10.00">wmtk::attribute::Caching</text>
<text text-anchor="start" x="1169" y="-294.5" font-family="Helvetica,sans-Serif" font-size="10.00">Accessor::const_vector</text>
<text text-anchor="middle" x="1229.5" y="-283.5" font-family="Helvetica,sans-Serif" font-size="10.00">_attribute</text>
</a>
</g>
</g>
<!-- Node19&#45;&gt;Node22 -->
<g id="edge25_Node000019_Node000022" class="edge">
<title>Node19&#45;&gt;Node22</title>
<g id="a_edge25_Node000019_Node000022"><a xlink:title=" ">
<path fill="none" stroke="#63b8ff" d="M1064.38,-367.79C1088.16,-355.89 1122.4,-339.21 1153,-326 1156.6,-324.45 1160.3,-322.89 1164.06,-321.35"/>
<polygon fill="#63b8ff" stroke="#63b8ff" points="1165.49,-324.54 1173.44,-317.55 1162.86,-318.05 1165.49,-324.54"/>
</a>
</g>
</g>
<!-- Node23 -->
<g id="Node000023" class="node">
<title>Node23</title>
<g id="a_Node000023"><a xlink:href="classwmtk_1_1_mesh.html#ae0e8f71e9e17a90be9423117efcc4c81" target="_top" xlink:title=" ">
<polygon fill="white" stroke="#666666" points="1290.5,-425 1168.5,-425 1168.5,-395 1290.5,-395 1290.5,-425"/>
<text text-anchor="start" x="1176.5" y="-413" font-family="Helvetica,sans-Serif" font-size="10.00">wmtk::Mesh::get_flag</text>
<text text-anchor="middle" x="1229.5" y="-402" font-family="Helvetica,sans-Serif" font-size="10.00">_accessor</text>
</a>
</g>
</g>
<!-- Node19&#45;&gt;Node23 -->
<g id="edge26_Node000019_Node000023" class="edge">
<title>Node19&#45;&gt;Node23</title>
<g id="a_edge26_Node000019_Node000023"><a xlink:title=" ">
<path fill="none" stroke="#63b8ff" d="M1117.05,-394.49C1130.78,-396.4 1144.9,-398.36 1158.28,-400.23"/>
<polygon fill="#63b8ff" stroke="#63b8ff" points="1157.96,-403.72 1168.35,-401.63 1158.93,-396.78 1157.96,-403.72"/>
</a>
</g>
</g>
<!-- Node26 -->
<g id="Node000026" class="node">
<title>Node26</title>
<g id="a_Node000026"><a xlink:href="classwmtk_1_1attribute_1_1_accessor.html#a2d587e12c47a6d839ab80e9198cf75b5" target="_top" xlink:title=" ">
<polygon fill="white" stroke="#666666" points="1300.5,-473 1158.5,-473 1158.5,-443 1300.5,-443 1300.5,-473"/>
<text text-anchor="start" x="1166.5" y="-461" font-family="Helvetica,sans-Serif" font-size="10.00">wmtk::attribute::Accessor</text>
<text text-anchor="middle" x="1229.5" y="-450" font-family="Helvetica,sans-Serif" font-size="10.00">::index_access</text>
</a>
</g>
</g>
<!-- Node19&#45;&gt;Node26 -->
<g id="edge30_Node000019_Node000026" class="edge">
<title>Node19&#45;&gt;Node26</title>
<g id="a_edge30_Node000019_Node000026"><a xlink:title=" ">
<path fill="none" stroke="#63b8ff" d="M1067.09,-398.06C1090.7,-408.71 1123.52,-423 1153,-434 1158.15,-435.92 1163.54,-437.83 1168.96,-439.68"/>
<polygon fill="#63b8ff" stroke="#63b8ff" points="1168.12,-443.09 1178.71,-442.94 1170.34,-436.45 1168.12,-443.09"/>
</a>
</g>
</g>
<!-- Node28 -->
<g id="Node000028" class="node">
<title>Node28</title>
<g id="a_Node000028"><a xlink:href="classwmtk_1_1_tri_mesh.html#a2e568aaaffd6e68904c5cecd8256ed93" target="_top" xlink:title="returns if a simplex is on the boundary of hte mesh. For anything but dimension &#45; 1 this checks if th...">
<polygon fill="white" stroke="#666666" points="1306,-510.5 1153,-510.5 1153,-491.5 1306,-491.5 1306,-510.5"/>
<text text-anchor="middle" x="1229.5" y="-498.5" font-family="Helvetica,sans-Serif" font-size="10.00">wmtk::TriMesh::is_boundary</text>
</a>
</g>
</g>
<!-- Node19&#45;&gt;Node28 -->
<g id="edge32_Node000019_Node000028" class="edge">
<title>Node19&#45;&gt;Node28</title>
<g id="a_edge32_Node000019_Node000028"><a xlink:title=" ">
<path fill="none" stroke="#63b8ff" d="M1048.26,-398.2C1068.89,-420.05 1110.01,-460.09 1153,-482 1157.62,-484.36 1162.56,-486.43 1167.61,-488.26"/>
<polygon fill="#63b8ff" stroke="#63b8ff" points="1166.81,-491.68 1177.4,-491.48 1168.99,-485.03 1166.81,-491.68"/>
</a>
</g>
</g>
<!-- Node19&#45;&gt;Node33 -->
<g id="edge41_Node000019_Node000033" class="edge">
<title>Node19&#45;&gt;Node33</title>
<g id="a_edge41_Node000019_Node000033"><a xlink:title=" ">
<path fill="none" stroke="#63b8ff" d="M1046,-398.31C1066.16,-424.66 1109.83,-479.61 1153,-520 1169.44,-535.38 1189.93,-550.64 1205.41,-561.49"/>
<polygon fill="#63b8ff" stroke="#63b8ff" points="1203.66,-564.53 1213.88,-567.34 1207.64,-558.77 1203.66,-564.53"/>
</a>
</g>
</g>
<!-- Node20&#45;&gt;Node5 -->
<g id="edge23_Node000020_Node000005" class="edge">
<title>Node20&#45;&gt;Node5</title>
<g id="a_edge23_Node000020_Node000005"><a xlink:title=" ">
<path fill="none" stroke="#63b8ff" d="M1480.5,-248C1503.61,-248 1530.04,-248 1553.69,-248"/>
<polygon fill="#63b8ff" stroke="#63b8ff" points="1553.99,-251.5 1563.99,-248 1553.99,-244.5 1553.99,-251.5"/>
</a>
</g>
</g>
<!-- Node24 -->
<g id="Node000024" class="node">
<title>Node24</title>
<g id="a_Node000024"><a xlink:href="classwmtk_1_1_mesh.html#a6dbab927a2ee85f77a87f075fd5c1d94" target="_top" xlink:title=" ">
<polygon fill="white" stroke="#666666" points="1483.5,-368 1353.5,-368 1353.5,-338 1483.5,-338 1483.5,-368"/>
<text text-anchor="start" x="1361.5" y="-356" font-family="Helvetica,sans-Serif" font-size="10.00">wmtk::Mesh::get_const</text>
<text text-anchor="middle" x="1418.5" y="-345" font-family="Helvetica,sans-Serif" font-size="10.00">_flag_accessor</text>
</a>
</g>
</g>
<!-- Node23&#45;&gt;Node24 -->
<g id="edge27_Node000023_Node000024" class="edge">
<title>Node23&#45;&gt;Node24</title>
<g id="a_edge27_Node000023_Node000024"><a xlink:title=" ">
<path fill="none" stroke="#63b8ff" d="M1280.12,-394.87C1304.1,-387.57 1333.05,-378.74 1358.19,-371.08"/>
<polygon fill="#63b8ff" stroke="#63b8ff" points="1359.43,-374.36 1367.97,-368.1 1357.39,-367.66 1359.43,-374.36"/>
</a>
</g>
</g>
<!-- Node24&#45;&gt;Node5 -->
<g id="edge29_Node000024_Node000005" class="edge">
<title>Node24&#45;&gt;Node5</title>
<g id="a_edge29_Node000024_Node000005"><a xlink:title=" ">
<path fill="none" stroke="#63b8ff" d="M1448.37,-337.96C1483.83,-319.48 1544.09,-288.08 1583.21,-267.69"/>
<polygon fill="#63b8ff" stroke="#63b8ff" points="1584.93,-270.74 1592.18,-263.02 1581.7,-264.53 1584.93,-270.74"/>
</a>
</g>
</g>
<!-- Node25 -->
<g id="Node000025" class="node">
<title>Node25</title>
<g id="a_Node000025"><a xlink:href="classwmtk_1_1_mesh.html#a357182137d99f1e4a7ff536eadfc0e56" target="_top" xlink:title=" ">
<polygon fill="white" stroke="#666666" points="1678.5,-368 1565.5,-368 1565.5,-338 1678.5,-338 1678.5,-368"/>
<text text-anchor="start" x="1573.5" y="-356" font-family="Helvetica,sans-Serif" font-size="10.00">wmtk::Mesh::create</text>
<text text-anchor="middle" x="1622" y="-345" font-family="Helvetica,sans-Serif" font-size="10.00">_const_accessor</text>
</a>
</g>
</g>
<!-- Node24&#45;&gt;Node25 -->
<g id="edge28_Node000024_Node000025" class="edge">
<title>Node24&#45;&gt;Node25</title>
<g id="a_edge28_Node000024_Node000025"><a xlink:title=" ">
<path fill="none" stroke="#63b8ff" d="M1483.53,-353C1506.42,-353 1532.24,-353 1555.27,-353"/>
<polygon fill="#63b8ff" stroke="#63b8ff" points="1555.29,-356.5 1565.29,-353 1555.29,-349.5 1555.29,-356.5"/>
</a>
</g>
</g>
<!-- Node27 -->
<g id="Node000027" class="node">
<title>Node27</title>
<g id="a_Node000027"><a xlink:href="classwmtk_1_1attribute_1_1_accessor.html#afd97a48ec5d1db975a030428df81f617" target="_top" xlink:title=" ">
<polygon fill="white" stroke="#666666" points="1489.5,-473 1347.5,-473 1347.5,-443 1489.5,-443 1489.5,-473"/>
<text text-anchor="start" x="1355.5" y="-461" font-family="Helvetica,sans-Serif" font-size="10.00">wmtk::attribute::Accessor</text>
<text text-anchor="middle" x="1418.5" y="-450" font-family="Helvetica,sans-Serif" font-size="10.00">::caching_base_type</text>
</a>
</g>
</g>
<!-- Node26&#45;&gt;Node27 -->
<g id="edge31_Node000026_Node000027" class="edge">
<title>Node26&#45;&gt;Node27</title>
<g id="a_edge31_Node000026_Node000027"><a xlink:title=" ">
<path fill="none" stroke="#63b8ff" d="M1300.66,-458C1312.57,-458 1325.01,-458 1337.15,-458"/>
<polygon fill="#63b8ff" stroke="#63b8ff" points="1337.25,-461.5 1347.25,-458 1337.25,-454.5 1337.25,-461.5"/>
</a>
</g>
</g>
<!-- Node29 -->
<g id="Node000029" class="node">
<title>Node29</title>
<g id="a_Node000029"><a xlink:href="classwmtk_1_1_tri_mesh.html#ac603f7969b10c674eb00e007a507a530" target="_top" xlink:title=" ">
<polygon fill="white" stroke="#666666" points="1713,-548.5 1531,-548.5 1531,-529.5 1713,-529.5 1713,-548.5"/>
<text text-anchor="middle" x="1622" y="-536.5" font-family="Helvetica,sans-Serif" font-size="10.00">wmtk::TriMesh::is_boundary_edge</text>
</a>
</g>
</g>
<!-- Node28&#45;&gt;Node29 -->
<g id="edge33_Node000028_Node000029" class="edge">
<title>Node28&#45;&gt;Node29</title>
<g id="a_edge33_Node000028_Node000029"><a xlink:title=" ">
<path fill="none" stroke="#63b8ff" d="M1306.07,-507.45C1358.99,-512.07 1431.35,-518.58 1495,-525 1505.48,-526.06 1516.44,-527.21 1527.34,-528.38"/>
<polygon fill="#63b8ff" stroke="#63b8ff" points="1527,-531.87 1537.32,-529.46 1527.76,-524.91 1527,-531.87"/>
</a>
</g>
</g>
<!-- Node30 -->
<g id="Node000030" class="node">
<title>Node30</title>
<g id="a_Node000030"><a xlink:href="classwmtk_1_1_tri_mesh.html#a1d5d124897281d6a649098213173fdb5" target="_top" xlink:title=" ">
<polygon fill="white" stroke="#666666" points="1495,-597 1342,-597 1342,-567 1495,-567 1495,-597"/>
<text text-anchor="start" x="1350" y="-585" font-family="Helvetica,sans-Serif" font-size="10.00">wmtk::TriMesh::is_boundary</text>
<text text-anchor="middle" x="1418.5" y="-574" font-family="Helvetica,sans-Serif" font-size="10.00">_vertex</text>
</a>
</g>
</g>
<!-- Node28&#45;&gt;Node30 -->
<g id="edge35_Node000028_Node000030" class="edge">
<title>Node28&#45;&gt;Node30</title>
<g id="a_edge35_Node000028_Node000030"><a xlink:title=" ">
<path fill="none" stroke="#63b8ff" d="M1252.69,-510.61C1282.3,-523.44 1335.4,-546.44 1373.33,-562.87"/>
<polygon fill="#63b8ff" stroke="#63b8ff" points="1372.05,-566.13 1382.62,-566.89 1374.84,-559.71 1372.05,-566.13"/>
</a>
</g>
</g>
<!-- Node29&#45;&gt;Node18 -->
<g id="edge34_Node000029_Node000018" class="edge">
<title>Node29&#45;&gt;Node18</title>
<g id="a_edge34_Node000029_Node000018"><a xlink:title=" ">
<path fill="none" stroke="#63b8ff" d="M1530.66,-547.54C1434.96,-553.79 1280.4,-555.84 1153,-520 1053.6,-492.03 1029.19,-473.27 950,-407 912.14,-375.32 878.09,-327.8 861.03,-302.08"/>
<polygon fill="#63b8ff" stroke="#63b8ff" points="863.93,-300.13 855.54,-293.67 858.07,-303.95 863.93,-300.13"/>
</a>
</g>
</g>
<!-- Node30&#45;&gt;Node29 -->
<g id="edge36_Node000030_Node000029" class="edge">
<title>Node30&#45;&gt;Node29</title>
<g id="a_edge36_Node000030_Node000029"><a xlink:title=" ">
<path fill="none" stroke="#63b8ff" d="M1489.97,-566.96C1515.1,-561.6 1542.99,-555.65 1566.56,-550.62"/>
<polygon fill="#63b8ff" stroke="#63b8ff" points="1567.33,-554.03 1576.38,-548.52 1565.87,-547.19 1567.33,-554.03"/>
</a>
</g>
</g>
<!-- Node31 -->
<g id="Node000031" class="node">
<title>Node31</title>
<g id="a_Node000031"><a xlink:href="classwmtk_1_1_tri_mesh.html#a79010f8baac63245558c846aafea10d0" target="_top" xlink:title=" ">
<polygon fill="white" stroke="#666666" points="1699.5,-689.5 1544.5,-689.5 1544.5,-670.5 1699.5,-670.5 1699.5,-689.5"/>
<text text-anchor="middle" x="1622" y="-677.5" font-family="Helvetica,sans-Serif" font-size="10.00">wmtk::TriMesh::switch_edge</text>
</a>
</g>
</g>
<!-- Node30&#45;&gt;Node31 -->
<g id="edge37_Node000030_Node000031" class="edge">
<title>Node30&#45;&gt;Node31</title>
<g id="a_edge37_Node000030_Node000031"><a xlink:title=" ">
<path fill="none" stroke="#63b8ff" d="M1470,-597.12C1478.46,-600.11 1487.07,-603.43 1495,-607 1532.62,-623.91 1573.47,-648.92 1598.15,-664.83"/>
<polygon fill="#63b8ff" stroke="#63b8ff" points="1596.48,-667.93 1606.77,-670.45 1600.3,-662.06 1596.48,-667.93"/>
</a>
</g>
</g>
<!-- Node32 -->
<g id="Node000032" class="node">
<title>Node32</title>
<g id="a_Node000032"><a xlink:href="classwmtk_1_1_tri_mesh.html#a0ecb0fd199e840ff9f3d206abc10a64b" target="_top" xlink:title=" ">
<polygon fill="white" stroke="#666666" points="1698,-611.5 1546,-611.5 1546,-592.5 1698,-592.5 1698,-611.5"/>
<text text-anchor="middle" x="1622" y="-599.5" font-family="Helvetica,sans-Serif" font-size="10.00">wmtk::TriMesh::switch_face</text>
</a>
</g>
</g>
<!-- Node30&#45;&gt;Node32 -->
<g id="edge39_Node000030_Node000032" class="edge">
<title>Node30&#45;&gt;Node32</title>
<g id="a_edge39_Node000030_Node000032"><a xlink:title=" ">
<path fill="none" stroke="#63b8ff" d="M1495.1,-589.5C1508.36,-590.82 1522.24,-592.2 1535.74,-593.54"/>
<polygon fill="#63b8ff" stroke="#63b8ff" points="1535.68,-597.05 1545.98,-594.55 1536.37,-590.08 1535.68,-597.05"/>
</a>
</g>
</g>
<!-- Node31&#45;&gt;Node7 -->
<g id="edge38_Node000031_Node000007" class="edge">
<title>Node31&#45;&gt;Node7</title>
<g id="a_edge38_Node000031_Node000007"><a xlink:title=" ">
<path fill="none" stroke="#63b8ff" d="M1544.38,-686.56C1465.69,-692.72 1339.64,-701 1230.5,-701 847.5,-701 847.5,-701 847.5,-701 689.86,-701 669.7,-587.36 602,-445 564.34,-365.81 625.48,-315.44 566,-251 560.93,-245.5 554.74,-241.21 548.01,-237.87"/>
<polygon fill="#63b8ff" stroke="#63b8ff" points="549.13,-234.55 538.55,-233.88 546.41,-241 549.13,-234.55"/>
</a>
</g>
</g>
<!-- Node32&#45;&gt;Node7 -->
<g id="edge40_Node000032_Node000007" class="edge">
<title>Node32&#45;&gt;Node7</title>
<g id="a_edge40_Node000032_Node000007"><a xlink:title=" ">
<path fill="none" stroke="#63b8ff" d="M1598.25,-611.51C1573.37,-621.45 1532.09,-636.61 1495,-644 1379.41,-667.04 1348.36,-663 1230.5,-663 847.5,-663 847.5,-663 847.5,-663 736.61,-663 656.41,-315.19 566,-251 560.56,-247.14 554.54,-243.9 548.27,-241.18"/>
<polygon fill="#63b8ff" stroke="#63b8ff" points="549.52,-237.92 538.93,-237.56 546.99,-244.44 549.52,-237.92"/>
</a>
</g>
</g>
<!-- Node34 -->
<g id="Node000034" class="node">
<title>Node34</title>
<g id="a_Node000034"><a xlink:href="namespacewmtk.html#a3daa7951a5f8b78cf4600dc047fcc180" target="_top" xlink:title="Setup a logger object to be used by WildmeshToolkit.">
<polygon fill="white" stroke="#666666" points="1469,-634.5 1368,-634.5 1368,-615.5 1469,-615.5 1469,-634.5"/>
<text text-anchor="middle" x="1418.5" y="-622.5" font-family="Helvetica,sans-Serif" font-size="10.00">wmtk::set_logger</text>
</a>
</g>
</g>
<!-- Node33&#45;&gt;Node34 -->
<g id="edge42_Node000033_Node000034" class="edge">
<title>Node33&#45;&gt;Node34</title>
<g id="a_edge42_Node000033_Node000034"><a xlink:title=" ">
<path fill="none" stroke="#63b8ff" d="M1266.89,-586.54C1288.67,-592.23 1316.91,-599.58 1342,-606 1350.94,-608.29 1360.49,-610.71 1369.68,-613.03"/>
<polygon fill="#63b8ff" stroke="#63b8ff" points="1368.91,-616.44 1379.46,-615.49 1370.62,-609.65 1368.91,-616.44"/>
</a>
</g>
</g>
<!-- Node35&#45;&gt;Node14 -->
<g id="edge48_Node000035_Node000014" class="edge">
<title>Node35&#45;&gt;Node14</title>
<g id="a_edge48_Node000035_Node000014"><a xlink:title=" ">
<path fill="none" stroke="#63b8ff" d="M747.09,-136.54C802.44,-130.99 881.01,-123.63 950,-119 1020.8,-114.25 1101.86,-111.01 1158.2,-109.1"/>
<polygon fill="#63b8ff" stroke="#63b8ff" points="1158.55,-112.59 1168.42,-108.76 1158.31,-105.59 1158.55,-112.59"/>
</a>
</g>
</g>
</g>
</svg>

<g id="navigator" transform="translate(0 0)" fill="#404254">
  <rect fill="#f2f5e9" fill-opacity="0.5" stroke="#606060" stroke-width=".5" x="0" y="0" width="60" height="60"/>
  <use id="zoomplus" xlink:href="#zoomPlus" x="17" y="9" onmousedown="handleZoom(evt,'in')"/>
  <use id="zoomminus" xlink:href="#zoomMin" x="42" y="9" onmousedown="handleZoom(evt,'out')"/>
  <use id="reset" xlink:href="#resetDef" x="30" y="36" onmousedown="handleReset()"/>
   <use id="arrowup" xlink:href="#arrowUp" x="0" y="0" onmousedown="handlePan(0,-1)"/>
  <use id="arrowright" xlink:href="#arrowRight" x="0" y="0" onmousedown="handlePan(1,0)"/>
  <use id="arrowdown" xlink:href="#arrowDown" x="0" y="0" onmousedown="handlePan(0,1)"/>
  <use id="arrowleft" xlink:href="#arrowLeft" x="0" y="0" onmousedown="handlePan(-1,0)"/>
</g>
<svg viewBox="0 0 15 15" width="100%" height="30px" preserveAspectRatio="xMaxYMin meet">
 <g id="arrow_out" transform="scale(0.3 0.3)">
  <a xlink:href="classwmtk_1_1operations_1_1tri__mesh_1_1_split_new_attribute_topo_info_a5f44117bceeaae70d0c4b87f7db7af0a_cgraph_org.svg" target="_base">
   <rect id="button" ry="5" rx="5" y="6" x="6" height="38" width="38"
        fill="#f2f5e9" fill-opacity="0.5" stroke="#606060" stroke-width="1.0"/>
   <path id="arrow"
     d="M 11.500037,31.436501 C 11.940474,20.09759 22.043105,11.32322 32.158766,21.979434 L 37.068811,17.246167 C 37.068811,17.246167 37.088388,32 37.088388,32 L 22.160133,31.978069 C 22.160133,31.978069 26.997745,27.140456 26.997745,27.140456 C 18.528582,18.264221 13.291696,25.230495 11.500037,31.436501 z"
     style="fill:#404040;"/>
  </a>
 </g>
</svg>

<style type='text/css'>
<![CDATA[
[data-mouse-over-selected='false'] { opacity: 0.7; }
[data-mouse-over-selected='true']  { opacity: 1.0; }
]]>
</style>
<script type="application/ecmascript"><![CDATA[
document.addEventListener('DOMContentLoaded', (event) => {
  highlightEdges();
  highlightAdjacentNodes();
});
]]></script>
</svg>
