<?xml version="1.0" encoding="UTF-8" standalone="no"?>
<!DOCTYPE svg PUBLIC "-//W3C//DTD SVG 1.1//EN"
 "http://www.w3.org/Graphics/SVG/1.1/DTD/svg11.dtd">
<!-- Generated by graphviz version 2.43.0 (0)
 -->
<!-- Title: wmtk::hash&lt; T &gt; Pages: 1 -->
<svg width="738pt" height="295pt"
 viewBox="0.00 0.00 738.00 295.00" xmlns="http://www.w3.org/2000/svg" xmlns:xlink="http://www.w3.org/1999/xlink">
<g id="graph0" class="graph" transform="scale(1 1) rotate(0) translate(4 291)">
<title>wmtk::hash&lt; T &gt;</title>
<!-- Node1 -->
<g id="Node000001" class="node">
<title>Node1</title>
<g id="a_Node000001"><a xlink:title=" ">
<polygon fill="#999999" stroke="#666666" points="102,-137.5 0,-137.5 0,-118.5 102,-118.5 102,-137.5"/>
<text text-anchor="middle" x="51" y="-125.5" font-family="Helvetica,sans-Serif" font-size="10.00">wmtk::hash&lt; T &gt;</text>
</a>
</g>
</g>
<!-- Node2 -->
<g id="Node000002" class="node">
<title>Node2</title>
<g id="a_Node000002"><a xlink:href="classwmtk_1_1hash.html" target="_top" xlink:title=" ">
<polygon fill="white" stroke="#666666" points="464.5,-266.5 303.5,-266.5 303.5,-225.5 464.5,-225.5 464.5,-266.5"/>
<text text-anchor="start" x="311.5" y="-254.5" font-family="Helvetica,sans-Serif" font-size="10.00">wmtk::hash&lt; wmtk::attribute</text>
<text text-anchor="start" x="311.5" y="-243.5" font-family="Helvetica,sans-Serif" font-size="10.00">::TypedAttributeHandle&lt;</text>
<text text-anchor="middle" x="384" y="-232.5" font-family="Helvetica,sans-Serif" font-size="10.00"> char &gt; &gt;</text>
</a>
</g>
</g>
<!-- Node1&#45;&gt;Node2 -->
<g id="edge1_Node000001_Node000002" class="edge">
<title>Node1&#45;&gt;Node2</title>
<g id="a_edge1_Node000001_Node000002"><a xlink:title=" ">
<path fill="none" stroke="orange" stroke-dasharray="5,2" d="M60,-147.05C70.35,-169.03 90.58,-204.27 120,-221 175.52,-252.57 248.45,-257.2 303.43,-254.84"/>
<polygon fill="orange" stroke="orange" points="63.12,-145.44 55.84,-137.74 56.73,-148.3 63.12,-145.44"/>
</a>
</g>
<text text-anchor="start" x="138.5" y="-279" font-family="Helvetica,sans-Serif" font-size="10.00" fill="grey"> &lt; wmtk::attribute::</text>
<text text-anchor="start" x="138.5" y="-268" font-family="Helvetica,sans-Serif" font-size="10.00" fill="grey">TypedAttributeHandle</text>
<text text-anchor="middle" x="191.5" y="-257" font-family="Helvetica,sans-Serif" font-size="10.00" fill="grey">&lt; char &gt; &gt;</text>
</g>
<!-- Node4 -->
<g id="Node000004" class="node">
<title>Node4</title>
<g id="a_Node000004"><a xlink:href="classwmtk_1_1hash.html" target="_top" xlink:title=" ">
<polygon fill="white" stroke="#666666" points="464.5,-207.5 303.5,-207.5 303.5,-166.5 464.5,-166.5 464.5,-207.5"/>
<text text-anchor="start" x="311.5" y="-195.5" font-family="Helvetica,sans-Serif" font-size="10.00">wmtk::hash&lt; wmtk::attribute</text>
<text text-anchor="start" x="311.5" y="-184.5" font-family="Helvetica,sans-Serif" font-size="10.00">::TypedAttributeHandle&lt;</text>
<text text-anchor="middle" x="384" y="-173.5" font-family="Helvetica,sans-Serif" font-size="10.00"> double &gt; &gt;</text>
</a>
</g>
</g>
<!-- Node1&#45;&gt;Node4 -->
<g id="edge3_Node000001_Node000004" class="edge">
<title>Node1&#45;&gt;Node4</title>
<g id="a_edge3_Node000001_Node000004"><a xlink:title=" ">
<path fill="none" stroke="orange" stroke-dasharray="5,2" d="M75.01,-142.66C87.76,-150.05 104.2,-158.4 120,-163 179.87,-180.42 250.36,-186.11 303.28,-187.61"/>
<polygon fill="orange" stroke="orange" points="76.81,-139.66 66.43,-137.52 73.21,-145.67 76.81,-139.66"/>
</a>
</g>
<text text-anchor="start" x="138.5" y="-210" font-family="Helvetica,sans-Serif" font-size="10.00" fill="grey"> &lt; wmtk::attribute::</text>
<text text-anchor="start" x="138.5" y="-199" font-family="Helvetica,sans-Serif" font-size="10.00" fill="grey">TypedAttributeHandle</text>
<text text-anchor="middle" x="191.5" y="-188" font-family="Helvetica,sans-Serif" font-size="10.00" fill="grey">&lt; double &gt; &gt;</text>
</g>
<!-- Node6 -->
<g id="Node000006" class="node">
<title>Node6</title>
<g id="a_Node000006"><a xlink:href="classwmtk_1_1hash.html" target="_top" xlink:title=" ">
<polygon fill="white" stroke="#666666" points="464.5,-148.5 303.5,-148.5 303.5,-107.5 464.5,-107.5 464.5,-148.5"/>
<text text-anchor="start" x="311.5" y="-136.5" font-family="Helvetica,sans-Serif" font-size="10.00">wmtk::hash&lt; wmtk::attribute</text>
<text text-anchor="start" x="311.5" y="-125.5" font-family="Helvetica,sans-Serif" font-size="10.00">::TypedAttributeHandle&lt;</text>
<text text-anchor="middle" x="384" y="-114.5" font-family="Helvetica,sans-Serif" font-size="10.00"> int64_t &gt; &gt;</text>
</a>
</g>
</g>
<!-- Node1&#45;&gt;Node6 -->
<g id="edge5_Node000001_Node000006" class="edge">
<title>Node1&#45;&gt;Node6</title>
<g id="a_edge5_Node000001_Node000006"><a xlink:title=" ">
<path fill="none" stroke="orange" stroke-dasharray="5,2" d="M112.3,-128C165.84,-128 244.48,-128 303.21,-128"/>
<polygon fill="orange" stroke="orange" points="112.27,-124.5 102.27,-128 112.27,-131.5 112.27,-124.5"/>
</a>
</g>
<text text-anchor="start" x="138.5" y="-153" font-family="Helvetica,sans-Serif" font-size="10.00" fill="grey"> &lt; wmtk::attribute::</text>
<text text-anchor="start" x="138.5" y="-142" font-family="Helvetica,sans-Serif" font-size="10.00" fill="grey">TypedAttributeHandle</text>
<text text-anchor="middle" x="191.5" y="-131" font-family="Helvetica,sans-Serif" font-size="10.00" fill="grey">&lt; int64_t &gt; &gt;</text>
</g>
<!-- Node8 -->
<g id="Node000008" class="node">
<title>Node8</title>
<g id="a_Node000008"><a xlink:href="classwmtk_1_1hash.html" target="_top" xlink:title=" ">
<polygon fill="white" stroke="#666666" points="464.5,-89.5 303.5,-89.5 303.5,-48.5 464.5,-48.5 464.5,-89.5"/>
<text text-anchor="start" x="311.5" y="-77.5" font-family="Helvetica,sans-Serif" font-size="10.00">wmtk::hash&lt; wmtk::attribute</text>
<text text-anchor="start" x="311.5" y="-66.5" font-family="Helvetica,sans-Serif" font-size="10.00">::TypedAttributeHandle&lt;</text>
<text text-anchor="middle" x="384" y="-55.5" font-family="Helvetica,sans-Serif" font-size="10.00"> wmtk::Rational &gt; &gt;</text>
</a>
</g>
</g>
<!-- Node1&#45;&gt;Node8 -->
<g id="edge7_Node000001_Node000008" class="edge">
<title>Node1&#45;&gt;Node8</title>
<g id="a_edge7_Node000001_Node000008"><a xlink:title=" ">
<path fill="none" stroke="orange" stroke-dasharray="5,2" d="M74.14,-112.89C86.96,-104.94 103.73,-95.87 120,-91 179.81,-73.1 250.45,-68.02 303.45,-67.18"/>
<polygon fill="orange" stroke="orange" points="72.09,-110.04 65.57,-118.39 75.88,-115.93 72.09,-110.04"/>
</a>
</g>
<text text-anchor="start" x="137" y="-116" font-family="Helvetica,sans-Serif" font-size="10.00" fill="grey"> &lt; wmtk::attribute::</text>
<text text-anchor="start" x="137" y="-105" font-family="Helvetica,sans-Serif" font-size="10.00" fill="grey">TypedAttributeHandle</text>
<text text-anchor="middle" x="191.5" y="-94" font-family="Helvetica,sans-Serif" font-size="10.00" fill="grey">&lt; wmtk::Rational &gt; &gt;</text>
</g>
<!-- Node10 -->
<g id="Node000010" class="node">
<title>Node10</title>
<g id="a_Node000010"><a xlink:href="classwmtk_1_1hash.html" target="_top" xlink:title=" ">
<polygon fill="white" stroke="#666666" points="487,-30 281,-30 281,0 487,0 487,-30"/>
<text text-anchor="start" x="289" y="-18" font-family="Helvetica,sans-Serif" font-size="10.00">wmtk::hash&lt; wmtk::attribute</text>
<text text-anchor="middle" x="384" y="-7" font-family="Helvetica,sans-Serif" font-size="10.00">::utils::HybridRationalAttribute&lt; D &gt; &gt;</text>
</a>
</g>
</g>
<!-- Node1&#45;&gt;Node10 -->
<g id="edge9_Node000001_Node000010" class="edge">
<title>Node1&#45;&gt;Node10</title>
<g id="a_edge9_Node000001_Node000010"><a xlink:title=" ">
<path fill="none" stroke="orange" stroke-dasharray="5,2" d="M59.24,-108.98C69.11,-85.99 89.18,-48.24 120,-31 168.21,-4.03 229.45,1.06 280.7,-1.1"/>
<polygon fill="orange" stroke="orange" points="55.94,-107.8 55.42,-118.38 62.43,-110.44 55.94,-107.8"/>
</a>
</g>
<text text-anchor="start" x="120" y="-56" font-family="Helvetica,sans-Serif" font-size="10.00" fill="grey"> &lt; wmtk::attribute::</text>
<text text-anchor="start" x="120" y="-45" font-family="Helvetica,sans-Serif" font-size="10.00" fill="grey">utils::HybridRationalAttribute</text>
<text text-anchor="middle" x="191.5" y="-34" font-family="Helvetica,sans-Serif" font-size="10.00" fill="grey">&lt; D &gt; &gt;</text>
</g>
<!-- Node3 -->
<g id="Node000003" class="node">
<title>Node3</title>
<g id="a_Node000003"><a xlink:href="classstd_1_1hash_3_01wmtk_1_1attribute_1_1_typed_attribute_handle_3_01char_01_4_01_4.html" target="_top" xlink:title=" ">
<polygon fill="white" stroke="#666666" points="701,-266.5 553,-266.5 553,-225.5 701,-225.5 701,-266.5"/>
<text text-anchor="start" x="561" y="-254.5" font-family="Helvetica,sans-Serif" font-size="10.00">std::hash&lt; wmtk::attribute</text>
<text text-anchor="start" x="561" y="-243.5" font-family="Helvetica,sans-Serif" font-size="10.00">::TypedAttributeHandle&lt;</text>
<text text-anchor="middle" x="627" y="-232.5" font-family="Helvetica,sans-Serif" font-size="10.00"> char &gt; &gt;</text>
</a>
</g>
</g>
<!-- Node2&#45;&gt;Node3 -->
<g id="edge2_Node000002_Node000003" class="edge">
<title>Node2&#45;&gt;Node3</title>
<g id="a_edge2_Node000002_Node000003"><a xlink:title=" ">
<path fill="none" stroke="#63b8ff" d="M474.69,-246C500.36,-246 528.04,-246 552.61,-246"/>
<polygon fill="#63b8ff" stroke="#63b8ff" points="474.58,-242.5 464.58,-246 474.58,-249.5 474.58,-242.5"/>
</a>
</g>
</g>
<!-- Node5 -->
<g id="Node000005" class="node">
<title>Node5</title>
<g id="a_Node000005"><a xlink:href="classstd_1_1hash_3_01wmtk_1_1attribute_1_1_typed_attribute_handle_3_01double_01_4_01_4.html" target="_top" xlink:title=" ">
<polygon fill="white" stroke="#666666" points="701,-207.5 553,-207.5 553,-166.5 701,-166.5 701,-207.5"/>
<text text-anchor="start" x="561" y="-195.5" font-family="Helvetica,sans-Serif" font-size="10.00">std::hash&lt; wmtk::attribute</text>
<text text-anchor="start" x="561" y="-184.5" font-family="Helvetica,sans-Serif" font-size="10.00">::TypedAttributeHandle&lt;</text>
<text text-anchor="middle" x="627" y="-173.5" font-family="Helvetica,sans-Serif" font-size="10.00"> double &gt; &gt;</text>
</a>
</g>
</g>
<!-- Node4&#45;&gt;Node5 -->
<g id="edge4_Node000004_Node000005" class="edge">
<title>Node4&#45;&gt;Node5</title>
<g id="a_edge4_Node000004_Node000005"><a xlink:title=" ">
<path fill="none" stroke="#63b8ff" d="M474.69,-187C500.36,-187 528.04,-187 552.61,-187"/>
<polygon fill="#63b8ff" stroke="#63b8ff" points="474.58,-183.5 464.58,-187 474.58,-190.5 474.58,-183.5"/>
</a>
</g>
</g>
<!-- Node7 -->
<g id="Node000007" class="node">
<title>Node7</title>
<g id="a_Node000007"><a xlink:href="classstd_1_1hash_3_01wmtk_1_1attribute_1_1_typed_attribute_handle_3_01int64__t_01_4_01_4.html" target="_top" xlink:title=" ">
<polygon fill="white" stroke="#666666" points="701,-148.5 553,-148.5 553,-107.5 701,-107.5 701,-148.5"/>
<text text-anchor="start" x="561" y="-136.5" font-family="Helvetica,sans-Serif" font-size="10.00">std::hash&lt; wmtk::attribute</text>
<text text-anchor="start" x="561" y="-125.5" font-family="Helvetica,sans-Serif" font-size="10.00">::TypedAttributeHandle&lt;</text>
<text text-anchor="middle" x="627" y="-114.5" font-family="Helvetica,sans-Serif" font-size="10.00"> int64_t &gt; &gt;</text>
</a>
</g>
</g>
<!-- Node6&#45;&gt;Node7 -->
<g id="edge6_Node000006_Node000007" class="edge">
<title>Node6&#45;&gt;Node7</title>
<g id="a_edge6_Node000006_Node000007"><a xlink:title=" ">
<path fill="none" stroke="#63b8ff" d="M474.69,-128C500.36,-128 528.04,-128 552.61,-128"/>
<polygon fill="#63b8ff" stroke="#63b8ff" points="474.58,-124.5 464.58,-128 474.58,-131.5 474.58,-124.5"/>
</a>
</g>
</g>
<!-- Node9 -->
<g id="Node000009" class="node">
<title>Node9</title>
<g id="a_Node000009"><a xlink:href="classstd_1_1hash_3_01wmtk_1_1attribute_1_1_typed_attribute_handle_3_01wmtk_1_1_rational_01_4_01_4.html" target="_top" xlink:title=" ">
<polygon fill="white" stroke="#666666" points="701,-89.5 553,-89.5 553,-48.5 701,-48.5 701,-89.5"/>
<text text-anchor="start" x="561" y="-77.5" font-family="Helvetica,sans-Serif" font-size="10.00">std::hash&lt; wmtk::attribute</text>
<text text-anchor="start" x="561" y="-66.5" font-family="Helvetica,sans-Serif" font-size="10.00">::TypedAttributeHandle&lt;</text>
<text text-anchor="middle" x="627" y="-55.5" font-family="Helvetica,sans-Serif" font-size="10.00"> wmtk::Rational &gt; &gt;</text>
</a>
</g>
</g>
<!-- Node8&#45;&gt;Node9 -->
<g id="edge8_Node000008_Node000009" class="edge">
<title>Node8&#45;&gt;Node9</title>
<g id="a_edge8_Node000008_Node000009"><a xlink:title=" ">
<path fill="none" stroke="#63b8ff" d="M474.69,-69C500.36,-69 528.04,-69 552.61,-69"/>
<polygon fill="#63b8ff" stroke="#63b8ff" points="474.58,-65.5 464.58,-69 474.58,-72.5 474.58,-65.5"/>
</a>
</g>
</g>
<!-- Node11 -->
<g id="Node000011" class="node">
<title>Node11</title>
<g id="a_Node000011"><a xlink:href="classstd_1_1hash_3_01wmtk_1_1attribute_1_1utils_1_1_hybrid_rational_attribute_3_01_d_01_4_01_4.html" target="_top" xlink:title=" ">
<polygon fill="white" stroke="#666666" points="730,-30 524,-30 524,0 730,0 730,-30"/>
<text text-anchor="start" x="532" y="-18" font-family="Helvetica,sans-Serif" font-size="10.00">std::hash&lt; wmtk::attribute</text>
<text text-anchor="middle" x="627" y="-7" font-family="Helvetica,sans-Serif" font-size="10.00">::utils::HybridRationalAttribute&lt; D &gt; &gt;</text>
</a>
</g>
</g>
<!-- Node10&#45;&gt;Node11 -->
<g id="edge10_Node000010_Node000011" class="edge">
<title>Node10&#45;&gt;Node11</title>
<g id="a_edge10_Node000010_Node000011"><a xlink:title=" ">
<path fill="none" stroke="#63b8ff" d="M497.43,-15C506.17,-15 514.97,-15 523.64,-15"/>
<polygon fill="#63b8ff" stroke="#63b8ff" points="497.21,-11.5 487.21,-15 497.21,-18.5 497.21,-11.5"/>
</a>
</g>
</g>
</g>
</svg>
