<?xml version="1.0" encoding="UTF-8" standalone="no"?>
<!DOCTYPE svg PUBLIC "-//W3C//DTD SVG 1.1//EN"
 "http://www.w3.org/Graphics/SVG/1.1/DTD/svg11.dtd">
<!-- Generated by graphviz version 2.43.0 (0)
 -->
<!-- Title: wmtk::simplex::SimplexCollection::contains Pages: 1 -->
<!--zoomable 419 -->

<svg id="main" version="1.1" xmlns="http://www.w3.org/2000/svg" xmlns:xlink="http://www.w3.org/1999/xlink" xml:space="preserve" onload="init(evt)">
<style type="text/css"><![CDATA[
.node, .edge {opacity: 0.7;}
.node.selected, .edge.selected {opacity: 1;}
.edge:hover path { stroke: red; }
.edge:hover polygon { stroke: red; fill: red; }
]]></style>

<defs>
  <circle id="rim" cx="0" cy="0" r="7"/>
  <circle id="rim2" cx="0" cy="0" r="3.5"/>
  <g id="zoomPlus">
    <use xlink:href="#rim" fill="#404040"><set attributeName="fill" to="#808080" begin="zoomplus.mouseover" end="zoomplus.mouseout"/></use>
    <path d="M-4,0h8M0,-4v8" fill="none" stroke="white" stroke-width="1.5" pointer-events="none"/>
  </g>
  <g id="zoomMin">
    <use xlink:href="#rim" fill="#404040"><set attributeName="fill" to="#808080" begin="zoomminus.mouseover" end="zoomminus.mouseout"/></use>
    <path d="M-4,0h8" fill="none" stroke="white" stroke-width="1.5" pointer-events="none"/>
  </g>
  <g id="arrowUp" transform="translate(30 24)">
    <use xlink:href="#rim"/>
    <path pointer-events="none" fill="none" stroke="white" stroke-width="1.5" d="M0,-3.0v7 M-2.5,-0.5L0,-3.0L2.5,-0.5"/>
  </g>
  <g id="arrowRight" transform="rotate(90) translate(36 -43)">
    <use xlink:href="#rim"/>
    <path pointer-events="none" fill="none" stroke="white" stroke-width="1.5" d="M0,-3.0v7 M-2.5,-0.5L0,-3.0L2.5,-0.5"/>
  </g>
  <g id="arrowDown" transform="rotate(180) translate(-30 -48)">
    <use xlink:href="#rim"/>
    <path pointer-events="none" fill="none" stroke="white" stroke-width="1.5" d="M0,-3.0v7 M-2.5,-0.5L0,-3.0L2.5,-0.5"/>
  </g>
  <g id="arrowLeft" transform="rotate(270) translate(-36 17)">
    <use xlink:href="#rim"/>
    <path pointer-events="none" fill="none" stroke="white" stroke-width="1.5" d="M0,-3.0v7 M-2.5,-0.5L0,-3.0L2.5,-0.5"/>
  </g>
  <g id="resetDef">
    <use xlink:href="#rim2" fill="#404040"><set attributeName="fill" to="#808080" begin="reset.mouseover" end="reset.mouseout"/></use>
  </g>
</defs>
<script type="application/ecmascript">
var viewWidth = 1148;
var viewHeight = 419;
var sectionId = 'dynsection-7';
</script>
<script type="application/ecmascript" xlink:href="svg.min.js"/>
<svg id="graph" class="graph">
<g id="viewport">
<title>wmtk::simplex::SimplexCollection::contains</title>
<!-- Node1 -->
<g id="Node000001" class="node">
<title>Node1</title>
<g id="a_Node000001"><a xlink:title="Check if simplex is contained in collection.">
<polygon fill="#999999" stroke="#666666" points="1140,-129 956,-129 956,-99 1140,-99 1140,-129"/>
<text text-anchor="start" x="964" y="-117" font-family="Helvetica,sans-Serif" font-size="10.00">wmtk::simplex::SimplexCollection</text>
<text text-anchor="middle" x="1048" y="-106" font-family="Helvetica,sans-Serif" font-size="10.00">::contains</text>
</a>
</g>
</g>
<!-- Node2 -->
<g id="Node000002" class="node">
<title>Node2</title>
<g id="a_Node000002"><a xlink:href="namespacewmtk_1_1simplex.html#ad3819c31e843e174b473e7b97446a93f" target="_top" xlink:title=" ">
<polygon fill="white" stroke="#666666" points="920,-209 801,-209 801,-179 920,-179 920,-209"/>
<text text-anchor="start" x="809" y="-197" font-family="Helvetica,sans-Serif" font-size="10.00">wmtk::simplex::open</text>
<text text-anchor="middle" x="860.5" y="-186" font-family="Helvetica,sans-Serif" font-size="10.00">_star_slow</text>
</a>
</g>
</g>
<!-- Node1&#45;&gt;Node2 -->
<g id="edge1_Node000001_Node000002" class="edge">
<title>Node1&#45;&gt;Node2</title>
<g id="a_edge1_Node000001_Node000002"><a xlink:title=" ">
<path fill="none" stroke="#63b8ff" d="M1004.02,-133.28C979.48,-144.21 948.09,-158.05 920,-170 913.13,-172.92 905.78,-175.99 898.7,-178.91"/>
<polygon fill="#63b8ff" stroke="#63b8ff" points="1005.7,-136.36 1013.41,-129.09 1002.85,-129.97 1005.7,-136.36"/>
</a>
</g>
</g>
<!-- Node16 -->
<g id="Node000016" class="node">
<title>Node16</title>
<g id="a_Node000016"><a xlink:href="test__component__multimesh__from__tag_8cpp.html#a2231774bf0d53fb5f6c1b34753afb255" target="_top" xlink:title=" ">
<polygon fill="white" stroke="#666666" points="896,-160.5 825,-160.5 825,-141.5 896,-141.5 896,-160.5"/>
<text text-anchor="middle" x="860.5" y="-148.5" font-family="Helvetica,sans-Serif" font-size="10.00">TEST_CASE</text>
</a>
</g>
</g>
<!-- Node1&#45;&gt;Node16 -->
<g id="edge18_Node000001_Node000016" class="edge">
<title>Node1&#45;&gt;Node16</title>
<g id="a_edge18_Node000001_Node000016"><a xlink:title=" ">
<path fill="none" stroke="#63b8ff" d="M961.7,-131.01C938.58,-135.62 914.85,-140.36 896.28,-144.06"/>
<polygon fill="#63b8ff" stroke="#63b8ff" points="962.43,-134.44 971.55,-129.05 961.06,-127.57 962.43,-134.44"/>
</a>
</g>
</g>
<!-- Node17 -->
<g id="Node000017" class="node">
<title>Node17</title>
<g id="a_Node000017"><a xlink:href="test__component__multimesh__from__tag_8cpp.html#a9a31cb828b93e2ddcf0a5063d4d1c9e6" target="_top" xlink:title=" ">
<polygon fill="white" stroke="#666666" points="896,-123.5 825,-123.5 825,-104.5 896,-104.5 896,-123.5"/>
<text text-anchor="middle" x="860.5" y="-111.5" font-family="Helvetica,sans-Serif" font-size="10.00">TEST_CASE</text>
</a>
</g>
</g>
<!-- Node1&#45;&gt;Node17 -->
<g id="edge19_Node000001_Node000017" class="edge">
<title>Node1&#45;&gt;Node17</title>
<g id="a_edge19_Node000001_Node000017"><a xlink:title=" ">
<path fill="none" stroke="#63b8ff" d="M945.43,-114C927.73,-114 910.46,-114 896.23,-114"/>
<polygon fill="#63b8ff" stroke="#63b8ff" points="945.88,-117.5 955.88,-114 945.88,-110.5 945.88,-117.5"/>
</a>
</g>
</g>
<!-- Node18 -->
<g id="Node000018" class="node">
<title>Node18</title>
<g id="a_Node000018"><a xlink:href="test__component__multimesh__from__tag_8cpp.html#a7a8f66a094907f369fa10876691f42f9" target="_top" xlink:title=" ">
<polygon fill="white" stroke="#666666" points="896,-86.5 825,-86.5 825,-67.5 896,-67.5 896,-86.5"/>
<text text-anchor="middle" x="860.5" y="-74.5" font-family="Helvetica,sans-Serif" font-size="10.00">TEST_CASE</text>
</a>
</g>
</g>
<!-- Node1&#45;&gt;Node18 -->
<g id="edge20_Node000001_Node000018" class="edge">
<title>Node1&#45;&gt;Node18</title>
<g id="a_edge20_Node000001_Node000018"><a xlink:title=" ">
<path fill="none" stroke="#63b8ff" d="M961.7,-96.99C938.58,-92.38 914.85,-87.64 896.28,-83.94"/>
<polygon fill="#63b8ff" stroke="#63b8ff" points="961.06,-100.43 971.55,-98.95 962.43,-93.56 961.06,-100.43"/>
</a>
</g>
</g>
<!-- Node19 -->
<g id="Node000019" class="node">
<title>Node19</title>
<g id="a_Node000019"><a xlink:href="test__component__multimesh__from__tag_8cpp.html#a18cd3d411cfadc472201c20662d62869" target="_top" xlink:title=" ">
<polygon fill="white" stroke="#666666" points="896,-49.5 825,-49.5 825,-30.5 896,-30.5 896,-49.5"/>
<text text-anchor="middle" x="860.5" y="-37.5" font-family="Helvetica,sans-Serif" font-size="10.00">TEST_CASE</text>
</a>
</g>
</g>
<!-- Node1&#45;&gt;Node19 -->
<g id="edge21_Node000001_Node000019" class="edge">
<title>Node1&#45;&gt;Node19</title>
<g id="a_edge21_Node000001_Node000019"><a xlink:title=" ">
<path fill="none" stroke="#63b8ff" d="M1005.08,-94.66C980.52,-83.63 948.77,-69.87 920,-59 911.21,-55.68 901.55,-52.39 892.66,-49.52"/>
<polygon fill="#63b8ff" stroke="#63b8ff" points="1003.9,-97.97 1014.46,-98.89 1006.79,-91.59 1003.9,-97.97"/>
</a>
</g>
</g>
<!-- Node3 -->
<g id="Node000003" class="node">
<title>Node3</title>
<g id="a_Node000003"><a xlink:href="namespacewmtk_1_1simplex.html#a0e571467fb4068842d9c1a38a433f1ed" target="_top" xlink:title=" ">
<polygon fill="white" stroke="#666666" points="765,-203.5 622,-203.5 622,-184.5 765,-184.5 765,-203.5"/>
<text text-anchor="middle" x="693.5" y="-191.5" font-family="Helvetica,sans-Serif" font-size="10.00">wmtk::simplex::open_star</text>
</a>
</g>
</g>
<!-- Node2&#45;&gt;Node3 -->
<g id="edge2_Node000002_Node000003" class="edge">
<title>Node2&#45;&gt;Node3</title>
<g id="a_edge2_Node000002_Node000003"><a xlink:title=" ">
<path fill="none" stroke="#63b8ff" d="M790.67,-194C782.22,-194 773.57,-194 765.09,-194"/>
<polygon fill="#63b8ff" stroke="#63b8ff" points="790.86,-197.5 800.86,-194 790.86,-190.5 790.86,-197.5"/>
</a>
</g>
</g>
<!-- Node3&#45;&gt;Node3 -->
<g id="edge13_Node000003_Node000003" class="edge">
<title>Node3&#45;&gt;Node3</title>
<g id="a_edge13_Node000003_Node000003"><a xlink:title=" ">
<path fill="none" stroke="#63b8ff" d="M724.49,-212.32C723.19,-217.51 712.86,-221.5 693.5,-221.5 664,-221.5 655.47,-212.23 667.91,-203.58"/>
<polygon fill="#63b8ff" stroke="#63b8ff" points="727.32,-210.25 719.09,-203.58 721.37,-213.93 727.32,-210.25"/>
</a>
</g>
</g>
<!-- Node4 -->
<g id="Node000004" class="node">
<title>Node4</title>
<g id="a_Node000004"><a xlink:href="classwmtk_1_1operations_1_1composite_1_1_tet_edge_swap.html#aad043bd04d267b27038ff4e824aed8e0" target="_top" xlink:title="returns an empty vector in case of failure">
<polygon fill="white" stroke="#666666" points="570,-411 411,-411 411,-381 570,-381 570,-411"/>
<text text-anchor="start" x="419" y="-399" font-family="Helvetica,sans-Serif" font-size="10.00">wmtk::operations::composite</text>
<text text-anchor="middle" x="490.5" y="-388" font-family="Helvetica,sans-Serif" font-size="10.00">::TetEdgeSwap::execute</text>
</a>
</g>
</g>
<!-- Node3&#45;&gt;Node4 -->
<g id="edge3_Node000003_Node000004" class="edge">
<title>Node3&#45;&gt;Node4</title>
<g id="a_edge3_Node000003_Node000004"><a xlink:title=" ">
<path fill="none" stroke="#63b8ff" d="M686.46,-213.47C673.98,-250.37 641.75,-330.48 586,-372 581.11,-375.64 575.73,-378.73 570.09,-381.35"/>
<polygon fill="#63b8ff" stroke="#63b8ff" points="689.94,-214.09 689.7,-203.5 683.28,-211.93 689.94,-214.09"/>
</a>
</g>
</g>
<!-- Node5 -->
<g id="Node000005" class="node">
<title>Node5</title>
<g id="a_Node000005"><a xlink:href="classwmtk_1_1_tet_mesh_1_1_tet_mesh_operation_executor.html#a86e6f877419cd3489a5b223b5b8bb094" target="_top" xlink:title="gather all simplices that are deleted in a collapse">
<polygon fill="white" stroke="#666666" points="583,-362.5 398,-362.5 398,-321.5 583,-321.5 583,-362.5"/>
<text text-anchor="start" x="406" y="-350.5" font-family="Helvetica,sans-Serif" font-size="10.00">wmtk::TetMesh::TetMeshOperation</text>
<text text-anchor="start" x="406" y="-339.5" font-family="Helvetica,sans-Serif" font-size="10.00">Executor::get_collapse_simplices</text>
<text text-anchor="middle" x="490.5" y="-328.5" font-family="Helvetica,sans-Serif" font-size="10.00">_to_delete</text>
</a>
</g>
</g>
<!-- Node3&#45;&gt;Node5 -->
<g id="edge4_Node000003_Node000005" class="edge">
<title>Node3&#45;&gt;Node5</title>
<g id="a_edge4_Node000003_Node000005"><a xlink:title=" ">
<path fill="none" stroke="#63b8ff" d="M681,-212.17C663.57,-238.25 628.01,-286.11 586,-313 581.09,-316.15 575.81,-318.97 570.35,-321.49"/>
<polygon fill="#63b8ff" stroke="#63b8ff" points="684.04,-213.91 686.58,-203.62 678.18,-210.08 684.04,-213.91"/>
</a>
</g>
</g>
<!-- Node6 -->
<g id="Node000006" class="node">
<title>Node6</title>
<g id="a_Node000006"><a xlink:href="classwmtk_1_1_tri_mesh_1_1_tri_mesh_operation_executor.html#a17977fc07ce1f6618c8dd6e5cef42e6e" target="_top" xlink:title="gather all simplices that are deleted in a collapse">
<polygon fill="white" stroke="#666666" points="580,-303.5 401,-303.5 401,-262.5 580,-262.5 580,-303.5"/>
<text text-anchor="start" x="409" y="-291.5" font-family="Helvetica,sans-Serif" font-size="10.00">wmtk::TriMesh::TriMeshOperation</text>
<text text-anchor="start" x="409" y="-280.5" font-family="Helvetica,sans-Serif" font-size="10.00">Executor::get_collapse_simplices</text>
<text text-anchor="middle" x="490.5" y="-269.5" font-family="Helvetica,sans-Serif" font-size="10.00">_to_delete</text>
</a>
</g>
</g>
<!-- Node3&#45;&gt;Node6 -->
<g id="edge5_Node000003_Node000006" class="edge">
<title>Node3&#45;&gt;Node6</title>
<g id="a_edge5_Node000003_Node000006"><a xlink:title=" ">
<path fill="none" stroke="#63b8ff" d="M669.27,-209.02C648.18,-222.19 615.9,-241.17 586,-254 578.98,-257.01 571.55,-259.85 564.06,-262.49"/>
<polygon fill="#63b8ff" stroke="#63b8ff" points="671.27,-211.9 677.85,-203.6 667.53,-205.98 671.27,-211.9"/>
</a>
</g>
</g>
<!-- Node7 -->
<g id="Node000007" class="node">
<title>Node7</title>
<g id="a_Node000007"><a xlink:href="classwmtk_1_1_tet_mesh_1_1_tet_mesh_operation_executor.html#a3e496b934eb7e07ae7abaf7b5f8b7d5d" target="_top" xlink:title="gather all simplices that are deleted in a split">
<polygon fill="white" stroke="#666666" points="583,-244.5 398,-244.5 398,-203.5 583,-203.5 583,-244.5"/>
<text text-anchor="start" x="406" y="-232.5" font-family="Helvetica,sans-Serif" font-size="10.00">wmtk::TetMesh::TetMeshOperation</text>
<text text-anchor="start" x="406" y="-221.5" font-family="Helvetica,sans-Serif" font-size="10.00">Executor::get_split_simplices</text>
<text text-anchor="middle" x="490.5" y="-210.5" font-family="Helvetica,sans-Serif" font-size="10.00">_to_delete</text>
</a>
</g>
</g>
<!-- Node3&#45;&gt;Node7 -->
<g id="edge6_Node000003_Node000007" class="edge">
<title>Node3&#45;&gt;Node7</title>
<g id="a_edge6_Node000003_Node000007"><a xlink:title=" ">
<path fill="none" stroke="#63b8ff" d="M618.62,-205.03C607.06,-206.75 595,-208.55 583.1,-210.33"/>
<polygon fill="#63b8ff" stroke="#63b8ff" points="619.25,-208.47 628.63,-203.53 618.22,-201.55 619.25,-208.47"/>
</a>
</g>
</g>
<!-- Node8 -->
<g id="Node000008" class="node">
<title>Node8</title>
<g id="a_Node000008"><a xlink:href="classwmtk_1_1_tri_mesh_1_1_tri_mesh_operation_executor.html#a10c05de7f734bc8f9aa84518512ad5c7" target="_top" xlink:title="gather all simplices that are deleted in a split">
<polygon fill="white" stroke="#666666" points="580,-185.5 401,-185.5 401,-144.5 580,-144.5 580,-185.5"/>
<text text-anchor="start" x="409" y="-173.5" font-family="Helvetica,sans-Serif" font-size="10.00">wmtk::TriMesh::TriMeshOperation</text>
<text text-anchor="start" x="409" y="-162.5" font-family="Helvetica,sans-Serif" font-size="10.00">Executor::get_split_simplices</text>
<text text-anchor="middle" x="490.5" y="-151.5" font-family="Helvetica,sans-Serif" font-size="10.00">_to_delete</text>
</a>
</g>
</g>
<!-- Node3&#45;&gt;Node8 -->
<g id="edge7_Node000003_Node000008" class="edge">
<title>Node3&#45;&gt;Node8</title>
<g id="a_edge7_Node000003_Node000008"><a xlink:title=" ">
<path fill="none" stroke="#63b8ff" d="M616.22,-182.99C604.47,-181.3 592.25,-179.54 580.25,-177.8"/>
<polygon fill="#63b8ff" stroke="#63b8ff" points="616.01,-186.5 626.41,-184.46 617.01,-179.57 616.01,-186.5"/>
</a>
</g>
</g>
<!-- Node9 -->
<g id="Node000009" class="node">
<title>Node9</title>
<g id="a_Node000009"><a xlink:href="classwmtk_1_1_tet_mesh.html#a31b2ec618edb4d478e36f0868a85d86e" target="_top" xlink:title=" ">
<polygon fill="white" stroke="#666666" points="568.5,-126 412.5,-126 412.5,-96 568.5,-96 568.5,-126"/>
<text text-anchor="start" x="420.5" y="-114" font-family="Helvetica,sans-Serif" font-size="10.00">wmtk::TetMesh::is_boundary</text>
<text text-anchor="middle" x="490.5" y="-103" font-family="Helvetica,sans-Serif" font-size="10.00">_vertex</text>
</a>
</g>
</g>
<!-- Node3&#45;&gt;Node9 -->
<g id="edge8_Node000003_Node000009" class="edge">
<title>Node3&#45;&gt;Node9</title>
<g id="a_edge8_Node000003_Node000009"><a xlink:title=" ">
<path fill="none" stroke="#63b8ff" d="M668.96,-179.03C647.89,-166.17 615.82,-147.86 586,-136 576.7,-132.3 566.66,-128.98 556.73,-126.05"/>
<polygon fill="#63b8ff" stroke="#63b8ff" points="667.2,-182.06 677.54,-184.35 670.88,-176.11 667.2,-182.06"/>
</a>
</g>
</g>
<!-- Node12 -->
<g id="Node000012" class="node">
<title>Node12</title>
<g id="a_Node000012"><a xlink:href="namespacewmtk_1_1simplex.html#aad86388bdc8c1685d7d55fad016f0ca2" target="_top" xlink:title=" ">
<polygon fill="white" stroke="#666666" points="547,-78 434,-78 434,-48 547,-48 547,-78"/>
<text text-anchor="start" x="442" y="-66" font-family="Helvetica,sans-Serif" font-size="10.00">wmtk::simplex::link</text>
<text text-anchor="middle" x="490.5" y="-55" font-family="Helvetica,sans-Serif" font-size="10.00">_condition</text>
</a>
</g>
</g>
<!-- Node3&#45;&gt;Node12 -->
<g id="edge12_Node000003_Node000012" class="edge">
<title>Node3&#45;&gt;Node12</title>
<g id="a_edge12_Node000003_Node000012"><a xlink:title=" ">
<path fill="none" stroke="#63b8ff" d="M679.68,-176.06C661.57,-152.07 626.18,-109.91 586,-87 574.24,-80.29 560.6,-75.43 547.4,-71.92"/>
<polygon fill="#63b8ff" stroke="#63b8ff" points="677,-178.32 685.75,-184.29 682.63,-174.17 677,-178.32"/>
</a>
</g>
</g>
<!-- Node13 -->
<g id="Node000013" class="node">
<title>Node13</title>
<g id="a_Node000013"><a xlink:href="classwmtk_1_1components_1_1_tag_intersection.html#a7fa5965bec539d0db6775dfd0a9177d7" target="_top" xlink:title="Check if a given simplex is in the intersection of a given set of tag attributes.">
<polygon fill="white" stroke="#666666" points="586,-30 395,-30 395,0 586,0 586,-30"/>
<text text-anchor="start" x="403" y="-18" font-family="Helvetica,sans-Serif" font-size="10.00">wmtk::components::TagIntersection</text>
<text text-anchor="middle" x="490.5" y="-7" font-family="Helvetica,sans-Serif" font-size="10.00">::simplex_is_in_intersection</text>
</a>
</g>
</g>
<!-- Node3&#45;&gt;Node13 -->
<g id="edge14_Node000003_Node000013" class="edge">
<title>Node3&#45;&gt;Node13</title>
<g id="a_edge14_Node000003_Node000013"><a xlink:title=" ">
<path fill="none" stroke="#63b8ff" d="M684.74,-174.74C670.4,-141.66 636.51,-74.21 586,-39 581.14,-35.61 575.84,-32.7 570.32,-30.2"/>
<polygon fill="#63b8ff" stroke="#63b8ff" points="681.61,-176.32 688.71,-184.19 688.07,-173.62 681.61,-176.32"/>
</a>
</g>
</g>
<!-- Node10 -->
<g id="Node000010" class="node">
<title>Node10</title>
<g id="a_Node000010"><a xlink:href="classwmtk_1_1_tet_mesh.html#aebe3bb44a6eeb9c14334e202dcaee91d" target="_top" xlink:title="returns if a simplex is on the boundary of hte mesh. For anything but dimension &#45; 1 this checks if th...">
<polygon fill="white" stroke="#666666" points="341.5,-120.5 185.5,-120.5 185.5,-101.5 341.5,-101.5 341.5,-120.5"/>
<text text-anchor="middle" x="263.5" y="-108.5" font-family="Helvetica,sans-Serif" font-size="10.00">wmtk::TetMesh::is_boundary</text>
</a>
</g>
</g>
<!-- Node9&#45;&gt;Node10 -->
<g id="edge9_Node000009_Node000010" class="edge">
<title>Node9&#45;&gt;Node10</title>
<g id="a_edge9_Node000009_Node000010"><a xlink:title=" ">
<path fill="none" stroke="#63b8ff" d="M402.33,-104.4C382.28,-104.16 361.1,-104.21 341.52,-104.56"/>
<polygon fill="#63b8ff" stroke="#63b8ff" points="402.33,-107.9 412.38,-104.56 402.44,-100.91 402.33,-107.9"/>
</a>
</g>
</g>
<!-- Node10&#45;&gt;Node9 -->
<g id="edge10_Node000010_Node000009" class="edge">
<title>Node10&#45;&gt;Node9</title>
<g id="a_edge10_Node000010_Node000009"><a xlink:title=" ">
<path fill="none" stroke="#63b8ff" d="M351.57,-117.59C371.61,-117.84 392.79,-117.79 412.38,-117.44"/>
<polygon fill="#63b8ff" stroke="#63b8ff" points="351.57,-114.09 341.52,-117.44 351.46,-121.09 351.57,-114.09"/>
</a>
</g>
</g>
<!-- Node11 -->
<g id="Node000011" class="node">
<title>Node11</title>
<g id="a_Node000011"><a xlink:href="namespacewmtk_1_1simplex.html#aead7bf4f261c58bdb33bd0bf7fcd541d" target="_top" xlink:title=" ">
<polygon fill="white" stroke="#666666" points="122.5,-126 9.5,-126 9.5,-96 122.5,-96 122.5,-126"/>
<text text-anchor="start" x="17.5" y="-114" font-family="Helvetica,sans-Serif" font-size="10.00">wmtk::simplex::link</text>
<text text-anchor="middle" x="66" y="-103" font-family="Helvetica,sans-Serif" font-size="10.00">_condition</text>
</a>
</g>
</g>
<!-- Node10&#45;&gt;Node11 -->
<g id="edge11_Node000010_Node000011" class="edge">
<title>Node10&#45;&gt;Node11</title>
<g id="a_edge11_Node000010_Node000011"><a xlink:title=" ">
<path fill="none" stroke="#63b8ff" d="M174.85,-111C157.09,-111 138.89,-111 122.61,-111"/>
<polygon fill="#63b8ff" stroke="#63b8ff" points="175.23,-114.5 185.23,-111 175.23,-107.5 175.23,-114.5"/>
</a>
</g>
</g>
<!-- Node14 -->
<g id="Node000014" class="node">
<title>Node14</title>
<g id="a_Node000014"><a xlink:href="classwmtk_1_1components_1_1_tag_intersection.html#ae5eac5ac63c3a6376c3228c26842f49e" target="_top" xlink:title=" ">
<polygon fill="white" stroke="#666666" points="359,-30 168,-30 168,0 359,0 359,-30"/>
<text text-anchor="start" x="176" y="-18" font-family="Helvetica,sans-Serif" font-size="10.00">wmtk::components::TagIntersection</text>
<text text-anchor="middle" x="263.5" y="-7" font-family="Helvetica,sans-Serif" font-size="10.00">::compute_intersection</text>
</a>
</g>
</g>
<!-- Node13&#45;&gt;Node14 -->
<g id="edge15_Node000013_Node000014" class="edge">
<title>Node13&#45;&gt;Node14</title>
<g id="a_edge15_Node000013_Node000014"><a xlink:title=" ">
<path fill="none" stroke="#63b8ff" d="M384.47,-15C376.03,-15 367.53,-15 359.16,-15"/>
<polygon fill="#63b8ff" stroke="#63b8ff" points="384.73,-18.5 394.73,-15 384.73,-11.5 384.73,-18.5"/>
</a>
</g>
</g>
<!-- Node15 -->
<g id="Node000015" class="node">
<title>Node15</title>
<g id="a_Node000015"><a xlink:href="namespacewmtk_1_1components.html#ae22ac68a5d85a281c4aeafa97f5230bc" target="_top" xlink:title=" ">
<polygon fill="white" stroke="#666666" points="132,-30 0,-30 0,0 132,0 132,-30"/>
<text text-anchor="start" x="8" y="-18" font-family="Helvetica,sans-Serif" font-size="10.00">wmtk::components::tag</text>
<text text-anchor="middle" x="66" y="-7" font-family="Helvetica,sans-Serif" font-size="10.00">_intersection</text>
</a>
</g>
</g>
<!-- Node14&#45;&gt;Node15 -->
<g id="edge16_Node000014_Node000015" class="edge">
<title>Node14&#45;&gt;Node15</title>
<g id="a_edge16_Node000014_Node000015"><a xlink:title=" ">
<path fill="none" stroke="#63b8ff" d="M157.7,-15C149.03,-15 140.44,-15 132.19,-15"/>
<polygon fill="#63b8ff" stroke="#63b8ff" points="157.9,-18.5 167.9,-15 157.9,-11.5 157.9,-18.5"/>
</a>
</g>
</g>
<!-- Node15&#45;&gt;Node15 -->
<g id="edge17_Node000015_Node000015" class="edge">
<title>Node15&#45;&gt;Node15</title>
<g id="a_edge17_Node000015_Node000015"><a xlink:title=" ">
<path fill="none" stroke="#63b8ff" d="M100.31,-40.6C95.62,-44.97 84.18,-48 66,-48 35.38,-48 23.89,-39.41 31.55,-30.28"/>
<polygon fill="#63b8ff" stroke="#63b8ff" points="103.81,-40.32 100.45,-30.28 96.81,-40.22 103.81,-40.32"/>
</a>
</g>
</g>
</g>
</svg>

<g id="navigator" transform="translate(0 0)" fill="#404254">
  <rect fill="#f2f5e9" fill-opacity="0.5" stroke="#606060" stroke-width=".5" x="0" y="0" width="60" height="60"/>
  <use id="zoomplus" xlink:href="#zoomPlus" x="17" y="9" onmousedown="handleZoom(evt,'in')"/>
  <use id="zoomminus" xlink:href="#zoomMin" x="42" y="9" onmousedown="handleZoom(evt,'out')"/>
  <use id="reset" xlink:href="#resetDef" x="30" y="36" onmousedown="handleReset()"/>
   <use id="arrowup" xlink:href="#arrowUp" x="0" y="0" onmousedown="handlePan(0,-1)"/>
  <use id="arrowright" xlink:href="#arrowRight" x="0" y="0" onmousedown="handlePan(1,0)"/>
  <use id="arrowdown" xlink:href="#arrowDown" x="0" y="0" onmousedown="handlePan(0,1)"/>
  <use id="arrowleft" xlink:href="#arrowLeft" x="0" y="0" onmousedown="handlePan(-1,0)"/>
</g>
<svg viewBox="0 0 15 15" width="100%" height="30px" preserveAspectRatio="xMaxYMin meet">
 <g id="arrow_out" transform="scale(0.3 0.3)">
  <a xlink:href="classwmtk_1_1simplex_1_1_simplex_collection_a38ace43495e709c9387d3f3a091013f5_icgraph_org.svg" target="_base">
   <rect id="button" ry="5" rx="5" y="6" x="6" height="38" width="38"
        fill="#f2f5e9" fill-opacity="0.5" stroke="#606060" stroke-width="1.0"/>
   <path id="arrow"
     d="M 11.500037,31.436501 C 11.940474,20.09759 22.043105,11.32322 32.158766,21.979434 L 37.068811,17.246167 C 37.068811,17.246167 37.088388,32 37.088388,32 L 22.160133,31.978069 C 22.160133,31.978069 26.997745,27.140456 26.997745,27.140456 C 18.528582,18.264221 13.291696,25.230495 11.500037,31.436501 z"
     style="fill:#404040;"/>
  </a>
 </g>
</svg>

<style type='text/css'>
<![CDATA[
[data-mouse-over-selected='false'] { opacity: 0.7; }
[data-mouse-over-selected='true']  { opacity: 1.0; }
]]>
</style>
<script type="application/ecmascript"><![CDATA[
document.addEventListener('DOMContentLoaded', (event) => {
  highlightEdges();
  highlightAdjacentNodes();
});
]]></script>
</svg>
