<?xml version="1.0" encoding="UTF-8" standalone="no"?>
<!DOCTYPE svg PUBLIC "-//W3C//DTD SVG 1.1//EN"
 "http://www.w3.org/Graphics/SVG/1.1/DTD/svg11.dtd">
<!-- Generated by graphviz version 2.43.0 (0)
 -->
<!-- Title: wmtk::attribute::utils::HybridRationalAttribute::register_attribute_from_double Pages: 1 -->
<svg width="563pt" height="92pt"
 viewBox="0.00 0.00 563.00 91.50" xmlns="http://www.w3.org/2000/svg" xmlns:xlink="http://www.w3.org/1999/xlink">
<g id="graph0" class="graph" transform="scale(1 1) rotate(0) translate(4 87.5)">
<title>wmtk::attribute::utils::HybridRationalAttribute::register_attribute_from_double</title>
<!-- Node1 -->
<g id="Node000001" class="node">
<title>Node1</title>
<g id="a_Node000001"><a xlink:title=" ">
<polygon fill="#999999" stroke="#666666" points="174,-59.5 0,-59.5 0,-18.5 174,-18.5 174,-59.5"/>
<text text-anchor="start" x="8" y="-47.5" font-family="Helvetica,sans-Serif" font-size="10.00">wmtk::attribute::utils</text>
<text text-anchor="start" x="8" y="-36.5" font-family="Helvetica,sans-Serif" font-size="10.00">::HybridRationalAttribute</text>
<text text-anchor="middle" x="87" y="-25.5" font-family="Helvetica,sans-Serif" font-size="10.00">::register_attribute_from_double</text>
</a>
</g>
</g>
<!-- Node2 -->
<g id="Node000002" class="node">
<title>Node2</title>
<g id="a_Node000002"><a xlink:href="classwmtk_1_1attribute_1_1utils_1_1_hybrid_rational_accessor.html#a3104cfd6b658d8312f85c25702c10dca" target="_top" xlink:title=" ">
<polygon fill="white" stroke="#666666" points="374,-78 216,-78 216,-48 374,-48 374,-78"/>
<text text-anchor="start" x="224" y="-66" font-family="Helvetica,sans-Serif" font-size="10.00">wmtk::attribute::utils</text>
<text text-anchor="middle" x="295" y="-55" font-family="Helvetica,sans-Serif" font-size="10.00">::HybridRationalAccessor::lift</text>
</a>
</g>
</g>
<!-- Node1&#45;&gt;Node2 -->
<g id="edge1_Node000001_Node000002" class="edge">
<title>Node1&#45;&gt;Node2</title>
<g id="a_edge1_Node000001_Node000002"><a xlink:title=" ">
<path fill="none" stroke="#63b8ff" d="M174.17,-49.04C184.61,-50.26 195.29,-51.5 205.77,-52.72"/>
<polygon fill="#63b8ff" stroke="#63b8ff" points="205.39,-56.2 215.73,-53.88 206.2,-49.25 205.39,-56.2"/>
</a>
</g>
</g>
<!-- Node4 -->
<g id="Node000004" class="node">
<title>Node4</title>
<g id="a_Node000004"><a xlink:href="classwmtk_1_1attribute_1_1_typed_attribute_handle.html#a07ea6bc844be27a48fde619a3578b128" target="_top" xlink:title=" ">
<polygon fill="white" stroke="#666666" points="380,-30 210,-30 210,0 380,0 380,-30"/>
<text text-anchor="start" x="218" y="-18" font-family="Helvetica,sans-Serif" font-size="10.00">wmtk::attribute::TypedAttribute</text>
<text text-anchor="middle" x="295" y="-7" font-family="Helvetica,sans-Serif" font-size="10.00">Handle::primitive_type</text>
</a>
</g>
</g>
<!-- Node1&#45;&gt;Node4 -->
<g id="edge3_Node000001_Node000004" class="edge">
<title>Node1&#45;&gt;Node4</title>
<g id="a_edge3_Node000001_Node000004"><a xlink:title=" ">
<path fill="none" stroke="#63b8ff" d="M174.17,-28.96C182.65,-27.97 191.28,-26.97 199.84,-25.97"/>
<polygon fill="#63b8ff" stroke="#63b8ff" points="200.3,-29.44 209.83,-24.81 199.49,-22.49 200.3,-29.44"/>
</a>
</g>
</g>
<!-- Node3 -->
<g id="Node000003" class="node">
<title>Node3</title>
<g id="a_Node000003"><a xlink:href="classwmtk_1_1attribute_1_1utils_1_1_hybrid_rational_accessor.html#a86757eb6cb384653aeabb17fc98df8d9" target="_top" xlink:title=" ">
<polygon fill="white" stroke="#666666" points="555,-83.5 416,-83.5 416,-42.5 555,-42.5 555,-83.5"/>
<text text-anchor="start" x="424" y="-71.5" font-family="Helvetica,sans-Serif" font-size="10.00">wmtk::attribute::utils</text>
<text text-anchor="start" x="424" y="-60.5" font-family="Helvetica,sans-Serif" font-size="10.00">::HybridRationalAccessor</text>
<text text-anchor="middle" x="485.5" y="-49.5" font-family="Helvetica,sans-Serif" font-size="10.00">::value</text>
</a>
</g>
</g>
<!-- Node2&#45;&gt;Node3 -->
<g id="edge2_Node000002_Node000003" class="edge">
<title>Node2&#45;&gt;Node3</title>
<g id="a_edge2_Node000002_Node000003"><a xlink:title=" ">
<path fill="none" stroke="#63b8ff" d="M374.03,-63C384.44,-63 395.12,-63 405.54,-63"/>
<polygon fill="#63b8ff" stroke="#63b8ff" points="405.86,-66.5 415.86,-63 405.86,-59.5 405.86,-66.5"/>
</a>
</g>
</g>
</g>
</svg>
