<?xml version="1.0" encoding="UTF-8" standalone="no"?>
<!DOCTYPE svg PUBLIC "-//W3C//DTD SVG 1.1//EN"
 "http://www.w3.org/Graphics/SVG/1.1/DTD/svg11.dtd">
<!-- Generated by graphviz version 2.43.0 (0)
 -->
<!-- Title: wmtk::TriMesh::switch_tuple Pages: 1 -->
<!--zoomable 592 -->

<svg id="main" version="1.1" xmlns="http://www.w3.org/2000/svg" xmlns:xlink="http://www.w3.org/1999/xlink" xml:space="preserve" onload="init(evt)">
<style type="text/css"><![CDATA[
.node, .edge {opacity: 0.7;}
.node.selected, .edge.selected {opacity: 1;}
.edge:hover path { stroke: red; }
.edge:hover polygon { stroke: red; fill: red; }
]]></style>

<defs>
  <circle id="rim" cx="0" cy="0" r="7"/>
  <circle id="rim2" cx="0" cy="0" r="3.5"/>
  <g id="zoomPlus">
    <use xlink:href="#rim" fill="#404040"><set attributeName="fill" to="#808080" begin="zoomplus.mouseover" end="zoomplus.mouseout"/></use>
    <path d="M-4,0h8M0,-4v8" fill="none" stroke="white" stroke-width="1.5" pointer-events="none"/>
  </g>
  <g id="zoomMin">
    <use xlink:href="#rim" fill="#404040"><set attributeName="fill" to="#808080" begin="zoomminus.mouseover" end="zoomminus.mouseout"/></use>
    <path d="M-4,0h8" fill="none" stroke="white" stroke-width="1.5" pointer-events="none"/>
  </g>
  <g id="arrowUp" transform="translate(30 24)">
    <use xlink:href="#rim"/>
    <path pointer-events="none" fill="none" stroke="white" stroke-width="1.5" d="M0,-3.0v7 M-2.5,-0.5L0,-3.0L2.5,-0.5"/>
  </g>
  <g id="arrowRight" transform="rotate(90) translate(36 -43)">
    <use xlink:href="#rim"/>
    <path pointer-events="none" fill="none" stroke="white" stroke-width="1.5" d="M0,-3.0v7 M-2.5,-0.5L0,-3.0L2.5,-0.5"/>
  </g>
  <g id="arrowDown" transform="rotate(180) translate(-30 -48)">
    <use xlink:href="#rim"/>
    <path pointer-events="none" fill="none" stroke="white" stroke-width="1.5" d="M0,-3.0v7 M-2.5,-0.5L0,-3.0L2.5,-0.5"/>
  </g>
  <g id="arrowLeft" transform="rotate(270) translate(-36 17)">
    <use xlink:href="#rim"/>
    <path pointer-events="none" fill="none" stroke="white" stroke-width="1.5" d="M0,-3.0v7 M-2.5,-0.5L0,-3.0L2.5,-0.5"/>
  </g>
  <g id="resetDef">
    <use xlink:href="#rim2" fill="#404040"><set attributeName="fill" to="#808080" begin="reset.mouseover" end="reset.mouseout"/></use>
  </g>
</defs>
<script type="application/ecmascript">
var viewWidth = 1280;
var viewHeight = 592;
var sectionId = 'dynsection-37';
</script>
<script type="application/ecmascript" xlink:href="svg.min.js"/>
<svg id="graph" class="graph">
<g id="viewport">
<title>wmtk::TriMesh::switch_tuple</title>
<!-- Node1 -->
<g id="Node000001" class="node">
<title>Node1</title>
<g id="a_Node000001"><a xlink:title="switch the orientation of the Tuple of the given dimension">
<polygon fill="#999999" stroke="#666666" points="125,-384.16 0,-384.16 0,-354.16 125,-354.16 125,-384.16"/>
<text text-anchor="start" x="8" y="-372.16" font-family="Helvetica,sans-Serif" font-size="10.00">wmtk::TriMesh::switch</text>
<text text-anchor="middle" x="62.5" y="-361.16" font-family="Helvetica,sans-Serif" font-size="10.00">_tuple</text>
</a>
</g>
</g>
<!-- Node2 -->
<g id="Node000002" class="node">
<title>Node2</title>
<g id="a_Node000002"><a xlink:href="classwmtk_1_1_tri_mesh.html#a9975c25ed665c9c9a7f1ae92818a1b7c" target="_top" xlink:title=" ">
<polygon fill="white" stroke="#666666" points="459,-435.66 356,-435.66 356,-416.66 459,-416.66 459,-435.66"/>
<text text-anchor="middle" x="407.5" y="-423.66" font-family="Helvetica,sans-Serif" font-size="10.00">wmtk::TriMesh::id</text>
</a>
</g>
</g>
<!-- Node1&#45;&gt;Node2 -->
<g id="edge1_Node000001_Node000002" class="edge">
<title>Node1&#45;&gt;Node2</title>
<g id="a_edge1_Node000001_Node000002"><a xlink:title=" ">
<path fill="none" stroke="#63b8ff" d="M96.18,-384.21C114.78,-392.1 138.75,-401.14 161,-406.16 222.85,-420.12 295.42,-424.62 345.54,-425.93"/>
<polygon fill="#63b8ff" stroke="#63b8ff" points="345.49,-429.43 355.56,-426.16 345.65,-422.43 345.49,-429.43"/>
</a>
</g>
</g>
<!-- Node6 -->
<g id="Node000006" class="node">
<title>Node6</title>
<g id="a_Node000006"><a xlink:href="classwmtk_1_1_tri_mesh.html#accbde91fccacdfdfd997e20d9ee9eb22" target="_top" xlink:title="returns if a tuple is counterclockwise or not">
<polygon fill="white" stroke="#666666" points="296.5,-397.66 170.5,-397.66 170.5,-378.66 296.5,-378.66 296.5,-397.66"/>
<text text-anchor="middle" x="233.5" y="-385.66" font-family="Helvetica,sans-Serif" font-size="10.00">wmtk::TriMesh::is_ccw</text>
</a>
</g>
</g>
<!-- Node1&#45;&gt;Node6 -->
<g id="edge6_Node000001_Node000006" class="edge">
<title>Node1&#45;&gt;Node6</title>
<g id="a_edge6_Node000001_Node000006"><a xlink:title=" ">
<path fill="none" stroke="#63b8ff" d="M125.47,-376.13C136.76,-377.4 148.64,-378.73 160.2,-380.03"/>
<polygon fill="#63b8ff" stroke="#63b8ff" points="159.93,-383.52 170.26,-381.16 160.71,-376.57 159.93,-383.52"/>
</a>
</g>
</g>
<!-- Node12 -->
<g id="Node000012" class="node">
<title>Node12</title>
<g id="a_Node000012"><a xlink:href="classwmtk_1_1_tri_mesh.html#a611704f60f24669e957325c7cb79f200" target="_top" xlink:title="check validity of tuple including its hash">
<polygon fill="white" stroke="#666666" points="473,-375.66 342,-375.66 342,-356.66 473,-356.66 473,-375.66"/>
<text text-anchor="middle" x="407.5" y="-363.66" font-family="Helvetica,sans-Serif" font-size="10.00">wmtk::TriMesh::is_valid</text>
</a>
</g>
</g>
<!-- Node1&#45;&gt;Node12 -->
<g id="edge40_Node000001_Node000012" class="edge">
<title>Node1&#45;&gt;Node12</title>
<g id="a_edge40_Node000001_Node000012"><a xlink:title=" ">
<path fill="none" stroke="#63b8ff" d="M125.22,-368.62C183.13,-368.11 269.87,-367.35 331.7,-366.81"/>
<polygon fill="#63b8ff" stroke="#63b8ff" points="331.81,-370.31 341.78,-366.73 331.75,-363.31 331.81,-370.31"/>
</a>
</g>
</g>
<!-- Node30 -->
<g id="Node000030" class="node">
<title>Node30</title>
<g id="a_Node000030"><a xlink:href="namespacewmtk_1_1autogen_1_1tri__mesh.html#a91e6b348f528d93ad6d9031bae1480da" target="_top" xlink:title=" ">
<polygon fill="white" stroke="#666666" points="306,-530.16 161,-530.16 161,-500.16 306,-500.16 306,-530.16"/>
<text text-anchor="start" x="169" y="-518.16" font-family="Helvetica,sans-Serif" font-size="10.00">wmtk::autogen::tri</text>
<text text-anchor="middle" x="233.5" y="-507.16" font-family="Helvetica,sans-Serif" font-size="10.00">_mesh::local_switch_tuple</text>
</a>
</g>
</g>
<!-- Node1&#45;&gt;Node30 -->
<g id="edge41_Node000001_Node000030" class="edge">
<title>Node1&#45;&gt;Node30</title>
<g id="a_edge41_Node000001_Node000030"><a xlink:title=" ">
<path fill="none" stroke="#63b8ff" d="M80.95,-384.23C110.93,-410.14 172.34,-463.19 207.08,-493.2"/>
<polygon fill="#63b8ff" stroke="#63b8ff" points="205.04,-496.06 214.89,-499.95 209.61,-490.76 205.04,-496.06"/>
</a>
</g>
</g>
<!-- Node3 -->
<g id="Node000003" class="node">
<title>Node3</title>
<g id="a_Node000003"><a xlink:href="classwmtk_1_1_mesh.html#a8cc8686f0688613806f43720b6db49e7" target="_top" xlink:title="check validity of tuple including its hash">
<polygon fill="white" stroke="#666666" points="652.5,-435.66 532.5,-435.66 532.5,-416.66 652.5,-416.66 652.5,-435.66"/>
<text text-anchor="middle" x="592.5" y="-423.66" font-family="Helvetica,sans-Serif" font-size="10.00">wmtk::Mesh::is_valid</text>
</a>
</g>
</g>
<!-- Node2&#45;&gt;Node3 -->
<g id="edge2_Node000002_Node000003" class="edge">
<title>Node2&#45;&gt;Node3</title>
<g id="a_edge2_Node000002_Node000003"><a xlink:title=" ">
<path fill="none" stroke="#63b8ff" d="M459.48,-426.16C478.93,-426.16 501.44,-426.16 522.3,-426.16"/>
<polygon fill="#63b8ff" stroke="#63b8ff" points="522.39,-429.66 532.39,-426.16 522.39,-422.66 522.39,-429.66"/>
</a>
</g>
</g>
<!-- Node4 -->
<g id="Node000004" class="node">
<title>Node4</title>
<g id="a_Node000004"><a xlink:href="classwmtk_1_1_tuple.html#a0023f575be92cd5ceeeaaaa3762ea06d" target="_top" xlink:title="Checks if a tuple is &quot;null&quot;. This merely implies the global index is &#45;1.">
<polygon fill="white" stroke="#666666" points="845,-506.66 732,-506.66 732,-487.66 845,-487.66 845,-506.66"/>
<text text-anchor="middle" x="788.5" y="-494.66" font-family="Helvetica,sans-Serif" font-size="10.00">wmtk::Tuple::is_null</text>
</a>
</g>
</g>
<!-- Node3&#45;&gt;Node4 -->
<g id="edge3_Node000003_Node000004" class="edge">
<title>Node3&#45;&gt;Node4</title>
<g id="a_edge3_Node000003_Node000004"><a xlink:title=" ">
<path fill="none" stroke="#63b8ff" d="M652.59,-434.93C660.71,-437.31 668.74,-440.33 676,-444.16 695.46,-454.44 692.7,-467.58 712,-478.16 716.15,-480.44 720.58,-482.45 725.13,-484.22"/>
<polygon fill="#63b8ff" stroke="#63b8ff" points="724.01,-487.53 734.6,-487.54 726.32,-480.93 724.01,-487.53"/>
</a>
</g>
</g>
<!-- Node5 -->
<g id="Node000005" class="node">
<title>Node5</title>
<g id="a_Node000005"><a xlink:href="classwmtk_1_1_mesh.html#ade176d345902d97af8c5da04aa3a095b" target="_top" xlink:title=" ">
<polygon fill="white" stroke="#666666" points="858.5,-451.66 718.5,-451.66 718.5,-432.66 858.5,-432.66 858.5,-451.66"/>
<text text-anchor="middle" x="788.5" y="-439.66" font-family="Helvetica,sans-Serif" font-size="10.00">wmtk::Mesh::is_removed</text>
</a>
</g>
</g>
<!-- Node3&#45;&gt;Node5 -->
<g id="edge4_Node000003_Node000005" class="edge">
<title>Node3&#45;&gt;Node5</title>
<g id="a_edge4_Node000003_Node000005"><a xlink:title=" ">
<path fill="none" stroke="#63b8ff" d="M652.76,-431.05C670.25,-432.49 689.67,-434.09 708.21,-435.62"/>
<polygon fill="#63b8ff" stroke="#63b8ff" points="708.14,-439.13 718.39,-436.46 708.72,-432.15 708.14,-439.13"/>
</a>
</g>
</g>
<!-- Node5&#45;&gt;Node5 -->
<g id="edge5_Node000005_Node000005" class="edge">
<title>Node5&#45;&gt;Node5</title>
<g id="a_edge5_Node000005_Node000005"><a xlink:title=" ">
<path fill="none" stroke="#63b8ff" d="M759.52,-451.74C745.43,-460.39 755.09,-469.66 788.5,-469.66 811.47,-469.66 823.22,-465.28 823.73,-459.73"/>
<polygon fill="#63b8ff" stroke="#63b8ff" points="826.4,-457.46 817.48,-451.74 820.89,-461.77 826.4,-457.46"/>
</a>
</g>
</g>
<!-- Node7 -->
<g id="Node000007" class="node">
<title>Node7</title>
<g id="a_Node000007"><a xlink:href="namespacewmtk_1_1autogen_1_1tri__mesh.html#aaab85f5120a223c29bae0881cd7f2c87" target="_top" xlink:title=" ">
<polygon fill="white" stroke="#666666" points="461,-489.16 354,-489.16 354,-459.16 461,-459.16 461,-489.16"/>
<text text-anchor="start" x="362" y="-477.16" font-family="Helvetica,sans-Serif" font-size="10.00">wmtk::autogen::tri</text>
<text text-anchor="middle" x="407.5" y="-466.16" font-family="Helvetica,sans-Serif" font-size="10.00">_mesh::is_ccw</text>
</a>
</g>
</g>
<!-- Node6&#45;&gt;Node7 -->
<g id="edge7_Node000006_Node000007" class="edge">
<title>Node6&#45;&gt;Node7</title>
<g id="a_edge7_Node000006_Node000007"><a xlink:title=" ">
<path fill="none" stroke="#63b8ff" d="M252.25,-397.72C273.47,-409.07 310.1,-428.44 342,-444.16 349.09,-447.65 356.66,-451.27 364.04,-454.74"/>
<polygon fill="#63b8ff" stroke="#63b8ff" points="362.68,-457.97 373.22,-459.03 365.64,-451.63 362.68,-457.97"/>
</a>
</g>
</g>
<!-- Node6&#45;&gt;Node12 -->
<g id="edge14_Node000006_Node000012" class="edge">
<title>Node6&#45;&gt;Node12</title>
<g id="a_edge14_Node000006_Node000012"><a xlink:title=" ">
<path fill="none" stroke="#63b8ff" d="M296.6,-380.22C307.98,-378.76 319.98,-377.23 331.69,-375.73"/>
<polygon fill="#63b8ff" stroke="#63b8ff" points="332.41,-379.16 341.89,-374.42 331.52,-372.22 332.41,-379.16"/>
</a>
</g>
</g>
<!-- Node8 -->
<g id="Node000008" class="node">
<title>Node8</title>
<g id="a_Node000008"><a xlink:href="namespacewmtk_1_1autogen_1_1tri__mesh.html#a1c9b651c47ee993e160a8dca570cf35c" target="_top" xlink:title=" ">
<polygon fill="white" stroke="#666666" points="849.5,-565.66 727.5,-565.66 727.5,-524.66 849.5,-524.66 849.5,-565.66"/>
<text text-anchor="start" x="735.5" y="-553.66" font-family="Helvetica,sans-Serif" font-size="10.00">wmtk::autogen::tri</text>
<text text-anchor="start" x="735.5" y="-542.66" font-family="Helvetica,sans-Serif" font-size="10.00">_mesh::local_id_table</text>
<text text-anchor="middle" x="788.5" y="-531.66" font-family="Helvetica,sans-Serif" font-size="10.00">_offset</text>
</a>
</g>
</g>
<!-- Node7&#45;&gt;Node8 -->
<g id="edge8_Node000007_Node000008" class="edge">
<title>Node7&#45;&gt;Node8</title>
<g id="a_edge8_Node000007_Node000008"><a xlink:title=" ">
<path fill="none" stroke="#63b8ff" d="M455.72,-489.17C472.43,-494.11 491.44,-499.32 509,-503.16 579.15,-518.5 660.47,-530.06 717.05,-537.13"/>
<polygon fill="#63b8ff" stroke="#63b8ff" points="716.97,-540.65 727.32,-538.4 717.83,-533.7 716.97,-540.65"/>
</a>
</g>
</g>
<!-- Node11 -->
<g id="Node000011" class="node">
<title>Node11</title>
<g id="a_Node000011"><a xlink:href="namespacewmtk_1_1autogen_1_1tri__mesh.html#a786155d6d2270c482ffd6a96d3211867" target="_top" xlink:title=" ">
<polygon fill="white" stroke="#666666" points="653.5,-494.66 531.5,-494.66 531.5,-453.66 653.5,-453.66 653.5,-494.66"/>
<text text-anchor="start" x="539.5" y="-482.66" font-family="Helvetica,sans-Serif" font-size="10.00">wmtk::autogen::tri</text>
<text text-anchor="start" x="539.5" y="-471.66" font-family="Helvetica,sans-Serif" font-size="10.00">_mesh::tuple_is_valid</text>
<text text-anchor="middle" x="592.5" y="-460.66" font-family="Helvetica,sans-Serif" font-size="10.00">_for_ccw</text>
</a>
</g>
</g>
<!-- Node7&#45;&gt;Node11 -->
<g id="edge11_Node000007_Node000011" class="edge">
<title>Node7&#45;&gt;Node11</title>
<g id="a_edge11_Node000007_Node000011"><a xlink:title=" ">
<path fill="none" stroke="#63b8ff" d="M461.43,-474.16C480.04,-474.16 501.25,-474.16 521.07,-474.16"/>
<polygon fill="#63b8ff" stroke="#63b8ff" points="521.28,-477.66 531.28,-474.16 521.28,-470.66 521.28,-477.66"/>
</a>
</g>
</g>
<!-- Node9 -->
<g id="Node000009" class="node">
<title>Node9</title>
<g id="a_Node000009"><a xlink:href="classwmtk_1_1utils_1_1_tuple_inspector.html#a3a04acf16e0eff80ade8e0fb8753ac1b" target="_top" xlink:title=" ">
<polygon fill="white" stroke="#666666" points="1051.5,-584.16 903.5,-584.16 903.5,-554.16 1051.5,-554.16 1051.5,-584.16"/>
<text text-anchor="start" x="911.5" y="-572.16" font-family="Helvetica,sans-Serif" font-size="10.00">wmtk::utils::TupleInspector</text>
<text text-anchor="middle" x="977.5" y="-561.16" font-family="Helvetica,sans-Serif" font-size="10.00">::local_eid</text>
</a>
</g>
</g>
<!-- Node8&#45;&gt;Node9 -->
<g id="edge9_Node000008_Node000009" class="edge">
<title>Node8&#45;&gt;Node9</title>
<g id="a_edge9_Node000008_Node000009"><a xlink:title=" ">
<path fill="none" stroke="#63b8ff" d="M849.7,-552.89C863.58,-554.67 878.58,-556.59 893.25,-558.48"/>
<polygon fill="#63b8ff" stroke="#63b8ff" points="892.97,-561.97 903.33,-559.77 893.86,-555.02 892.97,-561.97"/>
</a>
</g>
</g>
<!-- Node10 -->
<g id="Node000010" class="node">
<title>Node10</title>
<g id="a_Node000010"><a xlink:href="classwmtk_1_1utils_1_1_tuple_inspector.html#a92f5faa08a7f78424f5cd1ec79dcedbb" target="_top" xlink:title=" ">
<polygon fill="white" stroke="#666666" points="1051.5,-536.16 903.5,-536.16 903.5,-506.16 1051.5,-506.16 1051.5,-536.16"/>
<text text-anchor="start" x="911.5" y="-524.16" font-family="Helvetica,sans-Serif" font-size="10.00">wmtk::utils::TupleInspector</text>
<text text-anchor="middle" x="977.5" y="-513.16" font-family="Helvetica,sans-Serif" font-size="10.00">::local_vid</text>
</a>
</g>
</g>
<!-- Node8&#45;&gt;Node10 -->
<g id="edge10_Node000008_Node000010" class="edge">
<title>Node8&#45;&gt;Node10</title>
<g id="a_edge10_Node000008_Node000010"><a xlink:title=" ">
<path fill="none" stroke="#63b8ff" d="M849.7,-537.43C863.58,-535.65 878.58,-533.73 893.25,-531.84"/>
<polygon fill="#63b8ff" stroke="#63b8ff" points="893.86,-535.3 903.33,-530.55 892.97,-528.35 893.86,-535.3"/>
</a>
</g>
</g>
<!-- Node11&#45;&gt;Node4 -->
<g id="edge12_Node000011_Node000004" class="edge">
<title>Node11&#45;&gt;Node4</title>
<g id="a_edge12_Node000011_Node000004"><a xlink:title=" ">
<path fill="none" stroke="#63b8ff" d="M653.55,-481.28C675.17,-483.84 699.66,-486.75 721.74,-489.36"/>
<polygon fill="#63b8ff" stroke="#63b8ff" points="721.35,-492.84 731.7,-490.54 722.18,-485.89 721.35,-492.84"/>
</a>
</g>
</g>
<!-- Node11&#45;&gt;Node8 -->
<g id="edge13_Node000011_Node000008" class="edge">
<title>Node11&#45;&gt;Node8</title>
<g id="a_edge13_Node000011_Node000008"><a xlink:title=" ">
<path fill="none" stroke="#63b8ff" d="M649.61,-494.7C672.14,-502.94 698.26,-512.5 721.67,-521.07"/>
<polygon fill="#63b8ff" stroke="#63b8ff" points="720.58,-524.4 731.18,-524.55 722.99,-517.82 720.58,-524.4"/>
</a>
</g>
</g>
<!-- Node12&#45;&gt;Node3 -->
<g id="edge37_Node000012_Node000003" class="edge">
<title>Node12&#45;&gt;Node3</title>
<g id="a_edge37_Node000012_Node000003"><a xlink:title=" ">
<path fill="none" stroke="#63b8ff" d="M437.5,-375.67C468.59,-385.86 518.14,-402.11 552.6,-413.41"/>
<polygon fill="#63b8ff" stroke="#63b8ff" points="551.74,-416.81 562.34,-416.6 553.92,-410.16 551.74,-416.81"/>
</a>
</g>
</g>
<!-- Node12&#45;&gt;Node11 -->
<g id="edge39_Node000012_Node000011" class="edge">
<title>Node12&#45;&gt;Node11</title>
<g id="a_edge39_Node000012_Node000011"><a xlink:title=" ">
<path fill="none" stroke="#63b8ff" d="M425.94,-375.75C439.36,-383.48 458.07,-395.02 473,-407.16 490.8,-421.63 489.73,-431.7 509,-444.16 513.1,-446.81 517.47,-449.27 521.98,-451.54"/>
<polygon fill="#63b8ff" stroke="#63b8ff" points="520.83,-454.87 531.37,-455.95 523.8,-448.53 520.83,-454.87"/>
</a>
</g>
</g>
<!-- Node13 -->
<g id="Node000013" class="node">
<title>Node13</title>
<g id="a_Node000013"><a xlink:href="classwmtk_1_1_tri_mesh.html#a6375662ccb85d7c8868b3c76d708bae5" target="_top" xlink:title=" ">
<polygon fill="white" stroke="#666666" points="676,-263.16 509,-263.16 509,-233.16 676,-233.16 676,-263.16"/>
<text text-anchor="start" x="517" y="-251.16" font-family="Helvetica,sans-Serif" font-size="10.00">wmtk::TriMesh::is_connectivity</text>
<text text-anchor="middle" x="592.5" y="-240.16" font-family="Helvetica,sans-Serif" font-size="10.00">_valid</text>
</a>
</g>
</g>
<!-- Node12&#45;&gt;Node13 -->
<g id="edge15_Node000012_Node000013" class="edge">
<title>Node12&#45;&gt;Node13</title>
<g id="a_edge15_Node000012_Node000013"><a xlink:title=" ">
<path fill="none" stroke="#63b8ff" d="M423.48,-356.5C453.08,-337.42 519.66,-294.48 559.55,-268.76"/>
<polygon fill="#63b8ff" stroke="#63b8ff" points="561.6,-271.6 568.11,-263.24 557.81,-265.72 561.6,-271.6"/>
</a>
</g>
</g>
<!-- Node28 -->
<g id="Node000028" class="node">
<title>Node28</title>
<g id="a_Node000028"><a xlink:href="namespacewmtk.html#a6a35f11c12436093d26fdd8be6fecc06" target="_top" xlink:title="Retrieves the current logger.">
<polygon fill="white" stroke="#666666" points="829,-86.66 748,-86.66 748,-67.66 829,-67.66 829,-86.66"/>
<text text-anchor="middle" x="788.5" y="-74.66" font-family="Helvetica,sans-Serif" font-size="10.00">wmtk::logger</text>
</a>
</g>
</g>
<!-- Node12&#45;&gt;Node28 -->
<g id="edge38_Node000012_Node000028" class="edge">
<title>Node12&#45;&gt;Node28</title>
<g id="a_edge38_Node000012_Node000028"><a xlink:title=" ">
<path fill="none" stroke="#63b8ff" d="M413.54,-356.58C426.68,-332.22 464.14,-266.84 509,-224.16 586.45,-150.48 613.54,-136.79 712,-95.16 720.21,-91.69 729.21,-88.81 738.05,-86.45"/>
<polygon fill="#63b8ff" stroke="#63b8ff" points="739.05,-89.81 747.91,-84 737.36,-83.01 739.05,-89.81"/>
</a>
</g>
</g>
<!-- Node14 -->
<g id="Node000014" class="node">
<title>Node14</title>
<g id="a_Node000014"><a xlink:href="classwmtk_1_1_mesh.html#a3e8ff83c4a5526a40d18bb9883c6c6c9" target="_top" xlink:title="read in the m_capacities return the upper bound for the number of entities of the given dimension">
<polygon fill="white" stroke="#666666" points="1039.5,-461.66 915.5,-461.66 915.5,-442.66 1039.5,-442.66 1039.5,-461.66"/>
<text text-anchor="middle" x="977.5" y="-449.66" font-family="Helvetica,sans-Serif" font-size="10.00">wmtk::Mesh::capacity</text>
</a>
</g>
</g>
<!-- Node13&#45;&gt;Node14 -->
<g id="edge16_Node000013_Node000014" class="edge">
<title>Node13&#45;&gt;Node14</title>
<g id="a_edge16_Node000013_Node000014"><a xlink:title=" ">
<path fill="none" stroke="#63b8ff" d="M608.92,-263.41C630.56,-284.24 671.84,-321.89 712,-347.16 790.12,-396.3 813.9,-402.66 901,-433.16 908.1,-435.64 915.67,-437.95 923.19,-440.03"/>
<polygon fill="#63b8ff" stroke="#63b8ff" points="922.42,-443.44 932.98,-442.63 924.22,-436.68 922.42,-443.44"/>
</a>
</g>
</g>
<!-- Node16 -->
<g id="Node000016" class="node">
<title>Node16</title>
<g id="a_Node000016"><a xlink:href="classwmtk_1_1attribute_1_1_caching_accessor.html#a196b6b32e2495b971113d552be7f45d9" target="_top" xlink:title=" ">
<polygon fill="white" stroke="#666666" points="857,-241.66 720,-241.66 720,-200.66 857,-200.66 857,-241.66"/>
<text text-anchor="start" x="728" y="-229.66" font-family="Helvetica,sans-Serif" font-size="10.00">wmtk::attribute::Caching</text>
<text text-anchor="start" x="728" y="-218.66" font-family="Helvetica,sans-Serif" font-size="10.00">Accessor::const_scalar</text>
<text text-anchor="middle" x="788.5" y="-207.66" font-family="Helvetica,sans-Serif" font-size="10.00">_attribute</text>
</a>
</g>
</g>
<!-- Node13&#45;&gt;Node16 -->
<g id="edge18_Node000013_Node000016" class="edge">
<title>Node13&#45;&gt;Node16</title>
<g id="a_edge18_Node000013_Node000016"><a xlink:title=" ">
<path fill="none" stroke="#63b8ff" d="M676.05,-236.67C687.27,-235.11 698.74,-233.51 709.86,-231.96"/>
<polygon fill="#63b8ff" stroke="#63b8ff" points="710.54,-235.4 719.96,-230.56 709.57,-228.47 710.54,-235.4"/>
</a>
</g>
</g>
<!-- Node17 -->
<g id="Node000017" class="node">
<title>Node17</title>
<g id="a_Node000017"><a xlink:href="classwmtk_1_1attribute_1_1_caching_accessor.html#ab850fe07669c7bc92ca6cf6e86c60ee0" target="_top" xlink:title=" ">
<polygon fill="white" stroke="#666666" points="857,-182.66 720,-182.66 720,-141.66 857,-141.66 857,-182.66"/>
<text text-anchor="start" x="728" y="-170.66" font-family="Helvetica,sans-Serif" font-size="10.00">wmtk::attribute::Caching</text>
<text text-anchor="start" x="728" y="-159.66" font-family="Helvetica,sans-Serif" font-size="10.00">Accessor::const_vector</text>
<text text-anchor="middle" x="788.5" y="-148.66" font-family="Helvetica,sans-Serif" font-size="10.00">_attribute</text>
</a>
</g>
</g>
<!-- Node13&#45;&gt;Node17 -->
<g id="edge19_Node000013_Node000017" class="edge">
<title>Node13&#45;&gt;Node17</title>
<g id="a_edge19_Node000013_Node000017"><a xlink:title=" ">
<path fill="none" stroke="#63b8ff" d="M623.38,-232.95C647.16,-221.05 681.4,-204.37 712,-191.16 715.6,-189.61 719.3,-188.05 723.06,-186.5"/>
<polygon fill="#63b8ff" stroke="#63b8ff" points="724.49,-189.7 732.44,-182.71 721.86,-183.21 724.49,-189.7"/>
</a>
</g>
</g>
<!-- Node18 -->
<g id="Node000018" class="node">
<title>Node18</title>
<g id="a_Node000018"><a xlink:href="classwmtk_1_1_mesh.html#ae0e8f71e9e17a90be9423117efcc4c81" target="_top" xlink:title=" ">
<polygon fill="white" stroke="#666666" points="849.5,-338.16 727.5,-338.16 727.5,-308.16 849.5,-308.16 849.5,-338.16"/>
<text text-anchor="start" x="735.5" y="-326.16" font-family="Helvetica,sans-Serif" font-size="10.00">wmtk::Mesh::get_flag</text>
<text text-anchor="middle" x="788.5" y="-315.16" font-family="Helvetica,sans-Serif" font-size="10.00">_accessor</text>
</a>
</g>
</g>
<!-- Node13&#45;&gt;Node18 -->
<g id="edge20_Node000013_Node000018" class="edge">
<title>Node13&#45;&gt;Node18</title>
<g id="a_edge20_Node000013_Node000018"><a xlink:title=" ">
<path fill="none" stroke="#63b8ff" d="M626.09,-263.22C649.7,-273.87 682.52,-288.16 712,-299.16 717.15,-301.08 722.54,-302.99 727.96,-304.84"/>
<polygon fill="#63b8ff" stroke="#63b8ff" points="727.12,-308.25 737.71,-308.1 729.34,-301.61 727.12,-308.25"/>
</a>
</g>
</g>
<!-- Node21 -->
<g id="Node000021" class="node">
<title>Node21</title>
<g id="a_Node000021"><a xlink:href="classwmtk_1_1attribute_1_1_accessor.html#a2d587e12c47a6d839ab80e9198cf75b5" target="_top" xlink:title=" ">
<polygon fill="white" stroke="#666666" points="859.5,-290.16 717.5,-290.16 717.5,-260.16 859.5,-260.16 859.5,-290.16"/>
<text text-anchor="start" x="725.5" y="-278.16" font-family="Helvetica,sans-Serif" font-size="10.00">wmtk::attribute::Accessor</text>
<text text-anchor="middle" x="788.5" y="-267.16" font-family="Helvetica,sans-Serif" font-size="10.00">::index_access</text>
</a>
</g>
</g>
<!-- Node13&#45;&gt;Node21 -->
<g id="edge24_Node000013_Node000021" class="edge">
<title>Node13&#45;&gt;Node21</title>
<g id="a_edge24_Node000013_Node000021"><a xlink:title=" ">
<path fill="none" stroke="#63b8ff" d="M676.05,-259.65C686.34,-261.08 696.85,-262.54 707.1,-263.97"/>
<polygon fill="#63b8ff" stroke="#63b8ff" points="706.87,-267.47 717.26,-265.38 707.83,-260.54 706.87,-267.47"/>
</a>
</g>
</g>
<!-- Node23 -->
<g id="Node000023" class="node">
<title>Node23</title>
<g id="a_Node000023"><a xlink:href="classwmtk_1_1_tri_mesh.html#a2e568aaaffd6e68904c5cecd8256ed93" target="_top" xlink:title="returns if a simplex is on the boundary of hte mesh. For anything but dimension &#45; 1 this checks if th...">
<polygon fill="white" stroke="#666666" points="865,-123.66 712,-123.66 712,-104.66 865,-104.66 865,-123.66"/>
<text text-anchor="middle" x="788.5" y="-111.66" font-family="Helvetica,sans-Serif" font-size="10.00">wmtk::TriMesh::is_boundary</text>
</a>
</g>
</g>
<!-- Node13&#45;&gt;Node23 -->
<g id="edge26_Node000013_Node000023" class="edge">
<title>Node13&#45;&gt;Node23</title>
<g id="a_edge26_Node000013_Node000023"><a xlink:title=" ">
<path fill="none" stroke="#63b8ff" d="M609.79,-232.89C626.55,-217.09 653.33,-191.65 676,-169.16 692.29,-153 692.05,-143.49 712,-132.16 715.08,-130.41 718.33,-128.83 721.67,-127.4"/>
<polygon fill="#63b8ff" stroke="#63b8ff" points="723.17,-130.58 731.29,-123.77 720.7,-124.03 723.17,-130.58"/>
</a>
</g>
</g>
<!-- Node13&#45;&gt;Node28 -->
<g id="edge35_Node000013_Node000028" class="edge">
<title>Node13&#45;&gt;Node28</title>
<g id="a_edge35_Node000013_Node000028"><a xlink:title=" ">
<path fill="none" stroke="#63b8ff" d="M612.74,-233.14C630.79,-218.33 657.66,-194.32 676,-169.16 697.55,-139.61 683.47,-118.04 712,-95.16 719.49,-89.15 728.66,-85.09 737.99,-82.37"/>
<polygon fill="#63b8ff" stroke="#63b8ff" points="738.84,-85.76 747.71,-79.98 737.17,-78.97 738.84,-85.76"/>
</a>
</g>
</g>
<!-- Node15 -->
<g id="Node000015" class="node">
<title>Node15</title>
<g id="a_Node000015"><a xlink:href="namespacewmtk.html#a5cf45c152e856196bb734c6f48919a24" target="_top" xlink:title="Get a unique integer id corresponding to each primitive type.">
<polygon fill="white" stroke="#666666" points="1239,-467.16 1123,-467.16 1123,-437.16 1239,-437.16 1239,-467.16"/>
<text text-anchor="start" x="1131" y="-455.16" font-family="Helvetica,sans-Serif" font-size="10.00">wmtk::get_primitive</text>
<text text-anchor="middle" x="1181" y="-444.16" font-family="Helvetica,sans-Serif" font-size="10.00">_type_id</text>
</a>
</g>
</g>
<!-- Node14&#45;&gt;Node15 -->
<g id="edge17_Node000014_Node000015" class="edge">
<title>Node14&#45;&gt;Node15</title>
<g id="a_edge17_Node000014_Node000015"><a xlink:title=" ">
<path fill="none" stroke="#63b8ff" d="M1039.5,-452.16C1062.61,-452.16 1089.04,-452.16 1112.69,-452.16"/>
<polygon fill="#63b8ff" stroke="#63b8ff" points="1112.99,-455.66 1122.99,-452.16 1112.99,-448.66 1112.99,-455.66"/>
</a>
</g>
</g>
<!-- Node19 -->
<g id="Node000019" class="node">
<title>Node19</title>
<g id="a_Node000019"><a xlink:href="classwmtk_1_1_mesh.html#a6dbab927a2ee85f77a87f075fd5c1d94" target="_top" xlink:title=" ">
<polygon fill="white" stroke="#666666" points="1042.5,-424.16 912.5,-424.16 912.5,-394.16 1042.5,-394.16 1042.5,-424.16"/>
<text text-anchor="start" x="920.5" y="-412.16" font-family="Helvetica,sans-Serif" font-size="10.00">wmtk::Mesh::get_const</text>
<text text-anchor="middle" x="977.5" y="-401.16" font-family="Helvetica,sans-Serif" font-size="10.00">_flag_accessor</text>
</a>
</g>
</g>
<!-- Node18&#45;&gt;Node19 -->
<g id="edge21_Node000018_Node000019" class="edge">
<title>Node18&#45;&gt;Node19</title>
<g id="a_edge21_Node000018_Node000019"><a xlink:title=" ">
<path fill="none" stroke="#63b8ff" d="M822.5,-338.34C853.75,-352.71 900.78,-374.34 934.65,-389.91"/>
<polygon fill="#63b8ff" stroke="#63b8ff" points="933.28,-393.14 943.83,-394.13 936.21,-386.78 933.28,-393.14"/>
</a>
</g>
</g>
<!-- Node19&#45;&gt;Node15 -->
<g id="edge23_Node000019_Node000015" class="edge">
<title>Node19&#45;&gt;Node15</title>
<g id="a_edge23_Node000019_Node000015"><a xlink:title=" ">
<path fill="none" stroke="#63b8ff" d="M1042.53,-422.82C1065.02,-427.62 1090.33,-433.02 1113.05,-437.87"/>
<polygon fill="#63b8ff" stroke="#63b8ff" points="1112.44,-441.32 1122.95,-439.98 1113.9,-434.47 1112.44,-441.32"/>
</a>
</g>
</g>
<!-- Node20 -->
<g id="Node000020" class="node">
<title>Node20</title>
<g id="a_Node000020"><a xlink:href="classwmtk_1_1_mesh.html#a357182137d99f1e4a7ff536eadfc0e56" target="_top" xlink:title=" ">
<polygon fill="white" stroke="#666666" points="1237.5,-419.16 1124.5,-419.16 1124.5,-389.16 1237.5,-389.16 1237.5,-419.16"/>
<text text-anchor="start" x="1132.5" y="-407.16" font-family="Helvetica,sans-Serif" font-size="10.00">wmtk::Mesh::create</text>
<text text-anchor="middle" x="1181" y="-396.16" font-family="Helvetica,sans-Serif" font-size="10.00">_const_accessor</text>
</a>
</g>
</g>
<!-- Node19&#45;&gt;Node20 -->
<g id="edge22_Node000019_Node000020" class="edge">
<title>Node19&#45;&gt;Node20</title>
<g id="a_edge22_Node000019_Node000020"><a xlink:title=" ">
<path fill="none" stroke="#63b8ff" d="M1042.53,-407.57C1065.42,-407 1091.24,-406.36 1114.27,-405.79"/>
<polygon fill="#63b8ff" stroke="#63b8ff" points="1114.38,-409.29 1124.29,-405.54 1114.2,-402.29 1114.38,-409.29"/>
</a>
</g>
</g>
<!-- Node22 -->
<g id="Node000022" class="node">
<title>Node22</title>
<g id="a_Node000022"><a xlink:href="classwmtk_1_1attribute_1_1_accessor.html#afd97a48ec5d1db975a030428df81f617" target="_top" xlink:title=" ">
<polygon fill="white" stroke="#666666" points="1048.5,-290.16 906.5,-290.16 906.5,-260.16 1048.5,-260.16 1048.5,-290.16"/>
<text text-anchor="start" x="914.5" y="-278.16" font-family="Helvetica,sans-Serif" font-size="10.00">wmtk::attribute::Accessor</text>
<text text-anchor="middle" x="977.5" y="-267.16" font-family="Helvetica,sans-Serif" font-size="10.00">::caching_base_type</text>
</a>
</g>
</g>
<!-- Node21&#45;&gt;Node22 -->
<g id="edge25_Node000021_Node000022" class="edge">
<title>Node21&#45;&gt;Node22</title>
<g id="a_edge25_Node000021_Node000022"><a xlink:title=" ">
<path fill="none" stroke="#63b8ff" d="M859.66,-275.16C871.57,-275.16 884.01,-275.16 896.15,-275.16"/>
<polygon fill="#63b8ff" stroke="#63b8ff" points="896.25,-278.66 906.25,-275.16 896.25,-271.66 896.25,-278.66"/>
</a>
</g>
</g>
<!-- Node24 -->
<g id="Node000024" class="node">
<title>Node24</title>
<g id="a_Node000024"><a xlink:href="classwmtk_1_1_tri_mesh.html#ac603f7969b10c674eb00e007a507a530" target="_top" xlink:title=" ">
<polygon fill="white" stroke="#666666" points="1272,-172.66 1090,-172.66 1090,-153.66 1272,-153.66 1272,-172.66"/>
<text text-anchor="middle" x="1181" y="-160.66" font-family="Helvetica,sans-Serif" font-size="10.00">wmtk::TriMesh::is_boundary_edge</text>
</a>
</g>
</g>
<!-- Node23&#45;&gt;Node24 -->
<g id="edge27_Node000023_Node000024" class="edge">
<title>Node23&#45;&gt;Node24</title>
<g id="a_edge27_Node000023_Node000024"><a xlink:title=" ">
<path fill="none" stroke="#63b8ff" d="M832.39,-123.7C843.09,-126.26 854.5,-129.17 865,-132.16 881.22,-136.79 884.45,-140.89 901,-144.16 959.51,-155.71 1026.1,-160.55 1079.55,-162.46"/>
<polygon fill="#63b8ff" stroke="#63b8ff" points="1079.61,-165.96 1089.72,-162.79 1079.84,-158.97 1079.61,-165.96"/>
</a>
</g>
</g>
<!-- Node25 -->
<g id="Node000025" class="node">
<title>Node25</title>
<g id="a_Node000025"><a xlink:href="classwmtk_1_1_tri_mesh.html#a1d5d124897281d6a649098213173fdb5" target="_top" xlink:title=" ">
<polygon fill="white" stroke="#666666" points="1054,-135.16 901,-135.16 901,-105.16 1054,-105.16 1054,-135.16"/>
<text text-anchor="start" x="909" y="-123.16" font-family="Helvetica,sans-Serif" font-size="10.00">wmtk::TriMesh::is_boundary</text>
<text text-anchor="middle" x="977.5" y="-112.16" font-family="Helvetica,sans-Serif" font-size="10.00">_vertex</text>
</a>
</g>
</g>
<!-- Node23&#45;&gt;Node25 -->
<g id="edge29_Node000023_Node000025" class="edge">
<title>Node23&#45;&gt;Node25</title>
<g id="a_edge29_Node000023_Node000025"><a xlink:title=" ">
<path fill="none" stroke="#63b8ff" d="M865.02,-116.58C873.47,-116.85 882.13,-117.13 890.7,-117.41"/>
<polygon fill="#63b8ff" stroke="#63b8ff" points="890.59,-120.9 900.7,-117.73 890.81,-113.91 890.59,-120.9"/>
</a>
</g>
</g>
<!-- Node24&#45;&gt;Node12 -->
<g id="edge28_Node000024_Node000012" class="edge">
<title>Node24&#45;&gt;Node12</title>
<g id="a_edge28_Node000024_Node000012"><a xlink:title=" ">
<path fill="none" stroke="#63b8ff" d="M1173.98,-172.82C1157.85,-197.87 1111,-265.29 1054,-299.16 870.29,-408.32 604.47,-392.51 479.05,-376.98"/>
<polygon fill="#63b8ff" stroke="#63b8ff" points="479.17,-373.47 468.81,-375.68 478.29,-380.41 479.17,-373.47"/>
</a>
</g>
</g>
<!-- Node25&#45;&gt;Node24 -->
<g id="edge30_Node000025_Node000024" class="edge">
<title>Node25&#45;&gt;Node24</title>
<g id="a_edge30_Node000025_Node000024"><a xlink:title=" ">
<path fill="none" stroke="#63b8ff" d="M1048.97,-135.2C1074.1,-140.56 1101.99,-146.51 1125.56,-151.54"/>
<polygon fill="#63b8ff" stroke="#63b8ff" points="1124.87,-154.97 1135.38,-153.64 1126.33,-148.13 1124.87,-154.97"/>
</a>
</g>
</g>
<!-- Node26 -->
<g id="Node000026" class="node">
<title>Node26</title>
<g id="a_Node000026"><a xlink:href="classwmtk_1_1_tri_mesh.html#a79010f8baac63245558c846aafea10d0" target="_top" xlink:title=" ">
<polygon fill="white" stroke="#666666" points="1258.5,-88.66 1103.5,-88.66 1103.5,-69.66 1258.5,-69.66 1258.5,-88.66"/>
<text text-anchor="middle" x="1181" y="-76.66" font-family="Helvetica,sans-Serif" font-size="10.00">wmtk::TriMesh::switch_edge</text>
</a>
</g>
</g>
<!-- Node25&#45;&gt;Node26 -->
<g id="edge31_Node000025_Node000026" class="edge">
<title>Node25&#45;&gt;Node26</title>
<g id="a_edge31_Node000025_Node000026"><a xlink:title=" ">
<path fill="none" stroke="#63b8ff" d="M1052.39,-105.13C1075.76,-100.37 1101.22,-95.19 1123.21,-90.72"/>
<polygon fill="#63b8ff" stroke="#63b8ff" points="1123.94,-94.14 1133.04,-88.71 1122.55,-87.28 1123.94,-94.14"/>
</a>
</g>
</g>
<!-- Node27 -->
<g id="Node000027" class="node">
<title>Node27</title>
<g id="a_Node000027"><a xlink:href="classwmtk_1_1_tri_mesh.html#a0ecb0fd199e840ff9f3d206abc10a64b" target="_top" xlink:title=" ">
<polygon fill="white" stroke="#666666" points="1257,-51.66 1105,-51.66 1105,-32.66 1257,-32.66 1257,-51.66"/>
<text text-anchor="middle" x="1181" y="-39.66" font-family="Helvetica,sans-Serif" font-size="10.00">wmtk::TriMesh::switch_face</text>
</a>
</g>
</g>
<!-- Node25&#45;&gt;Node27 -->
<g id="edge33_Node000025_Node000027" class="edge">
<title>Node25&#45;&gt;Node27</title>
<g id="a_edge33_Node000025_Node000027"><a xlink:title=" ">
<path fill="none" stroke="#63b8ff" d="M1033.83,-105.09C1040.84,-102.25 1047.74,-98.96 1054,-95.16 1073.08,-83.58 1070.25,-70.55 1090,-60.16 1093.55,-58.29 1097.27,-56.62 1101.09,-55.12"/>
<polygon fill="#63b8ff" stroke="#63b8ff" points="1102.48,-58.34 1110.77,-51.73 1100.17,-51.73 1102.48,-58.34"/>
</a>
</g>
</g>
<!-- Node26&#45;&gt;Node1 -->
<g id="edge32_Node000026_Node000001" class="edge">
<title>Node26&#45;&gt;Node1</title>
<g id="a_edge32_Node000026_Node000001"><a xlink:title=" ">
<path fill="none" stroke="#63b8ff" d="M1129.57,-69.65C1106.59,-65.6 1078.99,-61.13 1054,-58.16 936.97,-44.23 907.36,-39.16 789.5,-39.16 406.5,-39.16 406.5,-39.16 406.5,-39.16 230.14,-39.16 109.45,-268.51 74.17,-344.81"/>
<polygon fill="#63b8ff" stroke="#63b8ff" points="70.89,-343.57 69.94,-354.12 77.27,-346.47 70.89,-343.57"/>
</a>
</g>
</g>
<!-- Node27&#45;&gt;Node1 -->
<g id="edge34_Node000027_Node000001" class="edge">
<title>Node27&#45;&gt;Node1</title>
<g id="a_edge34_Node000027_Node000001"><a xlink:title=" ">
<path fill="none" stroke="#63b8ff" d="M1124.58,-32.65C1049.06,-20.54 909.48,-1.16 789.5,-1.16 406.5,-1.16 406.5,-1.16 406.5,-1.16 293.85,-1.16 242.94,13.14 161,-64.16 79.71,-140.85 65.96,-285.19 63.81,-343.63"/>
<polygon fill="#63b8ff" stroke="#63b8ff" points="60.31,-343.72 63.52,-353.82 67.3,-343.92 60.31,-343.72"/>
</a>
</g>
</g>
<!-- Node29 -->
<g id="Node000029" class="node">
<title>Node29</title>
<g id="a_Node000029"><a xlink:href="namespacewmtk.html#a3daa7951a5f8b78cf4600dc047fcc180" target="_top" xlink:title="Setup a logger object to be used by WildmeshToolkit.">
<polygon fill="white" stroke="#666666" points="1028,-86.66 927,-86.66 927,-67.66 1028,-67.66 1028,-86.66"/>
<text text-anchor="middle" x="977.5" y="-74.66" font-family="Helvetica,sans-Serif" font-size="10.00">wmtk::set_logger</text>
</a>
</g>
</g>
<!-- Node28&#45;&gt;Node29 -->
<g id="edge36_Node000028_Node000029" class="edge">
<title>Node28&#45;&gt;Node29</title>
<g id="a_edge36_Node000028_Node000029"><a xlink:title=" ">
<path fill="none" stroke="#63b8ff" d="M829.16,-77.16C854.56,-77.16 888,-77.16 916.6,-77.16"/>
<polygon fill="#63b8ff" stroke="#63b8ff" points="916.89,-80.66 926.89,-77.16 916.89,-73.66 916.89,-80.66"/>
</a>
</g>
</g>
<!-- Node30&#45;&gt;Node8 -->
<g id="edge42_Node000030_Node000008" class="edge">
<title>Node30&#45;&gt;Node8</title>
<g id="a_edge42_Node000030_Node000008"><a xlink:title=" ">
<path fill="none" stroke="#63b8ff" d="M306.15,-519.9C361.53,-523.48 440.11,-528.42 509,-532.16 579.87,-536.01 660.92,-539.71 717.24,-542.18"/>
<polygon fill="#63b8ff" stroke="#63b8ff" points="717.31,-545.68 727.46,-542.62 717.62,-538.69 717.31,-545.68"/>
</a>
</g>
</g>
</g>
</svg>

<g id="navigator" transform="translate(0 0)" fill="#404254">
  <rect fill="#f2f5e9" fill-opacity="0.5" stroke="#606060" stroke-width=".5" x="0" y="0" width="60" height="60"/>
  <use id="zoomplus" xlink:href="#zoomPlus" x="17" y="9" onmousedown="handleZoom(evt,'in')"/>
  <use id="zoomminus" xlink:href="#zoomMin" x="42" y="9" onmousedown="handleZoom(evt,'out')"/>
  <use id="reset" xlink:href="#resetDef" x="30" y="36" onmousedown="handleReset()"/>
   <use id="arrowup" xlink:href="#arrowUp" x="0" y="0" onmousedown="handlePan(0,-1)"/>
  <use id="arrowright" xlink:href="#arrowRight" x="0" y="0" onmousedown="handlePan(1,0)"/>
  <use id="arrowdown" xlink:href="#arrowDown" x="0" y="0" onmousedown="handlePan(0,1)"/>
  <use id="arrowleft" xlink:href="#arrowLeft" x="0" y="0" onmousedown="handlePan(-1,0)"/>
</g>
<svg viewBox="0 0 15 15" width="100%" height="30px" preserveAspectRatio="xMaxYMin meet">
 <g id="arrow_out" transform="scale(0.3 0.3)">
  <a xlink:href="classwmtk_1_1_tri_mesh_a17b808a46d1a31efc12d555e6721bd02_cgraph_org.svg" target="_base">
   <rect id="button" ry="5" rx="5" y="6" x="6" height="38" width="38"
        fill="#f2f5e9" fill-opacity="0.5" stroke="#606060" stroke-width="1.0"/>
   <path id="arrow"
     d="M 11.500037,31.436501 C 11.940474,20.09759 22.043105,11.32322 32.158766,21.979434 L 37.068811,17.246167 C 37.068811,17.246167 37.088388,32 37.088388,32 L 22.160133,31.978069 C 22.160133,31.978069 26.997745,27.140456 26.997745,27.140456 C 18.528582,18.264221 13.291696,25.230495 11.500037,31.436501 z"
     style="fill:#404040;"/>
  </a>
 </g>
</svg>

<style type='text/css'>
<![CDATA[
[data-mouse-over-selected='false'] { opacity: 0.7; }
[data-mouse-over-selected='true']  { opacity: 1.0; }
]]>
</style>
<script type="application/ecmascript"><![CDATA[
document.addEventListener('DOMContentLoaded', (event) => {
  highlightEdges();
  highlightAdjacentNodes();
});
]]></script>
</svg>
