<?xml version="1.0" encoding="UTF-8" standalone="no"?>
<!DOCTYPE svg PUBLIC "-//W3C//DTD SVG 1.1//EN"
 "http://www.w3.org/Graphics/SVG/1.1/DTD/svg11.dtd">
<!-- Generated by graphviz version 2.43.0 (0)
 -->
<!-- Title: wmtk::attribute::Accessor&lt; T, MeshType, Dim &gt; Pages: 1 -->
<!--zoomable 230 -->

<svg id="main" version="1.1" xmlns="http://www.w3.org/2000/svg" xmlns:xlink="http://www.w3.org/1999/xlink" xml:space="preserve" onload="init(evt)">
<style type="text/css"><![CDATA[
.node, .edge {opacity: 0.7;}
.node.selected, .edge.selected {opacity: 1;}
.edge:hover path { stroke: red; }
.edge:hover polygon { stroke: red; fill: red; }
]]></style>

<defs>
  <circle id="rim" cx="0" cy="0" r="7"/>
  <circle id="rim2" cx="0" cy="0" r="3.5"/>
  <g id="zoomPlus">
    <use xlink:href="#rim" fill="#404040"><set attributeName="fill" to="#808080" begin="zoomplus.mouseover" end="zoomplus.mouseout"/></use>
    <path d="M-4,0h8M0,-4v8" fill="none" stroke="white" stroke-width="1.5" pointer-events="none"/>
  </g>
  <g id="zoomMin">
    <use xlink:href="#rim" fill="#404040"><set attributeName="fill" to="#808080" begin="zoomminus.mouseover" end="zoomminus.mouseout"/></use>
    <path d="M-4,0h8" fill="none" stroke="white" stroke-width="1.5" pointer-events="none"/>
  </g>
  <g id="arrowUp" transform="translate(30 24)">
    <use xlink:href="#rim"/>
    <path pointer-events="none" fill="none" stroke="white" stroke-width="1.5" d="M0,-3.0v7 M-2.5,-0.5L0,-3.0L2.5,-0.5"/>
  </g>
  <g id="arrowRight" transform="rotate(90) translate(36 -43)">
    <use xlink:href="#rim"/>
    <path pointer-events="none" fill="none" stroke="white" stroke-width="1.5" d="M0,-3.0v7 M-2.5,-0.5L0,-3.0L2.5,-0.5"/>
  </g>
  <g id="arrowDown" transform="rotate(180) translate(-30 -48)">
    <use xlink:href="#rim"/>
    <path pointer-events="none" fill="none" stroke="white" stroke-width="1.5" d="M0,-3.0v7 M-2.5,-0.5L0,-3.0L2.5,-0.5"/>
  </g>
  <g id="arrowLeft" transform="rotate(270) translate(-36 17)">
    <use xlink:href="#rim"/>
    <path pointer-events="none" fill="none" stroke="white" stroke-width="1.5" d="M0,-3.0v7 M-2.5,-0.5L0,-3.0L2.5,-0.5"/>
  </g>
  <g id="resetDef">
    <use xlink:href="#rim2" fill="#404040"><set attributeName="fill" to="#808080" begin="reset.mouseover" end="reset.mouseout"/></use>
  </g>
</defs>
<script type="application/ecmascript">
var viewWidth = 852;
var viewHeight = 230;
var sectionId = 'dynsection-0';
</script>
<script type="application/ecmascript" xlink:href="svg.min.js"/>
<svg id="graph" class="graph">
<g id="viewport">
<title>wmtk::attribute::Accessor&lt; T, MeshType, Dim &gt;</title>
<!-- Node1 -->
<g id="Node000001" class="node">
<title>Node1</title>
<g id="a_Node000001"><a xlink:title="A CachingAccessor that uses tuples for accessing attributes instead of indices.">
<polygon fill="#999999" stroke="#666666" points="495,-126 353,-126 353,-96 495,-96 495,-126"/>
<text text-anchor="start" x="361" y="-114" font-family="Helvetica,sans-Serif" font-size="10.00">wmtk::attribute::Accessor</text>
<text text-anchor="middle" x="424" y="-103" font-family="Helvetica,sans-Serif" font-size="10.00">&lt; T, MeshType, Dim &gt;</text>
</a>
</g>
</g>
<!-- Node4 -->
<g id="Node000004" class="node">
<title>Node4</title>
<g id="a_Node000004"><a xlink:href="classwmtk_1_1attribute_1_1_accessor.html" target="_top" xlink:title=" ">
<polygon fill="white" stroke="#666666" points="844,-222 681,-222 681,-192 844,-192 844,-222"/>
<text text-anchor="start" x="689" y="-210" font-family="Helvetica,sans-Serif" font-size="10.00">wmtk::attribute::Accessor</text>
<text text-anchor="middle" x="762.5" y="-199" font-family="Helvetica,sans-Serif" font-size="10.00">&lt; int64_t, wmtk::EdgeMesh &gt;</text>
</a>
</g>
</g>
<!-- Node1&#45;&gt;Node4 -->
<g id="edge3_Node000001_Node000004" class="edge">
<title>Node1&#45;&gt;Node4</title>
<g id="a_edge3_Node000001_Node000004"><a xlink:title=" ">
<path fill="none" stroke="orange" stroke-dasharray="5,2" d="M455.4,-131.63C471.81,-141.89 492.8,-153.63 513,-161 567.2,-180.78 631.29,-192.37 680.8,-198.98"/>
<polygon fill="orange" stroke="orange" points="457.1,-128.56 446.79,-126.12 453.33,-134.46 457.1,-128.56"/>
</a>
</g>
<text text-anchor="middle" x="588" y="-198" font-family="Helvetica,sans-Serif" font-size="10.00" fill="grey"> &lt; int64_t, wmtk::EdgeMesh &gt;</text>
</g>
<!-- Node5 -->
<g id="Node000005" class="node">
<title>Node5</title>
<g id="a_Node000005"><a xlink:href="classwmtk_1_1attribute_1_1_accessor.html" target="_top" xlink:title=" ">
<polygon fill="white" stroke="#666666" points="839,-174 686,-174 686,-144 839,-144 839,-174"/>
<text text-anchor="start" x="694" y="-162" font-family="Helvetica,sans-Serif" font-size="10.00">wmtk::attribute::Accessor</text>
<text text-anchor="middle" x="762.5" y="-151" font-family="Helvetica,sans-Serif" font-size="10.00">&lt; int64_t, wmtk::TetMesh &gt;</text>
</a>
</g>
</g>
<!-- Node1&#45;&gt;Node5 -->
<g id="edge4_Node000001_Node000005" class="edge">
<title>Node1&#45;&gt;Node5</title>
<g id="a_edge4_Node000001_Node000005"><a xlink:title=" ">
<path fill="none" stroke="orange" stroke-dasharray="5,2" d="M504.97,-124.76C507.68,-125.19 510.36,-125.6 513,-126 570.87,-134.77 636.53,-143.44 685.82,-149.68"/>
<polygon fill="orange" stroke="orange" points="505.52,-121.3 495.09,-123.19 504.42,-128.22 505.52,-121.3"/>
</a>
</g>
<text text-anchor="middle" x="588" y="-149" font-family="Helvetica,sans-Serif" font-size="10.00" fill="grey"> &lt; int64_t, wmtk::TetMesh &gt;</text>
</g>
<!-- Node6 -->
<g id="Node000006" class="node">
<title>Node6</title>
<g id="a_Node000006"><a xlink:href="classwmtk_1_1attribute_1_1_accessor.html" target="_top" xlink:title=" ">
<polygon fill="white" stroke="#666666" points="837.5,-126 687.5,-126 687.5,-96 837.5,-96 837.5,-126"/>
<text text-anchor="start" x="695.5" y="-114" font-family="Helvetica,sans-Serif" font-size="10.00">wmtk::attribute::Accessor</text>
<text text-anchor="middle" x="762.5" y="-103" font-family="Helvetica,sans-Serif" font-size="10.00">&lt; int64_t, wmtk::TriMesh &gt;</text>
</a>
</g>
</g>
<!-- Node1&#45;&gt;Node6 -->
<g id="edge5_Node000001_Node000006" class="edge">
<title>Node1&#45;&gt;Node6</title>
<g id="a_edge5_Node000001_Node000006"><a xlink:title=" ">
<path fill="none" stroke="orange" stroke-dasharray="5,2" d="M505.24,-111C560.53,-111 633.46,-111 687.38,-111"/>
<polygon fill="orange" stroke="orange" points="505.13,-107.5 495.13,-111 505.13,-114.5 505.13,-107.5"/>
</a>
</g>
<text text-anchor="middle" x="588" y="-114" font-family="Helvetica,sans-Serif" font-size="10.00" fill="grey"> &lt; int64_t, wmtk::TriMesh &gt;</text>
</g>
<!-- Node7 -->
<g id="Node000007" class="node">
<title>Node7</title>
<g id="a_Node000007"><a xlink:href="classwmtk_1_1attribute_1_1_accessor.html" target="_top" xlink:title=" ">
<polygon fill="white" stroke="#666666" points="833.5,-78 691.5,-78 691.5,-48 833.5,-48 833.5,-78"/>
<text text-anchor="start" x="699.5" y="-66" font-family="Helvetica,sans-Serif" font-size="10.00">wmtk::attribute::Accessor</text>
<text text-anchor="middle" x="762.5" y="-55" font-family="Helvetica,sans-Serif" font-size="10.00">&lt; int64_t, MeshType &gt;</text>
</a>
</g>
</g>
<!-- Node1&#45;&gt;Node7 -->
<g id="edge6_Node000001_Node000007" class="edge">
<title>Node1&#45;&gt;Node7</title>
<g id="a_edge6_Node000001_Node000007"><a xlink:title=" ">
<path fill="none" stroke="orange" stroke-dasharray="5,2" d="M504.97,-97.24C507.68,-96.81 510.36,-96.4 513,-96 573.03,-86.9 641.42,-77.92 691.24,-71.63"/>
<polygon fill="orange" stroke="orange" points="504.42,-93.78 495.09,-98.81 505.52,-100.7 504.42,-93.78"/>
</a>
</g>
<text text-anchor="middle" x="588" y="-99" font-family="Helvetica,sans-Serif" font-size="10.00" fill="grey"> &lt; int64_t, MeshType &gt;</text>
</g>
<!-- Node8 -->
<g id="Node000008" class="node">
<title>Node8</title>
<g id="a_Node000008"><a xlink:href="classwmtk_1_1attribute_1_1_accessor.html" target="_top" xlink:title=" ">
<polygon fill="white" stroke="#666666" points="833.5,-30 691.5,-30 691.5,0 833.5,0 833.5,-30"/>
<text text-anchor="start" x="699.5" y="-18" font-family="Helvetica,sans-Serif" font-size="10.00">wmtk::attribute::Accessor</text>
<text text-anchor="middle" x="762.5" y="-7" font-family="Helvetica,sans-Serif" font-size="10.00">&lt; int64_t &gt;</text>
</a>
</g>
</g>
<!-- Node1&#45;&gt;Node8 -->
<g id="edge7_Node000001_Node000008" class="edge">
<title>Node1&#45;&gt;Node8</title>
<g id="a_edge7_Node000001_Node000008"><a xlink:title=" ">
<path fill="none" stroke="orange" stroke-dasharray="5,2" d="M455.4,-90.37C471.81,-80.11 492.8,-68.37 513,-61 571.12,-39.79 640.6,-27.99 691.3,-21.67"/>
<polygon fill="orange" stroke="orange" points="453.33,-87.54 446.79,-95.88 457.1,-93.44 453.33,-87.54"/>
</a>
</g>
<text text-anchor="middle" x="588" y="-64" font-family="Helvetica,sans-Serif" font-size="10.00" fill="grey"> &lt; int64_t &gt;</text>
</g>
<!-- Node2 -->
<g id="Node000002" class="node">
<title>Node2</title>
<g id="a_Node000002"><a xlink:href="classwmtk_1_1attribute_1_1_caching_accessor.html" target="_top" xlink:title="An accessor for cached attribute values.">
<polygon fill="white" stroke="#666666" points="316,-126 179,-126 179,-96 316,-96 316,-126"/>
<text text-anchor="start" x="187" y="-114" font-family="Helvetica,sans-Serif" font-size="10.00">wmtk::attribute::Caching</text>
<text text-anchor="middle" x="247.5" y="-103" font-family="Helvetica,sans-Serif" font-size="10.00">Accessor&lt; T, Dim &gt;</text>
</a>
</g>
</g>
<!-- Node2&#45;&gt;Node1 -->
<g id="edge1_Node000001_Node000002" class="edge">
<title>Node2&#45;&gt;Node1</title>
<g id="a_edge1_Node000001_Node000002"><a xlink:title=" ">
<path fill="none" stroke="darkgreen" d="M326.66,-111C335.41,-111 344.28,-111 352.92,-111"/>
<polygon fill="darkgreen" stroke="darkgreen" points="326.47,-107.5 316.47,-111 326.47,-114.5 326.47,-107.5"/>
</a>
</g>
</g>
<!-- Node3 -->
<g id="Node000003" class="node">
<title>Node3</title>
<g id="a_Node000003"><a xlink:href="classwmtk_1_1attribute_1_1_accessor_base.html" target="_top" xlink:title=" ">
<polygon fill="white" stroke="#666666" points="142,-126 0,-126 0,-96 142,-96 142,-126"/>
<text text-anchor="start" x="8" y="-114" font-family="Helvetica,sans-Serif" font-size="10.00">wmtk::attribute::Accessor</text>
<text text-anchor="middle" x="71" y="-103" font-family="Helvetica,sans-Serif" font-size="10.00">Base&lt; _T, Dim &gt;</text>
</a>
</g>
</g>
<!-- Node3&#45;&gt;Node2 -->
<g id="edge2_Node000002_Node000003" class="edge">
<title>Node3&#45;&gt;Node2</title>
<g id="a_edge2_Node000002_Node000003"><a xlink:title=" ">
<path fill="none" stroke="#63b8ff" d="M152.25,-111C161.18,-111 170.22,-111 178.97,-111"/>
<polygon fill="#63b8ff" stroke="#63b8ff" points="152.22,-107.5 142.22,-111 152.22,-114.5 152.22,-107.5"/>
</a>
</g>
</g>
</g>
</svg>

<g id="navigator" transform="translate(0 0)" fill="#404254">
  <rect fill="#f2f5e9" fill-opacity="0.5" stroke="#606060" stroke-width=".5" x="0" y="0" width="60" height="60"/>
  <use id="zoomplus" xlink:href="#zoomPlus" x="17" y="9" onmousedown="handleZoom(evt,'in')"/>
  <use id="zoomminus" xlink:href="#zoomMin" x="42" y="9" onmousedown="handleZoom(evt,'out')"/>
  <use id="reset" xlink:href="#resetDef" x="30" y="36" onmousedown="handleReset()"/>
   <use id="arrowup" xlink:href="#arrowUp" x="0" y="0" onmousedown="handlePan(0,-1)"/>
  <use id="arrowright" xlink:href="#arrowRight" x="0" y="0" onmousedown="handlePan(1,0)"/>
  <use id="arrowdown" xlink:href="#arrowDown" x="0" y="0" onmousedown="handlePan(0,1)"/>
  <use id="arrowleft" xlink:href="#arrowLeft" x="0" y="0" onmousedown="handlePan(-1,0)"/>
</g>
<svg viewBox="0 0 15 15" width="100%" height="30px" preserveAspectRatio="xMaxYMin meet">
 <g id="arrow_out" transform="scale(0.3 0.3)">
  <a xlink:href="classwmtk_1_1attribute_1_1_accessor__inherit__graph_org.svg" target="_base">
   <rect id="button" ry="5" rx="5" y="6" x="6" height="38" width="38"
        fill="#f2f5e9" fill-opacity="0.5" stroke="#606060" stroke-width="1.0"/>
   <path id="arrow"
     d="M 11.500037,31.436501 C 11.940474,20.09759 22.043105,11.32322 32.158766,21.979434 L 37.068811,17.246167 C 37.068811,17.246167 37.088388,32 37.088388,32 L 22.160133,31.978069 C 22.160133,31.978069 26.997745,27.140456 26.997745,27.140456 C 18.528582,18.264221 13.291696,25.230495 11.500037,31.436501 z"
     style="fill:#404040;"/>
  </a>
 </g>
</svg>

<style type='text/css'>
<![CDATA[
[data-mouse-over-selected='false'] { opacity: 0.7; }
[data-mouse-over-selected='true']  { opacity: 1.0; }
]]>
</style>
<script type="application/ecmascript"><![CDATA[
document.addEventListener('DOMContentLoaded', (event) => {
  highlightEdges();
  highlightAdjacentNodes();
});
]]></script>
</svg>
