<?xml version="1.0" encoding="UTF-8" standalone="no"?>
<!DOCTYPE svg PUBLIC "-//W3C//DTD SVG 1.1//EN"
 "http://www.w3.org/Graphics/SVG/1.1/DTD/svg11.dtd">
<!-- Generated by graphviz version 2.43.0 (0)
 -->
<!-- Title: wmtk::multimesh::MultiMeshManager::update_map_tuple_hashes Pages: 1 -->
<svg width="979pt" height="777pt"
 viewBox="0.00 0.00 979.00 777.00" xmlns="http://www.w3.org/2000/svg" xmlns:xlink="http://www.w3.org/1999/xlink">
<g id="graph0" class="graph" transform="scale(1 1) rotate(0) translate(4 773)">
<title>wmtk::multimesh::MultiMeshManager::update_map_tuple_hashes</title>
<!-- Node1 -->
<g id="Node000001" class="node">
<title>Node1</title>
<g id="a_Node000001"><a xlink:title=" ">
<polygon fill="#999999" stroke="#666666" points="196,-395 0,-395 0,-365 196,-365 196,-395"/>
<text text-anchor="start" x="8" y="-383" font-family="Helvetica,sans-Serif" font-size="10.00">wmtk::multimesh::MultiMesh</text>
<text text-anchor="middle" x="98" y="-372" font-family="Helvetica,sans-Serif" font-size="10.00">Manager::update_map_tuple_hashes</text>
</a>
</g>
</g>
<!-- Node2 -->
<g id="Node000002" class="node">
<title>Node2</title>
<g id="a_Node000002"><a xlink:href="classwmtk_1_1multimesh_1_1_multi_mesh_manager.html#ac9820a22f79db746b715952e4af9244f" target="_top" xlink:title=" ">
<polygon fill="white" stroke="#666666" points="392.5,-769 232.5,-769 232.5,-739 392.5,-739 392.5,-769"/>
<text text-anchor="start" x="240.5" y="-757" font-family="Helvetica,sans-Serif" font-size="10.00">wmtk::multimesh::MultiMesh</text>
<text text-anchor="middle" x="312.5" y="-746" font-family="Helvetica,sans-Serif" font-size="10.00">Manager::children</text>
</a>
</g>
</g>
<!-- Node1&#45;&gt;Node2 -->
<g id="edge1_Node000001_Node000002" class="edge">
<title>Node1&#45;&gt;Node2</title>
<g id="a_edge1_Node000001_Node000002"><a xlink:title=" ">
<path fill="none" stroke="#63b8ff" d="M100.44,-395.15C106.28,-448.2 132.84,-627.63 232,-725 235.42,-728.36 239.27,-731.34 243.37,-733.97"/>
<polygon fill="#63b8ff" stroke="#63b8ff" points="241.67,-737.03 252.09,-738.91 245.12,-730.94 241.67,-737.03"/>
</a>
</g>
</g>
<!-- Node3 -->
<g id="Node000003" class="node">
<title>Node3</title>
<g id="a_Node000003"><a xlink:href="classwmtk_1_1multimesh_1_1_multi_mesh_manager.html#acdb4b40cd46568fbd0b325c63c7b9287" target="_top" xlink:title=" ">
<polygon fill="white" stroke="#666666" points="791,-683 629,-683 629,-653 791,-653 791,-683"/>
<text text-anchor="start" x="637" y="-671" font-family="Helvetica,sans-Serif" font-size="10.00">wmtk::multimesh::MultiMesh</text>
<text text-anchor="middle" x="710" y="-660" font-family="Helvetica,sans-Serif" font-size="10.00">Manager::find_tuple_from_gid</text>
</a>
</g>
</g>
<!-- Node1&#45;&gt;Node3 -->
<g id="edge2_Node000001_Node000003" class="edge">
<title>Node1&#45;&gt;Node3</title>
<g id="a_edge2_Node000001_Node000003"><a xlink:title=" ">
<path fill="none" stroke="#63b8ff" d="M104.35,-395.04C118.67,-433.03 161.62,-533.42 232,-584 346.48,-666.28 515.62,-676.82 618.71,-674.29"/>
<polygon fill="#63b8ff" stroke="#63b8ff" points="618.89,-677.78 628.78,-673.99 618.68,-670.79 618.89,-677.78"/>
</a>
</g>
</g>
<!-- Node4 -->
<g id="Node000004" class="node">
<title>Node4</title>
<g id="a_Node000004"><a xlink:href="classwmtk_1_1multimesh_1_1_multi_mesh_manager.html#a7b04e1919f12786a201f5dbffa5a290f" target="_top" xlink:title=" ">
<polygon fill="white" stroke="#666666" points="392.5,-526 232.5,-526 232.5,-496 392.5,-496 392.5,-526"/>
<text text-anchor="start" x="240.5" y="-514" font-family="Helvetica,sans-Serif" font-size="10.00">wmtk::multimesh::MultiMesh</text>
<text text-anchor="middle" x="312.5" y="-503" font-family="Helvetica,sans-Serif" font-size="10.00">Manager::find_valid_tuple</text>
</a>
</g>
</g>
<!-- Node1&#45;&gt;Node4 -->
<g id="edge3_Node000001_Node000004" class="edge">
<title>Node1&#45;&gt;Node4</title>
<g id="a_edge3_Node000001_Node000004"><a xlink:title=" ">
<path fill="none" stroke="#63b8ff" d="M123.38,-395.03C161.54,-418.56 235.47,-464.13 278.41,-490.6"/>
<polygon fill="#63b8ff" stroke="#63b8ff" points="276.73,-493.68 287.08,-495.95 280.41,-487.72 276.73,-493.68"/>
</a>
</g>
</g>
<!-- Node6 -->
<g id="Node000006" class="node">
<title>Node6</title>
<g id="a_Node000006"><a xlink:href="classwmtk_1_1_mesh.html#a6dbab927a2ee85f77a87f075fd5c1d94" target="_top" xlink:title=" ">
<polygon fill="white" stroke="#666666" points="775,-382 645,-382 645,-352 775,-352 775,-382"/>
<text text-anchor="start" x="653" y="-370" font-family="Helvetica,sans-Serif" font-size="10.00">wmtk::Mesh::get_const</text>
<text text-anchor="middle" x="710" y="-359" font-family="Helvetica,sans-Serif" font-size="10.00">_flag_accessor</text>
</a>
</g>
</g>
<!-- Node1&#45;&gt;Node6 -->
<g id="edge22_Node000001_Node000006" class="edge">
<title>Node1&#45;&gt;Node6</title>
<g id="a_edge22_Node000001_Node000006"><a xlink:title=" ">
<path fill="none" stroke="#63b8ff" d="M196.33,-377.93C318.32,-375.33 524.73,-370.93 634.75,-368.58"/>
<polygon fill="#63b8ff" stroke="#63b8ff" points="634.84,-372.08 644.76,-368.37 634.69,-365.08 634.84,-372.08"/>
</a>
</g>
</g>
<!-- Node13 -->
<g id="Node000013" class="node">
<title>Node13</title>
<g id="a_Node000013"><a xlink:href="classwmtk_1_1_mesh.html#a8cc8686f0688613806f43720b6db49e7" target="_top" xlink:title="check validity of tuple including its hash">
<polygon fill="white" stroke="#666666" points="770,-634.5 650,-634.5 650,-615.5 770,-615.5 770,-634.5"/>
<text text-anchor="middle" x="710" y="-622.5" font-family="Helvetica,sans-Serif" font-size="10.00">wmtk::Mesh::is_valid</text>
</a>
</g>
</g>
<!-- Node1&#45;&gt;Node13 -->
<g id="edge29_Node000001_Node000013" class="edge">
<title>Node1&#45;&gt;Node13</title>
<g id="a_edge29_Node000001_Node000013"><a xlink:title=" ">
<path fill="none" stroke="#63b8ff" d="M108.48,-395.35C128.04,-425.88 175.79,-494.74 232,-535 308.69,-589.93 336.75,-594.31 429,-614 499.69,-629.09 582.64,-630.37 639.81,-628.79"/>
<polygon fill="#63b8ff" stroke="#63b8ff" points="639.94,-632.28 649.82,-628.47 639.72,-625.29 639.94,-632.28"/>
</a>
</g>
</g>
<!-- Node14 -->
<g id="Node000014" class="node">
<title>Node14</title>
<g id="a_Node000014"><a xlink:href="classwmtk_1_1_tuple.html#a0023f575be92cd5ceeeaaaa3762ea06d" target="_top" xlink:title="Checks if a tuple is &quot;null&quot;. This merely implies the global index is &#45;1.">
<polygon fill="white" stroke="#666666" points="957.5,-702.5 844.5,-702.5 844.5,-683.5 957.5,-683.5 957.5,-702.5"/>
<text text-anchor="middle" x="901" y="-690.5" font-family="Helvetica,sans-Serif" font-size="10.00">wmtk::Tuple::is_null</text>
</a>
</g>
</g>
<!-- Node1&#45;&gt;Node14 -->
<g id="edge28_Node000001_Node000014" class="edge">
<title>Node1&#45;&gt;Node14</title>
<g id="a_edge28_Node000001_Node000014"><a xlink:title=" ">
<path fill="none" stroke="#63b8ff" d="M102.45,-395.2C113.24,-439.1 150.57,-567.01 232,-631 418.42,-777.5 730.75,-730.21 850.87,-704.7"/>
<polygon fill="#63b8ff" stroke="#63b8ff" points="851.85,-708.07 860.88,-702.53 850.36,-701.23 851.85,-708.07"/>
</a>
</g>
</g>
<!-- Node16 -->
<g id="Node000016" class="node">
<title>Node16</title>
<g id="a_Node000016"><a xlink:href="classwmtk_1_1_mesh.html#abaf00438d0700358b160e310d69725c9" target="_top" xlink:title=" ">
<polygon fill="white" stroke="#666666" points="795,-472.5 625,-472.5 625,-453.5 795,-453.5 795,-472.5"/>
<text text-anchor="middle" x="710" y="-460.5" font-family="Helvetica,sans-Serif" font-size="10.00">wmtk::Mesh::top_simplex_type</text>
</a>
</g>
</g>
<!-- Node1&#45;&gt;Node16 -->
<g id="edge37_Node000001_Node000016" class="edge">
<title>Node1&#45;&gt;Node16</title>
<g id="a_edge37_Node000001_Node000016"><a xlink:title=" ">
<path fill="none" stroke="#63b8ff" d="M167.49,-395.04C188.15,-399.27 210.94,-403.63 232,-407 364.2,-428.14 518.22,-444.79 614.68,-454.27"/>
<polygon fill="#63b8ff" stroke="#63b8ff" points="614.4,-457.76 624.7,-455.25 615.08,-450.79 614.4,-457.76"/>
</a>
</g>
</g>
<!-- Node18 -->
<g id="Node000018" class="node">
<title>Node18</title>
<g id="a_Node000018"><a xlink:href="classwmtk_1_1simplex_1_1_simplex.html#aca78b1fb0a3c28c0036cf7919bfb0789" target="_top" xlink:title=" ">
<polygon fill="white" stroke="#666666" points="777.5,-433 642.5,-433 642.5,-403 777.5,-403 777.5,-433"/>
<text text-anchor="start" x="650.5" y="-421" font-family="Helvetica,sans-Serif" font-size="10.00">wmtk::simplex::Simplex</text>
<text text-anchor="middle" x="710" y="-410" font-family="Helvetica,sans-Serif" font-size="10.00">::tuple</text>
</a>
</g>
</g>
<!-- Node1&#45;&gt;Node18 -->
<g id="edge41_Node000001_Node000018" class="edge">
<title>Node1&#45;&gt;Node18</title>
<g id="a_edge41_Node000001_Node000018"><a xlink:title=" ">
<path fill="none" stroke="#63b8ff" d="M196.33,-386.06C317.34,-393.6 521.42,-406.31 632.08,-413.21"/>
<polygon fill="#63b8ff" stroke="#63b8ff" points="631.97,-416.71 642.17,-413.84 632.4,-409.72 631.97,-416.71"/>
</a>
</g>
</g>
<!-- Node19 -->
<g id="Node000019" class="node">
<title>Node19</title>
<g id="a_Node000019"><a xlink:href="classwmtk_1_1_mesh.html#a20cac3ebd122054689c9aeb5a32cfaf0" target="_top" xlink:title=" ">
<polygon fill="white" stroke="#666666" points="378,-333 247,-333 247,-303 378,-303 378,-333"/>
<text text-anchor="start" x="255" y="-321" font-family="Helvetica,sans-Serif" font-size="10.00">wmtk::Mesh::get_index</text>
<text text-anchor="middle" x="312.5" y="-310" font-family="Helvetica,sans-Serif" font-size="10.00">_access</text>
</a>
</g>
</g>
<!-- Node1&#45;&gt;Node19 -->
<g id="edge23_Node000001_Node000019" class="edge">
<title>Node1&#45;&gt;Node19</title>
<g id="a_edge23_Node000001_Node000019"><a xlink:title=" ">
<path fill="none" stroke="#63b8ff" d="M150.44,-364.99C180.37,-356.26 218.28,-345.2 249.8,-336"/>
<polygon fill="#63b8ff" stroke="#63b8ff" points="251.18,-339.25 259.8,-333.09 249.22,-332.53 251.18,-339.25"/>
</a>
</g>
</g>
<!-- Node22 -->
<g id="Node000022" class="node">
<title>Node22</title>
<g id="a_Node000022"><a xlink:href="classwmtk_1_1multimesh_1_1_multi_mesh_manager.html#abae2bb307bfdca11bda9ac62df54e025" target="_top" xlink:title=" ">
<polygon fill="white" stroke="#666666" points="393,-285 232,-285 232,-255 393,-255 393,-285"/>
<text text-anchor="start" x="240" y="-273" font-family="Helvetica,sans-Serif" font-size="10.00">wmtk::multimesh::MultiMesh</text>
<text text-anchor="middle" x="312.5" y="-262" font-family="Helvetica,sans-Serif" font-size="10.00">Manager::get_map_accessors</text>
</a>
</g>
</g>
<!-- Node1&#45;&gt;Node22 -->
<g id="edge26_Node000001_Node000022" class="edge">
<title>Node1&#45;&gt;Node22</title>
<g id="a_edge26_Node000001_Node000022"><a xlink:title=" ">
<path fill="none" stroke="#63b8ff" d="M118.7,-364.72C143.8,-345.86 189.08,-313.87 232,-294 236.08,-292.11 240.35,-290.32 244.71,-288.64"/>
<polygon fill="#63b8ff" stroke="#63b8ff" points="246.12,-291.85 254.32,-285.14 243.72,-285.28 246.12,-291.85"/>
</a>
</g>
</g>
<!-- Node24 -->
<g id="Node000024" class="node">
<title>Node24</title>
<g id="a_Node000024"><a xlink:href="classwmtk_1_1_mesh.html#ac5778c1f8afef3a2b1b1c33a140b3166" target="_top" xlink:title="Evaluate the passed in function inside the parent scope.">
<polygon fill="white" stroke="#666666" points="369.5,-237 255.5,-237 255.5,-207 369.5,-207 369.5,-237"/>
<text text-anchor="start" x="263.5" y="-225" font-family="Helvetica,sans-Serif" font-size="10.00">wmtk::Mesh::parent</text>
<text text-anchor="middle" x="312.5" y="-214" font-family="Helvetica,sans-Serif" font-size="10.00">_scope</text>
</a>
</g>
</g>
<!-- Node1&#45;&gt;Node24 -->
<g id="edge30_Node000001_Node000024" class="edge">
<title>Node1&#45;&gt;Node24</title>
<g id="a_edge30_Node000001_Node000024"><a xlink:title=" ">
<path fill="none" stroke="#63b8ff" d="M109.99,-364.71C130.72,-336.97 178.34,-278.25 232,-246 236.37,-243.38 241.04,-241.02 245.86,-238.9"/>
<polygon fill="#63b8ff" stroke="#63b8ff" points="247.28,-242.11 255.26,-235.13 244.67,-235.61 247.28,-242.11"/>
</a>
</g>
</g>
<!-- Node25 -->
<g id="Node000025" class="node">
<title>Node25</title>
<g id="a_Node000025"><a xlink:href="namespacewmtk_1_1multimesh_1_1utils.html#ab19d57f46b80f20b1b4685ed83e305d5" target="_top" xlink:title=" ">
<polygon fill="white" stroke="#666666" points="380,-188.5 245,-188.5 245,-147.5 380,-147.5 380,-188.5"/>
<text text-anchor="start" x="253" y="-176.5" font-family="Helvetica,sans-Serif" font-size="10.00">wmtk::multimesh::utils</text>
<text text-anchor="start" x="253" y="-165.5" font-family="Helvetica,sans-Serif" font-size="10.00">::symmetric_write_tuple</text>
<text text-anchor="middle" x="312.5" y="-154.5" font-family="Helvetica,sans-Serif" font-size="10.00">_map_attributes</text>
</a>
</g>
</g>
<!-- Node1&#45;&gt;Node25 -->
<g id="edge31_Node000001_Node000025" class="edge">
<title>Node1&#45;&gt;Node25</title>
<g id="a_edge31_Node000001_Node000025"><a xlink:title=" ">
<path fill="none" stroke="#63b8ff" d="M106.24,-364.74C123.34,-330.24 169.55,-245.5 232,-198 233.86,-196.58 235.79,-195.23 237.79,-193.93"/>
<polygon fill="#63b8ff" stroke="#63b8ff" points="239.99,-196.7 246.84,-188.62 236.45,-190.66 239.99,-196.7"/>
</a>
</g>
</g>
<!-- Node31 -->
<g id="Node000031" class="node">
<title>Node31</title>
<g id="a_Node000031"><a xlink:href="namespacewmtk_1_1multimesh_1_1utils.html#aa0392bf28bb6c304127cf0eea634fee8" target="_top" xlink:title=" ">
<polygon fill="white" stroke="#666666" points="377.5,-129 247.5,-129 247.5,-99 377.5,-99 377.5,-129"/>
<text text-anchor="start" x="255.5" y="-117" font-family="Helvetica,sans-Serif" font-size="10.00">wmtk::multimesh::utils</text>
<text text-anchor="middle" x="312.5" y="-106" font-family="Helvetica,sans-Serif" font-size="10.00">::transport_tuple</text>
</a>
</g>
</g>
<!-- Node1&#45;&gt;Node31 -->
<g id="edge38_Node000001_Node000031" class="edge">
<title>Node1&#45;&gt;Node31</title>
<g id="a_edge38_Node000001_Node000031"><a xlink:title=" ">
<path fill="none" stroke="#63b8ff" d="M103.07,-364.7C115.16,-322.27 154.87,-202.09 232,-139 234.06,-137.32 236.23,-135.75 238.49,-134.28"/>
<polygon fill="#63b8ff" stroke="#63b8ff" points="240.6,-137.11 247.58,-129.14 237.15,-131.02 240.6,-137.11"/>
</a>
</g>
</g>
<!-- Node33 -->
<g id="Node000033" class="node">
<title>Node33</title>
<g id="a_Node000033"><a xlink:href="namespacewmtk_1_1multimesh_1_1utils.html#a7382ca1de4356752b14e745f23b6892d" target="_top" xlink:title=" ">
<polygon fill="white" stroke="#666666" points="377.5,-78 247.5,-78 247.5,-48 377.5,-48 377.5,-78"/>
<text text-anchor="start" x="255.5" y="-66" font-family="Helvetica,sans-Serif" font-size="10.00">wmtk::multimesh::utils</text>
<text text-anchor="middle" x="312.5" y="-55" font-family="Helvetica,sans-Serif" font-size="10.00">::vectors_to_tuples</text>
</a>
</g>
</g>
<!-- Node1&#45;&gt;Node33 -->
<g id="edge42_Node000001_Node000033" class="edge">
<title>Node1&#45;&gt;Node33</title>
<g id="a_edge42_Node000001_Node000033"><a xlink:title=" ">
<path fill="none" stroke="#63b8ff" d="M101.58,-364.89C110.5,-317.31 144.41,-169.04 232,-90 234.82,-87.46 237.88,-85.15 241.12,-83.07"/>
<polygon fill="#63b8ff" stroke="#63b8ff" points="243.04,-86 250.02,-78.03 239.6,-79.9 243.04,-86"/>
</a>
</g>
</g>
<!-- Node5 -->
<g id="Node000005" class="node">
<title>Node5</title>
<g id="a_Node000005"><a xlink:href="classwmtk_1_1multimesh_1_1_multi_mesh_manager.html#a4da01c08681b05cb15974f291bcc13d1" target="_top" xlink:title=" ">
<polygon fill="white" stroke="#666666" points="589,-506.5 429,-506.5 429,-465.5 589,-465.5 589,-506.5"/>
<text text-anchor="start" x="437" y="-494.5" font-family="Helvetica,sans-Serif" font-size="10.00">wmtk::multimesh::MultiMesh</text>
<text text-anchor="start" x="437" y="-483.5" font-family="Helvetica,sans-Serif" font-size="10.00">Manager::find_valid_tuple</text>
<text text-anchor="middle" x="509" y="-472.5" font-family="Helvetica,sans-Serif" font-size="10.00">_from_alternatives</text>
</a>
</g>
</g>
<!-- Node4&#45;&gt;Node5 -->
<g id="edge4_Node000004_Node000005" class="edge">
<title>Node4&#45;&gt;Node5</title>
<g id="a_edge4_Node000004_Node000005"><a xlink:title=" ">
<path fill="none" stroke="#63b8ff" d="M392.61,-500.83C401.23,-499.72 410.04,-498.59 418.77,-497.47"/>
<polygon fill="#63b8ff" stroke="#63b8ff" points="419.49,-500.91 428.96,-496.16 418.59,-493.96 419.49,-500.91"/>
</a>
</g>
</g>
<!-- Node9 -->
<g id="Node000009" class="node">
<title>Node9</title>
<g id="a_Node000009"><a xlink:href="classwmtk_1_1multimesh_1_1_multi_mesh_manager.html#a69b4eee8fb0793f1cda43777331dca1d" target="_top" xlink:title=" ">
<polygon fill="white" stroke="#666666" points="589,-604.5 429,-604.5 429,-563.5 589,-563.5 589,-604.5"/>
<text text-anchor="start" x="437" y="-592.5" font-family="Helvetica,sans-Serif" font-size="10.00">wmtk::multimesh::MultiMesh</text>
<text text-anchor="start" x="437" y="-581.5" font-family="Helvetica,sans-Serif" font-size="10.00">Manager::find_valid_tuple</text>
<text text-anchor="middle" x="509" y="-570.5" font-family="Helvetica,sans-Serif" font-size="10.00">_from_split</text>
</a>
</g>
</g>
<!-- Node4&#45;&gt;Node9 -->
<g id="edge8_Node000004_Node000009" class="edge">
<title>Node4&#45;&gt;Node9</title>
<g id="a_edge8_Node000004_Node000009"><a xlink:title=" ">
<path fill="none" stroke="#63b8ff" d="M353.8,-526.13C379.81,-535.89 414.2,-548.79 443.9,-559.94"/>
<polygon fill="#63b8ff" stroke="#63b8ff" points="442.77,-563.26 453.37,-563.49 445.23,-556.7 442.77,-563.26"/>
</a>
</g>
</g>
<!-- Node4&#45;&gt;Node16 -->
<g id="edge21_Node000004_Node000016" class="edge">
<title>Node4&#45;&gt;Node16</title>
<g id="a_edge21_Node000004_Node000016"><a xlink:title=" ">
<path fill="none" stroke="#63b8ff" d="M380.26,-526C437.65,-535.72 521.57,-542.23 589,-516 609.23,-508.13 605.83,-493.17 625,-483 630.26,-480.21 635.91,-477.8 641.7,-475.73"/>
<polygon fill="#63b8ff" stroke="#63b8ff" points="643.1,-478.95 651.54,-472.54 640.95,-472.29 643.1,-478.95"/>
</a>
</g>
</g>
<!-- Node5&#45;&gt;Node6 -->
<g id="edge5_Node000005_Node000006" class="edge">
<title>Node5&#45;&gt;Node6</title>
<g id="a_edge5_Node000005_Node000006"><a xlink:title=" ">
<path fill="none" stroke="#63b8ff" d="M530.77,-465.44C552.6,-444.84 588.73,-413.48 625,-394 630.58,-391 636.55,-388.27 642.63,-385.79"/>
<polygon fill="#63b8ff" stroke="#63b8ff" points="644.17,-388.96 652.25,-382.11 641.66,-382.42 644.17,-388.96"/>
</a>
</g>
</g>
<!-- Node7 -->
<g id="Node000007" class="node">
<title>Node7</title>
<g id="a_Node000007"><a xlink:href="classwmtk_1_1_mesh.html#a357182137d99f1e4a7ff536eadfc0e56" target="_top" xlink:title=" ">
<polygon fill="white" stroke="#666666" points="957.5,-404 844.5,-404 844.5,-374 957.5,-374 957.5,-404"/>
<text text-anchor="start" x="852.5" y="-392" font-family="Helvetica,sans-Serif" font-size="10.00">wmtk::Mesh::create</text>
<text text-anchor="middle" x="901" y="-381" font-family="Helvetica,sans-Serif" font-size="10.00">_const_accessor</text>
</a>
</g>
</g>
<!-- Node6&#45;&gt;Node7 -->
<g id="edge6_Node000006_Node000007" class="edge">
<title>Node6&#45;&gt;Node7</title>
<g id="a_edge6_Node000006_Node000007"><a xlink:title=" ">
<path fill="none" stroke="#63b8ff" d="M775.25,-374.48C794.3,-376.7 815.18,-379.13 834.32,-381.35"/>
<polygon fill="#63b8ff" stroke="#63b8ff" points="834.11,-384.85 844.45,-382.53 834.92,-377.9 834.11,-384.85"/>
</a>
</g>
</g>
<!-- Node8 -->
<g id="Node000008" class="node">
<title>Node8</title>
<g id="a_Node000008"><a xlink:href="namespacewmtk.html#a5cf45c152e856196bb734c6f48919a24" target="_top" xlink:title="Get a unique integer id corresponding to each primitive type.">
<polygon fill="white" stroke="#666666" points="959,-356 843,-356 843,-326 959,-326 959,-356"/>
<text text-anchor="start" x="851" y="-344" font-family="Helvetica,sans-Serif" font-size="10.00">wmtk::get_primitive</text>
<text text-anchor="middle" x="901" y="-333" font-family="Helvetica,sans-Serif" font-size="10.00">_type_id</text>
</a>
</g>
</g>
<!-- Node6&#45;&gt;Node8 -->
<g id="edge7_Node000006_Node000008" class="edge">
<title>Node6&#45;&gt;Node8</title>
<g id="a_edge7_Node000006_Node000008"><a xlink:title=" ">
<path fill="none" stroke="#63b8ff" d="M775.25,-358.16C793.85,-355.6 814.19,-352.8 832.95,-350.22"/>
<polygon fill="#63b8ff" stroke="#63b8ff" points="833.46,-353.69 842.89,-348.86 832.51,-346.75 833.46,-353.69"/>
</a>
</g>
</g>
<!-- Node9&#45;&gt;Node3 -->
<g id="edge9_Node000009_Node000003" class="edge">
<title>Node9&#45;&gt;Node3</title>
<g id="a_edge9_Node000009_Node000003"><a xlink:title=" ">
<path fill="none" stroke="#63b8ff" d="M544.87,-604.56C567.23,-617.14 597.18,-632.9 625,-644 630.11,-646.04 635.45,-647.98 640.86,-649.81"/>
<polygon fill="#63b8ff" stroke="#63b8ff" points="640.05,-653.23 650.64,-652.99 642.21,-646.57 640.05,-653.23"/>
</a>
</g>
</g>
<!-- Node10 -->
<g id="Node000010" class="node">
<title>Node10</title>
<g id="a_Node000010"><a xlink:href="classwmtk_1_1_mesh.html#a58243712dc3e0d258ad645e7b08870db" target="_top" xlink:title="return the global id of the Tuple of the given dimension">
<polygon fill="white" stroke="#666666" points="756,-510.5 664,-510.5 664,-491.5 756,-491.5 756,-510.5"/>
<text text-anchor="middle" x="710" y="-498.5" font-family="Helvetica,sans-Serif" font-size="10.00">wmtk::Mesh::id</text>
</a>
</g>
</g>
<!-- Node9&#45;&gt;Node10 -->
<g id="edge10_Node000009_Node000010" class="edge">
<title>Node9&#45;&gt;Node10</title>
<g id="a_edge10_Node000009_Node000010"><a xlink:title=" ">
<path fill="none" stroke="#63b8ff" d="M561.57,-563.49C570.92,-559.12 580.42,-554.23 589,-549 606.54,-538.3 606.5,-528.94 625,-520 633.99,-515.66 644,-512.29 653.89,-509.68"/>
<polygon fill="#63b8ff" stroke="#63b8ff" points="654.79,-513.06 663.69,-507.31 653.15,-506.25 654.79,-513.06"/>
</a>
</g>
</g>
<!-- Node12 -->
<g id="Node000012" class="node">
<title>Node12</title>
<g id="a_Node000012"><a xlink:href="classwmtk_1_1_mesh.html#ade176d345902d97af8c5da04aa3a095b" target="_top" xlink:title=" ">
<polygon fill="white" stroke="#666666" points="971,-613.5 831,-613.5 831,-594.5 971,-594.5 971,-613.5"/>
<text text-anchor="middle" x="901" y="-601.5" font-family="Helvetica,sans-Serif" font-size="10.00">wmtk::Mesh::is_removed</text>
</a>
</g>
</g>
<!-- Node9&#45;&gt;Node12 -->
<g id="edge12_Node000009_Node000012" class="edge">
<title>Node9&#45;&gt;Node12</title>
<g id="a_edge12_Node000009_Node000012"><a xlink:title=" ">
<path fill="none" stroke="#63b8ff" d="M589.39,-588.07C656.86,-591.53 753.23,-596.47 820.68,-599.93"/>
<polygon fill="#63b8ff" stroke="#63b8ff" points="820.67,-603.44 830.84,-600.45 821.03,-596.45 820.67,-603.44"/>
</a>
</g>
</g>
<!-- Node9&#45;&gt;Node13 -->
<g id="edge14_Node000009_Node000013" class="edge">
<title>Node9&#45;&gt;Node13</title>
<g id="a_edge14_Node000009_Node000013"><a xlink:title=" ">
<path fill="none" stroke="#63b8ff" d="M589.22,-600.32C610.45,-604.7 632.97,-609.33 652.68,-613.4"/>
<polygon fill="#63b8ff" stroke="#63b8ff" points="652.21,-616.87 662.71,-615.46 653.62,-610.02 652.21,-616.87"/>
</a>
</g>
</g>
<!-- Node15 -->
<g id="Node000015" class="node">
<title>Node15</title>
<g id="a_Node000015"><a xlink:href="classwmtk_1_1simplex_1_1_simplex.html#ad2cc0340a0772b7d6f03ba7a781d1163" target="_top" xlink:title=" ">
<polygon fill="white" stroke="#666666" points="777.5,-559 642.5,-559 642.5,-529 777.5,-529 777.5,-559"/>
<text text-anchor="start" x="650.5" y="-547" font-family="Helvetica,sans-Serif" font-size="10.00">wmtk::simplex::Simplex</text>
<text text-anchor="middle" x="710" y="-536" font-family="Helvetica,sans-Serif" font-size="10.00">::primitive_type</text>
</a>
</g>
</g>
<!-- Node9&#45;&gt;Node15 -->
<g id="edge17_Node000009_Node000015" class="edge">
<title>Node9&#45;&gt;Node15</title>
<g id="a_edge17_Node000009_Node000015"><a xlink:title=" ">
<path fill="none" stroke="#63b8ff" d="M589.22,-568.08C603.35,-565.24 618.05,-562.28 632.11,-559.45"/>
<polygon fill="#63b8ff" stroke="#63b8ff" points="633.11,-562.82 642.22,-557.42 631.73,-555.96 633.11,-562.82"/>
</a>
</g>
</g>
<!-- Node9&#45;&gt;Node16 -->
<g id="edge18_Node000009_Node000016" class="edge">
<title>Node9&#45;&gt;Node16</title>
<g id="a_edge18_Node000009_Node000016"><a xlink:title=" ">
<path fill="none" stroke="#63b8ff" d="M568.4,-563.49C575.82,-559.39 582.93,-554.59 589,-549 613.58,-526.37 598.45,-503.29 625,-483 628.04,-480.68 631.3,-478.62 634.72,-476.8"/>
<polygon fill="#63b8ff" stroke="#63b8ff" points="636.45,-479.86 644.07,-472.5 633.53,-473.5 636.45,-479.86"/>
</a>
</g>
</g>
<!-- Node9&#45;&gt;Node18 -->
<g id="edge20_Node000009_Node000018" class="edge">
<title>Node9&#45;&gt;Node18</title>
<g id="a_edge20_Node000009_Node000018"><a xlink:title=" ">
<path fill="none" stroke="#63b8ff" d="M539.16,-563.38C555.27,-550.97 574.82,-534.09 589,-516 610.82,-488.15 598.08,-467.96 625,-445 628.06,-442.39 631.37,-440.03 634.86,-437.9"/>
<polygon fill="#63b8ff" stroke="#63b8ff" points="636.69,-440.89 643.83,-433.06 633.37,-434.73 636.69,-440.89"/>
</a>
</g>
</g>
<!-- Node11 -->
<g id="Node000011" class="node">
<title>Node11</title>
<g id="a_Node000011"><a xlink:href="classwmtk_1_1_mesh.html#a6f6c3b9a1d738d05ec8d84cabfa5e4b4" target="_top" xlink:title="Internal utility to allow id to be virtual with a non&#45;virtual overload in derived &#45;Mesh classes.">
<polygon fill="white" stroke="#666666" points="965,-512.5 837,-512.5 837,-493.5 965,-493.5 965,-512.5"/>
<text text-anchor="middle" x="901" y="-500.5" font-family="Helvetica,sans-Serif" font-size="10.00">wmtk::Mesh::id_virtual</text>
</a>
</g>
</g>
<!-- Node10&#45;&gt;Node11 -->
<g id="edge11_Node000010_Node000011" class="edge">
<title>Node10&#45;&gt;Node11</title>
<g id="a_edge11_Node000010_Node000011"><a xlink:title=" ">
<path fill="none" stroke="#63b8ff" d="M756.27,-501.48C777.39,-501.7 803.06,-501.97 826.83,-502.23"/>
<polygon fill="#63b8ff" stroke="#63b8ff" points="826.84,-505.73 836.88,-502.33 826.92,-498.73 826.84,-505.73"/>
</a>
</g>
</g>
<!-- Node12&#45;&gt;Node12 -->
<g id="edge13_Node000012_Node000012" class="edge">
<title>Node12&#45;&gt;Node12</title>
<g id="a_edge13_Node000012_Node000012"><a xlink:title=" ">
<path fill="none" stroke="#63b8ff" d="M871.72,-613.58C857.47,-622.23 867.23,-631.5 901,-631.5 924.22,-631.5 936.09,-627.12 936.61,-621.57"/>
<polygon fill="#63b8ff" stroke="#63b8ff" points="939.23,-619.25 930.28,-613.58 933.75,-623.6 939.23,-619.25"/>
</a>
</g>
</g>
<!-- Node13&#45;&gt;Node12 -->
<g id="edge16_Node000013_Node000012" class="edge">
<title>Node13&#45;&gt;Node12</title>
<g id="a_edge16_Node000013_Node000012"><a xlink:title=" ">
<path fill="none" stroke="#63b8ff" d="M770.02,-618.44C785.99,-616.67 803.53,-614.72 820.43,-612.84"/>
<polygon fill="#63b8ff" stroke="#63b8ff" points="821.29,-616.27 830.84,-611.68 820.52,-609.31 821.29,-616.27"/>
</a>
</g>
</g>
<!-- Node13&#45;&gt;Node14 -->
<g id="edge15_Node000013_Node000014" class="edge">
<title>Node13&#45;&gt;Node14</title>
<g id="a_edge15_Node000013_Node000014"><a xlink:title=" ">
<path fill="none" stroke="#63b8ff" d="M761.24,-634.52C772.48,-637.15 784.25,-640.32 795,-644 822.73,-653.48 852.9,-668.04 873.76,-678.83"/>
<polygon fill="#63b8ff" stroke="#63b8ff" points="872.16,-681.94 882.64,-683.49 875.41,-675.74 872.16,-681.94"/>
</a>
</g>
</g>
<!-- Node17 -->
<g id="Node000017" class="node">
<title>Node17</title>
<g id="a_Node000017"><a xlink:href="classwmtk_1_1_mesh.html#a933f681cf24a63b155c9462280385200" target="_top" xlink:title=" ">
<polygon fill="white" stroke="#666666" points="961.5,-475 840.5,-475 840.5,-445 961.5,-445 961.5,-475"/>
<text text-anchor="start" x="848.5" y="-463" font-family="Helvetica,sans-Serif" font-size="10.00">wmtk::Mesh::top_cell</text>
<text text-anchor="middle" x="901" y="-452" font-family="Helvetica,sans-Serif" font-size="10.00">_dimension</text>
</a>
</g>
</g>
<!-- Node16&#45;&gt;Node17 -->
<g id="edge19_Node000016_Node000017" class="edge">
<title>Node16&#45;&gt;Node17</title>
<g id="a_edge19_Node000016_Node000017"><a xlink:title=" ">
<path fill="none" stroke="#63b8ff" d="M795.27,-461.66C806.88,-461.48 818.7,-461.29 830.01,-461.11"/>
<polygon fill="#63b8ff" stroke="#63b8ff" points="830.29,-464.61 840.23,-460.95 830.18,-457.61 830.29,-464.61"/>
</a>
</g>
</g>
<!-- Node20 -->
<g id="Node000020" class="node">
<title>Node20</title>
<g id="a_Node000020"><a xlink:href="classwmtk_1_1attribute_1_1_accessor.html#a2d587e12c47a6d839ab80e9198cf75b5" target="_top" xlink:title=" ">
<polygon fill="white" stroke="#666666" points="580,-333 438,-333 438,-303 580,-303 580,-333"/>
<text text-anchor="start" x="446" y="-321" font-family="Helvetica,sans-Serif" font-size="10.00">wmtk::attribute::Accessor</text>
<text text-anchor="middle" x="509" y="-310" font-family="Helvetica,sans-Serif" font-size="10.00">::index_access</text>
</a>
</g>
</g>
<!-- Node19&#45;&gt;Node20 -->
<g id="edge24_Node000019_Node000020" class="edge">
<title>Node19&#45;&gt;Node20</title>
<g id="a_edge24_Node000019_Node000020"><a xlink:title=" ">
<path fill="none" stroke="#63b8ff" d="M378.27,-318C394.1,-318 411.23,-318 427.69,-318"/>
<polygon fill="#63b8ff" stroke="#63b8ff" points="427.83,-321.5 437.83,-318 427.83,-314.5 427.83,-321.5"/>
</a>
</g>
</g>
<!-- Node21 -->
<g id="Node000021" class="node">
<title>Node21</title>
<g id="a_Node000021"><a xlink:href="classwmtk_1_1attribute_1_1_accessor.html#afd97a48ec5d1db975a030428df81f617" target="_top" xlink:title=" ">
<polygon fill="white" stroke="#666666" points="781,-333 639,-333 639,-303 781,-303 781,-333"/>
<text text-anchor="start" x="647" y="-321" font-family="Helvetica,sans-Serif" font-size="10.00">wmtk::attribute::Accessor</text>
<text text-anchor="middle" x="710" y="-310" font-family="Helvetica,sans-Serif" font-size="10.00">::caching_base_type</text>
</a>
</g>
</g>
<!-- Node20&#45;&gt;Node21 -->
<g id="edge25_Node000020_Node000021" class="edge">
<title>Node20&#45;&gt;Node21</title>
<g id="a_edge25_Node000020_Node000021"><a xlink:title=" ">
<path fill="none" stroke="#63b8ff" d="M580.16,-318C595.76,-318 612.43,-318 628.41,-318"/>
<polygon fill="#63b8ff" stroke="#63b8ff" points="628.8,-321.5 638.8,-318 628.8,-314.5 628.8,-321.5"/>
</a>
</g>
</g>
<!-- Node23 -->
<g id="Node000023" class="node">
<title>Node23</title>
<g id="a_Node000023"><a xlink:href="classwmtk_1_1_mesh.html#a5f7e9ae7268c929db6161af3e2c6eb73" target="_top" xlink:title=" ">
<polygon fill="white" stroke="#666666" points="565.5,-285 452.5,-285 452.5,-255 565.5,-255 565.5,-285"/>
<text text-anchor="start" x="460.5" y="-273" font-family="Helvetica,sans-Serif" font-size="10.00">wmtk::Mesh::create</text>
<text text-anchor="middle" x="509" y="-262" font-family="Helvetica,sans-Serif" font-size="10.00">_accessor</text>
</a>
</g>
</g>
<!-- Node22&#45;&gt;Node23 -->
<g id="edge27_Node000022_Node000023" class="edge">
<title>Node22&#45;&gt;Node23</title>
<g id="a_edge27_Node000022_Node000023"><a xlink:title=" ">
<path fill="none" stroke="#63b8ff" d="M393.17,-270C409.44,-270 426.38,-270 442.1,-270"/>
<polygon fill="#63b8ff" stroke="#63b8ff" points="442.23,-273.5 452.23,-270 442.23,-266.5 442.23,-273.5"/>
</a>
</g>
</g>
<!-- Node26 -->
<g id="Node000026" class="node">
<title>Node26</title>
<g id="a_Node000026"><a xlink:href="namespacewmtk_1_1multimesh_1_1utils.html#aa965e96578f254d53e7ca53d617f5c6a" target="_top" xlink:title=" ">
<polygon fill="white" stroke="#666666" points="585,-183 433,-183 433,-153 585,-153 585,-183"/>
<text text-anchor="start" x="441" y="-171" font-family="Helvetica,sans-Serif" font-size="10.00">wmtk::multimesh::utils</text>
<text text-anchor="middle" x="509" y="-160" font-family="Helvetica,sans-Serif" font-size="10.00">::write_tuple_map_attribute</text>
</a>
</g>
</g>
<!-- Node25&#45;&gt;Node26 -->
<g id="edge32_Node000025_Node000026" class="edge">
<title>Node25&#45;&gt;Node26</title>
<g id="a_edge32_Node000025_Node000026"><a xlink:title=" ">
<path fill="none" stroke="#63b8ff" d="M380.16,-168C393.79,-168 408.31,-168 422.49,-168"/>
<polygon fill="#63b8ff" stroke="#63b8ff" points="422.74,-171.5 432.74,-168 422.74,-164.5 422.74,-171.5"/>
</a>
</g>
</g>
<!-- Node27 -->
<g id="Node000027" class="node">
<title>Node27</title>
<g id="a_Node000027"><a xlink:href="classwmtk_1_1attribute_1_1_accessor.html#a4b89ff4381fe73d4827b663203a964fc" target="_top" xlink:title=" ">
<polygon fill="white" stroke="#666666" points="781,-276 639,-276 639,-246 781,-246 781,-276"/>
<text text-anchor="start" x="647" y="-264" font-family="Helvetica,sans-Serif" font-size="10.00">wmtk::attribute::Accessor</text>
<text text-anchor="middle" x="710" y="-253" font-family="Helvetica,sans-Serif" font-size="10.00">::const_vector_attribute</text>
</a>
</g>
</g>
<!-- Node26&#45;&gt;Node27 -->
<g id="edge33_Node000026_Node000027" class="edge">
<title>Node26&#45;&gt;Node27</title>
<g id="a_edge33_Node000026_Node000027"><a xlink:title=" ">
<path fill="none" stroke="#63b8ff" d="M531.13,-183C553.54,-198.34 590.4,-221.99 625,-237 629.66,-239.02 634.55,-240.93 639.51,-242.71"/>
<polygon fill="#63b8ff" stroke="#63b8ff" points="638.52,-246.07 649.12,-245.99 640.78,-239.45 638.52,-246.07"/>
</a>
</g>
</g>
<!-- Node28 -->
<g id="Node000028" class="node">
<title>Node28</title>
<g id="a_Node000028"><a xlink:href="classwmtk_1_1attribute_1_1_accessor_base.html#abd60539d5779de287d2a0ec31b16c77a" target="_top" xlink:title=" ">
<polygon fill="white" stroke="#666666" points="781,-228 639,-228 639,-198 781,-198 781,-228"/>
<text text-anchor="start" x="647" y="-216" font-family="Helvetica,sans-Serif" font-size="10.00">wmtk::attribute::Accessor</text>
<text text-anchor="middle" x="710" y="-205" font-family="Helvetica,sans-Serif" font-size="10.00">Base::dimension</text>
</a>
</g>
</g>
<!-- Node26&#45;&gt;Node28 -->
<g id="edge34_Node000026_Node000028" class="edge">
<title>Node26&#45;&gt;Node28</title>
<g id="a_edge34_Node000026_Node000028"><a xlink:title=" ">
<path fill="none" stroke="#63b8ff" d="M576.54,-183.05C594.55,-187.12 614.18,-191.56 632.67,-195.74"/>
<polygon fill="#63b8ff" stroke="#63b8ff" points="632,-199.18 642.52,-197.97 633.54,-192.35 632,-199.18"/>
</a>
</g>
</g>
<!-- Node29 -->
<g id="Node000029" class="node">
<title>Node29</title>
<g id="a_Node000029"><a xlink:href="classwmtk_1_1attribute_1_1_tuple_accessor.html#a8d04c3529eb7adeead49e8faa7a119db" target="_top" xlink:title=" ">
<polygon fill="white" stroke="#666666" points="793.5,-180 626.5,-180 626.5,-150 793.5,-150 793.5,-180"/>
<text text-anchor="start" x="634.5" y="-168" font-family="Helvetica,sans-Serif" font-size="10.00">wmtk::attribute::TupleAccessor</text>
<text text-anchor="middle" x="710" y="-157" font-family="Helvetica,sans-Serif" font-size="10.00">::dimension</text>
</a>
</g>
</g>
<!-- Node26&#45;&gt;Node29 -->
<g id="edge35_Node000026_Node000029" class="edge">
<title>Node26&#45;&gt;Node29</title>
<g id="a_edge35_Node000026_Node000029"><a xlink:title=" ">
<path fill="none" stroke="#63b8ff" d="M585.23,-166.87C595.3,-166.71 605.73,-166.56 616.06,-166.4"/>
<polygon fill="#63b8ff" stroke="#63b8ff" points="616.39,-169.9 626.34,-166.25 616.29,-162.9 616.39,-169.9"/>
</a>
</g>
</g>
<!-- Node30 -->
<g id="Node000030" class="node">
<title>Node30</title>
<g id="a_Node000030"><a xlink:href="classwmtk_1_1attribute_1_1_tuple_accessor.html#ab380e89ad00405e1e82f83f4d33ec6b1" target="_top" xlink:title=" ">
<polygon fill="white" stroke="#666666" points="793.5,-132 626.5,-132 626.5,-102 793.5,-102 793.5,-132"/>
<text text-anchor="start" x="634.5" y="-120" font-family="Helvetica,sans-Serif" font-size="10.00">wmtk::attribute::TupleAccessor</text>
<text text-anchor="middle" x="710" y="-109" font-family="Helvetica,sans-Serif" font-size="10.00">::vector_attribute</text>
</a>
</g>
</g>
<!-- Node26&#45;&gt;Node30 -->
<g id="edge36_Node000026_Node000030" class="edge">
<title>Node26&#45;&gt;Node30</title>
<g id="a_edge36_Node000026_Node000030"><a xlink:title=" ">
<path fill="none" stroke="#63b8ff" d="M568.63,-152.97C591.2,-147.19 617.17,-140.53 640.58,-134.53"/>
<polygon fill="#63b8ff" stroke="#63b8ff" points="641.63,-137.88 650.45,-132.01 639.89,-131.1 641.63,-137.88"/>
</a>
</g>
</g>
<!-- Node32 -->
<g id="Node000032" class="node">
<title>Node32</title>
<g id="a_Node000032"><a xlink:href="namespacewmtk_1_1multimesh_1_1utils_1_1internal.html#a11885fe5aebd05551827804b0142945d" target="_top" xlink:title=" ">
<polygon fill="white" stroke="#666666" points="574,-134.5 444,-134.5 444,-93.5 574,-93.5 574,-134.5"/>
<text text-anchor="start" x="452" y="-122.5" font-family="Helvetica,sans-Serif" font-size="10.00">wmtk::multimesh::utils</text>
<text text-anchor="start" x="452" y="-111.5" font-family="Helvetica,sans-Serif" font-size="10.00">::internal::transport</text>
<text text-anchor="middle" x="509" y="-100.5" font-family="Helvetica,sans-Serif" font-size="10.00">_tuple_dart</text>
</a>
</g>
</g>
<!-- Node31&#45;&gt;Node32 -->
<g id="edge39_Node000031_Node000032" class="edge">
<title>Node31&#45;&gt;Node32</title>
<g id="a_edge39_Node000031_Node000032"><a xlink:title=" ">
<path fill="none" stroke="#63b8ff" d="M377.73,-107.61C395.65,-107.2 415.28,-107.14 433.73,-107.42"/>
<polygon fill="#63b8ff" stroke="#63b8ff" points="433.78,-110.92 443.84,-107.61 433.91,-103.92 433.78,-110.92"/>
</a>
</g>
</g>
<!-- Node32&#45;&gt;Node31 -->
<g id="edge40_Node000032_Node000031" class="edge">
<title>Node32&#45;&gt;Node31</title>
<g id="a_edge40_Node000032_Node000031"><a xlink:title=" ">
<path fill="none" stroke="#63b8ff" d="M443.84,-120.39C425.92,-120.79 406.3,-120.86 387.84,-120.58"/>
<polygon fill="#63b8ff" stroke="#63b8ff" points="387.79,-117.08 377.73,-120.39 387.66,-124.08 387.79,-117.08"/>
</a>
</g>
</g>
<!-- Node34 -->
<g id="Node000034" class="node">
<title>Node34</title>
<g id="a_Node000034"><a xlink:href="namespacewmtk_1_1multimesh_1_1utils.html#afcaf5933957666eacc341add3d727960" target="_top" xlink:title=" ">
<polygon fill="white" stroke="#666666" points="574,-75 444,-75 444,-45 574,-45 574,-75"/>
<text text-anchor="start" x="452" y="-63" font-family="Helvetica,sans-Serif" font-size="10.00">wmtk::multimesh::utils</text>
<text text-anchor="middle" x="509" y="-52" font-family="Helvetica,sans-Serif" font-size="10.00">::vector_to_tuple</text>
</a>
</g>
</g>
<!-- Node33&#45;&gt;Node34 -->
<g id="edge43_Node000033_Node000034" class="edge">
<title>Node33&#45;&gt;Node34</title>
<g id="a_edge43_Node000033_Node000034"><a xlink:title=" ">
<path fill="none" stroke="#63b8ff" d="M377.73,-62.01C395.65,-61.73 415.28,-61.43 433.73,-61.15"/>
<polygon fill="#63b8ff" stroke="#63b8ff" points="433.9,-64.64 443.84,-60.99 433.79,-57.64 433.9,-64.64"/>
</a>
</g>
</g>
<!-- Node35 -->
<g id="Node000035" class="node">
<title>Node35</title>
<g id="a_Node000035"><a xlink:href="namespacewmtk_1_1multimesh_1_1utils.html#a335acc709f47df9fe96f4c2ed2e10585" target="_top" xlink:title=" ">
<polygon fill="white" stroke="#666666" points="775,-78 645,-78 645,-48 775,-48 775,-78"/>
<text text-anchor="start" x="653" y="-66" font-family="Helvetica,sans-Serif" font-size="10.00">wmtk::multimesh::utils</text>
<text text-anchor="middle" x="710" y="-55" font-family="Helvetica,sans-Serif" font-size="10.00">::vector2_to_tuple</text>
</a>
</g>
</g>
<!-- Node34&#45;&gt;Node35 -->
<g id="edge44_Node000034_Node000035" class="edge">
<title>Node34&#45;&gt;Node35</title>
<g id="a_edge44_Node000034_Node000035"><a xlink:title=" ">
<path fill="none" stroke="#63b8ff" d="M574.06,-60.97C593.31,-61.26 614.61,-61.58 634.48,-61.88"/>
<polygon fill="#63b8ff" stroke="#63b8ff" points="634.67,-65.38 644.72,-62.03 634.77,-58.38 634.67,-65.38"/>
</a>
</g>
</g>
<!-- Node36 -->
<g id="Node000036" class="node">
<title>Node36</title>
<g id="a_Node000036"><a xlink:href="namespacewmtk_1_1multimesh_1_1utils.html#a2645b98b3068060a73df0c8cc16b6a3d" target="_top" xlink:title=" ">
<polygon fill="white" stroke="#666666" points="775,-30 645,-30 645,0 775,0 775,-30"/>
<text text-anchor="start" x="653" y="-18" font-family="Helvetica,sans-Serif" font-size="10.00">wmtk::multimesh::utils</text>
<text text-anchor="middle" x="710" y="-7" font-family="Helvetica,sans-Serif" font-size="10.00">::vector5_to_tuple</text>
</a>
</g>
</g>
<!-- Node34&#45;&gt;Node36 -->
<g id="edge45_Node000034_Node000036" class="edge">
<title>Node34&#45;&gt;Node36</title>
<g id="a_edge45_Node000034_Node000036"><a xlink:title=" ">
<path fill="none" stroke="#63b8ff" d="M574.06,-45.51C593.4,-41.14 614.8,-36.3 634.75,-31.79"/>
<polygon fill="#63b8ff" stroke="#63b8ff" points="635.74,-35.16 644.72,-29.54 634.19,-28.33 635.74,-35.16"/>
</a>
</g>
</g>
</g>
</svg>
