<?xml version="1.0" encoding="UTF-8" standalone="no"?>
<!DOCTYPE svg PUBLIC "-//W3C//DTD SVG 1.1//EN"
 "http://www.w3.org/Graphics/SVG/1.1/DTD/svg11.dtd">
<!-- Generated by graphviz version 2.43.0 (0)
 -->
<!-- Title: wmtk::MeshCRTP::derived Pages: 1 -->
<svg width="782pt" height="789pt"
 viewBox="0.00 0.00 782.00 788.50" xmlns="http://www.w3.org/2000/svg" xmlns:xlink="http://www.w3.org/1999/xlink">
<g id="graph0" class="graph" transform="scale(1 1) rotate(0) translate(4 784.5)">
<title>wmtk::MeshCRTP::derived</title>
<!-- Node1 -->
<g id="Node000001" class="node">
<title>Node1</title>
<g id="a_Node000001"><a xlink:title="CRTP utility to extract the derived type of this.">
<polygon fill="#999999" stroke="#666666" points="774,-158.5 630,-158.5 630,-139.5 774,-139.5 774,-158.5"/>
<text text-anchor="middle" x="702" y="-146.5" font-family="Helvetica,sans-Serif" font-size="10.00">wmtk::MeshCRTP::derived</text>
</a>
</g>
</g>
<!-- Node2 -->
<g id="Node000002" class="node">
<title>Node2</title>
<g id="a_Node000002"><a xlink:href="classwmtk_1_1_mesh_c_r_t_p.html#a78328ddfd248ddb71c3a436cf79b6b84" target="_top" xlink:title="constructs an accessor that is aware of the derived mesh&#39;s type">
<polygon fill="white" stroke="#666666" points="593,-539 455,-539 455,-509 593,-509 593,-539"/>
<text text-anchor="start" x="463" y="-527" font-family="Helvetica,sans-Serif" font-size="10.00">wmtk::MeshCRTP::create</text>
<text text-anchor="middle" x="524" y="-516" font-family="Helvetica,sans-Serif" font-size="10.00">_accessor</text>
</a>
</g>
</g>
<!-- Node1&#45;&gt;Node2 -->
<g id="edge1_Node000001_Node000002" class="edge">
<title>Node1&#45;&gt;Node2</title>
<g id="a_edge1_Node000001_Node000002"><a xlink:title=" ">
<path fill="none" stroke="#63b8ff" d="M692.19,-167.77C661.58,-233 560.18,-449.04 532.2,-508.65"/>
<polygon fill="#63b8ff" stroke="#63b8ff" points="695.39,-169.19 696.47,-158.65 689.06,-166.21 695.39,-169.19"/>
</a>
</g>
</g>
<!-- Node14 -->
<g id="Node000014" class="node">
<title>Node14</title>
<g id="a_Node000014"><a xlink:href="classwmtk_1_1_mesh_c_r_t_p.html#a6444b56a63b277d757853adc2557e23a" target="_top" xlink:title="constructs a const accessor that is aware of the derived mesh&#39;s type">
<polygon fill="white" stroke="#666666" points="593,-271 455,-271 455,-241 593,-241 593,-271"/>
<text text-anchor="start" x="463" y="-259" font-family="Helvetica,sans-Serif" font-size="10.00">wmtk::MeshCRTP::create</text>
<text text-anchor="middle" x="524" y="-248" font-family="Helvetica,sans-Serif" font-size="10.00">_const_accessor</text>
</a>
</g>
</g>
<!-- Node1&#45;&gt;Node14 -->
<g id="edge13_Node000001_Node000014" class="edge">
<title>Node1&#45;&gt;Node14</title>
<g id="a_edge13_Node000001_Node000014"><a xlink:title=" ">
<path fill="none" stroke="#63b8ff" d="M676.38,-163.97C642.96,-184.29 583.57,-220.39 549.97,-240.82"/>
<polygon fill="#63b8ff" stroke="#63b8ff" points="678.34,-166.87 685.07,-158.68 674.71,-160.89 678.34,-166.87"/>
</a>
</g>
</g>
<!-- Node18 -->
<g id="Node000018" class="node">
<title>Node18</title>
<g id="a_Node000018"><a xlink:href="classwmtk_1_1_mesh_c_r_t_p.html#a95ffde19b33a0309a9195c71c3077599" target="_top" xlink:title="Returns the id of a simplex encoded in a tuple.">
<polygon fill="white" stroke="#666666" points="582,-201.5 466,-201.5 466,-182.5 582,-182.5 582,-201.5"/>
<text text-anchor="middle" x="524" y="-189.5" font-family="Helvetica,sans-Serif" font-size="10.00">wmtk::MeshCRTP::id</text>
</a>
</g>
</g>
<!-- Node1&#45;&gt;Node18 -->
<g id="edge18_Node000001_Node000018" class="edge">
<title>Node1&#45;&gt;Node18</title>
<g id="a_edge18_Node000001_Node000018"><a xlink:title=" ">
<path fill="none" stroke="#63b8ff" d="M652.02,-160.97C624.22,-167.76 589.9,-176.14 563.95,-182.48"/>
<polygon fill="#63b8ff" stroke="#63b8ff" points="653.06,-164.32 661.94,-158.54 651.39,-157.52 653.06,-164.32"/>
</a>
</g>
</g>
<!-- Node21 -->
<g id="Node000021" class="node">
<title>Node21</title>
<g id="a_Node000021"><a xlink:href="classwmtk_1_1_mesh_c_r_t_p.html#aaa8dfeafa3263c0cbc52c8e599ce89cb" target="_top" xlink:title="returns if a simplex is on the boundary of hte mesh. For anything but dimension &#45; 1 this checks if th...">
<polygon fill="white" stroke="#666666" points="582,-164 466,-164 466,-134 582,-134 582,-164"/>
<text text-anchor="start" x="474" y="-152" font-family="Helvetica,sans-Serif" font-size="10.00">wmtk::MeshCRTP::is</text>
<text text-anchor="middle" x="524" y="-141" font-family="Helvetica,sans-Serif" font-size="10.00">_boundary</text>
</a>
</g>
</g>
<!-- Node1&#45;&gt;Node21 -->
<g id="edge21_Node000001_Node000021" class="edge">
<title>Node1&#45;&gt;Node21</title>
<g id="a_edge21_Node000001_Node000021"><a xlink:title=" ">
<path fill="none" stroke="#63b8ff" d="M619.76,-149C607.01,-149 594.07,-149 582.01,-149"/>
<polygon fill="#63b8ff" stroke="#63b8ff" points="619.92,-152.5 629.92,-149 619.92,-145.5 619.92,-152.5"/>
</a>
</g>
</g>
<!-- Node22 -->
<g id="Node000022" class="node">
<title>Node22</title>
<g id="a_Node000022"><a xlink:href="classwmtk_1_1_mesh_c_r_t_p.html#a784f1fef589ff3e49424662ca99bb3df" target="_top" xlink:title="returns if a tuple is counterclockwise or not">
<polygon fill="white" stroke="#666666" points="594,-115.5 454,-115.5 454,-96.5 594,-96.5 594,-115.5"/>
<text text-anchor="middle" x="524" y="-103.5" font-family="Helvetica,sans-Serif" font-size="10.00">wmtk::MeshCRTP::is_ccw</text>
</a>
</g>
</g>
<!-- Node1&#45;&gt;Node22 -->
<g id="edge22_Node000001_Node000022" class="edge">
<title>Node1&#45;&gt;Node22</title>
<g id="a_edge22_Node000001_Node000022"><a xlink:title=" ">
<path fill="none" stroke="#63b8ff" d="M652.02,-137.03C624.22,-130.24 589.9,-121.86 563.95,-115.52"/>
<polygon fill="#63b8ff" stroke="#63b8ff" points="651.39,-140.48 661.94,-139.46 653.06,-133.68 651.39,-140.48"/>
</a>
</g>
</g>
<!-- Node23 -->
<g id="Node000023" class="node">
<title>Node23</title>
<g id="a_Node000023"><a xlink:href="classwmtk_1_1_mesh_c_r_t_p.html#a0a7fada114a5adf3e37fd5ce1c0b2e06" target="_top" xlink:title="switch the orientation of the Tuple of the given dimension">
<polygon fill="white" stroke="#666666" points="593.5,-78 454.5,-78 454.5,-48 593.5,-48 593.5,-78"/>
<text text-anchor="start" x="462.5" y="-66" font-family="Helvetica,sans-Serif" font-size="10.00">wmtk::MeshCRTP::switch</text>
<text text-anchor="middle" x="524" y="-55" font-family="Helvetica,sans-Serif" font-size="10.00">_tuple</text>
</a>
</g>
</g>
<!-- Node1&#45;&gt;Node23 -->
<g id="edge23_Node000001_Node000023" class="edge">
<title>Node1&#45;&gt;Node23</title>
<g id="a_edge23_Node000001_Node000023"><a xlink:title=" ">
<path fill="none" stroke="#63b8ff" d="M677.97,-133.93C656.75,-120.47 624.09,-100.8 594,-87 587.08,-83.83 579.62,-80.82 572.24,-78.08"/>
<polygon fill="#63b8ff" stroke="#63b8ff" points="676.28,-137 686.59,-139.46 680.06,-131.11 676.28,-137"/>
</a>
</g>
</g>
<!-- Node24 -->
<g id="Node000024" class="node">
<title>Node24</title>
<g id="a_Node000024"><a xlink:href="classwmtk_1_1_mesh_c_r_t_p.html#a8883ca9a14143b3902a47081a1434e55" target="_top" xlink:title="internal function that returns the tuple of requested type, and has the global index cid">
<polygon fill="white" stroke="#666666" points="590,-30 458,-30 458,0 590,0 590,-30"/>
<text text-anchor="start" x="466" y="-18" font-family="Helvetica,sans-Serif" font-size="10.00">wmtk::MeshCRTP::tuple</text>
<text text-anchor="middle" x="524" y="-7" font-family="Helvetica,sans-Serif" font-size="10.00">_from_id</text>
</a>
</g>
</g>
<!-- Node1&#45;&gt;Node24 -->
<g id="edge24_Node000001_Node000024" class="edge">
<title>Node1&#45;&gt;Node24</title>
<g id="a_edge24_Node000001_Node000024"><a xlink:title=" ">
<path fill="none" stroke="#63b8ff" d="M687.91,-131.05C669.48,-106.95 633.66,-64.25 594,-39 588.76,-35.66 582.99,-32.72 577.1,-30.15"/>
<polygon fill="#63b8ff" stroke="#63b8ff" points="685.3,-133.4 694.1,-139.3 690.9,-129.2 685.3,-133.4"/>
</a>
</g>
</g>
<!-- Node3 -->
<g id="Node000003" class="node">
<title>Node3</title>
<g id="a_Node000003"><a xlink:href="classwmtk_1_1operations_1_1utils_1_1_update_edge_operation_multi_mesh_map_functor.html#a9b36575024b847b2c0367ced7f1c5caa" target="_top" xlink:title=" ">
<polygon fill="white" stroke="#666666" points="408,-426.5 227,-426.5 227,-385.5 408,-385.5 408,-426.5"/>
<text text-anchor="start" x="235" y="-414.5" font-family="Helvetica,sans-Serif" font-size="10.00">wmtk::operations::utils</text>
<text text-anchor="start" x="235" y="-403.5" font-family="Helvetica,sans-Serif" font-size="10.00">::UpdateEdgeOperationMultiMesh</text>
<text text-anchor="middle" x="317.5" y="-392.5" font-family="Helvetica,sans-Serif" font-size="10.00">MapFunctor::operator()</text>
</a>
</g>
</g>
<!-- Node2&#45;&gt;Node3 -->
<g id="edge2_Node000002_Node000003" class="edge">
<title>Node2&#45;&gt;Node3</title>
<g id="a_edge2_Node000002_Node000003"><a xlink:title=" ">
<path fill="none" stroke="#63b8ff" d="M501.74,-501.62C481.8,-481.82 450.29,-453.44 418,-436 411.57,-432.53 404.69,-429.4 397.65,-426.6"/>
<polygon fill="#63b8ff" stroke="#63b8ff" points="499.27,-504.1 508.79,-508.75 504.24,-499.18 499.27,-504.1"/>
</a>
</g>
</g>
<!-- Node4 -->
<g id="Node000004" class="node">
<title>Node4</title>
<g id="a_Node000004"><a xlink:href="classwmtk_1_1operations_1_1utils_1_1_update_edge_operation_multi_mesh_map_functor.html#a8784cdae3cf7a6f1ad6b5c361dd8fc03" target="_top" xlink:title=" ">
<polygon fill="white" stroke="#666666" points="408,-780.5 227,-780.5 227,-739.5 408,-739.5 408,-780.5"/>
<text text-anchor="start" x="235" y="-768.5" font-family="Helvetica,sans-Serif" font-size="10.00">wmtk::operations::utils</text>
<text text-anchor="start" x="235" y="-757.5" font-family="Helvetica,sans-Serif" font-size="10.00">::UpdateEdgeOperationMultiMesh</text>
<text text-anchor="middle" x="317.5" y="-746.5" font-family="Helvetica,sans-Serif" font-size="10.00">MapFunctor::operator()</text>
</a>
</g>
</g>
<!-- Node2&#45;&gt;Node4 -->
<g id="edge3_Node000002_Node000004" class="edge">
<title>Node2&#45;&gt;Node4</title>
<g id="a_edge3_Node000002_Node000004"><a xlink:title=" ">
<path fill="none" stroke="#63b8ff" d="M517.3,-548.86C506.03,-592.36 476.74,-682.28 418,-731 414.26,-734.1 410.2,-736.87 405.94,-739.35"/>
<polygon fill="#63b8ff" stroke="#63b8ff" points="520.71,-549.64 519.73,-539.09 513.92,-547.95 520.71,-549.64"/>
</a>
</g>
</g>
<!-- Node5 -->
<g id="Node000005" class="node">
<title>Node5</title>
<g id="a_Node000005"><a xlink:href="classwmtk_1_1operations_1_1utils_1_1_update_edge_operation_multi_mesh_map_functor.html#a756bab482d580d864f71439794990aac" target="_top" xlink:title=" ">
<polygon fill="white" stroke="#666666" points="408,-721.5 227,-721.5 227,-680.5 408,-680.5 408,-721.5"/>
<text text-anchor="start" x="235" y="-709.5" font-family="Helvetica,sans-Serif" font-size="10.00">wmtk::operations::utils</text>
<text text-anchor="start" x="235" y="-698.5" font-family="Helvetica,sans-Serif" font-size="10.00">::UpdateEdgeOperationMultiMesh</text>
<text text-anchor="middle" x="317.5" y="-687.5" font-family="Helvetica,sans-Serif" font-size="10.00">MapFunctor::operator()</text>
</a>
</g>
</g>
<!-- Node2&#45;&gt;Node5 -->
<g id="edge4_Node000002_Node000005" class="edge">
<title>Node2&#45;&gt;Node5</title>
<g id="a_edge4_Node000002_Node000005"><a xlink:title=" ">
<path fill="none" stroke="#63b8ff" d="M512.08,-548.5C496.13,-581.48 463.35,-639.71 418,-672 413.6,-675.13 408.87,-677.93 403.94,-680.42"/>
<polygon fill="#63b8ff" stroke="#63b8ff" points="515.39,-549.67 516.48,-539.14 509.06,-546.7 515.39,-549.67"/>
</a>
</g>
</g>
<!-- Node6 -->
<g id="Node000006" class="node">
<title>Node6</title>
<g id="a_Node000006"><a xlink:href="classwmtk_1_1operations_1_1utils_1_1_update_edge_operation_multi_mesh_map_functor.html#aac119196791985369035cec5059809fd" target="_top" xlink:title=" ">
<polygon fill="white" stroke="#666666" points="408,-662.5 227,-662.5 227,-621.5 408,-621.5 408,-662.5"/>
<text text-anchor="start" x="235" y="-650.5" font-family="Helvetica,sans-Serif" font-size="10.00">wmtk::operations::utils</text>
<text text-anchor="start" x="235" y="-639.5" font-family="Helvetica,sans-Serif" font-size="10.00">::UpdateEdgeOperationMultiMesh</text>
<text text-anchor="middle" x="317.5" y="-628.5" font-family="Helvetica,sans-Serif" font-size="10.00">MapFunctor::operator()</text>
</a>
</g>
</g>
<!-- Node2&#45;&gt;Node6 -->
<g id="edge5_Node000002_Node000006" class="edge">
<title>Node2&#45;&gt;Node6</title>
<g id="a_edge5_Node000002_Node000006"><a xlink:title=" ">
<path fill="none" stroke="#63b8ff" d="M502.17,-546.37C482.31,-566.47 450.66,-595.44 418,-613 412.22,-616.11 406.06,-618.92 399.75,-621.46"/>
<polygon fill="#63b8ff" stroke="#63b8ff" points="504.73,-548.76 509.18,-539.14 499.7,-543.88 504.73,-548.76"/>
</a>
</g>
</g>
<!-- Node7 -->
<g id="Node000007" class="node">
<title>Node7</title>
<g id="a_Node000007"><a xlink:href="classwmtk_1_1operations_1_1utils_1_1_update_edge_operation_multi_mesh_map_functor.html#a6f288597493f5914cf6d75e7a8674e70" target="_top" xlink:title=" ">
<polygon fill="white" stroke="#666666" points="408,-603.5 227,-603.5 227,-562.5 408,-562.5 408,-603.5"/>
<text text-anchor="start" x="235" y="-591.5" font-family="Helvetica,sans-Serif" font-size="10.00">wmtk::operations::utils</text>
<text text-anchor="start" x="235" y="-580.5" font-family="Helvetica,sans-Serif" font-size="10.00">::UpdateEdgeOperationMultiMesh</text>
<text text-anchor="middle" x="317.5" y="-569.5" font-family="Helvetica,sans-Serif" font-size="10.00">MapFunctor::operator()</text>
</a>
</g>
</g>
<!-- Node2&#45;&gt;Node7 -->
<g id="edge6_Node000002_Node000007" class="edge">
<title>Node2&#45;&gt;Node7</title>
<g id="a_edge6_Node000002_Node000007"><a xlink:title=" ">
<path fill="none" stroke="#63b8ff" d="M461.11,-541.86C438.63,-548.34 413.05,-555.72 389.83,-562.42"/>
<polygon fill="#63b8ff" stroke="#63b8ff" points="462.23,-545.18 470.87,-539.04 460.29,-538.45 462.23,-545.18"/>
</a>
</g>
</g>
<!-- Node8 -->
<g id="Node000008" class="node">
<title>Node8</title>
<g id="a_Node000008"><a xlink:href="namespacewmtk_1_1components.html#ae3a4b32383fdc9c2eb8334cc8ef947a5" target="_top" xlink:title="Perform shortest&#45;edge collapse on a triangular surface mesh.">
<polygon fill="white" stroke="#666666" points="407.5,-367 227.5,-367 227.5,-337 407.5,-337 407.5,-367"/>
<text text-anchor="start" x="235.5" y="-355" font-family="Helvetica,sans-Serif" font-size="10.00">wmtk::components::shortestedge</text>
<text text-anchor="middle" x="317.5" y="-344" font-family="Helvetica,sans-Serif" font-size="10.00">_collapse</text>
</a>
</g>
</g>
<!-- Node2&#45;&gt;Node8 -->
<g id="edge7_Node000002_Node000008" class="edge">
<title>Node2&#45;&gt;Node8</title>
<g id="a_edge7_Node000002_Node000008"><a xlink:title=" ">
<path fill="none" stroke="#63b8ff" d="M512.2,-499.42C496.4,-466.39 463.79,-408.22 418,-377 412.26,-373.09 405.96,-369.79 399.4,-367"/>
<polygon fill="#63b8ff" stroke="#63b8ff" points="509.18,-501.21 516.56,-508.81 515.52,-498.26 509.18,-501.21"/>
</a>
</g>
</g>
<!-- Node10 -->
<g id="Node000010" class="node">
<title>Node10</title>
<g id="a_Node000010"><a xlink:href="classwmtk_1_1operations_1_1utils_1_1_update_edge_operation_multi_mesh_map_functor.html#a572bd6605137e21189ac91b5290af06d" target="_top" xlink:title=" ">
<polygon fill="white" stroke="#666666" points="418,-544.5 217,-544.5 217,-503.5 418,-503.5 418,-544.5"/>
<text text-anchor="start" x="225" y="-532.5" font-family="Helvetica,sans-Serif" font-size="10.00">wmtk::operations::utils</text>
<text text-anchor="start" x="225" y="-521.5" font-family="Helvetica,sans-Serif" font-size="10.00">::UpdateEdgeOperationMultiMesh</text>
<text text-anchor="middle" x="317.5" y="-510.5" font-family="Helvetica,sans-Serif" font-size="10.00">MapFunctor::update_ear_replacement</text>
</a>
</g>
</g>
<!-- Node2&#45;&gt;Node10 -->
<g id="edge9_Node000002_Node000010" class="edge">
<title>Node2&#45;&gt;Node10</title>
<g id="a_edge9_Node000002_Node000010"><a xlink:title=" ">
<path fill="none" stroke="#63b8ff" d="M444.76,-524C436,-524 427,-524 418.02,-524"/>
<polygon fill="#63b8ff" stroke="#63b8ff" points="444.9,-527.5 454.9,-524 444.9,-520.5 444.9,-527.5"/>
</a>
</g>
</g>
<!-- Node11 -->
<g id="Node000011" class="node">
<title>Node11</title>
<g id="a_Node000011"><a xlink:href="classwmtk_1_1operations_1_1utils_1_1_update_edge_operation_multi_mesh_map_functor.html#a4c69338c29bf0105b1881d829a177d45" target="_top" xlink:title=" ">
<polygon fill="white" stroke="#666666" points="418,-485.5 217,-485.5 217,-444.5 418,-444.5 418,-485.5"/>
<text text-anchor="start" x="225" y="-473.5" font-family="Helvetica,sans-Serif" font-size="10.00">wmtk::operations::utils</text>
<text text-anchor="start" x="225" y="-462.5" font-family="Helvetica,sans-Serif" font-size="10.00">::UpdateEdgeOperationMultiMesh</text>
<text text-anchor="middle" x="317.5" y="-451.5" font-family="Helvetica,sans-Serif" font-size="10.00">MapFunctor::update_ear_replacement</text>
</a>
</g>
</g>
<!-- Node2&#45;&gt;Node11 -->
<g id="edge10_Node000002_Node000011" class="edge">
<title>Node2&#45;&gt;Node11</title>
<g id="a_edge10_Node000002_Node000011"><a xlink:title=" ">
<path fill="none" stroke="#63b8ff" d="M461.11,-506.14C438.63,-499.66 413.05,-492.28 389.83,-485.58"/>
<polygon fill="#63b8ff" stroke="#63b8ff" points="460.29,-509.55 470.87,-508.96 462.23,-502.82 460.29,-509.55"/>
</a>
</g>
</g>
<!-- Node9 -->
<g id="Node000009" class="node">
<title>Node9</title>
<g id="a_Node000009"><a xlink:href="namespacewmtk_1_1components.html#a3154cdbc6047eee67258b69cc7d5e7cf" target="_top" xlink:title="Perform shortest&#45;edge collapse on a triangular surface mesh.">
<polygon fill="white" stroke="#666666" points="180.5,-367 0.5,-367 0.5,-337 180.5,-337 180.5,-367"/>
<text text-anchor="start" x="8.5" y="-355" font-family="Helvetica,sans-Serif" font-size="10.00">wmtk::components::shortestedge</text>
<text text-anchor="middle" x="90.5" y="-344" font-family="Helvetica,sans-Serif" font-size="10.00">_collapse</text>
</a>
</g>
</g>
<!-- Node8&#45;&gt;Node9 -->
<g id="edge8_Node000008_Node000009" class="edge">
<title>Node8&#45;&gt;Node9</title>
<g id="a_edge8_Node000008_Node000009"><a xlink:title=" ">
<path fill="none" stroke="#63b8ff" d="M217.11,-352C204.97,-352 192.62,-352 180.64,-352"/>
<polygon fill="#63b8ff" stroke="#63b8ff" points="217.25,-355.5 227.25,-352 217.25,-348.5 217.25,-355.5"/>
</a>
</g>
</g>
<!-- Node12 -->
<g id="Node000012" class="node">
<title>Node12</title>
<g id="a_Node000012"><a xlink:href="classwmtk_1_1operations_1_1utils_1_1_update_edge_operation_multi_mesh_map_functor.html#a6f3a220b85044a73d43a4c124d099bbc" target="_top" xlink:title=" ">
<polygon fill="white" stroke="#666666" points="181,-455.5 0,-455.5 0,-414.5 181,-414.5 181,-455.5"/>
<text text-anchor="start" x="8" y="-443.5" font-family="Helvetica,sans-Serif" font-size="10.00">wmtk::operations::utils</text>
<text text-anchor="start" x="8" y="-432.5" font-family="Helvetica,sans-Serif" font-size="10.00">::UpdateEdgeOperationMultiMesh</text>
<text text-anchor="middle" x="90.5" y="-421.5" font-family="Helvetica,sans-Serif" font-size="10.00">MapFunctor::operator()</text>
</a>
</g>
</g>
<!-- Node11&#45;&gt;Node12 -->
<g id="edge11_Node000011_Node000012" class="edge">
<title>Node11&#45;&gt;Node12</title>
<g id="a_edge11_Node000011_Node000012"><a xlink:title=" ">
<path fill="none" stroke="#63b8ff" d="M206.78,-450.37C198.2,-449.23 189.6,-448.08 181.17,-446.96"/>
<polygon fill="#63b8ff" stroke="#63b8ff" points="206.45,-453.86 216.83,-451.71 207.38,-446.92 206.45,-453.86"/>
</a>
</g>
</g>
<!-- Node13 -->
<g id="Node000013" class="node">
<title>Node13</title>
<g id="a_Node000013"><a xlink:href="classwmtk_1_1operations_1_1utils_1_1_update_edge_operation_multi_mesh_map_functor.html#a57611fefa85bea3d1858ca385b0f350a" target="_top" xlink:title=" ">
<polygon fill="white" stroke="#666666" points="181,-514.5 0,-514.5 0,-473.5 181,-473.5 181,-514.5"/>
<text text-anchor="start" x="8" y="-502.5" font-family="Helvetica,sans-Serif" font-size="10.00">wmtk::operations::utils</text>
<text text-anchor="start" x="8" y="-491.5" font-family="Helvetica,sans-Serif" font-size="10.00">::UpdateEdgeOperationMultiMesh</text>
<text text-anchor="middle" x="90.5" y="-480.5" font-family="Helvetica,sans-Serif" font-size="10.00">MapFunctor::operator()</text>
</a>
</g>
</g>
<!-- Node11&#45;&gt;Node13 -->
<g id="edge12_Node000011_Node000013" class="edge">
<title>Node11&#45;&gt;Node13</title>
<g id="a_edge12_Node000011_Node000013"><a xlink:title=" ">
<path fill="none" stroke="#63b8ff" d="M206.78,-479.14C198.2,-480.25 189.6,-481.36 181.17,-482.44"/>
<polygon fill="#63b8ff" stroke="#63b8ff" points="207.36,-482.6 216.83,-477.85 206.46,-475.65 207.36,-482.6"/>
</a>
</g>
</g>
<!-- Node14&#45;&gt;Node8 -->
<g id="edge17_Node000014_Node000008" class="edge">
<title>Node14&#45;&gt;Node8</title>
<g id="a_edge17_Node000014_Node000008"><a xlink:title=" ">
<path fill="none" stroke="#63b8ff" d="M497.42,-277.51C477.08,-293.59 447.28,-314.96 418,-328 410.37,-331.4 402.19,-334.36 393.91,-336.92"/>
<polygon fill="#63b8ff" stroke="#63b8ff" points="499.66,-280.2 505.26,-271.2 495.27,-274.74 499.66,-280.2"/>
</a>
</g>
</g>
<!-- Node15 -->
<g id="Node000015" class="node">
<title>Node15</title>
<g id="a_Node000015"><a xlink:href="classwmtk_1_1_simplex_inversion_invariant.html#a1163728175bfbd4dc26f4861019ee591" target="_top" xlink:title="we assume with local vid order (v0,v1,v2,v3) has positive volume (orient3d(v0,v1,v2,...">
<polygon fill="white" stroke="#666666" points="407,-271 228,-271 228,-241 407,-241 407,-271"/>
<text text-anchor="start" x="236" y="-259" font-family="Helvetica,sans-Serif" font-size="10.00">wmtk::SimplexInversionInvariant</text>
<text text-anchor="middle" x="317.5" y="-248" font-family="Helvetica,sans-Serif" font-size="10.00">::after</text>
</a>
</g>
</g>
<!-- Node14&#45;&gt;Node15 -->
<g id="edge14_Node000014_Node000015" class="edge">
<title>Node14&#45;&gt;Node15</title>
<g id="a_edge14_Node000014_Node000015"><a xlink:title=" ">
<path fill="none" stroke="#63b8ff" d="M444.69,-256C432.37,-256 419.56,-256 407.04,-256"/>
<polygon fill="#63b8ff" stroke="#63b8ff" points="444.9,-259.5 454.9,-256 444.9,-252.5 444.9,-259.5"/>
</a>
</g>
</g>
<!-- Node16 -->
<g id="Node000016" class="node">
<title>Node16</title>
<g id="a_Node000016"><a xlink:href="namespacewmtk_1_1components.html#a12bd8646c56df6a1f46dba67ab86ebd7" target="_top" xlink:title=" ">
<polygon fill="white" stroke="#666666" points="398,-222.5 237,-222.5 237,-203.5 398,-203.5 398,-222.5"/>
<text text-anchor="middle" x="317.5" y="-210.5" font-family="Helvetica,sans-Serif" font-size="10.00">wmtk::components::delaunay</text>
</a>
</g>
</g>
<!-- Node14&#45;&gt;Node16 -->
<g id="edge15_Node000014_Node000016" class="edge">
<title>Node14&#45;&gt;Node16</title>
<g id="a_edge15_Node000014_Node000016"><a xlink:title=" ">
<path fill="none" stroke="#63b8ff" d="M449.04,-238.74C438.63,-236.42 428.05,-234.11 418,-232 402.51,-228.75 385.61,-225.44 370.21,-222.51"/>
<polygon fill="#63b8ff" stroke="#63b8ff" points="448.42,-242.19 458.95,-240.97 449.96,-235.36 448.42,-242.19"/>
</a>
</g>
</g>
<!-- Node17 -->
<g id="Node000017" class="node">
<title>Node17</title>
<g id="a_Node000017"><a xlink:href="namespacewmtk_1_1components.html#a2b581580b9722fc41792176832d20b57" target="_top" xlink:title=" ">
<polygon fill="white" stroke="#666666" points="390.5,-319 244.5,-319 244.5,-289 390.5,-289 390.5,-319"/>
<text text-anchor="start" x="252.5" y="-307" font-family="Helvetica,sans-Serif" font-size="10.00">wmtk::components::points</text>
<text text-anchor="middle" x="317.5" y="-296" font-family="Helvetica,sans-Serif" font-size="10.00">_to_rowvectors</text>
</a>
</g>
</g>
<!-- Node14&#45;&gt;Node17 -->
<g id="edge16_Node000014_Node000017" class="edge">
<title>Node14&#45;&gt;Node17</title>
<g id="a_edge16_Node000014_Node000017"><a xlink:title=" ">
<path fill="none" stroke="#63b8ff" d="M448.99,-273.37C427.19,-278.49 403.53,-284.04 382.42,-289"/>
<polygon fill="#63b8ff" stroke="#63b8ff" points="449.92,-276.75 458.86,-271.06 448.32,-269.93 449.92,-276.75"/>
</a>
</g>
</g>
<!-- Node19 -->
<g id="Node000019" class="node">
<title>Node19</title>
<g id="a_Node000019"><a xlink:href="classwmtk_1_1_mesh_c_r_t_p.html#aa2fdf40173bc0169bd933235a00ded4b" target="_top" xlink:title="variant of id that can cache internally held values">
<polygon fill="white" stroke="#666666" points="375.5,-136.5 259.5,-136.5 259.5,-117.5 375.5,-117.5 375.5,-136.5"/>
<text text-anchor="middle" x="317.5" y="-124.5" font-family="Helvetica,sans-Serif" font-size="10.00">wmtk::MeshCRTP::id</text>
</a>
</g>
</g>
<!-- Node18&#45;&gt;Node19 -->
<g id="edge19_Node000018_Node000019" class="edge">
<title>Node18&#45;&gt;Node19</title>
<g id="a_edge19_Node000018_Node000019"><a xlink:title=" ">
<path fill="none" stroke="#63b8ff" d="M468.8,-179.19C463.7,-177.36 458.69,-175.3 454,-173 436.04,-164.19 436.29,-154.08 418,-146 404.81,-140.17 389.86,-136.13 375.63,-133.32"/>
<polygon fill="#63b8ff" stroke="#63b8ff" points="468.06,-182.63 478.66,-182.44 470.26,-175.99 468.06,-182.63"/>
</a>
</g>
</g>
<!-- Node20 -->
<g id="Node000020" class="node">
<title>Node20</title>
<g id="a_Node000020"><a xlink:href="classwmtk_1_1_mesh_c_r_t_p.html#a09b6f5adf237950ddef0f8d78abe4089" target="_top" xlink:title="internal utility for overriding the mesh class&#39;s id function without having the final override block ...">
<polygon fill="white" stroke="#666666" points="375.5,-185 259.5,-185 259.5,-155 375.5,-155 375.5,-185"/>
<text text-anchor="start" x="267.5" y="-173" font-family="Helvetica,sans-Serif" font-size="10.00">wmtk::MeshCRTP::id</text>
<text text-anchor="middle" x="317.5" y="-162" font-family="Helvetica,sans-Serif" font-size="10.00">_virtual</text>
</a>
</g>
</g>
<!-- Node18&#45;&gt;Node20 -->
<g id="edge20_Node000018_Node000020" class="edge">
<title>Node18&#45;&gt;Node20</title>
<g id="a_edge20_Node000018_Node000020"><a xlink:title=" ">
<path fill="none" stroke="#63b8ff" d="M455.66,-184.76C429.8,-181.97 400.55,-178.83 375.72,-176.16"/>
<polygon fill="#63b8ff" stroke="#63b8ff" points="455.45,-188.25 465.76,-185.84 456.2,-181.29 455.45,-188.25"/>
</a>
</g>
</g>
</g>
</svg>
