<?xml version="1.0" encoding="UTF-8" standalone="no"?>
<!DOCTYPE svg PUBLIC "-//W3C//DTD SVG 1.1//EN"
 "http://www.w3.org/Graphics/SVG/1.1/DTD/svg11.dtd">
<!-- Generated by graphviz version 2.43.0 (0)
 -->
<!-- Title: wmtk::EdgeMesh::is_ccw Pages: 1 -->
<svg width="630pt" height="82pt"
 viewBox="0.00 0.00 630.00 82.00" xmlns="http://www.w3.org/2000/svg" xmlns:xlink="http://www.w3.org/1999/xlink">
<g id="graph0" class="graph" transform="scale(1 1) rotate(0) translate(4 78)">
<title>wmtk::EdgeMesh::is_ccw</title>
<!-- Node1 -->
<g id="Node000001" class="node">
<title>Node1</title>
<g id="a_Node000001"><a xlink:title="TODO this needs dimension?">
<polygon fill="#999999" stroke="#666666" points="139,-46 0,-46 0,-27 139,-27 139,-46"/>
<text text-anchor="middle" x="69.5" y="-34" font-family="Helvetica,sans-Serif" font-size="10.00">wmtk::EdgeMesh::is_ccw</text>
</a>
</g>
</g>
<!-- Node2 -->
<g id="Node000002" class="node">
<title>Node2</title>
<g id="a_Node000002"><a xlink:href="classwmtk_1_1_edge_mesh.html#acd802c89cf0cba9c312a8e7ecfa11c80" target="_top" xlink:title="check validity of tuple including its hash">
<polygon fill="white" stroke="#666666" points="290,-51.5 175,-51.5 175,-21.5 290,-21.5 290,-51.5"/>
<text text-anchor="start" x="183" y="-39.5" font-family="Helvetica,sans-Serif" font-size="10.00">wmtk::EdgeMesh::is</text>
<text text-anchor="middle" x="232.5" y="-28.5" font-family="Helvetica,sans-Serif" font-size="10.00">_valid</text>
</a>
</g>
</g>
<!-- Node1&#45;&gt;Node2 -->
<g id="edge1_Node000001_Node000002" class="edge">
<title>Node1&#45;&gt;Node2</title>
<g id="a_edge1_Node000001_Node000002"><a xlink:title=" ">
<path fill="none" stroke="#63b8ff" d="M139.25,-36.5C147.63,-36.5 156.19,-36.5 164.55,-36.5"/>
<polygon fill="#63b8ff" stroke="#63b8ff" points="164.62,-40 174.62,-36.5 164.62,-33 164.62,-40"/>
</a>
</g>
</g>
<!-- Node3 -->
<g id="Node000003" class="node">
<title>Node3</title>
<g id="a_Node000003"><a xlink:href="classwmtk_1_1_mesh.html#a8cc8686f0688613806f43720b6db49e7" target="_top" xlink:title="check validity of tuple including its hash">
<polygon fill="white" stroke="#666666" points="446,-46 326,-46 326,-27 446,-27 446,-46"/>
<text text-anchor="middle" x="386" y="-34" font-family="Helvetica,sans-Serif" font-size="10.00">wmtk::Mesh::is_valid</text>
</a>
</g>
</g>
<!-- Node2&#45;&gt;Node3 -->
<g id="edge2_Node000002_Node000003" class="edge">
<title>Node2&#45;&gt;Node3</title>
<g id="a_edge2_Node000002_Node000003"><a xlink:title=" ">
<path fill="none" stroke="#63b8ff" d="M290.34,-36.5C298.58,-36.5 307.14,-36.5 315.59,-36.5"/>
<polygon fill="#63b8ff" stroke="#63b8ff" points="315.81,-40 325.81,-36.5 315.81,-33 315.81,-40"/>
</a>
</g>
</g>
<!-- Node4 -->
<g id="Node000004" class="node">
<title>Node4</title>
<g id="a_Node000004"><a xlink:href="classwmtk_1_1_tuple.html#a0023f575be92cd5ceeeaaaa3762ea06d" target="_top" xlink:title="Checks if a tuple is &quot;null&quot;. This merely implies the global index is &#45;1.">
<polygon fill="white" stroke="#666666" points="608.5,-74 495.5,-74 495.5,-55 608.5,-55 608.5,-74"/>
<text text-anchor="middle" x="552" y="-62" font-family="Helvetica,sans-Serif" font-size="10.00">wmtk::Tuple::is_null</text>
</a>
</g>
</g>
<!-- Node3&#45;&gt;Node4 -->
<g id="edge3_Node000003_Node000004" class="edge">
<title>Node3&#45;&gt;Node4</title>
<g id="a_edge3_Node000003_Node000004"><a xlink:title=" ">
<path fill="none" stroke="#63b8ff" d="M442.98,-46.06C456.57,-48.38 471.22,-50.88 485.22,-53.27"/>
<polygon fill="#63b8ff" stroke="#63b8ff" points="484.83,-56.75 495.27,-54.99 486,-49.85 484.83,-56.75"/>
</a>
</g>
</g>
<!-- Node5 -->
<g id="Node000005" class="node">
<title>Node5</title>
<g id="a_Node000005"><a xlink:href="classwmtk_1_1_mesh.html#ade176d345902d97af8c5da04aa3a095b" target="_top" xlink:title=" ">
<polygon fill="white" stroke="#666666" points="622,-19 482,-19 482,0 622,0 622,-19"/>
<text text-anchor="middle" x="552" y="-7" font-family="Helvetica,sans-Serif" font-size="10.00">wmtk::Mesh::is_removed</text>
</a>
</g>
</g>
<!-- Node3&#45;&gt;Node5 -->
<g id="edge4_Node000003_Node000005" class="edge">
<title>Node3&#45;&gt;Node5</title>
<g id="a_edge4_Node000003_Node000005"><a xlink:title=" ">
<path fill="none" stroke="#63b8ff" d="M444.82,-26.98C457.19,-24.94 470.37,-22.77 483.08,-20.68"/>
<polygon fill="#63b8ff" stroke="#63b8ff" points="483.85,-24.1 493.15,-19.02 482.71,-17.2 483.85,-24.1"/>
</a>
</g>
</g>
<!-- Node5&#45;&gt;Node5 -->
<g id="edge5_Node000005_Node000005" class="edge">
<title>Node5&#45;&gt;Node5</title>
<g id="a_edge5_Node000005_Node000005"><a xlink:title=" ">
<path fill="none" stroke="#63b8ff" d="M526.41,-19.08C513.97,-27.73 522.5,-37 552,-37 571.36,-37 581.69,-33.01 582.99,-27.82"/>
<polygon fill="#63b8ff" stroke="#63b8ff" points="585.82,-25.75 577.59,-19.08 579.87,-29.43 585.82,-25.75"/>
</a>
</g>
</g>
</g>
</svg>
