<?xml version="1.0" encoding="UTF-8" standalone="no"?>
<!DOCTYPE svg PUBLIC "-//W3C//DTD SVG 1.1//EN"
 "http://www.w3.org/Graphics/SVG/1.1/DTD/svg11.dtd">
<!-- Generated by graphviz version 2.43.0 (0)
 -->
<!-- Title: wmtk::multimesh::utils::internal::TupleTag::extract_and_register_child_mesh_from_tag_handle Pages: 1 -->
<svg width="750pt" height="201pt"
 viewBox="0.00 0.00 750.00 200.50" xmlns="http://www.w3.org/2000/svg" xmlns:xlink="http://www.w3.org/1999/xlink">
<g id="graph0" class="graph" transform="scale(1 1) rotate(0) translate(4 196.5)">
<title>wmtk::multimesh::utils::internal::TupleTag::extract_and_register_child_mesh_from_tag_handle</title>
<!-- Node1 -->
<g id="Node000001" class="node">
<title>Node1</title>
<g id="a_Node000001"><a xlink:title=" ">
<polygon fill="#999999" stroke="#666666" points="742,-97 596,-97 596,-45 742,-45 742,-97"/>
<text text-anchor="start" x="604" y="-85" font-family="Helvetica,sans-Serif" font-size="10.00">wmtk::multimesh::utils</text>
<text text-anchor="start" x="604" y="-74" font-family="Helvetica,sans-Serif" font-size="10.00">::internal::TupleTag::</text>
<text text-anchor="start" x="604" y="-63" font-family="Helvetica,sans-Serif" font-size="10.00">extract_and_register_child</text>
<text text-anchor="middle" x="669" y="-52" font-family="Helvetica,sans-Serif" font-size="10.00">_mesh_from_tag_handle</text>
</a>
</g>
</g>
<!-- Node2 -->
<g id="Node000002" class="node">
<title>Node2</title>
<g id="a_Node000002"><a xlink:href="namespacewmtk_1_1multimesh_1_1utils.html#a7abce025022d68cda1ab1de2663865df" target="_top" xlink:title="extract a child mesh based on the tag handle and the tag value, and register it to the input (parent)...">
<polygon fill="white" stroke="#666666" points="542.5,-121.5 412.5,-121.5 412.5,-80.5 542.5,-80.5 542.5,-121.5"/>
<text text-anchor="start" x="420.5" y="-109.5" font-family="Helvetica,sans-Serif" font-size="10.00">wmtk::multimesh::utils</text>
<text text-anchor="start" x="420.5" y="-98.5" font-family="Helvetica,sans-Serif" font-size="10.00">::extract_and_register</text>
<text text-anchor="middle" x="477.5" y="-87.5" font-family="Helvetica,sans-Serif" font-size="10.00">_child_mesh_from_tag</text>
</a>
</g>
</g>
<!-- Node1&#45;&gt;Node2 -->
<g id="edge1_Node000001_Node000002" class="edge">
<title>Node1&#45;&gt;Node2</title>
<g id="a_edge1_Node000001_Node000002"><a xlink:title=" ">
<path fill="none" stroke="#63b8ff" d="M585.89,-84C571.44,-86.29 556.6,-88.64 542.72,-90.83"/>
<polygon fill="#63b8ff" stroke="#63b8ff" points="586.49,-87.45 595.82,-82.43 585.39,-80.53 586.49,-87.45"/>
</a>
</g>
</g>
<!-- Node3 -->
<g id="Node000003" class="node">
<title>Node3</title>
<g id="a_Node000003"><a xlink:href="namespacewmtk_1_1multimesh_1_1utils.html#a3884bf7da96f02deb13cc2b7c8b3629e" target="_top" xlink:title="extract a child mesh based on the tag handle and the tag value, and register it to the input (parent)...">
<polygon fill="white" stroke="#666666" points="560,-62.5 395,-62.5 395,-21.5 560,-21.5 560,-62.5"/>
<text text-anchor="start" x="403" y="-50.5" font-family="Helvetica,sans-Serif" font-size="10.00">wmtk::multimesh::utils</text>
<text text-anchor="start" x="403" y="-39.5" font-family="Helvetica,sans-Serif" font-size="10.00">::extract_and_register</text>
<text text-anchor="middle" x="477.5" y="-28.5" font-family="Helvetica,sans-Serif" font-size="10.00">_child_mesh_from_tag_handle</text>
</a>
</g>
</g>
<!-- Node1&#45;&gt;Node3 -->
<g id="edge2_Node000001_Node000003" class="edge">
<title>Node1&#45;&gt;Node3</title>
<g id="a_edge2_Node000001_Node000003"><a xlink:title=" ">
<path fill="none" stroke="#63b8ff" d="M585.92,-58.44C577.43,-57.14 568.79,-55.82 560.3,-54.52"/>
<polygon fill="#63b8ff" stroke="#63b8ff" points="585.4,-61.9 595.82,-59.95 586.46,-54.98 585.4,-61.9"/>
</a>
</g>
</g>
<!-- Node4 -->
<g id="Node000004" class="node">
<title>Node4</title>
<g id="a_Node000004"><a xlink:href="namespacewmtk_1_1multimesh_1_1utils.html#a4c77e0353f0106b750a18d225d22cd8a" target="_top" xlink:title="extract a child mesh based on the given tag and tag value, and register it to the input (parent) mesh">
<polygon fill="white" stroke="#666666" points="347,-89.5 217,-89.5 217,-48.5 347,-48.5 347,-89.5"/>
<text text-anchor="start" x="225" y="-77.5" font-family="Helvetica,sans-Serif" font-size="10.00">wmtk::multimesh::utils</text>
<text text-anchor="start" x="225" y="-66.5" font-family="Helvetica,sans-Serif" font-size="10.00">::extract_and_register</text>
<text text-anchor="middle" x="282" y="-55.5" font-family="Helvetica,sans-Serif" font-size="10.00">_child_mesh_from_tag</text>
</a>
</g>
</g>
<!-- Node3&#45;&gt;Node4 -->
<g id="edge3_Node000003_Node000004" class="edge">
<title>Node3&#45;&gt;Node4</title>
<g id="a_edge3_Node000003_Node000004"><a xlink:title=" ">
<path fill="none" stroke="#63b8ff" d="M384.81,-54.79C372.05,-56.57 359.17,-58.37 347.07,-60.06"/>
<polygon fill="#63b8ff" stroke="#63b8ff" points="385.58,-58.22 395,-53.37 384.61,-51.29 385.58,-58.22"/>
</a>
</g>
</g>
<!-- Node9 -->
<g id="Node000009" class="node">
<title>Node9</title>
<g id="a_Node000009"><a xlink:href="namespacewmtk_1_1components.html#a9d6d11e3b7ba03911492ecfc79622247" target="_top" xlink:title=" ">
<polygon fill="white" stroke="#666666" points="359,-30 205,-30 205,0 359,0 359,-30"/>
<text text-anchor="start" x="213" y="-18" font-family="Helvetica,sans-Serif" font-size="10.00">wmtk::components::triangle</text>
<text text-anchor="middle" x="282" y="-7" font-family="Helvetica,sans-Serif" font-size="10.00">_insertion</text>
</a>
</g>
</g>
<!-- Node3&#45;&gt;Node9 -->
<g id="edge10_Node000003_Node000009" class="edge">
<title>Node3&#45;&gt;Node9</title>
<g id="a_edge10_Node000003_Node000009"><a xlink:title=" ">
<path fill="none" stroke="#63b8ff" d="M384.92,-29.22C376.3,-28.02 367.62,-26.81 359.16,-25.63"/>
<polygon fill="#63b8ff" stroke="#63b8ff" points="384.61,-32.71 395,-30.63 385.58,-25.78 384.61,-32.71"/>
</a>
</g>
</g>
<!-- Node5 -->
<g id="Node000005" class="node">
<title>Node5</title>
<g id="a_Node000005"><a xlink:href="namespacewmtk_1_1utils.html#a4ea0d7c148b4066c6692a8e31c7b7b7a" target="_top" xlink:title=" ">
<polygon fill="white" stroke="#666666" points="161,-174.5 8,-174.5 8,-133.5 161,-133.5 161,-174.5"/>
<text text-anchor="start" x="16" y="-162.5" font-family="Helvetica,sans-Serif" font-size="10.00">wmtk::utils::generate</text>
<text text-anchor="start" x="16" y="-151.5" font-family="Helvetica,sans-Serif" font-size="10.00">_raw_tetmesh_with_surface</text>
<text text-anchor="middle" x="84.5" y="-140.5" font-family="Helvetica,sans-Serif" font-size="10.00">_from_input</text>
</a>
</g>
</g>
<!-- Node4&#45;&gt;Node5 -->
<g id="edge4_Node000004_Node000005" class="edge">
<title>Node4&#45;&gt;Node5</title>
<g id="a_edge4_Node000004_Node000005"><a xlink:title=" ">
<path fill="none" stroke="#63b8ff" d="M233.86,-94.27C214.1,-104.42 190.7,-115.85 169,-125 162.21,-127.86 155.03,-130.67 147.85,-133.34"/>
<polygon fill="#63b8ff" stroke="#63b8ff" points="235.69,-97.26 242.96,-89.56 232.47,-91.05 235.69,-97.26"/>
</a>
</g>
</g>
<!-- Node6 -->
<g id="Node000006" class="node">
<title>Node6</title>
<g id="a_Node000006"><a xlink:href="namespacewmtk_1_1components.html#a52f9ca12856b67dee17249c6172e2bbe" target="_top" xlink:title=" ">
<polygon fill="white" stroke="#666666" points="169,-97.5 0,-97.5 0,-78.5 169,-78.5 169,-97.5"/>
<text text-anchor="middle" x="84.5" y="-85.5" font-family="Helvetica,sans-Serif" font-size="10.00">wmtk::components::multimesh</text>
</a>
</g>
</g>
<!-- Node4&#45;&gt;Node6 -->
<g id="edge6_Node000004_Node000006" class="edge">
<title>Node4&#45;&gt;Node6</title>
<g id="a_edge6_Node000004_Node000006"><a xlink:title=" ">
<path fill="none" stroke="#63b8ff" d="M206.81,-76.21C194.53,-77.4 181.73,-78.65 169.23,-79.86"/>
<polygon fill="#63b8ff" stroke="#63b8ff" points="207.37,-79.67 216.99,-75.22 206.69,-72.71 207.37,-79.67"/>
</a>
</g>
</g>
<!-- Node7 -->
<g id="Node000007" class="node">
<title>Node7</title>
<g id="a_Node000007"><a xlink:href="test__component__isotropic__remeshing_8cpp.html#aae475685ae29b731655dd43137a950d6" target="_top" xlink:title=" ">
<polygon fill="white" stroke="#666666" points="120,-60.5 49,-60.5 49,-41.5 120,-41.5 120,-60.5"/>
<text text-anchor="middle" x="84.5" y="-48.5" font-family="Helvetica,sans-Serif" font-size="10.00">TEST_CASE</text>
</a>
</g>
</g>
<!-- Node4&#45;&gt;Node7 -->
<g id="edge8_Node000004_Node000007" class="edge">
<title>Node4&#45;&gt;Node7</title>
<g id="a_edge8_Node000004_Node000007"><a xlink:title=" ">
<path fill="none" stroke="#63b8ff" d="M206.99,-62.19C177.11,-59.43 144.08,-56.39 120.01,-54.18"/>
<polygon fill="#63b8ff" stroke="#63b8ff" points="206.71,-65.67 216.99,-63.11 207.35,-58.7 206.71,-65.67"/>
</a>
</g>
</g>
<!-- Node8 -->
<g id="Node000008" class="node">
<title>Node8</title>
<g id="a_Node000008"><a xlink:href="test__component__isotropic__remeshing_8cpp.html#ab3fcea88943daf212aeeda03eb0baa8b" target="_top" xlink:title=" ">
<polygon fill="white" stroke="#666666" points="120,-23.5 49,-23.5 49,-4.5 120,-4.5 120,-23.5"/>
<text text-anchor="middle" x="84.5" y="-11.5" font-family="Helvetica,sans-Serif" font-size="10.00">TEST_CASE</text>
</a>
</g>
</g>
<!-- Node4&#45;&gt;Node8 -->
<g id="edge9_Node000004_Node000008" class="edge">
<title>Node4&#45;&gt;Node8</title>
<g id="a_edge9_Node000004_Node000008"><a xlink:title=" ">
<path fill="none" stroke="#63b8ff" d="M212.83,-45.19C198.44,-40.53 183.29,-35.89 169,-32 153.12,-27.68 135.31,-23.72 120.23,-20.62"/>
<polygon fill="#63b8ff" stroke="#63b8ff" points="212.06,-48.62 222.65,-48.42 214.24,-41.97 212.06,-48.62"/>
</a>
</g>
</g>
<!-- Node5&#45;&gt;Node5 -->
<g id="edge5_Node000005_Node000005" class="edge">
<title>Node5&#45;&gt;Node5</title>
<g id="a_edge5_Node000005_Node000005"><a xlink:title=" ">
<path fill="none" stroke="#63b8ff" d="M118.22,-184.46C113.21,-189.24 101.97,-192.5 84.5,-192.5 56.55,-192.5 44.55,-184.15 48.48,-174.6"/>
<polygon fill="#63b8ff" stroke="#63b8ff" points="121.66,-185.13 120.52,-174.6 114.84,-183.54 121.66,-185.13"/>
</a>
</g>
</g>
<!-- Node6&#45;&gt;Node6 -->
<g id="edge7_Node000006_Node000006" class="edge">
<title>Node6&#45;&gt;Node6</title>
<g id="a_edge7_Node000006_Node000006"><a xlink:title=" ">
<path fill="none" stroke="#63b8ff" d="M121.25,-105.19C121.24,-110.92 108.99,-115.5 84.5,-115.5 49.66,-115.5 39.59,-106.23 54.29,-97.58"/>
<polygon fill="#63b8ff" stroke="#63b8ff" points="123.88,-102.88 114.71,-97.58 118.57,-107.45 123.88,-102.88"/>
</a>
</g>
</g>
</g>
</svg>
