<?xml version="1.0" encoding="UTF-8" standalone="no"?>
<!DOCTYPE svg PUBLIC "-//W3C//DTD SVG 1.1//EN"
 "http://www.w3.org/Graphics/SVG/1.1/DTD/svg11.dtd">
<!-- Generated by graphviz version 2.43.0 (0)
 -->
<!-- Title: wmtk::multimesh::MultiMeshManager::map_to_root Pages: 1 -->
<!--zoomable 516 -->

<svg id="main" version="1.1" xmlns="http://www.w3.org/2000/svg" xmlns:xlink="http://www.w3.org/1999/xlink" xml:space="preserve" onload="init(evt)">
<style type="text/css"><![CDATA[
.node, .edge {opacity: 0.7;}
.node.selected, .edge.selected {opacity: 1;}
.edge:hover path { stroke: red; }
.edge:hover polygon { stroke: red; fill: red; }
]]></style>

<defs>
  <circle id="rim" cx="0" cy="0" r="7"/>
  <circle id="rim2" cx="0" cy="0" r="3.5"/>
  <g id="zoomPlus">
    <use xlink:href="#rim" fill="#404040"><set attributeName="fill" to="#808080" begin="zoomplus.mouseover" end="zoomplus.mouseout"/></use>
    <path d="M-4,0h8M0,-4v8" fill="none" stroke="white" stroke-width="1.5" pointer-events="none"/>
  </g>
  <g id="zoomMin">
    <use xlink:href="#rim" fill="#404040"><set attributeName="fill" to="#808080" begin="zoomminus.mouseover" end="zoomminus.mouseout"/></use>
    <path d="M-4,0h8" fill="none" stroke="white" stroke-width="1.5" pointer-events="none"/>
  </g>
  <g id="arrowUp" transform="translate(30 24)">
    <use xlink:href="#rim"/>
    <path pointer-events="none" fill="none" stroke="white" stroke-width="1.5" d="M0,-3.0v7 M-2.5,-0.5L0,-3.0L2.5,-0.5"/>
  </g>
  <g id="arrowRight" transform="rotate(90) translate(36 -43)">
    <use xlink:href="#rim"/>
    <path pointer-events="none" fill="none" stroke="white" stroke-width="1.5" d="M0,-3.0v7 M-2.5,-0.5L0,-3.0L2.5,-0.5"/>
  </g>
  <g id="arrowDown" transform="rotate(180) translate(-30 -48)">
    <use xlink:href="#rim"/>
    <path pointer-events="none" fill="none" stroke="white" stroke-width="1.5" d="M0,-3.0v7 M-2.5,-0.5L0,-3.0L2.5,-0.5"/>
  </g>
  <g id="arrowLeft" transform="rotate(270) translate(-36 17)">
    <use xlink:href="#rim"/>
    <path pointer-events="none" fill="none" stroke="white" stroke-width="1.5" d="M0,-3.0v7 M-2.5,-0.5L0,-3.0L2.5,-0.5"/>
  </g>
  <g id="resetDef">
    <use xlink:href="#rim2" fill="#404040"><set attributeName="fill" to="#808080" begin="reset.mouseover" end="reset.mouseout"/></use>
  </g>
</defs>
<script type="application/ecmascript">
var viewWidth = 1770;
var viewHeight = 516;
var sectionId = 'dynsection-64';
</script>
<script type="application/ecmascript" xlink:href="svg.min.js"/>
<svg id="graph" class="graph">
<g id="viewport">
<title>wmtk::multimesh::MultiMeshManager::map_to_root</title>
<!-- Node1 -->
<g id="Node000001" class="node">
<title>Node1</title>
<g id="a_Node000001"><a xlink:title="maps a simplex from this mesh to the root mesh">
<polygon fill="#999999" stroke="#666666" points="160,-277 0,-277 0,-247 160,-247 160,-277"/>
<text text-anchor="start" x="8" y="-265" font-family="Helvetica,sans-Serif" font-size="10.00">wmtk::multimesh::MultiMesh</text>
<text text-anchor="middle" x="80" y="-254" font-family="Helvetica,sans-Serif" font-size="10.00">Manager::map_to_root</text>
</a>
</g>
</g>
<!-- Node2 -->
<g id="Node000002" class="node">
<title>Node2</title>
<g id="a_Node000002"><a xlink:href="classwmtk_1_1multimesh_1_1_multi_mesh_manager.html#a434e74f6b295055a45914d41a784124a" target="_top" xlink:title=" ">
<polygon fill="white" stroke="#666666" points="794.5,-375 634.5,-375 634.5,-345 794.5,-345 794.5,-375"/>
<text text-anchor="start" x="642.5" y="-363" font-family="Helvetica,sans-Serif" font-size="10.00">wmtk::multimesh::MultiMesh</text>
<text text-anchor="middle" x="714.5" y="-352" font-family="Helvetica,sans-Serif" font-size="10.00">Manager::get_root_mesh</text>
</a>
</g>
</g>
<!-- Node1&#45;&gt;Node2 -->
<g id="edge1_Node000001_Node000002" class="edge">
<title>Node1&#45;&gt;Node2</title>
<g id="a_edge1_Node000001_Node000002"><a xlink:title=" ">
<path fill="none" stroke="#63b8ff" d="M142,-277.02C204.44,-291.91 304.46,-314.4 392,-328 470,-340.12 559.39,-348.58 624.08,-353.75"/>
<polygon fill="#63b8ff" stroke="#63b8ff" points="624.01,-357.26 634.25,-354.55 624.55,-350.28 624.01,-357.26"/>
</a>
</g>
</g>
<!-- Node4 -->
<g id="Node000004" class="node">
<title>Node4</title>
<g id="a_Node000004"><a xlink:href="classwmtk_1_1multimesh_1_1_multi_mesh_manager.html#a04ea5ec1326046461d38b0dd74ded250" target="_top" xlink:title="maps a simplex from this mesh to the root mesh">
<polygon fill="white" stroke="#666666" points="356,-277 196,-277 196,-247 356,-247 356,-277"/>
<text text-anchor="start" x="204" y="-265" font-family="Helvetica,sans-Serif" font-size="10.00">wmtk::multimesh::MultiMesh</text>
<text text-anchor="middle" x="276" y="-254" font-family="Helvetica,sans-Serif" font-size="10.00">Manager::map_to_root_tuple</text>
</a>
</g>
</g>
<!-- Node1&#45;&gt;Node4 -->
<g id="edge4_Node000001_Node000004" class="edge">
<title>Node1&#45;&gt;Node4</title>
<g id="a_edge4_Node000001_Node000004"><a xlink:title=" ">
<path fill="none" stroke="#63b8ff" d="M160.19,-262C168.53,-262 177.05,-262 185.5,-262"/>
<polygon fill="#63b8ff" stroke="#63b8ff" points="185.75,-265.5 195.75,-262 185.75,-258.5 185.75,-265.5"/>
</a>
</g>
</g>
<!-- Node23 -->
<g id="Node000023" class="node">
<title>Node23</title>
<g id="a_Node000023"><a xlink:href="classwmtk_1_1simplex_1_1_simplex.html#ad2cc0340a0772b7d6f03ba7a781d1163" target="_top" xlink:title=" ">
<polygon fill="white" stroke="#666666" points="1471.5,-30 1336.5,-30 1336.5,0 1471.5,0 1471.5,-30"/>
<text text-anchor="start" x="1344.5" y="-18" font-family="Helvetica,sans-Serif" font-size="10.00">wmtk::simplex::Simplex</text>
<text text-anchor="middle" x="1404" y="-7" font-family="Helvetica,sans-Serif" font-size="10.00">::primitive_type</text>
</a>
</g>
</g>
<!-- Node1&#45;&gt;Node23 -->
<g id="edge34_Node000001_Node000023" class="edge">
<title>Node1&#45;&gt;Node23</title>
<g id="a_edge34_Node000001_Node000023"><a xlink:title=" ">
<path fill="none" stroke="#63b8ff" d="M94.32,-246.94C141.75,-195.08 308.99,-27 484.5,-27 484.5,-27 484.5,-27 955,-27 1085.36,-27 1236.98,-21.86 1326.19,-18.31"/>
<polygon fill="#63b8ff" stroke="#63b8ff" points="1326.37,-21.8 1336.22,-17.9 1326.09,-14.81 1326.37,-21.8"/>
</a>
</g>
</g>
<!-- Node2&#45;&gt;Node2 -->
<g id="edge2_Node000002_Node000002" class="edge">
<title>Node2&#45;&gt;Node2</title>
<g id="a_edge2_Node000002_Node000002"><a xlink:title=" ">
<path fill="none" stroke="#63b8ff" d="M674.42,-375.28C665.52,-384.41 678.88,-393 714.5,-393 735.65,-393 748.96,-389.97 754.41,-385.6"/>
<polygon fill="#63b8ff" stroke="#63b8ff" points="757.91,-385.33 754.58,-375.28 750.91,-385.22 757.91,-385.33"/>
</a>
</g>
</g>
<!-- Node3 -->
<g id="Node000003" class="node">
<title>Node3</title>
<g id="a_Node000003"><a xlink:href="classwmtk_1_1multimesh_1_1_multi_mesh_manager.html#a7d39339adb56b1798fe817d81bfcc67c" target="_top" xlink:title="Specifies whether this structure is the root of a multi&#45;mesh tree.">
<polygon fill="white" stroke="#666666" points="1034,-356 874,-356 874,-326 1034,-326 1034,-356"/>
<text text-anchor="start" x="882" y="-344" font-family="Helvetica,sans-Serif" font-size="10.00">wmtk::multimesh::MultiMesh</text>
<text text-anchor="middle" x="954" y="-333" font-family="Helvetica,sans-Serif" font-size="10.00">Manager::is_root</text>
</a>
</g>
</g>
<!-- Node2&#45;&gt;Node3 -->
<g id="edge3_Node000002_Node000003" class="edge">
<title>Node2&#45;&gt;Node3</title>
<g id="a_edge3_Node000002_Node000003"><a xlink:title=" ">
<path fill="none" stroke="#63b8ff" d="M794.58,-353.67C816.8,-351.9 841.11,-349.95 863.87,-348.13"/>
<polygon fill="#63b8ff" stroke="#63b8ff" points="864.17,-351.62 873.86,-347.33 863.61,-344.64 864.17,-351.62"/>
</a>
</g>
</g>
<!-- Node5 -->
<g id="Node000005" class="node">
<title>Node5</title>
<g id="a_Node000005"><a xlink:href="classwmtk_1_1multimesh_1_1_multi_mesh_manager.html#abbd5b4aab00a9ebb113bc6fe5bb635bd" target="_top" xlink:title=" ">
<polygon fill="white" stroke="#666666" points="579,-301 392,-301 392,-271 579,-271 579,-301"/>
<text text-anchor="start" x="400" y="-289" font-family="Helvetica,sans-Serif" font-size="10.00">wmtk::multimesh::MultiMesh</text>
<text text-anchor="middle" x="485.5" y="-278" font-family="Helvetica,sans-Serif" font-size="10.00">Manager::map_tuple_to_root_tuple</text>
</a>
</g>
</g>
<!-- Node4&#45;&gt;Node5 -->
<g id="edge5_Node000004_Node000005" class="edge">
<title>Node4&#45;&gt;Node5</title>
<g id="a_edge5_Node000004_Node000005"><a xlink:title=" ">
<path fill="none" stroke="#63b8ff" d="M356.04,-271.14C364.44,-272.11 373.06,-273.11 381.68,-274.11"/>
<polygon fill="#63b8ff" stroke="#63b8ff" points="381.44,-277.6 391.78,-275.28 382.24,-270.65 381.44,-277.6"/>
</a>
</g>
</g>
<!-- Node28 -->
<g id="Node000028" class="node">
<title>Node28</title>
<g id="a_Node000028"><a xlink:href="classwmtk_1_1simplex_1_1_simplex.html#aca78b1fb0a3c28c0036cf7919bfb0789" target="_top" xlink:title=" ">
<polygon fill="white" stroke="#666666" points="553,-253 418,-253 418,-223 553,-223 553,-253"/>
<text text-anchor="start" x="426" y="-241" font-family="Helvetica,sans-Serif" font-size="10.00">wmtk::simplex::Simplex</text>
<text text-anchor="middle" x="485.5" y="-230" font-family="Helvetica,sans-Serif" font-size="10.00">::tuple</text>
</a>
</g>
</g>
<!-- Node4&#45;&gt;Node28 -->
<g id="edge33_Node000004_Node000028" class="edge">
<title>Node4&#45;&gt;Node28</title>
<g id="a_edge33_Node000004_Node000028"><a xlink:title=" ">
<path fill="none" stroke="#63b8ff" d="M356.04,-252.86C372.92,-250.91 390.73,-248.85 407.53,-246.9"/>
<polygon fill="#63b8ff" stroke="#63b8ff" points="408.32,-250.33 417.85,-245.71 407.51,-243.38 408.32,-250.33"/>
</a>
</g>
</g>
<!-- Node5&#45;&gt;Node3 -->
<g id="edge6_Node000005_Node000003" class="edge">
<title>Node5&#45;&gt;Node3</title>
<g id="a_edge6_Node000005_Node000003"><a xlink:title=" ">
<path fill="none" stroke="#63b8ff" d="M579.22,-296.93C661.78,-306.67 781.79,-320.81 863.39,-330.44"/>
<polygon fill="#63b8ff" stroke="#63b8ff" points="863.3,-333.95 873.65,-331.64 864.12,-327 863.3,-333.95"/>
</a>
</g>
</g>
<!-- Node5&#45;&gt;Node5 -->
<g id="edge32_Node000005_Node000005" class="edge">
<title>Node5&#45;&gt;Node5</title>
<g id="a_edge32_Node000005_Node000005"><a xlink:title=" ">
<path fill="none" stroke="#63b8ff" d="M448.94,-301.28C440.81,-310.41 453,-319 485.5,-319 504.8,-319 516.93,-315.97 521.91,-311.6"/>
<polygon fill="#63b8ff" stroke="#63b8ff" points="525.41,-311.33 522.06,-301.28 518.41,-311.22 525.41,-311.33"/>
</a>
</g>
</g>
<!-- Node6 -->
<g id="Node000006" class="node">
<title>Node6</title>
<g id="a_Node000006"><a xlink:href="classwmtk_1_1multimesh_1_1_multi_mesh_manager.html#af6fd8d8b5cc1e8b2c877718b99374f03" target="_top" xlink:title=" ">
<polygon fill="white" stroke="#666666" points="814,-289 615,-289 615,-259 814,-259 814,-289"/>
<text text-anchor="start" x="623" y="-277" font-family="Helvetica,sans-Serif" font-size="10.00">wmtk::multimesh::MultiMesh</text>
<text text-anchor="middle" x="714.5" y="-266" font-family="Helvetica,sans-Serif" font-size="10.00">Manager::map_tuple_to_parent_tuple</text>
</a>
</g>
</g>
<!-- Node5&#45;&gt;Node6 -->
<g id="edge7_Node000005_Node000006" class="edge">
<title>Node5&#45;&gt;Node6</title>
<g id="a_edge7_Node000005_Node000006"><a xlink:title=" ">
<path fill="none" stroke="#63b8ff" d="M579.16,-281.1C587.62,-280.65 596.23,-280.2 604.82,-279.75"/>
<polygon fill="#63b8ff" stroke="#63b8ff" points="605.06,-283.24 614.86,-279.21 604.69,-276.25 605.06,-283.24"/>
</a>
</g>
</g>
<!-- Node6&#45;&gt;Node3 -->
<g id="edge9_Node000006_Node000003" class="edge">
<title>Node6&#45;&gt;Node3</title>
<g id="a_edge9_Node000006_Node000003"><a xlink:title=" ">
<path fill="none" stroke="#63b8ff" d="M769.69,-289.06C784.17,-293.33 799.74,-298.14 814,-303 830.25,-308.54 833.6,-311.93 850,-317 857.34,-319.27 865.03,-321.44 872.76,-323.48"/>
<polygon fill="#63b8ff" stroke="#63b8ff" points="872,-326.9 882.55,-325.99 873.74,-320.12 872,-326.9"/>
</a>
</g>
</g>
<!-- Node7 -->
<g id="Node000007" class="node">
<title>Node7</title>
<g id="a_Node000007"><a xlink:href="classwmtk_1_1_mesh.html#a357182137d99f1e4a7ff536eadfc0e56" target="_top" xlink:title=" ">
<polygon fill="white" stroke="#666666" points="1010.5,-308 897.5,-308 897.5,-278 1010.5,-278 1010.5,-308"/>
<text text-anchor="start" x="905.5" y="-296" font-family="Helvetica,sans-Serif" font-size="10.00">wmtk::Mesh::create</text>
<text text-anchor="middle" x="954" y="-285" font-family="Helvetica,sans-Serif" font-size="10.00">_const_accessor</text>
</a>
</g>
</g>
<!-- Node6&#45;&gt;Node7 -->
<g id="edge8_Node000006_Node000007" class="edge">
<title>Node6&#45;&gt;Node7</title>
<g id="a_edge8_Node000006_Node000007"><a xlink:title=" ">
<path fill="none" stroke="#63b8ff" d="M814.16,-281.89C838.8,-283.86 864.64,-285.93 887.25,-287.74"/>
<polygon fill="#63b8ff" stroke="#63b8ff" points="887.15,-291.24 897.4,-288.55 887.71,-284.27 887.15,-291.24"/>
</a>
</g>
</g>
<!-- Node8 -->
<g id="Node000008" class="node">
<title>Node8</title>
<g id="a_Node000008"><a xlink:href="classwmtk_1_1multimesh_1_1_multi_mesh_manager.html#a6f9186ced3e97aef2a0af71a3aa5c6a0" target="_top" xlink:title=" ">
<polygon fill="white" stroke="#666666" points="1058,-260 850,-260 850,-230 1058,-230 1058,-260"/>
<text text-anchor="start" x="858" y="-248" font-family="Helvetica,sans-Serif" font-size="10.00">wmtk::multimesh::MultiMesh</text>
<text text-anchor="middle" x="954" y="-237" font-family="Helvetica,sans-Serif" font-size="10.00">Manager::map_tuple_between_meshes</text>
</a>
</g>
</g>
<!-- Node6&#45;&gt;Node8 -->
<g id="edge10_Node000006_Node000008" class="edge">
<title>Node6&#45;&gt;Node8</title>
<g id="a_edge10_Node000006_Node000008"><a xlink:title=" ">
<path fill="none" stroke="#63b8ff" d="M814.16,-261.95C822.59,-260.92 831.15,-259.88 839.68,-258.84"/>
<polygon fill="#63b8ff" stroke="#63b8ff" points="840.16,-262.3 849.67,-257.62 839.32,-255.36 840.16,-262.3"/>
</a>
</g>
</g>
<!-- Node9 -->
<g id="Node000009" class="node">
<title>Node9</title>
<g id="a_Node000009"><a xlink:href="classwmtk_1_1_mesh.html#a8cc8686f0688613806f43720b6db49e7" target="_top" xlink:title="check validity of tuple including its hash">
<polygon fill="white" stroke="#666666" points="1239,-345.5 1119,-345.5 1119,-326.5 1239,-326.5 1239,-345.5"/>
<text text-anchor="middle" x="1179" y="-333.5" font-family="Helvetica,sans-Serif" font-size="10.00">wmtk::Mesh::is_valid</text>
</a>
</g>
</g>
<!-- Node8&#45;&gt;Node9 -->
<g id="edge11_Node000008_Node000009" class="edge">
<title>Node8&#45;&gt;Node9</title>
<g id="a_edge11_Node000008_Node000009"><a xlink:title=" ">
<path fill="none" stroke="#63b8ff" d="M1030.56,-260.02C1039.92,-262.64 1049.27,-265.62 1058,-269 1093.76,-282.83 1131.9,-305.69 1155.35,-320.8"/>
<polygon fill="#63b8ff" stroke="#63b8ff" points="1153.58,-323.83 1163.87,-326.37 1157.41,-317.97 1153.58,-323.83"/>
</a>
</g>
</g>
<!-- Node12 -->
<g id="Node000012" class="node">
<title>Node12</title>
<g id="a_Node000012"><a xlink:href="namespacewmtk_1_1multimesh_1_1utils.html#a7d748ef4839b09a5460e8af97b9fa678" target="_top" xlink:title=" ">
<polygon fill="white" stroke="#666666" points="1253.5,-260 1104.5,-260 1104.5,-230 1253.5,-230 1253.5,-260"/>
<text text-anchor="start" x="1112.5" y="-248" font-family="Helvetica,sans-Serif" font-size="10.00">wmtk::multimesh::utils</text>
<text text-anchor="middle" x="1179" y="-237" font-family="Helvetica,sans-Serif" font-size="10.00">::read_tuple_map_attribute</text>
</a>
</g>
</g>
<!-- Node8&#45;&gt;Node12 -->
<g id="edge15_Node000008_Node000012" class="edge">
<title>Node8&#45;&gt;Node12</title>
<g id="a_edge15_Node000008_Node000012"><a xlink:title=" ">
<path fill="none" stroke="#63b8ff" d="M1058.01,-245C1070.11,-245 1082.33,-245 1094.12,-245"/>
<polygon fill="#63b8ff" stroke="#63b8ff" points="1094.35,-248.5 1104.35,-245 1094.35,-241.5 1094.35,-248.5"/>
</a>
</g>
</g>
<!-- Node17 -->
<g id="Node000017" class="node">
<title>Node17</title>
<g id="a_Node000017"><a xlink:href="classwmtk_1_1_mesh.html#a965a8a24158c4aa8580c57ba09f885f7" target="_top" xlink:title="switch the orientation of the Tuple of the given dimension">
<polygon fill="white" stroke="#666666" points="1236,-212 1122,-212 1122,-182 1236,-182 1236,-212"/>
<text text-anchor="start" x="1130" y="-200" font-family="Helvetica,sans-Serif" font-size="10.00">wmtk::Mesh::switch</text>
<text text-anchor="middle" x="1179" y="-189" font-family="Helvetica,sans-Serif" font-size="10.00">_tuple</text>
</a>
</g>
</g>
<!-- Node8&#45;&gt;Node17 -->
<g id="edge20_Node000008_Node000017" class="edge">
<title>Node8&#45;&gt;Node17</title>
<g id="a_edge20_Node000008_Node000017"><a xlink:title=" ">
<path fill="none" stroke="#63b8ff" d="M1024.95,-229.94C1052.7,-223.97 1084.47,-217.13 1111.84,-211.24"/>
<polygon fill="#63b8ff" stroke="#63b8ff" points="1112.67,-214.64 1121.71,-209.12 1111.2,-207.8 1112.67,-214.64"/>
</a>
</g>
</g>
<!-- Node18 -->
<g id="Node000018" class="node">
<title>Node18</title>
<g id="a_Node000018"><a xlink:href="namespacewmtk_1_1simplex.html#a0101f27eb2ad82814390b92ab1a4d1a0" target="_top" xlink:title=" ">
<polygon fill="white" stroke="#666666" points="1254.5,-109 1103.5,-109 1103.5,-79 1254.5,-79 1254.5,-109"/>
<text text-anchor="start" x="1111.5" y="-97" font-family="Helvetica,sans-Serif" font-size="10.00">wmtk::simplex::top</text>
<text text-anchor="middle" x="1179" y="-86" font-family="Helvetica,sans-Serif" font-size="10.00">_dimension_cofaces_tuples</text>
</a>
</g>
</g>
<!-- Node8&#45;&gt;Node18 -->
<g id="edge21_Node000008_Node000018" class="edge">
<title>Node8&#45;&gt;Node18</title>
<g id="a_edge21_Node000008_Node000018"><a xlink:title=" ">
<path fill="none" stroke="#63b8ff" d="M977.2,-229.97C1017.25,-202.85 1101.67,-145.68 1147.25,-114.82"/>
<polygon fill="#63b8ff" stroke="#63b8ff" points="1149.24,-117.7 1155.56,-109.19 1145.32,-111.9 1149.24,-117.7"/>
</a>
</g>
</g>
<!-- Node24 -->
<g id="Node000024" class="node">
<title>Node24</title>
<g id="a_Node000024"><a xlink:href="classwmtk_1_1_mesh.html#abaf00438d0700358b160e310d69725c9" target="_top" xlink:title=" ">
<polygon fill="white" stroke="#666666" points="1264,-496.5 1094,-496.5 1094,-477.5 1264,-477.5 1264,-496.5"/>
<text text-anchor="middle" x="1179" y="-484.5" font-family="Helvetica,sans-Serif" font-size="10.00">wmtk::Mesh::top_simplex_type</text>
</a>
</g>
</g>
<!-- Node8&#45;&gt;Node24 -->
<g id="edge27_Node000008_Node000024" class="edge">
<title>Node8&#45;&gt;Node24</title>
<g id="a_edge27_Node000008_Node000024"><a xlink:title=" ">
<path fill="none" stroke="#63b8ff" d="M1047.5,-260.25C1051.29,-262.78 1054.83,-265.68 1058,-269 1118.58,-332.4 1035,-398.12 1094,-463 1097.39,-466.73 1101.32,-469.9 1105.59,-472.58"/>
<polygon fill="#63b8ff" stroke="#63b8ff" points="1104.29,-475.86 1114.76,-477.45 1107.57,-469.67 1104.29,-475.86"/>
</a>
</g>
</g>
<!-- Node26 -->
<g id="Node000026" class="node">
<title>Node26</title>
<g id="a_Node000026"><a xlink:href="namespacewmtk_1_1multimesh_1_1utils.html#aa0392bf28bb6c304127cf0eea634fee8" target="_top" xlink:title=" ">
<polygon fill="white" stroke="#666666" points="1244,-454 1114,-454 1114,-424 1244,-424 1244,-454"/>
<text text-anchor="start" x="1122" y="-442" font-family="Helvetica,sans-Serif" font-size="10.00">wmtk::multimesh::utils</text>
<text text-anchor="middle" x="1179" y="-431" font-family="Helvetica,sans-Serif" font-size="10.00">::transport_tuple</text>
</a>
</g>
</g>
<!-- Node8&#45;&gt;Node26 -->
<g id="edge29_Node000008_Node000026" class="edge">
<title>Node8&#45;&gt;Node26</title>
<g id="a_edge29_Node000008_Node000026"><a xlink:title=" ">
<path fill="none" stroke="#63b8ff" d="M1044.74,-260.04C1049.47,-262.6 1053.93,-265.56 1058,-269 1089.65,-295.75 1070.91,-320.59 1094,-355 1109.94,-378.76 1133.28,-401.44 1151.31,-417.23"/>
<polygon fill="#63b8ff" stroke="#63b8ff" points="1149.31,-420.13 1159.18,-423.98 1153.87,-414.81 1149.31,-420.13"/>
</a>
</g>
</g>
<!-- Node10 -->
<g id="Node000010" class="node">
<title>Node10</title>
<g id="a_Node000010"><a xlink:href="classwmtk_1_1_tuple.html#a0023f575be92cd5ceeeaaaa3762ea06d" target="_top" xlink:title="Checks if a tuple is &quot;null&quot;. This merely implies the global index is &#45;1.">
<polygon fill="white" stroke="#666666" points="1460.5,-400.5 1347.5,-400.5 1347.5,-381.5 1460.5,-381.5 1460.5,-400.5"/>
<text text-anchor="middle" x="1404" y="-388.5" font-family="Helvetica,sans-Serif" font-size="10.00">wmtk::Tuple::is_null</text>
</a>
</g>
</g>
<!-- Node9&#45;&gt;Node10 -->
<g id="edge12_Node000009_Node000010" class="edge">
<title>Node9&#45;&gt;Node10</title>
<g id="a_edge12_Node000009_Node000010"><a xlink:title=" ">
<path fill="none" stroke="#63b8ff" d="M1207.37,-345.52C1231.52,-353.66 1267.78,-365.25 1300,-373 1312.05,-375.9 1324.99,-378.53 1337.5,-380.83"/>
<polygon fill="#63b8ff" stroke="#63b8ff" points="1336.95,-384.29 1347.41,-382.61 1338.18,-377.4 1336.95,-384.29"/>
</a>
</g>
</g>
<!-- Node11 -->
<g id="Node000011" class="node">
<title>Node11</title>
<g id="a_Node000011"><a xlink:href="classwmtk_1_1_mesh.html#ade176d345902d97af8c5da04aa3a095b" target="_top" xlink:title=" ">
<polygon fill="white" stroke="#666666" points="1474,-345.5 1334,-345.5 1334,-326.5 1474,-326.5 1474,-345.5"/>
<text text-anchor="middle" x="1404" y="-333.5" font-family="Helvetica,sans-Serif" font-size="10.00">wmtk::Mesh::is_removed</text>
</a>
</g>
</g>
<!-- Node9&#45;&gt;Node11 -->
<g id="edge13_Node000009_Node000011" class="edge">
<title>Node9&#45;&gt;Node11</title>
<g id="a_edge13_Node000009_Node000011"><a xlink:title=" ">
<path fill="none" stroke="#63b8ff" d="M1239.17,-336C1265.03,-336 1295.74,-336 1323.55,-336"/>
<polygon fill="#63b8ff" stroke="#63b8ff" points="1323.65,-339.5 1333.65,-336 1323.65,-332.5 1323.65,-339.5"/>
</a>
</g>
</g>
<!-- Node11&#45;&gt;Node11 -->
<g id="edge14_Node000011_Node000011" class="edge">
<title>Node11&#45;&gt;Node11</title>
<g id="a_edge14_Node000011_Node000011"><a xlink:title=" ">
<path fill="none" stroke="#63b8ff" d="M1376.26,-345.58C1362.76,-354.23 1372.01,-363.5 1404,-363.5 1425.49,-363.5 1436.72,-359.32 1437.68,-353.95"/>
<polygon fill="#63b8ff" stroke="#63b8ff" points="1440.39,-351.71 1431.74,-345.58 1434.68,-355.76 1440.39,-351.71"/>
</a>
</g>
</g>
<!-- Node13 -->
<g id="Node000013" class="node">
<title>Node13</title>
<g id="a_Node000013"><a xlink:href="classwmtk_1_1attribute_1_1_accessor.html#a4b89ff4381fe73d4827b663203a964fc" target="_top" xlink:title=" ">
<polygon fill="white" stroke="#666666" points="1475,-308 1333,-308 1333,-278 1475,-278 1475,-308"/>
<text text-anchor="start" x="1341" y="-296" font-family="Helvetica,sans-Serif" font-size="10.00">wmtk::attribute::Accessor</text>
<text text-anchor="middle" x="1404" y="-285" font-family="Helvetica,sans-Serif" font-size="10.00">::const_vector_attribute</text>
</a>
</g>
</g>
<!-- Node12&#45;&gt;Node13 -->
<g id="edge16_Node000012_Node000013" class="edge">
<title>Node12&#45;&gt;Node13</title>
<g id="a_edge16_Node000012_Node000013"><a xlink:title=" ">
<path fill="none" stroke="#63b8ff" d="M1249.95,-260.06C1273.3,-265.08 1299.49,-270.72 1323.51,-275.89"/>
<polygon fill="#63b8ff" stroke="#63b8ff" points="1322.79,-279.31 1333.3,-278 1324.26,-272.47 1322.79,-279.31"/>
</a>
</g>
</g>
<!-- Node14 -->
<g id="Node000014" class="node">
<title>Node14</title>
<g id="a_Node000014"><a xlink:href="classwmtk_1_1attribute_1_1_tuple_accessor.html#adf0b07ce3ed74d51723e2beed2d3f25e" target="_top" xlink:title=" ">
<polygon fill="white" stroke="#666666" points="1487.5,-260 1320.5,-260 1320.5,-230 1487.5,-230 1487.5,-260"/>
<text text-anchor="start" x="1328.5" y="-248" font-family="Helvetica,sans-Serif" font-size="10.00">wmtk::attribute::TupleAccessor</text>
<text text-anchor="middle" x="1404" y="-237" font-family="Helvetica,sans-Serif" font-size="10.00">::const_vector_attribute</text>
</a>
</g>
</g>
<!-- Node12&#45;&gt;Node14 -->
<g id="edge17_Node000012_Node000014" class="edge">
<title>Node12&#45;&gt;Node14</title>
<g id="a_edge17_Node000012_Node000014"><a xlink:title=" ">
<path fill="none" stroke="#63b8ff" d="M1253.64,-245C1271.7,-245 1291.27,-245 1310.12,-245"/>
<polygon fill="#63b8ff" stroke="#63b8ff" points="1310.19,-248.5 1320.19,-245 1310.19,-241.5 1310.19,-248.5"/>
</a>
</g>
</g>
<!-- Node15 -->
<g id="Node000015" class="node">
<title>Node15</title>
<g id="a_Node000015"><a xlink:href="classwmtk_1_1attribute_1_1_accessor_base.html#abd60539d5779de287d2a0ec31b16c77a" target="_top" xlink:title=" ">
<polygon fill="white" stroke="#666666" points="1475,-212 1333,-212 1333,-182 1475,-182 1475,-212"/>
<text text-anchor="start" x="1341" y="-200" font-family="Helvetica,sans-Serif" font-size="10.00">wmtk::attribute::Accessor</text>
<text text-anchor="middle" x="1404" y="-189" font-family="Helvetica,sans-Serif" font-size="10.00">Base::dimension</text>
</a>
</g>
</g>
<!-- Node12&#45;&gt;Node15 -->
<g id="edge18_Node000012_Node000015" class="edge">
<title>Node12&#45;&gt;Node15</title>
<g id="a_edge18_Node000012_Node000015"><a xlink:title=" ">
<path fill="none" stroke="#63b8ff" d="M1249.95,-229.94C1273.3,-224.92 1299.49,-219.28 1323.51,-214.11"/>
<polygon fill="#63b8ff" stroke="#63b8ff" points="1324.26,-217.53 1333.3,-212 1322.79,-210.69 1324.26,-217.53"/>
</a>
</g>
</g>
<!-- Node16 -->
<g id="Node000016" class="node">
<title>Node16</title>
<g id="a_Node000016"><a xlink:href="classwmtk_1_1attribute_1_1_tuple_accessor.html#a8d04c3529eb7adeead49e8faa7a119db" target="_top" xlink:title=" ">
<polygon fill="white" stroke="#666666" points="1487.5,-164 1320.5,-164 1320.5,-134 1487.5,-134 1487.5,-164"/>
<text text-anchor="start" x="1328.5" y="-152" font-family="Helvetica,sans-Serif" font-size="10.00">wmtk::attribute::TupleAccessor</text>
<text text-anchor="middle" x="1404" y="-141" font-family="Helvetica,sans-Serif" font-size="10.00">::dimension</text>
</a>
</g>
</g>
<!-- Node12&#45;&gt;Node16 -->
<g id="edge19_Node000012_Node000016" class="edge">
<title>Node12&#45;&gt;Node16</title>
<g id="a_edge19_Node000012_Node000016"><a xlink:title=" ">
<path fill="none" stroke="#63b8ff" d="M1247.82,-229.92C1253.52,-227.39 1259,-224.44 1264,-221 1285.97,-205.88 1277.67,-187.57 1300,-173 1303.55,-170.69 1307.29,-168.59 1311.17,-166.7"/>
<polygon fill="#63b8ff" stroke="#63b8ff" points="1312.67,-169.87 1320.42,-162.65 1309.86,-163.46 1312.67,-169.87"/>
</a>
</g>
</g>
<!-- Node19 -->
<g id="Node000019" class="node">
<title>Node19</title>
<g id="a_Node000019"><a xlink:href="classwmtk_1_1simplex_1_1_simplex_collection.html#a1e7079b3b75f70dd28c524556cab76cf" target="_top" xlink:title="Add simplex to the collection.">
<polygon fill="white" stroke="#666666" points="1508,-115.5 1300,-115.5 1300,-96.5 1508,-96.5 1508,-115.5"/>
<text text-anchor="middle" x="1404" y="-103.5" font-family="Helvetica,sans-Serif" font-size="10.00">wmtk::simplex::SimplexCollection::add</text>
</a>
</g>
</g>
<!-- Node18&#45;&gt;Node19 -->
<g id="edge22_Node000018_Node000019" class="edge">
<title>Node18&#45;&gt;Node19</title>
<g id="a_edge22_Node000018_Node000019"><a xlink:title=" ">
<path fill="none" stroke="#63b8ff" d="M1254.57,-98.01C1265.94,-98.62 1277.9,-99.27 1289.87,-99.91"/>
<polygon fill="#63b8ff" stroke="#63b8ff" points="1289.76,-103.41 1299.93,-100.45 1290.13,-96.42 1289.76,-103.41"/>
</a>
</g>
</g>
<!-- Node20 -->
<g id="Node000020" class="node">
<title>Node20</title>
<g id="a_Node000020"><a xlink:href="namespacewmtk.html#a441d6ad4f19569c7d4946e743da1a925" target="_top" xlink:title=" ">
<polygon fill="white" stroke="#666666" points="1465,-78 1343,-78 1343,-48 1465,-48 1465,-78"/>
<text text-anchor="start" x="1351" y="-66" font-family="Helvetica,sans-Serif" font-size="10.00">wmtk::log_and_throw</text>
<text text-anchor="middle" x="1404" y="-55" font-family="Helvetica,sans-Serif" font-size="10.00">_error</text>
</a>
</g>
</g>
<!-- Node18&#45;&gt;Node20 -->
<g id="edge23_Node000018_Node000020" class="edge">
<title>Node18&#45;&gt;Node20</title>
<g id="a_edge23_Node000018_Node000020"><a xlink:title=" ">
<path fill="none" stroke="#63b8ff" d="M1254.57,-83.63C1279.83,-80.12 1307.94,-76.21 1332.85,-72.75"/>
<polygon fill="#63b8ff" stroke="#63b8ff" points="1333.52,-76.19 1342.94,-71.35 1332.56,-69.26 1333.52,-76.19"/>
</a>
</g>
</g>
<!-- Node18&#45;&gt;Node23 -->
<g id="edge26_Node000018_Node000023" class="edge">
<title>Node18&#45;&gt;Node23</title>
<g id="a_edge26_Node000018_Node000023"><a xlink:title=" ">
<path fill="none" stroke="#63b8ff" d="M1208.43,-78.99C1232.34,-66.86 1267.69,-50.04 1300,-39 1308.48,-36.1 1317.48,-33.43 1326.48,-31.02"/>
<polygon fill="#63b8ff" stroke="#63b8ff" points="1327.43,-34.39 1336.23,-28.49 1325.67,-27.61 1327.43,-34.39"/>
</a>
</g>
</g>
<!-- Node21 -->
<g id="Node000021" class="node">
<title>Node21</title>
<g id="a_Node000021"><a xlink:href="namespacewmtk.html#a6a35f11c12436093d26fdd8be6fecc06" target="_top" xlink:title="Retrieves the current logger.">
<polygon fill="white" stroke="#666666" points="1625,-72.5 1544,-72.5 1544,-53.5 1625,-53.5 1625,-72.5"/>
<text text-anchor="middle" x="1584.5" y="-60.5" font-family="Helvetica,sans-Serif" font-size="10.00">wmtk::logger</text>
</a>
</g>
</g>
<!-- Node20&#45;&gt;Node21 -->
<g id="edge24_Node000020_Node000021" class="edge">
<title>Node20&#45;&gt;Node21</title>
<g id="a_edge24_Node000020_Node000021"><a xlink:title=" ">
<path fill="none" stroke="#63b8ff" d="M1465.43,-63C1487.68,-63 1512.61,-63 1533.81,-63"/>
<polygon fill="#63b8ff" stroke="#63b8ff" points="1533.89,-66.5 1543.89,-63 1533.89,-59.5 1533.89,-66.5"/>
</a>
</g>
</g>
<!-- Node22 -->
<g id="Node000022" class="node">
<title>Node22</title>
<g id="a_Node000022"><a xlink:href="namespacewmtk.html#a3daa7951a5f8b78cf4600dc047fcc180" target="_top" xlink:title="Setup a logger object to be used by WildmeshToolkit.">
<polygon fill="white" stroke="#666666" points="1762,-72.5 1661,-72.5 1661,-53.5 1762,-53.5 1762,-72.5"/>
<text text-anchor="middle" x="1711.5" y="-60.5" font-family="Helvetica,sans-Serif" font-size="10.00">wmtk::set_logger</text>
</a>
</g>
</g>
<!-- Node21&#45;&gt;Node22 -->
<g id="edge25_Node000021_Node000022" class="edge">
<title>Node21&#45;&gt;Node22</title>
<g id="a_edge25_Node000021_Node000022"><a xlink:title=" ">
<path fill="none" stroke="#63b8ff" d="M1625.05,-63C1633.17,-63 1641.9,-63 1650.55,-63"/>
<polygon fill="#63b8ff" stroke="#63b8ff" points="1650.65,-66.5 1660.65,-63 1650.65,-59.5 1650.65,-66.5"/>
</a>
</g>
</g>
<!-- Node25 -->
<g id="Node000025" class="node">
<title>Node25</title>
<g id="a_Node000025"><a xlink:href="classwmtk_1_1_mesh.html#a933f681cf24a63b155c9462280385200" target="_top" xlink:title=" ">
<polygon fill="white" stroke="#666666" points="1464.5,-508 1343.5,-508 1343.5,-478 1464.5,-478 1464.5,-508"/>
<text text-anchor="start" x="1351.5" y="-496" font-family="Helvetica,sans-Serif" font-size="10.00">wmtk::Mesh::top_cell</text>
<text text-anchor="middle" x="1404" y="-485" font-family="Helvetica,sans-Serif" font-size="10.00">_dimension</text>
</a>
</g>
</g>
<!-- Node24&#45;&gt;Node25 -->
<g id="edge28_Node000024_Node000025" class="edge">
<title>Node24&#45;&gt;Node25</title>
<g id="a_edge28_Node000024_Node000025"><a xlink:title=" ">
<path fill="none" stroke="#63b8ff" d="M1264.31,-489.27C1286.99,-489.88 1311.26,-490.53 1333.07,-491.12"/>
<polygon fill="#63b8ff" stroke="#63b8ff" points="1333.13,-494.62 1343.22,-491.39 1333.32,-487.62 1333.13,-494.62"/>
</a>
</g>
</g>
<!-- Node27 -->
<g id="Node000027" class="node">
<title>Node27</title>
<g id="a_Node000027"><a xlink:href="namespacewmtk_1_1multimesh_1_1utils_1_1internal.html#a11885fe5aebd05551827804b0142945d" target="_top" xlink:title=" ">
<polygon fill="white" stroke="#666666" points="1469,-459.5 1339,-459.5 1339,-418.5 1469,-418.5 1469,-459.5"/>
<text text-anchor="start" x="1347" y="-447.5" font-family="Helvetica,sans-Serif" font-size="10.00">wmtk::multimesh::utils</text>
<text text-anchor="start" x="1347" y="-436.5" font-family="Helvetica,sans-Serif" font-size="10.00">::internal::transport</text>
<text text-anchor="middle" x="1404" y="-425.5" font-family="Helvetica,sans-Serif" font-size="10.00">_tuple_dart</text>
</a>
</g>
</g>
<!-- Node26&#45;&gt;Node27 -->
<g id="edge30_Node000026_Node000027" class="edge">
<title>Node26&#45;&gt;Node27</title>
<g id="a_edge30_Node000026_Node000027"><a xlink:title=" ">
<path fill="none" stroke="#63b8ff" d="M1244.2,-432.82C1270.56,-432.15 1301.24,-432.07 1328.57,-432.59"/>
<polygon fill="#63b8ff" stroke="#63b8ff" points="1328.79,-436.1 1338.87,-432.82 1328.95,-429.1 1328.79,-436.1"/>
</a>
</g>
</g>
<!-- Node27&#45;&gt;Node26 -->
<g id="edge31_Node000027_Node000026" class="edge">
<title>Node27&#45;&gt;Node26</title>
<g id="a_edge31_Node000027_Node000026"><a xlink:title=" ">
<path fill="none" stroke="#63b8ff" d="M1338.87,-445.18C1312.52,-445.85 1281.83,-445.93 1254.5,-445.41"/>
<polygon fill="#63b8ff" stroke="#63b8ff" points="1254.28,-441.9 1244.2,-445.18 1254.12,-448.9 1254.28,-441.9"/>
</a>
</g>
</g>
</g>
</svg>

<g id="navigator" transform="translate(0 0)" fill="#404254">
  <rect fill="#f2f5e9" fill-opacity="0.5" stroke="#606060" stroke-width=".5" x="0" y="0" width="60" height="60"/>
  <use id="zoomplus" xlink:href="#zoomPlus" x="17" y="9" onmousedown="handleZoom(evt,'in')"/>
  <use id="zoomminus" xlink:href="#zoomMin" x="42" y="9" onmousedown="handleZoom(evt,'out')"/>
  <use id="reset" xlink:href="#resetDef" x="30" y="36" onmousedown="handleReset()"/>
   <use id="arrowup" xlink:href="#arrowUp" x="0" y="0" onmousedown="handlePan(0,-1)"/>
  <use id="arrowright" xlink:href="#arrowRight" x="0" y="0" onmousedown="handlePan(1,0)"/>
  <use id="arrowdown" xlink:href="#arrowDown" x="0" y="0" onmousedown="handlePan(0,1)"/>
  <use id="arrowleft" xlink:href="#arrowLeft" x="0" y="0" onmousedown="handlePan(-1,0)"/>
</g>
<svg viewBox="0 0 15 15" width="100%" height="30px" preserveAspectRatio="xMaxYMin meet">
 <g id="arrow_out" transform="scale(0.3 0.3)">
  <a xlink:href="classwmtk_1_1multimesh_1_1_multi_mesh_manager_ac385f8fb3dd7d7ac3c0ce66f35fa46bf_cgraph_org.svg" target="_base">
   <rect id="button" ry="5" rx="5" y="6" x="6" height="38" width="38"
        fill="#f2f5e9" fill-opacity="0.5" stroke="#606060" stroke-width="1.0"/>
   <path id="arrow"
     d="M 11.500037,31.436501 C 11.940474,20.09759 22.043105,11.32322 32.158766,21.979434 L 37.068811,17.246167 C 37.068811,17.246167 37.088388,32 37.088388,32 L 22.160133,31.978069 C 22.160133,31.978069 26.997745,27.140456 26.997745,27.140456 C 18.528582,18.264221 13.291696,25.230495 11.500037,31.436501 z"
     style="fill:#404040;"/>
  </a>
 </g>
</svg>

<style type='text/css'>
<![CDATA[
[data-mouse-over-selected='false'] { opacity: 0.7; }
[data-mouse-over-selected='true']  { opacity: 1.0; }
]]>
</style>
<script type="application/ecmascript"><![CDATA[
document.addEventListener('DOMContentLoaded', (event) => {
  highlightEdges();
  highlightAdjacentNodes();
});
]]></script>
</svg>
