<?xml version="1.0" encoding="UTF-8" standalone="no"?>
<!DOCTYPE svg PUBLIC "-//W3C//DTD SVG 1.1//EN"
 "http://www.w3.org/Graphics/SVG/1.1/DTD/svg11.dtd">
<!-- Generated by graphviz version 2.43.0 (0)
 -->
<!-- Title: wmtk::Rational::init_from_binary Pages: 1 -->
<svg width="940pt" height="323pt"
 viewBox="0.00 0.00 940.00 323.00" xmlns="http://www.w3.org/2000/svg" xmlns:xlink="http://www.w3.org/1999/xlink">
<g id="graph0" class="graph" transform="scale(1 1) rotate(0) translate(4 319)">
<title>wmtk::Rational::init_from_binary</title>
<!-- Node1 -->
<g id="Node000001" class="node">
<title>Node1</title>
<g id="a_Node000001"><a xlink:title=" ">
<polygon fill="#999999" stroke="#666666" points="932,-190.5 819,-190.5 819,-160.5 932,-160.5 932,-190.5"/>
<text text-anchor="start" x="827" y="-178.5" font-family="Helvetica,sans-Serif" font-size="10.00">wmtk::Rational::init</text>
<text text-anchor="middle" x="875.5" y="-167.5" font-family="Helvetica,sans-Serif" font-size="10.00">_from_binary</text>
</a>
</g>
</g>
<!-- Node2 -->
<g id="Node000002" class="node">
<title>Node2</title>
<g id="a_Node000002"><a xlink:href="classwmtk_1_1_h_d_f5_reader.html#a590a9a7f8fcaf06216053ae632fac286" target="_top" xlink:title=" ">
<polygon fill="white" stroke="#666666" points="783,-185 611,-185 611,-166 783,-166 783,-185"/>
<text text-anchor="middle" x="697" y="-173" font-family="Helvetica,sans-Serif" font-size="10.00">wmtk::HDF5Reader::read_mesh</text>
</a>
</g>
</g>
<!-- Node1&#45;&gt;Node2 -->
<g id="edge1_Node000001_Node000002" class="edge">
<title>Node1&#45;&gt;Node2</title>
<g id="a_edge1_Node000001_Node000002"><a xlink:title=" ">
<path fill="none" stroke="#63b8ff" d="M808.39,-175.5C800.14,-175.5 791.63,-175.5 783.15,-175.5"/>
<polygon fill="#63b8ff" stroke="#63b8ff" points="808.65,-179 818.65,-175.5 808.65,-172 808.65,-179"/>
</a>
</g>
</g>
<!-- Node3 -->
<g id="Node000003" class="node">
<title>Node3</title>
<g id="a_Node000003"><a xlink:href="classwmtk_1_1_h_d_f5_reader.html#a2524f46ffeb8b8b9af898e7b2993bc00" target="_top" xlink:title=" ">
<polygon fill="white" stroke="#666666" points="575,-185 435,-185 435,-166 575,-166 575,-185"/>
<text text-anchor="middle" x="505" y="-173" font-family="Helvetica,sans-Serif" font-size="10.00">wmtk::HDF5Reader::read</text>
</a>
</g>
</g>
<!-- Node2&#45;&gt;Node3 -->
<g id="edge2_Node000002_Node000003" class="edge">
<title>Node2&#45;&gt;Node3</title>
<g id="a_edge2_Node000002_Node000003"><a xlink:title=" ">
<path fill="none" stroke="#63b8ff" d="M600.62,-175.5C592,-175.5 583.39,-175.5 575.06,-175.5"/>
<polygon fill="#63b8ff" stroke="#63b8ff" points="600.73,-179 610.73,-175.5 600.73,-172 600.73,-179"/>
</a>
</g>
</g>
<!-- Node4 -->
<g id="Node000004" class="node">
<title>Node4</title>
<g id="a_Node000004"><a xlink:href="namespacewmtk.html#adb1edeb39c4e0ef98ecc5afeed46891c" target="_top" xlink:title=" ">
<polygon fill="white" stroke="#666666" points="399,-185 295,-185 295,-166 399,-166 399,-185"/>
<text text-anchor="middle" x="347" y="-173" font-family="Helvetica,sans-Serif" font-size="10.00">wmtk::read_mesh</text>
</a>
</g>
</g>
<!-- Node3&#45;&gt;Node4 -->
<g id="edge3_Node000003_Node000004" class="edge">
<title>Node3&#45;&gt;Node4</title>
<g id="a_edge3_Node000003_Node000004"><a xlink:title=" ">
<path fill="none" stroke="#63b8ff" d="M424.6,-175.5C416.02,-175.5 407.46,-175.5 399.33,-175.5"/>
<polygon fill="#63b8ff" stroke="#63b8ff" points="424.67,-179 434.67,-175.5 424.67,-172 424.67,-179"/>
</a>
</g>
</g>
<!-- Node5 -->
<g id="Node000005" class="node">
<title>Node5</title>
<g id="a_Node000005"><a xlink:href="classwmtk_1_1io_1_1_cache.html#a6d9002c95cb93e5e4e68eaa6b5083f8c" target="_top" xlink:title="Compare two caches for equality.">
<polygon fill="white" stroke="#666666" points="250,-277 116,-277 116,-258 250,-258 250,-277"/>
<text text-anchor="middle" x="183" y="-265" font-family="Helvetica,sans-Serif" font-size="10.00">wmtk::io::Cache::equals</text>
</a>
</g>
</g>
<!-- Node4&#45;&gt;Node5 -->
<g id="edge4_Node000004_Node000005" class="edge">
<title>Node4&#45;&gt;Node5</title>
<g id="a_edge4_Node000004_Node000005"><a xlink:title=" ">
<path fill="none" stroke="#63b8ff" d="M320.2,-190.15C286.7,-209.18 229.16,-241.85 200.8,-257.96"/>
<polygon fill="#63b8ff" stroke="#63b8ff" points="322,-193.15 328.97,-185.17 318.55,-187.07 322,-193.15"/>
</a>
</g>
</g>
<!-- Node7 -->
<g id="Node000007" class="node">
<title>Node7</title>
<g id="a_Node000007"><a xlink:href="namespacewmtk_1_1components.html#a0385d7ace50dd77deab3d479b734435d" target="_top" xlink:title=" ">
<polygon fill="white" stroke="#666666" points="253.5,-185 112.5,-185 112.5,-166 253.5,-166 253.5,-185"/>
<text text-anchor="middle" x="183" y="-173" font-family="Helvetica,sans-Serif" font-size="10.00">wmtk::components::input</text>
</a>
</g>
</g>
<!-- Node4&#45;&gt;Node7 -->
<g id="edge6_Node000004_Node000007" class="edge">
<title>Node4&#45;&gt;Node7</title>
<g id="a_edge6_Node000004_Node000007"><a xlink:title=" ">
<path fill="none" stroke="#63b8ff" d="M284.74,-175.5C274.57,-175.5 263.95,-175.5 253.58,-175.5"/>
<polygon fill="#63b8ff" stroke="#63b8ff" points="284.74,-179 294.74,-175.5 284.74,-172 284.74,-179"/>
</a>
</g>
</g>
<!-- Node16 -->
<g id="Node000016" class="node">
<title>Node16</title>
<g id="a_Node000016"><a xlink:href="classwmtk_1_1io_1_1_cached_multi_mesh.html#aa33ef463beccbfc46f941380e988765c" target="_top" xlink:title=" ">
<polygon fill="white" stroke="#666666" points="259,-129.5 107,-129.5 107,-99.5 259,-99.5 259,-129.5"/>
<text text-anchor="start" x="115" y="-117.5" font-family="Helvetica,sans-Serif" font-size="10.00">wmtk::io::CachedMultiMesh</text>
<text text-anchor="middle" x="183" y="-106.5" font-family="Helvetica,sans-Serif" font-size="10.00">::load</text>
</a>
</g>
</g>
<!-- Node4&#45;&gt;Node16 -->
<g id="edge16_Node000004_Node000016" class="edge">
<title>Node4&#45;&gt;Node16</title>
<g id="a_edge16_Node000004_Node000016"><a xlink:title=" ">
<path fill="none" stroke="#63b8ff" d="M311.02,-162.33C285.42,-152.69 250.63,-139.59 223.94,-129.54"/>
<polygon fill="#63b8ff" stroke="#63b8ff" points="310.1,-165.72 320.69,-165.97 312.56,-159.17 310.1,-165.72"/>
</a>
</g>
</g>
<!-- Node6 -->
<g id="Node000006" class="node">
<title>Node6</title>
<g id="a_Node000006"><a xlink:href="test__component__import__cache_8cpp.html#a081b8f9743b3281709466fa4850cfb84" target="_top" xlink:title=" ">
<polygon fill="white" stroke="#666666" points="71,-315 0,-315 0,-296 71,-296 71,-315"/>
<text text-anchor="middle" x="35.5" y="-303" font-family="Helvetica,sans-Serif" font-size="10.00">TEST_CASE</text>
</a>
</g>
</g>
<!-- Node5&#45;&gt;Node6 -->
<g id="edge5_Node000005_Node000006" class="edge">
<title>Node5&#45;&gt;Node6</title>
<g id="a_edge5_Node000005_Node000006"><a xlink:title=" ">
<path fill="none" stroke="#63b8ff" d="M135.36,-279.68C114.53,-285.12 90.4,-291.42 71.2,-296.44"/>
<polygon fill="#63b8ff" stroke="#63b8ff" points="136.49,-283 145.28,-277.09 134.72,-276.23 136.49,-283"/>
</a>
</g>
</g>
<!-- Node7&#45;&gt;Node6 -->
<g id="edge8_Node000007_Node000006" class="edge">
<title>Node7&#45;&gt;Node6</title>
<g id="a_edge8_Node000007_Node000006"><a xlink:title=" ">
<path fill="none" stroke="#63b8ff" d="M164.43,-192.51C149.12,-207.4 126.41,-229.7 107,-249.5 90.72,-266.12 89.57,-273.48 71,-287.5 66.9,-290.59 62.2,-293.44 57.61,-295.91"/>
<polygon fill="#63b8ff" stroke="#63b8ff" points="166.97,-194.92 171.7,-185.45 162.09,-189.9 166.97,-194.92"/>
</a>
</g>
</g>
<!-- Node8 -->
<g id="Node000008" class="node">
<title>Node8</title>
<g id="a_Node000008"><a xlink:href="test__component__export__cache_8cpp.html#abcda20b0d7549011759e21e6f7401e27" target="_top" xlink:title=" ">
<polygon fill="white" stroke="#666666" points="71,-278 0,-278 0,-259 71,-259 71,-278"/>
<text text-anchor="middle" x="35.5" y="-266" font-family="Helvetica,sans-Serif" font-size="10.00">TEST_CASE</text>
</a>
</g>
</g>
<!-- Node7&#45;&gt;Node8 -->
<g id="edge7_Node000007_Node000008" class="edge">
<title>Node7&#45;&gt;Node8</title>
<g id="a_edge7_Node000007_Node000008"><a xlink:title=" ">
<path fill="none" stroke="#63b8ff" d="M160.71,-190.95C138.7,-206.66 103.13,-231.35 71,-250.5 66.13,-253.41 60.74,-256.34 55.69,-258.98"/>
<polygon fill="#63b8ff" stroke="#63b8ff" points="162.91,-193.68 168.99,-185 158.82,-187.99 162.91,-193.68"/>
</a>
</g>
</g>
<!-- Node9 -->
<g id="Node000009" class="node">
<title>Node9</title>
<g id="a_Node000009"><a xlink:href="test__component__isotropic__remeshing_8cpp.html#a64dc4992576434e79fdb0838f9092ab8" target="_top" xlink:title=" ">
<polygon fill="white" stroke="#666666" points="71,-241 0,-241 0,-222 71,-222 71,-241"/>
<text text-anchor="middle" x="35.5" y="-229" font-family="Helvetica,sans-Serif" font-size="10.00">TEST_CASE</text>
</a>
</g>
</g>
<!-- Node7&#45;&gt;Node9 -->
<g id="edge9_Node000007_Node000009" class="edge">
<title>Node7&#45;&gt;Node9</title>
<g id="a_edge9_Node000007_Node000009"><a xlink:title=" ">
<path fill="none" stroke="#63b8ff" d="M147.32,-188.85C120.79,-199.06 84.85,-212.89 61.19,-222"/>
<polygon fill="#63b8ff" stroke="#63b8ff" points="148.91,-191.99 156.99,-185.13 146.4,-185.45 148.91,-191.99"/>
</a>
</g>
</g>
<!-- Node10 -->
<g id="Node000010" class="node">
<title>Node10</title>
<g id="a_Node000010"><a xlink:href="test__component__mesh__info_8cpp.html#ae25bd2a8d9e0eab8fb1941fed8422302" target="_top" xlink:title=" ">
<polygon fill="white" stroke="#666666" points="71,-204 0,-204 0,-185 71,-185 71,-204"/>
<text text-anchor="middle" x="35.5" y="-192" font-family="Helvetica,sans-Serif" font-size="10.00">TEST_CASE</text>
</a>
</g>
</g>
<!-- Node7&#45;&gt;Node10 -->
<g id="edge10_Node000007_Node000010" class="edge">
<title>Node7&#45;&gt;Node10</title>
<g id="a_edge10_Node000007_Node000010"><a xlink:title=" ">
<path fill="none" stroke="#63b8ff" d="M102.19,-185.92C91.28,-187.35 80.59,-188.74 71.1,-189.98"/>
<polygon fill="#63b8ff" stroke="#63b8ff" points="102.77,-189.38 112.23,-184.61 101.86,-182.43 102.77,-189.38"/>
</a>
</g>
</g>
<!-- Node11 -->
<g id="Node000011" class="node">
<title>Node11</title>
<g id="a_Node000011"><a xlink:href="test__component__output_8cpp.html#a9cbc10082dfd7713ea795808bc50b513" target="_top" xlink:title=" ">
<polygon fill="white" stroke="#666666" points="71,-167 0,-167 0,-148 71,-148 71,-167"/>
<text text-anchor="middle" x="35.5" y="-155" font-family="Helvetica,sans-Serif" font-size="10.00">TEST_CASE</text>
</a>
</g>
</g>
<!-- Node7&#45;&gt;Node11 -->
<g id="edge11_Node000007_Node000011" class="edge">
<title>Node7&#45;&gt;Node11</title>
<g id="a_edge11_Node000007_Node000011"><a xlink:title=" ">
<path fill="none" stroke="#63b8ff" d="M102.19,-165.63C91.28,-164.28 80.59,-162.95 71.1,-161.78"/>
<polygon fill="#63b8ff" stroke="#63b8ff" points="101.88,-169.11 112.23,-166.87 102.74,-162.17 101.88,-169.11"/>
</a>
</g>
</g>
<!-- Node12 -->
<g id="Node000012" class="node">
<title>Node12</title>
<g id="a_Node000012"><a xlink:href="test__component__isotropic__remeshing_8cpp.html#ab3fcea88943daf212aeeda03eb0baa8b" target="_top" xlink:title=" ">
<polygon fill="white" stroke="#666666" points="71,-130 0,-130 0,-111 71,-111 71,-130"/>
<text text-anchor="middle" x="35.5" y="-118" font-family="Helvetica,sans-Serif" font-size="10.00">TEST_CASE</text>
</a>
</g>
</g>
<!-- Node7&#45;&gt;Node12 -->
<g id="edge12_Node000007_Node000012" class="edge">
<title>Node7&#45;&gt;Node12</title>
<g id="a_edge12_Node000007_Node000012"><a xlink:title=" ">
<path fill="none" stroke="#63b8ff" d="M127.37,-163.19C120.44,-161.18 113.5,-158.95 107,-156.5 96.65,-152.6 71.43,-139.37 54.14,-130.08"/>
<polygon fill="#63b8ff" stroke="#63b8ff" points="126.9,-166.69 137.47,-165.97 128.76,-159.94 126.9,-166.69"/>
</a>
</g>
</g>
<!-- Node13 -->
<g id="Node000013" class="node">
<title>Node13</title>
<g id="a_Node000013"><a xlink:href="test__component__isotropic__remeshing_8cpp.html#aceca2caa1612565bd919bd8cf0ea0232" target="_top" xlink:title=" ">
<polygon fill="white" stroke="#666666" points="71,-93 0,-93 0,-74 71,-74 71,-93"/>
<text text-anchor="middle" x="35.5" y="-81" font-family="Helvetica,sans-Serif" font-size="10.00">TEST_CASE</text>
</a>
</g>
</g>
<!-- Node7&#45;&gt;Node13 -->
<g id="edge13_Node000007_Node000013" class="edge">
<title>Node7&#45;&gt;Node13</title>
<g id="a_edge13_Node000007_Node000013"><a xlink:title=" ">
<path fill="none" stroke="#63b8ff" d="M115.7,-161.74C112.66,-160.18 109.74,-158.44 107,-156.5 83.45,-139.85 92.24,-122.02 71,-102.5 67.07,-98.89 62.34,-95.72 57.65,-93.05"/>
<polygon fill="#63b8ff" stroke="#63b8ff" points="114.56,-165.06 125.12,-165.92 117.4,-158.67 114.56,-165.06"/>
</a>
</g>
</g>
<!-- Node14 -->
<g id="Node000014" class="node">
<title>Node14</title>
<g id="a_Node000014"><a xlink:href="test__component__isotropic__remeshing_8cpp.html#adf1e479866f5fbf4faa9038ece31a877" target="_top" xlink:title=" ">
<polygon fill="white" stroke="#666666" points="71,-56 0,-56 0,-37 71,-37 71,-56"/>
<text text-anchor="middle" x="35.5" y="-44" font-family="Helvetica,sans-Serif" font-size="10.00">TEST_CASE</text>
</a>
</g>
</g>
<!-- Node7&#45;&gt;Node14 -->
<g id="edge14_Node000007_Node000014" class="edge">
<title>Node7&#45;&gt;Node14</title>
<g id="a_edge14_Node000007_Node000014"><a xlink:title=" ">
<path fill="none" stroke="#63b8ff" d="M112.59,-160.79C110.63,-159.48 108.76,-158.05 107,-156.5 74.33,-127.78 99.75,-98.14 71,-65.5 67.75,-61.81 63.59,-58.69 59.31,-56.11"/>
<polygon fill="#63b8ff" stroke="#63b8ff" points="111.21,-164.03 121.65,-165.85 114.62,-157.91 111.21,-164.03"/>
</a>
</g>
</g>
<!-- Node15 -->
<g id="Node000015" class="node">
<title>Node15</title>
<g id="a_Node000015"><a xlink:href="test__component__wildmeshing_8cpp.html#a219d81c90b83b8e8c21801a6bba773cc" target="_top" xlink:title=" ">
<polygon fill="white" stroke="#666666" points="71,-19 0,-19 0,0 71,0 71,-19"/>
<text text-anchor="middle" x="35.5" y="-7" font-family="Helvetica,sans-Serif" font-size="10.00">TEST_CASE</text>
</a>
</g>
</g>
<!-- Node7&#45;&gt;Node15 -->
<g id="edge15_Node000007_Node000015" class="edge">
<title>Node7&#45;&gt;Node15</title>
<g id="a_edge15_Node000007_Node000015"><a xlink:title=" ">
<path fill="none" stroke="#63b8ff" d="M111.7,-160.52C110.05,-159.28 108.48,-157.94 107,-156.5 64.41,-114.92 108.48,-73.75 71,-27.5 68.28,-24.14 64.76,-21.34 61.02,-19.02"/>
<polygon fill="#63b8ff" stroke="#63b8ff" points="110.14,-163.68 120.49,-165.95 113.82,-157.72 110.14,-163.68"/>
</a>
</g>
</g>
<!-- Node16&#45;&gt;Node16 -->
<g id="edge17_Node000016_Node000016" class="edge">
<title>Node16&#45;&gt;Node16</title>
<g id="a_edge17_Node000016_Node000016"><a xlink:title=" ">
<path fill="none" stroke="#63b8ff" d="M208.56,-140.1C205.06,-144.47 196.54,-147.5 183,-147.5 160.19,-147.5 151.63,-138.91 157.34,-129.78"/>
<polygon fill="#63b8ff" stroke="#63b8ff" points="212.06,-139.81 208.66,-129.78 205.06,-139.74 212.06,-139.81"/>
</a>
</g>
</g>
</g>
</svg>
