<?xml version="1.0" encoding="UTF-8" standalone="no"?>
<!DOCTYPE svg PUBLIC "-//W3C//DTD SVG 1.1//EN"
 "http://www.w3.org/Graphics/SVG/1.1/DTD/svg11.dtd">
<!-- Generated by graphviz version 2.43.0 (0)
 -->
<!-- Title: wmtk::SchedulerStats::number_of_failed_operations Pages: 1 -->
<svg width="605pt" height="395pt"
 viewBox="0.00 0.00 605.00 394.50" xmlns="http://www.w3.org/2000/svg" xmlns:xlink="http://www.w3.org/1999/xlink">
<g id="graph0" class="graph" transform="scale(1 1) rotate(0) translate(4 390.5)">
<title>wmtk::SchedulerStats::number_of_failed_operations</title>
<!-- Node1 -->
<g id="Node000001" class="node">
<title>Node1</title>
<g id="a_Node000001"><a xlink:title="Returns the number of failed operations performed by the scheduler.">
<polygon fill="#999999" stroke="#666666" points="597,-91.5 432,-91.5 432,-61.5 597,-61.5 597,-91.5"/>
<text text-anchor="start" x="440" y="-79.5" font-family="Helvetica,sans-Serif" font-size="10.00">wmtk::SchedulerStats</text>
<text text-anchor="middle" x="514.5" y="-68.5" font-family="Helvetica,sans-Serif" font-size="10.00">::number_of_failed_operations</text>
</a>
</g>
</g>
<!-- Node2 -->
<g id="Node000002" class="node">
<title>Node2</title>
<g id="a_Node000002"><a xlink:href="namespacewmtk_1_1components_1_1internal.html#a49432d47b0fca2f5fe80f1e9c634fa14" target="_top" xlink:title=" ">
<polygon fill="white" stroke="#666666" points="383,-250.5 229,-250.5 229,-220.5 383,-220.5 383,-250.5"/>
<text text-anchor="start" x="237" y="-238.5" font-family="Helvetica,sans-Serif" font-size="10.00">wmtk::components::internal</text>
<text text-anchor="middle" x="306" y="-227.5" font-family="Helvetica,sans-Serif" font-size="10.00">::isotropic_remeshing</text>
</a>
</g>
</g>
<!-- Node1&#45;&gt;Node2 -->
<g id="edge1_Node000001_Node000002" class="edge">
<title>Node1&#45;&gt;Node2</title>
<g id="a_edge1_Node000001_Node000002"><a xlink:title=" ">
<path fill="none" stroke="#63b8ff" d="M485.75,-97.86C443.41,-130.47 363.7,-191.84 326.74,-220.3"/>
<polygon fill="#63b8ff" stroke="#63b8ff" points="487.91,-100.62 493.7,-91.75 483.64,-95.07 487.91,-100.62"/>
</a>
</g>
</g>
<!-- Node10 -->
<g id="Node000010" class="node">
<title>Node10</title>
<g id="a_Node000010"><a xlink:href="namespacewmtk_1_1components_1_1internal.html#a8890d5e5bb5f11779d4e40e07882253a" target="_top" xlink:title=" ">
<polygon fill="white" stroke="#666666" points="383,-115.5 229,-115.5 229,-85.5 383,-85.5 383,-115.5"/>
<text text-anchor="start" x="237" y="-103.5" font-family="Helvetica,sans-Serif" font-size="10.00">wmtk::components::internal</text>
<text text-anchor="middle" x="306" y="-92.5" font-family="Helvetica,sans-Serif" font-size="10.00">::periodic_optimization</text>
</a>
</g>
</g>
<!-- Node1&#45;&gt;Node10 -->
<g id="edge10_Node000001_Node000010" class="edge">
<title>Node1&#45;&gt;Node10</title>
<g id="a_edge10_Node000001_Node000010"><a xlink:title=" ">
<path fill="none" stroke="#63b8ff" d="M421.67,-87.17C408.86,-88.66 395.8,-90.18 383.32,-91.63"/>
<polygon fill="#63b8ff" stroke="#63b8ff" points="422.36,-90.62 431.89,-85.99 421.55,-83.66 422.36,-90.62"/>
</a>
</g>
</g>
<!-- Node12 -->
<g id="Node000012" class="node">
<title>Node12</title>
<g id="a_Node000012"><a xlink:href="namespacewmtk_1_1components.html#ae3a4b32383fdc9c2eb8334cc8ef947a5" target="_top" xlink:title="Perform shortest&#45;edge collapse on a triangular surface mesh.">
<polygon fill="white" stroke="#666666" points="396,-67.5 216,-67.5 216,-37.5 396,-37.5 396,-67.5"/>
<text text-anchor="start" x="224" y="-55.5" font-family="Helvetica,sans-Serif" font-size="10.00">wmtk::components::shortestedge</text>
<text text-anchor="middle" x="306" y="-44.5" font-family="Helvetica,sans-Serif" font-size="10.00">_collapse</text>
</a>
</g>
</g>
<!-- Node1&#45;&gt;Node12 -->
<g id="edge13_Node000001_Node000012" class="edge">
<title>Node1&#45;&gt;Node12</title>
<g id="a_edge13_Node000001_Node000012"><a xlink:title=" ">
<path fill="none" stroke="#63b8ff" d="M421.92,-65.86C413.37,-64.86 404.71,-63.86 396.19,-62.87"/>
<polygon fill="#63b8ff" stroke="#63b8ff" points="421.55,-69.34 431.89,-67.01 422.36,-62.38 421.55,-69.34"/>
</a>
</g>
</g>
<!-- Node14 -->
<g id="Node000014" class="node">
<title>Node14</title>
<g id="a_Node000014"><a xlink:href="namespacewmtk_1_1components.html#ac6ca52668bd22e164d4baf59ec533864" target="_top" xlink:title=" ">
<polygon fill="white" stroke="#666666" points="395.5,-19 216.5,-19 216.5,0 395.5,0 395.5,-19"/>
<text text-anchor="middle" x="306" y="-7" font-family="Helvetica,sans-Serif" font-size="10.00">wmtk::components::wildmeshing</text>
</a>
</g>
</g>
<!-- Node1&#45;&gt;Node14 -->
<g id="edge15_Node000001_Node000014" class="edge">
<title>Node1&#45;&gt;Node14</title>
<g id="a_edge15_Node000001_Node000014"><a xlink:title=" ">
<path fill="none" stroke="#63b8ff" d="M471.71,-57.31C449.56,-47.68 421.68,-36.42 396,-28.5 384.22,-24.87 371.36,-21.69 359.17,-19.02"/>
<polygon fill="#63b8ff" stroke="#63b8ff" points="470.58,-60.64 481.15,-61.46 473.4,-54.23 470.58,-60.64"/>
</a>
</g>
</g>
<!-- Node2&#45;&gt;Node2 -->
<g id="edge2_Node000002_Node000002" class="edge">
<title>Node2&#45;&gt;Node2</title>
<g id="a_edge2_Node000002_Node000002"><a xlink:title=" ">
<path fill="none" stroke="#63b8ff" d="M342.41,-261.1C337.43,-265.47 325.3,-268.5 306,-268.5 273.5,-268.5 261.31,-259.91 269.44,-250.78"/>
<polygon fill="#63b8ff" stroke="#63b8ff" points="345.91,-260.83 342.56,-250.78 338.91,-260.72 345.91,-260.83"/>
</a>
</g>
</g>
<!-- Node3 -->
<g id="Node000003" class="node">
<title>Node3</title>
<g id="a_Node000003"><a xlink:href="namespacewmtk_1_1components.html#ae6dfdbd73d7018f6f21bb2396872c796" target="_top" xlink:title=" ">
<polygon fill="white" stroke="#666666" points="169,-386.5 11,-386.5 11,-356.5 169,-356.5 169,-386.5"/>
<text text-anchor="start" x="19" y="-374.5" font-family="Helvetica,sans-Serif" font-size="10.00">wmtk::components::isotropic</text>
<text text-anchor="middle" x="90" y="-363.5" font-family="Helvetica,sans-Serif" font-size="10.00">_remeshing</text>
</a>
</g>
</g>
<!-- Node2&#45;&gt;Node3 -->
<g id="edge3_Node000002_Node000003" class="edge">
<title>Node2&#45;&gt;Node3</title>
<g id="a_edge3_Node000002_Node000003"><a xlink:title=" ">
<path fill="none" stroke="#63b8ff" d="M285.66,-258.32C262.9,-283.74 222.76,-324.31 180,-347.5 173.67,-350.93 166.81,-353.9 159.82,-356.46"/>
<polygon fill="#63b8ff" stroke="#63b8ff" points="288.44,-260.45 292.42,-250.64 283.19,-255.83 288.44,-260.45"/>
</a>
</g>
</g>
<!-- Node4 -->
<g id="Node000004" class="node">
<title>Node4</title>
<g id="a_Node000004"><a xlink:href="test__component__isotropic__remeshing_8cpp.html#a64dc4992576434e79fdb0838f9092ab8" target="_top" xlink:title=" ">
<polygon fill="white" stroke="#666666" points="125.5,-338 54.5,-338 54.5,-319 125.5,-319 125.5,-338"/>
<text text-anchor="middle" x="90" y="-326" font-family="Helvetica,sans-Serif" font-size="10.00">TEST_CASE</text>
</a>
</g>
</g>
<!-- Node2&#45;&gt;Node4 -->
<g id="edge4_Node000002_Node000004" class="edge">
<title>Node2&#45;&gt;Node4</title>
<g id="a_edge4_Node000002_Node000004"><a xlink:title=" ">
<path fill="none" stroke="#63b8ff" d="M276.48,-256.49C252.04,-273.5 215.3,-296.81 180,-310.5 162.66,-317.23 142.39,-321.58 125.59,-324.31"/>
<polygon fill="#63b8ff" stroke="#63b8ff" points="278.75,-259.17 284.9,-250.54 274.71,-253.46 278.75,-259.17"/>
</a>
</g>
</g>
<!-- Node5 -->
<g id="Node000005" class="node">
<title>Node5</title>
<g id="a_Node000005"><a xlink:href="test__component__isotropic__remeshing_8cpp.html#aae475685ae29b731655dd43137a950d6" target="_top" xlink:title=" ">
<polygon fill="white" stroke="#666666" points="125.5,-301 54.5,-301 54.5,-282 125.5,-282 125.5,-301"/>
<text text-anchor="middle" x="90" y="-289" font-family="Helvetica,sans-Serif" font-size="10.00">TEST_CASE</text>
</a>
</g>
</g>
<!-- Node2&#45;&gt;Node5 -->
<g id="edge5_Node000002_Node000005" class="edge">
<title>Node2&#45;&gt;Node5</title>
<g id="a_edge5_Node000002_Node000005"><a xlink:title=" ">
<path fill="none" stroke="#63b8ff" d="M249.62,-253.58C228.03,-260.3 202.98,-267.7 180,-273.5 162.27,-277.98 142.33,-282.09 125.83,-285.25"/>
<polygon fill="#63b8ff" stroke="#63b8ff" points="250.79,-256.88 259.29,-250.54 248.7,-250.2 250.79,-256.88"/>
</a>
</g>
</g>
<!-- Node6 -->
<g id="Node000006" class="node">
<title>Node6</title>
<g id="a_Node000006"><a xlink:href="test__component__isotropic__remeshing_8cpp.html#ab3fcea88943daf212aeeda03eb0baa8b" target="_top" xlink:title=" ">
<polygon fill="white" stroke="#666666" points="125.5,-264 54.5,-264 54.5,-245 125.5,-245 125.5,-264"/>
<text text-anchor="middle" x="90" y="-252" font-family="Helvetica,sans-Serif" font-size="10.00">TEST_CASE</text>
</a>
</g>
</g>
<!-- Node2&#45;&gt;Node6 -->
<g id="edge6_Node000002_Node000006" class="edge">
<title>Node2&#45;&gt;Node6</title>
<g id="a_edge6_Node000002_Node000006"><a xlink:title=" ">
<path fill="none" stroke="#63b8ff" d="M218.9,-243.14C186.19,-246.05 150.77,-249.19 125.52,-251.44"/>
<polygon fill="#63b8ff" stroke="#63b8ff" points="219.3,-246.62 228.95,-242.25 218.68,-239.65 219.3,-246.62"/>
</a>
</g>
</g>
<!-- Node7 -->
<g id="Node000007" class="node">
<title>Node7</title>
<g id="a_Node000007"><a xlink:href="test__component__isotropic__remeshing_8cpp.html#aceca2caa1612565bd919bd8cf0ea0232" target="_top" xlink:title=" ">
<polygon fill="white" stroke="#666666" points="125.5,-227 54.5,-227 54.5,-208 125.5,-208 125.5,-227"/>
<text text-anchor="middle" x="90" y="-215" font-family="Helvetica,sans-Serif" font-size="10.00">TEST_CASE</text>
</a>
</g>
</g>
<!-- Node2&#45;&gt;Node7 -->
<g id="edge7_Node000002_Node000007" class="edge">
<title>Node2&#45;&gt;Node7</title>
<g id="a_edge7_Node000002_Node000007"><a xlink:title=" ">
<path fill="none" stroke="#63b8ff" d="M218.9,-228.26C186.19,-225.51 150.77,-222.53 125.52,-220.4"/>
<polygon fill="#63b8ff" stroke="#63b8ff" points="218.69,-231.75 228.95,-229.1 219.28,-224.78 218.69,-231.75"/>
</a>
</g>
</g>
<!-- Node8 -->
<g id="Node000008" class="node">
<title>Node8</title>
<g id="a_Node000008"><a xlink:href="test__component__isotropic__remeshing_8cpp.html#a51ae85bc413e9940267e8a366e0bcc9f" target="_top" xlink:title=" ">
<polygon fill="white" stroke="#666666" points="125.5,-190 54.5,-190 54.5,-171 125.5,-171 125.5,-190"/>
<text text-anchor="middle" x="90" y="-178" font-family="Helvetica,sans-Serif" font-size="10.00">TEST_CASE</text>
</a>
</g>
</g>
<!-- Node2&#45;&gt;Node8 -->
<g id="edge8_Node000002_Node000008" class="edge">
<title>Node2&#45;&gt;Node8</title>
<g id="a_edge8_Node000002_Node000008"><a xlink:title=" ">
<path fill="none" stroke="#63b8ff" d="M246,-217.59C225.22,-211.52 201.65,-204.92 180,-199.5 162.22,-195.05 142.28,-190.73 125.79,-187.34"/>
<polygon fill="#63b8ff" stroke="#63b8ff" points="245.06,-220.96 255.64,-220.42 247.03,-214.24 245.06,-220.96"/>
</a>
</g>
</g>
<!-- Node9 -->
<g id="Node000009" class="node">
<title>Node9</title>
<g id="a_Node000009"><a xlink:href="test__component__isotropic__remeshing_8cpp.html#a9e0dd9408a6fe42f1fb8e8764f740dda" target="_top" xlink:title=" ">
<polygon fill="white" stroke="#666666" points="125.5,-153 54.5,-153 54.5,-134 125.5,-134 125.5,-153"/>
<text text-anchor="middle" x="90" y="-141" font-family="Helvetica,sans-Serif" font-size="10.00">TEST_CASE</text>
</a>
</g>
</g>
<!-- Node2&#45;&gt;Node9 -->
<g id="edge9_Node000002_Node000009" class="edge">
<title>Node2&#45;&gt;Node9</title>
<g id="a_edge9_Node000002_Node000009"><a xlink:title=" ">
<path fill="none" stroke="#63b8ff" d="M275.47,-214.6C250.97,-198.18 214.65,-175.92 180,-162.5 162.61,-155.77 142.35,-151.21 125.55,-148.24"/>
<polygon fill="#63b8ff" stroke="#63b8ff" points="273.7,-217.63 283.94,-220.36 277.64,-211.84 273.7,-217.63"/>
</a>
</g>
</g>
<!-- Node10&#45;&gt;Node10 -->
<g id="edge12_Node000010_Node000010" class="edge">
<title>Node10&#45;&gt;Node10</title>
<g id="a_edge12_Node000010_Node000010"><a xlink:title=" ">
<path fill="none" stroke="#63b8ff" d="M342.41,-126.1C337.43,-130.47 325.3,-133.5 306,-133.5 273.5,-133.5 261.31,-124.91 269.44,-115.78"/>
<polygon fill="#63b8ff" stroke="#63b8ff" points="345.91,-125.83 342.56,-115.78 338.91,-125.72 345.91,-125.83"/>
</a>
</g>
</g>
<!-- Node11 -->
<g id="Node000011" class="node">
<title>Node11</title>
<g id="a_Node000011"><a xlink:href="namespacewmtk_1_1components.html#a4166e4880553cfacbf79ac3515a637cd" target="_top" xlink:title=" ">
<polygon fill="white" stroke="#666666" points="167.5,-115.5 12.5,-115.5 12.5,-85.5 167.5,-85.5 167.5,-115.5"/>
<text text-anchor="start" x="20.5" y="-103.5" font-family="Helvetica,sans-Serif" font-size="10.00">wmtk::components::periodic</text>
<text text-anchor="middle" x="90" y="-92.5" font-family="Helvetica,sans-Serif" font-size="10.00">_optimization</text>
</a>
</g>
</g>
<!-- Node10&#45;&gt;Node11 -->
<g id="edge11_Node000010_Node000011" class="edge">
<title>Node10&#45;&gt;Node11</title>
<g id="a_edge11_Node000010_Node000011"><a xlink:title=" ">
<path fill="none" stroke="#63b8ff" d="M218.54,-100.5C201.66,-100.5 184.06,-100.5 167.53,-100.5"/>
<polygon fill="#63b8ff" stroke="#63b8ff" points="218.95,-104 228.95,-100.5 218.95,-97 218.95,-104"/>
</a>
</g>
</g>
<!-- Node13 -->
<g id="Node000013" class="node">
<title>Node13</title>
<g id="a_Node000013"><a xlink:href="namespacewmtk_1_1components.html#a3154cdbc6047eee67258b69cc7d5e7cf" target="_top" xlink:title="Perform shortest&#45;edge collapse on a triangular surface mesh.">
<polygon fill="white" stroke="#666666" points="180,-67.5 0,-67.5 0,-37.5 180,-37.5 180,-67.5"/>
<text text-anchor="start" x="8" y="-55.5" font-family="Helvetica,sans-Serif" font-size="10.00">wmtk::components::shortestedge</text>
<text text-anchor="middle" x="90" y="-44.5" font-family="Helvetica,sans-Serif" font-size="10.00">_collapse</text>
</a>
</g>
</g>
<!-- Node12&#45;&gt;Node13 -->
<g id="edge14_Node000012_Node000013" class="edge">
<title>Node12&#45;&gt;Node13</title>
<g id="a_edge14_Node000012_Node000013"><a xlink:title=" ">
<path fill="none" stroke="#63b8ff" d="M205.77,-52.5C197.19,-52.5 188.55,-52.5 180.06,-52.5"/>
<polygon fill="#63b8ff" stroke="#63b8ff" points="205.79,-56 215.79,-52.5 205.79,-49 205.79,-56"/>
</a>
</g>
</g>
</g>
</svg>
