<?xml version="1.0" encoding="UTF-8" standalone="no"?>
<!DOCTYPE svg PUBLIC "-//W3C//DTD SVG 1.1//EN"
 "http://www.w3.org/Graphics/SVG/1.1/DTD/svg11.dtd">
<!-- Generated by graphviz version 2.43.0 (0)
 -->
<!-- Title: wmtk::TetMesh::TetMeshOperationExecutor::split_edge Pages: 1 -->
<svg width="899pt" height="624pt"
 viewBox="0.00 0.00 899.00 624.00" xmlns="http://www.w3.org/2000/svg" xmlns:xlink="http://www.w3.org/1999/xlink">
<g id="graph0" class="graph" transform="scale(1 1) rotate(0) translate(4 620)">
<title>wmtk::TetMesh::TetMeshOperationExecutor::split_edge</title>
<!-- Node1 -->
<g id="Node000001" class="node">
<title>Node1</title>
<g id="a_Node000001"><a xlink:title="split edge v1&#45;v2">
<polygon fill="#999999" stroke="#666666" points="185,-424 0,-424 0,-394 185,-394 185,-424"/>
<text text-anchor="start" x="8" y="-412" font-family="Helvetica,sans-Serif" font-size="10.00">wmtk::TetMesh::TetMeshOperation</text>
<text text-anchor="middle" x="92.5" y="-401" font-family="Helvetica,sans-Serif" font-size="10.00">Executor::split_edge</text>
</a>
</g>
</g>
<!-- Node2 -->
<g id="Node000002" class="node">
<title>Node2</title>
<g id="a_Node000002"><a xlink:href="classwmtk_1_1simplex_1_1_simplex.html#a753a9245716f207b57cd92fcab5936e7" target="_top" xlink:title=" ">
<polygon fill="white" stroke="#666666" points="362.5,-568 227.5,-568 227.5,-538 362.5,-538 362.5,-568"/>
<text text-anchor="start" x="235.5" y="-556" font-family="Helvetica,sans-Serif" font-size="10.00">wmtk::simplex::Simplex</text>
<text text-anchor="middle" x="295" y="-545" font-family="Helvetica,sans-Serif" font-size="10.00">::edge</text>
</a>
</g>
</g>
<!-- Node1&#45;&gt;Node2 -->
<g id="edge1_Node000001_Node000002" class="edge">
<title>Node1&#45;&gt;Node2</title>
<g id="a_edge1_Node000001_Node000002"><a xlink:title=" ">
<path fill="none" stroke="#63b8ff" d="M105.65,-424.12C126.63,-449.31 172.14,-499.95 221,-529 223.81,-530.67 226.75,-532.24 229.77,-533.72"/>
<polygon fill="#63b8ff" stroke="#63b8ff" points="228.46,-536.96 239.02,-537.85 231.32,-530.57 228.46,-536.96"/>
</a>
</g>
</g>
<!-- Node4 -->
<g id="Node000004" class="node">
<title>Node4</title>
<g id="a_Node000004"><a xlink:href="classwmtk_1_1simplex_1_1_simplex.html#a2b9d969f3c7b1d746abc29d228f91328" target="_top" xlink:title=" ">
<polygon fill="white" stroke="#666666" points="362.5,-376 227.5,-376 227.5,-346 362.5,-346 362.5,-376"/>
<text text-anchor="start" x="235.5" y="-364" font-family="Helvetica,sans-Serif" font-size="10.00">wmtk::simplex::Simplex</text>
<text text-anchor="middle" x="295" y="-353" font-family="Helvetica,sans-Serif" font-size="10.00">::face</text>
</a>
</g>
</g>
<!-- Node1&#45;&gt;Node4 -->
<g id="edge3_Node000001_Node000004" class="edge">
<title>Node1&#45;&gt;Node4</title>
<g id="a_edge3_Node000001_Node000004"><a xlink:title=" ">
<path fill="none" stroke="#63b8ff" d="M156.39,-393.94C177.01,-389.01 200.09,-383.48 221.38,-378.39"/>
<polygon fill="#63b8ff" stroke="#63b8ff" points="222.42,-381.73 231.33,-376 220.79,-374.93 222.42,-381.73"/>
</a>
</g>
</g>
<!-- Node5 -->
<g id="Node000005" class="node">
<title>Node5</title>
<g id="a_Node000005"><a xlink:href="classwmtk_1_1utils_1_1_tuple_inspector.html#a3a04acf16e0eff80ade8e0fb8753ac1b" target="_top" xlink:title=" ">
<polygon fill="white" stroke="#666666" points="369,-520 221,-520 221,-490 369,-490 369,-520"/>
<text text-anchor="start" x="229" y="-508" font-family="Helvetica,sans-Serif" font-size="10.00">wmtk::utils::TupleInspector</text>
<text text-anchor="middle" x="295" y="-497" font-family="Helvetica,sans-Serif" font-size="10.00">::local_eid</text>
</a>
</g>
</g>
<!-- Node1&#45;&gt;Node5 -->
<g id="edge5_Node000001_Node000005" class="edge">
<title>Node1&#45;&gt;Node5</title>
<g id="a_edge5_Node000001_Node000005"><a xlink:title=" ">
<path fill="none" stroke="#63b8ff" d="M117.21,-424.26C142.28,-439.95 183.33,-464.36 221,-481 225.16,-482.84 229.51,-484.61 233.92,-486.31"/>
<polygon fill="#63b8ff" stroke="#63b8ff" points="233.04,-489.71 243.64,-489.89 235.46,-483.14 233.04,-489.71"/>
</a>
</g>
</g>
<!-- Node6 -->
<g id="Node000006" class="node">
<title>Node6</title>
<g id="a_Node000006"><a xlink:href="classwmtk_1_1utils_1_1_tuple_inspector.html#ae4f5c770f4a2f9440eef24448929432d" target="_top" xlink:title=" ">
<polygon fill="white" stroke="#666666" points="369,-472 221,-472 221,-442 369,-442 369,-472"/>
<text text-anchor="start" x="229" y="-460" font-family="Helvetica,sans-Serif" font-size="10.00">wmtk::utils::TupleInspector</text>
<text text-anchor="middle" x="295" y="-449" font-family="Helvetica,sans-Serif" font-size="10.00">::local_fid</text>
</a>
</g>
</g>
<!-- Node1&#45;&gt;Node6 -->
<g id="edge6_Node000001_Node000006" class="edge">
<title>Node1&#45;&gt;Node6</title>
<g id="a_edge6_Node000001_Node000006"><a xlink:title=" ">
<path fill="none" stroke="#63b8ff" d="M156.39,-424.06C177.01,-428.99 200.09,-434.52 221.38,-439.61"/>
<polygon fill="#63b8ff" stroke="#63b8ff" points="220.79,-443.07 231.33,-442 222.42,-436.27 220.79,-443.07"/>
</a>
</g>
</g>
<!-- Node7 -->
<g id="Node000007" class="node">
<title>Node7</title>
<g id="a_Node000007"><a xlink:href="classwmtk_1_1utils_1_1_tuple_inspector.html#a92f5faa08a7f78424f5cd1ec79dcedbb" target="_top" xlink:title=" ">
<polygon fill="white" stroke="#666666" points="369,-424 221,-424 221,-394 369,-394 369,-424"/>
<text text-anchor="start" x="229" y="-412" font-family="Helvetica,sans-Serif" font-size="10.00">wmtk::utils::TupleInspector</text>
<text text-anchor="middle" x="295" y="-401" font-family="Helvetica,sans-Serif" font-size="10.00">::local_vid</text>
</a>
</g>
</g>
<!-- Node1&#45;&gt;Node7 -->
<g id="edge7_Node000001_Node000007" class="edge">
<title>Node1&#45;&gt;Node7</title>
<g id="a_edge7_Node000001_Node000007"><a xlink:title=" ">
<path fill="none" stroke="#63b8ff" d="M185.24,-409C193.75,-409 202.33,-409 210.75,-409"/>
<polygon fill="#63b8ff" stroke="#63b8ff" points="210.93,-412.5 220.93,-409 210.93,-405.5 210.93,-412.5"/>
</a>
</g>
</g>
<!-- Node8 -->
<g id="Node000008" class="node">
<title>Node8</title>
<g id="a_Node000008"><a xlink:href="namespacewmtk.html#a6a35f11c12436093d26fdd8be6fecc06" target="_top" xlink:title="Retrieves the current logger.">
<polygon fill="white" stroke="#666666" points="517,-325.5 436,-325.5 436,-306.5 517,-306.5 517,-325.5"/>
<text text-anchor="middle" x="476.5" y="-313.5" font-family="Helvetica,sans-Serif" font-size="10.00">wmtk::logger</text>
</a>
</g>
</g>
<!-- Node1&#45;&gt;Node8 -->
<g id="edge8_Node000001_Node000008" class="edge">
<title>Node1&#45;&gt;Node8</title>
<g id="a_edge8_Node000001_Node000008"><a xlink:title=" ">
<path fill="none" stroke="#63b8ff" d="M103.55,-393.86C122.62,-366.67 167.03,-310.4 221,-289 282.15,-264.75 303.73,-280.85 369,-289 375.31,-289.79 403.99,-297.09 429.99,-303.9"/>
<polygon fill="#63b8ff" stroke="#63b8ff" points="429.21,-307.32 439.77,-306.48 430.99,-300.55 429.21,-307.32"/>
</a>
</g>
</g>
<!-- Node10 -->
<g id="Node000010" class="node">
<title>Node10</title>
<g id="a_Node000010"><a xlink:href="classwmtk_1_1_mesh.html#ac205d6addf4e76f000c70547253735f0" target="_top" xlink:title=" ">
<polygon fill="white" stroke="#666666" points="354.5,-197 235.5,-197 235.5,-167 354.5,-167 354.5,-197"/>
<text text-anchor="start" x="243.5" y="-185" font-family="Helvetica,sans-Serif" font-size="10.00">wmtk::Mesh::request</text>
<text text-anchor="middle" x="295" y="-174" font-family="Helvetica,sans-Serif" font-size="10.00">_simplex_indices</text>
</a>
</g>
</g>
<!-- Node1&#45;&gt;Node10 -->
<g id="edge10_Node000001_Node000010" class="edge">
<title>Node1&#45;&gt;Node10</title>
<g id="a_edge10_Node000001_Node000010"><a xlink:title=" ">
<path fill="none" stroke="#63b8ff" d="M105.4,-393.88C127.5,-366.01 176.63,-304.92 221,-256 237.21,-238.13 256.4,-218.74 271.03,-204.29"/>
<polygon fill="#63b8ff" stroke="#63b8ff" points="273.55,-206.73 278.23,-197.23 268.64,-201.74 273.55,-206.73"/>
</a>
</g>
</g>
<!-- Node21 -->
<g id="Node000021" class="node">
<title>Node21</title>
<g id="a_Node000021"><a xlink:href="classwmtk_1_1simplex_1_1_simplex.html#a7cff84ea4d1ff4f5ba3ec96a7ddd5c01" target="_top" xlink:title=" ">
<polygon fill="white" stroke="#666666" points="362.5,-328 227.5,-328 227.5,-298 362.5,-298 362.5,-328"/>
<text text-anchor="start" x="235.5" y="-316" font-family="Helvetica,sans-Serif" font-size="10.00">wmtk::simplex::Simplex</text>
<text text-anchor="middle" x="295" y="-305" font-family="Helvetica,sans-Serif" font-size="10.00">::tetrahedron</text>
</a>
</g>
</g>
<!-- Node1&#45;&gt;Node21 -->
<g id="edge25_Node000001_Node000021" class="edge">
<title>Node1&#45;&gt;Node21</title>
<g id="a_edge25_Node000001_Node000021"><a xlink:title=" ">
<path fill="none" stroke="#63b8ff" d="M117.21,-393.74C142.28,-378.05 183.33,-353.64 221,-337 225.16,-335.16 229.51,-333.39 233.92,-331.69"/>
<polygon fill="#63b8ff" stroke="#63b8ff" points="235.46,-334.86 243.64,-328.11 233.04,-328.29 235.46,-334.86"/>
</a>
</g>
</g>
<!-- Node22 -->
<g id="Node000022" class="node">
<title>Node22</title>
<g id="a_Node000022"><a xlink:href="classwmtk_1_1simplex_1_1_simplex.html#a7de67a391b9f48b57f4ecb4c412ccaee" target="_top" xlink:title=" ">
<polygon fill="white" stroke="#666666" points="362.5,-616 227.5,-616 227.5,-586 362.5,-586 362.5,-616"/>
<text text-anchor="start" x="235.5" y="-604" font-family="Helvetica,sans-Serif" font-size="10.00">wmtk::simplex::Simplex</text>
<text text-anchor="middle" x="295" y="-593" font-family="Helvetica,sans-Serif" font-size="10.00">::vertex</text>
</a>
</g>
</g>
<!-- Node1&#45;&gt;Node22 -->
<g id="edge27_Node000001_Node000022" class="edge">
<title>Node1&#45;&gt;Node22</title>
<g id="a_edge27_Node000001_Node000022"><a xlink:title=" ">
<path fill="none" stroke="#63b8ff" d="M101.08,-424.48C117.99,-457.42 161.98,-534.9 221,-577 223.09,-578.49 225.28,-579.89 227.54,-581.21"/>
<polygon fill="#63b8ff" stroke="#63b8ff" points="226.07,-584.39 236.56,-585.9 229.3,-578.18 226.07,-584.39"/>
</a>
</g>
</g>
<!-- Node3 -->
<g id="Node000003" class="node">
<title>Node3</title>
<g id="a_Node000003"><a xlink:href="classwmtk_1_1simplex_1_1_simplex.html#ab6d51ca0c220792c1c09824d152bb53a" target="_top" xlink:title=" ">
<polygon fill="white" stroke="#666666" points="544,-472 409,-472 409,-442 544,-442 544,-472"/>
<text text-anchor="start" x="417" y="-460" font-family="Helvetica,sans-Serif" font-size="10.00">wmtk::simplex::Simplex</text>
<text text-anchor="middle" x="476.5" y="-449" font-family="Helvetica,sans-Serif" font-size="10.00">::Simplex</text>
</a>
</g>
</g>
<!-- Node2&#45;&gt;Node3 -->
<g id="edge2_Node000002_Node000003" class="edge">
<title>Node2&#45;&gt;Node3</title>
<g id="a_edge2_Node000002_Node000003"><a xlink:title=" ">
<path fill="none" stroke="#63b8ff" d="M347.77,-537.97C355.03,-535.29 362.29,-532.29 369,-529 397.71,-514.92 427.64,-494.05 448.43,-478.4"/>
<polygon fill="#63b8ff" stroke="#63b8ff" points="450.65,-481.11 456.48,-472.26 446.4,-475.54 450.65,-481.11"/>
</a>
</g>
</g>
<!-- Node4&#45;&gt;Node3 -->
<g id="edge4_Node000004_Node000003" class="edge">
<title>Node4&#45;&gt;Node3</title>
<g id="a_edge4_Node000004_Node000003"><a xlink:title=" ">
<path fill="none" stroke="#63b8ff" d="M347.77,-376.03C355.03,-378.71 362.29,-381.71 369,-385 397.71,-399.08 427.64,-419.95 448.43,-435.6"/>
<polygon fill="#63b8ff" stroke="#63b8ff" points="446.4,-438.46 456.48,-441.74 450.65,-432.89 446.4,-438.46"/>
</a>
</g>
</g>
<!-- Node9 -->
<g id="Node000009" class="node">
<title>Node9</title>
<g id="a_Node000009"><a xlink:href="namespacewmtk.html#a3daa7951a5f8b78cf4600dc047fcc180" target="_top" xlink:title="Setup a logger object to be used by WildmeshToolkit.">
<polygon fill="white" stroke="#666666" points="712,-325.5 611,-325.5 611,-306.5 712,-306.5 712,-325.5"/>
<text text-anchor="middle" x="661.5" y="-313.5" font-family="Helvetica,sans-Serif" font-size="10.00">wmtk::set_logger</text>
</a>
</g>
</g>
<!-- Node8&#45;&gt;Node9 -->
<g id="edge9_Node000008_Node000009" class="edge">
<title>Node8&#45;&gt;Node9</title>
<g id="a_edge9_Node000008_Node000009"><a xlink:title=" ">
<path fill="none" stroke="#63b8ff" d="M517.21,-316C541.54,-316 573.15,-316 600.49,-316"/>
<polygon fill="#63b8ff" stroke="#63b8ff" points="600.73,-319.5 610.73,-316 600.73,-312.5 600.73,-319.5"/>
</a>
</g>
</g>
<!-- Node10&#45;&gt;Node8 -->
<g id="edge20_Node000010_Node000008" class="edge">
<title>Node10&#45;&gt;Node8</title>
<g id="a_edge20_Node000010_Node000008"><a xlink:title=" ">
<path fill="none" stroke="#63b8ff" d="M311.36,-197.05C326.32,-211.83 349.57,-235.13 369,-256 385.52,-273.75 384.41,-284.19 405,-297 411.36,-300.96 418.55,-304.11 425.83,-306.6"/>
<polygon fill="#63b8ff" stroke="#63b8ff" points="425.18,-310.06 435.77,-309.61 427.21,-303.36 425.18,-310.06"/>
</a>
</g>
</g>
<!-- Node11 -->
<g id="Node000011" class="node">
<title>Node11</title>
<g id="a_Node000011"><a xlink:href="classwmtk_1_1_mesh.html#a3e8ff83c4a5526a40d18bb9883c6c6c9" target="_top" xlink:title="read in the m_capacities return the upper bound for the number of entities of the given dimension">
<polygon fill="white" stroke="#666666" points="723.5,-191.5 599.5,-191.5 599.5,-172.5 723.5,-172.5 723.5,-191.5"/>
<text text-anchor="middle" x="661.5" y="-179.5" font-family="Helvetica,sans-Serif" font-size="10.00">wmtk::Mesh::capacity</text>
</a>
</g>
</g>
<!-- Node10&#45;&gt;Node11 -->
<g id="edge11_Node000010_Node000011" class="edge">
<title>Node10&#45;&gt;Node11</title>
<g id="a_edge11_Node000010_Node000011"><a xlink:title=" ">
<path fill="none" stroke="#63b8ff" d="M354.56,-182C418.4,-182 520.57,-182 589.07,-182"/>
<polygon fill="#63b8ff" stroke="#63b8ff" points="589.34,-185.5 599.34,-182 589.34,-178.5 589.34,-185.5"/>
</a>
</g>
</g>
<!-- Node12 -->
<g id="Node000012" class="node">
<title>Node12</title>
<g id="a_Node000012"><a xlink:href="namespacewmtk.html#a5cf45c152e856196bb734c6f48919a24" target="_top" xlink:title="Get a unique integer id corresponding to each primitive type.">
<polygon fill="white" stroke="#666666" points="891,-140 775,-140 775,-110 891,-110 891,-140"/>
<text text-anchor="start" x="783" y="-128" font-family="Helvetica,sans-Serif" font-size="10.00">wmtk::get_primitive</text>
<text text-anchor="middle" x="833" y="-117" font-family="Helvetica,sans-Serif" font-size="10.00">_type_id</text>
</a>
</g>
</g>
<!-- Node10&#45;&gt;Node12 -->
<g id="edge17_Node000010_Node000012" class="edge">
<title>Node10&#45;&gt;Node12</title>
<g id="a_edge17_Node000010_Node000012"><a xlink:title=" ">
<path fill="none" stroke="#63b8ff" d="M354.64,-175.76C454.93,-165.1 658.8,-143.42 764.72,-132.15"/>
<polygon fill="#63b8ff" stroke="#63b8ff" points="765.4,-135.6 774.97,-131.06 764.66,-128.64 765.4,-135.6"/>
</a>
</g>
</g>
<!-- Node13 -->
<g id="Node000013" class="node">
<title>Node13</title>
<g id="a_Node000013"><a xlink:href="classwmtk_1_1_mesh.html#ae0e8f71e9e17a90be9423117efcc4c81" target="_top" xlink:title=" ">
<polygon fill="white" stroke="#666666" points="537.5,-30 415.5,-30 415.5,0 537.5,0 537.5,-30"/>
<text text-anchor="start" x="423.5" y="-18" font-family="Helvetica,sans-Serif" font-size="10.00">wmtk::Mesh::get_flag</text>
<text text-anchor="middle" x="476.5" y="-7" font-family="Helvetica,sans-Serif" font-size="10.00">_accessor</text>
</a>
</g>
</g>
<!-- Node10&#45;&gt;Node13 -->
<g id="edge13_Node000010_Node000013" class="edge">
<title>Node10&#45;&gt;Node13</title>
<g id="a_edge13_Node000010_Node000013"><a xlink:title=" ">
<path fill="none" stroke="#63b8ff" d="M303.67,-166.68C318.98,-137.6 356.1,-74.19 405,-39 407.07,-37.51 409.23,-36.11 411.47,-34.8"/>
<polygon fill="#63b8ff" stroke="#63b8ff" points="413.17,-37.86 420.39,-30.11 409.91,-31.66 413.17,-37.86"/>
</a>
</g>
</g>
<!-- Node16 -->
<g id="Node000016" class="node">
<title>Node16</title>
<g id="a_Node000016"><a xlink:href="classwmtk_1_1attribute_1_1_accessor.html#a2d587e12c47a6d839ab80e9198cf75b5" target="_top" xlink:title=" ">
<polygon fill="white" stroke="#666666" points="547.5,-78 405.5,-78 405.5,-48 547.5,-48 547.5,-78"/>
<text text-anchor="start" x="413.5" y="-66" font-family="Helvetica,sans-Serif" font-size="10.00">wmtk::attribute::Accessor</text>
<text text-anchor="middle" x="476.5" y="-55" font-family="Helvetica,sans-Serif" font-size="10.00">::index_access</text>
</a>
</g>
</g>
<!-- Node10&#45;&gt;Node16 -->
<g id="edge18_Node000010_Node000016" class="edge">
<title>Node10&#45;&gt;Node16</title>
<g id="a_edge18_Node000010_Node000016"><a xlink:title=" ">
<path fill="none" stroke="#63b8ff" d="M311.11,-166.97C331.19,-147.65 368.38,-113.96 405,-92 410.87,-88.48 417.25,-85.2 423.69,-82.2"/>
<polygon fill="#63b8ff" stroke="#63b8ff" points="425.39,-85.27 433.12,-78.02 422.56,-78.87 425.39,-85.27"/>
</a>
</g>
</g>
<!-- Node18 -->
<g id="Node000018" class="node">
<title>Node18</title>
<g id="a_Node000018"><a xlink:href="namespacewmtk.html#a339897f6efeb23a997750141f12892ee" target="_top" xlink:title=" ">
<polygon fill="white" stroke="#666666" points="739,-115.5 584,-115.5 584,-96.5 739,-96.5 739,-115.5"/>
<text text-anchor="middle" x="661.5" y="-103.5" font-family="Helvetica,sans-Serif" font-size="10.00">wmtk::primitive_type_name</text>
</a>
</g>
</g>
<!-- Node10&#45;&gt;Node18 -->
<g id="edge21_Node000010_Node000018" class="edge">
<title>Node10&#45;&gt;Node18</title>
<g id="a_edge21_Node000010_Node000018"><a xlink:title=" ">
<path fill="none" stroke="#63b8ff" d="M320.99,-166.94C342.47,-154.78 374.68,-138.37 405,-130 459.84,-114.86 523.55,-108.85 573.63,-106.63"/>
<polygon fill="#63b8ff" stroke="#63b8ff" points="573.92,-110.12 583.78,-106.23 573.64,-103.13 573.92,-110.12"/>
</a>
</g>
</g>
<!-- Node19 -->
<g id="Node000019" class="node">
<title>Node19</title>
<g id="a_Node000019"><a xlink:href="classwmtk_1_1attribute_1_1_accessor_base.html#ada0ffe6f114ed47ad205989d8a6f67da" target="_top" xlink:title=" ">
<polygon fill="white" stroke="#666666" points="547.5,-288 405.5,-288 405.5,-258 547.5,-258 547.5,-288"/>
<text text-anchor="start" x="413.5" y="-276" font-family="Helvetica,sans-Serif" font-size="10.00">wmtk::attribute::Accessor</text>
<text text-anchor="middle" x="476.5" y="-265" font-family="Helvetica,sans-Serif" font-size="10.00">Base::reserved_size</text>
</a>
</g>
</g>
<!-- Node10&#45;&gt;Node19 -->
<g id="edge23_Node000010_Node000019" class="edge">
<title>Node10&#45;&gt;Node19</title>
<g id="a_edge23_Node000010_Node000019"><a xlink:title=" ">
<path fill="none" stroke="#63b8ff" d="M317.32,-197.09C338.73,-211.76 373.04,-233.97 405,-249 408.82,-250.8 412.81,-252.52 416.86,-254.17"/>
<polygon fill="#63b8ff" stroke="#63b8ff" points="415.81,-257.51 426.39,-257.87 418.34,-250.99 415.81,-257.51"/>
</a>
</g>
</g>
<!-- Node20 -->
<g id="Node000020" class="node">
<title>Node20</title>
<g id="a_Node000020"><a xlink:href="classwmtk_1_1attribute_1_1_caching_accessor.html#a73f8d78b708406dcd6433398e3954e72" target="_top" xlink:title=" ">
<polygon fill="white" stroke="#666666" points="548,-240 405,-240 405,-210 548,-210 548,-240"/>
<text text-anchor="start" x="413" y="-228" font-family="Helvetica,sans-Serif" font-size="10.00">wmtk::attribute::Caching</text>
<text text-anchor="middle" x="476.5" y="-217" font-family="Helvetica,sans-Serif" font-size="10.00">Accessor::scalar_attribute</text>
</a>
</g>
</g>
<!-- Node10&#45;&gt;Node20 -->
<g id="edge24_Node000010_Node000020" class="edge">
<title>Node10&#45;&gt;Node20</title>
<g id="a_edge24_Node000010_Node000020"><a xlink:title=" ">
<path fill="none" stroke="#63b8ff" d="M354.78,-196.08C370.1,-199.75 386.8,-203.75 402.75,-207.57"/>
<polygon fill="#63b8ff" stroke="#63b8ff" points="402.03,-211 412.57,-209.93 403.66,-204.19 402.03,-211"/>
</a>
</g>
</g>
<!-- Node11&#45;&gt;Node12 -->
<g id="edge12_Node000011_Node000012" class="edge">
<title>Node11&#45;&gt;Node12</title>
<g id="a_edge12_Node000011_Node000012"><a xlink:title=" ">
<path fill="none" stroke="#63b8ff" d="M693.85,-172.45C707.72,-168.15 724.21,-162.94 739,-158 752.6,-153.46 767.24,-148.36 780.8,-143.55"/>
<polygon fill="#63b8ff" stroke="#63b8ff" points="782.2,-146.77 790.45,-140.11 779.85,-140.17 782.2,-146.77"/>
</a>
</g>
</g>
<!-- Node14 -->
<g id="Node000014" class="node">
<title>Node14</title>
<g id="a_Node000014"><a xlink:href="classwmtk_1_1_mesh.html#a6dbab927a2ee85f77a87f075fd5c1d94" target="_top" xlink:title=" ">
<polygon fill="white" stroke="#666666" points="726.5,-30 596.5,-30 596.5,0 726.5,0 726.5,-30"/>
<text text-anchor="start" x="604.5" y="-18" font-family="Helvetica,sans-Serif" font-size="10.00">wmtk::Mesh::get_const</text>
<text text-anchor="middle" x="661.5" y="-7" font-family="Helvetica,sans-Serif" font-size="10.00">_flag_accessor</text>
</a>
</g>
</g>
<!-- Node13&#45;&gt;Node14 -->
<g id="edge14_Node000013_Node000014" class="edge">
<title>Node13&#45;&gt;Node14</title>
<g id="a_edge14_Node000013_Node000014"><a xlink:title=" ">
<path fill="none" stroke="#63b8ff" d="M537.67,-15C553.06,-15 569.78,-15 585.8,-15"/>
<polygon fill="#63b8ff" stroke="#63b8ff" points="586.2,-18.5 596.2,-15 586.2,-11.5 586.2,-18.5"/>
</a>
</g>
</g>
<!-- Node14&#45;&gt;Node12 -->
<g id="edge16_Node000014_Node000012" class="edge">
<title>Node14&#45;&gt;Node12</title>
<g id="a_edge16_Node000014_Node000012"><a xlink:title=" ">
<path fill="none" stroke="#63b8ff" d="M720.49,-30.15C726.92,-32.71 733.22,-35.65 739,-39 767.93,-55.76 795.3,-82.95 812.76,-102.27"/>
<polygon fill="#63b8ff" stroke="#63b8ff" points="810.14,-104.59 819.39,-109.76 815.38,-99.95 810.14,-104.59"/>
</a>
</g>
</g>
<!-- Node15 -->
<g id="Node000015" class="node">
<title>Node15</title>
<g id="a_Node000015"><a xlink:href="classwmtk_1_1_mesh.html#a357182137d99f1e4a7ff536eadfc0e56" target="_top" xlink:title=" ">
<polygon fill="white" stroke="#666666" points="889.5,-30 776.5,-30 776.5,0 889.5,0 889.5,-30"/>
<text text-anchor="start" x="784.5" y="-18" font-family="Helvetica,sans-Serif" font-size="10.00">wmtk::Mesh::create</text>
<text text-anchor="middle" x="833" y="-7" font-family="Helvetica,sans-Serif" font-size="10.00">_const_accessor</text>
</a>
</g>
</g>
<!-- Node14&#45;&gt;Node15 -->
<g id="edge15_Node000014_Node000015" class="edge">
<title>Node14&#45;&gt;Node15</title>
<g id="a_edge15_Node000014_Node000015"><a xlink:title=" ">
<path fill="none" stroke="#63b8ff" d="M726.58,-15C739.53,-15 753.16,-15 766.16,-15"/>
<polygon fill="#63b8ff" stroke="#63b8ff" points="766.43,-18.5 776.43,-15 766.43,-11.5 766.43,-18.5"/>
</a>
</g>
</g>
<!-- Node17 -->
<g id="Node000017" class="node">
<title>Node17</title>
<g id="a_Node000017"><a xlink:href="classwmtk_1_1attribute_1_1_accessor.html#afd97a48ec5d1db975a030428df81f617" target="_top" xlink:title=" ">
<polygon fill="white" stroke="#666666" points="732.5,-78 590.5,-78 590.5,-48 732.5,-48 732.5,-78"/>
<text text-anchor="start" x="598.5" y="-66" font-family="Helvetica,sans-Serif" font-size="10.00">wmtk::attribute::Accessor</text>
<text text-anchor="middle" x="661.5" y="-55" font-family="Helvetica,sans-Serif" font-size="10.00">::caching_base_type</text>
</a>
</g>
</g>
<!-- Node16&#45;&gt;Node17 -->
<g id="edge19_Node000016_Node000017" class="edge">
<title>Node16&#45;&gt;Node17</title>
<g id="a_edge19_Node000016_Node000017"><a xlink:title=" ">
<path fill="none" stroke="#63b8ff" d="M547.73,-63C558.35,-63 569.37,-63 580.18,-63"/>
<polygon fill="#63b8ff" stroke="#63b8ff" points="580.46,-66.5 590.46,-63 580.46,-59.5 580.46,-66.5"/>
</a>
</g>
</g>
<!-- Node18&#45;&gt;Node12 -->
<g id="edge22_Node000018_Node000012" class="edge">
<title>Node18&#45;&gt;Node12</title>
<g id="a_edge22_Node000018_Node000012"><a xlink:title=" ">
<path fill="none" stroke="#63b8ff" d="M739.32,-114.61C747.85,-115.57 756.49,-116.54 764.88,-117.48"/>
<polygon fill="#63b8ff" stroke="#63b8ff" points="764.66,-120.97 774.98,-118.61 765.44,-114.02 764.66,-120.97"/>
</a>
</g>
</g>
<!-- Node21&#45;&gt;Node3 -->
<g id="edge26_Node000021_Node000003" class="edge">
<title>Node21&#45;&gt;Node3</title>
<g id="a_edge26_Node000021_Node000003"><a xlink:title=" ">
<path fill="none" stroke="#63b8ff" d="M352.42,-328.15C358.23,-330.7 363.87,-333.63 369,-337 408.11,-362.7 441.76,-406.35 460.27,-433.32"/>
<polygon fill="#63b8ff" stroke="#63b8ff" points="457.47,-435.43 465.95,-441.78 463.28,-431.53 457.47,-435.43"/>
</a>
</g>
</g>
<!-- Node22&#45;&gt;Node3 -->
<g id="edge28_Node000022_Node000003" class="edge">
<title>Node22&#45;&gt;Node3</title>
<g id="a_edge28_Node000022_Node000003"><a xlink:title=" ">
<path fill="none" stroke="#63b8ff" d="M352.42,-585.85C358.23,-583.3 363.87,-580.37 369,-577 408.11,-551.3 441.76,-507.65 460.27,-480.68"/>
<polygon fill="#63b8ff" stroke="#63b8ff" points="463.28,-482.47 465.95,-472.22 457.47,-478.57 463.28,-482.47"/>
</a>
</g>
</g>
</g>
</svg>
