<?xml version="1.0" encoding="UTF-8" standalone="no"?>
<!DOCTYPE svg PUBLIC "-//W3C//DTD SVG 1.1//EN"
 "http://www.w3.org/Graphics/SVG/1.1/DTD/svg11.dtd">
<!-- Generated by graphviz version 2.43.0 (0)
 -->
<!-- Title: wmtk::Mesh::register_attribute Pages: 1 -->
<!--zoomable 568 -->

<svg id="main" version="1.1" xmlns="http://www.w3.org/2000/svg" xmlns:xlink="http://www.w3.org/1999/xlink" xml:space="preserve" onload="init(evt)">
<style type="text/css"><![CDATA[
.node, .edge {opacity: 0.7;}
.node.selected, .edge.selected {opacity: 1;}
.edge:hover path { stroke: red; }
.edge:hover polygon { stroke: red; fill: red; }
]]></style>

<defs>
  <circle id="rim" cx="0" cy="0" r="7"/>
  <circle id="rim2" cx="0" cy="0" r="3.5"/>
  <g id="zoomPlus">
    <use xlink:href="#rim" fill="#404040"><set attributeName="fill" to="#808080" begin="zoomplus.mouseover" end="zoomplus.mouseout"/></use>
    <path d="M-4,0h8M0,-4v8" fill="none" stroke="white" stroke-width="1.5" pointer-events="none"/>
  </g>
  <g id="zoomMin">
    <use xlink:href="#rim" fill="#404040"><set attributeName="fill" to="#808080" begin="zoomminus.mouseover" end="zoomminus.mouseout"/></use>
    <path d="M-4,0h8" fill="none" stroke="white" stroke-width="1.5" pointer-events="none"/>
  </g>
  <g id="arrowUp" transform="translate(30 24)">
    <use xlink:href="#rim"/>
    <path pointer-events="none" fill="none" stroke="white" stroke-width="1.5" d="M0,-3.0v7 M-2.5,-0.5L0,-3.0L2.5,-0.5"/>
  </g>
  <g id="arrowRight" transform="rotate(90) translate(36 -43)">
    <use xlink:href="#rim"/>
    <path pointer-events="none" fill="none" stroke="white" stroke-width="1.5" d="M0,-3.0v7 M-2.5,-0.5L0,-3.0L2.5,-0.5"/>
  </g>
  <g id="arrowDown" transform="rotate(180) translate(-30 -48)">
    <use xlink:href="#rim"/>
    <path pointer-events="none" fill="none" stroke="white" stroke-width="1.5" d="M0,-3.0v7 M-2.5,-0.5L0,-3.0L2.5,-0.5"/>
  </g>
  <g id="arrowLeft" transform="rotate(270) translate(-36 17)">
    <use xlink:href="#rim"/>
    <path pointer-events="none" fill="none" stroke="white" stroke-width="1.5" d="M0,-3.0v7 M-2.5,-0.5L0,-3.0L2.5,-0.5"/>
  </g>
  <g id="resetDef">
    <use xlink:href="#rim2" fill="#404040"><set attributeName="fill" to="#808080" begin="reset.mouseover" end="reset.mouseout"/></use>
  </g>
</defs>
<script type="application/ecmascript">
var viewWidth = 872;
var viewHeight = 568;
var sectionId = 'dynsection-113';
</script>
<script type="application/ecmascript" xlink:href="svg.min.js"/>
<svg id="graph" class="graph">
<g id="viewport">
<title>wmtk::Mesh::register_attribute</title>
<!-- Node1 -->
<g id="Node000001" class="node">
<title>Node1</title>
<g id="a_Node000001"><a xlink:title=" ">
<polygon fill="#999999" stroke="#666666" points="864,-251 744,-251 744,-221 864,-221 864,-251"/>
<text text-anchor="start" x="752" y="-239" font-family="Helvetica,sans-Serif" font-size="10.00">wmtk::Mesh::register</text>
<text text-anchor="middle" x="804" y="-228" font-family="Helvetica,sans-Serif" font-size="10.00">_attribute</text>
</a>
</g>
</g>
<!-- Node2 -->
<g id="Node000002" class="node">
<title>Node2</title>
<g id="a_Node000002"><a xlink:href="classwmtk_1_1components_1_1internal_1_1_multi_mesh_from_tag.html#a00b7df05e0cd44c1a2d4e6ee39dbaacf" target="_top" xlink:title="Create the adjacency (stored as attribute) of the substructure.">
<polygon fill="white" stroke="#666666" points="695,-365.5 541,-365.5 541,-324.5 695,-324.5 695,-365.5"/>
<text text-anchor="start" x="549" y="-353.5" font-family="Helvetica,sans-Serif" font-size="10.00">wmtk::components::internal</text>
<text text-anchor="start" x="549" y="-342.5" font-family="Helvetica,sans-Serif" font-size="10.00">::MultiMeshFromTag::build</text>
<text text-anchor="middle" x="618" y="-331.5" font-family="Helvetica,sans-Serif" font-size="10.00">_adjacency_matrix</text>
</a>
</g>
</g>
<!-- Node1&#45;&gt;Node2 -->
<g id="edge1_Node000001_Node000002" class="edge">
<title>Node1&#45;&gt;Node2</title>
<g id="a_edge1_Node000001_Node000002"><a xlink:title=" ">
<path fill="none" stroke="#63b8ff" d="M778.69,-258.13C760.28,-274.07 733.83,-295.27 708,-310 698.77,-315.26 688.59,-320.08 678.52,-324.35"/>
<polygon fill="#63b8ff" stroke="#63b8ff" points="781.35,-260.45 786.55,-251.22 776.73,-255.2 781.35,-260.45"/>
</a>
</g>
</g>
<!-- Node3 -->
<g id="Node000003" class="node">
<title>Node3</title>
<g id="a_Node000003"><a xlink:href="classwmtk_1_1components_1_1internal_1_1_multi_mesh_from_tag.html#a96647e9413f2b7e13dd17f02cf29b12d" target="_top" xlink:title="Create a manifold mesh from the substructure.">
<polygon fill="white" stroke="#666666" points="484,-400.5 320,-400.5 320,-359.5 484,-359.5 484,-400.5"/>
<text text-anchor="start" x="328" y="-388.5" font-family="Helvetica,sans-Serif" font-size="10.00">wmtk::components::internal</text>
<text text-anchor="start" x="328" y="-377.5" font-family="Helvetica,sans-Serif" font-size="10.00">::MultiMeshFromTag::compute</text>
<text text-anchor="middle" x="402" y="-366.5" font-family="Helvetica,sans-Serif" font-size="10.00">_substructure_mesh</text>
</a>
</g>
</g>
<!-- Node1&#45;&gt;Node3 -->
<g id="edge14_Node000001_Node000003" class="edge">
<title>Node1&#45;&gt;Node3</title>
<g id="a_edge14_Node000001_Node000003"><a xlink:title=" ">
<path fill="none" stroke="#63b8ff" d="M794.4,-260.69C781.44,-293.6 753.48,-350.52 708,-375 639.34,-411.96 548.75,-408.06 484.18,-398.07"/>
<polygon fill="#63b8ff" stroke="#63b8ff" points="797.68,-261.91 797.94,-251.31 791.13,-259.43 797.68,-261.91"/>
</a>
</g>
</g>
<!-- Node12 -->
<g id="Node000012" class="node">
<title>Node12</title>
<g id="a_Node000012"><a xlink:href="test__component__multimesh__from__tag_8cpp.html#a4caad3dd8a6355f2ca66fdb0b0af7999" target="_top" xlink:title=" ">
<polygon fill="white" stroke="#666666" points="227,-229.5 156,-229.5 156,-210.5 227,-210.5 227,-229.5"/>
<text text-anchor="middle" x="191.5" y="-217.5" font-family="Helvetica,sans-Serif" font-size="10.00">TEST_CASE</text>
</a>
</g>
</g>
<!-- Node1&#45;&gt;Node12 -->
<g id="edge31_Node000001_Node000012" class="edge">
<title>Node1&#45;&gt;Node12</title>
<g id="a_edge31_Node000001_Node000012"><a xlink:title=" ">
<path fill="none" stroke="#63b8ff" d="M766.97,-255.68C749.68,-264.03 728.34,-272.8 708,-277 535.62,-312.61 475.65,-335.83 312,-271 292.1,-263.12 295.04,-248.79 276,-239 260.93,-231.25 242.72,-226.63 227.16,-223.9"/>
<polygon fill="#63b8ff" stroke="#63b8ff" points="768.74,-258.71 776.12,-251.11 765.61,-252.44 768.74,-258.71"/>
</a>
</g>
</g>
<!-- Node14 -->
<g id="Node000014" class="node">
<title>Node14</title>
<g id="a_Node000014"><a xlink:href="namespacewmtk_1_1utils.html#a216f2306e90d409a64e86d49e5ef31e2" target="_top" xlink:title=" ">
<polygon fill="white" stroke="#666666" points="690.5,-267.5 545.5,-267.5 545.5,-248.5 690.5,-248.5 690.5,-267.5"/>
<text text-anchor="middle" x="618" y="-255.5" font-family="Helvetica,sans-Serif" font-size="10.00">wmtk::utils::cast_attribute</text>
</a>
</g>
</g>
<!-- Node1&#45;&gt;Node14 -->
<g id="edge13_Node000001_Node000014" class="edge">
<title>Node1&#45;&gt;Node14</title>
<g id="a_edge13_Node000001_Node000014"><a xlink:title=" ">
<path fill="none" stroke="#63b8ff" d="M733.68,-244.29C719.62,-245.97 704.81,-247.74 690.67,-249.43"/>
<polygon fill="#63b8ff" stroke="#63b8ff" points="734.25,-247.74 743.77,-243.08 733.42,-240.79 734.25,-247.74"/>
</a>
</g>
</g>
<!-- Node15 -->
<g id="Node000015" class="node">
<title>Node15</title>
<g id="a_Node000015"><a xlink:href="namespacewmtk_1_1components.html#a7447d90d4590819b69239d895ea5dc86" target="_top" xlink:title=" ">
<polygon fill="white" stroke="#666666" points="692,-182 544,-182 544,-152 692,-152 692,-182"/>
<text text-anchor="start" x="552" y="-170" font-family="Helvetica,sans-Serif" font-size="10.00">wmtk::components::gather</text>
<text text-anchor="middle" x="618" y="-159" font-family="Helvetica,sans-Serif" font-size="10.00">_attributes</text>
</a>
</g>
</g>
<!-- Node1&#45;&gt;Node15 -->
<g id="edge15_Node000001_Node000015" class="edge">
<title>Node1&#45;&gt;Node15</title>
<g id="a_edge15_Node000001_Node000015"><a xlink:title=" ">
<path fill="none" stroke="#63b8ff" d="M765.33,-216.25C748.15,-207.74 727.36,-198.13 708,-191 699.29,-187.79 689.96,-184.81 680.73,-182.11"/>
<polygon fill="#63b8ff" stroke="#63b8ff" points="763.97,-219.48 774.47,-220.84 767.11,-213.22 763.97,-219.48"/>
</a>
</g>
</g>
<!-- Node18 -->
<g id="Node000018" class="node">
<title>Node18</title>
<g id="a_Node000018"><a xlink:href="namespacewmtk_1_1components.html#a52f9ca12856b67dee17249c6172e2bbe" target="_top" xlink:title=" ">
<polygon fill="white" stroke="#666666" points="702.5,-115.5 533.5,-115.5 533.5,-96.5 702.5,-96.5 702.5,-115.5"/>
<text text-anchor="middle" x="618" y="-103.5" font-family="Helvetica,sans-Serif" font-size="10.00">wmtk::components::multimesh</text>
</a>
</g>
</g>
<!-- Node1&#45;&gt;Node18 -->
<g id="edge19_Node000001_Node000018" class="edge">
<title>Node1&#45;&gt;Node18</title>
<g id="a_edge19_Node000001_Node000018"><a xlink:title=" ">
<path fill="none" stroke="#63b8ff" d="M784.37,-213.36C766.51,-192.81 737.91,-162.78 708,-143 690.14,-131.18 667.89,-121.93 650.1,-115.64"/>
<polygon fill="#63b8ff" stroke="#63b8ff" points="781.74,-215.67 790.89,-221 787.06,-211.12 781.74,-215.67"/>
</a>
</g>
</g>
<!-- Node19 -->
<g id="Node000019" class="node">
<title>Node19</title>
<g id="a_Node000019"><a xlink:href="namespacewmtk_1_1components_1_1internal.html#a8890d5e5bb5f11779d4e40e07882253a" target="_top" xlink:title=" ">
<polygon fill="white" stroke="#666666" points="479,-469 325,-469 325,-439 479,-439 479,-469"/>
<text text-anchor="start" x="333" y="-457" font-family="Helvetica,sans-Serif" font-size="10.00">wmtk::components::internal</text>
<text text-anchor="middle" x="402" y="-446" font-family="Helvetica,sans-Serif" font-size="10.00">::periodic_optimization</text>
</a>
</g>
</g>
<!-- Node1&#45;&gt;Node19 -->
<g id="edge21_Node000001_Node000019" class="edge">
<title>Node1&#45;&gt;Node19</title>
<g id="a_edge21_Node000001_Node000019"><a xlink:title=" ">
<path fill="none" stroke="#63b8ff" d="M796.32,-260.86C784.9,-298.23 757.87,-368.17 708,-403 640.77,-449.95 545.18,-459.03 479.01,-458.72"/>
<polygon fill="#63b8ff" stroke="#63b8ff" points="799.68,-261.83 799.13,-251.25 792.97,-259.86 799.68,-261.83"/>
</a>
</g>
</g>
<!-- Node20 -->
<g id="Node000020" class="node">
<title>Node20</title>
<g id="a_Node000020"><a xlink:href="classwmtk_1_1components_1_1internal_1_1_regular_space.html#af9adef544fff10ba9257d128fd13393c" target="_top" xlink:title=" ">
<polygon fill="white" stroke="#666666" points="703,-230 533,-230 533,-200 703,-200 703,-230"/>
<text text-anchor="start" x="541" y="-218" font-family="Helvetica,sans-Serif" font-size="10.00">wmtk::components::internal</text>
<text text-anchor="middle" x="618" y="-207" font-family="Helvetica,sans-Serif" font-size="10.00">::RegularSpace::regularize_tags</text>
</a>
</g>
</g>
<!-- Node1&#45;&gt;Node20 -->
<g id="edge24_Node000001_Node000020" class="edge">
<title>Node1&#45;&gt;Node20</title>
<g id="a_edge24_Node000001_Node000020"><a xlink:title=" ">
<path fill="none" stroke="#63b8ff" d="M733.6,-228.08C723.69,-226.95 713.4,-225.77 703.25,-224.62"/>
<polygon fill="#63b8ff" stroke="#63b8ff" points="733.44,-231.58 743.77,-229.24 734.23,-224.63 733.44,-231.58"/>
</a>
</g>
</g>
<!-- Node23 -->
<g id="Node000023" class="node">
<title>Node23</title>
<g id="a_Node000023"><a xlink:href="classwmtk_1_1_h_d_f5_reader.html#a24253eae6c0cdca26556f7dee93d7a7c" target="_top" xlink:title=" ">
<polygon fill="white" stroke="#666666" points="684.5,-78 551.5,-78 551.5,-48 684.5,-48 684.5,-78"/>
<text text-anchor="start" x="559.5" y="-66" font-family="Helvetica,sans-Serif" font-size="10.00">wmtk::HDF5Reader::set</text>
<text text-anchor="middle" x="618" y="-55" font-family="Helvetica,sans-Serif" font-size="10.00">_attribute</text>
</a>
</g>
</g>
<!-- Node1&#45;&gt;Node23 -->
<g id="edge28_Node000001_Node000023" class="edge">
<title>Node1&#45;&gt;Node23</title>
<g id="a_edge28_Node000001_Node000023"><a xlink:title=" ">
<path fill="none" stroke="#63b8ff" d="M793.88,-211.21C780.34,-177.87 751.7,-119.08 708,-87 701.03,-81.89 693.05,-77.86 684.78,-74.69"/>
<polygon fill="#63b8ff" stroke="#63b8ff" points="790.69,-212.65 797.6,-220.68 797.21,-210.1 790.69,-212.65"/>
</a>
</g>
</g>
<!-- Node24 -->
<g id="Node000024" class="node">
<title>Node24</title>
<g id="a_Node000024"><a xlink:href="namespacewmtk_1_1components.html#ae3a4b32383fdc9c2eb8334cc8ef947a5" target="_top" xlink:title="Perform shortest&#45;edge collapse on a triangular surface mesh.">
<polygon fill="white" stroke="#666666" points="708,-30 528,-30 528,0 708,0 708,-30"/>
<text text-anchor="start" x="536" y="-18" font-family="Helvetica,sans-Serif" font-size="10.00">wmtk::components::shortestedge</text>
<text text-anchor="middle" x="618" y="-7" font-family="Helvetica,sans-Serif" font-size="10.00">_collapse</text>
</a>
</g>
</g>
<!-- Node1&#45;&gt;Node24 -->
<g id="edge29_Node000001_Node000024" class="edge">
<title>Node1&#45;&gt;Node24</title>
<g id="a_edge29_Node000001_Node000024"><a xlink:title=" ">
<path fill="none" stroke="#63b8ff" d="M797.96,-210.8C788.21,-168.74 762.71,-84.38 708,-39 703.81,-35.53 699.17,-32.55 694.26,-30.01"/>
<polygon fill="#63b8ff" stroke="#63b8ff" points="794.59,-211.75 800.16,-220.77 801.42,-210.25 794.59,-211.75"/>
</a>
</g>
</g>
<!-- Node2&#45;&gt;Node3 -->
<g id="edge2_Node000002_Node000003" class="edge">
<title>Node2&#45;&gt;Node3</title>
<g id="a_edge2_Node000002_Node000003"><a xlink:title=" ">
<path fill="none" stroke="#63b8ff" d="M530.93,-359.08C515.52,-361.6 499.51,-364.22 484.25,-366.71"/>
<polygon fill="#63b8ff" stroke="#63b8ff" points="531.65,-362.51 540.95,-357.44 530.52,-355.6 531.65,-362.51"/>
</a>
</g>
</g>
<!-- Node4 -->
<g id="Node000004" class="node">
<title>Node4</title>
<g id="a_Node000004"><a xlink:href="namespacewmtk_1_1components.html#ac309092566399cef68679a1bb8107d1e" target="_top" xlink:title="Generate a multi&#45;mesh from a mesh with a tag that represents the substructure, the mesh is changed.">
<polygon fill="white" stroke="#666666" points="276,-512 107,-512 107,-482 276,-482 276,-512"/>
<text text-anchor="start" x="115" y="-500" font-family="Helvetica,sans-Serif" font-size="10.00">wmtk::components::multimesh</text>
<text text-anchor="middle" x="191.5" y="-489" font-family="Helvetica,sans-Serif" font-size="10.00">_from_tag</text>
</a>
</g>
</g>
<!-- Node3&#45;&gt;Node4 -->
<g id="edge3_Node000003_Node000004" class="edge">
<title>Node3&#45;&gt;Node4</title>
<g id="a_edge3_Node000003_Node000004"><a xlink:title=" ">
<path fill="none" stroke="#63b8ff" d="M347.95,-405.65C335.58,-412.74 322.86,-420.98 312,-430 292.82,-445.92 296.89,-459.41 276,-473 270.69,-476.45 264.87,-479.42 258.86,-481.97"/>
<polygon fill="#63b8ff" stroke="#63b8ff" points="349.82,-408.62 356.87,-400.71 346.43,-402.5 349.82,-408.62"/>
</a>
</g>
</g>
<!-- Node6 -->
<g id="Node000006" class="node">
<title>Node6</title>
<g id="a_Node000006"><a xlink:href="namespacewmtk_1_1components.html#a4166e4880553cfacbf79ac3515a637cd" target="_top" xlink:title=" ">
<polygon fill="white" stroke="#666666" points="269,-560 114,-560 114,-530 269,-530 269,-560"/>
<text text-anchor="start" x="122" y="-548" font-family="Helvetica,sans-Serif" font-size="10.00">wmtk::components::periodic</text>
<text text-anchor="middle" x="191.5" y="-537" font-family="Helvetica,sans-Serif" font-size="10.00">_optimization</text>
</a>
</g>
</g>
<!-- Node3&#45;&gt;Node6 -->
<g id="edge5_Node000003_Node000006" class="edge">
<title>Node3&#45;&gt;Node6</title>
<g id="a_edge5_Node000003_Node000006"><a xlink:title=" ">
<path fill="none" stroke="#63b8ff" d="M341.71,-405.74C330.81,-412.45 320.28,-420.52 312,-430 283.39,-462.76 308.21,-491.77 276,-521 272.2,-524.45 267.94,-527.4 263.41,-529.93"/>
<polygon fill="#63b8ff" stroke="#63b8ff" points="343.6,-408.69 350.5,-400.65 340.09,-402.64 343.6,-408.69"/>
</a>
</g>
</g>
<!-- Node7 -->
<g id="Node000007" class="node">
<title>Node7</title>
<g id="a_Node000007"><a xlink:href="test__component__multimesh__from__tag_8cpp.html#a2231774bf0d53fb5f6c1b34753afb255" target="_top" xlink:title=" ">
<polygon fill="white" stroke="#666666" points="227,-463.5 156,-463.5 156,-444.5 227,-444.5 227,-463.5"/>
<text text-anchor="middle" x="191.5" y="-451.5" font-family="Helvetica,sans-Serif" font-size="10.00">TEST_CASE</text>
</a>
</g>
</g>
<!-- Node3&#45;&gt;Node7 -->
<g id="edge6_Node000003_Node000007" class="edge">
<title>Node3&#45;&gt;Node7</title>
<g id="a_edge6_Node000003_Node000007"><a xlink:title=" ">
<path fill="none" stroke="#63b8ff" d="M351.69,-404.96C329.06,-415.66 301.62,-427.6 276,-436 260.22,-441.17 242.26,-445.27 227.06,-448.23"/>
<polygon fill="#63b8ff" stroke="#63b8ff" points="353.25,-408.09 360.75,-400.62 350.22,-401.78 353.25,-408.09"/>
</a>
</g>
</g>
<!-- Node8 -->
<g id="Node000008" class="node">
<title>Node8</title>
<g id="a_Node000008"><a xlink:href="test__component__multimesh__from__tag_8cpp.html#a9a31cb828b93e2ddcf0a5063d4d1c9e6" target="_top" xlink:title=" ">
<polygon fill="white" stroke="#666666" points="227,-426.5 156,-426.5 156,-407.5 227,-407.5 227,-426.5"/>
<text text-anchor="middle" x="191.5" y="-414.5" font-family="Helvetica,sans-Serif" font-size="10.00">TEST_CASE</text>
</a>
</g>
</g>
<!-- Node3&#45;&gt;Node8 -->
<g id="edge7_Node000003_Node000008" class="edge">
<title>Node3&#45;&gt;Node8</title>
<g id="a_edge7_Node000003_Node000008"><a xlink:title=" ">
<path fill="none" stroke="#63b8ff" d="M309.92,-396.16C280.61,-401.36 249.9,-406.81 227.23,-410.84"/>
<polygon fill="#63b8ff" stroke="#63b8ff" points="310.56,-399.6 319.79,-394.41 309.33,-392.71 310.56,-399.6"/>
</a>
</g>
</g>
<!-- Node9 -->
<g id="Node000009" class="node">
<title>Node9</title>
<g id="a_Node000009"><a xlink:href="test__component__multimesh__from__tag_8cpp.html#a7a8f66a094907f369fa10876691f42f9" target="_top" xlink:title=" ">
<polygon fill="white" stroke="#666666" points="227,-389.5 156,-389.5 156,-370.5 227,-370.5 227,-389.5"/>
<text text-anchor="middle" x="191.5" y="-377.5" font-family="Helvetica,sans-Serif" font-size="10.00">TEST_CASE</text>
</a>
</g>
</g>
<!-- Node3&#45;&gt;Node9 -->
<g id="edge8_Node000003_Node000009" class="edge">
<title>Node3&#45;&gt;Node9</title>
<g id="a_edge8_Node000003_Node000009"><a xlink:title=" ">
<path fill="none" stroke="#63b8ff" d="M309.54,-380C280.35,-380 249.8,-380 227.23,-380"/>
<polygon fill="#63b8ff" stroke="#63b8ff" points="309.79,-383.5 319.79,-380 309.79,-376.5 309.79,-383.5"/>
</a>
</g>
</g>
<!-- Node10 -->
<g id="Node000010" class="node">
<title>Node10</title>
<g id="a_Node000010"><a xlink:href="test__component__multimesh__from__tag_8cpp.html#af55ce8249624ce4d6a3feaad760949a6" target="_top" xlink:title=" ">
<polygon fill="white" stroke="#666666" points="227,-352.5 156,-352.5 156,-333.5 227,-333.5 227,-352.5"/>
<text text-anchor="middle" x="191.5" y="-340.5" font-family="Helvetica,sans-Serif" font-size="10.00">TEST_CASE</text>
</a>
</g>
</g>
<!-- Node3&#45;&gt;Node10 -->
<g id="edge9_Node000003_Node000010" class="edge">
<title>Node3&#45;&gt;Node10</title>
<g id="a_edge9_Node000003_Node000010"><a xlink:title=" ">
<path fill="none" stroke="#63b8ff" d="M309.92,-363.84C280.61,-358.64 249.9,-353.19 227.23,-349.16"/>
<polygon fill="#63b8ff" stroke="#63b8ff" points="309.33,-367.29 319.79,-365.59 310.56,-360.4 309.33,-367.29"/>
</a>
</g>
</g>
<!-- Node11 -->
<g id="Node000011" class="node">
<title>Node11</title>
<g id="a_Node000011"><a xlink:href="test__component__multimesh__from__tag_8cpp.html#a18cd3d411cfadc472201c20662d62869" target="_top" xlink:title=" ">
<polygon fill="white" stroke="#666666" points="227,-315.5 156,-315.5 156,-296.5 227,-296.5 227,-315.5"/>
<text text-anchor="middle" x="191.5" y="-303.5" font-family="Helvetica,sans-Serif" font-size="10.00">TEST_CASE</text>
</a>
</g>
</g>
<!-- Node3&#45;&gt;Node11 -->
<g id="edge10_Node000003_Node000011" class="edge">
<title>Node3&#45;&gt;Node11</title>
<g id="a_edge10_Node000003_Node000011"><a xlink:title=" ">
<path fill="none" stroke="#63b8ff" d="M350.25,-355.04C327.87,-344.72 301.02,-333.27 276,-325 260.19,-319.78 242.23,-315.49 227.03,-312.31"/>
<polygon fill="#63b8ff" stroke="#63b8ff" points="349,-358.32 359.55,-359.37 351.96,-351.97 349,-358.32"/>
</a>
</g>
</g>
<!-- Node3&#45;&gt;Node12 -->
<g id="edge11_Node000003_Node000012" class="edge">
<title>Node3&#45;&gt;Node12</title>
<g id="a_edge11_Node000003_Node000012"><a xlink:title=" ">
<path fill="none" stroke="#63b8ff" d="M359.72,-353.37C343.45,-341.48 325.48,-326.44 312,-310 289.57,-282.64 303.89,-260.77 276,-239 262.17,-228.21 243.35,-223.33 227.08,-221.2"/>
<polygon fill="#63b8ff" stroke="#63b8ff" points="357.86,-356.35 368.04,-359.3 361.92,-350.64 357.86,-356.35"/>
</a>
</g>
</g>
<!-- Node13 -->
<g id="Node000013" class="node">
<title>Node13</title>
<g id="a_Node000013"><a xlink:href="namespacewmtk_1_1components.html#a9d6d11e3b7ba03911492ecfc79622247" target="_top" xlink:title=" ">
<polygon fill="white" stroke="#666666" points="268.5,-278 114.5,-278 114.5,-248 268.5,-248 268.5,-278"/>
<text text-anchor="start" x="122.5" y="-266" font-family="Helvetica,sans-Serif" font-size="10.00">wmtk::components::triangle</text>
<text text-anchor="middle" x="191.5" y="-255" font-family="Helvetica,sans-Serif" font-size="10.00">_insertion</text>
</a>
</g>
</g>
<!-- Node3&#45;&gt;Node13 -->
<g id="edge12_Node000003_Node000013" class="edge">
<title>Node3&#45;&gt;Node13</title>
<g id="a_edge12_Node000003_Node000013"><a xlink:title=" ">
<path fill="none" stroke="#63b8ff" d="M367.2,-353.08C337.03,-329.43 294.79,-297.37 276,-288 268.42,-284.22 260.16,-280.89 251.88,-278.01"/>
<polygon fill="#63b8ff" stroke="#63b8ff" points="365.34,-356.07 375.36,-359.5 369.67,-350.57 365.34,-356.07"/>
</a>
</g>
</g>
<!-- Node5 -->
<g id="Node000005" class="node">
<title>Node5</title>
<g id="a_Node000005"><a xlink:href="test__component__multimesh__from__tag_8cpp.html#a2b0208caf4b963a36a43604c3e7cf34a" target="_top" xlink:title=" ">
<polygon fill="white" stroke="#666666" points="71,-506.5 0,-506.5 0,-487.5 71,-487.5 71,-506.5"/>
<text text-anchor="middle" x="35.5" y="-494.5" font-family="Helvetica,sans-Serif" font-size="10.00">TEST_CASE</text>
</a>
</g>
</g>
<!-- Node4&#45;&gt;Node5 -->
<g id="edge4_Node000004_Node000005" class="edge">
<title>Node4&#45;&gt;Node5</title>
<g id="a_edge4_Node000004_Node000005"><a xlink:title=" ">
<path fill="none" stroke="#63b8ff" d="M96.52,-497C87.57,-497 78.93,-497 71.14,-497"/>
<polygon fill="#63b8ff" stroke="#63b8ff" points="96.74,-500.5 106.74,-497 96.74,-493.5 96.74,-500.5"/>
</a>
</g>
</g>
<!-- Node16 -->
<g id="Node000016" class="node">
<title>Node16</title>
<g id="a_Node000016"><a xlink:href="namespacewmtk_1_1components.html#a7cec0c38121ddd036af26c760311d0e8" target="_top" xlink:title=" ">
<polygon fill="white" stroke="#666666" points="477.5,-187 326.5,-187 326.5,-157 477.5,-157 477.5,-187"/>
<text text-anchor="start" x="334.5" y="-175" font-family="Helvetica,sans-Serif" font-size="10.00">wmtk::components::regular</text>
<text text-anchor="middle" x="402" y="-164" font-family="Helvetica,sans-Serif" font-size="10.00">_space</text>
</a>
</g>
</g>
<!-- Node15&#45;&gt;Node16 -->
<g id="edge16_Node000015_Node000016" class="edge">
<title>Node15&#45;&gt;Node16</title>
<g id="a_edge16_Node000015_Node000016"><a xlink:title=" ">
<path fill="none" stroke="#63b8ff" d="M533.77,-168.94C515.24,-169.38 495.7,-169.83 477.54,-170.26"/>
<polygon fill="#63b8ff" stroke="#63b8ff" points="534.04,-172.44 543.95,-168.71 533.87,-165.44 534.04,-172.44"/>
</a>
</g>
</g>
<!-- Node17 -->
<g id="Node000017" class="node">
<title>Node17</title>
<g id="a_Node000017"><a xlink:href="namespacewmtk_1_1components.html#ae22ac68a5d85a281c4aeafa97f5230bc" target="_top" xlink:title=" ">
<polygon fill="white" stroke="#666666" points="468,-121 336,-121 336,-91 468,-91 468,-121"/>
<text text-anchor="start" x="344" y="-109" font-family="Helvetica,sans-Serif" font-size="10.00">wmtk::components::tag</text>
<text text-anchor="middle" x="402" y="-98" font-family="Helvetica,sans-Serif" font-size="10.00">_intersection</text>
</a>
</g>
</g>
<!-- Node15&#45;&gt;Node17 -->
<g id="edge17_Node000015_Node000017" class="edge">
<title>Node15&#45;&gt;Node17</title>
<g id="a_edge17_Node000015_Node000017"><a xlink:title=" ">
<path fill="none" stroke="#63b8ff" d="M553.67,-149.26C545.04,-146.83 536.3,-144.36 528,-142 504,-135.17 477.43,-127.53 454.98,-121.05"/>
<polygon fill="#63b8ff" stroke="#63b8ff" points="552.76,-152.64 563.33,-151.99 554.65,-145.91 552.76,-152.64"/>
</a>
</g>
</g>
<!-- Node17&#45;&gt;Node17 -->
<g id="edge18_Node000017_Node000017" class="edge">
<title>Node17&#45;&gt;Node17</title>
<g id="a_edge18_Node000017_Node000017"><a xlink:title=" ">
<path fill="none" stroke="#63b8ff" d="M438.76,-131.6C433.74,-135.97 421.48,-139 402,-139 369.19,-139 356.88,-130.41 365.09,-121.28"/>
<polygon fill="#63b8ff" stroke="#63b8ff" points="442.26,-131.33 438.91,-121.28 435.26,-131.22 442.26,-131.33"/>
</a>
</g>
</g>
<!-- Node18&#45;&gt;Node18 -->
<g id="edge20_Node000018_Node000018" class="edge">
<title>Node18&#45;&gt;Node18</title>
<g id="a_edge20_Node000018_Node000018"><a xlink:title=" ">
<path fill="none" stroke="#63b8ff" d="M652.86,-123.57C652.35,-129.12 640.73,-133.5 618,-133.5 584.94,-133.5 575.39,-124.23 589.33,-115.58"/>
<polygon fill="#63b8ff" stroke="#63b8ff" points="655.56,-121.34 646.67,-115.58 650.03,-125.63 655.56,-121.34"/>
</a>
</g>
</g>
<!-- Node19&#45;&gt;Node6 -->
<g id="edge22_Node000019_Node000006" class="edge">
<title>Node19&#45;&gt;Node6</title>
<g id="a_edge22_Node000019_Node000006"><a xlink:title=" ">
<path fill="none" stroke="#63b8ff" d="M367.45,-474.51C342.81,-488.94 308.16,-507.93 276,-521 268.03,-524.24 259.48,-527.22 250.99,-529.91"/>
<polygon fill="#63b8ff" stroke="#63b8ff" points="369.56,-477.33 376.38,-469.22 365.99,-471.3 369.56,-477.33"/>
</a>
</g>
</g>
<!-- Node19&#45;&gt;Node19 -->
<g id="edge23_Node000019_Node000019" class="edge">
<title>Node19&#45;&gt;Node19</title>
<g id="a_edge23_Node000019_Node000019"><a xlink:title=" ">
<path fill="none" stroke="#63b8ff" d="M438.76,-479.6C433.74,-483.97 421.48,-487 402,-487 369.19,-487 356.88,-478.41 365.09,-469.28"/>
<polygon fill="#63b8ff" stroke="#63b8ff" points="442.26,-479.33 438.91,-469.28 435.26,-479.22 442.26,-479.33"/>
</a>
</g>
</g>
<!-- Node20&#45;&gt;Node16 -->
<g id="edge25_Node000020_Node000016" class="edge">
<title>Node20&#45;&gt;Node16</title>
<g id="a_edge25_Node000020_Node000016"><a xlink:title=" ">
<path fill="none" stroke="#63b8ff" d="M532.26,-197.97C514.27,-194.36 495.4,-190.57 477.8,-187.03"/>
<polygon fill="#63b8ff" stroke="#63b8ff" points="531.66,-201.42 542.15,-199.96 533.04,-194.56 531.66,-201.42"/>
</a>
</g>
</g>
<!-- Node21 -->
<g id="Node000021" class="node">
<title>Node21</title>
<g id="a_Node000021"><a xlink:href="test__component__regular__space_8cpp.html#a728024a1ea7ac078fd93d4035f705520" target="_top" xlink:title=" ">
<polygon fill="white" stroke="#666666" points="437.5,-261.5 366.5,-261.5 366.5,-242.5 437.5,-242.5 437.5,-261.5"/>
<text text-anchor="middle" x="402" y="-249.5" font-family="Helvetica,sans-Serif" font-size="10.00">TEST_CASE</text>
</a>
</g>
</g>
<!-- Node20&#45;&gt;Node21 -->
<g id="edge26_Node000020_Node000021" class="edge">
<title>Node20&#45;&gt;Node21</title>
<g id="a_edge26_Node000020_Node000021"><a xlink:title=" ">
<path fill="none" stroke="#63b8ff" d="M522.53,-231.33C492.25,-236.57 460.62,-242.04 437.5,-246.03"/>
<polygon fill="#63b8ff" stroke="#63b8ff" points="523.47,-234.72 532.73,-229.57 522.28,-227.83 523.47,-234.72"/>
</a>
</g>
</g>
<!-- Node22 -->
<g id="Node000022" class="node">
<title>Node22</title>
<g id="a_Node000022"><a xlink:href="test__component__regular__space_8cpp.html#a5e69783b3ce0c074477e3081ab8cf658" target="_top" xlink:title=" ">
<polygon fill="white" stroke="#666666" points="437.5,-224.5 366.5,-224.5 366.5,-205.5 437.5,-205.5 437.5,-224.5"/>
<text text-anchor="middle" x="402" y="-212.5" font-family="Helvetica,sans-Serif" font-size="10.00">TEST_CASE</text>
</a>
</g>
</g>
<!-- Node20&#45;&gt;Node22 -->
<g id="edge27_Node000020_Node000022" class="edge">
<title>Node20&#45;&gt;Node22</title>
<g id="a_edge27_Node000020_Node000022"><a xlink:title=" ">
<path fill="none" stroke="#63b8ff" d="M522.53,-215C492.25,-215 460.62,-215 437.5,-215"/>
<polygon fill="#63b8ff" stroke="#63b8ff" points="522.73,-218.5 532.73,-215 522.73,-211.5 522.73,-218.5"/>
</a>
</g>
</g>
<!-- Node25 -->
<g id="Node000025" class="node">
<title>Node25</title>
<g id="a_Node000025"><a xlink:href="namespacewmtk_1_1components.html#a3154cdbc6047eee67258b69cc7d5e7cf" target="_top" xlink:title="Perform shortest&#45;edge collapse on a triangular surface mesh.">
<polygon fill="white" stroke="#666666" points="492,-30 312,-30 312,0 492,0 492,-30"/>
<text text-anchor="start" x="320" y="-18" font-family="Helvetica,sans-Serif" font-size="10.00">wmtk::components::shortestedge</text>
<text text-anchor="middle" x="402" y="-7" font-family="Helvetica,sans-Serif" font-size="10.00">_collapse</text>
</a>
</g>
</g>
<!-- Node24&#45;&gt;Node25 -->
<g id="edge30_Node000024_Node000025" class="edge">
<title>Node24&#45;&gt;Node25</title>
<g id="a_edge30_Node000024_Node000025"><a xlink:title=" ">
<path fill="none" stroke="#63b8ff" d="M517.77,-15C509.19,-15 500.55,-15 492.06,-15"/>
<polygon fill="#63b8ff" stroke="#63b8ff" points="517.79,-18.5 527.79,-15 517.79,-11.5 517.79,-18.5"/>
</a>
</g>
</g>
</g>
</svg>

<g id="navigator" transform="translate(0 0)" fill="#404254">
  <rect fill="#f2f5e9" fill-opacity="0.5" stroke="#606060" stroke-width=".5" x="0" y="0" width="60" height="60"/>
  <use id="zoomplus" xlink:href="#zoomPlus" x="17" y="9" onmousedown="handleZoom(evt,'in')"/>
  <use id="zoomminus" xlink:href="#zoomMin" x="42" y="9" onmousedown="handleZoom(evt,'out')"/>
  <use id="reset" xlink:href="#resetDef" x="30" y="36" onmousedown="handleReset()"/>
   <use id="arrowup" xlink:href="#arrowUp" x="0" y="0" onmousedown="handlePan(0,-1)"/>
  <use id="arrowright" xlink:href="#arrowRight" x="0" y="0" onmousedown="handlePan(1,0)"/>
  <use id="arrowdown" xlink:href="#arrowDown" x="0" y="0" onmousedown="handlePan(0,1)"/>
  <use id="arrowleft" xlink:href="#arrowLeft" x="0" y="0" onmousedown="handlePan(-1,0)"/>
</g>
<svg viewBox="0 0 15 15" width="100%" height="30px" preserveAspectRatio="xMaxYMin meet">
 <g id="arrow_out" transform="scale(0.3 0.3)">
  <a xlink:href="classwmtk_1_1_mesh_a26b0600a273bc261624633441e1497cb_icgraph_org.svg" target="_base">
   <rect id="button" ry="5" rx="5" y="6" x="6" height="38" width="38"
        fill="#f2f5e9" fill-opacity="0.5" stroke="#606060" stroke-width="1.0"/>
   <path id="arrow"
     d="M 11.500037,31.436501 C 11.940474,20.09759 22.043105,11.32322 32.158766,21.979434 L 37.068811,17.246167 C 37.068811,17.246167 37.088388,32 37.088388,32 L 22.160133,31.978069 C 22.160133,31.978069 26.997745,27.140456 26.997745,27.140456 C 18.528582,18.264221 13.291696,25.230495 11.500037,31.436501 z"
     style="fill:#404040;"/>
  </a>
 </g>
</svg>

<style type='text/css'>
<![CDATA[
[data-mouse-over-selected='false'] { opacity: 0.7; }
[data-mouse-over-selected='true']  { opacity: 1.0; }
]]>
</style>
<script type="application/ecmascript"><![CDATA[
document.addEventListener('DOMContentLoaded', (event) => {
  highlightEdges();
  highlightAdjacentNodes();
});
]]></script>
</svg>
