<?xml version="1.0" encoding="UTF-8" standalone="no"?>
<!DOCTYPE svg PUBLIC "-//W3C//DTD SVG 1.1//EN"
 "http://www.w3.org/Graphics/SVG/1.1/DTD/svg11.dtd">
<!-- Generated by graphviz version 2.43.0 (0)
 -->
<!-- Title: wmtk::utils::EigenMatrixWriter::get_int64_t_matrix Pages: 1 -->
<!--zoomable 312 -->

<svg id="main" version="1.1" xmlns="http://www.w3.org/2000/svg" xmlns:xlink="http://www.w3.org/1999/xlink" xml:space="preserve" onload="init(evt)">
<style type="text/css"><![CDATA[
.node, .edge {opacity: 0.7;}
.node.selected, .edge.selected {opacity: 1;}
.edge:hover path { stroke: red; }
.edge:hover polygon { stroke: red; fill: red; }
]]></style>

<defs>
  <circle id="rim" cx="0" cy="0" r="7"/>
  <circle id="rim2" cx="0" cy="0" r="3.5"/>
  <g id="zoomPlus">
    <use xlink:href="#rim" fill="#404040"><set attributeName="fill" to="#808080" begin="zoomplus.mouseover" end="zoomplus.mouseout"/></use>
    <path d="M-4,0h8M0,-4v8" fill="none" stroke="white" stroke-width="1.5" pointer-events="none"/>
  </g>
  <g id="zoomMin">
    <use xlink:href="#rim" fill="#404040"><set attributeName="fill" to="#808080" begin="zoomminus.mouseover" end="zoomminus.mouseout"/></use>
    <path d="M-4,0h8" fill="none" stroke="white" stroke-width="1.5" pointer-events="none"/>
  </g>
  <g id="arrowUp" transform="translate(30 24)">
    <use xlink:href="#rim"/>
    <path pointer-events="none" fill="none" stroke="white" stroke-width="1.5" d="M0,-3.0v7 M-2.5,-0.5L0,-3.0L2.5,-0.5"/>
  </g>
  <g id="arrowRight" transform="rotate(90) translate(36 -43)">
    <use xlink:href="#rim"/>
    <path pointer-events="none" fill="none" stroke="white" stroke-width="1.5" d="M0,-3.0v7 M-2.5,-0.5L0,-3.0L2.5,-0.5"/>
  </g>
  <g id="arrowDown" transform="rotate(180) translate(-30 -48)">
    <use xlink:href="#rim"/>
    <path pointer-events="none" fill="none" stroke="white" stroke-width="1.5" d="M0,-3.0v7 M-2.5,-0.5L0,-3.0L2.5,-0.5"/>
  </g>
  <g id="arrowLeft" transform="rotate(270) translate(-36 17)">
    <use xlink:href="#rim"/>
    <path pointer-events="none" fill="none" stroke="white" stroke-width="1.5" d="M0,-3.0v7 M-2.5,-0.5L0,-3.0L2.5,-0.5"/>
  </g>
  <g id="resetDef">
    <use xlink:href="#rim2" fill="#404040"><set attributeName="fill" to="#808080" begin="reset.mouseover" end="reset.mouseout"/></use>
  </g>
</defs>
<script type="application/ecmascript">
var viewWidth = 879;
var viewHeight = 312;
var sectionId = 'dynsection-7';
</script>
<script type="application/ecmascript" xlink:href="svg.min.js"/>
<svg id="graph" class="graph">
<g id="viewport">
<title>wmtk::utils::EigenMatrixWriter::get_int64_t_matrix</title>
<!-- Node1 -->
<g id="Node000001" class="node">
<title>Node1</title>
<g id="a_Node000001"><a xlink:title=" ">
<polygon fill="#999999" stroke="#666666" points="871,-240 726,-240 726,-210 871,-210 871,-240"/>
<text text-anchor="start" x="734" y="-228" font-family="Helvetica,sans-Serif" font-size="10.00">wmtk::utils::EigenMatrix</text>
<text text-anchor="middle" x="798.5" y="-217" font-family="Helvetica,sans-Serif" font-size="10.00">Writer::get_int64_t_matrix</text>
</a>
</g>
</g>
<!-- Node2 -->
<g id="Node000002" class="node">
<title>Node2</title>
<g id="a_Node000002"><a xlink:href="classwmtk_1_1utils_1_1_eigen_matrix_writer.html#a5efd88e142a5559e8c79b2de5858b9f8" target="_top" xlink:title=" ">
<polygon fill="white" stroke="#666666" points="690,-288 554,-288 554,-258 690,-258 690,-288"/>
<text text-anchor="start" x="562" y="-276" font-family="Helvetica,sans-Serif" font-size="10.00">wmtk::utils::EigenMatrix</text>
<text text-anchor="middle" x="622" y="-265" font-family="Helvetica,sans-Serif" font-size="10.00">Writer::get_EV_matrix</text>
</a>
</g>
</g>
<!-- Node1&#45;&gt;Node2 -->
<g id="edge1_Node000001_Node000002" class="edge">
<title>Node1&#45;&gt;Node2</title>
<g id="a_edge1_Node000001_Node000002"><a xlink:title=" ">
<path fill="none" stroke="#63b8ff" d="M733.08,-242.72C714.83,-247.74 695.15,-253.15 677.54,-258"/>
<polygon fill="#63b8ff" stroke="#63b8ff" points="734.05,-246.08 742.77,-240.06 732.2,-239.33 734.05,-246.08"/>
</a>
</g>
</g>
<!-- Node5 -->
<g id="Node000005" class="node">
<title>Node5</title>
<g id="a_Node000005"><a xlink:href="classwmtk_1_1utils_1_1_eigen_matrix_writer.html#abad266697117582fd962efd4129a4389" target="_top" xlink:title=" ">
<polygon fill="white" stroke="#666666" points="690,-192 554,-192 554,-162 690,-162 690,-192"/>
<text text-anchor="start" x="562" y="-180" font-family="Helvetica,sans-Serif" font-size="10.00">wmtk::utils::EigenMatrix</text>
<text text-anchor="middle" x="622" y="-169" font-family="Helvetica,sans-Serif" font-size="10.00">Writer::get_FV_matrix</text>
</a>
</g>
</g>
<!-- Node1&#45;&gt;Node5 -->
<g id="edge5_Node000001_Node000005" class="edge">
<title>Node1&#45;&gt;Node5</title>
<g id="a_edge5_Node000001_Node000005"><a xlink:title=" ">
<path fill="none" stroke="#63b8ff" d="M733.08,-207.28C714.83,-202.26 695.15,-196.85 677.54,-192"/>
<polygon fill="#63b8ff" stroke="#63b8ff" points="732.2,-210.67 742.77,-209.94 734.05,-203.92 732.2,-210.67"/>
</a>
</g>
</g>
<!-- Node13 -->
<g id="Node000013" class="node">
<title>Node13</title>
<g id="a_Node000013"><a xlink:href="classwmtk_1_1utils_1_1_eigen_matrix_writer.html#a7d76c607fec79828f387677795e990ab" target="_top" xlink:title=" ">
<polygon fill="white" stroke="#666666" points="690,-240 554,-240 554,-210 690,-210 690,-240"/>
<text text-anchor="start" x="562" y="-228" font-family="Helvetica,sans-Serif" font-size="10.00">wmtk::utils::EigenMatrix</text>
<text text-anchor="middle" x="622" y="-217" font-family="Helvetica,sans-Serif" font-size="10.00">Writer::get_TV_matrix</text>
</a>
</g>
</g>
<!-- Node1&#45;&gt;Node13 -->
<g id="edge18_Node000001_Node000013" class="edge">
<title>Node1&#45;&gt;Node13</title>
<g id="a_edge18_Node000001_Node000013"><a xlink:title=" ">
<path fill="none" stroke="#63b8ff" d="M715.5,-225C707.04,-225 698.52,-225 690.24,-225"/>
<polygon fill="#63b8ff" stroke="#63b8ff" points="715.77,-228.5 725.77,-225 715.77,-221.5 715.77,-228.5"/>
</a>
</g>
</g>
<!-- Node3 -->
<g id="Node000003" class="node">
<title>Node3</title>
<g id="a_Node000003"><a xlink:href="namespacewmtk_1_1components_1_1internal.html#a18a56f1ee7f5d72c7557922789a96802" target="_top" xlink:title=" ">
<polygon fill="white" stroke="#666666" points="518,-286 364,-286 364,-256 518,-256 518,-286"/>
<text text-anchor="start" x="372" y="-274" font-family="Helvetica,sans-Serif" font-size="10.00">wmtk::components::internal</text>
<text text-anchor="middle" x="441" y="-263" font-family="Helvetica,sans-Serif" font-size="10.00">::winding_number</text>
</a>
</g>
</g>
<!-- Node2&#45;&gt;Node3 -->
<g id="edge2_Node000002_Node000003" class="edge">
<title>Node2&#45;&gt;Node3</title>
<g id="a_edge2_Node000002_Node000003"><a xlink:title=" ">
<path fill="none" stroke="#63b8ff" d="M543.66,-272.14C535.24,-272.04 526.67,-271.95 518.26,-271.85"/>
<polygon fill="#63b8ff" stroke="#63b8ff" points="543.8,-275.64 553.84,-272.25 543.88,-268.64 543.8,-275.64"/>
</a>
</g>
</g>
<!-- Node3&#45;&gt;Node3 -->
<g id="edge3_Node000003_Node000003" class="edge">
<title>Node3&#45;&gt;Node3</title>
<g id="a_edge3_Node000003_Node000003"><a xlink:title=" ">
<path fill="none" stroke="#63b8ff" d="M472.51,-296.6C468.2,-300.97 457.7,-304 441,-304 412.88,-304 402.33,-295.41 409.36,-286.28"/>
<polygon fill="#63b8ff" stroke="#63b8ff" points="476.01,-296.32 472.64,-286.28 469.01,-296.23 476.01,-296.32"/>
</a>
</g>
</g>
<!-- Node4 -->
<g id="Node000004" class="node">
<title>Node4</title>
<g id="a_Node000004"><a xlink:href="namespacewmtk_1_1components.html#a888d10781e8251534aa853eb50316732" target="_top" xlink:title=" ">
<polygon fill="white" stroke="#666666" points="328,-286 173,-286 173,-256 328,-256 328,-286"/>
<text text-anchor="start" x="181" y="-274" font-family="Helvetica,sans-Serif" font-size="10.00">wmtk::components::winding</text>
<text text-anchor="middle" x="250.5" y="-263" font-family="Helvetica,sans-Serif" font-size="10.00">_number</text>
</a>
</g>
</g>
<!-- Node3&#45;&gt;Node4 -->
<g id="edge4_Node000003_Node000004" class="edge">
<title>Node3&#45;&gt;Node4</title>
<g id="a_edge4_Node000003_Node000004"><a xlink:title=" ">
<path fill="none" stroke="#63b8ff" d="M353.6,-271C345.14,-271 336.58,-271 328.22,-271"/>
<polygon fill="#63b8ff" stroke="#63b8ff" points="353.87,-274.5 363.87,-271 353.87,-267.5 353.87,-274.5"/>
</a>
</g>
</g>
<!-- Node5&#45;&gt;Node3 -->
<g id="edge17_Node000005_Node000003" class="edge">
<title>Node5&#45;&gt;Node3</title>
<g id="a_edge17_Node000005_Node000003"><a xlink:title=" ">
<path fill="none" stroke="#63b8ff" d="M560.45,-196.79C558.22,-198.11 556.06,-199.51 554,-201 532.95,-216.2 539.33,-232.21 518,-247 513.11,-250.39 507.72,-253.32 502.13,-255.85"/>
<polygon fill="#63b8ff" stroke="#63b8ff" points="562.16,-199.84 569.36,-192.07 558.88,-193.66 562.16,-199.84"/>
</a>
</g>
</g>
<!-- Node6 -->
<g id="Node000006" class="node">
<title>Node6</title>
<g id="a_Node000006"><a xlink:href="namespacewmtk_1_1components.html#a5a89b6c23c8338b3a90a304b368fb3a8" target="_top" xlink:title=" ">
<polygon fill="white" stroke="#666666" points="514,-237.5 368,-237.5 368,-218.5 514,-218.5 514,-237.5"/>
<text text-anchor="middle" x="441" y="-225.5" font-family="Helvetica,sans-Serif" font-size="10.00">wmtk::components::fusion</text>
</a>
</g>
</g>
<!-- Node5&#45;&gt;Node6 -->
<g id="edge6_Node000005_Node000006" class="edge">
<title>Node5&#45;&gt;Node6</title>
<g id="a_edge6_Node000005_Node000006"><a xlink:title=" ">
<path fill="none" stroke="#63b8ff" d="M564.77,-195.1C549.63,-199.8 533.23,-204.73 518,-209 506.34,-212.26 493.61,-215.56 481.95,-218.46"/>
<polygon fill="#63b8ff" stroke="#63b8ff" points="566.01,-198.38 574.51,-192.05 563.92,-191.7 566.01,-198.38"/>
</a>
</g>
</g>
<!-- Node7 -->
<g id="Node000007" class="node">
<title>Node7</title>
<g id="a_Node000007"><a xlink:href="test__component__fusion_8cpp.html#ad717d3fcca492f6237e8e5f0e3455e4e" target="_top" xlink:title=" ">
<polygon fill="white" stroke="#666666" points="286,-194.5 215,-194.5 215,-175.5 286,-175.5 286,-194.5"/>
<text text-anchor="middle" x="250.5" y="-182.5" font-family="Helvetica,sans-Serif" font-size="10.00">TEST_CASE</text>
</a>
</g>
</g>
<!-- Node5&#45;&gt;Node7 -->
<g id="edge13_Node000005_Node000007" class="edge">
<title>Node5&#45;&gt;Node7</title>
<g id="a_edge13_Node000005_Node000007"><a xlink:title=" ">
<path fill="none" stroke="#63b8ff" d="M543.74,-163.68C535.08,-162.58 526.36,-161.65 518,-161 449.76,-155.73 432.07,-153.82 364,-161 337.59,-163.79 308.25,-170.16 286.16,-175.63"/>
<polygon fill="#63b8ff" stroke="#63b8ff" points="543.48,-167.18 553.86,-165.04 544.41,-160.24 543.48,-167.18"/>
</a>
</g>
</g>
<!-- Node8 -->
<g id="Node000008" class="node">
<title>Node8</title>
<g id="a_Node000008"><a xlink:href="namespacewmtk_1_1components_1_1internal.html#ae96e456a97cc6bb91612325fce6c6abb" target="_top" xlink:title=" ">
<polygon fill="white" stroke="#666666" points="518,-96 364,-96 364,-66 518,-66 518,-96"/>
<text text-anchor="start" x="372" y="-84" font-family="Helvetica,sans-Serif" font-size="10.00">wmtk::components::internal</text>
<text text-anchor="middle" x="441" y="-73" font-family="Helvetica,sans-Serif" font-size="10.00">::get_vf</text>
</a>
</g>
</g>
<!-- Node5&#45;&gt;Node8 -->
<g id="edge8_Node000005_Node000008" class="edge">
<title>Node5&#45;&gt;Node8</title>
<g id="a_edge8_Node000005_Node000008"><a xlink:title=" ">
<path fill="none" stroke="#63b8ff" d="M583.92,-157.11C550.07,-138.96 500.76,-112.51 470.07,-96.05"/>
<polygon fill="#63b8ff" stroke="#63b8ff" points="582.56,-160.36 593.03,-162 585.87,-154.19 582.56,-160.36"/>
</a>
</g>
</g>
<!-- Node11 -->
<g id="Node000011" class="node">
<title>Node11</title>
<g id="a_Node000011"><a xlink:href="namespacewmtk_1_1components.html#ab76577dc5b3ef0ad8ac307cff60d5807" target="_top" xlink:title="Perform the simplification from the original tetwild.">
<polygon fill="white" stroke="#666666" points="516,-30 366,-30 366,0 516,0 516,-30"/>
<text text-anchor="start" x="374" y="-18" font-family="Helvetica,sans-Serif" font-size="10.00">wmtk::components::tetwild</text>
<text text-anchor="middle" x="441" y="-7" font-family="Helvetica,sans-Serif" font-size="10.00">_simplification</text>
</a>
</g>
</g>
<!-- Node5&#45;&gt;Node11 -->
<g id="edge14_Node000005_Node000011" class="edge">
<title>Node5&#45;&gt;Node11</title>
<g id="a_edge14_Node000005_Node000011"><a xlink:title=" ">
<path fill="none" stroke="#63b8ff" d="M604.69,-153.36C585.96,-127.43 553.24,-85.68 518,-57 505.14,-46.53 489.3,-37.31 475.41,-30.19"/>
<polygon fill="#63b8ff" stroke="#63b8ff" points="602.07,-155.71 610.72,-161.83 607.77,-151.65 602.07,-155.71"/>
</a>
</g>
</g>
<!-- Node12 -->
<g id="Node000012" class="node">
<title>Node12</title>
<g id="a_Node000012"><a xlink:href="namespacewmtk_1_1components.html#a9d6d11e3b7ba03911492ecfc79622247" target="_top" xlink:title=" ">
<polygon fill="white" stroke="#666666" points="518,-200 364,-200 364,-170 518,-170 518,-200"/>
<text text-anchor="start" x="372" y="-188" font-family="Helvetica,sans-Serif" font-size="10.00">wmtk::components::triangle</text>
<text text-anchor="middle" x="441" y="-177" font-family="Helvetica,sans-Serif" font-size="10.00">_insertion</text>
</a>
</g>
</g>
<!-- Node5&#45;&gt;Node12 -->
<g id="edge16_Node000005_Node000012" class="edge">
<title>Node5&#45;&gt;Node12</title>
<g id="a_edge16_Node000005_Node000012"><a xlink:title=" ">
<path fill="none" stroke="#63b8ff" d="M543.66,-180.46C535.24,-180.83 526.67,-181.22 518.26,-181.59"/>
<polygon fill="#63b8ff" stroke="#63b8ff" points="544,-183.94 553.84,-180 543.69,-176.95 544,-183.94"/>
</a>
</g>
</g>
<!-- Node6&#45;&gt;Node7 -->
<g id="edge7_Node000006_Node000007" class="edge">
<title>Node6&#45;&gt;Node7</title>
<g id="a_edge7_Node000006_Node000007"><a xlink:title=" ">
<path fill="none" stroke="#63b8ff" d="M388.39,-216.23C355.92,-208.82 314.91,-199.46 286.27,-192.93"/>
<polygon fill="#63b8ff" stroke="#63b8ff" points="387.64,-219.65 398.17,-218.46 389.19,-212.82 387.64,-219.65"/>
</a>
</g>
</g>
<!-- Node8&#45;&gt;Node8 -->
<g id="edge12_Node000008_Node000008" class="edge">
<title>Node8&#45;&gt;Node8</title>
<g id="a_edge12_Node000008_Node000008"><a xlink:title=" ">
<path fill="none" stroke="#63b8ff" d="M472.51,-106.6C468.2,-110.97 457.7,-114 441,-114 412.88,-114 402.33,-105.41 409.36,-96.28"/>
<polygon fill="#63b8ff" stroke="#63b8ff" points="476.01,-106.32 472.64,-96.28 469.01,-106.23 476.01,-106.32"/>
</a>
</g>
</g>
<!-- Node9 -->
<g id="Node000009" class="node">
<title>Node9</title>
<g id="a_Node000009"><a xlink:href="namespacewmtk_1_1components_1_1internal.html#a06f1c0433aa3057a90d1e7829c851e72" target="_top" xlink:title=" ">
<polygon fill="white" stroke="#666666" points="327.5,-96 173.5,-96 173.5,-66 327.5,-66 327.5,-96"/>
<text text-anchor="start" x="181.5" y="-84" font-family="Helvetica,sans-Serif" font-size="10.00">wmtk::components::internal</text>
<text text-anchor="middle" x="250.5" y="-73" font-family="Helvetica,sans-Serif" font-size="10.00">::CDT_internal</text>
</a>
</g>
</g>
<!-- Node8&#45;&gt;Node9 -->
<g id="edge9_Node000008_Node000009" class="edge">
<title>Node8&#45;&gt;Node9</title>
<g id="a_edge9_Node000008_Node000009"><a xlink:title=" ">
<path fill="none" stroke="#63b8ff" d="M353.71,-81C345,-81 336.2,-81 327.6,-81"/>
<polygon fill="#63b8ff" stroke="#63b8ff" points="353.87,-84.5 363.87,-81 353.87,-77.5 353.87,-84.5"/>
</a>
</g>
</g>
<!-- Node9&#45;&gt;Node9 -->
<g id="edge11_Node000009_Node000009" class="edge">
<title>Node9&#45;&gt;Node9</title>
<g id="a_edge11_Node000009_Node000009"><a xlink:title=" ">
<path fill="none" stroke="#63b8ff" d="M282.36,-106.6C278,-110.97 267.38,-114 250.5,-114 222.06,-114 211.4,-105.41 218.51,-96.28"/>
<polygon fill="#63b8ff" stroke="#63b8ff" points="285.86,-106.32 282.49,-96.28 278.86,-106.23 285.86,-106.32"/>
</a>
</g>
</g>
<!-- Node10 -->
<g id="Node000010" class="node">
<title>Node10</title>
<g id="a_Node000010"><a xlink:href="namespacewmtk_1_1components.html#a7bf4c4516032a63182e16035aeacceb4" target="_top" xlink:title=" ">
<polygon fill="white" stroke="#666666" points="137,-90.5 0,-90.5 0,-71.5 137,-71.5 137,-90.5"/>
<text text-anchor="middle" x="68.5" y="-78.5" font-family="Helvetica,sans-Serif" font-size="10.00">wmtk::components::CDT</text>
</a>
</g>
</g>
<!-- Node9&#45;&gt;Node10 -->
<g id="edge10_Node000009_Node000010" class="edge">
<title>Node9&#45;&gt;Node10</title>
<g id="a_edge10_Node000009_Node000010"><a xlink:title=" ">
<path fill="none" stroke="#63b8ff" d="M163.16,-81C154.39,-81 145.56,-81 137.03,-81"/>
<polygon fill="#63b8ff" stroke="#63b8ff" points="163.42,-84.5 173.42,-81 163.42,-77.5 163.42,-84.5"/>
</a>
</g>
</g>
<!-- Node11&#45;&gt;Node11 -->
<g id="edge15_Node000011_Node000011" class="edge">
<title>Node11&#45;&gt;Node11</title>
<g id="a_edge15_Node000011_Node000011"><a xlink:title=" ">
<path fill="none" stroke="#63b8ff" d="M472.51,-40.6C468.2,-44.97 457.7,-48 441,-48 412.88,-48 402.33,-39.41 409.36,-30.28"/>
<polygon fill="#63b8ff" stroke="#63b8ff" points="476.01,-40.32 472.64,-30.28 469.01,-40.23 476.01,-40.32"/>
</a>
</g>
</g>
<!-- Node13&#45;&gt;Node3 -->
<g id="edge21_Node000013_Node000003" class="edge">
<title>Node13&#45;&gt;Node3</title>
<g id="a_edge21_Node000013_Node000003"><a xlink:title=" ">
<path fill="none" stroke="#63b8ff" d="M552.44,-242.62C535.28,-247.03 517.05,-251.71 500.44,-255.98"/>
<polygon fill="#63b8ff" stroke="#63b8ff" points="553.57,-245.94 562.39,-240.06 551.83,-239.16 553.57,-245.94"/>
</a>
</g>
</g>
<!-- Node13&#45;&gt;Node6 -->
<g id="edge19_Node000013_Node000006" class="edge">
<title>Node13&#45;&gt;Node6</title>
<g id="a_edge19_Node000013_Node000006"><a xlink:title=" ">
<path fill="none" stroke="#63b8ff" d="M543.67,-226.3C533.83,-226.46 523.79,-226.63 514.03,-226.79"/>
<polygon fill="#63b8ff" stroke="#63b8ff" points="543.9,-229.79 553.84,-226.13 543.78,-222.79 543.9,-229.79"/>
</a>
</g>
</g>
<!-- Node13&#45;&gt;Node12 -->
<g id="edge20_Node000013_Node000012" class="edge">
<title>Node13&#45;&gt;Node12</title>
<g id="a_edge20_Node000013_Node000012"><a xlink:title=" ">
<path fill="none" stroke="#63b8ff" d="M543.82,-207.75C532.31,-205.18 520.52,-202.55 509.24,-200.03"/>
<polygon fill="#63b8ff" stroke="#63b8ff" points="543.32,-211.23 553.84,-209.99 544.84,-204.39 543.32,-211.23"/>
</a>
</g>
</g>
</g>
</svg>

<g id="navigator" transform="translate(0 0)" fill="#404254">
  <rect fill="#f2f5e9" fill-opacity="0.5" stroke="#606060" stroke-width=".5" x="0" y="0" width="60" height="60"/>
  <use id="zoomplus" xlink:href="#zoomPlus" x="17" y="9" onmousedown="handleZoom(evt,'in')"/>
  <use id="zoomminus" xlink:href="#zoomMin" x="42" y="9" onmousedown="handleZoom(evt,'out')"/>
  <use id="reset" xlink:href="#resetDef" x="30" y="36" onmousedown="handleReset()"/>
   <use id="arrowup" xlink:href="#arrowUp" x="0" y="0" onmousedown="handlePan(0,-1)"/>
  <use id="arrowright" xlink:href="#arrowRight" x="0" y="0" onmousedown="handlePan(1,0)"/>
  <use id="arrowdown" xlink:href="#arrowDown" x="0" y="0" onmousedown="handlePan(0,1)"/>
  <use id="arrowleft" xlink:href="#arrowLeft" x="0" y="0" onmousedown="handlePan(-1,0)"/>
</g>
<svg viewBox="0 0 15 15" width="100%" height="30px" preserveAspectRatio="xMaxYMin meet">
 <g id="arrow_out" transform="scale(0.3 0.3)">
  <a xlink:href="classwmtk_1_1utils_1_1_eigen_matrix_writer_ab6ea4733784a08f80e81b23769f5fb5c_icgraph_org.svg" target="_base">
   <rect id="button" ry="5" rx="5" y="6" x="6" height="38" width="38"
        fill="#f2f5e9" fill-opacity="0.5" stroke="#606060" stroke-width="1.0"/>
   <path id="arrow"
     d="M 11.500037,31.436501 C 11.940474,20.09759 22.043105,11.32322 32.158766,21.979434 L 37.068811,17.246167 C 37.068811,17.246167 37.088388,32 37.088388,32 L 22.160133,31.978069 C 22.160133,31.978069 26.997745,27.140456 26.997745,27.140456 C 18.528582,18.264221 13.291696,25.230495 11.500037,31.436501 z"
     style="fill:#404040;"/>
  </a>
 </g>
</svg>

<style type='text/css'>
<![CDATA[
[data-mouse-over-selected='false'] { opacity: 0.7; }
[data-mouse-over-selected='true']  { opacity: 1.0; }
]]>
</style>
<script type="application/ecmascript"><![CDATA[
document.addEventListener('DOMContentLoaded', (event) => {
  highlightEdges();
  highlightAdjacentNodes();
});
]]></script>
</svg>
