<?xml version="1.0" encoding="UTF-8" standalone="no"?>
<!DOCTYPE svg PUBLIC "-//W3C//DTD SVG 1.1//EN"
 "http://www.w3.org/Graphics/SVG/1.1/DTD/svg11.dtd">
<!-- Generated by graphviz version 2.43.0 (0)
 -->
<!-- Title: wmtk::operations::AttributesUpdate Pages: 1 -->
<svg width="594pt" height="364pt"
 viewBox="0.00 0.00 594.00 364.00" xmlns="http://www.w3.org/2000/svg" xmlns:xlink="http://www.w3.org/1999/xlink">
<g id="graph0" class="graph" transform="scale(1 1) rotate(0) translate(4 360)">
<title>wmtk::operations::AttributesUpdate</title>
<!-- Node1 -->
<g id="Node000001" class="node">
<title>Node1</title>
<g id="a_Node000001"><a xlink:title=" ">
<polygon fill="#999999" stroke="#666666" points="348,-190 192,-190 192,-160 348,-160 348,-190"/>
<text text-anchor="start" x="200" y="-178" font-family="Helvetica,sans-Serif" font-size="10.00">wmtk::operations::Attributes</text>
<text text-anchor="middle" x="270" y="-167" font-family="Helvetica,sans-Serif" font-size="10.00">Update</text>
</a>
</g>
</g>
<!-- Node3 -->
<g id="Node000003" class="node">
<title>Node3</title>
<g id="a_Node000003"><a xlink:href="classwmtk_1_1operations_1_1_a_m_i_p_s_optimization_smoothing.html" target="_top" xlink:title=" ">
<polygon fill="white" stroke="#666666" points="586,-356 384,-356 384,-326 586,-326 586,-356"/>
<text text-anchor="start" x="392" y="-344" font-family="Helvetica,sans-Serif" font-size="10.00">wmtk::operations::AMIPSOptimization</text>
<text text-anchor="middle" x="485" y="-333" font-family="Helvetica,sans-Serif" font-size="10.00">Smoothing</text>
</a>
</g>
</g>
<!-- Node1&#45;&gt;Node3 -->
<g id="edge2_Node000001_Node000003" class="edge">
<title>Node1&#45;&gt;Node3</title>
<g id="a_edge2_Node000001_Node000003"><a xlink:title=" ">
<path fill="none" stroke="#63b8ff" d="M283.56,-199.31C301.43,-231.39 337.28,-287.24 384,-317 389.42,-320.45 395.3,-323.41 401.39,-325.94"/>
<polygon fill="#63b8ff" stroke="#63b8ff" points="286.45,-197.29 278.6,-190.18 280.3,-200.63 286.45,-197.29"/>
</a>
</g>
</g>
<!-- Node4 -->
<g id="Node000004" class="node">
<title>Node4</title>
<g id="a_Node000004"><a xlink:href="classwmtk_1_1operations_1_1_a_m_i_p_s_optimization_smoothing_periodic.html" target="_top" xlink:title=" ">
<polygon fill="white" stroke="#666666" points="586,-308 384,-308 384,-278 586,-278 586,-308"/>
<text text-anchor="start" x="392" y="-296" font-family="Helvetica,sans-Serif" font-size="10.00">wmtk::operations::AMIPSOptimization</text>
<text text-anchor="middle" x="485" y="-285" font-family="Helvetica,sans-Serif" font-size="10.00">SmoothingPeriodic</text>
</a>
</g>
</g>
<!-- Node1&#45;&gt;Node4 -->
<g id="edge3_Node000001_Node000004" class="edge">
<title>Node1&#45;&gt;Node4</title>
<g id="a_edge3_Node000001_Node000004"><a xlink:title=" ">
<path fill="none" stroke="#63b8ff" d="M291.94,-197.62C313.13,-219.15 347.84,-250.87 384,-269 390.86,-272.44 398.24,-275.4 405.77,-277.95"/>
<polygon fill="#63b8ff" stroke="#63b8ff" points="294.23,-194.95 284.77,-190.19 289.2,-199.82 294.23,-194.95"/>
</a>
</g>
</g>
<!-- Node5 -->
<g id="Node000005" class="node">
<title>Node5</title>
<g id="a_Node000005"><a xlink:href="classwmtk_1_1operations_1_1_attributes_update_with_function.html" target="_top" xlink:title=" ">
<polygon fill="white" stroke="#666666" points="563,-260 407,-260 407,-230 563,-230 563,-260"/>
<text text-anchor="start" x="415" y="-248" font-family="Helvetica,sans-Serif" font-size="10.00">wmtk::operations::Attributes</text>
<text text-anchor="middle" x="485" y="-237" font-family="Helvetica,sans-Serif" font-size="10.00">UpdateWithFunction</text>
</a>
</g>
</g>
<!-- Node1&#45;&gt;Node5 -->
<g id="edge4_Node000001_Node000005" class="edge">
<title>Node1&#45;&gt;Node5</title>
<g id="a_edge4_Node000001_Node000005"><a xlink:title=" ">
<path fill="none" stroke="#63b8ff" d="M313.4,-194.04C334.37,-202.99 360.22,-213.35 384,-221 394.03,-224.22 404.75,-227.24 415.3,-229.96"/>
<polygon fill="#63b8ff" stroke="#63b8ff" points="314.7,-190.79 304.13,-190.03 311.93,-197.21 314.7,-190.79"/>
</a>
</g>
</g>
<!-- Node6 -->
<g id="Node000006" class="node">
<title>Node6</title>
<g id="a_Node000006"><a xlink:href="classwmtk_1_1operations_1_1_optimization_smoothing.html" target="_top" xlink:title=" ">
<polygon fill="white" stroke="#666666" points="570.5,-212 399.5,-212 399.5,-182 570.5,-182 570.5,-212"/>
<text text-anchor="start" x="407.5" y="-200" font-family="Helvetica,sans-Serif" font-size="10.00">wmtk::operations::Optimization</text>
<text text-anchor="middle" x="485" y="-189" font-family="Helvetica,sans-Serif" font-size="10.00">Smoothing</text>
</a>
</g>
</g>
<!-- Node1&#45;&gt;Node6 -->
<g id="edge5_Node000001_Node000006" class="edge">
<title>Node1&#45;&gt;Node6</title>
<g id="a_edge5_Node000001_Node000006"><a xlink:title=" ">
<path fill="none" stroke="#63b8ff" d="M358.4,-184.03C371.86,-185.42 385.74,-186.85 399.14,-188.24"/>
<polygon fill="#63b8ff" stroke="#63b8ff" points="358.51,-180.52 348.2,-182.97 357.79,-187.48 358.51,-180.52"/>
</a>
</g>
</g>
<!-- Node7 -->
<g id="Node000007" class="node">
<title>Node7</title>
<g id="a_Node000007"><a xlink:href="classwmtk_1_1operations_1_1_rounding.html" target="_top" xlink:title=" ">
<polygon fill="white" stroke="#666666" points="562,-163.5 408,-163.5 408,-144.5 562,-144.5 562,-163.5"/>
<text text-anchor="middle" x="485" y="-151.5" font-family="Helvetica,sans-Serif" font-size="10.00">wmtk::operations::Rounding</text>
</a>
</g>
</g>
<!-- Node1&#45;&gt;Node7 -->
<g id="edge6_Node000001_Node000007" class="edge">
<title>Node1&#45;&gt;Node7</title>
<g id="a_edge6_Node000001_Node000007"><a xlink:title=" ">
<path fill="none" stroke="#63b8ff" d="M358.32,-166.39C374.72,-164.77 391.75,-163.1 407.78,-161.51"/>
<polygon fill="#63b8ff" stroke="#63b8ff" points="357.81,-162.92 348.2,-167.39 358.49,-169.89 357.81,-162.92"/>
</a>
</g>
</g>
<!-- Node8 -->
<g id="Node000008" class="node">
<title>Node8</title>
<g id="a_Node000008"><a xlink:href="classwmtk_1_1operations_1_1_tet_wild_tangential_laplacian_smoothing.html" target="_top" xlink:title=" ">
<polygon fill="white" stroke="#666666" points="568,-126 402,-126 402,-96 568,-96 568,-126"/>
<text text-anchor="start" x="410" y="-114" font-family="Helvetica,sans-Serif" font-size="10.00">wmtk::operations::TetWild</text>
<text text-anchor="middle" x="485" y="-103" font-family="Helvetica,sans-Serif" font-size="10.00">TangentialLaplacianSmoothing</text>
</a>
</g>
</g>
<!-- Node1&#45;&gt;Node8 -->
<g id="edge7_Node000001_Node000008" class="edge">
<title>Node1&#45;&gt;Node8</title>
<g id="a_edge7_Node000001_Node000008"><a xlink:title=" ">
<path fill="none" stroke="#63b8ff" d="M319.82,-156.46C339.59,-149.28 362.74,-141.3 384,-135 394.61,-131.86 405.95,-128.83 417.04,-126.04"/>
<polygon fill="#63b8ff" stroke="#63b8ff" points="318.6,-153.18 310.41,-159.91 321.01,-159.75 318.6,-153.18"/>
</a>
</g>
</g>
<!-- Node9 -->
<g id="Node000009" class="node">
<title>Node9</title>
<g id="a_Node000009"><a xlink:href="classwmtk_1_1operations_1_1composite_1_1_project_operation.html" target="_top" xlink:title=" ">
<polygon fill="white" stroke="#666666" points="564.5,-78 405.5,-78 405.5,-48 564.5,-48 564.5,-78"/>
<text text-anchor="start" x="413.5" y="-66" font-family="Helvetica,sans-Serif" font-size="10.00">wmtk::operations::composite</text>
<text text-anchor="middle" x="485" y="-55" font-family="Helvetica,sans-Serif" font-size="10.00">::ProjectOperation</text>
</a>
</g>
</g>
<!-- Node1&#45;&gt;Node9 -->
<g id="edge8_Node000001_Node000009" class="edge">
<title>Node1&#45;&gt;Node9</title>
<g id="a_edge8_Node000001_Node000009"><a xlink:title=" ">
<path fill="none" stroke="#63b8ff" d="M293.32,-152.85C314.79,-132.77 349.08,-103.81 384,-87 391.16,-83.55 398.85,-80.58 406.67,-78.02"/>
<polygon fill="#63b8ff" stroke="#63b8ff" points="290.83,-150.38 286,-159.81 295.66,-155.45 290.83,-150.38"/>
</a>
</g>
</g>
<!-- Node10 -->
<g id="Node000010" class="node">
<title>Node10</title>
<g id="a_Node000010"><a xlink:href="classwmtk_1_1operations_1_1utils_1_1_round_rational_to_double.html" target="_top" xlink:title=" ">
<polygon fill="white" stroke="#666666" points="554.5,-30 415.5,-30 415.5,0 554.5,0 554.5,-30"/>
<text text-anchor="start" x="423.5" y="-18" font-family="Helvetica,sans-Serif" font-size="10.00">wmtk::operations::utils</text>
<text text-anchor="middle" x="485" y="-7" font-family="Helvetica,sans-Serif" font-size="10.00">::RoundRationalToDouble</text>
</a>
</g>
</g>
<!-- Node1&#45;&gt;Node10 -->
<g id="edge9_Node000001_Node000010" class="edge">
<title>Node1&#45;&gt;Node10</title>
<g id="a_edge9_Node000001_Node000010"><a xlink:title=" ">
<path fill="none" stroke="#63b8ff" d="M284.39,-150.76C302.74,-119.9 338.65,-67.22 384,-39 393.55,-33.06 404.46,-28.59 415.47,-25.22"/>
<polygon fill="#63b8ff" stroke="#63b8ff" points="281.27,-149.18 279.27,-159.59 287.32,-152.7 281.27,-149.18"/>
</a>
</g>
</g>
<!-- Node2 -->
<g id="Node000002" class="node">
<title>Node2</title>
<g id="a_Node000002"><a xlink:href="classwmtk_1_1operations_1_1_operation.html" target="_top" xlink:title=" ">
<polygon fill="white" stroke="#666666" points="156,-184.5 0,-184.5 0,-165.5 156,-165.5 156,-184.5"/>
<text text-anchor="middle" x="78" y="-172.5" font-family="Helvetica,sans-Serif" font-size="10.00">wmtk::operations::Operation</text>
</a>
</g>
</g>
<!-- Node2&#45;&gt;Node1 -->
<g id="edge1_Node000001_Node000002" class="edge">
<title>Node2&#45;&gt;Node1</title>
<g id="a_edge1_Node000001_Node000002"><a xlink:title=" ">
<path fill="none" stroke="#63b8ff" d="M166.06,-175C174.68,-175 183.38,-175 191.88,-175"/>
<polygon fill="#63b8ff" stroke="#63b8ff" points="166.01,-171.5 156.01,-175 166.01,-178.5 166.01,-171.5"/>
</a>
</g>
</g>
</g>
</svg>
