<?xml version="1.0" encoding="UTF-8" standalone="no"?>
<!DOCTYPE svg PUBLIC "-//W3C//DTD SVG 1.1//EN"
 "http://www.w3.org/Graphics/SVG/1.1/DTD/svg11.dtd">
<!-- Generated by graphviz version 2.43.0 (0)
 -->
<!-- Title: wmtk::MeshCRTP::switch_tuples Pages: 1 -->
<svg width="362pt" height="295pt"
 viewBox="0.00 0.00 362.00 294.50" xmlns="http://www.w3.org/2000/svg" xmlns:xlink="http://www.w3.org/1999/xlink">

<svg id="main" version="1.1" xmlns="http://www.w3.org/2000/svg" xmlns:xlink="http://www.w3.org/1999/xlink" xml:space="preserve" onload="init(evt)">
<style type="text/css"><![CDATA[
.node, .edge {opacity: 0.7;}
.node.selected, .edge.selected {opacity: 1;}
.edge:hover path { stroke: red; }
.edge:hover polygon { stroke: red; fill: red; }
]]></style>
<script type="application/ecmascript" xlink:href="svg.min.js"/>
<svg id="graph" class="graph">
<g id="graph0" class="graph" transform="scale(1 1) rotate(0) translate(4 290.5)">
<title>wmtk::MeshCRTP::switch_tuples</title>
<!-- Node1 -->
<g id="Node000001" class="node">
<title>Node1</title>
<g id="a_Node000001"><a xlink:title="Performs a sequence of switch_tuple operations in the order specified in op_sequence.">
<polygon fill="#999999" stroke="#666666" points="354,-163.5 215,-163.5 215,-133.5 354,-133.5 354,-163.5"/>
<text text-anchor="start" x="223" y="-151.5" font-family="Helvetica,sans-Serif" font-size="10.00">wmtk::MeshCRTP::switch</text>
<text text-anchor="middle" x="284.5" y="-140.5" font-family="Helvetica,sans-Serif" font-size="10.00">_tuples</text>
</a>
</g>
</g>
<!-- Node2 -->
<g id="Node000002" class="node">
<title>Node2</title>
<g id="a_Node000002"><a xlink:href="classwmtk_1_1_simplex_inversion_invariant.html#a1163728175bfbd4dc26f4861019ee591" target="_top" xlink:title="we assume with local vid order (v0,v1,v2,v3) has positive volume (orient3d(v0,v1,v2,...">
<polygon fill="white" stroke="#666666" points="179,-286.5 0,-286.5 0,-256.5 179,-256.5 179,-286.5"/>
<text text-anchor="start" x="8" y="-274.5" font-family="Helvetica,sans-Serif" font-size="10.00">wmtk::SimplexInversionInvariant</text>
<text text-anchor="middle" x="89.5" y="-263.5" font-family="Helvetica,sans-Serif" font-size="10.00">::after</text>
</a>
</g>
</g>
<!-- Node1&#45;&gt;Node2 -->
<g id="edge1_Node000001_Node000002" class="edge">
<title>Node1&#45;&gt;Node2</title>
<g id="a_edge1_Node000001_Node000002"><a xlink:title=" ">
<path fill="none" stroke="#63b8ff" d="M265.26,-171.43C246.1,-194.01 213.93,-227.89 179,-247.5 172.89,-250.93 166.27,-253.89 159.49,-256.44"/>
<polygon fill="#63b8ff" stroke="#63b8ff" points="268.01,-173.6 271.71,-163.67 262.62,-169.12 268.01,-173.6"/>
</a>
</g>
</g>
<!-- Node3 -->
<g id="Node000003" class="node">
<title>Node3</title>
<g id="a_Node000003"><a xlink:href="namespacewmtk_1_1simplex.html#a18647fe3e4b68cc5a6186aa5063fcd53" target="_top" xlink:title=" ">
<polygon fill="white" stroke="#666666" points="146,-238 33,-238 33,-219 146,-219 146,-238"/>
<text text-anchor="middle" x="89.5" y="-226" font-family="Helvetica,sans-Serif" font-size="10.00">wmtk::simplex::link</text>
</a>
</g>
</g>
<!-- Node1&#45;&gt;Node3 -->
<g id="edge2_Node000001_Node000003" class="edge">
<title>Node1&#45;&gt;Node3</title>
<g id="a_edge2_Node000001_Node000003"><a xlink:title=" ">
<path fill="none" stroke="#63b8ff" d="M254.51,-169.31C234.26,-182.92 206.09,-200.05 179,-210.5 168.61,-214.51 157.18,-217.67 146.08,-220.16"/>
<polygon fill="#63b8ff" stroke="#63b8ff" points="256.68,-172.06 262.95,-163.53 252.73,-166.29 256.68,-172.06"/>
</a>
</g>
</g>
<!-- Node4 -->
<g id="Node000004" class="node">
<title>Node4</title>
<g id="a_Node000004"><a xlink:href="namespacewmtk_1_1simplex.html#a7787f1abe16a9b57db117d6fd53b59d9" target="_top" xlink:title=" ">
<polygon fill="white" stroke="#666666" points="146,-201 33,-201 33,-182 146,-182 146,-201"/>
<text text-anchor="middle" x="89.5" y="-189" font-family="Helvetica,sans-Serif" font-size="10.00">wmtk::simplex::link</text>
</a>
</g>
</g>
<!-- Node1&#45;&gt;Node4 -->
<g id="edge3_Node000001_Node000004" class="edge">
<title>Node1&#45;&gt;Node4</title>
<g id="a_edge3_Node000001_Node000004"><a xlink:title=" ">
<path fill="none" stroke="#63b8ff" d="M208.68,-165.82C198.71,-168.09 188.61,-170.37 179,-172.5 164.89,-175.64 149.49,-178.97 135.55,-181.96"/>
<polygon fill="#63b8ff" stroke="#63b8ff" points="209.62,-169.2 218.59,-163.56 208.06,-162.37 209.62,-169.2"/>
</a>
</g>
</g>
<!-- Node5 -->
<g id="Node000005" class="node">
<title>Node5</title>
<g id="a_Node000005"><a xlink:href="namespacewmtk_1_1simplex.html#a9c219fd0b4f590bc836d41011761968b" target="_top" xlink:title=" ">
<polygon fill="white" stroke="#666666" points="146,-163.5 33,-163.5 33,-133.5 146,-133.5 146,-163.5"/>
<text text-anchor="start" x="41" y="-151.5" font-family="Helvetica,sans-Serif" font-size="10.00">wmtk::simplex::link</text>
<text text-anchor="middle" x="89.5" y="-140.5" font-family="Helvetica,sans-Serif" font-size="10.00">_single_dimension</text>
</a>
</g>
</g>
<!-- Node1&#45;&gt;Node5 -->
<g id="edge4_Node000001_Node000005" class="edge">
<title>Node1&#45;&gt;Node5</title>
<g id="a_edge4_Node000001_Node000005"><a xlink:title=" ">
<path fill="none" stroke="#63b8ff" d="M204.75,-148.5C185.1,-148.5 164.43,-148.5 146.16,-148.5"/>
<polygon fill="#63b8ff" stroke="#63b8ff" points="204.91,-152 214.91,-148.5 204.91,-145 204.91,-152"/>
</a>
</g>
</g>
<!-- Node6 -->
<g id="Node000006" class="node">
<title>Node6</title>
<g id="a_Node000006"><a xlink:href="namespacewmtk_1_1simplex.html#acbee6808a498fd9280738a12e051c2c0" target="_top" xlink:title=" ">
<polygon fill="white" stroke="#666666" points="146,-115.5 33,-115.5 33,-85.5 146,-85.5 146,-115.5"/>
<text text-anchor="start" x="41" y="-103.5" font-family="Helvetica,sans-Serif" font-size="10.00">wmtk::simplex::link</text>
<text text-anchor="middle" x="89.5" y="-92.5" font-family="Helvetica,sans-Serif" font-size="10.00">_single_dimension</text>
</a>
</g>
</g>
<!-- Node1&#45;&gt;Node6 -->
<g id="edge5_Node000001_Node000006" class="edge">
<title>Node1&#45;&gt;Node6</title>
<g id="a_edge5_Node000001_Node000006"><a xlink:title=" ">
<path fill="none" stroke="#63b8ff" d="M213.01,-130.97C191.01,-125.5 167.07,-119.54 146.23,-114.36"/>
<polygon fill="#63b8ff" stroke="#63b8ff" points="212.41,-134.43 222.96,-133.44 214.1,-127.63 212.41,-134.43"/>
</a>
</g>
</g>
<!-- Node7 -->
<g id="Node000007" class="node">
<title>Node7</title>
<g id="a_Node000007"><a xlink:href="classwmtk_1_1_tri_mesh_1_1_tri_mesh_operation_executor.html#a400efff4f802a87f2e32914190ec7b3b" target="_top" xlink:title="jump to the next edge">
<polygon fill="white" stroke="#666666" points="179,-67.5 0,-67.5 0,-37.5 179,-37.5 179,-67.5"/>
<text text-anchor="start" x="8" y="-55.5" font-family="Helvetica,sans-Serif" font-size="10.00">wmtk::TriMesh::TriMeshOperation</text>
<text text-anchor="middle" x="89.5" y="-44.5" font-family="Helvetica,sans-Serif" font-size="10.00">Executor::next_edge</text>
</a>
</g>
</g>
<!-- Node1&#45;&gt;Node7 -->
<g id="edge6_Node000001_Node000007" class="edge">
<title>Node1&#45;&gt;Node7</title>
<g id="a_edge6_Node000001_Node000007"><a xlink:title=" ">
<path fill="none" stroke="#63b8ff" d="M257.95,-127.21C237.67,-111.26 207.99,-89.94 179,-76.5 171.78,-73.15 164,-70.2 156.16,-67.61"/>
<polygon fill="#63b8ff" stroke="#63b8ff" points="255.78,-129.96 265.78,-133.47 260.15,-124.49 255.78,-129.96"/>
</a>
</g>
</g>
<!-- Node8 -->
<g id="Node000008" class="node">
<title>Node8</title>
<g id="a_Node000008"><a xlink:href="namespacewmtk_1_1simplex.html#ae52e68a7ebacf23d85b0b15c1565dd5a" target="_top" xlink:title=" ">
<polygon fill="white" stroke="#666666" points="161,-19 18,-19 18,0 161,0 161,-19"/>
<text text-anchor="middle" x="89.5" y="-7" font-family="Helvetica,sans-Serif" font-size="10.00">wmtk::simplex::open_star</text>
</a>
</g>
</g>
<!-- Node1&#45;&gt;Node8 -->
<g id="edge7_Node000001_Node000008" class="edge">
<title>Node1&#45;&gt;Node8</title>
<g id="a_edge7_Node000001_Node000008"><a xlink:title=" ">
<path fill="none" stroke="#63b8ff" d="M269.4,-124.51C251.84,-96.87 219.19,-52.21 179,-28.5 172.37,-24.59 165.03,-21.48 157.5,-19"/>
<polygon fill="#63b8ff" stroke="#63b8ff" points="266.53,-126.52 274.77,-133.18 272.48,-122.84 266.53,-126.52"/>
</a>
</g>
</g>
</g>
</svg>
</svg>

<style type='text/css'>
<![CDATA[
[data-mouse-over-selected='false'] { opacity: 0.7; }
[data-mouse-over-selected='true']  { opacity: 1.0; }
]]>
</style>
<script type="application/ecmascript"><![CDATA[
document.addEventListener('DOMContentLoaded', (event) => {
  highlightEdges();
  highlightAdjacentNodes();
});
]]></script>
</svg>
