<?xml version="1.0" encoding="UTF-8" standalone="no"?>
<!DOCTYPE svg PUBLIC "-//W3C//DTD SVG 1.1//EN"
 "http://www.w3.org/Graphics/SVG/1.1/DTD/svg11.dtd">
<!-- Generated by graphviz version 2.43.0 (0)
 -->
<!-- Title: wmtk::TriMesh::is_connectivity_valid Pages: 1 -->
<svg width="1798pt" height="357pt"
 viewBox="0.00 0.00 1798.00 357.00" xmlns="http://www.w3.org/2000/svg" xmlns:xlink="http://www.w3.org/1999/xlink">
<g id="graph0" class="graph" transform="scale(1 1) rotate(0) translate(4 353)">
<title>wmtk::TriMesh::is_connectivity_valid</title>
<!-- Node1 -->
<g id="Node000001" class="node">
<title>Node1</title>
<g id="a_Node000001"><a xlink:title=" ">
<polygon fill="#999999" stroke="#666666" points="167,-166 0,-166 0,-136 167,-136 167,-166"/>
<text text-anchor="start" x="8" y="-154" font-family="Helvetica,sans-Serif" font-size="10.00">wmtk::TriMesh::is_connectivity</text>
<text text-anchor="middle" x="83.5" y="-143" font-family="Helvetica,sans-Serif" font-size="10.00">_valid</text>
</a>
</g>
</g>
<!-- Node2 -->
<g id="Node000002" class="node">
<title>Node2</title>
<g id="a_Node000002"><a xlink:href="classwmtk_1_1_mesh.html#a3e8ff83c4a5526a40d18bb9883c6c6c9" target="_top" xlink:title="read in the m_capacities return the upper bound for the number of entities of the given dimension">
<polygon fill="white" stroke="#666666" points="530.5,-343.5 406.5,-343.5 406.5,-324.5 530.5,-324.5 530.5,-343.5"/>
<text text-anchor="middle" x="468.5" y="-331.5" font-family="Helvetica,sans-Serif" font-size="10.00">wmtk::Mesh::capacity</text>
</a>
</g>
</g>
<!-- Node1&#45;&gt;Node2 -->
<g id="edge1_Node000001_Node000002" class="edge">
<title>Node1&#45;&gt;Node2</title>
<g id="a_edge1_Node000001_Node000002"><a xlink:title=" ">
<path fill="none" stroke="#63b8ff" d="M90.22,-166.2C103.82,-199.94 141.63,-280.81 203,-315 262.25,-348.02 340.91,-349.33 397.01,-344.49"/>
<polygon fill="#63b8ff" stroke="#63b8ff" points="397.59,-347.95 407.21,-343.52 396.93,-340.98 397.59,-347.95"/>
</a>
</g>
</g>
<!-- Node4 -->
<g id="Node000004" class="node">
<title>Node4</title>
<g id="a_Node000004"><a xlink:href="classwmtk_1_1attribute_1_1_caching_accessor.html#a196b6b32e2495b971113d552be7f45d9" target="_top" xlink:title=" ">
<polygon fill="white" stroke="#666666" points="348,-257.5 211,-257.5 211,-216.5 348,-216.5 348,-257.5"/>
<text text-anchor="start" x="219" y="-245.5" font-family="Helvetica,sans-Serif" font-size="10.00">wmtk::attribute::Caching</text>
<text text-anchor="start" x="219" y="-234.5" font-family="Helvetica,sans-Serif" font-size="10.00">Accessor::const_scalar</text>
<text text-anchor="middle" x="279.5" y="-223.5" font-family="Helvetica,sans-Serif" font-size="10.00">_attribute</text>
</a>
</g>
</g>
<!-- Node1&#45;&gt;Node4 -->
<g id="edge3_Node000001_Node000004" class="edge">
<title>Node1&#45;&gt;Node4</title>
<g id="a_edge3_Node000001_Node000004"><a xlink:title=" ">
<path fill="none" stroke="#63b8ff" d="M114.38,-166.21C138.16,-178.11 172.4,-194.79 203,-208 206.6,-209.56 210.3,-211.11 214.06,-212.66"/>
<polygon fill="#63b8ff" stroke="#63b8ff" points="212.86,-215.95 223.44,-216.46 215.49,-209.46 212.86,-215.95"/>
</a>
</g>
</g>
<!-- Node5 -->
<g id="Node000005" class="node">
<title>Node5</title>
<g id="a_Node000005"><a xlink:href="classwmtk_1_1attribute_1_1_caching_accessor.html#ab850fe07669c7bc92ca6cf6e86c60ee0" target="_top" xlink:title=" ">
<polygon fill="white" stroke="#666666" points="348,-198.5 211,-198.5 211,-157.5 348,-157.5 348,-198.5"/>
<text text-anchor="start" x="219" y="-186.5" font-family="Helvetica,sans-Serif" font-size="10.00">wmtk::attribute::Caching</text>
<text text-anchor="start" x="219" y="-175.5" font-family="Helvetica,sans-Serif" font-size="10.00">Accessor::const_vector</text>
<text text-anchor="middle" x="279.5" y="-164.5" font-family="Helvetica,sans-Serif" font-size="10.00">_attribute</text>
</a>
</g>
</g>
<!-- Node1&#45;&gt;Node5 -->
<g id="edge4_Node000001_Node000005" class="edge">
<title>Node1&#45;&gt;Node5</title>
<g id="a_edge4_Node000001_Node000005"><a xlink:title=" ">
<path fill="none" stroke="#63b8ff" d="M167.05,-162.49C178.27,-164.05 189.74,-165.65 200.86,-167.2"/>
<polygon fill="#63b8ff" stroke="#63b8ff" points="200.57,-170.69 210.96,-168.6 201.54,-163.76 200.57,-170.69"/>
</a>
</g>
</g>
<!-- Node6 -->
<g id="Node000006" class="node">
<title>Node6</title>
<g id="a_Node000006"><a xlink:href="classwmtk_1_1_mesh.html#ae0e8f71e9e17a90be9423117efcc4c81" target="_top" xlink:title=" ">
<polygon fill="white" stroke="#666666" points="340.5,-306 218.5,-306 218.5,-276 340.5,-276 340.5,-306"/>
<text text-anchor="start" x="226.5" y="-294" font-family="Helvetica,sans-Serif" font-size="10.00">wmtk::Mesh::get_flag</text>
<text text-anchor="middle" x="279.5" y="-283" font-family="Helvetica,sans-Serif" font-size="10.00">_accessor</text>
</a>
</g>
</g>
<!-- Node1&#45;&gt;Node6 -->
<g id="edge5_Node000001_Node000006" class="edge">
<title>Node1&#45;&gt;Node6</title>
<g id="a_edge5_Node000001_Node000006"><a xlink:title=" ">
<path fill="none" stroke="#63b8ff" d="M95.94,-166.09C115.35,-190.68 157.11,-239.41 203,-267 205.83,-268.7 208.79,-270.3 211.84,-271.79"/>
<polygon fill="#63b8ff" stroke="#63b8ff" points="210.62,-275.07 221.17,-275.95 213.47,-268.68 210.62,-275.07"/>
</a>
</g>
</g>
<!-- Node9 -->
<g id="Node000009" class="node">
<title>Node9</title>
<g id="a_Node000009"><a xlink:href="classwmtk_1_1attribute_1_1_accessor.html#a2d587e12c47a6d839ab80e9198cf75b5" target="_top" xlink:title=" ">
<polygon fill="white" stroke="#666666" points="350.5,-139 208.5,-139 208.5,-109 350.5,-109 350.5,-139"/>
<text text-anchor="start" x="216.5" y="-127" font-family="Helvetica,sans-Serif" font-size="10.00">wmtk::attribute::Accessor</text>
<text text-anchor="middle" x="279.5" y="-116" font-family="Helvetica,sans-Serif" font-size="10.00">::index_access</text>
</a>
</g>
</g>
<!-- Node1&#45;&gt;Node9 -->
<g id="edge9_Node000001_Node000009" class="edge">
<title>Node1&#45;&gt;Node9</title>
<g id="a_edge9_Node000001_Node000009"><a xlink:title=" ">
<path fill="none" stroke="#63b8ff" d="M167.05,-139.51C177.34,-138.08 187.85,-136.62 198.1,-135.19"/>
<polygon fill="#63b8ff" stroke="#63b8ff" points="198.83,-138.63 208.26,-133.78 197.87,-131.69 198.83,-138.63"/>
</a>
</g>
</g>
<!-- Node11 -->
<g id="Node000011" class="node">
<title>Node11</title>
<g id="a_Node000011"><a xlink:href="classwmtk_1_1_tri_mesh.html#a2e568aaaffd6e68904c5cecd8256ed93" target="_top" xlink:title="returns if a simplex is on the boundary of hte mesh. For anything but dimension &#45; 1 this checks if th...">
<polygon fill="white" stroke="#666666" points="356,-90.5 203,-90.5 203,-71.5 356,-71.5 356,-90.5"/>
<text text-anchor="middle" x="279.5" y="-78.5" font-family="Helvetica,sans-Serif" font-size="10.00">wmtk::TriMesh::is_boundary</text>
</a>
</g>
</g>
<!-- Node1&#45;&gt;Node11 -->
<g id="edge11_Node000001_Node000011" class="edge">
<title>Node1&#45;&gt;Node11</title>
<g id="a_edge11_Node000001_Node000011"><a xlink:title=" ">
<path fill="none" stroke="#63b8ff" d="M115.65,-135.97C139.24,-124.99 172.66,-110.28 203,-100 210.21,-97.56 217.9,-95.28 225.52,-93.19"/>
<polygon fill="#63b8ff" stroke="#63b8ff" points="226.65,-96.51 235.43,-90.58 224.87,-89.74 226.65,-96.51"/>
</a>
</g>
</g>
<!-- Node17 -->
<g id="Node000017" class="node">
<title>Node17</title>
<g id="a_Node000017"><a xlink:href="namespacewmtk.html#a6a35f11c12436093d26fdd8be6fecc06" target="_top" xlink:title="Retrieves the current logger.">
<polygon fill="white" stroke="#666666" points="1409.5,-41.5 1328.5,-41.5 1328.5,-22.5 1409.5,-22.5 1409.5,-41.5"/>
<text text-anchor="middle" x="1369" y="-29.5" font-family="Helvetica,sans-Serif" font-size="10.00">wmtk::logger</text>
</a>
</g>
</g>
<!-- Node1&#45;&gt;Node17 -->
<g id="edge42_Node000001_Node000017" class="edge">
<title>Node1&#45;&gt;Node17</title>
<g id="a_edge42_Node000001_Node000017"><a xlink:title=" ">
<path fill="none" stroke="#63b8ff" d="M94.46,-135.98C112.58,-110.06 153.66,-57.48 203,-34 309.79,16.81 349.24,-5 467.5,-5 467.5,-5 467.5,-5 1033.5,-5 1134.98,-5 1253.22,-17.5 1318.43,-25.49"/>
<polygon fill="#63b8ff" stroke="#63b8ff" points="1318.08,-28.98 1328.43,-26.73 1318.94,-22.03 1318.08,-28.98"/>
</a>
</g>
</g>
<!-- Node3 -->
<g id="Node000003" class="node">
<title>Node3</title>
<g id="a_Node000003"><a xlink:href="namespacewmtk.html#a5cf45c152e856196bb734c6f48919a24" target="_top" xlink:title="Get a unique integer id corresponding to each primitive type.">
<polygon fill="white" stroke="#666666" points="730,-349 614,-349 614,-319 730,-319 730,-349"/>
<text text-anchor="start" x="622" y="-337" font-family="Helvetica,sans-Serif" font-size="10.00">wmtk::get_primitive</text>
<text text-anchor="middle" x="672" y="-326" font-family="Helvetica,sans-Serif" font-size="10.00">_type_id</text>
</a>
</g>
</g>
<!-- Node2&#45;&gt;Node3 -->
<g id="edge2_Node000002_Node000003" class="edge">
<title>Node2&#45;&gt;Node3</title>
<g id="a_edge2_Node000002_Node000003"><a xlink:title=" ">
<path fill="none" stroke="#63b8ff" d="M530.5,-334C553.61,-334 580.04,-334 603.69,-334"/>
<polygon fill="#63b8ff" stroke="#63b8ff" points="603.99,-337.5 613.99,-334 603.99,-330.5 603.99,-337.5"/>
</a>
</g>
</g>
<!-- Node7 -->
<g id="Node000007" class="node">
<title>Node7</title>
<g id="a_Node000007"><a xlink:href="classwmtk_1_1_mesh.html#a6dbab927a2ee85f77a87f075fd5c1d94" target="_top" xlink:title=" ">
<polygon fill="white" stroke="#666666" points="533.5,-306 403.5,-306 403.5,-276 533.5,-276 533.5,-306"/>
<text text-anchor="start" x="411.5" y="-294" font-family="Helvetica,sans-Serif" font-size="10.00">wmtk::Mesh::get_const</text>
<text text-anchor="middle" x="468.5" y="-283" font-family="Helvetica,sans-Serif" font-size="10.00">_flag_accessor</text>
</a>
</g>
</g>
<!-- Node6&#45;&gt;Node7 -->
<g id="edge6_Node000006_Node000007" class="edge">
<title>Node6&#45;&gt;Node7</title>
<g id="a_edge6_Node000006_Node000007"><a xlink:title=" ">
<path fill="none" stroke="#63b8ff" d="M340.7,-291C357.39,-291 375.71,-291 393.1,-291"/>
<polygon fill="#63b8ff" stroke="#63b8ff" points="393.22,-294.5 403.22,-291 393.22,-287.5 393.22,-294.5"/>
</a>
</g>
</g>
<!-- Node7&#45;&gt;Node3 -->
<g id="edge8_Node000007_Node000003" class="edge">
<title>Node7&#45;&gt;Node3</title>
<g id="a_edge8_Node000007_Node000003"><a xlink:title=" ">
<path fill="none" stroke="#63b8ff" d="M533.53,-304.67C556.02,-309.47 581.33,-314.87 604.05,-319.72"/>
<polygon fill="#63b8ff" stroke="#63b8ff" points="603.44,-323.16 613.95,-321.83 604.9,-316.32 603.44,-323.16"/>
</a>
</g>
</g>
<!-- Node8 -->
<g id="Node000008" class="node">
<title>Node8</title>
<g id="a_Node000008"><a xlink:href="classwmtk_1_1_mesh.html#a357182137d99f1e4a7ff536eadfc0e56" target="_top" xlink:title=" ">
<polygon fill="white" stroke="#666666" points="728.5,-301 615.5,-301 615.5,-271 728.5,-271 728.5,-301"/>
<text text-anchor="start" x="623.5" y="-289" font-family="Helvetica,sans-Serif" font-size="10.00">wmtk::Mesh::create</text>
<text text-anchor="middle" x="672" y="-278" font-family="Helvetica,sans-Serif" font-size="10.00">_const_accessor</text>
</a>
</g>
</g>
<!-- Node7&#45;&gt;Node8 -->
<g id="edge7_Node000007_Node000008" class="edge">
<title>Node7&#45;&gt;Node8</title>
<g id="a_edge7_Node000007_Node000008"><a xlink:title=" ">
<path fill="none" stroke="#63b8ff" d="M533.53,-289.41C556.42,-288.85 582.24,-288.21 605.27,-287.63"/>
<polygon fill="#63b8ff" stroke="#63b8ff" points="605.38,-291.13 615.29,-287.39 605.2,-284.14 605.38,-291.13"/>
</a>
</g>
</g>
<!-- Node10 -->
<g id="Node000010" class="node">
<title>Node10</title>
<g id="a_Node000010"><a xlink:href="classwmtk_1_1attribute_1_1_accessor.html#afd97a48ec5d1db975a030428df81f617" target="_top" xlink:title=" ">
<polygon fill="white" stroke="#666666" points="539.5,-187 397.5,-187 397.5,-157 539.5,-157 539.5,-187"/>
<text text-anchor="start" x="405.5" y="-175" font-family="Helvetica,sans-Serif" font-size="10.00">wmtk::attribute::Accessor</text>
<text text-anchor="middle" x="468.5" y="-164" font-family="Helvetica,sans-Serif" font-size="10.00">::caching_base_type</text>
</a>
</g>
</g>
<!-- Node9&#45;&gt;Node10 -->
<g id="edge10_Node000009_Node000010" class="edge">
<title>Node9&#45;&gt;Node10</title>
<g id="a_edge10_Node000009_Node000010"><a xlink:title=" ">
<path fill="none" stroke="#63b8ff" d="M339.15,-139.06C358.21,-143.95 379.53,-149.42 399.23,-154.48"/>
<polygon fill="#63b8ff" stroke="#63b8ff" points="398.5,-157.91 409.05,-157 400.24,-151.12 398.5,-157.91"/>
</a>
</g>
</g>
<!-- Node12 -->
<g id="Node000012" class="node">
<title>Node12</title>
<g id="a_Node000012"><a xlink:href="classwmtk_1_1_tri_mesh.html#ac603f7969b10c674eb00e007a507a530" target="_top" xlink:title=" ">
<polygon fill="white" stroke="#666666" points="763,-90.5 581,-90.5 581,-71.5 763,-71.5 763,-90.5"/>
<text text-anchor="middle" x="672" y="-78.5" font-family="Helvetica,sans-Serif" font-size="10.00">wmtk::TriMesh::is_boundary_edge</text>
</a>
</g>
</g>
<!-- Node11&#45;&gt;Node12 -->
<g id="edge12_Node000011_Node000012" class="edge">
<title>Node11&#45;&gt;Node12</title>
<g id="a_edge12_Node000011_Node000012"><a xlink:title=" ">
<path fill="none" stroke="#63b8ff" d="M356.26,-81C417.33,-81 503.75,-81 570.59,-81"/>
<polygon fill="#63b8ff" stroke="#63b8ff" points="570.72,-84.5 580.72,-81 570.72,-77.5 570.72,-84.5"/>
</a>
</g>
</g>
<!-- Node23 -->
<g id="Node000023" class="node">
<title>Node23</title>
<g id="a_Node000023"><a xlink:href="classwmtk_1_1_tri_mesh.html#a1d5d124897281d6a649098213173fdb5" target="_top" xlink:title=" ">
<polygon fill="white" stroke="#666666" points="545,-139 392,-139 392,-109 545,-109 545,-139"/>
<text text-anchor="start" x="400" y="-127" font-family="Helvetica,sans-Serif" font-size="10.00">wmtk::TriMesh::is_boundary</text>
<text text-anchor="middle" x="468.5" y="-116" font-family="Helvetica,sans-Serif" font-size="10.00">_vertex</text>
</a>
</g>
</g>
<!-- Node11&#45;&gt;Node23 -->
<g id="edge26_Node000011_Node000023" class="edge">
<title>Node11&#45;&gt;Node23</title>
<g id="a_edge26_Node000011_Node000023"><a xlink:title=" ">
<path fill="none" stroke="#63b8ff" d="M322,-90.55C342.71,-95.31 368.41,-101.22 392.43,-106.74"/>
<polygon fill="#63b8ff" stroke="#63b8ff" points="391.71,-110.17 402.24,-109 393.28,-103.35 391.71,-110.17"/>
</a>
</g>
</g>
<!-- Node13 -->
<g id="Node000013" class="node">
<title>Node13</title>
<g id="a_Node000013"><a xlink:href="classwmtk_1_1_tri_mesh.html#a611704f60f24669e957325c7cb79f200" target="_top" xlink:title="check validity of tuple including its hash">
<polygon fill="white" stroke="#666666" points="1272,-112.5 1141,-112.5 1141,-93.5 1272,-93.5 1272,-112.5"/>
<text text-anchor="middle" x="1206.5" y="-100.5" font-family="Helvetica,sans-Serif" font-size="10.00">wmtk::TriMesh::is_valid</text>
</a>
</g>
</g>
<!-- Node12&#45;&gt;Node13 -->
<g id="edge13_Node000012_Node000013" class="edge">
<title>Node12&#45;&gt;Node13</title>
<g id="a_edge13_Node000012_Node000013"><a xlink:title=" ">
<path fill="none" stroke="#63b8ff" d="M763.03,-84.72C866.33,-88.99 1033.85,-95.91 1130.41,-99.9"/>
<polygon fill="#63b8ff" stroke="#63b8ff" points="1130.54,-103.41 1140.68,-100.33 1130.83,-96.42 1130.54,-103.41"/>
</a>
</g>
</g>
<!-- Node13&#45;&gt;Node1 -->
<g id="edge14_Node000013_Node000001" class="edge">
<title>Node13&#45;&gt;Node1</title>
<g id="a_edge14_Node000013_Node000001"><a xlink:title=" ">
<path fill="none" stroke="#63b8ff" d="M1173.2,-93.5C1112.77,-76.58 978.27,-43 862.5,-43 467.5,-43 467.5,-43 467.5,-43 349.61,-43 313.45,-21.79 203,-63 164.77,-77.27 128.26,-107.83 106.11,-128.9"/>
<polygon fill="#63b8ff" stroke="#63b8ff" points="103.63,-126.43 98.9,-135.91 108.51,-131.45 103.63,-126.43"/>
</a>
</g>
</g>
<!-- Node14 -->
<g id="Node000014" class="node">
<title>Node14</title>
<g id="a_Node000014"><a xlink:href="classwmtk_1_1_mesh.html#a8cc8686f0688613806f43720b6db49e7" target="_top" xlink:title="check validity of tuple including its hash">
<polygon fill="white" stroke="#666666" points="1429,-112.5 1309,-112.5 1309,-93.5 1429,-93.5 1429,-112.5"/>
<text text-anchor="middle" x="1369" y="-100.5" font-family="Helvetica,sans-Serif" font-size="10.00">wmtk::Mesh::is_valid</text>
</a>
</g>
</g>
<!-- Node13&#45;&gt;Node14 -->
<g id="edge15_Node000013_Node000014" class="edge">
<title>Node13&#45;&gt;Node14</title>
<g id="a_edge15_Node000013_Node000014"><a xlink:title=" ">
<path fill="none" stroke="#63b8ff" d="M1272.32,-103C1281.01,-103 1289.95,-103 1298.72,-103"/>
<polygon fill="#63b8ff" stroke="#63b8ff" points="1298.9,-106.5 1308.9,-103 1298.9,-99.5 1298.9,-106.5"/>
</a>
</g>
</g>
<!-- Node13&#45;&gt;Node17 -->
<g id="edge19_Node000013_Node000017" class="edge">
<title>Node13&#45;&gt;Node17</title>
<g id="a_edge19_Node000013_Node000017"><a xlink:title=" ">
<path fill="none" stroke="#63b8ff" d="M1229.15,-93.43C1256.98,-81.11 1305.51,-59.65 1337.19,-45.63"/>
<polygon fill="#63b8ff" stroke="#63b8ff" points="1338.71,-48.79 1346.44,-41.54 1335.88,-42.39 1338.71,-48.79"/>
</a>
</g>
</g>
<!-- Node19 -->
<g id="Node000019" class="node">
<title>Node19</title>
<g id="a_Node000019"><a xlink:href="namespacewmtk_1_1autogen_1_1tri__mesh.html#a786155d6d2270c482ffd6a96d3211867" target="_top" xlink:title=" ">
<polygon fill="white" stroke="#666666" points="1430,-171.5 1308,-171.5 1308,-130.5 1430,-130.5 1430,-171.5"/>
<text text-anchor="start" x="1316" y="-159.5" font-family="Helvetica,sans-Serif" font-size="10.00">wmtk::autogen::tri</text>
<text text-anchor="start" x="1316" y="-148.5" font-family="Helvetica,sans-Serif" font-size="10.00">_mesh::tuple_is_valid</text>
<text text-anchor="middle" x="1369" y="-137.5" font-family="Helvetica,sans-Serif" font-size="10.00">_for_ccw</text>
</a>
</g>
</g>
<!-- Node13&#45;&gt;Node19 -->
<g id="edge21_Node000013_Node000019" class="edge">
<title>Node13&#45;&gt;Node19</title>
<g id="a_edge21_Node000013_Node000019"><a xlink:title=" ">
<path fill="none" stroke="#63b8ff" d="M1239.59,-112.6C1256.42,-117.63 1277.72,-124 1298.11,-130.1"/>
<polygon fill="#63b8ff" stroke="#63b8ff" points="1297.12,-133.46 1307.71,-132.97 1299.13,-126.75 1297.12,-133.46"/>
</a>
</g>
</g>
<!-- Node15 -->
<g id="Node000015" class="node">
<title>Node15</title>
<g id="a_Node000015"><a xlink:href="classwmtk_1_1_tuple.html#a0023f575be92cd5ceeeaaaa3762ea06d" target="_top" xlink:title="Checks if a tuple is &quot;null&quot;. This merely implies the global index is &#45;1.">
<polygon fill="white" stroke="#666666" points="1592.5,-160.5 1479.5,-160.5 1479.5,-141.5 1592.5,-141.5 1592.5,-160.5"/>
<text text-anchor="middle" x="1536" y="-148.5" font-family="Helvetica,sans-Serif" font-size="10.00">wmtk::Tuple::is_null</text>
</a>
</g>
</g>
<!-- Node14&#45;&gt;Node15 -->
<g id="edge16_Node000014_Node000015" class="edge">
<title>Node14&#45;&gt;Node15</title>
<g id="a_edge16_Node000014_Node000015"><a xlink:title=" ">
<path fill="none" stroke="#63b8ff" d="M1400.21,-112.62C1423.43,-119.97 1453.58,-129.44 1466,-133 1472.72,-134.93 1479.83,-136.88 1486.83,-138.75"/>
<polygon fill="#63b8ff" stroke="#63b8ff" points="1486.39,-142.25 1496.95,-141.42 1488.18,-135.49 1486.39,-142.25"/>
</a>
</g>
</g>
<!-- Node16 -->
<g id="Node000016" class="node">
<title>Node16</title>
<g id="a_Node000016"><a xlink:href="classwmtk_1_1_mesh.html#ade176d345902d97af8c5da04aa3a095b" target="_top" xlink:title=" ">
<polygon fill="white" stroke="#666666" points="1606,-105.5 1466,-105.5 1466,-86.5 1606,-86.5 1606,-105.5"/>
<text text-anchor="middle" x="1536" y="-93.5" font-family="Helvetica,sans-Serif" font-size="10.00">wmtk::Mesh::is_removed</text>
</a>
</g>
</g>
<!-- Node14&#45;&gt;Node16 -->
<g id="edge17_Node000014_Node000016" class="edge">
<title>Node14&#45;&gt;Node16</title>
<g id="a_edge17_Node000014_Node000016"><a xlink:title=" ">
<path fill="none" stroke="#63b8ff" d="M1429.1,-100.5C1437.77,-100.13 1446.81,-99.74 1455.8,-99.36"/>
<polygon fill="#63b8ff" stroke="#63b8ff" points="1456.06,-102.86 1465.91,-98.93 1455.77,-95.86 1456.06,-102.86"/>
</a>
</g>
</g>
<!-- Node16&#45;&gt;Node16 -->
<g id="edge18_Node000016_Node000016" class="edge">
<title>Node16&#45;&gt;Node16</title>
<g id="a_edge18_Node000016_Node000016"><a xlink:title=" ">
<path fill="none" stroke="#63b8ff" d="M1510.41,-105.59C1497.97,-114.24 1506.5,-123.5 1536,-123.5 1555.36,-123.5 1565.69,-119.51 1566.99,-114.32"/>
<polygon fill="#63b8ff" stroke="#63b8ff" points="1569.82,-112.25 1561.59,-105.59 1563.87,-115.93 1569.82,-112.25"/>
</a>
</g>
</g>
<!-- Node18 -->
<g id="Node000018" class="node">
<title>Node18</title>
<g id="a_Node000018"><a xlink:href="namespacewmtk.html#a3daa7951a5f8b78cf4600dc047fcc180" target="_top" xlink:title="Setup a logger object to be used by WildmeshToolkit.">
<polygon fill="white" stroke="#666666" points="1586.5,-41.5 1485.5,-41.5 1485.5,-22.5 1586.5,-22.5 1586.5,-41.5"/>
<text text-anchor="middle" x="1536" y="-29.5" font-family="Helvetica,sans-Serif" font-size="10.00">wmtk::set_logger</text>
</a>
</g>
</g>
<!-- Node17&#45;&gt;Node18 -->
<g id="edge20_Node000017_Node000018" class="edge">
<title>Node17&#45;&gt;Node18</title>
<g id="a_edge20_Node000017_Node000018"><a xlink:title=" ">
<path fill="none" stroke="#63b8ff" d="M1409.52,-32C1429.19,-32 1453.39,-32 1475.26,-32"/>
<polygon fill="#63b8ff" stroke="#63b8ff" points="1475.46,-35.5 1485.46,-32 1475.46,-28.5 1475.46,-35.5"/>
</a>
</g>
</g>
<!-- Node19&#45;&gt;Node15 -->
<g id="edge22_Node000019_Node000015" class="edge">
<title>Node19&#45;&gt;Node15</title>
<g id="a_edge22_Node000019_Node000015"><a xlink:title=" ">
<path fill="none" stroke="#63b8ff" d="M1430.04,-151C1442.76,-151 1456.25,-151 1469.18,-151"/>
<polygon fill="#63b8ff" stroke="#63b8ff" points="1469.4,-154.5 1479.4,-151 1469.4,-147.5 1469.4,-154.5"/>
</a>
</g>
</g>
<!-- Node20 -->
<g id="Node000020" class="node">
<title>Node20</title>
<g id="a_Node000020"><a xlink:href="namespacewmtk_1_1autogen_1_1tri__mesh.html#a1c9b651c47ee993e160a8dca570cf35c" target="_top" xlink:title=" ">
<polygon fill="white" stroke="#666666" points="1597,-220.5 1475,-220.5 1475,-179.5 1597,-179.5 1597,-220.5"/>
<text text-anchor="start" x="1483" y="-208.5" font-family="Helvetica,sans-Serif" font-size="10.00">wmtk::autogen::tri</text>
<text text-anchor="start" x="1483" y="-197.5" font-family="Helvetica,sans-Serif" font-size="10.00">_mesh::local_id_table</text>
<text text-anchor="middle" x="1536" y="-186.5" font-family="Helvetica,sans-Serif" font-size="10.00">_offset</text>
</a>
</g>
</g>
<!-- Node19&#45;&gt;Node20 -->
<g id="edge23_Node000019_Node000020" class="edge">
<title>Node19&#45;&gt;Node20</title>
<g id="a_edge23_Node000019_Node000020"><a xlink:title=" ">
<path fill="none" stroke="#63b8ff" d="M1430.04,-168.83C1441.41,-172.21 1453.4,-175.77 1465.05,-179.23"/>
<polygon fill="#63b8ff" stroke="#63b8ff" points="1464.15,-182.61 1474.73,-182.11 1466.14,-175.9 1464.15,-182.61"/>
</a>
</g>
</g>
<!-- Node21 -->
<g id="Node000021" class="node">
<title>Node21</title>
<g id="a_Node000021"><a xlink:href="classwmtk_1_1utils_1_1_tuple_inspector.html#a3a04acf16e0eff80ade8e0fb8753ac1b" target="_top" xlink:title=" ">
<polygon fill="white" stroke="#666666" points="1790,-239 1642,-239 1642,-209 1790,-209 1790,-239"/>
<text text-anchor="start" x="1650" y="-227" font-family="Helvetica,sans-Serif" font-size="10.00">wmtk::utils::TupleInspector</text>
<text text-anchor="middle" x="1716" y="-216" font-family="Helvetica,sans-Serif" font-size="10.00">::local_eid</text>
</a>
</g>
</g>
<!-- Node20&#45;&gt;Node21 -->
<g id="edge24_Node000020_Node000021" class="edge">
<title>Node20&#45;&gt;Node21</title>
<g id="a_edge24_Node000020_Node000021"><a xlink:title=" ">
<path fill="none" stroke="#63b8ff" d="M1597.26,-208.13C1608.34,-209.62 1620.08,-211.21 1631.69,-212.77"/>
<polygon fill="#63b8ff" stroke="#63b8ff" points="1631.47,-216.27 1641.85,-214.14 1632.4,-209.34 1631.47,-216.27"/>
</a>
</g>
</g>
<!-- Node22 -->
<g id="Node000022" class="node">
<title>Node22</title>
<g id="a_Node000022"><a xlink:href="classwmtk_1_1utils_1_1_tuple_inspector.html#a92f5faa08a7f78424f5cd1ec79dcedbb" target="_top" xlink:title=" ">
<polygon fill="white" stroke="#666666" points="1790,-191 1642,-191 1642,-161 1790,-161 1790,-191"/>
<text text-anchor="start" x="1650" y="-179" font-family="Helvetica,sans-Serif" font-size="10.00">wmtk::utils::TupleInspector</text>
<text text-anchor="middle" x="1716" y="-168" font-family="Helvetica,sans-Serif" font-size="10.00">::local_vid</text>
</a>
</g>
</g>
<!-- Node20&#45;&gt;Node22 -->
<g id="edge25_Node000020_Node000022" class="edge">
<title>Node20&#45;&gt;Node22</title>
<g id="a_edge25_Node000020_Node000022"><a xlink:title=" ">
<path fill="none" stroke="#63b8ff" d="M1597.26,-191.88C1608.34,-190.38 1620.08,-188.8 1631.69,-187.24"/>
<polygon fill="#63b8ff" stroke="#63b8ff" points="1632.4,-190.67 1641.85,-185.87 1631.47,-183.73 1632.4,-190.67"/>
</a>
</g>
</g>
<!-- Node23&#45;&gt;Node12 -->
<g id="edge27_Node000023_Node000012" class="edge">
<title>Node23&#45;&gt;Node12</title>
<g id="a_edge27_Node000023_Node000012"><a xlink:title=" ">
<path fill="none" stroke="#63b8ff" d="M539.97,-108.96C565.1,-103.6 592.99,-97.65 616.56,-92.62"/>
<polygon fill="#63b8ff" stroke="#63b8ff" points="617.33,-96.04 626.38,-90.53 615.87,-89.19 617.33,-96.04"/>
</a>
</g>
</g>
<!-- Node24 -->
<g id="Node000024" class="node">
<title>Node24</title>
<g id="a_Node000024"><a xlink:href="classwmtk_1_1_tri_mesh.html#a79010f8baac63245558c846aafea10d0" target="_top" xlink:title=" ">
<polygon fill="white" stroke="#666666" points="749.5,-168.5 594.5,-168.5 594.5,-149.5 749.5,-149.5 749.5,-168.5"/>
<text text-anchor="middle" x="672" y="-156.5" font-family="Helvetica,sans-Serif" font-size="10.00">wmtk::TriMesh::switch_edge</text>
</a>
</g>
</g>
<!-- Node23&#45;&gt;Node24 -->
<g id="edge28_Node000023_Node000024" class="edge">
<title>Node23&#45;&gt;Node24</title>
<g id="a_edge28_Node000023_Node000024"><a xlink:title=" ">
<path fill="none" stroke="#63b8ff" d="M545.1,-137.14C565.17,-140.62 586.66,-144.35 606.1,-147.73"/>
<polygon fill="#63b8ff" stroke="#63b8ff" points="605.61,-151.2 616.06,-149.46 606.8,-144.3 605.61,-151.2"/>
</a>
</g>
</g>
<!-- Node30 -->
<g id="Node000030" class="node">
<title>Node30</title>
<g id="a_Node000030"><a xlink:href="classwmtk_1_1_tri_mesh.html#a0ecb0fd199e840ff9f3d206abc10a64b" target="_top" xlink:title=" ">
<polygon fill="white" stroke="#666666" points="748,-131.5 596,-131.5 596,-112.5 748,-112.5 748,-131.5"/>
<text text-anchor="middle" x="672" y="-119.5" font-family="Helvetica,sans-Serif" font-size="10.00">wmtk::TriMesh::switch_face</text>
</a>
</g>
</g>
<!-- Node23&#45;&gt;Node30 -->
<g id="edge40_Node000023_Node000030" class="edge">
<title>Node23&#45;&gt;Node30</title>
<g id="a_edge40_Node000023_Node000030"><a xlink:title=" ">
<path fill="none" stroke="#63b8ff" d="M545.1,-123.25C558.36,-123.12 572.24,-122.98 585.74,-122.85"/>
<polygon fill="#63b8ff" stroke="#63b8ff" points="586.01,-126.35 595.98,-122.75 585.94,-119.35 586.01,-126.35"/>
</a>
</g>
</g>
<!-- Node25 -->
<g id="Node000025" class="node">
<title>Node25</title>
<g id="a_Node000025"><a xlink:href="classwmtk_1_1_tri_mesh.html#a17b808a46d1a31efc12d555e6721bd02" target="_top" xlink:title="switch the orientation of the Tuple of the given dimension">
<polygon fill="white" stroke="#666666" points="924,-173 799,-173 799,-143 924,-143 924,-173"/>
<text text-anchor="start" x="807" y="-161" font-family="Helvetica,sans-Serif" font-size="10.00">wmtk::TriMesh::switch</text>
<text text-anchor="middle" x="861.5" y="-150" font-family="Helvetica,sans-Serif" font-size="10.00">_tuple</text>
</a>
</g>
</g>
<!-- Node24&#45;&gt;Node25 -->
<g id="edge29_Node000024_Node000025" class="edge">
<title>Node24&#45;&gt;Node25</title>
<g id="a_edge29_Node000024_Node000025"><a xlink:title=" ">
<path fill="none" stroke="#63b8ff" d="M749.53,-158.6C762.48,-158.53 775.88,-158.45 788.69,-158.39"/>
<polygon fill="#63b8ff" stroke="#63b8ff" points="788.85,-161.89 798.83,-158.33 788.81,-154.89 788.85,-161.89"/>
</a>
</g>
</g>
<!-- Node25&#45;&gt;Node13 -->
<g id="edge37_Node000025_Node000013" class="edge">
<title>Node25&#45;&gt;Node13</title>
<g id="a_edge37_Node000025_Node000013"><a xlink:title=" ">
<path fill="none" stroke="#63b8ff" d="M924.22,-148.11C983.78,-138.56 1073.82,-124.12 1135.9,-114.16"/>
<polygon fill="#63b8ff" stroke="#63b8ff" points="1136.68,-117.58 1146,-112.54 1135.57,-110.67 1136.68,-117.58"/>
</a>
</g>
</g>
<!-- Node26 -->
<g id="Node000026" class="node">
<title>Node26</title>
<g id="a_Node000026"><a xlink:href="classwmtk_1_1_tri_mesh.html#a9975c25ed665c9c9a7f1ae92818a1b7c" target="_top" xlink:title=" ">
<polygon fill="white" stroke="#666666" points="1258,-155.5 1155,-155.5 1155,-136.5 1258,-136.5 1258,-155.5"/>
<text text-anchor="middle" x="1206.5" y="-143.5" font-family="Helvetica,sans-Serif" font-size="10.00">wmtk::TriMesh::id</text>
</a>
</g>
</g>
<!-- Node25&#45;&gt;Node26 -->
<g id="edge30_Node000025_Node000026" class="edge">
<title>Node25&#45;&gt;Node26</title>
<g id="a_edge30_Node000025_Node000026"><a xlink:title=" ">
<path fill="none" stroke="#63b8ff" d="M924.22,-155.84C986.7,-153.66 1082.73,-150.3 1144.83,-148.13"/>
<polygon fill="#63b8ff" stroke="#63b8ff" points="1145.01,-151.62 1154.88,-147.77 1144.76,-144.63 1145.01,-151.62"/>
</a>
</g>
</g>
<!-- Node27 -->
<g id="Node000027" class="node">
<title>Node27</title>
<g id="a_Node000027"><a xlink:href="classwmtk_1_1_tri_mesh.html#accbde91fccacdfdfd997e20d9ee9eb22" target="_top" xlink:title="returns if a tuple is counterclockwise or not">
<polygon fill="white" stroke="#666666" points="1095.5,-204.5 969.5,-204.5 969.5,-185.5 1095.5,-185.5 1095.5,-204.5"/>
<text text-anchor="middle" x="1032.5" y="-192.5" font-family="Helvetica,sans-Serif" font-size="10.00">wmtk::TriMesh::is_ccw</text>
</a>
</g>
</g>
<!-- Node25&#45;&gt;Node27 -->
<g id="edge32_Node000025_Node000027" class="edge">
<title>Node25&#45;&gt;Node27</title>
<g id="a_edge32_Node000025_Node000027"><a xlink:title=" ">
<path fill="none" stroke="#63b8ff" d="M924.47,-171.57C942.11,-175.43 961.16,-179.6 978.24,-183.34"/>
<polygon fill="#63b8ff" stroke="#63b8ff" points="977.52,-186.77 988.03,-185.49 979.01,-179.93 977.52,-186.77"/>
</a>
</g>
</g>
<!-- Node29 -->
<g id="Node000029" class="node">
<title>Node29</title>
<g id="a_Node000029"><a xlink:href="namespacewmtk_1_1autogen_1_1tri__mesh.html#a91e6b348f528d93ad6d9031bae1480da" target="_top" xlink:title=" ">
<polygon fill="white" stroke="#666666" points="1105,-253 960,-253 960,-223 1105,-223 1105,-253"/>
<text text-anchor="start" x="968" y="-241" font-family="Helvetica,sans-Serif" font-size="10.00">wmtk::autogen::tri</text>
<text text-anchor="middle" x="1032.5" y="-230" font-family="Helvetica,sans-Serif" font-size="10.00">_mesh::local_switch_tuple</text>
</a>
</g>
</g>
<!-- Node25&#45;&gt;Node29 -->
<g id="edge38_Node000025_Node000029" class="edge">
<title>Node25&#45;&gt;Node29</title>
<g id="a_edge38_Node000025_Node000029"><a xlink:title=" ">
<path fill="none" stroke="#63b8ff" d="M885.85,-173.17C905.18,-185.29 933.65,-202.15 960,-214 964.07,-215.84 968.33,-217.61 972.65,-219.3"/>
<polygon fill="#63b8ff" stroke="#63b8ff" points="971.57,-222.63 982.16,-222.87 974.03,-216.08 971.57,-222.63"/>
</a>
</g>
</g>
<!-- Node26&#45;&gt;Node14 -->
<g id="edge31_Node000026_Node000014" class="edge">
<title>Node26&#45;&gt;Node14</title>
<g id="a_edge31_Node000026_Node000014"><a xlink:title=" ">
<path fill="none" stroke="#63b8ff" d="M1243.12,-136.46C1266.6,-130.17 1297.56,-121.88 1322.77,-115.12"/>
<polygon fill="#63b8ff" stroke="#63b8ff" points="1323.73,-118.49 1332.48,-112.52 1321.91,-111.73 1323.73,-118.49"/>
</a>
</g>
</g>
<!-- Node27&#45;&gt;Node13 -->
<g id="edge36_Node000027_Node000013" class="edge">
<title>Node27&#45;&gt;Node13</title>
<g id="a_edge36_Node000027_Node000013"><a xlink:title=" ">
<path fill="none" stroke="#63b8ff" d="M1046.94,-185.47C1066.83,-171.64 1105.59,-145.7 1141,-128 1149.52,-123.74 1158.95,-119.73 1167.91,-116.21"/>
<polygon fill="#63b8ff" stroke="#63b8ff" points="1169.29,-119.43 1177.39,-112.59 1166.79,-112.89 1169.29,-119.43"/>
</a>
</g>
</g>
<!-- Node28 -->
<g id="Node000028" class="node">
<title>Node28</title>
<g id="a_Node000028"><a xlink:href="namespacewmtk_1_1autogen_1_1tri__mesh.html#aaab85f5120a223c29bae0881cd7f2c87" target="_top" xlink:title=" ">
<polygon fill="white" stroke="#666666" points="1260,-210 1153,-210 1153,-180 1260,-180 1260,-210"/>
<text text-anchor="start" x="1161" y="-198" font-family="Helvetica,sans-Serif" font-size="10.00">wmtk::autogen::tri</text>
<text text-anchor="middle" x="1206.5" y="-187" font-family="Helvetica,sans-Serif" font-size="10.00">_mesh::is_ccw</text>
</a>
</g>
</g>
<!-- Node27&#45;&gt;Node28 -->
<g id="edge33_Node000027_Node000028" class="edge">
<title>Node27&#45;&gt;Node28</title>
<g id="a_edge33_Node000027_Node000028"><a xlink:title=" ">
<path fill="none" stroke="#63b8ff" d="M1095.6,-195C1110.84,-195 1127.18,-195 1142.47,-195"/>
<polygon fill="#63b8ff" stroke="#63b8ff" points="1142.86,-198.5 1152.86,-195 1142.86,-191.5 1142.86,-198.5"/>
</a>
</g>
</g>
<!-- Node28&#45;&gt;Node19 -->
<g id="edge35_Node000028_Node000019" class="edge">
<title>Node28&#45;&gt;Node19</title>
<g id="a_edge35_Node000028_Node000019"><a xlink:title=" ">
<path fill="none" stroke="#63b8ff" d="M1260.05,-180.6C1272.22,-177.26 1285.35,-173.66 1298.13,-170.16"/>
<polygon fill="#63b8ff" stroke="#63b8ff" points="1299.09,-173.52 1307.81,-167.5 1297.24,-166.77 1299.09,-173.52"/>
</a>
</g>
</g>
<!-- Node28&#45;&gt;Node20 -->
<g id="edge34_Node000028_Node000020" class="edge">
<title>Node28&#45;&gt;Node20</title>
<g id="a_edge34_Node000028_Node000020"><a xlink:title=" ">
<path fill="none" stroke="#63b8ff" d="M1260.12,-195.81C1315.5,-196.65 1402.99,-197.99 1464.35,-198.93"/>
<polygon fill="#63b8ff" stroke="#63b8ff" points="1464.68,-202.43 1474.73,-199.08 1464.78,-195.43 1464.68,-202.43"/>
</a>
</g>
</g>
<!-- Node29&#45;&gt;Node20 -->
<g id="edge39_Node000029_Node000020" class="edge">
<title>Node29&#45;&gt;Node20</title>
<g id="a_edge39_Node000029_Node000020"><a xlink:title=" ">
<path fill="none" stroke="#63b8ff" d="M1105.19,-233.91C1184.65,-229.19 1316.58,-220.8 1430,-211 1441.23,-210.03 1453.12,-208.89 1464.71,-207.72"/>
<polygon fill="#63b8ff" stroke="#63b8ff" points="1465.2,-211.19 1474.79,-206.69 1464.49,-204.23 1465.2,-211.19"/>
</a>
</g>
</g>
<!-- Node30&#45;&gt;Node25 -->
<g id="edge41_Node000030_Node000025" class="edge">
<title>Node30&#45;&gt;Node25</title>
<g id="a_edge41_Node000030_Node000025"><a xlink:title=" ">
<path fill="none" stroke="#63b8ff" d="M722.75,-131.56C742.98,-135.44 766.74,-140 788.78,-144.23"/>
<polygon fill="#63b8ff" stroke="#63b8ff" points="788.29,-147.7 798.77,-146.15 789.61,-140.83 788.29,-147.7"/>
</a>
</g>
</g>
</g>
</svg>
