<?xml version="1.0" encoding="UTF-8" standalone="no"?>
<!DOCTYPE svg PUBLIC "-//W3C//DTD SVG 1.1//EN"
 "http://www.w3.org/Graphics/SVG/1.1/DTD/svg11.dtd">
<!-- Generated by graphviz version 2.43.0 (0)
 -->
<!-- Title: wmtk::operations::tri_mesh::EdgeOperationData::input_endpoints Pages: 1 -->
<!--zoomable 592 -->

<svg id="main" version="1.1" xmlns="http://www.w3.org/2000/svg" xmlns:xlink="http://www.w3.org/1999/xlink" xml:space="preserve" onload="init(evt)">
<style type="text/css"><![CDATA[
.node, .edge {opacity: 0.7;}
.node.selected, .edge.selected {opacity: 1;}
.edge:hover path { stroke: red; }
.edge:hover polygon { stroke: red; fill: red; }
]]></style>

<defs>
  <circle id="rim" cx="0" cy="0" r="7"/>
  <circle id="rim2" cx="0" cy="0" r="3.5"/>
  <g id="zoomPlus">
    <use xlink:href="#rim" fill="#404040"><set attributeName="fill" to="#808080" begin="zoomplus.mouseover" end="zoomplus.mouseout"/></use>
    <path d="M-4,0h8M0,-4v8" fill="none" stroke="white" stroke-width="1.5" pointer-events="none"/>
  </g>
  <g id="zoomMin">
    <use xlink:href="#rim" fill="#404040"><set attributeName="fill" to="#808080" begin="zoomminus.mouseover" end="zoomminus.mouseout"/></use>
    <path d="M-4,0h8" fill="none" stroke="white" stroke-width="1.5" pointer-events="none"/>
  </g>
  <g id="arrowUp" transform="translate(30 24)">
    <use xlink:href="#rim"/>
    <path pointer-events="none" fill="none" stroke="white" stroke-width="1.5" d="M0,-3.0v7 M-2.5,-0.5L0,-3.0L2.5,-0.5"/>
  </g>
  <g id="arrowRight" transform="rotate(90) translate(36 -43)">
    <use xlink:href="#rim"/>
    <path pointer-events="none" fill="none" stroke="white" stroke-width="1.5" d="M0,-3.0v7 M-2.5,-0.5L0,-3.0L2.5,-0.5"/>
  </g>
  <g id="arrowDown" transform="rotate(180) translate(-30 -48)">
    <use xlink:href="#rim"/>
    <path pointer-events="none" fill="none" stroke="white" stroke-width="1.5" d="M0,-3.0v7 M-2.5,-0.5L0,-3.0L2.5,-0.5"/>
  </g>
  <g id="arrowLeft" transform="rotate(270) translate(-36 17)">
    <use xlink:href="#rim"/>
    <path pointer-events="none" fill="none" stroke="white" stroke-width="1.5" d="M0,-3.0v7 M-2.5,-0.5L0,-3.0L2.5,-0.5"/>
  </g>
  <g id="resetDef">
    <use xlink:href="#rim2" fill="#404040"><set attributeName="fill" to="#808080" begin="reset.mouseover" end="reset.mouseout"/></use>
  </g>
</defs>
<script type="application/ecmascript">
var viewWidth = 1466;
var viewHeight = 592;
var sectionId = 'dynsection-8';
</script>
<script type="application/ecmascript" xlink:href="svg.min.js"/>
<svg id="graph" class="graph">
<g id="viewport">
<title>wmtk::operations::tri_mesh::EdgeOperationData::input_endpoints</title>
<!-- Node1 -->
<g id="Node000001" class="node">
<title>Node1</title>
<g id="a_Node000001"><a xlink:title=" ">
<polygon fill="#999999" stroke="#666666" points="150,-389.66 0,-389.66 0,-348.66 150,-348.66 150,-389.66"/>
<text text-anchor="start" x="8" y="-377.66" font-family="Helvetica,sans-Serif" font-size="10.00">wmtk::operations::tri</text>
<text text-anchor="start" x="8" y="-366.66" font-family="Helvetica,sans-Serif" font-size="10.00">_mesh::EdgeOperationData</text>
<text text-anchor="middle" x="75" y="-355.66" font-family="Helvetica,sans-Serif" font-size="10.00">::input_endpoints</text>
</a>
</g>
</g>
<!-- Node2 -->
<g id="Node000002" class="node">
<title>Node2</title>
<g id="a_Node000002"><a xlink:href="classwmtk_1_1_tri_mesh.html#a17b808a46d1a31efc12d555e6721bd02" target="_top" xlink:title="switch the orientation of the Tuple of the given dimension">
<polygon fill="white" stroke="#666666" points="311,-384.16 186,-384.16 186,-354.16 311,-354.16 311,-384.16"/>
<text text-anchor="start" x="194" y="-372.16" font-family="Helvetica,sans-Serif" font-size="10.00">wmtk::TriMesh::switch</text>
<text text-anchor="middle" x="248.5" y="-361.16" font-family="Helvetica,sans-Serif" font-size="10.00">_tuple</text>
</a>
</g>
</g>
<!-- Node1&#45;&gt;Node2 -->
<g id="edge1_Node000001_Node000002" class="edge">
<title>Node1&#45;&gt;Node2</title>
<g id="a_edge1_Node000001_Node000002"><a xlink:title=" ">
<path fill="none" stroke="#63b8ff" d="M150.22,-369.16C158.66,-369.16 167.24,-369.16 175.64,-369.16"/>
<polygon fill="#63b8ff" stroke="#63b8ff" points="175.77,-372.66 185.77,-369.16 175.77,-365.66 175.77,-372.66"/>
</a>
</g>
</g>
<!-- Node3 -->
<g id="Node000003" class="node">
<title>Node3</title>
<g id="a_Node000003"><a xlink:href="classwmtk_1_1_tri_mesh.html#a9975c25ed665c9c9a7f1ae92818a1b7c" target="_top" xlink:title=" ">
<polygon fill="white" stroke="#666666" points="645,-435.66 542,-435.66 542,-416.66 645,-416.66 645,-435.66"/>
<text text-anchor="middle" x="593.5" y="-423.66" font-family="Helvetica,sans-Serif" font-size="10.00">wmtk::TriMesh::id</text>
</a>
</g>
</g>
<!-- Node2&#45;&gt;Node3 -->
<g id="edge2_Node000002_Node000003" class="edge">
<title>Node2&#45;&gt;Node3</title>
<g id="a_edge2_Node000002_Node000003"><a xlink:title=" ">
<path fill="none" stroke="#63b8ff" d="M282.18,-384.21C300.78,-392.1 324.75,-401.14 347,-406.16 408.85,-420.12 481.42,-424.62 531.54,-425.93"/>
<polygon fill="#63b8ff" stroke="#63b8ff" points="531.49,-429.43 541.56,-426.16 531.65,-422.43 531.49,-429.43"/>
</a>
</g>
</g>
<!-- Node7 -->
<g id="Node000007" class="node">
<title>Node7</title>
<g id="a_Node000007"><a xlink:href="classwmtk_1_1_tri_mesh.html#accbde91fccacdfdfd997e20d9ee9eb22" target="_top" xlink:title="returns if a tuple is counterclockwise or not">
<polygon fill="white" stroke="#666666" points="482.5,-397.66 356.5,-397.66 356.5,-378.66 482.5,-378.66 482.5,-397.66"/>
<text text-anchor="middle" x="419.5" y="-385.66" font-family="Helvetica,sans-Serif" font-size="10.00">wmtk::TriMesh::is_ccw</text>
</a>
</g>
</g>
<!-- Node2&#45;&gt;Node7 -->
<g id="edge7_Node000002_Node000007" class="edge">
<title>Node2&#45;&gt;Node7</title>
<g id="a_edge7_Node000002_Node000007"><a xlink:title=" ">
<path fill="none" stroke="#63b8ff" d="M311.47,-376.13C322.76,-377.4 334.64,-378.73 346.2,-380.03"/>
<polygon fill="#63b8ff" stroke="#63b8ff" points="345.93,-383.52 356.26,-381.16 346.71,-376.57 345.93,-383.52"/>
</a>
</g>
</g>
<!-- Node13 -->
<g id="Node000013" class="node">
<title>Node13</title>
<g id="a_Node000013"><a xlink:href="classwmtk_1_1_tri_mesh.html#a611704f60f24669e957325c7cb79f200" target="_top" xlink:title="check validity of tuple including its hash">
<polygon fill="white" stroke="#666666" points="659,-375.66 528,-375.66 528,-356.66 659,-356.66 659,-375.66"/>
<text text-anchor="middle" x="593.5" y="-363.66" font-family="Helvetica,sans-Serif" font-size="10.00">wmtk::TriMesh::is_valid</text>
</a>
</g>
</g>
<!-- Node2&#45;&gt;Node13 -->
<g id="edge41_Node000002_Node000013" class="edge">
<title>Node2&#45;&gt;Node13</title>
<g id="a_edge41_Node000002_Node000013"><a xlink:title=" ">
<path fill="none" stroke="#63b8ff" d="M311.22,-368.62C369.13,-368.11 455.87,-367.35 517.7,-366.81"/>
<polygon fill="#63b8ff" stroke="#63b8ff" points="517.81,-370.31 527.78,-366.73 517.75,-363.31 517.81,-370.31"/>
</a>
</g>
</g>
<!-- Node31 -->
<g id="Node000031" class="node">
<title>Node31</title>
<g id="a_Node000031"><a xlink:href="namespacewmtk_1_1autogen_1_1tri__mesh.html#a91e6b348f528d93ad6d9031bae1480da" target="_top" xlink:title=" ">
<polygon fill="white" stroke="#666666" points="492,-530.16 347,-530.16 347,-500.16 492,-500.16 492,-530.16"/>
<text text-anchor="start" x="355" y="-518.16" font-family="Helvetica,sans-Serif" font-size="10.00">wmtk::autogen::tri</text>
<text text-anchor="middle" x="419.5" y="-507.16" font-family="Helvetica,sans-Serif" font-size="10.00">_mesh::local_switch_tuple</text>
</a>
</g>
</g>
<!-- Node2&#45;&gt;Node31 -->
<g id="edge42_Node000002_Node000031" class="edge">
<title>Node2&#45;&gt;Node31</title>
<g id="a_edge42_Node000002_Node000031"><a xlink:title=" ">
<path fill="none" stroke="#63b8ff" d="M266.95,-384.23C296.93,-410.14 358.34,-463.19 393.08,-493.2"/>
<polygon fill="#63b8ff" stroke="#63b8ff" points="391.04,-496.06 400.89,-499.95 395.61,-490.76 391.04,-496.06"/>
</a>
</g>
</g>
<!-- Node4 -->
<g id="Node000004" class="node">
<title>Node4</title>
<g id="a_Node000004"><a xlink:href="classwmtk_1_1_mesh.html#a8cc8686f0688613806f43720b6db49e7" target="_top" xlink:title="check validity of tuple including its hash">
<polygon fill="white" stroke="#666666" points="838.5,-435.66 718.5,-435.66 718.5,-416.66 838.5,-416.66 838.5,-435.66"/>
<text text-anchor="middle" x="778.5" y="-423.66" font-family="Helvetica,sans-Serif" font-size="10.00">wmtk::Mesh::is_valid</text>
</a>
</g>
</g>
<!-- Node3&#45;&gt;Node4 -->
<g id="edge3_Node000003_Node000004" class="edge">
<title>Node3&#45;&gt;Node4</title>
<g id="a_edge3_Node000003_Node000004"><a xlink:title=" ">
<path fill="none" stroke="#63b8ff" d="M645.48,-426.16C664.93,-426.16 687.44,-426.16 708.3,-426.16"/>
<polygon fill="#63b8ff" stroke="#63b8ff" points="708.39,-429.66 718.39,-426.16 708.39,-422.66 708.39,-429.66"/>
</a>
</g>
</g>
<!-- Node5 -->
<g id="Node000005" class="node">
<title>Node5</title>
<g id="a_Node000005"><a xlink:href="classwmtk_1_1_tuple.html#a0023f575be92cd5ceeeaaaa3762ea06d" target="_top" xlink:title="Checks if a tuple is &quot;null&quot;. This merely implies the global index is &#45;1.">
<polygon fill="white" stroke="#666666" points="1031,-506.66 918,-506.66 918,-487.66 1031,-487.66 1031,-506.66"/>
<text text-anchor="middle" x="974.5" y="-494.66" font-family="Helvetica,sans-Serif" font-size="10.00">wmtk::Tuple::is_null</text>
</a>
</g>
</g>
<!-- Node4&#45;&gt;Node5 -->
<g id="edge4_Node000004_Node000005" class="edge">
<title>Node4&#45;&gt;Node5</title>
<g id="a_edge4_Node000004_Node000005"><a xlink:title=" ">
<path fill="none" stroke="#63b8ff" d="M838.59,-434.93C846.71,-437.31 854.74,-440.33 862,-444.16 881.46,-454.44 878.7,-467.58 898,-478.16 902.15,-480.44 906.58,-482.45 911.13,-484.22"/>
<polygon fill="#63b8ff" stroke="#63b8ff" points="910.01,-487.53 920.6,-487.54 912.32,-480.93 910.01,-487.53"/>
</a>
</g>
</g>
<!-- Node6 -->
<g id="Node000006" class="node">
<title>Node6</title>
<g id="a_Node000006"><a xlink:href="classwmtk_1_1_mesh.html#ade176d345902d97af8c5da04aa3a095b" target="_top" xlink:title=" ">
<polygon fill="white" stroke="#666666" points="1044.5,-451.66 904.5,-451.66 904.5,-432.66 1044.5,-432.66 1044.5,-451.66"/>
<text text-anchor="middle" x="974.5" y="-439.66" font-family="Helvetica,sans-Serif" font-size="10.00">wmtk::Mesh::is_removed</text>
</a>
</g>
</g>
<!-- Node4&#45;&gt;Node6 -->
<g id="edge5_Node000004_Node000006" class="edge">
<title>Node4&#45;&gt;Node6</title>
<g id="a_edge5_Node000004_Node000006"><a xlink:title=" ">
<path fill="none" stroke="#63b8ff" d="M838.76,-431.05C856.25,-432.49 875.67,-434.09 894.21,-435.62"/>
<polygon fill="#63b8ff" stroke="#63b8ff" points="894.14,-439.13 904.39,-436.46 894.72,-432.15 894.14,-439.13"/>
</a>
</g>
</g>
<!-- Node6&#45;&gt;Node6 -->
<g id="edge6_Node000006_Node000006" class="edge">
<title>Node6&#45;&gt;Node6</title>
<g id="a_edge6_Node000006_Node000006"><a xlink:title=" ">
<path fill="none" stroke="#63b8ff" d="M945.52,-451.74C931.43,-460.39 941.09,-469.66 974.5,-469.66 997.47,-469.66 1009.22,-465.28 1009.73,-459.73"/>
<polygon fill="#63b8ff" stroke="#63b8ff" points="1012.4,-457.46 1003.48,-451.74 1006.89,-461.77 1012.4,-457.46"/>
</a>
</g>
</g>
<!-- Node8 -->
<g id="Node000008" class="node">
<title>Node8</title>
<g id="a_Node000008"><a xlink:href="namespacewmtk_1_1autogen_1_1tri__mesh.html#aaab85f5120a223c29bae0881cd7f2c87" target="_top" xlink:title=" ">
<polygon fill="white" stroke="#666666" points="647,-489.16 540,-489.16 540,-459.16 647,-459.16 647,-489.16"/>
<text text-anchor="start" x="548" y="-477.16" font-family="Helvetica,sans-Serif" font-size="10.00">wmtk::autogen::tri</text>
<text text-anchor="middle" x="593.5" y="-466.16" font-family="Helvetica,sans-Serif" font-size="10.00">_mesh::is_ccw</text>
</a>
</g>
</g>
<!-- Node7&#45;&gt;Node8 -->
<g id="edge8_Node000007_Node000008" class="edge">
<title>Node7&#45;&gt;Node8</title>
<g id="a_edge8_Node000007_Node000008"><a xlink:title=" ">
<path fill="none" stroke="#63b8ff" d="M438.25,-397.72C459.47,-409.07 496.1,-428.44 528,-444.16 535.09,-447.65 542.66,-451.27 550.04,-454.74"/>
<polygon fill="#63b8ff" stroke="#63b8ff" points="548.68,-457.97 559.22,-459.03 551.64,-451.63 548.68,-457.97"/>
</a>
</g>
</g>
<!-- Node7&#45;&gt;Node13 -->
<g id="edge15_Node000007_Node000013" class="edge">
<title>Node7&#45;&gt;Node13</title>
<g id="a_edge15_Node000007_Node000013"><a xlink:title=" ">
<path fill="none" stroke="#63b8ff" d="M482.6,-380.22C493.98,-378.76 505.98,-377.23 517.69,-375.73"/>
<polygon fill="#63b8ff" stroke="#63b8ff" points="518.41,-379.16 527.89,-374.42 517.52,-372.22 518.41,-379.16"/>
</a>
</g>
</g>
<!-- Node9 -->
<g id="Node000009" class="node">
<title>Node9</title>
<g id="a_Node000009"><a xlink:href="namespacewmtk_1_1autogen_1_1tri__mesh.html#a1c9b651c47ee993e160a8dca570cf35c" target="_top" xlink:title=" ">
<polygon fill="white" stroke="#666666" points="1035.5,-565.66 913.5,-565.66 913.5,-524.66 1035.5,-524.66 1035.5,-565.66"/>
<text text-anchor="start" x="921.5" y="-553.66" font-family="Helvetica,sans-Serif" font-size="10.00">wmtk::autogen::tri</text>
<text text-anchor="start" x="921.5" y="-542.66" font-family="Helvetica,sans-Serif" font-size="10.00">_mesh::local_id_table</text>
<text text-anchor="middle" x="974.5" y="-531.66" font-family="Helvetica,sans-Serif" font-size="10.00">_offset</text>
</a>
</g>
</g>
<!-- Node8&#45;&gt;Node9 -->
<g id="edge9_Node000008_Node000009" class="edge">
<title>Node8&#45;&gt;Node9</title>
<g id="a_edge9_Node000008_Node000009"><a xlink:title=" ">
<path fill="none" stroke="#63b8ff" d="M641.72,-489.17C658.43,-494.11 677.44,-499.32 695,-503.16 765.15,-518.5 846.47,-530.06 903.05,-537.13"/>
<polygon fill="#63b8ff" stroke="#63b8ff" points="902.97,-540.65 913.32,-538.4 903.83,-533.7 902.97,-540.65"/>
</a>
</g>
</g>
<!-- Node12 -->
<g id="Node000012" class="node">
<title>Node12</title>
<g id="a_Node000012"><a xlink:href="namespacewmtk_1_1autogen_1_1tri__mesh.html#a786155d6d2270c482ffd6a96d3211867" target="_top" xlink:title=" ">
<polygon fill="white" stroke="#666666" points="839.5,-494.66 717.5,-494.66 717.5,-453.66 839.5,-453.66 839.5,-494.66"/>
<text text-anchor="start" x="725.5" y="-482.66" font-family="Helvetica,sans-Serif" font-size="10.00">wmtk::autogen::tri</text>
<text text-anchor="start" x="725.5" y="-471.66" font-family="Helvetica,sans-Serif" font-size="10.00">_mesh::tuple_is_valid</text>
<text text-anchor="middle" x="778.5" y="-460.66" font-family="Helvetica,sans-Serif" font-size="10.00">_for_ccw</text>
</a>
</g>
</g>
<!-- Node8&#45;&gt;Node12 -->
<g id="edge12_Node000008_Node000012" class="edge">
<title>Node8&#45;&gt;Node12</title>
<g id="a_edge12_Node000008_Node000012"><a xlink:title=" ">
<path fill="none" stroke="#63b8ff" d="M647.43,-474.16C666.04,-474.16 687.25,-474.16 707.07,-474.16"/>
<polygon fill="#63b8ff" stroke="#63b8ff" points="707.28,-477.66 717.28,-474.16 707.28,-470.66 707.28,-477.66"/>
</a>
</g>
</g>
<!-- Node10 -->
<g id="Node000010" class="node">
<title>Node10</title>
<g id="a_Node000010"><a xlink:href="classwmtk_1_1utils_1_1_tuple_inspector.html#a3a04acf16e0eff80ade8e0fb8753ac1b" target="_top" xlink:title=" ">
<polygon fill="white" stroke="#666666" points="1237.5,-584.16 1089.5,-584.16 1089.5,-554.16 1237.5,-554.16 1237.5,-584.16"/>
<text text-anchor="start" x="1097.5" y="-572.16" font-family="Helvetica,sans-Serif" font-size="10.00">wmtk::utils::TupleInspector</text>
<text text-anchor="middle" x="1163.5" y="-561.16" font-family="Helvetica,sans-Serif" font-size="10.00">::local_eid</text>
</a>
</g>
</g>
<!-- Node9&#45;&gt;Node10 -->
<g id="edge10_Node000009_Node000010" class="edge">
<title>Node9&#45;&gt;Node10</title>
<g id="a_edge10_Node000009_Node000010"><a xlink:title=" ">
<path fill="none" stroke="#63b8ff" d="M1035.7,-552.89C1049.58,-554.67 1064.58,-556.59 1079.25,-558.48"/>
<polygon fill="#63b8ff" stroke="#63b8ff" points="1078.97,-561.97 1089.33,-559.77 1079.86,-555.02 1078.97,-561.97"/>
</a>
</g>
</g>
<!-- Node11 -->
<g id="Node000011" class="node">
<title>Node11</title>
<g id="a_Node000011"><a xlink:href="classwmtk_1_1utils_1_1_tuple_inspector.html#a92f5faa08a7f78424f5cd1ec79dcedbb" target="_top" xlink:title=" ">
<polygon fill="white" stroke="#666666" points="1237.5,-536.16 1089.5,-536.16 1089.5,-506.16 1237.5,-506.16 1237.5,-536.16"/>
<text text-anchor="start" x="1097.5" y="-524.16" font-family="Helvetica,sans-Serif" font-size="10.00">wmtk::utils::TupleInspector</text>
<text text-anchor="middle" x="1163.5" y="-513.16" font-family="Helvetica,sans-Serif" font-size="10.00">::local_vid</text>
</a>
</g>
</g>
<!-- Node9&#45;&gt;Node11 -->
<g id="edge11_Node000009_Node000011" class="edge">
<title>Node9&#45;&gt;Node11</title>
<g id="a_edge11_Node000009_Node000011"><a xlink:title=" ">
<path fill="none" stroke="#63b8ff" d="M1035.7,-537.43C1049.58,-535.65 1064.58,-533.73 1079.25,-531.84"/>
<polygon fill="#63b8ff" stroke="#63b8ff" points="1079.86,-535.3 1089.33,-530.55 1078.97,-528.35 1079.86,-535.3"/>
</a>
</g>
</g>
<!-- Node12&#45;&gt;Node5 -->
<g id="edge13_Node000012_Node000005" class="edge">
<title>Node12&#45;&gt;Node5</title>
<g id="a_edge13_Node000012_Node000005"><a xlink:title=" ">
<path fill="none" stroke="#63b8ff" d="M839.55,-481.28C861.17,-483.84 885.66,-486.75 907.74,-489.36"/>
<polygon fill="#63b8ff" stroke="#63b8ff" points="907.35,-492.84 917.7,-490.54 908.18,-485.89 907.35,-492.84"/>
</a>
</g>
</g>
<!-- Node12&#45;&gt;Node9 -->
<g id="edge14_Node000012_Node000009" class="edge">
<title>Node12&#45;&gt;Node9</title>
<g id="a_edge14_Node000012_Node000009"><a xlink:title=" ">
<path fill="none" stroke="#63b8ff" d="M835.61,-494.7C858.14,-502.94 884.26,-512.5 907.67,-521.07"/>
<polygon fill="#63b8ff" stroke="#63b8ff" points="906.58,-524.4 917.18,-524.55 908.99,-517.82 906.58,-524.4"/>
</a>
</g>
</g>
<!-- Node13&#45;&gt;Node4 -->
<g id="edge38_Node000013_Node000004" class="edge">
<title>Node13&#45;&gt;Node4</title>
<g id="a_edge38_Node000013_Node000004"><a xlink:title=" ">
<path fill="none" stroke="#63b8ff" d="M623.5,-375.67C654.59,-385.86 704.14,-402.11 738.6,-413.41"/>
<polygon fill="#63b8ff" stroke="#63b8ff" points="737.74,-416.81 748.34,-416.6 739.92,-410.16 737.74,-416.81"/>
</a>
</g>
</g>
<!-- Node13&#45;&gt;Node12 -->
<g id="edge40_Node000013_Node000012" class="edge">
<title>Node13&#45;&gt;Node12</title>
<g id="a_edge40_Node000013_Node000012"><a xlink:title=" ">
<path fill="none" stroke="#63b8ff" d="M611.94,-375.75C625.36,-383.48 644.07,-395.02 659,-407.16 676.8,-421.63 675.73,-431.7 695,-444.16 699.1,-446.81 703.47,-449.27 707.98,-451.54"/>
<polygon fill="#63b8ff" stroke="#63b8ff" points="706.83,-454.87 717.37,-455.95 709.8,-448.53 706.83,-454.87"/>
</a>
</g>
</g>
<!-- Node14 -->
<g id="Node000014" class="node">
<title>Node14</title>
<g id="a_Node000014"><a xlink:href="classwmtk_1_1_tri_mesh.html#a6375662ccb85d7c8868b3c76d708bae5" target="_top" xlink:title=" ">
<polygon fill="white" stroke="#666666" points="862,-263.16 695,-263.16 695,-233.16 862,-233.16 862,-263.16"/>
<text text-anchor="start" x="703" y="-251.16" font-family="Helvetica,sans-Serif" font-size="10.00">wmtk::TriMesh::is_connectivity</text>
<text text-anchor="middle" x="778.5" y="-240.16" font-family="Helvetica,sans-Serif" font-size="10.00">_valid</text>
</a>
</g>
</g>
<!-- Node13&#45;&gt;Node14 -->
<g id="edge16_Node000013_Node000014" class="edge">
<title>Node13&#45;&gt;Node14</title>
<g id="a_edge16_Node000013_Node000014"><a xlink:title=" ">
<path fill="none" stroke="#63b8ff" d="M609.48,-356.5C639.08,-337.42 705.66,-294.48 745.55,-268.76"/>
<polygon fill="#63b8ff" stroke="#63b8ff" points="747.6,-271.6 754.11,-263.24 743.81,-265.72 747.6,-271.6"/>
</a>
</g>
</g>
<!-- Node29 -->
<g id="Node000029" class="node">
<title>Node29</title>
<g id="a_Node000029"><a xlink:href="namespacewmtk.html#a6a35f11c12436093d26fdd8be6fecc06" target="_top" xlink:title="Retrieves the current logger.">
<polygon fill="white" stroke="#666666" points="1015,-86.66 934,-86.66 934,-67.66 1015,-67.66 1015,-86.66"/>
<text text-anchor="middle" x="974.5" y="-74.66" font-family="Helvetica,sans-Serif" font-size="10.00">wmtk::logger</text>
</a>
</g>
</g>
<!-- Node13&#45;&gt;Node29 -->
<g id="edge39_Node000013_Node000029" class="edge">
<title>Node13&#45;&gt;Node29</title>
<g id="a_edge39_Node000013_Node000029"><a xlink:title=" ">
<path fill="none" stroke="#63b8ff" d="M599.54,-356.58C612.68,-332.22 650.14,-266.84 695,-224.16 772.45,-150.48 799.54,-136.79 898,-95.16 906.21,-91.69 915.21,-88.81 924.05,-86.45"/>
<polygon fill="#63b8ff" stroke="#63b8ff" points="925.05,-89.81 933.91,-84 923.36,-83.01 925.05,-89.81"/>
</a>
</g>
</g>
<!-- Node15 -->
<g id="Node000015" class="node">
<title>Node15</title>
<g id="a_Node000015"><a xlink:href="classwmtk_1_1_mesh.html#a3e8ff83c4a5526a40d18bb9883c6c6c9" target="_top" xlink:title="read in the m_capacities return the upper bound for the number of entities of the given dimension">
<polygon fill="white" stroke="#666666" points="1225.5,-461.66 1101.5,-461.66 1101.5,-442.66 1225.5,-442.66 1225.5,-461.66"/>
<text text-anchor="middle" x="1163.5" y="-449.66" font-family="Helvetica,sans-Serif" font-size="10.00">wmtk::Mesh::capacity</text>
</a>
</g>
</g>
<!-- Node14&#45;&gt;Node15 -->
<g id="edge17_Node000014_Node000015" class="edge">
<title>Node14&#45;&gt;Node15</title>
<g id="a_edge17_Node000014_Node000015"><a xlink:title=" ">
<path fill="none" stroke="#63b8ff" d="M794.92,-263.41C816.56,-284.24 857.84,-321.89 898,-347.16 976.12,-396.3 999.9,-402.66 1087,-433.16 1094.1,-435.64 1101.67,-437.95 1109.19,-440.03"/>
<polygon fill="#63b8ff" stroke="#63b8ff" points="1108.42,-443.44 1118.98,-442.63 1110.22,-436.68 1108.42,-443.44"/>
</a>
</g>
</g>
<!-- Node17 -->
<g id="Node000017" class="node">
<title>Node17</title>
<g id="a_Node000017"><a xlink:href="classwmtk_1_1attribute_1_1_caching_accessor.html#a196b6b32e2495b971113d552be7f45d9" target="_top" xlink:title=" ">
<polygon fill="white" stroke="#666666" points="1043,-241.66 906,-241.66 906,-200.66 1043,-200.66 1043,-241.66"/>
<text text-anchor="start" x="914" y="-229.66" font-family="Helvetica,sans-Serif" font-size="10.00">wmtk::attribute::Caching</text>
<text text-anchor="start" x="914" y="-218.66" font-family="Helvetica,sans-Serif" font-size="10.00">Accessor::const_scalar</text>
<text text-anchor="middle" x="974.5" y="-207.66" font-family="Helvetica,sans-Serif" font-size="10.00">_attribute</text>
</a>
</g>
</g>
<!-- Node14&#45;&gt;Node17 -->
<g id="edge19_Node000014_Node000017" class="edge">
<title>Node14&#45;&gt;Node17</title>
<g id="a_edge19_Node000014_Node000017"><a xlink:title=" ">
<path fill="none" stroke="#63b8ff" d="M862.05,-236.67C873.27,-235.11 884.74,-233.51 895.86,-231.96"/>
<polygon fill="#63b8ff" stroke="#63b8ff" points="896.54,-235.4 905.96,-230.56 895.57,-228.47 896.54,-235.4"/>
</a>
</g>
</g>
<!-- Node18 -->
<g id="Node000018" class="node">
<title>Node18</title>
<g id="a_Node000018"><a xlink:href="classwmtk_1_1attribute_1_1_caching_accessor.html#ab850fe07669c7bc92ca6cf6e86c60ee0" target="_top" xlink:title=" ">
<polygon fill="white" stroke="#666666" points="1043,-182.66 906,-182.66 906,-141.66 1043,-141.66 1043,-182.66"/>
<text text-anchor="start" x="914" y="-170.66" font-family="Helvetica,sans-Serif" font-size="10.00">wmtk::attribute::Caching</text>
<text text-anchor="start" x="914" y="-159.66" font-family="Helvetica,sans-Serif" font-size="10.00">Accessor::const_vector</text>
<text text-anchor="middle" x="974.5" y="-148.66" font-family="Helvetica,sans-Serif" font-size="10.00">_attribute</text>
</a>
</g>
</g>
<!-- Node14&#45;&gt;Node18 -->
<g id="edge20_Node000014_Node000018" class="edge">
<title>Node14&#45;&gt;Node18</title>
<g id="a_edge20_Node000014_Node000018"><a xlink:title=" ">
<path fill="none" stroke="#63b8ff" d="M809.38,-232.95C833.16,-221.05 867.4,-204.37 898,-191.16 901.6,-189.61 905.3,-188.05 909.06,-186.5"/>
<polygon fill="#63b8ff" stroke="#63b8ff" points="910.49,-189.7 918.44,-182.71 907.86,-183.21 910.49,-189.7"/>
</a>
</g>
</g>
<!-- Node19 -->
<g id="Node000019" class="node">
<title>Node19</title>
<g id="a_Node000019"><a xlink:href="classwmtk_1_1_mesh.html#ae0e8f71e9e17a90be9423117efcc4c81" target="_top" xlink:title=" ">
<polygon fill="white" stroke="#666666" points="1035.5,-338.16 913.5,-338.16 913.5,-308.16 1035.5,-308.16 1035.5,-338.16"/>
<text text-anchor="start" x="921.5" y="-326.16" font-family="Helvetica,sans-Serif" font-size="10.00">wmtk::Mesh::get_flag</text>
<text text-anchor="middle" x="974.5" y="-315.16" font-family="Helvetica,sans-Serif" font-size="10.00">_accessor</text>
</a>
</g>
</g>
<!-- Node14&#45;&gt;Node19 -->
<g id="edge21_Node000014_Node000019" class="edge">
<title>Node14&#45;&gt;Node19</title>
<g id="a_edge21_Node000014_Node000019"><a xlink:title=" ">
<path fill="none" stroke="#63b8ff" d="M812.09,-263.22C835.7,-273.87 868.52,-288.16 898,-299.16 903.15,-301.08 908.54,-302.99 913.96,-304.84"/>
<polygon fill="#63b8ff" stroke="#63b8ff" points="913.12,-308.25 923.71,-308.1 915.34,-301.61 913.12,-308.25"/>
</a>
</g>
</g>
<!-- Node22 -->
<g id="Node000022" class="node">
<title>Node22</title>
<g id="a_Node000022"><a xlink:href="classwmtk_1_1attribute_1_1_accessor.html#a2d587e12c47a6d839ab80e9198cf75b5" target="_top" xlink:title=" ">
<polygon fill="white" stroke="#666666" points="1045.5,-290.16 903.5,-290.16 903.5,-260.16 1045.5,-260.16 1045.5,-290.16"/>
<text text-anchor="start" x="911.5" y="-278.16" font-family="Helvetica,sans-Serif" font-size="10.00">wmtk::attribute::Accessor</text>
<text text-anchor="middle" x="974.5" y="-267.16" font-family="Helvetica,sans-Serif" font-size="10.00">::index_access</text>
</a>
</g>
</g>
<!-- Node14&#45;&gt;Node22 -->
<g id="edge25_Node000014_Node000022" class="edge">
<title>Node14&#45;&gt;Node22</title>
<g id="a_edge25_Node000014_Node000022"><a xlink:title=" ">
<path fill="none" stroke="#63b8ff" d="M862.05,-259.65C872.34,-261.08 882.85,-262.54 893.1,-263.97"/>
<polygon fill="#63b8ff" stroke="#63b8ff" points="892.87,-267.47 903.26,-265.38 893.83,-260.54 892.87,-267.47"/>
</a>
</g>
</g>
<!-- Node24 -->
<g id="Node000024" class="node">
<title>Node24</title>
<g id="a_Node000024"><a xlink:href="classwmtk_1_1_tri_mesh.html#a2e568aaaffd6e68904c5cecd8256ed93" target="_top" xlink:title="returns if a simplex is on the boundary of hte mesh. For anything but dimension &#45; 1 this checks if th...">
<polygon fill="white" stroke="#666666" points="1051,-123.66 898,-123.66 898,-104.66 1051,-104.66 1051,-123.66"/>
<text text-anchor="middle" x="974.5" y="-111.66" font-family="Helvetica,sans-Serif" font-size="10.00">wmtk::TriMesh::is_boundary</text>
</a>
</g>
</g>
<!-- Node14&#45;&gt;Node24 -->
<g id="edge27_Node000014_Node000024" class="edge">
<title>Node14&#45;&gt;Node24</title>
<g id="a_edge27_Node000014_Node000024"><a xlink:title=" ">
<path fill="none" stroke="#63b8ff" d="M795.79,-232.89C812.55,-217.09 839.33,-191.65 862,-169.16 878.29,-153 878.05,-143.49 898,-132.16 901.08,-130.41 904.33,-128.83 907.67,-127.4"/>
<polygon fill="#63b8ff" stroke="#63b8ff" points="909.17,-130.58 917.29,-123.77 906.7,-124.03 909.17,-130.58"/>
</a>
</g>
</g>
<!-- Node14&#45;&gt;Node29 -->
<g id="edge36_Node000014_Node000029" class="edge">
<title>Node14&#45;&gt;Node29</title>
<g id="a_edge36_Node000014_Node000029"><a xlink:title=" ">
<path fill="none" stroke="#63b8ff" d="M798.74,-233.14C816.79,-218.33 843.66,-194.32 862,-169.16 883.55,-139.61 869.47,-118.04 898,-95.16 905.49,-89.15 914.66,-85.09 923.99,-82.37"/>
<polygon fill="#63b8ff" stroke="#63b8ff" points="924.84,-85.76 933.71,-79.98 923.17,-78.97 924.84,-85.76"/>
</a>
</g>
</g>
<!-- Node16 -->
<g id="Node000016" class="node">
<title>Node16</title>
<g id="a_Node000016"><a xlink:href="namespacewmtk.html#a5cf45c152e856196bb734c6f48919a24" target="_top" xlink:title="Get a unique integer id corresponding to each primitive type.">
<polygon fill="white" stroke="#666666" points="1425,-467.16 1309,-467.16 1309,-437.16 1425,-437.16 1425,-467.16"/>
<text text-anchor="start" x="1317" y="-455.16" font-family="Helvetica,sans-Serif" font-size="10.00">wmtk::get_primitive</text>
<text text-anchor="middle" x="1367" y="-444.16" font-family="Helvetica,sans-Serif" font-size="10.00">_type_id</text>
</a>
</g>
</g>
<!-- Node15&#45;&gt;Node16 -->
<g id="edge18_Node000015_Node000016" class="edge">
<title>Node15&#45;&gt;Node16</title>
<g id="a_edge18_Node000015_Node000016"><a xlink:title=" ">
<path fill="none" stroke="#63b8ff" d="M1225.5,-452.16C1248.61,-452.16 1275.04,-452.16 1298.69,-452.16"/>
<polygon fill="#63b8ff" stroke="#63b8ff" points="1298.99,-455.66 1308.99,-452.16 1298.99,-448.66 1298.99,-455.66"/>
</a>
</g>
</g>
<!-- Node20 -->
<g id="Node000020" class="node">
<title>Node20</title>
<g id="a_Node000020"><a xlink:href="classwmtk_1_1_mesh.html#a6dbab927a2ee85f77a87f075fd5c1d94" target="_top" xlink:title=" ">
<polygon fill="white" stroke="#666666" points="1228.5,-424.16 1098.5,-424.16 1098.5,-394.16 1228.5,-394.16 1228.5,-424.16"/>
<text text-anchor="start" x="1106.5" y="-412.16" font-family="Helvetica,sans-Serif" font-size="10.00">wmtk::Mesh::get_const</text>
<text text-anchor="middle" x="1163.5" y="-401.16" font-family="Helvetica,sans-Serif" font-size="10.00">_flag_accessor</text>
</a>
</g>
</g>
<!-- Node19&#45;&gt;Node20 -->
<g id="edge22_Node000019_Node000020" class="edge">
<title>Node19&#45;&gt;Node20</title>
<g id="a_edge22_Node000019_Node000020"><a xlink:title=" ">
<path fill="none" stroke="#63b8ff" d="M1008.5,-338.34C1039.75,-352.71 1086.78,-374.34 1120.65,-389.91"/>
<polygon fill="#63b8ff" stroke="#63b8ff" points="1119.28,-393.14 1129.83,-394.13 1122.21,-386.78 1119.28,-393.14"/>
</a>
</g>
</g>
<!-- Node20&#45;&gt;Node16 -->
<g id="edge24_Node000020_Node000016" class="edge">
<title>Node20&#45;&gt;Node16</title>
<g id="a_edge24_Node000020_Node000016"><a xlink:title=" ">
<path fill="none" stroke="#63b8ff" d="M1228.53,-422.82C1251.02,-427.62 1276.33,-433.02 1299.05,-437.87"/>
<polygon fill="#63b8ff" stroke="#63b8ff" points="1298.44,-441.32 1308.95,-439.98 1299.9,-434.47 1298.44,-441.32"/>
</a>
</g>
</g>
<!-- Node21 -->
<g id="Node000021" class="node">
<title>Node21</title>
<g id="a_Node000021"><a xlink:href="classwmtk_1_1_mesh.html#a357182137d99f1e4a7ff536eadfc0e56" target="_top" xlink:title=" ">
<polygon fill="white" stroke="#666666" points="1423.5,-419.16 1310.5,-419.16 1310.5,-389.16 1423.5,-389.16 1423.5,-419.16"/>
<text text-anchor="start" x="1318.5" y="-407.16" font-family="Helvetica,sans-Serif" font-size="10.00">wmtk::Mesh::create</text>
<text text-anchor="middle" x="1367" y="-396.16" font-family="Helvetica,sans-Serif" font-size="10.00">_const_accessor</text>
</a>
</g>
</g>
<!-- Node20&#45;&gt;Node21 -->
<g id="edge23_Node000020_Node000021" class="edge">
<title>Node20&#45;&gt;Node21</title>
<g id="a_edge23_Node000020_Node000021"><a xlink:title=" ">
<path fill="none" stroke="#63b8ff" d="M1228.53,-407.57C1251.42,-407 1277.24,-406.36 1300.27,-405.79"/>
<polygon fill="#63b8ff" stroke="#63b8ff" points="1300.38,-409.29 1310.29,-405.54 1300.2,-402.29 1300.38,-409.29"/>
</a>
</g>
</g>
<!-- Node23 -->
<g id="Node000023" class="node">
<title>Node23</title>
<g id="a_Node000023"><a xlink:href="classwmtk_1_1attribute_1_1_accessor.html#afd97a48ec5d1db975a030428df81f617" target="_top" xlink:title=" ">
<polygon fill="white" stroke="#666666" points="1234.5,-290.16 1092.5,-290.16 1092.5,-260.16 1234.5,-260.16 1234.5,-290.16"/>
<text text-anchor="start" x="1100.5" y="-278.16" font-family="Helvetica,sans-Serif" font-size="10.00">wmtk::attribute::Accessor</text>
<text text-anchor="middle" x="1163.5" y="-267.16" font-family="Helvetica,sans-Serif" font-size="10.00">::caching_base_type</text>
</a>
</g>
</g>
<!-- Node22&#45;&gt;Node23 -->
<g id="edge26_Node000022_Node000023" class="edge">
<title>Node22&#45;&gt;Node23</title>
<g id="a_edge26_Node000022_Node000023"><a xlink:title=" ">
<path fill="none" stroke="#63b8ff" d="M1045.66,-275.16C1057.57,-275.16 1070.01,-275.16 1082.15,-275.16"/>
<polygon fill="#63b8ff" stroke="#63b8ff" points="1082.25,-278.66 1092.25,-275.16 1082.25,-271.66 1082.25,-278.66"/>
</a>
</g>
</g>
<!-- Node25 -->
<g id="Node000025" class="node">
<title>Node25</title>
<g id="a_Node000025"><a xlink:href="classwmtk_1_1_tri_mesh.html#ac603f7969b10c674eb00e007a507a530" target="_top" xlink:title=" ">
<polygon fill="white" stroke="#666666" points="1458,-172.66 1276,-172.66 1276,-153.66 1458,-153.66 1458,-172.66"/>
<text text-anchor="middle" x="1367" y="-160.66" font-family="Helvetica,sans-Serif" font-size="10.00">wmtk::TriMesh::is_boundary_edge</text>
</a>
</g>
</g>
<!-- Node24&#45;&gt;Node25 -->
<g id="edge28_Node000024_Node000025" class="edge">
<title>Node24&#45;&gt;Node25</title>
<g id="a_edge28_Node000024_Node000025"><a xlink:title=" ">
<path fill="none" stroke="#63b8ff" d="M1018.39,-123.7C1029.09,-126.26 1040.5,-129.17 1051,-132.16 1067.22,-136.79 1070.45,-140.89 1087,-144.16 1145.51,-155.71 1212.1,-160.55 1265.55,-162.46"/>
<polygon fill="#63b8ff" stroke="#63b8ff" points="1265.61,-165.96 1275.72,-162.79 1265.84,-158.97 1265.61,-165.96"/>
</a>
</g>
</g>
<!-- Node26 -->
<g id="Node000026" class="node">
<title>Node26</title>
<g id="a_Node000026"><a xlink:href="classwmtk_1_1_tri_mesh.html#a1d5d124897281d6a649098213173fdb5" target="_top" xlink:title=" ">
<polygon fill="white" stroke="#666666" points="1240,-135.16 1087,-135.16 1087,-105.16 1240,-105.16 1240,-135.16"/>
<text text-anchor="start" x="1095" y="-123.16" font-family="Helvetica,sans-Serif" font-size="10.00">wmtk::TriMesh::is_boundary</text>
<text text-anchor="middle" x="1163.5" y="-112.16" font-family="Helvetica,sans-Serif" font-size="10.00">_vertex</text>
</a>
</g>
</g>
<!-- Node24&#45;&gt;Node26 -->
<g id="edge30_Node000024_Node000026" class="edge">
<title>Node24&#45;&gt;Node26</title>
<g id="a_edge30_Node000024_Node000026"><a xlink:title=" ">
<path fill="none" stroke="#63b8ff" d="M1051.02,-116.58C1059.47,-116.85 1068.13,-117.13 1076.7,-117.41"/>
<polygon fill="#63b8ff" stroke="#63b8ff" points="1076.59,-120.9 1086.7,-117.73 1076.81,-113.91 1076.59,-120.9"/>
</a>
</g>
</g>
<!-- Node25&#45;&gt;Node13 -->
<g id="edge29_Node000025_Node000013" class="edge">
<title>Node25&#45;&gt;Node13</title>
<g id="a_edge29_Node000025_Node000013"><a xlink:title=" ">
<path fill="none" stroke="#63b8ff" d="M1359.98,-172.82C1343.85,-197.87 1297,-265.29 1240,-299.16 1056.29,-408.32 790.47,-392.51 665.05,-376.98"/>
<polygon fill="#63b8ff" stroke="#63b8ff" points="665.17,-373.47 654.81,-375.68 664.29,-380.41 665.17,-373.47"/>
</a>
</g>
</g>
<!-- Node26&#45;&gt;Node25 -->
<g id="edge31_Node000026_Node000025" class="edge">
<title>Node26&#45;&gt;Node25</title>
<g id="a_edge31_Node000026_Node000025"><a xlink:title=" ">
<path fill="none" stroke="#63b8ff" d="M1234.97,-135.2C1260.1,-140.56 1287.99,-146.51 1311.56,-151.54"/>
<polygon fill="#63b8ff" stroke="#63b8ff" points="1310.87,-154.97 1321.38,-153.64 1312.33,-148.13 1310.87,-154.97"/>
</a>
</g>
</g>
<!-- Node27 -->
<g id="Node000027" class="node">
<title>Node27</title>
<g id="a_Node000027"><a xlink:href="classwmtk_1_1_tri_mesh.html#a79010f8baac63245558c846aafea10d0" target="_top" xlink:title=" ">
<polygon fill="white" stroke="#666666" points="1444.5,-88.66 1289.5,-88.66 1289.5,-69.66 1444.5,-69.66 1444.5,-88.66"/>
<text text-anchor="middle" x="1367" y="-76.66" font-family="Helvetica,sans-Serif" font-size="10.00">wmtk::TriMesh::switch_edge</text>
</a>
</g>
</g>
<!-- Node26&#45;&gt;Node27 -->
<g id="edge32_Node000026_Node000027" class="edge">
<title>Node26&#45;&gt;Node27</title>
<g id="a_edge32_Node000026_Node000027"><a xlink:title=" ">
<path fill="none" stroke="#63b8ff" d="M1238.39,-105.13C1261.76,-100.37 1287.22,-95.19 1309.21,-90.72"/>
<polygon fill="#63b8ff" stroke="#63b8ff" points="1309.94,-94.14 1319.04,-88.71 1308.55,-87.28 1309.94,-94.14"/>
</a>
</g>
</g>
<!-- Node28 -->
<g id="Node000028" class="node">
<title>Node28</title>
<g id="a_Node000028"><a xlink:href="classwmtk_1_1_tri_mesh.html#a0ecb0fd199e840ff9f3d206abc10a64b" target="_top" xlink:title=" ">
<polygon fill="white" stroke="#666666" points="1443,-51.66 1291,-51.66 1291,-32.66 1443,-32.66 1443,-51.66"/>
<text text-anchor="middle" x="1367" y="-39.66" font-family="Helvetica,sans-Serif" font-size="10.00">wmtk::TriMesh::switch_face</text>
</a>
</g>
</g>
<!-- Node26&#45;&gt;Node28 -->
<g id="edge34_Node000026_Node000028" class="edge">
<title>Node26&#45;&gt;Node28</title>
<g id="a_edge34_Node000026_Node000028"><a xlink:title=" ">
<path fill="none" stroke="#63b8ff" d="M1219.83,-105.09C1226.84,-102.25 1233.74,-98.96 1240,-95.16 1259.08,-83.58 1256.25,-70.55 1276,-60.16 1279.55,-58.29 1283.27,-56.62 1287.09,-55.12"/>
<polygon fill="#63b8ff" stroke="#63b8ff" points="1288.48,-58.34 1296.77,-51.73 1286.17,-51.73 1288.48,-58.34"/>
</a>
</g>
</g>
<!-- Node27&#45;&gt;Node2 -->
<g id="edge33_Node000027_Node000002" class="edge">
<title>Node27&#45;&gt;Node2</title>
<g id="a_edge33_Node000027_Node000002"><a xlink:title=" ">
<path fill="none" stroke="#63b8ff" d="M1315.57,-69.65C1292.59,-65.6 1264.99,-61.13 1240,-58.16 1122.97,-44.23 1093.36,-39.16 975.5,-39.16 592.5,-39.16 592.5,-39.16 592.5,-39.16 416.14,-39.16 295.45,-268.51 260.17,-344.81"/>
<polygon fill="#63b8ff" stroke="#63b8ff" points="256.89,-343.57 255.94,-354.12 263.27,-346.47 256.89,-343.57"/>
</a>
</g>
</g>
<!-- Node28&#45;&gt;Node2 -->
<g id="edge35_Node000028_Node000002" class="edge">
<title>Node28&#45;&gt;Node2</title>
<g id="a_edge35_Node000028_Node000002"><a xlink:title=" ">
<path fill="none" stroke="#63b8ff" d="M1310.58,-32.65C1235.06,-20.54 1095.48,-1.16 975.5,-1.16 592.5,-1.16 592.5,-1.16 592.5,-1.16 479.85,-1.16 428.94,13.14 347,-64.16 265.71,-140.85 251.96,-285.19 249.81,-343.63"/>
<polygon fill="#63b8ff" stroke="#63b8ff" points="246.31,-343.72 249.52,-353.82 253.3,-343.92 246.31,-343.72"/>
</a>
</g>
</g>
<!-- Node30 -->
<g id="Node000030" class="node">
<title>Node30</title>
<g id="a_Node000030"><a xlink:href="namespacewmtk.html#a3daa7951a5f8b78cf4600dc047fcc180" target="_top" xlink:title="Setup a logger object to be used by WildmeshToolkit.">
<polygon fill="white" stroke="#666666" points="1214,-86.66 1113,-86.66 1113,-67.66 1214,-67.66 1214,-86.66"/>
<text text-anchor="middle" x="1163.5" y="-74.66" font-family="Helvetica,sans-Serif" font-size="10.00">wmtk::set_logger</text>
</a>
</g>
</g>
<!-- Node29&#45;&gt;Node30 -->
<g id="edge37_Node000029_Node000030" class="edge">
<title>Node29&#45;&gt;Node30</title>
<g id="a_edge37_Node000029_Node000030"><a xlink:title=" ">
<path fill="none" stroke="#63b8ff" d="M1015.16,-77.16C1040.56,-77.16 1074,-77.16 1102.6,-77.16"/>
<polygon fill="#63b8ff" stroke="#63b8ff" points="1102.89,-80.66 1112.89,-77.16 1102.89,-73.66 1102.89,-80.66"/>
</a>
</g>
</g>
<!-- Node31&#45;&gt;Node9 -->
<g id="edge43_Node000031_Node000009" class="edge">
<title>Node31&#45;&gt;Node9</title>
<g id="a_edge43_Node000031_Node000009"><a xlink:title=" ">
<path fill="none" stroke="#63b8ff" d="M492.15,-519.9C547.53,-523.48 626.11,-528.42 695,-532.16 765.87,-536.01 846.92,-539.71 903.24,-542.18"/>
<polygon fill="#63b8ff" stroke="#63b8ff" points="903.31,-545.68 913.46,-542.62 903.62,-538.69 903.31,-545.68"/>
</a>
</g>
</g>
</g>
</svg>

<g id="navigator" transform="translate(0 0)" fill="#404254">
  <rect fill="#f2f5e9" fill-opacity="0.5" stroke="#606060" stroke-width=".5" x="0" y="0" width="60" height="60"/>
  <use id="zoomplus" xlink:href="#zoomPlus" x="17" y="9" onmousedown="handleZoom(evt,'in')"/>
  <use id="zoomminus" xlink:href="#zoomMin" x="42" y="9" onmousedown="handleZoom(evt,'out')"/>
  <use id="reset" xlink:href="#resetDef" x="30" y="36" onmousedown="handleReset()"/>
   <use id="arrowup" xlink:href="#arrowUp" x="0" y="0" onmousedown="handlePan(0,-1)"/>
  <use id="arrowright" xlink:href="#arrowRight" x="0" y="0" onmousedown="handlePan(1,0)"/>
  <use id="arrowdown" xlink:href="#arrowDown" x="0" y="0" onmousedown="handlePan(0,1)"/>
  <use id="arrowleft" xlink:href="#arrowLeft" x="0" y="0" onmousedown="handlePan(-1,0)"/>
</g>
<svg viewBox="0 0 15 15" width="100%" height="30px" preserveAspectRatio="xMaxYMin meet">
 <g id="arrow_out" transform="scale(0.3 0.3)">
  <a xlink:href="classwmtk_1_1operations_1_1tri__mesh_1_1_edge_operation_data_abde449107fdbb8d53b331d0071109a33_cgraph_org.svg" target="_base">
   <rect id="button" ry="5" rx="5" y="6" x="6" height="38" width="38"
        fill="#f2f5e9" fill-opacity="0.5" stroke="#606060" stroke-width="1.0"/>
   <path id="arrow"
     d="M 11.500037,31.436501 C 11.940474,20.09759 22.043105,11.32322 32.158766,21.979434 L 37.068811,17.246167 C 37.068811,17.246167 37.088388,32 37.088388,32 L 22.160133,31.978069 C 22.160133,31.978069 26.997745,27.140456 26.997745,27.140456 C 18.528582,18.264221 13.291696,25.230495 11.500037,31.436501 z"
     style="fill:#404040;"/>
  </a>
 </g>
</svg>

<style type='text/css'>
<![CDATA[
[data-mouse-over-selected='false'] { opacity: 0.7; }
[data-mouse-over-selected='true']  { opacity: 1.0; }
]]>
</style>
<script type="application/ecmascript"><![CDATA[
document.addEventListener('DOMContentLoaded', (event) => {
  highlightEdges();
  highlightAdjacentNodes();
});
]]></script>
</svg>
