<?xml version="1.0" encoding="UTF-8" standalone="no"?>
<!DOCTYPE svg PUBLIC "-//W3C//DTD SVG 1.1//EN"
 "http://www.w3.org/Graphics/SVG/1.1/DTD/svg11.dtd">
<!-- Generated by graphviz version 2.43.0 (0)
 -->
<!-- Title: wmtk::Mesh::reserve_attributes_to_fit Pages: 1 -->
<svg width="1018pt" height="357pt"
 viewBox="0.00 0.00 1018.00 357.00" xmlns="http://www.w3.org/2000/svg" xmlns:xlink="http://www.w3.org/1999/xlink">
<g id="graph0" class="graph" transform="scale(1 1) rotate(0) translate(4 353)">
<title>wmtk::Mesh::reserve_attributes_to_fit</title>
<!-- Node1 -->
<g id="Node000001" class="node">
<title>Node1</title>
<g id="a_Node000001"><a xlink:title="reserve space for all attributes data types for all dimensional simplices">
<polygon fill="#999999" stroke="#666666" points="1010,-160 891,-160 891,-130 1010,-130 1010,-160"/>
<text text-anchor="start" x="899" y="-148" font-family="Helvetica,sans-Serif" font-size="10.00">wmtk::Mesh::reserve</text>
<text text-anchor="middle" x="950.5" y="-137" font-family="Helvetica,sans-Serif" font-size="10.00">_attributes_to_fit</text>
</a>
</g>
</g>
<!-- Node2 -->
<g id="Node000002" class="node">
<title>Node2</title>
<g id="a_Node000002"><a xlink:href="classwmtk_1_1_point_mesh.html#af2a8d977bbf881485efb9843f5348918" target="_top" xlink:title=" ">
<polygon fill="white" stroke="#666666" points="855,-154.5 706,-154.5 706,-135.5 855,-135.5 855,-154.5"/>
<text text-anchor="middle" x="780.5" y="-142.5" font-family="Helvetica,sans-Serif" font-size="10.00">wmtk::PointMesh::initialize</text>
</a>
</g>
</g>
<!-- Node1&#45;&gt;Node2 -->
<g id="edge1_Node000001_Node000002" class="edge">
<title>Node1&#45;&gt;Node2</title>
<g id="a_edge1_Node000001_Node000002"><a xlink:title=" ">
<path fill="none" stroke="#63b8ff" d="M880.66,-145C872.3,-145 863.72,-145 855.29,-145"/>
<polygon fill="#63b8ff" stroke="#63b8ff" points="880.74,-148.5 890.74,-145 880.74,-141.5 880.74,-148.5"/>
</a>
</g>
</g>
<!-- Node3 -->
<g id="Node000003" class="node">
<title>Node3</title>
<g id="a_Node000003"><a xlink:href="classwmtk_1_1components_1_1internal_1_1_multi_mesh_from_tag.html#a96647e9413f2b7e13dd17f02cf29b12d" target="_top" xlink:title="Create a manifold mesh from the substructure.">
<polygon fill="white" stroke="#666666" points="476,-189.5 312,-189.5 312,-148.5 476,-148.5 476,-189.5"/>
<text text-anchor="start" x="320" y="-177.5" font-family="Helvetica,sans-Serif" font-size="10.00">wmtk::components::internal</text>
<text text-anchor="start" x="320" y="-166.5" font-family="Helvetica,sans-Serif" font-size="10.00">::MultiMeshFromTag::compute</text>
<text text-anchor="middle" x="394" y="-155.5" font-family="Helvetica,sans-Serif" font-size="10.00">_substructure_mesh</text>
</a>
</g>
</g>
<!-- Node2&#45;&gt;Node3 -->
<g id="edge2_Node000002_Node000003" class="edge">
<title>Node2&#45;&gt;Node3</title>
<g id="a_edge2_Node000002_Node000003"><a xlink:title=" ">
<path fill="none" stroke="#63b8ff" d="M741.78,-157.58C720.89,-163.88 694.3,-170.84 670,-174 605.25,-182.43 531.2,-180.43 476.27,-176.73"/>
<polygon fill="#63b8ff" stroke="#63b8ff" points="743.02,-160.85 751.54,-154.55 740.95,-154.17 743.02,-160.85"/>
</a>
</g>
</g>
<!-- Node14 -->
<g id="Node000014" class="node">
<title>Node14</title>
<g id="a_Node000014"><a xlink:href="classwmtk_1_1components_1_1internal_1_1_multi_mesh_from_tag.html#ad18667b876fc81c8cfb79a408d632b25" target="_top" xlink:title="Create a multimesh where the child&#45;mesh is just a soup (no connectivity) of m_mesh.">
<polygon fill="white" stroke="#666666" points="668,-165.5 514,-165.5 514,-124.5 668,-124.5 668,-165.5"/>
<text text-anchor="start" x="522" y="-153.5" font-family="Helvetica,sans-Serif" font-size="10.00">wmtk::components::internal</text>
<text text-anchor="start" x="522" y="-142.5" font-family="Helvetica,sans-Serif" font-size="10.00">::MultiMeshFromTag::create</text>
<text text-anchor="middle" x="591" y="-131.5" font-family="Helvetica,sans-Serif" font-size="10.00">_substructure_soup</text>
</a>
</g>
</g>
<!-- Node2&#45;&gt;Node14 -->
<g id="edge13_Node000002_Node000014" class="edge">
<title>Node2&#45;&gt;Node14</title>
<g id="a_edge13_Node000002_Node000014"><a xlink:title=" ">
<path fill="none" stroke="#63b8ff" d="M695.66,-145C686.49,-145 677.2,-145 668.13,-145"/>
<polygon fill="#63b8ff" stroke="#63b8ff" points="695.93,-148.5 705.93,-145 695.93,-141.5 695.93,-148.5"/>
</a>
</g>
</g>
<!-- Node15 -->
<g id="Node000015" class="node">
<title>Node15</title>
<g id="a_Node000015"><a xlink:href="classwmtk_1_1_point_mesh.html#a9323586140fbd128b9d52c3d6a6ccae8" target="_top" xlink:title=" ">
<polygon fill="white" stroke="#666666" points="670,-106.5 512,-106.5 512,-87.5 670,-87.5 670,-106.5"/>
<text text-anchor="middle" x="591" y="-94.5" font-family="Helvetica,sans-Serif" font-size="10.00">wmtk::PointMesh::PointMesh</text>
</a>
</g>
</g>
<!-- Node2&#45;&gt;Node15 -->
<g id="edge15_Node000002_Node000015" class="edge">
<title>Node2&#45;&gt;Node15</title>
<g id="a_edge15_Node000002_Node000015"><a xlink:title=" ">
<path fill="none" stroke="#63b8ff" d="M736.25,-132.71C716.15,-127.12 691.91,-120.53 670,-115 658.68,-112.14 646.39,-109.23 634.99,-106.59"/>
<polygon fill="#63b8ff" stroke="#63b8ff" points="735.47,-136.13 746.05,-135.46 737.36,-129.39 735.47,-136.13"/>
</a>
</g>
</g>
<!-- Node4 -->
<g id="Node000004" class="node">
<title>Node4</title>
<g id="a_Node000004"><a xlink:href="namespacewmtk_1_1components.html#ac309092566399cef68679a1bb8107d1e" target="_top" xlink:title="Generate a multi&#45;mesh from a mesh with a tag that represents the substructure, the mesh is changed.">
<polygon fill="white" stroke="#666666" points="276,-349 107,-349 107,-319 276,-319 276,-349"/>
<text text-anchor="start" x="115" y="-337" font-family="Helvetica,sans-Serif" font-size="10.00">wmtk::components::multimesh</text>
<text text-anchor="middle" x="191.5" y="-326" font-family="Helvetica,sans-Serif" font-size="10.00">_from_tag</text>
</a>
</g>
</g>
<!-- Node3&#45;&gt;Node4 -->
<g id="edge3_Node000003_Node000004" class="edge">
<title>Node3&#45;&gt;Node4</title>
<g id="a_edge3_Node000003_Node000004"><a xlink:title=" ">
<path fill="none" stroke="#63b8ff" d="M376.05,-198.52C356.12,-230.61 320.1,-281.17 276,-310 270.7,-313.47 264.89,-316.44 258.88,-318.99"/>
<polygon fill="#63b8ff" stroke="#63b8ff" points="379.27,-199.96 381.47,-189.59 373.29,-196.32 379.27,-199.96"/>
</a>
</g>
</g>
<!-- Node6 -->
<g id="Node000006" class="node">
<title>Node6</title>
<g id="a_Node000006"><a xlink:href="namespacewmtk_1_1components.html#a4166e4880553cfacbf79ac3515a637cd" target="_top" xlink:title=" ">
<polygon fill="white" stroke="#666666" points="269,-301 114,-301 114,-271 269,-271 269,-301"/>
<text text-anchor="start" x="122" y="-289" font-family="Helvetica,sans-Serif" font-size="10.00">wmtk::components::periodic</text>
<text text-anchor="middle" x="191.5" y="-278" font-family="Helvetica,sans-Serif" font-size="10.00">_optimization</text>
</a>
</g>
</g>
<!-- Node3&#45;&gt;Node6 -->
<g id="edge5_Node000003_Node000006" class="edge">
<title>Node3&#45;&gt;Node6</title>
<g id="a_edge5_Node000003_Node000006"><a xlink:title=" ">
<path fill="none" stroke="#63b8ff" d="M364.39,-196.57C341.93,-216.89 309.03,-243.86 276,-261 268.75,-264.76 260.84,-268.05 252.87,-270.9"/>
<polygon fill="#63b8ff" stroke="#63b8ff" points="366.88,-199.03 371.88,-189.69 362.15,-193.88 366.88,-199.03"/>
</a>
</g>
</g>
<!-- Node7 -->
<g id="Node000007" class="node">
<title>Node7</title>
<g id="a_Node000007"><a xlink:href="test__component__multimesh__from__tag_8cpp.html#a2231774bf0d53fb5f6c1b34753afb255" target="_top" xlink:title=" ">
<polygon fill="white" stroke="#666666" points="227,-252.5 156,-252.5 156,-233.5 227,-233.5 227,-252.5"/>
<text text-anchor="middle" x="191.5" y="-240.5" font-family="Helvetica,sans-Serif" font-size="10.00">TEST_CASE</text>
</a>
</g>
</g>
<!-- Node3&#45;&gt;Node7 -->
<g id="edge6_Node000003_Node000007" class="edge">
<title>Node3&#45;&gt;Node7</title>
<g id="a_edge6_Node000003_Node000007"><a xlink:title=" ">
<path fill="none" stroke="#63b8ff" d="M345.62,-194.12C324.71,-204.46 299.57,-215.88 276,-224 260.26,-229.42 242.31,-233.73 227.09,-236.87"/>
<polygon fill="#63b8ff" stroke="#63b8ff" points="347.24,-197.23 354.61,-189.62 344.1,-190.97 347.24,-197.23"/>
</a>
</g>
</g>
<!-- Node8 -->
<g id="Node000008" class="node">
<title>Node8</title>
<g id="a_Node000008"><a xlink:href="test__component__multimesh__from__tag_8cpp.html#a9a31cb828b93e2ddcf0a5063d4d1c9e6" target="_top" xlink:title=" ">
<polygon fill="white" stroke="#666666" points="227,-215.5 156,-215.5 156,-196.5 227,-196.5 227,-215.5"/>
<text text-anchor="middle" x="191.5" y="-203.5" font-family="Helvetica,sans-Serif" font-size="10.00">TEST_CASE</text>
</a>
</g>
</g>
<!-- Node3&#45;&gt;Node8 -->
<g id="edge7_Node000003_Node000008" class="edge">
<title>Node3&#45;&gt;Node8</title>
<g id="a_edge7_Node000003_Node000008"><a xlink:title=" ">
<path fill="none" stroke="#63b8ff" d="M301.63,-185.86C275.11,-190.75 247.76,-195.8 227.07,-199.62"/>
<polygon fill="#63b8ff" stroke="#63b8ff" points="302.54,-189.25 311.74,-184 301.27,-182.37 302.54,-189.25"/>
</a>
</g>
</g>
<!-- Node9 -->
<g id="Node000009" class="node">
<title>Node9</title>
<g id="a_Node000009"><a xlink:href="test__component__multimesh__from__tag_8cpp.html#a7a8f66a094907f369fa10876691f42f9" target="_top" xlink:title=" ">
<polygon fill="white" stroke="#666666" points="227,-178.5 156,-178.5 156,-159.5 227,-159.5 227,-178.5"/>
<text text-anchor="middle" x="191.5" y="-166.5" font-family="Helvetica,sans-Serif" font-size="10.00">TEST_CASE</text>
</a>
</g>
</g>
<!-- Node3&#45;&gt;Node9 -->
<g id="edge8_Node000003_Node000009" class="edge">
<title>Node3&#45;&gt;Node9</title>
<g id="a_edge8_Node000003_Node000009"><a xlink:title=" ">
<path fill="none" stroke="#63b8ff" d="M301.63,-169C275.11,-169 247.76,-169 227.07,-169"/>
<polygon fill="#63b8ff" stroke="#63b8ff" points="301.74,-172.5 311.74,-169 301.74,-165.5 301.74,-172.5"/>
</a>
</g>
</g>
<!-- Node10 -->
<g id="Node000010" class="node">
<title>Node10</title>
<g id="a_Node000010"><a xlink:href="test__component__multimesh__from__tag_8cpp.html#af55ce8249624ce4d6a3feaad760949a6" target="_top" xlink:title=" ">
<polygon fill="white" stroke="#666666" points="227,-141.5 156,-141.5 156,-122.5 227,-122.5 227,-141.5"/>
<text text-anchor="middle" x="191.5" y="-129.5" font-family="Helvetica,sans-Serif" font-size="10.00">TEST_CASE</text>
</a>
</g>
</g>
<!-- Node3&#45;&gt;Node10 -->
<g id="edge9_Node000003_Node000010" class="edge">
<title>Node3&#45;&gt;Node10</title>
<g id="a_edge9_Node000003_Node000010"><a xlink:title=" ">
<path fill="none" stroke="#63b8ff" d="M301.63,-152.14C275.11,-147.25 247.76,-142.2 227.07,-138.38"/>
<polygon fill="#63b8ff" stroke="#63b8ff" points="301.27,-155.63 311.74,-154 302.54,-148.75 301.27,-155.63"/>
</a>
</g>
</g>
<!-- Node11 -->
<g id="Node000011" class="node">
<title>Node11</title>
<g id="a_Node000011"><a xlink:href="test__component__multimesh__from__tag_8cpp.html#a18cd3d411cfadc472201c20662d62869" target="_top" xlink:title=" ">
<polygon fill="white" stroke="#666666" points="227,-104.5 156,-104.5 156,-85.5 227,-85.5 227,-104.5"/>
<text text-anchor="middle" x="191.5" y="-92.5" font-family="Helvetica,sans-Serif" font-size="10.00">TEST_CASE</text>
</a>
</g>
</g>
<!-- Node3&#45;&gt;Node11 -->
<g id="edge10_Node000003_Node000011" class="edge">
<title>Node3&#45;&gt;Node11</title>
<g id="a_edge10_Node000003_Node000011"><a xlink:title=" ">
<path fill="none" stroke="#63b8ff" d="M346.7,-143.75C325.61,-133.07 300.04,-121.22 276,-113 260.28,-107.63 242.34,-103.51 227.12,-100.58"/>
<polygon fill="#63b8ff" stroke="#63b8ff" points="345.25,-146.94 355.74,-148.4 348.45,-140.72 345.25,-146.94"/>
</a>
</g>
</g>
<!-- Node12 -->
<g id="Node000012" class="node">
<title>Node12</title>
<g id="a_Node000012"><a xlink:href="test__component__multimesh__from__tag_8cpp.html#a4caad3dd8a6355f2ca66fdb0b0af7999" target="_top" xlink:title=" ">
<polygon fill="white" stroke="#666666" points="227,-67.5 156,-67.5 156,-48.5 227,-48.5 227,-67.5"/>
<text text-anchor="middle" x="191.5" y="-55.5" font-family="Helvetica,sans-Serif" font-size="10.00">TEST_CASE</text>
</a>
</g>
</g>
<!-- Node3&#45;&gt;Node12 -->
<g id="edge11_Node000003_Node000012" class="edge">
<title>Node3&#45;&gt;Node12</title>
<g id="a_edge11_Node000003_Node000012"><a xlink:title=" ">
<path fill="none" stroke="#63b8ff" d="M365.64,-141.14C343.4,-120.1 310.2,-92.18 276,-76 260.85,-68.83 242.81,-64.49 227.38,-61.87"/>
<polygon fill="#63b8ff" stroke="#63b8ff" points="363.4,-143.84 373.03,-148.26 368.26,-138.8 363.4,-143.84"/>
</a>
</g>
</g>
<!-- Node13 -->
<g id="Node000013" class="node">
<title>Node13</title>
<g id="a_Node000013"><a xlink:href="namespacewmtk_1_1components.html#a9d6d11e3b7ba03911492ecfc79622247" target="_top" xlink:title=" ">
<polygon fill="white" stroke="#666666" points="268.5,-30 114.5,-30 114.5,0 268.5,0 268.5,-30"/>
<text text-anchor="start" x="122.5" y="-18" font-family="Helvetica,sans-Serif" font-size="10.00">wmtk::components::triangle</text>
<text text-anchor="middle" x="191.5" y="-7" font-family="Helvetica,sans-Serif" font-size="10.00">_insertion</text>
</a>
</g>
</g>
<!-- Node3&#45;&gt;Node13 -->
<g id="edge12_Node000003_Node000013" class="edge">
<title>Node3&#45;&gt;Node13</title>
<g id="a_edge12_Node000003_Node000013"><a xlink:title=" ">
<path fill="none" stroke="#63b8ff" d="M374.13,-139.84C353.48,-110.22 317.71,-65.09 276,-39 270.5,-35.56 264.49,-32.6 258.3,-30.05"/>
<polygon fill="#63b8ff" stroke="#63b8ff" points="371.26,-141.85 379.8,-148.13 377.04,-137.9 371.26,-141.85"/>
</a>
</g>
</g>
<!-- Node5 -->
<g id="Node000005" class="node">
<title>Node5</title>
<g id="a_Node000005"><a xlink:href="test__component__multimesh__from__tag_8cpp.html#a2b0208caf4b963a36a43604c3e7cf34a" target="_top" xlink:title=" ">
<polygon fill="white" stroke="#666666" points="71,-343.5 0,-343.5 0,-324.5 71,-324.5 71,-343.5"/>
<text text-anchor="middle" x="35.5" y="-331.5" font-family="Helvetica,sans-Serif" font-size="10.00">TEST_CASE</text>
</a>
</g>
</g>
<!-- Node4&#45;&gt;Node5 -->
<g id="edge4_Node000004_Node000005" class="edge">
<title>Node4&#45;&gt;Node5</title>
<g id="a_edge4_Node000004_Node000005"><a xlink:title=" ">
<path fill="none" stroke="#63b8ff" d="M96.52,-334C87.57,-334 78.93,-334 71.14,-334"/>
<polygon fill="#63b8ff" stroke="#63b8ff" points="96.74,-337.5 106.74,-334 96.74,-330.5 96.74,-337.5"/>
</a>
</g>
</g>
<!-- Node14&#45;&gt;Node3 -->
<g id="edge14_Node000014_Node000003" class="edge">
<title>Node14&#45;&gt;Node3</title>
<g id="a_edge14_Node000014_Node000003"><a xlink:title=" ">
<path fill="none" stroke="#63b8ff" d="M503.81,-155.61C494.57,-156.75 485.19,-157.9 476.01,-159.03"/>
<polygon fill="#63b8ff" stroke="#63b8ff" points="504.27,-159.08 513.77,-154.38 503.42,-152.13 504.27,-159.08"/>
</a>
</g>
</g>
</g>
</svg>
