<?xml version="1.0" encoding="UTF-8" standalone="no"?>
<!DOCTYPE svg PUBLIC "-//W3C//DTD SVG 1.1//EN"
 "http://www.w3.org/Graphics/SVG/1.1/DTD/svg11.dtd">
<!-- Generated by graphviz version 2.43.0 (0)
 -->
<!-- Title: wmtk::Mesh::tuple_from_id Pages: 1 -->
<svg width="955pt" height="297pt"
 viewBox="0.00 0.00 955.00 297.00" xmlns="http://www.w3.org/2000/svg" xmlns:xlink="http://www.w3.org/1999/xlink">
<g id="graph0" class="graph" transform="scale(1 1) rotate(0) translate(4 293)">
<title>wmtk::Mesh::tuple_from_id</title>
<!-- Node1 -->
<g id="Node000001" class="node">
<title>Node1</title>
<g id="a_Node000001"><a xlink:title="internal function that returns the tuple of requested type, and has the global index cid">
<polygon fill="#999999" stroke="#666666" points="947,-188 797,-188 797,-169 947,-169 947,-188"/>
<text text-anchor="middle" x="872" y="-176" font-family="Helvetica,sans-Serif" font-size="10.00">wmtk::Mesh::tuple_from_id</text>
</a>
</g>
</g>
<!-- Node2 -->
<g id="Node000002" class="node">
<title>Node2</title>
<g id="a_Node000002"><a xlink:href="classwmtk_1_1_mesh.html#a893e47f5da1a44ca19eb2b1665506cce" target="_top" xlink:title="Generate a vector of Tuples from global vertex/edge/triangle/tetrahedron index.">
<polygon fill="white" stroke="#666666" points="722.5,-263 606.5,-263 606.5,-244 722.5,-244 722.5,-263"/>
<text text-anchor="middle" x="664.5" y="-251" font-family="Helvetica,sans-Serif" font-size="10.00">wmtk::Mesh::get_all</text>
</a>
</g>
</g>
<!-- Node1&#45;&gt;Node2 -->
<g id="edge1_Node000001_Node000002" class="edge">
<title>Node1&#45;&gt;Node2</title>
<g id="a_edge1_Node000001_Node000002"><a xlink:title=" ">
<path fill="none" stroke="#63b8ff" d="M847.15,-193.47C825.46,-206.43 792.17,-224.75 761,-235.5 748.8,-239.71 735.36,-243.01 722.52,-245.57"/>
<polygon fill="#63b8ff" stroke="#63b8ff" points="849.24,-196.29 855.97,-188.1 845.61,-190.31 849.24,-196.29"/>
</a>
</g>
</g>
<!-- Node3 -->
<g id="Node000003" class="node">
<title>Node3</title>
<g id="a_Node000003"><a xlink:href="classwmtk_1_1multimesh_1_1_multi_mesh_manager.html#a365936d6390d1fe630967491af67a3db" target="_top" xlink:title=" ">
<polygon fill="white" stroke="#666666" points="761,-226 568,-226 568,-185 761,-185 761,-226"/>
<text text-anchor="start" x="576" y="-214" font-family="Helvetica,sans-Serif" font-size="10.00">wmtk::multimesh::MultiMesh</text>
<text text-anchor="start" x="576" y="-203" font-family="Helvetica,sans-Serif" font-size="10.00">Manager::same_simplex_dimension</text>
<text text-anchor="middle" x="664.5" y="-192" font-family="Helvetica,sans-Serif" font-size="10.00">_surjection</text>
</a>
</g>
</g>
<!-- Node1&#45;&gt;Node3 -->
<g id="edge2_Node000001_Node000003" class="edge">
<title>Node1&#45;&gt;Node3</title>
<g id="a_edge2_Node000001_Node000003"><a xlink:title=" ">
<path fill="none" stroke="#63b8ff" d="M788.47,-189.34C779.45,-190.53 770.22,-191.74 761.06,-192.95"/>
<polygon fill="#63b8ff" stroke="#63b8ff" points="789.09,-192.79 798.55,-188.02 788.18,-185.85 789.09,-192.79"/>
</a>
</g>
</g>
<!-- Node4 -->
<g id="Node000004" class="node">
<title>Node4</title>
<g id="a_Node000004"><a xlink:href="classwmtk_1_1_mesh.html#a318ebdf5d22b2215e655f46d270fe8be" target="_top" xlink:title=" ">
<polygon fill="white" stroke="#666666" points="725.5,-166.5 603.5,-166.5 603.5,-136.5 725.5,-136.5 725.5,-166.5"/>
<text text-anchor="start" x="611.5" y="-154.5" font-family="Helvetica,sans-Serif" font-size="10.00">wmtk::Mesh::simplex</text>
<text text-anchor="middle" x="664.5" y="-143.5" font-family="Helvetica,sans-Serif" font-size="10.00">_from_id</text>
</a>
</g>
</g>
<!-- Node1&#45;&gt;Node4 -->
<g id="edge3_Node000001_Node000004" class="edge">
<title>Node1&#45;&gt;Node4</title>
<g id="a_edge3_Node000001_Node000004"><a xlink:title=" ">
<path fill="none" stroke="#63b8ff" d="M788.38,-167.64C767.45,-164.89 745.35,-161.99 725.76,-159.42"/>
<polygon fill="#63b8ff" stroke="#63b8ff" points="788.18,-171.15 798.55,-168.98 789.09,-164.21 788.18,-171.15"/>
</a>
</g>
</g>
<!-- Node9 -->
<g id="Node000009" class="node">
<title>Node9</title>
<g id="a_Node000009"><a xlink:href="classwmtk_1_1multimesh_1_1utils_1_1internal_1_1_tuple_tag.html#acf1cbc3cfaaebc987060989c98bdf6de" target="_top" xlink:title=" ">
<polygon fill="white" stroke="#666666" points="729.5,-100 599.5,-100 599.5,-59 729.5,-59 729.5,-100"/>
<text text-anchor="start" x="607.5" y="-88" font-family="Helvetica,sans-Serif" font-size="10.00">wmtk::multimesh::utils</text>
<text text-anchor="start" x="607.5" y="-77" font-family="Helvetica,sans-Serif" font-size="10.00">::internal::TupleTag::</text>
<text text-anchor="middle" x="664.5" y="-66" font-family="Helvetica,sans-Serif" font-size="10.00">v_tuple</text>
</a>
</g>
</g>
<!-- Node1&#45;&gt;Node9 -->
<g id="edge8_Node000001_Node000009" class="edge">
<title>Node1&#45;&gt;Node9</title>
<g id="a_edge8_Node000001_Node000009"><a xlink:title=" ">
<path fill="none" stroke="#63b8ff" d="M841.73,-164.4C806.79,-147.57 748.07,-119.28 708.1,-100.02"/>
<polygon fill="#63b8ff" stroke="#63b8ff" points="840.39,-167.64 850.92,-168.83 843.43,-161.33 840.39,-167.64"/>
</a>
</g>
</g>
<!-- Node5 -->
<g id="Node000005" class="node">
<title>Node5</title>
<g id="a_Node000005"><a xlink:href="classwmtk_1_1operations_1_1_edge_operation_data.html#a9202f2d7143caad7b6c065803d054dba" target="_top" xlink:title=" ">
<polygon fill="white" stroke="#666666" points="532,-166.5 352,-166.5 352,-136.5 532,-136.5 532,-166.5"/>
<text text-anchor="start" x="360" y="-154.5" font-family="Helvetica,sans-Serif" font-size="10.00">wmtk::operations::EdgeOperation</text>
<text text-anchor="middle" x="442" y="-143.5" font-family="Helvetica,sans-Serif" font-size="10.00">Data::simplex_from_id</text>
</a>
</g>
</g>
<!-- Node4&#45;&gt;Node5 -->
<g id="edge4_Node000004_Node000005" class="edge">
<title>Node4&#45;&gt;Node5</title>
<g id="a_edge4_Node000004_Node000005"><a xlink:title=" ">
<path fill="none" stroke="#63b8ff" d="M593.01,-151.5C573.64,-151.5 552.39,-151.5 532.13,-151.5"/>
<polygon fill="#63b8ff" stroke="#63b8ff" points="593.25,-155 603.25,-151.5 593.25,-148 593.25,-155"/>
</a>
</g>
</g>
<!-- Node6 -->
<g id="Node000006" class="node">
<title>Node6</title>
<g id="a_Node000006"><a xlink:href="classwmtk_1_1operations_1_1tet__mesh_1_1_edge_operation_data.html#a14e1d489352ad273f9d2205ea438e8b2" target="_top" xlink:title=" ">
<polygon fill="white" stroke="#666666" points="316,-289 166,-289 166,-248 316,-248 316,-289"/>
<text text-anchor="start" x="174" y="-277" font-family="Helvetica,sans-Serif" font-size="10.00">wmtk::operations::tet</text>
<text text-anchor="start" x="174" y="-266" font-family="Helvetica,sans-Serif" font-size="10.00">_mesh::EdgeOperationData</text>
<text text-anchor="middle" x="241" y="-255" font-family="Helvetica,sans-Serif" font-size="10.00">::new_vertices</text>
</a>
</g>
</g>
<!-- Node5&#45;&gt;Node6 -->
<g id="edge5_Node000005_Node000006" class="edge">
<title>Node5&#45;&gt;Node6</title>
<g id="a_edge5_Node000005_Node000006"><a xlink:title=" ">
<path fill="none" stroke="#63b8ff" d="M414.36,-173.11C389.85,-192.28 351.96,-220.16 316,-239.5 310.53,-242.44 304.7,-245.24 298.8,-247.87"/>
<polygon fill="#63b8ff" stroke="#63b8ff" points="416.77,-175.67 422.44,-166.72 412.43,-170.18 416.77,-175.67"/>
</a>
</g>
</g>
<!-- Node7 -->
<g id="Node000007" class="node">
<title>Node7</title>
<g id="a_Node000007"><a xlink:href="classwmtk_1_1operations_1_1tri__mesh_1_1_edge_operation_data.html#a38257053d489d0dd4fdb6fccaa9569bb" target="_top" xlink:title=" ">
<polygon fill="white" stroke="#666666" points="316,-230 166,-230 166,-189 316,-189 316,-230"/>
<text text-anchor="start" x="174" y="-218" font-family="Helvetica,sans-Serif" font-size="10.00">wmtk::operations::tri</text>
<text text-anchor="start" x="174" y="-207" font-family="Helvetica,sans-Serif" font-size="10.00">_mesh::EdgeOperationData</text>
<text text-anchor="middle" x="241" y="-196" font-family="Helvetica,sans-Serif" font-size="10.00">::new_vertices</text>
</a>
</g>
</g>
<!-- Node5&#45;&gt;Node7 -->
<g id="edge6_Node000005_Node000007" class="edge">
<title>Node5&#45;&gt;Node7</title>
<g id="a_edge6_Node000005_Node000007"><a xlink:title=" ">
<path fill="none" stroke="#63b8ff" d="M379.61,-169.39C358.35,-175.59 334.34,-182.59 312.4,-188.98"/>
<polygon fill="#63b8ff" stroke="#63b8ff" points="380.87,-172.67 389.49,-166.51 378.91,-165.95 380.87,-172.67"/>
</a>
</g>
</g>
<!-- Node8 -->
<g id="Node000008" class="node">
<title>Node8</title>
<g id="a_Node000008"><a xlink:href="classwmtk_1_1operations_1_1edge__mesh_1_1_edge_operation_data.html#aafff3cd3190413db4c3a2a7347cf64c5" target="_top" xlink:title=" ">
<polygon fill="white" stroke="#666666" points="316,-171 166,-171 166,-130 316,-130 316,-171"/>
<text text-anchor="start" x="174" y="-159" font-family="Helvetica,sans-Serif" font-size="10.00">wmtk::operations::edge</text>
<text text-anchor="start" x="174" y="-148" font-family="Helvetica,sans-Serif" font-size="10.00">_mesh::EdgeOperationData</text>
<text text-anchor="middle" x="241" y="-137" font-family="Helvetica,sans-Serif" font-size="10.00">::new_vertices</text>
</a>
</g>
</g>
<!-- Node5&#45;&gt;Node8 -->
<g id="edge7_Node000005_Node000008" class="edge">
<title>Node5&#45;&gt;Node8</title>
<g id="a_edge7_Node000005_Node000008"><a xlink:title=" ">
<path fill="none" stroke="#63b8ff" d="M341.82,-151C333.14,-150.96 324.47,-150.91 316.06,-150.87"/>
<polygon fill="#63b8ff" stroke="#63b8ff" points="341.96,-154.5 351.98,-151.05 341.99,-147.5 341.96,-154.5"/>
</a>
</g>
</g>
<!-- Node9&#45;&gt;Node9 -->
<g id="edge9_Node000009_Node000009" class="edge">
<title>Node9&#45;&gt;Node9</title>
<g id="a_edge9_Node000009_Node000009"><a xlink:title=" ">
<path fill="none" stroke="#63b8ff" d="M699.94,-109.96C694.67,-114.74 682.86,-118 664.5,-118 635.13,-118 622.51,-109.65 626.64,-100.1"/>
<polygon fill="#63b8ff" stroke="#63b8ff" points="703.38,-110.64 702.36,-100.1 696.58,-108.97 703.38,-110.64"/>
</a>
</g>
</g>
<!-- Node10 -->
<g id="Node000010" class="node">
<title>Node10</title>
<g id="a_Node000010"><a xlink:href="classwmtk_1_1multimesh_1_1utils_1_1internal_1_1_tuple_tag.html#acf43c71e38eb6f098ea24a73532a3739" target="_top" xlink:title=" ">
<polygon fill="white" stroke="#666666" points="507,-100 377,-100 377,-59 507,-59 507,-100"/>
<text text-anchor="start" x="385" y="-88" font-family="Helvetica,sans-Serif" font-size="10.00">wmtk::multimesh::utils</text>
<text text-anchor="start" x="385" y="-77" font-family="Helvetica,sans-Serif" font-size="10.00">::internal::TupleTag::</text>
<text text-anchor="middle" x="442" y="-66" font-family="Helvetica,sans-Serif" font-size="10.00">vertex_get_root</text>
</a>
</g>
</g>
<!-- Node9&#45;&gt;Node10 -->
<g id="edge10_Node000009_Node000010" class="edge">
<title>Node9&#45;&gt;Node10</title>
<g id="a_edge10_Node000009_Node000010"><a xlink:title=" ">
<path fill="none" stroke="#63b8ff" d="M589.39,-79.5C562.75,-79.5 532.96,-79.5 507.23,-79.5"/>
<polygon fill="#63b8ff" stroke="#63b8ff" points="589.43,-83 599.43,-79.5 589.43,-76 589.43,-83"/>
</a>
</g>
</g>
<!-- Node15 -->
<g id="Node000015" class="node">
<title>Node15</title>
<g id="a_Node000015"><a xlink:href="classwmtk_1_1multimesh_1_1utils_1_1internal_1_1_tuple_tag.html#a91abc2743fec235b445ec7b584b8971e" target="_top" xlink:title=" ">
<polygon fill="white" stroke="#666666" points="507,-41 377,-41 377,0 507,0 507,-41"/>
<text text-anchor="start" x="385" y="-29" font-family="Helvetica,sans-Serif" font-size="10.00">wmtk::multimesh::utils</text>
<text text-anchor="start" x="385" y="-18" font-family="Helvetica,sans-Serif" font-size="10.00">::internal::TupleTag::</text>
<text text-anchor="middle" x="442" y="-7" font-family="Helvetica,sans-Serif" font-size="10.00">vertex_set_root</text>
</a>
</g>
</g>
<!-- Node9&#45;&gt;Node15 -->
<g id="edge16_Node000009_Node000015" class="edge">
<title>Node9&#45;&gt;Node15</title>
<g id="a_edge16_Node000009_Node000015"><a xlink:title=" ">
<path fill="none" stroke="#63b8ff" d="M589.74,-59.76C563.02,-52.61 533.07,-44.6 507.23,-37.69"/>
<polygon fill="#63b8ff" stroke="#63b8ff" points="588.86,-63.15 599.43,-62.36 590.67,-56.39 588.86,-63.15"/>
</a>
</g>
</g>
<!-- Node11 -->
<g id="Node000011" class="node">
<title>Node11</title>
<g id="a_Node000011"><a xlink:href="classwmtk_1_1multimesh_1_1utils_1_1internal_1_1_tuple_tag.html#a76f9d0aa5d7d0de388e17b239faab649" target="_top" xlink:title=" ">
<polygon fill="white" stroke="#666666" points="306,-93.5 176,-93.5 176,-63.5 306,-63.5 306,-93.5"/>
<text text-anchor="start" x="184" y="-81.5" font-family="Helvetica,sans-Serif" font-size="10.00">wmtk::multimesh::utils</text>
<text text-anchor="middle" x="241" y="-70.5" font-family="Helvetica,sans-Serif" font-size="10.00">::internal::TupleTag::run</text>
</a>
</g>
</g>
<!-- Node10&#45;&gt;Node11 -->
<g id="edge11_Node000010_Node000011" class="edge">
<title>Node10&#45;&gt;Node11</title>
<g id="a_edge11_Node000010_Node000011"><a xlink:title=" ">
<path fill="none" stroke="#63b8ff" d="M366.7,-79.13C346.84,-79.03 325.55,-78.92 306.28,-78.82"/>
<polygon fill="#63b8ff" stroke="#63b8ff" points="366.92,-82.63 376.94,-79.18 366.96,-75.63 366.92,-82.63"/>
</a>
</g>
</g>
<!-- Node13 -->
<g id="Node000013" class="node">
<title>Node13</title>
<g id="a_Node000013"><a xlink:href="classwmtk_1_1multimesh_1_1utils_1_1internal_1_1_tuple_tag.html#abf875f1fb984fb5d322e0ac0c9dcc145" target="_top" xlink:title="Given two vertex tuple, join the sets that contain them.">
<polygon fill="white" stroke="#666666" points="306,-43 176,-43 176,-2 306,-2 306,-43"/>
<text text-anchor="start" x="184" y="-31" font-family="Helvetica,sans-Serif" font-size="10.00">wmtk::multimesh::utils</text>
<text text-anchor="start" x="184" y="-20" font-family="Helvetica,sans-Serif" font-size="10.00">::internal::TupleTag::</text>
<text text-anchor="middle" x="241" y="-9" font-family="Helvetica,sans-Serif" font-size="10.00">vertex_sets_unify</text>
</a>
</g>
</g>
<!-- Node10&#45;&gt;Node13 -->
<g id="edge14_Node000010_Node000013" class="edge">
<title>Node10&#45;&gt;Node13</title>
<g id="a_edge14_Node000010_Node000013"><a xlink:title=" ">
<path fill="none" stroke="#63b8ff" d="M367.25,-58.38C347.24,-52.64 325.73,-46.48 306.28,-40.91"/>
<polygon fill="#63b8ff" stroke="#63b8ff" points="366.36,-61.76 376.94,-61.15 368.29,-55.03 366.36,-61.76"/>
</a>
</g>
</g>
<!-- Node11&#45;&gt;Node11 -->
<g id="edge13_Node000011_Node000011" class="edge">
<title>Node11&#45;&gt;Node11</title>
<g id="a_edge13_Node000011_Node000011"><a xlink:title=" ">
<path fill="none" stroke="#63b8ff" d="M271.81,-104.1C267.6,-108.47 257.33,-111.5 241,-111.5 213.5,-111.5 203.19,-102.91 210.06,-93.78"/>
<polygon fill="#63b8ff" stroke="#63b8ff" points="275.31,-103.82 271.94,-93.78 268.31,-103.73 275.31,-103.82"/>
</a>
</g>
</g>
<!-- Node12 -->
<g id="Node000012" class="node">
<title>Node12</title>
<g id="a_Node000012"><a xlink:href="namespacewmtk_1_1multimesh_1_1utils.html#a3eeab2c4a43e5e6d5fb50d399a88d0a3" target="_top" xlink:title="Do two passes on the edges of a triangle mesh to create vertex tags and edge tags.">
<polygon fill="white" stroke="#666666" points="130,-93.5 0,-93.5 0,-63.5 130,-63.5 130,-93.5"/>
<text text-anchor="start" x="8" y="-81.5" font-family="Helvetica,sans-Serif" font-size="10.00">wmtk::multimesh::utils</text>
<text text-anchor="middle" x="65" y="-70.5" font-family="Helvetica,sans-Serif" font-size="10.00">::create_tags</text>
</a>
</g>
</g>
<!-- Node11&#45;&gt;Node12 -->
<g id="edge12_Node000011_Node000012" class="edge">
<title>Node11&#45;&gt;Node12</title>
<g id="a_edge12_Node000011_Node000012"><a xlink:title=" ">
<path fill="none" stroke="#63b8ff" d="M165.45,-78.5C153.66,-78.5 141.55,-78.5 130.03,-78.5"/>
<polygon fill="#63b8ff" stroke="#63b8ff" points="165.7,-82 175.7,-78.5 165.7,-75 165.7,-82"/>
</a>
</g>
</g>
<!-- Node14 -->
<g id="Node000014" class="node">
<title>Node14</title>
<g id="a_Node000014"><a xlink:href="classwmtk_1_1multimesh_1_1utils_1_1internal_1_1_tuple_tag.html#a2537cb4e71612d88c4541856b7352ee6" target="_top" xlink:title="Given an edge, join the sets that contains the two end vertices.">
<polygon fill="white" stroke="#666666" points="130,-37.5 0,-37.5 0,-7.5 130,-7.5 130,-37.5"/>
<text text-anchor="start" x="8" y="-25.5" font-family="Helvetica,sans-Serif" font-size="10.00">wmtk::multimesh::utils</text>
<text text-anchor="middle" x="65" y="-14.5" font-family="Helvetica,sans-Serif" font-size="10.00">::internal::TupleTag::run</text>
</a>
</g>
</g>
<!-- Node13&#45;&gt;Node14 -->
<g id="edge15_Node000013_Node000014" class="edge">
<title>Node13&#45;&gt;Node14</title>
<g id="a_edge15_Node000013_Node000014"><a xlink:title=" ">
<path fill="none" stroke="#63b8ff" d="M165.45,-22.5C153.66,-22.5 141.55,-22.5 130.03,-22.5"/>
<polygon fill="#63b8ff" stroke="#63b8ff" points="165.7,-26 175.7,-22.5 165.7,-19 165.7,-26"/>
</a>
</g>
</g>
<!-- Node15&#45;&gt;Node13 -->
<g id="edge17_Node000015_Node000013" class="edge">
<title>Node15&#45;&gt;Node13</title>
<g id="a_edge17_Node000015_Node000013"><a xlink:title=" ">
<path fill="none" stroke="#63b8ff" d="M366.7,-21.25C346.84,-21.45 325.55,-21.66 306.28,-21.85"/>
<polygon fill="#63b8ff" stroke="#63b8ff" points="366.98,-24.74 376.94,-21.14 366.91,-17.74 366.98,-24.74"/>
</a>
</g>
</g>
</g>
</svg>
