<?xml version="1.0" encoding="UTF-8" standalone="no"?>
<!DOCTYPE svg PUBLIC "-//W3C//DTD SVG 1.1//EN"
 "http://www.w3.org/Graphics/SVG/1.1/DTD/svg11.dtd">
<!-- Generated by graphviz version 2.43.0 (0)
 -->
<!-- Title: wmtk::simplex::SimplexCollection::reserve Pages: 1 -->
<svg width="1434pt" height="773pt"
 viewBox="0.00 0.00 1434.00 772.50" xmlns="http://www.w3.org/2000/svg" xmlns:xlink="http://www.w3.org/1999/xlink">
<g id="graph0" class="graph" transform="scale(1 1) rotate(0) translate(4 768.5)">
<title>wmtk::simplex::SimplexCollection::reserve</title>
<!-- Node1 -->
<g id="Node000001" class="node">
<title>Node1</title>
<g id="a_Node000001"><a xlink:title=" ">
<polygon fill="#999999" stroke="#666666" points="1426,-494.5 1242,-494.5 1242,-464.5 1426,-464.5 1426,-494.5"/>
<text text-anchor="start" x="1250" y="-482.5" font-family="Helvetica,sans-Serif" font-size="10.00">wmtk::simplex::SimplexCollection</text>
<text text-anchor="middle" x="1334" y="-471.5" font-family="Helvetica,sans-Serif" font-size="10.00">::reserve</text>
</a>
</g>
</g>
<!-- Node2 -->
<g id="Node000002" class="node">
<title>Node2</title>
<g id="a_Node000002"><a xlink:href="namespacewmtk_1_1simplex.html#a2ed8f83fbda4dc05306bfe8d2ce7ab94" target="_top" xlink:title="The closed star contains the input simplex, all its top dimension cofaces, and their faces.">
<polygon fill="white" stroke="#666666" points="1206,-489 1055,-489 1055,-470 1206,-470 1206,-489"/>
<text text-anchor="middle" x="1130.5" y="-477" font-family="Helvetica,sans-Serif" font-size="10.00">wmtk::simplex::closed_star</text>
</a>
</g>
</g>
<!-- Node1&#45;&gt;Node2 -->
<g id="edge1_Node000001_Node000002" class="edge">
<title>Node1&#45;&gt;Node2</title>
<g id="a_edge1_Node000001_Node000002"><a xlink:title=" ">
<path fill="none" stroke="#63b8ff" d="M1231.83,-479.5C1223.17,-479.5 1214.52,-479.5 1206.13,-479.5"/>
<polygon fill="#63b8ff" stroke="#63b8ff" points="1231.98,-483 1241.98,-479.5 1231.98,-476 1231.98,-483"/>
</a>
</g>
</g>
<!-- Node3 -->
<g id="Node000003" class="node">
<title>Node3</title>
<g id="a_Node000003"><a xlink:href="classwmtk_1_1operations_1_1_operation.html#af181d255eb0ef5297646e0dc9dc817a7" target="_top" xlink:title=" ">
<polygon fill="white" stroke="#666666" points="998,-716.5 842,-716.5 842,-686.5 998,-686.5 998,-716.5"/>
<text text-anchor="start" x="850" y="-704.5" font-family="Helvetica,sans-Serif" font-size="10.00">wmtk::operations::Operation</text>
<text text-anchor="middle" x="920" y="-693.5" font-family="Helvetica,sans-Serif" font-size="10.00">::apply_attribute_transfer</text>
</a>
</g>
</g>
<!-- Node2&#45;&gt;Node3 -->
<g id="edge2_Node000002_Node000003" class="edge">
<title>Node2&#45;&gt;Node3</title>
<g id="a_edge2_Node000002_Node000003"><a xlink:title=" ">
<path fill="none" stroke="#63b8ff" d="M1123.98,-499.12C1111.84,-538.57 1079.03,-627.71 1019,-674.5 1012.74,-679.38 1005.65,-683.38 998.21,-686.66"/>
<polygon fill="#63b8ff" stroke="#63b8ff" points="1127.37,-499.97 1126.86,-489.39 1120.66,-497.99 1127.37,-499.97"/>
</a>
</g>
</g>
<!-- Node6 -->
<g id="Node000006" class="node">
<title>Node6</title>
<g id="a_Node000006"><a xlink:href="classwmtk_1_1_tri_mesh_1_1_tri_mesh_operation_executor.html#a54e966bf94ccc52c22d4be0186a8d281" target="_top" xlink:title=" ">
<polygon fill="white" stroke="#666666" points="1009.5,-665.5 830.5,-665.5 830.5,-635.5 1009.5,-635.5 1009.5,-665.5"/>
<text text-anchor="start" x="838.5" y="-653.5" font-family="Helvetica,sans-Serif" font-size="10.00">wmtk::TriMesh::TriMeshOperation</text>
<text text-anchor="middle" x="920" y="-642.5" font-family="Helvetica,sans-Serif" font-size="10.00">Executor::collapse_edge</text>
</a>
</g>
</g>
<!-- Node2&#45;&gt;Node6 -->
<g id="edge5_Node000002_Node000006" class="edge">
<title>Node2&#45;&gt;Node6</title>
<g id="a_edge5_Node000002_Node000006"><a xlink:title=" ">
<path fill="none" stroke="#63b8ff" d="M1120.78,-498.27C1105.09,-529.87 1069.02,-593.5 1019,-626.5 1013.74,-629.97 1008.02,-632.94 1002.07,-635.48"/>
<polygon fill="#63b8ff" stroke="#63b8ff" points="1123.96,-499.74 1125.15,-489.21 1117.65,-496.69 1123.96,-499.74"/>
</a>
</g>
</g>
<!-- Node8 -->
<g id="Node000008" class="node">
<title>Node8</title>
<g id="a_Node000008"><a xlink:href="classwmtk_1_1_tri_mesh_1_1_tri_mesh_operation_executor.html#a783d12a65b5678519da53e2c6192f353" target="_top" xlink:title=" ">
<polygon fill="white" stroke="#666666" points="1019,-617.5 821,-617.5 821,-587.5 1019,-587.5 1019,-617.5"/>
<text text-anchor="start" x="829" y="-605.5" font-family="Helvetica,sans-Serif" font-size="10.00">wmtk::TriMesh::TriMeshOperation</text>
<text text-anchor="middle" x="920" y="-594.5" font-family="Helvetica,sans-Serif" font-size="10.00">Executor::collapse_edge_precompute</text>
</a>
</g>
</g>
<!-- Node2&#45;&gt;Node8 -->
<g id="edge7_Node000002_Node000008" class="edge">
<title>Node2&#45;&gt;Node8</title>
<g id="a_edge7_Node000002_Node000008"><a xlink:title=" ">
<path fill="none" stroke="#63b8ff" d="M1115.18,-496.77C1095.73,-519.07 1058.8,-557.51 1019,-578.5 1012.49,-581.93 1005.48,-584.88 998.31,-587.42"/>
<polygon fill="#63b8ff" stroke="#63b8ff" points="1117.91,-498.96 1121.75,-489.08 1112.59,-494.41 1117.91,-498.96"/>
</a>
</g>
</g>
<!-- Node9 -->
<g id="Node000009" class="node">
<title>Node9</title>
<g id="a_Node000009"><a xlink:href="namespacewmtk_1_1mesh__utils.html#ace9d707a188783f870a878d0623418d0" target="_top" xlink:title="compute the normalized vertex normal from the incident area weighted face normals">
<polygon fill="white" stroke="#666666" points="996,-569.5 844,-569.5 844,-539.5 996,-539.5 996,-569.5"/>
<text text-anchor="start" x="852" y="-557.5" font-family="Helvetica,sans-Serif" font-size="10.00">wmtk::mesh_utils::compute</text>
<text text-anchor="middle" x="920" y="-546.5" font-family="Helvetica,sans-Serif" font-size="10.00">_vertex_normal</text>
</a>
</g>
</g>
<!-- Node2&#45;&gt;Node9 -->
<g id="edge8_Node000002_Node000009" class="edge">
<title>Node2&#45;&gt;Node9</title>
<g id="a_edge8_Node000002_Node000009"><a xlink:title=" ">
<path fill="none" stroke="#63b8ff" d="M1102.5,-493.74C1080.5,-504.91 1048.36,-520.24 1019,-530.5 1009.66,-533.77 999.67,-536.76 989.77,-539.44"/>
<polygon fill="#63b8ff" stroke="#63b8ff" points="1104.27,-496.77 1111.57,-489.08 1101.07,-490.54 1104.27,-496.77"/>
</a>
</g>
</g>
<!-- Node11 -->
<g id="Node000011" class="node">
<title>Node11</title>
<g id="a_Node000011"><a xlink:href="classwmtk_1_1operations_1_1composite_1_1_tet_edge_swap.html#aad043bd04d267b27038ff4e824aed8e0" target="_top" xlink:title="returns an empty vector in case of failure">
<polygon fill="white" stroke="#666666" points="999.5,-521.5 840.5,-521.5 840.5,-491.5 999.5,-491.5 999.5,-521.5"/>
<text text-anchor="start" x="848.5" y="-509.5" font-family="Helvetica,sans-Serif" font-size="10.00">wmtk::operations::composite</text>
<text text-anchor="middle" x="920" y="-498.5" font-family="Helvetica,sans-Serif" font-size="10.00">::TetEdgeSwap::execute</text>
</a>
</g>
</g>
<!-- Node2&#45;&gt;Node11 -->
<g id="edge10_Node000002_Node000011" class="edge">
<title>Node2&#45;&gt;Node11</title>
<g id="a_edge10_Node000002_Node000011"><a xlink:title=" ">
<path fill="none" stroke="#63b8ff" d="M1046.01,-490.31C1030.67,-492.3 1014.7,-494.37 999.5,-496.33"/>
<polygon fill="#63b8ff" stroke="#63b8ff" points="1046.52,-493.77 1055.99,-489.02 1045.62,-486.83 1046.52,-493.77"/>
</a>
</g>
</g>
<!-- Node12 -->
<g id="Node000012" class="node">
<title>Node12</title>
<g id="a_Node000012"><a xlink:href="classwmtk_1_1_tet_mesh_1_1_tet_mesh_operation_executor.html#a86e6f877419cd3489a5b223b5b8bb094" target="_top" xlink:title="gather all simplices that are deleted in a collapse">
<polygon fill="white" stroke="#666666" points="1012.5,-473 827.5,-473 827.5,-432 1012.5,-432 1012.5,-473"/>
<text text-anchor="start" x="835.5" y="-461" font-family="Helvetica,sans-Serif" font-size="10.00">wmtk::TetMesh::TetMeshOperation</text>
<text text-anchor="start" x="835.5" y="-450" font-family="Helvetica,sans-Serif" font-size="10.00">Executor::get_collapse_simplices</text>
<text text-anchor="middle" x="920" y="-439" font-family="Helvetica,sans-Serif" font-size="10.00">_to_delete</text>
</a>
</g>
</g>
<!-- Node2&#45;&gt;Node12 -->
<g id="edge11_Node000002_Node000012" class="edge">
<title>Node2&#45;&gt;Node12</title>
<g id="a_edge11_Node000002_Node000012"><a xlink:title=" ">
<path fill="none" stroke="#63b8ff" d="M1046.06,-468.7C1035.14,-467.28 1023.9,-465.82 1012.84,-464.39"/>
<polygon fill="#63b8ff" stroke="#63b8ff" points="1045.62,-472.17 1055.99,-469.98 1046.52,-465.23 1045.62,-472.17"/>
</a>
</g>
</g>
<!-- Node13 -->
<g id="Node000013" class="node">
<title>Node13</title>
<g id="a_Node000013"><a xlink:href="classwmtk_1_1_tri_mesh_1_1_tri_mesh_operation_executor.html#a17977fc07ce1f6618c8dd6e5cef42e6e" target="_top" xlink:title="gather all simplices that are deleted in a collapse">
<polygon fill="white" stroke="#666666" points="1009.5,-414 830.5,-414 830.5,-373 1009.5,-373 1009.5,-414"/>
<text text-anchor="start" x="838.5" y="-402" font-family="Helvetica,sans-Serif" font-size="10.00">wmtk::TriMesh::TriMeshOperation</text>
<text text-anchor="start" x="838.5" y="-391" font-family="Helvetica,sans-Serif" font-size="10.00">Executor::get_collapse_simplices</text>
<text text-anchor="middle" x="920" y="-380" font-family="Helvetica,sans-Serif" font-size="10.00">_to_delete</text>
</a>
</g>
</g>
<!-- Node2&#45;&gt;Node13 -->
<g id="edge12_Node000002_Node000013" class="edge">
<title>Node2&#45;&gt;Node13</title>
<g id="a_edge12_Node000002_Node000013"><a xlink:title=" ">
<path fill="none" stroke="#63b8ff" d="M1103.67,-464.81C1081.64,-452.67 1048.89,-435.54 1019,-423.5 1010.75,-420.17 1001.98,-417 993.22,-414.05"/>
<polygon fill="#63b8ff" stroke="#63b8ff" points="1102.26,-468.03 1112.7,-469.83 1105.66,-461.91 1102.26,-468.03"/>
</a>
</g>
</g>
<!-- Node14 -->
<g id="Node000014" class="node">
<title>Node14</title>
<g id="a_Node000014"><a xlink:href="namespacewmtk_1_1simplex.html#ab9fe71cf495e974936cc882fe96a596e" target="_top" xlink:title=" ">
<polygon fill="white" stroke="#666666" points="987.5,-354.5 852.5,-354.5 852.5,-324.5 987.5,-324.5 987.5,-354.5"/>
<text text-anchor="start" x="860.5" y="-342.5" font-family="Helvetica,sans-Serif" font-size="10.00">wmtk::simplex::link</text>
<text text-anchor="middle" x="920" y="-331.5" font-family="Helvetica,sans-Serif" font-size="10.00">_single_dimension_slow</text>
</a>
</g>
</g>
<!-- Node2&#45;&gt;Node14 -->
<g id="edge13_Node000002_Node000014" class="edge">
<title>Node2&#45;&gt;Node14</title>
<g id="a_edge13_Node000002_Node000014"><a xlink:title=" ">
<path fill="none" stroke="#63b8ff" d="M1117.15,-461.33C1098.79,-435.74 1061.83,-389.45 1019,-364.5 1009.37,-358.89 998.48,-354.52 987.56,-351.13"/>
<polygon fill="#63b8ff" stroke="#63b8ff" points="1114.44,-463.56 1123.05,-469.74 1120.17,-459.54 1114.44,-463.56"/>
</a>
</g>
</g>
<!-- Node16 -->
<g id="Node000016" class="node">
<title>Node16</title>
<g id="a_Node000016"><a xlink:href="namespacewmtk_1_1simplex.html#a50d0026adbac4883ab00460ada1c1cfe" target="_top" xlink:title=" ">
<polygon fill="white" stroke="#666666" points="990.5,-306 849.5,-306 849.5,-287 990.5,-287 990.5,-306"/>
<text text-anchor="middle" x="920" y="-294" font-family="Helvetica,sans-Serif" font-size="10.00">wmtk::simplex::link_slow</text>
</a>
</g>
</g>
<!-- Node2&#45;&gt;Node16 -->
<g id="edge16_Node000002_Node000016" class="edge">
<title>Node2&#45;&gt;Node16</title>
<g id="a_edge16_Node000002_Node000016"><a xlink:title=" ">
<path fill="none" stroke="#63b8ff" d="M1122.37,-460.27C1108.36,-425.34 1073.74,-351.73 1019,-315.5 1010.47,-309.86 1000.67,-305.8 990.64,-302.91"/>
<polygon fill="#63b8ff" stroke="#63b8ff" points="1119.18,-461.73 1126.06,-469.79 1125.71,-459.2 1119.18,-461.73"/>
</a>
</g>
</g>
<!-- Node38 -->
<g id="Node000038" class="node">
<title>Node38</title>
<g id="a_Node000038"><a xlink:href="classwmtk_1_1_tri_mesh_1_1_tri_mesh_operation_executor.html#ab7c2e31aeac6b8b9c55475675497ae77" target="_top" xlink:title=" ">
<polygon fill="white" stroke="#666666" points="1009.5,-268.5 830.5,-268.5 830.5,-238.5 1009.5,-238.5 1009.5,-268.5"/>
<text text-anchor="start" x="838.5" y="-256.5" font-family="Helvetica,sans-Serif" font-size="10.00">wmtk::TriMesh::TriMeshOperation</text>
<text text-anchor="middle" x="920" y="-245.5" font-family="Helvetica,sans-Serif" font-size="10.00">Executor::split_edge_precompute</text>
</a>
</g>
</g>
<!-- Node2&#45;&gt;Node38 -->
<g id="edge44_Node000002_Node000038" class="edge">
<title>Node2&#45;&gt;Node38</title>
<g id="a_edge44_Node000002_Node000038"><a xlink:title=" ">
<path fill="none" stroke="#63b8ff" d="M1124.47,-460.01C1113.01,-419.61 1081.01,-326.52 1019,-278.5 1014,-274.63 1008.47,-271.35 1002.66,-268.58"/>
<polygon fill="#63b8ff" stroke="#63b8ff" points="1121.11,-460.99 1127.11,-469.72 1127.86,-459.15 1121.11,-460.99"/>
</a>
</g>
</g>
<!-- Node4 -->
<g id="Node000004" class="node">
<title>Node4</title>
<g id="a_Node000004"><a xlink:href="classwmtk_1_1operations_1_1_operation.html#a9c6426d34b54642aacb28e7cf93e328f" target="_top" xlink:title=" ">
<polygon fill="white" stroke="#666666" points="775,-764.5 619,-764.5 619,-734.5 775,-734.5 775,-764.5"/>
<text text-anchor="start" x="627" y="-752.5" font-family="Helvetica,sans-Serif" font-size="10.00">wmtk::operations::Operation</text>
<text text-anchor="middle" x="697" y="-741.5" font-family="Helvetica,sans-Serif" font-size="10.00">::operator()</text>
</a>
</g>
</g>
<!-- Node3&#45;&gt;Node4 -->
<g id="edge3_Node000003_Node000004" class="edge">
<title>Node3&#45;&gt;Node4</title>
<g id="a_edge3_Node000003_Node000004"><a xlink:title=" ">
<path fill="none" stroke="#63b8ff" d="M839.65,-718.73C815.92,-723.89 790.09,-729.5 767.07,-734.5"/>
<polygon fill="#63b8ff" stroke="#63b8ff" points="840.65,-722.1 849.68,-716.56 839.17,-715.26 840.65,-722.1"/>
</a>
</g>
</g>
<!-- Node5 -->
<g id="Node000005" class="node">
<title>Node5</title>
<g id="a_Node000005"><a xlink:href="classwmtk_1_1operations_1_1_operation_sequence.html#a547ec2a6ed8a354eff76e733b2e7fb2c" target="_top" xlink:title=" ">
<polygon fill="white" stroke="#666666" points="775,-716.5 619,-716.5 619,-686.5 775,-686.5 775,-716.5"/>
<text text-anchor="start" x="627" y="-704.5" font-family="Helvetica,sans-Serif" font-size="10.00">wmtk::operations::Operation</text>
<text text-anchor="middle" x="697" y="-693.5" font-family="Helvetica,sans-Serif" font-size="10.00">Sequence::operator()</text>
</a>
</g>
</g>
<!-- Node3&#45;&gt;Node5 -->
<g id="edge4_Node000003_Node000005" class="edge">
<title>Node3&#45;&gt;Node5</title>
<g id="a_edge4_Node000003_Node000005"><a xlink:title=" ">
<path fill="none" stroke="#63b8ff" d="M831.49,-701.5C812.91,-701.5 793.42,-701.5 775.25,-701.5"/>
<polygon fill="#63b8ff" stroke="#63b8ff" points="831.7,-705 841.7,-701.5 831.7,-698 831.7,-705"/>
</a>
</g>
</g>
<!-- Node7 -->
<g id="Node000007" class="node">
<title>Node7</title>
<g id="a_Node000007"><a xlink:href="classwmtk_1_1operations_1_1utils_1_1_multi_mesh_edge_collapse_functor.html#a33a6a6fb82c4c79d9c6a582a58f6766a" target="_top" xlink:title=" ">
<polygon fill="white" stroke="#666666" points="785,-668 609,-668 609,-627 785,-627 785,-668"/>
<text text-anchor="start" x="617" y="-656" font-family="Helvetica,sans-Serif" font-size="10.00">wmtk::operations::utils</text>
<text text-anchor="start" x="617" y="-645" font-family="Helvetica,sans-Serif" font-size="10.00">::MultiMeshEdgeCollapseFunctor</text>
<text text-anchor="middle" x="697" y="-634" font-family="Helvetica,sans-Serif" font-size="10.00">::operator()</text>
</a>
</g>
</g>
<!-- Node6&#45;&gt;Node7 -->
<g id="edge6_Node000006_Node000007" class="edge">
<title>Node6&#45;&gt;Node7</title>
<g id="a_edge6_Node000006_Node000007"><a xlink:title=" ">
<path fill="none" stroke="#63b8ff" d="M820.19,-649.16C808.53,-649 796.69,-648.84 785.2,-648.68"/>
<polygon fill="#63b8ff" stroke="#63b8ff" points="820.34,-652.66 830.38,-649.3 820.43,-645.66 820.34,-652.66"/>
</a>
</g>
</g>
<!-- Node10 -->
<g id="Node000010" class="node">
<title>Node10</title>
<g id="a_Node000010"><a xlink:href="classwmtk_1_1operations_1_1_vertex_tangential_laplacian_smooth.html#a6bdafc81c42b34cdafe1b229217d819c" target="_top" xlink:title=" ">
<polygon fill="white" stroke="#666666" points="772.5,-575 621.5,-575 621.5,-534 772.5,-534 772.5,-575"/>
<text text-anchor="start" x="629.5" y="-563" font-family="Helvetica,sans-Serif" font-size="10.00">wmtk::operations::Vertex</text>
<text text-anchor="start" x="629.5" y="-552" font-family="Helvetica,sans-Serif" font-size="10.00">TangentialLaplacianSmooth</text>
<text text-anchor="middle" x="697" y="-541" font-family="Helvetica,sans-Serif" font-size="10.00">::operator()</text>
</a>
</g>
</g>
<!-- Node9&#45;&gt;Node10 -->
<g id="edge9_Node000009_Node000010" class="edge">
<title>Node9&#45;&gt;Node10</title>
<g id="a_edge9_Node000009_Node000010"><a xlink:title=" ">
<path fill="none" stroke="#63b8ff" d="M833.76,-554.5C813.58,-554.5 792.21,-554.5 772.55,-554.5"/>
<polygon fill="#63b8ff" stroke="#63b8ff" points="833.87,-558 843.87,-554.5 833.87,-551 833.87,-558"/>
</a>
</g>
</g>
<!-- Node15 -->
<g id="Node000015" class="node">
<title>Node15</title>
<g id="a_Node000015"><a xlink:href="namespacewmtk_1_1simplex.html#a867591ecfe758ade38e03561223ac20f" target="_top" xlink:title=" ">
<polygon fill="white" stroke="#666666" points="753.5,-363.5 640.5,-363.5 640.5,-333.5 753.5,-333.5 753.5,-363.5"/>
<text text-anchor="start" x="648.5" y="-351.5" font-family="Helvetica,sans-Serif" font-size="10.00">wmtk::simplex::link</text>
<text text-anchor="middle" x="697" y="-340.5" font-family="Helvetica,sans-Serif" font-size="10.00">_single_dimension</text>
</a>
</g>
</g>
<!-- Node14&#45;&gt;Node15 -->
<g id="edge14_Node000014_Node000015" class="edge">
<title>Node14&#45;&gt;Node15</title>
<g id="a_edge14_Node000014_Node000015"><a xlink:title=" ">
<path fill="none" stroke="#63b8ff" d="M842.25,-342.63C813.11,-343.81 780.5,-345.14 753.67,-346.23"/>
<polygon fill="#63b8ff" stroke="#63b8ff" points="842.54,-346.12 852.39,-342.21 842.26,-339.12 842.54,-346.12"/>
</a>
</g>
</g>
<!-- Node15&#45;&gt;Node15 -->
<g id="edge15_Node000015_Node000015" class="edge">
<title>Node15&#45;&gt;Node15</title>
<g id="a_edge15_Node000015_Node000015"><a xlink:title=" ">
<path fill="none" stroke="#63b8ff" d="M733.06,-374.1C728.13,-378.47 716.11,-381.5 697,-381.5 664.81,-381.5 652.74,-372.91 660.79,-363.78"/>
<polygon fill="#63b8ff" stroke="#63b8ff" points="736.56,-373.83 733.21,-363.78 729.56,-373.72 736.56,-373.83"/>
</a>
</g>
</g>
<!-- Node17 -->
<g id="Node000017" class="node">
<title>Node17</title>
<g id="a_Node000017"><a xlink:href="namespacewmtk_1_1simplex.html#a3260444c136dbe145679b762c52f6a16" target="_top" xlink:title=" ">
<polygon fill="white" stroke="#666666" points="753.5,-297 640.5,-297 640.5,-278 753.5,-278 753.5,-297"/>
<text text-anchor="middle" x="697" y="-285" font-family="Helvetica,sans-Serif" font-size="10.00">wmtk::simplex::link</text>
</a>
</g>
</g>
<!-- Node16&#45;&gt;Node17 -->
<g id="edge17_Node000016_Node000017" class="edge">
<title>Node16&#45;&gt;Node17</title>
<g id="a_edge17_Node000016_Node000017"><a xlink:title=" ">
<path fill="none" stroke="#63b8ff" d="M839.09,-293.25C810.75,-292.09 779.5,-290.82 753.63,-289.77"/>
<polygon fill="#63b8ff" stroke="#63b8ff" points="839.24,-296.75 849.38,-293.66 839.53,-289.76 839.24,-296.75"/>
</a>
</g>
</g>
<!-- Node17&#45;&gt;Node17 -->
<g id="edge34_Node000017_Node000017" class="edge">
<title>Node17&#45;&gt;Node17</title>
<g id="a_edge34_Node000017_Node000017"><a xlink:title=" ">
<path fill="none" stroke="#63b8ff" d="M735.62,-304.69C735.62,-310.42 722.74,-315 697,-315 660.39,-315 649.8,-305.73 665.25,-297.08"/>
<polygon fill="#63b8ff" stroke="#63b8ff" points="738.05,-302.16 728.75,-297.08 732.86,-306.85 738.05,-302.16"/>
</a>
</g>
</g>
<!-- Node18 -->
<g id="Node000018" class="node">
<title>Node18</title>
<g id="a_Node000018"><a xlink:href="namespacewmtk_1_1components_1_1internal.html#a919ba35151931f21305c895ea3d52a2b" target="_top" xlink:title=" ">
<polygon fill="white" stroke="#666666" points="567,-587.5 413,-587.5 413,-557.5 567,-557.5 567,-587.5"/>
<text text-anchor="start" x="421" y="-575.5" font-family="Helvetica,sans-Serif" font-size="10.00">wmtk::components::internal</text>
<text text-anchor="middle" x="490" y="-564.5" font-family="Helvetica,sans-Serif" font-size="10.00">::adjust_sizing_field</text>
</a>
</g>
</g>
<!-- Node17&#45;&gt;Node18 -->
<g id="edge18_Node000017_Node000018" class="edge">
<title>Node17&#45;&gt;Node18</title>
<g id="a_edge18_Node000017_Node000018"><a xlink:title=" ">
<path fill="none" stroke="#63b8ff" d="M641.59,-300.84C629.22,-306.28 617.3,-313.89 609,-324.5 546.86,-403.91 639.69,-472.87 573,-548.5 569.96,-551.95 566.45,-554.91 562.64,-557.46"/>
<polygon fill="#63b8ff" stroke="#63b8ff" points="643.07,-304.02 651.08,-297.08 640.5,-297.51 643.07,-304.02"/>
</a>
</g>
</g>
<!-- Node22 -->
<g id="Node000022" class="node">
<title>Node22</title>
<g id="a_Node000022"><a xlink:href="namespacewmtk_1_1components.html#a16475fcf3c7cd34eedc9f49d036dde97" target="_top" xlink:title=" ">
<polygon fill="white" stroke="#666666" points="563,-539.5 417,-539.5 417,-509.5 563,-509.5 563,-539.5"/>
<text text-anchor="start" x="425" y="-527.5" font-family="Helvetica,sans-Serif" font-size="10.00">wmtk::components::adjust</text>
<text text-anchor="middle" x="490" y="-516.5" font-family="Helvetica,sans-Serif" font-size="10.00">_sizing_field</text>
</a>
</g>
</g>
<!-- Node17&#45;&gt;Node22 -->
<g id="edge24_Node000017_Node000022" class="edge">
<title>Node17&#45;&gt;Node22</title>
<g id="a_edge24_Node000017_Node000022"><a xlink:title=" ">
<path fill="none" stroke="#63b8ff" d="M642.62,-300.77C629.99,-306.23 617.69,-313.87 609,-324.5 558.47,-386.32 627.07,-441.75 573,-500.5 569.89,-503.88 566.32,-506.8 562.47,-509.31"/>
<polygon fill="#63b8ff" stroke="#63b8ff" points="644.24,-303.9 652.29,-297 641.7,-297.37 644.24,-303.9"/>
</a>
</g>
</g>
<!-- Node23 -->
<g id="Node000023" class="node">
<title>Node23</title>
<g id="a_Node000023"><a xlink:href="classwmtk_1_1invariants_1_1_valence_improvement_invariant.html#ac2f6805f4a5bfc3aba4f0c2169e03a99" target="_top" xlink:title=" ">
<polygon fill="white" stroke="#666666" points="572,-491.5 408,-491.5 408,-461.5 572,-461.5 572,-491.5"/>
<text text-anchor="start" x="416" y="-479.5" font-family="Helvetica,sans-Serif" font-size="10.00">wmtk::invariants::Valence</text>
<text text-anchor="middle" x="490" y="-468.5" font-family="Helvetica,sans-Serif" font-size="10.00">ImprovementInvariant::before</text>
</a>
</g>
</g>
<!-- Node17&#45;&gt;Node23 -->
<g id="edge25_Node000017_Node000023" class="edge">
<title>Node17&#45;&gt;Node23</title>
<g id="a_edge25_Node000017_Node000023"><a xlink:title=" ">
<path fill="none" stroke="#63b8ff" d="M644.24,-300.74C631.23,-306.23 618.33,-313.89 609,-324.5 569.97,-368.87 614.57,-410.49 573,-452.5 569.66,-455.87 565.88,-458.78 561.81,-461.28"/>
<polygon fill="#63b8ff" stroke="#63b8ff" points="645.6,-303.96 653.68,-297.11 643.09,-297.43 645.6,-303.96"/>
</a>
</g>
</g>
<!-- Node24 -->
<g id="Node000024" class="node">
<title>Node24</title>
<g id="a_Node000024"><a xlink:href="classwmtk_1_1operations_1_1_tet_wild_tangential_laplacian_smoothing.html#a3bf44ec8f70e02db3be952687f922396" target="_top" xlink:title="returns an empty vector in case of failure">
<polygon fill="white" stroke="#666666" points="573,-443 407,-443 407,-402 573,-402 573,-443"/>
<text text-anchor="start" x="415" y="-431" font-family="Helvetica,sans-Serif" font-size="10.00">wmtk::operations::TetWild</text>
<text text-anchor="start" x="415" y="-420" font-family="Helvetica,sans-Serif" font-size="10.00">TangentialLaplacianSmoothing</text>
<text text-anchor="middle" x="490" y="-409" font-family="Helvetica,sans-Serif" font-size="10.00">::execute</text>
</a>
</g>
</g>
<!-- Node17&#45;&gt;Node24 -->
<g id="edge26_Node000017_Node000024" class="edge">
<title>Node17&#45;&gt;Node24</title>
<g id="a_edge26_Node000017_Node000024"><a xlink:title=" ">
<path fill="none" stroke="#63b8ff" d="M649.34,-300.61C635.19,-306.26 620.39,-314.03 609,-324.5 583.82,-347.63 598.77,-370.02 573,-392.5 569,-395.99 564.56,-399.08 559.88,-401.83"/>
<polygon fill="#63b8ff" stroke="#63b8ff" points="650.82,-303.8 658.98,-297.04 648.39,-297.23 650.82,-303.8"/>
</a>
</g>
</g>
<!-- Node25 -->
<g id="Node000025" class="node">
<title>Node25</title>
<g id="a_Node000025"><a xlink:href="classwmtk_1_1function_1_1_edge_valence_energy.html#af25dd9d07e1f9d18c92c7a3395f271c1" target="_top" xlink:title="This function is defined over a simplex (normally a triangle or tetrahedron).">
<polygon fill="white" stroke="#666666" points="569,-383.5 411,-383.5 411,-353.5 569,-353.5 569,-383.5"/>
<text text-anchor="start" x="419" y="-371.5" font-family="Helvetica,sans-Serif" font-size="10.00">wmtk::function::EdgeValence</text>
<text text-anchor="middle" x="490" y="-360.5" font-family="Helvetica,sans-Serif" font-size="10.00">Energy::get_value</text>
</a>
</g>
</g>
<!-- Node17&#45;&gt;Node25 -->
<g id="edge27_Node000017_Node000025" class="edge">
<title>Node17&#45;&gt;Node25</title>
<g id="a_edge27_Node000017_Node000025"><a xlink:title=" ">
<path fill="none" stroke="#63b8ff" d="M664.2,-301.06C630.82,-315.28 581.95,-336.03 573,-339.5 560.75,-344.25 547.36,-349.12 535.01,-353.48"/>
<polygon fill="#63b8ff" stroke="#63b8ff" points="665.75,-304.21 673.57,-297.07 663,-297.77 665.75,-304.21"/>
</a>
</g>
</g>
<!-- Node26 -->
<g id="Node000026" class="node">
<title>Node26</title>
<g id="a_Node000026"><a xlink:href="namespacewmtk_1_1simplex.html#aaf868371b90dc2c2a009e7a6832cd7f9" target="_top" xlink:title=" ">
<polygon fill="white" stroke="#666666" points="552.5,-297 427.5,-297 427.5,-278 552.5,-278 552.5,-297"/>
<text text-anchor="middle" x="490" y="-285" font-family="Helvetica,sans-Serif" font-size="10.00">wmtk::simplex::k_ring</text>
</a>
</g>
</g>
<!-- Node17&#45;&gt;Node26 -->
<g id="edge28_Node000017_Node000026" class="edge">
<title>Node17&#45;&gt;Node26</title>
<g id="a_edge28_Node000017_Node000026"><a xlink:title=" ">
<path fill="none" stroke="#63b8ff" d="M630.16,-287.5C605.25,-287.5 577.01,-287.5 552.5,-287.5"/>
<polygon fill="#63b8ff" stroke="#63b8ff" points="630.25,-291 640.25,-287.5 630.25,-284 630.25,-291"/>
</a>
</g>
</g>
<!-- Node27 -->
<g id="Node000027" class="node">
<title>Node27</title>
<g id="a_Node000027"><a xlink:href="classwmtk_1_1_scheduler.html#a4f7598112b7e77f3432f22427c7fdfb8" target="_top" xlink:title=" ">
<polygon fill="white" stroke="#666666" points="366.5,-416.5 219.5,-416.5 219.5,-386.5 366.5,-386.5 366.5,-416.5"/>
<text text-anchor="start" x="227.5" y="-404.5" font-family="Helvetica,sans-Serif" font-size="10.00">wmtk::Scheduler::run</text>
<text text-anchor="middle" x="293" y="-393.5" font-family="Helvetica,sans-Serif" font-size="10.00">_operation_on_all_coloring</text>
</a>
</g>
</g>
<!-- Node17&#45;&gt;Node27 -->
<g id="edge40_Node000017_Node000027" class="edge">
<title>Node17&#45;&gt;Node27</title>
<g id="a_edge40_Node000017_Node000027"><a xlink:title=" ">
<path fill="none" stroke="#63b8ff" d="M630.59,-298.47C551.57,-312.03 426.72,-334.52 407,-344.5 387.63,-354.3 389.81,-366.68 371,-377.5 365.17,-380.85 358.83,-383.79 352.36,-386.35"/>
<polygon fill="#63b8ff" stroke="#63b8ff" points="631.2,-301.92 640.47,-296.79 630.02,-295.02 631.2,-301.92"/>
</a>
</g>
</g>
<!-- Node30 -->
<g id="Node000030" class="node">
<title>Node30</title>
<g id="a_Node000030"><a xlink:href="namespacewmtk_1_1simplex.html#a428755c0a4c93af10690b6828a3c79f5" target="_top" xlink:title=" ">
<polygon fill="white" stroke="#666666" points="564.5,-259.5 415.5,-259.5 415.5,-229.5 564.5,-229.5 564.5,-259.5"/>
<text text-anchor="start" x="423.5" y="-247.5" font-family="Helvetica,sans-Serif" font-size="10.00">wmtk::simplex::link</text>
<text text-anchor="middle" x="490" y="-236.5" font-family="Helvetica,sans-Serif" font-size="10.00">_condition_closed_tetmesh</text>
</a>
</g>
</g>
<!-- Node17&#45;&gt;Node30 -->
<g id="edge35_Node000017_Node000030" class="edge">
<title>Node17&#45;&gt;Node30</title>
<g id="a_edge35_Node000017_Node000030"><a xlink:title=" ">
<path fill="none" stroke="#63b8ff" d="M640.51,-275.86C616.5,-270.82 588.1,-264.87 562.54,-259.51"/>
<polygon fill="#63b8ff" stroke="#63b8ff" points="640,-279.33 650.5,-277.96 641.44,-272.48 640,-279.33"/>
</a>
</g>
</g>
<!-- Node32 -->
<g id="Node000032" class="node">
<title>Node32</title>
<g id="a_Node000032"><a xlink:href="namespacewmtk_1_1simplex.html#a3b3266f811539b7df8d85a51552bc1f7" target="_top" xlink:title=" ">
<polygon fill="white" stroke="#666666" points="563,-211.5 417,-211.5 417,-181.5 563,-181.5 563,-211.5"/>
<text text-anchor="start" x="425" y="-199.5" font-family="Helvetica,sans-Serif" font-size="10.00">wmtk::simplex::link</text>
<text text-anchor="middle" x="490" y="-188.5" font-family="Helvetica,sans-Serif" font-size="10.00">_condition_closed_trimesh</text>
</a>
</g>
</g>
<!-- Node17&#45;&gt;Node32 -->
<g id="edge37_Node000017_Node000032" class="edge">
<title>Node17&#45;&gt;Node32</title>
<g id="a_edge37_Node000017_Node000032"><a xlink:title=" ">
<path fill="none" stroke="#63b8ff" d="M672.16,-272.51C647.91,-257.75 608.91,-235.34 573,-220.5 565.19,-217.27 556.79,-214.29 548.45,-211.61"/>
<polygon fill="#63b8ff" stroke="#63b8ff" points="670.64,-275.68 680.99,-277.94 674.31,-269.72 670.64,-275.68"/>
</a>
</g>
</g>
<!-- Node34 -->
<g id="Node000034" class="node">
<title>Node34</title>
<g id="a_Node000034"><a xlink:href="classwmtk_1_1operations_1_1_vertex_laplacian_smooth.html#a22b68bed2c372520db2e828fcb226797" target="_top" xlink:title=" ">
<polygon fill="white" stroke="#666666" points="567.5,-163.5 412.5,-163.5 412.5,-133.5 567.5,-133.5 567.5,-163.5"/>
<text text-anchor="start" x="420.5" y="-151.5" font-family="Helvetica,sans-Serif" font-size="10.00">wmtk::operations::Vertex</text>
<text text-anchor="middle" x="490" y="-140.5" font-family="Helvetica,sans-Serif" font-size="10.00">LaplacianSmooth::operator()</text>
</a>
</g>
</g>
<!-- Node17&#45;&gt;Node34 -->
<g id="edge39_Node000017_Node000034" class="edge">
<title>Node17&#45;&gt;Node34</title>
<g id="a_edge39_Node000017_Node000034"><a xlink:title=" ">
<path fill="none" stroke="#63b8ff" d="M681.93,-269.92C660.86,-244.73 618.66,-198.54 573,-172.5 567.07,-169.12 560.63,-166.18 554.04,-163.63"/>
<polygon fill="#63b8ff" stroke="#63b8ff" points="679.42,-272.38 688.48,-277.89 684.83,-267.94 679.42,-272.38"/>
</a>
</g>
</g>
<!-- Node35 -->
<g id="Node000035" class="node">
<title>Node35</title>
<g id="a_Node000035"><a xlink:href="namespacewmtk_1_1components.html#a4eb70b5440518ea86de4ae32116cd345" target="_top" xlink:title=" ">
<polygon fill="white" stroke="#666666" points="557.5,-115 422.5,-115 422.5,-74 557.5,-74 557.5,-115"/>
<text text-anchor="start" x="430.5" y="-103" font-family="Helvetica,sans-Serif" font-size="10.00">wmtk::components::set</text>
<text text-anchor="start" x="430.5" y="-92" font-family="Helvetica,sans-Serif" font-size="10.00">_operation_energy_filter</text>
<text text-anchor="middle" x="490" y="-81" font-family="Helvetica,sans-Serif" font-size="10.00">_after_sizing_field</text>
</a>
</g>
</g>
<!-- Node17&#45;&gt;Node35 -->
<g id="edge41_Node000017_Node000035" class="edge">
<title>Node17&#45;&gt;Node35</title>
<g id="a_edge41_Node000017_Node000035"><a xlink:title=" ">
<path fill="none" stroke="#63b8ff" d="M686.57,-268.74C668.8,-235.19 627.22,-164.66 573,-124.5 568.25,-120.98 563.04,-117.84 557.63,-115.04"/>
<polygon fill="#63b8ff" stroke="#63b8ff" points="683.6,-270.62 691.31,-277.9 689.82,-267.41 683.6,-270.62"/>
</a>
</g>
</g>
<!-- Node36 -->
<g id="Node000036" class="node">
<title>Node36</title>
<g id="a_Node000036"><a xlink:href="tests_2marching_8cpp.html#af20fbc246d1ad31be8d9ec0011ac52d6" target="_top" xlink:title=" ">
<polygon fill="white" stroke="#666666" points="525.5,-56 454.5,-56 454.5,-37 525.5,-37 525.5,-56"/>
<text text-anchor="middle" x="490" y="-44" font-family="Helvetica,sans-Serif" font-size="10.00">TEST_CASE</text>
</a>
</g>
</g>
<!-- Node17&#45;&gt;Node36 -->
<g id="edge42_Node000017_Node000036" class="edge">
<title>Node17&#45;&gt;Node36</title>
<g id="a_edge42_Node000017_Node000036"><a xlink:title=" ">
<path fill="none" stroke="#63b8ff" d="M691.1,-267.78C679.09,-223.81 643.87,-117.42 573,-64.5 559.45,-54.38 541.35,-49.74 525.59,-47.69"/>
<polygon fill="#63b8ff" stroke="#63b8ff" points="687.74,-268.76 693.66,-277.55 694.51,-266.99 687.74,-268.76"/>
</a>
</g>
</g>
<!-- Node37 -->
<g id="Node000037" class="node">
<title>Node37</title>
<g id="a_Node000037"><a xlink:href="test__component__isotropic__remeshing_8cpp.html#ac951acaed01f46f17ad5496ddaeccd3f" target="_top" xlink:title=" ">
<polygon fill="white" stroke="#666666" points="525.5,-19 454.5,-19 454.5,0 525.5,0 525.5,-19"/>
<text text-anchor="middle" x="490" y="-7" font-family="Helvetica,sans-Serif" font-size="10.00">TEST_CASE</text>
</a>
</g>
</g>
<!-- Node17&#45;&gt;Node37 -->
<g id="edge43_Node000017_Node000037" class="edge">
<title>Node17&#45;&gt;Node37</title>
<g id="a_edge43_Node000017_Node000037"><a xlink:title=" ">
<path fill="none" stroke="#63b8ff" d="M692.78,-267.94C683.65,-219.09 652.91,-91.13 573,-27.5 559.77,-16.97 541.7,-12.28 525.88,-10.31"/>
<polygon fill="#63b8ff" stroke="#63b8ff" points="689.34,-268.61 694.53,-277.84 696.23,-267.39 689.34,-268.61"/>
</a>
</g>
</g>
<!-- Node18&#45;&gt;Node18 -->
<g id="edge19_Node000018_Node000018" class="edge">
<title>Node18&#45;&gt;Node18</title>
<g id="a_edge19_Node000018_Node000018"><a xlink:title=" ">
<path fill="none" stroke="#63b8ff" d="M524.31,-598.1C519.62,-602.47 508.18,-605.5 490,-605.5 459.38,-605.5 447.89,-596.91 455.55,-587.78"/>
<polygon fill="#63b8ff" stroke="#63b8ff" points="527.81,-597.82 524.45,-587.78 520.81,-597.72 527.81,-597.82"/>
</a>
</g>
</g>
<!-- Node19 -->
<g id="Node000019" class="node">
<title>Node19</title>
<g id="a_Node000019"><a xlink:href="namespacewmtk_1_1components_1_1internal.html#a8890d5e5bb5f11779d4e40e07882253a" target="_top" xlink:title=" ">
<polygon fill="white" stroke="#666666" points="370,-587.5 216,-587.5 216,-557.5 370,-557.5 370,-587.5"/>
<text text-anchor="start" x="224" y="-575.5" font-family="Helvetica,sans-Serif" font-size="10.00">wmtk::components::internal</text>
<text text-anchor="middle" x="293" y="-564.5" font-family="Helvetica,sans-Serif" font-size="10.00">::periodic_optimization</text>
</a>
</g>
</g>
<!-- Node18&#45;&gt;Node19 -->
<g id="edge20_Node000018_Node000019" class="edge">
<title>Node18&#45;&gt;Node19</title>
<g id="a_edge20_Node000018_Node000019"><a xlink:title=" ">
<path fill="none" stroke="#63b8ff" d="M402.51,-572.5C391.74,-572.5 380.78,-572.5 370.18,-572.5"/>
<polygon fill="#63b8ff" stroke="#63b8ff" points="402.77,-576 412.77,-572.5 402.77,-569 402.77,-576"/>
</a>
</g>
</g>
<!-- Node21 -->
<g id="Node000021" class="node">
<title>Node21</title>
<g id="a_Node000021"><a xlink:href="namespacewmtk_1_1components.html#ac6ca52668bd22e164d4baf59ec533864" target="_top" xlink:title=" ">
<polygon fill="white" stroke="#666666" points="179,-442 0,-442 0,-423 179,-423 179,-442"/>
<text text-anchor="middle" x="89.5" y="-430" font-family="Helvetica,sans-Serif" font-size="10.00">wmtk::components::wildmeshing</text>
</a>
</g>
</g>
<!-- Node18&#45;&gt;Node21 -->
<g id="edge23_Node000018_Node000021" class="edge">
<title>Node18&#45;&gt;Node21</title>
<g id="a_edge23_Node000018_Node000021"><a xlink:title=" ">
<path fill="none" stroke="#63b8ff" d="M425.59,-554.4C419.29,-552.46 413.01,-550.48 407,-548.5 296.94,-512.27 167.8,-462.69 114.93,-442.09"/>
<polygon fill="#63b8ff" stroke="#63b8ff" points="424.88,-557.84 435.47,-557.39 426.91,-551.14 424.88,-557.84"/>
</a>
</g>
</g>
<!-- Node19&#45;&gt;Node19 -->
<g id="edge22_Node000019_Node000019" class="edge">
<title>Node19&#45;&gt;Node19</title>
<g id="a_edge22_Node000019_Node000019"><a xlink:title=" ">
<path fill="none" stroke="#63b8ff" d="M327.31,-598.1C322.62,-602.47 311.18,-605.5 293,-605.5 262.38,-605.5 250.89,-596.91 258.55,-587.78"/>
<polygon fill="#63b8ff" stroke="#63b8ff" points="330.81,-597.82 327.45,-587.78 323.81,-597.72 330.81,-597.82"/>
</a>
</g>
</g>
<!-- Node20 -->
<g id="Node000020" class="node">
<title>Node20</title>
<g id="a_Node000020"><a xlink:href="namespacewmtk_1_1components.html#a4166e4880553cfacbf79ac3515a637cd" target="_top" xlink:title=" ">
<polygon fill="white" stroke="#666666" points="167,-587.5 12,-587.5 12,-557.5 167,-557.5 167,-587.5"/>
<text text-anchor="start" x="20" y="-575.5" font-family="Helvetica,sans-Serif" font-size="10.00">wmtk::components::periodic</text>
<text text-anchor="middle" x="89.5" y="-564.5" font-family="Helvetica,sans-Serif" font-size="10.00">_optimization</text>
</a>
</g>
</g>
<!-- Node19&#45;&gt;Node20 -->
<g id="edge21_Node000019_Node000020" class="edge">
<title>Node19&#45;&gt;Node20</title>
<g id="a_edge21_Node000019_Node000020"><a xlink:title=" ">
<path fill="none" stroke="#63b8ff" d="M205.64,-572.5C192.83,-572.5 179.71,-572.5 167.12,-572.5"/>
<polygon fill="#63b8ff" stroke="#63b8ff" points="205.82,-576 215.82,-572.5 205.82,-569 205.82,-576"/>
</a>
</g>
</g>
<!-- Node26&#45;&gt;Node27 -->
<g id="edge29_Node000026_Node000027" class="edge">
<title>Node26&#45;&gt;Node27</title>
<g id="a_edge29_Node000026_Node000027"><a xlink:title=" ">
<path fill="none" stroke="#63b8ff" d="M424.59,-300.87C418.28,-303.75 412.28,-307.25 407,-311.5 380.98,-332.46 396.84,-356.31 371,-377.5 366.78,-380.96 362.05,-383.93 357.08,-386.47"/>
<polygon fill="#63b8ff" stroke="#63b8ff" points="426.03,-304.07 433.99,-297.08 423.41,-297.57 426.03,-304.07"/>
</a>
</g>
</g>
<!-- Node28 -->
<g id="Node000028" class="node">
<title>Node28</title>
<g id="a_Node000028"><a xlink:href="namespacewmtk_1_1components_1_1internal.html#a19eecddab1770fc126938f03715626b0" target="_top" xlink:title=" ">
<polygon fill="white" stroke="#666666" points="371,-350.5 215,-350.5 215,-320.5 371,-320.5 371,-350.5"/>
<text text-anchor="start" x="223" y="-338.5" font-family="Helvetica,sans-Serif" font-size="10.00">wmtk::components::internal</text>
<text text-anchor="middle" x="293" y="-327.5" font-family="Helvetica,sans-Serif" font-size="10.00">::set_operation_energy_filter</text>
</a>
</g>
</g>
<!-- Node26&#45;&gt;Node28 -->
<g id="edge30_Node000026_Node000028" class="edge">
<title>Node26&#45;&gt;Node28</title>
<g id="a_edge30_Node000026_Node000028"><a xlink:title=" ">
<path fill="none" stroke="#63b8ff" d="M440.1,-299.54C414.36,-305.87 382.55,-313.7 355.19,-320.44"/>
<polygon fill="#63b8ff" stroke="#63b8ff" points="441.13,-302.89 450.01,-297.1 439.46,-296.09 441.13,-302.89"/>
</a>
</g>
</g>
<!-- Node29 -->
<g id="Node000029" class="node">
<title>Node29</title>
<g id="a_Node000029"><a xlink:href="namespacewmtk_1_1components.html#ad47dd9f4c68a8e70914d5a910e5fc0e4" target="_top" xlink:title=" ">
<polygon fill="white" stroke="#666666" points="360.5,-302.5 225.5,-302.5 225.5,-272.5 360.5,-272.5 360.5,-302.5"/>
<text text-anchor="start" x="233.5" y="-290.5" font-family="Helvetica,sans-Serif" font-size="10.00">wmtk::components::set</text>
<text text-anchor="middle" x="293" y="-279.5" font-family="Helvetica,sans-Serif" font-size="10.00">_operation_energy_filter</text>
</a>
</g>
</g>
<!-- Node26&#45;&gt;Node29 -->
<g id="edge33_Node000026_Node000029" class="edge">
<title>Node26&#45;&gt;Node29</title>
<g id="a_edge33_Node000026_Node000029"><a xlink:title=" ">
<path fill="none" stroke="#63b8ff" d="M417.19,-287.5C398.71,-287.5 378.91,-287.5 360.7,-287.5"/>
<polygon fill="#63b8ff" stroke="#63b8ff" points="417.3,-291 427.3,-287.5 417.3,-284 417.3,-291"/>
</a>
</g>
</g>
<!-- Node28&#45;&gt;Node21 -->
<g id="edge32_Node000028_Node000021" class="edge">
<title>Node28&#45;&gt;Node21</title>
<g id="a_edge32_Node000028_Node000021"><a xlink:title=" ">
<path fill="none" stroke="#63b8ff" d="M251.5,-355C208.76,-375.57 143.16,-407.15 110.46,-422.89"/>
<polygon fill="#63b8ff" stroke="#63b8ff" points="253.02,-358.15 260.52,-350.66 249.99,-351.84 253.02,-358.15"/>
</a>
</g>
</g>
<!-- Node28&#45;&gt;Node28 -->
<g id="edge31_Node000028_Node000028" class="edge">
<title>Node28&#45;&gt;Node28</title>
<g id="a_edge31_Node000028_Node000028"><a xlink:title=" ">
<path fill="none" stroke="#63b8ff" d="M327.31,-361.1C322.62,-365.47 311.18,-368.5 293,-368.5 262.38,-368.5 250.89,-359.91 258.55,-350.78"/>
<polygon fill="#63b8ff" stroke="#63b8ff" points="330.81,-360.82 327.45,-350.78 323.81,-360.72 330.81,-360.82"/>
</a>
</g>
</g>
<!-- Node31 -->
<g id="Node000031" class="node">
<title>Node31</title>
<g id="a_Node000031"><a xlink:href="namespacewmtk_1_1simplex.html#aead7bf4f261c58bdb33bd0bf7fcd541d" target="_top" xlink:title=" ">
<polygon fill="white" stroke="#666666" points="349.5,-254.5 236.5,-254.5 236.5,-224.5 349.5,-224.5 349.5,-254.5"/>
<text text-anchor="start" x="244.5" y="-242.5" font-family="Helvetica,sans-Serif" font-size="10.00">wmtk::simplex::link</text>
<text text-anchor="middle" x="293" y="-231.5" font-family="Helvetica,sans-Serif" font-size="10.00">_condition</text>
</a>
</g>
</g>
<!-- Node30&#45;&gt;Node31 -->
<g id="edge36_Node000030_Node000031" class="edge">
<title>Node30&#45;&gt;Node31</title>
<g id="a_edge36_Node000030_Node000031"><a xlink:title=" ">
<path fill="none" stroke="#63b8ff" d="M405.22,-242.35C386.41,-241.87 366.91,-241.37 349.58,-240.93"/>
<polygon fill="#63b8ff" stroke="#63b8ff" points="405.19,-245.85 415.28,-242.61 405.37,-238.85 405.19,-245.85"/>
</a>
</g>
</g>
<!-- Node33 -->
<g id="Node000033" class="node">
<title>Node33</title>
<g id="a_Node000033"><a xlink:href="namespacewmtk_1_1simplex.html#aad86388bdc8c1685d7d55fad016f0ca2" target="_top" xlink:title=" ">
<polygon fill="white" stroke="#666666" points="349.5,-206.5 236.5,-206.5 236.5,-176.5 349.5,-176.5 349.5,-206.5"/>
<text text-anchor="start" x="244.5" y="-194.5" font-family="Helvetica,sans-Serif" font-size="10.00">wmtk::simplex::link</text>
<text text-anchor="middle" x="293" y="-183.5" font-family="Helvetica,sans-Serif" font-size="10.00">_condition</text>
</a>
</g>
</g>
<!-- Node32&#45;&gt;Node33 -->
<g id="edge38_Node000032_Node000033" class="edge">
<title>Node32&#45;&gt;Node33</title>
<g id="a_edge38_Node000032_Node000033"><a xlink:title=" ">
<path fill="none" stroke="#63b8ff" d="M406.93,-194.4C387.61,-193.9 367.45,-193.38 349.61,-192.93"/>
<polygon fill="#63b8ff" stroke="#63b8ff" points="406.86,-197.89 416.94,-194.65 407.04,-190.9 406.86,-197.89"/>
</a>
</g>
</g>
</g>
</svg>
