<?xml version="1.0" encoding="UTF-8" standalone="no"?>
<!DOCTYPE svg PUBLIC "-//W3C//DTD SVG 1.1//EN"
 "http://www.w3.org/Graphics/SVG/1.1/DTD/svg11.dtd">
<!-- Generated by graphviz version 2.43.0 (0)
 -->
<!-- Title: wmtk::operations::edge_mesh::SplitNewAttributeTopoInfo::output_split_simplices Pages: 1 -->
<svg width="574pt" height="146pt"
 viewBox="0.00 0.00 574.00 145.50" xmlns="http://www.w3.org/2000/svg" xmlns:xlink="http://www.w3.org/1999/xlink">
<g id="graph0" class="graph" transform="scale(1 1) rotate(0) translate(4 141.5)">
<title>wmtk::operations::edge_mesh::SplitNewAttributeTopoInfo::output_split_simplices</title>
<!-- Node1 -->
<g id="Node000001" class="node">
<title>Node1</title>
<g id="a_Node000001"><a xlink:title=" ">
<polygon fill="#999999" stroke="#666666" points="164,-95 0,-95 0,-54 164,-54 164,-95"/>
<text text-anchor="start" x="8" y="-83" font-family="Helvetica,sans-Serif" font-size="10.00">wmtk::operations::edge</text>
<text text-anchor="start" x="8" y="-72" font-family="Helvetica,sans-Serif" font-size="10.00">_mesh::SplitNewAttributeTopo</text>
<text text-anchor="middle" x="82" y="-61" font-family="Helvetica,sans-Serif" font-size="10.00">Info::output_split_simplices</text>
</a>
</g>
</g>
<!-- Node2 -->
<g id="Node000002" class="node">
<title>Node2</title>
<g id="a_Node000002"><a xlink:href="namespacewmtk.html#a5cf45c152e856196bb734c6f48919a24" target="_top" xlink:title="Get a unique integer id corresponding to each primitive type.">
<polygon fill="white" stroke="#666666" points="333,-137.5 217,-137.5 217,-107.5 333,-107.5 333,-137.5"/>
<text text-anchor="start" x="225" y="-125.5" font-family="Helvetica,sans-Serif" font-size="10.00">wmtk::get_primitive</text>
<text text-anchor="middle" x="275" y="-114.5" font-family="Helvetica,sans-Serif" font-size="10.00">_type_id</text>
</a>
</g>
</g>
<!-- Node1&#45;&gt;Node2 -->
<g id="edge1_Node000001_Node000002" class="edge">
<title>Node1&#45;&gt;Node2</title>
<g id="a_edge1_Node000001_Node000002"><a xlink:title=" ">
<path fill="none" stroke="#63b8ff" d="M164,-94.86C178.32,-98.45 193.08,-102.16 206.96,-105.65"/>
<polygon fill="#63b8ff" stroke="#63b8ff" points="206.34,-109.11 216.89,-108.15 208.05,-102.32 206.34,-109.11"/>
</a>
</g>
</g>
<!-- Node3 -->
<g id="Node000003" class="node">
<title>Node3</title>
<g id="a_Node000003"><a xlink:href="classwmtk_1_1_mesh.html#ac5778c1f8afef3a2b1b1c33a140b3166" target="_top" xlink:title="Evaluate the passed in function inside the parent scope.">
<polygon fill="white" stroke="#666666" points="332,-89.5 218,-89.5 218,-59.5 332,-59.5 332,-89.5"/>
<text text-anchor="start" x="226" y="-77.5" font-family="Helvetica,sans-Serif" font-size="10.00">wmtk::Mesh::parent</text>
<text text-anchor="middle" x="275" y="-66.5" font-family="Helvetica,sans-Serif" font-size="10.00">_scope</text>
</a>
</g>
</g>
<!-- Node1&#45;&gt;Node3 -->
<g id="edge2_Node000001_Node000003" class="edge">
<title>Node1&#45;&gt;Node3</title>
<g id="a_edge2_Node000001_Node000003"><a xlink:title=" ">
<path fill="none" stroke="#63b8ff" d="M164,-74.5C178.56,-74.5 193.59,-74.5 207.68,-74.5"/>
<polygon fill="#63b8ff" stroke="#63b8ff" points="207.75,-78 217.75,-74.5 207.75,-71 207.75,-78"/>
</a>
</g>
</g>
<!-- Node4 -->
<g id="Node000004" class="node">
<title>Node4</title>
<g id="a_Node000004"><a xlink:href="classwmtk_1_1operations_1_1edge__mesh_1_1_edge_operation_data.html#aab21e7f4ee5ed99f1d35c23166b2d470" target="_top" xlink:title=" ">
<polygon fill="white" stroke="#666666" points="350,-41 200,-41 200,0 350,0 350,-41"/>
<text text-anchor="start" x="208" y="-29" font-family="Helvetica,sans-Serif" font-size="10.00">wmtk::operations::edge</text>
<text text-anchor="start" x="208" y="-18" font-family="Helvetica,sans-Serif" font-size="10.00">_mesh::EdgeOperationData</text>
<text text-anchor="middle" x="275" y="-7" font-family="Helvetica,sans-Serif" font-size="10.00">::split_output_edges</text>
</a>
</g>
</g>
<!-- Node1&#45;&gt;Node4 -->
<g id="edge3_Node000001_Node000004" class="edge">
<title>Node1&#45;&gt;Node4</title>
<g id="a_edge3_Node000001_Node000004"><a xlink:title=" ">
<path fill="none" stroke="#63b8ff" d="M155.75,-53.93C167.45,-50.62 179.63,-47.18 191.53,-43.82"/>
<polygon fill="#63b8ff" stroke="#63b8ff" points="192.78,-47.1 201.45,-41.01 190.87,-40.36 192.78,-47.1"/>
</a>
</g>
</g>
<!-- Node5 -->
<g id="Node000005" class="node">
<title>Node5</title>
<g id="a_Node000005"><a xlink:href="classwmtk_1_1operations_1_1_edge_operation_data.html#a37bc93fecbc4e30649298de051eee7ed" target="_top" xlink:title=" ">
<polygon fill="white" stroke="#666666" points="566,-35.5 386,-35.5 386,-5.5 566,-5.5 566,-35.5"/>
<text text-anchor="start" x="394" y="-23.5" font-family="Helvetica,sans-Serif" font-size="10.00">wmtk::operations::EdgeOperation</text>
<text text-anchor="middle" x="476" y="-12.5" font-family="Helvetica,sans-Serif" font-size="10.00">Data::tuple_from_id</text>
</a>
</g>
</g>
<!-- Node4&#45;&gt;Node5 -->
<g id="edge4_Node000004_Node000005" class="edge">
<title>Node4&#45;&gt;Node5</title>
<g id="a_edge4_Node000004_Node000005"><a xlink:title=" ">
<path fill="none" stroke="#63b8ff" d="M350.1,-20.5C358.44,-20.5 367.03,-20.5 375.63,-20.5"/>
<polygon fill="#63b8ff" stroke="#63b8ff" points="375.7,-24 385.7,-20.5 375.7,-17 375.7,-24"/>
</a>
</g>
</g>
</g>
</svg>
