<?xml version="1.0" encoding="UTF-8" standalone="no"?>
<!DOCTYPE svg PUBLIC "-//W3C//DTD SVG 1.1//EN"
 "http://www.w3.org/Graphics/SVG/1.1/DTD/svg11.dtd">
<!-- Generated by graphviz version 2.43.0 (0)
 -->
<!-- Title: wmtk::multimesh::MultiMeshManager::find_valid_tuple_from_split Pages: 1 -->
<svg width="550pt" height="286pt"
 viewBox="0.00 0.00 550.00 286.00" xmlns="http://www.w3.org/2000/svg" xmlns:xlink="http://www.w3.org/1999/xlink">
<g id="graph0" class="graph" transform="scale(1 1) rotate(0) translate(4 282)">
<title>wmtk::multimesh::MultiMeshManager::find_valid_tuple_from_split</title>
<!-- Node1 -->
<g id="Node000001" class="node">
<title>Node1</title>
<g id="a_Node000001"><a xlink:title=" ">
<polygon fill="#999999" stroke="#666666" points="160,-164.5 0,-164.5 0,-123.5 160,-123.5 160,-164.5"/>
<text text-anchor="start" x="8" y="-152.5" font-family="Helvetica,sans-Serif" font-size="10.00">wmtk::multimesh::MultiMesh</text>
<text text-anchor="start" x="8" y="-141.5" font-family="Helvetica,sans-Serif" font-size="10.00">Manager::find_valid_tuple</text>
<text text-anchor="middle" x="80" y="-130.5" font-family="Helvetica,sans-Serif" font-size="10.00">_from_split</text>
</a>
</g>
</g>
<!-- Node2 -->
<g id="Node000002" class="node">
<title>Node2</title>
<g id="a_Node000002"><a xlink:href="classwmtk_1_1multimesh_1_1_multi_mesh_manager.html#acdb4b40cd46568fbd0b325c63c7b9287" target="_top" xlink:title=" ">
<polygon fill="white" stroke="#666666" points="362,-278 200,-278 200,-248 362,-248 362,-278"/>
<text text-anchor="start" x="208" y="-266" font-family="Helvetica,sans-Serif" font-size="10.00">wmtk::multimesh::MultiMesh</text>
<text text-anchor="middle" x="281" y="-255" font-family="Helvetica,sans-Serif" font-size="10.00">Manager::find_tuple_from_gid</text>
</a>
</g>
</g>
<!-- Node1&#45;&gt;Node2 -->
<g id="edge1_Node000001_Node000002" class="edge">
<title>Node1&#45;&gt;Node2</title>
<g id="a_edge1_Node000001_Node000002"><a xlink:title=" ">
<path fill="none" stroke="#63b8ff" d="M100.71,-164.72C122.24,-186.2 158.64,-219.34 196,-239 199.52,-240.85 203.21,-242.58 206.98,-244.18"/>
<polygon fill="#63b8ff" stroke="#63b8ff" points="205.92,-247.53 216.51,-247.93 208.48,-241.01 205.92,-247.53"/>
</a>
</g>
</g>
<!-- Node3 -->
<g id="Node000003" class="node">
<title>Node3</title>
<g id="a_Node000003"><a xlink:href="classwmtk_1_1_mesh.html#a58243712dc3e0d258ad645e7b08870db" target="_top" xlink:title="return the global id of the Tuple of the given dimension">
<polygon fill="white" stroke="#666666" points="327,-229.5 235,-229.5 235,-210.5 327,-210.5 327,-229.5"/>
<text text-anchor="middle" x="281" y="-217.5" font-family="Helvetica,sans-Serif" font-size="10.00">wmtk::Mesh::id</text>
</a>
</g>
</g>
<!-- Node1&#45;&gt;Node3 -->
<g id="edge2_Node000001_Node000003" class="edge">
<title>Node1&#45;&gt;Node3</title>
<g id="a_edge2_Node000001_Node000003"><a xlink:title=" ">
<path fill="none" stroke="#63b8ff" d="M122.45,-164.52C144.06,-174.76 171.11,-186.87 196,-196 207.57,-200.24 220.26,-204.21 232.19,-207.65"/>
<polygon fill="#63b8ff" stroke="#63b8ff" points="231.41,-211.07 241.99,-210.41 233.31,-204.33 231.41,-211.07"/>
</a>
</g>
</g>
<!-- Node5 -->
<g id="Node000005" class="node">
<title>Node5</title>
<g id="a_Node000005"><a xlink:href="classwmtk_1_1_mesh.html#ade176d345902d97af8c5da04aa3a095b" target="_top" xlink:title=" ">
<polygon fill="white" stroke="#666666" points="542,-182.5 402,-182.5 402,-163.5 542,-163.5 542,-182.5"/>
<text text-anchor="middle" x="472" y="-170.5" font-family="Helvetica,sans-Serif" font-size="10.00">wmtk::Mesh::is_removed</text>
</a>
</g>
</g>
<!-- Node1&#45;&gt;Node5 -->
<g id="edge4_Node000001_Node000005" class="edge">
<title>Node1&#45;&gt;Node5</title>
<g id="a_edge4_Node000001_Node000005"><a xlink:title=" ">
<path fill="none" stroke="#63b8ff" d="M160.01,-158.41C172.03,-160.21 184.32,-161.83 196,-163 261.78,-169.6 336.81,-171.99 391.85,-172.79"/>
<polygon fill="#63b8ff" stroke="#63b8ff" points="391.85,-176.29 401.89,-172.92 391.94,-169.29 391.85,-176.29"/>
</a>
</g>
</g>
<!-- Node6 -->
<g id="Node000006" class="node">
<title>Node6</title>
<g id="a_Node000006"><a xlink:href="classwmtk_1_1_mesh.html#a8cc8686f0688613806f43720b6db49e7" target="_top" xlink:title="check validity of tuple including its hash">
<polygon fill="white" stroke="#666666" points="341,-153.5 221,-153.5 221,-134.5 341,-134.5 341,-153.5"/>
<text text-anchor="middle" x="281" y="-141.5" font-family="Helvetica,sans-Serif" font-size="10.00">wmtk::Mesh::is_valid</text>
</a>
</g>
</g>
<!-- Node1&#45;&gt;Node6 -->
<g id="edge6_Node000001_Node000006" class="edge">
<title>Node1&#45;&gt;Node6</title>
<g id="a_edge6_Node000001_Node000006"><a xlink:title=" ">
<path fill="none" stroke="#63b8ff" d="M160.22,-144C177.01,-144 194.6,-144 210.97,-144"/>
<polygon fill="#63b8ff" stroke="#63b8ff" points="210.98,-147.5 220.98,-144 210.98,-140.5 210.98,-147.5"/>
</a>
</g>
</g>
<!-- Node8 -->
<g id="Node000008" class="node">
<title>Node8</title>
<g id="a_Node000008"><a xlink:href="classwmtk_1_1simplex_1_1_simplex.html#ad2cc0340a0772b7d6f03ba7a781d1163" target="_top" xlink:title=" ">
<polygon fill="white" stroke="#666666" points="348.5,-116 213.5,-116 213.5,-86 348.5,-86 348.5,-116"/>
<text text-anchor="start" x="221.5" y="-104" font-family="Helvetica,sans-Serif" font-size="10.00">wmtk::simplex::Simplex</text>
<text text-anchor="middle" x="281" y="-93" font-family="Helvetica,sans-Serif" font-size="10.00">::primitive_type</text>
</a>
</g>
</g>
<!-- Node1&#45;&gt;Node8 -->
<g id="edge9_Node000001_Node000008" class="edge">
<title>Node1&#45;&gt;Node8</title>
<g id="a_edge9_Node000001_Node000008"><a xlink:title=" ">
<path fill="none" stroke="#63b8ff" d="M160.22,-126.88C174.35,-123.83 189.05,-120.65 203.11,-117.61"/>
<polygon fill="#63b8ff" stroke="#63b8ff" points="204.19,-120.96 213.22,-115.43 202.71,-114.12 204.19,-120.96"/>
</a>
</g>
</g>
<!-- Node9 -->
<g id="Node000009" class="node">
<title>Node9</title>
<g id="a_Node000009"><a xlink:href="classwmtk_1_1_mesh.html#abaf00438d0700358b160e310d69725c9" target="_top" xlink:title=" ">
<polygon fill="white" stroke="#666666" points="366,-67.5 196,-67.5 196,-48.5 366,-48.5 366,-67.5"/>
<text text-anchor="middle" x="281" y="-55.5" font-family="Helvetica,sans-Serif" font-size="10.00">wmtk::Mesh::top_simplex_type</text>
</a>
</g>
</g>
<!-- Node1&#45;&gt;Node9 -->
<g id="edge10_Node000001_Node000009" class="edge">
<title>Node1&#45;&gt;Node9</title>
<g id="a_edge10_Node000001_Node000009"><a xlink:title=" ">
<path fill="none" stroke="#63b8ff" d="M110.47,-123.44C132.97,-108.59 165.25,-89.1 196,-77 202.45,-74.46 209.32,-72.22 216.24,-70.25"/>
<polygon fill="#63b8ff" stroke="#63b8ff" points="217.62,-73.5 226.38,-67.55 215.82,-66.74 217.62,-73.5"/>
</a>
</g>
</g>
<!-- Node11 -->
<g id="Node000011" class="node">
<title>Node11</title>
<g id="a_Node000011"><a xlink:href="classwmtk_1_1simplex_1_1_simplex.html#aca78b1fb0a3c28c0036cf7919bfb0789" target="_top" xlink:title=" ">
<polygon fill="white" stroke="#666666" points="348.5,-30 213.5,-30 213.5,0 348.5,0 348.5,-30"/>
<text text-anchor="start" x="221.5" y="-18" font-family="Helvetica,sans-Serif" font-size="10.00">wmtk::simplex::Simplex</text>
<text text-anchor="middle" x="281" y="-7" font-family="Helvetica,sans-Serif" font-size="10.00">::tuple</text>
</a>
</g>
</g>
<!-- Node1&#45;&gt;Node11 -->
<g id="edge12_Node000001_Node000011" class="edge">
<title>Node1&#45;&gt;Node11</title>
<g id="a_edge12_Node000001_Node000011"><a xlink:title=" ">
<path fill="none" stroke="#63b8ff" d="M98.37,-123.16C119.21,-99.44 156.34,-61.14 196,-39 199.24,-37.19 202.62,-35.51 206.09,-33.95"/>
<polygon fill="#63b8ff" stroke="#63b8ff" points="207.55,-37.14 215.46,-30.09 204.88,-30.67 207.55,-37.14"/>
</a>
</g>
</g>
<!-- Node4 -->
<g id="Node000004" class="node">
<title>Node4</title>
<g id="a_Node000004"><a xlink:href="classwmtk_1_1_mesh.html#a6f6c3b9a1d738d05ec8d84cabfa5e4b4" target="_top" xlink:title="Internal utility to allow id to be virtual with a non&#45;virtual overload in derived &#45;Mesh classes.">
<polygon fill="white" stroke="#666666" points="536,-237.5 408,-237.5 408,-218.5 536,-218.5 536,-237.5"/>
<text text-anchor="middle" x="472" y="-225.5" font-family="Helvetica,sans-Serif" font-size="10.00">wmtk::Mesh::id_virtual</text>
</a>
</g>
</g>
<!-- Node3&#45;&gt;Node4 -->
<g id="edge3_Node000003_Node000004" class="edge">
<title>Node3&#45;&gt;Node4</title>
<g id="a_edge3_Node000003_Node000004"><a xlink:title=" ">
<path fill="none" stroke="#63b8ff" d="M327.27,-221.92C348.39,-222.81 374.06,-223.9 397.83,-224.9"/>
<polygon fill="#63b8ff" stroke="#63b8ff" points="397.74,-228.4 407.88,-225.33 398.03,-221.41 397.74,-228.4"/>
</a>
</g>
</g>
<!-- Node5&#45;&gt;Node5 -->
<g id="edge5_Node000005_Node000005" class="edge">
<title>Node5&#45;&gt;Node5</title>
<g id="a_edge5_Node000005_Node000005"><a xlink:title=" ">
<path fill="none" stroke="#63b8ff" d="M442.72,-182.58C428.47,-191.23 438.23,-200.5 472,-200.5 495.22,-200.5 507.09,-196.12 507.61,-190.57"/>
<polygon fill="#63b8ff" stroke="#63b8ff" points="510.23,-188.25 501.28,-182.58 504.75,-192.6 510.23,-188.25"/>
</a>
</g>
</g>
<!-- Node6&#45;&gt;Node5 -->
<g id="edge8_Node000006_Node000005" class="edge">
<title>Node6&#45;&gt;Node5</title>
<g id="a_edge8_Node000006_Node000005"><a xlink:title=" ">
<path fill="none" stroke="#63b8ff" d="M341.02,-153.06C359.29,-155.86 379.63,-158.98 398.7,-161.91"/>
<polygon fill="#63b8ff" stroke="#63b8ff" points="398.42,-165.4 408.83,-163.46 399.48,-158.48 398.42,-165.4"/>
</a>
</g>
</g>
<!-- Node7 -->
<g id="Node000007" class="node">
<title>Node7</title>
<g id="a_Node000007"><a xlink:href="classwmtk_1_1_tuple.html#a0023f575be92cd5ceeeaaaa3762ea06d" target="_top" xlink:title="Checks if a tuple is &quot;null&quot;. This merely implies the global index is &#45;1.">
<polygon fill="white" stroke="#666666" points="528.5,-145.5 415.5,-145.5 415.5,-126.5 528.5,-126.5 528.5,-145.5"/>
<text text-anchor="middle" x="472" y="-133.5" font-family="Helvetica,sans-Serif" font-size="10.00">wmtk::Tuple::is_null</text>
</a>
</g>
</g>
<!-- Node6&#45;&gt;Node7 -->
<g id="edge7_Node000006_Node000007" class="edge">
<title>Node6&#45;&gt;Node7</title>
<g id="a_edge7_Node000006_Node000007"><a xlink:title=" ">
<path fill="none" stroke="#63b8ff" d="M341.02,-141.5C361.41,-140.64 384.37,-139.67 405.26,-138.78"/>
<polygon fill="#63b8ff" stroke="#63b8ff" points="405.48,-142.28 415.32,-138.36 405.19,-135.28 405.48,-142.28"/>
</a>
</g>
</g>
<!-- Node10 -->
<g id="Node000010" class="node">
<title>Node10</title>
<g id="a_Node000010"><a xlink:href="classwmtk_1_1_mesh.html#a933f681cf24a63b155c9462280385200" target="_top" xlink:title=" ">
<polygon fill="white" stroke="#666666" points="532.5,-73 411.5,-73 411.5,-43 532.5,-43 532.5,-73"/>
<text text-anchor="start" x="419.5" y="-61" font-family="Helvetica,sans-Serif" font-size="10.00">wmtk::Mesh::top_cell</text>
<text text-anchor="middle" x="472" y="-50" font-family="Helvetica,sans-Serif" font-size="10.00">_dimension</text>
</a>
</g>
</g>
<!-- Node9&#45;&gt;Node10 -->
<g id="edge11_Node000009_Node000010" class="edge">
<title>Node9&#45;&gt;Node10</title>
<g id="a_edge11_Node000009_Node000010"><a xlink:title=" ">
<path fill="none" stroke="#63b8ff" d="M366.27,-58C377.88,-58 389.7,-58 401.01,-58"/>
<polygon fill="#63b8ff" stroke="#63b8ff" points="401.23,-61.5 411.23,-58 401.23,-54.5 401.23,-61.5"/>
</a>
</g>
</g>
</g>
</svg>
