<?xml version="1.0" encoding="UTF-8" standalone="no"?>
<!DOCTYPE svg PUBLIC "-//W3C//DTD SVG 1.1//EN"
 "http://www.w3.org/Graphics/SVG/1.1/DTD/svg11.dtd">
<!-- Generated by graphviz version 2.43.0 (0)
 -->
<!-- Title: wmtk::Mesh::request_simplex_indices Pages: 1 -->
<!--zoomable 334 -->

<svg id="main" version="1.1" xmlns="http://www.w3.org/2000/svg" xmlns:xlink="http://www.w3.org/1999/xlink" xml:space="preserve" onload="init(evt)">
<style type="text/css"><![CDATA[
.node, .edge {opacity: 0.7;}
.node.selected, .edge.selected {opacity: 1;}
.edge:hover path { stroke: red; }
.edge:hover polygon { stroke: red; fill: red; }
]]></style>

<defs>
  <circle id="rim" cx="0" cy="0" r="7"/>
  <circle id="rim2" cx="0" cy="0" r="3.5"/>
  <g id="zoomPlus">
    <use xlink:href="#rim" fill="#404040"><set attributeName="fill" to="#808080" begin="zoomplus.mouseover" end="zoomplus.mouseout"/></use>
    <path d="M-4,0h8M0,-4v8" fill="none" stroke="white" stroke-width="1.5" pointer-events="none"/>
  </g>
  <g id="zoomMin">
    <use xlink:href="#rim" fill="#404040"><set attributeName="fill" to="#808080" begin="zoomminus.mouseover" end="zoomminus.mouseout"/></use>
    <path d="M-4,0h8" fill="none" stroke="white" stroke-width="1.5" pointer-events="none"/>
  </g>
  <g id="arrowUp" transform="translate(30 24)">
    <use xlink:href="#rim"/>
    <path pointer-events="none" fill="none" stroke="white" stroke-width="1.5" d="M0,-3.0v7 M-2.5,-0.5L0,-3.0L2.5,-0.5"/>
  </g>
  <g id="arrowRight" transform="rotate(90) translate(36 -43)">
    <use xlink:href="#rim"/>
    <path pointer-events="none" fill="none" stroke="white" stroke-width="1.5" d="M0,-3.0v7 M-2.5,-0.5L0,-3.0L2.5,-0.5"/>
  </g>
  <g id="arrowDown" transform="rotate(180) translate(-30 -48)">
    <use xlink:href="#rim"/>
    <path pointer-events="none" fill="none" stroke="white" stroke-width="1.5" d="M0,-3.0v7 M-2.5,-0.5L0,-3.0L2.5,-0.5"/>
  </g>
  <g id="arrowLeft" transform="rotate(270) translate(-36 17)">
    <use xlink:href="#rim"/>
    <path pointer-events="none" fill="none" stroke="white" stroke-width="1.5" d="M0,-3.0v7 M-2.5,-0.5L0,-3.0L2.5,-0.5"/>
  </g>
  <g id="resetDef">
    <use xlink:href="#rim2" fill="#404040"><set attributeName="fill" to="#808080" begin="reset.mouseover" end="reset.mouseout"/></use>
  </g>
</defs>
<script type="application/ecmascript">
var viewWidth = 649;
var viewHeight = 334;
var sectionId = 'dynsection-118';
</script>
<script type="application/ecmascript" xlink:href="svg.min.js"/>
<svg id="graph" class="graph">
<g id="viewport">
<title>wmtk::Mesh::request_simplex_indices</title>
<!-- Node1 -->
<g id="Node000001" class="node">
<title>Node1</title>
<g id="a_Node000001"><a xlink:title=" ">
<polygon fill="#999999" stroke="#666666" points="119,-190 0,-190 0,-160 119,-160 119,-190"/>
<text text-anchor="start" x="8" y="-178" font-family="Helvetica,sans-Serif" font-size="10.00">wmtk::Mesh::request</text>
<text text-anchor="middle" x="59.5" y="-167" font-family="Helvetica,sans-Serif" font-size="10.00">_simplex_indices</text>
</a>
</g>
</g>
<!-- Node2 -->
<g id="Node000002" class="node">
<title>Node2</title>
<g id="a_Node000002"><a xlink:href="classwmtk_1_1_mesh.html#a3e8ff83c4a5526a40d18bb9883c6c6c9" target="_top" xlink:title="read in the m_capacities return the upper bound for the number of entities of the given dimension">
<polygon fill="white" stroke="#666666" points="473.5,-325.5 349.5,-325.5 349.5,-306.5 473.5,-306.5 473.5,-325.5"/>
<text text-anchor="middle" x="411.5" y="-313.5" font-family="Helvetica,sans-Serif" font-size="10.00">wmtk::Mesh::capacity</text>
</a>
</g>
</g>
<!-- Node1&#45;&gt;Node2 -->
<g id="edge1_Node000001_Node000002" class="edge">
<title>Node1&#45;&gt;Node2</title>
<g id="a_edge1_Node000001_Node000002"><a xlink:title=" ">
<path fill="none" stroke="#63b8ff" d="M67.6,-190.05C80.73,-216.01 111.52,-268.67 155,-292 211.61,-322.38 285.52,-326.15 339.27,-323.65"/>
<polygon fill="#63b8ff" stroke="#63b8ff" points="339.61,-327.13 349.4,-323.09 339.22,-320.14 339.61,-327.13"/>
</a>
</g>
</g>
<!-- Node3 -->
<g id="Node000003" class="node">
<title>Node3</title>
<g id="a_Node000003"><a xlink:href="namespacewmtk.html#a5cf45c152e856196bb734c6f48919a24" target="_top" xlink:title="Get a unique integer id corresponding to each primitive type.">
<polygon fill="white" stroke="#666666" points="641,-274 525,-274 525,-244 641,-244 641,-274"/>
<text text-anchor="start" x="533" y="-262" font-family="Helvetica,sans-Serif" font-size="10.00">wmtk::get_primitive</text>
<text text-anchor="middle" x="583" y="-251" font-family="Helvetica,sans-Serif" font-size="10.00">_type_id</text>
</a>
</g>
</g>
<!-- Node1&#45;&gt;Node3 -->
<g id="edge7_Node000001_Node000003" class="edge">
<title>Node1&#45;&gt;Node3</title>
<g id="a_edge7_Node000001_Node000003"><a xlink:title=" ">
<path fill="none" stroke="#63b8ff" d="M75.61,-190.22C93.05,-206.7 123.41,-232.21 155,-244 275.5,-288.96 428.64,-279.9 514.94,-269.37"/>
<polygon fill="#63b8ff" stroke="#63b8ff" points="515.39,-272.84 524.87,-268.12 514.51,-265.9 515.39,-272.84"/>
</a>
</g>
</g>
<!-- Node4 -->
<g id="Node000004" class="node">
<title>Node4</title>
<g id="a_Node000004"><a xlink:href="classwmtk_1_1_mesh.html#ae0e8f71e9e17a90be9423117efcc4c81" target="_top" xlink:title=" ">
<polygon fill="white" stroke="#666666" points="287.5,-126 165.5,-126 165.5,-96 287.5,-96 287.5,-126"/>
<text text-anchor="start" x="173.5" y="-114" font-family="Helvetica,sans-Serif" font-size="10.00">wmtk::Mesh::get_flag</text>
<text text-anchor="middle" x="226.5" y="-103" font-family="Helvetica,sans-Serif" font-size="10.00">_accessor</text>
</a>
</g>
</g>
<!-- Node1&#45;&gt;Node4 -->
<g id="edge3_Node000001_Node000004" class="edge">
<title>Node1&#45;&gt;Node4</title>
<g id="a_edge3_Node000001_Node000004"><a xlink:title=" ">
<path fill="none" stroke="#63b8ff" d="M94.38,-159.96C112.28,-152.19 134.69,-142.74 155,-135 159.86,-133.15 164.93,-131.28 170.03,-129.46"/>
<polygon fill="#63b8ff" stroke="#63b8ff" points="171.55,-132.64 179.82,-126.01 169.22,-126.03 171.55,-132.64"/>
</a>
</g>
</g>
<!-- Node7 -->
<g id="Node000007" class="node">
<title>Node7</title>
<g id="a_Node000007"><a xlink:href="classwmtk_1_1attribute_1_1_accessor.html#a2d587e12c47a6d839ab80e9198cf75b5" target="_top" xlink:title=" ">
<polygon fill="white" stroke="#666666" points="297.5,-212 155.5,-212 155.5,-182 297.5,-182 297.5,-212"/>
<text text-anchor="start" x="163.5" y="-200" font-family="Helvetica,sans-Serif" font-size="10.00">wmtk::attribute::Accessor</text>
<text text-anchor="middle" x="226.5" y="-189" font-family="Helvetica,sans-Serif" font-size="10.00">::index_access</text>
</a>
</g>
</g>
<!-- Node1&#45;&gt;Node7 -->
<g id="edge8_Node000001_Node000007" class="edge">
<title>Node1&#45;&gt;Node7</title>
<g id="a_edge8_Node000001_Node000007"><a xlink:title=" ">
<path fill="none" stroke="#63b8ff" d="M119.14,-182.82C127.68,-183.96 136.61,-185.15 145.49,-186.33"/>
<polygon fill="#63b8ff" stroke="#63b8ff" points="145.1,-189.81 155.48,-187.66 146.03,-182.87 145.1,-189.81"/>
</a>
</g>
</g>
<!-- Node9 -->
<g id="Node000009" class="node">
<title>Node9</title>
<g id="a_Node000009"><a xlink:href="namespacewmtk.html#a6a35f11c12436093d26fdd8be6fecc06" target="_top" xlink:title="Retrieves the current logger.">
<polygon fill="white" stroke="#666666" points="267,-163.5 186,-163.5 186,-144.5 267,-144.5 267,-163.5"/>
<text text-anchor="middle" x="226.5" y="-151.5" font-family="Helvetica,sans-Serif" font-size="10.00">wmtk::logger</text>
</a>
</g>
</g>
<!-- Node1&#45;&gt;Node9 -->
<g id="edge10_Node000001_Node000009" class="edge">
<title>Node1&#45;&gt;Node9</title>
<g id="a_edge10_Node000001_Node000009"><a xlink:title=" ">
<path fill="none" stroke="#63b8ff" d="M119.14,-167.54C137.73,-165.17 158.09,-162.58 175.98,-160.3"/>
<polygon fill="#63b8ff" stroke="#63b8ff" points="176.43,-163.77 185.91,-159.04 175.55,-156.83 176.43,-163.77"/>
</a>
</g>
</g>
<!-- Node11 -->
<g id="Node000011" class="node">
<title>Node11</title>
<g id="a_Node000011"><a xlink:href="namespacewmtk.html#a339897f6efeb23a997750141f12892ee" target="_top" xlink:title=" ">
<polygon fill="white" stroke="#666666" points="489,-249.5 334,-249.5 334,-230.5 489,-230.5 489,-249.5"/>
<text text-anchor="middle" x="411.5" y="-237.5" font-family="Helvetica,sans-Serif" font-size="10.00">wmtk::primitive_type_name</text>
</a>
</g>
</g>
<!-- Node1&#45;&gt;Node11 -->
<g id="edge12_Node000001_Node000011" class="edge">
<title>Node1&#45;&gt;Node11</title>
<g id="a_edge12_Node000001_Node000011"><a xlink:title=" ">
<path fill="none" stroke="#63b8ff" d="M84.76,-190C103.27,-200.64 129.81,-214.2 155,-221 209.84,-235.8 273.55,-240.56 323.63,-241.62"/>
<polygon fill="#63b8ff" stroke="#63b8ff" points="323.72,-245.12 333.77,-241.79 323.83,-238.12 323.72,-245.12"/>
</a>
</g>
</g>
<!-- Node12 -->
<g id="Node000012" class="node">
<title>Node12</title>
<g id="a_Node000012"><a xlink:href="classwmtk_1_1attribute_1_1_accessor_base.html#ada0ffe6f114ed47ad205989d8a6f67da" target="_top" xlink:title=" ">
<polygon fill="white" stroke="#666666" points="297.5,-78 155.5,-78 155.5,-48 297.5,-48 297.5,-78"/>
<text text-anchor="start" x="163.5" y="-66" font-family="Helvetica,sans-Serif" font-size="10.00">wmtk::attribute::Accessor</text>
<text text-anchor="middle" x="226.5" y="-55" font-family="Helvetica,sans-Serif" font-size="10.00">Base::reserved_size</text>
</a>
</g>
</g>
<!-- Node1&#45;&gt;Node12 -->
<g id="edge14_Node000001_Node000012" class="edge">
<title>Node1&#45;&gt;Node12</title>
<g id="a_edge14_Node000001_Node000012"><a xlink:title=" ">
<path fill="none" stroke="#63b8ff" d="M73.07,-159.86C89.9,-140.48 121.52,-107.02 155,-87 157.83,-85.31 160.8,-83.71 163.84,-82.22"/>
<polygon fill="#63b8ff" stroke="#63b8ff" points="165.49,-85.31 173.17,-78.01 162.61,-78.93 165.49,-85.31"/>
</a>
</g>
</g>
<!-- Node13 -->
<g id="Node000013" class="node">
<title>Node13</title>
<g id="a_Node000013"><a xlink:href="classwmtk_1_1attribute_1_1_caching_accessor.html#a73f8d78b708406dcd6433398e3954e72" target="_top" xlink:title=" ">
<polygon fill="white" stroke="#666666" points="298,-30 155,-30 155,0 298,0 298,-30"/>
<text text-anchor="start" x="163" y="-18" font-family="Helvetica,sans-Serif" font-size="10.00">wmtk::attribute::Caching</text>
<text text-anchor="middle" x="226.5" y="-7" font-family="Helvetica,sans-Serif" font-size="10.00">Accessor::scalar_attribute</text>
</a>
</g>
</g>
<!-- Node1&#45;&gt;Node13 -->
<g id="edge15_Node000001_Node000013" class="edge">
<title>Node1&#45;&gt;Node13</title>
<g id="a_edge15_Node000001_Node000013"><a xlink:title=" ">
<path fill="none" stroke="#63b8ff" d="M67,-159.98C79.8,-132.11 110.91,-72.22 155,-39 156.85,-37.61 158.78,-36.3 160.77,-35.05"/>
<polygon fill="#63b8ff" stroke="#63b8ff" points="162.79,-37.94 169.88,-30.07 159.43,-31.8 162.79,-37.94"/>
</a>
</g>
</g>
<!-- Node2&#45;&gt;Node3 -->
<g id="edge2_Node000002_Node000003" class="edge">
<title>Node2&#45;&gt;Node3</title>
<g id="a_edge2_Node000002_Node000003"><a xlink:title=" ">
<path fill="none" stroke="#63b8ff" d="M443.85,-306.45C457.72,-302.15 474.21,-296.94 489,-292 502.6,-287.46 517.24,-282.36 530.8,-277.55"/>
<polygon fill="#63b8ff" stroke="#63b8ff" points="532.2,-280.77 540.45,-274.11 529.85,-274.17 532.2,-280.77"/>
</a>
</g>
</g>
<!-- Node5 -->
<g id="Node000005" class="node">
<title>Node5</title>
<g id="a_Node000005"><a xlink:href="classwmtk_1_1_mesh.html#a6dbab927a2ee85f77a87f075fd5c1d94" target="_top" xlink:title=" ">
<polygon fill="white" stroke="#666666" points="476.5,-126 346.5,-126 346.5,-96 476.5,-96 476.5,-126"/>
<text text-anchor="start" x="354.5" y="-114" font-family="Helvetica,sans-Serif" font-size="10.00">wmtk::Mesh::get_const</text>
<text text-anchor="middle" x="411.5" y="-103" font-family="Helvetica,sans-Serif" font-size="10.00">_flag_accessor</text>
</a>
</g>
</g>
<!-- Node4&#45;&gt;Node5 -->
<g id="edge4_Node000004_Node000005" class="edge">
<title>Node4&#45;&gt;Node5</title>
<g id="a_edge4_Node000004_Node000005"><a xlink:title=" ">
<path fill="none" stroke="#63b8ff" d="M287.67,-111C303.06,-111 319.78,-111 335.8,-111"/>
<polygon fill="#63b8ff" stroke="#63b8ff" points="336.2,-114.5 346.2,-111 336.2,-107.5 336.2,-114.5"/>
</a>
</g>
</g>
<!-- Node5&#45;&gt;Node3 -->
<g id="edge6_Node000005_Node000003" class="edge">
<title>Node5&#45;&gt;Node3</title>
<g id="a_edge6_Node000005_Node000003"><a xlink:title=" ">
<path fill="none" stroke="#63b8ff" d="M473.1,-126.02C478.71,-128.57 484.11,-131.54 489,-135 525.95,-161.13 554.48,-206.44 569.72,-234.46"/>
<polygon fill="#63b8ff" stroke="#63b8ff" points="566.78,-236.38 574.54,-243.58 572.96,-233.11 566.78,-236.38"/>
</a>
</g>
</g>
<!-- Node6 -->
<g id="Node000006" class="node">
<title>Node6</title>
<g id="a_Node000006"><a xlink:href="classwmtk_1_1_mesh.html#a357182137d99f1e4a7ff536eadfc0e56" target="_top" xlink:title=" ">
<polygon fill="white" stroke="#666666" points="639.5,-126 526.5,-126 526.5,-96 639.5,-96 639.5,-126"/>
<text text-anchor="start" x="534.5" y="-114" font-family="Helvetica,sans-Serif" font-size="10.00">wmtk::Mesh::create</text>
<text text-anchor="middle" x="583" y="-103" font-family="Helvetica,sans-Serif" font-size="10.00">_const_accessor</text>
</a>
</g>
</g>
<!-- Node5&#45;&gt;Node6 -->
<g id="edge5_Node000005_Node000006" class="edge">
<title>Node5&#45;&gt;Node6</title>
<g id="a_edge5_Node000005_Node000006"><a xlink:title=" ">
<path fill="none" stroke="#63b8ff" d="M476.58,-111C489.53,-111 503.16,-111 516.16,-111"/>
<polygon fill="#63b8ff" stroke="#63b8ff" points="516.43,-114.5 526.43,-111 516.43,-107.5 516.43,-114.5"/>
</a>
</g>
</g>
<!-- Node8 -->
<g id="Node000008" class="node">
<title>Node8</title>
<g id="a_Node000008"><a xlink:href="classwmtk_1_1attribute_1_1_accessor.html#afd97a48ec5d1db975a030428df81f617" target="_top" xlink:title=" ">
<polygon fill="white" stroke="#666666" points="482.5,-212 340.5,-212 340.5,-182 482.5,-182 482.5,-212"/>
<text text-anchor="start" x="348.5" y="-200" font-family="Helvetica,sans-Serif" font-size="10.00">wmtk::attribute::Accessor</text>
<text text-anchor="middle" x="411.5" y="-189" font-family="Helvetica,sans-Serif" font-size="10.00">::caching_base_type</text>
</a>
</g>
</g>
<!-- Node7&#45;&gt;Node8 -->
<g id="edge9_Node000007_Node000008" class="edge">
<title>Node7&#45;&gt;Node8</title>
<g id="a_edge9_Node000007_Node000008"><a xlink:title=" ">
<path fill="none" stroke="#63b8ff" d="M297.73,-197C308.35,-197 319.37,-197 330.18,-197"/>
<polygon fill="#63b8ff" stroke="#63b8ff" points="330.46,-200.5 340.46,-197 330.46,-193.5 330.46,-200.5"/>
</a>
</g>
</g>
<!-- Node10 -->
<g id="Node000010" class="node">
<title>Node10</title>
<g id="a_Node000010"><a xlink:href="namespacewmtk.html#a3daa7951a5f8b78cf4600dc047fcc180" target="_top" xlink:title="Setup a logger object to be used by WildmeshToolkit.">
<polygon fill="white" stroke="#666666" points="462,-163.5 361,-163.5 361,-144.5 462,-144.5 462,-163.5"/>
<text text-anchor="middle" x="411.5" y="-151.5" font-family="Helvetica,sans-Serif" font-size="10.00">wmtk::set_logger</text>
</a>
</g>
</g>
<!-- Node9&#45;&gt;Node10 -->
<g id="edge11_Node000009_Node000010" class="edge">
<title>Node9&#45;&gt;Node10</title>
<g id="a_edge11_Node000009_Node000010"><a xlink:title=" ">
<path fill="none" stroke="#63b8ff" d="M267.21,-154C291.54,-154 323.15,-154 350.49,-154"/>
<polygon fill="#63b8ff" stroke="#63b8ff" points="350.73,-157.5 360.73,-154 350.73,-150.5 350.73,-157.5"/>
</a>
</g>
</g>
<!-- Node11&#45;&gt;Node3 -->
<g id="edge13_Node000011_Node000003" class="edge">
<title>Node11&#45;&gt;Node3</title>
<g id="a_edge13_Node000011_Node000003"><a xlink:title=" ">
<path fill="none" stroke="#63b8ff" d="M489.32,-248.61C497.85,-249.57 506.49,-250.54 514.88,-251.48"/>
<polygon fill="#63b8ff" stroke="#63b8ff" points="514.66,-254.97 524.98,-252.61 515.44,-248.02 514.66,-254.97"/>
</a>
</g>
</g>
</g>
</svg>

<g id="navigator" transform="translate(0 0)" fill="#404254">
  <rect fill="#f2f5e9" fill-opacity="0.5" stroke="#606060" stroke-width=".5" x="0" y="0" width="60" height="60"/>
  <use id="zoomplus" xlink:href="#zoomPlus" x="17" y="9" onmousedown="handleZoom(evt,'in')"/>
  <use id="zoomminus" xlink:href="#zoomMin" x="42" y="9" onmousedown="handleZoom(evt,'out')"/>
  <use id="reset" xlink:href="#resetDef" x="30" y="36" onmousedown="handleReset()"/>
   <use id="arrowup" xlink:href="#arrowUp" x="0" y="0" onmousedown="handlePan(0,-1)"/>
  <use id="arrowright" xlink:href="#arrowRight" x="0" y="0" onmousedown="handlePan(1,0)"/>
  <use id="arrowdown" xlink:href="#arrowDown" x="0" y="0" onmousedown="handlePan(0,1)"/>
  <use id="arrowleft" xlink:href="#arrowLeft" x="0" y="0" onmousedown="handlePan(-1,0)"/>
</g>
<svg viewBox="0 0 15 15" width="100%" height="30px" preserveAspectRatio="xMaxYMin meet">
 <g id="arrow_out" transform="scale(0.3 0.3)">
  <a xlink:href="classwmtk_1_1_mesh_ac205d6addf4e76f000c70547253735f0_cgraph_org.svg" target="_base">
   <rect id="button" ry="5" rx="5" y="6" x="6" height="38" width="38"
        fill="#f2f5e9" fill-opacity="0.5" stroke="#606060" stroke-width="1.0"/>
   <path id="arrow"
     d="M 11.500037,31.436501 C 11.940474,20.09759 22.043105,11.32322 32.158766,21.979434 L 37.068811,17.246167 C 37.068811,17.246167 37.088388,32 37.088388,32 L 22.160133,31.978069 C 22.160133,31.978069 26.997745,27.140456 26.997745,27.140456 C 18.528582,18.264221 13.291696,25.230495 11.500037,31.436501 z"
     style="fill:#404040;"/>
  </a>
 </g>
</svg>

<style type='text/css'>
<![CDATA[
[data-mouse-over-selected='false'] { opacity: 0.7; }
[data-mouse-over-selected='true']  { opacity: 1.0; }
]]>
</style>
<script type="application/ecmascript"><![CDATA[
document.addEventListener('DOMContentLoaded', (event) => {
  highlightEdges();
  highlightAdjacentNodes();
});
]]></script>
</svg>
