<?xml version="1.0" encoding="UTF-8" standalone="no"?>
<!DOCTYPE svg PUBLIC "-//W3C//DTD SVG 1.1//EN"
 "http://www.w3.org/Graphics/SVG/1.1/DTD/svg11.dtd">
<!-- Generated by graphviz version 2.43.0 (0)
 -->
<!-- Title: wmtk::MshReader::read Pages: 1 -->
<!--zoomable 751 -->

<svg id="main" version="1.1" xmlns="http://www.w3.org/2000/svg" xmlns:xlink="http://www.w3.org/1999/xlink" xml:space="preserve" onload="init(evt)">
<style type="text/css"><![CDATA[
.node, .edge {opacity: 0.7;}
.node.selected, .edge.selected {opacity: 1;}
.edge:hover path { stroke: red; }
.edge:hover polygon { stroke: red; fill: red; }
]]></style>

<defs>
  <circle id="rim" cx="0" cy="0" r="7"/>
  <circle id="rim2" cx="0" cy="0" r="3.5"/>
  <g id="zoomPlus">
    <use xlink:href="#rim" fill="#404040"><set attributeName="fill" to="#808080" begin="zoomplus.mouseover" end="zoomplus.mouseout"/></use>
    <path d="M-4,0h8M0,-4v8" fill="none" stroke="white" stroke-width="1.5" pointer-events="none"/>
  </g>
  <g id="zoomMin">
    <use xlink:href="#rim" fill="#404040"><set attributeName="fill" to="#808080" begin="zoomminus.mouseover" end="zoomminus.mouseout"/></use>
    <path d="M-4,0h8" fill="none" stroke="white" stroke-width="1.5" pointer-events="none"/>
  </g>
  <g id="arrowUp" transform="translate(30 24)">
    <use xlink:href="#rim"/>
    <path pointer-events="none" fill="none" stroke="white" stroke-width="1.5" d="M0,-3.0v7 M-2.5,-0.5L0,-3.0L2.5,-0.5"/>
  </g>
  <g id="arrowRight" transform="rotate(90) translate(36 -43)">
    <use xlink:href="#rim"/>
    <path pointer-events="none" fill="none" stroke="white" stroke-width="1.5" d="M0,-3.0v7 M-2.5,-0.5L0,-3.0L2.5,-0.5"/>
  </g>
  <g id="arrowDown" transform="rotate(180) translate(-30 -48)">
    <use xlink:href="#rim"/>
    <path pointer-events="none" fill="none" stroke="white" stroke-width="1.5" d="M0,-3.0v7 M-2.5,-0.5L0,-3.0L2.5,-0.5"/>
  </g>
  <g id="arrowLeft" transform="rotate(270) translate(-36 17)">
    <use xlink:href="#rim"/>
    <path pointer-events="none" fill="none" stroke="white" stroke-width="1.5" d="M0,-3.0v7 M-2.5,-0.5L0,-3.0L2.5,-0.5"/>
  </g>
  <g id="resetDef">
    <use xlink:href="#rim2" fill="#404040"><set attributeName="fill" to="#808080" begin="reset.mouseover" end="reset.mouseout"/></use>
  </g>
</defs>
<script type="application/ecmascript">
var viewWidth = 687;
var viewHeight = 751;
var sectionId = 'dynsection-19';
</script>
<script type="application/ecmascript" xlink:href="svg.min.js"/>
<svg id="graph" class="graph">
<g id="viewport">
<title>wmtk::MshReader::read</title>
<!-- Node1 -->
<g id="Node000001" class="node">
<title>Node1</title>
<g id="a_Node000001"><a xlink:title=" ">
<polygon fill="#999999" stroke="#666666" points="133,-387 0,-387 0,-368 133,-368 133,-387"/>
<text text-anchor="middle" x="66.5" y="-375" font-family="Helvetica,sans-Serif" font-size="10.00">wmtk::MshReader::read</text>
</a>
</g>
</g>
<!-- Node2 -->
<g id="Node000002" class="node">
<title>Node2</title>
<g id="a_Node000002"><a xlink:href="classwmtk_1_1_msh_reader.html#a3c428a196eb1eb7b632c42fc0b1775e0" target="_top" xlink:title=" ">
<polygon fill="white" stroke="#666666" points="327,-742.5 181,-742.5 181,-712.5 327,-712.5 327,-742.5"/>
<text text-anchor="start" x="189" y="-730.5" font-family="Helvetica,sans-Serif" font-size="10.00">wmtk::MshReader::extract</text>
<text text-anchor="middle" x="254" y="-719.5" font-family="Helvetica,sans-Serif" font-size="10.00">_edge_vertices</text>
</a>
</g>
</g>
<!-- Node1&#45;&gt;Node2 -->
<g id="edge1_Node000001_Node000002" class="edge">
<title>Node1&#45;&gt;Node2</title>
<g id="a_edge1_Node000001_Node000002"><a xlink:title=" ">
<path fill="none" stroke="#63b8ff" d="M67.41,-387.16C67.54,-430.71 74.01,-610.72 169,-703.5 170.12,-704.59 171.28,-705.64 172.49,-706.63"/>
<polygon fill="#63b8ff" stroke="#63b8ff" points="170.77,-709.7 180.98,-712.55 174.78,-703.96 170.77,-709.7"/>
</a>
</g>
</g>
<!-- Node3 -->
<g id="Node000003" class="node">
<title>Node3</title>
<g id="a_Node000003"><a xlink:href="classwmtk_1_1_msh_reader.html#ad402a5894549f729431cd9fcc75f7121" target="_top" xlink:title=" ">
<polygon fill="white" stroke="#666666" points="327,-694.5 181,-694.5 181,-664.5 327,-664.5 327,-694.5"/>
<text text-anchor="start" x="189" y="-682.5" font-family="Helvetica,sans-Serif" font-size="10.00">wmtk::MshReader::extract</text>
<text text-anchor="middle" x="254" y="-671.5" font-family="Helvetica,sans-Serif" font-size="10.00">_edges</text>
</a>
</g>
</g>
<!-- Node1&#45;&gt;Node3 -->
<g id="edge2_Node000001_Node000003" class="edge">
<title>Node1&#45;&gt;Node3</title>
<g id="a_edge2_Node000001_Node000003"><a xlink:title=" ">
<path fill="none" stroke="#63b8ff" d="M67.99,-387.06C70.56,-426.48 85.69,-577.97 169,-655.5 170.14,-656.57 171.33,-657.58 172.56,-658.56"/>
<polygon fill="#63b8ff" stroke="#63b8ff" points="170.92,-661.67 181.17,-664.36 174.83,-655.87 170.92,-661.67"/>
</a>
</g>
</g>
<!-- Node4 -->
<g id="Node000004" class="node">
<title>Node4</title>
<g id="a_Node000004"><a xlink:href="classwmtk_1_1_msh_reader.html#aee1ef092f5560041625ae03009e709e6" target="_top" xlink:title=" ">
<polygon fill="white" stroke="#666666" points="327,-646.5 181,-646.5 181,-616.5 327,-616.5 327,-646.5"/>
<text text-anchor="start" x="189" y="-634.5" font-family="Helvetica,sans-Serif" font-size="10.00">wmtk::MshReader::extract</text>
<text text-anchor="middle" x="254" y="-623.5" font-family="Helvetica,sans-Serif" font-size="10.00">_element_attribute</text>
</a>
</g>
</g>
<!-- Node1&#45;&gt;Node4 -->
<g id="edge3_Node000001_Node000004" class="edge">
<title>Node1&#45;&gt;Node4</title>
<g id="a_edge3_Node000001_Node000004"><a xlink:title=" ">
<path fill="none" stroke="#63b8ff" d="M68.8,-387.07C74.1,-422.16 97.26,-544.99 169,-607.5 170.34,-608.66 171.73,-609.77 173.16,-610.83"/>
<polygon fill="#63b8ff" stroke="#63b8ff" points="171.5,-613.92 181.82,-616.3 175.24,-608 171.5,-613.92"/>
</a>
</g>
</g>
<!-- Node6 -->
<g id="Node000006" class="node">
<title>Node6</title>
<g id="a_Node000006"><a xlink:href="classwmtk_1_1_msh_reader.html#a8045c70c2c7a8795adf9aef9c6f7185f" target="_top" xlink:title=" ">
<polygon fill="white" stroke="#666666" points="327,-598.5 181,-598.5 181,-568.5 327,-568.5 327,-598.5"/>
<text text-anchor="start" x="189" y="-586.5" font-family="Helvetica,sans-Serif" font-size="10.00">wmtk::MshReader::extract</text>
<text text-anchor="middle" x="254" y="-575.5" font-family="Helvetica,sans-Serif" font-size="10.00">_face_vertices</text>
</a>
</g>
</g>
<!-- Node1&#45;&gt;Node6 -->
<g id="edge5_Node000001_Node000006" class="edge">
<title>Node1&#45;&gt;Node6</title>
<g id="a_edge5_Node000001_Node000006"><a xlink:title=" ">
<path fill="none" stroke="#63b8ff" d="M70.02,-387.13C78.45,-417.43 108.61,-511.64 169,-559.5 170.6,-560.77 172.27,-561.98 174,-563.12"/>
<polygon fill="#63b8ff" stroke="#63b8ff" points="172.59,-566.34 183,-568.3 176.08,-560.28 172.59,-566.34"/>
</a>
</g>
</g>
<!-- Node7 -->
<g id="Node000007" class="node">
<title>Node7</title>
<g id="a_Node000007"><a xlink:href="classwmtk_1_1_msh_reader.html#a4dc55e5fdde3d97adebe88283914d24c" target="_top" xlink:title=" ">
<polygon fill="white" stroke="#666666" points="327,-550.5 181,-550.5 181,-520.5 327,-520.5 327,-550.5"/>
<text text-anchor="start" x="189" y="-538.5" font-family="Helvetica,sans-Serif" font-size="10.00">wmtk::MshReader::extract</text>
<text text-anchor="middle" x="254" y="-527.5" font-family="Helvetica,sans-Serif" font-size="10.00">_faces</text>
</a>
</g>
</g>
<!-- Node1&#45;&gt;Node7 -->
<g id="edge6_Node000001_Node000007" class="edge">
<title>Node1&#45;&gt;Node7</title>
<g id="a_edge6_Node000001_Node000007"><a xlink:title=" ">
<path fill="none" stroke="#63b8ff" d="M72.1,-387.31C84.24,-412.1 119.64,-477.7 169,-511.5 171.27,-513.05 173.64,-514.51 176.08,-515.87"/>
<polygon fill="#63b8ff" stroke="#63b8ff" points="174.69,-519.08 185.2,-520.4 177.8,-512.81 174.69,-519.08"/>
</a>
</g>
</g>
<!-- Node8 -->
<g id="Node000008" class="node">
<title>Node8</title>
<g id="a_Node000008"><a xlink:href="classwmtk_1_1_msh_reader.html#a31602d9861c306e1ca58a4f3f19b4e02" target="_top" xlink:title=" ">
<polygon fill="white" stroke="#666666" points="327,-502.5 181,-502.5 181,-472.5 327,-472.5 327,-502.5"/>
<text text-anchor="start" x="189" y="-490.5" font-family="Helvetica,sans-Serif" font-size="10.00">wmtk::MshReader::extract</text>
<text text-anchor="middle" x="254" y="-479.5" font-family="Helvetica,sans-Serif" font-size="10.00">_tet_vertices</text>
</a>
</g>
</g>
<!-- Node1&#45;&gt;Node8 -->
<g id="edge7_Node000001_Node000008" class="edge">
<title>Node1&#45;&gt;Node8</title>
<g id="a_edge7_Node000001_Node000008"><a xlink:title=" ">
<path fill="none" stroke="#63b8ff" d="M76.03,-387.02C92.35,-404.68 129.89,-442.61 169,-463.5 172.44,-465.34 176.03,-467.05 179.72,-468.64"/>
<polygon fill="#63b8ff" stroke="#63b8ff" points="178.44,-471.9 189.03,-472.35 181.03,-465.39 178.44,-471.9"/>
</a>
</g>
</g>
<!-- Node9 -->
<g id="Node000009" class="node">
<title>Node9</title>
<g id="a_Node000009"><a xlink:href="classwmtk_1_1_msh_reader.html#ae4607fef1acf5e758d861002f2a37d07" target="_top" xlink:title=" ">
<polygon fill="white" stroke="#666666" points="339,-454 169,-454 169,-435 339,-435 339,-454"/>
<text text-anchor="middle" x="254" y="-442" font-family="Helvetica,sans-Serif" font-size="10.00">wmtk::MshReader::extract_tets</text>
</a>
</g>
</g>
<!-- Node1&#45;&gt;Node9 -->
<g id="edge8_Node000001_Node000009" class="edge">
<title>Node1&#45;&gt;Node9</title>
<g id="a_edge8_Node000001_Node000009"><a xlink:title=" ">
<path fill="none" stroke="#63b8ff" d="M84.61,-387.02C104.41,-397.69 138.23,-414.89 169,-425.5 176.54,-428.1 184.58,-430.44 192.59,-432.52"/>
<polygon fill="#63b8ff" stroke="#63b8ff" points="191.76,-435.92 202.3,-434.92 193.44,-429.12 191.76,-435.92"/>
</a>
</g>
</g>
<!-- Node10 -->
<g id="Node000010" class="node">
<title>Node10</title>
<g id="a_Node000010"><a xlink:href="classwmtk_1_1_msh_reader.html#a66333941d3f41b8fcd84c3c686138468" target="_top" xlink:title=" ">
<polygon fill="white" stroke="#666666" points="317.5,-416.5 190.5,-416.5 190.5,-386.5 317.5,-386.5 317.5,-416.5"/>
<text text-anchor="start" x="198.5" y="-404.5" font-family="Helvetica,sans-Serif" font-size="10.00">wmtk::MshReader::get</text>
<text text-anchor="middle" x="254" y="-393.5" font-family="Helvetica,sans-Serif" font-size="10.00">_num_edges</text>
</a>
</g>
</g>
<!-- Node1&#45;&gt;Node10 -->
<g id="edge9_Node000001_Node000010" class="edge">
<title>Node1&#45;&gt;Node10</title>
<g id="a_edge9_Node000001_Node000010"><a xlink:title=" ">
<path fill="none" stroke="#63b8ff" d="M133.16,-386C148.38,-387.96 164.66,-390.07 180.17,-392.08"/>
<polygon fill="#63b8ff" stroke="#63b8ff" points="179.86,-395.57 190.23,-393.38 180.76,-388.62 179.86,-395.57"/>
</a>
</g>
</g>
<!-- Node11 -->
<g id="Node000011" class="node">
<title>Node11</title>
<g id="a_Node000011"><a xlink:href="classwmtk_1_1_msh_reader.html#a992a795093de4cb8852af91b6f33d6cb" target="_top" xlink:title=" ">
<polygon fill="white" stroke="#666666" points="317.5,-368.5 190.5,-368.5 190.5,-338.5 317.5,-338.5 317.5,-368.5"/>
<text text-anchor="start" x="198.5" y="-356.5" font-family="Helvetica,sans-Serif" font-size="10.00">wmtk::MshReader::get</text>
<text text-anchor="middle" x="254" y="-345.5" font-family="Helvetica,sans-Serif" font-size="10.00">_num_face_vertices</text>
</a>
</g>
</g>
<!-- Node1&#45;&gt;Node11 -->
<g id="edge10_Node000001_Node000011" class="edge">
<title>Node1&#45;&gt;Node11</title>
<g id="a_edge10_Node000001_Node000011"><a xlink:title=" ">
<path fill="none" stroke="#63b8ff" d="M133.16,-369C148.38,-367.04 164.66,-364.93 180.17,-362.92"/>
<polygon fill="#63b8ff" stroke="#63b8ff" points="180.76,-366.38 190.23,-361.62 179.86,-359.43 180.76,-366.38"/>
</a>
</g>
</g>
<!-- Node12 -->
<g id="Node000012" class="node">
<title>Node12</title>
<g id="a_Node000012"><a xlink:href="classwmtk_1_1_msh_reader.html#a13023b1fa7b02848942456a578fc0dd2" target="_top" xlink:title=" ">
<polygon fill="white" stroke="#666666" points="317.5,-320.5 190.5,-320.5 190.5,-290.5 317.5,-290.5 317.5,-320.5"/>
<text text-anchor="start" x="198.5" y="-308.5" font-family="Helvetica,sans-Serif" font-size="10.00">wmtk::MshReader::get</text>
<text text-anchor="middle" x="254" y="-297.5" font-family="Helvetica,sans-Serif" font-size="10.00">_num_faces</text>
</a>
</g>
</g>
<!-- Node1&#45;&gt;Node12 -->
<g id="edge11_Node000001_Node000012" class="edge">
<title>Node1&#45;&gt;Node12</title>
<g id="a_edge11_Node000001_Node000012"><a xlink:title=" ">
<path fill="none" stroke="#63b8ff" d="M85.45,-367.91C105.43,-357.5 138.9,-340.83 169,-329.5 174.46,-327.45 180.17,-325.47 185.93,-323.59"/>
<polygon fill="#63b8ff" stroke="#63b8ff" points="187.17,-326.87 195.66,-320.53 185.07,-320.19 187.17,-326.87"/>
</a>
</g>
</g>
<!-- Node13 -->
<g id="Node000013" class="node">
<title>Node13</title>
<g id="a_Node000013"><a xlink:href="classwmtk_1_1_msh_reader.html#a56a702077d70ba028a366286d2c9ad73" target="_top" xlink:title=" ">
<polygon fill="white" stroke="#666666" points="317.5,-272.5 190.5,-272.5 190.5,-242.5 317.5,-242.5 317.5,-272.5"/>
<text text-anchor="start" x="198.5" y="-260.5" font-family="Helvetica,sans-Serif" font-size="10.00">wmtk::MshReader::get</text>
<text text-anchor="middle" x="254" y="-249.5" font-family="Helvetica,sans-Serif" font-size="10.00">_num_tet_vertices</text>
</a>
</g>
</g>
<!-- Node1&#45;&gt;Node13 -->
<g id="edge12_Node000001_Node000013" class="edge">
<title>Node1&#45;&gt;Node13</title>
<g id="a_edge12_Node000001_Node000013"><a xlink:title=" ">
<path fill="none" stroke="#63b8ff" d="M75.04,-367.73C90.52,-348.36 127.91,-304.92 169,-281.5 172.71,-279.39 176.61,-277.45 180.63,-275.67"/>
<polygon fill="#63b8ff" stroke="#63b8ff" points="182.2,-278.81 190.16,-271.82 179.58,-272.32 182.2,-278.81"/>
</a>
</g>
</g>
<!-- Node14 -->
<g id="Node000014" class="node">
<title>Node14</title>
<g id="a_Node000014"><a xlink:href="classwmtk_1_1_msh_reader.html#aff67a9acab713b89eafc0d4412f3288d" target="_top" xlink:title=" ">
<polygon fill="white" stroke="#666666" points="317.5,-224.5 190.5,-224.5 190.5,-194.5 317.5,-194.5 317.5,-224.5"/>
<text text-anchor="start" x="198.5" y="-212.5" font-family="Helvetica,sans-Serif" font-size="10.00">wmtk::MshReader::get</text>
<text text-anchor="middle" x="254" y="-201.5" font-family="Helvetica,sans-Serif" font-size="10.00">_num_tets</text>
</a>
</g>
</g>
<!-- Node1&#45;&gt;Node14 -->
<g id="edge13_Node000001_Node000014" class="edge">
<title>Node1&#45;&gt;Node14</title>
<g id="a_edge13_Node000001_Node000014"><a xlink:title=" ">
<path fill="none" stroke="#63b8ff" d="M71.56,-367.72C82.88,-341.69 117.38,-270.16 169,-233.5 172.72,-230.86 176.72,-228.51 180.89,-226.42"/>
<polygon fill="#63b8ff" stroke="#63b8ff" points="182.54,-229.51 190.24,-222.23 179.68,-223.12 182.54,-229.51"/>
</a>
</g>
</g>
<!-- Node15 -->
<g id="Node000015" class="node">
<title>Node15</title>
<g id="a_Node000015"><a xlink:href="namespacewmtk.html#a441d6ad4f19569c7d4946e743da1a925" target="_top" xlink:title=" ">
<polygon fill="white" stroke="#666666" points="315,-176.5 193,-176.5 193,-146.5 315,-146.5 315,-176.5"/>
<text text-anchor="start" x="201" y="-164.5" font-family="Helvetica,sans-Serif" font-size="10.00">wmtk::log_and_throw</text>
<text text-anchor="middle" x="254" y="-153.5" font-family="Helvetica,sans-Serif" font-size="10.00">_error</text>
</a>
</g>
</g>
<!-- Node1&#45;&gt;Node15 -->
<g id="edge14_Node000001_Node000015" class="edge">
<title>Node1&#45;&gt;Node15</title>
<g id="a_edge14_Node000001_Node000015"><a xlink:title=" ">
<path fill="none" stroke="#63b8ff" d="M69.74,-367.8C77.51,-336.34 106.33,-236.32 169,-185.5 173.34,-181.98 178.18,-178.97 183.27,-176.41"/>
<polygon fill="#63b8ff" stroke="#63b8ff" points="184.95,-179.49 192.68,-172.25 182.11,-173.09 184.95,-179.49"/>
</a>
</g>
</g>
<!-- Node16 -->
<g id="Node000016" class="node">
<title>Node16</title>
<g id="a_Node000016"><a xlink:href="namespacewmtk.html#a6a35f11c12436093d26fdd8be6fecc06" target="_top" xlink:title="Retrieves the current logger.">
<polygon fill="white" stroke="#666666" points="499,-171 418,-171 418,-152 499,-152 499,-171"/>
<text text-anchor="middle" x="458.5" y="-159" font-family="Helvetica,sans-Serif" font-size="10.00">wmtk::logger</text>
</a>
</g>
</g>
<!-- Node1&#45;&gt;Node16 -->
<g id="edge17_Node000001_Node000016" class="edge">
<title>Node1&#45;&gt;Node16</title>
<g id="a_edge17_Node000001_Node000016"><a xlink:title=" ">
<path fill="none" stroke="#63b8ff" d="M68.04,-367.86C70.71,-330.21 86.04,-192.49 169,-137.5 206.93,-112.36 335.57,-134.8 407.6,-150.08"/>
<polygon fill="#63b8ff" stroke="#63b8ff" points="407.28,-153.59 417.8,-152.28 408.76,-146.75 407.28,-153.59"/>
</a>
</g>
</g>
<!-- Node18 -->
<g id="Node000018" class="node">
<title>Node18</title>
<g id="a_Node000018"><a xlink:href="namespacewmtk_1_1mesh__utils.html#ad92eb4095d516f6a20e25587f9effe80" target="_top" xlink:title=" ">
<polygon fill="white" stroke="#666666" points="316.5,-90.5 191.5,-90.5 191.5,-60.5 316.5,-60.5 316.5,-90.5"/>
<text text-anchor="start" x="199.5" y="-78.5" font-family="Helvetica,sans-Serif" font-size="10.00">wmtk::mesh_utils::set</text>
<text text-anchor="middle" x="254" y="-67.5" font-family="Helvetica,sans-Serif" font-size="10.00">_matrix_attribute</text>
</a>
</g>
</g>
<!-- Node1&#45;&gt;Node18 -->
<g id="edge18_Node000001_Node000018" class="edge">
<title>Node1&#45;&gt;Node18</title>
<g id="a_edge18_Node000001_Node000018"><a xlink:title=" ">
<path fill="none" stroke="#63b8ff" d="M68.19,-367.97C71.5,-329.31 89.06,-182.58 169,-104.5 173,-100.59 177.55,-97.21 182.42,-94.28"/>
<polygon fill="#63b8ff" stroke="#63b8ff" points="184.27,-97.26 191.47,-89.49 180.99,-91.08 184.27,-97.26"/>
</a>
</g>
</g>
<!-- Node22 -->
<g id="Node000022" class="node">
<title>Node22</title>
<g id="a_Node000022"><a xlink:href="namespacewmtk_1_1utils.html#a76b4d882261cf6aef7affd8b13c71efd" target="_top" xlink:title=" ">
<polygon fill="white" stroke="#666666" points="329.5,-24 178.5,-24 178.5,-5 329.5,-5 329.5,-24"/>
<text text-anchor="middle" x="254" y="-12" font-family="Helvetica,sans-Serif" font-size="10.00">wmtk::utils::wmtk_orient3d</text>
</a>
</g>
</g>
<!-- Node1&#45;&gt;Node22 -->
<g id="edge23_Node000001_Node000022" class="edge">
<title>Node1&#45;&gt;Node22</title>
<g id="a_edge23_Node000001_Node000022"><a xlink:title=" ">
<path fill="none" stroke="#63b8ff" d="M67.73,-367.85C69.23,-325.07 80.76,-150.32 169,-51.5 178.39,-40.98 191.33,-33.31 204.25,-27.78"/>
<polygon fill="#63b8ff" stroke="#63b8ff" points="205.56,-31.02 213.59,-24.12 203,-24.51 205.56,-31.02"/>
</a>
</g>
</g>
<!-- Node5 -->
<g id="Node000005" class="node">
<title>Node5</title>
<g id="a_Node000005"><a xlink:href="classwmtk_1_1_msh_reader.html#a7c87cee1adfc204dcceb07b91352d1d5" target="_top" xlink:title=" ">
<polygon fill="white" stroke="#666666" points="527.5,-646.5 389.5,-646.5 389.5,-616.5 527.5,-616.5 527.5,-646.5"/>
<text text-anchor="start" x="397.5" y="-634.5" font-family="Helvetica,sans-Serif" font-size="10.00">wmtk::MshReader::get</text>
<text text-anchor="middle" x="458.5" y="-623.5" font-family="Helvetica,sans-Serif" font-size="10.00">_simplex_element_block</text>
</a>
</g>
</g>
<!-- Node4&#45;&gt;Node5 -->
<g id="edge4_Node000004_Node000005" class="edge">
<title>Node4&#45;&gt;Node5</title>
<g id="a_edge4_Node000004_Node000005"><a xlink:title=" ">
<path fill="none" stroke="#63b8ff" d="M327.25,-631.5C343.99,-631.5 361.89,-631.5 378.89,-631.5"/>
<polygon fill="#63b8ff" stroke="#63b8ff" points="379.34,-635 389.34,-631.5 379.34,-628 379.34,-635"/>
</a>
</g>
</g>
<!-- Node15&#45;&gt;Node16 -->
<g id="edge15_Node000015_Node000016" class="edge">
<title>Node15&#45;&gt;Node16</title>
<g id="a_edge15_Node000015_Node000016"><a xlink:title=" ">
<path fill="none" stroke="#63b8ff" d="M315.21,-161.5C344.67,-161.5 379.72,-161.5 407.65,-161.5"/>
<polygon fill="#63b8ff" stroke="#63b8ff" points="407.99,-165 417.99,-161.5 407.99,-158 407.99,-165"/>
</a>
</g>
</g>
<!-- Node17 -->
<g id="Node000017" class="node">
<title>Node17</title>
<g id="a_Node000017"><a xlink:href="namespacewmtk.html#a3daa7951a5f8b78cf4600dc047fcc180" target="_top" xlink:title="Setup a logger object to be used by WildmeshToolkit.">
<polygon fill="white" stroke="#666666" points="679,-171 578,-171 578,-152 679,-152 679,-171"/>
<text text-anchor="middle" x="628.5" y="-159" font-family="Helvetica,sans-Serif" font-size="10.00">wmtk::set_logger</text>
</a>
</g>
</g>
<!-- Node16&#45;&gt;Node17 -->
<g id="edge16_Node000016_Node000017" class="edge">
<title>Node16&#45;&gt;Node17</title>
<g id="a_edge16_Node000016_Node000017"><a xlink:title=" ">
<path fill="none" stroke="#63b8ff" d="M499.31,-161.5C519.68,-161.5 544.88,-161.5 567.54,-161.5"/>
<polygon fill="#63b8ff" stroke="#63b8ff" points="567.74,-165 577.74,-161.5 567.74,-158 567.74,-165"/>
</a>
</g>
</g>
<!-- Node19 -->
<g id="Node000019" class="node">
<title>Node19</title>
<g id="a_Node000019"><a xlink:href="classwmtk_1_1attribute_1_1_mesh_attribute_handle.html#a9c02e0fc8ac13ad9f16ce928e7a2c84c" target="_top" xlink:title=" ">
<polygon fill="white" stroke="#666666" points="542,-133.5 375,-133.5 375,-103.5 542,-103.5 542,-133.5"/>
<text text-anchor="start" x="383" y="-121.5" font-family="Helvetica,sans-Serif" font-size="10.00">wmtk::attribute::MeshAttribute</text>
<text text-anchor="middle" x="458.5" y="-110.5" font-family="Helvetica,sans-Serif" font-size="10.00">Handle::as</text>
</a>
</g>
</g>
<!-- Node18&#45;&gt;Node19 -->
<g id="edge19_Node000018_Node000019" class="edge">
<title>Node18&#45;&gt;Node19</title>
<g id="a_edge19_Node000018_Node000019"><a xlink:title=" ">
<path fill="none" stroke="#63b8ff" d="M316.58,-88.58C335.49,-92.59 356.6,-97.07 376.6,-101.32"/>
<polygon fill="#63b8ff" stroke="#63b8ff" points="376.12,-104.8 386.63,-103.45 377.57,-97.95 376.12,-104.8"/>
</a>
</g>
</g>
<!-- Node20 -->
<g id="Node000020" class="node">
<title>Node20</title>
<g id="a_Node000020"><a xlink:href="classwmtk_1_1_mesh.html#a5f7e9ae7268c929db6161af3e2c6eb73" target="_top" xlink:title=" ">
<polygon fill="white" stroke="#666666" points="515,-85.5 402,-85.5 402,-55.5 515,-55.5 515,-85.5"/>
<text text-anchor="start" x="410" y="-73.5" font-family="Helvetica,sans-Serif" font-size="10.00">wmtk::Mesh::create</text>
<text text-anchor="middle" x="458.5" y="-62.5" font-family="Helvetica,sans-Serif" font-size="10.00">_accessor</text>
</a>
</g>
</g>
<!-- Node18&#45;&gt;Node20 -->
<g id="edge20_Node000018_Node000020" class="edge">
<title>Node18&#45;&gt;Node20</title>
<g id="a_edge20_Node000018_Node000020"><a xlink:title=" ">
<path fill="none" stroke="#63b8ff" d="M316.58,-73.98C340.3,-73.39 367.48,-72.72 391.59,-72.13"/>
<polygon fill="#63b8ff" stroke="#63b8ff" points="391.81,-75.62 401.72,-71.88 391.64,-68.63 391.81,-75.62"/>
</a>
</g>
</g>
<!-- Node21 -->
<g id="Node000021" class="node">
<title>Node21</title>
<g id="a_Node000021"><a xlink:href="classwmtk_1_1_mesh.html#a6d2a546c8f661bf6386cf845a1693d2f" target="_top" xlink:title="Generate a vector of Tuples from global vertex/edge/triangle/tetrahedron index.">
<polygon fill="white" stroke="#666666" points="516.5,-19 400.5,-19 400.5,0 516.5,0 516.5,-19"/>
<text text-anchor="middle" x="458.5" y="-7" font-family="Helvetica,sans-Serif" font-size="10.00">wmtk::Mesh::get_all</text>
</a>
</g>
</g>
<!-- Node18&#45;&gt;Node21 -->
<g id="edge21_Node000018_Node000021" class="edge">
<title>Node18&#45;&gt;Node21</title>
<g id="a_edge21_Node000018_Node000021"><a xlink:title=" ">
<path fill="none" stroke="#63b8ff" d="M309.82,-60.37C319.57,-57.53 329.61,-54.5 339,-51.5 367.2,-42.48 398.78,-31.23 422.24,-22.65"/>
<polygon fill="#63b8ff" stroke="#63b8ff" points="423.59,-25.88 431.77,-19.14 421.17,-19.31 423.59,-25.88"/>
</a>
</g>
</g>
<!-- Node21&#45;&gt;Node21 -->
<g id="edge22_Node000021_Node000021" class="edge">
<title>Node21&#45;&gt;Node21</title>
<g id="a_edge22_Node000021_Node000021"><a xlink:title=" ">
<path fill="none" stroke="#63b8ff" d="M432.3,-19.08C419.55,-27.73 428.29,-37 458.5,-37 478.8,-37 489.4,-32.82 490.31,-27.45"/>
<polygon fill="#63b8ff" stroke="#63b8ff" points="493.18,-25.44 484.7,-19.08 487.36,-29.34 493.18,-25.44"/>
</a>
</g>
</g>
<!-- Node22&#45;&gt;Node22 -->
<g id="edge24_Node000022_Node000022" class="edge">
<title>Node22&#45;&gt;Node22</title>
<g id="a_edge24_Node000022_Node000022"><a xlink:title=" ">
<path fill="none" stroke="#63b8ff" d="M225.33,-24.08C211.39,-32.73 220.94,-42 254,-42 276.73,-42 288.35,-37.62 288.86,-32.07"/>
<polygon fill="#63b8ff" stroke="#63b8ff" points="291.56,-29.84 282.67,-24.08 286.03,-34.13 291.56,-29.84"/>
</a>
</g>
</g>
</g>
</svg>

<g id="navigator" transform="translate(0 0)" fill="#404254">
  <rect fill="#f2f5e9" fill-opacity="0.5" stroke="#606060" stroke-width=".5" x="0" y="0" width="60" height="60"/>
  <use id="zoomplus" xlink:href="#zoomPlus" x="17" y="9" onmousedown="handleZoom(evt,'in')"/>
  <use id="zoomminus" xlink:href="#zoomMin" x="42" y="9" onmousedown="handleZoom(evt,'out')"/>
  <use id="reset" xlink:href="#resetDef" x="30" y="36" onmousedown="handleReset()"/>
   <use id="arrowup" xlink:href="#arrowUp" x="0" y="0" onmousedown="handlePan(0,-1)"/>
  <use id="arrowright" xlink:href="#arrowRight" x="0" y="0" onmousedown="handlePan(1,0)"/>
  <use id="arrowdown" xlink:href="#arrowDown" x="0" y="0" onmousedown="handlePan(0,1)"/>
  <use id="arrowleft" xlink:href="#arrowLeft" x="0" y="0" onmousedown="handlePan(-1,0)"/>
</g>
<svg viewBox="0 0 15 15" width="100%" height="30px" preserveAspectRatio="xMaxYMin meet">
 <g id="arrow_out" transform="scale(0.3 0.3)">
  <a xlink:href="classwmtk_1_1_msh_reader_afd780afbbde030daa41a17137bc37085_cgraph_org.svg" target="_base">
   <rect id="button" ry="5" rx="5" y="6" x="6" height="38" width="38"
        fill="#f2f5e9" fill-opacity="0.5" stroke="#606060" stroke-width="1.0"/>
   <path id="arrow"
     d="M 11.500037,31.436501 C 11.940474,20.09759 22.043105,11.32322 32.158766,21.979434 L 37.068811,17.246167 C 37.068811,17.246167 37.088388,32 37.088388,32 L 22.160133,31.978069 C 22.160133,31.978069 26.997745,27.140456 26.997745,27.140456 C 18.528582,18.264221 13.291696,25.230495 11.500037,31.436501 z"
     style="fill:#404040;"/>
  </a>
 </g>
</svg>

<style type='text/css'>
<![CDATA[
[data-mouse-over-selected='false'] { opacity: 0.7; }
[data-mouse-over-selected='true']  { opacity: 1.0; }
]]>
</style>
<script type="application/ecmascript"><![CDATA[
document.addEventListener('DOMContentLoaded', (event) => {
  highlightEdges();
  highlightAdjacentNodes();
});
]]></script>
</svg>
