<?xml version="1.0" encoding="UTF-8" standalone="no"?>
<!DOCTYPE svg PUBLIC "-//W3C//DTD SVG 1.1//EN"
 "http://www.w3.org/Graphics/SVG/1.1/DTD/svg11.dtd">
<!-- Generated by graphviz version 2.43.0 (0)
 -->
<!-- Title: wmtk::TriMesh::is_ccw Pages: 1 -->
<svg width="1784pt" height="563pt"
 viewBox="0.00 0.00 1784.00 563.20" xmlns="http://www.w3.org/2000/svg" xmlns:xlink="http://www.w3.org/1999/xlink">
<g id="graph0" class="graph" transform="scale(1 1) rotate(0) translate(4 559.2)">
<title>wmtk::TriMesh::is_ccw</title>
<!-- Node1 -->
<g id="Node000001" class="node">
<title>Node1</title>
<g id="a_Node000001"><a xlink:title="returns if a tuple is counterclockwise or not">
<polygon fill="#999999" stroke="#666666" points="126,-183.5 0,-183.5 0,-164.5 126,-164.5 126,-183.5"/>
<text text-anchor="middle" x="63" y="-171.5" font-family="Helvetica,sans-Serif" font-size="10.00">wmtk::TriMesh::is_ccw</text>
</a>
</g>
</g>
<!-- Node2 -->
<g id="Node000002" class="node">
<title>Node2</title>
<g id="a_Node000002"><a xlink:href="namespacewmtk_1_1autogen_1_1tri__mesh.html#aaab85f5120a223c29bae0881cd7f2c87" target="_top" xlink:title=" ">
<polygon fill="white" stroke="#666666" points="1244,-30 1137,-30 1137,0 1244,0 1244,-30"/>
<text text-anchor="start" x="1145" y="-18" font-family="Helvetica,sans-Serif" font-size="10.00">wmtk::autogen::tri</text>
<text text-anchor="middle" x="1190.5" y="-7" font-family="Helvetica,sans-Serif" font-size="10.00">_mesh::is_ccw</text>
</a>
</g>
</g>
<!-- Node1&#45;&gt;Node2 -->
<g id="edge1_Node000001_Node000002" class="edge">
<title>Node1&#45;&gt;Node2</title>
<g id="a_edge1_Node000001_Node000002"><a xlink:title=" ">
<path fill="none" stroke="#63b8ff" d="M75.46,-164.48C117.4,-130.61 267.67,-18 411.5,-18 411.5,-18 411.5,-18 798.5,-18 914.3,-18 1049.39,-16.67 1126.65,-15.78"/>
<polygon fill="#63b8ff" stroke="#63b8ff" points="1126.73,-19.28 1136.69,-15.66 1126.65,-12.28 1126.73,-19.28"/>
</a>
</g>
</g>
<!-- Node8 -->
<g id="Node000008" class="node">
<title>Node8</title>
<g id="a_Node000008"><a xlink:href="classwmtk_1_1_tri_mesh.html#a611704f60f24669e957325c7cb79f200" target="_top" xlink:title="check validity of tuple including its hash">
<polygon fill="white" stroke="#666666" points="293,-183.5 162,-183.5 162,-164.5 293,-164.5 293,-183.5"/>
<text text-anchor="middle" x="227.5" y="-171.5" font-family="Helvetica,sans-Serif" font-size="10.00">wmtk::TriMesh::is_valid</text>
</a>
</g>
</g>
<!-- Node1&#45;&gt;Node8 -->
<g id="edge8_Node000001_Node000008" class="edge">
<title>Node1&#45;&gt;Node8</title>
<g id="a_edge8_Node000001_Node000008"><a xlink:title=" ">
<path fill="none" stroke="#63b8ff" d="M126.36,-174C134.63,-174 143.18,-174 151.64,-174"/>
<polygon fill="#63b8ff" stroke="#63b8ff" points="151.88,-177.5 161.88,-174 151.88,-170.5 151.88,-177.5"/>
</a>
</g>
</g>
<!-- Node3 -->
<g id="Node000003" class="node">
<title>Node3</title>
<g id="a_Node000003"><a xlink:href="namespacewmtk_1_1autogen_1_1tri__mesh.html#a1c9b651c47ee993e160a8dca570cf35c" target="_top" xlink:title=" ">
<polygon fill="white" stroke="#666666" points="1592,-84.5 1470,-84.5 1470,-43.5 1592,-43.5 1592,-84.5"/>
<text text-anchor="start" x="1478" y="-72.5" font-family="Helvetica,sans-Serif" font-size="10.00">wmtk::autogen::tri</text>
<text text-anchor="start" x="1478" y="-61.5" font-family="Helvetica,sans-Serif" font-size="10.00">_mesh::local_id_table</text>
<text text-anchor="middle" x="1531" y="-50.5" font-family="Helvetica,sans-Serif" font-size="10.00">_offset</text>
</a>
</g>
</g>
<!-- Node2&#45;&gt;Node3 -->
<g id="edge2_Node000002_Node000003" class="edge">
<title>Node2&#45;&gt;Node3</title>
<g id="a_edge2_Node000002_Node000003"><a xlink:title=" ">
<path fill="none" stroke="#63b8ff" d="M1244.46,-15.74C1293.9,-17.23 1369.52,-21.56 1434,-34 1443.16,-35.77 1452.68,-38.1 1462.01,-40.7"/>
<polygon fill="#63b8ff" stroke="#63b8ff" points="1461.06,-44.06 1471.64,-43.47 1463,-37.34 1461.06,-44.06"/>
</a>
</g>
</g>
<!-- Node6 -->
<g id="Node000006" class="node">
<title>Node6</title>
<g id="a_Node000006"><a xlink:href="namespacewmtk_1_1autogen_1_1tri__mesh.html#a786155d6d2270c482ffd6a96d3211867" target="_top" xlink:title=" ">
<polygon fill="white" stroke="#666666" points="1422.5,-84.5 1300.5,-84.5 1300.5,-43.5 1422.5,-43.5 1422.5,-84.5"/>
<text text-anchor="start" x="1308.5" y="-72.5" font-family="Helvetica,sans-Serif" font-size="10.00">wmtk::autogen::tri</text>
<text text-anchor="start" x="1308.5" y="-61.5" font-family="Helvetica,sans-Serif" font-size="10.00">_mesh::tuple_is_valid</text>
<text text-anchor="middle" x="1361.5" y="-50.5" font-family="Helvetica,sans-Serif" font-size="10.00">_for_ccw</text>
</a>
</g>
</g>
<!-- Node2&#45;&gt;Node6 -->
<g id="edge5_Node000002_Node000006" class="edge">
<title>Node2&#45;&gt;Node6</title>
<g id="a_edge5_Node000002_Node000006"><a xlink:title=" ">
<path fill="none" stroke="#63b8ff" d="M1243.58,-30.1C1258.44,-34.41 1274.88,-39.17 1290.61,-43.74"/>
<polygon fill="#63b8ff" stroke="#63b8ff" points="1289.72,-47.12 1300.3,-46.55 1291.67,-40.4 1289.72,-47.12"/>
</a>
</g>
</g>
<!-- Node4 -->
<g id="Node000004" class="node">
<title>Node4</title>
<g id="a_Node000004"><a xlink:href="classwmtk_1_1utils_1_1_tuple_inspector.html#a3a04acf16e0eff80ade8e0fb8753ac1b" target="_top" xlink:title=" ">
<polygon fill="white" stroke="#666666" points="1776,-92 1628,-92 1628,-62 1776,-62 1776,-92"/>
<text text-anchor="start" x="1636" y="-80" font-family="Helvetica,sans-Serif" font-size="10.00">wmtk::utils::TupleInspector</text>
<text text-anchor="middle" x="1702" y="-69" font-family="Helvetica,sans-Serif" font-size="10.00">::local_eid</text>
</a>
</g>
</g>
<!-- Node3&#45;&gt;Node4 -->
<g id="edge3_Node000003_Node000004" class="edge">
<title>Node3&#45;&gt;Node4</title>
<g id="a_edge3_Node000003_Node000004"><a xlink:title=" ">
<path fill="none" stroke="#63b8ff" d="M1592.06,-68.62C1600.38,-69.26 1609.04,-69.93 1617.69,-70.59"/>
<polygon fill="#63b8ff" stroke="#63b8ff" points="1617.58,-74.09 1627.81,-71.37 1618.11,-67.11 1617.58,-74.09"/>
</a>
</g>
</g>
<!-- Node5 -->
<g id="Node000005" class="node">
<title>Node5</title>
<g id="a_Node000005"><a xlink:href="classwmtk_1_1utils_1_1_tuple_inspector.html#a92f5faa08a7f78424f5cd1ec79dcedbb" target="_top" xlink:title=" ">
<polygon fill="white" stroke="#666666" points="1776,-44 1628,-44 1628,-14 1776,-14 1776,-44"/>
<text text-anchor="start" x="1636" y="-32" font-family="Helvetica,sans-Serif" font-size="10.00">wmtk::utils::TupleInspector</text>
<text text-anchor="middle" x="1702" y="-21" font-family="Helvetica,sans-Serif" font-size="10.00">::local_vid</text>
</a>
</g>
</g>
<!-- Node3&#45;&gt;Node5 -->
<g id="edge4_Node000003_Node000005" class="edge">
<title>Node3&#45;&gt;Node5</title>
<g id="a_edge4_Node000003_Node000005"><a xlink:title=" ">
<path fill="none" stroke="#63b8ff" d="M1592.06,-51.56C1600.61,-49.79 1609.52,-47.95 1618.4,-46.11"/>
<polygon fill="#63b8ff" stroke="#63b8ff" points="1619.32,-49.49 1628.4,-44.04 1617.9,-42.64 1619.32,-49.49"/>
</a>
</g>
</g>
<!-- Node6&#45;&gt;Node3 -->
<g id="edge7_Node000006_Node000003" class="edge">
<title>Node6&#45;&gt;Node3</title>
<g id="a_edge7_Node000006_Node000003"><a xlink:title=" ">
<path fill="none" stroke="#63b8ff" d="M1422.97,-64C1434.9,-64 1447.52,-64 1459.75,-64"/>
<polygon fill="#63b8ff" stroke="#63b8ff" points="1459.9,-67.5 1469.9,-64 1459.9,-60.5 1459.9,-67.5"/>
</a>
</g>
</g>
<!-- Node7 -->
<g id="Node000007" class="node">
<title>Node7</title>
<g id="a_Node000007"><a xlink:href="classwmtk_1_1_tuple.html#a0023f575be92cd5ceeeaaaa3762ea06d" target="_top" xlink:title="Checks if a tuple is &quot;null&quot;. This merely implies the global index is &#45;1.">
<polygon fill="white" stroke="#666666" points="1758.5,-141.5 1645.5,-141.5 1645.5,-122.5 1758.5,-122.5 1758.5,-141.5"/>
<text text-anchor="middle" x="1702" y="-129.5" font-family="Helvetica,sans-Serif" font-size="10.00">wmtk::Tuple::is_null</text>
</a>
</g>
</g>
<!-- Node6&#45;&gt;Node7 -->
<g id="edge6_Node000006_Node000007" class="edge">
<title>Node6&#45;&gt;Node7</title>
<g id="a_edge6_Node000006_Node000007"><a xlink:title=" ">
<path fill="none" stroke="#63b8ff" d="M1422.52,-81.29C1437.92,-85.42 1454.52,-89.61 1470,-93 1525.34,-105.11 1588.84,-115.58 1635.24,-122.62"/>
<polygon fill="#63b8ff" stroke="#63b8ff" points="1634.76,-126.09 1645.17,-124.11 1635.8,-119.17 1634.76,-126.09"/>
</a>
</g>
</g>
<!-- Node8&#45;&gt;Node6 -->
<g id="edge42_Node000008_Node000006" class="edge">
<title>Node8&#45;&gt;Node6</title>
<g id="a_edge42_Node000008_Node000006"><a xlink:title=" ">
<path fill="none" stroke="#63b8ff" d="M236.71,-164.23C252.49,-146.23 289.05,-108.08 329,-91 443.6,-41.99 482.86,-58 607.5,-58 607.5,-58 607.5,-58 1002,-58 1101.97,-58 1217.6,-60.36 1289.9,-62.12"/>
<polygon fill="#63b8ff" stroke="#63b8ff" points="1290.16,-65.63 1300.25,-62.38 1290.33,-58.63 1290.16,-65.63"/>
</a>
</g>
</g>
<!-- Node9 -->
<g id="Node000009" class="node">
<title>Node9</title>
<g id="a_Node000009"><a xlink:href="classwmtk_1_1_tri_mesh.html#a6375662ccb85d7c8868b3c76d708bae5" target="_top" xlink:title=" ">
<polygon fill="white" stroke="#666666" points="496,-251 329,-251 329,-221 496,-221 496,-251"/>
<text text-anchor="start" x="337" y="-239" font-family="Helvetica,sans-Serif" font-size="10.00">wmtk::TriMesh::is_connectivity</text>
<text text-anchor="middle" x="412.5" y="-228" font-family="Helvetica,sans-Serif" font-size="10.00">_valid</text>
</a>
</g>
</g>
<!-- Node8&#45;&gt;Node9 -->
<g id="edge9_Node000008_Node000009" class="edge">
<title>Node8&#45;&gt;Node9</title>
<g id="a_edge9_Node000008_Node000009"><a xlink:title=" ">
<path fill="none" stroke="#63b8ff" d="M256.69,-183.55C283.43,-192.61 324.31,-206.46 357.35,-217.65"/>
<polygon fill="#63b8ff" stroke="#63b8ff" points="356.29,-220.99 366.88,-220.88 358.54,-214.36 356.29,-220.99"/>
</a>
</g>
</g>
<!-- Node25 -->
<g id="Node000025" class="node">
<title>Node25</title>
<g id="a_Node000025"><a xlink:href="classwmtk_1_1_mesh.html#a8cc8686f0688613806f43720b6db49e7" target="_top" xlink:title="check validity of tuple including its hash">
<polygon fill="white" stroke="#666666" points="1591,-178.5 1471,-178.5 1471,-159.5 1591,-159.5 1591,-178.5"/>
<text text-anchor="middle" x="1531" y="-166.5" font-family="Helvetica,sans-Serif" font-size="10.00">wmtk::Mesh::is_valid</text>
</a>
</g>
</g>
<!-- Node8&#45;&gt;Node25 -->
<g id="edge40_Node000008_Node000025" class="edge">
<title>Node8&#45;&gt;Node25</title>
<g id="a_edge40_Node000008_Node000025"><a xlink:title=" ">
<path fill="none" stroke="#63b8ff" d="M230.56,-183.86C237.93,-216.85 265.98,-324.68 329,-385 506.46,-554.86 628.43,-483.19 874,-477 970.98,-474.55 1000.01,-496.81 1092,-466 1278,-403.71 1458.4,-238.75 1513.17,-185.69"/>
<polygon fill="#63b8ff" stroke="#63b8ff" points="1515.62,-188.19 1520.33,-178.7 1510.73,-183.18 1515.62,-188.19"/>
</a>
</g>
</g>
<!-- Node29 -->
<g id="Node000029" class="node">
<title>Node29</title>
<g id="a_Node000029"><a xlink:href="namespacewmtk.html#a6a35f11c12436093d26fdd8be6fecc06" target="_top" xlink:title="Retrieves the current logger.">
<polygon fill="white" stroke="#666666" points="649,-105.5 568,-105.5 568,-86.5 649,-86.5 649,-105.5"/>
<text text-anchor="middle" x="608.5" y="-93.5" font-family="Helvetica,sans-Serif" font-size="10.00">wmtk::logger</text>
</a>
</g>
</g>
<!-- Node8&#45;&gt;Node29 -->
<g id="edge41_Node000008_Node000029" class="edge">
<title>Node8&#45;&gt;Node29</title>
<g id="a_edge41_Node000008_Node000029"><a xlink:title=" ">
<path fill="none" stroke="#63b8ff" d="M242.02,-164.39C260.62,-151.74 295.59,-129.95 329,-120 406.5,-96.91 501.1,-93.71 557.71,-94.29"/>
<polygon fill="#63b8ff" stroke="#63b8ff" points="557.77,-97.79 567.82,-94.44 557.88,-90.79 557.77,-97.79"/>
</a>
</g>
</g>
<!-- Node10 -->
<g id="Node000010" class="node">
<title>Node10</title>
<g id="a_Node000010"><a xlink:href="classwmtk_1_1_mesh.html#a3e8ff83c4a5526a40d18bb9883c6c6c9" target="_top" xlink:title="read in the m_capacities return the upper bound for the number of entities of the given dimension">
<polygon fill="white" stroke="#666666" points="859.5,-324.5 735.5,-324.5 735.5,-305.5 859.5,-305.5 859.5,-324.5"/>
<text text-anchor="middle" x="797.5" y="-312.5" font-family="Helvetica,sans-Serif" font-size="10.00">wmtk::Mesh::capacity</text>
</a>
</g>
</g>
<!-- Node9&#45;&gt;Node10 -->
<g id="edge10_Node000009_Node000010" class="edge">
<title>Node9&#45;&gt;Node10</title>
<g id="a_edge10_Node000009_Node000010"><a xlink:title=" ">
<path fill="none" stroke="#63b8ff" d="M496.18,-245.15C550.33,-252.03 622.41,-262.89 685,-278 711.3,-284.35 740.29,-294.06 762.12,-301.94"/>
<polygon fill="#63b8ff" stroke="#63b8ff" points="761.01,-305.26 771.61,-305.41 763.42,-298.68 761.01,-305.26"/>
</a>
</g>
</g>
<!-- Node12 -->
<g id="Node000012" class="node">
<title>Node12</title>
<g id="a_Node000012"><a xlink:href="classwmtk_1_1attribute_1_1_caching_accessor.html#a196b6b32e2495b971113d552be7f45d9" target="_top" xlink:title=" ">
<polygon fill="white" stroke="#666666" points="677,-386.5 540,-386.5 540,-345.5 677,-345.5 677,-386.5"/>
<text text-anchor="start" x="548" y="-374.5" font-family="Helvetica,sans-Serif" font-size="10.00">wmtk::attribute::Caching</text>
<text text-anchor="start" x="548" y="-363.5" font-family="Helvetica,sans-Serif" font-size="10.00">Accessor::const_scalar</text>
<text text-anchor="middle" x="608.5" y="-352.5" font-family="Helvetica,sans-Serif" font-size="10.00">_attribute</text>
</a>
</g>
</g>
<!-- Node9&#45;&gt;Node12 -->
<g id="edge12_Node000009_Node000012" class="edge">
<title>Node9&#45;&gt;Node12</title>
<g id="a_edge12_Node000009_Node000012"><a xlink:title=" ">
<path fill="none" stroke="#63b8ff" d="M427.92,-251.21C449.04,-272.75 490.41,-312.28 532,-337 534.3,-338.37 536.67,-339.69 539.09,-340.97"/>
<polygon fill="#63b8ff" stroke="#63b8ff" points="537.54,-344.1 548.06,-345.4 540.65,-337.83 537.54,-344.1"/>
</a>
</g>
</g>
<!-- Node13 -->
<g id="Node000013" class="node">
<title>Node13</title>
<g id="a_Node000013"><a xlink:href="classwmtk_1_1attribute_1_1_caching_accessor.html#ab850fe07669c7bc92ca6cf6e86c60ee0" target="_top" xlink:title=" ">
<polygon fill="white" stroke="#666666" points="677,-327.5 540,-327.5 540,-286.5 677,-286.5 677,-327.5"/>
<text text-anchor="start" x="548" y="-315.5" font-family="Helvetica,sans-Serif" font-size="10.00">wmtk::attribute::Caching</text>
<text text-anchor="start" x="548" y="-304.5" font-family="Helvetica,sans-Serif" font-size="10.00">Accessor::const_vector</text>
<text text-anchor="middle" x="608.5" y="-293.5" font-family="Helvetica,sans-Serif" font-size="10.00">_attribute</text>
</a>
</g>
</g>
<!-- Node9&#45;&gt;Node13 -->
<g id="edge13_Node000009_Node000013" class="edge">
<title>Node9&#45;&gt;Node13</title>
<g id="a_edge13_Node000009_Node000013"><a xlink:title=" ">
<path fill="none" stroke="#63b8ff" d="M454.64,-251.06C479.92,-260.31 512.89,-272.37 541.72,-282.93"/>
<polygon fill="#63b8ff" stroke="#63b8ff" points="540.74,-286.29 551.33,-286.44 543.14,-279.72 540.74,-286.29"/>
</a>
</g>
</g>
<!-- Node14 -->
<g id="Node000014" class="node">
<title>Node14</title>
<g id="a_Node000014"><a xlink:href="classwmtk_1_1_mesh.html#ae0e8f71e9e17a90be9423117efcc4c81" target="_top" xlink:title=" ">
<polygon fill="white" stroke="#666666" points="669.5,-435 547.5,-435 547.5,-405 669.5,-405 669.5,-435"/>
<text text-anchor="start" x="555.5" y="-423" font-family="Helvetica,sans-Serif" font-size="10.00">wmtk::Mesh::get_flag</text>
<text text-anchor="middle" x="608.5" y="-412" font-family="Helvetica,sans-Serif" font-size="10.00">_accessor</text>
</a>
</g>
</g>
<!-- Node9&#45;&gt;Node14 -->
<g id="edge14_Node000009_Node000014" class="edge">
<title>Node9&#45;&gt;Node14</title>
<g id="a_edge14_Node000009_Node000014"><a xlink:title=" ">
<path fill="none" stroke="#63b8ff" d="M420.65,-251.27C436.29,-283 476.6,-356.4 532,-396 534.11,-397.5 536.31,-398.92 538.58,-400.24"/>
<polygon fill="#63b8ff" stroke="#63b8ff" points="537.18,-403.46 547.67,-404.95 540.4,-397.24 537.18,-403.46"/>
</a>
</g>
</g>
<!-- Node17 -->
<g id="Node000017" class="node">
<title>Node17</title>
<g id="a_Node000017"><a xlink:href="classwmtk_1_1attribute_1_1_accessor.html#a2d587e12c47a6d839ab80e9198cf75b5" target="_top" xlink:title=" ">
<polygon fill="white" stroke="#666666" points="679.5,-230 537.5,-230 537.5,-200 679.5,-200 679.5,-230"/>
<text text-anchor="start" x="545.5" y="-218" font-family="Helvetica,sans-Serif" font-size="10.00">wmtk::attribute::Accessor</text>
<text text-anchor="middle" x="608.5" y="-207" font-family="Helvetica,sans-Serif" font-size="10.00">::index_access</text>
</a>
</g>
</g>
<!-- Node9&#45;&gt;Node17 -->
<g id="edge18_Node000009_Node000017" class="edge">
<title>Node9&#45;&gt;Node17</title>
<g id="a_edge18_Node000009_Node000017"><a xlink:title=" ">
<path fill="none" stroke="#63b8ff" d="M496.05,-227.06C506.34,-225.95 516.85,-224.81 527.1,-223.7"/>
<polygon fill="#63b8ff" stroke="#63b8ff" points="527.69,-227.16 537.26,-222.6 526.94,-220.2 527.69,-227.16"/>
</a>
</g>
</g>
<!-- Node19 -->
<g id="Node000019" class="node">
<title>Node19</title>
<g id="a_Node000019"><a xlink:href="classwmtk_1_1_tri_mesh.html#a2e568aaaffd6e68904c5cecd8256ed93" target="_top" xlink:title="returns if a simplex is on the boundary of hte mesh. For anything but dimension &#45; 1 this checks if th...">
<polygon fill="white" stroke="#666666" points="685,-181.5 532,-181.5 532,-162.5 685,-162.5 685,-181.5"/>
<text text-anchor="middle" x="608.5" y="-169.5" font-family="Helvetica,sans-Serif" font-size="10.00">wmtk::TriMesh::is_boundary</text>
</a>
</g>
</g>
<!-- Node9&#45;&gt;Node19 -->
<g id="edge20_Node000009_Node000019" class="edge">
<title>Node9&#45;&gt;Node19</title>
<g id="a_edge20_Node000009_Node000019"><a xlink:title=" ">
<path fill="none" stroke="#63b8ff" d="M449.94,-220.9C473.19,-211.58 504.08,-199.78 532,-191 539.7,-188.58 547.92,-186.25 555.99,-184.11"/>
<polygon fill="#63b8ff" stroke="#63b8ff" points="556.91,-187.49 565.72,-181.59 555.16,-180.71 556.91,-187.49"/>
</a>
</g>
</g>
<!-- Node9&#45;&gt;Node29 -->
<g id="edge38_Node000009_Node000029" class="edge">
<title>Node9&#45;&gt;Node29</title>
<g id="a_edge38_Node000009_Node000029"><a xlink:title=" ">
<path fill="none" stroke="#63b8ff" d="M434.63,-220.75C471.72,-193.98 548.17,-138.81 585.72,-111.72"/>
<polygon fill="#63b8ff" stroke="#63b8ff" points="587.9,-114.46 593.96,-105.77 583.8,-108.79 587.9,-114.46"/>
</a>
</g>
</g>
<!-- Node11 -->
<g id="Node000011" class="node">
<title>Node11</title>
<g id="a_Node000011"><a xlink:href="namespacewmtk.html#a5cf45c152e856196bb734c6f48919a24" target="_top" xlink:title="Get a unique integer id corresponding to each primitive type.">
<polygon fill="white" stroke="#666666" points="1059,-338 943,-338 943,-308 1059,-308 1059,-338"/>
<text text-anchor="start" x="951" y="-326" font-family="Helvetica,sans-Serif" font-size="10.00">wmtk::get_primitive</text>
<text text-anchor="middle" x="1001" y="-315" font-family="Helvetica,sans-Serif" font-size="10.00">_type_id</text>
</a>
</g>
</g>
<!-- Node10&#45;&gt;Node11 -->
<g id="edge11_Node000010_Node000011" class="edge">
<title>Node10&#45;&gt;Node11</title>
<g id="a_edge11_Node000010_Node000011"><a xlink:title=" ">
<path fill="none" stroke="#63b8ff" d="M859.5,-317.42C882.61,-318.34 909.04,-319.39 932.69,-320.33"/>
<polygon fill="#63b8ff" stroke="#63b8ff" points="932.86,-323.84 942.99,-320.74 933.14,-316.84 932.86,-323.84"/>
</a>
</g>
</g>
<!-- Node15 -->
<g id="Node000015" class="node">
<title>Node15</title>
<g id="a_Node000015"><a xlink:href="classwmtk_1_1_mesh.html#a6dbab927a2ee85f77a87f075fd5c1d94" target="_top" xlink:title=" ">
<polygon fill="white" stroke="#666666" points="862.5,-419 732.5,-419 732.5,-389 862.5,-389 862.5,-419"/>
<text text-anchor="start" x="740.5" y="-407" font-family="Helvetica,sans-Serif" font-size="10.00">wmtk::Mesh::get_const</text>
<text text-anchor="middle" x="797.5" y="-396" font-family="Helvetica,sans-Serif" font-size="10.00">_flag_accessor</text>
</a>
</g>
</g>
<!-- Node14&#45;&gt;Node15 -->
<g id="edge15_Node000014_Node000015" class="edge">
<title>Node14&#45;&gt;Node15</title>
<g id="a_edge15_Node000014_Node000015"><a xlink:title=" ">
<path fill="none" stroke="#63b8ff" d="M669.7,-414.85C686.39,-413.42 704.71,-411.85 722.1,-410.37"/>
<polygon fill="#63b8ff" stroke="#63b8ff" points="722.56,-413.84 732.22,-409.5 721.96,-406.87 722.56,-413.84"/>
</a>
</g>
</g>
<!-- Node15&#45;&gt;Node11 -->
<g id="edge17_Node000015_Node000011" class="edge">
<title>Node15&#45;&gt;Node11</title>
<g id="a_edge17_Node000015_Node000011"><a xlink:title=" ">
<path fill="none" stroke="#63b8ff" d="M835.93,-388.95C868.91,-375.7 917.11,-356.32 952.74,-342"/>
<polygon fill="#63b8ff" stroke="#63b8ff" points="954.46,-345.08 962.43,-338.1 951.85,-338.58 954.46,-345.08"/>
</a>
</g>
</g>
<!-- Node16 -->
<g id="Node000016" class="node">
<title>Node16</title>
<g id="a_Node000016"><a xlink:href="classwmtk_1_1_mesh.html#a357182137d99f1e4a7ff536eadfc0e56" target="_top" xlink:title=" ">
<polygon fill="white" stroke="#666666" points="1057.5,-419 944.5,-419 944.5,-389 1057.5,-389 1057.5,-419"/>
<text text-anchor="start" x="952.5" y="-407" font-family="Helvetica,sans-Serif" font-size="10.00">wmtk::Mesh::create</text>
<text text-anchor="middle" x="1001" y="-396" font-family="Helvetica,sans-Serif" font-size="10.00">_const_accessor</text>
</a>
</g>
</g>
<!-- Node15&#45;&gt;Node16 -->
<g id="edge16_Node000015_Node000016" class="edge">
<title>Node15&#45;&gt;Node16</title>
<g id="a_edge16_Node000015_Node000016"><a xlink:title=" ">
<path fill="none" stroke="#63b8ff" d="M862.53,-404C885.42,-404 911.24,-404 934.27,-404"/>
<polygon fill="#63b8ff" stroke="#63b8ff" points="934.29,-407.5 944.29,-404 934.29,-400.5 934.29,-407.5"/>
</a>
</g>
</g>
<!-- Node18 -->
<g id="Node000018" class="node">
<title>Node18</title>
<g id="a_Node000018"><a xlink:href="classwmtk_1_1attribute_1_1_accessor.html#afd97a48ec5d1db975a030428df81f617" target="_top" xlink:title=" ">
<polygon fill="white" stroke="#666666" points="868.5,-278 726.5,-278 726.5,-248 868.5,-248 868.5,-278"/>
<text text-anchor="start" x="734.5" y="-266" font-family="Helvetica,sans-Serif" font-size="10.00">wmtk::attribute::Accessor</text>
<text text-anchor="middle" x="797.5" y="-255" font-family="Helvetica,sans-Serif" font-size="10.00">::caching_base_type</text>
</a>
</g>
</g>
<!-- Node17&#45;&gt;Node18 -->
<g id="edge19_Node000017_Node000018" class="edge">
<title>Node17&#45;&gt;Node18</title>
<g id="a_edge19_Node000017_Node000018"><a xlink:title=" ">
<path fill="none" stroke="#63b8ff" d="M668.15,-230.06C687.21,-234.95 708.53,-240.42 728.23,-245.48"/>
<polygon fill="#63b8ff" stroke="#63b8ff" points="727.5,-248.9 738.05,-248 729.24,-242.12 727.5,-248.9"/>
</a>
</g>
</g>
<!-- Node20 -->
<g id="Node000020" class="node">
<title>Node20</title>
<g id="a_Node000020"><a xlink:href="classwmtk_1_1_tri_mesh.html#ac603f7969b10c674eb00e007a507a530" target="_top" xlink:title=" ">
<polygon fill="white" stroke="#666666" points="1092,-215.5 910,-215.5 910,-196.5 1092,-196.5 1092,-215.5"/>
<text text-anchor="middle" x="1001" y="-203.5" font-family="Helvetica,sans-Serif" font-size="10.00">wmtk::TriMesh::is_boundary_edge</text>
</a>
</g>
</g>
<!-- Node19&#45;&gt;Node20 -->
<g id="edge21_Node000019_Node000020" class="edge">
<title>Node19&#45;&gt;Node20</title>
<g id="a_edge21_Node000019_Node000020"><a xlink:title=" ">
<path fill="none" stroke="#63b8ff" d="M645.88,-181.53C667.54,-186.77 695.65,-192.84 721,-196 779.97,-203.34 846.44,-205.95 899.71,-206.67"/>
<polygon fill="#63b8ff" stroke="#63b8ff" points="899.8,-210.17 909.84,-206.78 899.88,-203.17 899.8,-210.17"/>
</a>
</g>
</g>
<!-- Node21 -->
<g id="Node000021" class="node">
<title>Node21</title>
<g id="a_Node000021"><a xlink:href="classwmtk_1_1_tri_mesh.html#a1d5d124897281d6a649098213173fdb5" target="_top" xlink:title=" ">
<polygon fill="white" stroke="#666666" points="874,-154 721,-154 721,-124 874,-124 874,-154"/>
<text text-anchor="start" x="729" y="-142" font-family="Helvetica,sans-Serif" font-size="10.00">wmtk::TriMesh::is_boundary</text>
<text text-anchor="middle" x="797.5" y="-131" font-family="Helvetica,sans-Serif" font-size="10.00">_vertex</text>
</a>
</g>
</g>
<!-- Node19&#45;&gt;Node21 -->
<g id="edge23_Node000019_Node000021" class="edge">
<title>Node19&#45;&gt;Node21</title>
<g id="a_edge23_Node000019_Node000021"><a xlink:title=" ">
<path fill="none" stroke="#63b8ff" d="M663.34,-162.5C678.17,-159.88 694.64,-156.98 710.79,-154.12"/>
<polygon fill="#63b8ff" stroke="#63b8ff" points="711.55,-157.54 720.79,-152.36 710.34,-150.65 711.55,-157.54"/>
</a>
</g>
</g>
<!-- Node20&#45;&gt;Node8 -->
<g id="edge22_Node000020_Node000008" class="edge">
<title>Node20&#45;&gt;Node8</title>
<g id="a_edge22_Node000020_Node000008"><a xlink:title=" ">
<path fill="none" stroke="#63b8ff" d="M925.95,-196.48C869.53,-188.77 790.06,-176.92 721,-163 704.83,-159.74 701.37,-156.02 685,-154 551.19,-137.53 393.86,-151.74 303.2,-163.16"/>
<polygon fill="#63b8ff" stroke="#63b8ff" points="302.5,-159.72 293.02,-164.46 303.39,-166.66 302.5,-159.72"/>
</a>
</g>
</g>
<!-- Node21&#45;&gt;Node20 -->
<g id="edge24_Node000021_Node000020" class="edge">
<title>Node21&#45;&gt;Node20</title>
<g id="a_edge24_Node000021_Node000020"><a xlink:title=" ">
<path fill="none" stroke="#63b8ff" d="M840.87,-154.08C851.79,-158.29 863.44,-163.07 874,-168 890.58,-175.74 892.82,-181.69 910,-188 915.99,-190.2 922.3,-192.15 928.7,-193.88"/>
<polygon fill="#63b8ff" stroke="#63b8ff" points="928.22,-197.37 938.78,-196.42 929.93,-190.58 928.22,-197.37"/>
</a>
</g>
</g>
<!-- Node22 -->
<g id="Node000022" class="node">
<title>Node22</title>
<g id="a_Node000022"><a xlink:href="classwmtk_1_1_tri_mesh.html#a79010f8baac63245558c846aafea10d0" target="_top" xlink:title=" ">
<polygon fill="white" stroke="#666666" points="1078.5,-141.5 923.5,-141.5 923.5,-122.5 1078.5,-122.5 1078.5,-141.5"/>
<text text-anchor="middle" x="1001" y="-129.5" font-family="Helvetica,sans-Serif" font-size="10.00">wmtk::TriMesh::switch_edge</text>
</a>
</g>
</g>
<!-- Node21&#45;&gt;Node22 -->
<g id="edge25_Node000021_Node000022" class="edge">
<title>Node21&#45;&gt;Node22</title>
<g id="a_edge25_Node000021_Node000022"><a xlink:title=" ">
<path fill="none" stroke="#63b8ff" d="M874.1,-136.37C886.79,-135.93 900.05,-135.47 913,-135.02"/>
<polygon fill="#63b8ff" stroke="#63b8ff" points="913.43,-138.51 923.3,-134.66 913.19,-131.51 913.43,-138.51"/>
</a>
</g>
</g>
<!-- Node28 -->
<g id="Node000028" class="node">
<title>Node28</title>
<g id="a_Node000028"><a xlink:href="classwmtk_1_1_tri_mesh.html#a0ecb0fd199e840ff9f3d206abc10a64b" target="_top" xlink:title=" ">
<polygon fill="white" stroke="#666666" points="1077,-178.5 925,-178.5 925,-159.5 1077,-159.5 1077,-178.5"/>
<text text-anchor="middle" x="1001" y="-166.5" font-family="Helvetica,sans-Serif" font-size="10.00">wmtk::TriMesh::switch_face</text>
</a>
</g>
</g>
<!-- Node21&#45;&gt;Node28 -->
<g id="edge36_Node000021_Node000028" class="edge">
<title>Node21&#45;&gt;Node28</title>
<g id="a_edge36_Node000021_Node000028"><a xlink:title=" ">
<path fill="none" stroke="#63b8ff" d="M874.1,-150.26C891.03,-152.78 908.96,-155.45 925.83,-157.96"/>
<polygon fill="#63b8ff" stroke="#63b8ff" points="925.77,-161.49 936.17,-159.5 926.8,-154.56 925.77,-161.49"/>
</a>
</g>
</g>
<!-- Node23 -->
<g id="Node000023" class="node">
<title>Node23</title>
<g id="a_Node000023"><a xlink:href="classwmtk_1_1_tri_mesh.html#a17b808a46d1a31efc12d555e6721bd02" target="_top" xlink:title="switch the orientation of the Tuple of the given dimension">
<polygon fill="white" stroke="#666666" points="1253,-184 1128,-184 1128,-154 1253,-154 1253,-184"/>
<text text-anchor="start" x="1136" y="-172" font-family="Helvetica,sans-Serif" font-size="10.00">wmtk::TriMesh::switch</text>
<text text-anchor="middle" x="1190.5" y="-161" font-family="Helvetica,sans-Serif" font-size="10.00">_tuple</text>
</a>
</g>
</g>
<!-- Node22&#45;&gt;Node23 -->
<g id="edge26_Node000022_Node000023" class="edge">
<title>Node22&#45;&gt;Node23</title>
<g id="a_edge26_Node000022_Node000023"><a xlink:title=" ">
<path fill="none" stroke="#63b8ff" d="M1050.29,-141.53C1070.89,-145.59 1095.36,-150.42 1118,-154.89"/>
<polygon fill="#63b8ff" stroke="#63b8ff" points="1117.42,-158.34 1127.91,-156.85 1118.77,-151.48 1117.42,-158.34"/>
</a>
</g>
</g>
<!-- Node23&#45;&gt;Node1 -->
<g id="edge32_Node000023_Node000001" class="edge">
<title>Node23&#45;&gt;Node1</title>
<g id="a_edge32_Node000023_Node000001"><a xlink:title=" ">
<path fill="none" stroke="#63b8ff" d="M1189.65,-184.3C1189.23,-233.85 1180.69,-391.02 1092,-466 926.38,-606.03 826.38,-539 609.5,-539 411.5,-539 411.5,-539 411.5,-539 218.86,-539 100.54,-269.02 71.19,-193.45"/>
<polygon fill="#63b8ff" stroke="#63b8ff" points="74.34,-191.87 67.51,-183.76 67.8,-194.35 74.34,-191.87"/>
</a>
</g>
</g>
<!-- Node23&#45;&gt;Node8 -->
<g id="edge33_Node000023_Node000008" class="edge">
<title>Node23&#45;&gt;Node8</title>
<g id="a_edge33_Node000023_Node000008"><a xlink:title=" ">
<path fill="none" stroke="#63b8ff" d="M1188.94,-184.08C1186.36,-229.43 1171.98,-365.32 1092,-428 988.6,-509.03 929.87,-463 798.5,-463 607.5,-463 607.5,-463 607.5,-463 428.05,-463 280.65,-255.6 239.78,-192.19"/>
<polygon fill="#63b8ff" stroke="#63b8ff" points="242.65,-190.19 234.34,-183.62 236.74,-193.93 242.65,-190.19"/>
</a>
</g>
</g>
<!-- Node24 -->
<g id="Node000024" class="node">
<title>Node24</title>
<g id="a_Node000024"><a xlink:href="classwmtk_1_1_tri_mesh.html#a9975c25ed665c9c9a7f1ae92818a1b7c" target="_top" xlink:title=" ">
<polygon fill="white" stroke="#666666" points="1413,-178.5 1310,-178.5 1310,-159.5 1413,-159.5 1413,-178.5"/>
<text text-anchor="middle" x="1361.5" y="-166.5" font-family="Helvetica,sans-Serif" font-size="10.00">wmtk::TriMesh::id</text>
</a>
</g>
</g>
<!-- Node23&#45;&gt;Node24 -->
<g id="edge27_Node000023_Node000024" class="edge">
<title>Node23&#45;&gt;Node24</title>
<g id="a_edge27_Node000023_Node000024"><a xlink:title=" ">
<path fill="none" stroke="#63b8ff" d="M1253.47,-169C1268.55,-169 1284.66,-169 1299.68,-169"/>
<polygon fill="#63b8ff" stroke="#63b8ff" points="1299.89,-172.5 1309.89,-169 1299.89,-165.5 1299.89,-172.5"/>
</a>
</g>
</g>
<!-- Node27 -->
<g id="Node000027" class="node">
<title>Node27</title>
<g id="a_Node000027"><a xlink:href="namespacewmtk_1_1autogen_1_1tri__mesh.html#a91e6b348f528d93ad6d9031bae1480da" target="_top" xlink:title=" ">
<polygon fill="white" stroke="#666666" points="1434,-137 1289,-137 1289,-107 1434,-107 1434,-137"/>
<text text-anchor="start" x="1297" y="-125" font-family="Helvetica,sans-Serif" font-size="10.00">wmtk::autogen::tri</text>
<text text-anchor="middle" x="1361.5" y="-114" font-family="Helvetica,sans-Serif" font-size="10.00">_mesh::local_switch_tuple</text>
</a>
</g>
</g>
<!-- Node23&#45;&gt;Node27 -->
<g id="edge34_Node000023_Node000027" class="edge">
<title>Node23&#45;&gt;Node27</title>
<g id="a_edge34_Node000023_Node000027"><a xlink:title=" ">
<path fill="none" stroke="#63b8ff" d="M1245.44,-154C1261.75,-149.46 1279.82,-144.44 1296.71,-139.74"/>
<polygon fill="#63b8ff" stroke="#63b8ff" points="1297.8,-143.07 1306.5,-137.02 1295.92,-136.33 1297.8,-143.07"/>
</a>
</g>
</g>
<!-- Node24&#45;&gt;Node25 -->
<g id="edge28_Node000024_Node000025" class="edge">
<title>Node24&#45;&gt;Node25</title>
<g id="a_edge28_Node000024_Node000025"><a xlink:title=" ">
<path fill="none" stroke="#63b8ff" d="M1413.21,-169C1428.14,-169 1444.73,-169 1460.62,-169"/>
<polygon fill="#63b8ff" stroke="#63b8ff" points="1460.93,-172.5 1470.93,-169 1460.93,-165.5 1460.93,-172.5"/>
</a>
</g>
</g>
<!-- Node25&#45;&gt;Node7 -->
<g id="edge29_Node000025_Node000007" class="edge">
<title>Node25&#45;&gt;Node7</title>
<g id="a_edge29_Node000025_Node000007"><a xlink:title=" ">
<path fill="none" stroke="#63b8ff" d="M1575.52,-159.47C1597.42,-154.68 1624.15,-148.82 1647.31,-143.75"/>
<polygon fill="#63b8ff" stroke="#63b8ff" points="1648.31,-147.12 1657.33,-141.56 1646.82,-140.28 1648.31,-147.12"/>
</a>
</g>
</g>
<!-- Node26 -->
<g id="Node000026" class="node">
<title>Node26</title>
<g id="a_Node000026"><a xlink:href="classwmtk_1_1_mesh.html#ade176d345902d97af8c5da04aa3a095b" target="_top" xlink:title=" ">
<polygon fill="white" stroke="#666666" points="1772,-178.5 1632,-178.5 1632,-159.5 1772,-159.5 1772,-178.5"/>
<text text-anchor="middle" x="1702" y="-166.5" font-family="Helvetica,sans-Serif" font-size="10.00">wmtk::Mesh::is_removed</text>
</a>
</g>
</g>
<!-- Node25&#45;&gt;Node26 -->
<g id="edge30_Node000025_Node000026" class="edge">
<title>Node25&#45;&gt;Node26</title>
<g id="a_edge30_Node000025_Node000026"><a xlink:title=" ">
<path fill="none" stroke="#63b8ff" d="M1591.11,-169C1600.96,-169 1611.32,-169 1621.58,-169"/>
<polygon fill="#63b8ff" stroke="#63b8ff" points="1621.78,-172.5 1631.78,-169 1621.78,-165.5 1621.78,-172.5"/>
</a>
</g>
</g>
<!-- Node26&#45;&gt;Node26 -->
<g id="edge31_Node000026_Node000026" class="edge">
<title>Node26&#45;&gt;Node26</title>
<g id="a_edge31_Node000026_Node000026"><a xlink:title=" ">
<path fill="none" stroke="#63b8ff" d="M1675.8,-178.58C1663.05,-187.23 1671.79,-196.5 1702,-196.5 1722.3,-196.5 1732.9,-192.32 1733.81,-186.95"/>
<polygon fill="#63b8ff" stroke="#63b8ff" points="1736.68,-184.94 1728.2,-178.58 1730.86,-188.84 1736.68,-184.94"/>
</a>
</g>
</g>
<!-- Node27&#45;&gt;Node3 -->
<g id="edge35_Node000027_Node000003" class="edge">
<title>Node27&#45;&gt;Node3</title>
<g id="a_edge35_Node000027_Node000003"><a xlink:title=" ">
<path fill="none" stroke="#63b8ff" d="M1406.07,-106.91C1422.83,-101.11 1442.4,-94.33 1460.97,-87.9"/>
<polygon fill="#63b8ff" stroke="#63b8ff" points="1462.26,-91.16 1470.57,-84.58 1459.97,-84.54 1462.26,-91.16"/>
</a>
</g>
</g>
<!-- Node28&#45;&gt;Node23 -->
<g id="edge37_Node000028_Node000023" class="edge">
<title>Node28&#45;&gt;Node23</title>
<g id="a_edge37_Node000028_Node000023"><a xlink:title=" ">
<path fill="none" stroke="#63b8ff" d="M1077.18,-169C1090.58,-169 1104.5,-169 1117.8,-169"/>
<polygon fill="#63b8ff" stroke="#63b8ff" points="1117.82,-172.5 1127.82,-169 1117.82,-165.5 1117.82,-172.5"/>
</a>
</g>
</g>
<!-- Node30 -->
<g id="Node000030" class="node">
<title>Node30</title>
<g id="a_Node000030"><a xlink:href="namespacewmtk.html#a3daa7951a5f8b78cf4600dc047fcc180" target="_top" xlink:title="Setup a logger object to be used by WildmeshToolkit.">
<polygon fill="white" stroke="#666666" points="848,-105.5 747,-105.5 747,-86.5 848,-86.5 848,-105.5"/>
<text text-anchor="middle" x="797.5" y="-93.5" font-family="Helvetica,sans-Serif" font-size="10.00">wmtk::set_logger</text>
</a>
</g>
</g>
<!-- Node29&#45;&gt;Node30 -->
<g id="edge39_Node000029_Node000030" class="edge">
<title>Node29&#45;&gt;Node30</title>
<g id="a_edge39_Node000029_Node000030"><a xlink:title=" ">
<path fill="none" stroke="#63b8ff" d="M649.16,-96C674.56,-96 708,-96 736.6,-96"/>
<polygon fill="#63b8ff" stroke="#63b8ff" points="736.89,-99.5 746.89,-96 736.89,-92.5 736.89,-99.5"/>
</a>
</g>
</g>
</g>
</svg>
