<?xml version="1.0" encoding="UTF-8" standalone="no"?>
<!DOCTYPE svg PUBLIC "-//W3C//DTD SVG 1.1//EN"
 "http://www.w3.org/Graphics/SVG/1.1/DTD/svg11.dtd">
<!-- Generated by graphviz version 2.43.0 (0)
 -->
<!-- Title: wmtk::attribute::AttributeManager::get_attribute_dimension Pages: 1 -->
<svg width="1333pt" height="957pt"
 viewBox="0.00 0.00 1333.00 956.50" xmlns="http://www.w3.org/2000/svg" xmlns:xlink="http://www.w3.org/1999/xlink">
<g id="graph0" class="graph" transform="scale(1 1) rotate(0) translate(4 952.5)">
<title>wmtk::attribute::AttributeManager::get_attribute_dimension</title>
<!-- Node1 -->
<g id="Node000001" class="node">
<title>Node1</title>
<g id="a_Node000001"><a xlink:title=" ">
<polygon fill="#999999" stroke="#666666" points="1325,-326.5 1184,-326.5 1184,-285.5 1325,-285.5 1325,-326.5"/>
<text text-anchor="start" x="1192" y="-314.5" font-family="Helvetica,sans-Serif" font-size="10.00">wmtk::attribute::Attribute</text>
<text text-anchor="start" x="1192" y="-303.5" font-family="Helvetica,sans-Serif" font-size="10.00">Manager::get_attribute</text>
<text text-anchor="middle" x="1254.5" y="-292.5" font-family="Helvetica,sans-Serif" font-size="10.00">_dimension</text>
</a>
</g>
</g>
<!-- Node2 -->
<g id="Node000002" class="node">
<title>Node2</title>
<g id="a_Node000002"><a xlink:href="classwmtk_1_1_mesh.html#a4f546f0125de42db771686220d77ec78" target="_top" xlink:title=" ">
<polygon fill="white" stroke="#666666" points="1148,-321 1002,-321 1002,-291 1148,-291 1148,-321"/>
<text text-anchor="start" x="1010" y="-309" font-family="Helvetica,sans-Serif" font-size="10.00">wmtk::Mesh::get_attribute</text>
<text text-anchor="middle" x="1075" y="-298" font-family="Helvetica,sans-Serif" font-size="10.00">_dimension</text>
</a>
</g>
</g>
<!-- Node1&#45;&gt;Node2 -->
<g id="edge1_Node000001_Node000002" class="edge">
<title>Node1&#45;&gt;Node2</title>
<g id="a_edge1_Node000001_Node000002"><a xlink:title=" ">
<path fill="none" stroke="#63b8ff" d="M1173.85,-306C1165.26,-306 1156.56,-306 1148.07,-306"/>
<polygon fill="#63b8ff" stroke="#63b8ff" points="1173.86,-309.5 1183.86,-306 1173.86,-302.5 1173.86,-309.5"/>
</a>
</g>
</g>
<!-- Node3 -->
<g id="Node000003" class="node">
<title>Node3</title>
<g id="a_Node000003"><a xlink:href="classwmtk_1_1_rounded_invariant.html#acbd97ba2bb923d01c980bf8ad779d603" target="_top" xlink:title=" ">
<polygon fill="white" stroke="#666666" points="951,-393 814,-393 814,-363 951,-363 951,-393"/>
<text text-anchor="start" x="822" y="-381" font-family="Helvetica,sans-Serif" font-size="10.00">wmtk::RoundedInvariant</text>
<text text-anchor="middle" x="882.5" y="-370" font-family="Helvetica,sans-Serif" font-size="10.00">::before</text>
</a>
</g>
</g>
<!-- Node2&#45;&gt;Node3 -->
<g id="edge2_Node000002_Node000003" class="edge">
<title>Node2&#45;&gt;Node3</title>
<g id="a_edge2_Node000002_Node000003"><a xlink:title=" ">
<path fill="none" stroke="#63b8ff" d="M1033.64,-325.49C1013.57,-334.79 988.79,-345.66 966,-354 957.45,-357.13 948.3,-360.12 939.31,-362.88"/>
<polygon fill="#63b8ff" stroke="#63b8ff" points="1035.22,-328.62 1042.8,-321.21 1032.26,-322.28 1035.22,-328.62"/>
</a>
</g>
</g>
<!-- Node4 -->
<g id="Node000004" class="node">
<title>Node4</title>
<g id="a_Node000004"><a xlink:href="classwmtk_1_1attribute_1_1_mesh_attribute_handle.html#a3c2f0b99a4f3581ac8da264d10c493a1" target="_top" xlink:title=" ">
<polygon fill="white" stroke="#666666" points="966,-345 799,-345 799,-315 966,-315 966,-345"/>
<text text-anchor="start" x="807" y="-333" font-family="Helvetica,sans-Serif" font-size="10.00">wmtk::attribute::MeshAttribute</text>
<text text-anchor="middle" x="882.5" y="-322" font-family="Helvetica,sans-Serif" font-size="10.00">Handle::dimension</text>
</a>
</g>
</g>
<!-- Node2&#45;&gt;Node4 -->
<g id="edge3_Node000002_Node000004" class="edge">
<title>Node2&#45;&gt;Node4</title>
<g id="a_edge3_Node000002_Node000004"><a xlink:title=" ">
<path fill="none" stroke="#63b8ff" d="M992.01,-316.33C983.45,-317.41 974.74,-318.51 966.17,-319.59"/>
<polygon fill="#63b8ff" stroke="#63b8ff" points="992.5,-319.8 1001.98,-315.07 991.62,-312.85 992.5,-319.8"/>
</a>
</g>
</g>
<!-- Node41 -->
<g id="Node000041" class="node">
<title>Node41</title>
<g id="a_Node000041"><a xlink:href="classwmtk_1_1operations_1_1_rounding.html#a44d2c792261c5d0b9094b23932dac8fc" target="_top" xlink:title="returns an empty vector in case of failure">
<polygon fill="white" stroke="#666666" points="959.5,-297 805.5,-297 805.5,-267 959.5,-267 959.5,-297"/>
<text text-anchor="start" x="813.5" y="-285" font-family="Helvetica,sans-Serif" font-size="10.00">wmtk::operations::Rounding</text>
<text text-anchor="middle" x="882.5" y="-274" font-family="Helvetica,sans-Serif" font-size="10.00">::execute</text>
</a>
</g>
</g>
<!-- Node2&#45;&gt;Node41 -->
<g id="edge46_Node000002_Node000041" class="edge">
<title>Node2&#45;&gt;Node41</title>
<g id="a_edge46_Node000002_Node000041"><a xlink:title=" ">
<path fill="none" stroke="#63b8ff" d="M991.85,-295.65C981.19,-294.31 970.31,-292.94 959.75,-291.61"/>
<polygon fill="#63b8ff" stroke="#63b8ff" points="991.62,-299.15 1001.98,-296.93 992.5,-292.2 991.62,-299.15"/>
</a>
</g>
</g>
<!-- Node42 -->
<g id="Node000042" class="node">
<title>Node42</title>
<g id="a_Node000042"><a xlink:href="classwmtk_1_1_h_d_f5_reader.html#a24253eae6c0cdca26556f7dee93d7a7c" target="_top" xlink:title=" ">
<polygon fill="white" stroke="#666666" points="949,-249 816,-249 816,-219 949,-219 949,-249"/>
<text text-anchor="start" x="824" y="-237" font-family="Helvetica,sans-Serif" font-size="10.00">wmtk::HDF5Reader::set</text>
<text text-anchor="middle" x="882.5" y="-226" font-family="Helvetica,sans-Serif" font-size="10.00">_attribute</text>
</a>
</g>
</g>
<!-- Node2&#45;&gt;Node42 -->
<g id="edge47_Node000002_Node000042" class="edge">
<title>Node2&#45;&gt;Node42</title>
<g id="a_edge47_Node000002_Node000042"><a xlink:title=" ">
<path fill="none" stroke="#63b8ff" d="M1033.64,-286.51C1013.57,-277.21 988.79,-266.34 966,-258 957.45,-254.87 948.3,-251.88 939.31,-249.12"/>
<polygon fill="#63b8ff" stroke="#63b8ff" points="1032.26,-289.72 1042.8,-290.79 1035.22,-283.38 1032.26,-289.72"/>
</a>
</g>
</g>
<!-- Node5 -->
<g id="Node000005" class="node">
<title>Node5</title>
<g id="a_Node000005"><a xlink:href="classwmtk_1_1components_1_1internal_1_1_multi_mesh_from_tag.html#a00b7df05e0cd44c1a2d4e6ee39dbaacf" target="_top" xlink:title="Create the adjacency (stored as attribute) of the substructure.">
<polygon fill="white" stroke="#666666" points="739,-753.5 585,-753.5 585,-712.5 739,-712.5 739,-753.5"/>
<text text-anchor="start" x="593" y="-741.5" font-family="Helvetica,sans-Serif" font-size="10.00">wmtk::components::internal</text>
<text text-anchor="start" x="593" y="-730.5" font-family="Helvetica,sans-Serif" font-size="10.00">::MultiMeshFromTag::build</text>
<text text-anchor="middle" x="662" y="-719.5" font-family="Helvetica,sans-Serif" font-size="10.00">_adjacency_matrix</text>
</a>
</g>
</g>
<!-- Node4&#45;&gt;Node5 -->
<g id="edge4_Node000004_Node000005" class="edge">
<title>Node4&#45;&gt;Node5</title>
<g id="a_edge4_Node000004_Node000005"><a xlink:title=" ">
<path fill="none" stroke="#63b8ff" d="M800.96,-351.82C800.28,-352.52 799.63,-353.25 799,-354 706.55,-463.83 841.49,-554.79 763,-675 752.41,-691.22 735.6,-703.45 718.75,-712.4"/>
<polygon fill="#63b8ff" stroke="#63b8ff" points="803.52,-354.23 808.87,-345.08 798.99,-348.9 803.52,-354.23"/>
</a>
</g>
</g>
<!-- Node17 -->
<g id="Node000017" class="node">
<title>Node17</title>
<g id="a_Node000017"><a xlink:href="namespacewmtk_1_1utils.html#a216f2306e90d409a64e86d49e5ef31e2" target="_top" xlink:title=" ">
<polygon fill="white" stroke="#666666" points="734.5,-665.5 589.5,-665.5 589.5,-646.5 734.5,-646.5 734.5,-665.5"/>
<text text-anchor="middle" x="662" y="-653.5" font-family="Helvetica,sans-Serif" font-size="10.00">wmtk::utils::cast_attribute</text>
</a>
</g>
</g>
<!-- Node4&#45;&gt;Node17 -->
<g id="edge16_Node000004_Node000017" class="edge">
<title>Node4&#45;&gt;Node17</title>
<g id="a_edge16_Node000004_Node000017"><a xlink:title=" ">
<path fill="none" stroke="#63b8ff" d="M800.97,-351.83C800.29,-352.53 799.64,-353.26 799,-354 716.63,-450.39 849.87,-544.64 763,-637 755.31,-645.17 745.28,-650.46 734.55,-653.79"/>
<polygon fill="#63b8ff" stroke="#63b8ff" points="803.53,-354.25 808.93,-345.13 799.03,-348.9 803.53,-354.25"/>
</a>
</g>
</g>
<!-- Node18 -->
<g id="Node000018" class="node">
<title>Node18</title>
<g id="a_Node000018"><a xlink:href="classwmtk_1_1function_1_1_function.html#a0c62fa4a0fed84733c0c18b1806d1eca" target="_top" xlink:title=" ">
<polygon fill="white" stroke="#666666" points="730.5,-628 593.5,-628 593.5,-598 730.5,-598 730.5,-628"/>
<text text-anchor="start" x="601.5" y="-616" font-family="Helvetica,sans-Serif" font-size="10.00">wmtk::function::Function</text>
<text text-anchor="middle" x="662" y="-605" font-family="Helvetica,sans-Serif" font-size="10.00">::embedded_dimension</text>
</a>
</g>
</g>
<!-- Node4&#45;&gt;Node18 -->
<g id="edge17_Node000004_Node000018" class="edge">
<title>Node4&#45;&gt;Node18</title>
<g id="a_edge17_Node000004_Node000018"><a xlink:title=" ">
<path fill="none" stroke="#63b8ff" d="M801.42,-351.52C800.59,-352.32 799.78,-353.15 799,-354 742,-416.56 808.56,-469.67 763,-541 746.76,-566.42 718.07,-585.68 695.58,-597.85"/>
<polygon fill="#63b8ff" stroke="#63b8ff" points="803.87,-354.05 809.55,-345.11 799.53,-348.55 803.87,-354.05"/>
</a>
</g>
</g>
<!-- Node22 -->
<g id="Node000022" class="node">
<title>Node22</title>
<g id="a_Node000022"><a xlink:href="classwmtk_1_1function_1_1_per_simplex_function.html#a102906d1b23aa53d451853ca779ca2c4" target="_top" xlink:title=" ">
<polygon fill="white" stroke="#666666" points="748,-532 576,-532 576,-502 748,-502 748,-532"/>
<text text-anchor="start" x="584" y="-520" font-family="Helvetica,sans-Serif" font-size="10.00">wmtk::function::PerSimplex</text>
<text text-anchor="middle" x="662" y="-509" font-family="Helvetica,sans-Serif" font-size="10.00">Function::embedded_dimension</text>
</a>
</g>
</g>
<!-- Node4&#45;&gt;Node22 -->
<g id="edge21_Node000004_Node000022" class="edge">
<title>Node4&#45;&gt;Node22</title>
<g id="a_edge21_Node000004_Node000022"><a xlink:title=" ">
<path fill="none" stroke="#63b8ff" d="M806.67,-349.49C804.03,-350.89 801.46,-352.39 799,-354 737.93,-393.95 689.97,-469.61 671.38,-501.84"/>
<polygon fill="#63b8ff" stroke="#63b8ff" points="808.4,-352.54 815.92,-345.08 805.39,-346.22 808.4,-352.54"/>
</a>
</g>
</g>
<!-- Node27 -->
<g id="Node000027" class="node">
<title>Node27</title>
<g id="a_Node000027"><a xlink:href="classwmtk_1_1operations_1_1_a_m_i_p_s_optimization_smoothing.html#a2c409cd3da46f4360119e142ef3c3682" target="_top" xlink:title="returns an empty vector in case of failure">
<polygon fill="white" stroke="#666666" points="309,-415 107,-415 107,-385 309,-385 309,-415"/>
<text text-anchor="start" x="115" y="-403" font-family="Helvetica,sans-Serif" font-size="10.00">wmtk::operations::AMIPSOptimization</text>
<text text-anchor="middle" x="208" y="-392" font-family="Helvetica,sans-Serif" font-size="10.00">Smoothing::execute</text>
</a>
</g>
</g>
<!-- Node4&#45;&gt;Node27 -->
<g id="edge31_Node000004_Node000027" class="edge">
<title>Node4&#45;&gt;Node27</title>
<g id="a_edge31_Node000004_Node000027"><a xlink:title=" ">
<path fill="none" stroke="#63b8ff" d="M788.55,-324.29C680.73,-319.73 498.17,-318.41 345,-349 307.78,-356.43 267.32,-372.75 240.29,-384.94"/>
<polygon fill="#63b8ff" stroke="#63b8ff" points="788.6,-327.8 798.74,-324.74 788.91,-320.8 788.6,-327.8"/>
</a>
</g>
</g>
<!-- Node29 -->
<g id="Node000029" class="node">
<title>Node29</title>
<g id="a_Node000029"><a xlink:href="classwmtk_1_1operations_1_1_a_m_i_p_s_optimization_smoothing_periodic.html#a86df18fe3713cb41dca1687487dea61b" target="_top" xlink:title="returns an empty vector in case of failure">
<polygon fill="white" stroke="#666666" points="763,-302 561,-302 561,-272 763,-272 763,-302"/>
<text text-anchor="start" x="569" y="-290" font-family="Helvetica,sans-Serif" font-size="10.00">wmtk::operations::AMIPSOptimization</text>
<text text-anchor="middle" x="662" y="-279" font-family="Helvetica,sans-Serif" font-size="10.00">SmoothingPeriodic::execute</text>
</a>
</g>
</g>
<!-- Node4&#45;&gt;Node29 -->
<g id="edge32_Node000004_Node000029" class="edge">
<title>Node4&#45;&gt;Node29</title>
<g id="a_edge32_Node000004_Node000029"><a xlink:title=" ">
<path fill="none" stroke="#63b8ff" d="M795.23,-313.02C776.79,-309.39 757.42,-305.58 739.38,-302.03"/>
<polygon fill="#63b8ff" stroke="#63b8ff" points="794.59,-316.46 805.08,-314.96 795.94,-309.6 794.59,-316.46"/>
</a>
</g>
</g>
<!-- Node30 -->
<g id="Node000030" class="node">
<title>Node30</title>
<g id="a_Node000030"><a xlink:href="namespacewmtk_1_1components_1_1internal.html#a49432d47b0fca2f5fe80f1e9c634fa14" target="_top" xlink:title=" ">
<polygon fill="white" stroke="#666666" points="739,-233 585,-233 585,-203 739,-203 739,-233"/>
<text text-anchor="start" x="593" y="-221" font-family="Helvetica,sans-Serif" font-size="10.00">wmtk::components::internal</text>
<text text-anchor="middle" x="662" y="-210" font-family="Helvetica,sans-Serif" font-size="10.00">::isotropic_remeshing</text>
</a>
</g>
</g>
<!-- Node4&#45;&gt;Node30 -->
<g id="edge33_Node000004_Node000030" class="edge">
<title>Node4&#45;&gt;Node30</title>
<g id="a_edge33_Node000004_Node000030"><a xlink:title=" ">
<path fill="none" stroke="#63b8ff" d="M806.67,-310.51C804.03,-309.11 801.46,-307.61 799,-306 778.13,-292.37 782.87,-278.05 763,-263 746.46,-250.47 725.87,-240.45 707.69,-233.08"/>
<polygon fill="#63b8ff" stroke="#63b8ff" points="805.4,-313.78 815.93,-314.91 808.4,-307.45 805.4,-313.78"/>
</a>
</g>
</g>
<!-- Node38 -->
<g id="Node000038" class="node">
<title>Node38</title>
<g id="a_Node000038"><a xlink:href="namespacewmtk_1_1components.html#a52f9ca12856b67dee17249c6172e2bbe" target="_top" xlink:title=" ">
<polygon fill="white" stroke="#666666" points="746.5,-166.5 577.5,-166.5 577.5,-147.5 746.5,-147.5 746.5,-166.5"/>
<text text-anchor="middle" x="662" y="-154.5" font-family="Helvetica,sans-Serif" font-size="10.00">wmtk::components::multimesh</text>
</a>
</g>
</g>
<!-- Node4&#45;&gt;Node38 -->
<g id="edge42_Node000004_Node000038" class="edge">
<title>Node4&#45;&gt;Node38</title>
<g id="a_edge42_Node000004_Node000038"><a xlink:title=" ">
<path fill="none" stroke="#63b8ff" d="M802.44,-309.08C801.25,-308.1 800.1,-307.07 799,-306 761.52,-269.55 799.16,-231.76 763,-194 750.2,-180.63 732.14,-172.06 714.88,-166.58"/>
<polygon fill="#63b8ff" stroke="#63b8ff" points="800.59,-312.05 810.79,-314.91 804.59,-306.31 800.59,-312.05"/>
</a>
</g>
</g>
<!-- Node39 -->
<g id="Node000039" class="node">
<title>Node39</title>
<g id="a_Node000039"><a xlink:href="namespacewmtk_1_1components.html#ae3a4b32383fdc9c2eb8334cc8ef947a5" target="_top" xlink:title="Perform shortest&#45;edge collapse on a triangular surface mesh.">
<polygon fill="white" stroke="#666666" points="752,-80 572,-80 572,-50 752,-50 752,-80"/>
<text text-anchor="start" x="580" y="-68" font-family="Helvetica,sans-Serif" font-size="10.00">wmtk::components::shortestedge</text>
<text text-anchor="middle" x="662" y="-57" font-family="Helvetica,sans-Serif" font-size="10.00">_collapse</text>
</a>
</g>
</g>
<!-- Node4&#45;&gt;Node39 -->
<g id="edge44_Node000004_Node000039" class="edge">
<title>Node4&#45;&gt;Node39</title>
<g id="a_edge44_Node000004_Node000039"><a xlink:title=" ">
<path fill="none" stroke="#63b8ff" d="M801.45,-308.45C800.6,-307.66 799.79,-306.85 799,-306 747.24,-250.45 804.17,-202.8 763,-139 746.14,-112.87 716.61,-92.72 693.99,-80.09"/>
<polygon fill="#63b8ff" stroke="#63b8ff" points="799.6,-311.45 809.64,-314.81 803.89,-305.92 799.6,-311.45"/>
</a>
</g>
</g>
<!-- Node6 -->
<g id="Node000006" class="node">
<title>Node6</title>
<g id="a_Node000006"><a xlink:href="classwmtk_1_1components_1_1internal_1_1_multi_mesh_from_tag.html#a96647e9413f2b7e13dd17f02cf29b12d" target="_top" xlink:title="Create a manifold mesh from the substructure.">
<polygon fill="white" stroke="#666666" points="517,-783.5 353,-783.5 353,-742.5 517,-742.5 517,-783.5"/>
<text text-anchor="start" x="361" y="-771.5" font-family="Helvetica,sans-Serif" font-size="10.00">wmtk::components::internal</text>
<text text-anchor="start" x="361" y="-760.5" font-family="Helvetica,sans-Serif" font-size="10.00">::MultiMeshFromTag::compute</text>
<text text-anchor="middle" x="435" y="-749.5" font-family="Helvetica,sans-Serif" font-size="10.00">_substructure_mesh</text>
</a>
</g>
</g>
<!-- Node5&#45;&gt;Node6 -->
<g id="edge5_Node000005_Node000006" class="edge">
<title>Node5&#45;&gt;Node6</title>
<g id="a_edge5_Node000005_Node000006"><a xlink:title=" ">
<path fill="none" stroke="#63b8ff" d="M574.73,-744.5C555.8,-747.03 535.82,-749.69 517.1,-752.19"/>
<polygon fill="#63b8ff" stroke="#63b8ff" points="575.38,-747.95 584.83,-743.16 574.45,-741.01 575.38,-747.95"/>
</a>
</g>
</g>
<!-- Node7 -->
<g id="Node000007" class="node">
<title>Node7</title>
<g id="a_Node000007"><a xlink:href="namespacewmtk_1_1components.html#ac309092566399cef68679a1bb8107d1e" target="_top" xlink:title="Generate a multi&#45;mesh from a mesh with a tag that represents the substructure, the mesh is changed.">
<polygon fill="white" stroke="#666666" points="292.5,-826 123.5,-826 123.5,-796 292.5,-796 292.5,-826"/>
<text text-anchor="start" x="131.5" y="-814" font-family="Helvetica,sans-Serif" font-size="10.00">wmtk::components::multimesh</text>
<text text-anchor="middle" x="208" y="-803" font-family="Helvetica,sans-Serif" font-size="10.00">_from_tag</text>
</a>
</g>
</g>
<!-- Node6&#45;&gt;Node7 -->
<g id="edge6_Node000006_Node000007" class="edge">
<title>Node6&#45;&gt;Node7</title>
<g id="a_edge6_Node000006_Node000007"><a xlink:title=" ">
<path fill="none" stroke="#63b8ff" d="M342.81,-782.45C321.64,-786.97 299.43,-791.71 279.32,-796"/>
<polygon fill="#63b8ff" stroke="#63b8ff" points="343.72,-785.84 352.77,-780.33 342.26,-778.99 343.72,-785.84"/>
</a>
</g>
</g>
<!-- Node9 -->
<g id="Node000009" class="node">
<title>Node9</title>
<g id="a_Node000009"><a xlink:href="namespacewmtk_1_1components.html#a4166e4880553cfacbf79ac3515a637cd" target="_top" xlink:title=" ">
<polygon fill="white" stroke="#666666" points="285.5,-778 130.5,-778 130.5,-748 285.5,-748 285.5,-778"/>
<text text-anchor="start" x="138.5" y="-766" font-family="Helvetica,sans-Serif" font-size="10.00">wmtk::components::periodic</text>
<text text-anchor="middle" x="208" y="-755" font-family="Helvetica,sans-Serif" font-size="10.00">_optimization</text>
</a>
</g>
</g>
<!-- Node6&#45;&gt;Node9 -->
<g id="edge8_Node000006_Node000009" class="edge">
<title>Node6&#45;&gt;Node9</title>
<g id="a_edge8_Node000006_Node000009"><a xlink:title=" ">
<path fill="none" stroke="#63b8ff" d="M342.65,-763C323.72,-763 303.95,-763 285.61,-763"/>
<polygon fill="#63b8ff" stroke="#63b8ff" points="342.77,-766.5 352.77,-763 342.77,-759.5 342.77,-766.5"/>
</a>
</g>
</g>
<!-- Node10 -->
<g id="Node000010" class="node">
<title>Node10</title>
<g id="a_Node000010"><a xlink:href="test__component__multimesh__from__tag_8cpp.html#a2231774bf0d53fb5f6c1b34753afb255" target="_top" xlink:title=" ">
<polygon fill="white" stroke="#666666" points="243.5,-729.5 172.5,-729.5 172.5,-710.5 243.5,-710.5 243.5,-729.5"/>
<text text-anchor="middle" x="208" y="-717.5" font-family="Helvetica,sans-Serif" font-size="10.00">TEST_CASE</text>
</a>
</g>
</g>
<!-- Node6&#45;&gt;Node10 -->
<g id="edge9_Node000006_Node000010" class="edge">
<title>Node6&#45;&gt;Node10</title>
<g id="a_edge9_Node000006_Node000010"><a xlink:title=" ">
<path fill="none" stroke="#63b8ff" d="M342.97,-745.5C331.54,-743.31 320,-741.1 309,-739 287.3,-734.86 262.95,-730.23 243.71,-726.58"/>
<polygon fill="#63b8ff" stroke="#63b8ff" points="342.5,-748.97 352.98,-747.42 343.82,-742.1 342.5,-748.97"/>
</a>
</g>
</g>
<!-- Node11 -->
<g id="Node000011" class="node">
<title>Node11</title>
<g id="a_Node000011"><a xlink:href="test__component__multimesh__from__tag_8cpp.html#a9a31cb828b93e2ddcf0a5063d4d1c9e6" target="_top" xlink:title=" ">
<polygon fill="white" stroke="#666666" points="243.5,-692.5 172.5,-692.5 172.5,-673.5 243.5,-673.5 243.5,-692.5"/>
<text text-anchor="middle" x="208" y="-680.5" font-family="Helvetica,sans-Serif" font-size="10.00">TEST_CASE</text>
</a>
</g>
</g>
<!-- Node6&#45;&gt;Node11 -->
<g id="edge10_Node000006_Node000011" class="edge">
<title>Node6&#45;&gt;Node11</title>
<g id="a_edge10_Node000006_Node000011"><a xlink:title=" ">
<path fill="none" stroke="#63b8ff" d="M355.05,-738.26C351.6,-736.6 348.24,-734.84 345,-733 326.66,-722.54 328.02,-711.17 309,-702 288.63,-692.17 263.63,-687.42 243.72,-685.13"/>
<polygon fill="#63b8ff" stroke="#63b8ff" points="353.79,-741.53 364.34,-742.47 356.67,-735.15 353.79,-741.53"/>
</a>
</g>
</g>
<!-- Node12 -->
<g id="Node000012" class="node">
<title>Node12</title>
<g id="a_Node000012"><a xlink:href="test__component__multimesh__from__tag_8cpp.html#a7a8f66a094907f369fa10876691f42f9" target="_top" xlink:title=" ">
<polygon fill="white" stroke="#666666" points="243.5,-655.5 172.5,-655.5 172.5,-636.5 243.5,-636.5 243.5,-655.5"/>
<text text-anchor="middle" x="208" y="-643.5" font-family="Helvetica,sans-Serif" font-size="10.00">TEST_CASE</text>
</a>
</g>
</g>
<!-- Node6&#45;&gt;Node12 -->
<g id="edge11_Node000006_Node000012" class="edge">
<title>Node6&#45;&gt;Node12</title>
<g id="a_edge11_Node000006_Node000012"><a xlink:title=" ">
<path fill="none" stroke="#63b8ff" d="M349.78,-736.75C348.13,-735.56 346.54,-734.31 345,-733 318.94,-710.85 336.51,-685.31 309,-665 290.37,-651.25 264.62,-646.6 243.92,-645.33"/>
<polygon fill="#63b8ff" stroke="#63b8ff" points="348.09,-739.83 358.39,-742.3 351.88,-733.94 348.09,-739.83"/>
</a>
</g>
</g>
<!-- Node13 -->
<g id="Node000013" class="node">
<title>Node13</title>
<g id="a_Node000013"><a xlink:href="test__component__multimesh__from__tag_8cpp.html#af55ce8249624ce4d6a3feaad760949a6" target="_top" xlink:title=" ">
<polygon fill="white" stroke="#666666" points="243.5,-618.5 172.5,-618.5 172.5,-599.5 243.5,-599.5 243.5,-618.5"/>
<text text-anchor="middle" x="208" y="-606.5" font-family="Helvetica,sans-Serif" font-size="10.00">TEST_CASE</text>
</a>
</g>
</g>
<!-- Node6&#45;&gt;Node13 -->
<g id="edge12_Node000006_Node000013" class="edge">
<title>Node6&#45;&gt;Node13</title>
<g id="a_edge12_Node000006_Node000013"><a xlink:title=" ">
<path fill="none" stroke="#63b8ff" d="M348.84,-736.53C347.52,-735.4 346.23,-734.23 345,-733 310.03,-698.21 346.28,-660.31 309,-628 291.24,-612.61 264.94,-608.08 243.77,-607.28"/>
<polygon fill="#63b8ff" stroke="#63b8ff" points="346.78,-739.35 356.9,-742.47 350.93,-733.72 346.78,-739.35"/>
</a>
</g>
</g>
<!-- Node14 -->
<g id="Node000014" class="node">
<title>Node14</title>
<g id="a_Node000014"><a xlink:href="test__component__multimesh__from__tag_8cpp.html#a18cd3d411cfadc472201c20662d62869" target="_top" xlink:title=" ">
<polygon fill="white" stroke="#666666" points="243.5,-948.5 172.5,-948.5 172.5,-929.5 243.5,-929.5 243.5,-948.5"/>
<text text-anchor="middle" x="208" y="-936.5" font-family="Helvetica,sans-Serif" font-size="10.00">TEST_CASE</text>
</a>
</g>
</g>
<!-- Node6&#45;&gt;Node14 -->
<g id="edge13_Node000006_Node000014" class="edge">
<title>Node6&#45;&gt;Node14</title>
<g id="a_edge13_Node000006_Node000014"><a xlink:title=" ">
<path fill="none" stroke="#63b8ff" d="M419.17,-792.81C399.35,-829.3 360.64,-890.06 309,-921 289.33,-932.79 263.85,-937.24 243.53,-938.78"/>
<polygon fill="#63b8ff" stroke="#63b8ff" points="422.43,-794.12 424.02,-783.64 416.25,-790.84 422.43,-794.12"/>
</a>
</g>
</g>
<!-- Node15 -->
<g id="Node000015" class="node">
<title>Node15</title>
<g id="a_Node000015"><a xlink:href="test__component__multimesh__from__tag_8cpp.html#a4caad3dd8a6355f2ca66fdb0b0af7999" target="_top" xlink:title=" ">
<polygon fill="white" stroke="#666666" points="243.5,-911.5 172.5,-911.5 172.5,-892.5 243.5,-892.5 243.5,-911.5"/>
<text text-anchor="middle" x="208" y="-899.5" font-family="Helvetica,sans-Serif" font-size="10.00">TEST_CASE</text>
</a>
</g>
</g>
<!-- Node6&#45;&gt;Node15 -->
<g id="edge14_Node000006_Node000015" class="edge">
<title>Node6&#45;&gt;Node15</title>
<g id="a_edge14_Node000006_Node000015"><a xlink:title=" ">
<path fill="none" stroke="#63b8ff" d="M412.57,-791.56C390,-819.47 351.82,-860.9 309,-883 288.9,-893.37 263.9,-898.12 243.92,-900.28"/>
<polygon fill="#63b8ff" stroke="#63b8ff" points="415.32,-793.73 418.79,-783.72 409.84,-789.38 415.32,-793.73"/>
</a>
</g>
</g>
<!-- Node16 -->
<g id="Node000016" class="node">
<title>Node16</title>
<g id="a_Node000016"><a xlink:href="namespacewmtk_1_1components.html#a9d6d11e3b7ba03911492ecfc79622247" target="_top" xlink:title=" ">
<polygon fill="white" stroke="#666666" points="285,-874 131,-874 131,-844 285,-844 285,-874"/>
<text text-anchor="start" x="139" y="-862" font-family="Helvetica,sans-Serif" font-size="10.00">wmtk::components::triangle</text>
<text text-anchor="middle" x="208" y="-851" font-family="Helvetica,sans-Serif" font-size="10.00">_insertion</text>
</a>
</g>
</g>
<!-- Node6&#45;&gt;Node16 -->
<g id="edge15_Node000006_Node000016" class="edge">
<title>Node6&#45;&gt;Node16</title>
<g id="a_edge15_Node000006_Node000016"><a xlink:title=" ">
<path fill="none" stroke="#63b8ff" d="M395.45,-789.08C371.46,-804.31 339.46,-822.87 309,-835 300.54,-838.37 291.48,-841.35 282.4,-843.96"/>
<polygon fill="#63b8ff" stroke="#63b8ff" points="397.4,-791.99 403.91,-783.63 393.61,-786.1 397.4,-791.99"/>
</a>
</g>
</g>
<!-- Node8 -->
<g id="Node000008" class="node">
<title>Node8</title>
<g id="a_Node000008"><a xlink:href="test__component__multimesh__from__tag_8cpp.html#a2b0208caf4b963a36a43604c3e7cf34a" target="_top" xlink:title=" ">
<polygon fill="white" stroke="#666666" points="71,-820.5 0,-820.5 0,-801.5 71,-801.5 71,-820.5"/>
<text text-anchor="middle" x="35.5" y="-808.5" font-family="Helvetica,sans-Serif" font-size="10.00">TEST_CASE</text>
</a>
</g>
</g>
<!-- Node7&#45;&gt;Node8 -->
<g id="edge7_Node000007_Node000008" class="edge">
<title>Node7&#45;&gt;Node8</title>
<g id="a_edge7_Node000007_Node000008"><a xlink:title=" ">
<path fill="none" stroke="#63b8ff" d="M112.93,-811C98.09,-811 83.6,-811 71.3,-811"/>
<polygon fill="#63b8ff" stroke="#63b8ff" points="113.25,-814.5 123.25,-811 113.25,-807.5 113.25,-814.5"/>
</a>
</g>
</g>
<!-- Node19 -->
<g id="Node000019" class="node">
<title>Node19</title>
<g id="a_Node000019"><a xlink:href="classwmtk_1_1function_1_1_local_neighbors_sum_function.html#a8f4a1942d320c2d613d1af447738f1ea" target="_top" xlink:title="get_gradient collects the local neigh and call the gradient of m_function on all simplicies">
<polygon fill="white" stroke="#666666" points="520.5,-724 349.5,-724 349.5,-694 520.5,-694 520.5,-724"/>
<text text-anchor="start" x="357.5" y="-712" font-family="Helvetica,sans-Serif" font-size="10.00">wmtk::function::LocalNeighbors</text>
<text text-anchor="middle" x="435" y="-701" font-family="Helvetica,sans-Serif" font-size="10.00">SumFunction::get_gradient</text>
</a>
</g>
</g>
<!-- Node18&#45;&gt;Node19 -->
<g id="edge18_Node000018_Node000019" class="edge">
<title>Node18&#45;&gt;Node19</title>
<g id="a_edge18_Node000018_Node000019"><a xlink:title=" ">
<path fill="none" stroke="#63b8ff" d="M583.79,-626.6C575.76,-629.66 567.99,-633.41 561,-638 539.01,-652.44 546.86,-670.35 525,-685 519.81,-688.47 514.14,-691.45 508.26,-693.99"/>
<polygon fill="#63b8ff" stroke="#63b8ff" points="584.99,-629.89 593.3,-623.32 582.71,-623.27 584.99,-629.89"/>
</a>
</g>
</g>
<!-- Node20 -->
<g id="Node000020" class="node">
<title>Node20</title>
<g id="a_Node000020"><a xlink:href="classwmtk_1_1function_1_1_local_neighbors_sum_function.html#a45bfd84c9f092364f449605199731442" target="_top" xlink:title="get_hessian evaluates the hessian of the function f(x) defined wrt the variable x.">
<polygon fill="white" stroke="#666666" points="520.5,-676 349.5,-676 349.5,-646 520.5,-646 520.5,-676"/>
<text text-anchor="start" x="357.5" y="-664" font-family="Helvetica,sans-Serif" font-size="10.00">wmtk::function::LocalNeighbors</text>
<text text-anchor="middle" x="435" y="-653" font-family="Helvetica,sans-Serif" font-size="10.00">SumFunction::get_hessian</text>
</a>
</g>
</g>
<!-- Node18&#45;&gt;Node20 -->
<g id="edge19_Node000018_Node000020" class="edge">
<title>Node18&#45;&gt;Node20</title>
<g id="a_edge19_Node000018_Node000020"><a xlink:title=" ">
<path fill="none" stroke="#63b8ff" d="M583.68,-629.49C558.67,-634.83 531.08,-640.72 506.58,-645.94"/>
<polygon fill="#63b8ff" stroke="#63b8ff" points="584.44,-632.91 593.49,-627.4 582.98,-626.07 584.44,-632.91"/>
</a>
</g>
</g>
<!-- Node21 -->
<g id="Node000021" class="node">
<title>Node21</title>
<g id="a_Node000021"><a xlink:href="classwmtk_1_1function_1_1_local_neighbors_sum_function.html#a0b81383595fa81fb270266bb6cee71da" target="_top" xlink:title="collects the local neigh and call the same m_function on all simplicies">
<polygon fill="white" stroke="#666666" points="520.5,-628 349.5,-628 349.5,-598 520.5,-598 520.5,-628"/>
<text text-anchor="start" x="357.5" y="-616" font-family="Helvetica,sans-Serif" font-size="10.00">wmtk::function::LocalNeighbors</text>
<text text-anchor="middle" x="435" y="-605" font-family="Helvetica,sans-Serif" font-size="10.00">SumFunction::get_value</text>
</a>
</g>
</g>
<!-- Node18&#45;&gt;Node21 -->
<g id="edge20_Node000018_Node000021" class="edge">
<title>Node18&#45;&gt;Node21</title>
<g id="a_edge20_Node000018_Node000021"><a xlink:title=" ">
<path fill="none" stroke="#63b8ff" d="M583.39,-613C563.13,-613 541.21,-613 520.61,-613"/>
<polygon fill="#63b8ff" stroke="#63b8ff" points="583.49,-616.5 593.49,-613 583.49,-609.5 583.49,-616.5"/>
</a>
</g>
</g>
<!-- Node22&#45;&gt;Node19 -->
<g id="edge24_Node000022_Node000019" class="edge">
<title>Node22&#45;&gt;Node19</title>
<g id="a_edge24_Node000022_Node000019"><a xlink:title=" ">
<path fill="none" stroke="#63b8ff" d="M622.22,-537.45C601.63,-549.97 577.3,-567.68 561,-589 533.32,-625.2 558.72,-654.35 525,-685 521.21,-688.44 516.98,-691.4 512.47,-693.94"/>
<polygon fill="#63b8ff" stroke="#63b8ff" points="624.23,-540.32 631.07,-532.23 620.68,-534.29 624.23,-540.32"/>
</a>
</g>
</g>
<!-- Node22&#45;&gt;Node20 -->
<g id="edge26_Node000022_Node000020" class="edge">
<title>Node22&#45;&gt;Node20</title>
<g id="a_edge26_Node000022_Node000020"><a xlink:title=" ">
<path fill="none" stroke="#63b8ff" d="M626.91,-537.8C606.59,-551.08 580.96,-569.43 561,-589 541.96,-607.67 547.08,-622.05 525,-637 519.96,-640.41 514.46,-643.34 508.75,-645.85"/>
<polygon fill="#63b8ff" stroke="#63b8ff" points="629.03,-540.6 635.55,-532.25 625.24,-534.71 629.03,-540.6"/>
</a>
</g>
</g>
<!-- Node22&#45;&gt;Node21 -->
<g id="edge30_Node000022_Node000021" class="edge">
<title>Node22&#45;&gt;Node21</title>
<g id="a_edge30_Node000022_Node000021"><a xlink:title=" ">
<path fill="none" stroke="#63b8ff" d="M627.6,-537.4C600.66,-553.17 561.4,-574.66 525,-589 516.66,-592.28 507.71,-595.28 498.82,-597.96"/>
<polygon fill="#63b8ff" stroke="#63b8ff" points="629.41,-540.39 636.24,-532.29 625.85,-534.36 629.41,-540.39"/>
</a>
</g>
</g>
<!-- Node23 -->
<g id="Node000023" class="node">
<title>Node23</title>
<g id="a_Node000023"><a xlink:href="classwmtk_1_1function_1_1_triangle_a_m_i_p_s.html#a9efeeacdc9da3b8000a13d44be7e62b7" target="_top" xlink:title="This function defines a function f(x) where f is defined over a simplex domain and the variables for ...">
<polygon fill="white" stroke="#666666" points="502,-388 368,-388 368,-358 502,-358 502,-388"/>
<text text-anchor="start" x="376" y="-376" font-family="Helvetica,sans-Serif" font-size="10.00">wmtk::function::Triangle</text>
<text text-anchor="middle" x="435" y="-365" font-family="Helvetica,sans-Serif" font-size="10.00">AMIPS::eval</text>
</a>
</g>
</g>
<!-- Node22&#45;&gt;Node23 -->
<g id="edge22_Node000022_Node000023" class="edge">
<title>Node22&#45;&gt;Node23</title>
<g id="a_edge22_Node000022_Node000023"><a xlink:title=" ">
<path fill="none" stroke="#63b8ff" d="M641.32,-494.15C616.76,-467.05 572.21,-422.37 525,-397 517.95,-393.21 510.26,-389.99 502.45,-387.25"/>
<polygon fill="#63b8ff" stroke="#63b8ff" points="638.72,-496.49 647.99,-501.62 643.94,-491.83 638.72,-496.49"/>
</a>
</g>
</g>
<!-- Node24 -->
<g id="Node000024" class="node">
<title>Node24</title>
<g id="a_Node000024"><a xlink:href="classwmtk_1_1function_1_1_per_simplex_autodiff_function.html#a2acd918687731413b8476532ed726308" target="_top" xlink:title=" ">
<polygon fill="white" stroke="#666666" points="517,-580 353,-580 353,-550 517,-550 517,-580"/>
<text text-anchor="start" x="361" y="-568" font-family="Helvetica,sans-Serif" font-size="10.00">wmtk::function::PerSimplex</text>
<text text-anchor="middle" x="435" y="-557" font-family="Helvetica,sans-Serif" font-size="10.00">AutodiffFunction::get_gradient</text>
</a>
</g>
</g>
<!-- Node22&#45;&gt;Node24 -->
<g id="edge23_Node000022_Node000024" class="edge">
<title>Node22&#45;&gt;Node24</title>
<g id="a_edge23_Node000022_Node000024"><a xlink:title=" ">
<path fill="none" stroke="#63b8ff" d="M580.54,-534.17C556.28,-539.34 529.86,-544.98 506.32,-550"/>
<polygon fill="#63b8ff" stroke="#63b8ff" points="581.38,-537.57 590.43,-532.06 579.92,-530.72 581.38,-537.57"/>
</a>
</g>
</g>
<!-- Node25 -->
<g id="Node000025" class="node">
<title>Node25</title>
<g id="a_Node000025"><a xlink:href="classwmtk_1_1function_1_1_per_simplex_autodiff_function.html#a3155c5a79c212490864deb51ad023534" target="_top" xlink:title=" ">
<polygon fill="white" stroke="#666666" points="515.5,-532 354.5,-532 354.5,-502 515.5,-502 515.5,-532"/>
<text text-anchor="start" x="362.5" y="-520" font-family="Helvetica,sans-Serif" font-size="10.00">wmtk::function::PerSimplex</text>
<text text-anchor="middle" x="435" y="-509" font-family="Helvetica,sans-Serif" font-size="10.00">AutodiffFunction::get_hessian</text>
</a>
</g>
</g>
<!-- Node22&#45;&gt;Node25 -->
<g id="edge25_Node000022_Node000025" class="edge">
<title>Node22&#45;&gt;Node25</title>
<g id="a_edge25_Node000022_Node000025"><a xlink:title=" ">
<path fill="none" stroke="#63b8ff" d="M565.64,-517C548.98,-517 531.8,-517 515.62,-517"/>
<polygon fill="#63b8ff" stroke="#63b8ff" points="565.94,-520.5 575.94,-517 565.94,-513.5 565.94,-520.5"/>
</a>
</g>
</g>
<!-- Node26 -->
<g id="Node000026" class="node">
<title>Node26</title>
<g id="a_Node000026"><a xlink:href="classwmtk_1_1function_1_1_a_m_i_p_s.html#a36709a007132c33f85efe0b4abd16b93" target="_top" xlink:title=" ">
<polygon fill="white" stroke="#666666" points="498.5,-484 371.5,-484 371.5,-454 498.5,-454 498.5,-484"/>
<text text-anchor="start" x="379.5" y="-472" font-family="Helvetica,sans-Serif" font-size="10.00">wmtk::function::AMIPS</text>
<text text-anchor="middle" x="435" y="-461" font-family="Helvetica,sans-Serif" font-size="10.00">::get_raw_coordinates</text>
</a>
</g>
</g>
<!-- Node22&#45;&gt;Node26 -->
<g id="edge27_Node000022_Node000026" class="edge">
<title>Node22&#45;&gt;Node26</title>
<g id="a_edge27_Node000022_Node000026"><a xlink:title=" ">
<path fill="none" stroke="#63b8ff" d="M580.64,-499.86C553.7,-494.11 524.09,-487.79 498.71,-482.38"/>
<polygon fill="#63b8ff" stroke="#63b8ff" points="579.92,-503.28 590.43,-501.94 581.38,-496.43 579.92,-503.28"/>
</a>
</g>
</g>
<!-- Node28 -->
<g id="Node000028" class="node">
<title>Node28</title>
<g id="a_Node000028"><a xlink:href="classwmtk_1_1function_1_1_per_simplex_autodiff_function.html#a5dbdaadd8398ba89b96ae7e799d6c7e7" target="_top" xlink:title="This function is defined over a simplex (normally a triangle or tetrahedron).">
<polygon fill="white" stroke="#666666" points="511,-436 359,-436 359,-406 511,-406 511,-436"/>
<text text-anchor="start" x="367" y="-424" font-family="Helvetica,sans-Serif" font-size="10.00">wmtk::function::PerSimplex</text>
<text text-anchor="middle" x="435" y="-413" font-family="Helvetica,sans-Serif" font-size="10.00">AutodiffFunction::get_value</text>
</a>
</g>
</g>
<!-- Node22&#45;&gt;Node28 -->
<g id="edge29_Node000022_Node000028" class="edge">
<title>Node22&#45;&gt;Node28</title>
<g id="a_edge29_Node000022_Node000028"><a xlink:title=" ">
<path fill="none" stroke="#63b8ff" d="M627.6,-496.6C600.66,-480.83 561.4,-459.34 525,-445 516.66,-441.72 507.71,-438.72 498.82,-436.04"/>
<polygon fill="#63b8ff" stroke="#63b8ff" points="625.85,-499.64 636.24,-501.71 629.41,-493.61 625.85,-499.64"/>
</a>
</g>
</g>
<!-- Node26&#45;&gt;Node27 -->
<g id="edge28_Node000026_Node000027" class="edge">
<title>Node26&#45;&gt;Node27</title>
<g id="a_edge28_Node000026_Node000027"><a xlink:title=" ">
<path fill="none" stroke="#63b8ff" d="M366.52,-451.23C359.24,-449.19 351.96,-447.09 345,-445 313.79,-435.64 278.91,-424.07 252.29,-415.01"/>
<polygon fill="#63b8ff" stroke="#63b8ff" points="365.84,-454.68 376.41,-453.98 367.72,-447.93 365.84,-454.68"/>
</a>
</g>
</g>
<!-- Node30&#45;&gt;Node30 -->
<g id="edge34_Node000030_Node000030" class="edge">
<title>Node30&#45;&gt;Node30</title>
<g id="a_edge34_Node000030_Node000030"><a xlink:title=" ">
<path fill="none" stroke="#63b8ff" d="M700.51,-243.6C695.25,-247.97 682.41,-251 662,-251 627.62,-251 614.73,-242.41 623.33,-233.28"/>
<polygon fill="#63b8ff" stroke="#63b8ff" points="704.01,-243.33 700.67,-233.28 697.01,-243.22 704.01,-243.33"/>
</a>
</g>
</g>
<!-- Node31 -->
<g id="Node000031" class="node">
<title>Node31</title>
<g id="a_Node000031"><a xlink:href="namespacewmtk_1_1components.html#ae6dfdbd73d7018f6f21bb2396872c796" target="_top" xlink:title=" ">
<polygon fill="white" stroke="#666666" points="514,-116 356,-116 356,-86 514,-86 514,-116"/>
<text text-anchor="start" x="364" y="-104" font-family="Helvetica,sans-Serif" font-size="10.00">wmtk::components::isotropic</text>
<text text-anchor="middle" x="435" y="-93" font-family="Helvetica,sans-Serif" font-size="10.00">_remeshing</text>
</a>
</g>
</g>
<!-- Node30&#45;&gt;Node31 -->
<g id="edge35_Node000030_Node000031" class="edge">
<title>Node30&#45;&gt;Node31</title>
<g id="a_edge35_Node000030_Node000031"><a xlink:title=" ">
<path fill="none" stroke="#63b8ff" d="M575.45,-202.97C570.33,-200.42 565.45,-197.45 561,-194 533.98,-173.04 551.61,-147.47 525,-126 520.25,-122.17 514.95,-118.93 509.37,-116.18"/>
<polygon fill="#63b8ff" stroke="#63b8ff" points="574.35,-206.31 584.91,-207.12 577.16,-199.89 574.35,-206.31"/>
</a>
</g>
</g>
<!-- Node32 -->
<g id="Node000032" class="node">
<title>Node32</title>
<g id="a_Node000032"><a xlink:href="test__component__isotropic__remeshing_8cpp.html#a64dc4992576434e79fdb0838f9092ab8" target="_top" xlink:title=" ">
<polygon fill="white" stroke="#666666" points="470.5,-67.5 399.5,-67.5 399.5,-48.5 470.5,-48.5 470.5,-67.5"/>
<text text-anchor="middle" x="435" y="-55.5" font-family="Helvetica,sans-Serif" font-size="10.00">TEST_CASE</text>
</a>
</g>
</g>
<!-- Node30&#45;&gt;Node32 -->
<g id="edge36_Node000030_Node000032" class="edge">
<title>Node30&#45;&gt;Node32</title>
<g id="a_edge36_Node000030_Node000032"><a xlink:title=" ">
<path fill="none" stroke="#63b8ff" d="M575.63,-204.44C570.33,-201.55 565.38,-198.11 561,-194 521.34,-156.76 565.13,-113.74 525,-77 510.43,-63.66 488.87,-58.82 470.62,-57.36"/>
<polygon fill="#63b8ff" stroke="#63b8ff" points="574.31,-207.68 584.85,-208.78 577.29,-201.35 574.31,-207.68"/>
</a>
</g>
</g>
<!-- Node33 -->
<g id="Node000033" class="node">
<title>Node33</title>
<g id="a_Node000033"><a xlink:href="test__component__isotropic__remeshing_8cpp.html#aae475685ae29b731655dd43137a950d6" target="_top" xlink:title=" ">
<polygon fill="white" stroke="#666666" points="470.5,-301.5 399.5,-301.5 399.5,-282.5 470.5,-282.5 470.5,-301.5"/>
<text text-anchor="middle" x="435" y="-289.5" font-family="Helvetica,sans-Serif" font-size="10.00">TEST_CASE</text>
</a>
</g>
</g>
<!-- Node30&#45;&gt;Node33 -->
<g id="edge37_Node000030_Node000033" class="edge">
<title>Node30&#45;&gt;Node33</title>
<g id="a_edge37_Node000030_Node000033"><a xlink:title=" ">
<path fill="none" stroke="#63b8ff" d="M619.84,-237.36C593.25,-249.26 557.64,-264.08 525,-274 507.35,-279.36 487.25,-283.58 470.61,-286.59"/>
<polygon fill="#63b8ff" stroke="#63b8ff" points="621.54,-240.43 629.21,-233.12 618.65,-234.06 621.54,-240.43"/>
</a>
</g>
</g>
<!-- Node34 -->
<g id="Node000034" class="node">
<title>Node34</title>
<g id="a_Node000034"><a xlink:href="test__component__isotropic__remeshing_8cpp.html#ab3fcea88943daf212aeeda03eb0baa8b" target="_top" xlink:title=" ">
<polygon fill="white" stroke="#666666" points="470.5,-264.5 399.5,-264.5 399.5,-245.5 470.5,-245.5 470.5,-264.5"/>
<text text-anchor="middle" x="435" y="-252.5" font-family="Helvetica,sans-Serif" font-size="10.00">TEST_CASE</text>
</a>
</g>
</g>
<!-- Node30&#45;&gt;Node34 -->
<g id="edge38_Node000030_Node000034" class="edge">
<title>Node30&#45;&gt;Node34</title>
<g id="a_edge38_Node000030_Node000034"><a xlink:title=" ">
<path fill="none" stroke="#63b8ff" d="M574.7,-232.19C538.41,-238.16 498.26,-244.76 470.54,-249.32"/>
<polygon fill="#63b8ff" stroke="#63b8ff" points="575.53,-235.6 584.83,-230.53 574.39,-228.7 575.53,-235.6"/>
</a>
</g>
</g>
<!-- Node35 -->
<g id="Node000035" class="node">
<title>Node35</title>
<g id="a_Node000035"><a xlink:href="test__component__isotropic__remeshing_8cpp.html#aceca2caa1612565bd919bd8cf0ea0232" target="_top" xlink:title=" ">
<polygon fill="white" stroke="#666666" points="470.5,-227.5 399.5,-227.5 399.5,-208.5 470.5,-208.5 470.5,-227.5"/>
<text text-anchor="middle" x="435" y="-215.5" font-family="Helvetica,sans-Serif" font-size="10.00">TEST_CASE</text>
</a>
</g>
</g>
<!-- Node30&#45;&gt;Node35 -->
<g id="edge39_Node000030_Node000035" class="edge">
<title>Node30&#45;&gt;Node35</title>
<g id="a_edge39_Node000030_Node000035"><a xlink:title=" ">
<path fill="none" stroke="#63b8ff" d="M574.7,-218C538.41,-218 498.26,-218 470.54,-218"/>
<polygon fill="#63b8ff" stroke="#63b8ff" points="574.83,-221.5 584.83,-218 574.83,-214.5 574.83,-221.5"/>
</a>
</g>
</g>
<!-- Node36 -->
<g id="Node000036" class="node">
<title>Node36</title>
<g id="a_Node000036"><a xlink:href="test__component__isotropic__remeshing_8cpp.html#a51ae85bc413e9940267e8a366e0bcc9f" target="_top" xlink:title=" ">
<polygon fill="white" stroke="#666666" points="470.5,-190.5 399.5,-190.5 399.5,-171.5 470.5,-171.5 470.5,-190.5"/>
<text text-anchor="middle" x="435" y="-178.5" font-family="Helvetica,sans-Serif" font-size="10.00">TEST_CASE</text>
</a>
</g>
</g>
<!-- Node30&#45;&gt;Node36 -->
<g id="edge40_Node000030_Node000036" class="edge">
<title>Node30&#45;&gt;Node36</title>
<g id="a_edge40_Node000030_Node000036"><a xlink:title=" ">
<path fill="none" stroke="#63b8ff" d="M574.7,-203.81C538.41,-197.84 498.26,-191.24 470.54,-186.68"/>
<polygon fill="#63b8ff" stroke="#63b8ff" points="574.39,-207.3 584.83,-205.47 575.53,-200.4 574.39,-207.3"/>
</a>
</g>
</g>
<!-- Node37 -->
<g id="Node000037" class="node">
<title>Node37</title>
<g id="a_Node000037"><a xlink:href="test__component__isotropic__remeshing_8cpp.html#a9e0dd9408a6fe42f1fb8e8764f740dda" target="_top" xlink:title=" ">
<polygon fill="white" stroke="#666666" points="470.5,-153.5 399.5,-153.5 399.5,-134.5 470.5,-134.5 470.5,-153.5"/>
<text text-anchor="middle" x="435" y="-141.5" font-family="Helvetica,sans-Serif" font-size="10.00">TEST_CASE</text>
</a>
</g>
</g>
<!-- Node30&#45;&gt;Node37 -->
<g id="edge41_Node000030_Node000037" class="edge">
<title>Node30&#45;&gt;Node37</title>
<g id="a_edge41_Node000030_Node000037"><a xlink:title=" ">
<path fill="none" stroke="#63b8ff" d="M575.25,-200.35C570.34,-198.44 565.55,-196.33 561,-194 542.21,-184.38 543.91,-172.39 525,-163 508.16,-154.64 487.74,-149.95 470.72,-147.32"/>
<polygon fill="#63b8ff" stroke="#63b8ff" points="574.21,-203.7 584.81,-203.78 576.58,-197.11 574.21,-203.7"/>
</a>
</g>
</g>
<!-- Node38&#45;&gt;Node38 -->
<g id="edge43_Node000038_Node000038" class="edge">
<title>Node38&#45;&gt;Node38</title>
<g id="a_edge43_Node000038_Node000038"><a xlink:title=" ">
<path fill="none" stroke="#63b8ff" d="M703.23,-173.81C703.85,-179.71 690.1,-184.5 662,-184.5 622.9,-184.5 611.6,-175.23 628.09,-166.58"/>
<polygon fill="#63b8ff" stroke="#63b8ff" points="705.48,-171.12 695.91,-166.58 700.57,-176.1 705.48,-171.12"/>
</a>
</g>
</g>
<!-- Node40 -->
<g id="Node000040" class="node">
<title>Node40</title>
<g id="a_Node000040"><a xlink:href="namespacewmtk_1_1components.html#a3154cdbc6047eee67258b69cc7d5e7cf" target="_top" xlink:title="Perform shortest&#45;edge collapse on a triangular surface mesh.">
<polygon fill="white" stroke="#666666" points="525,-30 345,-30 345,0 525,0 525,-30"/>
<text text-anchor="start" x="353" y="-18" font-family="Helvetica,sans-Serif" font-size="10.00">wmtk::components::shortestedge</text>
<text text-anchor="middle" x="435" y="-7" font-family="Helvetica,sans-Serif" font-size="10.00">_collapse</text>
</a>
</g>
</g>
<!-- Node39&#45;&gt;Node40 -->
<g id="edge45_Node000039_Node000040" class="edge">
<title>Node39&#45;&gt;Node40</title>
<g id="a_edge45_Node000039_Node000040"><a xlink:title=" ">
<path fill="none" stroke="#63b8ff" d="M583.7,-47.82C557.75,-42.05 529.02,-35.67 503.85,-30.08"/>
<polygon fill="#63b8ff" stroke="#63b8ff" points="582.97,-51.25 593.49,-50 584.49,-44.41 582.97,-51.25"/>
</a>
</g>
</g>
</g>
</svg>
