<?xml version="1.0" encoding="UTF-8" standalone="no"?>
<!DOCTYPE svg PUBLIC "-//W3C//DTD SVG 1.1//EN"
 "http://www.w3.org/Graphics/SVG/1.1/DTD/svg11.dtd">
<!-- Generated by graphviz version 2.43.0 (0)
 -->
<!-- Title: wmtk::TriMesh::TriMeshOperationExecutor::collapse_edge Pages: 1 -->
<svg width="1312pt" height="512pt"
 viewBox="0.00 0.00 1312.00 511.50" xmlns="http://www.w3.org/2000/svg" xmlns:xlink="http://www.w3.org/1999/xlink">
<g id="graph0" class="graph" transform="scale(1 1) rotate(0) translate(4 507.5)">
<title>wmtk::TriMesh::TriMeshOperationExecutor::collapse_edge</title>
<!-- Node1 -->
<g id="Node000001" class="node">
<title>Node1</title>
<g id="a_Node000001"><a xlink:title=" ">
<polygon fill="#999999" stroke="#666666" points="179,-78 0,-78 0,-48 179,-48 179,-78"/>
<text text-anchor="start" x="8" y="-66" font-family="Helvetica,sans-Serif" font-size="10.00">wmtk::TriMesh::TriMeshOperation</text>
<text text-anchor="middle" x="89.5" y="-55" font-family="Helvetica,sans-Serif" font-size="10.00">Executor::collapse_edge</text>
</a>
</g>
</g>
<!-- Node2 -->
<g id="Node000002" class="node">
<title>Node2</title>
<g id="a_Node000002"><a xlink:href="namespacewmtk_1_1simplex.html#a2ed8f83fbda4dc05306bfe8d2ce7ab94" target="_top" xlink:title="The closed star contains the input simplex, all its top dimension cofaces, and their faces.">
<polygon fill="white" stroke="#666666" points="366,-257.5 215,-257.5 215,-238.5 366,-238.5 366,-257.5"/>
<text text-anchor="middle" x="290.5" y="-245.5" font-family="Helvetica,sans-Serif" font-size="10.00">wmtk::simplex::closed_star</text>
</a>
</g>
</g>
<!-- Node1&#45;&gt;Node2 -->
<g id="edge1_Node000001_Node000002" class="edge">
<title>Node1&#45;&gt;Node2</title>
<g id="a_edge1_Node000001_Node000002"><a xlink:title=" ">
<path fill="none" stroke="#63b8ff" d="M106.79,-78.14C143.7,-112.46 233.51,-195.95 271.77,-231.52"/>
<polygon fill="#63b8ff" stroke="#63b8ff" points="269.41,-234.1 279.11,-238.34 274.17,-228.97 269.41,-234.1"/>
</a>
</g>
</g>
<!-- Node12 -->
<g id="Node000012" class="node">
<title>Node12</title>
<g id="a_Node000012"><a xlink:href="classwmtk_1_1simplex_1_1_simplex_collection.html#a3c5684abe23553010bb7f87840e9518d" target="_top" xlink:title="Return const reference to the simplex vector.">
<polygon fill="white" stroke="#666666" points="586,-78 402,-78 402,-48 586,-48 586,-78"/>
<text text-anchor="start" x="410" y="-66" font-family="Helvetica,sans-Serif" font-size="10.00">wmtk::simplex::SimplexCollection</text>
<text text-anchor="middle" x="494" y="-55" font-family="Helvetica,sans-Serif" font-size="10.00">::simplex_vector</text>
</a>
</g>
</g>
<!-- Node1&#45;&gt;Node12 -->
<g id="edge25_Node000001_Node000012" class="edge">
<title>Node1&#45;&gt;Node12</title>
<g id="a_edge25_Node000001_Node000012"><a xlink:title=" ">
<path fill="none" stroke="#63b8ff" d="M179.33,-63C242.07,-63 326.27,-63 391.64,-63"/>
<polygon fill="#63b8ff" stroke="#63b8ff" points="391.96,-66.5 401.96,-63 391.96,-59.5 391.96,-66.5"/>
</a>
</g>
</g>
<!-- Node21 -->
<g id="Node000021" class="node">
<title>Node21</title>
<g id="a_Node000021"><a xlink:href="classwmtk_1_1simplex_1_1_simplex.html#a7de67a391b9f48b57f4ecb4c412ccaee" target="_top" xlink:title=" ">
<polygon fill="white" stroke="#666666" points="358,-33 223,-33 223,-3 358,-3 358,-33"/>
<text text-anchor="start" x="231" y="-21" font-family="Helvetica,sans-Serif" font-size="10.00">wmtk::simplex::Simplex</text>
<text text-anchor="middle" x="290.5" y="-10" font-family="Helvetica,sans-Serif" font-size="10.00">::vertex</text>
</a>
</g>
</g>
<!-- Node1&#45;&gt;Node21 -->
<g id="edge26_Node000001_Node000021" class="edge">
<title>Node1&#45;&gt;Node21</title>
<g id="a_edge26_Node000001_Node000021"><a xlink:title=" ">
<path fill="none" stroke="#63b8ff" d="M157.04,-47.95C175.05,-43.88 194.68,-39.44 213.17,-35.26"/>
<polygon fill="#63b8ff" stroke="#63b8ff" points="214.04,-38.65 223.02,-33.03 212.5,-31.82 214.04,-38.65"/>
</a>
</g>
</g>
<!-- Node3 -->
<g id="Node000003" class="node">
<title>Node3</title>
<g id="a_Node000003"><a xlink:href="classwmtk_1_1simplex_1_1_simplex_collection.html#a1e7079b3b75f70dd28c524556cab76cf" target="_top" xlink:title="Add simplex to the collection.">
<polygon fill="white" stroke="#666666" points="1050,-285.5 842,-285.5 842,-266.5 1050,-266.5 1050,-285.5"/>
<text text-anchor="middle" x="946" y="-273.5" font-family="Helvetica,sans-Serif" font-size="10.00">wmtk::simplex::SimplexCollection::add</text>
</a>
</g>
</g>
<!-- Node2&#45;&gt;Node3 -->
<g id="edge2_Node000002_Node000003" class="edge">
<title>Node2&#45;&gt;Node3</title>
<g id="a_edge2_Node000002_Node000003"><a xlink:title=" ">
<path fill="none" stroke="#63b8ff" d="M366.08,-252.98C378.09,-253.7 390.39,-254.41 402,-255 550.47,-262.57 721.9,-268.78 831.77,-272.43"/>
<polygon fill="#63b8ff" stroke="#63b8ff" points="831.77,-275.93 841.88,-272.77 832,-268.94 831.77,-275.93"/>
</a>
</g>
</g>
<!-- Node4 -->
<g id="Node000004" class="node">
<title>Node4</title>
<g id="a_Node000004"><a xlink:href="namespacewmtk_1_1simplex.html#aee89641a0de7b5ddf8d15bf376f9d33b" target="_top" xlink:title="Returns all faces of a simplex.">
<polygon fill="white" stroke="#666666" points="555,-115.5 433,-115.5 433,-96.5 555,-96.5 555,-115.5"/>
<text text-anchor="middle" x="494" y="-103.5" font-family="Helvetica,sans-Serif" font-size="10.00">wmtk::simplex::faces</text>
</a>
</g>
</g>
<!-- Node2&#45;&gt;Node4 -->
<g id="edge3_Node000002_Node000004" class="edge">
<title>Node2&#45;&gt;Node4</title>
<g id="a_edge3_Node000002_Node000004"><a xlink:title=" ">
<path fill="none" stroke="#63b8ff" d="M300.16,-238.41C317.83,-219.28 359.91,-175.82 402,-148 419.27,-136.59 440.14,-126.71 457.54,-119.41"/>
<polygon fill="#63b8ff" stroke="#63b8ff" points="458.87,-122.65 466.8,-115.62 456.22,-116.17 458.87,-122.65"/>
</a>
</g>
</g>
<!-- Node5 -->
<g id="Node000005" class="node">
<title>Node5</title>
<g id="a_Node000005"><a xlink:href="classwmtk_1_1_mesh.html#a8cc8686f0688613806f43720b6db49e7" target="_top" xlink:title="check validity of tuple including its hash">
<polygon fill="white" stroke="#666666" points="554,-467.5 434,-467.5 434,-448.5 554,-448.5 554,-467.5"/>
<text text-anchor="middle" x="494" y="-455.5" font-family="Helvetica,sans-Serif" font-size="10.00">wmtk::Mesh::is_valid</text>
</a>
</g>
</g>
<!-- Node2&#45;&gt;Node5 -->
<g id="edge5_Node000002_Node000005" class="edge">
<title>Node2&#45;&gt;Node5</title>
<g id="a_edge5_Node000002_Node000005"><a xlink:title=" ">
<path fill="none" stroke="#63b8ff" d="M294.08,-257.86C302.99,-289.77 335.57,-390.96 402,-439 408.6,-443.77 416.14,-447.4 423.98,-450.15"/>
<polygon fill="#63b8ff" stroke="#63b8ff" points="423.08,-453.54 433.66,-453.09 425.11,-446.84 423.08,-453.54"/>
</a>
</g>
</g>
<!-- Node8 -->
<g id="Node000008" class="node">
<title>Node8</title>
<g id="a_Node000008"><a xlink:href="namespacewmtk.html#a441d6ad4f19569c7d4946e743da1a925" target="_top" xlink:title=" ">
<polygon fill="white" stroke="#666666" points="1007,-239 885,-239 885,-209 1007,-209 1007,-239"/>
<text text-anchor="start" x="893" y="-227" font-family="Helvetica,sans-Serif" font-size="10.00">wmtk::log_and_throw</text>
<text text-anchor="middle" x="946" y="-216" font-family="Helvetica,sans-Serif" font-size="10.00">_error</text>
</a>
</g>
</g>
<!-- Node2&#45;&gt;Node8 -->
<g id="edge9_Node000002_Node000008" class="edge">
<title>Node2&#45;&gt;Node8</title>
<g id="a_edge9_Node000002_Node000008"><a xlink:title=" ">
<path fill="none" stroke="#63b8ff" d="M366.15,-245.26C493.35,-240.59 750.38,-231.15 874.62,-226.58"/>
<polygon fill="#63b8ff" stroke="#63b8ff" points="874.91,-230.08 884.77,-226.21 874.65,-223.08 874.91,-230.08"/>
</a>
</g>
</g>
<!-- Node11 -->
<g id="Node000011" class="node">
<title>Node11</title>
<g id="a_Node000011"><a xlink:href="classwmtk_1_1simplex_1_1_simplex_collection.html#a1973c83eede96b64f422049c6fc52976" target="_top" xlink:title=" ">
<polygon fill="white" stroke="#666666" points="586,-430 402,-430 402,-400 586,-400 586,-430"/>
<text text-anchor="start" x="410" y="-418" font-family="Helvetica,sans-Serif" font-size="10.00">wmtk::simplex::SimplexCollection</text>
<text text-anchor="middle" x="494" y="-407" font-family="Helvetica,sans-Serif" font-size="10.00">::reserve</text>
</a>
</g>
</g>
<!-- Node2&#45;&gt;Node11 -->
<g id="edge12_Node000002_Node000011" class="edge">
<title>Node2&#45;&gt;Node11</title>
<g id="a_edge12_Node000002_Node000011"><a xlink:title=" ">
<path fill="none" stroke="#63b8ff" d="M296.15,-257.77C309.03,-283.77 347.87,-355.12 402,-391 404.43,-392.61 406.95,-394.11 409.56,-395.51"/>
<polygon fill="#63b8ff" stroke="#63b8ff" points="408.15,-398.71 418.68,-399.89 411.18,-392.4 408.15,-398.71"/>
</a>
</g>
</g>
<!-- Node2&#45;&gt;Node12 -->
<g id="edge13_Node000002_Node000012" class="edge">
<title>Node2&#45;&gt;Node12</title>
<g id="a_edge13_Node000002_Node000012"><a xlink:title=" ">
<path fill="none" stroke="#63b8ff" d="M295.28,-238.24C306.73,-210.07 343.79,-127.99 402,-87 404.1,-85.52 406.29,-84.13 408.55,-82.82"/>
<polygon fill="#63b8ff" stroke="#63b8ff" points="410.25,-85.89 417.55,-78.21 407.05,-79.66 410.25,-85.89"/>
</a>
</g>
</g>
<!-- Node13 -->
<g id="Node000013" class="node">
<title>Node13</title>
<g id="a_Node000013"><a xlink:href="classwmtk_1_1simplex_1_1_simplex_collection.html#ab318c99d54327383ff1b985bed043f3a" target="_top" xlink:title="Sort simplex vector and remove duplicates.">
<polygon fill="white" stroke="#666666" points="806,-124 622,-124 622,-94 806,-94 806,-124"/>
<text text-anchor="start" x="630" y="-112" font-family="Helvetica,sans-Serif" font-size="10.00">wmtk::simplex::SimplexCollection</text>
<text text-anchor="middle" x="714" y="-101" font-family="Helvetica,sans-Serif" font-size="10.00">::sort_and_clean</text>
</a>
</g>
</g>
<!-- Node2&#45;&gt;Node13 -->
<g id="edge14_Node000002_Node000013" class="edge">
<title>Node2&#45;&gt;Node13</title>
<g id="a_edge14_Node000002_Node000013"><a xlink:title=" ">
<path fill="none" stroke="#63b8ff" d="M304.02,-238.45C323.76,-223.86 363.83,-196.11 402,-181 479.73,-150.23 504.64,-161.18 586,-142 597.89,-139.2 622.1,-132.95 646.22,-126.64"/>
<polygon fill="#63b8ff" stroke="#63b8ff" points="647.37,-129.96 656.16,-124.04 645.6,-123.19 647.37,-129.96"/>
</a>
</g>
</g>
<!-- Node14 -->
<g id="Node000014" class="node">
<title>Node14</title>
<g id="a_Node000014"><a xlink:href="namespacewmtk_1_1simplex.html#a87de7137d8d21f1643dd604d73e8f765" target="_top" xlink:title="Get all top dimension cofaces of the given simplex.">
<polygon fill="white" stroke="#666666" points="552,-220 436,-220 436,-190 552,-190 552,-220"/>
<text text-anchor="start" x="444" y="-208" font-family="Helvetica,sans-Serif" font-size="10.00">wmtk::simplex::top</text>
<text text-anchor="middle" x="494" y="-197" font-family="Helvetica,sans-Serif" font-size="10.00">_dimension_cofaces</text>
</a>
</g>
</g>
<!-- Node2&#45;&gt;Node14 -->
<g id="edge15_Node000002_Node000014" class="edge">
<title>Node2&#45;&gt;Node14</title>
<g id="a_edge15_Node000002_Node000014"><a xlink:title=" ">
<path fill="none" stroke="#63b8ff" d="M336.22,-238.46C362.57,-232.83 396.43,-225.61 425.93,-219.31"/>
<polygon fill="#63b8ff" stroke="#63b8ff" points="426.7,-222.73 435.75,-217.22 425.24,-215.88 426.7,-222.73"/>
</a>
</g>
</g>
<!-- Node18 -->
<g id="Node000018" class="node">
<title>Node18</title>
<g id="a_Node000018"><a xlink:href="classwmtk_1_1_mesh.html#abaf00438d0700358b160e310d69725c9" target="_top" xlink:title=" ">
<polygon fill="white" stroke="#666666" points="579,-381.5 409,-381.5 409,-362.5 579,-362.5 579,-381.5"/>
<text text-anchor="middle" x="494" y="-369.5" font-family="Helvetica,sans-Serif" font-size="10.00">wmtk::Mesh::top_simplex_type</text>
</a>
</g>
</g>
<!-- Node2&#45;&gt;Node18 -->
<g id="edge22_Node000002_Node000018" class="edge">
<title>Node2&#45;&gt;Node18</title>
<g id="a_edge22_Node000002_Node000018"><a xlink:title=" ">
<path fill="none" stroke="#63b8ff" d="M298.56,-257.66C314.46,-278.66 355.36,-328.55 402,-353 406.53,-355.37 411.33,-357.45 416.27,-359.27"/>
<polygon fill="#63b8ff" stroke="#63b8ff" points="415.31,-362.64 425.9,-362.46 417.5,-355.99 415.31,-362.64"/>
</a>
</g>
</g>
<!-- Node20 -->
<g id="Node000020" class="node">
<title>Node20</title>
<g id="a_Node000020"><a xlink:href="classwmtk_1_1simplex_1_1_simplex.html#aca78b1fb0a3c28c0036cf7919bfb0789" target="_top" xlink:title=" ">
<polygon fill="white" stroke="#666666" points="561.5,-344 426.5,-344 426.5,-314 561.5,-314 561.5,-344"/>
<text text-anchor="start" x="434.5" y="-332" font-family="Helvetica,sans-Serif" font-size="10.00">wmtk::simplex::Simplex</text>
<text text-anchor="middle" x="494" y="-321" font-family="Helvetica,sans-Serif" font-size="10.00">::tuple</text>
</a>
</g>
</g>
<!-- Node2&#45;&gt;Node20 -->
<g id="edge24_Node000002_Node000020" class="edge">
<title>Node2&#45;&gt;Node20</title>
<g id="a_edge24_Node000002_Node000020"><a xlink:title=" ">
<path fill="none" stroke="#63b8ff" d="M309.94,-257.59C331.62,-268.65 368.85,-286.98 402,-300 411.59,-303.77 421.89,-307.41 431.98,-310.78"/>
<polygon fill="#63b8ff" stroke="#63b8ff" points="430.98,-314.13 441.57,-313.91 433.15,-307.48 430.98,-314.13"/>
</a>
</g>
</g>
<!-- Node4&#45;&gt;Node4 -->
<g id="edge4_Node000004_Node000004" class="edge">
<title>Node4&#45;&gt;Node4</title>
<g id="a_edge4_Node000004_Node000004"><a xlink:title=" ">
<path fill="none" stroke="#63b8ff" d="M462.87,-115.58C447.72,-124.23 458.1,-133.5 494,-133.5 519.24,-133.5 531.87,-128.92 531.87,-123.19"/>
<polygon fill="#63b8ff" stroke="#63b8ff" points="534.39,-120.75 525.13,-115.58 529.15,-125.39 534.39,-120.75"/>
</a>
</g>
</g>
<!-- Node6 -->
<g id="Node000006" class="node">
<title>Node6</title>
<g id="a_Node000006"><a xlink:href="classwmtk_1_1_tuple.html#a0023f575be92cd5ceeeaaaa3762ea06d" target="_top" xlink:title="Checks if a tuple is &quot;null&quot;. This merely implies the global index is &#45;1.">
<polygon fill="white" stroke="#666666" points="770.5,-448.5 657.5,-448.5 657.5,-429.5 770.5,-429.5 770.5,-448.5"/>
<text text-anchor="middle" x="714" y="-436.5" font-family="Helvetica,sans-Serif" font-size="10.00">wmtk::Tuple::is_null</text>
</a>
</g>
</g>
<!-- Node5&#45;&gt;Node6 -->
<g id="edge6_Node000005_Node000006" class="edge">
<title>Node5&#45;&gt;Node6</title>
<g id="a_edge6_Node000005_Node000006"><a xlink:title=" ">
<path fill="none" stroke="#63b8ff" d="M554.28,-452.83C583.04,-450.33 617.68,-447.31 647.25,-444.73"/>
<polygon fill="#63b8ff" stroke="#63b8ff" points="647.82,-448.19 657.48,-443.84 647.21,-441.22 647.82,-448.19"/>
</a>
</g>
</g>
<!-- Node7 -->
<g id="Node000007" class="node">
<title>Node7</title>
<g id="a_Node000007"><a xlink:href="classwmtk_1_1_mesh.html#ade176d345902d97af8c5da04aa3a095b" target="_top" xlink:title=" ">
<polygon fill="white" stroke="#666666" points="784,-485.5 644,-485.5 644,-466.5 784,-466.5 784,-485.5"/>
<text text-anchor="middle" x="714" y="-473.5" font-family="Helvetica,sans-Serif" font-size="10.00">wmtk::Mesh::is_removed</text>
</a>
</g>
</g>
<!-- Node5&#45;&gt;Node7 -->
<g id="edge7_Node000005_Node000007" class="edge">
<title>Node5&#45;&gt;Node7</title>
<g id="a_edge7_Node000005_Node000007"><a xlink:title=" ">
<path fill="none" stroke="#63b8ff" d="M554.28,-462.89C578.66,-464.91 607.26,-467.27 633.41,-469.43"/>
<polygon fill="#63b8ff" stroke="#63b8ff" points="633.43,-472.94 643.68,-470.28 634.01,-465.97 633.43,-472.94"/>
</a>
</g>
</g>
<!-- Node7&#45;&gt;Node7 -->
<g id="edge8_Node000007_Node000007" class="edge">
<title>Node7&#45;&gt;Node7</title>
<g id="a_edge8_Node000007_Node000007"><a xlink:title=" ">
<path fill="none" stroke="#63b8ff" d="M680.09,-485.58C663.6,-494.23 674.9,-503.5 714,-503.5 742.1,-503.5 755.85,-498.71 755.23,-492.81"/>
<polygon fill="#63b8ff" stroke="#63b8ff" points="757.48,-490.12 747.91,-485.58 752.57,-495.1 757.48,-490.12"/>
</a>
</g>
</g>
<!-- Node9 -->
<g id="Node000009" class="node">
<title>Node9</title>
<g id="a_Node000009"><a xlink:href="namespacewmtk.html#a6a35f11c12436093d26fdd8be6fecc06" target="_top" xlink:title="Retrieves the current logger.">
<polygon fill="white" stroke="#666666" points="1167,-233.5 1086,-233.5 1086,-214.5 1167,-214.5 1167,-233.5"/>
<text text-anchor="middle" x="1126.5" y="-221.5" font-family="Helvetica,sans-Serif" font-size="10.00">wmtk::logger</text>
</a>
</g>
</g>
<!-- Node8&#45;&gt;Node9 -->
<g id="edge10_Node000008_Node000009" class="edge">
<title>Node8&#45;&gt;Node9</title>
<g id="a_edge10_Node000008_Node000009"><a xlink:title=" ">
<path fill="none" stroke="#63b8ff" d="M1007.43,-224C1029.68,-224 1054.61,-224 1075.81,-224"/>
<polygon fill="#63b8ff" stroke="#63b8ff" points="1075.89,-227.5 1085.89,-224 1075.89,-220.5 1075.89,-227.5"/>
</a>
</g>
</g>
<!-- Node10 -->
<g id="Node000010" class="node">
<title>Node10</title>
<g id="a_Node000010"><a xlink:href="namespacewmtk.html#a3daa7951a5f8b78cf4600dc047fcc180" target="_top" xlink:title="Setup a logger object to be used by WildmeshToolkit.">
<polygon fill="white" stroke="#666666" points="1304,-233.5 1203,-233.5 1203,-214.5 1304,-214.5 1304,-233.5"/>
<text text-anchor="middle" x="1253.5" y="-221.5" font-family="Helvetica,sans-Serif" font-size="10.00">wmtk::set_logger</text>
</a>
</g>
</g>
<!-- Node9&#45;&gt;Node10 -->
<g id="edge11_Node000009_Node000010" class="edge">
<title>Node9&#45;&gt;Node10</title>
<g id="a_edge11_Node000009_Node000010"><a xlink:title=" ">
<path fill="none" stroke="#63b8ff" d="M1167.05,-224C1175.17,-224 1183.9,-224 1192.55,-224"/>
<polygon fill="#63b8ff" stroke="#63b8ff" points="1192.65,-227.5 1202.65,-224 1192.65,-220.5 1192.65,-227.5"/>
</a>
</g>
</g>
<!-- Node14&#45;&gt;Node13 -->
<g id="edge17_Node000014_Node000013" class="edge">
<title>Node14&#45;&gt;Node13</title>
<g id="a_edge17_Node000014_Node000013"><a xlink:title=" ">
<path fill="none" stroke="#63b8ff" d="M552.14,-192.24C563.91,-188.15 575.81,-182.84 586,-176 606.7,-162.11 600.96,-146.36 622,-133 624.61,-131.35 627.32,-129.8 630.12,-128.37"/>
<polygon fill="#63b8ff" stroke="#63b8ff" points="631.68,-131.5 639.29,-124.13 628.74,-125.15 631.68,-131.5"/>
</a>
</g>
</g>
<!-- Node15 -->
<g id="Node000015" class="node">
<title>Node15</title>
<g id="a_Node000015"><a xlink:href="classwmtk_1_1simplex_1_1_simplex_collection.html#a0d0c1765c4ed8ffd0f163661111bfb08" target="_top" xlink:title=" ">
<polygon fill="white" stroke="#666666" points="806,-220 622,-220 622,-190 806,-190 806,-220"/>
<text text-anchor="start" x="630" y="-208" font-family="Helvetica,sans-Serif" font-size="10.00">wmtk::simplex::SimplexCollection</text>
<text text-anchor="middle" x="714" y="-197" font-family="Helvetica,sans-Serif" font-size="10.00">::mesh</text>
</a>
</g>
</g>
<!-- Node14&#45;&gt;Node15 -->
<g id="edge16_Node000014_Node000015" class="edge">
<title>Node14&#45;&gt;Node15</title>
<g id="a_edge16_Node000014_Node000015"><a xlink:title=" ">
<path fill="none" stroke="#63b8ff" d="M552.28,-205C570.6,-205 591.46,-205 611.94,-205"/>
<polygon fill="#63b8ff" stroke="#63b8ff" points="611.95,-208.5 621.95,-205 611.95,-201.5 611.95,-208.5"/>
</a>
</g>
</g>
<!-- Node16 -->
<g id="Node000016" class="node">
<title>Node16</title>
<g id="a_Node000016"><a xlink:href="namespacewmtk_1_1simplex.html#a0101f27eb2ad82814390b92ab1a4d1a0" target="_top" xlink:title=" ">
<polygon fill="white" stroke="#666666" points="789.5,-172 638.5,-172 638.5,-142 789.5,-142 789.5,-172"/>
<text text-anchor="start" x="646.5" y="-160" font-family="Helvetica,sans-Serif" font-size="10.00">wmtk::simplex::top</text>
<text text-anchor="middle" x="714" y="-149" font-family="Helvetica,sans-Serif" font-size="10.00">_dimension_cofaces_tuples</text>
</a>
</g>
</g>
<!-- Node14&#45;&gt;Node16 -->
<g id="edge18_Node000014_Node000016" class="edge">
<title>Node14&#45;&gt;Node16</title>
<g id="a_edge18_Node000014_Node000016"><a xlink:title=" ">
<path fill="none" stroke="#63b8ff" d="M552.28,-192.39C577.56,-186.82 607.67,-180.19 634.96,-174.18"/>
<polygon fill="#63b8ff" stroke="#63b8ff" points="635.86,-177.57 644.87,-172 634.35,-170.73 635.86,-177.57"/>
</a>
</g>
</g>
<!-- Node16&#45;&gt;Node3 -->
<g id="edge19_Node000016_Node000003" class="edge">
<title>Node16&#45;&gt;Node3</title>
<g id="a_edge19_Node000016_Node000003"><a xlink:title=" ">
<path fill="none" stroke="#63b8ff" d="M789.52,-170.99C795.41,-173.75 801,-177.05 806,-181 832.54,-201.93 815.54,-226.97 842,-248 850.03,-254.38 859.39,-259.31 869.15,-263.12"/>
<polygon fill="#63b8ff" stroke="#63b8ff" points="867.99,-266.42 878.58,-266.44 870.31,-259.82 867.99,-266.42"/>
</a>
</g>
</g>
<!-- Node16&#45;&gt;Node8 -->
<g id="edge20_Node000016_Node000008" class="edge">
<title>Node16&#45;&gt;Node8</title>
<g id="a_edge20_Node000016_Node000008"><a xlink:title=" ">
<path fill="none" stroke="#63b8ff" d="M773.35,-172C784.23,-174.91 795.48,-177.99 806,-181 833.23,-188.8 863.27,-198.01 888.43,-205.91"/>
<polygon fill="#63b8ff" stroke="#63b8ff" points="887.59,-209.31 898.18,-208.98 889.69,-202.64 887.59,-209.31"/>
</a>
</g>
</g>
<!-- Node17 -->
<g id="Node000017" class="node">
<title>Node17</title>
<g id="a_Node000017"><a xlink:href="classwmtk_1_1simplex_1_1_simplex.html#ad2cc0340a0772b7d6f03ba7a781d1163" target="_top" xlink:title=" ">
<polygon fill="white" stroke="#666666" points="1013.5,-172 878.5,-172 878.5,-142 1013.5,-142 1013.5,-172"/>
<text text-anchor="start" x="886.5" y="-160" font-family="Helvetica,sans-Serif" font-size="10.00">wmtk::simplex::Simplex</text>
<text text-anchor="middle" x="946" y="-149" font-family="Helvetica,sans-Serif" font-size="10.00">::primitive_type</text>
</a>
</g>
</g>
<!-- Node16&#45;&gt;Node17 -->
<g id="edge21_Node000016_Node000017" class="edge">
<title>Node16&#45;&gt;Node17</title>
<g id="a_edge21_Node000016_Node000017"><a xlink:title=" ">
<path fill="none" stroke="#63b8ff" d="M789.67,-157C814.81,-157 842.88,-157 868.18,-157"/>
<polygon fill="#63b8ff" stroke="#63b8ff" points="868.46,-160.5 878.46,-157 868.46,-153.5 868.46,-160.5"/>
</a>
</g>
</g>
<!-- Node19 -->
<g id="Node000019" class="node">
<title>Node19</title>
<g id="a_Node000019"><a xlink:href="classwmtk_1_1_mesh.html#a933f681cf24a63b155c9462280385200" target="_top" xlink:title=" ">
<polygon fill="white" stroke="#666666" points="774.5,-387 653.5,-387 653.5,-357 774.5,-357 774.5,-387"/>
<text text-anchor="start" x="661.5" y="-375" font-family="Helvetica,sans-Serif" font-size="10.00">wmtk::Mesh::top_cell</text>
<text text-anchor="middle" x="714" y="-364" font-family="Helvetica,sans-Serif" font-size="10.00">_dimension</text>
</a>
</g>
</g>
<!-- Node18&#45;&gt;Node19 -->
<g id="edge23_Node000018_Node000019" class="edge">
<title>Node18&#45;&gt;Node19</title>
<g id="a_edge23_Node000018_Node000019"><a xlink:title=" ">
<path fill="none" stroke="#63b8ff" d="M579.28,-372C600.4,-372 622.82,-372 643.15,-372"/>
<polygon fill="#63b8ff" stroke="#63b8ff" points="643.25,-375.5 653.25,-372 643.25,-368.5 643.25,-375.5"/>
</a>
</g>
</g>
<!-- Node22 -->
<g id="Node000022" class="node">
<title>Node22</title>
<g id="a_Node000022"><a xlink:href="classwmtk_1_1simplex_1_1_simplex.html#ab6d51ca0c220792c1c09824d152bb53a" target="_top" xlink:title=" ">
<polygon fill="white" stroke="#666666" points="561.5,-30 426.5,-30 426.5,0 561.5,0 561.5,-30"/>
<text text-anchor="start" x="434.5" y="-18" font-family="Helvetica,sans-Serif" font-size="10.00">wmtk::simplex::Simplex</text>
<text text-anchor="middle" x="494" y="-7" font-family="Helvetica,sans-Serif" font-size="10.00">::Simplex</text>
</a>
</g>
</g>
<!-- Node21&#45;&gt;Node22 -->
<g id="edge27_Node000021_Node000022" class="edge">
<title>Node21&#45;&gt;Node22</title>
<g id="a_edge27_Node000021_Node000022"><a xlink:title=" ">
<path fill="none" stroke="#63b8ff" d="M358.04,-17.01C376.6,-16.73 396.91,-16.43 416.02,-16.15"/>
<polygon fill="#63b8ff" stroke="#63b8ff" points="416.24,-19.64 426.19,-15.99 416.14,-12.64 416.24,-19.64"/>
</a>
</g>
</g>
</g>
</svg>
