<?xml version="1.0" encoding="UTF-8" standalone="no"?>
<!DOCTYPE svg PUBLIC "-//W3C//DTD SVG 1.1//EN"
 "http://www.w3.org/Graphics/SVG/1.1/DTD/svg11.dtd">
<!-- Generated by graphviz version 2.43.0 (0)
 -->
<!-- Title: wmtk::TetMesh::switch_face Pages: 1 -->
<svg width="1265pt" height="477pt"
 viewBox="0.00 0.00 1265.00 476.89" xmlns="http://www.w3.org/2000/svg" xmlns:xlink="http://www.w3.org/1999/xlink">
<g id="graph0" class="graph" transform="scale(1 1) rotate(0) translate(4 472.89)">
<title>wmtk::TetMesh::switch_face</title>
<!-- Node1 -->
<g id="Node000001" class="node">
<title>Node1</title>
<g id="a_Node000001"><a xlink:title=" ">
<polygon fill="#999999" stroke="#666666" points="155,-192.5 0,-192.5 0,-173.5 155,-173.5 155,-192.5"/>
<text text-anchor="middle" x="77.5" y="-180.5" font-family="Helvetica,sans-Serif" font-size="10.00">wmtk::TetMesh::switch_face</text>
</a>
</g>
</g>
<!-- Node2 -->
<g id="Node000002" class="node">
<title>Node2</title>
<g id="a_Node000002"><a xlink:href="classwmtk_1_1_tet_mesh.html#a53d9ec91a1c80da4ae10dea485564f27" target="_top" xlink:title="switch the orientation of the Tuple of the given dimension">
<polygon fill="white" stroke="#666666" points="319,-198 191,-198 191,-168 319,-168 319,-198"/>
<text text-anchor="start" x="199" y="-186" font-family="Helvetica,sans-Serif" font-size="10.00">wmtk::TetMesh::switch</text>
<text text-anchor="middle" x="255" y="-175" font-family="Helvetica,sans-Serif" font-size="10.00">_tuple</text>
</a>
</g>
</g>
<!-- Node1&#45;&gt;Node2 -->
<g id="edge1_Node000001_Node000002" class="edge">
<title>Node1&#45;&gt;Node2</title>
<g id="a_edge1_Node000001_Node000002"><a xlink:title=" ">
<path fill="none" stroke="#63b8ff" d="M155.22,-183C163.68,-183 172.28,-183 180.69,-183"/>
<polygon fill="#63b8ff" stroke="#63b8ff" points="180.85,-186.5 190.85,-183 180.85,-179.5 180.85,-186.5"/>
</a>
</g>
</g>
<!-- Node3 -->
<g id="Node000003" class="node">
<title>Node3</title>
<g id="a_Node000003"><a xlink:href="classwmtk_1_1_tet_mesh.html#aa8424e5e4d709981e9e10d659f87f97d" target="_top" xlink:title=" ">
<polygon fill="white" stroke="#666666" points="499,-248.5 393,-248.5 393,-229.5 499,-229.5 499,-248.5"/>
<text text-anchor="middle" x="446" y="-236.5" font-family="Helvetica,sans-Serif" font-size="10.00">wmtk::TetMesh::id</text>
</a>
</g>
</g>
<!-- Node2&#45;&gt;Node3 -->
<g id="edge2_Node000002_Node000003" class="edge">
<title>Node2&#45;&gt;Node3</title>
<g id="a_edge2_Node000002_Node000003"><a xlink:title=" ">
<path fill="none" stroke="#63b8ff" d="M290.79,-198.01C309.55,-205.68 333.25,-214.7 355,-221 363.88,-223.57 373.36,-225.9 382.7,-227.97"/>
<polygon fill="#63b8ff" stroke="#63b8ff" points="382.25,-231.45 392.76,-230.11 383.71,-224.6 382.25,-231.45"/>
</a>
</g>
</g>
<!-- Node4 -->
<g id="Node000004" class="node">
<title>Node4</title>
<g id="a_Node000004"><a xlink:href="classwmtk_1_1_tet_mesh.html#af4002e7a36e20373deb54576caffa682" target="_top" xlink:title=" ">
<polygon fill="white" stroke="#666666" points="537,-211.5 355,-211.5 355,-192.5 537,-192.5 537,-211.5"/>
<text text-anchor="middle" x="446" y="-199.5" font-family="Helvetica,sans-Serif" font-size="10.00">wmtk::TetMesh::is_boundary_face</text>
</a>
</g>
</g>
<!-- Node2&#45;&gt;Node4 -->
<g id="edge3_Node000002_Node000004" class="edge">
<title>Node2&#45;&gt;Node4</title>
<g id="a_edge3_Node000002_Node000004"><a xlink:title=" ">
<path fill="none" stroke="#63b8ff" d="M319.2,-189.35C327.45,-190.18 336.06,-191.05 344.74,-191.92"/>
<polygon fill="#63b8ff" stroke="#63b8ff" points="344.64,-195.43 354.94,-192.95 345.34,-188.46 344.64,-195.43"/>
</a>
</g>
</g>
<!-- Node6 -->
<g id="Node000006" class="node">
<title>Node6</title>
<g id="a_Node000006"><a xlink:href="classwmtk_1_1_tet_mesh.html#af07828ce32b19a3d5fc8e1cb6f365029" target="_top" xlink:title="check validity of tuple including its hash">
<polygon fill="white" stroke="#666666" points="513,-174.5 379,-174.5 379,-155.5 513,-155.5 513,-174.5"/>
<text text-anchor="middle" x="446" y="-162.5" font-family="Helvetica,sans-Serif" font-size="10.00">wmtk::TetMesh::is_valid</text>
</a>
</g>
</g>
<!-- Node2&#45;&gt;Node6 -->
<g id="edge5_Node000002_Node000006" class="edge">
<title>Node2&#45;&gt;Node6</title>
<g id="a_edge5_Node000002_Node000006"><a xlink:title=" ">
<path fill="none" stroke="#63b8ff" d="M319.2,-176.98C335.1,-175.47 352.35,-173.82 368.82,-172.26"/>
<polygon fill="#63b8ff" stroke="#63b8ff" points="369.33,-175.72 378.95,-171.29 368.66,-168.75 369.33,-175.72"/>
</a>
</g>
</g>
<!-- Node27 -->
<g id="Node000027" class="node">
<title>Node27</title>
<g id="a_Node000027"><a xlink:href="namespacewmtk_1_1autogen_1_1tet__mesh.html#a4060d948aa959f21810c425f3f197dd5" target="_top" xlink:title=" ">
<polygon fill="white" stroke="#666666" points="518.5,-110 373.5,-110 373.5,-80 518.5,-80 518.5,-110"/>
<text text-anchor="start" x="381.5" y="-98" font-family="Helvetica,sans-Serif" font-size="10.00">wmtk::autogen::tet</text>
<text text-anchor="middle" x="446" y="-87" font-family="Helvetica,sans-Serif" font-size="10.00">_mesh::local_switch_tuple</text>
</a>
</g>
</g>
<!-- Node2&#45;&gt;Node27 -->
<g id="edge28_Node000002_Node000027" class="edge">
<title>Node2&#45;&gt;Node27</title>
<g id="a_edge28_Node000002_Node000027"><a xlink:title=" ">
<path fill="none" stroke="#63b8ff" d="M288.49,-167.87C320.23,-153.09 368.68,-130.54 403.26,-114.44"/>
<polygon fill="#63b8ff" stroke="#63b8ff" points="405.03,-117.47 412.62,-110.08 402.08,-111.13 405.03,-117.47"/>
</a>
</g>
</g>
<!-- Node5 -->
<g id="Node000005" class="node">
<title>Node5</title>
<g id="a_Node000005"><a xlink:href="classwmtk_1_1attribute_1_1_accessor.html#a4b89ff4381fe73d4827b663203a964fc" target="_top" xlink:title=" ">
<polygon fill="white" stroke="#666666" points="729,-333 587,-333 587,-303 729,-303 729,-333"/>
<text text-anchor="start" x="595" y="-321" font-family="Helvetica,sans-Serif" font-size="10.00">wmtk::attribute::Accessor</text>
<text text-anchor="middle" x="658" y="-310" font-family="Helvetica,sans-Serif" font-size="10.00">::const_vector_attribute</text>
</a>
</g>
</g>
<!-- Node4&#45;&gt;Node5 -->
<g id="edge4_Node000004_Node000005" class="edge">
<title>Node4&#45;&gt;Node5</title>
<g id="a_edge4_Node000004_Node000005"><a xlink:title=" ">
<path fill="none" stroke="#63b8ff" d="M520.77,-211.58C526.57,-214.08 532.08,-217.18 537,-221 565.57,-243.19 545.23,-270.82 573,-294 574.57,-295.31 576.21,-296.55 577.91,-297.72"/>
<polygon fill="#63b8ff" stroke="#63b8ff" points="576.42,-300.92 586.8,-303.04 580.02,-294.91 576.42,-300.92"/>
</a>
</g>
</g>
<!-- Node7 -->
<g id="Node000007" class="node">
<title>Node7</title>
<g id="a_Node000007"><a xlink:href="classwmtk_1_1_tet_mesh.html#ad4ba72346d616d38086be74705865e55" target="_top" xlink:title=" ">
<polygon fill="white" stroke="#666666" points="743,-285 573,-285 573,-255 743,-255 743,-285"/>
<text text-anchor="start" x="581" y="-273" font-family="Helvetica,sans-Serif" font-size="10.00">wmtk::TetMesh::is_connectivity</text>
<text text-anchor="middle" x="658" y="-262" font-family="Helvetica,sans-Serif" font-size="10.00">_valid</text>
</a>
</g>
</g>
<!-- Node6&#45;&gt;Node7 -->
<g id="edge6_Node000006_Node000007" class="edge">
<title>Node6&#45;&gt;Node7</title>
<g id="a_edge6_Node000006_Node000007"><a xlink:title=" ">
<path fill="none" stroke="#63b8ff" d="M509.07,-174.57C518.63,-177.04 528.23,-180.14 537,-184 573.51,-200.08 609.98,-228.4 632.97,-248.13"/>
<polygon fill="#63b8ff" stroke="#63b8ff" points="630.68,-250.78 640.51,-254.72 635.28,-245.5 630.68,-250.78"/>
</a>
</g>
</g>
<!-- Node19 -->
<g id="Node000019" class="node">
<title>Node19</title>
<g id="a_Node000019"><a xlink:href="classwmtk_1_1_mesh.html#a8cc8686f0688613806f43720b6db49e7" target="_top" xlink:title="check validity of tuple including its hash">
<polygon fill="white" stroke="#666666" points="718,-174.5 598,-174.5 598,-155.5 718,-155.5 718,-174.5"/>
<text text-anchor="middle" x="658" y="-162.5" font-family="Helvetica,sans-Serif" font-size="10.00">wmtk::Mesh::is_valid</text>
</a>
</g>
</g>
<!-- Node6&#45;&gt;Node19 -->
<g id="edge19_Node000006_Node000019" class="edge">
<title>Node6&#45;&gt;Node19</title>
<g id="a_edge19_Node000006_Node000019"><a xlink:title=" ">
<path fill="none" stroke="#63b8ff" d="M513.16,-165C536.93,-165 563.8,-165 587.82,-165"/>
<polygon fill="#63b8ff" stroke="#63b8ff" points="587.93,-168.5 597.93,-165 587.93,-161.5 587.93,-168.5"/>
</a>
</g>
</g>
<!-- Node22 -->
<g id="Node000022" class="node">
<title>Node22</title>
<g id="a_Node000022"><a xlink:href="namespacewmtk_1_1autogen_1_1tet__mesh.html#a217b7c5c5312a716ad27c99abcfc0eb1" target="_top" xlink:title=" ">
<polygon fill="white" stroke="#666666" points="719,-136.5 597,-136.5 597,-95.5 719,-95.5 719,-136.5"/>
<text text-anchor="start" x="605" y="-124.5" font-family="Helvetica,sans-Serif" font-size="10.00">wmtk::autogen::tet</text>
<text text-anchor="start" x="605" y="-113.5" font-family="Helvetica,sans-Serif" font-size="10.00">_mesh::tuple_is_valid</text>
<text text-anchor="middle" x="658" y="-102.5" font-family="Helvetica,sans-Serif" font-size="10.00">_for_ccw</text>
</a>
</g>
</g>
<!-- Node6&#45;&gt;Node22 -->
<g id="edge23_Node000006_Node000022" class="edge">
<title>Node6&#45;&gt;Node22</title>
<g id="a_edge23_Node000006_Node000022"><a xlink:title=" ">
<path fill="none" stroke="#63b8ff" d="M487.74,-155.49C515.84,-148.94 553.93,-140.05 586.85,-132.37"/>
<polygon fill="#63b8ff" stroke="#63b8ff" points="587.95,-135.71 596.89,-130.03 586.36,-128.89 587.95,-135.71"/>
</a>
</g>
</g>
<!-- Node8 -->
<g id="Node000008" class="node">
<title>Node8</title>
<g id="a_Node000008"><a xlink:href="classwmtk_1_1_mesh.html#a3e8ff83c4a5526a40d18bb9883c6c6c9" target="_top" xlink:title="read in the m_capacities return the upper bound for the number of entities of the given dimension">
<polygon fill="white" stroke="#666666" points="1093,-450.5 969,-450.5 969,-431.5 1093,-431.5 1093,-450.5"/>
<text text-anchor="middle" x="1031" y="-438.5" font-family="Helvetica,sans-Serif" font-size="10.00">wmtk::Mesh::capacity</text>
</a>
</g>
</g>
<!-- Node7&#45;&gt;Node8 -->
<g id="edge7_Node000007_Node000008" class="edge">
<title>Node7&#45;&gt;Node8</title>
<g id="a_edge7_Node000007_Node000008"><a xlink:title=" ">
<path fill="none" stroke="#63b8ff" d="M732.02,-285.2C736.02,-287.71 739.73,-290.62 743,-294 788.6,-341.07 727.63,-396.3 779,-437 839.97,-485.31 937.94,-468.2 991.68,-453.41"/>
<polygon fill="#63b8ff" stroke="#63b8ff" points="992.84,-456.71 1001.49,-450.59 990.92,-449.98 992.84,-456.71"/>
</a>
</g>
</g>
<!-- Node10 -->
<g id="Node000010" class="node">
<title>Node10</title>
<g id="a_Node000010"><a xlink:href="classwmtk_1_1attribute_1_1_caching_accessor.html#a196b6b32e2495b971113d552be7f45d9" target="_top" xlink:title=" ">
<polygon fill="white" stroke="#666666" points="918.5,-427.5 781.5,-427.5 781.5,-386.5 918.5,-386.5 918.5,-427.5"/>
<text text-anchor="start" x="789.5" y="-415.5" font-family="Helvetica,sans-Serif" font-size="10.00">wmtk::attribute::Caching</text>
<text text-anchor="start" x="789.5" y="-404.5" font-family="Helvetica,sans-Serif" font-size="10.00">Accessor::const_scalar</text>
<text text-anchor="middle" x="850" y="-393.5" font-family="Helvetica,sans-Serif" font-size="10.00">_attribute</text>
</a>
</g>
</g>
<!-- Node7&#45;&gt;Node10 -->
<g id="edge9_Node000007_Node000010" class="edge">
<title>Node7&#45;&gt;Node10</title>
<g id="a_edge9_Node000007_Node000010"><a xlink:title=" ">
<path fill="none" stroke="#63b8ff" d="M730.22,-285.15C734.81,-287.67 739.13,-290.59 743,-294 773.48,-320.85 750.11,-349.45 779,-378 779.8,-378.79 780.62,-379.55 781.46,-380.3"/>
<polygon fill="#63b8ff" stroke="#63b8ff" points="779.48,-383.2 789.55,-386.49 783.74,-377.64 779.48,-383.2"/>
</a>
</g>
</g>
<!-- Node11 -->
<g id="Node000011" class="node">
<title>Node11</title>
<g id="a_Node000011"><a xlink:href="classwmtk_1_1attribute_1_1_caching_accessor.html#ab850fe07669c7bc92ca6cf6e86c60ee0" target="_top" xlink:title=" ">
<polygon fill="white" stroke="#666666" points="918.5,-368.5 781.5,-368.5 781.5,-327.5 918.5,-327.5 918.5,-368.5"/>
<text text-anchor="start" x="789.5" y="-356.5" font-family="Helvetica,sans-Serif" font-size="10.00">wmtk::attribute::Caching</text>
<text text-anchor="start" x="789.5" y="-345.5" font-family="Helvetica,sans-Serif" font-size="10.00">Accessor::const_vector</text>
<text text-anchor="middle" x="850" y="-334.5" font-family="Helvetica,sans-Serif" font-size="10.00">_attribute</text>
</a>
</g>
</g>
<!-- Node7&#45;&gt;Node11 -->
<g id="edge10_Node000007_Node000011" class="edge">
<title>Node7&#45;&gt;Node11</title>
<g id="a_edge10_Node000007_Node000011"><a xlink:title=" ">
<path fill="none" stroke="#63b8ff" d="M720.37,-285.13C728.13,-287.73 735.84,-290.69 743,-294 760.45,-302.07 762.09,-308.84 779,-318 782.21,-319.74 785.55,-321.45 788.94,-323.13"/>
<polygon fill="#63b8ff" stroke="#63b8ff" points="787.47,-326.31 798.01,-327.45 790.49,-319.99 787.47,-326.31"/>
</a>
</g>
</g>
<!-- Node12 -->
<g id="Node000012" class="node">
<title>Node12</title>
<g id="a_Node000012"><a xlink:href="classwmtk_1_1_mesh.html#ae0e8f71e9e17a90be9423117efcc4c81" target="_top" xlink:title=" ">
<polygon fill="white" stroke="#666666" points="911,-309 789,-309 789,-279 911,-279 911,-309"/>
<text text-anchor="start" x="797" y="-297" font-family="Helvetica,sans-Serif" font-size="10.00">wmtk::Mesh::get_flag</text>
<text text-anchor="middle" x="850" y="-286" font-family="Helvetica,sans-Serif" font-size="10.00">_accessor</text>
</a>
</g>
</g>
<!-- Node7&#45;&gt;Node12 -->
<g id="edge11_Node000007_Node000012" class="edge">
<title>Node7&#45;&gt;Node12</title>
<g id="a_edge11_Node000007_Node000012"><a xlink:title=" ">
<path fill="none" stroke="#63b8ff" d="M743.17,-280.63C755.07,-282.13 767.2,-283.67 778.79,-285.13"/>
<polygon fill="#63b8ff" stroke="#63b8ff" points="778.47,-288.62 788.83,-286.4 779.35,-281.67 778.47,-288.62"/>
</a>
</g>
</g>
<!-- Node15 -->
<g id="Node000015" class="node">
<title>Node15</title>
<g id="a_Node000015"><a xlink:href="classwmtk_1_1attribute_1_1_accessor.html#a2d587e12c47a6d839ab80e9198cf75b5" target="_top" xlink:title=" ">
<polygon fill="white" stroke="#666666" points="921,-261 779,-261 779,-231 921,-231 921,-261"/>
<text text-anchor="start" x="787" y="-249" font-family="Helvetica,sans-Serif" font-size="10.00">wmtk::attribute::Accessor</text>
<text text-anchor="middle" x="850" y="-238" font-family="Helvetica,sans-Serif" font-size="10.00">::index_access</text>
</a>
</g>
</g>
<!-- Node7&#45;&gt;Node15 -->
<g id="edge15_Node000007_Node000015" class="edge">
<title>Node7&#45;&gt;Node15</title>
<g id="a_edge15_Node000007_Node000015"><a xlink:title=" ">
<path fill="none" stroke="#63b8ff" d="M743.17,-259.37C751.63,-258.3 760.22,-257.21 768.65,-256.15"/>
<polygon fill="#63b8ff" stroke="#63b8ff" points="769.35,-259.59 778.83,-254.86 768.47,-252.64 769.35,-259.59"/>
</a>
</g>
</g>
<!-- Node17 -->
<g id="Node000017" class="node">
<title>Node17</title>
<g id="a_Node000017"><a xlink:href="namespacewmtk.html#a6a35f11c12436093d26fdd8be6fecc06" target="_top" xlink:title="Retrieves the current logger.">
<polygon fill="white" stroke="#666666" points="890.5,-212.5 809.5,-212.5 809.5,-193.5 890.5,-193.5 890.5,-212.5"/>
<text text-anchor="middle" x="850" y="-200.5" font-family="Helvetica,sans-Serif" font-size="10.00">wmtk::logger</text>
</a>
</g>
</g>
<!-- Node7&#45;&gt;Node17 -->
<g id="edge17_Node000007_Node000017" class="edge">
<title>Node7&#45;&gt;Node17</title>
<g id="a_edge17_Node000007_Node000017"><a xlink:title=" ">
<path fill="none" stroke="#63b8ff" d="M693.52,-254.96C717.29,-244.91 749.74,-231.79 779,-222 785.98,-219.67 793.42,-217.41 800.75,-215.31"/>
<polygon fill="#63b8ff" stroke="#63b8ff" points="801.92,-218.62 810.61,-212.56 800.04,-211.87 801.92,-218.62"/>
</a>
</g>
</g>
<!-- Node9 -->
<g id="Node000009" class="node">
<title>Node9</title>
<g id="a_Node000009"><a xlink:href="namespacewmtk.html#a5cf45c152e856196bb734c6f48919a24" target="_top" xlink:title="Get a unique integer id corresponding to each primitive type.">
<polygon fill="white" stroke="#666666" points="1257,-442 1141,-442 1141,-412 1257,-412 1257,-442"/>
<text text-anchor="start" x="1149" y="-430" font-family="Helvetica,sans-Serif" font-size="10.00">wmtk::get_primitive</text>
<text text-anchor="middle" x="1199" y="-419" font-family="Helvetica,sans-Serif" font-size="10.00">_type_id</text>
</a>
</g>
</g>
<!-- Node8&#45;&gt;Node9 -->
<g id="edge8_Node000008_Node000009" class="edge">
<title>Node8&#45;&gt;Node9</title>
<g id="a_edge8_Node000008_Node000009"><a xlink:title=" ">
<path fill="none" stroke="#63b8ff" d="M1093.34,-435.83C1105.46,-434.8 1118.25,-433.73 1130.56,-432.69"/>
<polygon fill="#63b8ff" stroke="#63b8ff" points="1131.09,-436.16 1140.76,-431.83 1130.5,-429.18 1131.09,-436.16"/>
</a>
</g>
</g>
<!-- Node13 -->
<g id="Node000013" class="node">
<title>Node13</title>
<g id="a_Node000013"><a xlink:href="classwmtk_1_1_mesh.html#a6dbab927a2ee85f77a87f075fd5c1d94" target="_top" xlink:title=" ">
<polygon fill="white" stroke="#666666" points="1096,-366 966,-366 966,-336 1096,-336 1096,-366"/>
<text text-anchor="start" x="974" y="-354" font-family="Helvetica,sans-Serif" font-size="10.00">wmtk::Mesh::get_const</text>
<text text-anchor="middle" x="1031" y="-343" font-family="Helvetica,sans-Serif" font-size="10.00">_flag_accessor</text>
</a>
</g>
</g>
<!-- Node12&#45;&gt;Node13 -->
<g id="edge12_Node000012_Node000013" class="edge">
<title>Node12&#45;&gt;Node13</title>
<g id="a_edge12_Node000012_Node000013"><a xlink:title=" ">
<path fill="none" stroke="#63b8ff" d="M898.5,-309.13C921.35,-316.4 948.92,-325.18 972.9,-332.82"/>
<polygon fill="#63b8ff" stroke="#63b8ff" points="972,-336.2 982.59,-335.9 974.12,-329.53 972,-336.2"/>
</a>
</g>
</g>
<!-- Node13&#45;&gt;Node9 -->
<g id="edge14_Node000013_Node000009" class="edge">
<title>Node13&#45;&gt;Node9</title>
<g id="a_edge14_Node000013_Node000009"><a xlink:title=" ">
<path fill="none" stroke="#63b8ff" d="M1064.8,-366.02C1090.86,-377.95 1127.5,-394.72 1155.75,-407.66"/>
<polygon fill="#63b8ff" stroke="#63b8ff" points="1154.44,-410.91 1164.99,-411.89 1157.35,-404.54 1154.44,-410.91"/>
</a>
</g>
</g>
<!-- Node14 -->
<g id="Node000014" class="node">
<title>Node14</title>
<g id="a_Node000014"><a xlink:href="classwmtk_1_1_mesh.html#a357182137d99f1e4a7ff536eadfc0e56" target="_top" xlink:title=" ">
<polygon fill="white" stroke="#666666" points="1255.5,-366 1142.5,-366 1142.5,-336 1255.5,-336 1255.5,-366"/>
<text text-anchor="start" x="1150.5" y="-354" font-family="Helvetica,sans-Serif" font-size="10.00">wmtk::Mesh::create</text>
<text text-anchor="middle" x="1199" y="-343" font-family="Helvetica,sans-Serif" font-size="10.00">_const_accessor</text>
</a>
</g>
</g>
<!-- Node13&#45;&gt;Node14 -->
<g id="edge13_Node000013_Node000014" class="edge">
<title>Node13&#45;&gt;Node14</title>
<g id="a_edge13_Node000013_Node000014"><a xlink:title=" ">
<path fill="none" stroke="#63b8ff" d="M1096.18,-351C1107.96,-351 1120.28,-351 1132.12,-351"/>
<polygon fill="#63b8ff" stroke="#63b8ff" points="1132.36,-354.5 1142.36,-351 1132.36,-347.5 1132.36,-354.5"/>
</a>
</g>
</g>
<!-- Node16 -->
<g id="Node000016" class="node">
<title>Node16</title>
<g id="a_Node000016"><a xlink:href="classwmtk_1_1attribute_1_1_accessor.html#afd97a48ec5d1db975a030428df81f617" target="_top" xlink:title=" ">
<polygon fill="white" stroke="#666666" points="1102,-261 960,-261 960,-231 1102,-231 1102,-261"/>
<text text-anchor="start" x="968" y="-249" font-family="Helvetica,sans-Serif" font-size="10.00">wmtk::attribute::Accessor</text>
<text text-anchor="middle" x="1031" y="-238" font-family="Helvetica,sans-Serif" font-size="10.00">::caching_base_type</text>
</a>
</g>
</g>
<!-- Node15&#45;&gt;Node16 -->
<g id="edge16_Node000015_Node000016" class="edge">
<title>Node15&#45;&gt;Node16</title>
<g id="a_edge16_Node000015_Node000016"><a xlink:title=" ">
<path fill="none" stroke="#63b8ff" d="M921.23,-246C930.58,-246 940.23,-246 949.73,-246"/>
<polygon fill="#63b8ff" stroke="#63b8ff" points="949.97,-249.5 959.97,-246 949.97,-242.5 949.97,-249.5"/>
</a>
</g>
</g>
<!-- Node18 -->
<g id="Node000018" class="node">
<title>Node18</title>
<g id="a_Node000018"><a xlink:href="namespacewmtk.html#a3daa7951a5f8b78cf4600dc047fcc180" target="_top" xlink:title="Setup a logger object to be used by WildmeshToolkit.">
<polygon fill="white" stroke="#666666" points="1081.5,-212.5 980.5,-212.5 980.5,-193.5 1081.5,-193.5 1081.5,-212.5"/>
<text text-anchor="middle" x="1031" y="-200.5" font-family="Helvetica,sans-Serif" font-size="10.00">wmtk::set_logger</text>
</a>
</g>
</g>
<!-- Node17&#45;&gt;Node18 -->
<g id="edge18_Node000017_Node000018" class="edge">
<title>Node17&#45;&gt;Node18</title>
<g id="a_edge18_Node000017_Node000018"><a xlink:title=" ">
<path fill="none" stroke="#63b8ff" d="M890.73,-203C914.09,-203 944.1,-203 970.27,-203"/>
<polygon fill="#63b8ff" stroke="#63b8ff" points="970.47,-206.5 980.47,-203 970.47,-199.5 970.47,-206.5"/>
</a>
</g>
</g>
<!-- Node20 -->
<g id="Node000020" class="node">
<title>Node20</title>
<g id="a_Node000020"><a xlink:href="classwmtk_1_1_tuple.html#a0023f575be92cd5ceeeaaaa3762ea06d" target="_top" xlink:title="Checks if a tuple is &quot;null&quot;. This merely implies the global index is &#45;1.">
<polygon fill="white" stroke="#666666" points="906.5,-175.5 793.5,-175.5 793.5,-156.5 906.5,-156.5 906.5,-175.5"/>
<text text-anchor="middle" x="850" y="-163.5" font-family="Helvetica,sans-Serif" font-size="10.00">wmtk::Tuple::is_null</text>
</a>
</g>
</g>
<!-- Node19&#45;&gt;Node20 -->
<g id="edge20_Node000019_Node000020" class="edge">
<title>Node19&#45;&gt;Node20</title>
<g id="a_edge20_Node000019_Node000020"><a xlink:title=" ">
<path fill="none" stroke="#63b8ff" d="M718.08,-165.31C738.67,-165.42 761.91,-165.54 783.03,-165.65"/>
<polygon fill="#63b8ff" stroke="#63b8ff" points="783.19,-169.15 793.21,-165.71 783.22,-162.15 783.19,-169.15"/>
</a>
</g>
</g>
<!-- Node21 -->
<g id="Node000021" class="node">
<title>Node21</title>
<g id="a_Node000021"><a xlink:href="classwmtk_1_1_mesh.html#ade176d345902d97af8c5da04aa3a095b" target="_top" xlink:title=" ">
<polygon fill="white" stroke="#666666" points="920,-120.5 780,-120.5 780,-101.5 920,-101.5 920,-120.5"/>
<text text-anchor="middle" x="850" y="-108.5" font-family="Helvetica,sans-Serif" font-size="10.00">wmtk::Mesh::is_removed</text>
</a>
</g>
</g>
<!-- Node19&#45;&gt;Node21 -->
<g id="edge21_Node000019_Node000021" class="edge">
<title>Node19&#45;&gt;Node21</title>
<g id="a_edge21_Node000019_Node000021"><a xlink:title=" ">
<path fill="none" stroke="#63b8ff" d="M704.98,-155.44C717.38,-152.63 730.75,-149.4 743,-146 766.43,-139.5 792.36,-130.96 812.7,-123.95"/>
<polygon fill="#63b8ff" stroke="#63b8ff" points="813.91,-127.23 822.21,-120.64 811.61,-120.62 813.91,-127.23"/>
</a>
</g>
</g>
<!-- Node21&#45;&gt;Node21 -->
<g id="edge22_Node000021_Node000021" class="edge">
<title>Node21&#45;&gt;Node21</title>
<g id="a_edge22_Node000021_Node000021"><a xlink:title=" ">
<path fill="none" stroke="#63b8ff" d="M822.26,-120.58C808.76,-129.23 818.01,-138.5 850,-138.5 871.49,-138.5 882.72,-134.32 883.68,-128.95"/>
<polygon fill="#63b8ff" stroke="#63b8ff" points="886.39,-126.71 877.74,-120.58 880.68,-130.76 886.39,-126.71"/>
</a>
</g>
</g>
<!-- Node23 -->
<g id="Node000023" class="node">
<title>Node23</title>
<g id="a_Node000023"><a xlink:href="namespacewmtk_1_1autogen_1_1tet__mesh.html#ace6b80b1be9aec0d6a5ac5d144b40965" target="_top" xlink:title=" ">
<polygon fill="white" stroke="#666666" points="911,-83.5 789,-83.5 789,-42.5 911,-42.5 911,-83.5"/>
<text text-anchor="start" x="797" y="-71.5" font-family="Helvetica,sans-Serif" font-size="10.00">wmtk::autogen::tet</text>
<text text-anchor="start" x="797" y="-60.5" font-family="Helvetica,sans-Serif" font-size="10.00">_mesh::local_id_table</text>
<text text-anchor="middle" x="850" y="-49.5" font-family="Helvetica,sans-Serif" font-size="10.00">_offset</text>
</a>
</g>
</g>
<!-- Node22&#45;&gt;Node23 -->
<g id="edge24_Node000022_Node000023" class="edge">
<title>Node22&#45;&gt;Node23</title>
<g id="a_edge24_Node000022_Node000023"><a xlink:title=" ">
<path fill="none" stroke="#63b8ff" d="M719.12,-99.23C738.18,-93.91 759.43,-87.99 779.12,-82.49"/>
<polygon fill="#63b8ff" stroke="#63b8ff" points="780.26,-85.81 788.95,-79.75 778.38,-79.07 780.26,-85.81"/>
</a>
</g>
</g>
<!-- Node24 -->
<g id="Node000024" class="node">
<title>Node24</title>
<g id="a_Node000024"><a xlink:href="classwmtk_1_1utils_1_1_tuple_inspector.html#a3a04acf16e0eff80ade8e0fb8753ac1b" target="_top" xlink:title=" ">
<polygon fill="white" stroke="#666666" points="1105,-126 957,-126 957,-96 1105,-96 1105,-126"/>
<text text-anchor="start" x="965" y="-114" font-family="Helvetica,sans-Serif" font-size="10.00">wmtk::utils::TupleInspector</text>
<text text-anchor="middle" x="1031" y="-103" font-family="Helvetica,sans-Serif" font-size="10.00">::local_eid</text>
</a>
</g>
</g>
<!-- Node23&#45;&gt;Node24 -->
<g id="edge25_Node000023_Node000024" class="edge">
<title>Node23&#45;&gt;Node24</title>
<g id="a_edge25_Node000023_Node000024"><a xlink:title=" ">
<path fill="none" stroke="#63b8ff" d="M911.1,-79.12C928.08,-83.67 946.65,-88.65 963.96,-93.29"/>
<polygon fill="#63b8ff" stroke="#63b8ff" points="963.42,-96.77 973.98,-95.98 965.23,-90.01 963.42,-96.77"/>
</a>
</g>
</g>
<!-- Node25 -->
<g id="Node000025" class="node">
<title>Node25</title>
<g id="a_Node000025"><a xlink:href="classwmtk_1_1utils_1_1_tuple_inspector.html#ae4f5c770f4a2f9440eef24448929432d" target="_top" xlink:title=" ">
<polygon fill="white" stroke="#666666" points="1105,-78 957,-78 957,-48 1105,-48 1105,-78"/>
<text text-anchor="start" x="965" y="-66" font-family="Helvetica,sans-Serif" font-size="10.00">wmtk::utils::TupleInspector</text>
<text text-anchor="middle" x="1031" y="-55" font-family="Helvetica,sans-Serif" font-size="10.00">::local_fid</text>
</a>
</g>
</g>
<!-- Node23&#45;&gt;Node25 -->
<g id="edge26_Node000023_Node000025" class="edge">
<title>Node23&#45;&gt;Node25</title>
<g id="a_edge26_Node000023_Node000025"><a xlink:title=" ">
<path fill="none" stroke="#63b8ff" d="M911.1,-63C922.53,-63 934.67,-63 946.67,-63"/>
<polygon fill="#63b8ff" stroke="#63b8ff" points="946.69,-66.5 956.69,-63 946.69,-59.5 946.69,-66.5"/>
</a>
</g>
</g>
<!-- Node26 -->
<g id="Node000026" class="node">
<title>Node26</title>
<g id="a_Node000026"><a xlink:href="classwmtk_1_1utils_1_1_tuple_inspector.html#a92f5faa08a7f78424f5cd1ec79dcedbb" target="_top" xlink:title=" ">
<polygon fill="white" stroke="#666666" points="1105,-30 957,-30 957,0 1105,0 1105,-30"/>
<text text-anchor="start" x="965" y="-18" font-family="Helvetica,sans-Serif" font-size="10.00">wmtk::utils::TupleInspector</text>
<text text-anchor="middle" x="1031" y="-7" font-family="Helvetica,sans-Serif" font-size="10.00">::local_vid</text>
</a>
</g>
</g>
<!-- Node23&#45;&gt;Node26 -->
<g id="edge27_Node000023_Node000026" class="edge">
<title>Node23&#45;&gt;Node26</title>
<g id="a_edge27_Node000023_Node000026"><a xlink:title=" ">
<path fill="none" stroke="#63b8ff" d="M911.1,-46.88C928.08,-42.33 946.65,-37.35 963.96,-32.71"/>
<polygon fill="#63b8ff" stroke="#63b8ff" points="965.23,-35.99 973.98,-30.02 963.42,-29.23 965.23,-35.99"/>
</a>
</g>
</g>
<!-- Node27&#45;&gt;Node23 -->
<g id="edge29_Node000027_Node000023" class="edge">
<title>Node27&#45;&gt;Node23</title>
<g id="a_edge29_Node000027_Node000023"><a xlink:title=" ">
<path fill="none" stroke="#63b8ff" d="M518.87,-89.28C592.42,-83.42 705.98,-74.38 778.89,-68.58"/>
<polygon fill="#63b8ff" stroke="#63b8ff" points="779.2,-72.07 788.89,-67.78 778.65,-65.09 779.2,-72.07"/>
</a>
</g>
</g>
</g>
</svg>
