<?xml version="1.0" encoding="UTF-8" standalone="no"?>
<!DOCTYPE svg PUBLIC "-//W3C//DTD SVG 1.1//EN"
 "http://www.w3.org/Graphics/SVG/1.1/DTD/svg11.dtd">
<!-- Generated by graphviz version 2.43.0 (0)
 -->
<!-- Title: wmtk::operations::utils::RoundRationalToDouble::execute Pages: 1 -->
<svg width="531pt" height="350pt"
 viewBox="0.00 0.00 531.00 349.50" xmlns="http://www.w3.org/2000/svg" xmlns:xlink="http://www.w3.org/1999/xlink">
<g id="graph0" class="graph" transform="scale(1 1) rotate(0) translate(4 345.5)">
<title>wmtk::operations::utils::RoundRationalToDouble::execute</title>
<!-- Node1 -->
<g id="Node000001" class="node">
<title>Node1</title>
<g id="a_Node000001"><a xlink:title="returns an empty vector in case of failure">
<polygon fill="#999999" stroke="#666666" points="139,-203 0,-203 0,-162 139,-162 139,-203"/>
<text text-anchor="start" x="8" y="-191" font-family="Helvetica,sans-Serif" font-size="10.00">wmtk::operations::utils</text>
<text text-anchor="start" x="8" y="-180" font-family="Helvetica,sans-Serif" font-size="10.00">::RoundRationalToDouble</text>
<text text-anchor="middle" x="69.5" y="-169" font-family="Helvetica,sans-Serif" font-size="10.00">::execute</text>
</a>
</g>
</g>
<!-- Node2 -->
<g id="Node000002" class="node">
<title>Node2</title>
<g id="a_Node000002"><a xlink:href="classwmtk_1_1operations_1_1_attributes_update.html#a7cd88fcf959543990319f8e21c95b340" target="_top" xlink:title="returns an empty vector in case of failure">
<polygon fill="white" stroke="#666666" points="331,-245.5 175,-245.5 175,-215.5 331,-215.5 331,-245.5"/>
<text text-anchor="start" x="183" y="-233.5" font-family="Helvetica,sans-Serif" font-size="10.00">wmtk::operations::Attributes</text>
<text text-anchor="middle" x="253" y="-222.5" font-family="Helvetica,sans-Serif" font-size="10.00">Update::execute</text>
</a>
</g>
</g>
<!-- Node1&#45;&gt;Node2 -->
<g id="edge1_Node000001_Node000002" class="edge">
<title>Node1&#45;&gt;Node2</title>
<g id="a_edge1_Node000001_Node000002"><a xlink:title=" ">
<path fill="none" stroke="#63b8ff" d="M139.12,-200.65C154.27,-204.65 170.3,-208.89 185.37,-212.88"/>
<polygon fill="#63b8ff" stroke="#63b8ff" points="184.55,-216.28 195.12,-215.46 186.34,-209.52 184.55,-216.28"/>
</a>
</g>
</g>
<!-- Node4 -->
<g id="Node000004" class="node">
<title>Node4</title>
<g id="a_Node000004"><a xlink:href="classwmtk_1_1simplex_1_1_simplex.html#ad2cc0340a0772b7d6f03ba7a781d1163" target="_top" xlink:title=" ">
<polygon fill="white" stroke="#666666" points="512.5,-341.5 377.5,-341.5 377.5,-311.5 512.5,-311.5 512.5,-341.5"/>
<text text-anchor="start" x="385.5" y="-329.5" font-family="Helvetica,sans-Serif" font-size="10.00">wmtk::simplex::Simplex</text>
<text text-anchor="middle" x="445" y="-318.5" font-family="Helvetica,sans-Serif" font-size="10.00">::primitive_type</text>
</a>
</g>
</g>
<!-- Node1&#45;&gt;Node4 -->
<g id="edge6_Node000001_Node000004" class="edge">
<title>Node1&#45;&gt;Node4</title>
<g id="a_edge6_Node000001_Node000004"><a xlink:title=" ">
<path fill="none" stroke="#63b8ff" d="M95.21,-203.16C115.5,-219.2 145.59,-240.93 175,-254.5 236.88,-283.06 312.18,-302 367.36,-313.25"/>
<polygon fill="#63b8ff" stroke="#63b8ff" points="366.93,-316.74 377.42,-315.27 368.3,-309.87 366.93,-316.74"/>
</a>
</g>
</g>
<!-- Node6 -->
<g id="Node000006" class="node">
<title>Node6</title>
<g id="a_Node000006"><a xlink:href="classwmtk_1_1simplex_1_1_simplex.html#aca78b1fb0a3c28c0036cf7919bfb0789" target="_top" xlink:title=" ">
<polygon fill="white" stroke="#666666" points="512.5,-197.5 377.5,-197.5 377.5,-167.5 512.5,-167.5 512.5,-197.5"/>
<text text-anchor="start" x="385.5" y="-185.5" font-family="Helvetica,sans-Serif" font-size="10.00">wmtk::simplex::Simplex</text>
<text text-anchor="middle" x="445" y="-174.5" font-family="Helvetica,sans-Serif" font-size="10.00">::tuple</text>
</a>
</g>
</g>
<!-- Node1&#45;&gt;Node6 -->
<g id="edge12_Node000001_Node000006" class="edge">
<title>Node1&#45;&gt;Node6</title>
<g id="a_edge12_Node000001_Node000006"><a xlink:title=" ">
<path fill="none" stroke="#63b8ff" d="M139.01,-182.5C203.61,-182.5 300.28,-182.5 367.4,-182.5"/>
<polygon fill="#63b8ff" stroke="#63b8ff" points="367.5,-186 377.5,-182.5 367.5,-179 367.5,-186"/>
</a>
</g>
</g>
<!-- Node7 -->
<g id="Node000007" class="node">
<title>Node7</title>
<g id="a_Node000007"><a xlink:href="classwmtk_1_1operations_1_1utils_1_1_round_rational_to_double.html#a937226448404cf5e865488654506f7ce" target="_top" xlink:title=" ">
<polygon fill="white" stroke="#666666" points="322.5,-154 183.5,-154 183.5,-113 322.5,-113 322.5,-154"/>
<text text-anchor="start" x="191.5" y="-142" font-family="Helvetica,sans-Serif" font-size="10.00">wmtk::operations::utils</text>
<text text-anchor="start" x="191.5" y="-131" font-family="Helvetica,sans-Serif" font-size="10.00">::RoundRationalToDouble</text>
<text text-anchor="middle" x="253" y="-120" font-family="Helvetica,sans-Serif" font-size="10.00">::primitive_type</text>
</a>
</g>
</g>
<!-- Node1&#45;&gt;Node7 -->
<g id="edge7_Node000001_Node000007" class="edge">
<title>Node1&#45;&gt;Node7</title>
<g id="a_edge7_Node000001_Node000007"><a xlink:title=" ">
<path fill="none" stroke="#63b8ff" d="M139.12,-163.98C150.3,-160.96 161.96,-157.81 173.35,-154.73"/>
<polygon fill="#63b8ff" stroke="#63b8ff" points="174.54,-158.04 183.29,-152.05 172.72,-151.28 174.54,-158.04"/>
</a>
</g>
</g>
<!-- Node9 -->
<g id="Node000009" class="node">
<title>Node9</title>
<g id="a_Node000009"><a xlink:href="classwmtk_1_1attribute_1_1utils_1_1_hybrid_rational_accessor.html#ab6df3182a1d26ab8cc3d98a1c64c911b" target="_top" xlink:title=" ">
<polygon fill="white" stroke="#666666" points="322.5,-95 183.5,-95 183.5,-54 322.5,-54 322.5,-95"/>
<text text-anchor="start" x="191.5" y="-83" font-family="Helvetica,sans-Serif" font-size="10.00">wmtk::attribute::utils</text>
<text text-anchor="start" x="191.5" y="-72" font-family="Helvetica,sans-Serif" font-size="10.00">::HybridRationalAccessor</text>
<text text-anchor="middle" x="253" y="-61" font-family="Helvetica,sans-Serif" font-size="10.00">::round</text>
</a>
</g>
</g>
<!-- Node1&#45;&gt;Node9 -->
<g id="edge9_Node000001_Node000009" class="edge">
<title>Node1&#45;&gt;Node9</title>
<g id="a_edge9_Node000001_Node000009"><a xlink:title=" ">
<path fill="none" stroke="#63b8ff" d="M94.14,-161.93C114.53,-144.92 145.3,-120.97 175,-104.5 178.2,-102.73 181.53,-101.01 184.92,-99.35"/>
<polygon fill="#63b8ff" stroke="#63b8ff" points="186.44,-102.5 194.03,-95.12 183.49,-96.16 186.44,-102.5"/>
</a>
</g>
</g>
<!-- Node3 -->
<g id="Node000003" class="node">
<title>Node3</title>
<g id="a_Node000003"><a xlink:href="classwmtk_1_1operations_1_1_operation.html#a741f1c2a8065cf4542ae47f3b6e19c17" target="_top" xlink:title=" ">
<polygon fill="white" stroke="#666666" points="523,-293.5 367,-293.5 367,-263.5 523,-263.5 523,-293.5"/>
<text text-anchor="start" x="375" y="-281.5" font-family="Helvetica,sans-Serif" font-size="10.00">wmtk::operations::Operation</text>
<text text-anchor="middle" x="445" y="-270.5" font-family="Helvetica,sans-Serif" font-size="10.00">::mesh</text>
</a>
</g>
</g>
<!-- Node2&#45;&gt;Node3 -->
<g id="edge2_Node000002_Node000003" class="edge">
<title>Node2&#45;&gt;Node3</title>
<g id="a_edge2_Node000002_Node000003"><a xlink:title=" ">
<path fill="none" stroke="#63b8ff" d="M313.6,-245.56C333.05,-250.47 354.81,-255.97 374.9,-261.04"/>
<polygon fill="#63b8ff" stroke="#63b8ff" points="374.06,-264.44 384.62,-263.5 375.78,-257.65 374.06,-264.44"/>
</a>
</g>
</g>
<!-- Node2&#45;&gt;Node4 -->
<g id="edge3_Node000002_Node000004" class="edge">
<title>Node2&#45;&gt;Node4</title>
<g id="a_edge3_Node000002_Node000004"><a xlink:title=" ">
<path fill="none" stroke="#63b8ff" d="M274.29,-245.78C296.2,-261.71 332.61,-286.53 367,-302.5 371.11,-304.41 375.41,-306.22 379.8,-307.93"/>
<polygon fill="#63b8ff" stroke="#63b8ff" points="378.87,-311.31 389.46,-311.49 381.29,-304.75 378.87,-311.31"/>
</a>
</g>
</g>
<!-- Node5 -->
<g id="Node000005" class="node">
<title>Node5</title>
<g id="a_Node000005"><a xlink:href="classwmtk_1_1operations_1_1_attributes_update.html#a0a8538bfa12c06cd73906bfbf0e47c74" target="_top" xlink:title=" ">
<polygon fill="white" stroke="#666666" points="523,-245.5 367,-245.5 367,-215.5 523,-215.5 523,-245.5"/>
<text text-anchor="start" x="375" y="-233.5" font-family="Helvetica,sans-Serif" font-size="10.00">wmtk::operations::Attributes</text>
<text text-anchor="middle" x="445" y="-222.5" font-family="Helvetica,sans-Serif" font-size="10.00">Update::primitive_type</text>
</a>
</g>
</g>
<!-- Node2&#45;&gt;Node5 -->
<g id="edge4_Node000002_Node000005" class="edge">
<title>Node2&#45;&gt;Node5</title>
<g id="a_edge4_Node000002_Node000005"><a xlink:title=" ">
<path fill="none" stroke="#63b8ff" d="M331.01,-230.5C339.51,-230.5 348.21,-230.5 356.83,-230.5"/>
<polygon fill="#63b8ff" stroke="#63b8ff" points="356.88,-234 366.88,-230.5 356.88,-227 356.88,-234"/>
</a>
</g>
</g>
<!-- Node2&#45;&gt;Node6 -->
<g id="edge5_Node000002_Node000006" class="edge">
<title>Node2&#45;&gt;Node6</title>
<g id="a_edge5_Node000002_Node000006"><a xlink:title=" ">
<path fill="none" stroke="#63b8ff" d="M313.6,-215.44C333.05,-210.53 354.81,-205.03 374.9,-199.96"/>
<polygon fill="#63b8ff" stroke="#63b8ff" points="375.78,-203.35 384.62,-197.5 374.06,-196.56 375.78,-203.35"/>
</a>
</g>
</g>
<!-- Node8 -->
<g id="Node000008" class="node">
<title>Node8</title>
<g id="a_Node000008"><a xlink:href="classwmtk_1_1attribute_1_1utils_1_1_hybrid_rational_accessor.html#a4dfa55768c854d90afa0275ea137de20" target="_top" xlink:title=" ">
<polygon fill="white" stroke="#666666" points="514.5,-149 375.5,-149 375.5,-108 514.5,-108 514.5,-149"/>
<text text-anchor="start" x="383.5" y="-137" font-family="Helvetica,sans-Serif" font-size="10.00">wmtk::attribute::utils</text>
<text text-anchor="start" x="383.5" y="-126" font-family="Helvetica,sans-Serif" font-size="10.00">::HybridRationalAccessor</text>
<text text-anchor="middle" x="445" y="-115" font-family="Helvetica,sans-Serif" font-size="10.00">::primitive_type</text>
</a>
</g>
</g>
<!-- Node7&#45;&gt;Node8 -->
<g id="edge8_Node000007_Node000008" class="edge">
<title>Node7&#45;&gt;Node8</title>
<g id="a_edge8_Node000007_Node000008"><a xlink:title=" ">
<path fill="none" stroke="#63b8ff" d="M322.59,-131.69C336.37,-131.33 350.94,-130.95 365.03,-130.58"/>
<polygon fill="#63b8ff" stroke="#63b8ff" points="365.28,-134.07 375.19,-130.31 365.1,-127.08 365.28,-134.07"/>
</a>
</g>
</g>
<!-- Node10 -->
<g id="Node000010" class="node">
<title>Node10</title>
<g id="a_Node000010"><a xlink:href="classwmtk_1_1_rational.html#a48b8729e70f23bbd7fe1e74695049b29" target="_top" xlink:title=" ">
<polygon fill="white" stroke="#666666" points="498.5,-89.5 391.5,-89.5 391.5,-59.5 498.5,-59.5 498.5,-89.5"/>
<text text-anchor="start" x="399.5" y="-77.5" font-family="Helvetica,sans-Serif" font-size="10.00">wmtk::Rational::to</text>
<text text-anchor="middle" x="445" y="-66.5" font-family="Helvetica,sans-Serif" font-size="10.00">_double</text>
</a>
</g>
</g>
<!-- Node9&#45;&gt;Node10 -->
<g id="edge10_Node000009_Node000010" class="edge">
<title>Node9&#45;&gt;Node10</title>
<g id="a_edge10_Node000009_Node000010"><a xlink:title=" ">
<path fill="none" stroke="#63b8ff" d="M322.59,-74.5C341.7,-74.5 362.35,-74.5 381.11,-74.5"/>
<polygon fill="#63b8ff" stroke="#63b8ff" points="381.31,-78 391.31,-74.5 381.31,-71 381.31,-78"/>
</a>
</g>
</g>
<!-- Node11 -->
<g id="Node000011" class="node">
<title>Node11</title>
<g id="a_Node000011"><a xlink:href="classwmtk_1_1attribute_1_1utils_1_1_hybrid_rational_accessor.html#a86757eb6cb384653aeabb17fc98df8d9" target="_top" xlink:title=" ">
<polygon fill="white" stroke="#666666" points="514.5,-41 375.5,-41 375.5,0 514.5,0 514.5,-41"/>
<text text-anchor="start" x="383.5" y="-29" font-family="Helvetica,sans-Serif" font-size="10.00">wmtk::attribute::utils</text>
<text text-anchor="start" x="383.5" y="-18" font-family="Helvetica,sans-Serif" font-size="10.00">::HybridRationalAccessor</text>
<text text-anchor="middle" x="445" y="-7" font-family="Helvetica,sans-Serif" font-size="10.00">::value</text>
</a>
</g>
</g>
<!-- Node9&#45;&gt;Node11 -->
<g id="edge11_Node000009_Node000011" class="edge">
<title>Node9&#45;&gt;Node11</title>
<g id="a_edge11_Node000009_Node000011"><a xlink:title=" ">
<path fill="none" stroke="#63b8ff" d="M322.59,-55C336.5,-51.05 351.22,-46.87 365.44,-42.83"/>
<polygon fill="#63b8ff" stroke="#63b8ff" points="366.53,-46.16 375.19,-40.06 364.61,-39.42 366.53,-46.16"/>
</a>
</g>
</g>
</g>
</svg>
