<?xml version="1.0" encoding="UTF-8" standalone="no"?>
<!DOCTYPE svg PUBLIC "-//W3C//DTD SVG 1.1//EN"
 "http://www.w3.org/Graphics/SVG/1.1/DTD/svg11.dtd">
<!-- Generated by graphviz version 2.43.0 (0)
 -->
<!-- Title: wmtk::Mesh::lub_map Pages: 1 -->
<svg width="2091pt" height="539pt"
 viewBox="0.00 0.00 2091.00 539.00" xmlns="http://www.w3.org/2000/svg" xmlns:xlink="http://www.w3.org/1999/xlink">
<g id="graph0" class="graph" transform="scale(1 1) rotate(0) translate(4 535)">
<title>wmtk::Mesh::lub_map</title>
<!-- Node1 -->
<g id="Node000001" class="node">
<title>Node1</title>
<g id="a_Node000001"><a xlink:title=" ">
<polygon fill="#999999" stroke="#666666" points="125,-251.5 0,-251.5 0,-232.5 125,-232.5 125,-251.5"/>
<text text-anchor="middle" x="62.5" y="-239.5" font-family="Helvetica,sans-Serif" font-size="10.00">wmtk::Mesh::lub_map</text>
</a>
</g>
</g>
<!-- Node2 -->
<g id="Node000002" class="node">
<title>Node2</title>
<g id="a_Node000002"><a xlink:href="classwmtk_1_1_mesh.html#a41b770767cdea17fe0adc0c991202091" target="_top" xlink:title="maps a simplex from this mesh to any other mesh using LUB mesh as root">
<polygon fill="white" stroke="#666666" points="286,-251.5 161,-251.5 161,-232.5 286,-232.5 286,-251.5"/>
<text text-anchor="middle" x="223.5" y="-239.5" font-family="Helvetica,sans-Serif" font-size="10.00">wmtk::Mesh::lub_map</text>
</a>
</g>
</g>
<!-- Node1&#45;&gt;Node2 -->
<g id="edge1_Node000001_Node000002" class="edge">
<title>Node1&#45;&gt;Node2</title>
<g id="a_edge1_Node000001_Node000002"><a xlink:title=" ">
<path fill="none" stroke="#63b8ff" d="M125.43,-242C133.67,-242 142.18,-242 150.58,-242"/>
<polygon fill="#63b8ff" stroke="#63b8ff" points="150.74,-245.5 160.74,-242 150.74,-238.5 150.74,-245.5"/>
</a>
</g>
</g>
<!-- Node3 -->
<g id="Node000003" class="node">
<title>Node3</title>
<g id="a_Node000003"><a xlink:href="classwmtk_1_1_mesh.html#ad054c074d4776010002321117ec459e8" target="_top" xlink:title=" ">
<polygon fill="white" stroke="#666666" points="483,-297 322,-297 322,-267 483,-267 483,-297"/>
<text text-anchor="start" x="330" y="-285" font-family="Helvetica,sans-Serif" font-size="10.00">wmtk::Mesh::is_from</text>
<text text-anchor="middle" x="402.5" y="-274" font-family="Helvetica,sans-Serif" font-size="10.00">_same_multi_mesh_structure</text>
</a>
</g>
</g>
<!-- Node2&#45;&gt;Node3 -->
<g id="edge2_Node000002_Node000003" class="edge">
<title>Node2&#45;&gt;Node3</title>
<g id="a_edge2_Node000002_Node000003"><a xlink:title=" ">
<path fill="none" stroke="#63b8ff" d="M266.9,-251.58C284.31,-255.52 305.02,-260.2 324.92,-264.69"/>
<polygon fill="#63b8ff" stroke="#63b8ff" points="324.38,-268.16 334.91,-266.95 325.93,-261.33 324.38,-268.16"/>
</a>
</g>
</g>
<!-- Node7 -->
<g id="Node000007" class="node">
<title>Node7</title>
<g id="a_Node000007"><a xlink:href="classwmtk_1_1multimesh_1_1_multi_mesh_manager.html#afda2cea3f093e5fd59ad9ed58f1c0f33" target="_top" xlink:title="maps a simplex from this mesh to any other mesh using the LUB as the root">
<polygon fill="white" stroke="#666666" points="482.5,-233 322.5,-233 322.5,-203 482.5,-203 482.5,-233"/>
<text text-anchor="start" x="330.5" y="-221" font-family="Helvetica,sans-Serif" font-size="10.00">wmtk::multimesh::MultiMesh</text>
<text text-anchor="middle" x="402.5" y="-210" font-family="Helvetica,sans-Serif" font-size="10.00">Manager::lub_map</text>
</a>
</g>
</g>
<!-- Node2&#45;&gt;Node7 -->
<g id="edge7_Node000002_Node000007" class="edge">
<title>Node2&#45;&gt;Node7</title>
<g id="a_edge7_Node000002_Node000007"><a xlink:title=" ">
<path fill="none" stroke="#63b8ff" d="M286.41,-233.61C294.72,-232.48 303.37,-231.31 312.04,-230.13"/>
<polygon fill="#63b8ff" stroke="#63b8ff" points="312.77,-233.56 322.21,-228.75 311.83,-226.63 312.77,-233.56"/>
</a>
</g>
</g>
<!-- Node4 -->
<g id="Node000004" class="node">
<title>Node4</title>
<g id="a_Node000004"><a xlink:href="classwmtk_1_1_mesh.html#aac3ec1ebbe00982ddfe70cc710d8f54e" target="_top" xlink:title="returns a reference to the root of a multimesh tree">
<polygon fill="white" stroke="#666666" points="670,-367 541,-367 541,-337 670,-337 670,-367"/>
<text text-anchor="start" x="549" y="-355" font-family="Helvetica,sans-Serif" font-size="10.00">wmtk::Mesh::get_multi</text>
<text text-anchor="middle" x="605.5" y="-344" font-family="Helvetica,sans-Serif" font-size="10.00">_mesh_root</text>
</a>
</g>
</g>
<!-- Node3&#45;&gt;Node4 -->
<g id="edge3_Node000003_Node000004" class="edge">
<title>Node3&#45;&gt;Node4</title>
<g id="a_edge3_Node000003_Node000004"><a xlink:title=" ">
<path fill="none" stroke="#63b8ff" d="M446.62,-297.02C477.25,-307.68 518.57,-322.08 551.26,-333.46"/>
<polygon fill="#63b8ff" stroke="#63b8ff" points="550.51,-336.9 561.11,-336.89 552.81,-330.29 550.51,-336.9"/>
</a>
</g>
</g>
<!-- Node5 -->
<g id="Node000005" class="node">
<title>Node5</title>
<g id="a_Node000005"><a xlink:href="classwmtk_1_1multimesh_1_1_multi_mesh_manager.html#a434e74f6b295055a45914d41a784124a" target="_top" xlink:title=" ">
<polygon fill="white" stroke="#666666" points="1115.5,-396 955.5,-396 955.5,-366 1115.5,-366 1115.5,-396"/>
<text text-anchor="start" x="963.5" y="-384" font-family="Helvetica,sans-Serif" font-size="10.00">wmtk::multimesh::MultiMesh</text>
<text text-anchor="middle" x="1035.5" y="-373" font-family="Helvetica,sans-Serif" font-size="10.00">Manager::get_root_mesh</text>
</a>
</g>
</g>
<!-- Node4&#45;&gt;Node5 -->
<g id="edge4_Node000004_Node000005" class="edge">
<title>Node4&#45;&gt;Node5</title>
<g id="a_edge4_Node000004_Node000005"><a xlink:title=" ">
<path fill="none" stroke="#63b8ff" d="M670.11,-356.31C742.99,-361.25 862.91,-369.37 945.14,-374.95"/>
<polygon fill="#63b8ff" stroke="#63b8ff" points="945.01,-378.44 955.23,-375.63 945.49,-371.46 945.01,-378.44"/>
</a>
</g>
</g>
<!-- Node5&#45;&gt;Node5 -->
<g id="edge5_Node000005_Node000005" class="edge">
<title>Node5&#45;&gt;Node5</title>
<g id="a_edge5_Node000005_Node000005"><a xlink:title=" ">
<path fill="none" stroke="#63b8ff" d="M996.83,-396.28C988.23,-405.41 1001.12,-414 1035.5,-414 1055.91,-414 1068.75,-410.97 1074.01,-406.6"/>
<polygon fill="#63b8ff" stroke="#63b8ff" points="1077.51,-406.33 1074.17,-396.28 1070.51,-406.22 1077.51,-406.33"/>
</a>
</g>
</g>
<!-- Node6 -->
<g id="Node000006" class="node">
<title>Node6</title>
<g id="a_Node000006"><a xlink:href="classwmtk_1_1multimesh_1_1_multi_mesh_manager.html#a7d39339adb56b1798fe817d81bfcc67c" target="_top" xlink:title="Specifies whether this structure is the root of a multi&#45;mesh tree.">
<polygon fill="white" stroke="#666666" points="1355,-328 1195,-328 1195,-298 1355,-298 1355,-328"/>
<text text-anchor="start" x="1203" y="-316" font-family="Helvetica,sans-Serif" font-size="10.00">wmtk::multimesh::MultiMesh</text>
<text text-anchor="middle" x="1275" y="-305" font-family="Helvetica,sans-Serif" font-size="10.00">Manager::is_root</text>
</a>
</g>
</g>
<!-- Node5&#45;&gt;Node6 -->
<g id="edge6_Node000005_Node000006" class="edge">
<title>Node5&#45;&gt;Node6</title>
<g id="a_edge6_Node000005_Node000006"><a xlink:title=" ">
<path fill="none" stroke="#63b8ff" d="M1094.93,-365.94C1108.13,-362.44 1122.07,-358.66 1135,-355 1161.66,-347.46 1191.05,-338.65 1215.91,-331.05"/>
<polygon fill="#63b8ff" stroke="#63b8ff" points="1217.02,-334.37 1225.56,-328.1 1214.97,-327.68 1217.02,-334.37"/>
</a>
</g>
</g>
<!-- Node8 -->
<g id="Node000008" class="node">
<title>Node8</title>
<g id="a_Node000008"><a xlink:href="classwmtk_1_1multimesh_1_1_multi_mesh_manager.html#ab5c1f3b38daa298b1ef25867a2dcd349" target="_top" xlink:title="maps a simplex from this mesh to any other mesh using the LUB as the root">
<polygon fill="white" stroke="#666666" points="685.5,-206 525.5,-206 525.5,-176 685.5,-176 685.5,-206"/>
<text text-anchor="start" x="533.5" y="-194" font-family="Helvetica,sans-Serif" font-size="10.00">wmtk::multimesh::MultiMesh</text>
<text text-anchor="middle" x="605.5" y="-183" font-family="Helvetica,sans-Serif" font-size="10.00">Manager::lub_map_tuples</text>
</a>
</g>
</g>
<!-- Node7&#45;&gt;Node8 -->
<g id="edge8_Node000007_Node000008" class="edge">
<title>Node7&#45;&gt;Node8</title>
<g id="a_edge8_Node000007_Node000008"><a xlink:title=" ">
<path fill="none" stroke="#63b8ff" d="M482.65,-207.37C493.42,-205.92 504.53,-204.43 515.45,-202.96"/>
<polygon fill="#63b8ff" stroke="#63b8ff" points="515.98,-206.42 525.42,-201.62 515.04,-199.49 515.98,-206.42"/>
</a>
</g>
</g>
<!-- Node31 -->
<g id="Node000031" class="node">
<title>Node31</title>
<g id="a_Node000031"><a xlink:href="classwmtk_1_1simplex_1_1_simplex.html#ad2cc0340a0772b7d6f03ba7a781d1163" target="_top" xlink:title=" ">
<polygon fill="white" stroke="#666666" points="1792.5,-53 1657.5,-53 1657.5,-23 1792.5,-23 1792.5,-53"/>
<text text-anchor="start" x="1665.5" y="-41" font-family="Helvetica,sans-Serif" font-size="10.00">wmtk::simplex::Simplex</text>
<text text-anchor="middle" x="1725" y="-30" font-family="Helvetica,sans-Serif" font-size="10.00">::primitive_type</text>
</a>
</g>
</g>
<!-- Node7&#45;&gt;Node31 -->
<g id="edge48_Node000007_Node000031" class="edge">
<title>Node7&#45;&gt;Node31</title>
<g id="a_edge48_Node000007_Node000031"><a xlink:title=" ">
<path fill="none" stroke="#63b8ff" d="M418.68,-202.67C469.49,-153.05 640.24,0 813,0 813,0 813,0 1276,0 1406.78,0 1558.27,-16.28 1647.34,-27.52"/>
<polygon fill="#63b8ff" stroke="#63b8ff" points="1646.99,-31.01 1657.36,-28.8 1647.88,-24.06 1646.99,-31.01"/>
</a>
</g>
</g>
<!-- Node38 -->
<g id="Node000038" class="node">
<title>Node38</title>
<g id="a_Node000038"><a xlink:href="namespacewmtk_1_1simplex_1_1utils.html#a358c30268c189fc8f00538b520aab4f8" target="_top" xlink:title=" ">
<polygon fill="white" stroke="#666666" points="692,-265.5 519,-265.5 519,-224.5 692,-224.5 692,-265.5"/>
<text text-anchor="start" x="527" y="-253.5" font-family="Helvetica,sans-Serif" font-size="10.00">wmtk::simplex::utils</text>
<text text-anchor="start" x="527" y="-242.5" font-family="Helvetica,sans-Serif" font-size="10.00">::tuple_vector_to_homogeneous</text>
<text text-anchor="middle" x="605.5" y="-231.5" font-family="Helvetica,sans-Serif" font-size="10.00">_simplex_vector</text>
</a>
</g>
</g>
<!-- Node7&#45;&gt;Node38 -->
<g id="edge49_Node000007_Node000038" class="edge">
<title>Node7&#45;&gt;Node38</title>
<g id="a_edge49_Node000007_Node000038"><a xlink:title=" ">
<path fill="none" stroke="#63b8ff" d="M482.65,-228.63C491.18,-229.78 499.92,-230.95 508.62,-232.12"/>
<polygon fill="#63b8ff" stroke="#63b8ff" points="508.41,-235.62 518.79,-233.49 509.35,-228.69 508.41,-235.62"/>
</a>
</g>
</g>
<!-- Node9 -->
<g id="Node000009" class="node">
<title>Node9</title>
<g id="a_Node000009"><a xlink:href="classwmtk_1_1multimesh_1_1_multi_mesh_manager.html#a812e0992812b2c48a889e10ae9e50758" target="_top" xlink:title=" ">
<polygon fill="white" stroke="#666666" points="1115.5,-328 955.5,-328 955.5,-298 1115.5,-298 1115.5,-328"/>
<text text-anchor="start" x="963.5" y="-316" font-family="Helvetica,sans-Serif" font-size="10.00">wmtk::multimesh::MultiMesh</text>
<text text-anchor="middle" x="1035.5" y="-305" font-family="Helvetica,sans-Serif" font-size="10.00">Manager::absolute_id</text>
</a>
</g>
</g>
<!-- Node8&#45;&gt;Node9 -->
<g id="edge9_Node000008_Node000009" class="edge">
<title>Node8&#45;&gt;Node9</title>
<g id="a_edge9_Node000008_Node000009"><a xlink:title=" ">
<path fill="none" stroke="#63b8ff" d="M680.14,-206.13C684.43,-208.65 688.44,-211.59 692,-215 729.14,-250.59 686.35,-294.81 728,-325 804.48,-380.44 922.14,-353.29 987.19,-331.38"/>
<polygon fill="#63b8ff" stroke="#63b8ff" points="988.47,-334.64 996.77,-328.06 986.18,-328.03 988.47,-334.64"/>
</a>
</g>
</g>
<!-- Node10 -->
<g id="Node000010" class="node">
<title>Node10</title>
<g id="a_Node000010"><a xlink:href="classwmtk_1_1_mesh.html#a2102fdea06a0c543437e67d77aeb2013" target="_top" xlink:title="returns a unique identifier for this mesh within a single multimesh structure">
<polygon fill="white" stroke="#666666" points="876.5,-316 751.5,-316 751.5,-286 876.5,-286 876.5,-316"/>
<text text-anchor="start" x="759.5" y="-304" font-family="Helvetica,sans-Serif" font-size="10.00">wmtk::Mesh::absolute</text>
<text text-anchor="middle" x="814" y="-293" font-family="Helvetica,sans-Serif" font-size="10.00">_multi_mesh_id</text>
</a>
</g>
</g>
<!-- Node8&#45;&gt;Node10 -->
<g id="edge12_Node000008_Node000010" class="edge">
<title>Node8&#45;&gt;Node10</title>
<g id="a_edge12_Node000008_Node000010"><a xlink:title=" ">
<path fill="none" stroke="#63b8ff" d="M677.12,-206.16C682.39,-208.67 687.43,-211.59 692,-215 716.02,-232.91 704.48,-253.44 728,-272 732.55,-275.59 737.57,-278.75 742.82,-281.52"/>
<polygon fill="#63b8ff" stroke="#63b8ff" points="741.32,-284.69 751.85,-285.85 744.34,-278.37 741.32,-284.69"/>
</a>
</g>
</g>
<!-- Node11 -->
<g id="Node000011" class="node">
<title>Node11</title>
<g id="a_Node000011"><a xlink:href="classwmtk_1_1multimesh_1_1_multi_mesh_manager.html#a4f99281b52dfca1c9baff535917d58a7" target="_top" xlink:title=" ">
<polygon fill="white" stroke="#666666" points="1115.5,-96 955.5,-96 955.5,-66 1115.5,-66 1115.5,-96"/>
<text text-anchor="start" x="963.5" y="-84" font-family="Helvetica,sans-Serif" font-size="10.00">wmtk::multimesh::MultiMesh</text>
<text text-anchor="middle" x="1035.5" y="-73" font-family="Helvetica,sans-Serif" font-size="10.00">Manager::is_child</text>
</a>
</g>
</g>
<!-- Node8&#45;&gt;Node11 -->
<g id="edge14_Node000008_Node000011" class="edge">
<title>Node8&#45;&gt;Node11</title>
<g id="a_edge14_Node000008_Node000011"><a xlink:title=" ">
<path fill="none" stroke="#63b8ff" d="M619.6,-175.86C640.09,-153.41 682.16,-112.11 728,-95 797.61,-69.02 882.36,-67.2 945.08,-70.92"/>
<polygon fill="#63b8ff" stroke="#63b8ff" points="945.14,-74.43 955.34,-71.59 945.59,-67.44 945.14,-74.43"/>
</a>
</g>
</g>
<!-- Node12 -->
<g id="Node000012" class="node">
<title>Node12</title>
<g id="a_Node000012"><a xlink:href="classwmtk_1_1multimesh_1_1_multi_mesh_manager.html#a81d71e39e4f82968119c346e4f1ebda9" target="_top" xlink:title=" ">
<polygon fill="white" stroke="#666666" points="900,-134 728,-134 728,-104 900,-104 900,-134"/>
<text text-anchor="start" x="736" y="-122" font-family="Helvetica,sans-Serif" font-size="10.00">wmtk::multimesh::MultiMesh</text>
<text text-anchor="middle" x="814" y="-111" font-family="Helvetica,sans-Serif" font-size="10.00">Manager::least_upper_bound_id</text>
</a>
</g>
</g>
<!-- Node8&#45;&gt;Node12 -->
<g id="edge15_Node000008_Node000012" class="edge">
<title>Node8&#45;&gt;Node12</title>
<g id="a_edge15_Node000008_Node000012"><a xlink:title=" ">
<path fill="none" stroke="#63b8ff" d="M641.77,-175.97C665.84,-165.99 698.56,-152.94 728,-143 734.01,-140.97 740.29,-138.97 746.6,-137.05"/>
<polygon fill="#63b8ff" stroke="#63b8ff" points="747.94,-140.3 756.52,-134.08 745.93,-133.59 747.94,-140.3"/>
</a>
</g>
</g>
<!-- Node13 -->
<g id="Node000013" class="node">
<title>Node13</title>
<g id="a_Node000013"><a xlink:href="classwmtk_1_1multimesh_1_1_multi_mesh_manager.html#aefe5179057c978e227c3349d13578c4a" target="_top" xlink:title=" ">
<polygon fill="white" stroke="#666666" points="894,-230 734,-230 734,-200 894,-200 894,-230"/>
<text text-anchor="start" x="742" y="-218" font-family="Helvetica,sans-Serif" font-size="10.00">wmtk::multimesh::MultiMesh</text>
<text text-anchor="middle" x="814" y="-207" font-family="Helvetica,sans-Serif" font-size="10.00">Manager::map_up_to_tuples</text>
</a>
</g>
</g>
<!-- Node8&#45;&gt;Node13 -->
<g id="edge16_Node000008_Node000013" class="edge">
<title>Node8&#45;&gt;Node13</title>
<g id="a_edge16_Node000008_Node000013"><a xlink:title=" ">
<path fill="none" stroke="#63b8ff" d="M685.75,-200.21C698.22,-201.66 711.19,-203.17 723.87,-204.64"/>
<polygon fill="#63b8ff" stroke="#63b8ff" points="723.63,-208.14 733.96,-205.81 724.44,-201.18 723.63,-208.14"/>
</a>
</g>
</g>
<!-- Node8&#45;&gt;Node31 -->
<g id="edge44_Node000008_Node000031" class="edge">
<title>Node8&#45;&gt;Node31</title>
<g id="a_edge44_Node000008_Node000031"><a xlink:title=" ">
<path fill="none" stroke="#63b8ff" d="M615.93,-175.73C633.88,-148.23 675.83,-90.9 728,-66 851.45,-7.07 897.71,-38 1034.5,-38 1034.5,-38 1034.5,-38 1276,-38 1406.31,-38 1557.94,-38 1647.17,-38"/>
<polygon fill="#63b8ff" stroke="#63b8ff" points="1647.21,-41.5 1657.21,-38 1647.21,-34.5 1647.21,-41.5"/>
</a>
</g>
</g>
<!-- Node36 -->
<g id="Node000036" class="node">
<title>Node36</title>
<g id="a_Node000036"><a xlink:href="classwmtk_1_1simplex_1_1_simplex.html#aca78b1fb0a3c28c0036cf7919bfb0789" target="_top" xlink:title=" ">
<polygon fill="white" stroke="#666666" points="1103,-278 968,-278 968,-248 1103,-248 1103,-278"/>
<text text-anchor="start" x="976" y="-266" font-family="Helvetica,sans-Serif" font-size="10.00">wmtk::simplex::Simplex</text>
<text text-anchor="middle" x="1035.5" y="-255" font-family="Helvetica,sans-Serif" font-size="10.00">::tuple</text>
</a>
</g>
</g>
<!-- Node8&#45;&gt;Node36 -->
<g id="edge47_Node000008_Node000036" class="edge">
<title>Node8&#45;&gt;Node36</title>
<g id="a_edge47_Node000008_Node000036"><a xlink:title=" ">
<path fill="none" stroke="#63b8ff" d="M668.97,-206.05C676.86,-208.67 684.72,-211.65 692,-215 709.47,-223.03 709.83,-232.71 728,-239 803.02,-264.95 894.31,-268.85 957.66,-267.56"/>
<polygon fill="#63b8ff" stroke="#63b8ff" points="958.06,-271.05 967.97,-267.3 957.88,-264.05 958.06,-271.05"/>
</a>
</g>
</g>
<!-- Node37 -->
<g id="Node000037" class="node">
<title>Node37</title>
<g id="a_Node000037"><a xlink:href="classwmtk_1_1multimesh_1_1_multi_mesh_manager.html#ab29db13e4be68177d7ae3c188d7b275e" target="_top" xlink:title=" ">
<polygon fill="white" stroke="#666666" points="894,-182 734,-182 734,-152 894,-152 894,-182"/>
<text text-anchor="start" x="742" y="-170" font-family="Helvetica,sans-Serif" font-size="10.00">wmtk::multimesh::MultiMesh</text>
<text text-anchor="middle" x="814" y="-159" font-family="Helvetica,sans-Serif" font-size="10.00">Manager::relative_id</text>
</a>
</g>
</g>
<!-- Node8&#45;&gt;Node37 -->
<g id="edge45_Node000008_Node000037" class="edge">
<title>Node8&#45;&gt;Node37</title>
<g id="a_edge45_Node000008_Node000037"><a xlink:title=" ">
<path fill="none" stroke="#63b8ff" d="M685.75,-181.79C698.22,-180.34 711.19,-178.83 723.87,-177.36"/>
<polygon fill="#63b8ff" stroke="#63b8ff" points="724.44,-180.82 733.96,-176.19 723.63,-173.86 724.44,-180.82"/>
</a>
</g>
</g>
<!-- Node9&#45;&gt;Node6 -->
<g id="edge11_Node000009_Node000006" class="edge">
<title>Node9&#45;&gt;Node6</title>
<g id="a_edge11_Node000009_Node000006"><a xlink:title=" ">
<path fill="none" stroke="#63b8ff" d="M1115.58,-313C1137.7,-313 1161.89,-313 1184.56,-313"/>
<polygon fill="#63b8ff" stroke="#63b8ff" points="1184.86,-316.5 1194.86,-313 1184.86,-309.5 1184.86,-316.5"/>
</a>
</g>
</g>
<!-- Node9&#45;&gt;Node9 -->
<g id="edge10_Node000009_Node000009" class="edge">
<title>Node9&#45;&gt;Node9</title>
<g id="a_edge10_Node000009_Node000009"><a xlink:title=" ">
<path fill="none" stroke="#63b8ff" d="M996.83,-328.28C988.23,-337.41 1001.12,-346 1035.5,-346 1055.91,-346 1068.75,-342.97 1074.01,-338.6"/>
<polygon fill="#63b8ff" stroke="#63b8ff" points="1077.51,-338.33 1074.17,-328.28 1070.51,-338.22 1077.51,-338.33"/>
</a>
</g>
</g>
<!-- Node10&#45;&gt;Node9 -->
<g id="edge13_Node000010_Node000009" class="edge">
<title>Node10&#45;&gt;Node9</title>
<g id="a_edge13_Node000010_Node000009"><a xlink:title=" ">
<path fill="none" stroke="#63b8ff" d="M876.73,-304.37C897.93,-305.53 922.12,-306.86 945.08,-308.11"/>
<polygon fill="#63b8ff" stroke="#63b8ff" points="945,-311.61 955.18,-308.66 945.38,-304.62 945,-311.61"/>
</a>
</g>
</g>
<!-- Node14 -->
<g id="Node000014" class="node">
<title>Node14</title>
<g id="a_Node000014"><a xlink:href="classwmtk_1_1multimesh_1_1_multi_mesh_manager.html#af6fd8d8b5cc1e8b2c877718b99374f03" target="_top" xlink:title=" ">
<polygon fill="white" stroke="#666666" points="1135,-230 936,-230 936,-200 1135,-200 1135,-230"/>
<text text-anchor="start" x="944" y="-218" font-family="Helvetica,sans-Serif" font-size="10.00">wmtk::multimesh::MultiMesh</text>
<text text-anchor="middle" x="1035.5" y="-207" font-family="Helvetica,sans-Serif" font-size="10.00">Manager::map_tuple_to_parent_tuple</text>
</a>
</g>
</g>
<!-- Node13&#45;&gt;Node14 -->
<g id="edge17_Node000013_Node000014" class="edge">
<title>Node13&#45;&gt;Node14</title>
<g id="a_edge17_Node000013_Node000014"><a xlink:title=" ">
<path fill="none" stroke="#63b8ff" d="M894.24,-215C904.48,-215 915.1,-215 925.71,-215"/>
<polygon fill="#63b8ff" stroke="#63b8ff" points="925.87,-218.5 935.87,-215 925.87,-211.5 925.87,-218.5"/>
</a>
</g>
</g>
<!-- Node13&#45;&gt;Node31 -->
<g id="edge42_Node000013_Node000031" class="edge">
<title>Node13&#45;&gt;Node31</title>
<g id="a_edge42_Node000013_Node000031"><a xlink:title=" ">
<path fill="none" stroke="#63b8ff" d="M890.51,-199.97C905.58,-196.99 921.29,-193.89 936,-191 1196.92,-139.79 1506.62,-79.93 1647.46,-52.76"/>
<polygon fill="#63b8ff" stroke="#63b8ff" points="1648.15,-56.19 1657.3,-50.86 1646.82,-49.31 1648.15,-56.19"/>
</a>
</g>
</g>
<!-- Node13&#45;&gt;Node36 -->
<g id="edge43_Node000013_Node000036" class="edge">
<title>Node13&#45;&gt;Node36</title>
<g id="a_edge43_Node000013_Node000036"><a xlink:title=" ">
<path fill="none" stroke="#63b8ff" d="M883.85,-230.06C907.39,-235.2 933.85,-240.99 957.96,-246.26"/>
<polygon fill="#63b8ff" stroke="#63b8ff" points="957.26,-249.69 967.77,-248.41 958.75,-242.85 957.26,-249.69"/>
</a>
</g>
</g>
<!-- Node14&#45;&gt;Node6 -->
<g id="edge19_Node000014_Node000006" class="edge">
<title>Node14&#45;&gt;Node6</title>
<g id="a_edge19_Node000014_Node000006"><a xlink:title=" ">
<path fill="none" stroke="#63b8ff" d="M1118.52,-230.14C1124.31,-232.65 1129.87,-235.58 1135,-239 1157.48,-253.99 1148.51,-273.02 1171,-288 1175.55,-291.03 1180.42,-293.69 1185.49,-296.03"/>
<polygon fill="#63b8ff" stroke="#63b8ff" points="1184.22,-299.29 1194.8,-299.91 1186.91,-292.83 1184.22,-299.29"/>
</a>
</g>
</g>
<!-- Node15 -->
<g id="Node000015" class="node">
<title>Node15</title>
<g id="a_Node000015"><a xlink:href="classwmtk_1_1_mesh.html#a357182137d99f1e4a7ff536eadfc0e56" target="_top" xlink:title=" ">
<polygon fill="white" stroke="#666666" points="1331.5,-230 1218.5,-230 1218.5,-200 1331.5,-200 1331.5,-230"/>
<text text-anchor="start" x="1226.5" y="-218" font-family="Helvetica,sans-Serif" font-size="10.00">wmtk::Mesh::create</text>
<text text-anchor="middle" x="1275" y="-207" font-family="Helvetica,sans-Serif" font-size="10.00">_const_accessor</text>
</a>
</g>
</g>
<!-- Node14&#45;&gt;Node15 -->
<g id="edge18_Node000014_Node000015" class="edge">
<title>Node14&#45;&gt;Node15</title>
<g id="a_edge18_Node000014_Node000015"><a xlink:title=" ">
<path fill="none" stroke="#63b8ff" d="M1135.16,-215C1159.8,-215 1185.64,-215 1208.25,-215"/>
<polygon fill="#63b8ff" stroke="#63b8ff" points="1208.4,-218.5 1218.4,-215 1208.4,-211.5 1208.4,-218.5"/>
</a>
</g>
</g>
<!-- Node16 -->
<g id="Node000016" class="node">
<title>Node16</title>
<g id="a_Node000016"><a xlink:href="classwmtk_1_1multimesh_1_1_multi_mesh_manager.html#a6f9186ced3e97aef2a0af71a3aa5c6a0" target="_top" xlink:title=" ">
<polygon fill="white" stroke="#666666" points="1379,-279 1171,-279 1171,-249 1379,-249 1379,-279"/>
<text text-anchor="start" x="1179" y="-267" font-family="Helvetica,sans-Serif" font-size="10.00">wmtk::multimesh::MultiMesh</text>
<text text-anchor="middle" x="1275" y="-256" font-family="Helvetica,sans-Serif" font-size="10.00">Manager::map_tuple_between_meshes</text>
</a>
</g>
</g>
<!-- Node14&#45;&gt;Node16 -->
<g id="edge20_Node000014_Node000016" class="edge">
<title>Node14&#45;&gt;Node16</title>
<g id="a_edge20_Node000014_Node000016"><a xlink:title=" ">
<path fill="none" stroke="#63b8ff" d="M1109.37,-230.03C1135.25,-235.37 1164.55,-241.42 1191.2,-246.92"/>
<polygon fill="#63b8ff" stroke="#63b8ff" points="1190.76,-250.4 1201.27,-248.99 1192.18,-243.55 1190.76,-250.4"/>
</a>
</g>
</g>
<!-- Node17 -->
<g id="Node000017" class="node">
<title>Node17</title>
<g id="a_Node000017"><a xlink:href="classwmtk_1_1_mesh.html#a8cc8686f0688613806f43720b6db49e7" target="_top" xlink:title="check validity of tuple including its hash">
<polygon fill="white" stroke="#666666" points="1560,-368.5 1440,-368.5 1440,-349.5 1560,-349.5 1560,-368.5"/>
<text text-anchor="middle" x="1500" y="-356.5" font-family="Helvetica,sans-Serif" font-size="10.00">wmtk::Mesh::is_valid</text>
</a>
</g>
</g>
<!-- Node16&#45;&gt;Node17 -->
<g id="edge21_Node000016_Node000017" class="edge">
<title>Node16&#45;&gt;Node17</title>
<g id="a_edge21_Node000016_Node000017"><a xlink:title=" ">
<path fill="none" stroke="#63b8ff" d="M1349.42,-279.04C1359.51,-281.91 1369.61,-285.22 1379,-289 1415.34,-303.64 1453.88,-327.89 1477.19,-343.65"/>
<polygon fill="#63b8ff" stroke="#63b8ff" points="1475.4,-346.67 1485.63,-349.44 1479.36,-340.9 1475.4,-346.67"/>
</a>
</g>
</g>
<!-- Node20 -->
<g id="Node000020" class="node">
<title>Node20</title>
<g id="a_Node000020"><a xlink:href="namespacewmtk_1_1multimesh_1_1utils.html#a7d748ef4839b09a5460e8af97b9fa678" target="_top" xlink:title=" ">
<polygon fill="white" stroke="#666666" points="1574.5,-279 1425.5,-279 1425.5,-249 1574.5,-249 1574.5,-279"/>
<text text-anchor="start" x="1433.5" y="-267" font-family="Helvetica,sans-Serif" font-size="10.00">wmtk::multimesh::utils</text>
<text text-anchor="middle" x="1500" y="-256" font-family="Helvetica,sans-Serif" font-size="10.00">::read_tuple_map_attribute</text>
</a>
</g>
</g>
<!-- Node16&#45;&gt;Node20 -->
<g id="edge25_Node000016_Node000020" class="edge">
<title>Node16&#45;&gt;Node20</title>
<g id="a_edge25_Node000016_Node000020"><a xlink:title=" ">
<path fill="none" stroke="#63b8ff" d="M1379.01,-264C1391.11,-264 1403.33,-264 1415.12,-264"/>
<polygon fill="#63b8ff" stroke="#63b8ff" points="1415.35,-267.5 1425.35,-264 1415.35,-260.5 1415.35,-267.5"/>
</a>
</g>
</g>
<!-- Node25 -->
<g id="Node000025" class="node">
<title>Node25</title>
<g id="a_Node000025"><a xlink:href="classwmtk_1_1_mesh.html#a965a8a24158c4aa8580c57ba09f885f7" target="_top" xlink:title="switch the orientation of the Tuple of the given dimension">
<polygon fill="white" stroke="#666666" points="1557,-182 1443,-182 1443,-152 1557,-152 1557,-182"/>
<text text-anchor="start" x="1451" y="-170" font-family="Helvetica,sans-Serif" font-size="10.00">wmtk::Mesh::switch</text>
<text text-anchor="middle" x="1500" y="-159" font-family="Helvetica,sans-Serif" font-size="10.00">_tuple</text>
</a>
</g>
</g>
<!-- Node16&#45;&gt;Node25 -->
<g id="edge30_Node000016_Node000025" class="edge">
<title>Node16&#45;&gt;Node25</title>
<g id="a_edge30_Node000016_Node000025"><a xlink:title=" ">
<path fill="none" stroke="#63b8ff" d="M1359.9,-248.97C1366.62,-246.19 1373.08,-242.9 1379,-239 1401.27,-224.33 1393.03,-206.12 1415,-191 1420.62,-187.13 1426.87,-183.88 1433.34,-181.15"/>
<polygon fill="#63b8ff" stroke="#63b8ff" points="1434.83,-184.33 1442.94,-177.51 1432.35,-177.78 1434.83,-184.33"/>
</a>
</g>
</g>
<!-- Node26 -->
<g id="Node000026" class="node">
<title>Node26</title>
<g id="a_Node000026"><a xlink:href="namespacewmtk_1_1simplex.html#a0101f27eb2ad82814390b92ab1a4d1a0" target="_top" xlink:title=" ">
<polygon fill="white" stroke="#666666" points="1575.5,-230 1424.5,-230 1424.5,-200 1575.5,-200 1575.5,-230"/>
<text text-anchor="start" x="1432.5" y="-218" font-family="Helvetica,sans-Serif" font-size="10.00">wmtk::simplex::top</text>
<text text-anchor="middle" x="1500" y="-207" font-family="Helvetica,sans-Serif" font-size="10.00">_dimension_cofaces_tuples</text>
</a>
</g>
</g>
<!-- Node16&#45;&gt;Node26 -->
<g id="edge31_Node000016_Node000026" class="edge">
<title>Node16&#45;&gt;Node26</title>
<g id="a_edge31_Node000016_Node000026"><a xlink:title=" ">
<path fill="none" stroke="#63b8ff" d="M1344.42,-248.97C1368.61,-243.65 1395.99,-237.63 1420.92,-232.16"/>
<polygon fill="#63b8ff" stroke="#63b8ff" points="1421.69,-235.57 1430.71,-230.01 1420.19,-228.73 1421.69,-235.57"/>
</a>
</g>
</g>
<!-- Node32 -->
<g id="Node000032" class="node">
<title>Node32</title>
<g id="a_Node000032"><a xlink:href="classwmtk_1_1_mesh.html#abaf00438d0700358b160e310d69725c9" target="_top" xlink:title=" ">
<polygon fill="white" stroke="#666666" points="1585,-519.5 1415,-519.5 1415,-500.5 1585,-500.5 1585,-519.5"/>
<text text-anchor="middle" x="1500" y="-507.5" font-family="Helvetica,sans-Serif" font-size="10.00">wmtk::Mesh::top_simplex_type</text>
</a>
</g>
</g>
<!-- Node16&#45;&gt;Node32 -->
<g id="edge37_Node000016_Node000032" class="edge">
<title>Node16&#45;&gt;Node32</title>
<g id="a_edge37_Node000016_Node000032"><a xlink:title=" ">
<path fill="none" stroke="#63b8ff" d="M1367.16,-279.25C1371.47,-282.03 1375.46,-285.25 1379,-289 1440.11,-353.72 1355.21,-420.07 1415,-486 1418.39,-489.74 1422.31,-492.91 1426.58,-495.59"/>
<polygon fill="#63b8ff" stroke="#63b8ff" points="1425.27,-498.86 1435.75,-500.46 1428.56,-492.68 1425.27,-498.86"/>
</a>
</g>
</g>
<!-- Node34 -->
<g id="Node000034" class="node">
<title>Node34</title>
<g id="a_Node000034"><a xlink:href="namespacewmtk_1_1multimesh_1_1utils.html#aa0392bf28bb6c304127cf0eea634fee8" target="_top" xlink:title=" ">
<polygon fill="white" stroke="#666666" points="1565,-477 1435,-477 1435,-447 1565,-447 1565,-477"/>
<text text-anchor="start" x="1443" y="-465" font-family="Helvetica,sans-Serif" font-size="10.00">wmtk::multimesh::utils</text>
<text text-anchor="middle" x="1500" y="-454" font-family="Helvetica,sans-Serif" font-size="10.00">::transport_tuple</text>
</a>
</g>
</g>
<!-- Node16&#45;&gt;Node34 -->
<g id="edge39_Node000016_Node000034" class="edge">
<title>Node16&#45;&gt;Node34</title>
<g id="a_edge39_Node000016_Node000034"><a xlink:title=" ">
<path fill="none" stroke="#63b8ff" d="M1364.34,-279.09C1369.59,-281.87 1374.54,-285.15 1379,-289 1411.3,-316.89 1391.44,-342.42 1415,-378 1430.7,-401.71 1453.86,-424.25 1471.88,-440"/>
<polygon fill="#63b8ff" stroke="#63b8ff" points="1469.88,-442.89 1479.76,-446.74 1474.43,-437.57 1469.88,-442.89"/>
</a>
</g>
</g>
<!-- Node18 -->
<g id="Node000018" class="node">
<title>Node18</title>
<g id="a_Node000018"><a xlink:href="classwmtk_1_1_tuple.html#a0023f575be92cd5ceeeaaaa3762ea06d" target="_top" xlink:title="Checks if a tuple is &quot;null&quot;. This merely implies the global index is &#45;1.">
<polygon fill="white" stroke="#666666" points="1781.5,-368.5 1668.5,-368.5 1668.5,-349.5 1781.5,-349.5 1781.5,-368.5"/>
<text text-anchor="middle" x="1725" y="-356.5" font-family="Helvetica,sans-Serif" font-size="10.00">wmtk::Tuple::is_null</text>
</a>
</g>
</g>
<!-- Node17&#45;&gt;Node18 -->
<g id="edge22_Node000017_Node000018" class="edge">
<title>Node17&#45;&gt;Node18</title>
<g id="a_edge22_Node000017_Node000018"><a xlink:title=" ">
<path fill="none" stroke="#63b8ff" d="M1560.17,-359C1590.32,-359 1627.05,-359 1658.1,-359"/>
<polygon fill="#63b8ff" stroke="#63b8ff" points="1658.39,-362.5 1668.39,-359 1658.39,-355.5 1658.39,-362.5"/>
</a>
</g>
</g>
<!-- Node19 -->
<g id="Node000019" class="node">
<title>Node19</title>
<g id="a_Node000019"><a xlink:href="classwmtk_1_1_mesh.html#ade176d345902d97af8c5da04aa3a095b" target="_top" xlink:title=" ">
<polygon fill="white" stroke="#666666" points="1795,-405.5 1655,-405.5 1655,-386.5 1795,-386.5 1795,-405.5"/>
<text text-anchor="middle" x="1725" y="-393.5" font-family="Helvetica,sans-Serif" font-size="10.00">wmtk::Mesh::is_removed</text>
</a>
</g>
</g>
<!-- Node17&#45;&gt;Node19 -->
<g id="edge23_Node000017_Node000019" class="edge">
<title>Node17&#45;&gt;Node19</title>
<g id="a_edge23_Node000017_Node000019"><a xlink:title=" ">
<path fill="none" stroke="#63b8ff" d="M1558.43,-368.53C1588.35,-373.49 1625.14,-379.6 1656.43,-384.79"/>
<polygon fill="#63b8ff" stroke="#63b8ff" points="1655.94,-388.26 1666.38,-386.44 1657.09,-381.35 1655.94,-388.26"/>
</a>
</g>
</g>
<!-- Node19&#45;&gt;Node19 -->
<g id="edge24_Node000019_Node000019" class="edge">
<title>Node19&#45;&gt;Node19</title>
<g id="a_edge24_Node000019_Node000019"><a xlink:title=" ">
<path fill="none" stroke="#63b8ff" d="M1697.26,-405.58C1683.76,-414.23 1693.01,-423.5 1725,-423.5 1746.49,-423.5 1757.72,-419.32 1758.68,-413.95"/>
<polygon fill="#63b8ff" stroke="#63b8ff" points="1761.39,-411.71 1752.74,-405.58 1755.68,-415.76 1761.39,-411.71"/>
</a>
</g>
</g>
<!-- Node21 -->
<g id="Node000021" class="node">
<title>Node21</title>
<g id="a_Node000021"><a xlink:href="classwmtk_1_1attribute_1_1_accessor.html#a4b89ff4381fe73d4827b663203a964fc" target="_top" xlink:title=" ">
<polygon fill="white" stroke="#666666" points="1796,-283 1654,-283 1654,-253 1796,-253 1796,-283"/>
<text text-anchor="start" x="1662" y="-271" font-family="Helvetica,sans-Serif" font-size="10.00">wmtk::attribute::Accessor</text>
<text text-anchor="middle" x="1725" y="-260" font-family="Helvetica,sans-Serif" font-size="10.00">::const_vector_attribute</text>
</a>
</g>
</g>
<!-- Node20&#45;&gt;Node21 -->
<g id="edge26_Node000020_Node000021" class="edge">
<title>Node20&#45;&gt;Node21</title>
<g id="a_edge26_Node000020_Node000021"><a xlink:title=" ">
<path fill="none" stroke="#63b8ff" d="M1574.64,-265.32C1596.75,-265.72 1621.12,-266.15 1643.64,-266.56"/>
<polygon fill="#63b8ff" stroke="#63b8ff" points="1643.79,-270.06 1653.85,-266.74 1643.91,-263.06 1643.79,-270.06"/>
</a>
</g>
</g>
<!-- Node22 -->
<g id="Node000022" class="node">
<title>Node22</title>
<g id="a_Node000022"><a xlink:href="classwmtk_1_1attribute_1_1_tuple_accessor.html#adf0b07ce3ed74d51723e2beed2d3f25e" target="_top" xlink:title=" ">
<polygon fill="white" stroke="#666666" points="1808.5,-235 1641.5,-235 1641.5,-205 1808.5,-205 1808.5,-235"/>
<text text-anchor="start" x="1649.5" y="-223" font-family="Helvetica,sans-Serif" font-size="10.00">wmtk::attribute::TupleAccessor</text>
<text text-anchor="middle" x="1725" y="-212" font-family="Helvetica,sans-Serif" font-size="10.00">::const_vector_attribute</text>
</a>
</g>
</g>
<!-- Node20&#45;&gt;Node22 -->
<g id="edge27_Node000020_Node000022" class="edge">
<title>Node20&#45;&gt;Node22</title>
<g id="a_edge27_Node000020_Node000022"><a xlink:title=" ">
<path fill="none" stroke="#63b8ff" d="M1574.64,-249.47C1594.9,-245.47 1617.05,-241.1 1637.95,-236.98"/>
<polygon fill="#63b8ff" stroke="#63b8ff" points="1638.63,-240.41 1647.77,-235.04 1637.28,-233.54 1638.63,-240.41"/>
</a>
</g>
</g>
<!-- Node23 -->
<g id="Node000023" class="node">
<title>Node23</title>
<g id="a_Node000023"><a xlink:href="classwmtk_1_1attribute_1_1_accessor_base.html#abd60539d5779de287d2a0ec31b16c77a" target="_top" xlink:title=" ">
<polygon fill="white" stroke="#666666" points="1796,-187 1654,-187 1654,-157 1796,-157 1796,-187"/>
<text text-anchor="start" x="1662" y="-175" font-family="Helvetica,sans-Serif" font-size="10.00">wmtk::attribute::Accessor</text>
<text text-anchor="middle" x="1725" y="-164" font-family="Helvetica,sans-Serif" font-size="10.00">Base::dimension</text>
</a>
</g>
</g>
<!-- Node20&#45;&gt;Node23 -->
<g id="edge28_Node000020_Node000023" class="edge">
<title>Node20&#45;&gt;Node23</title>
<g id="a_edge28_Node000020_Node000023"><a xlink:title=" ">
<path fill="none" stroke="#63b8ff" d="M1566.03,-248.89C1572.69,-246.11 1579.15,-242.84 1585,-239 1605.83,-225.31 1599.77,-209.06 1621,-196 1628.19,-191.58 1636.13,-187.97 1644.31,-185.02"/>
<polygon fill="#63b8ff" stroke="#63b8ff" points="1645.56,-188.29 1653.99,-181.86 1643.39,-181.64 1645.56,-188.29"/>
</a>
</g>
</g>
<!-- Node24 -->
<g id="Node000024" class="node">
<title>Node24</title>
<g id="a_Node000024"><a xlink:href="classwmtk_1_1attribute_1_1_tuple_accessor.html#a8d04c3529eb7adeead49e8faa7a119db" target="_top" xlink:title=" ">
<polygon fill="white" stroke="#666666" points="1808.5,-331 1641.5,-331 1641.5,-301 1808.5,-301 1808.5,-331"/>
<text text-anchor="start" x="1649.5" y="-319" font-family="Helvetica,sans-Serif" font-size="10.00">wmtk::attribute::TupleAccessor</text>
<text text-anchor="middle" x="1725" y="-308" font-family="Helvetica,sans-Serif" font-size="10.00">::dimension</text>
</a>
</g>
</g>
<!-- Node20&#45;&gt;Node24 -->
<g id="edge29_Node000020_Node000024" class="edge">
<title>Node20&#45;&gt;Node24</title>
<g id="a_edge29_Node000020_Node000024"><a xlink:title=" ">
<path fill="none" stroke="#63b8ff" d="M1565.46,-279.04C1583.44,-283.24 1602.98,-287.8 1621,-292 1630.22,-294.15 1639.91,-296.41 1649.5,-298.64"/>
<polygon fill="#63b8ff" stroke="#63b8ff" points="1648.91,-302.1 1659.44,-300.96 1650.5,-295.28 1648.91,-302.1"/>
</a>
</g>
</g>
<!-- Node27 -->
<g id="Node000027" class="node">
<title>Node27</title>
<g id="a_Node000027"><a xlink:href="classwmtk_1_1simplex_1_1_simplex_collection.html#a1e7079b3b75f70dd28c524556cab76cf" target="_top" xlink:title="Add simplex to the collection.">
<polygon fill="white" stroke="#666666" points="1829,-90.5 1621,-90.5 1621,-71.5 1829,-71.5 1829,-90.5"/>
<text text-anchor="middle" x="1725" y="-78.5" font-family="Helvetica,sans-Serif" font-size="10.00">wmtk::simplex::SimplexCollection::add</text>
</a>
</g>
</g>
<!-- Node26&#45;&gt;Node27 -->
<g id="edge32_Node000026_Node000027" class="edge">
<title>Node26&#45;&gt;Node27</title>
<g id="a_edge32_Node000026_Node000027"><a xlink:title=" ">
<path fill="none" stroke="#63b8ff" d="M1572.33,-199.97C1576.89,-197.43 1581.18,-194.46 1585,-191 1617.23,-161.79 1587.41,-127.63 1621,-100 1622.83,-98.5 1624.73,-97.1 1626.7,-95.8"/>
<polygon fill="#63b8ff" stroke="#63b8ff" points="1628.76,-98.66 1635.75,-90.69 1625.32,-92.56 1628.76,-98.66"/>
</a>
</g>
</g>
<!-- Node28 -->
<g id="Node000028" class="node">
<title>Node28</title>
<g id="a_Node000028"><a xlink:href="namespacewmtk.html#a441d6ad4f19569c7d4946e743da1a925" target="_top" xlink:title=" ">
<polygon fill="white" stroke="#666666" points="1786,-139 1664,-139 1664,-109 1786,-109 1786,-139"/>
<text text-anchor="start" x="1672" y="-127" font-family="Helvetica,sans-Serif" font-size="10.00">wmtk::log_and_throw</text>
<text text-anchor="middle" x="1725" y="-116" font-family="Helvetica,sans-Serif" font-size="10.00">_error</text>
</a>
</g>
</g>
<!-- Node26&#45;&gt;Node28 -->
<g id="edge33_Node000026_Node000028" class="edge">
<title>Node26&#45;&gt;Node28</title>
<g id="a_edge33_Node000026_Node000028"><a xlink:title=" ">
<path fill="none" stroke="#63b8ff" d="M1568.19,-199.82C1574.09,-197.31 1579.79,-194.39 1585,-191 1605.9,-177.42 1599.77,-161.06 1621,-148 1631.08,-141.8 1642.61,-137.2 1654.23,-133.79"/>
<polygon fill="#63b8ff" stroke="#63b8ff" points="1655.21,-137.15 1663.98,-131.19 1653.41,-130.39 1655.21,-137.15"/>
</a>
</g>
</g>
<!-- Node26&#45;&gt;Node31 -->
<g id="edge36_Node000026_Node000031" class="edge">
<title>Node26&#45;&gt;Node31</title>
<g id="a_edge36_Node000026_Node000031"><a xlink:title=" ">
<path fill="none" stroke="#63b8ff" d="M1573.53,-199.94C1577.7,-197.4 1581.58,-194.44 1585,-191 1626.96,-148.78 1578.01,-103.17 1621,-62 1628.54,-54.78 1637.8,-49.59 1647.66,-45.87"/>
<polygon fill="#63b8ff" stroke="#63b8ff" points="1648.83,-49.17 1657.26,-42.74 1646.66,-42.51 1648.83,-49.17"/>
</a>
</g>
</g>
<!-- Node29 -->
<g id="Node000029" class="node">
<title>Node29</title>
<g id="a_Node000029"><a xlink:href="namespacewmtk.html#a6a35f11c12436093d26fdd8be6fecc06" target="_top" xlink:title="Retrieves the current logger.">
<polygon fill="white" stroke="#666666" points="1946,-133.5 1865,-133.5 1865,-114.5 1946,-114.5 1946,-133.5"/>
<text text-anchor="middle" x="1905.5" y="-121.5" font-family="Helvetica,sans-Serif" font-size="10.00">wmtk::logger</text>
</a>
</g>
</g>
<!-- Node28&#45;&gt;Node29 -->
<g id="edge34_Node000028_Node000029" class="edge">
<title>Node28&#45;&gt;Node29</title>
<g id="a_edge34_Node000028_Node000029"><a xlink:title=" ">
<path fill="none" stroke="#63b8ff" d="M1786.43,-124C1808.68,-124 1833.61,-124 1854.81,-124"/>
<polygon fill="#63b8ff" stroke="#63b8ff" points="1854.89,-127.5 1864.89,-124 1854.89,-120.5 1854.89,-127.5"/>
</a>
</g>
</g>
<!-- Node30 -->
<g id="Node000030" class="node">
<title>Node30</title>
<g id="a_Node000030"><a xlink:href="namespacewmtk.html#a3daa7951a5f8b78cf4600dc047fcc180" target="_top" xlink:title="Setup a logger object to be used by WildmeshToolkit.">
<polygon fill="white" stroke="#666666" points="2083,-133.5 1982,-133.5 1982,-114.5 2083,-114.5 2083,-133.5"/>
<text text-anchor="middle" x="2032.5" y="-121.5" font-family="Helvetica,sans-Serif" font-size="10.00">wmtk::set_logger</text>
</a>
</g>
</g>
<!-- Node29&#45;&gt;Node30 -->
<g id="edge35_Node000029_Node000030" class="edge">
<title>Node29&#45;&gt;Node30</title>
<g id="a_edge35_Node000029_Node000030"><a xlink:title=" ">
<path fill="none" stroke="#63b8ff" d="M1946.05,-124C1954.17,-124 1962.9,-124 1971.55,-124"/>
<polygon fill="#63b8ff" stroke="#63b8ff" points="1971.65,-127.5 1981.65,-124 1971.65,-120.5 1971.65,-127.5"/>
</a>
</g>
</g>
<!-- Node33 -->
<g id="Node000033" class="node">
<title>Node33</title>
<g id="a_Node000033"><a xlink:href="classwmtk_1_1_mesh.html#a933f681cf24a63b155c9462280385200" target="_top" xlink:title=" ">
<polygon fill="white" stroke="#666666" points="1785.5,-531 1664.5,-531 1664.5,-501 1785.5,-501 1785.5,-531"/>
<text text-anchor="start" x="1672.5" y="-519" font-family="Helvetica,sans-Serif" font-size="10.00">wmtk::Mesh::top_cell</text>
<text text-anchor="middle" x="1725" y="-508" font-family="Helvetica,sans-Serif" font-size="10.00">_dimension</text>
</a>
</g>
</g>
<!-- Node32&#45;&gt;Node33 -->
<g id="edge38_Node000032_Node000033" class="edge">
<title>Node32&#45;&gt;Node33</title>
<g id="a_edge38_Node000032_Node000033"><a xlink:title=" ">
<path fill="none" stroke="#63b8ff" d="M1585.31,-512.27C1607.99,-512.88 1632.26,-513.53 1654.07,-514.12"/>
<polygon fill="#63b8ff" stroke="#63b8ff" points="1654.13,-517.62 1664.22,-514.39 1654.32,-510.62 1654.13,-517.62"/>
</a>
</g>
</g>
<!-- Node35 -->
<g id="Node000035" class="node">
<title>Node35</title>
<g id="a_Node000035"><a xlink:href="namespacewmtk_1_1multimesh_1_1utils_1_1internal.html#a11885fe5aebd05551827804b0142945d" target="_top" xlink:title=" ">
<polygon fill="white" stroke="#666666" points="1790,-482.5 1660,-482.5 1660,-441.5 1790,-441.5 1790,-482.5"/>
<text text-anchor="start" x="1668" y="-470.5" font-family="Helvetica,sans-Serif" font-size="10.00">wmtk::multimesh::utils</text>
<text text-anchor="start" x="1668" y="-459.5" font-family="Helvetica,sans-Serif" font-size="10.00">::internal::transport</text>
<text text-anchor="middle" x="1725" y="-448.5" font-family="Helvetica,sans-Serif" font-size="10.00">_tuple_dart</text>
</a>
</g>
</g>
<!-- Node34&#45;&gt;Node35 -->
<g id="edge40_Node000034_Node000035" class="edge">
<title>Node34&#45;&gt;Node35</title>
<g id="a_edge40_Node000034_Node000035"><a xlink:title=" ">
<path fill="none" stroke="#63b8ff" d="M1565.2,-455.82C1591.56,-455.15 1622.24,-455.07 1649.57,-455.59"/>
<polygon fill="#63b8ff" stroke="#63b8ff" points="1649.79,-459.1 1659.87,-455.82 1649.95,-452.1 1649.79,-459.1"/>
</a>
</g>
</g>
<!-- Node35&#45;&gt;Node34 -->
<g id="edge41_Node000035_Node000034" class="edge">
<title>Node35&#45;&gt;Node34</title>
<g id="a_edge41_Node000035_Node000034"><a xlink:title=" ">
<path fill="none" stroke="#63b8ff" d="M1659.87,-468.18C1633.52,-468.85 1602.83,-468.93 1575.5,-468.41"/>
<polygon fill="#63b8ff" stroke="#63b8ff" points="1575.28,-464.9 1565.2,-468.18 1575.12,-471.9 1575.28,-464.9"/>
</a>
</g>
</g>
<!-- Node37&#45;&gt;Node11 -->
<g id="edge46_Node000037_Node000011" class="edge">
<title>Node37&#45;&gt;Node11</title>
<g id="a_edge46_Node000037_Node000011"><a xlink:title=" ">
<path fill="none" stroke="#63b8ff" d="M880.32,-151.98C887.15,-149.41 893.84,-146.43 900,-143 918.96,-132.43 917.1,-120.67 936,-110 943.06,-106.01 950.73,-102.52 958.55,-99.49"/>
<polygon fill="#63b8ff" stroke="#63b8ff" points="959.95,-102.7 968.15,-96 957.56,-96.12 959.95,-102.7"/>
</a>
</g>
</g>
</g>
</svg>
