<?xml version="1.0" encoding="UTF-8" standalone="no"?>
<!DOCTYPE svg PUBLIC "-//W3C//DTD SVG 1.1//EN"
 "http://www.w3.org/Graphics/SVG/1.1/DTD/svg11.dtd">
<!-- Generated by graphviz version 2.43.0 (0)
 -->
<!-- Title: wmtk::operations::AMIPSOptimizationSmoothing::WMTKAMIPSProblem::gradient Pages: 1 -->
<svg width="507pt" height="197pt"
 viewBox="0.00 0.00 507.00 197.25" xmlns="http://www.w3.org/2000/svg" xmlns:xlink="http://www.w3.org/1999/xlink">
<g id="graph0" class="graph" transform="scale(1 1) rotate(0) translate(4 193.25)">
<title>wmtk::operations::AMIPSOptimizationSmoothing::WMTKAMIPSProblem::gradient</title>
<!-- Node1 -->
<g id="Node000001" class="node">
<title>Node1</title>
<g id="a_Node000001"><a xlink:title=" ">
<polygon fill="#999999" stroke="#666666" points="202,-131.5 0,-131.5 0,-90.5 202,-90.5 202,-131.5"/>
<text text-anchor="start" x="8" y="-119.5" font-family="Helvetica,sans-Serif" font-size="10.00">wmtk::operations::AMIPSOptimization</text>
<text text-anchor="start" x="8" y="-108.5" font-family="Helvetica,sans-Serif" font-size="10.00">Smoothing::WMTKAMIPSProblem</text>
<text text-anchor="middle" x="101" y="-97.5" font-family="Helvetica,sans-Serif" font-size="10.00">::gradient</text>
</a>
</g>
</g>
<!-- Node2 -->
<g id="Node000002" class="node">
<title>Node2</title>
<g id="a_Node000002"><a xlink:href="namespacewmtk.html#ad12ad5f8ec07682b8da79699a2628b6a" target="_top" xlink:title=" ">
<polygon fill="white" stroke="#666666" points="477,-168.5 406,-168.5 406,-149.5 477,-149.5 477,-168.5"/>
<text text-anchor="middle" x="441.5" y="-156.5" font-family="Helvetica,sans-Serif" font-size="10.00">wmtk::pow</text>
</a>
</g>
</g>
<!-- Node1&#45;&gt;Node2 -->
<g id="edge1_Node000001_Node000002" class="edge">
<title>Node1&#45;&gt;Node2</title>
<g id="a_edge1_Node000001_Node000002"><a xlink:title=" ">
<path fill="none" stroke="#63b8ff" d="M130.81,-131.63C157.23,-149.2 198.2,-173.11 238,-183 294.5,-197.03 361.97,-183.14 403,-171.4"/>
<polygon fill="#63b8ff" stroke="#63b8ff" points="404,-174.75 412.59,-168.56 402.01,-168.04 404,-174.75"/>
</a>
</g>
</g>
<!-- Node3 -->
<g id="Node000003" class="node">
<title>Node3</title>
<g id="a_Node000003"><a xlink:href="namespacewmtk_1_1function.html#a9e3b11628e6438129ff662e14c320619" target="_top" xlink:title=" ">
<polygon fill="white" stroke="#666666" points="348,-126 238,-126 238,-96 348,-96 348,-126"/>
<text text-anchor="start" x="246" y="-114" font-family="Helvetica,sans-Serif" font-size="10.00">wmtk::function::Tet</text>
<text text-anchor="middle" x="293" y="-103" font-family="Helvetica,sans-Serif" font-size="10.00">_AMIPS_energy</text>
</a>
</g>
</g>
<!-- Node1&#45;&gt;Node3 -->
<g id="edge2_Node000001_Node000003" class="edge">
<title>Node1&#45;&gt;Node3</title>
<g id="a_edge2_Node000001_Node000003"><a xlink:title=" ">
<path fill="none" stroke="#63b8ff" d="M202.01,-111C210.68,-111 219.3,-111 227.57,-111"/>
<polygon fill="#63b8ff" stroke="#63b8ff" points="227.85,-114.5 237.85,-111 227.85,-107.5 227.85,-114.5"/>
</a>
</g>
</g>
<!-- Node5 -->
<g id="Node000005" class="node">
<title>Node5</title>
<g id="a_Node000005"><a xlink:href="namespacewmtk_1_1function.html#a198aa9739019d6fdb0c869dcefe468b7" target="_top" xlink:title=" ">
<polygon fill="white" stroke="#666666" points="348,-174 238,-174 238,-144 348,-144 348,-174"/>
<text text-anchor="start" x="246" y="-162" font-family="Helvetica,sans-Serif" font-size="10.00">wmtk::function::Tet</text>
<text text-anchor="middle" x="293" y="-151" font-family="Helvetica,sans-Serif" font-size="10.00">_AMIPS_jacobian</text>
</a>
</g>
</g>
<!-- Node1&#45;&gt;Node5 -->
<g id="edge5_Node000001_Node000005" class="edge">
<title>Node1&#45;&gt;Node5</title>
<g id="a_edge5_Node000001_Node000005"><a xlink:title=" ">
<path fill="none" stroke="#63b8ff" d="M183.4,-131.57C198.38,-135.35 213.82,-139.25 228.18,-142.88"/>
<polygon fill="#63b8ff" stroke="#63b8ff" points="227.39,-146.29 237.94,-145.34 229.1,-139.5 227.39,-146.29"/>
</a>
</g>
</g>
<!-- Node6 -->
<g id="Node000006" class="node">
<title>Node6</title>
<g id="a_Node000006"><a xlink:href="namespacewmtk_1_1function.html#acd1fbbd6c163ab50ae7d2f684690f439" target="_top" xlink:title=" ">
<polygon fill="white" stroke="#666666" points="346.5,-78 239.5,-78 239.5,-48 346.5,-48 346.5,-78"/>
<text text-anchor="start" x="247.5" y="-66" font-family="Helvetica,sans-Serif" font-size="10.00">wmtk::function::Tri</text>
<text text-anchor="middle" x="293" y="-55" font-family="Helvetica,sans-Serif" font-size="10.00">_AMIPS_energy</text>
</a>
</g>
</g>
<!-- Node1&#45;&gt;Node6 -->
<g id="edge7_Node000001_Node000006" class="edge">
<title>Node1&#45;&gt;Node6</title>
<g id="a_edge7_Node000001_Node000006"><a xlink:title=" ">
<path fill="none" stroke="#63b8ff" d="M183.4,-90.43C198.79,-86.55 214.66,-82.54 229.36,-78.83"/>
<polygon fill="#63b8ff" stroke="#63b8ff" points="230.49,-82.15 239.32,-76.31 228.77,-75.36 230.49,-82.15"/>
</a>
</g>
</g>
<!-- Node7 -->
<g id="Node000007" class="node">
<title>Node7</title>
<g id="a_Node000007"><a xlink:href="namespacewmtk_1_1function.html#a9567d869f1e3e762ec382755de6da7df" target="_top" xlink:title=" ">
<polygon fill="white" stroke="#666666" points="346.5,-30 239.5,-30 239.5,0 346.5,0 346.5,-30"/>
<text text-anchor="start" x="247.5" y="-18" font-family="Helvetica,sans-Serif" font-size="10.00">wmtk::function::Tri</text>
<text text-anchor="middle" x="293" y="-7" font-family="Helvetica,sans-Serif" font-size="10.00">_AMIPS_jacobian</text>
</a>
</g>
</g>
<!-- Node1&#45;&gt;Node7 -->
<g id="edge8_Node000001_Node000007" class="edge">
<title>Node1&#45;&gt;Node7</title>
<g id="a_edge8_Node000001_Node000007"><a xlink:title=" ">
<path fill="none" stroke="#63b8ff" d="M139.17,-90.44C166.31,-75.64 204.12,-55.47 238,-39 241.28,-37.4 244.7,-35.79 248.14,-34.19"/>
<polygon fill="#63b8ff" stroke="#63b8ff" points="249.63,-37.36 257.27,-30.01 246.72,-30.99 249.63,-37.36"/>
</a>
</g>
</g>
<!-- Node3&#45;&gt;Node2 -->
<g id="edge3_Node000003_Node000002" class="edge">
<title>Node3&#45;&gt;Node2</title>
<g id="a_edge3_Node000003_Node000002"><a xlink:title=" ">
<path fill="none" stroke="#63b8ff" d="M339.95,-126.06C359.82,-132.56 382.81,-140.1 401.79,-146.32"/>
<polygon fill="#63b8ff" stroke="#63b8ff" points="400.72,-149.65 411.31,-149.44 402.9,-143 400.72,-149.65"/>
</a>
</g>
</g>
<!-- Node4 -->
<g id="Node000004" class="node">
<title>Node4</title>
<g id="a_Node000004"><a xlink:href="namespacewmtk_1_1function.html#a1b329f7277ad003d215e82a05b95339b" target="_top" xlink:title=" ">
<polygon fill="white" stroke="#666666" points="499,-126 384,-126 384,-96 499,-96 499,-126"/>
<text text-anchor="start" x="392" y="-114" font-family="Helvetica,sans-Serif" font-size="10.00">wmtk::function::Tet</text>
<text text-anchor="middle" x="441.5" y="-103" font-family="Helvetica,sans-Serif" font-size="10.00">_AMIPS_energy_aux</text>
</a>
</g>
</g>
<!-- Node3&#45;&gt;Node4 -->
<g id="edge4_Node000003_Node000004" class="edge">
<title>Node3&#45;&gt;Node4</title>
<g id="a_edge4_Node000003_Node000004"><a xlink:title=" ">
<path fill="none" stroke="#63b8ff" d="M348.13,-111C356.36,-111 364.94,-111 373.4,-111"/>
<polygon fill="#63b8ff" stroke="#63b8ff" points="373.64,-114.5 383.64,-111 373.64,-107.5 373.64,-114.5"/>
</a>
</g>
</g>
<!-- Node5&#45;&gt;Node2 -->
<g id="edge6_Node000005_Node000002" class="edge">
<title>Node5&#45;&gt;Node2</title>
<g id="a_edge6_Node000005_Node000002"><a xlink:title=" ">
<path fill="none" stroke="#63b8ff" d="M348.13,-159C363.76,-159 380.64,-159 395.64,-159"/>
<polygon fill="#63b8ff" stroke="#63b8ff" points="395.69,-162.5 405.69,-159 395.69,-155.5 395.69,-162.5"/>
</a>
</g>
</g>
</g>
</svg>
