<?xml version="1.0" encoding="UTF-8" standalone="no"?>
<!DOCTYPE svg PUBLIC "-//W3C//DTD SVG 1.1//EN"
 "http://www.w3.org/Graphics/SVG/1.1/DTD/svg11.dtd">
<!-- Generated by graphviz version 2.43.0 (0)
 -->
<!-- Title: wmtk::attribute::AttributeManager::reserve_attributes_to_fit Pages: 1 -->
<!--zoomable 459 -->

<svg id="main" version="1.1" xmlns="http://www.w3.org/2000/svg" xmlns:xlink="http://www.w3.org/1999/xlink" xml:space="preserve" onload="init(evt)">
<style type="text/css"><![CDATA[
.node, .edge {opacity: 0.7;}
.node.selected, .edge.selected {opacity: 1;}
.edge:hover path { stroke: red; }
.edge:hover polygon { stroke: red; fill: red; }
]]></style>

<defs>
  <circle id="rim" cx="0" cy="0" r="7"/>
  <circle id="rim2" cx="0" cy="0" r="3.5"/>
  <g id="zoomPlus">
    <use xlink:href="#rim" fill="#404040"><set attributeName="fill" to="#808080" begin="zoomplus.mouseover" end="zoomplus.mouseout"/></use>
    <path d="M-4,0h8M0,-4v8" fill="none" stroke="white" stroke-width="1.5" pointer-events="none"/>
  </g>
  <g id="zoomMin">
    <use xlink:href="#rim" fill="#404040"><set attributeName="fill" to="#808080" begin="zoomminus.mouseover" end="zoomminus.mouseout"/></use>
    <path d="M-4,0h8" fill="none" stroke="white" stroke-width="1.5" pointer-events="none"/>
  </g>
  <g id="arrowUp" transform="translate(30 24)">
    <use xlink:href="#rim"/>
    <path pointer-events="none" fill="none" stroke="white" stroke-width="1.5" d="M0,-3.0v7 M-2.5,-0.5L0,-3.0L2.5,-0.5"/>
  </g>
  <g id="arrowRight" transform="rotate(90) translate(36 -43)">
    <use xlink:href="#rim"/>
    <path pointer-events="none" fill="none" stroke="white" stroke-width="1.5" d="M0,-3.0v7 M-2.5,-0.5L0,-3.0L2.5,-0.5"/>
  </g>
  <g id="arrowDown" transform="rotate(180) translate(-30 -48)">
    <use xlink:href="#rim"/>
    <path pointer-events="none" fill="none" stroke="white" stroke-width="1.5" d="M0,-3.0v7 M-2.5,-0.5L0,-3.0L2.5,-0.5"/>
  </g>
  <g id="arrowLeft" transform="rotate(270) translate(-36 17)">
    <use xlink:href="#rim"/>
    <path pointer-events="none" fill="none" stroke="white" stroke-width="1.5" d="M0,-3.0v7 M-2.5,-0.5L0,-3.0L2.5,-0.5"/>
  </g>
  <g id="resetDef">
    <use xlink:href="#rim2" fill="#404040"><set attributeName="fill" to="#808080" begin="reset.mouseover" end="reset.mouseout"/></use>
  </g>
</defs>
<script type="application/ecmascript">
var viewWidth = 1663;
var viewHeight = 459;
var sectionId = 'dynsection-34';
</script>
<script type="application/ecmascript" xlink:href="svg.min.js"/>
<svg id="graph" class="graph">
<g id="viewport">
<title>wmtk::attribute::AttributeManager::reserve_attributes_to_fit</title>
<!-- Node1 -->
<g id="Node000001" class="node">
<title>Node1</title>
<g id="a_Node000001"><a xlink:title=" ">
<polygon fill="#999999" stroke="#666666" points="1655,-246 1470,-246 1470,-216 1655,-216 1655,-246"/>
<text text-anchor="start" x="1478" y="-234" font-family="Helvetica,sans-Serif" font-size="10.00">wmtk::attribute::Attribute</text>
<text text-anchor="middle" x="1562.5" y="-223" font-family="Helvetica,sans-Serif" font-size="10.00">Manager::reserve_attributes_to_fit</text>
</a>
</g>
</g>
<!-- Node2 -->
<g id="Node000002" class="node">
<title>Node2</title>
<g id="a_Node000002"><a xlink:href="classwmtk_1_1attribute_1_1_attribute_manager.html#a2dde70c10887ef5a2d5f00844e245b71" target="_top" xlink:title=" ">
<polygon fill="white" stroke="#666666" points="1434,-246 1293,-246 1293,-216 1434,-216 1434,-246"/>
<text text-anchor="start" x="1301" y="-234" font-family="Helvetica,sans-Serif" font-size="10.00">wmtk::attribute::Attribute</text>
<text text-anchor="middle" x="1363.5" y="-223" font-family="Helvetica,sans-Serif" font-size="10.00">Manager::set_capacities</text>
</a>
</g>
</g>
<!-- Node1&#45;&gt;Node2 -->
<g id="edge1_Node000001_Node000002" class="edge">
<title>Node1&#45;&gt;Node2</title>
<g id="a_edge1_Node000001_Node000002"><a xlink:title=" ">
<path fill="none" stroke="#63b8ff" d="M1459.73,-231C1451.05,-231 1442.4,-231 1434.06,-231"/>
<polygon fill="#63b8ff" stroke="#63b8ff" points="1459.92,-234.5 1469.92,-231 1459.92,-227.5 1459.92,-234.5"/>
</a>
</g>
</g>
<!-- Node3 -->
<g id="Node000003" class="node">
<title>Node3</title>
<g id="a_Node000003"><a xlink:href="classwmtk_1_1_mesh.html#a05eaf6f3eeb78949f3b95c359cc6df68" target="_top" xlink:title=" ">
<polygon fill="white" stroke="#666666" points="1257,-240.5 1105,-240.5 1105,-221.5 1257,-221.5 1257,-240.5"/>
<text text-anchor="middle" x="1181" y="-228.5" font-family="Helvetica,sans-Serif" font-size="10.00">wmtk::Mesh::set_capacities</text>
</a>
</g>
</g>
<!-- Node2&#45;&gt;Node3 -->
<g id="edge2_Node000002_Node000003" class="edge">
<title>Node2&#45;&gt;Node3</title>
<g id="a_edge2_Node000002_Node000003"><a xlink:title=" ">
<path fill="none" stroke="#63b8ff" d="M1282.71,-231C1274.22,-231 1265.62,-231 1257.19,-231"/>
<polygon fill="#63b8ff" stroke="#63b8ff" points="1282.97,-234.5 1292.97,-231 1282.97,-227.5 1282.97,-234.5"/>
</a>
</g>
</g>
<!-- Node4 -->
<g id="Node000004" class="node">
<title>Node4</title>
<g id="a_Node000004"><a xlink:href="classwmtk_1_1_edge_mesh.html#abb11a77971448cf4bc93efe610e80bb5" target="_top" xlink:title=" ">
<polygon fill="white" stroke="#666666" points="1069,-334.5 920,-334.5 920,-315.5 1069,-315.5 1069,-334.5"/>
<text text-anchor="middle" x="994.5" y="-322.5" font-family="Helvetica,sans-Serif" font-size="10.00">wmtk::EdgeMesh::initialize</text>
</a>
</g>
</g>
<!-- Node3&#45;&gt;Node4 -->
<g id="edge3_Node000003_Node000004" class="edge">
<title>Node3&#45;&gt;Node4</title>
<g id="a_edge3_Node000003_Node000004"><a xlink:title=" ">
<path fill="none" stroke="#63b8ff" d="M1160.98,-247.22C1139.84,-264.46 1104.04,-291.34 1069,-307 1061.44,-310.38 1053.16,-313.18 1044.95,-315.49"/>
<polygon fill="#63b8ff" stroke="#63b8ff" points="1163.38,-249.78 1168.85,-240.7 1158.91,-244.39 1163.38,-249.78"/>
</a>
</g>
</g>
<!-- Node5 -->
<g id="Node000005" class="node">
<title>Node5</title>
<g id="a_Node000005"><a xlink:href="classwmtk_1_1_tri_mesh.html#a813ae302287fb113bae39b8ec0ee3937" target="_top" xlink:title=" ">
<polygon fill="white" stroke="#666666" points="1062.5,-297.5 926.5,-297.5 926.5,-278.5 1062.5,-278.5 1062.5,-297.5"/>
<text text-anchor="middle" x="994.5" y="-285.5" font-family="Helvetica,sans-Serif" font-size="10.00">wmtk::TriMesh::initialize</text>
</a>
</g>
</g>
<!-- Node3&#45;&gt;Node5 -->
<g id="edge4_Node000003_Node000005" class="edge">
<title>Node3&#45;&gt;Node5</title>
<g id="a_edge4_Node000003_Node000005"><a xlink:title=" ">
<path fill="none" stroke="#63b8ff" d="M1139.47,-243.52C1105.44,-254.04 1057.52,-268.84 1026.48,-278.43"/>
<polygon fill="#63b8ff" stroke="#63b8ff" points="1140.6,-246.84 1149.12,-240.54 1138.53,-240.15 1140.6,-246.84"/>
</a>
</g>
</g>
<!-- Node25 -->
<g id="Node000025" class="node">
<title>Node25</title>
<g id="a_Node000025"><a xlink:href="classwmtk_1_1_tet_mesh.html#ab8b4b3182fb3778fa8da52ea4fa156b6" target="_top" xlink:title=" ">
<polygon fill="white" stroke="#666666" points="1064,-203.5 925,-203.5 925,-184.5 1064,-184.5 1064,-203.5"/>
<text text-anchor="middle" x="994.5" y="-191.5" font-family="Helvetica,sans-Serif" font-size="10.00">wmtk::TetMesh::initialize</text>
</a>
</g>
</g>
<!-- Node3&#45;&gt;Node25 -->
<g id="edge25_Node000003_Node000025" class="edge">
<title>Node3&#45;&gt;Node25</title>
<g id="a_edge25_Node000003_Node000025"><a xlink:title=" ">
<path fill="none" stroke="#63b8ff" d="M1122.58,-219.48C1097.08,-214.37 1067.42,-208.42 1043.17,-203.56"/>
<polygon fill="#63b8ff" stroke="#63b8ff" points="1121.99,-222.94 1132.49,-221.47 1123.37,-216.07 1121.99,-222.94"/>
</a>
</g>
</g>
<!-- Node28 -->
<g id="Node000028" class="node">
<title>Node28</title>
<g id="a_Node000028"><a xlink:href="classwmtk_1_1_point_mesh.html#af2a8d977bbf881485efb9843f5348918" target="_top" xlink:title=" ">
<polygon fill="white" stroke="#666666" points="874.5,-91.5 725.5,-91.5 725.5,-72.5 874.5,-72.5 874.5,-91.5"/>
<text text-anchor="middle" x="800" y="-79.5" font-family="Helvetica,sans-Serif" font-size="10.00">wmtk::PointMesh::initialize</text>
</a>
</g>
</g>
<!-- Node3&#45;&gt;Node28 -->
<g id="edge31_Node000003_Node000028" class="edge">
<title>Node3&#45;&gt;Node28</title>
<g id="a_edge31_Node000003_Node000028"><a xlink:title=" ">
<path fill="none" stroke="#63b8ff" d="M1153.18,-216.55C1102.19,-189.67 987.16,-131.84 884,-100 873.72,-96.83 862.55,-94 851.84,-91.58"/>
<polygon fill="#63b8ff" stroke="#63b8ff" points="1151.74,-219.75 1162.21,-221.34 1155.02,-213.56 1151.74,-219.75"/>
</a>
</g>
</g>
<!-- Node6 -->
<g id="Node000006" class="node">
<title>Node6</title>
<g id="a_Node000006"><a xlink:href="classwmtk_1_1components_1_1internal_1_1_multi_mesh_from_tag.html#a96647e9413f2b7e13dd17f02cf29b12d" target="_top" xlink:title="Create a manifold mesh from the substructure.">
<polygon fill="white" stroke="#666666" points="476,-189.5 312,-189.5 312,-148.5 476,-148.5 476,-189.5"/>
<text text-anchor="start" x="320" y="-177.5" font-family="Helvetica,sans-Serif" font-size="10.00">wmtk::components::internal</text>
<text text-anchor="start" x="320" y="-166.5" font-family="Helvetica,sans-Serif" font-size="10.00">::MultiMeshFromTag::compute</text>
<text text-anchor="middle" x="394" y="-155.5" font-family="Helvetica,sans-Serif" font-size="10.00">_substructure_mesh</text>
</a>
</g>
</g>
<!-- Node5&#45;&gt;Node6 -->
<g id="edge5_Node000005_Node000006" class="edge">
<title>Node5&#45;&gt;Node6</title>
<g id="a_edge5_Node000005_Node000006"><a xlink:title=" ">
<path fill="none" stroke="#63b8ff" d="M916.08,-296.52C817.97,-304.13 645.58,-306.75 512,-251 476.06,-236 440.2,-208.56 417.84,-189.58"/>
<polygon fill="#63b8ff" stroke="#63b8ff" points="916.53,-299.99 926.21,-295.69 915.96,-293.02 916.53,-299.99"/>
</a>
</g>
</g>
<!-- Node17 -->
<g id="Node000017" class="node">
<title>Node17</title>
<g id="a_Node000017"><a xlink:href="namespacewmtk_1_1components.html#a5a89b6c23c8338b3a90a304b368fb3a8" target="_top" xlink:title=" ">
<polygon fill="white" stroke="#666666" points="873,-241.5 727,-241.5 727,-222.5 873,-222.5 873,-241.5"/>
<text text-anchor="middle" x="800" y="-229.5" font-family="Helvetica,sans-Serif" font-size="10.00">wmtk::components::fusion</text>
</a>
</g>
</g>
<!-- Node5&#45;&gt;Node17 -->
<g id="edge16_Node000005_Node000017" class="edge">
<title>Node5&#45;&gt;Node17</title>
<g id="a_edge16_Node000005_Node000017"><a xlink:title=" ">
<path fill="none" stroke="#63b8ff" d="M958.03,-275C936.73,-267.45 909,-258.07 884,-251 871.91,-247.58 858.7,-244.34 846.44,-241.53"/>
<polygon fill="#63b8ff" stroke="#63b8ff" points="957.03,-278.36 967.62,-278.43 959.39,-271.77 957.03,-278.36"/>
</a>
</g>
</g>
<!-- Node19 -->
<g id="Node000019" class="node">
<title>Node19</title>
<g id="a_Node000019"><a xlink:href="classwmtk_1_1_tri_mesh.html#ab765cbb23c54975bbea2beec79439c6f" target="_top" xlink:title=" ">
<polygon fill="white" stroke="#666666" points="868,-402.5 732,-402.5 732,-383.5 868,-383.5 868,-402.5"/>
<text text-anchor="middle" x="800" y="-390.5" font-family="Helvetica,sans-Serif" font-size="10.00">wmtk::TriMesh::initialize</text>
</a>
</g>
</g>
<!-- Node5&#45;&gt;Node19 -->
<g id="edge18_Node000005_Node000019" class="edge">
<title>Node5&#45;&gt;Node19</title>
<g id="a_edge18_Node000005_Node000019"><a xlink:title=" ">
<path fill="none" stroke="#63b8ff" d="M927.43,-302.02C924.82,-303.51 922.33,-305.17 920,-307 893.41,-327.87 910.88,-353.5 884,-374 878.95,-377.85 873.25,-380.95 867.26,-383.43"/>
<polygon fill="#63b8ff" stroke="#63b8ff" points="929.19,-305.05 936.64,-297.51 926.12,-298.76 929.19,-305.05"/>
</a>
</g>
</g>
<!-- Node20 -->
<g id="Node000020" class="node">
<title>Node20</title>
<g id="a_Node000020"><a xlink:href="classwmtk_1_1_tri_mesh.html#a787262a548159fc1ce5dca50079a2c83" target="_top" xlink:title=" ">
<polygon fill="white" stroke="#666666" points="880.5,-278.5 719.5,-278.5 719.5,-259.5 880.5,-259.5 880.5,-278.5"/>
<text text-anchor="middle" x="800" y="-266.5" font-family="Helvetica,sans-Serif" font-size="10.00">wmtk::TriMesh::initialize_free</text>
</a>
</g>
</g>
<!-- Node5&#45;&gt;Node20 -->
<g id="edge19_Node000005_Node000020" class="edge">
<title>Node5&#45;&gt;Node20</title>
<g id="a_edge19_Node000005_Node000020"><a xlink:title=" ">
<path fill="none" stroke="#63b8ff" d="M916.28,-280.38C904.57,-279.22 892.47,-278.03 880.72,-276.87"/>
<polygon fill="#63b8ff" stroke="#63b8ff" points="916.15,-283.88 926.44,-281.38 916.84,-276.92 916.15,-283.88"/>
</a>
</g>
</g>
<!-- Node22 -->
<g id="Node000022" class="node">
<title>Node22</title>
<g id="a_Node000022"><a xlink:href="namespacewmtk_1_1components_1_1procedural.html#ab9c00d6ba2d614ba26750c3c80c6502c" target="_top" xlink:title=" ">
<polygon fill="white" stroke="#666666" points="884,-451 716,-451 716,-421 884,-421 884,-451"/>
<text text-anchor="start" x="724" y="-439" font-family="Helvetica,sans-Serif" font-size="10.00">wmtk::components::procedural</text>
<text text-anchor="middle" x="800" y="-428" font-family="Helvetica,sans-Serif" font-size="10.00">::make_mesh</text>
</a>
</g>
</g>
<!-- Node5&#45;&gt;Node22 -->
<g id="edge22_Node000005_Node000022" class="edge">
<title>Node5&#45;&gt;Node22</title>
<g id="a_edge22_Node000005_Node000022"><a xlink:title=" ">
<path fill="none" stroke="#63b8ff" d="M925.38,-302.67C923.49,-304 921.69,-305.44 920,-307 883.79,-340.51 919.72,-377.98 884,-412 880.42,-415.41 876.38,-418.35 872.06,-420.86"/>
<polygon fill="#63b8ff" stroke="#63b8ff" points="927.27,-305.62 934.16,-297.58 923.76,-299.57 927.27,-305.62"/>
</a>
</g>
</g>
<!-- Node24 -->
<g id="Node000024" class="node">
<title>Node24</title>
<g id="a_Node000024"><a xlink:href="namespacewmtk_1_1components_1_1procedural.html#ad852baba2d5d7211ec55d766497089b3" target="_top" xlink:title=" ">
<polygon fill="white" stroke="#666666" points="884,-365 716,-365 716,-335 884,-335 884,-365"/>
<text text-anchor="start" x="724" y="-353" font-family="Helvetica,sans-Serif" font-size="10.00">wmtk::components::procedural</text>
<text text-anchor="middle" x="800" y="-342" font-family="Helvetica,sans-Serif" font-size="10.00">::make_mesh</text>
</a>
</g>
</g>
<!-- Node5&#45;&gt;Node24 -->
<g id="edge24_Node000005_Node000024" class="edge">
<title>Node5&#45;&gt;Node24</title>
<g id="a_edge24_Node000005_Node000024"><a xlink:title=" ">
<path fill="none" stroke="#63b8ff" d="M943.36,-300.12C935.5,-302.26 927.5,-304.58 920,-307 903.66,-312.27 900.11,-315.06 884,-321 871.4,-325.65 857.65,-330.53 845.04,-334.93"/>
<polygon fill="#63b8ff" stroke="#63b8ff" points="944.43,-303.45 953.2,-297.5 942.64,-296.69 944.43,-303.45"/>
</a>
</g>
</g>
<!-- Node7 -->
<g id="Node000007" class="node">
<title>Node7</title>
<g id="a_Node000007"><a xlink:href="namespacewmtk_1_1components.html#ac309092566399cef68679a1bb8107d1e" target="_top" xlink:title="Generate a multi&#45;mesh from a mesh with a tag that represents the substructure, the mesh is changed.">
<polygon fill="white" stroke="#666666" points="276,-349 107,-349 107,-319 276,-319 276,-349"/>
<text text-anchor="start" x="115" y="-337" font-family="Helvetica,sans-Serif" font-size="10.00">wmtk::components::multimesh</text>
<text text-anchor="middle" x="191.5" y="-326" font-family="Helvetica,sans-Serif" font-size="10.00">_from_tag</text>
</a>
</g>
</g>
<!-- Node6&#45;&gt;Node7 -->
<g id="edge6_Node000006_Node000007" class="edge">
<title>Node6&#45;&gt;Node7</title>
<g id="a_edge6_Node000006_Node000007"><a xlink:title=" ">
<path fill="none" stroke="#63b8ff" d="M376.05,-198.52C356.12,-230.61 320.1,-281.17 276,-310 270.7,-313.47 264.89,-316.44 258.88,-318.99"/>
<polygon fill="#63b8ff" stroke="#63b8ff" points="379.27,-199.96 381.47,-189.59 373.29,-196.32 379.27,-199.96"/>
</a>
</g>
</g>
<!-- Node9 -->
<g id="Node000009" class="node">
<title>Node9</title>
<g id="a_Node000009"><a xlink:href="namespacewmtk_1_1components.html#a4166e4880553cfacbf79ac3515a637cd" target="_top" xlink:title=" ">
<polygon fill="white" stroke="#666666" points="269,-301 114,-301 114,-271 269,-271 269,-301"/>
<text text-anchor="start" x="122" y="-289" font-family="Helvetica,sans-Serif" font-size="10.00">wmtk::components::periodic</text>
<text text-anchor="middle" x="191.5" y="-278" font-family="Helvetica,sans-Serif" font-size="10.00">_optimization</text>
</a>
</g>
</g>
<!-- Node6&#45;&gt;Node9 -->
<g id="edge8_Node000006_Node000009" class="edge">
<title>Node6&#45;&gt;Node9</title>
<g id="a_edge8_Node000006_Node000009"><a xlink:title=" ">
<path fill="none" stroke="#63b8ff" d="M364.91,-196.61C342.5,-217.25 309.43,-244.78 276,-262 269.43,-265.39 262.32,-268.35 255.11,-270.94"/>
<polygon fill="#63b8ff" stroke="#63b8ff" points="367.47,-199.01 372.37,-189.62 362.68,-193.9 367.47,-199.01"/>
</a>
</g>
</g>
<!-- Node10 -->
<g id="Node000010" class="node">
<title>Node10</title>
<g id="a_Node000010"><a xlink:href="test__component__multimesh__from__tag_8cpp.html#a2231774bf0d53fb5f6c1b34753afb255" target="_top" xlink:title=" ">
<polygon fill="white" stroke="#666666" points="227,-252.5 156,-252.5 156,-233.5 227,-233.5 227,-252.5"/>
<text text-anchor="middle" x="191.5" y="-240.5" font-family="Helvetica,sans-Serif" font-size="10.00">TEST_CASE</text>
</a>
</g>
</g>
<!-- Node6&#45;&gt;Node10 -->
<g id="edge9_Node000006_Node000010" class="edge">
<title>Node6&#45;&gt;Node10</title>
<g id="a_edge9_Node000006_Node000010"><a xlink:title=" ">
<path fill="none" stroke="#63b8ff" d="M346.7,-194.25C325.61,-204.93 300.04,-216.78 276,-225 260.28,-230.37 242.34,-234.49 227.12,-237.42"/>
<polygon fill="#63b8ff" stroke="#63b8ff" points="348.45,-197.28 355.74,-189.6 345.25,-191.06 348.45,-197.28"/>
</a>
</g>
</g>
<!-- Node11 -->
<g id="Node000011" class="node">
<title>Node11</title>
<g id="a_Node000011"><a xlink:href="test__component__multimesh__from__tag_8cpp.html#a9a31cb828b93e2ddcf0a5063d4d1c9e6" target="_top" xlink:title=" ">
<polygon fill="white" stroke="#666666" points="227,-215.5 156,-215.5 156,-196.5 227,-196.5 227,-215.5"/>
<text text-anchor="middle" x="191.5" y="-203.5" font-family="Helvetica,sans-Serif" font-size="10.00">TEST_CASE</text>
</a>
</g>
</g>
<!-- Node6&#45;&gt;Node11 -->
<g id="edge10_Node000006_Node000011" class="edge">
<title>Node6&#45;&gt;Node11</title>
<g id="a_edge10_Node000006_Node000011"><a xlink:title=" ">
<path fill="none" stroke="#63b8ff" d="M301.63,-185.86C275.11,-190.75 247.76,-195.8 227.07,-199.62"/>
<polygon fill="#63b8ff" stroke="#63b8ff" points="302.54,-189.25 311.74,-184 301.27,-182.37 302.54,-189.25"/>
</a>
</g>
</g>
<!-- Node12 -->
<g id="Node000012" class="node">
<title>Node12</title>
<g id="a_Node000012"><a xlink:href="test__component__multimesh__from__tag_8cpp.html#a7a8f66a094907f369fa10876691f42f9" target="_top" xlink:title=" ">
<polygon fill="white" stroke="#666666" points="227,-178.5 156,-178.5 156,-159.5 227,-159.5 227,-178.5"/>
<text text-anchor="middle" x="191.5" y="-166.5" font-family="Helvetica,sans-Serif" font-size="10.00">TEST_CASE</text>
</a>
</g>
</g>
<!-- Node6&#45;&gt;Node12 -->
<g id="edge11_Node000006_Node000012" class="edge">
<title>Node6&#45;&gt;Node12</title>
<g id="a_edge11_Node000006_Node000012"><a xlink:title=" ">
<path fill="none" stroke="#63b8ff" d="M301.63,-169C275.11,-169 247.76,-169 227.07,-169"/>
<polygon fill="#63b8ff" stroke="#63b8ff" points="301.74,-172.5 311.74,-169 301.74,-165.5 301.74,-172.5"/>
</a>
</g>
</g>
<!-- Node13 -->
<g id="Node000013" class="node">
<title>Node13</title>
<g id="a_Node000013"><a xlink:href="test__component__multimesh__from__tag_8cpp.html#af55ce8249624ce4d6a3feaad760949a6" target="_top" xlink:title=" ">
<polygon fill="white" stroke="#666666" points="227,-141.5 156,-141.5 156,-122.5 227,-122.5 227,-141.5"/>
<text text-anchor="middle" x="191.5" y="-129.5" font-family="Helvetica,sans-Serif" font-size="10.00">TEST_CASE</text>
</a>
</g>
</g>
<!-- Node6&#45;&gt;Node13 -->
<g id="edge12_Node000006_Node000013" class="edge">
<title>Node6&#45;&gt;Node13</title>
<g id="a_edge12_Node000006_Node000013"><a xlink:title=" ">
<path fill="none" stroke="#63b8ff" d="M301.63,-152.14C275.11,-147.25 247.76,-142.2 227.07,-138.38"/>
<polygon fill="#63b8ff" stroke="#63b8ff" points="301.27,-155.63 311.74,-154 302.54,-148.75 301.27,-155.63"/>
</a>
</g>
</g>
<!-- Node14 -->
<g id="Node000014" class="node">
<title>Node14</title>
<g id="a_Node000014"><a xlink:href="test__component__multimesh__from__tag_8cpp.html#a18cd3d411cfadc472201c20662d62869" target="_top" xlink:title=" ">
<polygon fill="white" stroke="#666666" points="227,-104.5 156,-104.5 156,-85.5 227,-85.5 227,-104.5"/>
<text text-anchor="middle" x="191.5" y="-92.5" font-family="Helvetica,sans-Serif" font-size="10.00">TEST_CASE</text>
</a>
</g>
</g>
<!-- Node6&#45;&gt;Node14 -->
<g id="edge13_Node000006_Node000014" class="edge">
<title>Node6&#45;&gt;Node14</title>
<g id="a_edge13_Node000006_Node000014"><a xlink:title=" ">
<path fill="none" stroke="#63b8ff" d="M346.7,-143.75C325.61,-133.07 300.04,-121.22 276,-113 260.28,-107.63 242.34,-103.51 227.12,-100.58"/>
<polygon fill="#63b8ff" stroke="#63b8ff" points="345.25,-146.94 355.74,-148.4 348.45,-140.72 345.25,-146.94"/>
</a>
</g>
</g>
<!-- Node15 -->
<g id="Node000015" class="node">
<title>Node15</title>
<g id="a_Node000015"><a xlink:href="test__component__multimesh__from__tag_8cpp.html#a4caad3dd8a6355f2ca66fdb0b0af7999" target="_top" xlink:title=" ">
<polygon fill="white" stroke="#666666" points="227,-67.5 156,-67.5 156,-48.5 227,-48.5 227,-67.5"/>
<text text-anchor="middle" x="191.5" y="-55.5" font-family="Helvetica,sans-Serif" font-size="10.00">TEST_CASE</text>
</a>
</g>
</g>
<!-- Node6&#45;&gt;Node15 -->
<g id="edge14_Node000006_Node000015" class="edge">
<title>Node6&#45;&gt;Node15</title>
<g id="a_edge14_Node000006_Node000015"><a xlink:title=" ">
<path fill="none" stroke="#63b8ff" d="M365.64,-141.14C343.4,-120.1 310.2,-92.18 276,-76 260.85,-68.83 242.81,-64.49 227.38,-61.87"/>
<polygon fill="#63b8ff" stroke="#63b8ff" points="363.4,-143.84 373.03,-148.26 368.26,-138.8 363.4,-143.84"/>
</a>
</g>
</g>
<!-- Node16 -->
<g id="Node000016" class="node">
<title>Node16</title>
<g id="a_Node000016"><a xlink:href="namespacewmtk_1_1components.html#a9d6d11e3b7ba03911492ecfc79622247" target="_top" xlink:title=" ">
<polygon fill="white" stroke="#666666" points="268.5,-30 114.5,-30 114.5,0 268.5,0 268.5,-30"/>
<text text-anchor="start" x="122.5" y="-18" font-family="Helvetica,sans-Serif" font-size="10.00">wmtk::components::triangle</text>
<text text-anchor="middle" x="191.5" y="-7" font-family="Helvetica,sans-Serif" font-size="10.00">_insertion</text>
</a>
</g>
</g>
<!-- Node6&#45;&gt;Node16 -->
<g id="edge15_Node000006_Node000016" class="edge">
<title>Node6&#45;&gt;Node16</title>
<g id="a_edge15_Node000006_Node000016"><a xlink:title=" ">
<path fill="none" stroke="#63b8ff" d="M374.13,-139.84C353.48,-110.22 317.71,-65.09 276,-39 270.5,-35.56 264.49,-32.6 258.3,-30.05"/>
<polygon fill="#63b8ff" stroke="#63b8ff" points="371.26,-141.85 379.8,-148.13 377.04,-137.9 371.26,-141.85"/>
</a>
</g>
</g>
<!-- Node8 -->
<g id="Node000008" class="node">
<title>Node8</title>
<g id="a_Node000008"><a xlink:href="test__component__multimesh__from__tag_8cpp.html#a2b0208caf4b963a36a43604c3e7cf34a" target="_top" xlink:title=" ">
<polygon fill="white" stroke="#666666" points="71,-343.5 0,-343.5 0,-324.5 71,-324.5 71,-343.5"/>
<text text-anchor="middle" x="35.5" y="-331.5" font-family="Helvetica,sans-Serif" font-size="10.00">TEST_CASE</text>
</a>
</g>
</g>
<!-- Node7&#45;&gt;Node8 -->
<g id="edge7_Node000007_Node000008" class="edge">
<title>Node7&#45;&gt;Node8</title>
<g id="a_edge7_Node000007_Node000008"><a xlink:title=" ">
<path fill="none" stroke="#63b8ff" d="M96.52,-334C87.57,-334 78.93,-334 71.14,-334"/>
<polygon fill="#63b8ff" stroke="#63b8ff" points="96.74,-337.5 106.74,-334 96.74,-330.5 96.74,-337.5"/>
</a>
</g>
</g>
<!-- Node18 -->
<g id="Node000018" class="node">
<title>Node18</title>
<g id="a_Node000018"><a xlink:href="test__component__fusion_8cpp.html#ad717d3fcca492f6237e8e5f0e3455e4e" target="_top" xlink:title=" ">
<polygon fill="white" stroke="#666666" points="631.5,-241.5 560.5,-241.5 560.5,-222.5 631.5,-222.5 631.5,-241.5"/>
<text text-anchor="middle" x="596" y="-229.5" font-family="Helvetica,sans-Serif" font-size="10.00">TEST_CASE</text>
</a>
</g>
</g>
<!-- Node17&#45;&gt;Node18 -->
<g id="edge17_Node000017_Node000018" class="edge">
<title>Node17&#45;&gt;Node18</title>
<g id="a_edge17_Node000017_Node000018"><a xlink:title=" ">
<path fill="none" stroke="#63b8ff" d="M716.55,-232C686.89,-232 655.02,-232 631.66,-232"/>
<polygon fill="#63b8ff" stroke="#63b8ff" points="716.93,-235.5 726.93,-232 716.93,-228.5 716.93,-235.5"/>
</a>
</g>
</g>
<!-- Node21 -->
<g id="Node000021" class="node">
<title>Node21</title>
<g id="a_Node000021"><a xlink:href="classwmtk_1_1components_1_1internal_1_1_multi_mesh_from_tag.html#ad18667b876fc81c8cfb79a408d632b25" target="_top" xlink:title="Create a multimesh where the child&#45;mesh is just a soup (no connectivity) of m_mesh.">
<polygon fill="white" stroke="#666666" points="673,-165.5 519,-165.5 519,-124.5 673,-124.5 673,-165.5"/>
<text text-anchor="start" x="527" y="-153.5" font-family="Helvetica,sans-Serif" font-size="10.00">wmtk::components::internal</text>
<text text-anchor="start" x="527" y="-142.5" font-family="Helvetica,sans-Serif" font-size="10.00">::MultiMeshFromTag::create</text>
<text text-anchor="middle" x="596" y="-131.5" font-family="Helvetica,sans-Serif" font-size="10.00">_substructure_soup</text>
</a>
</g>
</g>
<!-- Node20&#45;&gt;Node21 -->
<g id="edge20_Node000020_Node000021" class="edge">
<title>Node20&#45;&gt;Node21</title>
<g id="a_edge20_Node000020_Node000021"><a xlink:title=" ">
<path fill="none" stroke="#63b8ff" d="M726.3,-255.94C722.74,-254.46 719.29,-252.82 716,-251 695.93,-239.87 696.85,-229.58 680,-214 661.7,-197.08 640.01,-179.12 623.4,-165.76"/>
<polygon fill="#63b8ff" stroke="#63b8ff" points="725.32,-259.3 735.92,-259.46 727.73,-252.73 725.32,-259.3"/>
</a>
</g>
</g>
<!-- Node21&#45;&gt;Node6 -->
<g id="edge21_Node000021_Node000006" class="edge">
<title>Node21&#45;&gt;Node6</title>
<g id="a_edge21_Node000021_Node000006"><a xlink:title=" ">
<path fill="none" stroke="#63b8ff" d="M508.61,-155.37C497.89,-156.65 486.94,-157.97 476.3,-159.24"/>
<polygon fill="#63b8ff" stroke="#63b8ff" points="509.31,-158.81 518.82,-154.14 508.47,-151.86 509.31,-158.81"/>
</a>
</g>
</g>
<!-- Node23 -->
<g id="Node000023" class="node">
<title>Node23</title>
<g id="a_Node000023"><a xlink:href="namespacewmtk_1_1components_1_1procedural.html#ae65f7700d6eefc4c80f28595d3bbef66" target="_top" xlink:title=" ">
<polygon fill="white" stroke="#666666" points="680,-451 512,-451 512,-421 680,-421 680,-451"/>
<text text-anchor="start" x="520" y="-439" font-family="Helvetica,sans-Serif" font-size="10.00">wmtk::components::procedural</text>
<text text-anchor="middle" x="596" y="-428" font-family="Helvetica,sans-Serif" font-size="10.00">::make_mesh</text>
</a>
</g>
</g>
<!-- Node22&#45;&gt;Node23 -->
<g id="edge23_Node000022_Node000023" class="edge">
<title>Node22&#45;&gt;Node23</title>
<g id="a_edge23_Node000022_Node000023"><a xlink:title=" ">
<path fill="none" stroke="#63b8ff" d="M705.89,-436C697.27,-436 688.56,-436 680.04,-436"/>
<polygon fill="#63b8ff" stroke="#63b8ff" points="705.96,-439.5 715.96,-436 705.96,-432.5 705.96,-439.5"/>
</a>
</g>
</g>
<!-- Node25&#45;&gt;Node6 -->
<g id="edge26_Node000025_Node000006" class="edge">
<title>Node25&#45;&gt;Node6</title>
<g id="a_edge26_Node000025_Node000006"><a xlink:title=" ">
<path fill="none" stroke="#63b8ff" d="M914.79,-190.76C819.44,-186.83 653.95,-179.98 512,-174 500.42,-173.51 488.2,-172.99 476.19,-172.48"/>
<polygon fill="#63b8ff" stroke="#63b8ff" points="914.79,-194.26 924.93,-191.18 915.08,-187.27 914.79,-194.26"/>
</a>
</g>
</g>
<!-- Node25&#45;&gt;Node17 -->
<g id="edge27_Node000025_Node000017" class="edge">
<title>Node25&#45;&gt;Node17</title>
<g id="a_edge27_Node000025_Node000017"><a xlink:title=" ">
<path fill="none" stroke="#63b8ff" d="M935.05,-205.54C907.59,-210.96 875.26,-217.34 849.23,-222.48"/>
<polygon fill="#63b8ff" stroke="#63b8ff" points="935.79,-208.96 944.92,-203.59 934.44,-202.09 935.79,-208.96"/>
</a>
</g>
</g>
<!-- Node26 -->
<g id="Node000026" class="node">
<title>Node26</title>
<g id="a_Node000026"><a xlink:href="classwmtk_1_1_tet_mesh.html#a679a3ffd1a5375f69e9279e48ddbbb8b" target="_top" xlink:title=" ">
<polygon fill="white" stroke="#666666" points="869.5,-128.5 730.5,-128.5 730.5,-109.5 869.5,-109.5 869.5,-128.5"/>
<text text-anchor="middle" x="800" y="-116.5" font-family="Helvetica,sans-Serif" font-size="10.00">wmtk::TetMesh::initialize</text>
</a>
</g>
</g>
<!-- Node25&#45;&gt;Node26 -->
<g id="edge28_Node000025_Node000026" class="edge">
<title>Node25&#45;&gt;Node26</title>
<g id="a_edge28_Node000025_Node000026"><a xlink:title=" ">
<path fill="none" stroke="#63b8ff" d="M969.33,-179.01C947.69,-166.19 914.73,-148.1 884,-137 874.85,-133.69 864.9,-130.89 855.17,-128.56"/>
<polygon fill="#63b8ff" stroke="#63b8ff" points="967.77,-182.16 978.14,-184.32 971.38,-176.17 967.77,-182.16"/>
</a>
</g>
</g>
<!-- Node27 -->
<g id="Node000027" class="node">
<title>Node27</title>
<g id="a_Node000027"><a xlink:href="classwmtk_1_1_tet_mesh.html#a7cff4758f5cd0e10da33622a6999cbef" target="_top" xlink:title=" ">
<polygon fill="white" stroke="#666666" points="882,-165.5 718,-165.5 718,-146.5 882,-146.5 882,-165.5"/>
<text text-anchor="middle" x="800" y="-153.5" font-family="Helvetica,sans-Serif" font-size="10.00">wmtk::TetMesh::initialize_free</text>
</a>
</g>
</g>
<!-- Node25&#45;&gt;Node27 -->
<g id="edge29_Node000025_Node000027" class="edge">
<title>Node25&#45;&gt;Node27</title>
<g id="a_edge29_Node000025_Node000027"><a xlink:title=" ">
<path fill="none" stroke="#63b8ff" d="M935.05,-182.46C907.59,-177.04 875.26,-170.66 849.23,-165.52"/>
<polygon fill="#63b8ff" stroke="#63b8ff" points="934.44,-185.91 944.92,-184.41 935.79,-179.04 934.44,-185.91"/>
</a>
</g>
</g>
<!-- Node27&#45;&gt;Node21 -->
<g id="edge30_Node000027_Node000021" class="edge">
<title>Node27&#45;&gt;Node21</title>
<g id="a_edge30_Node000027_Node000021"><a xlink:title=" ">
<path fill="none" stroke="#63b8ff" d="M707.65,-151.03C696.14,-150.4 684.46,-149.76 673.21,-149.15"/>
<polygon fill="#63b8ff" stroke="#63b8ff" points="707.54,-154.52 717.71,-151.57 707.92,-147.53 707.54,-154.52"/>
</a>
</g>
</g>
<!-- Node28&#45;&gt;Node6 -->
<g id="edge32_Node000028_Node000006" class="edge">
<title>Node28&#45;&gt;Node6</title>
<g id="a_edge32_Node000028_Node000006"><a xlink:title=" ">
<path fill="none" stroke="#63b8ff" d="M715.01,-84.64C657.06,-88.16 578.74,-96.28 512,-115 483.89,-122.88 454.04,-136.76 431.52,-148.48"/>
<polygon fill="#63b8ff" stroke="#63b8ff" points="715.44,-88.12 725.22,-84.06 715.04,-81.13 715.44,-88.12"/>
</a>
</g>
</g>
<!-- Node28&#45;&gt;Node21 -->
<g id="edge33_Node000028_Node000021" class="edge">
<title>Node28&#45;&gt;Node21</title>
<g id="a_edge33_Node000028_Node000021"><a xlink:title=" ">
<path fill="none" stroke="#63b8ff" d="M739.22,-93.85C731.36,-95.73 723.46,-97.79 716,-100 692.81,-106.86 667.68,-116.08 646.52,-124.39"/>
<polygon fill="#63b8ff" stroke="#63b8ff" points="740.15,-97.23 749.1,-91.57 738.57,-90.41 740.15,-97.23"/>
</a>
</g>
</g>
<!-- Node29 -->
<g id="Node000029" class="node">
<title>Node29</title>
<g id="a_Node000029"><a xlink:href="classwmtk_1_1_point_mesh.html#a9323586140fbd128b9d52c3d6a6ccae8" target="_top" xlink:title=" ">
<polygon fill="white" stroke="#666666" points="675,-67.5 517,-67.5 517,-48.5 675,-48.5 675,-67.5"/>
<text text-anchor="middle" x="596" y="-55.5" font-family="Helvetica,sans-Serif" font-size="10.00">wmtk::PointMesh::PointMesh</text>
</a>
</g>
</g>
<!-- Node28&#45;&gt;Node29 -->
<g id="edge34_Node000028_Node000029" class="edge">
<title>Node28&#45;&gt;Node29</title>
<g id="a_edge34_Node000028_Node000029"><a xlink:title=" ">
<path fill="none" stroke="#63b8ff" d="M715.15,-72.04C701.85,-70.46 688.15,-68.83 675,-67.27"/>
<polygon fill="#63b8ff" stroke="#63b8ff" points="714.87,-75.53 725.22,-73.23 715.7,-68.58 714.87,-75.53"/>
</a>
</g>
</g>
</g>
</svg>

<g id="navigator" transform="translate(0 0)" fill="#404254">
  <rect fill="#f2f5e9" fill-opacity="0.5" stroke="#606060" stroke-width=".5" x="0" y="0" width="60" height="60"/>
  <use id="zoomplus" xlink:href="#zoomPlus" x="17" y="9" onmousedown="handleZoom(evt,'in')"/>
  <use id="zoomminus" xlink:href="#zoomMin" x="42" y="9" onmousedown="handleZoom(evt,'out')"/>
  <use id="reset" xlink:href="#resetDef" x="30" y="36" onmousedown="handleReset()"/>
   <use id="arrowup" xlink:href="#arrowUp" x="0" y="0" onmousedown="handlePan(0,-1)"/>
  <use id="arrowright" xlink:href="#arrowRight" x="0" y="0" onmousedown="handlePan(1,0)"/>
  <use id="arrowdown" xlink:href="#arrowDown" x="0" y="0" onmousedown="handlePan(0,1)"/>
  <use id="arrowleft" xlink:href="#arrowLeft" x="0" y="0" onmousedown="handlePan(-1,0)"/>
</g>
<svg viewBox="0 0 15 15" width="100%" height="30px" preserveAspectRatio="xMaxYMin meet">
 <g id="arrow_out" transform="scale(0.3 0.3)">
  <a xlink:href="classwmtk_1_1attribute_1_1_attribute_manager_a4fa415bb426f10d888dd765bf11f3163_icgraph_org.svg" target="_base">
   <rect id="button" ry="5" rx="5" y="6" x="6" height="38" width="38"
        fill="#f2f5e9" fill-opacity="0.5" stroke="#606060" stroke-width="1.0"/>
   <path id="arrow"
     d="M 11.500037,31.436501 C 11.940474,20.09759 22.043105,11.32322 32.158766,21.979434 L 37.068811,17.246167 C 37.068811,17.246167 37.088388,32 37.088388,32 L 22.160133,31.978069 C 22.160133,31.978069 26.997745,27.140456 26.997745,27.140456 C 18.528582,18.264221 13.291696,25.230495 11.500037,31.436501 z"
     style="fill:#404040;"/>
  </a>
 </g>
</svg>

<style type='text/css'>
<![CDATA[
[data-mouse-over-selected='false'] { opacity: 0.7; }
[data-mouse-over-selected='true']  { opacity: 1.0; }
]]>
</style>
<script type="application/ecmascript"><![CDATA[
document.addEventListener('DOMContentLoaded', (event) => {
  highlightEdges();
  highlightAdjacentNodes();
});
]]></script>
</svg>
