<?xml version="1.0" encoding="UTF-8" standalone="no"?>
<!DOCTYPE svg PUBLIC "-//W3C//DTD SVG 1.1//EN"
 "http://www.w3.org/Graphics/SVG/1.1/DTD/svg11.dtd">
<!-- Generated by graphviz version 2.43.0 (0)
 -->
<!-- Title: wmtk::MshReader::extract_simplex_elements Pages: 1 -->
<svg width="345pt" height="198pt"
 viewBox="0.00 0.00 345.00 197.50" xmlns="http://www.w3.org/2000/svg" xmlns:xlink="http://www.w3.org/1999/xlink">
<g id="graph0" class="graph" transform="scale(1 1) rotate(0) translate(4 193.5)">
<title>wmtk::MshReader::extract_simplex_elements</title>
<!-- Node1 -->
<g id="Node000001" class="node">
<title>Node1</title>
<g id="a_Node000001"><a xlink:title=" ">
<polygon fill="#999999" stroke="#666666" points="146,-98.5 0,-98.5 0,-68.5 146,-68.5 146,-98.5"/>
<text text-anchor="start" x="8" y="-86.5" font-family="Helvetica,sans-Serif" font-size="10.00">wmtk::MshReader::extract</text>
<text text-anchor="middle" x="73" y="-75.5" font-family="Helvetica,sans-Serif" font-size="10.00">_simplex_elements</text>
</a>
</g>
</g>
<!-- Node2 -->
<g id="Node000002" class="node">
<title>Node2</title>
<g id="a_Node000002"><a xlink:href="classwmtk_1_1_msh_reader.html#a7c87cee1adfc204dcceb07b91352d1d5" target="_top" xlink:title=" ">
<polygon fill="white" stroke="#666666" points="328.5,-189.5 190.5,-189.5 190.5,-159.5 328.5,-159.5 328.5,-189.5"/>
<text text-anchor="start" x="198.5" y="-177.5" font-family="Helvetica,sans-Serif" font-size="10.00">wmtk::MshReader::get</text>
<text text-anchor="middle" x="259.5" y="-166.5" font-family="Helvetica,sans-Serif" font-size="10.00">_simplex_element_block</text>
</a>
</g>
</g>
<!-- Node1&#45;&gt;Node2 -->
<g id="edge1_Node000001_Node000002" class="edge">
<title>Node1&#45;&gt;Node2</title>
<g id="a_edge1_Node000001_Node000002"><a xlink:title=" ">
<path fill="none" stroke="#63b8ff" d="M95.03,-98.77C116.17,-113.58 150.11,-135.89 182,-150.5 186.1,-152.38 190.38,-154.16 194.74,-155.85"/>
<polygon fill="#63b8ff" stroke="#63b8ff" points="193.76,-159.22 204.36,-159.39 196.18,-152.65 193.76,-159.22"/>
</a>
</g>
</g>
<!-- Node3 -->
<g id="Node000003" class="node">
<title>Node3</title>
<g id="a_Node000003"><a xlink:href="classwmtk_1_1_msh_reader.html#afbb0a5cde0f43f6ea0e4d52c50eccaee" target="_top" xlink:title=" ">
<polygon fill="white" stroke="#666666" points="323,-141.5 196,-141.5 196,-111.5 323,-111.5 323,-141.5"/>
<text text-anchor="start" x="204" y="-129.5" font-family="Helvetica,sans-Serif" font-size="10.00">wmtk::MshReader::get</text>
<text text-anchor="middle" x="259.5" y="-118.5" font-family="Helvetica,sans-Serif" font-size="10.00">_vertex_block</text>
</a>
</g>
</g>
<!-- Node1&#45;&gt;Node3 -->
<g id="edge2_Node000001_Node000003" class="edge">
<title>Node1&#45;&gt;Node3</title>
<g id="a_edge2_Node000001_Node000003"><a xlink:title=" ">
<path fill="none" stroke="#63b8ff" d="M138.53,-98.54C153.79,-102.1 170.16,-105.91 185.76,-109.55"/>
<polygon fill="#63b8ff" stroke="#63b8ff" points="185.34,-113.04 195.87,-111.9 186.93,-106.23 185.34,-113.04"/>
</a>
</g>
</g>
<!-- Node4 -->
<g id="Node000004" class="node">
<title>Node4</title>
<g id="a_Node000004"><a xlink:href="classwmtk_1_1_msh_reader.html#a4bd3f6902cf0f3418325d036dd3c83fb" target="_top" xlink:title=" ">
<polygon fill="white" stroke="#666666" points="337,-93 182,-93 182,-74 337,-74 337,-93"/>
<text text-anchor="middle" x="259.5" y="-81" font-family="Helvetica,sans-Serif" font-size="10.00">wmtk::MshReader::set_edge</text>
</a>
</g>
</g>
<!-- Node1&#45;&gt;Node4 -->
<g id="edge3_Node000001_Node000004" class="edge">
<title>Node1&#45;&gt;Node4</title>
<g id="a_edge3_Node000001_Node000004"><a xlink:title=" ">
<path fill="none" stroke="#63b8ff" d="M146.13,-83.5C154.55,-83.5 163.21,-83.5 171.81,-83.5"/>
<polygon fill="#63b8ff" stroke="#63b8ff" points="171.86,-87 181.86,-83.5 171.86,-80 171.86,-87"/>
</a>
</g>
</g>
<!-- Node5 -->
<g id="Node000005" class="node">
<title>Node5</title>
<g id="a_Node000005"><a xlink:href="classwmtk_1_1_msh_reader.html#a013b767a49d468c3f33cabf96aa563c6" target="_top" xlink:title=" ">
<polygon fill="white" stroke="#666666" points="335.5,-56 183.5,-56 183.5,-37 335.5,-37 335.5,-56"/>
<text text-anchor="middle" x="259.5" y="-44" font-family="Helvetica,sans-Serif" font-size="10.00">wmtk::MshReader::set_face</text>
</a>
</g>
</g>
<!-- Node1&#45;&gt;Node5 -->
<g id="edge4_Node000001_Node000005" class="edge">
<title>Node1&#45;&gt;Node5</title>
<g id="a_edge4_Node000001_Node000005"><a xlink:title=" ">
<path fill="none" stroke="#63b8ff" d="M146.13,-69.04C164.29,-65.39 183.55,-61.53 200.9,-58.05"/>
<polygon fill="#63b8ff" stroke="#63b8ff" points="201.75,-61.45 210.87,-56.05 200.37,-54.59 201.75,-61.45"/>
</a>
</g>
</g>
<!-- Node6 -->
<g id="Node000006" class="node">
<title>Node6</title>
<g id="a_Node000006"><a xlink:href="classwmtk_1_1_msh_reader.html#afbbfa8d411b2489f3b12fdefcbb6d9dc" target="_top" xlink:title=" ">
<polygon fill="white" stroke="#666666" points="332,-19 187,-19 187,0 332,0 332,-19"/>
<text text-anchor="middle" x="259.5" y="-7" font-family="Helvetica,sans-Serif" font-size="10.00">wmtk::MshReader::set_tet</text>
</a>
</g>
</g>
<!-- Node1&#45;&gt;Node6 -->
<g id="edge5_Node000001_Node000006" class="edge">
<title>Node1&#45;&gt;Node6</title>
<g id="a_edge5_Node000001_Node000006"><a xlink:title=" ">
<path fill="none" stroke="#63b8ff" d="M99.44,-68.45C120.86,-56.3 152.63,-39.46 182,-28.5 188.7,-26 195.85,-23.73 202.99,-21.7"/>
<polygon fill="#63b8ff" stroke="#63b8ff" points="203.94,-25.07 212.68,-19.08 202.11,-18.31 203.94,-25.07"/>
</a>
</g>
</g>
</g>
</svg>
