<?xml version="1.0" encoding="UTF-8" standalone="no"?>
<!DOCTYPE svg PUBLIC "-//W3C//DTD SVG 1.1//EN"
 "http://www.w3.org/Graphics/SVG/1.1/DTD/svg11.dtd">
<!-- Generated by graphviz version 2.43.0 (0)
 -->
<!-- Title: wmtk::TetMesh::switch_tuple Pages: 1 -->
<!--zoomable 477 -->

<svg id="main" version="1.1" xmlns="http://www.w3.org/2000/svg" xmlns:xlink="http://www.w3.org/1999/xlink" xml:space="preserve" onload="init(evt)">
<style type="text/css"><![CDATA[
.node, .edge {opacity: 0.7;}
.node.selected, .edge.selected {opacity: 1;}
.edge:hover path { stroke: red; }
.edge:hover polygon { stroke: red; fill: red; }
]]></style>

<defs>
  <circle id="rim" cx="0" cy="0" r="7"/>
  <circle id="rim2" cx="0" cy="0" r="3.5"/>
  <g id="zoomPlus">
    <use xlink:href="#rim" fill="#404040"><set attributeName="fill" to="#808080" begin="zoomplus.mouseover" end="zoomplus.mouseout"/></use>
    <path d="M-4,0h8M0,-4v8" fill="none" stroke="white" stroke-width="1.5" pointer-events="none"/>
  </g>
  <g id="zoomMin">
    <use xlink:href="#rim" fill="#404040"><set attributeName="fill" to="#808080" begin="zoomminus.mouseover" end="zoomminus.mouseout"/></use>
    <path d="M-4,0h8" fill="none" stroke="white" stroke-width="1.5" pointer-events="none"/>
  </g>
  <g id="arrowUp" transform="translate(30 24)">
    <use xlink:href="#rim"/>
    <path pointer-events="none" fill="none" stroke="white" stroke-width="1.5" d="M0,-3.0v7 M-2.5,-0.5L0,-3.0L2.5,-0.5"/>
  </g>
  <g id="arrowRight" transform="rotate(90) translate(36 -43)">
    <use xlink:href="#rim"/>
    <path pointer-events="none" fill="none" stroke="white" stroke-width="1.5" d="M0,-3.0v7 M-2.5,-0.5L0,-3.0L2.5,-0.5"/>
  </g>
  <g id="arrowDown" transform="rotate(180) translate(-30 -48)">
    <use xlink:href="#rim"/>
    <path pointer-events="none" fill="none" stroke="white" stroke-width="1.5" d="M0,-3.0v7 M-2.5,-0.5L0,-3.0L2.5,-0.5"/>
  </g>
  <g id="arrowLeft" transform="rotate(270) translate(-36 17)">
    <use xlink:href="#rim"/>
    <path pointer-events="none" fill="none" stroke="white" stroke-width="1.5" d="M0,-3.0v7 M-2.5,-0.5L0,-3.0L2.5,-0.5"/>
  </g>
  <g id="resetDef">
    <use xlink:href="#rim2" fill="#404040"><set attributeName="fill" to="#808080" begin="reset.mouseover" end="reset.mouseout"/></use>
  </g>
</defs>
<script type="application/ecmascript">
var viewWidth = 1074;
var viewHeight = 477;
var sectionId = 'dynsection-44';
</script>
<script type="application/ecmascript" xlink:href="svg.min.js"/>
<svg id="graph" class="graph">
<g id="viewport">
<title>wmtk::TetMesh::switch_tuple</title>
<!-- Node1 -->
<g id="Node000001" class="node">
<title>Node1</title>
<g id="a_Node000001"><a xlink:title="switch the orientation of the Tuple of the given dimension">
<polygon fill="#999999" stroke="#666666" points="128,-198 0,-198 0,-168 128,-168 128,-198"/>
<text text-anchor="start" x="8" y="-186" font-family="Helvetica,sans-Serif" font-size="10.00">wmtk::TetMesh::switch</text>
<text text-anchor="middle" x="64" y="-175" font-family="Helvetica,sans-Serif" font-size="10.00">_tuple</text>
</a>
</g>
</g>
<!-- Node2 -->
<g id="Node000002" class="node">
<title>Node2</title>
<g id="a_Node000002"><a xlink:href="classwmtk_1_1_tet_mesh.html#aa8424e5e4d709981e9e10d659f87f97d" target="_top" xlink:title=" ">
<polygon fill="white" stroke="#666666" points="308,-248.5 202,-248.5 202,-229.5 308,-229.5 308,-248.5"/>
<text text-anchor="middle" x="255" y="-236.5" font-family="Helvetica,sans-Serif" font-size="10.00">wmtk::TetMesh::id</text>
</a>
</g>
</g>
<!-- Node1&#45;&gt;Node2 -->
<g id="edge1_Node000001_Node000002" class="edge">
<title>Node1&#45;&gt;Node2</title>
<g id="a_edge1_Node000001_Node000002"><a xlink:title=" ">
<path fill="none" stroke="#63b8ff" d="M99.79,-198.01C118.55,-205.68 142.25,-214.7 164,-221 172.88,-223.57 182.36,-225.9 191.7,-227.97"/>
<polygon fill="#63b8ff" stroke="#63b8ff" points="191.25,-231.45 201.76,-230.11 192.71,-224.6 191.25,-231.45"/>
</a>
</g>
</g>
<!-- Node3 -->
<g id="Node000003" class="node">
<title>Node3</title>
<g id="a_Node000003"><a xlink:href="classwmtk_1_1_tet_mesh.html#af4002e7a36e20373deb54576caffa682" target="_top" xlink:title=" ">
<polygon fill="white" stroke="#666666" points="346,-211.5 164,-211.5 164,-192.5 346,-192.5 346,-211.5"/>
<text text-anchor="middle" x="255" y="-199.5" font-family="Helvetica,sans-Serif" font-size="10.00">wmtk::TetMesh::is_boundary_face</text>
</a>
</g>
</g>
<!-- Node1&#45;&gt;Node3 -->
<g id="edge2_Node000001_Node000003" class="edge">
<title>Node1&#45;&gt;Node3</title>
<g id="a_edge2_Node000001_Node000003"><a xlink:title=" ">
<path fill="none" stroke="#63b8ff" d="M128.2,-189.35C136.45,-190.18 145.06,-191.05 153.74,-191.92"/>
<polygon fill="#63b8ff" stroke="#63b8ff" points="153.64,-195.43 163.94,-192.95 154.34,-188.46 153.64,-195.43"/>
</a>
</g>
</g>
<!-- Node5 -->
<g id="Node000005" class="node">
<title>Node5</title>
<g id="a_Node000005"><a xlink:href="classwmtk_1_1_tet_mesh.html#af07828ce32b19a3d5fc8e1cb6f365029" target="_top" xlink:title="check validity of tuple including its hash">
<polygon fill="white" stroke="#666666" points="322,-174.5 188,-174.5 188,-155.5 322,-155.5 322,-174.5"/>
<text text-anchor="middle" x="255" y="-162.5" font-family="Helvetica,sans-Serif" font-size="10.00">wmtk::TetMesh::is_valid</text>
</a>
</g>
</g>
<!-- Node1&#45;&gt;Node5 -->
<g id="edge4_Node000001_Node000005" class="edge">
<title>Node1&#45;&gt;Node5</title>
<g id="a_edge4_Node000001_Node000005"><a xlink:title=" ">
<path fill="none" stroke="#63b8ff" d="M128.2,-176.98C144.1,-175.47 161.35,-173.82 177.82,-172.26"/>
<polygon fill="#63b8ff" stroke="#63b8ff" points="178.33,-175.72 187.95,-171.29 177.66,-168.75 178.33,-175.72"/>
</a>
</g>
</g>
<!-- Node26 -->
<g id="Node000026" class="node">
<title>Node26</title>
<g id="a_Node000026"><a xlink:href="namespacewmtk_1_1autogen_1_1tet__mesh.html#a4060d948aa959f21810c425f3f197dd5" target="_top" xlink:title=" ">
<polygon fill="white" stroke="#666666" points="327.5,-110 182.5,-110 182.5,-80 327.5,-80 327.5,-110"/>
<text text-anchor="start" x="190.5" y="-98" font-family="Helvetica,sans-Serif" font-size="10.00">wmtk::autogen::tet</text>
<text text-anchor="middle" x="255" y="-87" font-family="Helvetica,sans-Serif" font-size="10.00">_mesh::local_switch_tuple</text>
</a>
</g>
</g>
<!-- Node1&#45;&gt;Node26 -->
<g id="edge27_Node000001_Node000026" class="edge">
<title>Node1&#45;&gt;Node26</title>
<g id="a_edge27_Node000001_Node000026"><a xlink:title=" ">
<path fill="none" stroke="#63b8ff" d="M97.49,-167.87C129.23,-153.09 177.68,-130.54 212.26,-114.44"/>
<polygon fill="#63b8ff" stroke="#63b8ff" points="214.03,-117.47 221.62,-110.08 211.08,-111.13 214.03,-117.47"/>
</a>
</g>
</g>
<!-- Node4 -->
<g id="Node000004" class="node">
<title>Node4</title>
<g id="a_Node000004"><a xlink:href="classwmtk_1_1attribute_1_1_accessor.html#a4b89ff4381fe73d4827b663203a964fc" target="_top" xlink:title=" ">
<polygon fill="white" stroke="#666666" points="538,-333 396,-333 396,-303 538,-303 538,-333"/>
<text text-anchor="start" x="404" y="-321" font-family="Helvetica,sans-Serif" font-size="10.00">wmtk::attribute::Accessor</text>
<text text-anchor="middle" x="467" y="-310" font-family="Helvetica,sans-Serif" font-size="10.00">::const_vector_attribute</text>
</a>
</g>
</g>
<!-- Node3&#45;&gt;Node4 -->
<g id="edge3_Node000003_Node000004" class="edge">
<title>Node3&#45;&gt;Node4</title>
<g id="a_edge3_Node000003_Node000004"><a xlink:title=" ">
<path fill="none" stroke="#63b8ff" d="M329.77,-211.58C335.57,-214.08 341.08,-217.18 346,-221 374.57,-243.19 354.23,-270.82 382,-294 383.57,-295.31 385.21,-296.55 386.91,-297.72"/>
<polygon fill="#63b8ff" stroke="#63b8ff" points="385.42,-300.92 395.8,-303.04 389.02,-294.91 385.42,-300.92"/>
</a>
</g>
</g>
<!-- Node6 -->
<g id="Node000006" class="node">
<title>Node6</title>
<g id="a_Node000006"><a xlink:href="classwmtk_1_1_tet_mesh.html#ad4ba72346d616d38086be74705865e55" target="_top" xlink:title=" ">
<polygon fill="white" stroke="#666666" points="552,-285 382,-285 382,-255 552,-255 552,-285"/>
<text text-anchor="start" x="390" y="-273" font-family="Helvetica,sans-Serif" font-size="10.00">wmtk::TetMesh::is_connectivity</text>
<text text-anchor="middle" x="467" y="-262" font-family="Helvetica,sans-Serif" font-size="10.00">_valid</text>
</a>
</g>
</g>
<!-- Node5&#45;&gt;Node6 -->
<g id="edge5_Node000005_Node000006" class="edge">
<title>Node5&#45;&gt;Node6</title>
<g id="a_edge5_Node000005_Node000006"><a xlink:title=" ">
<path fill="none" stroke="#63b8ff" d="M318.07,-174.57C327.63,-177.04 337.23,-180.14 346,-184 382.51,-200.08 418.98,-228.4 441.97,-248.13"/>
<polygon fill="#63b8ff" stroke="#63b8ff" points="439.68,-250.78 449.51,-254.72 444.28,-245.5 439.68,-250.78"/>
</a>
</g>
</g>
<!-- Node18 -->
<g id="Node000018" class="node">
<title>Node18</title>
<g id="a_Node000018"><a xlink:href="classwmtk_1_1_mesh.html#a8cc8686f0688613806f43720b6db49e7" target="_top" xlink:title="check validity of tuple including its hash">
<polygon fill="white" stroke="#666666" points="527,-174.5 407,-174.5 407,-155.5 527,-155.5 527,-174.5"/>
<text text-anchor="middle" x="467" y="-162.5" font-family="Helvetica,sans-Serif" font-size="10.00">wmtk::Mesh::is_valid</text>
</a>
</g>
</g>
<!-- Node5&#45;&gt;Node18 -->
<g id="edge18_Node000005_Node000018" class="edge">
<title>Node5&#45;&gt;Node18</title>
<g id="a_edge18_Node000005_Node000018"><a xlink:title=" ">
<path fill="none" stroke="#63b8ff" d="M322.16,-165C345.93,-165 372.8,-165 396.82,-165"/>
<polygon fill="#63b8ff" stroke="#63b8ff" points="396.93,-168.5 406.93,-165 396.93,-161.5 396.93,-168.5"/>
</a>
</g>
</g>
<!-- Node21 -->
<g id="Node000021" class="node">
<title>Node21</title>
<g id="a_Node000021"><a xlink:href="namespacewmtk_1_1autogen_1_1tet__mesh.html#a217b7c5c5312a716ad27c99abcfc0eb1" target="_top" xlink:title=" ">
<polygon fill="white" stroke="#666666" points="528,-136.5 406,-136.5 406,-95.5 528,-95.5 528,-136.5"/>
<text text-anchor="start" x="414" y="-124.5" font-family="Helvetica,sans-Serif" font-size="10.00">wmtk::autogen::tet</text>
<text text-anchor="start" x="414" y="-113.5" font-family="Helvetica,sans-Serif" font-size="10.00">_mesh::tuple_is_valid</text>
<text text-anchor="middle" x="467" y="-102.5" font-family="Helvetica,sans-Serif" font-size="10.00">_for_ccw</text>
</a>
</g>
</g>
<!-- Node5&#45;&gt;Node21 -->
<g id="edge22_Node000005_Node000021" class="edge">
<title>Node5&#45;&gt;Node21</title>
<g id="a_edge22_Node000005_Node000021"><a xlink:title=" ">
<path fill="none" stroke="#63b8ff" d="M296.74,-155.49C324.84,-148.94 362.93,-140.05 395.85,-132.37"/>
<polygon fill="#63b8ff" stroke="#63b8ff" points="396.95,-135.71 405.89,-130.03 395.36,-128.89 396.95,-135.71"/>
</a>
</g>
</g>
<!-- Node7 -->
<g id="Node000007" class="node">
<title>Node7</title>
<g id="a_Node000007"><a xlink:href="classwmtk_1_1_mesh.html#a3e8ff83c4a5526a40d18bb9883c6c6c9" target="_top" xlink:title="read in the m_capacities return the upper bound for the number of entities of the given dimension">
<polygon fill="white" stroke="#666666" points="902,-450.5 778,-450.5 778,-431.5 902,-431.5 902,-450.5"/>
<text text-anchor="middle" x="840" y="-438.5" font-family="Helvetica,sans-Serif" font-size="10.00">wmtk::Mesh::capacity</text>
</a>
</g>
</g>
<!-- Node6&#45;&gt;Node7 -->
<g id="edge6_Node000006_Node000007" class="edge">
<title>Node6&#45;&gt;Node7</title>
<g id="a_edge6_Node000006_Node000007"><a xlink:title=" ">
<path fill="none" stroke="#63b8ff" d="M541.02,-285.2C545.02,-287.71 548.73,-290.62 552,-294 597.6,-341.07 536.63,-396.3 588,-437 648.97,-485.31 746.94,-468.2 800.68,-453.41"/>
<polygon fill="#63b8ff" stroke="#63b8ff" points="801.84,-456.71 810.49,-450.59 799.92,-449.98 801.84,-456.71"/>
</a>
</g>
</g>
<!-- Node9 -->
<g id="Node000009" class="node">
<title>Node9</title>
<g id="a_Node000009"><a xlink:href="classwmtk_1_1attribute_1_1_caching_accessor.html#a196b6b32e2495b971113d552be7f45d9" target="_top" xlink:title=" ">
<polygon fill="white" stroke="#666666" points="727.5,-427.5 590.5,-427.5 590.5,-386.5 727.5,-386.5 727.5,-427.5"/>
<text text-anchor="start" x="598.5" y="-415.5" font-family="Helvetica,sans-Serif" font-size="10.00">wmtk::attribute::Caching</text>
<text text-anchor="start" x="598.5" y="-404.5" font-family="Helvetica,sans-Serif" font-size="10.00">Accessor::const_scalar</text>
<text text-anchor="middle" x="659" y="-393.5" font-family="Helvetica,sans-Serif" font-size="10.00">_attribute</text>
</a>
</g>
</g>
<!-- Node6&#45;&gt;Node9 -->
<g id="edge8_Node000006_Node000009" class="edge">
<title>Node6&#45;&gt;Node9</title>
<g id="a_edge8_Node000006_Node000009"><a xlink:title=" ">
<path fill="none" stroke="#63b8ff" d="M539.22,-285.15C543.81,-287.67 548.13,-290.59 552,-294 582.48,-320.85 559.11,-349.45 588,-378 588.8,-378.79 589.62,-379.55 590.46,-380.3"/>
<polygon fill="#63b8ff" stroke="#63b8ff" points="588.48,-383.2 598.55,-386.49 592.74,-377.64 588.48,-383.2"/>
</a>
</g>
</g>
<!-- Node10 -->
<g id="Node000010" class="node">
<title>Node10</title>
<g id="a_Node000010"><a xlink:href="classwmtk_1_1attribute_1_1_caching_accessor.html#ab850fe07669c7bc92ca6cf6e86c60ee0" target="_top" xlink:title=" ">
<polygon fill="white" stroke="#666666" points="727.5,-368.5 590.5,-368.5 590.5,-327.5 727.5,-327.5 727.5,-368.5"/>
<text text-anchor="start" x="598.5" y="-356.5" font-family="Helvetica,sans-Serif" font-size="10.00">wmtk::attribute::Caching</text>
<text text-anchor="start" x="598.5" y="-345.5" font-family="Helvetica,sans-Serif" font-size="10.00">Accessor::const_vector</text>
<text text-anchor="middle" x="659" y="-334.5" font-family="Helvetica,sans-Serif" font-size="10.00">_attribute</text>
</a>
</g>
</g>
<!-- Node6&#45;&gt;Node10 -->
<g id="edge9_Node000006_Node000010" class="edge">
<title>Node6&#45;&gt;Node10</title>
<g id="a_edge9_Node000006_Node000010"><a xlink:title=" ">
<path fill="none" stroke="#63b8ff" d="M529.37,-285.13C537.13,-287.73 544.84,-290.69 552,-294 569.45,-302.07 571.09,-308.84 588,-318 591.21,-319.74 594.55,-321.45 597.94,-323.13"/>
<polygon fill="#63b8ff" stroke="#63b8ff" points="596.47,-326.31 607.01,-327.45 599.49,-319.99 596.47,-326.31"/>
</a>
</g>
</g>
<!-- Node11 -->
<g id="Node000011" class="node">
<title>Node11</title>
<g id="a_Node000011"><a xlink:href="classwmtk_1_1_mesh.html#ae0e8f71e9e17a90be9423117efcc4c81" target="_top" xlink:title=" ">
<polygon fill="white" stroke="#666666" points="720,-309 598,-309 598,-279 720,-279 720,-309"/>
<text text-anchor="start" x="606" y="-297" font-family="Helvetica,sans-Serif" font-size="10.00">wmtk::Mesh::get_flag</text>
<text text-anchor="middle" x="659" y="-286" font-family="Helvetica,sans-Serif" font-size="10.00">_accessor</text>
</a>
</g>
</g>
<!-- Node6&#45;&gt;Node11 -->
<g id="edge10_Node000006_Node000011" class="edge">
<title>Node6&#45;&gt;Node11</title>
<g id="a_edge10_Node000006_Node000011"><a xlink:title=" ">
<path fill="none" stroke="#63b8ff" d="M552.17,-280.63C564.07,-282.13 576.2,-283.67 587.79,-285.13"/>
<polygon fill="#63b8ff" stroke="#63b8ff" points="587.47,-288.62 597.83,-286.4 588.35,-281.67 587.47,-288.62"/>
</a>
</g>
</g>
<!-- Node14 -->
<g id="Node000014" class="node">
<title>Node14</title>
<g id="a_Node000014"><a xlink:href="classwmtk_1_1attribute_1_1_accessor.html#a2d587e12c47a6d839ab80e9198cf75b5" target="_top" xlink:title=" ">
<polygon fill="white" stroke="#666666" points="730,-261 588,-261 588,-231 730,-231 730,-261"/>
<text text-anchor="start" x="596" y="-249" font-family="Helvetica,sans-Serif" font-size="10.00">wmtk::attribute::Accessor</text>
<text text-anchor="middle" x="659" y="-238" font-family="Helvetica,sans-Serif" font-size="10.00">::index_access</text>
</a>
</g>
</g>
<!-- Node6&#45;&gt;Node14 -->
<g id="edge14_Node000006_Node000014" class="edge">
<title>Node6&#45;&gt;Node14</title>
<g id="a_edge14_Node000006_Node000014"><a xlink:title=" ">
<path fill="none" stroke="#63b8ff" d="M552.17,-259.37C560.63,-258.3 569.22,-257.21 577.65,-256.15"/>
<polygon fill="#63b8ff" stroke="#63b8ff" points="578.35,-259.59 587.83,-254.86 577.47,-252.64 578.35,-259.59"/>
</a>
</g>
</g>
<!-- Node16 -->
<g id="Node000016" class="node">
<title>Node16</title>
<g id="a_Node000016"><a xlink:href="namespacewmtk.html#a6a35f11c12436093d26fdd8be6fecc06" target="_top" xlink:title="Retrieves the current logger.">
<polygon fill="white" stroke="#666666" points="699.5,-212.5 618.5,-212.5 618.5,-193.5 699.5,-193.5 699.5,-212.5"/>
<text text-anchor="middle" x="659" y="-200.5" font-family="Helvetica,sans-Serif" font-size="10.00">wmtk::logger</text>
</a>
</g>
</g>
<!-- Node6&#45;&gt;Node16 -->
<g id="edge16_Node000006_Node000016" class="edge">
<title>Node6&#45;&gt;Node16</title>
<g id="a_edge16_Node000006_Node000016"><a xlink:title=" ">
<path fill="none" stroke="#63b8ff" d="M502.52,-254.96C526.29,-244.91 558.74,-231.79 588,-222 594.98,-219.67 602.42,-217.41 609.75,-215.31"/>
<polygon fill="#63b8ff" stroke="#63b8ff" points="610.92,-218.62 619.61,-212.56 609.04,-211.87 610.92,-218.62"/>
</a>
</g>
</g>
<!-- Node8 -->
<g id="Node000008" class="node">
<title>Node8</title>
<g id="a_Node000008"><a xlink:href="namespacewmtk.html#a5cf45c152e856196bb734c6f48919a24" target="_top" xlink:title="Get a unique integer id corresponding to each primitive type.">
<polygon fill="white" stroke="#666666" points="1066,-442 950,-442 950,-412 1066,-412 1066,-442"/>
<text text-anchor="start" x="958" y="-430" font-family="Helvetica,sans-Serif" font-size="10.00">wmtk::get_primitive</text>
<text text-anchor="middle" x="1008" y="-419" font-family="Helvetica,sans-Serif" font-size="10.00">_type_id</text>
</a>
</g>
</g>
<!-- Node7&#45;&gt;Node8 -->
<g id="edge7_Node000007_Node000008" class="edge">
<title>Node7&#45;&gt;Node8</title>
<g id="a_edge7_Node000007_Node000008"><a xlink:title=" ">
<path fill="none" stroke="#63b8ff" d="M902.34,-435.83C914.46,-434.8 927.25,-433.73 939.56,-432.69"/>
<polygon fill="#63b8ff" stroke="#63b8ff" points="940.09,-436.16 949.76,-431.83 939.5,-429.18 940.09,-436.16"/>
</a>
</g>
</g>
<!-- Node12 -->
<g id="Node000012" class="node">
<title>Node12</title>
<g id="a_Node000012"><a xlink:href="classwmtk_1_1_mesh.html#a6dbab927a2ee85f77a87f075fd5c1d94" target="_top" xlink:title=" ">
<polygon fill="white" stroke="#666666" points="905,-366 775,-366 775,-336 905,-336 905,-366"/>
<text text-anchor="start" x="783" y="-354" font-family="Helvetica,sans-Serif" font-size="10.00">wmtk::Mesh::get_const</text>
<text text-anchor="middle" x="840" y="-343" font-family="Helvetica,sans-Serif" font-size="10.00">_flag_accessor</text>
</a>
</g>
</g>
<!-- Node11&#45;&gt;Node12 -->
<g id="edge11_Node000011_Node000012" class="edge">
<title>Node11&#45;&gt;Node12</title>
<g id="a_edge11_Node000011_Node000012"><a xlink:title=" ">
<path fill="none" stroke="#63b8ff" d="M707.5,-309.13C730.35,-316.4 757.92,-325.18 781.9,-332.82"/>
<polygon fill="#63b8ff" stroke="#63b8ff" points="781,-336.2 791.59,-335.9 783.12,-329.53 781,-336.2"/>
</a>
</g>
</g>
<!-- Node12&#45;&gt;Node8 -->
<g id="edge13_Node000012_Node000008" class="edge">
<title>Node12&#45;&gt;Node8</title>
<g id="a_edge13_Node000012_Node000008"><a xlink:title=" ">
<path fill="none" stroke="#63b8ff" d="M873.8,-366.02C899.86,-377.95 936.5,-394.72 964.75,-407.66"/>
<polygon fill="#63b8ff" stroke="#63b8ff" points="963.44,-410.91 973.99,-411.89 966.35,-404.54 963.44,-410.91"/>
</a>
</g>
</g>
<!-- Node13 -->
<g id="Node000013" class="node">
<title>Node13</title>
<g id="a_Node000013"><a xlink:href="classwmtk_1_1_mesh.html#a357182137d99f1e4a7ff536eadfc0e56" target="_top" xlink:title=" ">
<polygon fill="white" stroke="#666666" points="1064.5,-366 951.5,-366 951.5,-336 1064.5,-336 1064.5,-366"/>
<text text-anchor="start" x="959.5" y="-354" font-family="Helvetica,sans-Serif" font-size="10.00">wmtk::Mesh::create</text>
<text text-anchor="middle" x="1008" y="-343" font-family="Helvetica,sans-Serif" font-size="10.00">_const_accessor</text>
</a>
</g>
</g>
<!-- Node12&#45;&gt;Node13 -->
<g id="edge12_Node000012_Node000013" class="edge">
<title>Node12&#45;&gt;Node13</title>
<g id="a_edge12_Node000012_Node000013"><a xlink:title=" ">
<path fill="none" stroke="#63b8ff" d="M905.18,-351C916.96,-351 929.28,-351 941.12,-351"/>
<polygon fill="#63b8ff" stroke="#63b8ff" points="941.36,-354.5 951.36,-351 941.36,-347.5 941.36,-354.5"/>
</a>
</g>
</g>
<!-- Node15 -->
<g id="Node000015" class="node">
<title>Node15</title>
<g id="a_Node000015"><a xlink:href="classwmtk_1_1attribute_1_1_accessor.html#afd97a48ec5d1db975a030428df81f617" target="_top" xlink:title=" ">
<polygon fill="white" stroke="#666666" points="911,-261 769,-261 769,-231 911,-231 911,-261"/>
<text text-anchor="start" x="777" y="-249" font-family="Helvetica,sans-Serif" font-size="10.00">wmtk::attribute::Accessor</text>
<text text-anchor="middle" x="840" y="-238" font-family="Helvetica,sans-Serif" font-size="10.00">::caching_base_type</text>
</a>
</g>
</g>
<!-- Node14&#45;&gt;Node15 -->
<g id="edge15_Node000014_Node000015" class="edge">
<title>Node14&#45;&gt;Node15</title>
<g id="a_edge15_Node000014_Node000015"><a xlink:title=" ">
<path fill="none" stroke="#63b8ff" d="M730.23,-246C739.58,-246 749.23,-246 758.73,-246"/>
<polygon fill="#63b8ff" stroke="#63b8ff" points="758.97,-249.5 768.97,-246 758.97,-242.5 758.97,-249.5"/>
</a>
</g>
</g>
<!-- Node17 -->
<g id="Node000017" class="node">
<title>Node17</title>
<g id="a_Node000017"><a xlink:href="namespacewmtk.html#a3daa7951a5f8b78cf4600dc047fcc180" target="_top" xlink:title="Setup a logger object to be used by WildmeshToolkit.">
<polygon fill="white" stroke="#666666" points="890.5,-212.5 789.5,-212.5 789.5,-193.5 890.5,-193.5 890.5,-212.5"/>
<text text-anchor="middle" x="840" y="-200.5" font-family="Helvetica,sans-Serif" font-size="10.00">wmtk::set_logger</text>
</a>
</g>
</g>
<!-- Node16&#45;&gt;Node17 -->
<g id="edge17_Node000016_Node000017" class="edge">
<title>Node16&#45;&gt;Node17</title>
<g id="a_edge17_Node000016_Node000017"><a xlink:title=" ">
<path fill="none" stroke="#63b8ff" d="M699.73,-203C723.09,-203 753.1,-203 779.27,-203"/>
<polygon fill="#63b8ff" stroke="#63b8ff" points="779.47,-206.5 789.47,-203 779.47,-199.5 779.47,-206.5"/>
</a>
</g>
</g>
<!-- Node19 -->
<g id="Node000019" class="node">
<title>Node19</title>
<g id="a_Node000019"><a xlink:href="classwmtk_1_1_tuple.html#a0023f575be92cd5ceeeaaaa3762ea06d" target="_top" xlink:title="Checks if a tuple is &quot;null&quot;. This merely implies the global index is &#45;1.">
<polygon fill="white" stroke="#666666" points="715.5,-175.5 602.5,-175.5 602.5,-156.5 715.5,-156.5 715.5,-175.5"/>
<text text-anchor="middle" x="659" y="-163.5" font-family="Helvetica,sans-Serif" font-size="10.00">wmtk::Tuple::is_null</text>
</a>
</g>
</g>
<!-- Node18&#45;&gt;Node19 -->
<g id="edge19_Node000018_Node000019" class="edge">
<title>Node18&#45;&gt;Node19</title>
<g id="a_edge19_Node000018_Node000019"><a xlink:title=" ">
<path fill="none" stroke="#63b8ff" d="M527.08,-165.31C547.67,-165.42 570.91,-165.54 592.03,-165.65"/>
<polygon fill="#63b8ff" stroke="#63b8ff" points="592.19,-169.15 602.21,-165.71 592.22,-162.15 592.19,-169.15"/>
</a>
</g>
</g>
<!-- Node20 -->
<g id="Node000020" class="node">
<title>Node20</title>
<g id="a_Node000020"><a xlink:href="classwmtk_1_1_mesh.html#ade176d345902d97af8c5da04aa3a095b" target="_top" xlink:title=" ">
<polygon fill="white" stroke="#666666" points="729,-120.5 589,-120.5 589,-101.5 729,-101.5 729,-120.5"/>
<text text-anchor="middle" x="659" y="-108.5" font-family="Helvetica,sans-Serif" font-size="10.00">wmtk::Mesh::is_removed</text>
</a>
</g>
</g>
<!-- Node18&#45;&gt;Node20 -->
<g id="edge20_Node000018_Node000020" class="edge">
<title>Node18&#45;&gt;Node20</title>
<g id="a_edge20_Node000018_Node000020"><a xlink:title=" ">
<path fill="none" stroke="#63b8ff" d="M513.98,-155.44C526.38,-152.63 539.75,-149.4 552,-146 575.43,-139.5 601.36,-130.96 621.7,-123.95"/>
<polygon fill="#63b8ff" stroke="#63b8ff" points="622.91,-127.23 631.21,-120.64 620.61,-120.62 622.91,-127.23"/>
</a>
</g>
</g>
<!-- Node20&#45;&gt;Node20 -->
<g id="edge21_Node000020_Node000020" class="edge">
<title>Node20&#45;&gt;Node20</title>
<g id="a_edge21_Node000020_Node000020"><a xlink:title=" ">
<path fill="none" stroke="#63b8ff" d="M631.26,-120.58C617.76,-129.23 627.01,-138.5 659,-138.5 680.49,-138.5 691.72,-134.32 692.68,-128.95"/>
<polygon fill="#63b8ff" stroke="#63b8ff" points="695.39,-126.71 686.74,-120.58 689.68,-130.76 695.39,-126.71"/>
</a>
</g>
</g>
<!-- Node22 -->
<g id="Node000022" class="node">
<title>Node22</title>
<g id="a_Node000022"><a xlink:href="namespacewmtk_1_1autogen_1_1tet__mesh.html#ace6b80b1be9aec0d6a5ac5d144b40965" target="_top" xlink:title=" ">
<polygon fill="white" stroke="#666666" points="720,-83.5 598,-83.5 598,-42.5 720,-42.5 720,-83.5"/>
<text text-anchor="start" x="606" y="-71.5" font-family="Helvetica,sans-Serif" font-size="10.00">wmtk::autogen::tet</text>
<text text-anchor="start" x="606" y="-60.5" font-family="Helvetica,sans-Serif" font-size="10.00">_mesh::local_id_table</text>
<text text-anchor="middle" x="659" y="-49.5" font-family="Helvetica,sans-Serif" font-size="10.00">_offset</text>
</a>
</g>
</g>
<!-- Node21&#45;&gt;Node22 -->
<g id="edge23_Node000021_Node000022" class="edge">
<title>Node21&#45;&gt;Node22</title>
<g id="a_edge23_Node000021_Node000022"><a xlink:title=" ">
<path fill="none" stroke="#63b8ff" d="M528.12,-99.23C547.18,-93.91 568.43,-87.99 588.12,-82.49"/>
<polygon fill="#63b8ff" stroke="#63b8ff" points="589.26,-85.81 597.95,-79.75 587.38,-79.07 589.26,-85.81"/>
</a>
</g>
</g>
<!-- Node23 -->
<g id="Node000023" class="node">
<title>Node23</title>
<g id="a_Node000023"><a xlink:href="classwmtk_1_1utils_1_1_tuple_inspector.html#a3a04acf16e0eff80ade8e0fb8753ac1b" target="_top" xlink:title=" ">
<polygon fill="white" stroke="#666666" points="914,-126 766,-126 766,-96 914,-96 914,-126"/>
<text text-anchor="start" x="774" y="-114" font-family="Helvetica,sans-Serif" font-size="10.00">wmtk::utils::TupleInspector</text>
<text text-anchor="middle" x="840" y="-103" font-family="Helvetica,sans-Serif" font-size="10.00">::local_eid</text>
</a>
</g>
</g>
<!-- Node22&#45;&gt;Node23 -->
<g id="edge24_Node000022_Node000023" class="edge">
<title>Node22&#45;&gt;Node23</title>
<g id="a_edge24_Node000022_Node000023"><a xlink:title=" ">
<path fill="none" stroke="#63b8ff" d="M720.1,-79.12C737.08,-83.67 755.65,-88.65 772.96,-93.29"/>
<polygon fill="#63b8ff" stroke="#63b8ff" points="772.42,-96.77 782.98,-95.98 774.23,-90.01 772.42,-96.77"/>
</a>
</g>
</g>
<!-- Node24 -->
<g id="Node000024" class="node">
<title>Node24</title>
<g id="a_Node000024"><a xlink:href="classwmtk_1_1utils_1_1_tuple_inspector.html#ae4f5c770f4a2f9440eef24448929432d" target="_top" xlink:title=" ">
<polygon fill="white" stroke="#666666" points="914,-78 766,-78 766,-48 914,-48 914,-78"/>
<text text-anchor="start" x="774" y="-66" font-family="Helvetica,sans-Serif" font-size="10.00">wmtk::utils::TupleInspector</text>
<text text-anchor="middle" x="840" y="-55" font-family="Helvetica,sans-Serif" font-size="10.00">::local_fid</text>
</a>
</g>
</g>
<!-- Node22&#45;&gt;Node24 -->
<g id="edge25_Node000022_Node000024" class="edge">
<title>Node22&#45;&gt;Node24</title>
<g id="a_edge25_Node000022_Node000024"><a xlink:title=" ">
<path fill="none" stroke="#63b8ff" d="M720.1,-63C731.53,-63 743.67,-63 755.67,-63"/>
<polygon fill="#63b8ff" stroke="#63b8ff" points="755.69,-66.5 765.69,-63 755.69,-59.5 755.69,-66.5"/>
</a>
</g>
</g>
<!-- Node25 -->
<g id="Node000025" class="node">
<title>Node25</title>
<g id="a_Node000025"><a xlink:href="classwmtk_1_1utils_1_1_tuple_inspector.html#a92f5faa08a7f78424f5cd1ec79dcedbb" target="_top" xlink:title=" ">
<polygon fill="white" stroke="#666666" points="914,-30 766,-30 766,0 914,0 914,-30"/>
<text text-anchor="start" x="774" y="-18" font-family="Helvetica,sans-Serif" font-size="10.00">wmtk::utils::TupleInspector</text>
<text text-anchor="middle" x="840" y="-7" font-family="Helvetica,sans-Serif" font-size="10.00">::local_vid</text>
</a>
</g>
</g>
<!-- Node22&#45;&gt;Node25 -->
<g id="edge26_Node000022_Node000025" class="edge">
<title>Node22&#45;&gt;Node25</title>
<g id="a_edge26_Node000022_Node000025"><a xlink:title=" ">
<path fill="none" stroke="#63b8ff" d="M720.1,-46.88C737.08,-42.33 755.65,-37.35 772.96,-32.71"/>
<polygon fill="#63b8ff" stroke="#63b8ff" points="774.23,-35.99 782.98,-30.02 772.42,-29.23 774.23,-35.99"/>
</a>
</g>
</g>
<!-- Node26&#45;&gt;Node22 -->
<g id="edge28_Node000026_Node000022" class="edge">
<title>Node26&#45;&gt;Node22</title>
<g id="a_edge28_Node000026_Node000022"><a xlink:title=" ">
<path fill="none" stroke="#63b8ff" d="M327.87,-89.28C401.42,-83.42 514.98,-74.38 587.89,-68.58"/>
<polygon fill="#63b8ff" stroke="#63b8ff" points="588.2,-72.07 597.89,-67.78 587.65,-65.09 588.2,-72.07"/>
</a>
</g>
</g>
</g>
</svg>

<g id="navigator" transform="translate(0 0)" fill="#404254">
  <rect fill="#f2f5e9" fill-opacity="0.5" stroke="#606060" stroke-width=".5" x="0" y="0" width="60" height="60"/>
  <use id="zoomplus" xlink:href="#zoomPlus" x="17" y="9" onmousedown="handleZoom(evt,'in')"/>
  <use id="zoomminus" xlink:href="#zoomMin" x="42" y="9" onmousedown="handleZoom(evt,'out')"/>
  <use id="reset" xlink:href="#resetDef" x="30" y="36" onmousedown="handleReset()"/>
   <use id="arrowup" xlink:href="#arrowUp" x="0" y="0" onmousedown="handlePan(0,-1)"/>
  <use id="arrowright" xlink:href="#arrowRight" x="0" y="0" onmousedown="handlePan(1,0)"/>
  <use id="arrowdown" xlink:href="#arrowDown" x="0" y="0" onmousedown="handlePan(0,1)"/>
  <use id="arrowleft" xlink:href="#arrowLeft" x="0" y="0" onmousedown="handlePan(-1,0)"/>
</g>
<svg viewBox="0 0 15 15" width="100%" height="30px" preserveAspectRatio="xMaxYMin meet">
 <g id="arrow_out" transform="scale(0.3 0.3)">
  <a xlink:href="classwmtk_1_1_tet_mesh_a53d9ec91a1c80da4ae10dea485564f27_cgraph_org.svg" target="_base">
   <rect id="button" ry="5" rx="5" y="6" x="6" height="38" width="38"
        fill="#f2f5e9" fill-opacity="0.5" stroke="#606060" stroke-width="1.0"/>
   <path id="arrow"
     d="M 11.500037,31.436501 C 11.940474,20.09759 22.043105,11.32322 32.158766,21.979434 L 37.068811,17.246167 C 37.068811,17.246167 37.088388,32 37.088388,32 L 22.160133,31.978069 C 22.160133,31.978069 26.997745,27.140456 26.997745,27.140456 C 18.528582,18.264221 13.291696,25.230495 11.500037,31.436501 z"
     style="fill:#404040;"/>
  </a>
 </g>
</svg>

<style type='text/css'>
<![CDATA[
[data-mouse-over-selected='false'] { opacity: 0.7; }
[data-mouse-over-selected='true']  { opacity: 1.0; }
]]>
</style>
<script type="application/ecmascript"><![CDATA[
document.addEventListener('DOMContentLoaded', (event) => {
  highlightEdges();
  highlightAdjacentNodes();
});
]]></script>
</svg>
