<?xml version="1.0" encoding="UTF-8" standalone="no"?>
<!DOCTYPE svg PUBLIC "-//W3C//DTD SVG 1.1//EN"
 "http://www.w3.org/Graphics/SVG/1.1/DTD/svg11.dtd">
<!-- Generated by graphviz version 2.43.0 (0)
 -->
<!-- Title: wmtk::operations::EdgeSplit::set_new_attribute_strategy Pages: 1 -->
<svg width="675pt" height="185pt"
 viewBox="0.00 0.00 675.00 184.50" xmlns="http://www.w3.org/2000/svg" xmlns:xlink="http://www.w3.org/1999/xlink">
<g id="graph0" class="graph" transform="scale(1 1) rotate(0) translate(4 180.5)">
<title>wmtk::operations::EdgeSplit::set_new_attribute_strategy</title>
<!-- Node1 -->
<g id="Node000001" class="node">
<title>Node1</title>
<g id="a_Node000001"><a xlink:title=" ">
<polygon fill="#999999" stroke="#666666" points="667,-104.5 511,-104.5 511,-74.5 667,-74.5 667,-104.5"/>
<text text-anchor="start" x="519" y="-92.5" font-family="Helvetica,sans-Serif" font-size="10.00">wmtk::operations::EdgeSplit</text>
<text text-anchor="middle" x="589" y="-81.5" font-family="Helvetica,sans-Serif" font-size="10.00">::set_new_attribute_strategy</text>
</a>
</g>
</g>
<!-- Node2 -->
<g id="Node000002" class="node">
<title>Node2</title>
<g id="a_Node000002"><a xlink:href="classwmtk_1_1operations_1_1_attribute_transfer_configuration.html#a925a620c457fe7b87785c2dbd0412658" target="_top" xlink:title=" ">
<polygon fill="white" stroke="#666666" points="467,-176.5 313,-176.5 313,-146.5 467,-146.5 467,-176.5"/>
<text text-anchor="start" x="321" y="-164.5" font-family="Helvetica,sans-Serif" font-size="10.00">wmtk::operations::Attribute</text>
<text text-anchor="middle" x="390" y="-153.5" font-family="Helvetica,sans-Serif" font-size="10.00">TransferConfiguration::apply</text>
</a>
</g>
</g>
<!-- Node1&#45;&gt;Node2 -->
<g id="edge1_Node000001_Node000002" class="edge">
<title>Node1&#45;&gt;Node2</title>
<g id="a_edge1_Node000001_Node000002"><a xlink:title=" ">
<path fill="none" stroke="#63b8ff" d="M545.99,-108.81C524.93,-118.11 498.87,-129.06 475,-137.5 466.13,-140.64 456.64,-143.66 447.33,-146.44"/>
<polygon fill="#63b8ff" stroke="#63b8ff" points="547.59,-111.93 555.29,-104.66 544.74,-105.53 547.59,-111.93"/>
</a>
</g>
</g>
<!-- Node3 -->
<g id="Node000003" class="node">
<title>Node3</title>
<g id="a_Node000003"><a xlink:href="classwmtk_1_1components_1_1_marching.html#a93c8d735afd009d73bfc4700b4f8e3f6" target="_top" xlink:title="Perform the actual marching.">
<polygon fill="white" stroke="#666666" points="470.5,-128.5 309.5,-128.5 309.5,-98.5 470.5,-98.5 470.5,-128.5"/>
<text text-anchor="start" x="317.5" y="-116.5" font-family="Helvetica,sans-Serif" font-size="10.00">wmtk::components::Marching</text>
<text text-anchor="middle" x="390" y="-105.5" font-family="Helvetica,sans-Serif" font-size="10.00">::process</text>
</a>
</g>
</g>
<!-- Node1&#45;&gt;Node3 -->
<g id="edge2_Node000001_Node000003" class="edge">
<title>Node1&#45;&gt;Node3</title>
<g id="a_edge2_Node000001_Node000003"><a xlink:title=" ">
<path fill="none" stroke="#63b8ff" d="M500.95,-100.11C490.83,-101.34 480.56,-102.59 470.55,-103.81"/>
<polygon fill="#63b8ff" stroke="#63b8ff" points="501.48,-103.57 510.99,-98.88 500.64,-96.62 501.48,-103.57"/>
</a>
</g>
</g>
<!-- Node7 -->
<g id="Node000007" class="node">
<title>Node7</title>
<g id="a_Node000007"><a xlink:href="classwmtk_1_1components_1_1internal_1_1_regular_space.html#af9adef544fff10ba9257d128fd13393c" target="_top" xlink:title=" ">
<polygon fill="white" stroke="#666666" points="475,-80.5 305,-80.5 305,-50.5 475,-50.5 475,-80.5"/>
<text text-anchor="start" x="313" y="-68.5" font-family="Helvetica,sans-Serif" font-size="10.00">wmtk::components::internal</text>
<text text-anchor="middle" x="390" y="-57.5" font-family="Helvetica,sans-Serif" font-size="10.00">::RegularSpace::regularize_tags</text>
</a>
</g>
</g>
<!-- Node1&#45;&gt;Node7 -->
<g id="edge6_Node000001_Node000007" class="edge">
<title>Node1&#45;&gt;Node7</title>
<g id="a_edge6_Node000001_Node000007"><a xlink:title=" ">
<path fill="none" stroke="#63b8ff" d="M500.98,-78.9C492.39,-77.85 483.68,-76.79 475.13,-75.75"/>
<polygon fill="#63b8ff" stroke="#63b8ff" points="500.64,-82.38 510.99,-80.12 501.48,-75.43 500.64,-82.38"/>
</a>
</g>
</g>
<!-- Node11 -->
<g id="Node000011" class="node">
<title>Node11</title>
<g id="a_Node000011"><a xlink:href="classwmtk_1_1operations_1_1_edge_split.html#a9ad8025fa6682135fc5bbbb5fc6cefcf" target="_top" xlink:title=" ">
<polygon fill="white" stroke="#666666" points="468,-32.5 312,-32.5 312,-2.5 468,-2.5 468,-32.5"/>
<text text-anchor="start" x="320" y="-20.5" font-family="Helvetica,sans-Serif" font-size="10.00">wmtk::operations::EdgeSplit</text>
<text text-anchor="middle" x="390" y="-9.5" font-family="Helvetica,sans-Serif" font-size="10.00">::set_new_attribute_strategy</text>
</a>
</g>
</g>
<!-- Node1&#45;&gt;Node11 -->
<g id="edge10_Node000001_Node000011" class="edge">
<title>Node1&#45;&gt;Node11</title>
<g id="a_edge10_Node000001_Node000011"><a xlink:title=" ">
<path fill="none" stroke="#63b8ff" d="M545.99,-70.19C524.93,-60.89 498.87,-49.94 475,-41.5 466.13,-38.36 456.64,-35.34 447.33,-32.56"/>
<polygon fill="#63b8ff" stroke="#63b8ff" points="544.74,-73.47 555.29,-74.34 547.59,-67.07 544.74,-73.47"/>
</a>
</g>
</g>
<!-- Node4 -->
<g id="Node000004" class="node">
<title>Node4</title>
<g id="a_Node000004"><a xlink:href="namespacewmtk_1_1components.html#a6f27411696c9ba6e294768451f31351f" target="_top" xlink:title="Perform maching tetrahedra/triangles.">
<polygon fill="white" stroke="#666666" points="269,-142 107,-142 107,-123 269,-123 269,-142"/>
<text text-anchor="middle" x="188" y="-130" font-family="Helvetica,sans-Serif" font-size="10.00">wmtk::components::marching</text>
</a>
</g>
</g>
<!-- Node3&#45;&gt;Node4 -->
<g id="edge3_Node000003_Node000004" class="edge">
<title>Node3&#45;&gt;Node4</title>
<g id="a_edge3_Node000003_Node000004"><a xlink:title=" ">
<path fill="none" stroke="#63b8ff" d="M299.42,-122.01C289.39,-122.96 279.23,-123.93 269.33,-124.87"/>
<polygon fill="#63b8ff" stroke="#63b8ff" points="299.76,-125.49 309.38,-121.06 299.09,-118.53 299.76,-125.49"/>
</a>
</g>
</g>
<!-- Node5 -->
<g id="Node000005" class="node">
<title>Node5</title>
<g id="a_Node000005"><a xlink:href="tests_2marching_8cpp.html#a74e4ea64dd134ace15ef3292b4eb9753" target="_top" xlink:title=" ">
<polygon fill="white" stroke="#666666" points="71,-160 0,-160 0,-141 71,-141 71,-160"/>
<text text-anchor="middle" x="35.5" y="-148" font-family="Helvetica,sans-Serif" font-size="10.00">TEST_CASE</text>
</a>
</g>
</g>
<!-- Node4&#45;&gt;Node5 -->
<g id="edge4_Node000004_Node000005" class="edge">
<title>Node4&#45;&gt;Node5</title>
<g id="a_edge4_Node000004_Node000005"><a xlink:title=" ">
<path fill="none" stroke="#63b8ff" d="M97.29,-143.23C88.11,-144.33 79.23,-145.39 71.22,-146.35"/>
<polygon fill="#63b8ff" stroke="#63b8ff" points="97.83,-146.69 107.34,-142.03 97,-139.74 97.83,-146.69"/>
</a>
</g>
</g>
<!-- Node6 -->
<g id="Node000006" class="node">
<title>Node6</title>
<g id="a_Node000006"><a xlink:href="tests_2marching_8cpp.html#af20fbc246d1ad31be8d9ec0011ac52d6" target="_top" xlink:title=" ">
<polygon fill="white" stroke="#666666" points="71,-123 0,-123 0,-104 71,-104 71,-123"/>
<text text-anchor="middle" x="35.5" y="-111" font-family="Helvetica,sans-Serif" font-size="10.00">TEST_CASE</text>
</a>
</g>
</g>
<!-- Node4&#45;&gt;Node6 -->
<g id="edge5_Node000004_Node000006" class="edge">
<title>Node4&#45;&gt;Node6</title>
<g id="a_edge5_Node000004_Node000006"><a xlink:title=" ">
<path fill="none" stroke="#63b8ff" d="M101.13,-121.66C90.57,-120.33 80.3,-119.03 71.17,-117.88"/>
<polygon fill="#63b8ff" stroke="#63b8ff" points="100.95,-125.16 111.31,-122.94 101.83,-118.22 100.95,-125.16"/>
</a>
</g>
</g>
<!-- Node8 -->
<g id="Node000008" class="node">
<title>Node8</title>
<g id="a_Node000008"><a xlink:href="namespacewmtk_1_1components.html#a7cec0c38121ddd036af26c760311d0e8" target="_top" xlink:title=" ">
<polygon fill="white" stroke="#666666" points="263.5,-104.5 112.5,-104.5 112.5,-74.5 263.5,-74.5 263.5,-104.5"/>
<text text-anchor="start" x="120.5" y="-92.5" font-family="Helvetica,sans-Serif" font-size="10.00">wmtk::components::regular</text>
<text text-anchor="middle" x="188" y="-81.5" font-family="Helvetica,sans-Serif" font-size="10.00">_space</text>
</a>
</g>
</g>
<!-- Node7&#45;&gt;Node8 -->
<g id="edge7_Node000007_Node000008" class="edge">
<title>Node7&#45;&gt;Node8</title>
<g id="a_edge7_Node000007_Node000008"><a xlink:title=" ">
<path fill="none" stroke="#63b8ff" d="M294.78,-76.81C284.32,-78.06 273.78,-79.33 263.61,-80.55"/>
<polygon fill="#63b8ff" stroke="#63b8ff" points="295.25,-80.28 304.76,-75.61 294.42,-73.33 295.25,-80.28"/>
</a>
</g>
</g>
<!-- Node9 -->
<g id="Node000009" class="node">
<title>Node9</title>
<g id="a_Node000009"><a xlink:href="test__component__regular__space_8cpp.html#a728024a1ea7ac078fd93d4035f705520" target="_top" xlink:title=" ">
<polygon fill="white" stroke="#666666" points="223.5,-56 152.5,-56 152.5,-37 223.5,-37 223.5,-56"/>
<text text-anchor="middle" x="188" y="-44" font-family="Helvetica,sans-Serif" font-size="10.00">TEST_CASE</text>
</a>
</g>
</g>
<!-- Node7&#45;&gt;Node9 -->
<g id="edge8_Node000007_Node000009" class="edge">
<title>Node7&#45;&gt;Node9</title>
<g id="a_edge8_Node000007_Node000009"><a xlink:title=" ">
<path fill="none" stroke="#63b8ff" d="M294.68,-56.54C269.27,-54.13 243.37,-51.67 223.57,-49.78"/>
<polygon fill="#63b8ff" stroke="#63b8ff" points="294.48,-60.04 304.76,-57.5 295.14,-53.07 294.48,-60.04"/>
</a>
</g>
</g>
<!-- Node10 -->
<g id="Node000010" class="node">
<title>Node10</title>
<g id="a_Node000010"><a xlink:href="test__component__regular__space_8cpp.html#a5e69783b3ce0c074477e3081ab8cf658" target="_top" xlink:title=" ">
<polygon fill="white" stroke="#666666" points="223.5,-19 152.5,-19 152.5,0 223.5,0 223.5,-19"/>
<text text-anchor="middle" x="188" y="-7" font-family="Helvetica,sans-Serif" font-size="10.00">TEST_CASE</text>
</a>
</g>
</g>
<!-- Node7&#45;&gt;Node10 -->
<g id="edge9_Node000007_Node000010" class="edge">
<title>Node7&#45;&gt;Node10</title>
<g id="a_edge9_Node000007_Node000010"><a xlink:title=" ">
<path fill="none" stroke="#63b8ff" d="M323.7,-47.48C317.35,-45.54 311.04,-43.53 305,-41.5 288.73,-36.02 285.42,-32.51 269,-27.5 254.29,-23.01 237.76,-19.11 223.55,-16.09"/>
<polygon fill="#63b8ff" stroke="#63b8ff" points="323.07,-50.95 333.65,-50.47 325.08,-44.25 323.07,-50.95"/>
</a>
</g>
</g>
</g>
</svg>
