<?xml version="1.0" encoding="UTF-8" standalone="no"?>
<!DOCTYPE svg PUBLIC "-//W3C//DTD SVG 1.1//EN"
 "http://www.w3.org/Graphics/SVG/1.1/DTD/svg11.dtd">
<!-- Generated by graphviz version 2.43.0 (0)
 -->
<!-- Title: wmtk::operations::tet_mesh::CollapseNewAttributeTopoInfo::merged_simplices Pages: 1 -->
<!--zoomable 680 -->

<svg id="main" version="1.1" xmlns="http://www.w3.org/2000/svg" xmlns:xlink="http://www.w3.org/1999/xlink" xml:space="preserve" onload="init(evt)">
<style type="text/css"><![CDATA[
.node, .edge {opacity: 0.7;}
.node.selected, .edge.selected {opacity: 1;}
.edge:hover path { stroke: red; }
.edge:hover polygon { stroke: red; fill: red; }
]]></style>

<defs>
  <circle id="rim" cx="0" cy="0" r="7"/>
  <circle id="rim2" cx="0" cy="0" r="3.5"/>
  <g id="zoomPlus">
    <use xlink:href="#rim" fill="#404040"><set attributeName="fill" to="#808080" begin="zoomplus.mouseover" end="zoomplus.mouseout"/></use>
    <path d="M-4,0h8M0,-4v8" fill="none" stroke="white" stroke-width="1.5" pointer-events="none"/>
  </g>
  <g id="zoomMin">
    <use xlink:href="#rim" fill="#404040"><set attributeName="fill" to="#808080" begin="zoomminus.mouseover" end="zoomminus.mouseout"/></use>
    <path d="M-4,0h8" fill="none" stroke="white" stroke-width="1.5" pointer-events="none"/>
  </g>
  <g id="arrowUp" transform="translate(30 24)">
    <use xlink:href="#rim"/>
    <path pointer-events="none" fill="none" stroke="white" stroke-width="1.5" d="M0,-3.0v7 M-2.5,-0.5L0,-3.0L2.5,-0.5"/>
  </g>
  <g id="arrowRight" transform="rotate(90) translate(36 -43)">
    <use xlink:href="#rim"/>
    <path pointer-events="none" fill="none" stroke="white" stroke-width="1.5" d="M0,-3.0v7 M-2.5,-0.5L0,-3.0L2.5,-0.5"/>
  </g>
  <g id="arrowDown" transform="rotate(180) translate(-30 -48)">
    <use xlink:href="#rim"/>
    <path pointer-events="none" fill="none" stroke="white" stroke-width="1.5" d="M0,-3.0v7 M-2.5,-0.5L0,-3.0L2.5,-0.5"/>
  </g>
  <g id="arrowLeft" transform="rotate(270) translate(-36 17)">
    <use xlink:href="#rim"/>
    <path pointer-events="none" fill="none" stroke="white" stroke-width="1.5" d="M0,-3.0v7 M-2.5,-0.5L0,-3.0L2.5,-0.5"/>
  </g>
  <g id="resetDef">
    <use xlink:href="#rim2" fill="#404040"><set attributeName="fill" to="#808080" begin="reset.mouseover" end="reset.mouseout"/></use>
  </g>
</defs>
<script type="application/ecmascript">
var viewWidth = 1509;
var viewHeight = 680;
var sectionId = 'dynsection-2';
</script>
<script type="application/ecmascript" xlink:href="svg.min.js"/>
<svg id="graph" class="graph">
<g id="viewport">
<title>wmtk::operations::tet_mesh::CollapseNewAttributeTopoInfo::merged_simplices</title>
<!-- Node1 -->
<g id="Node000001" class="node">
<title>Node1</title>
<g id="a_Node000001"><a xlink:title=" ">
<polygon fill="#999999" stroke="#666666" points="161,-514.5 0,-514.5 0,-473.5 161,-473.5 161,-514.5"/>
<text text-anchor="start" x="8" y="-502.5" font-family="Helvetica,sans-Serif" font-size="10.00">wmtk::operations::tet</text>
<text text-anchor="start" x="8" y="-491.5" font-family="Helvetica,sans-Serif" font-size="10.00">_mesh::CollapseNewAttribute</text>
<text text-anchor="middle" x="80.5" y="-480.5" font-family="Helvetica,sans-Serif" font-size="10.00">TopoInfo::merged_simplices</text>
</a>
</g>
</g>
<!-- Node2 -->
<g id="Node000002" class="node">
<title>Node2</title>
<g id="a_Node000002"><a xlink:href="classwmtk_1_1operations_1_1tet__mesh_1_1_edge_operation_data.html#a66a25b17c95f2070f68cc3cc2f1800d4" target="_top" xlink:title=" ">
<polygon fill="white" stroke="#666666" points="347,-622.5 197,-622.5 197,-581.5 347,-581.5 347,-622.5"/>
<text text-anchor="start" x="205" y="-610.5" font-family="Helvetica,sans-Serif" font-size="10.00">wmtk::operations::tet</text>
<text text-anchor="start" x="205" y="-599.5" font-family="Helvetica,sans-Serif" font-size="10.00">_mesh::EdgeOperationData</text>
<text text-anchor="middle" x="272" y="-588.5" font-family="Helvetica,sans-Serif" font-size="10.00">::ear_edges</text>
</a>
</g>
</g>
<!-- Node1&#45;&gt;Node2 -->
<g id="edge1_Node000001_Node000002" class="edge">
<title>Node1&#45;&gt;Node2</title>
<g id="a_edge1_Node000001_Node000002"><a xlink:title=" ">
<path fill="none" stroke="#63b8ff" d="M107.94,-514.65C130.67,-531.76 164.79,-555.96 197,-573 199.72,-574.44 202.52,-575.85 205.38,-577.22"/>
<polygon fill="#63b8ff" stroke="#63b8ff" points="204.09,-580.47 214.63,-581.47 207.01,-574.11 204.09,-580.47"/>
</a>
</g>
</g>
<!-- Node5 -->
<g id="Node000005" class="node">
<title>Node5</title>
<g id="a_Node000005"><a xlink:href="classwmtk_1_1operations_1_1tet__mesh_1_1_edge_operation_data.html#a3f64ab98767a583d112a78fde2a258ba" target="_top" xlink:title=" ">
<polygon fill="white" stroke="#666666" points="347,-563.5 197,-563.5 197,-522.5 347,-522.5 347,-563.5"/>
<text text-anchor="start" x="205" y="-551.5" font-family="Helvetica,sans-Serif" font-size="10.00">wmtk::operations::tet</text>
<text text-anchor="start" x="205" y="-540.5" font-family="Helvetica,sans-Serif" font-size="10.00">_mesh::EdgeOperationData</text>
<text text-anchor="middle" x="272" y="-529.5" font-family="Helvetica,sans-Serif" font-size="10.00">::ear_faces</text>
</a>
</g>
</g>
<!-- Node1&#45;&gt;Node5 -->
<g id="edge4_Node000001_Node000005" class="edge">
<title>Node1&#45;&gt;Node5</title>
<g id="a_edge4_Node000001_Node000005"><a xlink:title=" ">
<path fill="none" stroke="#63b8ff" d="M161.04,-514.57C169.65,-516.79 178.43,-519.06 187.09,-521.3"/>
<polygon fill="#63b8ff" stroke="#63b8ff" points="186.25,-524.7 196.8,-523.81 188,-517.92 186.25,-524.7"/>
</a>
</g>
</g>
<!-- Node7 -->
<g id="Node000007" class="node">
<title>Node7</title>
<g id="a_Node000007"><a xlink:href="namespacewmtk.html#a5cf45c152e856196bb734c6f48919a24" target="_top" xlink:title="Get a unique integer id corresponding to each primitive type.">
<polygon fill="white" stroke="#666666" points="1501,-471 1385,-471 1385,-441 1501,-441 1501,-471"/>
<text text-anchor="start" x="1393" y="-459" font-family="Helvetica,sans-Serif" font-size="10.00">wmtk::get_primitive</text>
<text text-anchor="middle" x="1443" y="-448" font-family="Helvetica,sans-Serif" font-size="10.00">_type_id</text>
</a>
</g>
</g>
<!-- Node1&#45;&gt;Node7 -->
<g id="edge7_Node000001_Node000007" class="edge">
<title>Node1&#45;&gt;Node7</title>
<g id="a_edge7_Node000001_Node000007"><a xlink:title=" ">
<path fill="none" stroke="#63b8ff" d="M161.15,-494C240.07,-494 364.38,-494 472,-494 472,-494 472,-494 1095,-494 1208.2,-494 1236.87,-490.58 1349,-475 1357.33,-473.84 1366.03,-472.39 1374.63,-470.81"/>
<polygon fill="#63b8ff" stroke="#63b8ff" points="1375.48,-474.21 1384.65,-468.9 1374.17,-467.33 1375.48,-474.21"/>
</a>
</g>
</g>
<!-- Node8 -->
<g id="Node000008" class="node">
<title>Node8</title>
<g id="a_Node000008"><a xlink:href="classwmtk_1_1operations_1_1tet__mesh_1_1_edge_operation_data.html#a0b36950981ccdbd5b04a2d7eccc758a3" target="_top" xlink:title=" ">
<polygon fill="white" stroke="#666666" points="347,-465.5 197,-465.5 197,-424.5 347,-424.5 347,-465.5"/>
<text text-anchor="start" x="205" y="-453.5" font-family="Helvetica,sans-Serif" font-size="10.00">wmtk::operations::tet</text>
<text text-anchor="start" x="205" y="-442.5" font-family="Helvetica,sans-Serif" font-size="10.00">_mesh::EdgeOperationData</text>
<text text-anchor="middle" x="272" y="-431.5" font-family="Helvetica,sans-Serif" font-size="10.00">::input_endpoints</text>
</a>
</g>
</g>
<!-- Node1&#45;&gt;Node8 -->
<g id="edge8_Node000001_Node000008" class="edge">
<title>Node1&#45;&gt;Node8</title>
<g id="a_edge8_Node000001_Node000008"><a xlink:title=" ">
<path fill="none" stroke="#63b8ff" d="M161.04,-473.43C169.65,-471.21 178.43,-468.94 187.09,-466.7"/>
<polygon fill="#63b8ff" stroke="#63b8ff" points="188,-470.08 196.8,-464.19 186.25,-463.3 188,-470.08"/>
</a>
</g>
</g>
<!-- Node34 -->
<g id="Node000034" class="node">
<title>Node34</title>
<g id="a_Node000034"><a xlink:href="classwmtk_1_1_mesh.html#ac5778c1f8afef3a2b1b1c33a140b3166" target="_top" xlink:title="Evaluate the passed in function inside the parent scope.">
<polygon fill="white" stroke="#666666" points="329,-406 215,-406 215,-376 329,-376 329,-406"/>
<text text-anchor="start" x="223" y="-394" font-family="Helvetica,sans-Serif" font-size="10.00">wmtk::Mesh::parent</text>
<text text-anchor="middle" x="272" y="-383" font-family="Helvetica,sans-Serif" font-size="10.00">_scope</text>
</a>
</g>
</g>
<!-- Node1&#45;&gt;Node34 -->
<g id="edge38_Node000001_Node000034" class="edge">
<title>Node1&#45;&gt;Node34</title>
<g id="a_edge38_Node000001_Node000034"><a xlink:title=" ">
<path fill="none" stroke="#63b8ff" d="M107.78,-473.24C130.41,-456.12 164.48,-432.11 197,-416 201.52,-413.76 206.28,-411.65 211.13,-409.67"/>
<polygon fill="#63b8ff" stroke="#63b8ff" points="212.45,-412.91 220.5,-406.03 209.92,-406.38 212.45,-412.91"/>
</a>
</g>
</g>
<!-- Node3 -->
<g id="Node000003" class="node">
<title>Node3</title>
<g id="a_Node000003"><a xlink:href="classwmtk_1_1operations_1_1tet__mesh_1_1_edge_operation_data.html#a55f6c6c05e6d595a8fb3e0b5d2337c3a" target="_top" xlink:title=" ">
<polygon fill="white" stroke="#666666" points="548,-671.5 398,-671.5 398,-630.5 548,-630.5 548,-671.5"/>
<text text-anchor="start" x="406" y="-659.5" font-family="Helvetica,sans-Serif" font-size="10.00">wmtk::operations::tet</text>
<text text-anchor="start" x="406" y="-648.5" font-family="Helvetica,sans-Serif" font-size="10.00">_mesh::EdgeOperationData</text>
<text text-anchor="middle" x="473" y="-637.5" font-family="Helvetica,sans-Serif" font-size="10.00">::incident_face_datas</text>
</a>
</g>
</g>
<!-- Node2&#45;&gt;Node3 -->
<g id="edge2_Node000002_Node000003" class="edge">
<title>Node2&#45;&gt;Node3</title>
<g id="a_edge2_Node000002_Node000003"><a xlink:title=" ">
<path fill="none" stroke="#63b8ff" d="M347.1,-620.25C360.44,-623.53 374.43,-626.98 388.02,-630.32"/>
<polygon fill="#63b8ff" stroke="#63b8ff" points="387.29,-633.75 397.84,-632.74 388.96,-626.95 387.29,-633.75"/>
</a>
</g>
</g>
<!-- Node4 -->
<g id="Node000004" class="node">
<title>Node4</title>
<g id="a_Node000004"><a xlink:href="classwmtk_1_1operations_1_1_edge_operation_data.html#a37bc93fecbc4e30649298de051eee7ed" target="_top" xlink:title=" ">
<polygon fill="white" stroke="#666666" points="563,-612 383,-612 383,-582 563,-582 563,-612"/>
<text text-anchor="start" x="391" y="-600" font-family="Helvetica,sans-Serif" font-size="10.00">wmtk::operations::EdgeOperation</text>
<text text-anchor="middle" x="473" y="-589" font-family="Helvetica,sans-Serif" font-size="10.00">Data::tuple_from_id</text>
</a>
</g>
</g>
<!-- Node2&#45;&gt;Node4 -->
<g id="edge3_Node000002_Node000004" class="edge">
<title>Node2&#45;&gt;Node4</title>
<g id="a_edge3_Node000002_Node000004"><a xlink:title=" ">
<path fill="none" stroke="#63b8ff" d="M347.1,-600.14C355.44,-599.93 364.03,-599.71 372.63,-599.5"/>
<polygon fill="#63b8ff" stroke="#63b8ff" points="372.79,-602.99 382.7,-599.24 372.62,-596 372.79,-602.99"/>
</a>
</g>
</g>
<!-- Node5&#45;&gt;Node4 -->
<g id="edge6_Node000005_Node000004" class="edge">
<title>Node5&#45;&gt;Node4</title>
<g id="a_edge6_Node000005_Node000004"><a xlink:title=" ">
<path fill="none" stroke="#63b8ff" d="M347.25,-563.28C359.2,-566.54 371.44,-569.87 383,-573 390.49,-575.03 398.34,-577.16 406.14,-579.26"/>
<polygon fill="#63b8ff" stroke="#63b8ff" points="405.4,-582.69 415.97,-581.92 407.23,-575.93 405.4,-582.69"/>
</a>
</g>
</g>
<!-- Node6 -->
<g id="Node000006" class="node">
<title>Node6</title>
<g id="a_Node000006"><a xlink:href="classwmtk_1_1operations_1_1tet__mesh_1_1_edge_operation_data.html#ad4900f4692dd16c3616d47e3b0ba0e1d" target="_top" xlink:title=" ">
<polygon fill="white" stroke="#666666" points="548,-563.5 398,-563.5 398,-522.5 548,-522.5 548,-563.5"/>
<text text-anchor="start" x="406" y="-551.5" font-family="Helvetica,sans-Serif" font-size="10.00">wmtk::operations::tet</text>
<text text-anchor="start" x="406" y="-540.5" font-family="Helvetica,sans-Serif" font-size="10.00">_mesh::EdgeOperationData</text>
<text text-anchor="middle" x="473" y="-529.5" font-family="Helvetica,sans-Serif" font-size="10.00">::incident_tet_datas</text>
</a>
</g>
</g>
<!-- Node5&#45;&gt;Node6 -->
<g id="edge5_Node000005_Node000006" class="edge">
<title>Node5&#45;&gt;Node6</title>
<g id="a_edge5_Node000005_Node000006"><a xlink:title=" ">
<path fill="none" stroke="#63b8ff" d="M347.1,-543C360.31,-543 374.16,-543 387.63,-543"/>
<polygon fill="#63b8ff" stroke="#63b8ff" points="387.84,-546.5 397.84,-543 387.84,-539.5 387.84,-546.5"/>
</a>
</g>
</g>
<!-- Node9 -->
<g id="Node000009" class="node">
<title>Node9</title>
<g id="a_Node000009"><a xlink:href="classwmtk_1_1_tet_mesh.html#a53d9ec91a1c80da4ae10dea485564f27" target="_top" xlink:title="switch the orientation of the Tuple of the given dimension">
<polygon fill="white" stroke="#666666" points="537,-288 409,-288 409,-258 537,-258 537,-288"/>
<text text-anchor="start" x="417" y="-276" font-family="Helvetica,sans-Serif" font-size="10.00">wmtk::TetMesh::switch</text>
<text text-anchor="middle" x="473" y="-265" font-family="Helvetica,sans-Serif" font-size="10.00">_tuple</text>
</a>
</g>
</g>
<!-- Node8&#45;&gt;Node9 -->
<g id="edge9_Node000008_Node000009" class="edge">
<title>Node8&#45;&gt;Node9</title>
<g id="a_edge9_Node000008_Node000009"><a xlink:title=" ">
<path fill="none" stroke="#63b8ff" d="M331.34,-424.42C336.82,-421.59 342.14,-418.45 347,-415 393.81,-381.79 434.96,-327.75 456.36,-296.8"/>
<polygon fill="#63b8ff" stroke="#63b8ff" points="459.38,-298.58 462.11,-288.35 453.59,-294.65 459.38,-298.58"/>
</a>
</g>
</g>
<!-- Node10 -->
<g id="Node000010" class="node">
<title>Node10</title>
<g id="a_Node000010"><a xlink:href="classwmtk_1_1_tet_mesh.html#aa8424e5e4d709981e9e10d659f87f97d" target="_top" xlink:title=" ">
<polygon fill="white" stroke="#666666" points="743,-319.5 637,-319.5 637,-300.5 743,-300.5 743,-319.5"/>
<text text-anchor="middle" x="690" y="-307.5" font-family="Helvetica,sans-Serif" font-size="10.00">wmtk::TetMesh::id</text>
</a>
</g>
</g>
<!-- Node9&#45;&gt;Node10 -->
<g id="edge10_Node000009_Node000010" class="edge">
<title>Node9&#45;&gt;Node10</title>
<g id="a_edge10_Node000009_Node000010"><a xlink:title=" ">
<path fill="none" stroke="#63b8ff" d="M537.05,-283.85C565.31,-288.71 598.53,-294.43 626.69,-299.28"/>
<polygon fill="#63b8ff" stroke="#63b8ff" points="626.37,-302.77 636.82,-301.02 627.56,-295.87 626.37,-302.77"/>
</a>
</g>
</g>
<!-- Node11 -->
<g id="Node000011" class="node">
<title>Node11</title>
<g id="a_Node000011"><a xlink:href="classwmtk_1_1_tet_mesh.html#af4002e7a36e20373deb54576caffa682" target="_top" xlink:title=" ">
<polygon fill="white" stroke="#666666" points="781,-282.5 599,-282.5 599,-263.5 781,-263.5 781,-282.5"/>
<text text-anchor="middle" x="690" y="-270.5" font-family="Helvetica,sans-Serif" font-size="10.00">wmtk::TetMesh::is_boundary_face</text>
</a>
</g>
</g>
<!-- Node9&#45;&gt;Node11 -->
<g id="edge11_Node000009_Node000011" class="edge">
<title>Node9&#45;&gt;Node11</title>
<g id="a_edge11_Node000009_Node000011"><a xlink:title=" ">
<path fill="none" stroke="#63b8ff" d="M537.05,-273C553.21,-273 571,-273 588.53,-273"/>
<polygon fill="#63b8ff" stroke="#63b8ff" points="588.81,-276.5 598.81,-273 588.81,-269.5 588.81,-276.5"/>
</a>
</g>
</g>
<!-- Node13 -->
<g id="Node000013" class="node">
<title>Node13</title>
<g id="a_Node000013"><a xlink:href="classwmtk_1_1_tet_mesh.html#af07828ce32b19a3d5fc8e1cb6f365029" target="_top" xlink:title="check validity of tuple including its hash">
<polygon fill="white" stroke="#666666" points="757,-210.5 623,-210.5 623,-191.5 757,-191.5 757,-210.5"/>
<text text-anchor="middle" x="690" y="-198.5" font-family="Helvetica,sans-Serif" font-size="10.00">wmtk::TetMesh::is_valid</text>
</a>
</g>
</g>
<!-- Node9&#45;&gt;Node13 -->
<g id="edge13_Node000009_Node000013" class="edge">
<title>Node9&#45;&gt;Node13</title>
<g id="a_edge13_Node000009_Node000013"><a xlink:title=" ">
<path fill="none" stroke="#63b8ff" d="M518.81,-257.99C557.73,-244.96 613.51,-226.28 650.46,-213.91"/>
<polygon fill="#63b8ff" stroke="#63b8ff" points="651.99,-217.09 660.36,-210.59 649.76,-210.45 651.99,-217.09"/>
</a>
</g>
</g>
<!-- Node33 -->
<g id="Node000033" class="node">
<title>Node33</title>
<g id="a_Node000033"><a xlink:href="namespacewmtk_1_1autogen_1_1tet__mesh.html#a4060d948aa959f21810c425f3f197dd5" target="_top" xlink:title=" ">
<polygon fill="white" stroke="#666666" points="762.5,-144 617.5,-144 617.5,-114 762.5,-114 762.5,-144"/>
<text text-anchor="start" x="625.5" y="-132" font-family="Helvetica,sans-Serif" font-size="10.00">wmtk::autogen::tet</text>
<text text-anchor="middle" x="690" y="-121" font-family="Helvetica,sans-Serif" font-size="10.00">_mesh::local_switch_tuple</text>
</a>
</g>
</g>
<!-- Node9&#45;&gt;Node33 -->
<g id="edge36_Node000009_Node000033" class="edge">
<title>Node9&#45;&gt;Node33</title>
<g id="a_edge36_Node000009_Node000033"><a xlink:title=" ">
<path fill="none" stroke="#63b8ff" d="M493.5,-257.89C517.74,-239.33 560.62,-207.18 599,-182 616.4,-170.58 636.28,-158.75 652.93,-149.17"/>
<polygon fill="#63b8ff" stroke="#63b8ff" points="654.86,-152.1 661.8,-144.1 651.39,-146.02 654.86,-152.1"/>
</a>
</g>
</g>
<!-- Node12 -->
<g id="Node000012" class="node">
<title>Node12</title>
<g id="a_Node000012"><a xlink:href="classwmtk_1_1attribute_1_1_accessor.html#a4b89ff4381fe73d4827b663203a964fc" target="_top" xlink:title=" ">
<polygon fill="white" stroke="#666666" points="973,-333 831,-333 831,-303 973,-303 973,-333"/>
<text text-anchor="start" x="839" y="-321" font-family="Helvetica,sans-Serif" font-size="10.00">wmtk::attribute::Accessor</text>
<text text-anchor="middle" x="902" y="-310" font-family="Helvetica,sans-Serif" font-size="10.00">::const_vector_attribute</text>
</a>
</g>
</g>
<!-- Node11&#45;&gt;Node12 -->
<g id="edge12_Node000011_Node000012" class="edge">
<title>Node11&#45;&gt;Node12</title>
<g id="a_edge12_Node000011_Node000012"><a xlink:title=" ">
<path fill="none" stroke="#63b8ff" d="M739.62,-282.5C753.04,-285.19 767.6,-288.15 781,-291 795.34,-294.05 810.62,-297.4 825.3,-300.68"/>
<polygon fill="#63b8ff" stroke="#63b8ff" points="824.83,-304.16 835.36,-302.93 826.36,-297.33 824.83,-304.16"/>
</a>
</g>
</g>
<!-- Node14 -->
<g id="Node000014" class="node">
<title>Node14</title>
<g id="a_Node000014"><a xlink:href="classwmtk_1_1_tet_mesh.html#ad4ba72346d616d38086be74705865e55" target="_top" xlink:title=" ">
<polygon fill="white" stroke="#666666" points="987,-285 817,-285 817,-255 987,-255 987,-285"/>
<text text-anchor="start" x="825" y="-273" font-family="Helvetica,sans-Serif" font-size="10.00">wmtk::TetMesh::is_connectivity</text>
<text text-anchor="middle" x="902" y="-262" font-family="Helvetica,sans-Serif" font-size="10.00">_valid</text>
</a>
</g>
</g>
<!-- Node13&#45;&gt;Node14 -->
<g id="edge14_Node000013_Node000014" class="edge">
<title>Node13&#45;&gt;Node14</title>
<g id="a_edge14_Node000013_Node000014"><a xlink:title=" ">
<path fill="none" stroke="#63b8ff" d="M720.2,-210.59C752.48,-221.2 805.21,-238.53 845.42,-251.74"/>
<polygon fill="#63b8ff" stroke="#63b8ff" points="844.5,-255.12 855.09,-254.92 846.69,-248.47 844.5,-255.12"/>
</a>
</g>
</g>
<!-- Node25 -->
<g id="Node000025" class="node">
<title>Node25</title>
<g id="a_Node000025"><a xlink:href="classwmtk_1_1_mesh.html#a8cc8686f0688613806f43720b6db49e7" target="_top" xlink:title="check validity of tuple including its hash">
<polygon fill="white" stroke="#666666" points="962,-175.5 842,-175.5 842,-156.5 962,-156.5 962,-175.5"/>
<text text-anchor="middle" x="902" y="-163.5" font-family="Helvetica,sans-Serif" font-size="10.00">wmtk::Mesh::is_valid</text>
</a>
</g>
</g>
<!-- Node13&#45;&gt;Node25 -->
<g id="edge27_Node000013_Node000025" class="edge">
<title>Node13&#45;&gt;Node25</title>
<g id="a_edge27_Node000013_Node000025"><a xlink:title=" ">
<path fill="none" stroke="#63b8ff" d="M748.11,-191.48C774.61,-187.07 806.29,-181.78 833.92,-177.18"/>
<polygon fill="#63b8ff" stroke="#63b8ff" points="834.62,-180.61 843.91,-175.52 833.47,-173.71 834.62,-180.61"/>
</a>
</g>
</g>
<!-- Node28 -->
<g id="Node000028" class="node">
<title>Node28</title>
<g id="a_Node000028"><a xlink:href="namespacewmtk_1_1autogen_1_1tet__mesh.html#a217b7c5c5312a716ad27c99abcfc0eb1" target="_top" xlink:title=" ">
<polygon fill="white" stroke="#666666" points="963,-137.5 841,-137.5 841,-96.5 963,-96.5 963,-137.5"/>
<text text-anchor="start" x="849" y="-125.5" font-family="Helvetica,sans-Serif" font-size="10.00">wmtk::autogen::tet</text>
<text text-anchor="start" x="849" y="-114.5" font-family="Helvetica,sans-Serif" font-size="10.00">_mesh::tuple_is_valid</text>
<text text-anchor="middle" x="902" y="-103.5" font-family="Helvetica,sans-Serif" font-size="10.00">_for_ccw</text>
</a>
</g>
</g>
<!-- Node13&#45;&gt;Node28 -->
<g id="edge31_Node000013_Node000028" class="edge">
<title>Node13&#45;&gt;Node28</title>
<g id="a_edge31_Node000013_Node000028"><a xlink:title=" ">
<path fill="none" stroke="#63b8ff" d="M712.24,-191.42C737.15,-180.3 779.78,-161.61 817,-147 822.05,-145.02 827.28,-143.02 832.56,-141.04"/>
<polygon fill="#63b8ff" stroke="#63b8ff" points="833.92,-144.27 842.08,-137.52 831.49,-137.71 833.92,-144.27"/>
</a>
</g>
</g>
<!-- Node15 -->
<g id="Node000015" class="node">
<title>Node15</title>
<g id="a_Node000015"><a xlink:href="classwmtk_1_1_mesh.html#a3e8ff83c4a5526a40d18bb9883c6c6c9" target="_top" xlink:title="read in the m_capacities return the upper bound for the number of entities of the given dimension">
<polygon fill="white" stroke="#666666" points="1337,-465.5 1213,-465.5 1213,-446.5 1337,-446.5 1337,-465.5"/>
<text text-anchor="middle" x="1275" y="-453.5" font-family="Helvetica,sans-Serif" font-size="10.00">wmtk::Mesh::capacity</text>
</a>
</g>
</g>
<!-- Node14&#45;&gt;Node15 -->
<g id="edge15_Node000014_Node000015" class="edge">
<title>Node14&#45;&gt;Node15</title>
<g id="a_edge15_Node000014_Node000015"><a xlink:title=" ">
<path fill="none" stroke="#63b8ff" d="M976.02,-285.2C980.02,-287.71 983.73,-290.62 987,-294 1032.6,-341.07 972.87,-394.79 1023,-437 1079.33,-484.43 1170.26,-477.65 1225.83,-467.48"/>
<polygon fill="#63b8ff" stroke="#63b8ff" points="1226.62,-470.89 1235.78,-465.55 1225.29,-464.02 1226.62,-470.89"/>
</a>
</g>
</g>
<!-- Node16 -->
<g id="Node000016" class="node">
<title>Node16</title>
<g id="a_Node000016"><a xlink:href="classwmtk_1_1attribute_1_1_caching_accessor.html#a196b6b32e2495b971113d552be7f45d9" target="_top" xlink:title=" ">
<polygon fill="white" stroke="#666666" points="1162.5,-427.5 1025.5,-427.5 1025.5,-386.5 1162.5,-386.5 1162.5,-427.5"/>
<text text-anchor="start" x="1033.5" y="-415.5" font-family="Helvetica,sans-Serif" font-size="10.00">wmtk::attribute::Caching</text>
<text text-anchor="start" x="1033.5" y="-404.5" font-family="Helvetica,sans-Serif" font-size="10.00">Accessor::const_scalar</text>
<text text-anchor="middle" x="1094" y="-393.5" font-family="Helvetica,sans-Serif" font-size="10.00">_attribute</text>
</a>
</g>
</g>
<!-- Node14&#45;&gt;Node16 -->
<g id="edge17_Node000014_Node000016" class="edge">
<title>Node14&#45;&gt;Node16</title>
<g id="a_edge17_Node000014_Node000016"><a xlink:title=" ">
<path fill="none" stroke="#63b8ff" d="M974.22,-285.15C978.81,-287.67 983.13,-290.59 987,-294 1017.48,-320.85 994.11,-349.45 1023,-378 1023.8,-378.79 1024.62,-379.55 1025.46,-380.3"/>
<polygon fill="#63b8ff" stroke="#63b8ff" points="1023.48,-383.2 1033.55,-386.49 1027.74,-377.64 1023.48,-383.2"/>
</a>
</g>
</g>
<!-- Node17 -->
<g id="Node000017" class="node">
<title>Node17</title>
<g id="a_Node000017"><a xlink:href="classwmtk_1_1attribute_1_1_caching_accessor.html#ab850fe07669c7bc92ca6cf6e86c60ee0" target="_top" xlink:title=" ">
<polygon fill="white" stroke="#666666" points="1162.5,-368.5 1025.5,-368.5 1025.5,-327.5 1162.5,-327.5 1162.5,-368.5"/>
<text text-anchor="start" x="1033.5" y="-356.5" font-family="Helvetica,sans-Serif" font-size="10.00">wmtk::attribute::Caching</text>
<text text-anchor="start" x="1033.5" y="-345.5" font-family="Helvetica,sans-Serif" font-size="10.00">Accessor::const_vector</text>
<text text-anchor="middle" x="1094" y="-334.5" font-family="Helvetica,sans-Serif" font-size="10.00">_attribute</text>
</a>
</g>
</g>
<!-- Node14&#45;&gt;Node17 -->
<g id="edge18_Node000014_Node000017" class="edge">
<title>Node14&#45;&gt;Node17</title>
<g id="a_edge18_Node000014_Node000017"><a xlink:title=" ">
<path fill="none" stroke="#63b8ff" d="M964.37,-285.13C972.13,-287.73 979.84,-290.69 987,-294 1004.45,-302.07 1006.09,-308.84 1023,-318 1026.21,-319.74 1029.55,-321.45 1032.94,-323.13"/>
<polygon fill="#63b8ff" stroke="#63b8ff" points="1031.47,-326.31 1042.01,-327.45 1034.49,-319.99 1031.47,-326.31"/>
</a>
</g>
</g>
<!-- Node18 -->
<g id="Node000018" class="node">
<title>Node18</title>
<g id="a_Node000018"><a xlink:href="classwmtk_1_1_mesh.html#ae0e8f71e9e17a90be9423117efcc4c81" target="_top" xlink:title=" ">
<polygon fill="white" stroke="#666666" points="1155,-309 1033,-309 1033,-279 1155,-279 1155,-309"/>
<text text-anchor="start" x="1041" y="-297" font-family="Helvetica,sans-Serif" font-size="10.00">wmtk::Mesh::get_flag</text>
<text text-anchor="middle" x="1094" y="-286" font-family="Helvetica,sans-Serif" font-size="10.00">_accessor</text>
</a>
</g>
</g>
<!-- Node14&#45;&gt;Node18 -->
<g id="edge19_Node000014_Node000018" class="edge">
<title>Node14&#45;&gt;Node18</title>
<g id="a_edge19_Node000014_Node000018"><a xlink:title=" ">
<path fill="none" stroke="#63b8ff" d="M987.17,-280.63C999.07,-282.13 1011.2,-283.67 1022.79,-285.13"/>
<polygon fill="#63b8ff" stroke="#63b8ff" points="1022.47,-288.62 1032.83,-286.4 1023.35,-281.67 1022.47,-288.62"/>
</a>
</g>
</g>
<!-- Node21 -->
<g id="Node000021" class="node">
<title>Node21</title>
<g id="a_Node000021"><a xlink:href="classwmtk_1_1attribute_1_1_accessor.html#a2d587e12c47a6d839ab80e9198cf75b5" target="_top" xlink:title=" ">
<polygon fill="white" stroke="#666666" points="1165,-261 1023,-261 1023,-231 1165,-231 1165,-261"/>
<text text-anchor="start" x="1031" y="-249" font-family="Helvetica,sans-Serif" font-size="10.00">wmtk::attribute::Accessor</text>
<text text-anchor="middle" x="1094" y="-238" font-family="Helvetica,sans-Serif" font-size="10.00">::index_access</text>
</a>
</g>
</g>
<!-- Node14&#45;&gt;Node21 -->
<g id="edge23_Node000014_Node000021" class="edge">
<title>Node14&#45;&gt;Node21</title>
<g id="a_edge23_Node000014_Node000021"><a xlink:title=" ">
<path fill="none" stroke="#63b8ff" d="M987.17,-259.37C995.63,-258.3 1004.22,-257.21 1012.65,-256.15"/>
<polygon fill="#63b8ff" stroke="#63b8ff" points="1013.35,-259.59 1022.83,-254.86 1012.47,-252.64 1013.35,-259.59"/>
</a>
</g>
</g>
<!-- Node23 -->
<g id="Node000023" class="node">
<title>Node23</title>
<g id="a_Node000023"><a xlink:href="namespacewmtk.html#a6a35f11c12436093d26fdd8be6fecc06" target="_top" xlink:title="Retrieves the current logger.">
<polygon fill="white" stroke="#666666" points="1134.5,-212.5 1053.5,-212.5 1053.5,-193.5 1134.5,-193.5 1134.5,-212.5"/>
<text text-anchor="middle" x="1094" y="-200.5" font-family="Helvetica,sans-Serif" font-size="10.00">wmtk::logger</text>
</a>
</g>
</g>
<!-- Node14&#45;&gt;Node23 -->
<g id="edge25_Node000014_Node000023" class="edge">
<title>Node14&#45;&gt;Node23</title>
<g id="a_edge25_Node000014_Node000023"><a xlink:title=" ">
<path fill="none" stroke="#63b8ff" d="M937.52,-254.96C961.29,-244.91 993.74,-231.79 1023,-222 1029.98,-219.67 1037.42,-217.41 1044.75,-215.31"/>
<polygon fill="#63b8ff" stroke="#63b8ff" points="1045.92,-218.62 1054.61,-212.56 1044.04,-211.87 1045.92,-218.62"/>
</a>
</g>
</g>
<!-- Node15&#45;&gt;Node7 -->
<g id="edge16_Node000015_Node000007" class="edge">
<title>Node15&#45;&gt;Node7</title>
<g id="a_edge16_Node000015_Node000007"><a xlink:title=" ">
<path fill="none" stroke="#63b8ff" d="M1337.34,-456C1349.46,-456 1362.25,-456 1374.56,-456"/>
<polygon fill="#63b8ff" stroke="#63b8ff" points="1374.76,-459.5 1384.76,-456 1374.76,-452.5 1374.76,-459.5"/>
</a>
</g>
</g>
<!-- Node19 -->
<g id="Node000019" class="node">
<title>Node19</title>
<g id="a_Node000019"><a xlink:href="classwmtk_1_1_mesh.html#a6dbab927a2ee85f77a87f075fd5c1d94" target="_top" xlink:title=" ">
<polygon fill="white" stroke="#666666" points="1340,-366 1210,-366 1210,-336 1340,-336 1340,-366"/>
<text text-anchor="start" x="1218" y="-354" font-family="Helvetica,sans-Serif" font-size="10.00">wmtk::Mesh::get_const</text>
<text text-anchor="middle" x="1275" y="-343" font-family="Helvetica,sans-Serif" font-size="10.00">_flag_accessor</text>
</a>
</g>
</g>
<!-- Node18&#45;&gt;Node19 -->
<g id="edge20_Node000018_Node000019" class="edge">
<title>Node18&#45;&gt;Node19</title>
<g id="a_edge20_Node000018_Node000019"><a xlink:title=" ">
<path fill="none" stroke="#63b8ff" d="M1142.5,-309.13C1165.35,-316.4 1192.92,-325.18 1216.9,-332.82"/>
<polygon fill="#63b8ff" stroke="#63b8ff" points="1216,-336.2 1226.59,-335.9 1218.12,-329.53 1216,-336.2"/>
</a>
</g>
</g>
<!-- Node19&#45;&gt;Node7 -->
<g id="edge22_Node000019_Node000007" class="edge">
<title>Node19&#45;&gt;Node7</title>
<g id="a_edge22_Node000019_Node000007"><a xlink:title=" ">
<path fill="none" stroke="#63b8ff" d="M1299.78,-366.04C1328.63,-384.29 1377.38,-415.13 1409.63,-435.53"/>
<polygon fill="#63b8ff" stroke="#63b8ff" points="1407.94,-438.6 1418.26,-440.98 1411.68,-432.68 1407.94,-438.6"/>
</a>
</g>
</g>
<!-- Node20 -->
<g id="Node000020" class="node">
<title>Node20</title>
<g id="a_Node000020"><a xlink:href="classwmtk_1_1_mesh.html#a357182137d99f1e4a7ff536eadfc0e56" target="_top" xlink:title=" ">
<polygon fill="white" stroke="#666666" points="1499.5,-366 1386.5,-366 1386.5,-336 1499.5,-336 1499.5,-366"/>
<text text-anchor="start" x="1394.5" y="-354" font-family="Helvetica,sans-Serif" font-size="10.00">wmtk::Mesh::create</text>
<text text-anchor="middle" x="1443" y="-343" font-family="Helvetica,sans-Serif" font-size="10.00">_const_accessor</text>
</a>
</g>
</g>
<!-- Node19&#45;&gt;Node20 -->
<g id="edge21_Node000019_Node000020" class="edge">
<title>Node19&#45;&gt;Node20</title>
<g id="a_edge21_Node000019_Node000020"><a xlink:title=" ">
<path fill="none" stroke="#63b8ff" d="M1340.18,-351C1351.96,-351 1364.28,-351 1376.12,-351"/>
<polygon fill="#63b8ff" stroke="#63b8ff" points="1376.36,-354.5 1386.36,-351 1376.36,-347.5 1376.36,-354.5"/>
</a>
</g>
</g>
<!-- Node22 -->
<g id="Node000022" class="node">
<title>Node22</title>
<g id="a_Node000022"><a xlink:href="classwmtk_1_1attribute_1_1_accessor.html#afd97a48ec5d1db975a030428df81f617" target="_top" xlink:title=" ">
<polygon fill="white" stroke="#666666" points="1346,-261 1204,-261 1204,-231 1346,-231 1346,-261"/>
<text text-anchor="start" x="1212" y="-249" font-family="Helvetica,sans-Serif" font-size="10.00">wmtk::attribute::Accessor</text>
<text text-anchor="middle" x="1275" y="-238" font-family="Helvetica,sans-Serif" font-size="10.00">::caching_base_type</text>
</a>
</g>
</g>
<!-- Node21&#45;&gt;Node22 -->
<g id="edge24_Node000021_Node000022" class="edge">
<title>Node21&#45;&gt;Node22</title>
<g id="a_edge24_Node000021_Node000022"><a xlink:title=" ">
<path fill="none" stroke="#63b8ff" d="M1165.23,-246C1174.58,-246 1184.23,-246 1193.73,-246"/>
<polygon fill="#63b8ff" stroke="#63b8ff" points="1193.97,-249.5 1203.97,-246 1193.97,-242.5 1193.97,-249.5"/>
</a>
</g>
</g>
<!-- Node24 -->
<g id="Node000024" class="node">
<title>Node24</title>
<g id="a_Node000024"><a xlink:href="namespacewmtk.html#a3daa7951a5f8b78cf4600dc047fcc180" target="_top" xlink:title="Setup a logger object to be used by WildmeshToolkit.">
<polygon fill="white" stroke="#666666" points="1325.5,-212.5 1224.5,-212.5 1224.5,-193.5 1325.5,-193.5 1325.5,-212.5"/>
<text text-anchor="middle" x="1275" y="-200.5" font-family="Helvetica,sans-Serif" font-size="10.00">wmtk::set_logger</text>
</a>
</g>
</g>
<!-- Node23&#45;&gt;Node24 -->
<g id="edge26_Node000023_Node000024" class="edge">
<title>Node23&#45;&gt;Node24</title>
<g id="a_edge26_Node000023_Node000024"><a xlink:title=" ">
<path fill="none" stroke="#63b8ff" d="M1134.73,-203C1158.09,-203 1188.1,-203 1214.27,-203"/>
<polygon fill="#63b8ff" stroke="#63b8ff" points="1214.47,-206.5 1224.47,-203 1214.47,-199.5 1214.47,-206.5"/>
</a>
</g>
</g>
<!-- Node26 -->
<g id="Node000026" class="node">
<title>Node26</title>
<g id="a_Node000026"><a xlink:href="classwmtk_1_1_tuple.html#a0023f575be92cd5ceeeaaaa3762ea06d" target="_top" xlink:title="Checks if a tuple is &quot;null&quot;. This merely implies the global index is &#45;1.">
<polygon fill="white" stroke="#666666" points="1150.5,-175.5 1037.5,-175.5 1037.5,-156.5 1150.5,-156.5 1150.5,-175.5"/>
<text text-anchor="middle" x="1094" y="-163.5" font-family="Helvetica,sans-Serif" font-size="10.00">wmtk::Tuple::is_null</text>
</a>
</g>
</g>
<!-- Node25&#45;&gt;Node26 -->
<g id="edge28_Node000025_Node000026" class="edge">
<title>Node25&#45;&gt;Node26</title>
<g id="a_edge28_Node000025_Node000026"><a xlink:title=" ">
<path fill="none" stroke="#63b8ff" d="M962.08,-166C982.67,-166 1005.91,-166 1027.03,-166"/>
<polygon fill="#63b8ff" stroke="#63b8ff" points="1027.21,-169.5 1037.21,-166 1027.21,-162.5 1027.21,-169.5"/>
</a>
</g>
</g>
<!-- Node27 -->
<g id="Node000027" class="node">
<title>Node27</title>
<g id="a_Node000027"><a xlink:href="classwmtk_1_1_mesh.html#ade176d345902d97af8c5da04aa3a095b" target="_top" xlink:title=" ">
<polygon fill="white" stroke="#666666" points="1164,-120.5 1024,-120.5 1024,-101.5 1164,-101.5 1164,-120.5"/>
<text text-anchor="middle" x="1094" y="-108.5" font-family="Helvetica,sans-Serif" font-size="10.00">wmtk::Mesh::is_removed</text>
</a>
</g>
</g>
<!-- Node25&#45;&gt;Node27 -->
<g id="edge29_Node000025_Node000027" class="edge">
<title>Node25&#45;&gt;Node27</title>
<g id="a_edge29_Node000025_Node000027"><a xlink:title=" ">
<path fill="none" stroke="#63b8ff" d="M946.35,-156.42C959.47,-153.32 973.88,-149.72 987,-146 1010.39,-139.37 1036.32,-130.83 1056.67,-123.84"/>
<polygon fill="#63b8ff" stroke="#63b8ff" points="1057.88,-127.13 1066.18,-120.56 1055.59,-120.52 1057.88,-127.13"/>
</a>
</g>
</g>
<!-- Node27&#45;&gt;Node27 -->
<g id="edge30_Node000027_Node000027" class="edge">
<title>Node27&#45;&gt;Node27</title>
<g id="a_edge30_Node000027_Node000027"><a xlink:title=" ">
<path fill="none" stroke="#63b8ff" d="M1066.26,-120.58C1052.76,-129.23 1062.01,-138.5 1094,-138.5 1115.49,-138.5 1126.72,-134.32 1127.68,-128.95"/>
<polygon fill="#63b8ff" stroke="#63b8ff" points="1130.39,-126.71 1121.74,-120.58 1124.68,-130.76 1130.39,-126.71"/>
</a>
</g>
</g>
<!-- Node29 -->
<g id="Node000029" class="node">
<title>Node29</title>
<g id="a_Node000029"><a xlink:href="namespacewmtk_1_1autogen_1_1tet__mesh.html#ace6b80b1be9aec0d6a5ac5d144b40965" target="_top" xlink:title=" ">
<polygon fill="white" stroke="#666666" points="1155,-83.5 1033,-83.5 1033,-42.5 1155,-42.5 1155,-83.5"/>
<text text-anchor="start" x="1041" y="-71.5" font-family="Helvetica,sans-Serif" font-size="10.00">wmtk::autogen::tet</text>
<text text-anchor="start" x="1041" y="-60.5" font-family="Helvetica,sans-Serif" font-size="10.00">_mesh::local_id_table</text>
<text text-anchor="middle" x="1094" y="-49.5" font-family="Helvetica,sans-Serif" font-size="10.00">_offset</text>
</a>
</g>
</g>
<!-- Node28&#45;&gt;Node29 -->
<g id="edge32_Node000028_Node000029" class="edge">
<title>Node28&#45;&gt;Node29</title>
<g id="a_edge32_Node000028_Node000029"><a xlink:title=" ">
<path fill="none" stroke="#63b8ff" d="M963.12,-99.91C982.18,-94.5 1003.43,-88.46 1023.12,-82.86"/>
<polygon fill="#63b8ff" stroke="#63b8ff" points="1024.29,-86.17 1032.95,-80.07 1022.37,-79.43 1024.29,-86.17"/>
</a>
</g>
</g>
<!-- Node30 -->
<g id="Node000030" class="node">
<title>Node30</title>
<g id="a_Node000030"><a xlink:href="classwmtk_1_1utils_1_1_tuple_inspector.html#a3a04acf16e0eff80ade8e0fb8753ac1b" target="_top" xlink:title=" ">
<polygon fill="white" stroke="#666666" points="1349,-126 1201,-126 1201,-96 1349,-96 1349,-126"/>
<text text-anchor="start" x="1209" y="-114" font-family="Helvetica,sans-Serif" font-size="10.00">wmtk::utils::TupleInspector</text>
<text text-anchor="middle" x="1275" y="-103" font-family="Helvetica,sans-Serif" font-size="10.00">::local_eid</text>
</a>
</g>
</g>
<!-- Node29&#45;&gt;Node30 -->
<g id="edge33_Node000029_Node000030" class="edge">
<title>Node29&#45;&gt;Node30</title>
<g id="a_edge33_Node000029_Node000030"><a xlink:title=" ">
<path fill="none" stroke="#63b8ff" d="M1155.1,-79.12C1172.08,-83.67 1190.65,-88.65 1207.96,-93.29"/>
<polygon fill="#63b8ff" stroke="#63b8ff" points="1207.42,-96.77 1217.98,-95.98 1209.23,-90.01 1207.42,-96.77"/>
</a>
</g>
</g>
<!-- Node31 -->
<g id="Node000031" class="node">
<title>Node31</title>
<g id="a_Node000031"><a xlink:href="classwmtk_1_1utils_1_1_tuple_inspector.html#ae4f5c770f4a2f9440eef24448929432d" target="_top" xlink:title=" ">
<polygon fill="white" stroke="#666666" points="1349,-78 1201,-78 1201,-48 1349,-48 1349,-78"/>
<text text-anchor="start" x="1209" y="-66" font-family="Helvetica,sans-Serif" font-size="10.00">wmtk::utils::TupleInspector</text>
<text text-anchor="middle" x="1275" y="-55" font-family="Helvetica,sans-Serif" font-size="10.00">::local_fid</text>
</a>
</g>
</g>
<!-- Node29&#45;&gt;Node31 -->
<g id="edge34_Node000029_Node000031" class="edge">
<title>Node29&#45;&gt;Node31</title>
<g id="a_edge34_Node000029_Node000031"><a xlink:title=" ">
<path fill="none" stroke="#63b8ff" d="M1155.1,-63C1166.53,-63 1178.67,-63 1190.67,-63"/>
<polygon fill="#63b8ff" stroke="#63b8ff" points="1190.69,-66.5 1200.69,-63 1190.69,-59.5 1190.69,-66.5"/>
</a>
</g>
</g>
<!-- Node32 -->
<g id="Node000032" class="node">
<title>Node32</title>
<g id="a_Node000032"><a xlink:href="classwmtk_1_1utils_1_1_tuple_inspector.html#a92f5faa08a7f78424f5cd1ec79dcedbb" target="_top" xlink:title=" ">
<polygon fill="white" stroke="#666666" points="1349,-30 1201,-30 1201,0 1349,0 1349,-30"/>
<text text-anchor="start" x="1209" y="-18" font-family="Helvetica,sans-Serif" font-size="10.00">wmtk::utils::TupleInspector</text>
<text text-anchor="middle" x="1275" y="-7" font-family="Helvetica,sans-Serif" font-size="10.00">::local_vid</text>
</a>
</g>
</g>
<!-- Node29&#45;&gt;Node32 -->
<g id="edge35_Node000029_Node000032" class="edge">
<title>Node29&#45;&gt;Node32</title>
<g id="a_edge35_Node000029_Node000032"><a xlink:title=" ">
<path fill="none" stroke="#63b8ff" d="M1155.1,-46.88C1172.08,-42.33 1190.65,-37.35 1207.96,-32.71"/>
<polygon fill="#63b8ff" stroke="#63b8ff" points="1209.23,-35.99 1217.98,-30.02 1207.42,-29.23 1209.23,-35.99"/>
</a>
</g>
</g>
<!-- Node33&#45;&gt;Node29 -->
<g id="edge37_Node000033_Node000029" class="edge">
<title>Node33&#45;&gt;Node29</title>
<g id="a_edge37_Node000033_Node000029"><a xlink:title=" ">
<path fill="none" stroke="#63b8ff" d="M728.41,-113.95C753.15,-104.65 786.52,-93.31 817,-87 886.06,-72.7 966.55,-66.9 1022.72,-64.57"/>
<polygon fill="#63b8ff" stroke="#63b8ff" points="1023.07,-68.06 1032.92,-64.17 1022.79,-61.06 1023.07,-68.06"/>
</a>
</g>
</g>
</g>
</svg>

<g id="navigator" transform="translate(0 0)" fill="#404254">
  <rect fill="#f2f5e9" fill-opacity="0.5" stroke="#606060" stroke-width=".5" x="0" y="0" width="60" height="60"/>
  <use id="zoomplus" xlink:href="#zoomPlus" x="17" y="9" onmousedown="handleZoom(evt,'in')"/>
  <use id="zoomminus" xlink:href="#zoomMin" x="42" y="9" onmousedown="handleZoom(evt,'out')"/>
  <use id="reset" xlink:href="#resetDef" x="30" y="36" onmousedown="handleReset()"/>
   <use id="arrowup" xlink:href="#arrowUp" x="0" y="0" onmousedown="handlePan(0,-1)"/>
  <use id="arrowright" xlink:href="#arrowRight" x="0" y="0" onmousedown="handlePan(1,0)"/>
  <use id="arrowdown" xlink:href="#arrowDown" x="0" y="0" onmousedown="handlePan(0,1)"/>
  <use id="arrowleft" xlink:href="#arrowLeft" x="0" y="0" onmousedown="handlePan(-1,0)"/>
</g>
<svg viewBox="0 0 15 15" width="100%" height="30px" preserveAspectRatio="xMaxYMin meet">
 <g id="arrow_out" transform="scale(0.3 0.3)">
  <a xlink:href="classwmtk_1_1operations_1_1tet__mesh_1_1_collapse_new_attribute_topo_info_a9f0532f826f70f51e8b5a9a2275e426b_cgraph_org.svg" target="_base">
   <rect id="button" ry="5" rx="5" y="6" x="6" height="38" width="38"
        fill="#f2f5e9" fill-opacity="0.5" stroke="#606060" stroke-width="1.0"/>
   <path id="arrow"
     d="M 11.500037,31.436501 C 11.940474,20.09759 22.043105,11.32322 32.158766,21.979434 L 37.068811,17.246167 C 37.068811,17.246167 37.088388,32 37.088388,32 L 22.160133,31.978069 C 22.160133,31.978069 26.997745,27.140456 26.997745,27.140456 C 18.528582,18.264221 13.291696,25.230495 11.500037,31.436501 z"
     style="fill:#404040;"/>
  </a>
 </g>
</svg>

<style type='text/css'>
<![CDATA[
[data-mouse-over-selected='false'] { opacity: 0.7; }
[data-mouse-over-selected='true']  { opacity: 1.0; }
]]>
</style>
<script type="application/ecmascript"><![CDATA[
document.addEventListener('DOMContentLoaded', (event) => {
  highlightEdges();
  highlightAdjacentNodes();
});
]]></script>
</svg>
