<?xml version="1.0" encoding="UTF-8" standalone="no"?>
<!DOCTYPE svg PUBLIC "-//W3C//DTD SVG 1.1//EN"
 "http://www.w3.org/Graphics/SVG/1.1/DTD/svg11.dtd">
<!-- Generated by graphviz version 2.43.0 (0)
 -->
<!-- Title: wmtk::MeshCRTP::create_accessor Pages: 1 -->
<svg width="600pt" height="481pt"
 viewBox="0.00 0.00 600.00 481.00" xmlns="http://www.w3.org/2000/svg" xmlns:xlink="http://www.w3.org/1999/xlink">
<g id="graph0" class="graph" transform="scale(1 1) rotate(0) translate(4 477)">
<title>wmtk::MeshCRTP::create_accessor</title>
<!-- Node1 -->
<g id="Node000001" class="node">
<title>Node1</title>
<g id="a_Node000001"><a xlink:title="constructs an accessor that is aware of the derived mesh&#39;s type">
<polygon fill="#999999" stroke="#666666" points="592,-260.5 454,-260.5 454,-230.5 592,-230.5 592,-260.5"/>
<text text-anchor="start" x="462" y="-248.5" font-family="Helvetica,sans-Serif" font-size="10.00">wmtk::MeshCRTP::create</text>
<text text-anchor="middle" x="523" y="-237.5" font-family="Helvetica,sans-Serif" font-size="10.00">_accessor</text>
</a>
</g>
</g>
<!-- Node2 -->
<g id="Node000002" class="node">
<title>Node2</title>
<g id="a_Node000002"><a xlink:href="classwmtk_1_1operations_1_1utils_1_1_update_edge_operation_multi_mesh_map_functor.html#a9b36575024b847b2c0367ced7f1c5caa" target="_top" xlink:title=" ">
<polygon fill="white" stroke="#666666" points="408,-473 227,-473 227,-432 408,-432 408,-473"/>
<text text-anchor="start" x="235" y="-461" font-family="Helvetica,sans-Serif" font-size="10.00">wmtk::operations::utils</text>
<text text-anchor="start" x="235" y="-450" font-family="Helvetica,sans-Serif" font-size="10.00">::UpdateEdgeOperationMultiMesh</text>
<text text-anchor="middle" x="317.5" y="-439" font-family="Helvetica,sans-Serif" font-size="10.00">MapFunctor::operator()</text>
</a>
</g>
</g>
<!-- Node1&#45;&gt;Node2 -->
<g id="edge1_Node000001_Node000002" class="edge">
<title>Node1&#45;&gt;Node2</title>
<g id="a_edge1_Node000001_Node000002"><a xlink:title=" ">
<path fill="none" stroke="#63b8ff" d="M514.11,-270.66C500.68,-309.34 469.71,-383.14 418,-423.5 414.03,-426.6 409.74,-429.37 405.24,-431.84"/>
<polygon fill="#63b8ff" stroke="#63b8ff" points="517.57,-271.34 517.43,-260.74 510.94,-269.11 517.57,-271.34"/>
</a>
</g>
</g>
<!-- Node3 -->
<g id="Node000003" class="node">
<title>Node3</title>
<g id="a_Node000003"><a xlink:href="classwmtk_1_1operations_1_1utils_1_1_update_edge_operation_multi_mesh_map_functor.html#a8784cdae3cf7a6f1ad6b5c361dd8fc03" target="_top" xlink:title=" ">
<polygon fill="white" stroke="#666666" points="408,-414 227,-414 227,-373 408,-373 408,-414"/>
<text text-anchor="start" x="235" y="-402" font-family="Helvetica,sans-Serif" font-size="10.00">wmtk::operations::utils</text>
<text text-anchor="start" x="235" y="-391" font-family="Helvetica,sans-Serif" font-size="10.00">::UpdateEdgeOperationMultiMesh</text>
<text text-anchor="middle" x="317.5" y="-380" font-family="Helvetica,sans-Serif" font-size="10.00">MapFunctor::operator()</text>
</a>
</g>
</g>
<!-- Node1&#45;&gt;Node3 -->
<g id="edge2_Node000001_Node000003" class="edge">
<title>Node1&#45;&gt;Node3</title>
<g id="a_edge2_Node000001_Node000003"><a xlink:title=" ">
<path fill="none" stroke="#63b8ff" d="M507.36,-269.22C489.51,-296.2 456.86,-339.7 418,-364.5 413.07,-367.65 407.79,-370.46 402.32,-372.98"/>
<polygon fill="#63b8ff" stroke="#63b8ff" points="510.34,-271.06 512.83,-260.76 504.46,-267.25 510.34,-271.06"/>
</a>
</g>
</g>
<!-- Node4 -->
<g id="Node000004" class="node">
<title>Node4</title>
<g id="a_Node000004"><a xlink:href="classwmtk_1_1operations_1_1utils_1_1_update_edge_operation_multi_mesh_map_functor.html#a756bab482d580d864f71439794990aac" target="_top" xlink:title=" ">
<polygon fill="white" stroke="#666666" points="408,-355 227,-355 227,-314 408,-314 408,-355"/>
<text text-anchor="start" x="235" y="-343" font-family="Helvetica,sans-Serif" font-size="10.00">wmtk::operations::utils</text>
<text text-anchor="start" x="235" y="-332" font-family="Helvetica,sans-Serif" font-size="10.00">::UpdateEdgeOperationMultiMesh</text>
<text text-anchor="middle" x="317.5" y="-321" font-family="Helvetica,sans-Serif" font-size="10.00">MapFunctor::operator()</text>
</a>
</g>
</g>
<!-- Node1&#45;&gt;Node4 -->
<g id="edge3_Node000001_Node000004" class="edge">
<title>Node1&#45;&gt;Node4</title>
<g id="a_edge3_Node000001_Node000004"><a xlink:title=" ">
<path fill="none" stroke="#63b8ff" d="M490.83,-266.13C470.69,-278.78 443.55,-294.59 418,-305.5 410.88,-308.54 403.35,-311.37 395.74,-313.99"/>
<polygon fill="#63b8ff" stroke="#63b8ff" points="492.73,-269.07 499.29,-260.74 488.97,-263.16 492.73,-269.07"/>
</a>
</g>
</g>
<!-- Node5 -->
<g id="Node000005" class="node">
<title>Node5</title>
<g id="a_Node000005"><a xlink:href="classwmtk_1_1operations_1_1utils_1_1_update_edge_operation_multi_mesh_map_functor.html#aac119196791985369035cec5059809fd" target="_top" xlink:title=" ">
<polygon fill="white" stroke="#666666" points="408,-296 227,-296 227,-255 408,-255 408,-296"/>
<text text-anchor="start" x="235" y="-284" font-family="Helvetica,sans-Serif" font-size="10.00">wmtk::operations::utils</text>
<text text-anchor="start" x="235" y="-273" font-family="Helvetica,sans-Serif" font-size="10.00">::UpdateEdgeOperationMultiMesh</text>
<text text-anchor="middle" x="317.5" y="-262" font-family="Helvetica,sans-Serif" font-size="10.00">MapFunctor::operator()</text>
</a>
</g>
</g>
<!-- Node1&#45;&gt;Node5 -->
<g id="edge4_Node000001_Node000005" class="edge">
<title>Node1&#45;&gt;Node5</title>
<g id="a_edge4_Node000001_Node000005"><a xlink:title=" ">
<path fill="none" stroke="#63b8ff" d="M443.83,-257.02C432.17,-258.74 420.07,-260.53 408.19,-262.28"/>
<polygon fill="#63b8ff" stroke="#63b8ff" points="444.57,-260.45 453.95,-255.53 443.55,-253.53 444.57,-260.45"/>
</a>
</g>
</g>
<!-- Node6 -->
<g id="Node000006" class="node">
<title>Node6</title>
<g id="a_Node000006"><a xlink:href="classwmtk_1_1operations_1_1utils_1_1_update_edge_operation_multi_mesh_map_functor.html#a6f288597493f5914cf6d75e7a8674e70" target="_top" xlink:title=" ">
<polygon fill="white" stroke="#666666" points="408,-237 227,-237 227,-196 408,-196 408,-237"/>
<text text-anchor="start" x="235" y="-225" font-family="Helvetica,sans-Serif" font-size="10.00">wmtk::operations::utils</text>
<text text-anchor="start" x="235" y="-214" font-family="Helvetica,sans-Serif" font-size="10.00">::UpdateEdgeOperationMultiMesh</text>
<text text-anchor="middle" x="317.5" y="-203" font-family="Helvetica,sans-Serif" font-size="10.00">MapFunctor::operator()</text>
</a>
</g>
</g>
<!-- Node1&#45;&gt;Node6 -->
<g id="edge5_Node000001_Node000006" class="edge">
<title>Node1&#45;&gt;Node6</title>
<g id="a_edge5_Node000001_Node000006"><a xlink:title=" ">
<path fill="none" stroke="#63b8ff" d="M443.83,-234.36C432.17,-232.7 420.07,-230.97 408.19,-229.28"/>
<polygon fill="#63b8ff" stroke="#63b8ff" points="443.56,-237.86 453.95,-235.8 444.55,-230.93 443.56,-237.86"/>
</a>
</g>
</g>
<!-- Node7 -->
<g id="Node000007" class="node">
<title>Node7</title>
<g id="a_Node000007"><a xlink:href="namespacewmtk_1_1components.html#ae3a4b32383fdc9c2eb8334cc8ef947a5" target="_top" xlink:title="Perform shortest&#45;edge collapse on a triangular surface mesh.">
<polygon fill="white" stroke="#666666" points="407.5,-177.5 227.5,-177.5 227.5,-147.5 407.5,-147.5 407.5,-177.5"/>
<text text-anchor="start" x="235.5" y="-165.5" font-family="Helvetica,sans-Serif" font-size="10.00">wmtk::components::shortestedge</text>
<text text-anchor="middle" x="317.5" y="-154.5" font-family="Helvetica,sans-Serif" font-size="10.00">_collapse</text>
</a>
</g>
</g>
<!-- Node1&#45;&gt;Node7 -->
<g id="edge6_Node000001_Node000007" class="edge">
<title>Node1&#45;&gt;Node7</title>
<g id="a_edge6_Node000001_Node000007"><a xlink:title=" ">
<path fill="none" stroke="#63b8ff" d="M490.21,-224.89C470.15,-212.62 443.33,-197.54 418,-187.5 408.56,-183.76 398.39,-180.44 388.29,-177.55"/>
<polygon fill="#63b8ff" stroke="#63b8ff" points="488.58,-227.99 498.92,-230.29 492.27,-222.05 488.58,-227.99"/>
</a>
</g>
</g>
<!-- Node9 -->
<g id="Node000009" class="node">
<title>Node9</title>
<g id="a_Node000009"><a xlink:href="classwmtk_1_1operations_1_1utils_1_1_update_edge_operation_multi_mesh_map_functor.html#a572bd6605137e21189ac91b5290af06d" target="_top" xlink:title=" ">
<polygon fill="white" stroke="#666666" points="418,-129 217,-129 217,-88 418,-88 418,-129"/>
<text text-anchor="start" x="225" y="-117" font-family="Helvetica,sans-Serif" font-size="10.00">wmtk::operations::utils</text>
<text text-anchor="start" x="225" y="-106" font-family="Helvetica,sans-Serif" font-size="10.00">::UpdateEdgeOperationMultiMesh</text>
<text text-anchor="middle" x="317.5" y="-95" font-family="Helvetica,sans-Serif" font-size="10.00">MapFunctor::update_ear_replacement</text>
</a>
</g>
</g>
<!-- Node1&#45;&gt;Node9 -->
<g id="edge8_Node000001_Node000009" class="edge">
<title>Node1&#45;&gt;Node9</title>
<g id="a_edge8_Node000001_Node000009"><a xlink:title=" ">
<path fill="none" stroke="#63b8ff" d="M505.08,-222.07C486.37,-197.81 454.08,-160.43 418,-138.5 412.22,-134.99 406,-131.86 399.59,-129.08"/>
<polygon fill="#63b8ff" stroke="#63b8ff" points="502.52,-224.49 511.33,-230.37 508.11,-220.28 502.52,-224.49"/>
</a>
</g>
</g>
<!-- Node10 -->
<g id="Node000010" class="node">
<title>Node10</title>
<g id="a_Node000010"><a xlink:href="classwmtk_1_1operations_1_1utils_1_1_update_edge_operation_multi_mesh_map_functor.html#a4c69338c29bf0105b1881d829a177d45" target="_top" xlink:title=" ">
<polygon fill="white" stroke="#666666" points="418,-70 217,-70 217,-29 418,-29 418,-70"/>
<text text-anchor="start" x="225" y="-58" font-family="Helvetica,sans-Serif" font-size="10.00">wmtk::operations::utils</text>
<text text-anchor="start" x="225" y="-47" font-family="Helvetica,sans-Serif" font-size="10.00">::UpdateEdgeOperationMultiMesh</text>
<text text-anchor="middle" x="317.5" y="-36" font-family="Helvetica,sans-Serif" font-size="10.00">MapFunctor::update_ear_replacement</text>
</a>
</g>
</g>
<!-- Node1&#45;&gt;Node10 -->
<g id="edge9_Node000001_Node000010" class="edge">
<title>Node1&#45;&gt;Node10</title>
<g id="a_edge9_Node000001_Node000010"><a xlink:title=" ">
<path fill="none" stroke="#63b8ff" d="M513.35,-221.06C499.17,-184.54 467.51,-116.04 418,-78.5 413.84,-75.35 409.35,-72.54 404.65,-70.03"/>
<polygon fill="#63b8ff" stroke="#63b8ff" points="510.09,-222.33 516.88,-230.46 516.64,-219.86 510.09,-222.33"/>
</a>
</g>
</g>
<!-- Node8 -->
<g id="Node000008" class="node">
<title>Node8</title>
<g id="a_Node000008"><a xlink:href="namespacewmtk_1_1components.html#a3154cdbc6047eee67258b69cc7d5e7cf" target="_top" xlink:title="Perform shortest&#45;edge collapse on a triangular surface mesh.">
<polygon fill="white" stroke="#666666" points="180.5,-177.5 0.5,-177.5 0.5,-147.5 180.5,-147.5 180.5,-177.5"/>
<text text-anchor="start" x="8.5" y="-165.5" font-family="Helvetica,sans-Serif" font-size="10.00">wmtk::components::shortestedge</text>
<text text-anchor="middle" x="90.5" y="-154.5" font-family="Helvetica,sans-Serif" font-size="10.00">_collapse</text>
</a>
</g>
</g>
<!-- Node7&#45;&gt;Node8 -->
<g id="edge7_Node000007_Node000008" class="edge">
<title>Node7&#45;&gt;Node8</title>
<g id="a_edge7_Node000007_Node000008"><a xlink:title=" ">
<path fill="none" stroke="#63b8ff" d="M217.11,-162.5C204.97,-162.5 192.62,-162.5 180.64,-162.5"/>
<polygon fill="#63b8ff" stroke="#63b8ff" points="217.25,-166 227.25,-162.5 217.25,-159 217.25,-166"/>
</a>
</g>
</g>
<!-- Node11 -->
<g id="Node000011" class="node">
<title>Node11</title>
<g id="a_Node000011"><a xlink:href="classwmtk_1_1operations_1_1utils_1_1_update_edge_operation_multi_mesh_map_functor.html#a6f3a220b85044a73d43a4c124d099bbc" target="_top" xlink:title=" ">
<polygon fill="white" stroke="#666666" points="181,-100 0,-100 0,-59 181,-59 181,-100"/>
<text text-anchor="start" x="8" y="-88" font-family="Helvetica,sans-Serif" font-size="10.00">wmtk::operations::utils</text>
<text text-anchor="start" x="8" y="-77" font-family="Helvetica,sans-Serif" font-size="10.00">::UpdateEdgeOperationMultiMesh</text>
<text text-anchor="middle" x="90.5" y="-66" font-family="Helvetica,sans-Serif" font-size="10.00">MapFunctor::operator()</text>
</a>
</g>
</g>
<!-- Node10&#45;&gt;Node11 -->
<g id="edge10_Node000010_Node000011" class="edge">
<title>Node10&#45;&gt;Node11</title>
<g id="a_edge10_Node000010_Node000011"><a xlink:title=" ">
<path fill="none" stroke="#63b8ff" d="M206.78,-64.13C198.2,-65.27 189.6,-66.42 181.17,-67.54"/>
<polygon fill="#63b8ff" stroke="#63b8ff" points="207.38,-67.58 216.83,-62.79 206.45,-60.64 207.38,-67.58"/>
</a>
</g>
</g>
<!-- Node12 -->
<g id="Node000012" class="node">
<title>Node12</title>
<g id="a_Node000012"><a xlink:href="classwmtk_1_1operations_1_1utils_1_1_update_edge_operation_multi_mesh_map_functor.html#a57611fefa85bea3d1858ca385b0f350a" target="_top" xlink:title=" ">
<polygon fill="white" stroke="#666666" points="181,-41 0,-41 0,0 181,0 181,-41"/>
<text text-anchor="start" x="8" y="-29" font-family="Helvetica,sans-Serif" font-size="10.00">wmtk::operations::utils</text>
<text text-anchor="start" x="8" y="-18" font-family="Helvetica,sans-Serif" font-size="10.00">::UpdateEdgeOperationMultiMesh</text>
<text text-anchor="middle" x="90.5" y="-7" font-family="Helvetica,sans-Serif" font-size="10.00">MapFunctor::operator()</text>
</a>
</g>
</g>
<!-- Node10&#45;&gt;Node12 -->
<g id="edge11_Node000010_Node000012" class="edge">
<title>Node10&#45;&gt;Node12</title>
<g id="a_edge11_Node000010_Node000012"><a xlink:title=" ">
<path fill="none" stroke="#63b8ff" d="M206.78,-35.36C198.2,-34.25 189.6,-33.14 181.17,-32.06"/>
<polygon fill="#63b8ff" stroke="#63b8ff" points="206.46,-38.85 216.83,-36.65 207.36,-31.9 206.46,-38.85"/>
</a>
</g>
</g>
</g>
</svg>
