<?xml version="1.0" encoding="UTF-8" standalone="no"?>
<!DOCTYPE svg PUBLIC "-//W3C//DTD SVG 1.1//EN"
 "http://www.w3.org/Graphics/SVG/1.1/DTD/svg11.dtd">
<!-- Generated by graphviz version 2.43.0 (0)
 -->
<!-- Title: wmtk::EdgeMesh::EdgeMeshOperationExecutor::get_split_simplices_to_delete Pages: 1 -->
<svg width="676pt" height="49pt"
 viewBox="0.00 0.00 676.00 49.00" xmlns="http://www.w3.org/2000/svg" xmlns:xlink="http://www.w3.org/1999/xlink">
<g id="graph0" class="graph" transform="scale(1 1) rotate(0) translate(4 45)">
<title>wmtk::EdgeMesh::EdgeMeshOperationExecutor::get_split_simplices_to_delete</title>
<!-- Node1 -->
<g id="Node000001" class="node">
<title>Node1</title>
<g id="a_Node000001"><a xlink:title="gather all simplices that are deleted in a split">
<polygon fill="#999999" stroke="#666666" points="157,-41 0,-41 0,0 157,0 157,-41"/>
<text text-anchor="start" x="8" y="-29" font-family="Helvetica,sans-Serif" font-size="10.00">wmtk::EdgeMesh::EdgeMesh</text>
<text text-anchor="start" x="8" y="-18" font-family="Helvetica,sans-Serif" font-size="10.00">OperationExecutor::get</text>
<text text-anchor="middle" x="78.5" y="-7" font-family="Helvetica,sans-Serif" font-size="10.00">_split_simplices_to_delete</text>
</a>
</g>
</g>
<!-- Node2 -->
<g id="Node000002" class="node">
<title>Node2</title>
<g id="a_Node000002"><a xlink:href="classwmtk_1_1_edge_mesh.html#a2a37ed6f60cad4f5b841670470f01660" target="_top" xlink:title=" ">
<polygon fill="white" stroke="#666666" points="338,-30 193,-30 193,-11 338,-11 338,-30"/>
<text text-anchor="middle" x="265.5" y="-18" font-family="Helvetica,sans-Serif" font-size="10.00">wmtk::EdgeMesh::id_edge</text>
</a>
</g>
</g>
<!-- Node1&#45;&gt;Node2 -->
<g id="edge1_Node000001_Node000002" class="edge">
<title>Node1&#45;&gt;Node2</title>
<g id="a_edge1_Node000001_Node000002"><a xlink:title=" ">
<path fill="none" stroke="#63b8ff" d="M157.15,-20.5C165.59,-20.5 174.19,-20.5 182.68,-20.5"/>
<polygon fill="#63b8ff" stroke="#63b8ff" points="182.95,-24 192.95,-20.5 182.95,-17 182.95,-24"/>
</a>
</g>
</g>
<!-- Node3 -->
<g id="Node000003" class="node">
<title>Node3</title>
<g id="a_Node000003"><a xlink:href="classwmtk_1_1_edge_mesh.html#a34530ca80c07ae67ffe601c2b8f22e3e" target="_top" xlink:title=" ">
<polygon fill="white" stroke="#666666" points="490,-30 374,-30 374,-11 490,-11 490,-30"/>
<text text-anchor="middle" x="432" y="-18" font-family="Helvetica,sans-Serif" font-size="10.00">wmtk::EdgeMesh::id</text>
</a>
</g>
</g>
<!-- Node2&#45;&gt;Node3 -->
<g id="edge2_Node000002_Node000003" class="edge">
<title>Node2&#45;&gt;Node3</title>
<g id="a_edge2_Node000002_Node000003"><a xlink:title=" ">
<path fill="none" stroke="#63b8ff" d="M338.17,-20.5C346.67,-20.5 355.32,-20.5 363.75,-20.5"/>
<polygon fill="#63b8ff" stroke="#63b8ff" points="363.9,-24 373.9,-20.5 363.9,-17 363.9,-24"/>
</a>
</g>
</g>
<!-- Node4 -->
<g id="Node000004" class="node">
<title>Node4</title>
<g id="a_Node000004"><a xlink:href="classwmtk_1_1attribute_1_1_accessor.html#a4b89ff4381fe73d4827b663203a964fc" target="_top" xlink:title=" ">
<polygon fill="white" stroke="#666666" points="668,-35.5 526,-35.5 526,-5.5 668,-5.5 668,-35.5"/>
<text text-anchor="start" x="534" y="-23.5" font-family="Helvetica,sans-Serif" font-size="10.00">wmtk::attribute::Accessor</text>
<text text-anchor="middle" x="597" y="-12.5" font-family="Helvetica,sans-Serif" font-size="10.00">::const_vector_attribute</text>
</a>
</g>
</g>
<!-- Node3&#45;&gt;Node4 -->
<g id="edge3_Node000003_Node000004" class="edge">
<title>Node3&#45;&gt;Node4</title>
<g id="a_edge3_Node000003_Node000004"><a xlink:title=" ">
<path fill="none" stroke="#63b8ff" d="M490.01,-20.5C498.32,-20.5 507.01,-20.5 515.68,-20.5"/>
<polygon fill="#63b8ff" stroke="#63b8ff" points="515.83,-24 525.83,-20.5 515.83,-17 515.83,-24"/>
</a>
</g>
</g>
</g>
</svg>
