<?xml version="1.0" encoding="UTF-8" standalone="no"?>
<!DOCTYPE svg PUBLIC "-//W3C//DTD SVG 1.1//EN"
 "http://www.w3.org/Graphics/SVG/1.1/DTD/svg11.dtd">
<!-- Generated by graphviz version 2.43.0 (0)
 -->
<!-- Title: wmtk::Mesh::parent_scope Pages: 1 -->
<!--zoomable 941 -->

<svg id="main" version="1.1" xmlns="http://www.w3.org/2000/svg" xmlns:xlink="http://www.w3.org/1999/xlink" xml:space="preserve" onload="init(evt)">
<style type="text/css"><![CDATA[
.node, .edge {opacity: 0.7;}
.node.selected, .edge.selected {opacity: 1;}
.edge:hover path { stroke: red; }
.edge:hover polygon { stroke: red; fill: red; }
]]></style>

<defs>
  <circle id="rim" cx="0" cy="0" r="7"/>
  <circle id="rim2" cx="0" cy="0" r="3.5"/>
  <g id="zoomPlus">
    <use xlink:href="#rim" fill="#404040"><set attributeName="fill" to="#808080" begin="zoomplus.mouseover" end="zoomplus.mouseout"/></use>
    <path d="M-4,0h8M0,-4v8" fill="none" stroke="white" stroke-width="1.5" pointer-events="none"/>
  </g>
  <g id="zoomMin">
    <use xlink:href="#rim" fill="#404040"><set attributeName="fill" to="#808080" begin="zoomminus.mouseover" end="zoomminus.mouseout"/></use>
    <path d="M-4,0h8" fill="none" stroke="white" stroke-width="1.5" pointer-events="none"/>
  </g>
  <g id="arrowUp" transform="translate(30 24)">
    <use xlink:href="#rim"/>
    <path pointer-events="none" fill="none" stroke="white" stroke-width="1.5" d="M0,-3.0v7 M-2.5,-0.5L0,-3.0L2.5,-0.5"/>
  </g>
  <g id="arrowRight" transform="rotate(90) translate(36 -43)">
    <use xlink:href="#rim"/>
    <path pointer-events="none" fill="none" stroke="white" stroke-width="1.5" d="M0,-3.0v7 M-2.5,-0.5L0,-3.0L2.5,-0.5"/>
  </g>
  <g id="arrowDown" transform="rotate(180) translate(-30 -48)">
    <use xlink:href="#rim"/>
    <path pointer-events="none" fill="none" stroke="white" stroke-width="1.5" d="M0,-3.0v7 M-2.5,-0.5L0,-3.0L2.5,-0.5"/>
  </g>
  <g id="arrowLeft" transform="rotate(270) translate(-36 17)">
    <use xlink:href="#rim"/>
    <path pointer-events="none" fill="none" stroke="white" stroke-width="1.5" d="M0,-3.0v7 M-2.5,-0.5L0,-3.0L2.5,-0.5"/>
  </g>
  <g id="resetDef">
    <use xlink:href="#rim2" fill="#404040"><set attributeName="fill" to="#808080" begin="reset.mouseover" end="reset.mouseout"/></use>
  </g>
</defs>
<script type="application/ecmascript">
var viewWidth = 813;
var viewHeight = 941;
var sectionId = 'dynsection-112';
</script>
<script type="application/ecmascript" xlink:href="svg.min.js"/>
<svg id="graph" class="graph">
<g id="viewport">
<title>wmtk::Mesh::parent_scope</title>
<!-- Node1 -->
<g id="Node000001" class="node">
<title>Node1</title>
<g id="a_Node000001"><a xlink:title="Evaluate the passed in function inside the parent scope.">
<polygon fill="#999999" stroke="#666666" points="805,-473.5 691,-473.5 691,-443.5 805,-443.5 805,-473.5"/>
<text text-anchor="start" x="699" y="-461.5" font-family="Helvetica,sans-Serif" font-size="10.00">wmtk::Mesh::parent</text>
<text text-anchor="middle" x="748" y="-450.5" font-family="Helvetica,sans-Serif" font-size="10.00">_scope</text>
</a>
</g>
</g>
<!-- Node2 -->
<g id="Node000002" class="node">
<title>Node2</title>
<g id="a_Node000002"><a xlink:href="classwmtk_1_1invariants_1_1_function_invariant.html#a7f10adfd6785666e6531cc7909b2a274" target="_top" xlink:title=" ">
<polygon fill="white" stroke="#666666" points="627.5,-914.5 481.5,-914.5 481.5,-884.5 627.5,-884.5 627.5,-914.5"/>
<text text-anchor="start" x="489.5" y="-902.5" font-family="Helvetica,sans-Serif" font-size="10.00">wmtk::invariants::Function</text>
<text text-anchor="middle" x="554.5" y="-891.5" font-family="Helvetica,sans-Serif" font-size="10.00">Invariant::after</text>
</a>
</g>
</g>
<!-- Node1&#45;&gt;Node2 -->
<g id="edge1_Node000001_Node000002" class="edge">
<title>Node1&#45;&gt;Node2</title>
<g id="a_edge1_Node000001_Node000002"><a xlink:title=" ">
<path fill="none" stroke="#63b8ff" d="M744.86,-483.99C737.5,-565.67 710.53,-818.88 655,-875.5 647.41,-883.24 637.79,-888.65 627.53,-892.41"/>
<polygon fill="#63b8ff" stroke="#63b8ff" points="748.38,-483.91 745.77,-473.64 741.41,-483.29 748.38,-483.91"/>
</a>
</g>
</g>
<!-- Node3 -->
<g id="Node000003" class="node">
<title>Node3</title>
<g id="a_Node000003"><a xlink:href="classwmtk_1_1invariants_1_1_invariant_collection.html#a8ca33e950e39423425248ba8d25b3dca" target="_top" xlink:title=" ">
<polygon fill="white" stroke="#666666" points="629,-866.5 480,-866.5 480,-836.5 629,-836.5 629,-866.5"/>
<text text-anchor="start" x="488" y="-854.5" font-family="Helvetica,sans-Serif" font-size="10.00">wmtk::invariants::Invariant</text>
<text text-anchor="middle" x="554.5" y="-843.5" font-family="Helvetica,sans-Serif" font-size="10.00">Collection::after</text>
</a>
</g>
</g>
<!-- Node1&#45;&gt;Node3 -->
<g id="edge3_Node000001_Node000003" class="edge">
<title>Node1&#45;&gt;Node3</title>
<g id="a_edge3_Node000001_Node000003"><a xlink:title=" ">
<path fill="none" stroke="#63b8ff" d="M744.13,-483.52C735.05,-558.34 704.58,-778.3 655,-827.5 647.75,-834.7 638.73,-839.87 629.11,-843.57"/>
<polygon fill="#63b8ff" stroke="#63b8ff" points="747.61,-483.91 745.32,-473.57 740.66,-483.08 747.61,-483.91"/>
</a>
</g>
</g>
<!-- Node5 -->
<g id="Node000005" class="node">
<title>Node5</title>
<g id="a_Node000005"><a xlink:href="classwmtk_1_1invariants_1_1_max_function_invariant.html#a1b7bbbbc2040253d110ed100054c9cb4" target="_top" xlink:title=" ">
<polygon fill="white" stroke="#666666" points="638,-800.5 471,-800.5 471,-770.5 638,-770.5 638,-800.5"/>
<text text-anchor="start" x="479" y="-788.5" font-family="Helvetica,sans-Serif" font-size="10.00">wmtk::invariants::MaxFunction</text>
<text text-anchor="middle" x="554.5" y="-777.5" font-family="Helvetica,sans-Serif" font-size="10.00">Invariant::after</text>
</a>
</g>
</g>
<!-- Node1&#45;&gt;Node5 -->
<g id="edge5_Node000001_Node000005" class="edge">
<title>Node1&#45;&gt;Node5</title>
<g id="a_edge5_Node000001_Node000005"><a xlink:title=" ">
<path fill="none" stroke="#63b8ff" d="M747.22,-483.91C746.25,-542.06 735.39,-685.65 655,-761.5 650.09,-766.13 644.44,-769.92 638.39,-773.01"/>
<polygon fill="#63b8ff" stroke="#63b8ff" points="750.72,-483.8 747.29,-473.77 743.72,-483.74 750.72,-483.8"/>
</a>
</g>
</g>
<!-- Node6 -->
<g id="Node000006" class="node">
<title>Node6</title>
<g id="a_Node000006"><a xlink:href="classwmtk_1_1invariants_1_1_invariant.html#a09dcf6e3fa8f371321c5393960972a43" target="_top" xlink:title=" ">
<polygon fill="white" stroke="#666666" points="629,-752.5 480,-752.5 480,-722.5 629,-722.5 629,-752.5"/>
<text text-anchor="start" x="488" y="-740.5" font-family="Helvetica,sans-Serif" font-size="10.00">wmtk::invariants::Invariant</text>
<text text-anchor="middle" x="554.5" y="-729.5" font-family="Helvetica,sans-Serif" font-size="10.00">::directly_modified_after</text>
</a>
</g>
</g>
<!-- Node1&#45;&gt;Node6 -->
<g id="edge7_Node000001_Node000006" class="edge">
<title>Node1&#45;&gt;Node6</title>
<g id="a_edge7_Node000001_Node000006"><a xlink:title=" ">
<path fill="none" stroke="#63b8ff" d="M745.54,-483.73C741.15,-535.04 723.74,-651.91 655,-713.5 647.59,-720.14 638.66,-725.02 629.23,-728.6"/>
<polygon fill="#63b8ff" stroke="#63b8ff" points="749.04,-483.77 746.31,-473.54 742.06,-483.25 749.04,-483.77"/>
</a>
</g>
</g>
<!-- Node7 -->
<g id="Node000007" class="node">
<title>Node7</title>
<g id="a_Node000007"><a xlink:href="classwmtk_1_1invariants_1_1_invariant_collection.html#a120325711274b7754c4b6ae6b12151c9" target="_top" xlink:title=" ">
<polygon fill="white" stroke="#666666" points="646.5,-704.5 462.5,-704.5 462.5,-674.5 646.5,-674.5 646.5,-704.5"/>
<text text-anchor="start" x="470.5" y="-692.5" font-family="Helvetica,sans-Serif" font-size="10.00">wmtk::invariants::Invariant</text>
<text text-anchor="middle" x="554.5" y="-681.5" font-family="Helvetica,sans-Serif" font-size="10.00">Collection::directly_modified_after</text>
</a>
</g>
</g>
<!-- Node1&#45;&gt;Node7 -->
<g id="edge8_Node000001_Node000007" class="edge">
<title>Node1&#45;&gt;Node7</title>
<g id="a_edge8_Node000001_Node000007"><a xlink:title=" ">
<path fill="none" stroke="#63b8ff" d="M743.13,-483.85C735.03,-527.78 712.1,-617.93 655,-665.5 650.9,-668.91 646.4,-671.85 641.64,-674.39"/>
<polygon fill="#63b8ff" stroke="#63b8ff" points="746.62,-484.18 744.88,-473.73 739.72,-482.99 746.62,-484.18"/>
</a>
</g>
</g>
<!-- Node11 -->
<g id="Node000011" class="node">
<title>Node11</title>
<g id="a_Node000011"><a xlink:href="classwmtk_1_1operations_1_1edge__mesh_1_1_split_new_attribute_topo_info.html#a8e9e1fb7ca8656fb98295b118a54b909" target="_top" xlink:title=" ">
<polygon fill="white" stroke="#666666" points="636.5,-656 472.5,-656 472.5,-615 636.5,-615 636.5,-656"/>
<text text-anchor="start" x="480.5" y="-644" font-family="Helvetica,sans-Serif" font-size="10.00">wmtk::operations::edge</text>
<text text-anchor="start" x="480.5" y="-633" font-family="Helvetica,sans-Serif" font-size="10.00">_mesh::SplitNewAttributeTopo</text>
<text text-anchor="middle" x="554.5" y="-622" font-family="Helvetica,sans-Serif" font-size="10.00">Info::input_ear_simplices</text>
</a>
</g>
</g>
<!-- Node1&#45;&gt;Node11 -->
<g id="edge12_Node000001_Node000011" class="edge">
<title>Node1&#45;&gt;Node11</title>
<g id="a_edge12_Node000001_Node000011"><a xlink:title=" ">
<path fill="none" stroke="#63b8ff" d="M738.25,-482.99C725.22,-515.96 697.59,-574.18 655,-606.5 649.41,-610.74 643.21,-614.36 636.73,-617.46"/>
<polygon fill="#63b8ff" stroke="#63b8ff" points="741.53,-484.22 741.82,-473.63 734.99,-481.72 741.53,-484.22"/>
</a>
</g>
</g>
<!-- Node12 -->
<g id="Node000012" class="node">
<title>Node12</title>
<g id="a_Node000012"><a xlink:href="classwmtk_1_1operations_1_1tet__mesh_1_1_split_new_attribute_topo_info.html#a89bd25c4ffb57ea07683a822dc5aae05" target="_top" xlink:title=" ">
<polygon fill="white" stroke="#666666" points="636.5,-597 472.5,-597 472.5,-556 636.5,-556 636.5,-597"/>
<text text-anchor="start" x="480.5" y="-585" font-family="Helvetica,sans-Serif" font-size="10.00">wmtk::operations::tet</text>
<text text-anchor="start" x="480.5" y="-574" font-family="Helvetica,sans-Serif" font-size="10.00">_mesh::SplitNewAttributeTopo</text>
<text text-anchor="middle" x="554.5" y="-563" font-family="Helvetica,sans-Serif" font-size="10.00">Info::input_ear_simplices</text>
</a>
</g>
</g>
<!-- Node1&#45;&gt;Node12 -->
<g id="edge13_Node000001_Node000012" class="edge">
<title>Node1&#45;&gt;Node12</title>
<g id="a_edge13_Node000001_Node000012"><a xlink:title=" ">
<path fill="none" stroke="#63b8ff" d="M728.85,-481.52C711.81,-501.67 684.56,-530.33 655,-547.5 649.24,-550.84 643.07,-553.83 636.73,-556.48"/>
<polygon fill="#63b8ff" stroke="#63b8ff" points="731.62,-483.66 735.3,-473.73 726.23,-479.2 731.62,-483.66"/>
</a>
</g>
</g>
<!-- Node13 -->
<g id="Node000013" class="node">
<title>Node13</title>
<g id="a_Node000013"><a xlink:href="classwmtk_1_1operations_1_1tri__mesh_1_1_split_new_attribute_topo_info.html#a5f44117bceeaae70d0c4b87f7db7af0a" target="_top" xlink:title=" ">
<polygon fill="white" stroke="#666666" points="636.5,-538 472.5,-538 472.5,-497 636.5,-497 636.5,-538"/>
<text text-anchor="start" x="480.5" y="-526" font-family="Helvetica,sans-Serif" font-size="10.00">wmtk::operations::tri</text>
<text text-anchor="start" x="480.5" y="-515" font-family="Helvetica,sans-Serif" font-size="10.00">_mesh::SplitNewAttributeTopo</text>
<text text-anchor="middle" x="554.5" y="-504" font-family="Helvetica,sans-Serif" font-size="10.00">Info::input_ear_simplices</text>
</a>
</g>
</g>
<!-- Node1&#45;&gt;Node13 -->
<g id="edge14_Node000001_Node000013" class="edge">
<title>Node1&#45;&gt;Node13</title>
<g id="a_edge14_Node000001_Node000013"><a xlink:title=" ">
<path fill="none" stroke="#63b8ff" d="M692.1,-476.72C679.91,-480.67 667.03,-484.79 655,-488.5 645.97,-491.29 636.47,-494.15 627.05,-496.94"/>
<polygon fill="#63b8ff" stroke="#63b8ff" points="693.28,-480.01 701.7,-473.59 691.11,-473.36 693.28,-480.01"/>
</a>
</g>
</g>
<!-- Node14 -->
<g id="Node000014" class="node">
<title>Node14</title>
<g id="a_Node000014"><a xlink:href="classwmtk_1_1operations_1_1edge__mesh_1_1_collapse_new_attribute_topo_info.html#a31c7178dc84390c7c693f4294a8f0f26" target="_top" xlink:title=" ">
<polygon fill="white" stroke="#666666" points="646.5,-479 462.5,-479 462.5,-438 646.5,-438 646.5,-479"/>
<text text-anchor="start" x="470.5" y="-467" font-family="Helvetica,sans-Serif" font-size="10.00">wmtk::operations::edge</text>
<text text-anchor="start" x="470.5" y="-456" font-family="Helvetica,sans-Serif" font-size="10.00">_mesh::CollapseNewAttributeTopo</text>
<text text-anchor="middle" x="554.5" y="-445" font-family="Helvetica,sans-Serif" font-size="10.00">Info::merged_simplices</text>
</a>
</g>
</g>
<!-- Node1&#45;&gt;Node14 -->
<g id="edge15_Node000001_Node000014" class="edge">
<title>Node1&#45;&gt;Node14</title>
<g id="a_edge15_Node000001_Node000014"><a xlink:title=" ">
<path fill="none" stroke="#63b8ff" d="M680.52,-458.5C669.55,-458.5 658.02,-458.5 646.57,-458.5"/>
<polygon fill="#63b8ff" stroke="#63b8ff" points="680.84,-462 690.84,-458.5 680.84,-455 680.84,-462"/>
</a>
</g>
</g>
<!-- Node15 -->
<g id="Node000015" class="node">
<title>Node15</title>
<g id="a_Node000015"><a xlink:href="classwmtk_1_1operations_1_1tet__mesh_1_1_collapse_new_attribute_topo_info.html#a9f0532f826f70f51e8b5a9a2275e426b" target="_top" xlink:title=" ">
<polygon fill="white" stroke="#666666" points="635,-420 474,-420 474,-379 635,-379 635,-420"/>
<text text-anchor="start" x="482" y="-408" font-family="Helvetica,sans-Serif" font-size="10.00">wmtk::operations::tet</text>
<text text-anchor="start" x="482" y="-397" font-family="Helvetica,sans-Serif" font-size="10.00">_mesh::CollapseNewAttribute</text>
<text text-anchor="middle" x="554.5" y="-386" font-family="Helvetica,sans-Serif" font-size="10.00">TopoInfo::merged_simplices</text>
</a>
</g>
</g>
<!-- Node1&#45;&gt;Node15 -->
<g id="edge16_Node000001_Node000015" class="edge">
<title>Node1&#45;&gt;Node15</title>
<g id="a_edge16_Node000001_Node000015"><a xlink:title=" ">
<path fill="none" stroke="#63b8ff" d="M690.15,-440.46C678.53,-436.8 666.38,-433.01 655,-429.5 645,-426.42 634.42,-423.19 624.05,-420.04"/>
<polygon fill="#63b8ff" stroke="#63b8ff" points="689.17,-443.82 699.76,-443.48 691.27,-437.14 689.17,-443.82"/>
</a>
</g>
</g>
<!-- Node16 -->
<g id="Node000016" class="node">
<title>Node16</title>
<g id="a_Node000016"><a xlink:href="classwmtk_1_1operations_1_1tri__mesh_1_1_collapse_new_attribute_topo_info.html#ad62f4f6e69a6bb038ae1cfd3021e8f4a" target="_top" xlink:title=" ">
<polygon fill="white" stroke="#666666" points="635,-361 474,-361 474,-320 635,-320 635,-361"/>
<text text-anchor="start" x="482" y="-349" font-family="Helvetica,sans-Serif" font-size="10.00">wmtk::operations::tri</text>
<text text-anchor="start" x="482" y="-338" font-family="Helvetica,sans-Serif" font-size="10.00">_mesh::CollapseNewAttribute</text>
<text text-anchor="middle" x="554.5" y="-327" font-family="Helvetica,sans-Serif" font-size="10.00">TopoInfo::merged_simplices</text>
</a>
</g>
</g>
<!-- Node1&#45;&gt;Node16 -->
<g id="edge17_Node000001_Node000016" class="edge">
<title>Node1&#45;&gt;Node16</title>
<g id="a_edge17_Node000001_Node000016"><a xlink:title=" ">
<path fill="none" stroke="#63b8ff" d="M728.76,-435.81C711.65,-415.94 684.37,-387.63 655,-370.5 648.77,-366.86 642.05,-363.63 635.16,-360.77"/>
<polygon fill="#63b8ff" stroke="#63b8ff" points="726.11,-438.1 735.23,-443.5 731.47,-433.59 726.11,-438.1"/>
</a>
</g>
</g>
<!-- Node17 -->
<g id="Node000017" class="node">
<title>Node17</title>
<g id="a_Node000017"><a xlink:href="classwmtk_1_1operations_1_1_collapse_new_attribute_strategy.html#af0bf0b5d09ece987dcb12d524729bd1d" target="_top" xlink:title=" ">
<polygon fill="white" stroke="#666666" points="632,-301.5 477,-301.5 477,-271.5 632,-271.5 632,-301.5"/>
<text text-anchor="start" x="485" y="-289.5" font-family="Helvetica,sans-Serif" font-size="10.00">wmtk::operations::Collapse</text>
<text text-anchor="middle" x="554.5" y="-278.5" font-family="Helvetica,sans-Serif" font-size="10.00">NewAttributeStrategy::mesh</text>
</a>
</g>
</g>
<!-- Node1&#45;&gt;Node17 -->
<g id="edge18_Node000001_Node000017" class="edge">
<title>Node1&#45;&gt;Node17</title>
<g id="a_edge18_Node000001_Node000017"><a xlink:title=" ">
<path fill="none" stroke="#63b8ff" d="M738.37,-433.94C725.49,-400.93 698.03,-342.8 655,-311.5 648.09,-306.47 640.27,-302.45 632.13,-299.23"/>
<polygon fill="#63b8ff" stroke="#63b8ff" points="735.11,-435.2 741.91,-443.32 741.66,-432.73 735.11,-435.2"/>
</a>
</g>
</g>
<!-- Node18 -->
<g id="Node000018" class="node">
<title>Node18</title>
<g id="a_Node000018"><a xlink:href="classwmtk_1_1operations_1_1edge__mesh_1_1_split_new_attribute_topo_info.html#a6d406c5b3e9d175a141559eba809f818" target="_top" xlink:title=" ">
<polygon fill="white" stroke="#666666" points="636.5,-253 472.5,-253 472.5,-212 636.5,-212 636.5,-253"/>
<text text-anchor="start" x="480.5" y="-241" font-family="Helvetica,sans-Serif" font-size="10.00">wmtk::operations::edge</text>
<text text-anchor="start" x="480.5" y="-230" font-family="Helvetica,sans-Serif" font-size="10.00">_mesh::SplitNewAttributeTopo</text>
<text text-anchor="middle" x="554.5" y="-219" font-family="Helvetica,sans-Serif" font-size="10.00">Info::output_split_simplices</text>
</a>
</g>
</g>
<!-- Node1&#45;&gt;Node18 -->
<g id="edge19_Node000001_Node000018" class="edge">
<title>Node1&#45;&gt;Node18</title>
<g id="a_edge19_Node000001_Node000018"><a xlink:title=" ">
<path fill="none" stroke="#63b8ff" d="M742.18,-433.61C732.82,-392.03 708.26,-308.5 655,-262.5 649.54,-257.78 643.35,-253.81 636.81,-250.46"/>
<polygon fill="#63b8ff" stroke="#63b8ff" points="738.77,-434.41 744.28,-443.46 745.61,-432.95 738.77,-434.41"/>
</a>
</g>
</g>
<!-- Node19 -->
<g id="Node000019" class="node">
<title>Node19</title>
<g id="a_Node000019"><a xlink:href="classwmtk_1_1operations_1_1_edge_collapse.html#a15f338a3463830f470ea1cc408257067" target="_top" xlink:title="Returns all simplices that will be potentially affected by the operation.">
<polygon fill="white" stroke="#666666" points="641.5,-193.5 467.5,-193.5 467.5,-163.5 641.5,-163.5 641.5,-193.5"/>
<text text-anchor="start" x="475.5" y="-181.5" font-family="Helvetica,sans-Serif" font-size="10.00">wmtk::operations::EdgeCollapse</text>
<text text-anchor="middle" x="554.5" y="-170.5" font-family="Helvetica,sans-Serif" font-size="10.00">::unmodified_primitives</text>
</a>
</g>
</g>
<!-- Node1&#45;&gt;Node19 -->
<g id="edge20_Node000001_Node000019" class="edge">
<title>Node1&#45;&gt;Node19</title>
<g id="a_edge20_Node000001_Node000019"><a xlink:title=" ">
<path fill="none" stroke="#63b8ff" d="M745.49,-433.33C741.02,-382.12 723.45,-265.42 655,-203.5 650.77,-199.68 646.05,-196.42 641.02,-193.64"/>
<polygon fill="#63b8ff" stroke="#63b8ff" points="742.01,-433.8 746.28,-443.5 748.99,-433.26 742.01,-433.8"/>
</a>
</g>
</g>
<!-- Node20 -->
<g id="Node000020" class="node">
<title>Node20</title>
<g id="a_Node000020"><a xlink:href="classwmtk_1_1operations_1_1utils_1_1_update_edge_operation_multi_mesh_map_functor.html#a572bd6605137e21189ac91b5290af06d" target="_top" xlink:title=" ">
<polygon fill="white" stroke="#666666" points="655,-145 454,-145 454,-104 655,-104 655,-145"/>
<text text-anchor="start" x="462" y="-133" font-family="Helvetica,sans-Serif" font-size="10.00">wmtk::operations::utils</text>
<text text-anchor="start" x="462" y="-122" font-family="Helvetica,sans-Serif" font-size="10.00">::UpdateEdgeOperationMultiMesh</text>
<text text-anchor="middle" x="554.5" y="-111" font-family="Helvetica,sans-Serif" font-size="10.00">MapFunctor::update_ear_replacement</text>
</a>
</g>
</g>
<!-- Node1&#45;&gt;Node20 -->
<g id="edge21_Node000001_Node000020" class="edge">
<title>Node1&#45;&gt;Node20</title>
<g id="a_edge21_Node000001_Node000020"><a xlink:title=" ">
<path fill="none" stroke="#63b8ff" d="M746.94,-433.32C745.41,-375.63 733.43,-232.85 655,-154.5 651.43,-150.93 647.44,-147.78 643.18,-145.01"/>
<polygon fill="#63b8ff" stroke="#63b8ff" points="743.45,-433.44 747.12,-443.37 750.44,-433.31 743.45,-433.44"/>
</a>
</g>
</g>
<!-- Node21 -->
<g id="Node000021" class="node">
<title>Node21</title>
<g id="a_Node000021"><a xlink:href="classwmtk_1_1operations_1_1utils_1_1_update_edge_operation_multi_mesh_map_functor.html#a4c69338c29bf0105b1881d829a177d45" target="_top" xlink:title=" ">
<polygon fill="white" stroke="#666666" points="418,-100 217,-100 217,-59 418,-59 418,-100"/>
<text text-anchor="start" x="225" y="-88" font-family="Helvetica,sans-Serif" font-size="10.00">wmtk::operations::utils</text>
<text text-anchor="start" x="225" y="-77" font-family="Helvetica,sans-Serif" font-size="10.00">::UpdateEdgeOperationMultiMesh</text>
<text text-anchor="middle" x="317.5" y="-66" font-family="Helvetica,sans-Serif" font-size="10.00">MapFunctor::update_ear_replacement</text>
</a>
</g>
</g>
<!-- Node1&#45;&gt;Node21 -->
<g id="edge22_Node000001_Node000021" class="edge">
<title>Node1&#45;&gt;Node21</title>
<g id="a_edge22_Node000001_Node000021"><a xlink:title=" ">
<path fill="none" stroke="#63b8ff" d="M744.46,-433.45C736.33,-358.59 708.26,-139.02 655,-95.5 619.96,-66.87 504.32,-67 418.33,-71.59"/>
<polygon fill="#63b8ff" stroke="#63b8ff" points="740.98,-433.83 745.52,-443.41 747.95,-433.09 740.98,-433.83"/>
</a>
</g>
</g>
<!-- Node24 -->
<g id="Node000024" class="node">
<title>Node24</title>
<g id="a_Node000024"><a xlink:href="classwmtk_1_1multimesh_1_1_multi_mesh_manager.html#a976fa18136619f216426b4fdbeabac38" target="_top" xlink:title=" ">
<polygon fill="white" stroke="#666666" points="652.5,-43.5 456.5,-43.5 456.5,-13.5 652.5,-13.5 652.5,-43.5"/>
<text text-anchor="start" x="464.5" y="-31.5" font-family="Helvetica,sans-Serif" font-size="10.00">wmtk::multimesh::MultiMesh</text>
<text text-anchor="middle" x="554.5" y="-20.5" font-family="Helvetica,sans-Serif" font-size="10.00">Manager::update_map_tuple_hashes</text>
</a>
</g>
</g>
<!-- Node1&#45;&gt;Node24 -->
<g id="edge25_Node000001_Node000024" class="edge">
<title>Node1&#45;&gt;Node24</title>
<g id="a_edge25_Node000001_Node000024"><a xlink:title=" ">
<path fill="none" stroke="#63b8ff" d="M744.38,-433.35C735.74,-355 705.75,-117.18 655,-61.5 648.13,-53.97 639.51,-48.15 630.23,-43.66"/>
<polygon fill="#63b8ff" stroke="#63b8ff" points="740.9,-433.75 745.46,-443.32 747.86,-433 740.9,-433.75"/>
</a>
</g>
</g>
<!-- Node2&#45;&gt;Node2 -->
<g id="edge2_Node000002_Node000002" class="edge">
<title>Node2&#45;&gt;Node2</title>
<g id="a_edge2_Node000002_Node000002"><a xlink:title=" ">
<path fill="none" stroke="#63b8ff" d="M588.11,-925.1C583.51,-929.47 572.31,-932.5 554.5,-932.5 524.5,-932.5 513.25,-923.91 520.75,-914.78"/>
<polygon fill="#63b8ff" stroke="#63b8ff" points="591.61,-924.82 588.25,-914.78 584.61,-924.73 591.61,-924.82"/>
</a>
</g>
</g>
<!-- Node4 -->
<g id="Node000004" class="node">
<title>Node4</title>
<g id="a_Node000004"><a xlink:href="classwmtk_1_1operations_1_1_optimization_smoothing_1_1_w_m_t_k_problem.html#aea376070bb07d0be2628da57e06f8ad8" target="_top" xlink:title=" ">
<polygon fill="white" stroke="#666666" points="403,-872 232,-872 232,-831 403,-831 403,-872"/>
<text text-anchor="start" x="240" y="-860" font-family="Helvetica,sans-Serif" font-size="10.00">wmtk::operations::Optimization</text>
<text text-anchor="start" x="240" y="-849" font-family="Helvetica,sans-Serif" font-size="10.00">Smoothing::WMTKProblem::is</text>
<text text-anchor="middle" x="317.5" y="-838" font-family="Helvetica,sans-Serif" font-size="10.00">_step_valid</text>
</a>
</g>
</g>
<!-- Node3&#45;&gt;Node4 -->
<g id="edge4_Node000003_Node000004" class="edge">
<title>Node3&#45;&gt;Node4</title>
<g id="a_edge4_Node000003_Node000004"><a xlink:title=" ">
<path fill="none" stroke="#63b8ff" d="M469.65,-851.5C448,-851.5 424.7,-851.5 403.02,-851.5"/>
<polygon fill="#63b8ff" stroke="#63b8ff" points="469.79,-855 479.79,-851.5 469.79,-848 469.79,-855"/>
</a>
</g>
</g>
<!-- Node5&#45;&gt;Node5 -->
<g id="edge6_Node000005_Node000005" class="edge">
<title>Node5&#45;&gt;Node5</title>
<g id="a_edge6_Node000005_Node000005"><a xlink:title=" ">
<path fill="none" stroke="#63b8ff" d="M588.11,-811.1C583.51,-815.47 572.31,-818.5 554.5,-818.5 524.5,-818.5 513.25,-809.91 520.75,-800.78"/>
<polygon fill="#63b8ff" stroke="#63b8ff" points="591.61,-810.82 588.25,-800.78 584.61,-810.73 591.61,-810.82"/>
</a>
</g>
</g>
<!-- Node8 -->
<g id="Node000008" class="node">
<title>Node8</title>
<g id="a_Node000008"><a xlink:href="classwmtk_1_1operations_1_1_operation.html#a3cf4616909230345e0039b33c28d9214" target="_top" xlink:title=" ">
<polygon fill="white" stroke="#666666" points="395.5,-704.5 239.5,-704.5 239.5,-674.5 395.5,-674.5 395.5,-704.5"/>
<text text-anchor="start" x="247.5" y="-692.5" font-family="Helvetica,sans-Serif" font-size="10.00">wmtk::operations::Operation</text>
<text text-anchor="middle" x="317.5" y="-681.5" font-family="Helvetica,sans-Serif" font-size="10.00">::after</text>
</a>
</g>
</g>
<!-- Node7&#45;&gt;Node8 -->
<g id="edge9_Node000007_Node000008" class="edge">
<title>Node7&#45;&gt;Node8</title>
<g id="a_edge9_Node000007_Node000008"><a xlink:title=" ">
<path fill="none" stroke="#63b8ff" d="M452.14,-689.5C433.17,-689.5 413.63,-689.5 395.54,-689.5"/>
<polygon fill="#63b8ff" stroke="#63b8ff" points="452.31,-693 462.31,-689.5 452.31,-686 452.31,-693"/>
</a>
</g>
</g>
<!-- Node9 -->
<g id="Node000009" class="node">
<title>Node9</title>
<g id="a_Node000009"><a xlink:href="classwmtk_1_1operations_1_1_edge_collapse.html#ac075c26432623a8592f66d7c4966353c" target="_top" xlink:title=" ">
<polygon fill="white" stroke="#666666" points="177.5,-728.5 3.5,-728.5 3.5,-698.5 177.5,-698.5 177.5,-728.5"/>
<text text-anchor="start" x="11.5" y="-716.5" font-family="Helvetica,sans-Serif" font-size="10.00">wmtk::operations::EdgeCollapse</text>
<text text-anchor="middle" x="90.5" y="-705.5" font-family="Helvetica,sans-Serif" font-size="10.00">::after</text>
</a>
</g>
</g>
<!-- Node8&#45;&gt;Node9 -->
<g id="edge10_Node000008_Node000009" class="edge">
<title>Node8&#45;&gt;Node9</title>
<g id="a_edge10_Node000008_Node000009"><a xlink:title=" ">
<path fill="none" stroke="#63b8ff" d="M229.02,-698.83C212.19,-700.63 194.57,-702.51 177.78,-704.3"/>
<polygon fill="#63b8ff" stroke="#63b8ff" points="229.81,-702.27 239.38,-697.73 229.07,-695.31 229.81,-702.27"/>
</a>
</g>
</g>
<!-- Node10 -->
<g id="Node000010" class="node">
<title>Node10</title>
<g id="a_Node000010"><a xlink:href="classwmtk_1_1operations_1_1_operation.html#a9c6426d34b54642aacb28e7cf93e328f" target="_top" xlink:title=" ">
<polygon fill="white" stroke="#666666" points="168.5,-680.5 12.5,-680.5 12.5,-650.5 168.5,-650.5 168.5,-680.5"/>
<text text-anchor="start" x="20.5" y="-668.5" font-family="Helvetica,sans-Serif" font-size="10.00">wmtk::operations::Operation</text>
<text text-anchor="middle" x="90.5" y="-657.5" font-family="Helvetica,sans-Serif" font-size="10.00">::operator()</text>
</a>
</g>
</g>
<!-- Node8&#45;&gt;Node10 -->
<g id="edge11_Node000008_Node000010" class="edge">
<title>Node8&#45;&gt;Node10</title>
<g id="a_edge11_Node000008_Node000010"><a xlink:title=" ">
<path fill="none" stroke="#63b8ff" d="M229.33,-680.2C209.28,-678.06 188.1,-675.8 168.52,-673.72"/>
<polygon fill="#63b8ff" stroke="#63b8ff" points="229.07,-683.69 239.38,-681.27 229.81,-676.73 229.07,-683.69"/>
</a>
</g>
</g>
<!-- Node22 -->
<g id="Node000022" class="node">
<title>Node22</title>
<g id="a_Node000022"><a xlink:href="classwmtk_1_1operations_1_1utils_1_1_update_edge_operation_multi_mesh_map_functor.html#a6f3a220b85044a73d43a4c124d099bbc" target="_top" xlink:title=" ">
<polygon fill="white" stroke="#666666" points="181,-100 0,-100 0,-59 181,-59 181,-100"/>
<text text-anchor="start" x="8" y="-88" font-family="Helvetica,sans-Serif" font-size="10.00">wmtk::operations::utils</text>
<text text-anchor="start" x="8" y="-77" font-family="Helvetica,sans-Serif" font-size="10.00">::UpdateEdgeOperationMultiMesh</text>
<text text-anchor="middle" x="90.5" y="-66" font-family="Helvetica,sans-Serif" font-size="10.00">MapFunctor::operator()</text>
</a>
</g>
</g>
<!-- Node21&#45;&gt;Node22 -->
<g id="edge23_Node000021_Node000022" class="edge">
<title>Node21&#45;&gt;Node22</title>
<g id="a_edge23_Node000021_Node000022"><a xlink:title=" ">
<path fill="none" stroke="#63b8ff" d="M206.78,-79.5C198.2,-79.5 189.6,-79.5 181.17,-79.5"/>
<polygon fill="#63b8ff" stroke="#63b8ff" points="206.83,-83 216.83,-79.5 206.83,-76 206.83,-83"/>
</a>
</g>
</g>
<!-- Node23 -->
<g id="Node000023" class="node">
<title>Node23</title>
<g id="a_Node000023"><a xlink:href="classwmtk_1_1operations_1_1utils_1_1_update_edge_operation_multi_mesh_map_functor.html#a57611fefa85bea3d1858ca385b0f350a" target="_top" xlink:title=" ">
<polygon fill="white" stroke="#666666" points="181,-41 0,-41 0,0 181,0 181,-41"/>
<text text-anchor="start" x="8" y="-29" font-family="Helvetica,sans-Serif" font-size="10.00">wmtk::operations::utils</text>
<text text-anchor="start" x="8" y="-18" font-family="Helvetica,sans-Serif" font-size="10.00">::UpdateEdgeOperationMultiMesh</text>
<text text-anchor="middle" x="90.5" y="-7" font-family="Helvetica,sans-Serif" font-size="10.00">MapFunctor::operator()</text>
</a>
</g>
</g>
<!-- Node21&#45;&gt;Node23 -->
<g id="edge24_Node000021_Node000023" class="edge">
<title>Node21&#45;&gt;Node23</title>
<g id="a_edge24_Node000021_Node000023"><a xlink:title=" ">
<path fill="none" stroke="#63b8ff" d="M228.44,-56.41C209.16,-51.35 188.86,-46.03 169.98,-41.08"/>
<polygon fill="#63b8ff" stroke="#63b8ff" points="227.56,-59.8 238.12,-58.95 229.34,-53.03 227.56,-59.8"/>
</a>
</g>
</g>
<!-- Node25 -->
<g id="Node000025" class="node">
<title>Node25</title>
<g id="a_Node000025"><a xlink:href="classwmtk_1_1operations_1_1utils_1_1_update_edge_operation_multi_mesh_map_functor.html#a0e68925616ea65b5fedbf614333658e5" target="_top" xlink:title=" ">
<polygon fill="white" stroke="#666666" points="408,-41 227,-41 227,0 408,0 408,-41"/>
<text text-anchor="start" x="235" y="-29" font-family="Helvetica,sans-Serif" font-size="10.00">wmtk::operations::utils</text>
<text text-anchor="start" x="235" y="-18" font-family="Helvetica,sans-Serif" font-size="10.00">::UpdateEdgeOperationMultiMesh</text>
<text text-anchor="middle" x="317.5" y="-7" font-family="Helvetica,sans-Serif" font-size="10.00">MapFunctor::update_all_hashes</text>
</a>
</g>
</g>
<!-- Node24&#45;&gt;Node25 -->
<g id="edge26_Node000024_Node000025" class="edge">
<title>Node24&#45;&gt;Node25</title>
<g id="a_edge26_Node000024_Node000025"><a xlink:title=" ">
<path fill="none" stroke="#63b8ff" d="M446.1,-24.84C433.41,-24.41 420.58,-23.97 408.17,-23.55"/>
<polygon fill="#63b8ff" stroke="#63b8ff" points="446.11,-28.35 456.22,-25.19 446.35,-21.35 446.11,-28.35"/>
</a>
</g>
</g>
<!-- Node25&#45;&gt;Node22 -->
<g id="edge27_Node000025_Node000022" class="edge">
<title>Node25&#45;&gt;Node22</title>
<g id="a_edge27_Node000025_Node000022"><a xlink:title=" ">
<path fill="none" stroke="#63b8ff" d="M228.44,-43.59C209.16,-48.65 188.86,-53.97 169.98,-58.92"/>
<polygon fill="#63b8ff" stroke="#63b8ff" points="229.34,-46.97 238.12,-41.05 227.56,-40.2 229.34,-46.97"/>
</a>
</g>
</g>
<!-- Node25&#45;&gt;Node23 -->
<g id="edge28_Node000025_Node000023" class="edge">
<title>Node25&#45;&gt;Node23</title>
<g id="a_edge28_Node000025_Node000023"><a xlink:title=" ">
<path fill="none" stroke="#63b8ff" d="M216.61,-20.5C204.79,-20.5 192.79,-20.5 181.13,-20.5"/>
<polygon fill="#63b8ff" stroke="#63b8ff" points="216.93,-24 226.93,-20.5 216.93,-17 216.93,-24"/>
</a>
</g>
</g>
</g>
</svg>

<g id="navigator" transform="translate(0 0)" fill="#404254">
  <rect fill="#f2f5e9" fill-opacity="0.5" stroke="#606060" stroke-width=".5" x="0" y="0" width="60" height="60"/>
  <use id="zoomplus" xlink:href="#zoomPlus" x="17" y="9" onmousedown="handleZoom(evt,'in')"/>
  <use id="zoomminus" xlink:href="#zoomMin" x="42" y="9" onmousedown="handleZoom(evt,'out')"/>
  <use id="reset" xlink:href="#resetDef" x="30" y="36" onmousedown="handleReset()"/>
   <use id="arrowup" xlink:href="#arrowUp" x="0" y="0" onmousedown="handlePan(0,-1)"/>
  <use id="arrowright" xlink:href="#arrowRight" x="0" y="0" onmousedown="handlePan(1,0)"/>
  <use id="arrowdown" xlink:href="#arrowDown" x="0" y="0" onmousedown="handlePan(0,1)"/>
  <use id="arrowleft" xlink:href="#arrowLeft" x="0" y="0" onmousedown="handlePan(-1,0)"/>
</g>
<svg viewBox="0 0 15 15" width="100%" height="30px" preserveAspectRatio="xMaxYMin meet">
 <g id="arrow_out" transform="scale(0.3 0.3)">
  <a xlink:href="classwmtk_1_1_mesh_ac5778c1f8afef3a2b1b1c33a140b3166_icgraph_org.svg" target="_base">
   <rect id="button" ry="5" rx="5" y="6" x="6" height="38" width="38"
        fill="#f2f5e9" fill-opacity="0.5" stroke="#606060" stroke-width="1.0"/>
   <path id="arrow"
     d="M 11.500037,31.436501 C 11.940474,20.09759 22.043105,11.32322 32.158766,21.979434 L 37.068811,17.246167 C 37.068811,17.246167 37.088388,32 37.088388,32 L 22.160133,31.978069 C 22.160133,31.978069 26.997745,27.140456 26.997745,27.140456 C 18.528582,18.264221 13.291696,25.230495 11.500037,31.436501 z"
     style="fill:#404040;"/>
  </a>
 </g>
</svg>

<style type='text/css'>
<![CDATA[
[data-mouse-over-selected='false'] { opacity: 0.7; }
[data-mouse-over-selected='true']  { opacity: 1.0; }
]]>
</style>
<script type="application/ecmascript"><![CDATA[
document.addEventListener('DOMContentLoaded', (event) => {
  highlightEdges();
  highlightAdjacentNodes();
});
]]></script>
</svg>
