<?xml version="1.0" encoding="UTF-8" standalone="no"?>
<!DOCTYPE svg PUBLIC "-//W3C//DTD SVG 1.1//EN"
 "http://www.w3.org/Graphics/SVG/1.1/DTD/svg11.dtd">
<!-- Generated by graphviz version 2.43.0 (0)
 -->
<!-- Title: wmtk::SchedulerStats::print_update_log Pages: 1 -->
<!--zoomable 810 -->

<svg id="main" version="1.1" xmlns="http://www.w3.org/2000/svg" xmlns:xlink="http://www.w3.org/1999/xlink" xml:space="preserve" onload="init(evt)">
<style type="text/css"><![CDATA[
.node, .edge {opacity: 0.7;}
.node.selected, .edge.selected {opacity: 1;}
.edge:hover path { stroke: red; }
.edge:hover polygon { stroke: red; fill: red; }
]]></style>

<defs>
  <circle id="rim" cx="0" cy="0" r="7"/>
  <circle id="rim2" cx="0" cy="0" r="3.5"/>
  <g id="zoomPlus">
    <use xlink:href="#rim" fill="#404040"><set attributeName="fill" to="#808080" begin="zoomplus.mouseover" end="zoomplus.mouseout"/></use>
    <path d="M-4,0h8M0,-4v8" fill="none" stroke="white" stroke-width="1.5" pointer-events="none"/>
  </g>
  <g id="zoomMin">
    <use xlink:href="#rim" fill="#404040"><set attributeName="fill" to="#808080" begin="zoomminus.mouseover" end="zoomminus.mouseout"/></use>
    <path d="M-4,0h8" fill="none" stroke="white" stroke-width="1.5" pointer-events="none"/>
  </g>
  <g id="arrowUp" transform="translate(30 24)">
    <use xlink:href="#rim"/>
    <path pointer-events="none" fill="none" stroke="white" stroke-width="1.5" d="M0,-3.0v7 M-2.5,-0.5L0,-3.0L2.5,-0.5"/>
  </g>
  <g id="arrowRight" transform="rotate(90) translate(36 -43)">
    <use xlink:href="#rim"/>
    <path pointer-events="none" fill="none" stroke="white" stroke-width="1.5" d="M0,-3.0v7 M-2.5,-0.5L0,-3.0L2.5,-0.5"/>
  </g>
  <g id="arrowDown" transform="rotate(180) translate(-30 -48)">
    <use xlink:href="#rim"/>
    <path pointer-events="none" fill="none" stroke="white" stroke-width="1.5" d="M0,-3.0v7 M-2.5,-0.5L0,-3.0L2.5,-0.5"/>
  </g>
  <g id="arrowLeft" transform="rotate(270) translate(-36 17)">
    <use xlink:href="#rim"/>
    <path pointer-events="none" fill="none" stroke="white" stroke-width="1.5" d="M0,-3.0v7 M-2.5,-0.5L0,-3.0L2.5,-0.5"/>
  </g>
  <g id="resetDef">
    <use xlink:href="#rim2" fill="#404040"><set attributeName="fill" to="#808080" begin="reset.mouseover" end="reset.mouseout"/></use>
  </g>
</defs>
<script type="application/ecmascript">
var viewWidth = 826;
var viewHeight = 810;
var sectionId = 'dynsection-5';
</script>
<script type="application/ecmascript" xlink:href="svg.min.js"/>
<svg id="graph" class="graph">
<g id="viewport">
<title>wmtk::SchedulerStats::print_update_log</title>
<!-- Node1 -->
<g id="Node000001" class="node">
<title>Node1</title>
<g id="a_Node000001"><a xlink:title=" ">
<polygon fill="#999999" stroke="#666666" points="818,-297.5 695,-297.5 695,-267.5 818,-267.5 818,-297.5"/>
<text text-anchor="start" x="703" y="-285.5" font-family="Helvetica,sans-Serif" font-size="10.00">wmtk::SchedulerStats</text>
<text text-anchor="middle" x="756.5" y="-274.5" font-family="Helvetica,sans-Serif" font-size="10.00">::print_update_log</text>
</a>
</g>
</g>
<!-- Node2 -->
<g id="Node000002" class="node">
<title>Node2</title>
<g id="a_Node000002"><a xlink:href="classwmtk_1_1_scheduler.html#a24dd5896647675d49ceac9e3eb8f8b07" target="_top" xlink:title=" ">
<polygon fill="white" stroke="#666666" points="658.5,-314 539.5,-314 539.5,-295 658.5,-295 658.5,-314"/>
<text text-anchor="middle" x="599" y="-302" font-family="Helvetica,sans-Serif" font-size="10.00">wmtk::Scheduler::log</text>
</a>
</g>
</g>
<!-- Node1&#45;&gt;Node2 -->
<g id="edge1_Node000001_Node000002" class="edge">
<title>Node1&#45;&gt;Node2</title>
<g id="a_edge1_Node000001_Node000002"><a xlink:title=" ">
<path fill="none" stroke="#63b8ff" d="M684.75,-292.51C676.01,-293.75 667.15,-295 658.61,-296.21"/>
<polygon fill="#63b8ff" stroke="#63b8ff" points="685.52,-295.94 694.93,-291.07 684.54,-289 685.52,-295.94"/>
</a>
</g>
</g>
<!-- Node3 -->
<g id="Node000003" class="node">
<title>Node3</title>
<g id="a_Node000003"><a xlink:href="classwmtk_1_1_scheduler.html#a246ccf6605333ebb7c020aa8fae1e959" target="_top" xlink:title=" ">
<polygon fill="white" stroke="#666666" points="659,-276.5 539,-276.5 539,-246.5 659,-246.5 659,-276.5"/>
<text text-anchor="start" x="547" y="-264.5" font-family="Helvetica,sans-Serif" font-size="10.00">wmtk::Scheduler::run</text>
<text text-anchor="middle" x="599" y="-253.5" font-family="Helvetica,sans-Serif" font-size="10.00">_operation_on_all</text>
</a>
</g>
</g>
<!-- Node1&#45;&gt;Node3 -->
<g id="edge2_Node000001_Node000003" class="edge">
<title>Node1&#45;&gt;Node3</title>
<g id="a_edge2_Node000001_Node000003"><a xlink:title=" ">
<path fill="none" stroke="#63b8ff" d="M684.9,-272.97C676.28,-271.8 667.55,-270.62 659.12,-269.48"/>
<polygon fill="#63b8ff" stroke="#63b8ff" points="684.56,-276.45 694.93,-274.32 685.49,-269.51 684.56,-276.45"/>
</a>
</g>
</g>
<!-- Node4 -->
<g id="Node000004" class="node">
<title>Node4</title>
<g id="a_Node000004"><a xlink:href="namespacewmtk_1_1components_1_1internal.html#a49432d47b0fca2f5fe80f1e9c634fa14" target="_top" xlink:title=" ">
<polygon fill="white" stroke="#666666" points="490,-665.5 336,-665.5 336,-635.5 490,-635.5 490,-665.5"/>
<text text-anchor="start" x="344" y="-653.5" font-family="Helvetica,sans-Serif" font-size="10.00">wmtk::components::internal</text>
<text text-anchor="middle" x="413" y="-642.5" font-family="Helvetica,sans-Serif" font-size="10.00">::isotropic_remeshing</text>
</a>
</g>
</g>
<!-- Node3&#45;&gt;Node4 -->
<g id="edge3_Node000003_Node000004" class="edge">
<title>Node3&#45;&gt;Node4</title>
<g id="a_edge3_Node000003_Node000004"><a xlink:title=" ">
<path fill="none" stroke="#63b8ff" d="M540.81,-283.33C540.18,-284.03 539.58,-284.75 539,-285.5 464.43,-381.98 555.77,-447.56 503,-557.5 487.33,-590.14 455.86,-618.71 434.85,-635.29"/>
<polygon fill="#63b8ff" stroke="#63b8ff" points="543.2,-285.89 548.38,-276.64 538.56,-280.64 543.2,-285.89"/>
</a>
</g>
</g>
<!-- Node12 -->
<g id="Node000012" class="node">
<title>Node12</title>
<g id="a_Node000012"><a xlink:href="namespacewmtk_1_1components_1_1internal.html#a8890d5e5bb5f11779d4e40e07882253a" target="_top" xlink:title=" ">
<polygon fill="white" stroke="#666666" points="490,-530.5 336,-530.5 336,-500.5 490,-500.5 490,-530.5"/>
<text text-anchor="start" x="344" y="-518.5" font-family="Helvetica,sans-Serif" font-size="10.00">wmtk::components::internal</text>
<text text-anchor="middle" x="413" y="-507.5" font-family="Helvetica,sans-Serif" font-size="10.00">::periodic_optimization</text>
</a>
</g>
</g>
<!-- Node3&#45;&gt;Node12 -->
<g id="edge12_Node000003_Node000012" class="edge">
<title>Node3&#45;&gt;Node12</title>
<g id="a_edge12_Node000003_Node000012"><a xlink:title=" ">
<path fill="none" stroke="#63b8ff" d="M540.9,-283.31C540.24,-284.02 539.61,-284.75 539,-285.5 480.65,-357.84 565.68,-422.88 503,-491.5 499.22,-495.64 494.81,-499.09 490.02,-501.97"/>
<polygon fill="#63b8ff" stroke="#63b8ff" points="543.46,-285.72 548.8,-276.57 538.92,-280.4 543.46,-285.72"/>
</a>
</g>
</g>
<!-- Node14 -->
<g id="Node000014" class="node">
<title>Node14</title>
<g id="a_Node000014"><a xlink:href="classwmtk_1_1components_1_1_marching.html#a93c8d735afd009d73bfc4700b4f8e3f6" target="_top" xlink:title="Perform the actual marching.">
<polygon fill="white" stroke="#666666" points="493.5,-482.5 332.5,-482.5 332.5,-452.5 493.5,-452.5 493.5,-482.5"/>
<text text-anchor="start" x="340.5" y="-470.5" font-family="Helvetica,sans-Serif" font-size="10.00">wmtk::components::Marching</text>
<text text-anchor="middle" x="413" y="-459.5" font-family="Helvetica,sans-Serif" font-size="10.00">::process</text>
</a>
</g>
</g>
<!-- Node3&#45;&gt;Node14 -->
<g id="edge15_Node000003_Node000014" class="edge">
<title>Node3&#45;&gt;Node14</title>
<g id="a_edge15_Node000003_Node000014"><a xlink:title=" ">
<path fill="none" stroke="#63b8ff" d="M541.3,-283C540.5,-283.8 539.73,-284.64 539,-285.5 492.37,-340.39 552.91,-391.58 503,-443.5 499.78,-446.85 496.15,-449.74 492.25,-452.25"/>
<polygon fill="#63b8ff" stroke="#63b8ff" points="543.71,-285.56 549.27,-276.54 539.3,-280.12 543.71,-285.56"/>
</a>
</g>
</g>
<!-- Node18 -->
<g id="Node000018" class="node">
<title>Node18</title>
<g id="a_Node000018"><a xlink:href="classwmtk_1_1components_1_1internal_1_1_regular_space.html#af9adef544fff10ba9257d128fd13393c" target="_top" xlink:title=" ">
<polygon fill="white" stroke="#666666" points="498,-434.5 328,-434.5 328,-404.5 498,-404.5 498,-434.5"/>
<text text-anchor="start" x="336" y="-422.5" font-family="Helvetica,sans-Serif" font-size="10.00">wmtk::components::internal</text>
<text text-anchor="middle" x="413" y="-411.5" font-family="Helvetica,sans-Serif" font-size="10.00">::RegularSpace::regularize_tags</text>
</a>
</g>
</g>
<!-- Node3&#45;&gt;Node18 -->
<g id="edge19_Node000003_Node000018" class="edge">
<title>Node3&#45;&gt;Node18</title>
<g id="a_edge19_Node000003_Node000018"><a xlink:title=" ">
<path fill="none" stroke="#63b8ff" d="M541.8,-282.74C540.82,-283.63 539.89,-284.54 539,-285.5 503.92,-323.13 540.32,-360.1 503,-395.5 499.4,-398.91 495.37,-401.85 491.06,-404.38"/>
<polygon fill="#63b8ff" stroke="#63b8ff" points="544,-285.46 549.88,-276.65 539.79,-279.87 544,-285.46"/>
</a>
</g>
</g>
<!-- Node22 -->
<g id="Node000022" class="node">
<title>Node22</title>
<g id="a_Node000022"><a xlink:href="classwmtk_1_1_scheduler.html#a4a654a64c9b1823bb3ddb5fa7a59c7d8" target="_top" xlink:title=" ">
<polygon fill="white" stroke="#666666" points="473,-386.5 353,-386.5 353,-356.5 473,-356.5 473,-386.5"/>
<text text-anchor="start" x="361" y="-374.5" font-family="Helvetica,sans-Serif" font-size="10.00">wmtk::Scheduler::run</text>
<text text-anchor="middle" x="413" y="-363.5" font-family="Helvetica,sans-Serif" font-size="10.00">_operation_on_all</text>
</a>
</g>
</g>
<!-- Node3&#45;&gt;Node22 -->
<g id="edge23_Node000003_Node000022" class="edge">
<title>Node3&#45;&gt;Node22</title>
<g id="a_edge23_Node000003_Node000022"><a xlink:title=" ">
<path fill="none" stroke="#63b8ff" d="M543.23,-282.14C541.76,-283.21 540.35,-284.33 539,-285.5 514.95,-306.4 528.29,-328.11 503,-347.5 494.24,-354.22 483.73,-359.06 473.06,-362.55"/>
<polygon fill="#63b8ff" stroke="#63b8ff" points="545.49,-284.85 552.08,-276.55 541.75,-278.93 545.49,-284.85"/>
</a>
</g>
</g>
<!-- Node23 -->
<g id="Node000023" class="node">
<title>Node23</title>
<g id="a_Node000023"><a xlink:href="namespacewmtk_1_1components.html#ae3a4b32383fdc9c2eb8334cc8ef947a5" target="_top" xlink:title="Perform shortest&#45;edge collapse on a triangular surface mesh.">
<polygon fill="white" stroke="#666666" points="503,-338.5 323,-338.5 323,-308.5 503,-308.5 503,-338.5"/>
<text text-anchor="start" x="331" y="-326.5" font-family="Helvetica,sans-Serif" font-size="10.00">wmtk::components::shortestedge</text>
<text text-anchor="middle" x="413" y="-315.5" font-family="Helvetica,sans-Serif" font-size="10.00">_collapse</text>
</a>
</g>
</g>
<!-- Node3&#45;&gt;Node23 -->
<g id="edge24_Node000003_Node000023" class="edge">
<title>Node3&#45;&gt;Node23</title>
<g id="a_edge24_Node000003_Node000023"><a xlink:title=" ">
<path fill="none" stroke="#63b8ff" d="M552.37,-280.31C536.83,-286.44 519.26,-293.06 503,-298.5 492.65,-301.96 481.52,-305.35 470.75,-308.45"/>
<polygon fill="#63b8ff" stroke="#63b8ff" points="553.77,-283.52 561.76,-276.57 551.18,-277.02 553.77,-283.52"/>
</a>
</g>
</g>
<!-- Node25 -->
<g id="Node000025" class="node">
<title>Node25</title>
<g id="a_Node000025"><a xlink:href="test__component__isotropic__remeshing_8cpp.html#aea53cf81f06956121812b88e2c7aab0b" target="_top" xlink:title=" ">
<polygon fill="white" stroke="#666666" points="448.5,-290 377.5,-290 377.5,-271 448.5,-271 448.5,-290"/>
<text text-anchor="middle" x="413" y="-278" font-family="Helvetica,sans-Serif" font-size="10.00">TEST_CASE</text>
</a>
</g>
</g>
<!-- Node3&#45;&gt;Node25 -->
<g id="edge26_Node000003_Node000025" class="edge">
<title>Node3&#45;&gt;Node25</title>
<g id="a_edge26_Node000003_Node000025"><a xlink:title=" ">
<path fill="none" stroke="#63b8ff" d="M528.48,-268.68C501.24,-271.49 471.18,-274.6 448.71,-276.92"/>
<polygon fill="#63b8ff" stroke="#63b8ff" points="529.18,-272.13 538.77,-267.62 528.46,-265.16 529.18,-272.13"/>
</a>
</g>
</g>
<!-- Node26 -->
<g id="Node000026" class="node">
<title>Node26</title>
<g id="a_Node000026"><a xlink:href="test__component__isotropic__remeshing_8cpp.html#adf1e479866f5fbf4faa9038ece31a877" target="_top" xlink:title=" ">
<polygon fill="white" stroke="#666666" points="448.5,-253 377.5,-253 377.5,-234 448.5,-234 448.5,-253"/>
<text text-anchor="middle" x="413" y="-241" font-family="Helvetica,sans-Serif" font-size="10.00">TEST_CASE</text>
</a>
</g>
</g>
<!-- Node3&#45;&gt;Node26 -->
<g id="edge27_Node000003_Node000026" class="edge">
<title>Node3&#45;&gt;Node26</title>
<g id="a_edge27_Node000003_Node000026"><a xlink:title=" ">
<path fill="none" stroke="#63b8ff" d="M528.48,-254.7C501.24,-252.03 471.18,-249.09 448.71,-246.9"/>
<polygon fill="#63b8ff" stroke="#63b8ff" points="528.48,-258.22 538.77,-255.71 529.16,-251.25 528.48,-258.22"/>
</a>
</g>
</g>
<!-- Node27 -->
<g id="Node000027" class="node">
<title>Node27</title>
<g id="a_Node000027"><a xlink:href="test__component__isotropic__remeshing_8cpp.html#a31e4ea2702c2b6a505c9c68567b67626" target="_top" xlink:title=" ">
<polygon fill="white" stroke="#666666" points="448.5,-216 377.5,-216 377.5,-197 448.5,-197 448.5,-216"/>
<text text-anchor="middle" x="413" y="-204" font-family="Helvetica,sans-Serif" font-size="10.00">TEST_CASE</text>
</a>
</g>
</g>
<!-- Node3&#45;&gt;Node27 -->
<g id="edge28_Node000003_Node000027" class="edge">
<title>Node3&#45;&gt;Node27</title>
<g id="a_edge28_Node000003_Node000027"><a xlink:title=" ">
<path fill="none" stroke="#63b8ff" d="M553.78,-242.46C537.97,-236.14 519.88,-229.45 503,-224.5 485.3,-219.31 465.19,-215.1 448.57,-212.06"/>
<polygon fill="#63b8ff" stroke="#63b8ff" points="552.73,-245.81 563.31,-246.33 555.36,-239.32 552.73,-245.81"/>
</a>
</g>
</g>
<!-- Node28 -->
<g id="Node000028" class="node">
<title>Node28</title>
<g id="a_Node000028"><a xlink:href="test__component__isotropic__remeshing_8cpp.html#afae984272ab99cf6b50b4d11f8941283" target="_top" xlink:title=" ">
<polygon fill="white" stroke="#666666" points="448.5,-179 377.5,-179 377.5,-160 448.5,-160 448.5,-179"/>
<text text-anchor="middle" x="413" y="-167" font-family="Helvetica,sans-Serif" font-size="10.00">TEST_CASE</text>
</a>
</g>
</g>
<!-- Node3&#45;&gt;Node28 -->
<g id="edge29_Node000003_Node000028" class="edge">
<title>Node3&#45;&gt;Node28</title>
<g id="a_edge29_Node000003_Node000028"><a xlink:title=" ">
<path fill="none" stroke="#63b8ff" d="M575.7,-239.2C557.62,-222.42 530.68,-200.22 503,-187.5 485.95,-179.67 465.52,-175.23 448.54,-172.72"/>
<polygon fill="#63b8ff" stroke="#63b8ff" points="573.69,-242.13 583.35,-246.48 578.52,-237.05 573.69,-242.13"/>
</a>
</g>
</g>
<!-- Node29 -->
<g id="Node000029" class="node">
<title>Node29</title>
<g id="a_Node000029"><a xlink:href="test__component__isotropic__remeshing_8cpp.html#ac951acaed01f46f17ad5496ddaeccd3f" target="_top" xlink:title=" ">
<polygon fill="white" stroke="#666666" points="448.5,-142 377.5,-142 377.5,-123 448.5,-123 448.5,-142"/>
<text text-anchor="middle" x="413" y="-130" font-family="Helvetica,sans-Serif" font-size="10.00">TEST_CASE</text>
</a>
</g>
</g>
<!-- Node3&#45;&gt;Node29 -->
<g id="edge30_Node000003_Node000029" class="edge">
<title>Node3&#45;&gt;Node29</title>
<g id="a_edge30_Node000003_Node000029"><a xlink:title=" ">
<path fill="none" stroke="#63b8ff" d="M584.13,-237.32C568.04,-211.57 539.03,-171.67 503,-150.5 486.69,-140.92 466.11,-136.36 448.86,-134.23"/>
<polygon fill="#63b8ff" stroke="#63b8ff" points="581.29,-239.38 589.47,-246.11 587.27,-235.74 581.29,-239.38"/>
</a>
</g>
</g>
<!-- Node30 -->
<g id="Node000030" class="node">
<title>Node30</title>
<g id="a_Node000030"><a xlink:href="test__component__isotropic__remeshing_8cpp.html#af719811f9a666b9a9f90fc755260e951" target="_top" xlink:title=" ">
<polygon fill="white" stroke="#666666" points="448.5,-105 377.5,-105 377.5,-86 448.5,-86 448.5,-105"/>
<text text-anchor="middle" x="413" y="-93" font-family="Helvetica,sans-Serif" font-size="10.00">TEST_CASE</text>
</a>
</g>
</g>
<!-- Node3&#45;&gt;Node30 -->
<g id="edge31_Node000003_Node000030" class="edge">
<title>Node3&#45;&gt;Node30</title>
<g id="a_edge31_Node000003_Node000030"><a xlink:title=" ">
<path fill="none" stroke="#63b8ff" d="M589.33,-236.99C576.15,-203.5 547.77,-144.12 503,-113.5 487.13,-102.64 466.17,-98.05 448.58,-96.21"/>
<polygon fill="#63b8ff" stroke="#63b8ff" points="586.11,-238.38 592.93,-246.49 592.66,-235.9 586.11,-238.38"/>
</a>
</g>
</g>
<!-- Node31 -->
<g id="Node000031" class="node">
<title>Node31</title>
<g id="a_Node000031"><a xlink:href="namespacewmtk_1_1components.html#a9d6d11e3b7ba03911492ecfc79622247" target="_top" xlink:title=" ">
<polygon fill="white" stroke="#666666" points="490,-67.5 336,-67.5 336,-37.5 490,-37.5 490,-67.5"/>
<text text-anchor="start" x="344" y="-55.5" font-family="Helvetica,sans-Serif" font-size="10.00">wmtk::components::triangle</text>
<text text-anchor="middle" x="413" y="-44.5" font-family="Helvetica,sans-Serif" font-size="10.00">_insertion</text>
</a>
</g>
</g>
<!-- Node3&#45;&gt;Node31 -->
<g id="edge32_Node000003_Node000031" class="edge">
<title>Node3&#45;&gt;Node31</title>
<g id="a_edge32_Node000003_Node000031"><a xlink:title=" ">
<path fill="none" stroke="#63b8ff" d="M592.19,-236.67C581.55,-196.77 555.06,-118.59 503,-76.5 498.77,-73.08 494.09,-70.14 489.16,-67.62"/>
<polygon fill="#63b8ff" stroke="#63b8ff" points="588.81,-237.57 594.67,-246.4 595.59,-235.84 588.81,-237.57"/>
</a>
</g>
</g>
<!-- Node32 -->
<g id="Node000032" class="node">
<title>Node32</title>
<g id="a_Node000032"><a xlink:href="namespacewmtk_1_1components.html#ac6ca52668bd22e164d4baf59ec533864" target="_top" xlink:title=" ">
<polygon fill="white" stroke="#666666" points="502.5,-19 323.5,-19 323.5,0 502.5,0 502.5,-19"/>
<text text-anchor="middle" x="413" y="-7" font-family="Helvetica,sans-Serif" font-size="10.00">wmtk::components::wildmeshing</text>
</a>
</g>
</g>
<!-- Node3&#45;&gt;Node32 -->
<g id="edge33_Node000003_Node000032" class="edge">
<title>Node3&#45;&gt;Node32</title>
<g id="a_edge33_Node000003_Node000032"><a xlink:title=" ">
<path fill="none" stroke="#63b8ff" d="M595.36,-236.27C588.91,-188.04 567.79,-82.74 503,-28.5 498.52,-24.75 493.47,-21.68 488.12,-19.19"/>
<polygon fill="#63b8ff" stroke="#63b8ff" points="591.92,-236.95 596.62,-246.45 598.87,-236.1 591.92,-236.95"/>
</a>
</g>
</g>
<!-- Node4&#45;&gt;Node4 -->
<g id="edge4_Node000004_Node000004" class="edge">
<title>Node4&#45;&gt;Node4</title>
<g id="a_edge4_Node000004_Node000004"><a xlink:title=" ">
<path fill="none" stroke="#63b8ff" d="M445.56,-676.1C441.11,-680.47 430.26,-683.5 413,-683.5 383.94,-683.5 373.04,-674.91 380.3,-665.78"/>
<polygon fill="#63b8ff" stroke="#63b8ff" points="449.06,-675.82 445.7,-665.78 442.06,-675.73 449.06,-675.82"/>
</a>
</g>
</g>
<!-- Node5 -->
<g id="Node000005" class="node">
<title>Node5</title>
<g id="a_Node000005"><a xlink:href="namespacewmtk_1_1components.html#ae6dfdbd73d7018f6f21bb2396872c796" target="_top" xlink:title=" ">
<polygon fill="white" stroke="#666666" points="276,-801.5 118,-801.5 118,-771.5 276,-771.5 276,-801.5"/>
<text text-anchor="start" x="126" y="-789.5" font-family="Helvetica,sans-Serif" font-size="10.00">wmtk::components::isotropic</text>
<text text-anchor="middle" x="197" y="-778.5" font-family="Helvetica,sans-Serif" font-size="10.00">_remeshing</text>
</a>
</g>
</g>
<!-- Node4&#45;&gt;Node5 -->
<g id="edge5_Node000004_Node000005" class="edge">
<title>Node4&#45;&gt;Node5</title>
<g id="a_edge5_Node000004_Node000005"><a xlink:title=" ">
<path fill="none" stroke="#63b8ff" d="M392.66,-673.32C369.9,-698.74 329.76,-739.31 287,-762.5 280.67,-765.93 273.81,-768.9 266.82,-771.46"/>
<polygon fill="#63b8ff" stroke="#63b8ff" points="395.44,-675.45 399.42,-665.64 390.19,-670.83 395.44,-675.45"/>
</a>
</g>
</g>
<!-- Node6 -->
<g id="Node000006" class="node">
<title>Node6</title>
<g id="a_Node000006"><a xlink:href="test__component__isotropic__remeshing_8cpp.html#a64dc4992576434e79fdb0838f9092ab8" target="_top" xlink:title=" ">
<polygon fill="white" stroke="#666666" points="232.5,-753 161.5,-753 161.5,-734 232.5,-734 232.5,-753"/>
<text text-anchor="middle" x="197" y="-741" font-family="Helvetica,sans-Serif" font-size="10.00">TEST_CASE</text>
</a>
</g>
</g>
<!-- Node4&#45;&gt;Node6 -->
<g id="edge6_Node000004_Node000006" class="edge">
<title>Node4&#45;&gt;Node6</title>
<g id="a_edge6_Node000004_Node000006"><a xlink:title=" ">
<path fill="none" stroke="#63b8ff" d="M383.48,-671.49C359.04,-688.5 322.3,-711.81 287,-725.5 269.66,-732.23 249.39,-736.58 232.59,-739.31"/>
<polygon fill="#63b8ff" stroke="#63b8ff" points="385.75,-674.17 391.9,-665.54 381.71,-668.46 385.75,-674.17"/>
</a>
</g>
</g>
<!-- Node7 -->
<g id="Node000007" class="node">
<title>Node7</title>
<g id="a_Node000007"><a xlink:href="test__component__isotropic__remeshing_8cpp.html#aae475685ae29b731655dd43137a950d6" target="_top" xlink:title=" ">
<polygon fill="white" stroke="#666666" points="232.5,-716 161.5,-716 161.5,-697 232.5,-697 232.5,-716"/>
<text text-anchor="middle" x="197" y="-704" font-family="Helvetica,sans-Serif" font-size="10.00">TEST_CASE</text>
</a>
</g>
</g>
<!-- Node4&#45;&gt;Node7 -->
<g id="edge7_Node000004_Node000007" class="edge">
<title>Node4&#45;&gt;Node7</title>
<g id="a_edge7_Node000004_Node000007"><a xlink:title=" ">
<path fill="none" stroke="#63b8ff" d="M356.62,-668.58C335.03,-675.3 309.98,-682.7 287,-688.5 269.27,-692.98 249.33,-697.09 232.83,-700.25"/>
<polygon fill="#63b8ff" stroke="#63b8ff" points="357.79,-671.88 366.29,-665.54 355.7,-665.2 357.79,-671.88"/>
</a>
</g>
</g>
<!-- Node8 -->
<g id="Node000008" class="node">
<title>Node8</title>
<g id="a_Node000008"><a xlink:href="test__component__isotropic__remeshing_8cpp.html#ab3fcea88943daf212aeeda03eb0baa8b" target="_top" xlink:title=" ">
<polygon fill="white" stroke="#666666" points="232.5,-679 161.5,-679 161.5,-660 232.5,-660 232.5,-679"/>
<text text-anchor="middle" x="197" y="-667" font-family="Helvetica,sans-Serif" font-size="10.00">TEST_CASE</text>
</a>
</g>
</g>
<!-- Node4&#45;&gt;Node8 -->
<g id="edge8_Node000004_Node000008" class="edge">
<title>Node4&#45;&gt;Node8</title>
<g id="a_edge8_Node000004_Node000008"><a xlink:title=" ">
<path fill="none" stroke="#63b8ff" d="M325.9,-658.14C293.19,-661.05 257.77,-664.19 232.52,-666.44"/>
<polygon fill="#63b8ff" stroke="#63b8ff" points="326.3,-661.62 335.95,-657.25 325.68,-654.65 326.3,-661.62"/>
</a>
</g>
</g>
<!-- Node9 -->
<g id="Node000009" class="node">
<title>Node9</title>
<g id="a_Node000009"><a xlink:href="test__component__isotropic__remeshing_8cpp.html#aceca2caa1612565bd919bd8cf0ea0232" target="_top" xlink:title=" ">
<polygon fill="white" stroke="#666666" points="232.5,-642 161.5,-642 161.5,-623 232.5,-623 232.5,-642"/>
<text text-anchor="middle" x="197" y="-630" font-family="Helvetica,sans-Serif" font-size="10.00">TEST_CASE</text>
</a>
</g>
</g>
<!-- Node4&#45;&gt;Node9 -->
<g id="edge9_Node000004_Node000009" class="edge">
<title>Node4&#45;&gt;Node9</title>
<g id="a_edge9_Node000004_Node000009"><a xlink:title=" ">
<path fill="none" stroke="#63b8ff" d="M325.9,-643.26C293.19,-640.51 257.77,-637.53 232.52,-635.4"/>
<polygon fill="#63b8ff" stroke="#63b8ff" points="325.69,-646.75 335.95,-644.1 326.28,-639.78 325.69,-646.75"/>
</a>
</g>
</g>
<!-- Node10 -->
<g id="Node000010" class="node">
<title>Node10</title>
<g id="a_Node000010"><a xlink:href="test__component__isotropic__remeshing_8cpp.html#a51ae85bc413e9940267e8a366e0bcc9f" target="_top" xlink:title=" ">
<polygon fill="white" stroke="#666666" points="232.5,-605 161.5,-605 161.5,-586 232.5,-586 232.5,-605"/>
<text text-anchor="middle" x="197" y="-593" font-family="Helvetica,sans-Serif" font-size="10.00">TEST_CASE</text>
</a>
</g>
</g>
<!-- Node4&#45;&gt;Node10 -->
<g id="edge10_Node000004_Node000010" class="edge">
<title>Node4&#45;&gt;Node10</title>
<g id="a_edge10_Node000004_Node000010"><a xlink:title=" ">
<path fill="none" stroke="#63b8ff" d="M353,-632.59C332.22,-626.52 308.65,-619.92 287,-614.5 269.22,-610.05 249.28,-605.73 232.79,-602.34"/>
<polygon fill="#63b8ff" stroke="#63b8ff" points="352.06,-635.96 362.64,-635.42 354.03,-629.24 352.06,-635.96"/>
</a>
</g>
</g>
<!-- Node11 -->
<g id="Node000011" class="node">
<title>Node11</title>
<g id="a_Node000011"><a xlink:href="test__component__isotropic__remeshing_8cpp.html#a9e0dd9408a6fe42f1fb8e8764f740dda" target="_top" xlink:title=" ">
<polygon fill="white" stroke="#666666" points="232.5,-568 161.5,-568 161.5,-549 232.5,-549 232.5,-568"/>
<text text-anchor="middle" x="197" y="-556" font-family="Helvetica,sans-Serif" font-size="10.00">TEST_CASE</text>
</a>
</g>
</g>
<!-- Node4&#45;&gt;Node11 -->
<g id="edge11_Node000004_Node000011" class="edge">
<title>Node4&#45;&gt;Node11</title>
<g id="a_edge11_Node000004_Node000011"><a xlink:title=" ">
<path fill="none" stroke="#63b8ff" d="M382.47,-629.6C357.97,-613.18 321.65,-590.92 287,-577.5 269.61,-570.77 249.35,-566.21 232.55,-563.24"/>
<polygon fill="#63b8ff" stroke="#63b8ff" points="380.7,-632.63 390.94,-635.36 384.64,-626.84 380.7,-632.63"/>
</a>
</g>
</g>
<!-- Node12&#45;&gt;Node12 -->
<g id="edge14_Node000012_Node000012" class="edge">
<title>Node12&#45;&gt;Node12</title>
<g id="a_edge14_Node000012_Node000012"><a xlink:title=" ">
<path fill="none" stroke="#63b8ff" d="M445.56,-541.1C441.11,-545.47 430.26,-548.5 413,-548.5 383.94,-548.5 373.04,-539.91 380.3,-530.78"/>
<polygon fill="#63b8ff" stroke="#63b8ff" points="449.06,-540.82 445.7,-530.78 442.06,-540.73 449.06,-540.82"/>
</a>
</g>
</g>
<!-- Node13 -->
<g id="Node000013" class="node">
<title>Node13</title>
<g id="a_Node000013"><a xlink:href="namespacewmtk_1_1components.html#a4166e4880553cfacbf79ac3515a637cd" target="_top" xlink:title=" ">
<polygon fill="white" stroke="#666666" points="274.5,-530.5 119.5,-530.5 119.5,-500.5 274.5,-500.5 274.5,-530.5"/>
<text text-anchor="start" x="127.5" y="-518.5" font-family="Helvetica,sans-Serif" font-size="10.00">wmtk::components::periodic</text>
<text text-anchor="middle" x="197" y="-507.5" font-family="Helvetica,sans-Serif" font-size="10.00">_optimization</text>
</a>
</g>
</g>
<!-- Node12&#45;&gt;Node13 -->
<g id="edge13_Node000012_Node000013" class="edge">
<title>Node12&#45;&gt;Node13</title>
<g id="a_edge13_Node000012_Node000013"><a xlink:title=" ">
<path fill="none" stroke="#63b8ff" d="M325.54,-515.5C308.66,-515.5 291.06,-515.5 274.53,-515.5"/>
<polygon fill="#63b8ff" stroke="#63b8ff" points="325.95,-519 335.95,-515.5 325.95,-512 325.95,-519"/>
</a>
</g>
</g>
<!-- Node15 -->
<g id="Node000015" class="node">
<title>Node15</title>
<g id="a_Node000015"><a xlink:href="namespacewmtk_1_1components.html#a6f27411696c9ba6e294768451f31351f" target="_top" xlink:title="Perform maching tetrahedra/triangles.">
<polygon fill="white" stroke="#666666" points="278,-482 116,-482 116,-463 278,-463 278,-482"/>
<text text-anchor="middle" x="197" y="-470" font-family="Helvetica,sans-Serif" font-size="10.00">wmtk::components::marching</text>
</a>
</g>
</g>
<!-- Node14&#45;&gt;Node15 -->
<g id="edge16_Node000014_Node000015" class="edge">
<title>Node14&#45;&gt;Node15</title>
<g id="a_edge16_Node000014_Node000015"><a xlink:title=" ">
<path fill="none" stroke="#63b8ff" d="M322.26,-469.6C307.6,-469.94 292.51,-470.29 278.11,-470.63"/>
<polygon fill="#63b8ff" stroke="#63b8ff" points="322.4,-473.09 332.31,-469.36 322.24,-466.1 322.4,-473.09"/>
</a>
</g>
</g>
<!-- Node16 -->
<g id="Node000016" class="node">
<title>Node16</title>
<g id="a_Node000016"><a xlink:href="tests_2marching_8cpp.html#a74e4ea64dd134ace15ef3292b4eb9753" target="_top" xlink:title=" ">
<polygon fill="white" stroke="#666666" points="71,-500 0,-500 0,-481 71,-481 71,-500"/>
<text text-anchor="middle" x="35.5" y="-488" font-family="Helvetica,sans-Serif" font-size="10.00">TEST_CASE</text>
</a>
</g>
</g>
<!-- Node15&#45;&gt;Node16 -->
<g id="edge17_Node000015_Node000016" class="edge">
<title>Node15&#45;&gt;Node16</title>
<g id="a_edge17_Node000015_Node000016"><a xlink:title=" ">
<path fill="none" stroke="#63b8ff" d="M105.53,-482.71C93.38,-484.08 81.58,-485.41 71.26,-486.58"/>
<polygon fill="#63b8ff" stroke="#63b8ff" points="106.24,-486.15 115.78,-481.55 105.45,-479.2 106.24,-486.15"/>
</a>
</g>
</g>
<!-- Node17 -->
<g id="Node000017" class="node">
<title>Node17</title>
<g id="a_Node000017"><a xlink:href="tests_2marching_8cpp.html#af20fbc246d1ad31be8d9ec0011ac52d6" target="_top" xlink:title=" ">
<polygon fill="white" stroke="#666666" points="71,-463 0,-463 0,-444 71,-444 71,-463"/>
<text text-anchor="middle" x="35.5" y="-451" font-family="Helvetica,sans-Serif" font-size="10.00">TEST_CASE</text>
</a>
</g>
</g>
<!-- Node15&#45;&gt;Node17 -->
<g id="edge18_Node000015_Node000017" class="edge">
<title>Node15&#45;&gt;Node17</title>
<g id="a_edge18_Node000015_Node000017"><a xlink:title=" ">
<path fill="none" stroke="#63b8ff" d="M105.53,-461.72C93.38,-460.28 81.58,-458.87 71.26,-457.64"/>
<polygon fill="#63b8ff" stroke="#63b8ff" points="105.44,-465.24 115.78,-462.94 106.27,-458.29 105.44,-465.24"/>
</a>
</g>
</g>
<!-- Node19 -->
<g id="Node000019" class="node">
<title>Node19</title>
<g id="a_Node000019"><a xlink:href="namespacewmtk_1_1components.html#a7cec0c38121ddd036af26c760311d0e8" target="_top" xlink:title=" ">
<polygon fill="white" stroke="#666666" points="272.5,-444.5 121.5,-444.5 121.5,-414.5 272.5,-414.5 272.5,-444.5"/>
<text text-anchor="start" x="129.5" y="-432.5" font-family="Helvetica,sans-Serif" font-size="10.00">wmtk::components::regular</text>
<text text-anchor="middle" x="197" y="-421.5" font-family="Helvetica,sans-Serif" font-size="10.00">_space</text>
</a>
</g>
</g>
<!-- Node18&#45;&gt;Node19 -->
<g id="edge20_Node000018_Node000019" class="edge">
<title>Node18&#45;&gt;Node19</title>
<g id="a_edge20_Node000018_Node000019"><a xlink:title=" ">
<path fill="none" stroke="#63b8ff" d="M317.45,-423.92C302.5,-424.62 287.23,-425.33 272.82,-426"/>
<polygon fill="#63b8ff" stroke="#63b8ff" points="317.9,-427.4 327.73,-423.44 317.58,-420.41 317.9,-427.4"/>
</a>
</g>
</g>
<!-- Node20 -->
<g id="Node000020" class="node">
<title>Node20</title>
<g id="a_Node000020"><a xlink:href="test__component__regular__space_8cpp.html#a728024a1ea7ac078fd93d4035f705520" target="_top" xlink:title=" ">
<polygon fill="white" stroke="#666666" points="232.5,-396 161.5,-396 161.5,-377 232.5,-377 232.5,-396"/>
<text text-anchor="middle" x="197" y="-384" font-family="Helvetica,sans-Serif" font-size="10.00">TEST_CASE</text>
</a>
</g>
</g>
<!-- Node18&#45;&gt;Node20 -->
<g id="edge21_Node000018_Node000020" class="edge">
<title>Node18&#45;&gt;Node20</title>
<g id="a_edge21_Node000018_Node000020"><a xlink:title=" ">
<path fill="none" stroke="#63b8ff" d="M317.53,-404.93C287.25,-400.26 255.62,-395.38 232.5,-391.82"/>
<polygon fill="#63b8ff" stroke="#63b8ff" points="317.31,-408.44 327.73,-406.5 318.38,-401.52 317.31,-408.44"/>
</a>
</g>
</g>
<!-- Node21 -->
<g id="Node000021" class="node">
<title>Node21</title>
<g id="a_Node000021"><a xlink:href="test__component__regular__space_8cpp.html#a5e69783b3ce0c074477e3081ab8cf658" target="_top" xlink:title=" ">
<polygon fill="white" stroke="#666666" points="232.5,-359 161.5,-359 161.5,-340 232.5,-340 232.5,-359"/>
<text text-anchor="middle" x="197" y="-347" font-family="Helvetica,sans-Serif" font-size="10.00">TEST_CASE</text>
</a>
</g>
</g>
<!-- Node18&#45;&gt;Node21 -->
<g id="edge22_Node000018_Node000021" class="edge">
<title>Node18&#45;&gt;Node21</title>
<g id="a_edge22_Node000018_Node000021"><a xlink:title=" ">
<path fill="none" stroke="#63b8ff" d="M335.43,-400.92C331.16,-399.25 326.99,-397.45 323,-395.5 305.02,-386.74 305.2,-376.78 287,-368.5 270.03,-360.78 249.79,-356.14 232.91,-353.38"/>
<polygon fill="#63b8ff" stroke="#63b8ff" points="334.3,-404.24 344.89,-404.38 336.7,-397.66 334.3,-404.24"/>
</a>
</g>
</g>
<!-- Node24 -->
<g id="Node000024" class="node">
<title>Node24</title>
<g id="a_Node000024"><a xlink:href="namespacewmtk_1_1components.html#a3154cdbc6047eee67258b69cc7d5e7cf" target="_top" xlink:title="Perform shortest&#45;edge collapse on a triangular surface mesh.">
<polygon fill="white" stroke="#666666" points="287,-321.5 107,-321.5 107,-291.5 287,-291.5 287,-321.5"/>
<text text-anchor="start" x="115" y="-309.5" font-family="Helvetica,sans-Serif" font-size="10.00">wmtk::components::shortestedge</text>
<text text-anchor="middle" x="197" y="-298.5" font-family="Helvetica,sans-Serif" font-size="10.00">_collapse</text>
</a>
</g>
</g>
<!-- Node23&#45;&gt;Node24 -->
<g id="edge25_Node000023_Node000024" class="edge">
<title>Node23&#45;&gt;Node24</title>
<g id="a_edge25_Node000023_Node000024"><a xlink:title=" ">
<path fill="none" stroke="#63b8ff" d="M312.77,-315.62C304.19,-314.94 295.55,-314.25 287.06,-313.57"/>
<polygon fill="#63b8ff" stroke="#63b8ff" points="312.55,-319.11 322.79,-316.41 313.1,-312.13 312.55,-319.11"/>
</a>
</g>
</g>
</g>
</svg>

<g id="navigator" transform="translate(0 0)" fill="#404254">
  <rect fill="#f2f5e9" fill-opacity="0.5" stroke="#606060" stroke-width=".5" x="0" y="0" width="60" height="60"/>
  <use id="zoomplus" xlink:href="#zoomPlus" x="17" y="9" onmousedown="handleZoom(evt,'in')"/>
  <use id="zoomminus" xlink:href="#zoomMin" x="42" y="9" onmousedown="handleZoom(evt,'out')"/>
  <use id="reset" xlink:href="#resetDef" x="30" y="36" onmousedown="handleReset()"/>
   <use id="arrowup" xlink:href="#arrowUp" x="0" y="0" onmousedown="handlePan(0,-1)"/>
  <use id="arrowright" xlink:href="#arrowRight" x="0" y="0" onmousedown="handlePan(1,0)"/>
  <use id="arrowdown" xlink:href="#arrowDown" x="0" y="0" onmousedown="handlePan(0,1)"/>
  <use id="arrowleft" xlink:href="#arrowLeft" x="0" y="0" onmousedown="handlePan(-1,0)"/>
</g>
<svg viewBox="0 0 15 15" width="100%" height="30px" preserveAspectRatio="xMaxYMin meet">
 <g id="arrow_out" transform="scale(0.3 0.3)">
  <a xlink:href="classwmtk_1_1_scheduler_stats_af4b4bf1f4201cce63753908178a40498_icgraph_org.svg" target="_base">
   <rect id="button" ry="5" rx="5" y="6" x="6" height="38" width="38"
        fill="#f2f5e9" fill-opacity="0.5" stroke="#606060" stroke-width="1.0"/>
   <path id="arrow"
     d="M 11.500037,31.436501 C 11.940474,20.09759 22.043105,11.32322 32.158766,21.979434 L 37.068811,17.246167 C 37.068811,17.246167 37.088388,32 37.088388,32 L 22.160133,31.978069 C 22.160133,31.978069 26.997745,27.140456 26.997745,27.140456 C 18.528582,18.264221 13.291696,25.230495 11.500037,31.436501 z"
     style="fill:#404040;"/>
  </a>
 </g>
</svg>

<style type='text/css'>
<![CDATA[
[data-mouse-over-selected='false'] { opacity: 0.7; }
[data-mouse-over-selected='true']  { opacity: 1.0; }
]]>
</style>
<script type="application/ecmascript"><![CDATA[
document.addEventListener('DOMContentLoaded', (event) => {
  highlightEdges();
  highlightAdjacentNodes();
});
]]></script>
</svg>
