<?xml version="1.0" encoding="UTF-8" standalone="no"?>
<!DOCTYPE svg PUBLIC "-//W3C//DTD SVG 1.1//EN"
 "http://www.w3.org/Graphics/SVG/1.1/DTD/svg11.dtd">
<!-- Generated by graphviz version 2.43.0 (0)
 -->
<!-- Title: std::hash&lt; wmtk::attribute::utils::HybridRationalAttribute&lt; D &gt; &gt; Pages: 1 -->
<svg width="254pt" height="193pt"
 viewBox="0.00 0.00 254.00 193.00" xmlns="http://www.w3.org/2000/svg" xmlns:xlink="http://www.w3.org/1999/xlink">
<g id="graph0" class="graph" transform="scale(1 1) rotate(0) translate(4 189)">
<title>std::hash&lt; wmtk::attribute::utils::HybridRationalAttribute&lt; D &gt; &gt;</title>
<!-- Node1 -->
<g id="Node000001" class="node">
<title>Node1</title>
<g id="a_Node000001"><a xlink:title=" ">
<polygon fill="#999999" stroke="#666666" points="206,-30 0,-30 0,0 206,0 206,-30"/>
<text text-anchor="start" x="8" y="-18" font-family="Helvetica,sans-Serif" font-size="10.00">std::hash&lt; wmtk::attribute</text>
<text text-anchor="middle" x="103" y="-7" font-family="Helvetica,sans-Serif" font-size="10.00">::utils::HybridRationalAttribute&lt; D &gt; &gt;</text>
</a>
</g>
</g>
<!-- Node2 -->
<g id="Node000002" class="node">
<title>Node2</title>
<g id="a_Node000002"><a xlink:href="classwmtk_1_1hash.html" target="_top" xlink:title=" ">
<polygon fill="white" stroke="#666666" points="206,-97 0,-97 0,-67 206,-67 206,-97"/>
<text text-anchor="start" x="8" y="-85" font-family="Helvetica,sans-Serif" font-size="10.00">wmtk::hash&lt; wmtk::attribute</text>
<text text-anchor="middle" x="103" y="-74" font-family="Helvetica,sans-Serif" font-size="10.00">::utils::HybridRationalAttribute&lt; D &gt; &gt;</text>
</a>
</g>
</g>
<!-- Node2&#45;&gt;Node1 -->
<g id="edge1_Node000001_Node000002" class="edge">
<title>Node2&#45;&gt;Node1</title>
<g id="a_edge1_Node000001_Node000002"><a xlink:title=" ">
<path fill="none" stroke="#63b8ff" d="M103,-56.61C103,-47.65 103,-37.82 103,-30.08"/>
<polygon fill="#63b8ff" stroke="#63b8ff" points="99.5,-56.9 103,-66.9 106.5,-56.9 99.5,-56.9"/>
</a>
</g>
</g>
<!-- Node3 -->
<g id="Node000003" class="node">
<title>Node3</title>
<g id="a_Node000003"><a xlink:href="classwmtk_1_1hash.html" target="_top" xlink:title=" ">
<polygon fill="white" stroke="#666666" points="154,-185 52,-185 52,-166 154,-166 154,-185"/>
<text text-anchor="middle" x="103" y="-173" font-family="Helvetica,sans-Serif" font-size="10.00">wmtk::hash&lt; T &gt;</text>
</a>
</g>
</g>
<!-- Node3&#45;&gt;Node2 -->
<g id="edge2_Node000002_Node000003" class="edge">
<title>Node3&#45;&gt;Node2</title>
<g id="a_edge2_Node000002_Node000003"><a xlink:title=" ">
<path fill="none" stroke="orange" stroke-dasharray="5,2" d="M103,-155.67C103,-138.32 103,-112.96 103,-97.25"/>
<polygon fill="orange" stroke="orange" points="99.5,-155.73 103,-165.73 106.5,-155.73 99.5,-155.73"/>
</a>
</g>
<text text-anchor="start" x="103" y="-140" font-family="Helvetica,sans-Serif" font-size="10.00" fill="grey"> &lt; wmtk::attribute::</text>
<text text-anchor="start" x="103" y="-129" font-family="Helvetica,sans-Serif" font-size="10.00" fill="grey">utils::HybridRationalAttribute</text>
<text text-anchor="middle" x="174.5" y="-118" font-family="Helvetica,sans-Serif" font-size="10.00" fill="grey">&lt; D &gt; &gt;</text>
</g>
</g>
</svg>
