<?xml version="1.0" encoding="UTF-8" standalone="no"?>
<!DOCTYPE svg PUBLIC "-//W3C//DTD SVG 1.1//EN"
 "http://www.w3.org/Graphics/SVG/1.1/DTD/svg11.dtd">
<!-- Generated by graphviz version 2.43.0 (0)
 -->
<!-- Title: wmtk::attribute::CachingAccessor&lt; T, Dim &gt; Pages: 1 -->
<svg width="1022pt" height="408pt"
 viewBox="0.00 0.00 1022.00 407.50" xmlns="http://www.w3.org/2000/svg" xmlns:xlink="http://www.w3.org/1999/xlink">
<g id="graph0" class="graph" transform="scale(1 1) rotate(0) translate(4 403.5)">
<title>wmtk::attribute::CachingAccessor&lt; T, Dim &gt;</title>
<!-- Node1 -->
<g id="Node000001" class="node">
<title>Node1</title>
<g id="a_Node000001"><a xlink:title="An accessor for cached attribute values.">
<polygon fill="#999999" stroke="#666666" points="316,-193.5 179,-193.5 179,-163.5 316,-163.5 316,-193.5"/>
<text text-anchor="start" x="187" y="-181.5" font-family="Helvetica,sans-Serif" font-size="10.00">wmtk::attribute::Caching</text>
<text text-anchor="middle" x="247.5" y="-170.5" font-family="Helvetica,sans-Serif" font-size="10.00">Accessor&lt; T, Dim &gt;</text>
</a>
</g>
</g>
<!-- Node3 -->
<g id="Node000003" class="node">
<title>Node3</title>
<g id="a_Node000003"><a xlink:href="classwmtk_1_1attribute_1_1_accessor.html" target="_top" xlink:title=" ">
<polygon fill="white" stroke="#666666" points="1014,-326.5 851,-326.5 851,-296.5 1014,-296.5 1014,-326.5"/>
<text text-anchor="start" x="859" y="-314.5" font-family="Helvetica,sans-Serif" font-size="10.00">wmtk::attribute::Accessor</text>
<text text-anchor="middle" x="932.5" y="-303.5" font-family="Helvetica,sans-Serif" font-size="10.00">&lt; int64_t, wmtk::EdgeMesh &gt;</text>
</a>
</g>
</g>
<!-- Node1&#45;&gt;Node3 -->
<g id="edge2_Node000001_Node000003" class="edge">
<title>Node1&#45;&gt;Node3</title>
<g id="a_edge2_Node000001_Node000003"><a xlink:title=" ">
<path fill="none" stroke="darkgreen" d="M272.57,-200.56C288.89,-214.52 311.5,-232.04 334,-243.5 478.33,-317.02 522.75,-324.92 683,-348.5 748.96,-358.21 767.41,-360.41 833,-348.5 856.19,-344.29 881.02,-334.93 899.95,-326.67"/>
<polygon fill="darkgreen" stroke="darkgreen" points="274.48,-197.57 264.65,-193.63 269.87,-202.84 274.48,-197.57"/>
</a>
</g>
</g>
<!-- Node4 -->
<g id="Node000004" class="node">
<title>Node4</title>
<g id="a_Node000004"><a xlink:href="classwmtk_1_1attribute_1_1_accessor.html" target="_top" xlink:title=" ">
<polygon fill="white" stroke="#666666" points="1009,-399.5 856,-399.5 856,-369.5 1009,-369.5 1009,-399.5"/>
<text text-anchor="start" x="864" y="-387.5" font-family="Helvetica,sans-Serif" font-size="10.00">wmtk::attribute::Accessor</text>
<text text-anchor="middle" x="932.5" y="-376.5" font-family="Helvetica,sans-Serif" font-size="10.00">&lt; int64_t, wmtk::TetMesh &gt;</text>
</a>
</g>
</g>
<!-- Node1&#45;&gt;Node4 -->
<g id="edge3_Node000001_Node000004" class="edge">
<title>Node1&#45;&gt;Node4</title>
<g id="a_edge3_Node000001_Node000004"><a xlink:title=" ">
<path fill="none" stroke="darkgreen" d="M261.7,-202.54C276.36,-227.14 302.2,-264.88 334,-287.5 492.42,-400.21 733.91,-400.67 855.67,-392.26"/>
<polygon fill="darkgreen" stroke="darkgreen" points="264.69,-200.71 256.64,-193.81 258.63,-204.22 264.69,-200.71"/>
</a>
</g>
</g>
<!-- Node5 -->
<g id="Node000005" class="node">
<title>Node5</title>
<g id="a_Node000005"><a xlink:href="classwmtk_1_1attribute_1_1_accessor.html" target="_top" xlink:title=" ">
<polygon fill="white" stroke="#666666" points="1007.5,-215.5 857.5,-215.5 857.5,-185.5 1007.5,-185.5 1007.5,-215.5"/>
<text text-anchor="start" x="865.5" y="-203.5" font-family="Helvetica,sans-Serif" font-size="10.00">wmtk::attribute::Accessor</text>
<text text-anchor="middle" x="932.5" y="-192.5" font-family="Helvetica,sans-Serif" font-size="10.00">&lt; int64_t, wmtk::TriMesh &gt;</text>
</a>
</g>
</g>
<!-- Node1&#45;&gt;Node5 -->
<g id="edge4_Node000001_Node000005" class="edge">
<title>Node1&#45;&gt;Node5</title>
<g id="a_edge4_Node000001_Node000005"><a xlink:title=" ">
<path fill="none" stroke="darkgreen" d="M325.98,-163.62C438.9,-144.62 654.65,-118.48 833,-156.5 859.01,-162.05 886.47,-174.98 905.77,-185.39"/>
<polygon fill="darkgreen" stroke="darkgreen" points="325.31,-160.19 316.04,-165.32 326.49,-167.09 325.31,-160.19"/>
</a>
</g>
</g>
<!-- Node6 -->
<g id="Node000006" class="node">
<title>Node6</title>
<g id="a_Node000006"><a xlink:href="classwmtk_1_1attribute_1_1_accessor.html" target="_top" xlink:title=" ">
<polygon fill="white" stroke="#666666" points="1003.5,-147.5 861.5,-147.5 861.5,-117.5 1003.5,-117.5 1003.5,-147.5"/>
<text text-anchor="start" x="869.5" y="-135.5" font-family="Helvetica,sans-Serif" font-size="10.00">wmtk::attribute::Accessor</text>
<text text-anchor="middle" x="932.5" y="-124.5" font-family="Helvetica,sans-Serif" font-size="10.00">&lt; int64_t, MeshType &gt;</text>
</a>
</g>
</g>
<!-- Node1&#45;&gt;Node6 -->
<g id="edge5_Node000001_Node000006" class="edge">
<title>Node1&#45;&gt;Node6</title>
<g id="a_edge5_Node000001_Node000006"><a xlink:title=" ">
<path fill="none" stroke="darkgreen" d="M285.73,-158.93C300.38,-152.17 317.59,-145.33 334,-141.5 520.4,-98.01 748.47,-112.53 861.33,-124.04"/>
<polygon fill="darkgreen" stroke="darkgreen" points="284.03,-155.87 276.51,-163.34 287.04,-162.19 284.03,-155.87"/>
</a>
</g>
</g>
<!-- Node7 -->
<g id="Node000007" class="node">
<title>Node7</title>
<g id="a_Node000007"><a xlink:href="classwmtk_1_1attribute_1_1_accessor.html" target="_top" xlink:title=" ">
<polygon fill="white" stroke="#666666" points="1003.5,-273.5 861.5,-273.5 861.5,-243.5 1003.5,-243.5 1003.5,-273.5"/>
<text text-anchor="start" x="869.5" y="-261.5" font-family="Helvetica,sans-Serif" font-size="10.00">wmtk::attribute::Accessor</text>
<text text-anchor="middle" x="932.5" y="-250.5" font-family="Helvetica,sans-Serif" font-size="10.00">&lt; int64_t &gt;</text>
</a>
</g>
</g>
<!-- Node1&#45;&gt;Node7 -->
<g id="edge6_Node000001_Node000007" class="edge">
<title>Node1&#45;&gt;Node7</title>
<g id="a_edge6_Node000001_Node000007"><a xlink:title=" ">
<path fill="none" stroke="darkgreen" d="M326.58,-179.6C463.16,-182.16 739.77,-190.36 833,-215.5 841.64,-217.83 842.88,-220.76 851,-224.5 865.06,-230.97 880.69,-237.69 894.41,-243.42"/>
<polygon fill="darkgreen" stroke="darkgreen" points="326.26,-176.09 316.2,-179.41 326.13,-183.09 326.26,-176.09"/>
</a>
</g>
</g>
<!-- Node8 -->
<g id="Node000008" class="node">
<title>Node8</title>
<g id="a_Node000008"><a xlink:href="classwmtk_1_1attribute_1_1_accessor.html" target="_top" xlink:title="A CachingAccessor that uses tuples for accessing attributes instead of indices.">
<polygon fill="white" stroke="#666666" points="650.5,-273.5 508.5,-273.5 508.5,-243.5 650.5,-243.5 650.5,-273.5"/>
<text text-anchor="start" x="516.5" y="-261.5" font-family="Helvetica,sans-Serif" font-size="10.00">wmtk::attribute::Accessor</text>
<text text-anchor="middle" x="579.5" y="-250.5" font-family="Helvetica,sans-Serif" font-size="10.00">&lt; T, MeshType, Dim &gt;</text>
</a>
</g>
</g>
<!-- Node1&#45;&gt;Node8 -->
<g id="edge7_Node000001_Node000008" class="edge">
<title>Node1&#45;&gt;Node8</title>
<g id="a_edge7_Node000001_Node000008"><a xlink:title=" ">
<path fill="none" stroke="darkgreen" d="M288.17,-197.97C302.36,-204.31 318.64,-210.9 334,-215.5 391.59,-232.76 459.02,-243.98 508.46,-250.62"/>
<polygon fill="darkgreen" stroke="darkgreen" points="289.27,-194.62 278.72,-193.64 286.35,-200.99 289.27,-194.62"/>
</a>
</g>
</g>
<!-- Node9 -->
<g id="Node000009" class="node">
<title>Node9</title>
<g id="a_Node000009"><a xlink:href="classwmtk_1_1attribute_1_1_caching_accessor.html" target="_top" xlink:title=" ">
<polygon fill="white" stroke="#666666" points="665,-89.5 494,-89.5 494,-59.5 665,-59.5 665,-89.5"/>
<text text-anchor="start" x="502" y="-77.5" font-family="Helvetica,sans-Serif" font-size="10.00">wmtk::attribute::Caching</text>
<text text-anchor="middle" x="579.5" y="-66.5" font-family="Helvetica,sans-Serif" font-size="10.00">Accessor&lt; T, Eigen::Dynamic &gt;</text>
</a>
</g>
</g>
<!-- Node1&#45;&gt;Node9 -->
<g id="edge13_Node000001_Node000009" class="edge">
<title>Node1&#45;&gt;Node9</title>
<g id="a_edge13_Node000001_Node000009"><a xlink:title=" ">
<path fill="none" stroke="orange" stroke-dasharray="5,2" d="M264.12,-155.22C279.3,-134.74 304.37,-106.12 334,-92.5 383.69,-69.66 445.1,-65.21 493.95,-66.45"/>
<polygon fill="orange" stroke="orange" points="261.21,-153.27 258.23,-163.43 266.9,-157.34 261.21,-153.27"/>
</a>
</g>
<text text-anchor="middle" x="405" y="-95.5" font-family="Helvetica,sans-Serif" font-size="10.00" fill="grey"> &lt; T, Eigen::Dynamic &gt;</text>
</g>
<!-- Node10 -->
<g id="Node000010" class="node">
<title>Node10</title>
<g id="a_Node000010"><a xlink:href="classwmtk_1_1attribute_1_1_caching_accessor.html" target="_top" xlink:title=" ">
<polygon fill="white" stroke="#666666" points="648.5,-41 510.5,-41 510.5,0 648.5,0 648.5,-41"/>
<text text-anchor="start" x="518.5" y="-29" font-family="Helvetica,sans-Serif" font-size="10.00">wmtk::attribute::Caching</text>
<text text-anchor="start" x="518.5" y="-18" font-family="Helvetica,sans-Serif" font-size="10.00">Accessor&lt; int64_t, Eigen</text>
<text text-anchor="middle" x="579.5" y="-7" font-family="Helvetica,sans-Serif" font-size="10.00">::Dynamic &gt;</text>
</a>
</g>
</g>
<!-- Node1&#45;&gt;Node10 -->
<g id="edge14_Node000001_Node000010" class="edge">
<title>Node1&#45;&gt;Node10</title>
<g id="a_edge14_Node000001_Node000010"><a xlink:title=" ">
<path fill="none" stroke="orange" stroke-dasharray="5,2" d="M257.75,-153.6C270.2,-123.92 295.34,-75.32 334,-51.5 386.82,-18.96 458.25,-13.33 510.25,-14.57"/>
<polygon fill="orange" stroke="orange" points="254.36,-152.66 253.88,-163.25 260.85,-155.27 254.36,-152.66"/>
</a>
</g>
<text text-anchor="middle" x="405" y="-54.5" font-family="Helvetica,sans-Serif" font-size="10.00" fill="grey"> &lt; int64_t, Eigen::Dynamic &gt;</text>
</g>
<!-- Node2 -->
<g id="Node000002" class="node">
<title>Node2</title>
<g id="a_Node000002"><a xlink:href="classwmtk_1_1attribute_1_1_accessor_base.html" target="_top" xlink:title=" ">
<polygon fill="white" stroke="#666666" points="142,-193.5 0,-193.5 0,-163.5 142,-163.5 142,-193.5"/>
<text text-anchor="start" x="8" y="-181.5" font-family="Helvetica,sans-Serif" font-size="10.00">wmtk::attribute::Accessor</text>
<text text-anchor="middle" x="71" y="-170.5" font-family="Helvetica,sans-Serif" font-size="10.00">Base&lt; _T, Dim &gt;</text>
</a>
</g>
</g>
<!-- Node2&#45;&gt;Node1 -->
<g id="edge1_Node000001_Node000002" class="edge">
<title>Node2&#45;&gt;Node1</title>
<g id="a_edge1_Node000001_Node000002"><a xlink:title=" ">
<path fill="none" stroke="#63b8ff" d="M152.25,-178.5C161.18,-178.5 170.22,-178.5 178.97,-178.5"/>
<polygon fill="#63b8ff" stroke="#63b8ff" points="152.22,-175 142.22,-178.5 152.22,-182 152.22,-175"/>
</a>
</g>
</g>
<!-- Node8&#45;&gt;Node3 -->
<g id="edge8_Node000008_Node000003" class="edge">
<title>Node8&#45;&gt;Node3</title>
<g id="a_edge8_Node000008_Node000003"><a xlink:title=" ">
<path fill="none" stroke="orange" stroke-dasharray="5,2" d="M660.74,-270.62C717.73,-279.22 793.95,-290.73 851,-299.34"/>
<polygon fill="orange" stroke="orange" points="661.1,-267.13 650.69,-269.1 660.05,-274.05 661.1,-267.13"/>
</a>
</g>
<text text-anchor="middle" x="758" y="-298.5" font-family="Helvetica,sans-Serif" font-size="10.00" fill="grey"> &lt; int64_t, wmtk::EdgeMesh &gt;</text>
</g>
<!-- Node8&#45;&gt;Node4 -->
<g id="edge9_Node000008_Node000004" class="edge">
<title>Node8&#45;&gt;Node4</title>
<g id="a_edge9_Node000008_Node000004"><a xlink:title=" ">
<path fill="none" stroke="orange" stroke-dasharray="5,2" d="M615.67,-278.33C635.13,-288.79 659.96,-301.31 683,-310.5 745.2,-335.3 819.01,-356.27 869.95,-369.48"/>
<polygon fill="orange" stroke="orange" points="617.32,-275.24 606.86,-273.54 613.98,-281.39 617.32,-275.24"/>
</a>
</g>
<text text-anchor="middle" x="758" y="-361.5" font-family="Helvetica,sans-Serif" font-size="10.00" fill="grey"> &lt; int64_t, wmtk::TetMesh &gt;</text>
</g>
<!-- Node8&#45;&gt;Node5 -->
<g id="edge10_Node000008_Node000005" class="edge">
<title>Node8&#45;&gt;Node5</title>
<g id="a_edge10_Node000008_Node000005"><a xlink:title=" ">
<path fill="none" stroke="orange" stroke-dasharray="5,2" d="M660.72,-245.24C719.81,-235.48 799.56,-222.3 857.19,-212.78"/>
<polygon fill="orange" stroke="orange" points="659.98,-241.82 650.69,-246.9 661.12,-248.73 659.98,-241.82"/>
</a>
</g>
<text text-anchor="middle" x="758" y="-243.5" font-family="Helvetica,sans-Serif" font-size="10.00" fill="grey"> &lt; int64_t, wmtk::TriMesh &gt;</text>
</g>
<!-- Node8&#45;&gt;Node6 -->
<g id="edge11_Node000008_Node000006" class="edge">
<title>Node8&#45;&gt;Node6</title>
<g id="a_edge11_Node000008_Node000006"><a xlink:title=" ">
<path fill="none" stroke="orange" stroke-dasharray="5,2" d="M613.44,-238.02C633.09,-226.44 658.85,-212.35 683,-202.5 741.83,-178.5 811.7,-159.62 862.34,-147.54"/>
<polygon fill="orange" stroke="orange" points="611.38,-235.18 604.59,-243.31 614.97,-241.18 611.38,-235.18"/>
</a>
</g>
<text text-anchor="middle" x="758" y="-205.5" font-family="Helvetica,sans-Serif" font-size="10.00" fill="grey"> &lt; int64_t, MeshType &gt;</text>
</g>
<!-- Node8&#45;&gt;Node7 -->
<g id="edge12_Node000008_Node000007" class="edge">
<title>Node8&#45;&gt;Node7</title>
<g id="a_edge12_Node000008_Node000007"><a xlink:title=" ">
<path fill="none" stroke="orange" stroke-dasharray="5,2" d="M660.96,-258.5C721.49,-258.5 803.6,-258.5 861.44,-258.5"/>
<polygon fill="orange" stroke="orange" points="660.69,-255 650.69,-258.5 660.69,-262 660.69,-255"/>
</a>
</g>
<text text-anchor="middle" x="758" y="-261.5" font-family="Helvetica,sans-Serif" font-size="10.00" fill="grey"> &lt; int64_t &gt;</text>
</g>
</g>
</svg>
