<?xml version="1.0" encoding="UTF-8" standalone="no"?>
<!DOCTYPE svg PUBLIC "-//W3C//DTD SVG 1.1//EN"
 "http://www.w3.org/Graphics/SVG/1.1/DTD/svg11.dtd">
<!-- Generated by graphviz version 2.43.0 (0)
 -->
<!-- Title: wmtk::TriMesh::id_edge Pages: 1 -->
<svg width="611pt" height="82pt"
 viewBox="0.00 0.00 611.00 82.00" xmlns="http://www.w3.org/2000/svg" xmlns:xlink="http://www.w3.org/1999/xlink">
<g id="graph0" class="graph" transform="scale(1 1) rotate(0) translate(4 78)">
<title>wmtk::TriMesh::id_edge</title>
<!-- Node1 -->
<g id="Node000001" class="node">
<title>Node1</title>
<g id="a_Node000001"><a xlink:title=" ">
<polygon fill="#999999" stroke="#666666" points="132,-46 0,-46 0,-27 132,-27 132,-46"/>
<text text-anchor="middle" x="66" y="-34" font-family="Helvetica,sans-Serif" font-size="10.00">wmtk::TriMesh::id_edge</text>
</a>
</g>
</g>
<!-- Node2 -->
<g id="Node000002" class="node">
<title>Node2</title>
<g id="a_Node000002"><a xlink:href="classwmtk_1_1_tri_mesh.html#a9975c25ed665c9c9a7f1ae92818a1b7c" target="_top" xlink:title=" ">
<polygon fill="white" stroke="#666666" points="271,-46 168,-46 168,-27 271,-27 271,-46"/>
<text text-anchor="middle" x="219.5" y="-34" font-family="Helvetica,sans-Serif" font-size="10.00">wmtk::TriMesh::id</text>
</a>
</g>
</g>
<!-- Node1&#45;&gt;Node2 -->
<g id="edge1_Node000001_Node000002" class="edge">
<title>Node1&#45;&gt;Node2</title>
<g id="a_edge1_Node000001_Node000002"><a xlink:title=" ">
<path fill="none" stroke="#63b8ff" d="M132.13,-36.5C140.57,-36.5 149.19,-36.5 157.55,-36.5"/>
<polygon fill="#63b8ff" stroke="#63b8ff" points="157.6,-40 167.6,-36.5 157.6,-33 157.6,-40"/>
</a>
</g>
</g>
<!-- Node3 -->
<g id="Node000003" class="node">
<title>Node3</title>
<g id="a_Node000003"><a xlink:href="classwmtk_1_1_mesh.html#a8cc8686f0688613806f43720b6db49e7" target="_top" xlink:title="check validity of tuple including its hash">
<polygon fill="white" stroke="#666666" points="427,-46 307,-46 307,-27 427,-27 427,-46"/>
<text text-anchor="middle" x="367" y="-34" font-family="Helvetica,sans-Serif" font-size="10.00">wmtk::Mesh::is_valid</text>
</a>
</g>
</g>
<!-- Node2&#45;&gt;Node3 -->
<g id="edge2_Node000002_Node000003" class="edge">
<title>Node2&#45;&gt;Node3</title>
<g id="a_edge2_Node000002_Node000003"><a xlink:title=" ">
<path fill="none" stroke="#63b8ff" d="M271.39,-36.5C279.63,-36.5 288.29,-36.5 296.89,-36.5"/>
<polygon fill="#63b8ff" stroke="#63b8ff" points="296.91,-40 306.91,-36.5 296.91,-33 296.91,-40"/>
</a>
</g>
</g>
<!-- Node4 -->
<g id="Node000004" class="node">
<title>Node4</title>
<g id="a_Node000004"><a xlink:href="classwmtk_1_1_tuple.html#a0023f575be92cd5ceeeaaaa3762ea06d" target="_top" xlink:title="Checks if a tuple is &quot;null&quot;. This merely implies the global index is &#45;1.">
<polygon fill="white" stroke="#666666" points="589.5,-74 476.5,-74 476.5,-55 589.5,-55 589.5,-74"/>
<text text-anchor="middle" x="533" y="-62" font-family="Helvetica,sans-Serif" font-size="10.00">wmtk::Tuple::is_null</text>
</a>
</g>
</g>
<!-- Node3&#45;&gt;Node4 -->
<g id="edge3_Node000003_Node000004" class="edge">
<title>Node3&#45;&gt;Node4</title>
<g id="a_edge3_Node000003_Node000004"><a xlink:title=" ">
<path fill="none" stroke="#63b8ff" d="M423.98,-46.06C437.57,-48.38 452.22,-50.88 466.22,-53.27"/>
<polygon fill="#63b8ff" stroke="#63b8ff" points="465.83,-56.75 476.27,-54.99 467,-49.85 465.83,-56.75"/>
</a>
</g>
</g>
<!-- Node5 -->
<g id="Node000005" class="node">
<title>Node5</title>
<g id="a_Node000005"><a xlink:href="classwmtk_1_1_mesh.html#ade176d345902d97af8c5da04aa3a095b" target="_top" xlink:title=" ">
<polygon fill="white" stroke="#666666" points="603,-19 463,-19 463,0 603,0 603,-19"/>
<text text-anchor="middle" x="533" y="-7" font-family="Helvetica,sans-Serif" font-size="10.00">wmtk::Mesh::is_removed</text>
</a>
</g>
</g>
<!-- Node3&#45;&gt;Node5 -->
<g id="edge4_Node000003_Node000005" class="edge">
<title>Node3&#45;&gt;Node5</title>
<g id="a_edge4_Node000003_Node000005"><a xlink:title=" ">
<path fill="none" stroke="#63b8ff" d="M425.82,-26.98C438.19,-24.94 451.37,-22.77 464.08,-20.68"/>
<polygon fill="#63b8ff" stroke="#63b8ff" points="464.85,-24.1 474.15,-19.02 463.71,-17.2 464.85,-24.1"/>
</a>
</g>
</g>
<!-- Node5&#45;&gt;Node5 -->
<g id="edge5_Node000005_Node000005" class="edge">
<title>Node5&#45;&gt;Node5</title>
<g id="a_edge5_Node000005_Node000005"><a xlink:title=" ">
<path fill="none" stroke="#63b8ff" d="M507.41,-19.08C494.97,-27.73 503.5,-37 533,-37 552.36,-37 562.69,-33.01 563.99,-27.82"/>
<polygon fill="#63b8ff" stroke="#63b8ff" points="566.82,-25.75 558.59,-19.08 560.87,-29.43 566.82,-25.75"/>
</a>
</g>
</g>
</g>
</svg>
