<?xml version="1.0" encoding="UTF-8" standalone="no"?>
<!DOCTYPE svg PUBLIC "-//W3C//DTD SVG 1.1//EN"
 "http://www.w3.org/Graphics/SVG/1.1/DTD/svg11.dtd">
<!-- Generated by graphviz version 2.43.0 (0)
 -->
<!-- Title: wmtk::Mesh::update_child_handles Pages: 1 -->
<svg width="506pt" height="104pt"
 viewBox="0.00 0.00 506.00 104.00" xmlns="http://www.w3.org/2000/svg" xmlns:xlink="http://www.w3.org/1999/xlink">
<g id="graph0" class="graph" transform="scale(1 1) rotate(0) translate(4 100)">
<title>wmtk::Mesh::update_child_handles</title>
<!-- Node1 -->
<g id="Node000001" class="node">
<title>Node1</title>
<g id="a_Node000001"><a xlink:title="Update the child handles after clearing attributes.">
<polygon fill="#999999" stroke="#666666" points="498,-63 382,-63 382,-33 498,-33 498,-63"/>
<text text-anchor="start" x="390" y="-51" font-family="Helvetica,sans-Serif" font-size="10.00">wmtk::Mesh::update</text>
<text text-anchor="middle" x="440" y="-40" font-family="Helvetica,sans-Serif" font-size="10.00">_child_handles</text>
</a>
</g>
</g>
<!-- Node2 -->
<g id="Node000002" class="node">
<title>Node2</title>
<g id="a_Node000002"><a xlink:href="classwmtk_1_1_mesh.html#a1560383e3efd16c50b116642ebf3d6c6" target="_top" xlink:title="Remove all custom attributes besides the one passed in.">
<polygon fill="white" stroke="#666666" points="346,-57.5 187,-57.5 187,-38.5 346,-38.5 346,-57.5"/>
<text text-anchor="middle" x="266.5" y="-45.5" font-family="Helvetica,sans-Serif" font-size="10.00">wmtk::Mesh::clear_attributes</text>
</a>
</g>
</g>
<!-- Node1&#45;&gt;Node2 -->
<g id="edge1_Node000001_Node000002" class="edge">
<title>Node1&#45;&gt;Node2</title>
<g id="a_edge1_Node000001_Node000002"><a xlink:title=" ">
<path fill="none" stroke="#63b8ff" d="M371.75,-48C363.32,-48 354.63,-48 346.04,-48"/>
<polygon fill="#63b8ff" stroke="#63b8ff" points="371.89,-51.5 381.89,-48 371.89,-44.5 371.89,-51.5"/>
</a>
</g>
</g>
<!-- Node3 -->
<g id="Node000003" class="node">
<title>Node3</title>
<g id="a_Node000003"><a xlink:href="namespacewmtk_1_1components.html#a7cec0c38121ddd036af26c760311d0e8" target="_top" xlink:title=" ">
<polygon fill="white" stroke="#666666" points="151,-96 0,-96 0,-66 151,-66 151,-96"/>
<text text-anchor="start" x="8" y="-84" font-family="Helvetica,sans-Serif" font-size="10.00">wmtk::components::regular</text>
<text text-anchor="middle" x="75.5" y="-73" font-family="Helvetica,sans-Serif" font-size="10.00">_space</text>
</a>
</g>
</g>
<!-- Node2&#45;&gt;Node3 -->
<g id="edge2_Node000002_Node000003" class="edge">
<title>Node2&#45;&gt;Node3</title>
<g id="a_edge2_Node000002_Node000003"><a xlink:title=" ">
<path fill="none" stroke="#63b8ff" d="M200.81,-59.3C184.86,-62.08 167.65,-65.09 151.26,-67.95"/>
<polygon fill="#63b8ff" stroke="#63b8ff" points="201.84,-62.67 211.09,-57.5 200.63,-55.77 201.84,-62.67"/>
</a>
</g>
</g>
<!-- Node4 -->
<g id="Node000004" class="node">
<title>Node4</title>
<g id="a_Node000004"><a xlink:href="namespacewmtk_1_1components.html#ae22ac68a5d85a281c4aeafa97f5230bc" target="_top" xlink:title=" ">
<polygon fill="white" stroke="#666666" points="141.5,-30 9.5,-30 9.5,0 141.5,0 141.5,-30"/>
<text text-anchor="start" x="17.5" y="-18" font-family="Helvetica,sans-Serif" font-size="10.00">wmtk::components::tag</text>
<text text-anchor="middle" x="75.5" y="-7" font-family="Helvetica,sans-Serif" font-size="10.00">_intersection</text>
</a>
</g>
</g>
<!-- Node2&#45;&gt;Node4 -->
<g id="edge3_Node000002_Node000004" class="edge">
<title>Node2&#45;&gt;Node4</title>
<g id="a_edge3_Node000002_Node000004"><a xlink:title=" ">
<path fill="none" stroke="#63b8ff" d="M201.21,-36.78C181.97,-33.42 160.86,-29.73 141.57,-26.36"/>
<polygon fill="#63b8ff" stroke="#63b8ff" points="200.63,-40.23 211.09,-38.5 201.84,-33.33 200.63,-40.23"/>
</a>
</g>
</g>
<!-- Node4&#45;&gt;Node4 -->
<g id="edge4_Node000004_Node000004" class="edge">
<title>Node4&#45;&gt;Node4</title>
<g id="a_edge4_Node000004_Node000004"><a xlink:title=" ">
<path fill="none" stroke="#63b8ff" d="M108.76,-40.6C104.21,-44.97 93.13,-48 75.5,-48 45.81,-48 34.68,-39.41 42.1,-30.28"/>
<polygon fill="#63b8ff" stroke="#63b8ff" points="112.26,-40.32 108.9,-30.28 105.26,-40.23 112.26,-40.32"/>
</a>
</g>
</g>
</g>
</svg>
