<?xml version="1.0" encoding="UTF-8" standalone="no"?>
<!DOCTYPE svg PUBLIC "-//W3C//DTD SVG 1.1//EN"
 "http://www.w3.org/Graphics/SVG/1.1/DTD/svg11.dtd">
<!-- Generated by graphviz version 2.43.0 (0)
 -->
<!-- Title: wmtk::invariants::InvariantCollection::after Pages: 1 -->
<!--zoomable 516 -->

<svg id="main" version="1.1" xmlns="http://www.w3.org/2000/svg" xmlns:xlink="http://www.w3.org/1999/xlink" xml:space="preserve" onload="init(evt)">
<style type="text/css"><![CDATA[
.node, .edge {opacity: 0.7;}
.node.selected, .edge.selected {opacity: 1;}
.edge:hover path { stroke: red; }
.edge:hover polygon { stroke: red; fill: red; }
]]></style>

<defs>
  <circle id="rim" cx="0" cy="0" r="7"/>
  <circle id="rim2" cx="0" cy="0" r="3.5"/>
  <g id="zoomPlus">
    <use xlink:href="#rim" fill="#404040"><set attributeName="fill" to="#808080" begin="zoomplus.mouseover" end="zoomplus.mouseout"/></use>
    <path d="M-4,0h8M0,-4v8" fill="none" stroke="white" stroke-width="1.5" pointer-events="none"/>
  </g>
  <g id="zoomMin">
    <use xlink:href="#rim" fill="#404040"><set attributeName="fill" to="#808080" begin="zoomminus.mouseover" end="zoomminus.mouseout"/></use>
    <path d="M-4,0h8" fill="none" stroke="white" stroke-width="1.5" pointer-events="none"/>
  </g>
  <g id="arrowUp" transform="translate(30 24)">
    <use xlink:href="#rim"/>
    <path pointer-events="none" fill="none" stroke="white" stroke-width="1.5" d="M0,-3.0v7 M-2.5,-0.5L0,-3.0L2.5,-0.5"/>
  </g>
  <g id="arrowRight" transform="rotate(90) translate(36 -43)">
    <use xlink:href="#rim"/>
    <path pointer-events="none" fill="none" stroke="white" stroke-width="1.5" d="M0,-3.0v7 M-2.5,-0.5L0,-3.0L2.5,-0.5"/>
  </g>
  <g id="arrowDown" transform="rotate(180) translate(-30 -48)">
    <use xlink:href="#rim"/>
    <path pointer-events="none" fill="none" stroke="white" stroke-width="1.5" d="M0,-3.0v7 M-2.5,-0.5L0,-3.0L2.5,-0.5"/>
  </g>
  <g id="arrowLeft" transform="rotate(270) translate(-36 17)">
    <use xlink:href="#rim"/>
    <path pointer-events="none" fill="none" stroke="white" stroke-width="1.5" d="M0,-3.0v7 M-2.5,-0.5L0,-3.0L2.5,-0.5"/>
  </g>
  <g id="resetDef">
    <use xlink:href="#rim2" fill="#404040"><set attributeName="fill" to="#808080" begin="reset.mouseover" end="reset.mouseout"/></use>
  </g>
</defs>
<script type="application/ecmascript">
var viewWidth = 1918;
var viewHeight = 516;
var sectionId = 'dynsection-3';
</script>
<script type="application/ecmascript" xlink:href="svg.min.js"/>
<svg id="graph" class="graph">
<g id="viewport">
<title>wmtk::invariants::InvariantCollection::after</title>
<!-- Node1 -->
<g id="Node000001" class="node">
<title>Node1</title>
<g id="a_Node000001"><a xlink:title=" ">
<polygon fill="#999999" stroke="#666666" points="149,-160 0,-160 0,-130 149,-130 149,-160"/>
<text text-anchor="start" x="8" y="-148" font-family="Helvetica,sans-Serif" font-size="10.00">wmtk::invariants::Invariant</text>
<text text-anchor="middle" x="74.5" y="-137" font-family="Helvetica,sans-Serif" font-size="10.00">Collection::after</text>
</a>
</g>
</g>
<!-- Node2 -->
<g id="Node000002" class="node">
<title>Node2</title>
<g id="a_Node000002"><a xlink:href="classwmtk_1_1_mesh.html#a82637d24776e0e06e2124ce914c4b40f" target="_top" xlink:title="maps a simplex from this mesh to any other mesh">
<polygon fill="white" stroke="#666666" points="329.5,-197.5 189.5,-197.5 189.5,-178.5 329.5,-178.5 329.5,-197.5"/>
<text text-anchor="middle" x="259.5" y="-185.5" font-family="Helvetica,sans-Serif" font-size="10.00">wmtk::Mesh::map_tuples</text>
</a>
</g>
</g>
<!-- Node1&#45;&gt;Node2 -->
<g id="edge1_Node000001_Node000002" class="edge">
<title>Node1&#45;&gt;Node2</title>
<g id="a_edge1_Node000001_Node000002"><a xlink:title=" ">
<path fill="none" stroke="#63b8ff" d="M139.5,-160.04C162.02,-165.33 186.98,-171.19 208.2,-176.18"/>
<polygon fill="#63b8ff" stroke="#63b8ff" points="207.44,-179.6 217.98,-178.48 209.04,-172.78 207.44,-179.6"/>
</a>
</g>
</g>
<!-- Node34 -->
<g id="Node000034" class="node">
<title>Node34</title>
<g id="a_Node000034"><a xlink:href="classwmtk_1_1invariants_1_1_invariant.html#ac97548bf5f1167cd85081d1bde011139" target="_top" xlink:title=" ">
<polygon fill="white" stroke="#666666" points="334,-160 185,-160 185,-130 334,-130 334,-160"/>
<text text-anchor="start" x="193" y="-148" font-family="Helvetica,sans-Serif" font-size="10.00">wmtk::invariants::Invariant</text>
<text text-anchor="middle" x="259.5" y="-137" font-family="Helvetica,sans-Serif" font-size="10.00">::mesh</text>
</a>
</g>
</g>
<!-- Node1&#45;&gt;Node34 -->
<g id="edge42_Node000001_Node000034" class="edge">
<title>Node1&#45;&gt;Node34</title>
<g id="a_edge42_Node000001_Node000034"><a xlink:title=" ">
<path fill="none" stroke="#63b8ff" d="M149.14,-145C157.47,-145 166.01,-145 174.46,-145"/>
<polygon fill="#63b8ff" stroke="#63b8ff" points="174.71,-148.5 184.71,-145 174.71,-141.5 174.71,-148.5"/>
</a>
</g>
</g>
<!-- Node35 -->
<g id="Node000035" class="node">
<title>Node35</title>
<g id="a_Node000035"><a xlink:href="classwmtk_1_1_mesh.html#ac5778c1f8afef3a2b1b1c33a140b3166" target="_top" xlink:title="Evaluate the passed in function inside the parent scope.">
<polygon fill="white" stroke="#666666" points="316.5,-112 202.5,-112 202.5,-82 316.5,-82 316.5,-112"/>
<text text-anchor="start" x="210.5" y="-100" font-family="Helvetica,sans-Serif" font-size="10.00">wmtk::Mesh::parent</text>
<text text-anchor="middle" x="259.5" y="-89" font-family="Helvetica,sans-Serif" font-size="10.00">_scope</text>
</a>
</g>
</g>
<!-- Node1&#45;&gt;Node35 -->
<g id="edge43_Node000001_Node000035" class="edge">
<title>Node1&#45;&gt;Node35</title>
<g id="a_edge43_Node000001_Node000035"><a xlink:title=" ">
<path fill="none" stroke="#63b8ff" d="M132.9,-129.94C151.82,-124.98 173.01,-119.42 192.52,-114.31"/>
<polygon fill="#63b8ff" stroke="#63b8ff" points="193.46,-117.68 202.24,-111.76 191.68,-110.91 193.46,-117.68"/>
</a>
</g>
</g>
<!-- Node3 -->
<g id="Node000003" class="node">
<title>Node3</title>
<g id="a_Node000003"><a xlink:href="classwmtk_1_1_mesh.html#ad054c074d4776010002321117ec459e8" target="_top" xlink:title=" ">
<polygon fill="white" stroke="#666666" points="531,-238 370,-238 370,-208 531,-208 531,-238"/>
<text text-anchor="start" x="378" y="-226" font-family="Helvetica,sans-Serif" font-size="10.00">wmtk::Mesh::is_from</text>
<text text-anchor="middle" x="450.5" y="-215" font-family="Helvetica,sans-Serif" font-size="10.00">_same_multi_mesh_structure</text>
</a>
</g>
</g>
<!-- Node2&#45;&gt;Node3 -->
<g id="edge2_Node000002_Node000003" class="edge">
<title>Node2&#45;&gt;Node3</title>
<g id="a_edge2_Node000002_Node000003"><a xlink:title=" ">
<path fill="none" stroke="#63b8ff" d="M312.15,-197.56C326.9,-200.3 343.42,-203.36 359.75,-206.38"/>
<polygon fill="#63b8ff" stroke="#63b8ff" points="359.41,-209.88 369.88,-208.26 360.68,-202.99 359.41,-209.88"/>
</a>
</g>
</g>
<!-- Node7 -->
<g id="Node000007" class="node">
<title>Node7</title>
<g id="a_Node000007"><a xlink:href="classwmtk_1_1multimesh_1_1_multi_mesh_manager.html#acaaab688faff0e1b2d9142d6cc128e46" target="_top" xlink:title="maps a simplex from this mesh to any other mesh">
<polygon fill="white" stroke="#666666" points="530.5,-169 370.5,-169 370.5,-139 530.5,-139 530.5,-169"/>
<text text-anchor="start" x="378.5" y="-157" font-family="Helvetica,sans-Serif" font-size="10.00">wmtk::multimesh::MultiMesh</text>
<text text-anchor="middle" x="450.5" y="-146" font-family="Helvetica,sans-Serif" font-size="10.00">Manager::map_tuples</text>
</a>
</g>
</g>
<!-- Node2&#45;&gt;Node7 -->
<g id="edge7_Node000002_Node000007" class="edge">
<title>Node2&#45;&gt;Node7</title>
<g id="a_edge7_Node000002_Node000007"><a xlink:title=" ">
<path fill="none" stroke="#63b8ff" d="M313.4,-178.48C328.05,-175.85 344.37,-172.91 360.47,-170.02"/>
<polygon fill="#63b8ff" stroke="#63b8ff" points="361.23,-173.44 370.45,-168.22 359.99,-166.55 361.23,-173.44"/>
</a>
</g>
</g>
<!-- Node4 -->
<g id="Node000004" class="node">
<title>Node4</title>
<g id="a_Node000004"><a xlink:href="classwmtk_1_1_mesh.html#aac3ec1ebbe00982ddfe70cc710d8f54e" target="_top" xlink:title="returns a reference to the root of a multimesh tree">
<polygon fill="white" stroke="#666666" points="711.5,-269 582.5,-269 582.5,-239 711.5,-239 711.5,-269"/>
<text text-anchor="start" x="590.5" y="-257" font-family="Helvetica,sans-Serif" font-size="10.00">wmtk::Mesh::get_multi</text>
<text text-anchor="middle" x="647" y="-246" font-family="Helvetica,sans-Serif" font-size="10.00">_mesh_root</text>
</a>
</g>
</g>
<!-- Node3&#45;&gt;Node4 -->
<g id="edge3_Node000003_Node000004" class="edge">
<title>Node3&#45;&gt;Node4</title>
<g id="a_edge3_Node000003_Node000004"><a xlink:title=" ">
<path fill="none" stroke="#63b8ff" d="M531.17,-235.7C544.71,-237.86 558.73,-240.09 572.11,-242.22"/>
<polygon fill="#63b8ff" stroke="#63b8ff" points="571.78,-245.72 582.21,-243.83 572.89,-238.8 571.78,-245.72"/>
</a>
</g>
</g>
<!-- Node5 -->
<g id="Node000005" class="node">
<title>Node5</title>
<g id="a_Node000005"><a xlink:href="classwmtk_1_1multimesh_1_1_multi_mesh_manager.html#a434e74f6b295055a45914d41a784124a" target="_top" xlink:title=" ">
<polygon fill="white" stroke="#666666" points="942.5,-278 782.5,-278 782.5,-248 942.5,-248 942.5,-278"/>
<text text-anchor="start" x="790.5" y="-266" font-family="Helvetica,sans-Serif" font-size="10.00">wmtk::multimesh::MultiMesh</text>
<text text-anchor="middle" x="862.5" y="-255" font-family="Helvetica,sans-Serif" font-size="10.00">Manager::get_root_mesh</text>
</a>
</g>
</g>
<!-- Node4&#45;&gt;Node5 -->
<g id="edge4_Node000004_Node000005" class="edge">
<title>Node4&#45;&gt;Node5</title>
<g id="a_edge4_Node000004_Node000005"><a xlink:title=" ">
<path fill="none" stroke="#63b8ff" d="M711.77,-256.69C730.69,-257.49 751.77,-258.37 772.01,-259.23"/>
<polygon fill="#63b8ff" stroke="#63b8ff" points="772.03,-262.73 782.17,-259.66 772.33,-255.74 772.03,-262.73"/>
</a>
</g>
</g>
<!-- Node5&#45;&gt;Node5 -->
<g id="edge5_Node000005_Node000005" class="edge">
<title>Node5&#45;&gt;Node5</title>
<g id="a_edge5_Node000005_Node000005"><a xlink:title=" ">
<path fill="none" stroke="#63b8ff" d="M824.88,-278.28C816.52,-287.41 829.06,-296 862.5,-296 882.35,-296 894.84,-292.97 899.96,-288.6"/>
<polygon fill="#63b8ff" stroke="#63b8ff" points="903.46,-288.33 900.12,-278.28 896.46,-288.22 903.46,-288.33"/>
</a>
</g>
</g>
<!-- Node6 -->
<g id="Node000006" class="node">
<title>Node6</title>
<g id="a_Node000006"><a xlink:href="classwmtk_1_1multimesh_1_1_multi_mesh_manager.html#a7d39339adb56b1798fe817d81bfcc67c" target="_top" xlink:title="Specifies whether this structure is the root of a multi&#45;mesh tree.">
<polygon fill="white" stroke="#666666" points="1182,-260 1022,-260 1022,-230 1182,-230 1182,-260"/>
<text text-anchor="start" x="1030" y="-248" font-family="Helvetica,sans-Serif" font-size="10.00">wmtk::multimesh::MultiMesh</text>
<text text-anchor="middle" x="1102" y="-237" font-family="Helvetica,sans-Serif" font-size="10.00">Manager::is_root</text>
</a>
</g>
</g>
<!-- Node5&#45;&gt;Node6 -->
<g id="edge6_Node000005_Node000006" class="edge">
<title>Node5&#45;&gt;Node6</title>
<g id="a_edge6_Node000005_Node000006"><a xlink:title=" ">
<path fill="none" stroke="#63b8ff" d="M942.58,-257.01C964.8,-255.32 989.11,-253.48 1011.87,-251.76"/>
<polygon fill="#63b8ff" stroke="#63b8ff" points="1012.15,-255.24 1021.86,-251 1011.62,-248.26 1012.15,-255.24"/>
</a>
</g>
</g>
<!-- Node8 -->
<g id="Node000008" class="node">
<title>Node8</title>
<g id="a_Node000008"><a xlink:href="classwmtk_1_1multimesh_1_1_multi_mesh_manager.html#a812e0992812b2c48a889e10ae9e50758" target="_top" xlink:title=" ">
<polygon fill="white" stroke="#666666" points="942.5,-212 782.5,-212 782.5,-182 942.5,-182 942.5,-212"/>
<text text-anchor="start" x="790.5" y="-200" font-family="Helvetica,sans-Serif" font-size="10.00">wmtk::multimesh::MultiMesh</text>
<text text-anchor="middle" x="862.5" y="-189" font-family="Helvetica,sans-Serif" font-size="10.00">Manager::absolute_id</text>
</a>
</g>
</g>
<!-- Node7&#45;&gt;Node8 -->
<g id="edge8_Node000007_Node000008" class="edge">
<title>Node7&#45;&gt;Node8</title>
<g id="a_edge8_Node000007_Node000008"><a xlink:title=" ">
<path fill="none" stroke="#63b8ff" d="M530.69,-157.2C585.87,-159.98 661.1,-164.87 727,-173 742.79,-174.95 759.54,-177.52 775.66,-180.26"/>
<polygon fill="#63b8ff" stroke="#63b8ff" points="775.16,-183.73 785.61,-181.98 776.35,-176.83 775.16,-183.73"/>
</a>
</g>
</g>
<!-- Node9 -->
<g id="Node000009" class="node">
<title>Node9</title>
<g id="a_Node000009"><a xlink:href="classwmtk_1_1_mesh.html#a2102fdea06a0c543437e67d77aeb2013" target="_top" xlink:title="returns a unique identifier for this mesh within a single multimesh structure">
<polygon fill="white" stroke="#666666" points="709.5,-212 584.5,-212 584.5,-182 709.5,-182 709.5,-212"/>
<text text-anchor="start" x="592.5" y="-200" font-family="Helvetica,sans-Serif" font-size="10.00">wmtk::Mesh::absolute</text>
<text text-anchor="middle" x="647" y="-189" font-family="Helvetica,sans-Serif" font-size="10.00">_multi_mesh_id</text>
</a>
</g>
</g>
<!-- Node7&#45;&gt;Node9 -->
<g id="edge11_Node000007_Node000009" class="edge">
<title>Node7&#45;&gt;Node9</title>
<g id="a_edge11_Node000007_Node000009"><a xlink:title=" ">
<path fill="none" stroke="#63b8ff" d="M519.53,-169.04C537.27,-172.96 556.45,-177.2 574.38,-181.17"/>
<polygon fill="#63b8ff" stroke="#63b8ff" points="573.67,-184.59 584.19,-183.34 575.18,-177.76 573.67,-184.59"/>
</a>
</g>
</g>
<!-- Node10 -->
<g id="Node000010" class="node">
<title>Node10</title>
<g id="a_Node000010"><a xlink:href="classwmtk_1_1multimesh_1_1_multi_mesh_manager.html#aefe5179057c978e227c3349d13578c4a" target="_top" xlink:title=" ">
<polygon fill="white" stroke="#666666" points="727,-121 567,-121 567,-91 727,-91 727,-121"/>
<text text-anchor="start" x="575" y="-109" font-family="Helvetica,sans-Serif" font-size="10.00">wmtk::multimesh::MultiMesh</text>
<text text-anchor="middle" x="647" y="-98" font-family="Helvetica,sans-Serif" font-size="10.00">Manager::map_up_to_tuples</text>
</a>
</g>
</g>
<!-- Node7&#45;&gt;Node10 -->
<g id="edge13_Node000007_Node000010" class="edge">
<title>Node7&#45;&gt;Node10</title>
<g id="a_edge13_Node000007_Node000010"><a xlink:title=" ">
<path fill="none" stroke="#63b8ff" d="M512.51,-138.94C532.42,-134.03 554.7,-128.53 575.27,-123.46"/>
<polygon fill="#63b8ff" stroke="#63b8ff" points="576.34,-126.8 585.21,-121 574.66,-120 576.34,-126.8"/>
</a>
</g>
</g>
<!-- Node28 -->
<g id="Node000028" class="node">
<title>Node28</title>
<g id="a_Node000028"><a xlink:href="classwmtk_1_1simplex_1_1_simplex.html#ad2cc0340a0772b7d6f03ba7a781d1163" target="_top" xlink:title=" ">
<polygon fill="white" stroke="#666666" points="1619.5,-30 1484.5,-30 1484.5,0 1619.5,0 1619.5,-30"/>
<text text-anchor="start" x="1492.5" y="-18" font-family="Helvetica,sans-Serif" font-size="10.00">wmtk::simplex::Simplex</text>
<text text-anchor="middle" x="1552" y="-7" font-family="Helvetica,sans-Serif" font-size="10.00">::primitive_type</text>
</a>
</g>
</g>
<!-- Node7&#45;&gt;Node28 -->
<g id="edge41_Node000007_Node000028" class="edge">
<title>Node7&#45;&gt;Node28</title>
<g id="a_edge41_Node000007_Node000028"><a xlink:title=" ">
<path fill="none" stroke="#63b8ff" d="M471.22,-138.76C493.35,-122.38 530.9,-96.73 567,-82 691.11,-31.37 727.46,-17 861.5,-17 861.5,-17 861.5,-17 1103,-17 1233.31,-17 1384.94,-16.14 1474.17,-15.55"/>
<polygon fill="#63b8ff" stroke="#63b8ff" points="1474.23,-19.05 1484.21,-15.48 1474.18,-12.05 1474.23,-19.05"/>
</a>
</g>
</g>
<!-- Node8&#45;&gt;Node6 -->
<g id="edge10_Node000008_Node000006" class="edge">
<title>Node8&#45;&gt;Node6</title>
<g id="a_edge10_Node000008_Node000006"><a xlink:title=" ">
<path fill="none" stroke="#63b8ff" d="M937.99,-212.06C962.97,-217.1 991,-222.77 1016.68,-227.96"/>
<polygon fill="#63b8ff" stroke="#63b8ff" points="1016.27,-231.45 1026.77,-230 1017.66,-224.59 1016.27,-231.45"/>
</a>
</g>
</g>
<!-- Node8&#45;&gt;Node8 -->
<g id="edge9_Node000008_Node000008" class="edge">
<title>Node8&#45;&gt;Node8</title>
<g id="a_edge9_Node000008_Node000008"><a xlink:title=" ">
<path fill="none" stroke="#63b8ff" d="M824.88,-212.28C816.52,-221.41 829.06,-230 862.5,-230 882.35,-230 894.84,-226.97 899.96,-222.6"/>
<polygon fill="#63b8ff" stroke="#63b8ff" points="903.46,-222.33 900.12,-212.28 896.46,-222.22 903.46,-222.33"/>
</a>
</g>
</g>
<!-- Node9&#45;&gt;Node8 -->
<g id="edge12_Node000009_Node000008" class="edge">
<title>Node9&#45;&gt;Node8</title>
<g id="a_edge12_Node000009_Node000008"><a xlink:title=" ">
<path fill="none" stroke="#63b8ff" d="M709.75,-197C729.23,-197 751.15,-197 772.14,-197"/>
<polygon fill="#63b8ff" stroke="#63b8ff" points="772.36,-200.5 782.36,-197 772.36,-193.5 772.36,-200.5"/>
</a>
</g>
</g>
<!-- Node11 -->
<g id="Node000011" class="node">
<title>Node11</title>
<g id="a_Node000011"><a xlink:href="classwmtk_1_1multimesh_1_1_multi_mesh_manager.html#af6fd8d8b5cc1e8b2c877718b99374f03" target="_top" xlink:title=" ">
<polygon fill="white" stroke="#666666" points="962,-164 763,-164 763,-134 962,-134 962,-164"/>
<text text-anchor="start" x="771" y="-152" font-family="Helvetica,sans-Serif" font-size="10.00">wmtk::multimesh::MultiMesh</text>
<text text-anchor="middle" x="862.5" y="-141" font-family="Helvetica,sans-Serif" font-size="10.00">Manager::map_tuple_to_parent_tuple</text>
</a>
</g>
</g>
<!-- Node10&#45;&gt;Node11 -->
<g id="edge14_Node000010_Node000011" class="edge">
<title>Node10&#45;&gt;Node11</title>
<g id="a_edge14_Node000010_Node000011"><a xlink:title=" ">
<path fill="none" stroke="#63b8ff" d="M722.67,-121.04C740.22,-124.57 759.05,-128.37 777,-131.98"/>
<polygon fill="#63b8ff" stroke="#63b8ff" points="776.38,-135.43 786.87,-133.97 777.76,-128.56 776.38,-135.43"/>
</a>
</g>
</g>
<!-- Node10&#45;&gt;Node28 -->
<g id="edge39_Node000010_Node000028" class="edge">
<title>Node10&#45;&gt;Node28</title>
<g id="a_edge39_Node000010_Node000028"><a xlink:title=" ">
<path fill="none" stroke="#63b8ff" d="M699.41,-90.98C719.13,-85.76 741.96,-80.37 763,-77 1048.53,-31.25 1124.07,-57.76 1412,-31 1432.17,-29.12 1453.96,-26.77 1474.16,-24.45"/>
<polygon fill="#63b8ff" stroke="#63b8ff" points="1474.72,-27.91 1484.25,-23.28 1473.91,-20.96 1474.72,-27.91"/>
</a>
</g>
</g>
<!-- Node33 -->
<g id="Node000033" class="node">
<title>Node33</title>
<g id="a_Node000033"><a xlink:href="classwmtk_1_1simplex_1_1_simplex.html#aca78b1fb0a3c28c0036cf7919bfb0789" target="_top" xlink:title=" ">
<polygon fill="white" stroke="#666666" points="930,-116 795,-116 795,-86 930,-86 930,-116"/>
<text text-anchor="start" x="803" y="-104" font-family="Helvetica,sans-Serif" font-size="10.00">wmtk::simplex::Simplex</text>
<text text-anchor="middle" x="862.5" y="-93" font-family="Helvetica,sans-Serif" font-size="10.00">::tuple</text>
</a>
</g>
</g>
<!-- Node10&#45;&gt;Node33 -->
<g id="edge40_Node000010_Node000033" class="edge">
<title>Node10&#45;&gt;Node33</title>
<g id="a_edge40_Node000010_Node000033"><a xlink:title=" ">
<path fill="none" stroke="#63b8ff" d="M727.2,-104.15C745.92,-103.71 765.86,-103.24 784.48,-102.8"/>
<polygon fill="#63b8ff" stroke="#63b8ff" points="784.77,-106.3 794.68,-102.56 784.6,-99.3 784.77,-106.3"/>
</a>
</g>
</g>
<!-- Node11&#45;&gt;Node6 -->
<g id="edge16_Node000011_Node000006" class="edge">
<title>Node11&#45;&gt;Node6</title>
<g id="a_edge16_Node000011_Node000006"><a xlink:title=" ">
<path fill="none" stroke="#63b8ff" d="M945.48,-164.19C951.28,-166.69 956.86,-169.61 962,-173 984.26,-187.68 975.67,-206.43 998,-221 1002.57,-223.98 1007.46,-226.59 1012.54,-228.88"/>
<polygon fill="#63b8ff" stroke="#63b8ff" points="1011.28,-232.14 1021.86,-232.66 1013.91,-225.65 1011.28,-232.14"/>
</a>
</g>
</g>
<!-- Node12 -->
<g id="Node000012" class="node">
<title>Node12</title>
<g id="a_Node000012"><a xlink:href="classwmtk_1_1_mesh.html#a357182137d99f1e4a7ff536eadfc0e56" target="_top" xlink:title=" ">
<polygon fill="white" stroke="#666666" points="1158.5,-212 1045.5,-212 1045.5,-182 1158.5,-182 1158.5,-212"/>
<text text-anchor="start" x="1053.5" y="-200" font-family="Helvetica,sans-Serif" font-size="10.00">wmtk::Mesh::create</text>
<text text-anchor="middle" x="1102" y="-189" font-family="Helvetica,sans-Serif" font-size="10.00">_const_accessor</text>
</a>
</g>
</g>
<!-- Node11&#45;&gt;Node12 -->
<g id="edge15_Node000011_Node000012" class="edge">
<title>Node11&#45;&gt;Node12</title>
<g id="a_edge15_Node000011_Node000012"><a xlink:title=" ">
<path fill="none" stroke="#63b8ff" d="M937.99,-164.06C969.16,-170.35 1005.07,-177.61 1035.24,-183.71"/>
<polygon fill="#63b8ff" stroke="#63b8ff" points="1034.75,-187.18 1045.24,-185.73 1036.13,-180.32 1034.75,-187.18"/>
</a>
</g>
</g>
<!-- Node13 -->
<g id="Node000013" class="node">
<title>Node13</title>
<g id="a_Node000013"><a xlink:href="classwmtk_1_1multimesh_1_1_multi_mesh_manager.html#a6f9186ced3e97aef2a0af71a3aa5c6a0" target="_top" xlink:title=" ">
<polygon fill="white" stroke="#666666" points="1206,-164 998,-164 998,-134 1206,-134 1206,-164"/>
<text text-anchor="start" x="1006" y="-152" font-family="Helvetica,sans-Serif" font-size="10.00">wmtk::multimesh::MultiMesh</text>
<text text-anchor="middle" x="1102" y="-141" font-family="Helvetica,sans-Serif" font-size="10.00">Manager::map_tuple_between_meshes</text>
</a>
</g>
</g>
<!-- Node11&#45;&gt;Node13 -->
<g id="edge17_Node000011_Node000013" class="edge">
<title>Node11&#45;&gt;Node13</title>
<g id="a_edge17_Node000011_Node000013"><a xlink:title=" ">
<path fill="none" stroke="#63b8ff" d="M962.16,-149C970.49,-149 978.97,-149 987.4,-149"/>
<polygon fill="#63b8ff" stroke="#63b8ff" points="987.67,-152.5 997.67,-149 987.67,-145.5 987.67,-152.5"/>
</a>
</g>
</g>
<!-- Node14 -->
<g id="Node000014" class="node">
<title>Node14</title>
<g id="a_Node000014"><a xlink:href="classwmtk_1_1_mesh.html#a8cc8686f0688613806f43720b6db49e7" target="_top" xlink:title="check validity of tuple including its hash">
<polygon fill="white" stroke="#666666" points="1387,-345.5 1267,-345.5 1267,-326.5 1387,-326.5 1387,-345.5"/>
<text text-anchor="middle" x="1327" y="-333.5" font-family="Helvetica,sans-Serif" font-size="10.00">wmtk::Mesh::is_valid</text>
</a>
</g>
</g>
<!-- Node13&#45;&gt;Node14 -->
<g id="edge18_Node000013_Node000014" class="edge">
<title>Node13&#45;&gt;Node14</title>
<g id="a_edge18_Node000013_Node000014"><a xlink:title=" ">
<path fill="none" stroke="#63b8ff" d="M1189.27,-164.09C1195.14,-166.62 1200.79,-169.57 1206,-173 1207.86,-174.23 1282.3,-276.1 1312.98,-318.15"/>
<polygon fill="#63b8ff" stroke="#63b8ff" points="1310.26,-320.36 1318.98,-326.38 1315.92,-316.24 1310.26,-320.36"/>
</a>
</g>
</g>
<!-- Node17 -->
<g id="Node000017" class="node">
<title>Node17</title>
<g id="a_Node000017"><a xlink:href="namespacewmtk_1_1multimesh_1_1utils.html#a7d748ef4839b09a5460e8af97b9fa678" target="_top" xlink:title=" ">
<polygon fill="white" stroke="#666666" points="1401.5,-212 1252.5,-212 1252.5,-182 1401.5,-182 1401.5,-212"/>
<text text-anchor="start" x="1260.5" y="-200" font-family="Helvetica,sans-Serif" font-size="10.00">wmtk::multimesh::utils</text>
<text text-anchor="middle" x="1327" y="-189" font-family="Helvetica,sans-Serif" font-size="10.00">::read_tuple_map_attribute</text>
</a>
</g>
</g>
<!-- Node13&#45;&gt;Node17 -->
<g id="edge22_Node000013_Node000017" class="edge">
<title>Node13&#45;&gt;Node17</title>
<g id="a_edge22_Node000013_Node000017"><a xlink:title=" ">
<path fill="none" stroke="#63b8ff" d="M1172.95,-164.06C1196.3,-169.08 1222.49,-174.72 1246.51,-179.89"/>
<polygon fill="#63b8ff" stroke="#63b8ff" points="1245.79,-183.31 1256.3,-182 1247.26,-176.47 1245.79,-183.31"/>
</a>
</g>
</g>
<!-- Node22 -->
<g id="Node000022" class="node">
<title>Node22</title>
<g id="a_Node000022"><a xlink:href="classwmtk_1_1_mesh.html#a965a8a24158c4aa8580c57ba09f885f7" target="_top" xlink:title="switch the orientation of the Tuple of the given dimension">
<polygon fill="white" stroke="#666666" points="1384,-164 1270,-164 1270,-134 1384,-134 1384,-164"/>
<text text-anchor="start" x="1278" y="-152" font-family="Helvetica,sans-Serif" font-size="10.00">wmtk::Mesh::switch</text>
<text text-anchor="middle" x="1327" y="-141" font-family="Helvetica,sans-Serif" font-size="10.00">_tuple</text>
</a>
</g>
</g>
<!-- Node13&#45;&gt;Node22 -->
<g id="edge27_Node000013_Node000022" class="edge">
<title>Node13&#45;&gt;Node22</title>
<g id="a_edge27_Node000013_Node000022"><a xlink:title=" ">
<path fill="none" stroke="#63b8ff" d="M1206.01,-149C1224.25,-149 1242.8,-149 1259.68,-149"/>
<polygon fill="#63b8ff" stroke="#63b8ff" points="1259.96,-152.5 1269.96,-149 1259.96,-145.5 1259.96,-152.5"/>
</a>
</g>
</g>
<!-- Node23 -->
<g id="Node000023" class="node">
<title>Node23</title>
<g id="a_Node000023"><a xlink:href="namespacewmtk_1_1simplex.html#a0101f27eb2ad82814390b92ab1a4d1a0" target="_top" xlink:title=" ">
<polygon fill="white" stroke="#666666" points="1402.5,-116 1251.5,-116 1251.5,-86 1402.5,-86 1402.5,-116"/>
<text text-anchor="start" x="1259.5" y="-104" font-family="Helvetica,sans-Serif" font-size="10.00">wmtk::simplex::top</text>
<text text-anchor="middle" x="1327" y="-93" font-family="Helvetica,sans-Serif" font-size="10.00">_dimension_cofaces_tuples</text>
</a>
</g>
</g>
<!-- Node13&#45;&gt;Node23 -->
<g id="edge28_Node000013_Node000023" class="edge">
<title>Node13&#45;&gt;Node23</title>
<g id="a_edge28_Node000013_Node000023"><a xlink:title=" ">
<path fill="none" stroke="#63b8ff" d="M1172.95,-133.94C1196.3,-128.92 1222.49,-123.28 1246.51,-118.11"/>
<polygon fill="#63b8ff" stroke="#63b8ff" points="1247.26,-121.53 1256.3,-116 1245.79,-114.69 1247.26,-121.53"/>
</a>
</g>
</g>
<!-- Node29 -->
<g id="Node000029" class="node">
<title>Node29</title>
<g id="a_Node000029"><a xlink:href="classwmtk_1_1_mesh.html#abaf00438d0700358b160e310d69725c9" target="_top" xlink:title=" ">
<polygon fill="white" stroke="#666666" points="1412,-496.5 1242,-496.5 1242,-477.5 1412,-477.5 1412,-496.5"/>
<text text-anchor="middle" x="1327" y="-484.5" font-family="Helvetica,sans-Serif" font-size="10.00">wmtk::Mesh::top_simplex_type</text>
</a>
</g>
</g>
<!-- Node13&#45;&gt;Node29 -->
<g id="edge34_Node000013_Node000029" class="edge">
<title>Node13&#45;&gt;Node29</title>
<g id="a_edge34_Node000013_Node000029"><a xlink:title=" ">
<path fill="none" stroke="#63b8ff" d="M1195.75,-164.02C1199.48,-166.61 1202.93,-169.59 1206,-173 1292.87,-269.55 1157.54,-364.34 1242,-463 1245.08,-466.6 1248.66,-469.67 1252.56,-472.3"/>
<polygon fill="#63b8ff" stroke="#63b8ff" points="1251.15,-475.52 1261.58,-477.37 1254.58,-469.42 1251.15,-475.52"/>
</a>
</g>
</g>
<!-- Node31 -->
<g id="Node000031" class="node">
<title>Node31</title>
<g id="a_Node000031"><a xlink:href="namespacewmtk_1_1multimesh_1_1utils.html#aa0392bf28bb6c304127cf0eea634fee8" target="_top" xlink:title=" ">
<polygon fill="white" stroke="#666666" points="1392,-454 1262,-454 1262,-424 1392,-424 1392,-454"/>
<text text-anchor="start" x="1270" y="-442" font-family="Helvetica,sans-Serif" font-size="10.00">wmtk::multimesh::utils</text>
<text text-anchor="middle" x="1327" y="-431" font-family="Helvetica,sans-Serif" font-size="10.00">::transport_tuple</text>
</a>
</g>
</g>
<!-- Node13&#45;&gt;Node31 -->
<g id="edge36_Node000013_Node000031" class="edge">
<title>Node13&#45;&gt;Node31</title>
<g id="a_edge36_Node000013_Node000031"><a xlink:title=" ">
<path fill="none" stroke="#63b8ff" d="M1194.99,-164C1198.97,-166.59 1202.68,-169.57 1206,-173 1263.04,-231.93 1203.55,-281.55 1242,-354 1255.39,-379.22 1278.66,-401.89 1297.32,-417.47"/>
<polygon fill="#63b8ff" stroke="#63b8ff" points="1295.28,-420.32 1305.25,-423.9 1299.69,-414.88 1295.28,-420.32"/>
</a>
</g>
</g>
<!-- Node15 -->
<g id="Node000015" class="node">
<title>Node15</title>
<g id="a_Node000015"><a xlink:href="classwmtk_1_1_tuple.html#a0023f575be92cd5ceeeaaaa3762ea06d" target="_top" xlink:title="Checks if a tuple is &quot;null&quot;. This merely implies the global index is &#45;1.">
<polygon fill="white" stroke="#666666" points="1608.5,-345.5 1495.5,-345.5 1495.5,-326.5 1608.5,-326.5 1608.5,-345.5"/>
<text text-anchor="middle" x="1552" y="-333.5" font-family="Helvetica,sans-Serif" font-size="10.00">wmtk::Tuple::is_null</text>
</a>
</g>
</g>
<!-- Node14&#45;&gt;Node15 -->
<g id="edge19_Node000014_Node000015" class="edge">
<title>Node14&#45;&gt;Node15</title>
<g id="a_edge19_Node000014_Node000015"><a xlink:title=" ">
<path fill="none" stroke="#63b8ff" d="M1387.17,-336C1417.32,-336 1454.05,-336 1485.1,-336"/>
<polygon fill="#63b8ff" stroke="#63b8ff" points="1485.39,-339.5 1495.39,-336 1485.39,-332.5 1485.39,-339.5"/>
</a>
</g>
</g>
<!-- Node16 -->
<g id="Node000016" class="node">
<title>Node16</title>
<g id="a_Node000016"><a xlink:href="classwmtk_1_1_mesh.html#ade176d345902d97af8c5da04aa3a095b" target="_top" xlink:title=" ">
<polygon fill="white" stroke="#666666" points="1622,-382.5 1482,-382.5 1482,-363.5 1622,-363.5 1622,-382.5"/>
<text text-anchor="middle" x="1552" y="-370.5" font-family="Helvetica,sans-Serif" font-size="10.00">wmtk::Mesh::is_removed</text>
</a>
</g>
</g>
<!-- Node14&#45;&gt;Node16 -->
<g id="edge20_Node000014_Node000016" class="edge">
<title>Node14&#45;&gt;Node16</title>
<g id="a_edge20_Node000014_Node000016"><a xlink:title=" ">
<path fill="none" stroke="#63b8ff" d="M1385.43,-345.53C1415.35,-350.49 1452.14,-356.6 1483.43,-361.79"/>
<polygon fill="#63b8ff" stroke="#63b8ff" points="1482.94,-365.26 1493.38,-363.44 1484.09,-358.35 1482.94,-365.26"/>
</a>
</g>
</g>
<!-- Node16&#45;&gt;Node16 -->
<g id="edge21_Node000016_Node000016" class="edge">
<title>Node16&#45;&gt;Node16</title>
<g id="a_edge21_Node000016_Node000016"><a xlink:title=" ">
<path fill="none" stroke="#63b8ff" d="M1524.26,-382.58C1510.76,-391.23 1520.01,-400.5 1552,-400.5 1573.49,-400.5 1584.72,-396.32 1585.68,-390.95"/>
<polygon fill="#63b8ff" stroke="#63b8ff" points="1588.39,-388.71 1579.74,-382.58 1582.68,-392.76 1588.39,-388.71"/>
</a>
</g>
</g>
<!-- Node18 -->
<g id="Node000018" class="node">
<title>Node18</title>
<g id="a_Node000018"><a xlink:href="classwmtk_1_1attribute_1_1_accessor.html#a4b89ff4381fe73d4827b663203a964fc" target="_top" xlink:title=" ">
<polygon fill="white" stroke="#666666" points="1623,-260 1481,-260 1481,-230 1623,-230 1623,-260"/>
<text text-anchor="start" x="1489" y="-248" font-family="Helvetica,sans-Serif" font-size="10.00">wmtk::attribute::Accessor</text>
<text text-anchor="middle" x="1552" y="-237" font-family="Helvetica,sans-Serif" font-size="10.00">::const_vector_attribute</text>
</a>
</g>
</g>
<!-- Node17&#45;&gt;Node18 -->
<g id="edge23_Node000017_Node000018" class="edge">
<title>Node17&#45;&gt;Node18</title>
<g id="a_edge23_Node000017_Node000018"><a xlink:title=" ">
<path fill="none" stroke="#63b8ff" d="M1397.95,-212.06C1421.3,-217.08 1447.49,-222.72 1471.51,-227.89"/>
<polygon fill="#63b8ff" stroke="#63b8ff" points="1470.79,-231.31 1481.3,-230 1472.26,-224.47 1470.79,-231.31"/>
</a>
</g>
</g>
<!-- Node19 -->
<g id="Node000019" class="node">
<title>Node19</title>
<g id="a_Node000019"><a xlink:href="classwmtk_1_1attribute_1_1_tuple_accessor.html#adf0b07ce3ed74d51723e2beed2d3f25e" target="_top" xlink:title=" ">
<polygon fill="white" stroke="#666666" points="1635.5,-212 1468.5,-212 1468.5,-182 1635.5,-182 1635.5,-212"/>
<text text-anchor="start" x="1476.5" y="-200" font-family="Helvetica,sans-Serif" font-size="10.00">wmtk::attribute::TupleAccessor</text>
<text text-anchor="middle" x="1552" y="-189" font-family="Helvetica,sans-Serif" font-size="10.00">::const_vector_attribute</text>
</a>
</g>
</g>
<!-- Node17&#45;&gt;Node19 -->
<g id="edge24_Node000017_Node000019" class="edge">
<title>Node17&#45;&gt;Node19</title>
<g id="a_edge24_Node000017_Node000019"><a xlink:title=" ">
<path fill="none" stroke="#63b8ff" d="M1401.64,-197C1419.7,-197 1439.27,-197 1458.12,-197"/>
<polygon fill="#63b8ff" stroke="#63b8ff" points="1458.19,-200.5 1468.19,-197 1458.19,-193.5 1458.19,-200.5"/>
</a>
</g>
</g>
<!-- Node20 -->
<g id="Node000020" class="node">
<title>Node20</title>
<g id="a_Node000020"><a xlink:href="classwmtk_1_1attribute_1_1_accessor_base.html#abd60539d5779de287d2a0ec31b16c77a" target="_top" xlink:title=" ">
<polygon fill="white" stroke="#666666" points="1623,-164 1481,-164 1481,-134 1623,-134 1623,-164"/>
<text text-anchor="start" x="1489" y="-152" font-family="Helvetica,sans-Serif" font-size="10.00">wmtk::attribute::Accessor</text>
<text text-anchor="middle" x="1552" y="-141" font-family="Helvetica,sans-Serif" font-size="10.00">Base::dimension</text>
</a>
</g>
</g>
<!-- Node17&#45;&gt;Node20 -->
<g id="edge25_Node000017_Node000020" class="edge">
<title>Node17&#45;&gt;Node20</title>
<g id="a_edge25_Node000017_Node000020"><a xlink:title=" ">
<path fill="none" stroke="#63b8ff" d="M1397.95,-181.94C1421.3,-176.92 1447.49,-171.28 1471.51,-166.11"/>
<polygon fill="#63b8ff" stroke="#63b8ff" points="1472.26,-169.53 1481.3,-164 1470.79,-162.69 1472.26,-169.53"/>
</a>
</g>
</g>
<!-- Node21 -->
<g id="Node000021" class="node">
<title>Node21</title>
<g id="a_Node000021"><a xlink:href="classwmtk_1_1attribute_1_1_tuple_accessor.html#a8d04c3529eb7adeead49e8faa7a119db" target="_top" xlink:title=" ">
<polygon fill="white" stroke="#666666" points="1635.5,-308 1468.5,-308 1468.5,-278 1635.5,-278 1635.5,-308"/>
<text text-anchor="start" x="1476.5" y="-296" font-family="Helvetica,sans-Serif" font-size="10.00">wmtk::attribute::TupleAccessor</text>
<text text-anchor="middle" x="1552" y="-285" font-family="Helvetica,sans-Serif" font-size="10.00">::dimension</text>
</a>
</g>
</g>
<!-- Node17&#45;&gt;Node21 -->
<g id="edge26_Node000017_Node000021" class="edge">
<title>Node17&#45;&gt;Node21</title>
<g id="a_edge26_Node000017_Node000021"><a xlink:title=" ">
<path fill="none" stroke="#63b8ff" d="M1348.62,-212.12C1371.73,-228.39 1410.84,-253.96 1448,-269 1453.34,-271.16 1458.92,-273.16 1464.6,-274.99"/>
<polygon fill="#63b8ff" stroke="#63b8ff" points="1463.65,-278.36 1474.23,-277.92 1465.69,-271.66 1463.65,-278.36"/>
</a>
</g>
</g>
<!-- Node24 -->
<g id="Node000024" class="node">
<title>Node24</title>
<g id="a_Node000024"><a xlink:href="classwmtk_1_1simplex_1_1_simplex_collection.html#a1e7079b3b75f70dd28c524556cab76cf" target="_top" xlink:title="Add simplex to the collection.">
<polygon fill="white" stroke="#666666" points="1656,-67.5 1448,-67.5 1448,-48.5 1656,-48.5 1656,-67.5"/>
<text text-anchor="middle" x="1552" y="-55.5" font-family="Helvetica,sans-Serif" font-size="10.00">wmtk::simplex::SimplexCollection::add</text>
</a>
</g>
</g>
<!-- Node23&#45;&gt;Node24 -->
<g id="edge29_Node000023_Node000024" class="edge">
<title>Node23&#45;&gt;Node24</title>
<g id="a_edge29_Node000023_Node000024"><a xlink:title=" ">
<path fill="none" stroke="#63b8ff" d="M1402.22,-85.98C1417.36,-82.96 1433.19,-79.85 1448,-77 1461.09,-74.48 1475.13,-71.85 1488.5,-69.37"/>
<polygon fill="#63b8ff" stroke="#63b8ff" points="1489.37,-72.77 1498.57,-67.51 1488.1,-65.89 1489.37,-72.77"/>
</a>
</g>
</g>
<!-- Node25 -->
<g id="Node000025" class="node">
<title>Node25</title>
<g id="a_Node000025"><a xlink:href="namespacewmtk.html#a441d6ad4f19569c7d4946e743da1a925" target="_top" xlink:title=" ">
<polygon fill="white" stroke="#666666" points="1613,-116 1491,-116 1491,-86 1613,-86 1613,-116"/>
<text text-anchor="start" x="1499" y="-104" font-family="Helvetica,sans-Serif" font-size="10.00">wmtk::log_and_throw</text>
<text text-anchor="middle" x="1552" y="-93" font-family="Helvetica,sans-Serif" font-size="10.00">_error</text>
</a>
</g>
</g>
<!-- Node23&#45;&gt;Node25 -->
<g id="edge30_Node000023_Node000025" class="edge">
<title>Node23&#45;&gt;Node25</title>
<g id="a_edge30_Node000023_Node000025"><a xlink:title=" ">
<path fill="none" stroke="#63b8ff" d="M1402.57,-101C1427.83,-101 1455.94,-101 1480.85,-101"/>
<polygon fill="#63b8ff" stroke="#63b8ff" points="1480.94,-104.5 1490.94,-101 1480.94,-97.5 1480.94,-104.5"/>
</a>
</g>
</g>
<!-- Node23&#45;&gt;Node28 -->
<g id="edge33_Node000023_Node000028" class="edge">
<title>Node23&#45;&gt;Node28</title>
<g id="a_edge33_Node000023_Node000028"><a xlink:title=" ">
<path fill="none" stroke="#63b8ff" d="M1380.05,-85.93C1390.96,-81.81 1402.14,-76.84 1412,-71 1430.42,-60.09 1428.99,-48.84 1448,-39 1456.35,-34.68 1465.48,-31.12 1474.75,-28.2"/>
<polygon fill="#63b8ff" stroke="#63b8ff" points="1475.8,-31.54 1484.42,-25.38 1473.84,-24.82 1475.8,-31.54"/>
</a>
</g>
</g>
<!-- Node26 -->
<g id="Node000026" class="node">
<title>Node26</title>
<g id="a_Node000026"><a xlink:href="namespacewmtk.html#a6a35f11c12436093d26fdd8be6fecc06" target="_top" xlink:title="Retrieves the current logger.">
<polygon fill="white" stroke="#666666" points="1773,-110.5 1692,-110.5 1692,-91.5 1773,-91.5 1773,-110.5"/>
<text text-anchor="middle" x="1732.5" y="-98.5" font-family="Helvetica,sans-Serif" font-size="10.00">wmtk::logger</text>
</a>
</g>
</g>
<!-- Node25&#45;&gt;Node26 -->
<g id="edge31_Node000025_Node000026" class="edge">
<title>Node25&#45;&gt;Node26</title>
<g id="a_edge31_Node000025_Node000026"><a xlink:title=" ">
<path fill="none" stroke="#63b8ff" d="M1613.43,-101C1635.68,-101 1660.61,-101 1681.81,-101"/>
<polygon fill="#63b8ff" stroke="#63b8ff" points="1681.89,-104.5 1691.89,-101 1681.89,-97.5 1681.89,-104.5"/>
</a>
</g>
</g>
<!-- Node27 -->
<g id="Node000027" class="node">
<title>Node27</title>
<g id="a_Node000027"><a xlink:href="namespacewmtk.html#a3daa7951a5f8b78cf4600dc047fcc180" target="_top" xlink:title="Setup a logger object to be used by WildmeshToolkit.">
<polygon fill="white" stroke="#666666" points="1910,-110.5 1809,-110.5 1809,-91.5 1910,-91.5 1910,-110.5"/>
<text text-anchor="middle" x="1859.5" y="-98.5" font-family="Helvetica,sans-Serif" font-size="10.00">wmtk::set_logger</text>
</a>
</g>
</g>
<!-- Node26&#45;&gt;Node27 -->
<g id="edge32_Node000026_Node000027" class="edge">
<title>Node26&#45;&gt;Node27</title>
<g id="a_edge32_Node000026_Node000027"><a xlink:title=" ">
<path fill="none" stroke="#63b8ff" d="M1773.05,-101C1781.17,-101 1789.9,-101 1798.55,-101"/>
<polygon fill="#63b8ff" stroke="#63b8ff" points="1798.65,-104.5 1808.65,-101 1798.65,-97.5 1798.65,-104.5"/>
</a>
</g>
</g>
<!-- Node30 -->
<g id="Node000030" class="node">
<title>Node30</title>
<g id="a_Node000030"><a xlink:href="classwmtk_1_1_mesh.html#a933f681cf24a63b155c9462280385200" target="_top" xlink:title=" ">
<polygon fill="white" stroke="#666666" points="1612.5,-508 1491.5,-508 1491.5,-478 1612.5,-478 1612.5,-508"/>
<text text-anchor="start" x="1499.5" y="-496" font-family="Helvetica,sans-Serif" font-size="10.00">wmtk::Mesh::top_cell</text>
<text text-anchor="middle" x="1552" y="-485" font-family="Helvetica,sans-Serif" font-size="10.00">_dimension</text>
</a>
</g>
</g>
<!-- Node29&#45;&gt;Node30 -->
<g id="edge35_Node000029_Node000030" class="edge">
<title>Node29&#45;&gt;Node30</title>
<g id="a_edge35_Node000029_Node000030"><a xlink:title=" ">
<path fill="none" stroke="#63b8ff" d="M1412.31,-489.27C1434.99,-489.88 1459.26,-490.53 1481.07,-491.12"/>
<polygon fill="#63b8ff" stroke="#63b8ff" points="1481.13,-494.62 1491.22,-491.39 1481.32,-487.62 1481.13,-494.62"/>
</a>
</g>
</g>
<!-- Node32 -->
<g id="Node000032" class="node">
<title>Node32</title>
<g id="a_Node000032"><a xlink:href="namespacewmtk_1_1multimesh_1_1utils_1_1internal.html#a11885fe5aebd05551827804b0142945d" target="_top" xlink:title=" ">
<polygon fill="white" stroke="#666666" points="1617,-459.5 1487,-459.5 1487,-418.5 1617,-418.5 1617,-459.5"/>
<text text-anchor="start" x="1495" y="-447.5" font-family="Helvetica,sans-Serif" font-size="10.00">wmtk::multimesh::utils</text>
<text text-anchor="start" x="1495" y="-436.5" font-family="Helvetica,sans-Serif" font-size="10.00">::internal::transport</text>
<text text-anchor="middle" x="1552" y="-425.5" font-family="Helvetica,sans-Serif" font-size="10.00">_tuple_dart</text>
</a>
</g>
</g>
<!-- Node31&#45;&gt;Node32 -->
<g id="edge37_Node000031_Node000032" class="edge">
<title>Node31&#45;&gt;Node32</title>
<g id="a_edge37_Node000031_Node000032"><a xlink:title=" ">
<path fill="none" stroke="#63b8ff" d="M1392.2,-432.82C1418.56,-432.15 1449.24,-432.07 1476.57,-432.59"/>
<polygon fill="#63b8ff" stroke="#63b8ff" points="1476.79,-436.1 1486.87,-432.82 1476.95,-429.1 1476.79,-436.1"/>
</a>
</g>
</g>
<!-- Node32&#45;&gt;Node31 -->
<g id="edge38_Node000032_Node000031" class="edge">
<title>Node32&#45;&gt;Node31</title>
<g id="a_edge38_Node000032_Node000031"><a xlink:title=" ">
<path fill="none" stroke="#63b8ff" d="M1486.87,-445.18C1460.52,-445.85 1429.83,-445.93 1402.5,-445.41"/>
<polygon fill="#63b8ff" stroke="#63b8ff" points="1402.28,-441.9 1392.2,-445.18 1402.12,-448.9 1402.28,-441.9"/>
</a>
</g>
</g>
</g>
</svg>

<g id="navigator" transform="translate(0 0)" fill="#404254">
  <rect fill="#f2f5e9" fill-opacity="0.5" stroke="#606060" stroke-width=".5" x="0" y="0" width="60" height="60"/>
  <use id="zoomplus" xlink:href="#zoomPlus" x="17" y="9" onmousedown="handleZoom(evt,'in')"/>
  <use id="zoomminus" xlink:href="#zoomMin" x="42" y="9" onmousedown="handleZoom(evt,'out')"/>
  <use id="reset" xlink:href="#resetDef" x="30" y="36" onmousedown="handleReset()"/>
   <use id="arrowup" xlink:href="#arrowUp" x="0" y="0" onmousedown="handlePan(0,-1)"/>
  <use id="arrowright" xlink:href="#arrowRight" x="0" y="0" onmousedown="handlePan(1,0)"/>
  <use id="arrowdown" xlink:href="#arrowDown" x="0" y="0" onmousedown="handlePan(0,1)"/>
  <use id="arrowleft" xlink:href="#arrowLeft" x="0" y="0" onmousedown="handlePan(-1,0)"/>
</g>
<svg viewBox="0 0 15 15" width="100%" height="30px" preserveAspectRatio="xMaxYMin meet">
 <g id="arrow_out" transform="scale(0.3 0.3)">
  <a xlink:href="classwmtk_1_1invariants_1_1_invariant_collection_a8ca33e950e39423425248ba8d25b3dca_cgraph_org.svg" target="_base">
   <rect id="button" ry="5" rx="5" y="6" x="6" height="38" width="38"
        fill="#f2f5e9" fill-opacity="0.5" stroke="#606060" stroke-width="1.0"/>
   <path id="arrow"
     d="M 11.500037,31.436501 C 11.940474,20.09759 22.043105,11.32322 32.158766,21.979434 L 37.068811,17.246167 C 37.068811,17.246167 37.088388,32 37.088388,32 L 22.160133,31.978069 C 22.160133,31.978069 26.997745,27.140456 26.997745,27.140456 C 18.528582,18.264221 13.291696,25.230495 11.500037,31.436501 z"
     style="fill:#404040;"/>
  </a>
 </g>
</svg>

<style type='text/css'>
<![CDATA[
[data-mouse-over-selected='false'] { opacity: 0.7; }
[data-mouse-over-selected='true']  { opacity: 1.0; }
]]>
</style>
<script type="application/ecmascript"><![CDATA[
document.addEventListener('DOMContentLoaded', (event) => {
  highlightEdges();
  highlightAdjacentNodes();
});
]]></script>
</svg>
