<?xml version="1.0" encoding="UTF-8" standalone="no"?>
<!DOCTYPE svg PUBLIC "-//W3C//DTD SVG 1.1//EN"
 "http://www.w3.org/Graphics/SVG/1.1/DTD/svg11.dtd">
<!-- Generated by graphviz version 2.43.0 (0)
 -->
<!-- Title: wmtk::operations::Operation::add_invariant Pages: 1 -->
<!--zoomable 276 -->

<svg id="main" version="1.1" xmlns="http://www.w3.org/2000/svg" xmlns:xlink="http://www.w3.org/1999/xlink" xml:space="preserve" onload="init(evt)">
<style type="text/css"><![CDATA[
.node, .edge {opacity: 0.7;}
.node.selected, .edge.selected {opacity: 1;}
.edge:hover path { stroke: red; }
.edge:hover polygon { stroke: red; fill: red; }
]]></style>

<defs>
  <circle id="rim" cx="0" cy="0" r="7"/>
  <circle id="rim2" cx="0" cy="0" r="3.5"/>
  <g id="zoomPlus">
    <use xlink:href="#rim" fill="#404040"><set attributeName="fill" to="#808080" begin="zoomplus.mouseover" end="zoomplus.mouseout"/></use>
    <path d="M-4,0h8M0,-4v8" fill="none" stroke="white" stroke-width="1.5" pointer-events="none"/>
  </g>
  <g id="zoomMin">
    <use xlink:href="#rim" fill="#404040"><set attributeName="fill" to="#808080" begin="zoomminus.mouseover" end="zoomminus.mouseout"/></use>
    <path d="M-4,0h8" fill="none" stroke="white" stroke-width="1.5" pointer-events="none"/>
  </g>
  <g id="arrowUp" transform="translate(30 24)">
    <use xlink:href="#rim"/>
    <path pointer-events="none" fill="none" stroke="white" stroke-width="1.5" d="M0,-3.0v7 M-2.5,-0.5L0,-3.0L2.5,-0.5"/>
  </g>
  <g id="arrowRight" transform="rotate(90) translate(36 -43)">
    <use xlink:href="#rim"/>
    <path pointer-events="none" fill="none" stroke="white" stroke-width="1.5" d="M0,-3.0v7 M-2.5,-0.5L0,-3.0L2.5,-0.5"/>
  </g>
  <g id="arrowDown" transform="rotate(180) translate(-30 -48)">
    <use xlink:href="#rim"/>
    <path pointer-events="none" fill="none" stroke="white" stroke-width="1.5" d="M0,-3.0v7 M-2.5,-0.5L0,-3.0L2.5,-0.5"/>
  </g>
  <g id="arrowLeft" transform="rotate(270) translate(-36 17)">
    <use xlink:href="#rim"/>
    <path pointer-events="none" fill="none" stroke="white" stroke-width="1.5" d="M0,-3.0v7 M-2.5,-0.5L0,-3.0L2.5,-0.5"/>
  </g>
  <g id="resetDef">
    <use xlink:href="#rim2" fill="#404040"><set attributeName="fill" to="#808080" begin="reset.mouseover" end="reset.mouseout"/></use>
  </g>
</defs>
<script type="application/ecmascript">
var viewWidth = 684;
var viewHeight = 276;
var sectionId = 'dynsection-3';
</script>
<script type="application/ecmascript" xlink:href="svg.min.js"/>
<svg id="graph" class="graph">
<g id="viewport">
<title>wmtk::operations::Operation::add_invariant</title>
<!-- Node1 -->
<g id="Node000001" class="node">
<title>Node1</title>
<g id="a_Node000001"><a xlink:title=" ">
<polygon fill="#999999" stroke="#666666" points="676,-116.5 520,-116.5 520,-86.5 676,-86.5 676,-116.5"/>
<text text-anchor="start" x="528" y="-104.5" font-family="Helvetica,sans-Serif" font-size="10.00">wmtk::operations::Operation</text>
<text text-anchor="middle" x="598" y="-93.5" font-family="Helvetica,sans-Serif" font-size="10.00">::add_invariant</text>
</a>
</g>
</g>
<!-- Node2 -->
<g id="Node000002" class="node">
<title>Node2</title>
<g id="a_Node000002"><a xlink:href="classwmtk_1_1components_1_1_marching.html#a93c8d735afd009d73bfc4700b4f8e3f6" target="_top" xlink:title="Perform the actual marching.">
<polygon fill="white" stroke="#666666" points="475,-245.5 314,-245.5 314,-215.5 475,-215.5 475,-245.5"/>
<text text-anchor="start" x="322" y="-233.5" font-family="Helvetica,sans-Serif" font-size="10.00">wmtk::components::Marching</text>
<text text-anchor="middle" x="394.5" y="-222.5" font-family="Helvetica,sans-Serif" font-size="10.00">::process</text>
</a>
</g>
</g>
<!-- Node1&#45;&gt;Node2 -->
<g id="edge1_Node000001_Node000002" class="edge">
<title>Node1&#45;&gt;Node2</title>
<g id="a_edge1_Node000001_Node000002"><a xlink:title=" ">
<path fill="none" stroke="#63b8ff" d="M571.45,-123.29C549.21,-141.67 515.65,-168.03 484,-187.5 466.98,-197.97 447.03,-207.85 430.38,-215.5"/>
<polygon fill="#63b8ff" stroke="#63b8ff" points="573.96,-125.75 579.4,-116.66 569.48,-120.38 573.96,-125.75"/>
</a>
</g>
</g>
<!-- Node6 -->
<g id="Node000006" class="node">
<title>Node6</title>
<g id="a_Node000006"><a xlink:href="classwmtk_1_1components_1_1internal_1_1_regular_space.html#af9adef544fff10ba9257d128fd13393c" target="_top" xlink:title=" ">
<polygon fill="white" stroke="#666666" points="479.5,-178.5 309.5,-178.5 309.5,-148.5 479.5,-148.5 479.5,-178.5"/>
<text text-anchor="start" x="317.5" y="-166.5" font-family="Helvetica,sans-Serif" font-size="10.00">wmtk::components::internal</text>
<text text-anchor="middle" x="394.5" y="-155.5" font-family="Helvetica,sans-Serif" font-size="10.00">::RegularSpace::regularize_tags</text>
</a>
</g>
</g>
<!-- Node1&#45;&gt;Node6 -->
<g id="edge5_Node000001_Node000006" class="edge">
<title>Node1&#45;&gt;Node6</title>
<g id="a_edge5_Node000001_Node000006"><a xlink:title=" ">
<path fill="none" stroke="#63b8ff" d="M543.07,-119.66C524.42,-125.81 503.34,-132.61 484,-138.5 473.16,-141.81 461.52,-145.2 450.37,-148.38"/>
<polygon fill="#63b8ff" stroke="#63b8ff" points="544.19,-122.97 552.59,-116.51 541.99,-116.33 544.19,-122.97"/>
</a>
</g>
</g>
<!-- Node10 -->
<g id="Node000010" class="node">
<title>Node10</title>
<g id="a_Node000010"><a xlink:href="test__component__isotropic__remeshing_8cpp.html#a31e4ea2702c2b6a505c9c68567b67626" target="_top" xlink:title=" ">
<polygon fill="white" stroke="#666666" points="430,-130 359,-130 359,-111 430,-111 430,-130"/>
<text text-anchor="middle" x="394.5" y="-118" font-family="Helvetica,sans-Serif" font-size="10.00">TEST_CASE</text>
</a>
</g>
</g>
<!-- Node1&#45;&gt;Node10 -->
<g id="edge9_Node000001_Node000010" class="edge">
<title>Node1&#45;&gt;Node10</title>
<g id="a_edge9_Node000001_Node000010"><a xlink:title=" ">
<path fill="none" stroke="#63b8ff" d="M509.69,-109.73C481.6,-112.38 452.09,-115.16 430.11,-117.24"/>
<polygon fill="#63b8ff" stroke="#63b8ff" points="510.33,-113.19 519.96,-108.76 509.67,-106.22 510.33,-113.19"/>
</a>
</g>
</g>
<!-- Node11 -->
<g id="Node000011" class="node">
<title>Node11</title>
<g id="a_Node000011"><a xlink:href="test__component__isotropic__remeshing_8cpp.html#ac951acaed01f46f17ad5496ddaeccd3f" target="_top" xlink:title=" ">
<polygon fill="white" stroke="#666666" points="430,-93 359,-93 359,-74 430,-74 430,-93"/>
<text text-anchor="middle" x="394.5" y="-81" font-family="Helvetica,sans-Serif" font-size="10.00">TEST_CASE</text>
</a>
</g>
</g>
<!-- Node1&#45;&gt;Node11 -->
<g id="edge10_Node000001_Node000011" class="edge">
<title>Node1&#45;&gt;Node11</title>
<g id="a_edge10_Node000001_Node000011"><a xlink:title=" ">
<path fill="none" stroke="#63b8ff" d="M509.69,-93.7C481.6,-91.19 452.09,-88.56 430.11,-86.59"/>
<polygon fill="#63b8ff" stroke="#63b8ff" points="509.69,-97.21 519.96,-94.62 510.31,-90.24 509.69,-97.21"/>
</a>
</g>
</g>
<!-- Node12 -->
<g id="Node000012" class="node">
<title>Node12</title>
<g id="a_Node000012"><a xlink:href="test__component__isotropic__remeshing_8cpp.html#af719811f9a666b9a9f90fc755260e951" target="_top" xlink:title=" ">
<polygon fill="white" stroke="#666666" points="430,-56 359,-56 359,-37 430,-37 430,-56"/>
<text text-anchor="middle" x="394.5" y="-44" font-family="Helvetica,sans-Serif" font-size="10.00">TEST_CASE</text>
</a>
</g>
</g>
<!-- Node1&#45;&gt;Node12 -->
<g id="edge11_Node000001_Node000012" class="edge">
<title>Node1&#45;&gt;Node12</title>
<g id="a_edge11_Node000001_Node000012"><a xlink:title=" ">
<path fill="none" stroke="#63b8ff" d="M545.25,-83.16C526.14,-76.76 504.22,-69.85 484,-64.5 466.42,-59.85 446.6,-55.72 430.18,-52.59"/>
<polygon fill="#63b8ff" stroke="#63b8ff" points="544.36,-86.55 554.96,-86.45 546.61,-79.92 544.36,-86.55"/>
</a>
</g>
</g>
<!-- Node13 -->
<g id="Node000013" class="node">
<title>Node13</title>
<g id="a_Node000013"><a xlink:href="namespacewmtk_1_1components.html#ac6ca52668bd22e164d4baf59ec533864" target="_top" xlink:title=" ">
<polygon fill="white" stroke="#666666" points="484,-19 305,-19 305,0 484,0 484,-19"/>
<text text-anchor="middle" x="394.5" y="-7" font-family="Helvetica,sans-Serif" font-size="10.00">wmtk::components::wildmeshing</text>
</a>
</g>
</g>
<!-- Node1&#45;&gt;Node13 -->
<g id="edge12_Node000001_Node000013" class="edge">
<title>Node1&#45;&gt;Node13</title>
<g id="a_edge12_Node000001_Node000013"><a xlink:title=" ">
<path fill="none" stroke="#63b8ff" d="M570.52,-79.96C548.6,-63.2 515.97,-40.65 484,-27.5 475.73,-24.1 466.76,-21.32 457.81,-19.06"/>
<polygon fill="#63b8ff" stroke="#63b8ff" points="568.61,-82.91 578.66,-86.29 572.91,-77.38 568.61,-82.91"/>
</a>
</g>
</g>
<!-- Node3 -->
<g id="Node000003" class="node">
<title>Node3</title>
<g id="a_Node000003"><a xlink:href="namespacewmtk_1_1components.html#a6f27411696c9ba6e294768451f31351f" target="_top" xlink:title="Perform maching tetrahedra/triangles.">
<polygon fill="white" stroke="#666666" points="269,-250 107,-250 107,-231 269,-231 269,-250"/>
<text text-anchor="middle" x="188" y="-238" font-family="Helvetica,sans-Serif" font-size="10.00">wmtk::components::marching</text>
</a>
</g>
</g>
<!-- Node2&#45;&gt;Node3 -->
<g id="edge2_Node000002_Node000003" class="edge">
<title>Node2&#45;&gt;Node3</title>
<g id="a_edge2_Node000002_Node000003"><a xlink:title=" ">
<path fill="none" stroke="#63b8ff" d="M303.78,-234.89C292.24,-235.45 280.48,-236.03 269.11,-236.58"/>
<polygon fill="#63b8ff" stroke="#63b8ff" points="304.03,-238.38 313.85,-234.39 303.69,-231.39 304.03,-238.38"/>
</a>
</g>
</g>
<!-- Node4 -->
<g id="Node000004" class="node">
<title>Node4</title>
<g id="a_Node000004"><a xlink:href="tests_2marching_8cpp.html#a74e4ea64dd134ace15ef3292b4eb9753" target="_top" xlink:title=" ">
<polygon fill="white" stroke="#666666" points="71,-268 0,-268 0,-249 71,-249 71,-268"/>
<text text-anchor="middle" x="35.5" y="-256" font-family="Helvetica,sans-Serif" font-size="10.00">TEST_CASE</text>
</a>
</g>
</g>
<!-- Node3&#45;&gt;Node4 -->
<g id="edge3_Node000003_Node000004" class="edge">
<title>Node3&#45;&gt;Node4</title>
<g id="a_edge3_Node000003_Node000004"><a xlink:title=" ">
<path fill="none" stroke="#63b8ff" d="M97.29,-251.23C88.11,-252.33 79.23,-253.39 71.22,-254.35"/>
<polygon fill="#63b8ff" stroke="#63b8ff" points="97.83,-254.69 107.34,-250.03 97,-247.74 97.83,-254.69"/>
</a>
</g>
</g>
<!-- Node5 -->
<g id="Node000005" class="node">
<title>Node5</title>
<g id="a_Node000005"><a xlink:href="tests_2marching_8cpp.html#af20fbc246d1ad31be8d9ec0011ac52d6" target="_top" xlink:title=" ">
<polygon fill="white" stroke="#666666" points="71,-231 0,-231 0,-212 71,-212 71,-231"/>
<text text-anchor="middle" x="35.5" y="-219" font-family="Helvetica,sans-Serif" font-size="10.00">TEST_CASE</text>
</a>
</g>
</g>
<!-- Node3&#45;&gt;Node5 -->
<g id="edge4_Node000003_Node000005" class="edge">
<title>Node3&#45;&gt;Node5</title>
<g id="a_edge4_Node000003_Node000005"><a xlink:title=" ">
<path fill="none" stroke="#63b8ff" d="M101.13,-229.66C90.57,-228.33 80.3,-227.03 71.17,-225.88"/>
<polygon fill="#63b8ff" stroke="#63b8ff" points="100.95,-233.16 111.31,-230.94 101.83,-226.22 100.95,-233.16"/>
</a>
</g>
</g>
<!-- Node7 -->
<g id="Node000007" class="node">
<title>Node7</title>
<g id="a_Node000007"><a xlink:href="namespacewmtk_1_1components.html#a7cec0c38121ddd036af26c760311d0e8" target="_top" xlink:title=" ">
<polygon fill="white" stroke="#666666" points="263.5,-212.5 112.5,-212.5 112.5,-182.5 263.5,-182.5 263.5,-212.5"/>
<text text-anchor="start" x="120.5" y="-200.5" font-family="Helvetica,sans-Serif" font-size="10.00">wmtk::components::regular</text>
<text text-anchor="middle" x="188" y="-189.5" font-family="Helvetica,sans-Serif" font-size="10.00">_space</text>
</a>
</g>
</g>
<!-- Node6&#45;&gt;Node7 -->
<g id="edge6_Node000006_Node000007" class="edge">
<title>Node6&#45;&gt;Node7</title>
<g id="a_edge6_Node000006_Node000007"><a xlink:title=" ">
<path fill="none" stroke="#63b8ff" d="M299.4,-179.15C287.38,-181.14 275.22,-183.17 263.57,-185.1"/>
<polygon fill="#63b8ff" stroke="#63b8ff" points="300.15,-182.57 309.44,-177.48 299,-175.66 300.15,-182.57"/>
</a>
</g>
</g>
<!-- Node8 -->
<g id="Node000008" class="node">
<title>Node8</title>
<g id="a_Node000008"><a xlink:href="test__component__regular__space_8cpp.html#a728024a1ea7ac078fd93d4035f705520" target="_top" xlink:title=" ">
<polygon fill="white" stroke="#666666" points="223.5,-164 152.5,-164 152.5,-145 223.5,-145 223.5,-164"/>
<text text-anchor="middle" x="188" y="-152" font-family="Helvetica,sans-Serif" font-size="10.00">TEST_CASE</text>
</a>
</g>
</g>
<!-- Node6&#45;&gt;Node8 -->
<g id="edge7_Node000006_Node000008" class="edge">
<title>Node6&#45;&gt;Node8</title>
<g id="a_edge7_Node000006_Node000008"><a xlink:title=" ">
<path fill="none" stroke="#63b8ff" d="M299.15,-159.35C272.17,-158.16 244.45,-156.94 223.57,-156.02"/>
<polygon fill="#63b8ff" stroke="#63b8ff" points="299.29,-162.86 309.44,-159.8 299.6,-155.86 299.29,-162.86"/>
</a>
</g>
</g>
<!-- Node9 -->
<g id="Node000009" class="node">
<title>Node9</title>
<g id="a_Node000009"><a xlink:href="test__component__regular__space_8cpp.html#a5e69783b3ce0c074477e3081ab8cf658" target="_top" xlink:title=" ">
<polygon fill="white" stroke="#666666" points="223.5,-127 152.5,-127 152.5,-108 223.5,-108 223.5,-127"/>
<text text-anchor="middle" x="188" y="-115" font-family="Helvetica,sans-Serif" font-size="10.00">TEST_CASE</text>
</a>
</g>
</g>
<!-- Node6&#45;&gt;Node9 -->
<g id="edge8_Node000006_Node000009" class="edge">
<title>Node6&#45;&gt;Node9</title>
<g id="a_edge8_Node000006_Node000009"><a xlink:title=" ">
<path fill="none" stroke="#63b8ff" d="M316.73,-146.23C284.7,-139.03 249.12,-131.02 223.66,-125.3"/>
<polygon fill="#63b8ff" stroke="#63b8ff" points="316.01,-149.66 326.54,-148.44 317.55,-142.83 316.01,-149.66"/>
</a>
</g>
</g>
</g>
</svg>

<g id="navigator" transform="translate(0 0)" fill="#404254">
  <rect fill="#f2f5e9" fill-opacity="0.5" stroke="#606060" stroke-width=".5" x="0" y="0" width="60" height="60"/>
  <use id="zoomplus" xlink:href="#zoomPlus" x="17" y="9" onmousedown="handleZoom(evt,'in')"/>
  <use id="zoomminus" xlink:href="#zoomMin" x="42" y="9" onmousedown="handleZoom(evt,'out')"/>
  <use id="reset" xlink:href="#resetDef" x="30" y="36" onmousedown="handleReset()"/>
   <use id="arrowup" xlink:href="#arrowUp" x="0" y="0" onmousedown="handlePan(0,-1)"/>
  <use id="arrowright" xlink:href="#arrowRight" x="0" y="0" onmousedown="handlePan(1,0)"/>
  <use id="arrowdown" xlink:href="#arrowDown" x="0" y="0" onmousedown="handlePan(0,1)"/>
  <use id="arrowleft" xlink:href="#arrowLeft" x="0" y="0" onmousedown="handlePan(-1,0)"/>
</g>
<svg viewBox="0 0 15 15" width="100%" height="30px" preserveAspectRatio="xMaxYMin meet">
 <g id="arrow_out" transform="scale(0.3 0.3)">
  <a xlink:href="classwmtk_1_1operations_1_1_operation_a15a2b269f98ec16b4b8d1d88feb60b85_icgraph_org.svg" target="_base">
   <rect id="button" ry="5" rx="5" y="6" x="6" height="38" width="38"
        fill="#f2f5e9" fill-opacity="0.5" stroke="#606060" stroke-width="1.0"/>
   <path id="arrow"
     d="M 11.500037,31.436501 C 11.940474,20.09759 22.043105,11.32322 32.158766,21.979434 L 37.068811,17.246167 C 37.068811,17.246167 37.088388,32 37.088388,32 L 22.160133,31.978069 C 22.160133,31.978069 26.997745,27.140456 26.997745,27.140456 C 18.528582,18.264221 13.291696,25.230495 11.500037,31.436501 z"
     style="fill:#404040;"/>
  </a>
 </g>
</svg>

<style type='text/css'>
<![CDATA[
[data-mouse-over-selected='false'] { opacity: 0.7; }
[data-mouse-over-selected='true']  { opacity: 1.0; }
]]>
</style>
<script type="application/ecmascript"><![CDATA[
document.addEventListener('DOMContentLoaded', (event) => {
  highlightEdges();
  highlightAdjacentNodes();
});
]]></script>
</svg>
