<?xml version="1.0" encoding="UTF-8" standalone="no"?>
<!DOCTYPE svg PUBLIC "-//W3C//DTD SVG 1.1//EN"
 "http://www.w3.org/Graphics/SVG/1.1/DTD/svg11.dtd">
<!-- Generated by graphviz version 2.43.0 (0)
 -->
<!-- Title: wmtk::attribute::utils::HybridRationalAccessor::is_rounded Pages: 1 -->
<svg width="502pt" height="49pt"
 viewBox="0.00 0.00 502.00 49.00" xmlns="http://www.w3.org/2000/svg" xmlns:xlink="http://www.w3.org/1999/xlink">
<g id="graph0" class="graph" transform="scale(1 1) rotate(0) translate(4 45)">
<title>wmtk::attribute::utils::HybridRationalAccessor::is_rounded</title>
<!-- Node1 -->
<g id="Node000001" class="node">
<title>Node1</title>
<g id="a_Node000001"><a xlink:title=" ">
<polygon fill="#999999" stroke="#666666" points="139,-41 0,-41 0,0 139,0 139,-41"/>
<text text-anchor="start" x="8" y="-29" font-family="Helvetica,sans-Serif" font-size="10.00">wmtk::attribute::utils</text>
<text text-anchor="start" x="8" y="-18" font-family="Helvetica,sans-Serif" font-size="10.00">::HybridRationalAccessor</text>
<text text-anchor="middle" x="69.5" y="-7" font-family="Helvetica,sans-Serif" font-size="10.00">::is_rounded</text>
</a>
</g>
</g>
<!-- Node2 -->
<g id="Node000002" class="node">
<title>Node2</title>
<g id="a_Node000002"><a xlink:href="classwmtk_1_1attribute_1_1utils_1_1_hybrid_rational_accessor.html#a16043fa9c230eb59fe3fd5f66ef42263" target="_top" xlink:title=" ">
<polygon fill="white" stroke="#666666" points="314,-41 175,-41 175,0 314,0 314,-41"/>
<text text-anchor="start" x="183" y="-29" font-family="Helvetica,sans-Serif" font-size="10.00">wmtk::attribute::utils</text>
<text text-anchor="start" x="183" y="-18" font-family="Helvetica,sans-Serif" font-size="10.00">::HybridRationalAccessor</text>
<text text-anchor="middle" x="244.5" y="-7" font-family="Helvetica,sans-Serif" font-size="10.00">::char_const_value</text>
</a>
</g>
</g>
<!-- Node1&#45;&gt;Node2 -->
<g id="edge1_Node000001_Node000002" class="edge">
<title>Node1&#45;&gt;Node2</title>
<g id="a_edge1_Node000001_Node000002"><a xlink:title=" ">
<path fill="none" stroke="#63b8ff" d="M139.37,-20.5C147.68,-20.5 156.21,-20.5 164.65,-20.5"/>
<polygon fill="#63b8ff" stroke="#63b8ff" points="164.87,-24 174.87,-20.5 164.87,-17 164.87,-24"/>
</a>
</g>
</g>
<!-- Node3 -->
<g id="Node000003" class="node">
<title>Node3</title>
<g id="a_Node000003"><a xlink:href="classwmtk_1_1attribute_1_1utils_1_1_hybrid_rational_accessor.html#a3f6e31f48646f1014db1db81916b1391" target="_top" xlink:title=" ">
<polygon fill="white" stroke="#666666" points="494,-41 350,-41 350,0 494,0 494,-41"/>
<text text-anchor="start" x="358" y="-29" font-family="Helvetica,sans-Serif" font-size="10.00">wmtk::attribute::utils</text>
<text text-anchor="start" x="358" y="-18" font-family="Helvetica,sans-Serif" font-size="10.00">::HybridRationalAccessor</text>
<text text-anchor="middle" x="422" y="-7" font-family="Helvetica,sans-Serif" font-size="10.00">::get_char_const_accessor</text>
</a>
</g>
</g>
<!-- Node2&#45;&gt;Node3 -->
<g id="edge2_Node000002_Node000003" class="edge">
<title>Node2&#45;&gt;Node3</title>
<g id="a_edge2_Node000002_Node000003"><a xlink:title=" ">
<path fill="none" stroke="#63b8ff" d="M314.11,-20.5C322.54,-20.5 331.21,-20.5 339.81,-20.5"/>
<polygon fill="#63b8ff" stroke="#63b8ff" points="339.84,-24 349.84,-20.5 339.84,-17 339.84,-24"/>
</a>
</g>
</g>
</g>
</svg>
