<?xml version="1.0" encoding="UTF-8" standalone="no"?>
<!DOCTYPE svg PUBLIC "-//W3C//DTD SVG 1.1//EN"
 "http://www.w3.org/Graphics/SVG/1.1/DTD/svg11.dtd">
<!-- Generated by graphviz version 2.43.0 (0)
 -->
<!-- Title: wmtk::attribute::CachingAccessor::scalar_attribute Pages: 1 -->
<svg width="1273pt" height="686pt"
 viewBox="0.00 0.00 1273.00 685.50" xmlns="http://www.w3.org/2000/svg" xmlns:xlink="http://www.w3.org/1999/xlink">
<g id="graph0" class="graph" transform="scale(1 1) rotate(0) translate(4 681.5)">
<title>wmtk::attribute::CachingAccessor::scalar_attribute</title>
<!-- Node1 -->
<g id="Node000001" class="node">
<title>Node1</title>
<g id="a_Node000001"><a xlink:title=" ">
<polygon fill="#999999" stroke="#666666" points="1265,-473.5 1122,-473.5 1122,-443.5 1265,-443.5 1265,-473.5"/>
<text text-anchor="start" x="1130" y="-461.5" font-family="Helvetica,sans-Serif" font-size="10.00">wmtk::attribute::Caching</text>
<text text-anchor="middle" x="1193.5" y="-450.5" font-family="Helvetica,sans-Serif" font-size="10.00">Accessor::scalar_attribute</text>
</a>
</g>
</g>
<!-- Node2 -->
<g id="Node000002" class="node">
<title>Node2</title>
<g id="a_Node000002"><a xlink:href="classwmtk_1_1_mesh.html#abc3435610b9ad07e2d0b7e11774ec83a" target="_top" xlink:title="Consolidate the attributes, moving all valid simplexes at the beginning of the corresponding vector.">
<polygon fill="white" stroke="#666666" points="1081,-579 942,-579 942,-560 1081,-560 1081,-579"/>
<text text-anchor="middle" x="1011.5" y="-567" font-family="Helvetica,sans-Serif" font-size="10.00">wmtk::Mesh::consolidate</text>
</a>
</g>
</g>
<!-- Node1&#45;&gt;Node2 -->
<g id="edge1_Node000001_Node000002" class="edge">
<title>Node1&#45;&gt;Node2</title>
<g id="a_edge1_Node000001_Node000002"><a xlink:title=" ">
<path fill="none" stroke="#63b8ff" d="M1172.7,-481.16C1152.85,-502.45 1120.38,-533.64 1086,-551.5 1079.47,-554.89 1072.28,-557.66 1065.03,-559.92"/>
<polygon fill="#63b8ff" stroke="#63b8ff" points="1175.51,-483.28 1179.66,-473.53 1170.34,-478.56 1175.51,-483.28"/>
</a>
</g>
</g>
<!-- Node3 -->
<g id="Node000003" class="node">
<title>Node3</title>
<g id="a_Node000003"><a xlink:href="classwmtk_1_1_edge_mesh.html#abb11a77971448cf4bc93efe610e80bb5" target="_top" xlink:title=" ">
<polygon fill="white" stroke="#666666" points="1086,-542 937,-542 937,-523 1086,-523 1086,-542"/>
<text text-anchor="middle" x="1011.5" y="-530" font-family="Helvetica,sans-Serif" font-size="10.00">wmtk::EdgeMesh::initialize</text>
</a>
</g>
</g>
<!-- Node1&#45;&gt;Node3 -->
<g id="edge2_Node000001_Node000003" class="edge">
<title>Node1&#45;&gt;Node3</title>
<g id="a_edge2_Node000001_Node000003"><a xlink:title=" ">
<path fill="none" stroke="#63b8ff" d="M1159.27,-478.67C1138.74,-490.44 1111.53,-504.83 1086,-514.5 1077.4,-517.76 1068.01,-520.58 1058.9,-522.96"/>
<polygon fill="#63b8ff" stroke="#63b8ff" points="1161.03,-481.7 1167.91,-473.64 1157.51,-475.65 1161.03,-481.7"/>
</a>
</g>
</g>
<!-- Node4 -->
<g id="Node000004" class="node">
<title>Node4</title>
<g id="a_Node000004"><a xlink:href="classwmtk_1_1_tri_mesh.html#a813ae302287fb113bae39b8ec0ee3937" target="_top" xlink:title=" ">
<polygon fill="white" stroke="#666666" points="1079.5,-505 943.5,-505 943.5,-486 1079.5,-486 1079.5,-505"/>
<text text-anchor="middle" x="1011.5" y="-493" font-family="Helvetica,sans-Serif" font-size="10.00">wmtk::TriMesh::initialize</text>
</a>
</g>
</g>
<!-- Node1&#45;&gt;Node4 -->
<g id="edge3_Node000001_Node000004" class="edge">
<title>Node1&#45;&gt;Node4</title>
<g id="a_edge3_Node000001_Node000004"><a xlink:title=" ">
<path fill="none" stroke="#63b8ff" d="M1111.86,-475.08C1093.7,-478.81 1075.02,-482.65 1058.84,-485.98"/>
<polygon fill="#63b8ff" stroke="#63b8ff" points="1112.79,-478.46 1121.88,-473.02 1111.38,-471.6 1112.79,-478.46"/>
</a>
</g>
</g>
<!-- Node24 -->
<g id="Node000024" class="node">
<title>Node24</title>
<g id="a_Node000024"><a xlink:href="classwmtk_1_1_tet_mesh.html#ab8b4b3182fb3778fa8da52ea4fa156b6" target="_top" xlink:title=" ">
<polygon fill="white" stroke="#666666" points="1081,-431 942,-431 942,-412 1081,-412 1081,-431"/>
<text text-anchor="middle" x="1011.5" y="-419" font-family="Helvetica,sans-Serif" font-size="10.00">wmtk::TetMesh::initialize</text>
</a>
</g>
</g>
<!-- Node1&#45;&gt;Node24 -->
<g id="edge24_Node000001_Node000024" class="edge">
<title>Node1&#45;&gt;Node24</title>
<g id="a_edge24_Node000001_Node000024"><a xlink:title=" ">
<path fill="none" stroke="#63b8ff" d="M1111.86,-441.92C1093.7,-438.19 1075.02,-434.35 1058.84,-431.02"/>
<polygon fill="#63b8ff" stroke="#63b8ff" points="1111.38,-445.4 1121.88,-443.98 1112.79,-438.54 1111.38,-445.4"/>
</a>
</g>
</g>
<!-- Node27 -->
<g id="Node000027" class="node">
<title>Node27</title>
<g id="a_Node000027"><a xlink:href="classwmtk_1_1_point_mesh.html#af2a8d977bbf881485efb9843f5348918" target="_top" xlink:title=" ">
<polygon fill="white" stroke="#666666" points="883,-357 734,-357 734,-338 883,-338 883,-357"/>
<text text-anchor="middle" x="808.5" y="-345" font-family="Helvetica,sans-Serif" font-size="10.00">wmtk::PointMesh::initialize</text>
</a>
</g>
</g>
<!-- Node1&#45;&gt;Node27 -->
<g id="edge30_Node000001_Node000027" class="edge">
<title>Node1&#45;&gt;Node27</title>
<g id="a_edge30_Node000001_Node000027"><a xlink:title=" ">
<path fill="none" stroke="#63b8ff" d="M1159.08,-438.19C1138.62,-426.54 1111.53,-412.48 1086,-403.5 1019.24,-380.01 939.75,-365.2 883.17,-356.75"/>
<polygon fill="#63b8ff" stroke="#63b8ff" points="1157.58,-441.37 1167.99,-443.35 1161.09,-435.31 1157.58,-441.37"/>
</a>
</g>
</g>
<!-- Node29 -->
<g id="Node000029" class="node">
<title>Node29</title>
<g id="a_Node000029"><a xlink:href="classwmtk_1_1_mesh.html#ac205d6addf4e76f000c70547253735f0" target="_top" xlink:title=" ">
<polygon fill="white" stroke="#666666" points="1071,-185.5 952,-185.5 952,-155.5 1071,-155.5 1071,-185.5"/>
<text text-anchor="start" x="960" y="-173.5" font-family="Helvetica,sans-Serif" font-size="10.00">wmtk::Mesh::request</text>
<text text-anchor="middle" x="1011.5" y="-162.5" font-family="Helvetica,sans-Serif" font-size="10.00">_simplex_indices</text>
</a>
</g>
</g>
<!-- Node1&#45;&gt;Node29 -->
<g id="edge34_Node000001_Node000029" class="edge">
<title>Node1&#45;&gt;Node29</title>
<g id="a_edge34_Node000001_Node000029"><a xlink:title=" ">
<path fill="none" stroke="#63b8ff" d="M1177.62,-434.69C1141.81,-377.4 1051.61,-233.08 1022.05,-185.78"/>
<polygon fill="#63b8ff" stroke="#63b8ff" points="1174.81,-436.8 1183.08,-443.42 1180.74,-433.09 1174.81,-436.8"/>
</a>
</g>
</g>
<!-- Node5 -->
<g id="Node000005" class="node">
<title>Node5</title>
<g id="a_Node000005"><a xlink:href="classwmtk_1_1components_1_1internal_1_1_multi_mesh_from_tag.html#a96647e9413f2b7e13dd17f02cf29b12d" target="_top" xlink:title="Create a manifold mesh from the substructure.">
<polygon fill="white" stroke="#666666" points="476,-430 312,-430 312,-389 476,-389 476,-430"/>
<text text-anchor="start" x="320" y="-418" font-family="Helvetica,sans-Serif" font-size="10.00">wmtk::components::internal</text>
<text text-anchor="start" x="320" y="-407" font-family="Helvetica,sans-Serif" font-size="10.00">::MultiMeshFromTag::compute</text>
<text text-anchor="middle" x="394" y="-396" font-family="Helvetica,sans-Serif" font-size="10.00">_substructure_mesh</text>
</a>
</g>
</g>
<!-- Node4&#45;&gt;Node5 -->
<g id="edge4_Node000004_Node000005" class="edge">
<title>Node4&#45;&gt;Node5</title>
<g id="a_edge4_Node000004_Node000005"><a xlink:title=" ">
<path fill="none" stroke="#63b8ff" d="M955.95,-506.86C938.48,-509.99 919,-512.95 901,-514.5 728.75,-529.33 673.46,-576.33 512,-514.5 467.91,-497.62 429.98,-455.6 410.02,-430.13"/>
<polygon fill="#63b8ff" stroke="#63b8ff" points="956.78,-510.27 965.97,-505.01 955.51,-503.39 956.78,-510.27"/>
</a>
</g>
</g>
<!-- Node16 -->
<g id="Node000016" class="node">
<title>Node16</title>
<g id="a_Node000016"><a xlink:href="namespacewmtk_1_1components.html#a5a89b6c23c8338b3a90a304b368fb3a8" target="_top" xlink:title=" ">
<polygon fill="white" stroke="#666666" points="881.5,-505 735.5,-505 735.5,-486 881.5,-486 881.5,-505"/>
<text text-anchor="middle" x="808.5" y="-493" font-family="Helvetica,sans-Serif" font-size="10.00">wmtk::components::fusion</text>
</a>
</g>
</g>
<!-- Node4&#45;&gt;Node16 -->
<g id="edge15_Node000004_Node000016" class="edge">
<title>Node4&#45;&gt;Node16</title>
<g id="a_edge15_Node000004_Node000016"><a xlink:title=" ">
<path fill="none" stroke="#63b8ff" d="M932.96,-495.5C916.14,-495.5 898.42,-495.5 881.82,-495.5"/>
<polygon fill="#63b8ff" stroke="#63b8ff" points="933.29,-499 943.29,-495.5 933.29,-492 933.29,-499"/>
</a>
</g>
</g>
<!-- Node18 -->
<g id="Node000018" class="node">
<title>Node18</title>
<g id="a_Node000018"><a xlink:href="classwmtk_1_1_tri_mesh.html#ab765cbb23c54975bbea2beec79439c6f" target="_top" xlink:title=" ">
<polygon fill="white" stroke="#666666" points="876.5,-581 740.5,-581 740.5,-562 876.5,-562 876.5,-581"/>
<text text-anchor="middle" x="808.5" y="-569" font-family="Helvetica,sans-Serif" font-size="10.00">wmtk::TriMesh::initialize</text>
</a>
</g>
</g>
<!-- Node4&#45;&gt;Node18 -->
<g id="edge17_Node000004_Node000018" class="edge">
<title>Node4&#45;&gt;Node18</title>
<g id="a_edge17_Node000004_Node000018"><a xlink:title=" ">
<path fill="none" stroke="#63b8ff" d="M950.27,-508.43C945.67,-510.21 941.2,-512.22 937,-514.5 917.93,-524.86 920.06,-537.11 901,-547.5 889.47,-553.79 876.2,-558.49 863.42,-561.99"/>
<polygon fill="#63b8ff" stroke="#63b8ff" points="951.54,-511.7 959.83,-505.1 949.23,-505.09 951.54,-511.7"/>
</a>
</g>
</g>
<!-- Node19 -->
<g id="Node000019" class="node">
<title>Node19</title>
<g id="a_Node000019"><a xlink:href="classwmtk_1_1_tri_mesh.html#a787262a548159fc1ce5dca50079a2c83" target="_top" xlink:title=" ">
<polygon fill="white" stroke="#666666" points="889,-468 728,-468 728,-449 889,-449 889,-468"/>
<text text-anchor="middle" x="808.5" y="-456" font-family="Helvetica,sans-Serif" font-size="10.00">wmtk::TriMesh::initialize_free</text>
</a>
</g>
</g>
<!-- Node4&#45;&gt;Node19 -->
<g id="edge18_Node000004_Node000019" class="edge">
<title>Node4&#45;&gt;Node19</title>
<g id="a_edge18_Node000004_Node000019"><a xlink:title=" ">
<path fill="none" stroke="#63b8ff" d="M948.68,-484.12C920.73,-478.98 888.09,-472.97 861.44,-468.06"/>
<polygon fill="#63b8ff" stroke="#63b8ff" points="948.27,-487.6 958.74,-485.97 949.54,-480.72 948.27,-487.6"/>
</a>
</g>
</g>
<!-- Node21 -->
<g id="Node000021" class="node">
<title>Node21</title>
<g id="a_Node000021"><a xlink:href="namespacewmtk_1_1components_1_1procedural.html#ab9c00d6ba2d614ba26750c3c80c6502c" target="_top" xlink:title=" ">
<polygon fill="white" stroke="#666666" points="892.5,-677.5 724.5,-677.5 724.5,-647.5 892.5,-647.5 892.5,-677.5"/>
<text text-anchor="start" x="732.5" y="-665.5" font-family="Helvetica,sans-Serif" font-size="10.00">wmtk::components::procedural</text>
<text text-anchor="middle" x="808.5" y="-654.5" font-family="Helvetica,sans-Serif" font-size="10.00">::make_mesh</text>
</a>
</g>
</g>
<!-- Node4&#45;&gt;Node21 -->
<g id="edge21_Node000004_Node000021" class="edge">
<title>Node4&#45;&gt;Node21</title>
<g id="a_edge21_Node000004_Node000021"><a xlink:title=" ">
<path fill="none" stroke="#63b8ff" d="M941.74,-510.47C940.07,-511.71 938.49,-513.05 937,-514.5 895.83,-554.47 942.1,-598.45 901,-638.5 897.47,-641.94 893.51,-644.9 889.27,-647.45"/>
<polygon fill="#63b8ff" stroke="#63b8ff" points="943.9,-513.25 950.61,-505.05 940.25,-507.28 943.9,-513.25"/>
</a>
</g>
</g>
<!-- Node23 -->
<g id="Node000023" class="node">
<title>Node23</title>
<g id="a_Node000023"><a xlink:href="namespacewmtk_1_1components_1_1procedural.html#ad852baba2d5d7211ec55d766497089b3" target="_top" xlink:title=" ">
<polygon fill="white" stroke="#666666" points="892.5,-629.5 724.5,-629.5 724.5,-599.5 892.5,-599.5 892.5,-629.5"/>
<text text-anchor="start" x="732.5" y="-617.5" font-family="Helvetica,sans-Serif" font-size="10.00">wmtk::components::procedural</text>
<text text-anchor="middle" x="808.5" y="-606.5" font-family="Helvetica,sans-Serif" font-size="10.00">::make_mesh</text>
</a>
</g>
</g>
<!-- Node4&#45;&gt;Node23 -->
<g id="edge23_Node000004_Node000023" class="edge">
<title>Node4&#45;&gt;Node23</title>
<g id="a_edge23_Node000004_Node000023"><a xlink:title=" ">
<path fill="none" stroke="#63b8ff" d="M943.5,-509.86C941.22,-511.27 939.04,-512.81 937,-514.5 908.19,-538.31 929.77,-566.64 901,-590.5 896.83,-593.96 892.21,-596.93 887.34,-599.47"/>
<polygon fill="#63b8ff" stroke="#63b8ff" points="945.44,-512.8 952.7,-505.08 942.21,-506.59 945.44,-512.8"/>
</a>
</g>
</g>
<!-- Node6 -->
<g id="Node000006" class="node">
<title>Node6</title>
<g id="a_Node000006"><a xlink:href="namespacewmtk_1_1components.html#ac309092566399cef68679a1bb8107d1e" target="_top" xlink:title="Generate a multi&#45;mesh from a mesh with a tag that represents the substructure, the mesh is changed.">
<polygon fill="white" stroke="#666666" points="276,-589.5 107,-589.5 107,-559.5 276,-559.5 276,-589.5"/>
<text text-anchor="start" x="115" y="-577.5" font-family="Helvetica,sans-Serif" font-size="10.00">wmtk::components::multimesh</text>
<text text-anchor="middle" x="191.5" y="-566.5" font-family="Helvetica,sans-Serif" font-size="10.00">_from_tag</text>
</a>
</g>
</g>
<!-- Node5&#45;&gt;Node6 -->
<g id="edge5_Node000005_Node000006" class="edge">
<title>Node5&#45;&gt;Node6</title>
<g id="a_edge5_Node000005_Node000006"><a xlink:title=" ">
<path fill="none" stroke="#63b8ff" d="M376.05,-439.02C356.12,-471.11 320.1,-521.67 276,-550.5 270.7,-553.97 264.89,-556.94 258.88,-559.49"/>
<polygon fill="#63b8ff" stroke="#63b8ff" points="379.27,-440.46 381.47,-430.09 373.29,-436.82 379.27,-440.46"/>
</a>
</g>
</g>
<!-- Node8 -->
<g id="Node000008" class="node">
<title>Node8</title>
<g id="a_Node000008"><a xlink:href="namespacewmtk_1_1components.html#a4166e4880553cfacbf79ac3515a637cd" target="_top" xlink:title=" ">
<polygon fill="white" stroke="#666666" points="269,-541.5 114,-541.5 114,-511.5 269,-511.5 269,-541.5"/>
<text text-anchor="start" x="122" y="-529.5" font-family="Helvetica,sans-Serif" font-size="10.00">wmtk::components::periodic</text>
<text text-anchor="middle" x="191.5" y="-518.5" font-family="Helvetica,sans-Serif" font-size="10.00">_optimization</text>
</a>
</g>
</g>
<!-- Node5&#45;&gt;Node8 -->
<g id="edge7_Node000005_Node000008" class="edge">
<title>Node5&#45;&gt;Node8</title>
<g id="a_edge7_Node000005_Node000008"><a xlink:title=" ">
<path fill="none" stroke="#63b8ff" d="M364.91,-437.11C342.5,-457.75 309.43,-485.28 276,-502.5 269.43,-505.89 262.32,-508.85 255.11,-511.44"/>
<polygon fill="#63b8ff" stroke="#63b8ff" points="367.47,-439.51 372.37,-430.12 362.68,-434.4 367.47,-439.51"/>
</a>
</g>
</g>
<!-- Node9 -->
<g id="Node000009" class="node">
<title>Node9</title>
<g id="a_Node000009"><a xlink:href="test__component__multimesh__from__tag_8cpp.html#a2231774bf0d53fb5f6c1b34753afb255" target="_top" xlink:title=" ">
<polygon fill="white" stroke="#666666" points="227,-493 156,-493 156,-474 227,-474 227,-493"/>
<text text-anchor="middle" x="191.5" y="-481" font-family="Helvetica,sans-Serif" font-size="10.00">TEST_CASE</text>
</a>
</g>
</g>
<!-- Node5&#45;&gt;Node9 -->
<g id="edge8_Node000005_Node000009" class="edge">
<title>Node5&#45;&gt;Node9</title>
<g id="a_edge8_Node000005_Node000009"><a xlink:title=" ">
<path fill="none" stroke="#63b8ff" d="M346.7,-434.75C325.61,-445.43 300.04,-457.28 276,-465.5 260.28,-470.87 242.34,-474.99 227.12,-477.92"/>
<polygon fill="#63b8ff" stroke="#63b8ff" points="348.45,-437.78 355.74,-430.1 345.25,-431.56 348.45,-437.78"/>
</a>
</g>
</g>
<!-- Node10 -->
<g id="Node000010" class="node">
<title>Node10</title>
<g id="a_Node000010"><a xlink:href="test__component__multimesh__from__tag_8cpp.html#a9a31cb828b93e2ddcf0a5063d4d1c9e6" target="_top" xlink:title=" ">
<polygon fill="white" stroke="#666666" points="227,-456 156,-456 156,-437 227,-437 227,-456"/>
<text text-anchor="middle" x="191.5" y="-444" font-family="Helvetica,sans-Serif" font-size="10.00">TEST_CASE</text>
</a>
</g>
</g>
<!-- Node5&#45;&gt;Node10 -->
<g id="edge9_Node000005_Node000010" class="edge">
<title>Node5&#45;&gt;Node10</title>
<g id="a_edge9_Node000005_Node000010"><a xlink:title=" ">
<path fill="none" stroke="#63b8ff" d="M301.63,-426.36C275.11,-431.25 247.76,-436.3 227.07,-440.12"/>
<polygon fill="#63b8ff" stroke="#63b8ff" points="302.54,-429.75 311.74,-424.5 301.27,-422.87 302.54,-429.75"/>
</a>
</g>
</g>
<!-- Node11 -->
<g id="Node000011" class="node">
<title>Node11</title>
<g id="a_Node000011"><a xlink:href="test__component__multimesh__from__tag_8cpp.html#a7a8f66a094907f369fa10876691f42f9" target="_top" xlink:title=" ">
<polygon fill="white" stroke="#666666" points="227,-419 156,-419 156,-400 227,-400 227,-419"/>
<text text-anchor="middle" x="191.5" y="-407" font-family="Helvetica,sans-Serif" font-size="10.00">TEST_CASE</text>
</a>
</g>
</g>
<!-- Node5&#45;&gt;Node11 -->
<g id="edge10_Node000005_Node000011" class="edge">
<title>Node5&#45;&gt;Node11</title>
<g id="a_edge10_Node000005_Node000011"><a xlink:title=" ">
<path fill="none" stroke="#63b8ff" d="M301.63,-409.5C275.11,-409.5 247.76,-409.5 227.07,-409.5"/>
<polygon fill="#63b8ff" stroke="#63b8ff" points="301.74,-413 311.74,-409.5 301.74,-406 301.74,-413"/>
</a>
</g>
</g>
<!-- Node12 -->
<g id="Node000012" class="node">
<title>Node12</title>
<g id="a_Node000012"><a xlink:href="test__component__multimesh__from__tag_8cpp.html#af55ce8249624ce4d6a3feaad760949a6" target="_top" xlink:title=" ">
<polygon fill="white" stroke="#666666" points="227,-382 156,-382 156,-363 227,-363 227,-382"/>
<text text-anchor="middle" x="191.5" y="-370" font-family="Helvetica,sans-Serif" font-size="10.00">TEST_CASE</text>
</a>
</g>
</g>
<!-- Node5&#45;&gt;Node12 -->
<g id="edge11_Node000005_Node000012" class="edge">
<title>Node5&#45;&gt;Node12</title>
<g id="a_edge11_Node000005_Node000012"><a xlink:title=" ">
<path fill="none" stroke="#63b8ff" d="M301.63,-392.64C275.11,-387.75 247.76,-382.7 227.07,-378.88"/>
<polygon fill="#63b8ff" stroke="#63b8ff" points="301.27,-396.13 311.74,-394.5 302.54,-389.25 301.27,-396.13"/>
</a>
</g>
</g>
<!-- Node13 -->
<g id="Node000013" class="node">
<title>Node13</title>
<g id="a_Node000013"><a xlink:href="test__component__multimesh__from__tag_8cpp.html#a18cd3d411cfadc472201c20662d62869" target="_top" xlink:title=" ">
<polygon fill="white" stroke="#666666" points="227,-345 156,-345 156,-326 227,-326 227,-345"/>
<text text-anchor="middle" x="191.5" y="-333" font-family="Helvetica,sans-Serif" font-size="10.00">TEST_CASE</text>
</a>
</g>
</g>
<!-- Node5&#45;&gt;Node13 -->
<g id="edge12_Node000005_Node000013" class="edge">
<title>Node5&#45;&gt;Node13</title>
<g id="a_edge12_Node000005_Node000013"><a xlink:title=" ">
<path fill="none" stroke="#63b8ff" d="M345.62,-384.38C324.71,-374.04 299.57,-362.62 276,-354.5 260.26,-349.08 242.31,-344.77 227.09,-341.63"/>
<polygon fill="#63b8ff" stroke="#63b8ff" points="344.1,-387.53 354.61,-388.88 347.24,-381.27 344.1,-387.53"/>
</a>
</g>
</g>
<!-- Node14 -->
<g id="Node000014" class="node">
<title>Node14</title>
<g id="a_Node000014"><a xlink:href="test__component__multimesh__from__tag_8cpp.html#a4caad3dd8a6355f2ca66fdb0b0af7999" target="_top" xlink:title=" ">
<polygon fill="white" stroke="#666666" points="227,-308 156,-308 156,-289 227,-289 227,-308"/>
<text text-anchor="middle" x="191.5" y="-296" font-family="Helvetica,sans-Serif" font-size="10.00">TEST_CASE</text>
</a>
</g>
</g>
<!-- Node5&#45;&gt;Node14 -->
<g id="edge13_Node000005_Node000014" class="edge">
<title>Node5&#45;&gt;Node14</title>
<g id="a_edge13_Node000005_Node000014"><a xlink:title=" ">
<path fill="none" stroke="#63b8ff" d="M365.12,-381.67C342.82,-360.97 309.8,-333.62 276,-317.5 260.84,-310.27 242.79,-305.72 227.36,-302.89"/>
<polygon fill="#63b8ff" stroke="#63b8ff" points="362.87,-384.36 372.54,-388.69 367.68,-379.27 362.87,-384.36"/>
</a>
</g>
</g>
<!-- Node15 -->
<g id="Node000015" class="node">
<title>Node15</title>
<g id="a_Node000015"><a xlink:href="namespacewmtk_1_1components.html#a9d6d11e3b7ba03911492ecfc79622247" target="_top" xlink:title=" ">
<polygon fill="white" stroke="#666666" points="268.5,-270.5 114.5,-270.5 114.5,-240.5 268.5,-240.5 268.5,-270.5"/>
<text text-anchor="start" x="122.5" y="-258.5" font-family="Helvetica,sans-Serif" font-size="10.00">wmtk::components::triangle</text>
<text text-anchor="middle" x="191.5" y="-247.5" font-family="Helvetica,sans-Serif" font-size="10.00">_insertion</text>
</a>
</g>
</g>
<!-- Node5&#45;&gt;Node15 -->
<g id="edge14_Node000005_Node000015" class="edge">
<title>Node5&#45;&gt;Node15</title>
<g id="a_edge14_Node000005_Node000015"><a xlink:title=" ">
<path fill="none" stroke="#63b8ff" d="M373.75,-380.29C352.98,-350.96 317.26,-306.51 276,-280.5 269.86,-276.63 263.08,-273.33 256.13,-270.52"/>
<polygon fill="#63b8ff" stroke="#63b8ff" points="371.13,-382.65 379.71,-388.86 376.88,-378.65 371.13,-382.65"/>
</a>
</g>
</g>
<!-- Node7 -->
<g id="Node000007" class="node">
<title>Node7</title>
<g id="a_Node000007"><a xlink:href="test__component__multimesh__from__tag_8cpp.html#a2b0208caf4b963a36a43604c3e7cf34a" target="_top" xlink:title=" ">
<polygon fill="white" stroke="#666666" points="71,-584 0,-584 0,-565 71,-565 71,-584"/>
<text text-anchor="middle" x="35.5" y="-572" font-family="Helvetica,sans-Serif" font-size="10.00">TEST_CASE</text>
</a>
</g>
</g>
<!-- Node6&#45;&gt;Node7 -->
<g id="edge6_Node000006_Node000007" class="edge">
<title>Node6&#45;&gt;Node7</title>
<g id="a_edge6_Node000006_Node000007"><a xlink:title=" ">
<path fill="none" stroke="#63b8ff" d="M96.52,-574.5C87.57,-574.5 78.93,-574.5 71.14,-574.5"/>
<polygon fill="#63b8ff" stroke="#63b8ff" points="96.74,-578 106.74,-574.5 96.74,-571 96.74,-578"/>
</a>
</g>
</g>
<!-- Node17 -->
<g id="Node000017" class="node">
<title>Node17</title>
<g id="a_Node000017"><a xlink:href="test__component__fusion_8cpp.html#ad717d3fcca492f6237e8e5f0e3455e4e" target="_top" xlink:title=" ">
<polygon fill="white" stroke="#666666" points="631.5,-505 560.5,-505 560.5,-486 631.5,-486 631.5,-505"/>
<text text-anchor="middle" x="596" y="-493" font-family="Helvetica,sans-Serif" font-size="10.00">TEST_CASE</text>
</a>
</g>
</g>
<!-- Node16&#45;&gt;Node17 -->
<g id="edge16_Node000016_Node000017" class="edge">
<title>Node16&#45;&gt;Node17</title>
<g id="a_edge16_Node000016_Node000017"><a xlink:title=" ">
<path fill="none" stroke="#63b8ff" d="M725.35,-495.5C692.74,-495.5 657.03,-495.5 631.57,-495.5"/>
<polygon fill="#63b8ff" stroke="#63b8ff" points="725.35,-499 735.35,-495.5 725.35,-492 725.35,-499"/>
</a>
</g>
</g>
<!-- Node20 -->
<g id="Node000020" class="node">
<title>Node20</title>
<g id="a_Node000020"><a xlink:href="classwmtk_1_1components_1_1internal_1_1_multi_mesh_from_tag.html#ad18667b876fc81c8cfb79a408d632b25" target="_top" xlink:title="Create a multimesh where the child&#45;mesh is just a soup (no connectivity) of m_mesh.">
<polygon fill="white" stroke="#666666" points="673,-455 519,-455 519,-414 673,-414 673,-455"/>
<text text-anchor="start" x="527" y="-443" font-family="Helvetica,sans-Serif" font-size="10.00">wmtk::components::internal</text>
<text text-anchor="start" x="527" y="-432" font-family="Helvetica,sans-Serif" font-size="10.00">::MultiMeshFromTag::create</text>
<text text-anchor="middle" x="596" y="-421" font-family="Helvetica,sans-Serif" font-size="10.00">_substructure_soup</text>
</a>
</g>
</g>
<!-- Node19&#45;&gt;Node20 -->
<g id="edge19_Node000019_Node000020" class="edge">
<title>Node19&#45;&gt;Node20</title>
<g id="a_edge19_Node000019_Node000020"><a xlink:title=" ">
<path fill="none" stroke="#63b8ff" d="M717.74,-448.27C702.91,-446.58 687.67,-444.84 673.21,-443.19"/>
<polygon fill="#63b8ff" stroke="#63b8ff" points="717.59,-451.77 727.92,-449.43 718.38,-444.82 717.59,-451.77"/>
</a>
</g>
</g>
<!-- Node20&#45;&gt;Node5 -->
<g id="edge20_Node000020_Node000005" class="edge">
<title>Node20&#45;&gt;Node5</title>
<g id="a_edge20_Node000020_Node000005"><a xlink:title=" ">
<path fill="none" stroke="#63b8ff" d="M508.61,-423.7C497.89,-422.36 486.94,-420.99 476.3,-419.66"/>
<polygon fill="#63b8ff" stroke="#63b8ff" points="508.46,-427.21 518.82,-424.98 509.33,-420.26 508.46,-427.21"/>
</a>
</g>
</g>
<!-- Node22 -->
<g id="Node000022" class="node">
<title>Node22</title>
<g id="a_Node000022"><a xlink:href="namespacewmtk_1_1components_1_1procedural.html#ae65f7700d6eefc4c80f28595d3bbef66" target="_top" xlink:title=" ">
<polygon fill="white" stroke="#666666" points="680,-677.5 512,-677.5 512,-647.5 680,-647.5 680,-677.5"/>
<text text-anchor="start" x="520" y="-665.5" font-family="Helvetica,sans-Serif" font-size="10.00">wmtk::components::procedural</text>
<text text-anchor="middle" x="596" y="-654.5" font-family="Helvetica,sans-Serif" font-size="10.00">::make_mesh</text>
</a>
</g>
</g>
<!-- Node21&#45;&gt;Node22 -->
<g id="edge22_Node000021_Node000022" class="edge">
<title>Node21&#45;&gt;Node22</title>
<g id="a_edge22_Node000021_Node000022"><a xlink:title=" ">
<path fill="none" stroke="#63b8ff" d="M714.04,-662.5C702.8,-662.5 691.37,-662.5 680.28,-662.5"/>
<polygon fill="#63b8ff" stroke="#63b8ff" points="714.3,-666 724.3,-662.5 714.3,-659 714.3,-666"/>
</a>
</g>
</g>
<!-- Node24&#45;&gt;Node5 -->
<g id="edge25_Node000024_Node000005" class="edge">
<title>Node24&#45;&gt;Node5</title>
<g id="a_edge25_Node000024_Node000005"><a xlink:title=" ">
<path fill="none" stroke="#63b8ff" d="M996.46,-403.75C977.56,-381.44 941.57,-344.28 901,-329.5 819.78,-299.91 594.59,-303.96 512,-329.5 474.62,-341.06 438.54,-369.12 416.56,-388.73"/>
<polygon fill="#63b8ff" stroke="#63b8ff" points="994,-406.26 1003.06,-411.76 999.4,-401.82 994,-406.26"/>
</a>
</g>
</g>
<!-- Node24&#45;&gt;Node16 -->
<g id="edge26_Node000024_Node000016" class="edge">
<title>Node24&#45;&gt;Node16</title>
<g id="a_edge26_Node000024_Node000016"><a xlink:title=" ">
<path fill="none" stroke="#63b8ff" d="M986.34,-436.35C964.71,-449.02 931.76,-466.85 901,-477.5 891.36,-480.84 880.93,-483.62 870.67,-485.93"/>
<polygon fill="#63b8ff" stroke="#63b8ff" points="988.35,-439.22 995.15,-431.1 984.77,-433.21 988.35,-439.22"/>
</a>
</g>
</g>
<!-- Node25 -->
<g id="Node000025" class="node">
<title>Node25</title>
<g id="a_Node000025"><a xlink:href="classwmtk_1_1_tet_mesh.html#a679a3ffd1a5375f69e9279e48ddbbb8b" target="_top" xlink:title=" ">
<polygon fill="white" stroke="#666666" points="878,-394 739,-394 739,-375 878,-375 878,-394"/>
<text text-anchor="middle" x="808.5" y="-382" font-family="Helvetica,sans-Serif" font-size="10.00">wmtk::TetMesh::initialize</text>
</a>
</g>
</g>
<!-- Node24&#45;&gt;Node25 -->
<g id="edge27_Node000024_Node000025" class="edge">
<title>Node24&#45;&gt;Node25</title>
<g id="a_edge27_Node000024_Node000025"><a xlink:title=" ">
<path fill="none" stroke="#63b8ff" d="M948.68,-410.12C920.73,-404.98 888.09,-398.97 861.44,-394.06"/>
<polygon fill="#63b8ff" stroke="#63b8ff" points="948.27,-413.6 958.74,-411.97 949.54,-406.72 948.27,-413.6"/>
</a>
</g>
</g>
<!-- Node26 -->
<g id="Node000026" class="node">
<title>Node26</title>
<g id="a_Node000026"><a xlink:href="classwmtk_1_1_tet_mesh.html#a7cff4758f5cd0e10da33622a6999cbef" target="_top" xlink:title=" ">
<polygon fill="white" stroke="#666666" points="890.5,-431 726.5,-431 726.5,-412 890.5,-412 890.5,-431"/>
<text text-anchor="middle" x="808.5" y="-419" font-family="Helvetica,sans-Serif" font-size="10.00">wmtk::TetMesh::initialize_free</text>
</a>
</g>
</g>
<!-- Node24&#45;&gt;Node26 -->
<g id="edge28_Node000024_Node000026" class="edge">
<title>Node24&#45;&gt;Node26</title>
<g id="a_edge28_Node000024_Node000026"><a xlink:title=" ">
<path fill="none" stroke="#63b8ff" d="M931.7,-421.5C918.21,-421.5 904.18,-421.5 890.63,-421.5"/>
<polygon fill="#63b8ff" stroke="#63b8ff" points="931.89,-425 941.89,-421.5 931.89,-418 931.89,-425"/>
</a>
</g>
</g>
<!-- Node26&#45;&gt;Node20 -->
<g id="edge29_Node000026_Node000020" class="edge">
<title>Node26&#45;&gt;Node20</title>
<g id="a_edge29_Node000026_Node000020"><a xlink:title=" ">
<path fill="none" stroke="#63b8ff" d="M716.08,-427.15C701.77,-428.03 687.12,-428.93 673.2,-429.79"/>
<polygon fill="#63b8ff" stroke="#63b8ff" points="716.65,-430.62 726.42,-426.51 716.22,-423.63 716.65,-430.62"/>
</a>
</g>
</g>
<!-- Node27&#45;&gt;Node5 -->
<g id="edge31_Node000027_Node000005" class="edge">
<title>Node27&#45;&gt;Node5</title>
<g id="a_edge31_Node000027_Node000005"><a xlink:title=" ">
<path fill="none" stroke="#63b8ff" d="M733.98,-358.55C661.5,-369.44 550.98,-386.06 476.01,-397.32"/>
<polygon fill="#63b8ff" stroke="#63b8ff" points="734.58,-362 743.95,-357.05 733.54,-355.08 734.58,-362"/>
</a>
</g>
</g>
<!-- Node27&#45;&gt;Node20 -->
<g id="edge32_Node000027_Node000020" class="edge">
<title>Node27&#45;&gt;Node20</title>
<g id="a_edge32_Node000027_Node000020"><a xlink:title=" ">
<path fill="none" stroke="#63b8ff" d="M730.4,-360.3C725.42,-362.1 720.58,-364.16 716,-366.5 696.68,-376.39 698.27,-387.78 680,-399.5 671.71,-404.82 662.47,-409.64 653.26,-413.89"/>
<polygon fill="#63b8ff" stroke="#63b8ff" points="731.67,-363.57 740.1,-357.14 729.5,-356.91 731.67,-363.57"/>
</a>
</g>
</g>
<!-- Node28 -->
<g id="Node000028" class="node">
<title>Node28</title>
<g id="a_Node000028"><a xlink:href="classwmtk_1_1_point_mesh.html#a9323586140fbd128b9d52c3d6a6ccae8" target="_top" xlink:title=" ">
<polygon fill="white" stroke="#666666" points="675,-357 517,-357 517,-338 675,-338 675,-357"/>
<text text-anchor="middle" x="596" y="-345" font-family="Helvetica,sans-Serif" font-size="10.00">wmtk::PointMesh::PointMesh</text>
</a>
</g>
</g>
<!-- Node27&#45;&gt;Node28 -->
<g id="edge33_Node000027_Node000028" class="edge">
<title>Node27&#45;&gt;Node28</title>
<g id="a_edge33_Node000027_Node000028"><a xlink:title=" ">
<path fill="none" stroke="#63b8ff" d="M723.52,-347.5C707.59,-347.5 690.98,-347.5 675.23,-347.5"/>
<polygon fill="#63b8ff" stroke="#63b8ff" points="723.88,-351 733.88,-347.5 723.88,-344 723.88,-351"/>
</a>
</g>
</g>
<!-- Node30 -->
<g id="Node000030" class="node">
<title>Node30</title>
<g id="a_Node000030"><a xlink:href="classwmtk_1_1_tri_mesh_1_1_tri_mesh_operation_executor.html#a54ec111e8890281195a6d2449f822f02" target="_top" xlink:title=" ">
<polygon fill="white" stroke="#666666" points="898,-281.5 719,-281.5 719,-251.5 898,-251.5 898,-281.5"/>
<text text-anchor="start" x="727" y="-269.5" font-family="Helvetica,sans-Serif" font-size="10.00">wmtk::TriMesh::TriMeshOperation</text>
<text text-anchor="middle" x="808.5" y="-258.5" font-family="Helvetica,sans-Serif" font-size="10.00">Executor::create_spine_simplices</text>
</a>
</g>
</g>
<!-- Node29&#45;&gt;Node30 -->
<g id="edge35_Node000029_Node000030" class="edge">
<title>Node29&#45;&gt;Node30</title>
<g id="a_edge35_Node000029_Node000030"><a xlink:title=" ">
<path fill="none" stroke="#63b8ff" d="M983.6,-191.79C962.27,-207.75 931.14,-229.07 901,-242.5 893.5,-245.84 885.44,-248.79 877.32,-251.38"/>
<polygon fill="#63b8ff" stroke="#63b8ff" points="985.99,-194.37 991.83,-185.53 981.75,-188.8 985.99,-194.37"/>
</a>
</g>
</g>
<!-- Node31 -->
<g id="Node000031" class="node">
<title>Node31</title>
<g id="a_Node000031"><a xlink:href="classwmtk_1_1_tri_mesh_1_1_tri_mesh_operation_executor.html#a3df1e4a6e6de766e419522774d6463d6" target="_top" xlink:title=" ">
<polygon fill="white" stroke="#666666" points="898,-233.5 719,-233.5 719,-203.5 898,-203.5 898,-233.5"/>
<text text-anchor="start" x="727" y="-221.5" font-family="Helvetica,sans-Serif" font-size="10.00">wmtk::TriMesh::TriMeshOperation</text>
<text text-anchor="middle" x="808.5" y="-210.5" font-family="Helvetica,sans-Serif" font-size="10.00">Executor::fill_split_facet_data</text>
</a>
</g>
</g>
<!-- Node29&#45;&gt;Node31 -->
<g id="edge36_Node000029_Node000031" class="edge">
<title>Node29&#45;&gt;Node31</title>
<g id="a_edge36_Node000029_Node000031"><a xlink:title=" ">
<path fill="none" stroke="#63b8ff" d="M942,-186.86C919.47,-192.24 894.55,-198.19 872.46,-203.46"/>
<polygon fill="#63b8ff" stroke="#63b8ff" points="942.91,-190.24 951.82,-184.51 941.28,-183.43 942.91,-190.24"/>
</a>
</g>
</g>
<!-- Node32 -->
<g id="Node000032" class="node">
<title>Node32</title>
<g id="a_Node000032"><a xlink:href="classwmtk_1_1_tri_mesh_1_1_tri_mesh_operation_executor.html#a998d9ebaf1507d842fb01db91e044644" target="_top" xlink:title=" ">
<polygon fill="white" stroke="#666666" points="898,-185.5 719,-185.5 719,-155.5 898,-155.5 898,-185.5"/>
<text text-anchor="start" x="727" y="-173.5" font-family="Helvetica,sans-Serif" font-size="10.00">wmtk::TriMesh::TriMeshOperation</text>
<text text-anchor="middle" x="808.5" y="-162.5" font-family="Helvetica,sans-Serif" font-size="10.00">Executor::replace_incident_face</text>
</a>
</g>
</g>
<!-- Node29&#45;&gt;Node32 -->
<g id="edge37_Node000029_Node000032" class="edge">
<title>Node29&#45;&gt;Node32</title>
<g id="a_edge37_Node000029_Node000032"><a xlink:title=" ">
<path fill="none" stroke="#63b8ff" d="M941.78,-170.5C927.74,-170.5 912.77,-170.5 898.14,-170.5"/>
<polygon fill="#63b8ff" stroke="#63b8ff" points="941.82,-174 951.82,-170.5 941.82,-167 941.82,-174"/>
</a>
</g>
</g>
<!-- Node33 -->
<g id="Node000033" class="node">
<title>Node33</title>
<g id="a_Node000033"><a xlink:href="classwmtk_1_1operations_1_1_edge_operation_data.html#a80ea6d5059989a2d093179a0dbd2556d" target="_top" xlink:title=" ">
<polygon fill="white" stroke="#666666" points="898.5,-137.5 718.5,-137.5 718.5,-107.5 898.5,-107.5 898.5,-137.5"/>
<text text-anchor="start" x="726.5" y="-125.5" font-family="Helvetica,sans-Serif" font-size="10.00">wmtk::operations::EdgeOperation</text>
<text text-anchor="middle" x="808.5" y="-114.5" font-family="Helvetica,sans-Serif" font-size="10.00">Data::request_simplex_indices</text>
</a>
</g>
</g>
<!-- Node29&#45;&gt;Node33 -->
<g id="edge38_Node000029_Node000033" class="edge">
<title>Node29&#45;&gt;Node33</title>
<g id="a_edge38_Node000029_Node000033"><a xlink:title=" ">
<path fill="none" stroke="#63b8ff" d="M942,-154.14C919.47,-148.76 894.55,-142.81 872.46,-137.54"/>
<polygon fill="#63b8ff" stroke="#63b8ff" points="941.28,-157.57 951.82,-156.49 942.91,-150.76 941.28,-157.57"/>
</a>
</g>
</g>
<!-- Node35 -->
<g id="Node000035" class="node">
<title>Node35</title>
<g id="a_Node000035"><a xlink:href="classwmtk_1_1_tet_mesh_1_1_tet_mesh_operation_executor.html#afdafef0c67dc0d9b6f2aef827d638eb6" target="_top" xlink:title="split edge v1&#45;v2">
<polygon fill="white" stroke="#666666" points="901,-89.5 716,-89.5 716,-59.5 901,-59.5 901,-89.5"/>
<text text-anchor="start" x="724" y="-77.5" font-family="Helvetica,sans-Serif" font-size="10.00">wmtk::TetMesh::TetMeshOperation</text>
<text text-anchor="middle" x="808.5" y="-66.5" font-family="Helvetica,sans-Serif" font-size="10.00">Executor::split_edge</text>
</a>
</g>
</g>
<!-- Node29&#45;&gt;Node35 -->
<g id="edge40_Node000029_Node000035" class="edge">
<title>Node29&#45;&gt;Node35</title>
<g id="a_edge40_Node000029_Node000035"><a xlink:title=" ">
<path fill="none" stroke="#63b8ff" d="M983.6,-149.21C962.27,-133.25 931.14,-111.93 901,-98.5 893.5,-95.16 885.44,-92.21 877.32,-89.62"/>
<polygon fill="#63b8ff" stroke="#63b8ff" points="981.75,-152.2 991.83,-155.47 985.99,-146.63 981.75,-152.2"/>
</a>
</g>
</g>
<!-- Node37 -->
<g id="Node000037" class="node">
<title>Node37</title>
<g id="a_Node000037"><a xlink:href="classwmtk_1_1_edge_mesh_1_1_edge_mesh_operation_executor.html#acb42aca716850f7017290140eef6d94e" target="_top" xlink:title=" ">
<polygon fill="white" stroke="#666666" points="887,-41 730,-41 730,0 887,0 887,-41"/>
<text text-anchor="start" x="738" y="-29" font-family="Helvetica,sans-Serif" font-size="10.00">wmtk::EdgeMesh::EdgeMesh</text>
<text text-anchor="start" x="738" y="-18" font-family="Helvetica,sans-Serif" font-size="10.00">OperationExecutor::split</text>
<text text-anchor="middle" x="808.5" y="-7" font-family="Helvetica,sans-Serif" font-size="10.00">_edge_single_mesh</text>
</a>
</g>
</g>
<!-- Node29&#45;&gt;Node37 -->
<g id="edge42_Node000029_Node000037" class="edge">
<title>Node29&#45;&gt;Node37</title>
<g id="a_edge42_Node000029_Node000037"><a xlink:title=" ">
<path fill="none" stroke="#63b8ff" d="M994.69,-146.83C975.52,-119.87 940.79,-76.23 901,-50.5 895.67,-47.05 889.9,-43.96 883.94,-41.21"/>
<polygon fill="#63b8ff" stroke="#63b8ff" points="991.99,-149.08 1000.58,-155.29 997.73,-145.08 991.99,-149.08"/>
</a>
</g>
</g>
<!-- Node34 -->
<g id="Node000034" class="node">
<title>Node34</title>
<g id="a_Node000034"><a xlink:href="classwmtk_1_1operations_1_1internal_1_1_split_alternate_facet_data.html#a6d058aa5a832bcf22fd76c0762fe058a" target="_top" xlink:title=" ">
<polygon fill="white" stroke="#666666" points="669,-149 523,-149 523,-108 669,-108 669,-149"/>
<text text-anchor="start" x="531" y="-137" font-family="Helvetica,sans-Serif" font-size="10.00">wmtk::operations::internal</text>
<text text-anchor="start" x="531" y="-126" font-family="Helvetica,sans-Serif" font-size="10.00">::SplitAlternateFacetData</text>
<text text-anchor="middle" x="596" y="-115" font-family="Helvetica,sans-Serif" font-size="10.00">::add_facet</text>
</a>
</g>
</g>
<!-- Node33&#45;&gt;Node34 -->
<g id="edge39_Node000033_Node000034" class="edge">
<title>Node33&#45;&gt;Node34</title>
<g id="a_edge39_Node000033_Node000034"><a xlink:title=" ">
<path fill="none" stroke="#63b8ff" d="M708.21,-125.33C695.05,-125.71 681.78,-126.08 669.2,-126.44"/>
<polygon fill="#63b8ff" stroke="#63b8ff" points="708.33,-128.83 718.23,-125.04 708.13,-121.83 708.33,-128.83"/>
</a>
</g>
</g>
<!-- Node36 -->
<g id="Node000036" class="node">
<title>Node36</title>
<g id="a_Node000036"><a xlink:href="classwmtk_1_1operations_1_1utils_1_1_multi_mesh_edge_split_functor.html#af010a058e1bd67dbd1019342c0ac8c7d" target="_top" xlink:title=" ">
<polygon fill="white" stroke="#666666" points="673.5,-90 518.5,-90 518.5,-49 673.5,-49 673.5,-90"/>
<text text-anchor="start" x="526.5" y="-78" font-family="Helvetica,sans-Serif" font-size="10.00">wmtk::operations::utils</text>
<text text-anchor="start" x="526.5" y="-67" font-family="Helvetica,sans-Serif" font-size="10.00">::MultiMeshEdgeSplitFunctor</text>
<text text-anchor="middle" x="596" y="-56" font-family="Helvetica,sans-Serif" font-size="10.00">::operator()</text>
</a>
</g>
</g>
<!-- Node35&#45;&gt;Node36 -->
<g id="edge41_Node000035_Node000036" class="edge">
<title>Node35&#45;&gt;Node36</title>
<g id="a_edge41_Node000035_Node000036"><a xlink:title=" ">
<path fill="none" stroke="#63b8ff" d="M705.52,-72.08C694.78,-71.82 684,-71.57 673.62,-71.32"/>
<polygon fill="#63b8ff" stroke="#63b8ff" points="705.7,-75.58 715.78,-72.32 705.87,-68.58 705.7,-75.58"/>
</a>
</g>
</g>
</g>
</svg>
