<?xml version="1.0" encoding="UTF-8" standalone="no"?>
<!DOCTYPE svg PUBLIC "-//W3C//DTD SVG 1.1//EN"
 "http://www.w3.org/Graphics/SVG/1.1/DTD/svg11.dtd">
<!-- Generated by graphviz version 2.43.0 (0)
 -->
<!-- Title: wmtk::multimesh::MultiMeshManager::map_tuples Pages: 1 -->
<!--zoomable 516 -->

<svg id="main" version="1.1" xmlns="http://www.w3.org/2000/svg" xmlns:xlink="http://www.w3.org/1999/xlink" xml:space="preserve" onload="init(evt)">
<style type="text/css"><![CDATA[
.node, .edge {opacity: 0.7;}
.node.selected, .edge.selected {opacity: 1;}
.edge:hover path { stroke: red; }
.edge:hover polygon { stroke: red; fill: red; }
]]></style>

<defs>
  <circle id="rim" cx="0" cy="0" r="7"/>
  <circle id="rim2" cx="0" cy="0" r="3.5"/>
  <g id="zoomPlus">
    <use xlink:href="#rim" fill="#404040"><set attributeName="fill" to="#808080" begin="zoomplus.mouseover" end="zoomplus.mouseout"/></use>
    <path d="M-4,0h8M0,-4v8" fill="none" stroke="white" stroke-width="1.5" pointer-events="none"/>
  </g>
  <g id="zoomMin">
    <use xlink:href="#rim" fill="#404040"><set attributeName="fill" to="#808080" begin="zoomminus.mouseover" end="zoomminus.mouseout"/></use>
    <path d="M-4,0h8" fill="none" stroke="white" stroke-width="1.5" pointer-events="none"/>
  </g>
  <g id="arrowUp" transform="translate(30 24)">
    <use xlink:href="#rim"/>
    <path pointer-events="none" fill="none" stroke="white" stroke-width="1.5" d="M0,-3.0v7 M-2.5,-0.5L0,-3.0L2.5,-0.5"/>
  </g>
  <g id="arrowRight" transform="rotate(90) translate(36 -43)">
    <use xlink:href="#rim"/>
    <path pointer-events="none" fill="none" stroke="white" stroke-width="1.5" d="M0,-3.0v7 M-2.5,-0.5L0,-3.0L2.5,-0.5"/>
  </g>
  <g id="arrowDown" transform="rotate(180) translate(-30 -48)">
    <use xlink:href="#rim"/>
    <path pointer-events="none" fill="none" stroke="white" stroke-width="1.5" d="M0,-3.0v7 M-2.5,-0.5L0,-3.0L2.5,-0.5"/>
  </g>
  <g id="arrowLeft" transform="rotate(270) translate(-36 17)">
    <use xlink:href="#rim"/>
    <path pointer-events="none" fill="none" stroke="white" stroke-width="1.5" d="M0,-3.0v7 M-2.5,-0.5L0,-3.0L2.5,-0.5"/>
  </g>
  <g id="resetDef">
    <use xlink:href="#rim2" fill="#404040"><set attributeName="fill" to="#808080" begin="reset.mouseover" end="reset.mouseout"/></use>
  </g>
</defs>
<script type="application/ecmascript">
var viewWidth = 1547;
var viewHeight = 516;
var sectionId = 'dynsection-74';
</script>
<script type="application/ecmascript" xlink:href="svg.min.js"/>
<svg id="graph" class="graph">
<g id="viewport">
<title>wmtk::multimesh::MultiMeshManager::map_tuples</title>
<!-- Node1 -->
<g id="Node000001" class="node">
<title>Node1</title>
<g id="a_Node000001"><a xlink:title="maps a simplex from this mesh to any other mesh">
<polygon fill="#999999" stroke="#666666" points="160,-168 0,-168 0,-138 160,-138 160,-168"/>
<text text-anchor="start" x="8" y="-156" font-family="Helvetica,sans-Serif" font-size="10.00">wmtk::multimesh::MultiMesh</text>
<text text-anchor="middle" x="80" y="-145" font-family="Helvetica,sans-Serif" font-size="10.00">Manager::map_tuples</text>
</a>
</g>
</g>
<!-- Node2 -->
<g id="Node000002" class="node">
<title>Node2</title>
<g id="a_Node000002"><a xlink:href="classwmtk_1_1multimesh_1_1_multi_mesh_manager.html#a812e0992812b2c48a889e10ae9e50758" target="_top" xlink:title=" ">
<polygon fill="white" stroke="#666666" points="571.5,-239 411.5,-239 411.5,-209 571.5,-209 571.5,-239"/>
<text text-anchor="start" x="419.5" y="-227" font-family="Helvetica,sans-Serif" font-size="10.00">wmtk::multimesh::MultiMesh</text>
<text text-anchor="middle" x="491.5" y="-216" font-family="Helvetica,sans-Serif" font-size="10.00">Manager::absolute_id</text>
</a>
</g>
</g>
<!-- Node1&#45;&gt;Node2 -->
<g id="edge1_Node000001_Node000002" class="edge">
<title>Node1&#45;&gt;Node2</title>
<g id="a_edge1_Node000001_Node000002"><a xlink:title=" ">
<path fill="none" stroke="#63b8ff" d="M108.43,-168.09C131.16,-179.81 164.71,-195.32 196,-203 263.53,-219.57 342.18,-224.48 401.21,-225.43"/>
<polygon fill="#63b8ff" stroke="#63b8ff" points="401.21,-228.93 411.25,-225.55 401.3,-221.93 401.21,-228.93"/>
</a>
</g>
</g>
<!-- Node4 -->
<g id="Node000004" class="node">
<title>Node4</title>
<g id="a_Node000004"><a xlink:href="classwmtk_1_1_mesh.html#a2102fdea06a0c543437e67d77aeb2013" target="_top" xlink:title="returns a unique identifier for this mesh within a single multimesh structure">
<polygon fill="white" stroke="#666666" points="338.5,-194 213.5,-194 213.5,-164 338.5,-164 338.5,-194"/>
<text text-anchor="start" x="221.5" y="-182" font-family="Helvetica,sans-Serif" font-size="10.00">wmtk::Mesh::absolute</text>
<text text-anchor="middle" x="276" y="-171" font-family="Helvetica,sans-Serif" font-size="10.00">_multi_mesh_id</text>
</a>
</g>
</g>
<!-- Node1&#45;&gt;Node4 -->
<g id="edge4_Node000001_Node000004" class="edge">
<title>Node1&#45;&gt;Node4</title>
<g id="a_edge4_Node000001_Node000004"><a xlink:title=" ">
<path fill="none" stroke="#63b8ff" d="M160.19,-163.61C174.44,-165.52 189.21,-167.5 203.24,-169.38"/>
<polygon fill="#63b8ff" stroke="#63b8ff" points="202.92,-172.87 213.3,-170.73 203.85,-165.93 202.92,-172.87"/>
</a>
</g>
</g>
<!-- Node5 -->
<g id="Node000005" class="node">
<title>Node5</title>
<g id="a_Node000005"><a xlink:href="classwmtk_1_1multimesh_1_1_multi_mesh_manager.html#aefe5179057c978e227c3349d13578c4a" target="_top" xlink:title=" ">
<polygon fill="white" stroke="#666666" points="356,-144 196,-144 196,-114 356,-114 356,-144"/>
<text text-anchor="start" x="204" y="-132" font-family="Helvetica,sans-Serif" font-size="10.00">wmtk::multimesh::MultiMesh</text>
<text text-anchor="middle" x="276" y="-121" font-family="Helvetica,sans-Serif" font-size="10.00">Manager::map_up_to_tuples</text>
</a>
</g>
</g>
<!-- Node1&#45;&gt;Node5 -->
<g id="edge6_Node000001_Node000005" class="edge">
<title>Node1&#45;&gt;Node5</title>
<g id="a_edge6_Node000001_Node000005"><a xlink:title=" ">
<path fill="none" stroke="#63b8ff" d="M160.19,-143.2C168.62,-142.16 177.24,-141.09 185.78,-140.04"/>
<polygon fill="#63b8ff" stroke="#63b8ff" points="186.26,-143.51 195.75,-138.8 185.4,-136.56 186.26,-143.51"/>
</a>
</g>
</g>
<!-- Node23 -->
<g id="Node000023" class="node">
<title>Node23</title>
<g id="a_Node000023"><a xlink:href="classwmtk_1_1simplex_1_1_simplex.html#ad2cc0340a0772b7d6f03ba7a781d1163" target="_top" xlink:title=" ">
<polygon fill="white" stroke="#666666" points="1248.5,-30 1113.5,-30 1113.5,0 1248.5,0 1248.5,-30"/>
<text text-anchor="start" x="1121.5" y="-18" font-family="Helvetica,sans-Serif" font-size="10.00">wmtk::simplex::Simplex</text>
<text text-anchor="middle" x="1181" y="-7" font-family="Helvetica,sans-Serif" font-size="10.00">::primitive_type</text>
</a>
</g>
</g>
<!-- Node1&#45;&gt;Node23 -->
<g id="edge34_Node000001_Node000023" class="edge">
<title>Node1&#45;&gt;Node23</title>
<g id="a_edge34_Node000001_Node000023"><a xlink:title=" ">
<path fill="none" stroke="#63b8ff" d="M107.33,-137.89C170.96,-102.84 339.02,-19 490.5,-19 490.5,-19 490.5,-19 732,-19 862.32,-19 1013.95,-17.29 1103.18,-16.1"/>
<polygon fill="#63b8ff" stroke="#63b8ff" points="1103.26,-19.6 1113.21,-15.97 1103.16,-12.6 1103.26,-19.6"/>
</a>
</g>
</g>
<!-- Node2&#45;&gt;Node2 -->
<g id="edge2_Node000002_Node000002" class="edge">
<title>Node2&#45;&gt;Node2</title>
<g id="a_edge2_Node000002_Node000002"><a xlink:title=" ">
<path fill="none" stroke="#63b8ff" d="M453.88,-239.28C445.52,-248.41 458.06,-257 491.5,-257 511.35,-257 523.84,-253.97 528.96,-249.6"/>
<polygon fill="#63b8ff" stroke="#63b8ff" points="532.46,-249.33 529.12,-239.28 525.46,-249.22 532.46,-249.33"/>
</a>
</g>
</g>
<!-- Node3 -->
<g id="Node000003" class="node">
<title>Node3</title>
<g id="a_Node000003"><a xlink:href="classwmtk_1_1multimesh_1_1_multi_mesh_manager.html#a7d39339adb56b1798fe817d81bfcc67c" target="_top" xlink:title="Specifies whether this structure is the root of a multi&#45;mesh tree.">
<polygon fill="white" stroke="#666666" points="811,-239 651,-239 651,-209 811,-209 811,-239"/>
<text text-anchor="start" x="659" y="-227" font-family="Helvetica,sans-Serif" font-size="10.00">wmtk::multimesh::MultiMesh</text>
<text text-anchor="middle" x="731" y="-216" font-family="Helvetica,sans-Serif" font-size="10.00">Manager::is_root</text>
</a>
</g>
</g>
<!-- Node2&#45;&gt;Node3 -->
<g id="edge3_Node000002_Node000003" class="edge">
<title>Node2&#45;&gt;Node3</title>
<g id="a_edge3_Node000002_Node000003"><a xlink:title=" ">
<path fill="none" stroke="#63b8ff" d="M571.58,-224C593.7,-224 617.89,-224 640.56,-224"/>
<polygon fill="#63b8ff" stroke="#63b8ff" points="640.86,-227.5 650.86,-224 640.86,-220.5 640.86,-227.5"/>
</a>
</g>
</g>
<!-- Node4&#45;&gt;Node2 -->
<g id="edge5_Node000004_Node000002" class="edge">
<title>Node4&#45;&gt;Node2</title>
<g id="a_edge5_Node000004_Node000002"><a xlink:title=" ">
<path fill="none" stroke="#63b8ff" d="M338.75,-192.02C360.74,-196.65 385.84,-201.94 409.21,-206.87"/>
<polygon fill="#63b8ff" stroke="#63b8ff" points="408.59,-210.31 419.1,-208.95 410.04,-203.46 408.59,-210.31"/>
</a>
</g>
</g>
<!-- Node6 -->
<g id="Node000006" class="node">
<title>Node6</title>
<g id="a_Node000006"><a xlink:href="classwmtk_1_1multimesh_1_1_multi_mesh_manager.html#af6fd8d8b5cc1e8b2c877718b99374f03" target="_top" xlink:title=" ">
<polygon fill="white" stroke="#666666" points="591,-143 392,-143 392,-113 591,-113 591,-143"/>
<text text-anchor="start" x="400" y="-131" font-family="Helvetica,sans-Serif" font-size="10.00">wmtk::multimesh::MultiMesh</text>
<text text-anchor="middle" x="491.5" y="-120" font-family="Helvetica,sans-Serif" font-size="10.00">Manager::map_tuple_to_parent_tuple</text>
</a>
</g>
</g>
<!-- Node5&#45;&gt;Node6 -->
<g id="edge7_Node000005_Node000006" class="edge">
<title>Node5&#45;&gt;Node6</title>
<g id="a_edge7_Node000005_Node000006"><a xlink:title=" ">
<path fill="none" stroke="#63b8ff" d="M356.2,-128.63C364.56,-128.59 373.16,-128.55 381.77,-128.51"/>
<polygon fill="#63b8ff" stroke="#63b8ff" points="381.9,-132.01 391.89,-128.46 381.87,-125.01 381.9,-132.01"/>
</a>
</g>
</g>
<!-- Node5&#45;&gt;Node23 -->
<g id="edge32_Node000005_Node000023" class="edge">
<title>Node5&#45;&gt;Node23</title>
<g id="a_edge32_Node000005_Node000023"><a xlink:title=" ">
<path fill="none" stroke="#63b8ff" d="M340.34,-113.98C357.07,-110.36 375.16,-106.74 392,-104 678.39,-57.34 752.88,-67.41 1041,-33 1061.15,-30.59 1082.93,-27.84 1103.13,-25.23"/>
<polygon fill="#63b8ff" stroke="#63b8ff" points="1103.75,-28.68 1113.22,-23.92 1102.85,-21.74 1103.75,-28.68"/>
</a>
</g>
</g>
<!-- Node28 -->
<g id="Node000028" class="node">
<title>Node28</title>
<g id="a_Node000028"><a xlink:href="classwmtk_1_1simplex_1_1_simplex.html#aca78b1fb0a3c28c0036cf7919bfb0789" target="_top" xlink:title=" ">
<polygon fill="white" stroke="#666666" points="559,-191 424,-191 424,-161 559,-161 559,-191"/>
<text text-anchor="start" x="432" y="-179" font-family="Helvetica,sans-Serif" font-size="10.00">wmtk::simplex::Simplex</text>
<text text-anchor="middle" x="491.5" y="-168" font-family="Helvetica,sans-Serif" font-size="10.00">::tuple</text>
</a>
</g>
</g>
<!-- Node5&#45;&gt;Node28 -->
<g id="edge33_Node000005_Node000028" class="edge">
<title>Node5&#45;&gt;Node28</title>
<g id="a_edge33_Node000005_Node000028"><a xlink:title=" ">
<path fill="none" stroke="#63b8ff" d="M345.14,-144C367.04,-148.82 391.44,-154.19 413.91,-159.14"/>
<polygon fill="#63b8ff" stroke="#63b8ff" points="413.22,-162.57 423.74,-161.3 414.72,-155.73 413.22,-162.57"/>
</a>
</g>
</g>
<!-- Node6&#45;&gt;Node3 -->
<g id="edge9_Node000006_Node000003" class="edge">
<title>Node6&#45;&gt;Node3</title>
<g id="a_edge9_Node000006_Node000003"><a xlink:title=" ">
<path fill="none" stroke="#63b8ff" d="M574.48,-143.19C580.28,-145.69 585.86,-148.61 591,-152 613.26,-166.68 604.67,-185.43 627,-200 631.57,-202.98 636.46,-205.59 641.54,-207.88"/>
<polygon fill="#63b8ff" stroke="#63b8ff" points="640.28,-211.14 650.86,-211.66 642.91,-204.65 640.28,-211.14"/>
</a>
</g>
</g>
<!-- Node7 -->
<g id="Node000007" class="node">
<title>Node7</title>
<g id="a_Node000007"><a xlink:href="classwmtk_1_1_mesh.html#a357182137d99f1e4a7ff536eadfc0e56" target="_top" xlink:title=" ">
<polygon fill="white" stroke="#666666" points="787.5,-143 674.5,-143 674.5,-113 787.5,-113 787.5,-143"/>
<text text-anchor="start" x="682.5" y="-131" font-family="Helvetica,sans-Serif" font-size="10.00">wmtk::Mesh::create</text>
<text text-anchor="middle" x="731" y="-120" font-family="Helvetica,sans-Serif" font-size="10.00">_const_accessor</text>
</a>
</g>
</g>
<!-- Node6&#45;&gt;Node7 -->
<g id="edge8_Node000006_Node000007" class="edge">
<title>Node6&#45;&gt;Node7</title>
<g id="a_edge8_Node000006_Node000007"><a xlink:title=" ">
<path fill="none" stroke="#63b8ff" d="M591.16,-128C615.8,-128 641.64,-128 664.25,-128"/>
<polygon fill="#63b8ff" stroke="#63b8ff" points="664.4,-131.5 674.4,-128 664.4,-124.5 664.4,-131.5"/>
</a>
</g>
</g>
<!-- Node8 -->
<g id="Node000008" class="node">
<title>Node8</title>
<g id="a_Node000008"><a xlink:href="classwmtk_1_1multimesh_1_1_multi_mesh_manager.html#a6f9186ced3e97aef2a0af71a3aa5c6a0" target="_top" xlink:title=" ">
<polygon fill="white" stroke="#666666" points="835,-191 627,-191 627,-161 835,-161 835,-191"/>
<text text-anchor="start" x="635" y="-179" font-family="Helvetica,sans-Serif" font-size="10.00">wmtk::multimesh::MultiMesh</text>
<text text-anchor="middle" x="731" y="-168" font-family="Helvetica,sans-Serif" font-size="10.00">Manager::map_tuple_between_meshes</text>
</a>
</g>
</g>
<!-- Node6&#45;&gt;Node8 -->
<g id="edge10_Node000006_Node000008" class="edge">
<title>Node6&#45;&gt;Node8</title>
<g id="a_edge10_Node000006_Node000008"><a xlink:title=" ">
<path fill="none" stroke="#63b8ff" d="M566.99,-143.06C591.97,-148.1 620,-153.77 645.68,-158.96"/>
<polygon fill="#63b8ff" stroke="#63b8ff" points="645.27,-162.45 655.77,-161 646.66,-155.59 645.27,-162.45"/>
</a>
</g>
</g>
<!-- Node9 -->
<g id="Node000009" class="node">
<title>Node9</title>
<g id="a_Node000009"><a xlink:href="classwmtk_1_1_mesh.html#a8cc8686f0688613806f43720b6db49e7" target="_top" xlink:title="check validity of tuple including its hash">
<polygon fill="white" stroke="#666666" points="1016,-345.5 896,-345.5 896,-326.5 1016,-326.5 1016,-345.5"/>
<text text-anchor="middle" x="956" y="-333.5" font-family="Helvetica,sans-Serif" font-size="10.00">wmtk::Mesh::is_valid</text>
</a>
</g>
</g>
<!-- Node8&#45;&gt;Node9 -->
<g id="edge11_Node000008_Node000009" class="edge">
<title>Node8&#45;&gt;Node9</title>
<g id="a_edge11_Node000008_Node000009"><a xlink:title=" ">
<path fill="none" stroke="#63b8ff" d="M816.63,-191.1C823.04,-193.62 829.25,-196.56 835,-200 885.03,-229.88 925.44,-287.64 943.99,-317.35"/>
<polygon fill="#63b8ff" stroke="#63b8ff" points="941.24,-319.55 949.43,-326.27 947.21,-315.91 941.24,-319.55"/>
</a>
</g>
</g>
<!-- Node12 -->
<g id="Node000012" class="node">
<title>Node12</title>
<g id="a_Node000012"><a xlink:href="namespacewmtk_1_1multimesh_1_1utils.html#a7d748ef4839b09a5460e8af97b9fa678" target="_top" xlink:title=" ">
<polygon fill="white" stroke="#666666" points="1030.5,-215 881.5,-215 881.5,-185 1030.5,-185 1030.5,-215"/>
<text text-anchor="start" x="889.5" y="-203" font-family="Helvetica,sans-Serif" font-size="10.00">wmtk::multimesh::utils</text>
<text text-anchor="middle" x="956" y="-192" font-family="Helvetica,sans-Serif" font-size="10.00">::read_tuple_map_attribute</text>
</a>
</g>
</g>
<!-- Node8&#45;&gt;Node12 -->
<g id="edge15_Node000008_Node000012" class="edge">
<title>Node8&#45;&gt;Node12</title>
<g id="a_edge15_Node000008_Node000012"><a xlink:title=" ">
<path fill="none" stroke="#63b8ff" d="M835.01,-187.09C847.11,-188.39 859.33,-189.7 871.12,-190.97"/>
<polygon fill="#63b8ff" stroke="#63b8ff" points="871.03,-194.48 881.35,-192.07 871.78,-187.52 871.03,-194.48"/>
</a>
</g>
</g>
<!-- Node17 -->
<g id="Node000017" class="node">
<title>Node17</title>
<g id="a_Node000017"><a xlink:href="classwmtk_1_1_mesh.html#a965a8a24158c4aa8580c57ba09f885f7" target="_top" xlink:title="switch the orientation of the Tuple of the given dimension">
<polygon fill="white" stroke="#666666" points="1013,-167 899,-167 899,-137 1013,-137 1013,-167"/>
<text text-anchor="start" x="907" y="-155" font-family="Helvetica,sans-Serif" font-size="10.00">wmtk::Mesh::switch</text>
<text text-anchor="middle" x="956" y="-144" font-family="Helvetica,sans-Serif" font-size="10.00">_tuple</text>
</a>
</g>
</g>
<!-- Node8&#45;&gt;Node17 -->
<g id="edge20_Node000008_Node000017" class="edge">
<title>Node8&#45;&gt;Node17</title>
<g id="a_edge20_Node000008_Node000017"><a xlink:title=" ">
<path fill="none" stroke="#63b8ff" d="M835.01,-164.91C853.25,-162.95 871.8,-160.95 888.68,-159.14"/>
<polygon fill="#63b8ff" stroke="#63b8ff" points="889.39,-162.58 898.96,-158.03 888.64,-155.62 889.39,-162.58"/>
</a>
</g>
</g>
<!-- Node18 -->
<g id="Node000018" class="node">
<title>Node18</title>
<g id="a_Node000018"><a xlink:href="namespacewmtk_1_1simplex.html#a0101f27eb2ad82814390b92ab1a4d1a0" target="_top" xlink:title=" ">
<polygon fill="white" stroke="#666666" points="1031.5,-118 880.5,-118 880.5,-88 1031.5,-88 1031.5,-118"/>
<text text-anchor="start" x="888.5" y="-106" font-family="Helvetica,sans-Serif" font-size="10.00">wmtk::simplex::top</text>
<text text-anchor="middle" x="956" y="-95" font-family="Helvetica,sans-Serif" font-size="10.00">_dimension_cofaces_tuples</text>
</a>
</g>
</g>
<!-- Node8&#45;&gt;Node18 -->
<g id="edge21_Node000008_Node000018" class="edge">
<title>Node8&#45;&gt;Node18</title>
<g id="a_edge21_Node000008_Node000018"><a xlink:title=" ">
<path fill="none" stroke="#63b8ff" d="M810.02,-160.98C818.6,-158.41 827.08,-155.43 835,-152 852.65,-144.36 853.59,-136.17 871,-128 875.99,-125.66 881.26,-123.48 886.61,-121.46"/>
<polygon fill="#63b8ff" stroke="#63b8ff" points="888.07,-124.66 896.32,-118.01 885.73,-118.06 888.07,-124.66"/>
</a>
</g>
</g>
<!-- Node24 -->
<g id="Node000024" class="node">
<title>Node24</title>
<g id="a_Node000024"><a xlink:href="classwmtk_1_1_mesh.html#abaf00438d0700358b160e310d69725c9" target="_top" xlink:title=" ">
<polygon fill="white" stroke="#666666" points="1041,-496.5 871,-496.5 871,-477.5 1041,-477.5 1041,-496.5"/>
<text text-anchor="middle" x="956" y="-484.5" font-family="Helvetica,sans-Serif" font-size="10.00">wmtk::Mesh::top_simplex_type</text>
</a>
</g>
</g>
<!-- Node8&#45;&gt;Node24 -->
<g id="edge27_Node000008_Node000024" class="edge">
<title>Node8&#45;&gt;Node24</title>
<g id="a_edge27_Node000008_Node000024"><a xlink:title=" ">
<path fill="none" stroke="#63b8ff" d="M824.69,-191.07C828.44,-193.65 831.91,-196.61 835,-200 914.46,-287.21 793.72,-373.86 871,-463 874.1,-466.58 877.7,-469.64 881.62,-472.26"/>
<polygon fill="#63b8ff" stroke="#63b8ff" points="880.22,-475.49 890.66,-477.31 883.64,-469.38 880.22,-475.49"/>
</a>
</g>
</g>
<!-- Node26 -->
<g id="Node000026" class="node">
<title>Node26</title>
<g id="a_Node000026"><a xlink:href="namespacewmtk_1_1multimesh_1_1utils.html#aa0392bf28bb6c304127cf0eea634fee8" target="_top" xlink:title=" ">
<polygon fill="white" stroke="#666666" points="1021,-454 891,-454 891,-424 1021,-424 1021,-454"/>
<text text-anchor="start" x="899" y="-442" font-family="Helvetica,sans-Serif" font-size="10.00">wmtk::multimesh::utils</text>
<text text-anchor="middle" x="956" y="-431" font-family="Helvetica,sans-Serif" font-size="10.00">::transport_tuple</text>
</a>
</g>
</g>
<!-- Node8&#45;&gt;Node26 -->
<g id="edge29_Node000008_Node000026" class="edge">
<title>Node8&#45;&gt;Node26</title>
<g id="a_edge29_Node000008_Node000026"><a xlink:title=" ">
<path fill="none" stroke="#63b8ff" d="M823.86,-191.13C827.87,-193.68 831.63,-196.62 835,-200 884.99,-250.03 836.67,-293.17 871,-355 884.63,-379.55 907.52,-401.75 925.97,-417.15"/>
<polygon fill="#63b8ff" stroke="#63b8ff" points="924.11,-420.15 934.08,-423.73 928.52,-414.71 924.11,-420.15"/>
</a>
</g>
</g>
<!-- Node10 -->
<g id="Node000010" class="node">
<title>Node10</title>
<g id="a_Node000010"><a xlink:href="classwmtk_1_1_tuple.html#a0023f575be92cd5ceeeaaaa3762ea06d" target="_top" xlink:title="Checks if a tuple is &quot;null&quot;. This merely implies the global index is &#45;1.">
<polygon fill="white" stroke="#666666" points="1237.5,-400.5 1124.5,-400.5 1124.5,-381.5 1237.5,-381.5 1237.5,-400.5"/>
<text text-anchor="middle" x="1181" y="-388.5" font-family="Helvetica,sans-Serif" font-size="10.00">wmtk::Tuple::is_null</text>
</a>
</g>
</g>
<!-- Node9&#45;&gt;Node10 -->
<g id="edge12_Node000009_Node000010" class="edge">
<title>Node9&#45;&gt;Node10</title>
<g id="a_edge12_Node000009_Node000010"><a xlink:title=" ">
<path fill="none" stroke="#63b8ff" d="M984.37,-345.52C1008.52,-353.66 1044.78,-365.25 1077,-373 1089.05,-375.9 1101.99,-378.53 1114.5,-380.83"/>
<polygon fill="#63b8ff" stroke="#63b8ff" points="1113.95,-384.29 1124.41,-382.61 1115.18,-377.4 1113.95,-384.29"/>
</a>
</g>
</g>
<!-- Node11 -->
<g id="Node000011" class="node">
<title>Node11</title>
<g id="a_Node000011"><a xlink:href="classwmtk_1_1_mesh.html#ade176d345902d97af8c5da04aa3a095b" target="_top" xlink:title=" ">
<polygon fill="white" stroke="#666666" points="1251,-345.5 1111,-345.5 1111,-326.5 1251,-326.5 1251,-345.5"/>
<text text-anchor="middle" x="1181" y="-333.5" font-family="Helvetica,sans-Serif" font-size="10.00">wmtk::Mesh::is_removed</text>
</a>
</g>
</g>
<!-- Node9&#45;&gt;Node11 -->
<g id="edge13_Node000009_Node000011" class="edge">
<title>Node9&#45;&gt;Node11</title>
<g id="a_edge13_Node000009_Node000011"><a xlink:title=" ">
<path fill="none" stroke="#63b8ff" d="M1016.17,-336C1042.03,-336 1072.74,-336 1100.55,-336"/>
<polygon fill="#63b8ff" stroke="#63b8ff" points="1100.65,-339.5 1110.65,-336 1100.65,-332.5 1100.65,-339.5"/>
</a>
</g>
</g>
<!-- Node11&#45;&gt;Node11 -->
<g id="edge14_Node000011_Node000011" class="edge">
<title>Node11&#45;&gt;Node11</title>
<g id="a_edge14_Node000011_Node000011"><a xlink:title=" ">
<path fill="none" stroke="#63b8ff" d="M1153.26,-345.58C1139.76,-354.23 1149.01,-363.5 1181,-363.5 1202.49,-363.5 1213.72,-359.32 1214.68,-353.95"/>
<polygon fill="#63b8ff" stroke="#63b8ff" points="1217.39,-351.71 1208.74,-345.58 1211.68,-355.76 1217.39,-351.71"/>
</a>
</g>
</g>
<!-- Node13 -->
<g id="Node000013" class="node">
<title>Node13</title>
<g id="a_Node000013"><a xlink:href="classwmtk_1_1attribute_1_1_accessor.html#a4b89ff4381fe73d4827b663203a964fc" target="_top" xlink:title=" ">
<polygon fill="white" stroke="#666666" points="1252,-308 1110,-308 1110,-278 1252,-278 1252,-308"/>
<text text-anchor="start" x="1118" y="-296" font-family="Helvetica,sans-Serif" font-size="10.00">wmtk::attribute::Accessor</text>
<text text-anchor="middle" x="1181" y="-285" font-family="Helvetica,sans-Serif" font-size="10.00">::const_vector_attribute</text>
</a>
</g>
</g>
<!-- Node12&#45;&gt;Node13 -->
<g id="edge16_Node000012_Node000013" class="edge">
<title>Node12&#45;&gt;Node13</title>
<g id="a_edge16_Node000012_Node000013"><a xlink:title=" ">
<path fill="none" stroke="#63b8ff" d="M978.57,-215.02C1001.87,-230.59 1040.56,-254.64 1077,-269 1084.41,-271.92 1092.26,-274.54 1100.2,-276.87"/>
<polygon fill="#63b8ff" stroke="#63b8ff" points="1099.32,-280.26 1109.9,-279.59 1101.21,-273.52 1099.32,-280.26"/>
</a>
</g>
</g>
<!-- Node14 -->
<g id="Node000014" class="node">
<title>Node14</title>
<g id="a_Node000014"><a xlink:href="classwmtk_1_1attribute_1_1_tuple_accessor.html#adf0b07ce3ed74d51723e2beed2d3f25e" target="_top" xlink:title=" ">
<polygon fill="white" stroke="#666666" points="1264.5,-260 1097.5,-260 1097.5,-230 1264.5,-230 1264.5,-260"/>
<text text-anchor="start" x="1105.5" y="-248" font-family="Helvetica,sans-Serif" font-size="10.00">wmtk::attribute::TupleAccessor</text>
<text text-anchor="middle" x="1181" y="-237" font-family="Helvetica,sans-Serif" font-size="10.00">::const_vector_attribute</text>
</a>
</g>
</g>
<!-- Node12&#45;&gt;Node14 -->
<g id="edge17_Node000012_Node000014" class="edge">
<title>Node12&#45;&gt;Node14</title>
<g id="a_edge17_Node000012_Node000014"><a xlink:title=" ">
<path fill="none" stroke="#63b8ff" d="M1030.64,-214.86C1051.34,-219.04 1074.01,-223.61 1095.3,-227.91"/>
<polygon fill="#63b8ff" stroke="#63b8ff" points="1094.8,-231.38 1105.3,-229.93 1096.19,-224.52 1094.8,-231.38"/>
</a>
</g>
</g>
<!-- Node15 -->
<g id="Node000015" class="node">
<title>Node15</title>
<g id="a_Node000015"><a xlink:href="classwmtk_1_1attribute_1_1_accessor_base.html#abd60539d5779de287d2a0ec31b16c77a" target="_top" xlink:title=" ">
<polygon fill="white" stroke="#666666" points="1252,-212 1110,-212 1110,-182 1252,-182 1252,-212"/>
<text text-anchor="start" x="1118" y="-200" font-family="Helvetica,sans-Serif" font-size="10.00">wmtk::attribute::Accessor</text>
<text text-anchor="middle" x="1181" y="-189" font-family="Helvetica,sans-Serif" font-size="10.00">Base::dimension</text>
</a>
</g>
</g>
<!-- Node12&#45;&gt;Node15 -->
<g id="edge18_Node000012_Node000015" class="edge">
<title>Node12&#45;&gt;Node15</title>
<g id="a_edge18_Node000012_Node000015"><a xlink:title=" ">
<path fill="none" stroke="#63b8ff" d="M1030.64,-199.01C1052.75,-198.71 1077.12,-198.38 1099.64,-198.08"/>
<polygon fill="#63b8ff" stroke="#63b8ff" points="1099.89,-201.58 1109.85,-197.94 1099.8,-194.58 1099.89,-201.58"/>
</a>
</g>
</g>
<!-- Node16 -->
<g id="Node000016" class="node">
<title>Node16</title>
<g id="a_Node000016"><a xlink:href="classwmtk_1_1attribute_1_1_tuple_accessor.html#a8d04c3529eb7adeead49e8faa7a119db" target="_top" xlink:title=" ">
<polygon fill="white" stroke="#666666" points="1264.5,-164 1097.5,-164 1097.5,-134 1264.5,-134 1264.5,-164"/>
<text text-anchor="start" x="1105.5" y="-152" font-family="Helvetica,sans-Serif" font-size="10.00">wmtk::attribute::TupleAccessor</text>
<text text-anchor="middle" x="1181" y="-141" font-family="Helvetica,sans-Serif" font-size="10.00">::dimension</text>
</a>
</g>
</g>
<!-- Node12&#45;&gt;Node16 -->
<g id="edge19_Node000012_Node000016" class="edge">
<title>Node12&#45;&gt;Node16</title>
<g id="a_edge19_Node000012_Node000016"><a xlink:title=" ">
<path fill="none" stroke="#63b8ff" d="M1022.7,-184.97C1048.33,-179.11 1077.87,-172.36 1104.39,-166.29"/>
<polygon fill="#63b8ff" stroke="#63b8ff" points="1105.42,-169.65 1114.38,-164.01 1103.85,-162.82 1105.42,-169.65"/>
</a>
</g>
</g>
<!-- Node19 -->
<g id="Node000019" class="node">
<title>Node19</title>
<g id="a_Node000019"><a xlink:href="classwmtk_1_1simplex_1_1_simplex_collection.html#a1e7079b3b75f70dd28c524556cab76cf" target="_top" xlink:title="Add simplex to the collection.">
<polygon fill="white" stroke="#666666" points="1285,-115.5 1077,-115.5 1077,-96.5 1285,-96.5 1285,-115.5"/>
<text text-anchor="middle" x="1181" y="-103.5" font-family="Helvetica,sans-Serif" font-size="10.00">wmtk::simplex::SimplexCollection::add</text>
</a>
</g>
</g>
<!-- Node18&#45;&gt;Node19 -->
<g id="edge22_Node000018_Node000019" class="edge">
<title>Node18&#45;&gt;Node19</title>
<g id="a_edge22_Node000018_Node000019"><a xlink:title=" ">
<path fill="none" stroke="#63b8ff" d="M1031.57,-104C1042.94,-104.16 1054.9,-104.32 1066.87,-104.48"/>
<polygon fill="#63b8ff" stroke="#63b8ff" points="1066.88,-107.98 1076.93,-104.61 1066.98,-100.98 1066.88,-107.98"/>
</a>
</g>
</g>
<!-- Node20 -->
<g id="Node000020" class="node">
<title>Node20</title>
<g id="a_Node000020"><a xlink:href="namespacewmtk.html#a441d6ad4f19569c7d4946e743da1a925" target="_top" xlink:title=" ">
<polygon fill="white" stroke="#666666" points="1242,-78 1120,-78 1120,-48 1242,-48 1242,-78"/>
<text text-anchor="start" x="1128" y="-66" font-family="Helvetica,sans-Serif" font-size="10.00">wmtk::log_and_throw</text>
<text text-anchor="middle" x="1181" y="-55" font-family="Helvetica,sans-Serif" font-size="10.00">_error</text>
</a>
</g>
</g>
<!-- Node18&#45;&gt;Node20 -->
<g id="edge23_Node000018_Node000020" class="edge">
<title>Node18&#45;&gt;Node20</title>
<g id="a_edge23_Node000018_Node000020"><a xlink:title=" ">
<path fill="none" stroke="#63b8ff" d="M1031.57,-89.62C1056.83,-85.09 1084.94,-80.05 1109.85,-75.58"/>
<polygon fill="#63b8ff" stroke="#63b8ff" points="1110.72,-78.98 1119.94,-73.77 1109.48,-72.09 1110.72,-78.98"/>
</a>
</g>
</g>
<!-- Node18&#45;&gt;Node23 -->
<g id="edge26_Node000018_Node000023" class="edge">
<title>Node18&#45;&gt;Node23</title>
<g id="a_edge26_Node000018_Node000023"><a xlink:title=" ">
<path fill="none" stroke="#63b8ff" d="M1009.63,-87.98C1020.39,-83.89 1031.36,-78.91 1041,-73 1059.76,-61.5 1057.61,-49.41 1077,-39 1085.28,-34.55 1094.37,-30.92 1103.62,-27.96"/>
<polygon fill="#63b8ff" stroke="#63b8ff" points="1104.68,-31.3 1113.28,-25.11 1102.7,-24.58 1104.68,-31.3"/>
</a>
</g>
</g>
<!-- Node21 -->
<g id="Node000021" class="node">
<title>Node21</title>
<g id="a_Node000021"><a xlink:href="namespacewmtk.html#a6a35f11c12436093d26fdd8be6fecc06" target="_top" xlink:title="Retrieves the current logger.">
<polygon fill="white" stroke="#666666" points="1402,-72.5 1321,-72.5 1321,-53.5 1402,-53.5 1402,-72.5"/>
<text text-anchor="middle" x="1361.5" y="-60.5" font-family="Helvetica,sans-Serif" font-size="10.00">wmtk::logger</text>
</a>
</g>
</g>
<!-- Node20&#45;&gt;Node21 -->
<g id="edge24_Node000020_Node000021" class="edge">
<title>Node20&#45;&gt;Node21</title>
<g id="a_edge24_Node000020_Node000021"><a xlink:title=" ">
<path fill="none" stroke="#63b8ff" d="M1242.43,-63C1264.68,-63 1289.61,-63 1310.81,-63"/>
<polygon fill="#63b8ff" stroke="#63b8ff" points="1310.89,-66.5 1320.89,-63 1310.89,-59.5 1310.89,-66.5"/>
</a>
</g>
</g>
<!-- Node22 -->
<g id="Node000022" class="node">
<title>Node22</title>
<g id="a_Node000022"><a xlink:href="namespacewmtk.html#a3daa7951a5f8b78cf4600dc047fcc180" target="_top" xlink:title="Setup a logger object to be used by WildmeshToolkit.">
<polygon fill="white" stroke="#666666" points="1539,-72.5 1438,-72.5 1438,-53.5 1539,-53.5 1539,-72.5"/>
<text text-anchor="middle" x="1488.5" y="-60.5" font-family="Helvetica,sans-Serif" font-size="10.00">wmtk::set_logger</text>
</a>
</g>
</g>
<!-- Node21&#45;&gt;Node22 -->
<g id="edge25_Node000021_Node000022" class="edge">
<title>Node21&#45;&gt;Node22</title>
<g id="a_edge25_Node000021_Node000022"><a xlink:title=" ">
<path fill="none" stroke="#63b8ff" d="M1402.05,-63C1410.17,-63 1418.9,-63 1427.55,-63"/>
<polygon fill="#63b8ff" stroke="#63b8ff" points="1427.65,-66.5 1437.65,-63 1427.65,-59.5 1427.65,-66.5"/>
</a>
</g>
</g>
<!-- Node25 -->
<g id="Node000025" class="node">
<title>Node25</title>
<g id="a_Node000025"><a xlink:href="classwmtk_1_1_mesh.html#a933f681cf24a63b155c9462280385200" target="_top" xlink:title=" ">
<polygon fill="white" stroke="#666666" points="1241.5,-508 1120.5,-508 1120.5,-478 1241.5,-478 1241.5,-508"/>
<text text-anchor="start" x="1128.5" y="-496" font-family="Helvetica,sans-Serif" font-size="10.00">wmtk::Mesh::top_cell</text>
<text text-anchor="middle" x="1181" y="-485" font-family="Helvetica,sans-Serif" font-size="10.00">_dimension</text>
</a>
</g>
</g>
<!-- Node24&#45;&gt;Node25 -->
<g id="edge28_Node000024_Node000025" class="edge">
<title>Node24&#45;&gt;Node25</title>
<g id="a_edge28_Node000024_Node000025"><a xlink:title=" ">
<path fill="none" stroke="#63b8ff" d="M1041.31,-489.27C1063.99,-489.88 1088.26,-490.53 1110.07,-491.12"/>
<polygon fill="#63b8ff" stroke="#63b8ff" points="1110.13,-494.62 1120.22,-491.39 1110.32,-487.62 1110.13,-494.62"/>
</a>
</g>
</g>
<!-- Node27 -->
<g id="Node000027" class="node">
<title>Node27</title>
<g id="a_Node000027"><a xlink:href="namespacewmtk_1_1multimesh_1_1utils_1_1internal.html#a11885fe5aebd05551827804b0142945d" target="_top" xlink:title=" ">
<polygon fill="white" stroke="#666666" points="1246,-459.5 1116,-459.5 1116,-418.5 1246,-418.5 1246,-459.5"/>
<text text-anchor="start" x="1124" y="-447.5" font-family="Helvetica,sans-Serif" font-size="10.00">wmtk::multimesh::utils</text>
<text text-anchor="start" x="1124" y="-436.5" font-family="Helvetica,sans-Serif" font-size="10.00">::internal::transport</text>
<text text-anchor="middle" x="1181" y="-425.5" font-family="Helvetica,sans-Serif" font-size="10.00">_tuple_dart</text>
</a>
</g>
</g>
<!-- Node26&#45;&gt;Node27 -->
<g id="edge30_Node000026_Node000027" class="edge">
<title>Node26&#45;&gt;Node27</title>
<g id="a_edge30_Node000026_Node000027"><a xlink:title=" ">
<path fill="none" stroke="#63b8ff" d="M1021.2,-432.82C1047.56,-432.15 1078.24,-432.07 1105.57,-432.59"/>
<polygon fill="#63b8ff" stroke="#63b8ff" points="1105.79,-436.1 1115.87,-432.82 1105.95,-429.1 1105.79,-436.1"/>
</a>
</g>
</g>
<!-- Node27&#45;&gt;Node26 -->
<g id="edge31_Node000027_Node000026" class="edge">
<title>Node27&#45;&gt;Node26</title>
<g id="a_edge31_Node000027_Node000026"><a xlink:title=" ">
<path fill="none" stroke="#63b8ff" d="M1115.87,-445.18C1089.52,-445.85 1058.83,-445.93 1031.5,-445.41"/>
<polygon fill="#63b8ff" stroke="#63b8ff" points="1031.28,-441.9 1021.2,-445.18 1031.12,-448.9 1031.28,-441.9"/>
</a>
</g>
</g>
</g>
</svg>

<g id="navigator" transform="translate(0 0)" fill="#404254">
  <rect fill="#f2f5e9" fill-opacity="0.5" stroke="#606060" stroke-width=".5" x="0" y="0" width="60" height="60"/>
  <use id="zoomplus" xlink:href="#zoomPlus" x="17" y="9" onmousedown="handleZoom(evt,'in')"/>
  <use id="zoomminus" xlink:href="#zoomMin" x="42" y="9" onmousedown="handleZoom(evt,'out')"/>
  <use id="reset" xlink:href="#resetDef" x="30" y="36" onmousedown="handleReset()"/>
   <use id="arrowup" xlink:href="#arrowUp" x="0" y="0" onmousedown="handlePan(0,-1)"/>
  <use id="arrowright" xlink:href="#arrowRight" x="0" y="0" onmousedown="handlePan(1,0)"/>
  <use id="arrowdown" xlink:href="#arrowDown" x="0" y="0" onmousedown="handlePan(0,1)"/>
  <use id="arrowleft" xlink:href="#arrowLeft" x="0" y="0" onmousedown="handlePan(-1,0)"/>
</g>
<svg viewBox="0 0 15 15" width="100%" height="30px" preserveAspectRatio="xMaxYMin meet">
 <g id="arrow_out" transform="scale(0.3 0.3)">
  <a xlink:href="classwmtk_1_1multimesh_1_1_multi_mesh_manager_acaaab688faff0e1b2d9142d6cc128e46_cgraph_org.svg" target="_base">
   <rect id="button" ry="5" rx="5" y="6" x="6" height="38" width="38"
        fill="#f2f5e9" fill-opacity="0.5" stroke="#606060" stroke-width="1.0"/>
   <path id="arrow"
     d="M 11.500037,31.436501 C 11.940474,20.09759 22.043105,11.32322 32.158766,21.979434 L 37.068811,17.246167 C 37.068811,17.246167 37.088388,32 37.088388,32 L 22.160133,31.978069 C 22.160133,31.978069 26.997745,27.140456 26.997745,27.140456 C 18.528582,18.264221 13.291696,25.230495 11.500037,31.436501 z"
     style="fill:#404040;"/>
  </a>
 </g>
</svg>

<style type='text/css'>
<![CDATA[
[data-mouse-over-selected='false'] { opacity: 0.7; }
[data-mouse-over-selected='true']  { opacity: 1.0; }
]]>
</style>
<script type="application/ecmascript"><![CDATA[
document.addEventListener('DOMContentLoaded', (event) => {
  highlightEdges();
  highlightAdjacentNodes();
});
]]></script>
</svg>
