<?xml version="1.0" encoding="UTF-8" standalone="no"?>
<!DOCTYPE svg PUBLIC "-//W3C//DTD SVG 1.1//EN"
 "http://www.w3.org/Graphics/SVG/1.1/DTD/svg11.dtd">
<!-- Generated by graphviz version 2.43.0 (0)
 -->
<!-- Title: src/wmtk/simplex/cofaces_single_dimension.hpp Pages: 1 -->
<!--zoomable 115 -->

<svg id="main" version="1.1" xmlns="http://www.w3.org/2000/svg" xmlns:xlink="http://www.w3.org/1999/xlink" xml:space="preserve" onload="init(evt)">
<style type="text/css"><![CDATA[
.node, .edge {opacity: 0.7;}
.node.selected, .edge.selected {opacity: 1;}
.edge:hover path { stroke: red; }
.edge:hover polygon { stroke: red; fill: red; }
]]></style>

<defs>
  <circle id="rim" cx="0" cy="0" r="7"/>
  <circle id="rim2" cx="0" cy="0" r="3.5"/>
  <g id="zoomPlus">
    <use xlink:href="#rim" fill="#404040"><set attributeName="fill" to="#808080" begin="zoomplus.mouseover" end="zoomplus.mouseout"/></use>
    <path d="M-4,0h8M0,-4v8" fill="none" stroke="white" stroke-width="1.5" pointer-events="none"/>
  </g>
  <g id="zoomMin">
    <use xlink:href="#rim" fill="#404040"><set attributeName="fill" to="#808080" begin="zoomminus.mouseover" end="zoomminus.mouseout"/></use>
    <path d="M-4,0h8" fill="none" stroke="white" stroke-width="1.5" pointer-events="none"/>
  </g>
  <g id="arrowUp" transform="translate(30 24)">
    <use xlink:href="#rim"/>
    <path pointer-events="none" fill="none" stroke="white" stroke-width="1.5" d="M0,-3.0v7 M-2.5,-0.5L0,-3.0L2.5,-0.5"/>
  </g>
  <g id="arrowRight" transform="rotate(90) translate(36 -43)">
    <use xlink:href="#rim"/>
    <path pointer-events="none" fill="none" stroke="white" stroke-width="1.5" d="M0,-3.0v7 M-2.5,-0.5L0,-3.0L2.5,-0.5"/>
  </g>
  <g id="arrowDown" transform="rotate(180) translate(-30 -48)">
    <use xlink:href="#rim"/>
    <path pointer-events="none" fill="none" stroke="white" stroke-width="1.5" d="M0,-3.0v7 M-2.5,-0.5L0,-3.0L2.5,-0.5"/>
  </g>
  <g id="arrowLeft" transform="rotate(270) translate(-36 17)">
    <use xlink:href="#rim"/>
    <path pointer-events="none" fill="none" stroke="white" stroke-width="1.5" d="M0,-3.0v7 M-2.5,-0.5L0,-3.0L2.5,-0.5"/>
  </g>
  <g id="resetDef">
    <use xlink:href="#rim2" fill="#404040"><set attributeName="fill" to="#808080" begin="reset.mouseover" end="reset.mouseout"/></use>
  </g>
</defs>
<script type="application/ecmascript">
var viewWidth = 2192;
var viewHeight = 115;
var sectionId = 'dynsection-1';
</script>
<script type="application/ecmascript" xlink:href="svg.min.js"/>
<svg id="graph" class="graph">
<g id="viewport">
<title>src/wmtk/simplex/cofaces_single_dimension.hpp</title>
<!-- Node1 -->
<g id="Node000001" class="node">
<title>Node1</title>
<g id="a_Node000001"><a xlink:title=" ">
<polygon fill="#999999" stroke="#666666" points="1201.5,-107 1057.5,-107 1057.5,-77 1201.5,-77 1201.5,-107"/>
<text text-anchor="start" x="1065.5" y="-95" font-family="Helvetica,sans-Serif" font-size="10.00">src/wmtk/simplex/cofaces</text>
<text text-anchor="middle" x="1129.5" y="-84" font-family="Helvetica,sans-Serif" font-size="10.00">_single_dimension.hpp</text>
</a>
</g>
</g>
<!-- Node2 -->
<g id="Node000002" class="node">
<title>Node2</title>
<g id="a_Node000002"><a xlink:href="internal_2marching_8cpp.html" target="_top" xlink:title=" ">
<polygon fill="white" stroke="#666666" points="159,-41 0,-41 0,0 159,0 159,-41"/>
<text text-anchor="start" x="8" y="-29" font-family="Helvetica,sans-Serif" font-size="10.00">components/marching</text>
<text text-anchor="start" x="8" y="-18" font-family="Helvetica,sans-Serif" font-size="10.00">/wmtk/components/marching</text>
<text text-anchor="middle" x="79.5" y="-7" font-family="Helvetica,sans-Serif" font-size="10.00">/internal/Marching.cpp</text>
</a>
</g>
</g>
<!-- Node1&#45;&gt;Node2 -->
<g id="edge1_Node000001_Node000002" class="edge">
<title>Node1&#45;&gt;Node2</title>
<g id="a_edge1_Node000001_Node000002"><a xlink:title=" ">
<path fill="none" stroke="#63b8ff" d="M1047.13,-91.31C880.32,-90.94 490.92,-84.93 167.5,-41 164.71,-40.62 161.88,-40.2 159.02,-39.74"/>
<polygon fill="#63b8ff" stroke="#63b8ff" points="1047.31,-94.81 1057.31,-91.33 1047.32,-87.81 1047.31,-94.81"/>
</a>
</g>
</g>
<!-- Node3 -->
<g id="Node000003" class="node">
<title>Node3</title>
<g id="a_Node000003"><a xlink:href="_tet_mesh_8cpp.html" target="_top" xlink:title=" ">
<polygon fill="white" stroke="#666666" points="302,-30 177,-30 177,-11 302,-11 302,-30"/>
<text text-anchor="middle" x="239.5" y="-18" font-family="Helvetica,sans-Serif" font-size="10.00">src/wmtk/TetMesh.cpp</text>
</a>
</g>
</g>
<!-- Node1&#45;&gt;Node3 -->
<g id="edge2_Node000001_Node000003" class="edge">
<title>Node1&#45;&gt;Node3</title>
<g id="a_edge2_Node000001_Node000003"><a xlink:title=" ">
<path fill="none" stroke="#63b8ff" d="M1046.91,-91.48C898.61,-91.11 577.83,-84.74 311.5,-41 296.17,-38.48 279.39,-34.04 265.89,-30.03"/>
<polygon fill="#63b8ff" stroke="#63b8ff" points="1047.28,-94.98 1057.28,-91.49 1047.29,-87.98 1047.28,-94.98"/>
</a>
</g>
</g>
<!-- Node4 -->
<g id="Node000004" class="node">
<title>Node4</title>
<g id="a_Node000004"><a xlink:href="_local_neighbors_sum_function_8cpp.html" target="_top" xlink:title=" ">
<polygon fill="white" stroke="#666666" points="502.5,-35.5 320.5,-35.5 320.5,-5.5 502.5,-5.5 502.5,-35.5"/>
<text text-anchor="start" x="328.5" y="-23.5" font-family="Helvetica,sans-Serif" font-size="10.00">src/wmtk/function/LocalNeighbors</text>
<text text-anchor="middle" x="411.5" y="-12.5" font-family="Helvetica,sans-Serif" font-size="10.00">SumFunction.cpp</text>
</a>
</g>
</g>
<!-- Node1&#45;&gt;Node4 -->
<g id="edge3_Node000001_Node000004" class="edge">
<title>Node1&#45;&gt;Node4</title>
<g id="a_edge3_Node000001_Node000004"><a xlink:title=" ">
<path fill="none" stroke="#63b8ff" d="M1047.27,-87.28C928.55,-81.24 702.42,-67.25 511.5,-41 500.64,-39.51 489.17,-37.59 478.03,-35.55"/>
<polygon fill="#63b8ff" stroke="#63b8ff" points="1047.21,-90.78 1057.38,-87.79 1047.57,-83.79 1047.21,-90.78"/>
</a>
</g>
</g>
<!-- Node5 -->
<g id="Node000005" class="node">
<title>Node5</title>
<g id="a_Node000005"><a xlink:href="_tet_mesh_substructure_topology_preserving_invariant_8cpp.html" target="_top" xlink:title=" ">
<polygon fill="white" stroke="#666666" points="686,-41 521,-41 521,0 686,0 686,-41"/>
<text text-anchor="start" x="529" y="-29" font-family="Helvetica,sans-Serif" font-size="10.00">src/wmtk/invariants</text>
<text text-anchor="start" x="529" y="-18" font-family="Helvetica,sans-Serif" font-size="10.00">/TetMeshSubstructureTopology</text>
<text text-anchor="middle" x="603.5" y="-7" font-family="Helvetica,sans-Serif" font-size="10.00">PreservingInvariant.cpp</text>
</a>
</g>
</g>
<!-- Node1&#45;&gt;Node5 -->
<g id="edge4_Node000001_Node000005" class="edge">
<title>Node1&#45;&gt;Node5</title>
<g id="a_edge4_Node000001_Node000005"><a xlink:title=" ">
<path fill="none" stroke="#63b8ff" d="M1047.28,-83.85C959.76,-75.7 817.37,-60.89 695.5,-41 692.44,-40.5 689.32,-39.97 686.18,-39.41"/>
<polygon fill="#63b8ff" stroke="#63b8ff" points="1047.13,-87.35 1057.41,-84.79 1047.78,-80.38 1047.13,-87.35"/>
</a>
</g>
</g>
<!-- Node6 -->
<g id="Node000006" class="node">
<title>Node6</title>
<g id="a_Node000006"><a xlink:href="_tri_mesh_substructure_topology_preserving_invariant_8cpp.html" target="_top" xlink:title=" ">
<polygon fill="white" stroke="#666666" points="866.5,-41 704.5,-41 704.5,0 866.5,0 866.5,-41"/>
<text text-anchor="start" x="712.5" y="-29" font-family="Helvetica,sans-Serif" font-size="10.00">src/wmtk/invariants</text>
<text text-anchor="start" x="712.5" y="-18" font-family="Helvetica,sans-Serif" font-size="10.00">/TriMeshSubstructureTopology</text>
<text text-anchor="middle" x="785.5" y="-7" font-family="Helvetica,sans-Serif" font-size="10.00">PreservingInvariant.cpp</text>
</a>
</g>
</g>
<!-- Node1&#45;&gt;Node6 -->
<g id="edge5_Node000001_Node000006" class="edge">
<title>Node1&#45;&gt;Node6</title>
<g id="a_edge5_Node000001_Node000006"><a xlink:title=" ">
<path fill="none" stroke="#63b8ff" d="M1047.37,-75.24C997.6,-65.59 932.84,-52.85 875.5,-41 872.68,-40.42 869.82,-39.82 866.92,-39.21"/>
<polygon fill="#63b8ff" stroke="#63b8ff" points="1046.96,-78.73 1057.44,-77.19 1048.29,-71.86 1046.96,-78.73"/>
</a>
</g>
</g>
<!-- Node7 -->
<g id="Node000007" class="node">
<title>Node7</title>
<g id="a_Node000007"><a xlink:href="_multi_mesh_manager_8cpp.html" target="_top" xlink:title=" ">
<polygon fill="white" stroke="#666666" points="1018,-35.5 885,-35.5 885,-5.5 1018,-5.5 1018,-35.5"/>
<text text-anchor="start" x="893" y="-23.5" font-family="Helvetica,sans-Serif" font-size="10.00">src/wmtk/multimesh</text>
<text text-anchor="middle" x="951.5" y="-12.5" font-family="Helvetica,sans-Serif" font-size="10.00">/MultiMeshManager.cpp</text>
</a>
</g>
</g>
<!-- Node1&#45;&gt;Node7 -->
<g id="edge6_Node000001_Node000007" class="edge">
<title>Node1&#45;&gt;Node7</title>
<g id="a_edge6_Node000001_Node000007"><a xlink:title=" ">
<path fill="none" stroke="#63b8ff" d="M1084.07,-73.26C1054.08,-61.55 1015.32,-46.42 987.47,-35.54"/>
<polygon fill="#63b8ff" stroke="#63b8ff" points="1082.89,-76.56 1093.48,-76.94 1085.44,-70.04 1082.89,-76.56"/>
</a>
</g>
</g>
<!-- Node8 -->
<g id="Node000008" class="node">
<title>Node8</title>
<g id="a_Node000008"><a xlink:href="_a_m_i_p_s_optimization_smoothing_8cpp.html" target="_top" xlink:title=" ">
<polygon fill="white" stroke="#666666" points="1222.5,-35.5 1036.5,-35.5 1036.5,-5.5 1222.5,-5.5 1222.5,-35.5"/>
<text text-anchor="start" x="1044.5" y="-23.5" font-family="Helvetica,sans-Serif" font-size="10.00">src/wmtk/operations</text>
<text text-anchor="middle" x="1129.5" y="-12.5" font-family="Helvetica,sans-Serif" font-size="10.00">/AMIPSOptimizationSmoothing.cpp</text>
</a>
</g>
</g>
<!-- Node1&#45;&gt;Node8 -->
<g id="edge7_Node000001_Node000008" class="edge">
<title>Node1&#45;&gt;Node8</title>
<g id="a_edge7_Node000001_Node000008"><a xlink:title=" ">
<path fill="none" stroke="#63b8ff" d="M1129.5,-66.75C1129.5,-56.31 1129.5,-44.49 1129.5,-35.54"/>
<polygon fill="#63b8ff" stroke="#63b8ff" points="1126,-66.94 1129.5,-76.94 1133,-66.94 1126,-66.94"/>
</a>
</g>
</g>
<!-- Node9 -->
<g id="Node000009" class="node">
<title>Node9</title>
<g id="a_Node000009"><a xlink:href="_a_m_i_p_s_optimization_smoothing_periodic_8cpp.html" target="_top" xlink:title=" ">
<polygon fill="white" stroke="#666666" points="1406.5,-41 1240.5,-41 1240.5,0 1406.5,0 1406.5,-41"/>
<text text-anchor="start" x="1248.5" y="-29" font-family="Helvetica,sans-Serif" font-size="10.00">src/wmtk/operations</text>
<text text-anchor="start" x="1248.5" y="-18" font-family="Helvetica,sans-Serif" font-size="10.00">/AMIPSOptimizationSmoothing</text>
<text text-anchor="middle" x="1323.5" y="-7" font-family="Helvetica,sans-Serif" font-size="10.00">Periodic.cpp</text>
</a>
</g>
</g>
<!-- Node1&#45;&gt;Node9 -->
<g id="edge8_Node000001_Node000009" class="edge">
<title>Node1&#45;&gt;Node9</title>
<g id="a_edge8_Node000001_Node000009"><a xlink:title=" ">
<path fill="none" stroke="#63b8ff" d="M1178.2,-73.55C1205.78,-63.67 1240.36,-51.28 1268.86,-41.07"/>
<polygon fill="#63b8ff" stroke="#63b8ff" points="1176.99,-70.27 1168.76,-76.94 1179.35,-76.86 1176.99,-70.27"/>
</a>
</g>
</g>
<!-- Node10 -->
<g id="Node000010" class="node">
<title>Node10</title>
<g id="a_Node000010"><a xlink:href="multi__mesh__edge__collapse_8cpp.html" target="_top" xlink:title=" ">
<polygon fill="white" stroke="#666666" points="1556,-41 1425,-41 1425,0 1556,0 1556,-41"/>
<text text-anchor="start" x="1433" y="-29" font-family="Helvetica,sans-Serif" font-size="10.00">src/wmtk/operations</text>
<text text-anchor="start" x="1433" y="-18" font-family="Helvetica,sans-Serif" font-size="10.00">/utils/multi_mesh_edge</text>
<text text-anchor="middle" x="1490.5" y="-7" font-family="Helvetica,sans-Serif" font-size="10.00">_collapse.cpp</text>
</a>
</g>
</g>
<!-- Node1&#45;&gt;Node10 -->
<g id="edge9_Node000001_Node000010" class="edge">
<title>Node1&#45;&gt;Node10</title>
<g id="a_edge9_Node000001_Node000010"><a xlink:title=" ">
<path fill="none" stroke="#63b8ff" d="M1211.61,-78.46C1268.97,-69.26 1347.19,-55.83 1415.5,-41 1418.52,-40.34 1421.61,-39.65 1424.72,-38.93"/>
<polygon fill="#63b8ff" stroke="#63b8ff" points="1210.84,-75.04 1201.51,-80.07 1211.94,-81.95 1210.84,-75.04"/>
</a>
</g>
</g>
<!-- Node11 -->
<g id="Node000011" class="node">
<title>Node11</title>
<g id="a_Node000011"><a xlink:href="multi__mesh__edge__split_8cpp.html" target="_top" xlink:title=" ">
<polygon fill="white" stroke="#666666" points="1705,-41 1574,-41 1574,0 1705,0 1705,-41"/>
<text text-anchor="start" x="1582" y="-29" font-family="Helvetica,sans-Serif" font-size="10.00">src/wmtk/operations</text>
<text text-anchor="start" x="1582" y="-18" font-family="Helvetica,sans-Serif" font-size="10.00">/utils/multi_mesh_edge</text>
<text text-anchor="middle" x="1639.5" y="-7" font-family="Helvetica,sans-Serif" font-size="10.00">_split.cpp</text>
</a>
</g>
</g>
<!-- Node1&#45;&gt;Node11 -->
<g id="edge10_Node000001_Node000011" class="edge">
<title>Node1&#45;&gt;Node11</title>
<g id="a_edge10_Node000001_Node000011"><a xlink:title=" ">
<path fill="none" stroke="#63b8ff" d="M1211.92,-85.09C1299.99,-77.96 1443.42,-63.96 1565.5,-41 1568.24,-40.48 1571.03,-39.92 1573.84,-39.32"/>
<polygon fill="#63b8ff" stroke="#63b8ff" points="1211.41,-81.62 1201.72,-85.91 1211.97,-88.6 1211.41,-81.62"/>
</a>
</g>
</g>
<!-- Node12 -->
<g id="Node000012" class="node">
<title>Node12</title>
<g id="a_Node000012"><a xlink:href="cofaces__single__dimension_8cpp.html" target="_top" xlink:title=" ">
<polygon fill="white" stroke="#666666" points="1867.5,-35.5 1723.5,-35.5 1723.5,-5.5 1867.5,-5.5 1867.5,-35.5"/>
<text text-anchor="start" x="1731.5" y="-23.5" font-family="Helvetica,sans-Serif" font-size="10.00">src/wmtk/simplex/cofaces</text>
<text text-anchor="middle" x="1795.5" y="-12.5" font-family="Helvetica,sans-Serif" font-size="10.00">_single_dimension.cpp</text>
</a>
</g>
</g>
<!-- Node1&#45;&gt;Node12 -->
<g id="edge11_Node000001_Node000012" class="edge">
<title>Node1&#45;&gt;Node12</title>
<g id="a_edge11_Node000001_Node000012"><a xlink:title=" ">
<path fill="none" stroke="#63b8ff" d="M1211.54,-87.9C1325.14,-82.71 1536.5,-69.86 1714.5,-41 1723.49,-39.54 1732.97,-37.62 1742.14,-35.55"/>
<polygon fill="#63b8ff" stroke="#63b8ff" points="1211.36,-84.4 1201.52,-88.35 1211.67,-91.39 1211.36,-84.4"/>
</a>
</g>
</g>
<!-- Node13 -->
<g id="Node000013" class="node">
<title>Node13</title>
<g id="a_Node000013"><a xlink:href="link__condition_8cpp.html" target="_top" xlink:title=" ">
<polygon fill="white" stroke="#666666" points="2011,-35.5 1886,-35.5 1886,-5.5 2011,-5.5 2011,-35.5"/>
<text text-anchor="start" x="1894" y="-23.5" font-family="Helvetica,sans-Serif" font-size="10.00">src/wmtk/simplex/link</text>
<text text-anchor="middle" x="1948.5" y="-12.5" font-family="Helvetica,sans-Serif" font-size="10.00">_condition.cpp</text>
</a>
</g>
</g>
<!-- Node1&#45;&gt;Node13 -->
<g id="edge12_Node000001_Node000013" class="edge">
<title>Node1&#45;&gt;Node13</title>
<g id="a_edge12_Node000001_Node000013"><a xlink:title=" ">
<path fill="none" stroke="#63b8ff" d="M1211.73,-90.79C1349.97,-89.25 1637.31,-80.99 1876.5,-41 1884.8,-39.61 1893.53,-37.67 1901.93,-35.55"/>
<polygon fill="#63b8ff" stroke="#63b8ff" points="1211.6,-87.29 1201.64,-90.89 1211.67,-94.29 1211.6,-87.29"/>
</a>
</g>
</g>
<!-- Node14 -->
<g id="Node000014" class="node">
<title>Node14</title>
<g id="a_Node000014"><a xlink:href="neighbors__single__dimension_8cpp.html" target="_top" xlink:title=" ">
<polygon fill="white" stroke="#666666" points="2184,-35.5 2029,-35.5 2029,-5.5 2184,-5.5 2184,-35.5"/>
<text text-anchor="start" x="2037" y="-23.5" font-family="Helvetica,sans-Serif" font-size="10.00">src/wmtk/simplex/neighbors</text>
<text text-anchor="middle" x="2106.5" y="-12.5" font-family="Helvetica,sans-Serif" font-size="10.00">_single_dimension.cpp</text>
</a>
</g>
</g>
<!-- Node1&#45;&gt;Node14 -->
<g id="edge13_Node000001_Node000014" class="edge">
<title>Node1&#45;&gt;Node14</title>
<g id="a_edge13_Node000001_Node000014"><a xlink:title=" ">
<path fill="none" stroke="#63b8ff" d="M1211.59,-90.96C1369.19,-89.87 1724.75,-82.53 2020.5,-41 2030.35,-39.62 2040.75,-37.68 2050.77,-35.56"/>
<polygon fill="#63b8ff" stroke="#63b8ff" points="1211.48,-87.46 1201.5,-91.02 1211.52,-94.46 1211.48,-87.46"/>
</a>
</g>
</g>
</g>
</svg>

<g id="navigator" transform="translate(0 0)" fill="#404254">
  <rect fill="#f2f5e9" fill-opacity="0.5" stroke="#606060" stroke-width=".5" x="0" y="0" width="60" height="60"/>
  <use id="zoomplus" xlink:href="#zoomPlus" x="17" y="9" onmousedown="handleZoom(evt,'in')"/>
  <use id="zoomminus" xlink:href="#zoomMin" x="42" y="9" onmousedown="handleZoom(evt,'out')"/>
  <use id="reset" xlink:href="#resetDef" x="30" y="36" onmousedown="handleReset()"/>
   <use id="arrowup" xlink:href="#arrowUp" x="0" y="0" onmousedown="handlePan(0,-1)"/>
  <use id="arrowright" xlink:href="#arrowRight" x="0" y="0" onmousedown="handlePan(1,0)"/>
  <use id="arrowdown" xlink:href="#arrowDown" x="0" y="0" onmousedown="handlePan(0,1)"/>
  <use id="arrowleft" xlink:href="#arrowLeft" x="0" y="0" onmousedown="handlePan(-1,0)"/>
</g>
<svg viewBox="0 0 15 15" width="100%" height="30px" preserveAspectRatio="xMaxYMin meet">
 <g id="arrow_out" transform="scale(0.3 0.3)">
  <a xlink:href="cofaces__single__dimension_8hpp__dep__incl_org.svg" target="_base">
   <rect id="button" ry="5" rx="5" y="6" x="6" height="38" width="38"
        fill="#f2f5e9" fill-opacity="0.5" stroke="#606060" stroke-width="1.0"/>
   <path id="arrow"
     d="M 11.500037,31.436501 C 11.940474,20.09759 22.043105,11.32322 32.158766,21.979434 L 37.068811,17.246167 C 37.068811,17.246167 37.088388,32 37.088388,32 L 22.160133,31.978069 C 22.160133,31.978069 26.997745,27.140456 26.997745,27.140456 C 18.528582,18.264221 13.291696,25.230495 11.500037,31.436501 z"
     style="fill:#404040;"/>
  </a>
 </g>
</svg>

<style type='text/css'>
<![CDATA[
[data-mouse-over-selected='false'] { opacity: 0.7; }
[data-mouse-over-selected='true']  { opacity: 1.0; }
]]>
</style>
<script type="application/ecmascript"><![CDATA[
document.addEventListener('DOMContentLoaded', (event) => {
  highlightEdges();
  highlightAdjacentNodes();
});
]]></script>
</svg>
