<?xml version="1.0" encoding="UTF-8" standalone="no"?>
<!DOCTYPE svg PUBLIC "-//W3C//DTD SVG 1.1//EN"
 "http://www.w3.org/Graphics/SVG/1.1/DTD/svg11.dtd">
<!-- Generated by graphviz version 2.43.0 (0)
 -->
<!-- Title: src/wmtk Pages: 1 -->
<!--zoomable 479 -->

<svg id="main" version="1.1" xmlns="http://www.w3.org/2000/svg" xmlns:xlink="http://www.w3.org/1999/xlink" xml:space="preserve" onload="init(evt)">
<style type="text/css"><![CDATA[
.node, .edge {opacity: 0.7;}
.node.selected, .edge.selected {opacity: 1;}
.edge:hover path { stroke: red; }
.edge:hover polygon { stroke: red; fill: red; }
]]></style>

<defs>
  <circle id="rim" cx="0" cy="0" r="7"/>
  <circle id="rim2" cx="0" cy="0" r="3.5"/>
  <g id="zoomPlus">
    <use xlink:href="#rim" fill="#404040"><set attributeName="fill" to="#808080" begin="zoomplus.mouseover" end="zoomplus.mouseout"/></use>
    <path d="M-4,0h8M0,-4v8" fill="none" stroke="white" stroke-width="1.5" pointer-events="none"/>
  </g>
  <g id="zoomMin">
    <use xlink:href="#rim" fill="#404040"><set attributeName="fill" to="#808080" begin="zoomminus.mouseover" end="zoomminus.mouseout"/></use>
    <path d="M-4,0h8" fill="none" stroke="white" stroke-width="1.5" pointer-events="none"/>
  </g>
  <g id="arrowUp" transform="translate(30 24)">
    <use xlink:href="#rim"/>
    <path pointer-events="none" fill="none" stroke="white" stroke-width="1.5" d="M0,-3.0v7 M-2.5,-0.5L0,-3.0L2.5,-0.5"/>
  </g>
  <g id="arrowRight" transform="rotate(90) translate(36 -43)">
    <use xlink:href="#rim"/>
    <path pointer-events="none" fill="none" stroke="white" stroke-width="1.5" d="M0,-3.0v7 M-2.5,-0.5L0,-3.0L2.5,-0.5"/>
  </g>
  <g id="arrowDown" transform="rotate(180) translate(-30 -48)">
    <use xlink:href="#rim"/>
    <path pointer-events="none" fill="none" stroke="white" stroke-width="1.5" d="M0,-3.0v7 M-2.5,-0.5L0,-3.0L2.5,-0.5"/>
  </g>
  <g id="arrowLeft" transform="rotate(270) translate(-36 17)">
    <use xlink:href="#rim"/>
    <path pointer-events="none" fill="none" stroke="white" stroke-width="1.5" d="M0,-3.0v7 M-2.5,-0.5L0,-3.0L2.5,-0.5"/>
  </g>
  <g id="resetDef">
    <use xlink:href="#rim2" fill="#404040"><set attributeName="fill" to="#808080" begin="reset.mouseover" end="reset.mouseout"/></use>
  </g>
</defs>
<script type="application/ecmascript">
var viewWidth = 422;
var viewHeight = 479;
var sectionId = 'dynsection-0';
</script>
<script type="application/ecmascript" xlink:href="svg.min.js"/>
<svg id="graph" class="graph">
<g id="viewport">
<title>src/wmtk</title>
<g id="clust1" class="cluster">
<title>clusterdir_68267d1309a1af8e8297ef4c3efbcdba</title>
<g id="a_clust1"><a xlink:href="dir_68267d1309a1af8e8297ef4c3efbcdba.html" target="_top" xlink:title="src">
<polygon fill="#edf0f7" stroke="#404040" stroke-dasharray="5,2" points="8,-8 8,-463 406,-463 406,-8 8,-8"/>
<text text-anchor="middle" x="207" y="-451" font-family="Helvetica,sans-Serif" font-size="10.00">src</text>
</a>
</g>
</g>
<g id="clust2" class="cluster">
<title>clusterdir_f7a95b7257057fa18adfa4b3aabbe846</title>
<g id="a_clust2"><a xlink:href="dir_f7a95b7257057fa18adfa4b3aabbe846.html" target="_top">
<polygon fill="#edf0f7" stroke="#404040" stroke-width="2" points="16,-16 16,-436 398,-436 398,-16 16,-16"/>
</a>
</g>
</g>
<!-- dir_f7a95b7257057fa18adfa4b3aabbe846 -->
<g id="node1" class="node">
<title>dir_f7a95b7257057fa18adfa4b3aabbe846</title>
<text text-anchor="middle" x="130" y="-416" font-family="Helvetica,sans-Serif" font-size="10.00">wmtk</text>
</g>
<!-- dir_f2a03d151d5632e9cfdfcc5fe4223b5a -->
<g id="node2" class="node">
<title>dir_f2a03d151d5632e9cfdfcc5fe4223b5a</title>
<g id="a_node2"><a xlink:href="dir_f2a03d151d5632e9cfdfcc5fe4223b5a.html" target="_top" xlink:title="attribute">
<polygon fill="#a2b4d6" stroke="#404040" points="208.5,-373 149.5,-373 149.5,-354 208.5,-354 208.5,-373"/>
<text text-anchor="middle" x="179" y="-361" font-family="Helvetica,sans-Serif" font-size="10.00">attribute</text>
</a>
</g>
</g>
<!-- dir_f7a95b7257057fa18adfa4b3aabbe846&#45;&gt;dir_f2a03d151d5632e9cfdfcc5fe4223b5a -->
<g id="edge7" class="edge">
<title>dir_f7a95b7257057fa18adfa4b3aabbe846&#45;&gt;dir_f2a03d151d5632e9cfdfcc5fe4223b5a</title>
<g id="a_edge7"><a xlink:href="dir_000158_000002.html" target="_top">
<path fill="none" stroke="#63b8ff" d="M138.09,-408.75C145.16,-401.11 155.59,-389.82 164.15,-380.56"/>
<polygon fill="#63b8ff" stroke="#63b8ff" points="166.84,-382.81 171.06,-373.09 161.7,-378.06 166.84,-382.81"/>
</a>
</g>
<g id="a_edge7&#45;headlabel"><a xlink:href="dir_000158_000002.html" target="_top" xlink:title="75">
<text text-anchor="middle" x="166.49" y="-384.87" font-family="Helvetica,sans-Serif" font-size="10.00" fill="#63b8ff">75</text>
</a>
</g>
</g>
<!-- dir_228c2c271cc4cd9f4cc4d2c9e4cc379f -->
<g id="node3" class="node">
<title>dir_228c2c271cc4cd9f4cc4d2c9e4cc379f</title>
<g id="a_node3"><a xlink:href="dir_228c2c271cc4cd9f4cc4d2c9e4cc379f.html" target="_top" xlink:title="autogen">
<polygon fill="#a2b4d6" stroke="#404040" points="89,-43 33,-43 33,-24 89,-24 89,-43"/>
<text text-anchor="middle" x="61" y="-31" font-family="Helvetica,sans-Serif" font-size="10.00">autogen</text>
</a>
</g>
</g>
<!-- dir_f7a95b7257057fa18adfa4b3aabbe846&#45;&gt;dir_228c2c271cc4cd9f4cc4d2c9e4cc379f -->
<g id="edge1" class="edge">
<title>dir_f7a95b7257057fa18adfa4b3aabbe846&#45;&gt;dir_228c2c271cc4cd9f4cc4d2c9e4cc379f</title>
<g id="a_edge1"><a xlink:href="dir_000158_000006.html" target="_top">
<path fill="none" stroke="#63b8ff" d="M109.61,-408.89C93.67,-401.33 71.79,-389.04 57,-373 35.57,-349.77 25,-341.1 25,-309.5 25,-309.5 25,-309.5 25,-142.5 25,-109.21 40.58,-72.97 51.25,-52.08"/>
<polygon fill="#63b8ff" stroke="#63b8ff" points="54.4,-53.61 55.99,-43.13 48.21,-50.32 54.4,-53.61"/>
</a>
</g>
<g id="a_edge1&#45;headlabel"><a xlink:href="dir_000158_000006.html" target="_top" xlink:title="65">
<text text-anchor="middle" x="55.22" y="-55.61" font-family="Helvetica,sans-Serif" font-size="10.00" fill="#63b8ff">65</text>
</a>
</g>
</g>
<!-- dir_5f5962d46c0c2d5a2dbf0efb09269d04 -->
<g id="node6" class="node">
<title>dir_5f5962d46c0c2d5a2dbf0efb09269d04</title>
<g id="a_node6"><a xlink:href="dir_5f5962d46c0c2d5a2dbf0efb09269d04.html" target="_top" xlink:title="io">
<polygon fill="#a2b4d6" stroke="#404040" points="159.5,-318 130.5,-318 130.5,-299 159.5,-299 159.5,-318"/>
<text text-anchor="middle" x="145" y="-306" font-family="Helvetica,sans-Serif" font-size="10.00">io</text>
</a>
</g>
</g>
<!-- dir_f7a95b7257057fa18adfa4b3aabbe846&#45;&gt;dir_5f5962d46c0c2d5a2dbf0efb09269d04 -->
<g id="edge2" class="edge">
<title>dir_f7a95b7257057fa18adfa4b3aabbe846&#45;&gt;dir_5f5962d46c0c2d5a2dbf0efb09269d04</title>
<g id="a_edge2"><a xlink:href="dir_000158_000071.html" target="_top">
<path fill="none" stroke="#63b8ff" d="M131.23,-408.66C133.66,-391.17 139.12,-351.8 142.39,-328.27"/>
<polygon fill="#63b8ff" stroke="#63b8ff" points="145.89,-328.54 143.8,-318.16 138.95,-327.58 145.89,-328.54"/>
</a>
</g>
<g id="a_edge2&#45;headlabel"><a xlink:href="dir_000158_000071.html" target="_top" xlink:title="7">
<text text-anchor="middle" x="148.21" y="-330" font-family="Helvetica,sans-Serif" font-size="10.00" fill="#63b8ff">7</text>
</a>
</g>
</g>
<!-- dir_acf644b39d60b4fff64b1eb43dc3fb5a -->
<g id="node7" class="node">
<title>dir_acf644b39d60b4fff64b1eb43dc3fb5a</title>
<g id="a_node7"><a xlink:href="dir_acf644b39d60b4fff64b1eb43dc3fb5a.html" target="_top" xlink:title="multimesh">
<polygon fill="#a2b4d6" stroke="#404040" points="149.5,-98 80.5,-98 80.5,-79 149.5,-79 149.5,-98"/>
<text text-anchor="middle" x="115" y="-86" font-family="Helvetica,sans-Serif" font-size="10.00">multimesh</text>
</a>
</g>
</g>
<!-- dir_f7a95b7257057fa18adfa4b3aabbe846&#45;&gt;dir_acf644b39d60b4fff64b1eb43dc3fb5a -->
<g id="edge4" class="edge">
<title>dir_f7a95b7257057fa18adfa4b3aabbe846&#45;&gt;dir_acf644b39d60b4fff64b1eb43dc3fb5a</title>
<g id="a_edge4"><a xlink:href="dir_000158_000083.html" target="_top">
<path fill="none" stroke="#63b8ff" d="M116.34,-408.96C92.32,-392.76 45,-355.07 45,-309.5 45,-309.5 45,-309.5 45,-197.5 45,-159.43 76.01,-124.19 96.75,-104.89"/>
<polygon fill="#63b8ff" stroke="#63b8ff" points="99.25,-107.34 104.37,-98.07 94.58,-102.13 99.25,-107.34"/>
</a>
</g>
<g id="a_edge4&#45;headlabel"><a xlink:href="dir_000158_000083.html" target="_top" xlink:title="48">
<text text-anchor="middle" x="98.46" y="-109.36" font-family="Helvetica,sans-Serif" font-size="10.00" fill="#63b8ff">48</text>
</a>
</g>
</g>
<!-- dir_cce1e74d6889f0f8c282b81d2e706218 -->
<g id="node8" class="node">
<title>dir_cce1e74d6889f0f8c282b81d2e706218</title>
<g id="a_node8"><a xlink:href="dir_cce1e74d6889f0f8c282b81d2e706218.html" target="_top" xlink:title="operations">
<polygon fill="#a2b4d6" stroke="#404040" points="252,-208 184,-208 184,-189 252,-189 252,-208"/>
<text text-anchor="middle" x="218" y="-196" font-family="Helvetica,sans-Serif" font-size="10.00">operations</text>
</a>
</g>
</g>
<!-- dir_f7a95b7257057fa18adfa4b3aabbe846&#45;&gt;dir_cce1e74d6889f0f8c282b81d2e706218 -->
<g id="edge6" class="edge">
<title>dir_f7a95b7257057fa18adfa4b3aabbe846&#45;&gt;dir_cce1e74d6889f0f8c282b81d2e706218</title>
<g id="a_edge6"><a xlink:href="dir_000158_000087.html" target="_top">
<path fill="none" stroke="#63b8ff" d="M152.19,-413.16C173.25,-407.74 203.74,-396.19 218,-373 248.05,-324.13 233.39,-251.94 223.91,-218.18"/>
<polygon fill="#63b8ff" stroke="#63b8ff" points="227.17,-216.88 220.96,-208.29 220.46,-218.88 227.17,-216.88"/>
</a>
</g>
<g id="a_edge6&#45;headlabel"><a xlink:href="dir_000158_000087.html" target="_top" xlink:title="58">
<text text-anchor="middle" x="230.92" y="-217.01" font-family="Helvetica,sans-Serif" font-size="10.00" fill="#63b8ff">58</text>
</a>
</g>
</g>
<!-- dir_cbc9327ef122fb9d2e3099bcf15f379f -->
<g id="node9" class="node">
<title>dir_cbc9327ef122fb9d2e3099bcf15f379f</title>
<g id="a_node9"><a xlink:href="dir_cbc9327ef122fb9d2e3099bcf15f379f.html" target="_top" xlink:title="simplex">
<polygon fill="#a2b4d6" stroke="#404040" points="293,-43 237,-43 237,-24 293,-24 293,-43"/>
<text text-anchor="middle" x="265" y="-31" font-family="Helvetica,sans-Serif" font-size="10.00">simplex</text>
</a>
</g>
</g>
<!-- dir_f7a95b7257057fa18adfa4b3aabbe846&#45;&gt;dir_cbc9327ef122fb9d2e3099bcf15f379f -->
<g id="edge5" class="edge">
<title>dir_f7a95b7257057fa18adfa4b3aabbe846&#45;&gt;dir_cbc9327ef122fb9d2e3099bcf15f379f</title>
<g id="a_edge5"><a xlink:href="dir_000158_000100.html" target="_top">
<path fill="none" stroke="#63b8ff" d="M152.08,-418.2C214.72,-418.94 389,-411.81 389,-309.5 389,-309.5 389,-309.5 389,-142.5 389,-112.77 388.07,-100.93 368,-79 350.97,-60.39 324.81,-49.22 303.12,-42.73"/>
<polygon fill="#63b8ff" stroke="#63b8ff" points="303.78,-39.28 293.21,-39.98 301.91,-46.03 303.78,-39.28"/>
</a>
</g>
<g id="a_edge5&#45;headlabel"><a xlink:href="dir_000158_000100.html" target="_top" xlink:title="144">
<text text-anchor="middle" x="308" y="-35" font-family="Helvetica,sans-Serif" font-size="10.00" fill="#63b8ff">144</text>
</a>
</g>
</g>
<!-- dir_9f42d488f21f30bdc75c62948fa574ea -->
<g id="node10" class="node">
<title>dir_9f42d488f21f30bdc75c62948fa574ea</title>
<g id="a_node10"><a xlink:href="dir_9f42d488f21f30bdc75c62948fa574ea.html" target="_top" xlink:title="utils">
<polygon fill="#a2b4d6" stroke="#404040" points="164,-263 126,-263 126,-244 164,-244 164,-263"/>
<text text-anchor="middle" x="145" y="-251" font-family="Helvetica,sans-Serif" font-size="10.00">utils</text>
</a>
</g>
</g>
<!-- dir_f7a95b7257057fa18adfa4b3aabbe846&#45;&gt;dir_9f42d488f21f30bdc75c62948fa574ea -->
<g id="edge3" class="edge">
<title>dir_f7a95b7257057fa18adfa4b3aabbe846&#45;&gt;dir_9f42d488f21f30bdc75c62948fa574ea</title>
<g id="a_edge3"><a xlink:href="dir_000158_000127.html" target="_top">
<path fill="none" stroke="#63b8ff" d="M127.62,-408.72C122.62,-388.86 112.26,-339.07 122,-299 124.31,-289.51 129.02,-279.78 133.58,-271.85"/>
<polygon fill="#63b8ff" stroke="#63b8ff" points="136.64,-273.55 138.9,-263.2 130.68,-269.89 136.64,-273.55"/>
</a>
</g>
<g id="a_edge3&#45;headlabel"><a xlink:href="dir_000158_000127.html" target="_top" xlink:title="169">
<text text-anchor="middle" x="137.17" y="-275.6" font-family="Helvetica,sans-Serif" font-size="10.00" fill="#63b8ff">169</text>
</a>
</g>
</g>
<!-- dir_f2a03d151d5632e9cfdfcc5fe4223b5a&#45;&gt;dir_5f5962d46c0c2d5a2dbf0efb09269d04 -->
<g id="edge8" class="edge">
<title>dir_f2a03d151d5632e9cfdfcc5fe4223b5a&#45;&gt;dir_5f5962d46c0c2d5a2dbf0efb09269d04</title>
<g id="a_edge8"><a xlink:href="dir_000002_000071.html" target="_top">
<path fill="none" stroke="#63b8ff" d="M168.22,-353.75C162.07,-346.57 154.99,-336.18 149.99,-327.27"/>
<polygon fill="#63b8ff" stroke="#63b8ff" points="152.99,-325.46 145.38,-318.09 146.74,-328.6 152.99,-325.46"/>
</a>
</g>
<g id="a_edge8&#45;headlabel"><a xlink:href="dir_000002_000071.html" target="_top" xlink:title="4">
<text text-anchor="middle" x="157.14" y="-324.9" font-family="Helvetica,sans-Serif" font-size="10.00" fill="#63b8ff">4</text>
</a>
</g>
</g>
<!-- dir_f2a03d151d5632e9cfdfcc5fe4223b5a&#45;&gt;dir_cbc9327ef122fb9d2e3099bcf15f379f -->
<g id="edge10" class="edge">
<title>dir_f2a03d151d5632e9cfdfcc5fe4223b5a&#45;&gt;dir_cbc9327ef122fb9d2e3099bcf15f379f</title>
<g id="a_edge10"><a xlink:href="dir_000002_000100.html" target="_top">
<path fill="none" stroke="#63b8ff" d="M208.69,-359.28C262.12,-351.67 369,-327.35 369,-254.5 369,-254.5 369,-254.5 369,-142.5 369,-113.93 376.12,-101.87 359,-79 345.49,-60.94 322.79,-49.91 303.08,-43.35"/>
<polygon fill="#63b8ff" stroke="#63b8ff" points="303.99,-39.97 293.4,-40.4 301.94,-46.67 303.99,-39.97"/>
</a>
</g>
<g id="a_edge10&#45;headlabel"><a xlink:href="dir_000002_000100.html" target="_top" xlink:title="1">
<text text-anchor="middle" x="308.26" y="-35.81" font-family="Helvetica,sans-Serif" font-size="10.00" fill="#63b8ff">1</text>
</a>
</g>
</g>
<!-- dir_f2a03d151d5632e9cfdfcc5fe4223b5a&#45;&gt;dir_9f42d488f21f30bdc75c62948fa574ea -->
<g id="edge9" class="edge">
<title>dir_f2a03d151d5632e9cfdfcc5fe4223b5a&#45;&gt;dir_9f42d488f21f30bdc75c62948fa574ea</title>
<g id="a_edge9"><a xlink:href="dir_000002_000127.html" target="_top">
<path fill="none" stroke="#63b8ff" d="M172.57,-353.65C168.7,-341.17 166.35,-317.82 160,-299 156.92,-289.86 152.06,-280.37 148.23,-272.52"/>
<polygon fill="#63b8ff" stroke="#63b8ff" points="151.36,-270.94 144.03,-263.29 144.99,-273.84 151.36,-270.94"/>
</a>
</g>
<g id="a_edge9&#45;headlabel"><a xlink:href="dir_000002_000127.html" target="_top" xlink:title="28">
<text text-anchor="middle" x="155.43" y="-270.53" font-family="Helvetica,sans-Serif" font-size="10.00" fill="#63b8ff">28</text>
</a>
</g>
</g>
<!-- dir_228c2c271cc4cd9f4cc4d2c9e4cc379f&#45;&gt;dir_9f42d488f21f30bdc75c62948fa574ea -->
<g id="edge11" class="edge">
<title>dir_228c2c271cc4cd9f4cc4d2c9e4cc379f&#45;&gt;dir_9f42d488f21f30bdc75c62948fa574ea</title>
<g id="a_edge11"><a xlink:href="dir_000006_000127.html" target="_top">
<path fill="none" stroke="#63b8ff" d="M67.74,-43.3C72.02,-55.73 74.99,-79.01 81,-98 97.35,-149.66 127.53,-206.26 140.22,-234.45"/>
<polygon fill="#63b8ff" stroke="#63b8ff" points="137.04,-235.93 144.15,-243.79 143.49,-233.21 137.04,-235.93"/>
</a>
</g>
<g id="a_edge11&#45;headlabel"><a xlink:href="dir_000006_000127.html" target="_top" xlink:title="13">
<text text-anchor="middle" x="133.03" y="-231.22" font-family="Helvetica,sans-Serif" font-size="10.00" fill="#63b8ff">13</text>
</a>
</g>
</g>
<!-- dir_56a8abddcbd7373d874dbb6382cc2a5b -->
<g id="node4" class="node">
<title>dir_56a8abddcbd7373d874dbb6382cc2a5b</title>
<g id="a_node4"><a xlink:href="dir_56a8abddcbd7373d874dbb6382cc2a5b.html" target="_top" xlink:title="function">
<polygon fill="#a2b4d6" stroke="#404040" points="350,-98 294,-98 294,-79 350,-79 350,-98"/>
<text text-anchor="middle" x="322" y="-86" font-family="Helvetica,sans-Serif" font-size="10.00">function</text>
</a>
</g>
</g>
<!-- dir_56a8abddcbd7373d874dbb6382cc2a5b&#45;&gt;dir_f2a03d151d5632e9cfdfcc5fe4223b5a -->
<g id="edge13" class="edge">
<title>dir_56a8abddcbd7373d874dbb6382cc2a5b&#45;&gt;dir_f2a03d151d5632e9cfdfcc5fe4223b5a</title>
<g id="a_edge13"><a xlink:href="dir_000044_000002.html" target="_top">
<path fill="none" stroke="#63b8ff" d="M325.75,-98.27C333.17,-116.44 349,-159.62 349,-197.5 349,-254.5 349,-254.5 349,-254.5 349,-316 268.76,-343.97 218.53,-355.46"/>
<polygon fill="#63b8ff" stroke="#63b8ff" points="217.65,-352.07 208.61,-357.6 219.13,-358.91 217.65,-352.07"/>
</a>
</g>
<g id="a_edge13&#45;headlabel"><a xlink:href="dir_000044_000002.html" target="_top" xlink:title="4">
<text text-anchor="middle" x="220.56" y="-346.03" font-family="Helvetica,sans-Serif" font-size="10.00" fill="#63b8ff">4</text>
</a>
</g>
</g>
<!-- dir_56a8abddcbd7373d874dbb6382cc2a5b&#45;&gt;dir_cbc9327ef122fb9d2e3099bcf15f379f -->
<g id="edge12" class="edge">
<title>dir_56a8abddcbd7373d874dbb6382cc2a5b&#45;&gt;dir_cbc9327ef122fb9d2e3099bcf15f379f</title>
<g id="a_edge12"><a xlink:href="dir_000044_000100.html" target="_top">
<path fill="none" stroke="#63b8ff" d="M312.84,-78.98C304.5,-71.23 291.97,-59.58 281.82,-50.14"/>
<polygon fill="#63b8ff" stroke="#63b8ff" points="284.03,-47.42 274.32,-43.17 279.26,-52.54 284.03,-47.42"/>
</a>
</g>
<g id="a_edge12&#45;headlabel"><a xlink:href="dir_000044_000100.html" target="_top" xlink:title="9">
<text text-anchor="middle" x="288.6" y="-45.28" font-family="Helvetica,sans-Serif" font-size="10.00" fill="#63b8ff">9</text>
</a>
</g>
</g>
<!-- dir_56a8abddcbd7373d874dbb6382cc2a5b&#45;&gt;dir_9f42d488f21f30bdc75c62948fa574ea -->
<g id="edge14" class="edge">
<title>dir_56a8abddcbd7373d874dbb6382cc2a5b&#45;&gt;dir_9f42d488f21f30bdc75c62948fa574ea</title>
<g id="a_edge14"><a xlink:href="dir_000044_000127.html" target="_top">
<path fill="none" stroke="#63b8ff" d="M320.85,-98.12C318.91,-110.72 314.27,-134.67 305,-153 290.87,-180.94 286.27,-189.53 261,-208 234.64,-227.27 198.89,-239.31 174.08,-245.93"/>
<polygon fill="#63b8ff" stroke="#63b8ff" points="173.01,-242.59 164.17,-248.44 174.73,-249.38 173.01,-242.59"/>
</a>
</g>
<g id="a_edge14&#45;headlabel"><a xlink:href="dir_000044_000127.html" target="_top" xlink:title="2">
<text text-anchor="middle" x="175.79" y="-236.46" font-family="Helvetica,sans-Serif" font-size="10.00" fill="#63b8ff">2</text>
</a>
</g>
</g>
<!-- dir_5421ed8c8fde3f7a08a046a47d931eae -->
<g id="node5" class="node">
<title>dir_5421ed8c8fde3f7a08a046a47d931eae</title>
<g id="a_node5"><a xlink:href="dir_5421ed8c8fde3f7a08a046a47d931eae.html" target="_top" xlink:title="invariants">
<polygon fill="#a2b4d6" stroke="#404040" points="269.5,-153 204.5,-153 204.5,-134 269.5,-134 269.5,-153"/>
<text text-anchor="middle" x="237" y="-141" font-family="Helvetica,sans-Serif" font-size="10.00">invariants</text>
</a>
</g>
</g>
<!-- dir_5421ed8c8fde3f7a08a046a47d931eae&#45;&gt;dir_f2a03d151d5632e9cfdfcc5fe4223b5a -->
<g id="edge19" class="edge">
<title>dir_5421ed8c8fde3f7a08a046a47d931eae&#45;&gt;dir_f2a03d151d5632e9cfdfcc5fe4223b5a</title>
<g id="a_edge19"><a xlink:href="dir_000070_000002.html" target="_top">
<path fill="none" stroke="#63b8ff" d="M244.03,-153.33C252.79,-165.41 266.01,-187.87 261,-208 247.55,-262.04 211.29,-317.94 191.8,-345.3"/>
<polygon fill="#63b8ff" stroke="#63b8ff" points="188.72,-343.59 185.68,-353.74 194.38,-347.71 188.72,-343.59"/>
</a>
</g>
<g id="a_edge19&#45;headlabel"><a xlink:href="dir_000070_000002.html" target="_top" xlink:title="22">
<text text-anchor="middle" x="188.53" y="-336.52" font-family="Helvetica,sans-Serif" font-size="10.00" fill="#63b8ff">22</text>
</a>
</g>
</g>
<!-- dir_5421ed8c8fde3f7a08a046a47d931eae&#45;&gt;dir_56a8abddcbd7373d874dbb6382cc2a5b -->
<g id="edge15" class="edge">
<title>dir_5421ed8c8fde3f7a08a046a47d931eae&#45;&gt;dir_56a8abddcbd7373d874dbb6382cc2a5b</title>
<g id="a_edge15"><a xlink:href="dir_000070_000044.html" target="_top">
<path fill="none" stroke="#63b8ff" d="M250.66,-133.98C263.84,-125.77 284.03,-113.18 299.57,-103.49"/>
<polygon fill="#63b8ff" stroke="#63b8ff" points="301.46,-106.43 308.09,-98.17 297.76,-100.49 301.46,-106.43"/>
</a>
</g>
<g id="a_edge15&#45;headlabel"><a xlink:href="dir_000070_000044.html" target="_top" xlink:title="12">
<text text-anchor="middle" x="299.91" y="-108.24" font-family="Helvetica,sans-Serif" font-size="10.00" fill="#63b8ff">12</text>
</a>
</g>
</g>
<!-- dir_5421ed8c8fde3f7a08a046a47d931eae&#45;&gt;dir_acf644b39d60b4fff64b1eb43dc3fb5a -->
<g id="edge17" class="edge">
<title>dir_5421ed8c8fde3f7a08a046a47d931eae&#45;&gt;dir_acf644b39d60b4fff64b1eb43dc3fb5a</title>
<g id="a_edge17"><a xlink:href="dir_000070_000083.html" target="_top">
<path fill="none" stroke="#63b8ff" d="M217.4,-133.98C197.68,-125.42 167.05,-112.11 144.42,-102.28"/>
<polygon fill="#63b8ff" stroke="#63b8ff" points="145.52,-98.94 134.96,-98.17 142.74,-105.37 145.52,-98.94"/>
</a>
</g>
<g id="a_edge17&#45;headlabel"><a xlink:href="dir_000070_000083.html" target="_top" xlink:title="4">
<text text-anchor="middle" x="149.95" y="-95.27" font-family="Helvetica,sans-Serif" font-size="10.00" fill="#63b8ff">4</text>
</a>
</g>
</g>
<!-- dir_5421ed8c8fde3f7a08a046a47d931eae&#45;&gt;dir_cbc9327ef122fb9d2e3099bcf15f379f -->
<g id="edge18" class="edge">
<title>dir_5421ed8c8fde3f7a08a046a47d931eae&#45;&gt;dir_cbc9327ef122fb9d2e3099bcf15f379f</title>
<g id="a_edge18"><a xlink:href="dir_000070_000100.html" target="_top">
<path fill="none" stroke="#63b8ff" d="M239.29,-133.66C243.85,-116.09 254.12,-76.45 260.22,-52.95"/>
<polygon fill="#63b8ff" stroke="#63b8ff" points="263.63,-53.72 262.76,-43.16 256.86,-51.96 263.63,-53.72"/>
</a>
</g>
<g id="a_edge18&#45;headlabel"><a xlink:href="dir_000070_000100.html" target="_top" xlink:title="47">
<text text-anchor="middle" x="265.48" y="-55.41" font-family="Helvetica,sans-Serif" font-size="10.00" fill="#63b8ff">47</text>
</a>
</g>
</g>
<!-- dir_5421ed8c8fde3f7a08a046a47d931eae&#45;&gt;dir_9f42d488f21f30bdc75c62948fa574ea -->
<g id="edge16" class="edge">
<title>dir_5421ed8c8fde3f7a08a046a47d931eae&#45;&gt;dir_9f42d488f21f30bdc75c62948fa574ea</title>
<g id="a_edge16"><a xlink:href="dir_000070_000127.html" target="_top">
<path fill="none" stroke="#63b8ff" d="M220.73,-153.06C207.08,-160.91 187.81,-173.63 175,-189 163.79,-202.45 155.72,-220.79 150.79,-234.31"/>
<polygon fill="#63b8ff" stroke="#63b8ff" points="147.42,-233.33 147.51,-243.92 154.05,-235.59 147.42,-233.33"/>
</a>
</g>
<g id="a_edge16&#45;headlabel"><a xlink:href="dir_000070_000127.html" target="_top" xlink:title="19">
<text text-anchor="middle" x="145.9" y="-226.51" font-family="Helvetica,sans-Serif" font-size="10.00" fill="#63b8ff">19</text>
</a>
</g>
</g>
<!-- dir_5f5962d46c0c2d5a2dbf0efb09269d04&#45;&gt;dir_f2a03d151d5632e9cfdfcc5fe4223b5a -->
<g id="edge22" class="edge">
<title>dir_5f5962d46c0c2d5a2dbf0efb09269d04&#45;&gt;dir_f2a03d151d5632e9cfdfcc5fe4223b5a</title>
<g id="a_edge22"><a xlink:href="dir_000071_000002.html" target="_top">
<path fill="none" stroke="#63b8ff" d="M155.64,-318.09C161.77,-325.22 168.86,-335.6 173.9,-344.53"/>
<polygon fill="#63b8ff" stroke="#63b8ff" points="170.92,-346.4 178.55,-353.75 177.17,-343.24 170.92,-346.4"/>
</a>
</g>
<g id="a_edge22&#45;headlabel"><a xlink:href="dir_000071_000002.html" target="_top" xlink:title="1">
<text text-anchor="middle" x="166.77" y="-341.97" font-family="Helvetica,sans-Serif" font-size="10.00" fill="#63b8ff">1</text>
</a>
</g>
</g>
<!-- dir_5f5962d46c0c2d5a2dbf0efb09269d04&#45;&gt;dir_acf644b39d60b4fff64b1eb43dc3fb5a -->
<g id="edge21" class="edge">
<title>dir_5f5962d46c0c2d5a2dbf0efb09269d04&#45;&gt;dir_acf644b39d60b4fff64b1eb43dc3fb5a</title>
<g id="a_edge21"><a xlink:href="dir_000071_000083.html" target="_top">
<path fill="none" stroke="#63b8ff" d="M138.05,-298.87C131.53,-290.29 122.05,-276.51 117,-263 99.69,-216.66 103.79,-202.32 100,-153 99.35,-144.58 98.63,-142.33 100,-134 101.47,-125.05 104.49,-115.47 107.44,-107.51"/>
<polygon fill="#63b8ff" stroke="#63b8ff" points="110.72,-108.74 111.14,-98.15 104.21,-106.16 110.72,-108.74"/>
</a>
</g>
<g id="a_edge21&#45;headlabel"><a xlink:href="dir_000071_000083.html" target="_top" xlink:title="1">
<text text-anchor="middle" x="112.04" y="-110.62" font-family="Helvetica,sans-Serif" font-size="10.00" fill="#63b8ff">1</text>
</a>
</g>
</g>
<!-- dir_5f5962d46c0c2d5a2dbf0efb09269d04&#45;&gt;dir_9f42d488f21f30bdc75c62948fa574ea -->
<g id="edge20" class="edge">
<title>dir_5f5962d46c0c2d5a2dbf0efb09269d04&#45;&gt;dir_9f42d488f21f30bdc75c62948fa574ea</title>
<g id="a_edge20"><a xlink:href="dir_000071_000127.html" target="_top">
<path fill="none" stroke="#63b8ff" d="M139.83,-298.75C138.34,-291.8 137.9,-281.85 138.52,-273.13"/>
<polygon fill="#63b8ff" stroke="#63b8ff" points="142.01,-273.47 139.87,-263.09 135.07,-272.53 142.01,-273.47"/>
</a>
</g>
<g id="a_edge20&#45;headlabel"><a xlink:href="dir_000071_000127.html" target="_top" xlink:title="12">
<text text-anchor="middle" x="144.34" y="-274.91" font-family="Helvetica,sans-Serif" font-size="10.00" fill="#63b8ff">12</text>
</a>
</g>
</g>
<!-- dir_acf644b39d60b4fff64b1eb43dc3fb5a&#45;&gt;dir_f2a03d151d5632e9cfdfcc5fe4223b5a -->
<g id="edge27" class="edge">
<title>dir_acf644b39d60b4fff64b1eb43dc3fb5a&#45;&gt;dir_f2a03d151d5632e9cfdfcc5fe4223b5a</title>
<g id="a_edge27"><a xlink:href="dir_000083_000002.html" target="_top">
<path fill="none" stroke="#63b8ff" d="M113.65,-98.15C110.92,-116.45 105,-160.4 105,-197.5 105,-254.5 105,-254.5 105,-254.5 105,-283.72 105.87,-293.64 122,-318 130.15,-330.31 142.83,-340.7 154.17,-348.33"/>
<polygon fill="#63b8ff" stroke="#63b8ff" points="152.54,-351.45 162.86,-353.85 156.3,-345.54 152.54,-351.45"/>
</a>
</g>
<g id="a_edge27&#45;headlabel"><a xlink:href="dir_000083_000002.html" target="_top" xlink:title="13">
<text text-anchor="middle" x="147.99" y="-349.42" font-family="Helvetica,sans-Serif" font-size="10.00" fill="#63b8ff">13</text>
</a>
</g>
</g>
<!-- dir_acf644b39d60b4fff64b1eb43dc3fb5a&#45;&gt;dir_228c2c271cc4cd9f4cc4d2c9e4cc379f -->
<g id="edge23" class="edge">
<title>dir_acf644b39d60b4fff64b1eb43dc3fb5a&#45;&gt;dir_228c2c271cc4cd9f4cc4d2c9e4cc379f</title>
<g id="a_edge23"><a xlink:href="dir_000083_000006.html" target="_top">
<path fill="none" stroke="#63b8ff" d="M106.08,-78.75C98.22,-71.03 86.57,-59.6 77.08,-50.28"/>
<polygon fill="#63b8ff" stroke="#63b8ff" points="79.34,-47.6 69.75,-43.09 74.44,-52.59 79.34,-47.6"/>
</a>
</g>
<g id="a_edge23&#45;headlabel"><a xlink:href="dir_000083_000006.html" target="_top" xlink:title="8">
<text text-anchor="middle" x="83.89" y="-45.59" font-family="Helvetica,sans-Serif" font-size="10.00" fill="#63b8ff">8</text>
</a>
</g>
</g>
<!-- dir_acf644b39d60b4fff64b1eb43dc3fb5a&#45;&gt;dir_cce1e74d6889f0f8c282b81d2e706218 -->
<g id="edge26" class="edge">
<title>dir_acf644b39d60b4fff64b1eb43dc3fb5a&#45;&gt;dir_cce1e74d6889f0f8c282b81d2e706218</title>
<g id="a_edge26"><a xlink:href="dir_000083_000087.html" target="_top">
<path fill="none" stroke="#63b8ff" d="M127.14,-98.16C147.58,-116.05 187.38,-157.37 207.02,-180.69"/>
<polygon fill="#63b8ff" stroke="#63b8ff" points="204.47,-183.1 213.48,-188.66 209.91,-178.69 204.47,-183.1"/>
</a>
</g>
<g id="a_edge26&#45;headlabel"><a xlink:href="dir_000083_000087.html" target="_top" xlink:title="9">
<text text-anchor="middle" x="200" y="-179.59" font-family="Helvetica,sans-Serif" font-size="10.00" fill="#63b8ff">9</text>
</a>
</g>
</g>
<!-- dir_acf644b39d60b4fff64b1eb43dc3fb5a&#45;&gt;dir_cbc9327ef122fb9d2e3099bcf15f379f -->
<g id="edge25" class="edge">
<title>dir_acf644b39d60b4fff64b1eb43dc3fb5a&#45;&gt;dir_cbc9327ef122fb9d2e3099bcf15f379f</title>
<g id="a_edge25"><a xlink:href="dir_000083_000100.html" target="_top">
<path fill="none" stroke="#63b8ff" d="M139.1,-78.98C163.88,-70.23 202.7,-56.51 230.69,-46.62"/>
<polygon fill="#63b8ff" stroke="#63b8ff" points="232.2,-49.8 240.46,-43.17 229.87,-43.2 232.2,-49.8"/>
</a>
</g>
<g id="a_edge25&#45;headlabel"><a xlink:href="dir_000083_000100.html" target="_top" xlink:title="13">
<text text-anchor="middle" x="229.76" y="-51.18" font-family="Helvetica,sans-Serif" font-size="10.00" fill="#63b8ff">13</text>
</a>
</g>
</g>
<!-- dir_acf644b39d60b4fff64b1eb43dc3fb5a&#45;&gt;dir_9f42d488f21f30bdc75c62948fa574ea -->
<g id="edge24" class="edge">
<title>dir_acf644b39d60b4fff64b1eb43dc3fb5a&#45;&gt;dir_9f42d488f21f30bdc75c62948fa574ea</title>
<g id="a_edge24"><a xlink:href="dir_000083_000127.html" target="_top">
<path fill="none" stroke="#63b8ff" d="M119.89,-98.31C128.75,-123.79 142.84,-198.03 146.01,-233.37"/>
<polygon fill="#63b8ff" stroke="#63b8ff" points="142.54,-233.97 146.65,-243.74 149.53,-233.54 142.54,-233.97"/>
</a>
</g>
<g id="a_edge24&#45;headlabel"><a xlink:href="dir_000083_000127.html" target="_top" xlink:title="30">
<text text-anchor="middle" x="139.49" y="-228.06" font-family="Helvetica,sans-Serif" font-size="10.00" fill="#63b8ff">30</text>
</a>
</g>
</g>
<!-- dir_cce1e74d6889f0f8c282b81d2e706218&#45;&gt;dir_f2a03d151d5632e9cfdfcc5fe4223b5a -->
<g id="edge34" class="edge">
<title>dir_cce1e74d6889f0f8c282b81d2e706218&#45;&gt;dir_f2a03d151d5632e9cfdfcc5fe4223b5a</title>
<g id="a_edge34"><a xlink:href="dir_000087_000002.html" target="_top">
<path fill="none" stroke="#63b8ff" d="M215.89,-208.31C209.77,-233.9 191.88,-308.67 183.47,-343.83"/>
<polygon fill="#63b8ff" stroke="#63b8ff" points="180.02,-343.2 181.1,-353.74 186.83,-344.83 180.02,-343.2"/>
</a>
</g>
<g id="a_edge34&#45;headlabel"><a xlink:href="dir_000087_000002.html" target="_top" xlink:title="16">
<text text-anchor="middle" x="178.09" y="-336.54" font-family="Helvetica,sans-Serif" font-size="10.00" fill="#63b8ff">16</text>
</a>
</g>
</g>
<!-- dir_cce1e74d6889f0f8c282b81d2e706218&#45;&gt;dir_228c2c271cc4cd9f4cc4d2c9e4cc379f -->
<g id="edge28" class="edge">
<title>dir_cce1e74d6889f0f8c282b81d2e706218&#45;&gt;dir_228c2c271cc4cd9f4cc4d2c9e4cc379f</title>
<g id="a_edge28"><a xlink:href="dir_000087_000006.html" target="_top">
<path fill="none" stroke="#63b8ff" d="M213.61,-188.64C200.03,-161.21 159.55,-79.53 159,-79 142.32,-62.91 118.8,-51.96 98.98,-44.95"/>
<polygon fill="#63b8ff" stroke="#63b8ff" points="99.89,-41.57 89.3,-41.73 97.68,-48.21 99.89,-41.57"/>
</a>
</g>
<g id="a_edge28&#45;headlabel"><a xlink:href="dir_000087_000006.html" target="_top" xlink:title="14">
<text text-anchor="middle" x="104.2" y="-37.51" font-family="Helvetica,sans-Serif" font-size="10.00" fill="#63b8ff">14</text>
</a>
</g>
</g>
<!-- dir_cce1e74d6889f0f8c282b81d2e706218&#45;&gt;dir_56a8abddcbd7373d874dbb6382cc2a5b -->
<g id="edge30" class="edge">
<title>dir_cce1e74d6889f0f8c282b81d2e706218&#45;&gt;dir_56a8abddcbd7373d874dbb6382cc2a5b</title>
<g id="a_edge30"><a xlink:href="dir_000087_000044.html" target="_top">
<path fill="none" stroke="#63b8ff" d="M240.15,-188.99C256.82,-181.63 279.25,-169.55 294,-153 305.52,-140.09 312.92,-121.68 317.21,-108"/>
<polygon fill="#63b8ff" stroke="#63b8ff" points="320.61,-108.82 319.99,-98.25 313.88,-106.9 320.61,-108.82"/>
</a>
</g>
<g id="a_edge30&#45;headlabel"><a xlink:href="dir_000087_000044.html" target="_top" xlink:title="5">
<text text-anchor="middle" x="322.36" y="-110.56" font-family="Helvetica,sans-Serif" font-size="10.00" fill="#63b8ff">5</text>
</a>
</g>
</g>
<!-- dir_cce1e74d6889f0f8c282b81d2e706218&#45;&gt;dir_5421ed8c8fde3f7a08a046a47d931eae -->
<g id="edge29" class="edge">
<title>dir_cce1e74d6889f0f8c282b81d2e706218&#45;&gt;dir_5421ed8c8fde3f7a08a046a47d931eae</title>
<g id="a_edge29"><a xlink:href="dir_000087_000070.html" target="_top">
<path fill="none" stroke="#63b8ff" d="M221.14,-188.75C223.68,-181.65 227.36,-171.4 230.53,-162.56"/>
<polygon fill="#63b8ff" stroke="#63b8ff" points="233.84,-163.68 233.92,-153.09 227.25,-161.32 233.84,-163.68"/>
</a>
</g>
<g id="a_edge29&#45;headlabel"><a xlink:href="dir_000087_000070.html" target="_top" xlink:title="3">
<text text-anchor="middle" x="235.3" y="-165.53" font-family="Helvetica,sans-Serif" font-size="10.00" fill="#63b8ff">3</text>
</a>
</g>
</g>
<!-- dir_cce1e74d6889f0f8c282b81d2e706218&#45;&gt;dir_acf644b39d60b4fff64b1eb43dc3fb5a -->
<g id="edge32" class="edge">
<title>dir_cce1e74d6889f0f8c282b81d2e706218&#45;&gt;dir_acf644b39d60b4fff64b1eb43dc3fb5a</title>
<g id="a_edge32"><a xlink:href="dir_000087_000083.html" target="_top">
<path fill="none" stroke="#63b8ff" d="M205.66,-188.66C185.08,-170.61 145.29,-129.28 125.78,-106.08"/>
<polygon fill="#63b8ff" stroke="#63b8ff" points="128.39,-103.74 119.38,-98.16 122.94,-108.14 128.39,-103.74"/>
</a>
</g>
<g id="a_edge32&#45;headlabel"><a xlink:href="dir_000087_000083.html" target="_top" xlink:title="22">
<text text-anchor="middle" x="132.86" y="-102.25" font-family="Helvetica,sans-Serif" font-size="10.00" fill="#63b8ff">22</text>
</a>
</g>
</g>
<!-- dir_cce1e74d6889f0f8c282b81d2e706218&#45;&gt;dir_cbc9327ef122fb9d2e3099bcf15f379f -->
<g id="edge33" class="edge">
<title>dir_cce1e74d6889f0f8c282b81d2e706218&#45;&gt;dir_cbc9327ef122fb9d2e3099bcf15f379f</title>
<g id="a_edge33"><a xlink:href="dir_000087_000100.html" target="_top">
<path fill="none" stroke="#63b8ff" d="M238.2,-188.91C252.47,-181.64 270.51,-169.71 279,-153 287.66,-135.96 276.56,-81.93 269.69,-53.08"/>
<polygon fill="#63b8ff" stroke="#63b8ff" points="273.02,-51.94 267.23,-43.06 266.22,-53.61 273.02,-51.94"/>
</a>
</g>
<g id="a_edge33&#45;headlabel"><a xlink:href="dir_000087_000100.html" target="_top" xlink:title="25">
<text text-anchor="middle" x="276.63" y="-52.26" font-family="Helvetica,sans-Serif" font-size="10.00" fill="#63b8ff">25</text>
</a>
</g>
</g>
<!-- dir_cce1e74d6889f0f8c282b81d2e706218&#45;&gt;dir_9f42d488f21f30bdc75c62948fa574ea -->
<g id="edge31" class="edge">
<title>dir_cce1e74d6889f0f8c282b81d2e706218&#45;&gt;dir_9f42d488f21f30bdc75c62948fa574ea</title>
<g id="a_edge31"><a xlink:href="dir_000087_000127.html" target="_top">
<path fill="none" stroke="#63b8ff" d="M211.21,-208.17C201.7,-216.37 184.86,-228.81 170.43,-238.42"/>
<polygon fill="#63b8ff" stroke="#63b8ff" points="168.33,-235.61 161.84,-243.98 172.14,-241.49 168.33,-235.61"/>
</a>
</g>
<g id="a_edge31&#45;headlabel"><a xlink:href="dir_000087_000127.html" target="_top" xlink:title="27">
<text text-anchor="middle" x="169.81" y="-228.77" font-family="Helvetica,sans-Serif" font-size="10.00" fill="#63b8ff">27</text>
</a>
</g>
</g>
<!-- dir_cbc9327ef122fb9d2e3099bcf15f379f&#45;&gt;dir_9f42d488f21f30bdc75c62948fa574ea -->
<g id="edge35" class="edge">
<title>dir_cbc9327ef122fb9d2e3099bcf15f379f&#45;&gt;dir_9f42d488f21f30bdc75c62948fa574ea</title>
<g id="a_edge35"><a xlink:href="dir_000100_000127.html" target="_top">
<path fill="none" stroke="#63b8ff" d="M261.56,-43.15C246.43,-65.5 194.25,-127.7 168,-189 161.75,-203.59 158.14,-221.32 154.67,-234.32"/>
<polygon fill="#63b8ff" stroke="#63b8ff" points="151.3,-233.39 151.73,-243.97 157.99,-235.43 151.3,-233.39"/>
</a>
</g>
<g id="a_edge35&#45;headlabel"><a xlink:href="dir_000100_000127.html" target="_top" xlink:title="13">
<text text-anchor="middle" x="149.63" y="-226.62" font-family="Helvetica,sans-Serif" font-size="10.00" fill="#63b8ff">13</text>
</a>
</g>
</g>
<!-- dir_9f42d488f21f30bdc75c62948fa574ea&#45;&gt;dir_f2a03d151d5632e9cfdfcc5fe4223b5a -->
<g id="edge41" class="edge">
<title>dir_9f42d488f21f30bdc75c62948fa574ea&#45;&gt;dir_f2a03d151d5632e9cfdfcc5fe4223b5a</title>
<g id="a_edge41"><a xlink:href="dir_000127_000002.html" target="_top">
<path fill="none" stroke="#63b8ff" d="M157.79,-263.29C165.46,-271.99 173.57,-285.86 178,-299 182.91,-313.56 185.43,-330.82 185.31,-343.67"/>
<polygon fill="#63b8ff" stroke="#63b8ff" points="181.82,-343.4 184.52,-353.65 188.8,-343.96 181.82,-343.4"/>
</a>
</g>
<g id="a_edge41&#45;headlabel"><a xlink:href="dir_000127_000002.html" target="_top" xlink:title="1">
<text text-anchor="middle" x="179.28" y="-337.1" font-family="Helvetica,sans-Serif" font-size="10.00" fill="#63b8ff">1</text>
</a>
</g>
</g>
<!-- dir_9f42d488f21f30bdc75c62948fa574ea&#45;&gt;dir_228c2c271cc4cd9f4cc4d2c9e4cc379f -->
<g id="edge36" class="edge">
<title>dir_9f42d488f21f30bdc75c62948fa574ea&#45;&gt;dir_228c2c271cc4cd9f4cc4d2c9e4cc379f</title>
<g id="a_edge36"><a xlink:href="dir_000127_000006.html" target="_top">
<path fill="none" stroke="#63b8ff" d="M135.53,-243.79C117.47,-220.8 81.44,-156.27 63,-98 58.4,-83.46 55.58,-66.41 55.31,-53.64"/>
<polygon fill="#63b8ff" stroke="#63b8ff" points="58.82,-53.46 55.79,-43.3 51.83,-53.13 58.82,-53.46"/>
</a>
</g>
<g id="a_edge36&#45;headlabel"><a xlink:href="dir_000127_000006.html" target="_top" xlink:title="2">
<text text-anchor="middle" x="61.49" y="-54.68" font-family="Helvetica,sans-Serif" font-size="10.00" fill="#63b8ff">2</text>
</a>
</g>
</g>
<!-- dir_9f42d488f21f30bdc75c62948fa574ea&#45;&gt;dir_5f5962d46c0c2d5a2dbf0efb09269d04 -->
<g id="edge37" class="edge">
<title>dir_9f42d488f21f30bdc75c62948fa574ea&#45;&gt;dir_5f5962d46c0c2d5a2dbf0efb09269d04</title>
<g id="a_edge37"><a xlink:href="dir_000127_000071.html" target="_top">
<path fill="none" stroke="#63b8ff" d="M150.13,-263.09C151.64,-269.99 152.09,-279.93 151.49,-288.66"/>
<polygon fill="#63b8ff" stroke="#63b8ff" points="148,-288.38 150.17,-298.75 154.94,-289.29 148,-288.38"/>
</a>
</g>
<g id="a_edge37&#45;headlabel"><a xlink:href="dir_000127_000071.html" target="_top" xlink:title="1">
<text text-anchor="middle" x="145.65" y="-281.94" font-family="Helvetica,sans-Serif" font-size="10.00" fill="#63b8ff">1</text>
</a>
</g>
</g>
<!-- dir_9f42d488f21f30bdc75c62948fa574ea&#45;&gt;dir_acf644b39d60b4fff64b1eb43dc3fb5a -->
<g id="edge38" class="edge">
<title>dir_9f42d488f21f30bdc75c62948fa574ea&#45;&gt;dir_acf644b39d60b4fff64b1eb43dc3fb5a</title>
<g id="a_edge38"><a xlink:href="dir_000127_000083.html" target="_top">
<path fill="none" stroke="#63b8ff" d="M140.12,-243.74C131.27,-218.31 117.18,-144.08 113.99,-108.69"/>
<polygon fill="#63b8ff" stroke="#63b8ff" points="117.46,-108.07 113.35,-98.31 110.47,-108.5 117.46,-108.07"/>
</a>
</g>
<g id="a_edge38&#45;headlabel"><a xlink:href="dir_000127_000083.html" target="_top" xlink:title="1">
<text text-anchor="middle" x="120.52" y="-108.99" font-family="Helvetica,sans-Serif" font-size="10.00" fill="#63b8ff">1</text>
</a>
</g>
</g>
<!-- dir_9f42d488f21f30bdc75c62948fa574ea&#45;&gt;dir_cce1e74d6889f0f8c282b81d2e706218 -->
<g id="edge40" class="edge">
<title>dir_9f42d488f21f30bdc75c62948fa574ea&#45;&gt;dir_cce1e74d6889f0f8c282b81d2e706218</title>
<g id="a_edge40"><a xlink:href="dir_000127_000087.html" target="_top">
<path fill="none" stroke="#63b8ff" d="M151.61,-243.98C161.03,-235.84 177.84,-223.41 192.3,-213.76"/>
<polygon fill="#63b8ff" stroke="#63b8ff" points="194.43,-216.55 200.91,-208.17 190.62,-210.68 194.43,-216.55"/>
</a>
</g>
<g id="a_edge40&#45;headlabel"><a xlink:href="dir_000127_000087.html" target="_top" xlink:title="1">
<text text-anchor="middle" x="192.96" y="-218.39" font-family="Helvetica,sans-Serif" font-size="10.00" fill="#63b8ff">1</text>
</a>
</g>
</g>
<!-- dir_9f42d488f21f30bdc75c62948fa574ea&#45;&gt;dir_cbc9327ef122fb9d2e3099bcf15f379f -->
<g id="edge39" class="edge">
<title>dir_9f42d488f21f30bdc75c62948fa574ea&#45;&gt;dir_cbc9327ef122fb9d2e3099bcf15f379f</title>
<g id="a_edge39"><a xlink:href="dir_000127_000100.html" target="_top">
<path fill="none" stroke="#63b8ff" d="M139.98,-243.97C138.33,-231.48 142,-207.68 150,-189 173.89,-133.21 219.26,-76.67 245.6,-50.11"/>
<polygon fill="#63b8ff" stroke="#63b8ff" points="248.04,-52.62 252.8,-43.15 243.18,-47.58 248.04,-52.62"/>
</a>
</g>
<g id="a_edge39&#45;headlabel"><a xlink:href="dir_000127_000100.html" target="_top" xlink:title="2">
<text text-anchor="middle" x="247.43" y="-54.66" font-family="Helvetica,sans-Serif" font-size="10.00" fill="#63b8ff">2</text>
</a>
</g>
</g>
</g>
</svg>

<g id="navigator" transform="translate(0 0)" fill="#404254">
  <rect fill="#f2f5e9" fill-opacity="0.5" stroke="#606060" stroke-width=".5" x="0" y="0" width="60" height="60"/>
  <use id="zoomplus" xlink:href="#zoomPlus" x="17" y="9" onmousedown="handleZoom(evt,'in')"/>
  <use id="zoomminus" xlink:href="#zoomMin" x="42" y="9" onmousedown="handleZoom(evt,'out')"/>
  <use id="reset" xlink:href="#resetDef" x="30" y="36" onmousedown="handleReset()"/>
   <use id="arrowup" xlink:href="#arrowUp" x="0" y="0" onmousedown="handlePan(0,-1)"/>
  <use id="arrowright" xlink:href="#arrowRight" x="0" y="0" onmousedown="handlePan(1,0)"/>
  <use id="arrowdown" xlink:href="#arrowDown" x="0" y="0" onmousedown="handlePan(0,1)"/>
  <use id="arrowleft" xlink:href="#arrowLeft" x="0" y="0" onmousedown="handlePan(-1,0)"/>
</g>
<svg viewBox="0 0 15 15" width="100%" height="30px" preserveAspectRatio="xMaxYMin meet">
 <g id="arrow_out" transform="scale(0.3 0.3)">
  <a xlink:href="dir_f7a95b7257057fa18adfa4b3aabbe846_dep_org.svg" target="_base">
   <rect id="button" ry="5" rx="5" y="6" x="6" height="38" width="38"
        fill="#f2f5e9" fill-opacity="0.5" stroke="#606060" stroke-width="1.0"/>
   <path id="arrow"
     d="M 11.500037,31.436501 C 11.940474,20.09759 22.043105,11.32322 32.158766,21.979434 L 37.068811,17.246167 C 37.068811,17.246167 37.088388,32 37.088388,32 L 22.160133,31.978069 C 22.160133,31.978069 26.997745,27.140456 26.997745,27.140456 C 18.528582,18.264221 13.291696,25.230495 11.500037,31.436501 z"
     style="fill:#404040;"/>
  </a>
 </g>
</svg>

<style type='text/css'>
<![CDATA[
[data-mouse-over-selected='false'] { opacity: 0.7; }
[data-mouse-over-selected='true']  { opacity: 1.0; }
]]>
</style>
<script type="application/ecmascript"><![CDATA[
document.addEventListener('DOMContentLoaded', (event) => {
  highlightEdges();
  highlightAdjacentNodes();
});
]]></script>
</svg>
