<?xml version="1.0" encoding="UTF-8" standalone="no"?>
<!DOCTYPE svg PUBLIC "-//W3C//DTD SVG 1.1//EN"
 "http://www.w3.org/Graphics/SVG/1.1/DTD/svg11.dtd">
<!-- Generated by graphviz version 2.43.0 (0)
 -->
<!-- Title: components/input/wmtk/components/input Pages: 1 -->
<svg width="157pt" height="180pt"
 viewBox="0.00 0.00 157.00 180.00" xmlns="http://www.w3.org/2000/svg" xmlns:xlink="http://www.w3.org/1999/xlink">
<g id="graph0" class="graph" transform="scale(1 1) rotate(0) translate(4 176)">
<title>components/input/wmtk/components/input</title>
<g id="clust1" class="cluster">
<title>clusterdir_3618e291d42a7181da498bf02491fa8c</title>
<g id="a_clust1"><a xlink:href="dir_3618e291d42a7181da498bf02491fa8c.html" target="_top" xlink:title="components">
<polygon fill="#edf0f7" stroke="#7f7f7f" stroke-dasharray="5,2" points="8,-39 8,-164 141,-164 141,-39 8,-39"/>
<text text-anchor="middle" x="74.5" y="-152" font-family="Helvetica,sans-Serif" font-size="10.00">components</text>
</a>
</g>
</g>
<g id="clust2" class="cluster">
<title>clusterdir_d9097221194ed9e6db2f4b619e3649e0</title>
<g id="a_clust2"><a xlink:href="dir_d9097221194ed9e6db2f4b619e3649e0.html" target="_top">
<polygon fill="#edf0f7" stroke="#404040" stroke-width="2" points="16,-47 16,-137 133,-137 133,-47 16,-47"/>
</a>
</g>
</g>
<!-- dir_d9097221194ed9e6db2f4b619e3649e0 -->
<g id="node1" class="node">
<title>dir_d9097221194ed9e6db2f4b619e3649e0</title>
<text text-anchor="middle" x="45" y="-117" font-family="Helvetica,sans-Serif" font-size="10.00">input</text>
</g>
<!-- dir_68267d1309a1af8e8297ef4c3efbcdba -->
<g id="node4" class="node">
<title>dir_68267d1309a1af8e8297ef4c3efbcdba</title>
<g id="a_node4"><a xlink:href="dir_68267d1309a1af8e8297ef4c3efbcdba.html" target="_top" xlink:title="src">
<polygon fill="#edf0f7" stroke="red" points="58.5,-19 27.5,-19 27.5,0 58.5,0 58.5,-19"/>
<text text-anchor="middle" x="43" y="-7" font-family="Helvetica,sans-Serif" font-size="10.00">src</text>
</a>
</g>
</g>
<!-- dir_d9097221194ed9e6db2f4b619e3649e0&#45;&gt;dir_68267d1309a1af8e8297ef4c3efbcdba -->
<g id="edge1" class="edge">
<title>dir_d9097221194ed9e6db2f4b619e3649e0&#45;&gt;dir_68267d1309a1af8e8297ef4c3efbcdba</title>
<g id="a_edge1"><a xlink:href="dir_000053_000101.html" target="_top">
<path fill="none" stroke="#63b8ff" d="M40.89,-109.88C36.94,-101.09 31.26,-86.94 29,-74 26.33,-58.68 25.48,-54.15 29,-39 29.85,-35.35 31.24,-31.62 32.82,-28.12"/>
<polygon fill="#63b8ff" stroke="#63b8ff" points="36,-29.58 37.49,-19.09 29.78,-26.37 36,-29.58"/>
</a>
</g>
<g id="a_edge1&#45;headlabel"><a xlink:href="dir_000053_000101.html" target="_top" xlink:title="8">
<text text-anchor="middle" x="36.87" y="-31.58" font-family="Helvetica,sans-Serif" font-size="10.00" fill="#63b8ff">8</text>
</a>
</g>
</g>
<!-- dir_5277b0da1d17c413d4514308e455881e -->
<g id="node2" class="node">
<title>dir_5277b0da1d17c413d4514308e455881e</title>
<g id="a_node2"><a xlink:href="dir_5277b0da1d17c413d4514308e455881e.html" target="_top" xlink:title="internal">
<polygon fill="#a2b4d6" stroke="#404040" points="125,-74 71,-74 71,-55 125,-55 125,-74"/>
<text text-anchor="middle" x="98" y="-62" font-family="Helvetica,sans-Serif" font-size="10.00">internal</text>
</a>
</g>
</g>
<!-- dir_5277b0da1d17c413d4514308e455881e&#45;&gt;dir_68267d1309a1af8e8297ef4c3efbcdba -->
<g id="edge3" class="edge">
<title>dir_5277b0da1d17c413d4514308e455881e&#45;&gt;dir_68267d1309a1af8e8297ef4c3efbcdba</title>
<g id="a_edge3"><a xlink:href="dir_000056_000101.html" target="_top">
<path fill="none" stroke="#63b8ff" d="M88.92,-54.75C80.91,-47.03 69.04,-35.6 59.38,-26.28"/>
<polygon fill="#63b8ff" stroke="#63b8ff" points="61.54,-23.51 51.91,-19.09 56.69,-28.55 61.54,-23.51"/>
</a>
</g>
<g id="a_edge3&#45;headlabel"><a xlink:href="dir_000056_000101.html" target="_top" xlink:title="2">
<text text-anchor="middle" x="66.1" y="-21.46" font-family="Helvetica,sans-Serif" font-size="10.00" fill="#63b8ff">2</text>
</a>
</g>
</g>
<!-- dir_141255b66ec4604466b3430e281cf831 -->
<g id="node5" class="node">
<title>dir_141255b66ec4604466b3430e281cf831</title>
<g id="a_node5"><a xlink:href="dir_141255b66ec4604466b3430e281cf831.html" target="_top" xlink:title="utils">
<polygon fill="#edf0f7" stroke="red" stroke-dasharray="5,2" points="117,-19 79,-19 79,0 117,0 117,-19"/>
<text text-anchor="middle" x="98" y="-7" font-family="Helvetica,sans-Serif" font-size="10.00">utils</text>
</a>
</g>
</g>
<!-- dir_5277b0da1d17c413d4514308e455881e&#45;&gt;dir_141255b66ec4604466b3430e281cf831 -->
<g id="edge2" class="edge">
<title>dir_5277b0da1d17c413d4514308e455881e&#45;&gt;dir_141255b66ec4604466b3430e281cf831</title>
<g id="a_edge2"><a xlink:href="dir_000056_000119.html" target="_top">
<path fill="none" stroke="#63b8ff" d="M98,-54.75C98,-47.8 98,-37.85 98,-29.13"/>
<polygon fill="#63b8ff" stroke="#63b8ff" points="101.5,-29.09 98,-19.09 94.5,-29.09 101.5,-29.09"/>
</a>
</g>
<g id="a_edge2&#45;headlabel"><a xlink:href="dir_000056_000119.html" target="_top" xlink:title="1">
<text text-anchor="middle" x="104.34" y="-30.18" font-family="Helvetica,sans-Serif" font-size="10.00" fill="#63b8ff">1</text>
</a>
</g>
</g>
<!-- dir_6e0802c499c6666be51cc2b7c20ce938 -->
<g id="node3" class="node">
<title>dir_6e0802c499c6666be51cc2b7c20ce938</title>
<g id="a_node3"><a xlink:href="dir_6e0802c499c6666be51cc2b7c20ce938.html" target="_top" xlink:title="tests">
<polygon fill="#a2b4d6" stroke="#404040" points="124.5,-129 83.5,-129 83.5,-110 124.5,-110 124.5,-129"/>
<text text-anchor="middle" x="104" y="-117" font-family="Helvetica,sans-Serif" font-size="10.00">tests</text>
</a>
</g>
</g>
<!-- dir_6e0802c499c6666be51cc2b7c20ce938&#45;&gt;dir_5277b0da1d17c413d4514308e455881e -->
<g id="edge4" class="edge">
<title>dir_6e0802c499c6666be51cc2b7c20ce938&#45;&gt;dir_5277b0da1d17c413d4514308e455881e</title>
<g id="a_edge4"><a xlink:href="dir_000105_000056.html" target="_top">
<path fill="none" stroke="#63b8ff" d="M103.01,-109.75C102.22,-102.8 101.1,-92.85 100.11,-84.13"/>
<polygon fill="#63b8ff" stroke="#63b8ff" points="103.58,-83.63 98.97,-74.09 96.62,-84.42 103.58,-83.63"/>
</a>
</g>
<g id="a_edge4&#45;headlabel"><a xlink:href="dir_000105_000056.html" target="_top" xlink:title="1">
<text text-anchor="middle" x="106.8" y="-84.38" font-family="Helvetica,sans-Serif" font-size="10.00" fill="#63b8ff">1</text>
</a>
</g>
</g>
<!-- dir_6e0802c499c6666be51cc2b7c20ce938&#45;&gt;dir_68267d1309a1af8e8297ef4c3efbcdba -->
<g id="edge5" class="edge">
<title>dir_6e0802c499c6666be51cc2b7c20ce938&#45;&gt;dir_68267d1309a1af8e8297ef4c3efbcdba</title>
<g id="a_edge5"><a xlink:href="dir_000105_000101.html" target="_top">
<path fill="none" stroke="#63b8ff" d="M93.21,-109.68C83.72,-101.39 70.18,-88.17 62,-74 53.99,-60.13 49.07,-42.56 46.25,-29.43"/>
<polygon fill="#63b8ff" stroke="#63b8ff" points="49.62,-28.38 44.29,-19.22 42.74,-29.71 49.62,-28.38"/>
</a>
</g>
<g id="a_edge5&#45;headlabel"><a xlink:href="dir_000105_000101.html" target="_top" xlink:title="2">
<text text-anchor="middle" x="53.08" y="-28.88" font-family="Helvetica,sans-Serif" font-size="10.00" fill="#63b8ff">2</text>
</a>
</g>
</g>
</g>
</svg>
