<?xml version="1.0" encoding="UTF-8" standalone="no"?>
<!DOCTYPE svg PUBLIC "-//W3C//DTD SVG 1.1//EN"
 "http://www.w3.org/Graphics/SVG/1.1/DTD/svg11.dtd">
<!-- Generated by graphviz version 2.43.0 (0)
 -->
<!-- Title: components/multimesh Pages: 1 -->
<svg width="220pt" height="141pt"
 viewBox="0.00 0.00 219.50 141.00" xmlns="http://www.w3.org/2000/svg" xmlns:xlink="http://www.w3.org/1999/xlink">
<g id="graph0" class="graph" transform="scale(1 1) rotate(0) translate(4 137)">
<title>components/multimesh</title>
<g id="clust1" class="cluster">
<title>clusterdir_409f97388efe006bc3438b95e9edef48</title>
<g id="a_clust1"><a xlink:href="dir_409f97388efe006bc3438b95e9edef48.html" target="_top" xlink:title="components">
<polygon fill="#edf0f7" stroke="#404040" stroke-dasharray="5,2" points="8,-8 8,-125 172,-125 172,-8 8,-8"/>
<text text-anchor="middle" x="90" y="-113" font-family="Helvetica,sans-Serif" font-size="10.00">components</text>
</a>
</g>
</g>
<g id="clust2" class="cluster">
<title>clusterdir_70e3a2ee9e25893df7f24c6156c1d472</title>
<g id="a_clust2"><a xlink:href="dir_70e3a2ee9e25893df7f24c6156c1d472.html" target="_top">
<polygon fill="#edf0f7" stroke="#404040" stroke-width="2" points="16,-63 16,-98 164,-98 164,-63 16,-63"/>
</a>
</g>
</g>
<!-- dir_141255b66ec4604466b3430e281cf831 -->
<g id="node1" class="node">
<title>dir_141255b66ec4604466b3430e281cf831</title>
<g id="a_node1"><a xlink:href="dir_141255b66ec4604466b3430e281cf831.html" target="_top" xlink:title="utils">
<polygon fill="#a2b4d6" stroke="red" points="65,-35 27,-35 27,-16 65,-16 65,-35"/>
<text text-anchor="middle" x="46" y="-23" font-family="Helvetica,sans-Serif" font-size="10.00">utils</text>
</a>
</g>
</g>
<!-- dir_70e3a2ee9e25893df7f24c6156c1d472 -->
<g id="node2" class="node">
<title>dir_70e3a2ee9e25893df7f24c6156c1d472</title>
<text text-anchor="middle" x="121" y="-78" font-family="Helvetica,sans-Serif" font-size="10.00">multimesh</text>
</g>
<!-- dir_babc65c045b073128d9dd114f0a0ab0c -->
<g id="node3" class="node">
<title>dir_babc65c045b073128d9dd114f0a0ab0c</title>
<g id="a_node3"><a xlink:href="dir_babc65c045b073128d9dd114f0a0ab0c.html" target="_top" xlink:title="wmtk">
<polygon fill="#a2b4d6" stroke="#404040" points="68,-90 24,-90 24,-71 68,-71 68,-90"/>
<text text-anchor="middle" x="46" y="-78" font-family="Helvetica,sans-Serif" font-size="10.00">wmtk</text>
</a>
</g>
</g>
<!-- dir_babc65c045b073128d9dd114f0a0ab0c&#45;&gt;dir_141255b66ec4604466b3430e281cf831 -->
<g id="edge1" class="edge">
<title>dir_babc65c045b073128d9dd114f0a0ab0c&#45;&gt;dir_141255b66ec4604466b3430e281cf831</title>
<g id="a_edge1"><a xlink:href="dir_000144_000119.html" target="_top">
<path fill="none" stroke="#63b8ff" d="M46,-70.75C46,-63.8 46,-53.85 46,-45.13"/>
<polygon fill="#63b8ff" stroke="#63b8ff" points="49.5,-45.09 46,-35.09 42.5,-45.09 49.5,-45.09"/>
</a>
</g>
<g id="a_edge1&#45;headlabel"><a xlink:href="dir_000144_000119.html" target="_top" xlink:title="1">
<text text-anchor="middle" x="52.34" y="-46.18" font-family="Helvetica,sans-Serif" font-size="10.00" fill="#63b8ff">1</text>
</a>
</g>
</g>
<!-- dir_68267d1309a1af8e8297ef4c3efbcdba -->
<g id="node4" class="node">
<title>dir_68267d1309a1af8e8297ef4c3efbcdba</title>
<g id="a_node4"><a xlink:href="dir_68267d1309a1af8e8297ef4c3efbcdba.html" target="_top" xlink:title="src">
<polygon fill="#edf0f7" stroke="red" points="211.5,-35 180.5,-35 180.5,-16 211.5,-16 211.5,-35"/>
<text text-anchor="middle" x="196" y="-23" font-family="Helvetica,sans-Serif" font-size="10.00">src</text>
</a>
</g>
</g>
<!-- dir_babc65c045b073128d9dd114f0a0ab0c&#45;&gt;dir_68267d1309a1af8e8297ef4c3efbcdba -->
<g id="edge2" class="edge">
<title>dir_babc65c045b073128d9dd114f0a0ab0c&#45;&gt;dir_68267d1309a1af8e8297ef4c3efbcdba</title>
<g id="a_edge2"><a xlink:href="dir_000144_000101.html" target="_top">
<path fill="none" stroke="#63b8ff" d="M61.01,-70.98C66.28,-68.2 72.31,-65.26 78,-63 116.99,-47.55 131.18,-49.66 170.41,-36.77"/>
<polygon fill="#63b8ff" stroke="#63b8ff" points="172.02,-39.92 180.35,-33.37 169.76,-33.3 172.02,-39.92"/>
</a>
</g>
<g id="a_edge2&#45;headlabel"><a xlink:href="dir_000144_000101.html" target="_top" xlink:title="6">
<text text-anchor="middle" x="169.54" y="-41.27" font-family="Helvetica,sans-Serif" font-size="10.00" fill="#63b8ff">6</text>
</a>
</g>
</g>
</g>
</svg>
