<?xml version="1.0" encoding="UTF-8" standalone="no"?>
<!DOCTYPE svg PUBLIC "-//W3C//DTD SVG 1.1//EN"
 "http://www.w3.org/Graphics/SVG/1.1/DTD/svg11.dtd">
<!-- Generated by graphviz version 2.43.0 (0)
 -->
<!-- Title: src/wmtk/simplex/faces.hpp Pages: 1 -->
<svg width="1442pt" height="115pt"
 viewBox="0.00 0.00 1441.50 115.00" xmlns="http://www.w3.org/2000/svg" xmlns:xlink="http://www.w3.org/1999/xlink">
<g id="graph0" class="graph" transform="scale(1 1) rotate(0) translate(4 111)">
<title>src/wmtk/simplex/faces.hpp</title>
<!-- Node1 -->
<g id="Node000001" class="node">
<title>Node1</title>
<g id="a_Node000001"><a xlink:title=" ">
<polygon fill="#999999" stroke="#666666" points="812,-107 658,-107 658,-88 812,-88 812,-107"/>
<text text-anchor="middle" x="735" y="-95" font-family="Helvetica,sans-Serif" font-size="10.00">src/wmtk/simplex/faces.hpp</text>
</a>
</g>
</g>
<!-- Node2 -->
<g id="Node000002" class="node">
<title>Node2</title>
<g id="a_Node000002"><a xlink:href="_regular_space_8cpp.html" target="_top" xlink:title=" ">
<polygon fill="white" stroke="#666666" points="144,-52 0,-52 0,0 144,0 144,-52"/>
<text text-anchor="start" x="8" y="-40" font-family="Helvetica,sans-Serif" font-size="10.00">components/regular</text>
<text text-anchor="start" x="8" y="-29" font-family="Helvetica,sans-Serif" font-size="10.00">_space/wmtk/components</text>
<text text-anchor="start" x="8" y="-18" font-family="Helvetica,sans-Serif" font-size="10.00">/regular_space/internal</text>
<text text-anchor="middle" x="72" y="-7" font-family="Helvetica,sans-Serif" font-size="10.00">/RegularSpace.cpp</text>
</a>
</g>
</g>
<!-- Node1&#45;&gt;Node2 -->
<g id="edge1_Node000001_Node000002" class="edge">
<title>Node1&#45;&gt;Node2</title>
<g id="a_edge1_Node000001_Node000002"><a xlink:title=" ">
<path fill="none" stroke="#63b8ff" d="M647.43,-95.86C532.84,-93.65 326.22,-84.93 153,-52 150.11,-51.45 147.17,-50.83 144.22,-50.16"/>
<polygon fill="#63b8ff" stroke="#63b8ff" points="647.49,-99.36 657.55,-96.05 647.62,-92.37 647.49,-99.36"/>
</a>
</g>
</g>
<!-- Node3 -->
<g id="Node000003" class="node">
<title>Node3</title>
<g id="a_Node000003"><a xlink:href="_tet_mesh_operation_executor_8cpp.html" target="_top" xlink:title=" ">
<polygon fill="white" stroke="#666666" points="315.5,-41 162.5,-41 162.5,-11 315.5,-11 315.5,-41"/>
<text text-anchor="start" x="170.5" y="-29" font-family="Helvetica,sans-Serif" font-size="10.00">src/wmtk/TetMeshOperation</text>
<text text-anchor="middle" x="239" y="-18" font-family="Helvetica,sans-Serif" font-size="10.00">Executor.cpp</text>
</a>
</g>
</g>
<!-- Node1&#45;&gt;Node3 -->
<g id="edge2_Node000001_Node000003" class="edge">
<title>Node1&#45;&gt;Node3</title>
<g id="a_edge2_Node000001_Node000003"><a xlink:title=" ">
<path fill="none" stroke="#63b8ff" d="M647.49,-91.45C564.02,-85.58 435.07,-73.8 325,-52 310.82,-49.19 295.59,-45.12 281.95,-41.08"/>
<polygon fill="#63b8ff" stroke="#63b8ff" points="647.48,-94.95 657.69,-92.15 647.96,-87.97 647.48,-94.95"/>
</a>
</g>
</g>
<!-- Node4 -->
<g id="Node000004" class="node">
<title>Node4</title>
<g id="a_Node000004"><a xlink:href="_tri_mesh_operation_executor_8cpp.html" target="_top" xlink:title=" ">
<polygon fill="white" stroke="#666666" points="484,-41 334,-41 334,-11 484,-11 484,-41"/>
<text text-anchor="start" x="342" y="-29" font-family="Helvetica,sans-Serif" font-size="10.00">src/wmtk/TriMeshOperation</text>
<text text-anchor="middle" x="409" y="-18" font-family="Helvetica,sans-Serif" font-size="10.00">Executor.cpp</text>
</a>
</g>
</g>
<!-- Node1&#45;&gt;Node4 -->
<g id="edge3_Node000001_Node000004" class="edge">
<title>Node1&#45;&gt;Node4</title>
<g id="a_edge3_Node000001_Node000004"><a xlink:title=" ">
<path fill="none" stroke="#63b8ff" d="M668.77,-86.29C619.9,-78.28 551.95,-66.15 493,-52 479.83,-48.84 465.67,-44.85 452.79,-41"/>
<polygon fill="#63b8ff" stroke="#63b8ff" points="668.46,-89.79 678.89,-87.94 669.58,-82.88 668.46,-89.79"/>
</a>
</g>
</g>
<!-- Node5 -->
<g id="Node000005" class="node">
<title>Node5</title>
<g id="a_Node000005"><a xlink:href="closed__star_8cpp.html" target="_top" xlink:title=" ">
<polygon fill="white" stroke="#666666" points="640,-41 502,-41 502,-11 640,-11 640,-41"/>
<text text-anchor="start" x="510" y="-29" font-family="Helvetica,sans-Serif" font-size="10.00">src/wmtk/simplex/closed</text>
<text text-anchor="middle" x="571" y="-18" font-family="Helvetica,sans-Serif" font-size="10.00">_star.cpp</text>
</a>
</g>
</g>
<!-- Node1&#45;&gt;Node5 -->
<g id="edge4_Node000001_Node000005" class="edge">
<title>Node1&#45;&gt;Node5</title>
<g id="a_edge4_Node000001_Node000005"><a xlink:title=" ">
<path fill="none" stroke="#63b8ff" d="M705.45,-83.98C676.9,-71.88 633.73,-53.58 604.05,-41.01"/>
<polygon fill="#63b8ff" stroke="#63b8ff" points="704.32,-87.3 714.89,-87.98 707.05,-80.85 704.32,-87.3"/>
</a>
</g>
</g>
<!-- Node6 -->
<g id="Node000006" class="node">
<title>Node6</title>
<g id="a_Node000006"><a xlink:href="faces_8cpp.html" target="_top" xlink:title=" ">
<polygon fill="white" stroke="#666666" points="811.5,-35.5 658.5,-35.5 658.5,-16.5 811.5,-16.5 811.5,-35.5"/>
<text text-anchor="middle" x="735" y="-23.5" font-family="Helvetica,sans-Serif" font-size="10.00">src/wmtk/simplex/faces.cpp</text>
</a>
</g>
</g>
<!-- Node1&#45;&gt;Node6 -->
<g id="edge5_Node000001_Node000006" class="edge">
<title>Node1&#45;&gt;Node6</title>
<g id="a_edge5_Node000001_Node000006"><a xlink:title=" ">
<path fill="none" stroke="#63b8ff" d="M735,-77.71C735,-64 735,-46.05 735,-35.59"/>
<polygon fill="#63b8ff" stroke="#63b8ff" points="731.5,-77.98 735,-87.98 738.5,-77.98 731.5,-77.98"/>
</a>
</g>
</g>
<!-- Node7 -->
<g id="Node000007" class="node">
<title>Node7</title>
<g id="a_Node000007"><a xlink:href="_faces_iterable_8cpp.html" target="_top" xlink:title=" ">
<polygon fill="white" stroke="#666666" points="974,-41 830,-41 830,-11 974,-11 974,-41"/>
<text text-anchor="start" x="838" y="-29" font-family="Helvetica,sans-Serif" font-size="10.00">src/wmtk/simplex/iterable</text>
<text text-anchor="middle" x="902" y="-18" font-family="Helvetica,sans-Serif" font-size="10.00">/FacesIterable.cpp</text>
</a>
</g>
</g>
<!-- Node1&#45;&gt;Node7 -->
<g id="edge6_Node000001_Node000007" class="edge">
<title>Node1&#45;&gt;Node7</title>
<g id="a_edge6_Node000001_Node000007"><a xlink:title=" ">
<path fill="none" stroke="#63b8ff" d="M764.71,-84.13C793.78,-72.04 837.99,-53.64 868.34,-41.01"/>
<polygon fill="#63b8ff" stroke="#63b8ff" points="763.37,-80.9 755.48,-87.98 766.05,-87.37 763.37,-80.9"/>
</a>
</g>
</g>
<!-- Node8 -->
<g id="Node000008" class="node">
<title>Node8</title>
<g id="a_Node000008"><a xlink:href="link_8cpp.html" target="_top" xlink:title=" ">
<polygon fill="white" stroke="#666666" points="1137.5,-35.5 992.5,-35.5 992.5,-16.5 1137.5,-16.5 1137.5,-35.5"/>
<text text-anchor="middle" x="1065" y="-23.5" font-family="Helvetica,sans-Serif" font-size="10.00">src/wmtk/simplex/link.cpp</text>
</a>
</g>
</g>
<!-- Node1&#45;&gt;Node8 -->
<g id="edge7_Node000001_Node000008" class="edge">
<title>Node1&#45;&gt;Node8</title>
<g id="a_edge7_Node000001_Node000008"><a xlink:title=" ">
<path fill="none" stroke="#63b8ff" d="M803.84,-86.39C853.87,-78.5 923.03,-66.47 983,-52 1002.24,-47.36 1023.62,-40.79 1039.73,-35.55"/>
<polygon fill="#63b8ff" stroke="#63b8ff" points="803.12,-82.96 793.78,-87.96 804.2,-89.88 803.12,-82.96"/>
</a>
</g>
</g>
<!-- Node9 -->
<g id="Node000009" class="node">
<title>Node9</title>
<g id="a_Node000009"><a xlink:href="link__single__dimension_8cpp.html" target="_top" xlink:title=" ">
<polygon fill="white" stroke="#666666" points="1284,-41 1156,-41 1156,-11 1284,-11 1284,-41"/>
<text text-anchor="start" x="1164" y="-29" font-family="Helvetica,sans-Serif" font-size="10.00">src/wmtk/simplex/link</text>
<text text-anchor="middle" x="1220" y="-18" font-family="Helvetica,sans-Serif" font-size="10.00">_single_dimension.cpp</text>
</a>
</g>
</g>
<!-- Node1&#45;&gt;Node9 -->
<g id="edge8_Node000001_Node000009" class="edge">
<title>Node1&#45;&gt;Node9</title>
<g id="a_edge8_Node000001_Node000009"><a xlink:title=" ">
<path fill="none" stroke="#63b8ff" d="M822.15,-92.71C906.18,-87.75 1036.49,-76.57 1147,-52 1159.29,-49.27 1172.4,-45.17 1184.07,-41.08"/>
<polygon fill="#63b8ff" stroke="#63b8ff" points="821.92,-89.22 812.14,-93.29 822.33,-96.21 821.92,-89.22"/>
</a>
</g>
</g>
<!-- Node10 -->
<g id="Node000010" class="node">
<title>Node10</title>
<g id="a_Node000010"><a xlink:href="open__star_8cpp.html" target="_top" xlink:title=" ">
<polygon fill="white" stroke="#666666" points="1433.5,-41 1302.5,-41 1302.5,-11 1433.5,-11 1433.5,-41"/>
<text text-anchor="start" x="1310.5" y="-29" font-family="Helvetica,sans-Serif" font-size="10.00">src/wmtk/simplex/open</text>
<text text-anchor="middle" x="1368" y="-18" font-family="Helvetica,sans-Serif" font-size="10.00">_star.cpp</text>
</a>
</g>
</g>
<!-- Node1&#45;&gt;Node10 -->
<g id="edge9_Node000001_Node000010" class="edge">
<title>Node1&#45;&gt;Node10</title>
<g id="a_edge9_Node000001_Node000010"><a xlink:title=" ">
<path fill="none" stroke="#63b8ff" d="M822.19,-96.05C932.78,-93.99 1128.85,-85.39 1293,-52 1305.91,-49.37 1319.69,-45.2 1331.86,-41.01"/>
<polygon fill="#63b8ff" stroke="#63b8ff" points="822.02,-92.55 812.08,-96.22 822.14,-99.55 822.02,-92.55"/>
</a>
</g>
</g>
</g>
</svg>
