<?xml version="1.0" encoding="UTF-8" standalone="no"?>
<!DOCTYPE svg PUBLIC "-//W3C//DTD SVG 1.1//EN"
 "http://www.w3.org/Graphics/SVG/1.1/DTD/svg11.dtd">
<!-- Generated by graphviz version 2.43.0 (0)
 -->
<!-- Title: components/utils/wmtk/components/utils/json_utils.hpp Pages: 1 -->
<svg width="872pt" height="203pt"
 viewBox="0.00 0.00 872.00 203.00" xmlns="http://www.w3.org/2000/svg" xmlns:xlink="http://www.w3.org/1999/xlink">
<g id="graph0" class="graph" transform="scale(1 1) rotate(0) translate(4 199)">
<title>components/utils/wmtk/components/utils/json_utils.hpp</title>
<!-- Node1 -->
<g id="Node000001" class="node">
<title>Node1</title>
<g id="a_Node000001"><a xlink:title=" ">
<polygon fill="#999999" stroke="#666666" points="523,-195 392,-195 392,-154 523,-154 523,-195"/>
<text text-anchor="start" x="400" y="-183" font-family="Helvetica,sans-Serif" font-size="10.00">components/utils/wmtk</text>
<text text-anchor="start" x="400" y="-172" font-family="Helvetica,sans-Serif" font-size="10.00">/components/utils/json</text>
<text text-anchor="middle" x="457.5" y="-161" font-family="Helvetica,sans-Serif" font-size="10.00">_utils.hpp</text>
</a>
</g>
</g>
<!-- Node2 -->
<g id="Node000002" class="node">
<title>Node2</title>
<g id="a_Node000002"><a xlink:href="_export_cache_options_8hpp.html" target="_top" xlink:title=" ">
<polygon fill="white" stroke="#666666" points="173,-118 0,-118 0,-77 173,-77 173,-118"/>
<text text-anchor="start" x="8" y="-106" font-family="Helvetica,sans-Serif" font-size="10.00">components/export_cache</text>
<text text-anchor="start" x="8" y="-95" font-family="Helvetica,sans-Serif" font-size="10.00">/wmtk/components/export</text>
<text text-anchor="middle" x="86.5" y="-84" font-family="Helvetica,sans-Serif" font-size="10.00">_cache/ExportCacheOptions.hpp</text>
</a>
</g>
</g>
<!-- Node1&#45;&gt;Node2 -->
<g id="edge1_Node000001_Node000002" class="edge">
<title>Node1&#45;&gt;Node2</title>
<g id="a_edge1_Node000001_Node000002"><a xlink:title=" ">
<path fill="none" stroke="#63b8ff" d="M381.87,-158.26C326.63,-147.13 249.91,-131.65 182.5,-118 179.42,-117.38 176.28,-116.74 173.11,-116.1"/>
<polygon fill="#63b8ff" stroke="#63b8ff" points="381.44,-161.75 391.93,-160.29 382.82,-154.88 381.44,-161.75"/>
</a>
</g>
</g>
<!-- Node4 -->
<g id="Node000004" class="node">
<title>Node4</title>
<g id="a_Node000004"><a xlink:href="_import_cache_options_8hpp.html" target="_top" xlink:title=" ">
<polygon fill="white" stroke="#666666" points="365.5,-118 191.5,-118 191.5,-77 365.5,-77 365.5,-118"/>
<text text-anchor="start" x="199.5" y="-106" font-family="Helvetica,sans-Serif" font-size="10.00">components/import_cache</text>
<text text-anchor="start" x="199.5" y="-95" font-family="Helvetica,sans-Serif" font-size="10.00">/wmtk/components/import</text>
<text text-anchor="middle" x="278.5" y="-84" font-family="Helvetica,sans-Serif" font-size="10.00">_cache/ImportCacheOptions.hpp</text>
</a>
</g>
</g>
<!-- Node1&#45;&gt;Node4 -->
<g id="edge3_Node000001_Node000004" class="edge">
<title>Node1&#45;&gt;Node4</title>
<g id="a_edge3_Node000001_Node000004"><a xlink:title=" ">
<path fill="none" stroke="#63b8ff" d="M401.4,-150C376.89,-139.72 348.47,-127.82 325.14,-118.04"/>
<polygon fill="#63b8ff" stroke="#63b8ff" points="400.36,-153.35 410.94,-153.99 403.07,-146.9 400.36,-153.35"/>
</a>
</g>
</g>
<!-- Node6 -->
<g id="Node000006" class="node">
<title>Node6</title>
<g id="a_Node000006"><a xlink:href="_input_options_8hpp.html" target="_top" xlink:title=" ">
<polygon fill="white" stroke="#666666" points="531.5,-118 383.5,-118 383.5,-77 531.5,-77 531.5,-118"/>
<text text-anchor="start" x="391.5" y="-106" font-family="Helvetica,sans-Serif" font-size="10.00">components/input/wmtk</text>
<text text-anchor="start" x="391.5" y="-95" font-family="Helvetica,sans-Serif" font-size="10.00">/components/input/internal</text>
<text text-anchor="middle" x="457.5" y="-84" font-family="Helvetica,sans-Serif" font-size="10.00">/InputOptions.hpp</text>
</a>
</g>
</g>
<!-- Node1&#45;&gt;Node6 -->
<g id="edge5_Node000001_Node000006" class="edge">
<title>Node1&#45;&gt;Node6</title>
<g id="a_edge5_Node000001_Node000006"><a xlink:title=" ">
<path fill="none" stroke="#63b8ff" d="M457.5,-143.69C457.5,-135.08 457.5,-125.9 457.5,-118.07"/>
<polygon fill="#63b8ff" stroke="#63b8ff" points="454,-143.79 457.5,-153.79 461,-143.79 454,-143.79"/>
</a>
</g>
</g>
<!-- Node7 -->
<g id="Node000007" class="node">
<title>Node7</title>
<g id="a_Node000007"><a xlink:href="_procedural_options_8hpp.html" target="_top" xlink:title=" ">
<polygon fill="white" stroke="#666666" points="715,-118 550,-118 550,-77 715,-77 715,-118"/>
<text text-anchor="start" x="558" y="-106" font-family="Helvetica,sans-Serif" font-size="10.00">components/procedural</text>
<text text-anchor="start" x="558" y="-95" font-family="Helvetica,sans-Serif" font-size="10.00">/wmtk/components/procedural</text>
<text text-anchor="middle" x="632.5" y="-84" font-family="Helvetica,sans-Serif" font-size="10.00">/ProceduralOptions.hpp</text>
</a>
</g>
</g>
<!-- Node1&#45;&gt;Node7 -->
<g id="edge6_Node000001_Node000007" class="edge">
<title>Node1&#45;&gt;Node7</title>
<g id="a_edge6_Node000001_Node000007"><a xlink:title=" ">
<path fill="none" stroke="#63b8ff" d="M512.34,-150C536.31,-139.72 564.09,-127.82 586.9,-118.04"/>
<polygon fill="#63b8ff" stroke="#63b8ff" points="510.84,-146.83 503.02,-153.99 513.59,-153.27 510.84,-146.83"/>
</a>
</g>
</g>
<!-- Node8 -->
<g id="Node000008" class="node">
<title>Node8</title>
<g id="a_Node000008"><a xlink:href="json__utils_8cpp.html" target="_top" xlink:title=" ">
<polygon fill="white" stroke="#666666" points="864,-118 733,-118 733,-77 864,-77 864,-118"/>
<text text-anchor="start" x="741" y="-106" font-family="Helvetica,sans-Serif" font-size="10.00">components/utils/wmtk</text>
<text text-anchor="start" x="741" y="-95" font-family="Helvetica,sans-Serif" font-size="10.00">/components/utils/json</text>
<text text-anchor="middle" x="798.5" y="-84" font-family="Helvetica,sans-Serif" font-size="10.00">_utils.cpp</text>
</a>
</g>
</g>
<!-- Node1&#45;&gt;Node8 -->
<g id="edge7_Node000001_Node000008" class="edge">
<title>Node1&#45;&gt;Node8</title>
<g id="a_edge7_Node000001_Node000008"><a xlink:title=" ">
<path fill="none" stroke="#63b8ff" d="M533.11,-158.89C586.7,-148.26 660.21,-133.14 724.5,-118 727.22,-117.36 729.98,-116.69 732.78,-116.01"/>
<polygon fill="#63b8ff" stroke="#63b8ff" points="532.13,-155.51 523,-160.89 533.49,-162.38 532.13,-155.51"/>
</a>
</g>
</g>
<!-- Node3 -->
<g id="Node000003" class="node">
<title>Node3</title>
<g id="a_Node000003"><a xlink:href="export__cache_8cpp.html" target="_top" xlink:title=" ">
<polygon fill="white" stroke="#666666" points="159,-41 14,-41 14,0 159,0 159,-41"/>
<text text-anchor="start" x="22" y="-29" font-family="Helvetica,sans-Serif" font-size="10.00">components/export_cache</text>
<text text-anchor="start" x="22" y="-18" font-family="Helvetica,sans-Serif" font-size="10.00">/wmtk/components/export</text>
<text text-anchor="middle" x="86.5" y="-7" font-family="Helvetica,sans-Serif" font-size="10.00">_cache/export_cache.cpp</text>
</a>
</g>
</g>
<!-- Node2&#45;&gt;Node3 -->
<g id="edge2_Node000002_Node000003" class="edge">
<title>Node2&#45;&gt;Node3</title>
<g id="a_edge2_Node000002_Node000003"><a xlink:title=" ">
<path fill="none" stroke="#63b8ff" d="M86.5,-66.69C86.5,-58.08 86.5,-48.9 86.5,-41.07"/>
<polygon fill="#63b8ff" stroke="#63b8ff" points="83,-66.79 86.5,-76.79 90,-66.79 83,-66.79"/>
</a>
</g>
</g>
<!-- Node5 -->
<g id="Node000005" class="node">
<title>Node5</title>
<g id="a_Node000005"><a xlink:href="import__cache_8cpp.html" target="_top" xlink:title=" ">
<polygon fill="white" stroke="#666666" points="351.5,-41 205.5,-41 205.5,0 351.5,0 351.5,-41"/>
<text text-anchor="start" x="213.5" y="-29" font-family="Helvetica,sans-Serif" font-size="10.00">components/import_cache</text>
<text text-anchor="start" x="213.5" y="-18" font-family="Helvetica,sans-Serif" font-size="10.00">/wmtk/components/import</text>
<text text-anchor="middle" x="278.5" y="-7" font-family="Helvetica,sans-Serif" font-size="10.00">_cache/import_cache.cpp</text>
</a>
</g>
</g>
<!-- Node4&#45;&gt;Node5 -->
<g id="edge4_Node000004_Node000005" class="edge">
<title>Node4&#45;&gt;Node5</title>
<g id="a_edge4_Node000004_Node000005"><a xlink:title=" ">
<path fill="none" stroke="#63b8ff" d="M278.5,-66.69C278.5,-58.08 278.5,-48.9 278.5,-41.07"/>
<polygon fill="#63b8ff" stroke="#63b8ff" points="275,-66.79 278.5,-76.79 282,-66.79 275,-66.79"/>
</a>
</g>
</g>
</g>
</svg>
