<?xml version="1.0" encoding="UTF-8" standalone="no"?>
<!DOCTYPE svg PUBLIC "-//W3C//DTD SVG 1.1//EN"
 "http://www.w3.org/Graphics/SVG/1.1/DTD/svg11.dtd">
<!-- Generated by graphviz version 2.43.0 (0)
 -->
<!-- Title: src/wmtk/simplex/k_ring.hpp Pages: 1 -->
<svg width="964pt" height="126pt"
 viewBox="0.00 0.00 964.00 126.00" xmlns="http://www.w3.org/2000/svg" xmlns:xlink="http://www.w3.org/1999/xlink">
<g id="graph0" class="graph" transform="scale(1 1) rotate(0) translate(4 122)">
<title>src/wmtk/simplex/k_ring.hpp</title>
<!-- Node1 -->
<g id="Node000001" class="node">
<title>Node1</title>
<g id="a_Node000001"><a xlink:title=" ">
<polygon fill="#999999" stroke="#666666" points="588,-118 475,-118 475,-88 588,-88 588,-118"/>
<text text-anchor="start" x="483" y="-106" font-family="Helvetica,sans-Serif" font-size="10.00">src/wmtk/simplex/k</text>
<text text-anchor="middle" x="531.5" y="-95" font-family="Helvetica,sans-Serif" font-size="10.00">_ring.hpp</text>
</a>
</g>
</g>
<!-- Node2 -->
<g id="Node000002" class="node">
<title>Node2</title>
<g id="a_Node000002"><a xlink:href="internal_2periodic__optimization_8cpp.html" target="_top" xlink:title=" ">
<polygon fill="white" stroke="#666666" points="177,-52 0,-52 0,0 177,0 177,-52"/>
<text text-anchor="start" x="8" y="-40" font-family="Helvetica,sans-Serif" font-size="10.00">components/periodic</text>
<text text-anchor="start" x="8" y="-29" font-family="Helvetica,sans-Serif" font-size="10.00">_optimization/wmtk/components</text>
<text text-anchor="start" x="8" y="-18" font-family="Helvetica,sans-Serif" font-size="10.00">/periodic_optimization/internal</text>
<text text-anchor="middle" x="88.5" y="-7" font-family="Helvetica,sans-Serif" font-size="10.00">/periodic_optimization.cpp</text>
</a>
</g>
</g>
<!-- Node1&#45;&gt;Node2 -->
<g id="edge1_Node000001_Node000002" class="edge">
<title>Node1&#45;&gt;Node2</title>
<g id="a_edge1_Node000001_Node000002"><a xlink:title=" ">
<path fill="none" stroke="#63b8ff" d="M464.84,-94.55C394.9,-86.22 281.92,-71.33 185.5,-52 182.77,-51.45 180.01,-50.88 177.22,-50.28"/>
<polygon fill="#63b8ff" stroke="#63b8ff" points="464.5,-98.03 474.84,-95.73 465.32,-91.08 464.5,-98.03"/>
</a>
</g>
</g>
<!-- Node3 -->
<g id="Node000003" class="node">
<title>Node3</title>
<g id="a_Node000003"><a xlink:href="wildmeshing_8cpp.html" target="_top" xlink:title=" ">
<polygon fill="white" stroke="#666666" points="370.5,-46.5 194.5,-46.5 194.5,-5.5 370.5,-5.5 370.5,-46.5"/>
<text text-anchor="start" x="202.5" y="-34.5" font-family="Helvetica,sans-Serif" font-size="10.00">components/wildmeshing</text>
<text text-anchor="start" x="202.5" y="-23.5" font-family="Helvetica,sans-Serif" font-size="10.00">/wmtk/components/wildmeshing</text>
<text text-anchor="middle" x="282.5" y="-12.5" font-family="Helvetica,sans-Serif" font-size="10.00">/wildmeshing.cpp</text>
</a>
</g>
</g>
<!-- Node1&#45;&gt;Node3 -->
<g id="edge2_Node000001_Node000003" class="edge">
<title>Node1&#45;&gt;Node3</title>
<g id="a_edge2_Node000001_Node000003"><a xlink:title=" ">
<path fill="none" stroke="#63b8ff" d="M475.11,-85.01C437.22,-73.6 387.18,-58.53 347.6,-46.61"/>
<polygon fill="#63b8ff" stroke="#63b8ff" points="474.37,-88.45 484.96,-87.98 476.39,-81.75 474.37,-88.45"/>
</a>
</g>
</g>
<!-- Node4 -->
<g id="Node000004" class="node">
<title>Node4</title>
<g id="a_Node000004"><a xlink:href="_scheduler_8cpp.html" target="_top" xlink:title=" ">
<polygon fill="white" stroke="#666666" points="520.5,-35.5 388.5,-35.5 388.5,-16.5 520.5,-16.5 520.5,-35.5"/>
<text text-anchor="middle" x="454.5" y="-23.5" font-family="Helvetica,sans-Serif" font-size="10.00">src/wmtk/Scheduler.cpp</text>
</a>
</g>
</g>
<!-- Node1&#45;&gt;Node4 -->
<g id="edge3_Node000001_Node000004" class="edge">
<title>Node1&#45;&gt;Node4</title>
<g id="a_edge3_Node000001_Node000004"><a xlink:title=" ">
<path fill="none" stroke="#63b8ff" d="M509.51,-80.58C494.3,-65.77 474.84,-46.81 463.61,-35.87"/>
<polygon fill="#63b8ff" stroke="#63b8ff" points="507.41,-83.42 517.02,-87.89 512.3,-78.41 507.41,-83.42"/>
</a>
</g>
</g>
<!-- Node5 -->
<g id="Node000005" class="node">
<title>Node5</title>
<g id="a_Node000005"><a xlink:href="_energy_filter_invariant_8cpp.html" target="_top" xlink:title=" ">
<polygon fill="white" stroke="#666666" points="680.5,-41 538.5,-41 538.5,-11 680.5,-11 680.5,-41"/>
<text text-anchor="start" x="546.5" y="-29" font-family="Helvetica,sans-Serif" font-size="10.00">src/wmtk/invariants</text>
<text text-anchor="middle" x="609.5" y="-18" font-family="Helvetica,sans-Serif" font-size="10.00">/EnergyFilterInvariant.cpp</text>
</a>
</g>
</g>
<!-- Node1&#45;&gt;Node5 -->
<g id="edge4_Node000001_Node000005" class="edge">
<title>Node1&#45;&gt;Node5</title>
<g id="a_edge4_Node000001_Node000005"><a xlink:title=" ">
<path fill="none" stroke="#63b8ff" d="M553.53,-80.82C566.77,-68.08 583.26,-52.24 594.89,-41.04"/>
<polygon fill="#63b8ff" stroke="#63b8ff" points="550.95,-78.44 546.17,-87.89 555.81,-83.48 550.95,-78.44"/>
</a>
</g>
</g>
<!-- Node6 -->
<g id="Node000006" class="node">
<title>Node6</title>
<g id="a_Node000006"><a xlink:href="_rounded_invariant_8cpp.html" target="_top" xlink:title=" ">
<polygon fill="white" stroke="#666666" points="824.5,-41 698.5,-41 698.5,-11 824.5,-11 824.5,-41"/>
<text text-anchor="start" x="706.5" y="-29" font-family="Helvetica,sans-Serif" font-size="10.00">src/wmtk/invariants</text>
<text text-anchor="middle" x="761.5" y="-18" font-family="Helvetica,sans-Serif" font-size="10.00">/RoundedInvariant.cpp</text>
</a>
</g>
</g>
<!-- Node1&#45;&gt;Node6 -->
<g id="edge5_Node000001_Node000006" class="edge">
<title>Node1&#45;&gt;Node6</title>
<g id="a_edge5_Node000001_Node000006"><a xlink:title=" ">
<path fill="none" stroke="#63b8ff" d="M586.48,-85.01C616.91,-75.51 655.37,-63.32 689.5,-52 699.92,-48.54 711.16,-44.7 721.58,-41.08"/>
<polygon fill="#63b8ff" stroke="#63b8ff" points="585.4,-81.68 576.9,-88 587.49,-88.36 585.4,-81.68"/>
</a>
</g>
</g>
<!-- Node7 -->
<g id="Node000007" class="node">
<title>Node7</title>
<g id="a_Node000007"><a xlink:href="k__ring_8cpp.html" target="_top" xlink:title=" ">
<polygon fill="white" stroke="#666666" points="956,-41 843,-41 843,-11 956,-11 956,-41"/>
<text text-anchor="start" x="851" y="-29" font-family="Helvetica,sans-Serif" font-size="10.00">src/wmtk/simplex/k</text>
<text text-anchor="middle" x="899.5" y="-18" font-family="Helvetica,sans-Serif" font-size="10.00">_ring.cpp</text>
</a>
</g>
</g>
<!-- Node1&#45;&gt;Node7 -->
<g id="edge6_Node000001_Node000007" class="edge">
<title>Node1&#45;&gt;Node7</title>
<g id="a_edge6_Node000001_Node000007"><a xlink:title=" ">
<path fill="none" stroke="#63b8ff" d="M598.15,-94.81C659.89,-87.25 753.9,-73.44 833.5,-52 844.38,-49.07 855.97,-45.02 866.35,-41.03"/>
<polygon fill="#63b8ff" stroke="#63b8ff" points="597.66,-91.35 588.15,-96.02 598.5,-98.3 597.66,-91.35"/>
</a>
</g>
</g>
</g>
</svg>
