<?xml version="1.0" encoding="UTF-8" standalone="no"?>
<!DOCTYPE svg PUBLIC "-//W3C//DTD SVG 1.1//EN"
 "http://www.w3.org/Graphics/SVG/1.1/DTD/svg11.dtd">
<!-- Generated by graphviz version 2.43.0 (0)
 -->
<!-- Title: src/wmtk/utils/mesh_type_from_primitive_type.hpp Pages: 1 -->
<!--zoomable 280 -->

<svg id="main" version="1.1" xmlns="http://www.w3.org/2000/svg" xmlns:xlink="http://www.w3.org/1999/xlink" xml:space="preserve" onload="init(evt)">
<style type="text/css"><![CDATA[
.node, .edge {opacity: 0.7;}
.node.selected, .edge.selected {opacity: 1;}
.edge:hover path { stroke: red; }
.edge:hover polygon { stroke: red; fill: red; }
]]></style>

<defs>
  <circle id="rim" cx="0" cy="0" r="7"/>
  <circle id="rim2" cx="0" cy="0" r="3.5"/>
  <g id="zoomPlus">
    <use xlink:href="#rim" fill="#404040"><set attributeName="fill" to="#808080" begin="zoomplus.mouseover" end="zoomplus.mouseout"/></use>
    <path d="M-4,0h8M0,-4v8" fill="none" stroke="white" stroke-width="1.5" pointer-events="none"/>
  </g>
  <g id="zoomMin">
    <use xlink:href="#rim" fill="#404040"><set attributeName="fill" to="#808080" begin="zoomminus.mouseover" end="zoomminus.mouseout"/></use>
    <path d="M-4,0h8" fill="none" stroke="white" stroke-width="1.5" pointer-events="none"/>
  </g>
  <g id="arrowUp" transform="translate(30 24)">
    <use xlink:href="#rim"/>
    <path pointer-events="none" fill="none" stroke="white" stroke-width="1.5" d="M0,-3.0v7 M-2.5,-0.5L0,-3.0L2.5,-0.5"/>
  </g>
  <g id="arrowRight" transform="rotate(90) translate(36 -43)">
    <use xlink:href="#rim"/>
    <path pointer-events="none" fill="none" stroke="white" stroke-width="1.5" d="M0,-3.0v7 M-2.5,-0.5L0,-3.0L2.5,-0.5"/>
  </g>
  <g id="arrowDown" transform="rotate(180) translate(-30 -48)">
    <use xlink:href="#rim"/>
    <path pointer-events="none" fill="none" stroke="white" stroke-width="1.5" d="M0,-3.0v7 M-2.5,-0.5L0,-3.0L2.5,-0.5"/>
  </g>
  <g id="arrowLeft" transform="rotate(270) translate(-36 17)">
    <use xlink:href="#rim"/>
    <path pointer-events="none" fill="none" stroke="white" stroke-width="1.5" d="M0,-3.0v7 M-2.5,-0.5L0,-3.0L2.5,-0.5"/>
  </g>
  <g id="resetDef">
    <use xlink:href="#rim2" fill="#404040"><set attributeName="fill" to="#808080" begin="reset.mouseover" end="reset.mouseout"/></use>
  </g>
</defs>
<script type="application/ecmascript">
var viewWidth = 2062;
var viewHeight = 280;
var sectionId = 'dynsection-1';
</script>
<script type="application/ecmascript" xlink:href="svg.min.js"/>
<svg id="graph" class="graph">
<g id="viewport">
<title>src/wmtk/utils/mesh_type_from_primitive_type.hpp</title>
<!-- Node1 -->
<g id="Node000001" class="node">
<title>Node1</title>
<g id="a_Node000001"><a xlink:title=" ">
<polygon fill="#999999" stroke="#666666" points="529.96,-272 407.96,-272 407.96,-231 529.96,-231 529.96,-272"/>
<text text-anchor="start" x="415.96" y="-260" font-family="Helvetica,sans-Serif" font-size="10.00">src/wmtk/utils/mesh</text>
<text text-anchor="start" x="415.96" y="-249" font-family="Helvetica,sans-Serif" font-size="10.00">_type_from_primitive</text>
<text text-anchor="middle" x="468.96" y="-238" font-family="Helvetica,sans-Serif" font-size="10.00">_type.hpp</text>
</a>
</g>
</g>
<!-- Node2 -->
<g id="Node000002" class="node">
<title>Node2</title>
<g id="a_Node000002"><a xlink:href="_multi_mesh_simplex_visitor_8hpp.html" target="_top" xlink:title=" ">
<polygon fill="white" stroke="#666666" points="495.96,-195 333.96,-195 333.96,-165 495.96,-165 495.96,-195"/>
<text text-anchor="start" x="341.96" y="-183" font-family="Helvetica,sans-Serif" font-size="10.00">src/wmtk/multimesh</text>
<text text-anchor="middle" x="414.96" y="-172" font-family="Helvetica,sans-Serif" font-size="10.00">/MultiMeshSimplexVisitor.hpp</text>
</a>
</g>
</g>
<!-- Node1&#45;&gt;Node2 -->
<g id="edge1_Node000001_Node000002" class="edge">
<title>Node1&#45;&gt;Node2</title>
<g id="a_edge1_Node000001_Node000002"><a xlink:title=" ">
<path fill="none" stroke="#63b8ff" d="M447.35,-222.69C439.98,-213.19 432.04,-202.98 425.87,-195.04"/>
<polygon fill="#63b8ff" stroke="#63b8ff" points="444.73,-225.02 453.63,-230.77 450.26,-220.73 444.73,-225.02"/>
</a>
</g>
</g>
<!-- Node10 -->
<g id="Node000010" class="node">
<title>Node10</title>
<g id="a_Node000010"><a xlink:href="_multi_mesh_visitor_8hpp.html" target="_top" xlink:title=" ">
<polygon fill="white" stroke="#666666" points="1139.96,-123.5 1017.96,-123.5 1017.96,-93.5 1139.96,-93.5 1139.96,-123.5"/>
<text text-anchor="start" x="1025.96" y="-111.5" font-family="Helvetica,sans-Serif" font-size="10.00">src/wmtk/multimesh</text>
<text text-anchor="middle" x="1078.96" y="-100.5" font-family="Helvetica,sans-Serif" font-size="10.00">/MultiMeshVisitor.hpp</text>
</a>
</g>
</g>
<!-- Node1&#45;&gt;Node10 -->
<g id="edge11_Node000001_Node000010" class="edge">
<title>Node1&#45;&gt;Node10</title>
<g id="a_edge11_Node000001_Node000010"><a xlink:title=" ">
<path fill="none" stroke="#63b8ff" d="M540.38,-235.63C643.99,-213.78 841.89,-171.04 1008.96,-129 1015.69,-127.31 1022.76,-125.44 1029.71,-123.56"/>
<polygon fill="#63b8ff" stroke="#63b8ff" points="539.41,-232.26 530.34,-237.74 540.85,-239.11 539.41,-232.26"/>
</a>
</g>
</g>
<!-- Node3 -->
<g id="Node000003" class="node">
<title>Node3</title>
<g id="a_Node000003"><a xlink:href="_multi_mesh_link_condition_invariant_8cpp.html" target="_top" xlink:title=" ">
<polygon fill="white" stroke="#666666" points="606.46,-123.5 405.46,-123.5 405.46,-93.5 606.46,-93.5 606.46,-123.5"/>
<text text-anchor="start" x="413.46" y="-111.5" font-family="Helvetica,sans-Serif" font-size="10.00">src/wmtk/invariants</text>
<text text-anchor="middle" x="505.96" y="-100.5" font-family="Helvetica,sans-Serif" font-size="10.00">/MultiMeshLinkConditionInvariant.cpp</text>
</a>
</g>
</g>
<!-- Node2&#45;&gt;Node3 -->
<g id="edge2_Node000002_Node000003" class="edge">
<title>Node2&#45;&gt;Node3</title>
<g id="a_edge2_Node000002_Node000003"><a xlink:title=" ">
<path fill="none" stroke="#63b8ff" d="M441.64,-158.63C456.41,-147.35 474.38,-133.62 487.58,-123.54"/>
<polygon fill="#63b8ff" stroke="#63b8ff" points="439.2,-156.08 433.38,-164.94 443.45,-161.65 439.2,-156.08"/>
</a>
</g>
</g>
<!-- Node4 -->
<g id="Node000004" class="node">
<title>Node4</title>
<g id="a_Node000004"><a xlink:href="_multi_mesh_map_valid_invariant_8cpp.html" target="_top" xlink:title=" ">
<polygon fill="white" stroke="#666666" points="803.46,-123.5 624.46,-123.5 624.46,-93.5 803.46,-93.5 803.46,-123.5"/>
<text text-anchor="start" x="632.46" y="-111.5" font-family="Helvetica,sans-Serif" font-size="10.00">src/wmtk/invariants</text>
<text text-anchor="middle" x="713.96" y="-100.5" font-family="Helvetica,sans-Serif" font-size="10.00">/MultiMeshMapValidInvariant.cpp</text>
</a>
</g>
</g>
<!-- Node2&#45;&gt;Node4 -->
<g id="edge3_Node000002_Node000004" class="edge">
<title>Node2&#45;&gt;Node4</title>
<g id="a_edge3_Node000002_Node000004"><a xlink:title=" ">
<path fill="none" stroke="#63b8ff" d="M485.45,-162.62C536.55,-150.74 604.94,-134.84 653.55,-123.54"/>
<polygon fill="#63b8ff" stroke="#63b8ff" points="484.42,-159.26 475.47,-164.94 486,-166.08 484.42,-159.26"/>
</a>
</g>
</g>
<!-- Node5 -->
<g id="Node000005" class="node">
<title>Node5</title>
<g id="a_Node000005"><a xlink:href="_multi_mesh_topology_invariant_8cpp.html" target="_top" xlink:title=" ">
<polygon fill="white" stroke="#666666" points="999.96,-123.5 821.96,-123.5 821.96,-93.5 999.96,-93.5 999.96,-123.5"/>
<text text-anchor="start" x="829.96" y="-111.5" font-family="Helvetica,sans-Serif" font-size="10.00">src/wmtk/invariants</text>
<text text-anchor="middle" x="910.96" y="-100.5" font-family="Helvetica,sans-Serif" font-size="10.00">/MultiMeshTopologyInvariant.cpp</text>
</a>
</g>
</g>
<!-- Node2&#45;&gt;Node5 -->
<g id="edge4_Node000002_Node000005" class="edge">
<title>Node2&#45;&gt;Node5</title>
<g id="a_edge4_Node000002_Node000005"><a xlink:title=" ">
<path fill="none" stroke="#63b8ff" d="M506.3,-169.31C586.93,-160.33 707.55,-145.84 811.96,-129 821.99,-127.38 832.56,-125.5 842.91,-123.55"/>
<polygon fill="#63b8ff" stroke="#63b8ff" points="505.73,-165.86 496.17,-170.44 506.5,-172.81 505.73,-165.86"/>
</a>
</g>
</g>
<!-- Node6 -->
<g id="Node000006" class="node">
<title>Node6</title>
<g id="a_Node000006"><a xlink:href="_multi_mesh_simplex_event_visitor_8hpp.html" target="_top" xlink:title=" ">
<polygon fill="white" stroke="#666666" points="206.96,-123.5 16.96,-123.5 16.96,-93.5 206.96,-93.5 206.96,-123.5"/>
<text text-anchor="start" x="24.96" y="-111.5" font-family="Helvetica,sans-Serif" font-size="10.00">src/wmtk/multimesh</text>
<text text-anchor="middle" x="111.96" y="-100.5" font-family="Helvetica,sans-Serif" font-size="10.00">/MultiMeshSimplexEventVisitor.hpp</text>
</a>
</g>
</g>
<!-- Node2&#45;&gt;Node6 -->
<g id="edge5_Node000002_Node000006" class="edge">
<title>Node2&#45;&gt;Node6</title>
<g id="a_edge5_Node000002_Node000006"><a xlink:title=" ">
<path fill="none" stroke="#63b8ff" d="M343.86,-162.69C292.04,-150.8 222.55,-134.87 173.19,-123.54"/>
<polygon fill="#63b8ff" stroke="#63b8ff" points="343.12,-166.11 353.65,-164.94 344.68,-159.29 343.12,-166.11"/>
</a>
</g>
</g>
<!-- Node7 -->
<g id="Node000007" class="node">
<title>Node7</title>
<g id="a_Node000007"><a xlink:href="multi__mesh__edge__collapse_8cpp.html" target="_top" xlink:title=" ">
<polygon fill="white" stroke="#666666" points="164.46,-46.5 33.46,-46.5 33.46,-5.5 164.46,-5.5 164.46,-46.5"/>
<text text-anchor="start" x="41.46" y="-34.5" font-family="Helvetica,sans-Serif" font-size="10.00">src/wmtk/operations</text>
<text text-anchor="start" x="41.46" y="-23.5" font-family="Helvetica,sans-Serif" font-size="10.00">/utils/multi_mesh_edge</text>
<text text-anchor="middle" x="98.96" y="-12.5" font-family="Helvetica,sans-Serif" font-size="10.00">_collapse.cpp</text>
</a>
</g>
</g>
<!-- Node2&#45;&gt;Node7 -->
<g id="edge9_Node000002_Node000007" class="edge">
<title>Node2&#45;&gt;Node7</title>
<g id="a_edge9_Node000002_Node000007"><a xlink:title=" ">
<path fill="none" stroke="#63b8ff" d="M323.7,-174.09C210.14,-167.04 28.54,-152.26 7.96,-129 -4.11,-115.35 -0.61,-104.08 7.96,-88 17.54,-70.04 35.01,-56.44 52.1,-46.69"/>
<polygon fill="#63b8ff" stroke="#63b8ff" points="323.6,-177.59 333.79,-174.71 324.02,-170.61 323.6,-177.59"/>
</a>
</g>
</g>
<!-- Node8 -->
<g id="Node000008" class="node">
<title>Node8</title>
<g id="a_Node000008"><a xlink:href="multi__mesh__edge__split_8cpp.html" target="_top" xlink:title=" ">
<polygon fill="white" stroke="#666666" points="313.46,-46.5 182.46,-46.5 182.46,-5.5 313.46,-5.5 313.46,-46.5"/>
<text text-anchor="start" x="190.46" y="-34.5" font-family="Helvetica,sans-Serif" font-size="10.00">src/wmtk/operations</text>
<text text-anchor="start" x="190.46" y="-23.5" font-family="Helvetica,sans-Serif" font-size="10.00">/utils/multi_mesh_edge</text>
<text text-anchor="middle" x="247.96" y="-12.5" font-family="Helvetica,sans-Serif" font-size="10.00">_split.cpp</text>
</a>
</g>
</g>
<!-- Node2&#45;&gt;Node8 -->
<g id="edge10_Node000002_Node000008" class="edge">
<title>Node2&#45;&gt;Node8</title>
<g id="a_edge10_Node000002_Node000008"><a xlink:title=" ">
<path fill="none" stroke="#63b8ff" d="M323.86,-170.39C297.36,-163.27 271,-150.76 253.96,-129 235.59,-105.53 238.75,-68.94 243.09,-46.55"/>
<polygon fill="#63b8ff" stroke="#63b8ff" points="323.07,-173.8 333.61,-172.78 324.73,-167 323.07,-173.8"/>
</a>
</g>
</g>
<!-- Node9 -->
<g id="Node000009" class="node">
<title>Node9</title>
<g id="a_Node000009"><a xlink:href="extract__operation__tuples_8cpp.html" target="_top" xlink:title=" ">
<polygon fill="white" stroke="#666666" points="386.96,-129 262.96,-129 262.96,-88 386.96,-88 386.96,-129"/>
<text text-anchor="start" x="270.96" y="-117" font-family="Helvetica,sans-Serif" font-size="10.00">src/wmtk/multimesh</text>
<text text-anchor="start" x="270.96" y="-106" font-family="Helvetica,sans-Serif" font-size="10.00">/operations/extract</text>
<text text-anchor="middle" x="324.96" y="-95" font-family="Helvetica,sans-Serif" font-size="10.00">_operation_tuples.cpp</text>
</a>
</g>
</g>
<!-- Node2&#45;&gt;Node9 -->
<g id="edge8_Node000002_Node000009" class="edge">
<title>Node2&#45;&gt;Node9</title>
<g id="a_edge8_Node000002_Node000009"><a xlink:title=" ">
<path fill="none" stroke="#63b8ff" d="M388.77,-158.77C376.66,-149.42 362.32,-138.35 350.31,-129.07"/>
<polygon fill="#63b8ff" stroke="#63b8ff" points="386.7,-161.59 396.75,-164.94 390.97,-156.05 386.7,-161.59"/>
</a>
</g>
</g>
<!-- Node6&#45;&gt;Node7 -->
<g id="edge6_Node000006_Node000007" class="edge">
<title>Node6&#45;&gt;Node7</title>
<g id="a_edge6_Node000006_Node000007"><a xlink:title=" ">
<path fill="none" stroke="#63b8ff" d="M108.08,-83.44C106.18,-71.67 103.92,-57.69 102.13,-46.59"/>
<polygon fill="#63b8ff" stroke="#63b8ff" points="104.65,-84.16 109.7,-93.48 111.56,-83.05 104.65,-84.16"/>
</a>
</g>
</g>
<!-- Node6&#45;&gt;Node8 -->
<g id="edge7_Node000006_Node000008" class="edge">
<title>Node6&#45;&gt;Node8</title>
<g id="a_edge7_Node000006_Node000008"><a xlink:title=" ">
<path fill="none" stroke="#63b8ff" d="M144.34,-88.33C165.64,-75.73 193.43,-59.28 214.87,-46.59"/>
<polygon fill="#63b8ff" stroke="#63b8ff" points="142.48,-85.37 135.65,-93.48 146.04,-91.4 142.48,-85.37"/>
</a>
</g>
</g>
<!-- Node10&#45;&gt;Node7 -->
<g id="edge22_Node000010_Node000007" class="edge">
<title>Node10&#45;&gt;Node7</title>
<g id="a_edge22_Node000010_Node000007"><a xlink:title=" ">
<path fill="none" stroke="#63b8ff" d="M1024.52,-91.04C1019.29,-89.85 1014.05,-88.81 1008.96,-88 641.66,-29.72 538.56,-120.2 172.96,-52 165.63,-50.63 158.03,-48.7 150.62,-46.5"/>
<polygon fill="#63b8ff" stroke="#63b8ff" points="1023.94,-94.5 1034.49,-93.47 1025.6,-87.7 1023.94,-94.5"/>
</a>
</g>
</g>
<!-- Node10&#45;&gt;Node8 -->
<g id="edge23_Node000010_Node000008" class="edge">
<title>Node10&#45;&gt;Node8</title>
<g id="a_edge23_Node000010_Node000008"><a xlink:title=" ">
<path fill="none" stroke="#63b8ff" d="M1024.27,-91.07C1019.13,-89.89 1013.97,-88.83 1008.96,-88 739.32,-43.07 666.56,-82.96 394.96,-52 368.21,-48.95 338.94,-44.25 313.6,-39.75"/>
<polygon fill="#63b8ff" stroke="#63b8ff" points="1023.55,-94.5 1034.09,-93.48 1025.22,-87.7 1023.55,-94.5"/>
</a>
</g>
</g>
<!-- Node11 -->
<g id="Node000011" class="node">
<title>Node11</title>
<g id="a_Node000011"><a xlink:href="get__all__meshes_8cpp.html" target="_top" xlink:title=" ">
<polygon fill="white" stroke="#666666" points="1095.96,-52 941.96,-52 941.96,0 1095.96,0 1095.96,-52"/>
<text text-anchor="start" x="949.96" y="-40" font-family="Helvetica,sans-Serif" font-size="10.00">components/get_all</text>
<text text-anchor="start" x="949.96" y="-29" font-family="Helvetica,sans-Serif" font-size="10.00">_meshes/wmtk/components</text>
<text text-anchor="start" x="949.96" y="-18" font-family="Helvetica,sans-Serif" font-size="10.00">/get_all_meshes/get_all</text>
<text text-anchor="middle" x="1018.96" y="-7" font-family="Helvetica,sans-Serif" font-size="10.00">_meshes.cpp</text>
</a>
</g>
</g>
<!-- Node10&#45;&gt;Node11 -->
<g id="edge12_Node000010_Node000011" class="edge">
<title>Node10&#45;&gt;Node11</title>
<g id="a_edge12_Node000010_Node000011"><a xlink:title=" ">
<path fill="none" stroke="#63b8ff" d="M1062.49,-85.4C1054.84,-75.13 1045.7,-62.87 1037.77,-52.24"/>
<polygon fill="#63b8ff" stroke="#63b8ff" points="1059.73,-87.55 1068.51,-93.48 1065.34,-83.37 1059.73,-87.55"/>
</a>
</g>
</g>
<!-- Node12 -->
<g id="Node000012" class="node">
<title>Node12</title>
<g id="a_Node000012"><a xlink:href="_isotropic_remeshing_8cpp.html" target="_top" xlink:title=" ">
<polygon fill="white" stroke="#666666" points="1281.46,-52 1114.46,-52 1114.46,0 1281.46,0 1281.46,-52"/>
<text text-anchor="start" x="1122.46" y="-40" font-family="Helvetica,sans-Serif" font-size="10.00">components/isotropic</text>
<text text-anchor="start" x="1122.46" y="-29" font-family="Helvetica,sans-Serif" font-size="10.00">_remeshing/wmtk/components</text>
<text text-anchor="start" x="1122.46" y="-18" font-family="Helvetica,sans-Serif" font-size="10.00">/isotropic_remeshing/internal</text>
<text text-anchor="middle" x="1197.96" y="-7" font-family="Helvetica,sans-Serif" font-size="10.00">/IsotropicRemeshing.cpp</text>
</a>
</g>
</g>
<!-- Node10&#45;&gt;Node12 -->
<g id="edge13_Node000010_Node000012" class="edge">
<title>Node10&#45;&gt;Node12</title>
<g id="a_edge13_Node000010_Node000012"><a xlink:title=" ">
<path fill="none" stroke="#63b8ff" d="M1108.05,-87.82C1123.9,-77.1 1143.68,-63.72 1160.66,-52.24"/>
<polygon fill="#63b8ff" stroke="#63b8ff" points="1106.01,-84.98 1099.69,-93.48 1109.94,-90.77 1106.01,-84.98"/>
</a>
</g>
</g>
<!-- Node13 -->
<g id="Node000013" class="node">
<title>Node13</title>
<g id="a_Node000013"><a xlink:href="shortestedge__collapse_8cpp.html" target="_top" xlink:title=" ">
<polygon fill="white" stroke="#666666" points="1494.96,-52 1298.96,-52 1298.96,0 1494.96,0 1494.96,-52"/>
<text text-anchor="start" x="1306.96" y="-40" font-family="Helvetica,sans-Serif" font-size="10.00">components/shortestedge</text>
<text text-anchor="start" x="1306.96" y="-29" font-family="Helvetica,sans-Serif" font-size="10.00">_collapse/wmtk/components</text>
<text text-anchor="start" x="1306.96" y="-18" font-family="Helvetica,sans-Serif" font-size="10.00">/shortestedge_collapse/shortestedge</text>
<text text-anchor="middle" x="1396.96" y="-7" font-family="Helvetica,sans-Serif" font-size="10.00">_collapse.cpp</text>
</a>
</g>
</g>
<!-- Node10&#45;&gt;Node13 -->
<g id="edge14_Node000010_Node000013" class="edge">
<title>Node10&#45;&gt;Node13</title>
<g id="a_edge14_Node000010_Node000013"><a xlink:title=" ">
<path fill="none" stroke="#63b8ff" d="M1144.19,-90.99C1188.75,-79.71 1248.59,-64.56 1298.87,-51.83"/>
<polygon fill="#63b8ff" stroke="#63b8ff" points="1143.19,-87.63 1134.35,-93.48 1144.91,-94.42 1143.19,-87.63"/>
</a>
</g>
</g>
<!-- Node14 -->
<g id="Node000014" class="node">
<title>Node14</title>
<g id="a_Node000014"><a xlink:href="get__attributes_8cpp.html" target="_top" xlink:title=" ">
<polygon fill="white" stroke="#666666" points="1644.46,-46.5 1513.46,-46.5 1513.46,-5.5 1644.46,-5.5 1644.46,-46.5"/>
<text text-anchor="start" x="1521.46" y="-34.5" font-family="Helvetica,sans-Serif" font-size="10.00">components/utils/wmtk</text>
<text text-anchor="start" x="1521.46" y="-23.5" font-family="Helvetica,sans-Serif" font-size="10.00">/components/utils/get</text>
<text text-anchor="middle" x="1578.96" y="-12.5" font-family="Helvetica,sans-Serif" font-size="10.00">_attributes.cpp</text>
</a>
</g>
</g>
<!-- Node10&#45;&gt;Node14 -->
<g id="edge15_Node000010_Node000014" class="edge">
<title>Node10&#45;&gt;Node14</title>
<g id="a_edge15_Node000010_Node000014"><a xlink:title=" ">
<path fill="none" stroke="#63b8ff" d="M1150.2,-102.4C1235.23,-95.35 1381.31,-80.18 1503.96,-52 1510.65,-50.46 1517.59,-48.57 1524.42,-46.53"/>
<polygon fill="#63b8ff" stroke="#63b8ff" points="1149.82,-98.92 1140.14,-103.22 1150.39,-105.89 1149.82,-98.92"/>
</a>
</g>
</g>
<!-- Node15 -->
<g id="Node000015" class="node">
<title>Node15</title>
<g id="a_Node000015"><a xlink:href="multimesh_2attribute_2_attribute_scope_handle_8cpp.html" target="_top" xlink:title=" ">
<polygon fill="white" stroke="#666666" points="1853.46,-41 1662.46,-41 1662.46,-11 1853.46,-11 1853.46,-41"/>
<text text-anchor="start" x="1670.46" y="-29" font-family="Helvetica,sans-Serif" font-size="10.00">src/wmtk/multimesh</text>
<text text-anchor="middle" x="1757.96" y="-18" font-family="Helvetica,sans-Serif" font-size="10.00">/attribute/AttributeScopeHandle.cpp</text>
</a>
</g>
</g>
<!-- Node10&#45;&gt;Node15 -->
<g id="edge16_Node000010_Node000015" class="edge">
<title>Node10&#45;&gt;Node15</title>
<g id="a_edge16_Node000010_Node000015"><a xlink:title=" ">
<path fill="none" stroke="#63b8ff" d="M1150.41,-103.82C1259.54,-97.48 1474.06,-82.15 1653.96,-52 1671,-49.15 1689.38,-45.07 1705.88,-41.03"/>
<polygon fill="#63b8ff" stroke="#63b8ff" points="1149.96,-100.34 1140.18,-104.41 1150.36,-107.33 1149.96,-100.34"/>
</a>
</g>
</g>
<!-- Node16 -->
<g id="Node000016" class="node">
<title>Node16</title>
<g id="a_Node000016"><a xlink:href="_use_parent_scope_r_a_i_i_8cpp.html" target="_top" xlink:title=" ">
<polygon fill="white" stroke="#666666" points="2054.46,-41 1871.46,-41 1871.46,-11 2054.46,-11 2054.46,-41"/>
<text text-anchor="start" x="1879.46" y="-29" font-family="Helvetica,sans-Serif" font-size="10.00">src/wmtk/multimesh</text>
<text text-anchor="middle" x="1962.96" y="-18" font-family="Helvetica,sans-Serif" font-size="10.00">/attribute/UseParentScopeRAII.cpp</text>
</a>
</g>
</g>
<!-- Node10&#45;&gt;Node16 -->
<g id="edge17_Node000010_Node000016" class="edge">
<title>Node10&#45;&gt;Node16</title>
<g id="a_edge17_Node000010_Node000016"><a xlink:title=" ">
<path fill="none" stroke="#63b8ff" d="M1150.43,-106.6C1288.81,-103.94 1602.66,-93.43 1862.96,-52 1879.75,-49.33 1897.85,-45.2 1913.98,-41.06"/>
<polygon fill="#63b8ff" stroke="#63b8ff" points="1150.3,-103.1 1140.37,-106.78 1150.43,-110.1 1150.3,-103.1"/>
</a>
</g>
</g>
<!-- Node17 -->
<g id="Node000017" class="node">
<title>Node17</title>
<g id="a_Node000017"><a xlink:href="consolidate_8cpp.html" target="_top" xlink:title=" ">
<polygon fill="white" stroke="#666666" points="521.46,-41 404.46,-41 404.46,-11 521.46,-11 521.46,-41"/>
<text text-anchor="start" x="412.46" y="-29" font-family="Helvetica,sans-Serif" font-size="10.00">src/wmtk/multimesh</text>
<text text-anchor="middle" x="462.96" y="-18" font-family="Helvetica,sans-Serif" font-size="10.00">/consolidate.cpp</text>
</a>
</g>
</g>
<!-- Node10&#45;&gt;Node17 -->
<g id="edge18_Node000010_Node000017" class="edge">
<title>Node10&#45;&gt;Node17</title>
<g id="a_edge18_Node000010_Node000017"><a xlink:title=" ">
<path fill="none" stroke="#63b8ff" d="M1023.63,-91.01C1018.7,-89.87 1013.76,-88.84 1008.96,-88 799.11,-51.24 739.16,-97.19 530.96,-52 519.16,-49.44 506.65,-45.28 495.62,-41.09"/>
<polygon fill="#63b8ff" stroke="#63b8ff" points="1023.15,-94.5 1033.7,-93.5 1024.83,-87.7 1023.15,-94.5"/>
</a>
</g>
</g>
<!-- Node18 -->
<g id="Node000018" class="node">
<title>Node18</title>
<g id="a_Node000018"><a xlink:href="_edge_collapse_8cpp.html" target="_top" xlink:title=" ">
<polygon fill="white" stroke="#666666" points="655.96,-41 539.96,-41 539.96,-11 655.96,-11 655.96,-41"/>
<text text-anchor="start" x="547.96" y="-29" font-family="Helvetica,sans-Serif" font-size="10.00">src/wmtk/operations</text>
<text text-anchor="middle" x="597.96" y="-18" font-family="Helvetica,sans-Serif" font-size="10.00">/EdgeCollapse.cpp</text>
</a>
</g>
</g>
<!-- Node10&#45;&gt;Node18 -->
<g id="edge19_Node000010_Node000018" class="edge">
<title>Node10&#45;&gt;Node18</title>
<g id="a_edge19_Node000010_Node000018"><a xlink:title=" ">
<path fill="none" stroke="#63b8ff" d="M1023.15,-91.06C1018.37,-89.92 1013.6,-88.88 1008.96,-88 857.95,-59.27 814.61,-87.15 664.96,-52 653.48,-49.3 641.29,-45.16 630.51,-41.03"/>
<polygon fill="#63b8ff" stroke="#63b8ff" points="1022.36,-94.47 1032.91,-93.49 1024.05,-87.67 1022.36,-94.47"/>
</a>
</g>
</g>
<!-- Node19 -->
<g id="Node000019" class="node">
<title>Node19</title>
<g id="a_Node000019"><a xlink:href="_edge_split_8cpp.html" target="_top" xlink:title=" ">
<polygon fill="white" stroke="#666666" points="789.96,-41 673.96,-41 673.96,-11 789.96,-11 789.96,-41"/>
<text text-anchor="start" x="681.96" y="-29" font-family="Helvetica,sans-Serif" font-size="10.00">src/wmtk/operations</text>
<text text-anchor="middle" x="731.96" y="-18" font-family="Helvetica,sans-Serif" font-size="10.00">/EdgeSplit.cpp</text>
</a>
</g>
</g>
<!-- Node10&#45;&gt;Node19 -->
<g id="edge20_Node000010_Node000019" class="edge">
<title>Node10&#45;&gt;Node19</title>
<g id="a_edge20_Node000010_Node000019"><a xlink:title=" ">
<path fill="none" stroke="#63b8ff" d="M1020.91,-90.84C1016.88,-89.83 1012.87,-88.88 1008.96,-88 916.57,-67.27 890.39,-76.66 798.96,-52 788.05,-49.06 776.44,-45.05 765.99,-41.1"/>
<polygon fill="#63b8ff" stroke="#63b8ff" points="1020.37,-94.32 1030.93,-93.42 1022.12,-87.54 1020.37,-94.32"/>
</a>
</g>
</g>
<!-- Node20 -->
<g id="Node000020" class="node">
<title>Node20</title>
<g id="a_Node000020"><a xlink:href="_operation_8cpp.html" target="_top" xlink:title=" ">
<polygon fill="white" stroke="#666666" points="923.96,-41 807.96,-41 807.96,-11 923.96,-11 923.96,-41"/>
<text text-anchor="start" x="815.96" y="-29" font-family="Helvetica,sans-Serif" font-size="10.00">src/wmtk/operations</text>
<text text-anchor="middle" x="865.96" y="-18" font-family="Helvetica,sans-Serif" font-size="10.00">/Operation.cpp</text>
</a>
</g>
</g>
<!-- Node10&#45;&gt;Node20 -->
<g id="edge21_Node000010_Node000020" class="edge">
<title>Node10&#45;&gt;Node20</title>
<g id="a_edge21_Node000010_Node000020"><a xlink:title=" ">
<path fill="none" stroke="#63b8ff" d="M1032.38,-89.89C993.66,-75.26 939.27,-54.71 903.35,-41.13"/>
<polygon fill="#63b8ff" stroke="#63b8ff" points="1031.27,-93.22 1041.86,-93.48 1033.74,-86.67 1031.27,-93.22"/>
</a>
</g>
</g>
</g>
</svg>

<g id="navigator" transform="translate(0 0)" fill="#404254">
  <rect fill="#f2f5e9" fill-opacity="0.5" stroke="#606060" stroke-width=".5" x="0" y="0" width="60" height="60"/>
  <use id="zoomplus" xlink:href="#zoomPlus" x="17" y="9" onmousedown="handleZoom(evt,'in')"/>
  <use id="zoomminus" xlink:href="#zoomMin" x="42" y="9" onmousedown="handleZoom(evt,'out')"/>
  <use id="reset" xlink:href="#resetDef" x="30" y="36" onmousedown="handleReset()"/>
   <use id="arrowup" xlink:href="#arrowUp" x="0" y="0" onmousedown="handlePan(0,-1)"/>
  <use id="arrowright" xlink:href="#arrowRight" x="0" y="0" onmousedown="handlePan(1,0)"/>
  <use id="arrowdown" xlink:href="#arrowDown" x="0" y="0" onmousedown="handlePan(0,1)"/>
  <use id="arrowleft" xlink:href="#arrowLeft" x="0" y="0" onmousedown="handlePan(-1,0)"/>
</g>
<svg viewBox="0 0 15 15" width="100%" height="30px" preserveAspectRatio="xMaxYMin meet">
 <g id="arrow_out" transform="scale(0.3 0.3)">
  <a xlink:href="mesh__type__from__primitive__type_8hpp__dep__incl_org.svg" target="_base">
   <rect id="button" ry="5" rx="5" y="6" x="6" height="38" width="38"
        fill="#f2f5e9" fill-opacity="0.5" stroke="#606060" stroke-width="1.0"/>
   <path id="arrow"
     d="M 11.500037,31.436501 C 11.940474,20.09759 22.043105,11.32322 32.158766,21.979434 L 37.068811,17.246167 C 37.068811,17.246167 37.088388,32 37.088388,32 L 22.160133,31.978069 C 22.160133,31.978069 26.997745,27.140456 26.997745,27.140456 C 18.528582,18.264221 13.291696,25.230495 11.500037,31.436501 z"
     style="fill:#404040;"/>
  </a>
 </g>
</svg>

<style type='text/css'>
<![CDATA[
[data-mouse-over-selected='false'] { opacity: 0.7; }
[data-mouse-over-selected='true']  { opacity: 1.0; }
]]>
</style>
<script type="application/ecmascript"><![CDATA[
document.addEventListener('DOMContentLoaded', (event) => {
  highlightEdges();
  highlightAdjacentNodes();
});
]]></script>
</svg>
