<?xml version="1.0" encoding="UTF-8" standalone="no"?>
<!DOCTYPE svg PUBLIC "-//W3C//DTD SVG 1.1//EN"
 "http://www.w3.org/Graphics/SVG/1.1/DTD/svg11.dtd">
<!-- Generated by graphviz version 2.43.0 (0)
 -->
<!-- Title: wmtk::components::simplify Pages: 1 -->
<svg width="1196pt" height="439pt"
 viewBox="0.00 0.00 1196.00 439.00" xmlns="http://www.w3.org/2000/svg" xmlns:xlink="http://www.w3.org/1999/xlink">
<g id="graph0" class="graph" transform="scale(1 1) rotate(0) translate(4 435)">
<title>wmtk::components::simplify</title>
<!-- Node1 -->
<g id="Node000001" class="node">
<title>Node1</title>
<g id="a_Node000001"><a xlink:title=" ">
<polygon fill="#999999" stroke="#666666" points="155,-240.5 0,-240.5 0,-221.5 155,-221.5 155,-240.5"/>
<text text-anchor="middle" x="77.5" y="-228.5" font-family="Helvetica,sans-Serif" font-size="10.00">wmtk::components::simplify</text>
</a>
</g>
</g>
<!-- Node1&#45;&gt;Node1 -->
<g id="edge18_Node000001_Node000001" class="edge">
<title>Node1&#45;&gt;Node1</title>
<g id="a_edge18_Node000001_Node000001"><a xlink:title=" ">
<path fill="none" stroke="#63b8ff" d="M47.29,-240.58C32.59,-249.23 42.66,-258.5 77.5,-258.5 101.99,-258.5 114.24,-253.92 114.25,-248.19"/>
<polygon fill="#63b8ff" stroke="#63b8ff" points="116.88,-245.88 107.71,-240.58 111.57,-250.45 116.88,-245.88"/>
</a>
</g>
</g>
<!-- Node2 -->
<g id="Node000002" class="node">
<title>Node2</title>
<g id="a_Node000002"><a xlink:href="namespacewmtk_1_1components.html#a1a37b42834d1728855d67e7fd28be725" target="_top" xlink:title=" ">
<polygon fill="white" stroke="#666666" points="357,-300.5 191,-300.5 191,-281.5 357,-281.5 357,-300.5"/>
<text text-anchor="middle" x="274" y="-288.5" font-family="Helvetica,sans-Serif" font-size="10.00">wmtk::components::collapsing</text>
</a>
</g>
</g>
<!-- Node1&#45;&gt;Node2 -->
<g id="edge1_Node000001_Node000002" class="edge">
<title>Node1&#45;&gt;Node2</title>
<g id="a_edge1_Node000001_Node000002"><a xlink:title=" ">
<path fill="none" stroke="#63b8ff" d="M107.57,-240.52C130.25,-247.9 162.57,-258.29 191,-267 203.65,-270.87 217.43,-274.96 230.03,-278.64"/>
<polygon fill="#63b8ff" stroke="#63b8ff" points="229.25,-282.06 239.83,-281.5 231.21,-275.34 229.25,-282.06"/>
</a>
</g>
</g>
<!-- Node11 -->
<g id="Node000011" class="node">
<title>Node11</title>
<g id="a_Node000011"><a xlink:href="namespacewmtk.html#a6a35f11c12436093d26fdd8be6fecc06" target="_top" xlink:title="Retrieves the current logger.">
<polygon fill="white" stroke="#666666" points="499.5,-219.5 418.5,-219.5 418.5,-200.5 499.5,-200.5 499.5,-219.5"/>
<text text-anchor="middle" x="459" y="-207.5" font-family="Helvetica,sans-Serif" font-size="10.00">wmtk::logger</text>
</a>
</g>
</g>
<!-- Node1&#45;&gt;Node11 -->
<g id="edge14_Node000001_Node000011" class="edge">
<title>Node1&#45;&gt;Node11</title>
<g id="a_edge14_Node000001_Node000011"><a xlink:title=" ">
<path fill="none" stroke="#63b8ff" d="M155.02,-237.04C211.13,-240.21 289.04,-241.96 357,-234 376.69,-231.69 398.11,-226.94 416.14,-222.26"/>
<polygon fill="#63b8ff" stroke="#63b8ff" points="417.29,-225.58 426.05,-219.61 415.48,-218.81 417.29,-225.58"/>
</a>
</g>
</g>
<!-- Node13 -->
<g id="Node000013" class="node">
<title>Node13</title>
<g id="a_Node000013"><a xlink:href="namespacewmtk_1_1components.html#af4e226016df9cc871aa5477dc7bd69fa" target="_top" xlink:title=" ">
<polygon fill="white" stroke="#666666" points="351,-225 197,-225 197,-195 351,-195 351,-225"/>
<text text-anchor="start" x="205" y="-213" font-family="Helvetica,sans-Serif" font-size="10.00">wmtk::components::remove</text>
<text text-anchor="middle" x="274" y="-202" font-family="Helvetica,sans-Serif" font-size="10.00">_duplicates</text>
</a>
</g>
</g>
<!-- Node1&#45;&gt;Node13 -->
<g id="edge16_Node000001_Node000013" class="edge">
<title>Node1&#45;&gt;Node13</title>
<g id="a_edge16_Node000001_Node000013"><a xlink:title=" ">
<path fill="none" stroke="#63b8ff" d="M155.09,-222.73C165.48,-221.61 176.21,-220.45 186.75,-219.31"/>
<polygon fill="#63b8ff" stroke="#63b8ff" points="187.23,-222.78 196.8,-218.23 186.48,-215.82 187.23,-222.78"/>
</a>
</g>
</g>
<!-- Node14 -->
<g id="Node000014" class="node">
<title>Node14</title>
<g id="a_Node000014"><a xlink:href="namespacewmtk_1_1components.html#a29535331c3c20b51ef373ba4ac9e73f7" target="_top" xlink:title=" ">
<polygon fill="white" stroke="#666666" points="355.5,-158.5 192.5,-158.5 192.5,-139.5 355.5,-139.5 355.5,-158.5"/>
<text text-anchor="middle" x="274" y="-146.5" font-family="Helvetica,sans-Serif" font-size="10.00">wmtk::components::swapping</text>
</a>
</g>
</g>
<!-- Node1&#45;&gt;Node14 -->
<g id="edge19_Node000001_Node000014" class="edge">
<title>Node1&#45;&gt;Node14</title>
<g id="a_edge19_Node000001_Node000014"><a xlink:title=" ">
<path fill="none" stroke="#63b8ff" d="M101.19,-221.43C135.74,-206.87 201.67,-179.07 241.05,-162.47"/>
<polygon fill="#63b8ff" stroke="#63b8ff" points="242.6,-165.62 250.45,-158.51 239.88,-159.17 242.6,-165.62"/>
</a>
</g>
</g>
<!-- Node3 -->
<g id="Node000003" class="node">
<title>Node3</title>
<g id="a_Node000003"><a xlink:href="namespacewmtk_1_1simplex.html#a61d5959a4d8e8d987997d4b8155f7488" target="_top" xlink:title=" ">
<polygon fill="white" stroke="#666666" points="521.5,-300.5 396.5,-300.5 396.5,-281.5 521.5,-281.5 521.5,-300.5"/>
<text text-anchor="middle" x="459" y="-288.5" font-family="Helvetica,sans-Serif" font-size="10.00">wmtk::simplex::edges</text>
</a>
</g>
</g>
<!-- Node2&#45;&gt;Node3 -->
<g id="edge2_Node000002_Node000003" class="edge">
<title>Node2&#45;&gt;Node3</title>
<g id="a_edge2_Node000002_Node000003"><a xlink:title=" ">
<path fill="none" stroke="#63b8ff" d="M357.13,-291C366.83,-291 376.67,-291 386.21,-291"/>
<polygon fill="#63b8ff" stroke="#63b8ff" points="386.43,-294.5 396.43,-291 386.43,-287.5 386.43,-294.5"/>
</a>
</g>
</g>
<!-- Node4 -->
<g id="Node000004" class="node">
<title>Node4</title>
<g id="a_Node000004"><a xlink:href="classwmtk_1_1simplex_1_1_simplex.html#ad2cc0340a0772b7d6f03ba7a781d1163" target="_top" xlink:title=" ">
<polygon fill="white" stroke="#666666" points="1163,-431 1028,-431 1028,-401 1163,-401 1163,-431"/>
<text text-anchor="start" x="1036" y="-419" font-family="Helvetica,sans-Serif" font-size="10.00">wmtk::simplex::Simplex</text>
<text text-anchor="middle" x="1095.5" y="-408" font-family="Helvetica,sans-Serif" font-size="10.00">::primitive_type</text>
</a>
</g>
</g>
<!-- Node3&#45;&gt;Node4 -->
<g id="edge3_Node000003_Node000004" class="edge">
<title>Node3&#45;&gt;Node4</title>
<g id="a_edge3_Node000003_Node000004"><a xlink:title=" ">
<path fill="none" stroke="#63b8ff" d="M470.88,-300.68C488.44,-315.71 524.77,-344.35 561,-358 715.2,-416.1 910.97,-421.6 1017.28,-419.45"/>
<polygon fill="#63b8ff" stroke="#63b8ff" points="1017.68,-422.95 1027.59,-419.22 1017.52,-415.95 1017.68,-422.95"/>
</a>
</g>
</g>
<!-- Node5 -->
<g id="Node000005" class="node">
<title>Node5</title>
<g id="a_Node000005"><a xlink:href="classwmtk_1_1_mesh.html#a7f8a7b7d592fdbf672f2c6c9653487ea" target="_top" xlink:title=" ">
<polygon fill="white" stroke="#666666" points="710.5,-306 596.5,-306 596.5,-276 710.5,-276 710.5,-306"/>
<text text-anchor="start" x="604.5" y="-294" font-family="Helvetica,sans-Serif" font-size="10.00">wmtk::Mesh::switch</text>
<text text-anchor="middle" x="653.5" y="-283" font-family="Helvetica,sans-Serif" font-size="10.00">_tuples</text>
</a>
</g>
</g>
<!-- Node3&#45;&gt;Node5 -->
<g id="edge4_Node000003_Node000005" class="edge">
<title>Node3&#45;&gt;Node5</title>
<g id="a_edge4_Node000003_Node000005"><a xlink:title=" ">
<path fill="none" stroke="#63b8ff" d="M521.7,-291C542.31,-291 565.34,-291 586.27,-291"/>
<polygon fill="#63b8ff" stroke="#63b8ff" points="586.36,-294.5 596.36,-291 586.36,-287.5 586.36,-294.5"/>
</a>
</g>
</g>
<!-- Node7 -->
<g id="Node000007" class="node">
<title>Node7</title>
<g id="a_Node000007"><a xlink:href="classwmtk_1_1simplex_1_1_simplex.html#aca78b1fb0a3c28c0036cf7919bfb0789" target="_top" xlink:title=" ">
<polygon fill="white" stroke="#666666" points="1163,-360 1028,-360 1028,-330 1163,-330 1163,-360"/>
<text text-anchor="start" x="1036" y="-348" font-family="Helvetica,sans-Serif" font-size="10.00">wmtk::simplex::Simplex</text>
<text text-anchor="middle" x="1095.5" y="-337" font-family="Helvetica,sans-Serif" font-size="10.00">::tuple</text>
</a>
</g>
</g>
<!-- Node3&#45;&gt;Node7 -->
<g id="edge13_Node000003_Node000007" class="edge">
<title>Node3&#45;&gt;Node7</title>
<g id="a_edge13_Node000003_Node000007"><a xlink:title=" ">
<path fill="none" stroke="#63b8ff" d="M488.42,-300.56C544.01,-318.68 671.36,-357.46 782,-371 863.61,-380.99 885.19,-379.26 967,-371 985.49,-369.13 1005.26,-365.78 1023.59,-362.09"/>
<polygon fill="#63b8ff" stroke="#63b8ff" points="1024.52,-365.47 1033.6,-360.02 1023.1,-358.62 1024.52,-365.47"/>
</a>
</g>
</g>
<!-- Node6 -->
<g id="Node000006" class="node">
<title>Node6</title>
<g id="a_Node000006"><a xlink:href="classwmtk_1_1_mesh.html#a58bdbbfa0cd7bd9263241f6501db182a" target="_top" xlink:title="check if a simplex lies on a boundary or not">
<polygon fill="white" stroke="#666666" points="945.5,-343.5 803.5,-343.5 803.5,-324.5 945.5,-324.5 945.5,-343.5"/>
<text text-anchor="middle" x="874.5" y="-331.5" font-family="Helvetica,sans-Serif" font-size="10.00">wmtk::Mesh::is_boundary</text>
</a>
</g>
</g>
<!-- Node5&#45;&gt;Node6 -->
<g id="edge5_Node000005_Node000006" class="edge">
<title>Node5&#45;&gt;Node6</title>
<g id="a_edge5_Node000005_Node000006"><a xlink:title=" ">
<path fill="none" stroke="#63b8ff" d="M710.61,-302.02C742.52,-308.28 782.43,-316.12 814.76,-322.47"/>
<polygon fill="#63b8ff" stroke="#63b8ff" points="814.48,-325.98 824.97,-324.47 815.83,-319.11 814.48,-325.98"/>
</a>
</g>
</g>
<!-- Node8 -->
<g id="Node000008" class="node">
<title>Node8</title>
<g id="a_Node000008"><a xlink:href="classwmtk_1_1_mesh.html#a965a8a24158c4aa8580c57ba09f885f7" target="_top" xlink:title="switch the orientation of the Tuple of the given dimension">
<polygon fill="white" stroke="#666666" points="931.5,-306 817.5,-306 817.5,-276 931.5,-276 931.5,-306"/>
<text text-anchor="start" x="825.5" y="-294" font-family="Helvetica,sans-Serif" font-size="10.00">wmtk::Mesh::switch</text>
<text text-anchor="middle" x="874.5" y="-283" font-family="Helvetica,sans-Serif" font-size="10.00">_tuple</text>
</a>
</g>
</g>
<!-- Node5&#45;&gt;Node8 -->
<g id="edge9_Node000005_Node000008" class="edge">
<title>Node5&#45;&gt;Node8</title>
<g id="a_edge9_Node000005_Node000008"><a xlink:title=" ">
<path fill="none" stroke="#63b8ff" d="M710.61,-291C739.99,-291 776.15,-291 806.94,-291"/>
<polygon fill="#63b8ff" stroke="#63b8ff" points="807.15,-294.5 817.15,-291 807.15,-287.5 807.15,-294.5"/>
</a>
</g>
</g>
<!-- Node9 -->
<g id="Node000009" class="node">
<title>Node9</title>
<g id="a_Node000009"><a xlink:href="classwmtk_1_1_mesh.html#a933f681cf24a63b155c9462280385200" target="_top" xlink:title=" ">
<polygon fill="white" stroke="#666666" points="1156,-247 1035,-247 1035,-217 1156,-217 1156,-247"/>
<text text-anchor="start" x="1043" y="-235" font-family="Helvetica,sans-Serif" font-size="10.00">wmtk::Mesh::top_cell</text>
<text text-anchor="middle" x="1095.5" y="-224" font-family="Helvetica,sans-Serif" font-size="10.00">_dimension</text>
</a>
</g>
</g>
<!-- Node5&#45;&gt;Node9 -->
<g id="edge10_Node000005_Node000009" class="edge">
<title>Node5&#45;&gt;Node9</title>
<g id="a_edge10_Node000005_Node000009"><a xlink:title=" ">
<path fill="none" stroke="#63b8ff" d="M710.52,-279.52C732.71,-275.22 758.5,-270.52 782,-267 864.98,-254.56 960.96,-244.44 1024.42,-238.34"/>
<polygon fill="#63b8ff" stroke="#63b8ff" points="1025.09,-241.79 1034.71,-237.36 1024.42,-234.83 1025.09,-241.79"/>
</a>
</g>
</g>
<!-- Node10 -->
<g id="Node000010" class="node">
<title>Node10</title>
<g id="a_Node000010"><a xlink:href="classwmtk_1_1_mesh.html#abaf00438d0700358b160e310d69725c9" target="_top" xlink:title=" ">
<polygon fill="white" stroke="#666666" points="959.5,-219.5 789.5,-219.5 789.5,-200.5 959.5,-200.5 959.5,-219.5"/>
<text text-anchor="middle" x="874.5" y="-207.5" font-family="Helvetica,sans-Serif" font-size="10.00">wmtk::Mesh::top_simplex_type</text>
</a>
</g>
</g>
<!-- Node5&#45;&gt;Node10 -->
<g id="edge11_Node000005_Node000010" class="edge">
<title>Node5&#45;&gt;Node10</title>
<g id="a_edge11_Node000005_Node000010"><a xlink:title=" ">
<path fill="none" stroke="#63b8ff" d="M684.33,-275.99C709.82,-263.57 747.69,-246.08 782,-234 794.59,-229.57 808.41,-225.53 821.41,-222.08"/>
<polygon fill="#63b8ff" stroke="#63b8ff" points="822.35,-225.46 831.16,-219.57 820.6,-218.68 822.35,-225.46"/>
</a>
</g>
</g>
<!-- Node6&#45;&gt;Node4 -->
<g id="edge7_Node000006_Node000004" class="edge">
<title>Node6&#45;&gt;Node4</title>
<g id="a_edge7_Node000006_Node000004"><a xlink:title=" ">
<path fill="none" stroke="#63b8ff" d="M901.05,-343.57C936.16,-356.71 1000.05,-380.63 1044.76,-397.38"/>
<polygon fill="#63b8ff" stroke="#63b8ff" points="1043.69,-400.71 1054.28,-400.94 1046.14,-394.16 1043.69,-400.71"/>
</a>
</g>
</g>
<!-- Node6&#45;&gt;Node6 -->
<g id="edge6_Node000006_Node000006" class="edge">
<title>Node6&#45;&gt;Node6</title>
<g id="a_edge6_Node000006_Node000006"><a xlink:title=" ">
<path fill="none" stroke="#63b8ff" d="M840.59,-343.58C824.1,-352.23 835.4,-361.5 874.5,-361.5 902.6,-361.5 916.35,-356.71 915.73,-350.81"/>
<polygon fill="#63b8ff" stroke="#63b8ff" points="917.98,-348.12 908.41,-343.58 913.07,-353.1 917.98,-348.12"/>
</a>
</g>
</g>
<!-- Node6&#45;&gt;Node7 -->
<g id="edge8_Node000006_Node000007" class="edge">
<title>Node6&#45;&gt;Node7</title>
<g id="a_edge8_Node000006_Node000007"><a xlink:title=" ">
<path fill="none" stroke="#63b8ff" d="M945.7,-337.53C968.58,-338.68 994.11,-339.96 1017.47,-341.13"/>
<polygon fill="#63b8ff" stroke="#63b8ff" points="1017.52,-344.64 1027.68,-341.64 1017.87,-337.65 1017.52,-344.64"/>
</a>
</g>
</g>
<!-- Node10&#45;&gt;Node9 -->
<g id="edge12_Node000010_Node000009" class="edge">
<title>Node10&#45;&gt;Node9</title>
<g id="a_edge12_Node000010_Node000009"><a xlink:title=" ">
<path fill="none" stroke="#63b8ff" d="M959.54,-218.44C981.11,-220.61 1004.06,-222.91 1024.81,-225"/>
<polygon fill="#63b8ff" stroke="#63b8ff" points="1024.5,-228.49 1034.8,-226 1025.2,-221.52 1024.5,-228.49"/>
</a>
</g>
</g>
<!-- Node12 -->
<g id="Node000012" class="node">
<title>Node12</title>
<g id="a_Node000012"><a xlink:href="namespacewmtk.html#a3daa7951a5f8b78cf4600dc047fcc180" target="_top" xlink:title="Setup a logger object to be used by WildmeshToolkit.">
<polygon fill="white" stroke="#666666" points="704,-219.5 603,-219.5 603,-200.5 704,-200.5 704,-219.5"/>
<text text-anchor="middle" x="653.5" y="-207.5" font-family="Helvetica,sans-Serif" font-size="10.00">wmtk::set_logger</text>
</a>
</g>
</g>
<!-- Node11&#45;&gt;Node12 -->
<g id="edge15_Node000011_Node000012" class="edge">
<title>Node11&#45;&gt;Node12</title>
<g id="a_edge15_Node000011_Node000012"><a xlink:title=" ">
<path fill="none" stroke="#63b8ff" d="M499.89,-210C526.7,-210 562.52,-210 592.72,-210"/>
<polygon fill="#63b8ff" stroke="#63b8ff" points="592.73,-213.5 602.73,-210 592.73,-206.5 592.73,-213.5"/>
</a>
</g>
</g>
<!-- Node13&#45;&gt;Node11 -->
<g id="edge17_Node000013_Node000011" class="edge">
<title>Node13&#45;&gt;Node11</title>
<g id="a_edge17_Node000013_Node000011"><a xlink:title=" ">
<path fill="none" stroke="#63b8ff" d="M351.02,-210C370.39,-210 390.72,-210 408.39,-210"/>
<polygon fill="#63b8ff" stroke="#63b8ff" points="408.46,-213.5 418.46,-210 408.46,-206.5 408.46,-213.5"/>
</a>
</g>
</g>
<!-- Node14&#45;&gt;Node3 -->
<g id="edge20_Node000014_Node000003" class="edge">
<title>Node14&#45;&gt;Node3</title>
<g id="a_edge20_Node000014_Node000003"><a xlink:title=" ">
<path fill="none" stroke="#63b8ff" d="M304.44,-158.59C320.89,-164.81 341.2,-174.01 357,-186 376.86,-201.06 375.96,-210.81 393,-229 408.01,-245.02 426.17,-262.17 439.48,-274.36"/>
<polygon fill="#63b8ff" stroke="#63b8ff" points="437.31,-277.12 447.06,-281.26 442.02,-271.94 437.31,-277.12"/>
</a>
</g>
</g>
<!-- Node14&#45;&gt;Node11 -->
<g id="edge27_Node000014_Node000011" class="edge">
<title>Node14&#45;&gt;Node11</title>
<g id="a_edge27_Node000014_Node000011"><a xlink:title=" ">
<path fill="none" stroke="#63b8ff" d="M303.59,-158.53C334.79,-168.93 384.9,-185.63 419.54,-197.18"/>
<polygon fill="#63b8ff" stroke="#63b8ff" points="418.71,-200.59 429.31,-200.44 420.93,-193.95 418.71,-200.59"/>
</a>
</g>
</g>
<!-- Node14&#45;&gt;Node14 -->
<g id="edge31_Node000014_Node000014" class="edge">
<title>Node14&#45;&gt;Node14</title>
<g id="a_edge31_Node000014_Node000014"><a xlink:title=" ">
<path fill="none" stroke="#63b8ff" d="M245.64,-158.58C231.84,-167.23 241.3,-176.5 274,-176.5 296.48,-176.5 307.98,-172.12 308.48,-166.57"/>
<polygon fill="#63b8ff" stroke="#63b8ff" points="311.22,-164.39 302.36,-158.58 305.66,-168.65 311.22,-164.39"/>
</a>
</g>
</g>
<!-- Node15 -->
<g id="Node000015" class="node">
<title>Node15</title>
<g id="a_Node000015"><a xlink:href="namespacewmtk_1_1components.html#abb231223702b86fa717f34d4985d8c04" target="_top" xlink:title=" ">
<polygon fill="white" stroke="#666666" points="525,-78 393,-78 393,-48 525,-48 525,-78"/>
<text text-anchor="start" x="401" y="-66" font-family="Helvetica,sans-Serif" font-size="10.00">wmtk::components::get</text>
<text text-anchor="middle" x="459" y="-55" font-family="Helvetica,sans-Serif" font-size="10.00">_angle_cos</text>
</a>
</g>
</g>
<!-- Node14&#45;&gt;Node15 -->
<g id="edge21_Node000014_Node000015" class="edge">
<title>Node14&#45;&gt;Node15</title>
<g id="a_edge21_Node000014_Node000015"><a xlink:title=" ">
<path fill="none" stroke="#63b8ff" d="M291.47,-139.47C313.97,-126.66 355.79,-103.56 393,-87 396.89,-85.27 400.96,-83.55 405.06,-81.89"/>
<polygon fill="#63b8ff" stroke="#63b8ff" points="406.66,-85.02 414.68,-78.1 404.09,-78.51 406.66,-85.02"/>
</a>
</g>
</g>
<!-- Node16 -->
<g id="Node000016" class="node">
<title>Node16</title>
<g id="a_Node000016"><a xlink:href="namespacewmtk_1_1components.html#ae1cc01bf0606071d998491e8834d6fb2" target="_top" xlink:title=" ">
<polygon fill="white" stroke="#666666" points="521.5,-30 396.5,-30 396.5,0 521.5,0 521.5,-30"/>
<text text-anchor="start" x="404.5" y="-18" font-family="Helvetica,sans-Serif" font-size="10.00">wmtk::components::is</text>
<text text-anchor="middle" x="459" y="-7" font-family="Helvetica,sans-Serif" font-size="10.00">_out_envelope</text>
</a>
</g>
</g>
<!-- Node14&#45;&gt;Node16 -->
<g id="edge22_Node000014_Node000016" class="edge">
<title>Node14&#45;&gt;Node16</title>
<g id="a_edge22_Node000014_Node000016"><a xlink:title=" ">
<path fill="none" stroke="#63b8ff" d="M282.89,-139.42C300.56,-118.48 345.54,-68.23 393,-39 395.63,-37.38 398.39,-35.84 401.22,-34.39"/>
<polygon fill="#63b8ff" stroke="#63b8ff" points="402.9,-37.47 410.45,-30.03 399.91,-31.14 402.9,-37.47"/>
</a>
</g>
</g>
<!-- Node20 -->
<g id="Node000020" class="node">
<title>Node20</title>
<g id="a_Node000020"><a xlink:href="namespacewmtk_1_1components.html#a7de20dc23c12ed780d05e5e37b1f6bb7" target="_top" xlink:title=" ">
<polygon fill="white" stroke="#666666" points="1167.5,-167.5 1023.5,-167.5 1023.5,-148.5 1167.5,-148.5 1167.5,-167.5"/>
<text text-anchor="middle" x="1095.5" y="-155.5" font-family="Helvetica,sans-Serif" font-size="10.00">wmtk::components::mod3</text>
</a>
</g>
</g>
<!-- Node14&#45;&gt;Node20 -->
<g id="edge28_Node000014_Node000020" class="edge">
<title>Node14&#45;&gt;Node20</title>
<g id="a_edge28_Node000014_Node000020"><a xlink:title=" ">
<path fill="none" stroke="#63b8ff" d="M355.61,-152.02C368.12,-152.41 380.91,-152.75 393,-153 617.37,-157.6 882.17,-158.17 1012.97,-158.13"/>
<polygon fill="#63b8ff" stroke="#63b8ff" points="1013.3,-161.63 1023.29,-158.12 1013.29,-154.63 1013.3,-161.63"/>
</a>
</g>
</g>
<!-- Node21 -->
<g id="Node000021" class="node">
<title>Node21</title>
<g id="a_Node000021"><a xlink:href="namespacewmtk_1_1components.html#ad12cb27f259bc36dae03ccf73a88087f" target="_top" xlink:title=" ">
<polygon fill="white" stroke="#666666" points="524.5,-126 393.5,-126 393.5,-96 524.5,-96 524.5,-126"/>
<text text-anchor="start" x="401.5" y="-114" font-family="Helvetica,sans-Serif" font-size="10.00">wmtk::components::set</text>
<text text-anchor="middle" x="459" y="-103" font-family="Helvetica,sans-Serif" font-size="10.00">_intersection</text>
</a>
</g>
</g>
<!-- Node14&#45;&gt;Node21 -->
<g id="edge29_Node000014_Node000021" class="edge">
<title>Node14&#45;&gt;Node21</title>
<g id="a_edge29_Node000014_Node000021"><a xlink:title=" ">
<path fill="none" stroke="#63b8ff" d="M321.18,-139.41C340.01,-135.5 362.26,-130.88 383.29,-126.51"/>
<polygon fill="#63b8ff" stroke="#63b8ff" points="384.1,-129.92 393.18,-124.46 382.67,-123.07 384.1,-129.92"/>
</a>
</g>
</g>
<!-- Node17 -->
<g id="Node000017" class="node">
<title>Node17</title>
<g id="a_Node000017"><a xlink:href="classwmtk_1_1components_1_1_a_a_b_b_wrapper.html#a58422fdb85ba8107461e44b0959b47ca" target="_top" xlink:title=" ">
<polygon fill="white" stroke="#666666" points="746,-87 561,-87 561,-57 746,-57 746,-87"/>
<text text-anchor="start" x="569" y="-75" font-family="Helvetica,sans-Serif" font-size="10.00">wmtk::components::AABBWrapper</text>
<text text-anchor="middle" x="653.5" y="-64" font-family="Helvetica,sans-Serif" font-size="10.00">::is_out</text>
</a>
</g>
</g>
<!-- Node16&#45;&gt;Node17 -->
<g id="edge23_Node000016_Node000017" class="edge">
<title>Node16&#45;&gt;Node17</title>
<g id="a_edge23_Node000016_Node000017"><a xlink:title=" ">
<path fill="none" stroke="#63b8ff" d="M510.83,-30.05C535.72,-37.42 565.87,-46.35 591.95,-54.07"/>
<polygon fill="#63b8ff" stroke="#63b8ff" points="591.14,-57.48 601.72,-56.96 593.13,-50.77 591.14,-57.48"/>
</a>
</g>
</g>
<!-- Node18 -->
<g id="Node000018" class="node">
<title>Node18</title>
<g id="a_Node000018"><a xlink:href="classwmtk_1_1components_1_1_a_a_b_b_wrapper.html#a2b46fe0c98bd12dd35dac1a69375ebe7" target="_top" xlink:title=" ">
<polygon fill="white" stroke="#666666" points="967,-102 782,-102 782,-72 967,-72 967,-102"/>
<text text-anchor="start" x="790" y="-90" font-family="Helvetica,sans-Serif" font-size="10.00">wmtk::components::AABBWrapper</text>
<text text-anchor="middle" x="874.5" y="-79" font-family="Helvetica,sans-Serif" font-size="10.00">::is_out_using_sampling</text>
</a>
</g>
</g>
<!-- Node17&#45;&gt;Node18 -->
<g id="edge24_Node000017_Node000018" class="edge">
<title>Node17&#45;&gt;Node18</title>
<g id="a_edge24_Node000017_Node000018"><a xlink:title=" ">
<path fill="none" stroke="#63b8ff" d="M746.11,-78.27C754.62,-78.86 763.27,-79.45 771.86,-80.04"/>
<polygon fill="#63b8ff" stroke="#63b8ff" points="771.69,-83.53 781.91,-80.73 772.17,-76.55 771.69,-83.53"/>
</a>
</g>
</g>
<!-- Node19 -->
<g id="Node000019" class="node">
<title>Node19</title>
<g id="a_Node000019"><a xlink:href="classwmtk_1_1components_1_1_a_a_b_b_wrapper.html#a499f69640ba7395431a9c0605fcbe1b8" target="_top" xlink:title=" ">
<polygon fill="white" stroke="#666666" points="1188,-102 1003,-102 1003,-72 1188,-72 1188,-102"/>
<text text-anchor="start" x="1011" y="-90" font-family="Helvetica,sans-Serif" font-size="10.00">wmtk::components::AABBWrapper</text>
<text text-anchor="middle" x="1095.5" y="-79" font-family="Helvetica,sans-Serif" font-size="10.00">::is_out_envelope</text>
</a>
</g>
</g>
<!-- Node18&#45;&gt;Node19 -->
<g id="edge25_Node000018_Node000019" class="edge">
<title>Node18&#45;&gt;Node19</title>
<g id="a_edge25_Node000018_Node000019"><a xlink:title=" ">
<path fill="none" stroke="#63b8ff" d="M967.11,-87C975.62,-87 984.27,-87 992.86,-87"/>
<polygon fill="#63b8ff" stroke="#63b8ff" points="992.91,-90.5 1002.91,-87 992.91,-83.5 992.91,-90.5"/>
</a>
</g>
</g>
<!-- Node18&#45;&gt;Node20 -->
<g id="edge26_Node000018_Node000020" class="edge">
<title>Node18&#45;&gt;Node20</title>
<g id="a_edge26_Node000018_Node000020"><a xlink:title=" ">
<path fill="none" stroke="#63b8ff" d="M921.94,-102.06C961.59,-114.91 1017.97,-133.19 1055.36,-145.31"/>
<polygon fill="#63b8ff" stroke="#63b8ff" points="1054.32,-148.65 1064.91,-148.41 1056.47,-141.99 1054.32,-148.65"/>
</a>
</g>
</g>
<!-- Node21&#45;&gt;Node21 -->
<g id="edge30_Node000021_Node000021" class="edge">
<title>Node21&#45;&gt;Node21</title>
<g id="a_edge30_Node000021_Node000021"><a xlink:title=" ">
<path fill="none" stroke="#63b8ff" d="M426.66,-126.28C419.47,-135.41 430.25,-144 459,-144 476.07,-144 486.81,-140.97 491.21,-136.6"/>
<polygon fill="#63b8ff" stroke="#63b8ff" points="494.71,-136.32 491.34,-126.28 487.71,-136.23 494.71,-136.32"/>
</a>
</g>
</g>
</g>
</svg>
