<?xml version="1.0" encoding="UTF-8" standalone="no"?>
<!DOCTYPE svg PUBLIC "-//W3C//DTD SVG 1.1//EN"
 "http://www.w3.org/Graphics/SVG/1.1/DTD/svg11.dtd">
<!-- Generated by graphviz version 2.43.0 (0)
 -->
<!-- Title: wmtk::simplex::faces_single_dimension_tuples Pages: 1 -->
<svg width="918pt" height="636pt"
 viewBox="0.00 0.00 918.00 635.50" xmlns="http://www.w3.org/2000/svg" xmlns:xlink="http://www.w3.org/1999/xlink">
<g id="graph0" class="graph" transform="scale(1 1) rotate(0) translate(4 631.5)">
<title>wmtk::simplex::faces_single_dimension_tuples</title>
<!-- Node1 -->
<g id="Node000001" class="node">
<title>Node1</title>
<g id="a_Node000001"><a xlink:title=" ">
<polygon fill="#999999" stroke="#666666" points="910,-287.5 767,-287.5 767,-257.5 910,-257.5 910,-287.5"/>
<text text-anchor="start" x="775" y="-275.5" font-family="Helvetica,sans-Serif" font-size="10.00">wmtk::simplex::faces</text>
<text text-anchor="middle" x="838.5" y="-264.5" font-family="Helvetica,sans-Serif" font-size="10.00">_single_dimension_tuples</text>
</a>
</g>
</g>
<!-- Node2 -->
<g id="Node000002" class="node">
<title>Node2</title>
<g id="a_Node000002"><a xlink:href="classwmtk_1_1invariants_1_1_min_incident_valence_invariant.html#a86763a63b94889f8e22cd9c705c84110" target="_top" xlink:title=" ">
<polygon fill="white" stroke="#666666" points="727,-475.5 565,-475.5 565,-445.5 727,-445.5 727,-475.5"/>
<text text-anchor="start" x="573" y="-463.5" font-family="Helvetica,sans-Serif" font-size="10.00">wmtk::invariants::MinIncident</text>
<text text-anchor="middle" x="646" y="-452.5" font-family="Helvetica,sans-Serif" font-size="10.00">ValenceInvariant::after</text>
</a>
</g>
</g>
<!-- Node1&#45;&gt;Node2 -->
<g id="edge1_Node000001_Node000002" class="edge">
<title>Node1&#45;&gt;Node2</title>
<g id="a_edge1_Node000001_Node000002"><a xlink:title=" ">
<path fill="none" stroke="#63b8ff" d="M828.15,-297.08C813.19,-333.13 780.41,-399.98 731,-436.5 726.37,-439.93 721.26,-442.86 715.91,-445.38"/>
<polygon fill="#63b8ff" stroke="#63b8ff" points="831.41,-298.37 831.9,-287.79 824.92,-295.75 831.41,-298.37"/>
</a>
</g>
</g>
<!-- Node3 -->
<g id="Node000003" class="node">
<title>Node3</title>
<g id="a_Node000003"><a xlink:href="classwmtk_1_1invariants_1_1_valence_improvement_invariant.html#ac2f6805f4a5bfc3aba4f0c2169e03a99" target="_top" xlink:title=" ">
<polygon fill="white" stroke="#666666" points="728,-427.5 564,-427.5 564,-397.5 728,-397.5 728,-427.5"/>
<text text-anchor="start" x="572" y="-415.5" font-family="Helvetica,sans-Serif" font-size="10.00">wmtk::invariants::Valence</text>
<text text-anchor="middle" x="646" y="-404.5" font-family="Helvetica,sans-Serif" font-size="10.00">ImprovementInvariant::before</text>
</a>
</g>
</g>
<!-- Node1&#45;&gt;Node3 -->
<g id="edge2_Node000001_Node000003" class="edge">
<title>Node1&#45;&gt;Node3</title>
<g id="a_edge2_Node000001_Node000003"><a xlink:title=" ">
<path fill="none" stroke="#63b8ff" d="M821.96,-296.06C803.38,-322.4 769.87,-364.5 731,-388.5 725.45,-391.93 719.4,-394.88 713.16,-397.42"/>
<polygon fill="#63b8ff" stroke="#63b8ff" points="824.87,-298 827.67,-287.78 819.11,-294.02 824.87,-298"/>
</a>
</g>
</g>
<!-- Node4 -->
<g id="Node000004" class="node">
<title>Node4</title>
<g id="a_Node000004"><a xlink:href="classwmtk_1_1components_1_1internal_1_1_multi_mesh_from_tag.html#a00b7df05e0cd44c1a2d4e6ee39dbaacf" target="_top" xlink:title="Create the adjacency (stored as attribute) of the substructure.">
<polygon fill="white" stroke="#666666" points="723,-379 569,-379 569,-338 723,-338 723,-379"/>
<text text-anchor="start" x="577" y="-367" font-family="Helvetica,sans-Serif" font-size="10.00">wmtk::components::internal</text>
<text text-anchor="start" x="577" y="-356" font-family="Helvetica,sans-Serif" font-size="10.00">::MultiMeshFromTag::build</text>
<text text-anchor="middle" x="646" y="-345" font-family="Helvetica,sans-Serif" font-size="10.00">_adjacency_matrix</text>
</a>
</g>
</g>
<!-- Node1&#45;&gt;Node4 -->
<g id="edge3_Node000001_Node000004" class="edge">
<title>Node1&#45;&gt;Node4</title>
<g id="a_edge3_Node000001_Node000004"><a xlink:title=" ">
<path fill="none" stroke="#63b8ff" d="M802.86,-292.85C782.37,-304.43 755.66,-318.72 731,-329.5 724.36,-332.4 717.32,-335.22 710.26,-337.88"/>
<polygon fill="#63b8ff" stroke="#63b8ff" points="804.86,-295.74 811.81,-287.74 801.39,-289.65 804.86,-295.74"/>
</a>
</g>
</g>
<!-- Node16 -->
<g id="Node000016" class="node">
<title>Node16</title>
<g id="a_Node000016"><a xlink:href="classwmtk_1_1components_1_1internal_1_1_multi_mesh_from_tag.html#afb744eb2b5ec264a9a682ccfd3f8dfcb" target="_top" xlink:title="Compute the ids of the manifold substructure.">
<polygon fill="white" stroke="#666666" points="728,-320 564,-320 564,-279 728,-279 728,-320"/>
<text text-anchor="start" x="572" y="-308" font-family="Helvetica,sans-Serif" font-size="10.00">wmtk::components::internal</text>
<text text-anchor="start" x="572" y="-297" font-family="Helvetica,sans-Serif" font-size="10.00">::MultiMeshFromTag::compute</text>
<text text-anchor="middle" x="646" y="-286" font-family="Helvetica,sans-Serif" font-size="10.00">_substructure_ids</text>
</a>
</g>
</g>
<!-- Node1&#45;&gt;Node16 -->
<g id="edge15_Node000001_Node000016" class="edge">
<title>Node1&#45;&gt;Node16</title>
<g id="a_edge15_Node000001_Node000016"><a xlink:title=" ">
<path fill="none" stroke="#63b8ff" d="M756.68,-283.95C747.24,-285.29 737.6,-286.66 728.15,-288"/>
<polygon fill="#63b8ff" stroke="#63b8ff" points="757.43,-287.38 766.84,-282.52 756.44,-280.45 757.43,-287.38"/>
</a>
</g>
</g>
<!-- Node17 -->
<g id="Node000017" class="node">
<title>Node17</title>
<g id="a_Node000017"><a xlink:href="namespacewmtk_1_1function_1_1utils.html#a10708966079a04e25ba0ea7953479662" target="_top" xlink:title="get attributes from a simplex">
<polygon fill="white" stroke="#666666" points="713.5,-260.5 578.5,-260.5 578.5,-230.5 713.5,-230.5 713.5,-260.5"/>
<text text-anchor="start" x="586.5" y="-248.5" font-family="Helvetica,sans-Serif" font-size="10.00">wmtk::function::utils</text>
<text text-anchor="middle" x="646" y="-237.5" font-family="Helvetica,sans-Serif" font-size="10.00">::get_simplex_attributes</text>
</a>
</g>
</g>
<!-- Node1&#45;&gt;Node17 -->
<g id="edge17_Node000001_Node000017" class="edge">
<title>Node1&#45;&gt;Node17</title>
<g id="a_edge17_Node000001_Node000017"><a xlink:title=" ">
<path fill="none" stroke="#63b8ff" d="M756.55,-261.03C742.28,-259 727.58,-256.92 713.76,-254.96"/>
<polygon fill="#63b8ff" stroke="#63b8ff" points="756.44,-264.55 766.84,-262.48 757.43,-257.62 756.44,-264.55"/>
</a>
</g>
</g>
<!-- Node21 -->
<g id="Node000021" class="node">
<title>Node21</title>
<g id="a_Node000021"><a xlink:href="namespacewmtk_1_1simplex.html#a15e2b37cbcf34fa9fcd27d3449866254" target="_top" xlink:title=" ">
<polygon fill="white" stroke="#666666" points="717.5,-206.5 574.5,-206.5 574.5,-176.5 717.5,-176.5 717.5,-206.5"/>
<text text-anchor="start" x="582.5" y="-194.5" font-family="Helvetica,sans-Serif" font-size="10.00">wmtk::simplex::neighbors</text>
<text text-anchor="middle" x="646" y="-183.5" font-family="Helvetica,sans-Serif" font-size="10.00">_single_dimension_tuples</text>
</a>
</g>
</g>
<!-- Node1&#45;&gt;Node21 -->
<g id="edge21_Node000001_Node000021" class="edge">
<title>Node1&#45;&gt;Node21</title>
<g id="a_edge21_Node000001_Node000021"><a xlink:title=" ">
<path fill="none" stroke="#63b8ff" d="M798.92,-252.84C778.88,-242.93 753.87,-231.03 731,-221.5 718.42,-216.26 704.56,-211.08 691.79,-206.53"/>
<polygon fill="#63b8ff" stroke="#63b8ff" points="797.52,-256.05 808.03,-257.38 800.64,-249.78 797.52,-256.05"/>
</a>
</g>
</g>
<!-- Node26 -->
<g id="Node000026" class="node">
<title>Node26</title>
<g id="a_Node000026"><a xlink:href="classwmtk_1_1components_1_1internal_1_1_regular_space.html#af9adef544fff10ba9257d128fd13393c" target="_top" xlink:title=" ">
<polygon fill="white" stroke="#666666" points="731,-104.5 561,-104.5 561,-74.5 731,-74.5 731,-104.5"/>
<text text-anchor="start" x="569" y="-92.5" font-family="Helvetica,sans-Serif" font-size="10.00">wmtk::components::internal</text>
<text text-anchor="middle" x="646" y="-81.5" font-family="Helvetica,sans-Serif" font-size="10.00">::RegularSpace::regularize_tags</text>
</a>
</g>
</g>
<!-- Node1&#45;&gt;Node26 -->
<g id="edge26_Node000001_Node000026" class="edge">
<title>Node1&#45;&gt;Node26</title>
<g id="a_edge26_Node000001_Node000026"><a xlink:title=" ">
<path fill="none" stroke="#63b8ff" d="M815.15,-250.08C793.73,-228.68 760.41,-195.64 731,-167.5 707.85,-145.35 680.59,-120.21 663.55,-104.6"/>
<polygon fill="#63b8ff" stroke="#63b8ff" points="812.93,-252.81 822.47,-257.4 817.88,-247.86 812.93,-252.81"/>
</a>
</g>
</g>
<!-- Node30 -->
<g id="Node000030" class="node">
<title>Node30</title>
<g id="a_Node000030"><a xlink:href="namespacewmtk_1_1components.html#a1703c2264e52b16281828951556f8b11" target="_top" xlink:title=" ">
<polygon fill="white" stroke="#666666" points="709,-56.5 583,-56.5 583,-26.5 709,-26.5 709,-56.5"/>
<text text-anchor="start" x="591" y="-44.5" font-family="Helvetica,sans-Serif" font-size="10.00">wmtk::components::to</text>
<text text-anchor="middle" x="646" y="-33.5" font-family="Helvetica,sans-Serif" font-size="10.00">_points</text>
</a>
</g>
</g>
<!-- Node1&#45;&gt;Node30 -->
<g id="edge30_Node000001_Node000030" class="edge">
<title>Node1&#45;&gt;Node30</title>
<g id="a_edge30_Node000001_Node000030"><a xlink:title=" ">
<path fill="none" stroke="#63b8ff" d="M831.64,-247.61C820.08,-204.05 790.18,-114.04 731,-65.5 724.55,-60.21 716.99,-56.08 709.11,-52.87"/>
<polygon fill="#63b8ff" stroke="#63b8ff" points="828.27,-248.56 834.13,-257.38 835.05,-246.83 828.27,-248.56"/>
</a>
</g>
</g>
<!-- Node5 -->
<g id="Node000005" class="node">
<title>Node5</title>
<g id="a_Node000005"><a xlink:href="classwmtk_1_1components_1_1internal_1_1_multi_mesh_from_tag.html#a96647e9413f2b7e13dd17f02cf29b12d" target="_top" xlink:title="Create a manifold mesh from the substructure.">
<polygon fill="white" stroke="#666666" points="517,-431 353,-431 353,-390 517,-390 517,-431"/>
<text text-anchor="start" x="361" y="-419" font-family="Helvetica,sans-Serif" font-size="10.00">wmtk::components::internal</text>
<text text-anchor="start" x="361" y="-408" font-family="Helvetica,sans-Serif" font-size="10.00">::MultiMeshFromTag::compute</text>
<text text-anchor="middle" x="435" y="-397" font-family="Helvetica,sans-Serif" font-size="10.00">_substructure_mesh</text>
</a>
</g>
</g>
<!-- Node4&#45;&gt;Node5 -->
<g id="edge4_Node000004_Node000005" class="edge">
<title>Node4&#45;&gt;Node5</title>
<g id="a_edge4_Node000004_Node000005"><a xlink:title=" ">
<path fill="none" stroke="#63b8ff" d="M559,-379.9C545.2,-383.33 530.96,-386.87 517.27,-390.28"/>
<polygon fill="#63b8ff" stroke="#63b8ff" points="560.1,-383.23 568.95,-377.42 558.41,-376.44 560.1,-383.23"/>
</a>
</g>
</g>
<!-- Node6 -->
<g id="Node000006" class="node">
<title>Node6</title>
<g id="a_Node000006"><a xlink:href="namespacewmtk_1_1components.html#ac309092566399cef68679a1bb8107d1e" target="_top" xlink:title="Generate a multi&#45;mesh from a mesh with a tag that represents the substructure, the mesh is changed.">
<polygon fill="white" stroke="#666666" points="292.5,-627.5 123.5,-627.5 123.5,-597.5 292.5,-597.5 292.5,-627.5"/>
<text text-anchor="start" x="131.5" y="-615.5" font-family="Helvetica,sans-Serif" font-size="10.00">wmtk::components::multimesh</text>
<text text-anchor="middle" x="208" y="-604.5" font-family="Helvetica,sans-Serif" font-size="10.00">_from_tag</text>
</a>
</g>
</g>
<!-- Node5&#45;&gt;Node6 -->
<g id="edge5_Node000005_Node000006" class="edge">
<title>Node5&#45;&gt;Node6</title>
<g id="a_edge5_Node000005_Node000006"><a xlink:title=" ">
<path fill="none" stroke="#63b8ff" d="M421.25,-440.53C402.63,-480.65 364.1,-551.04 309,-588.5 303.91,-591.96 298.37,-594.93 292.6,-597.47"/>
<polygon fill="#63b8ff" stroke="#63b8ff" points="424.52,-441.81 425.45,-431.26 418.14,-438.92 424.52,-441.81"/>
</a>
</g>
</g>
<!-- Node8 -->
<g id="Node000008" class="node">
<title>Node8</title>
<g id="a_Node000008"><a xlink:href="namespacewmtk_1_1components.html#a4166e4880553cfacbf79ac3515a637cd" target="_top" xlink:title=" ">
<polygon fill="white" stroke="#666666" points="285.5,-579.5 130.5,-579.5 130.5,-549.5 285.5,-549.5 285.5,-579.5"/>
<text text-anchor="start" x="138.5" y="-567.5" font-family="Helvetica,sans-Serif" font-size="10.00">wmtk::components::periodic</text>
<text text-anchor="middle" x="208" y="-556.5" font-family="Helvetica,sans-Serif" font-size="10.00">_optimization</text>
</a>
</g>
</g>
<!-- Node5&#45;&gt;Node8 -->
<g id="edge7_Node000005_Node000008" class="edge">
<title>Node5&#45;&gt;Node8</title>
<g id="a_edge7_Node000005_Node000008"><a xlink:title=" ">
<path fill="none" stroke="#63b8ff" d="M413.99,-439.5C391.81,-469.41 353.26,-515.14 309,-540.5 301.72,-544.67 293.74,-548.12 285.57,-550.97"/>
<polygon fill="#63b8ff" stroke="#63b8ff" points="417.02,-441.29 420.08,-431.15 411.36,-437.17 417.02,-441.29"/>
</a>
</g>
</g>
<!-- Node9 -->
<g id="Node000009" class="node">
<title>Node9</title>
<g id="a_Node000009"><a xlink:href="test__component__multimesh__from__tag_8cpp.html#a2231774bf0d53fb5f6c1b34753afb255" target="_top" xlink:title=" ">
<polygon fill="white" stroke="#666666" points="243.5,-531 172.5,-531 172.5,-512 243.5,-512 243.5,-531"/>
<text text-anchor="middle" x="208" y="-519" font-family="Helvetica,sans-Serif" font-size="10.00">TEST_CASE</text>
</a>
</g>
</g>
<!-- Node5&#45;&gt;Node9 -->
<g id="edge8_Node000005_Node000009" class="edge">
<title>Node5&#45;&gt;Node9</title>
<g id="a_edge8_Node000005_Node000009"><a xlink:title=" ">
<path fill="none" stroke="#63b8ff" d="M405.32,-437.98C381.45,-459.24 345.57,-487.65 309,-503.5 288.44,-512.41 263.67,-516.91 243.93,-519.18"/>
<polygon fill="#63b8ff" stroke="#63b8ff" points="407.89,-440.38 412.94,-431.07 403.18,-435.19 407.89,-440.38"/>
</a>
</g>
</g>
<!-- Node10 -->
<g id="Node000010" class="node">
<title>Node10</title>
<g id="a_Node000010"><a xlink:href="test__component__multimesh__from__tag_8cpp.html#a9a31cb828b93e2ddcf0a5063d4d1c9e6" target="_top" xlink:title=" ">
<polygon fill="white" stroke="#666666" points="243.5,-494 172.5,-494 172.5,-475 243.5,-475 243.5,-494"/>
<text text-anchor="middle" x="208" y="-482" font-family="Helvetica,sans-Serif" font-size="10.00">TEST_CASE</text>
</a>
</g>
</g>
<!-- Node5&#45;&gt;Node10 -->
<g id="edge9_Node000005_Node000010" class="edge">
<title>Node5&#45;&gt;Node10</title>
<g id="a_edge9_Node000005_Node000010"><a xlink:title=" ">
<path fill="none" stroke="#63b8ff" d="M385.61,-435.49C362.86,-446.37 335.06,-458.45 309,-466.5 287.76,-473.06 263.21,-477.52 243.74,-480.36"/>
<polygon fill="#63b8ff" stroke="#63b8ff" points="387.24,-438.59 394.71,-431.08 384.18,-432.29 387.24,-438.59"/>
</a>
</g>
</g>
<!-- Node11 -->
<g id="Node000011" class="node">
<title>Node11</title>
<g id="a_Node000011"><a xlink:href="test__component__multimesh__from__tag_8cpp.html#a7a8f66a094907f369fa10876691f42f9" target="_top" xlink:title=" ">
<polygon fill="white" stroke="#666666" points="243.5,-457 172.5,-457 172.5,-438 243.5,-438 243.5,-457"/>
<text text-anchor="middle" x="208" y="-445" font-family="Helvetica,sans-Serif" font-size="10.00">TEST_CASE</text>
</a>
</g>
</g>
<!-- Node5&#45;&gt;Node11 -->
<g id="edge10_Node000005_Node000011" class="edge">
<title>Node5&#45;&gt;Node11</title>
<g id="a_edge10_Node000005_Node000011"><a xlink:title=" ">
<path fill="none" stroke="#63b8ff" d="M342.55,-425.54C307.72,-431.27 270.1,-437.45 243.69,-441.79"/>
<polygon fill="#63b8ff" stroke="#63b8ff" points="343.47,-428.93 352.77,-423.86 342.33,-422.03 343.47,-428.93"/>
</a>
</g>
</g>
<!-- Node12 -->
<g id="Node000012" class="node">
<title>Node12</title>
<g id="a_Node000012"><a xlink:href="test__component__multimesh__from__tag_8cpp.html#af55ce8249624ce4d6a3feaad760949a6" target="_top" xlink:title=" ">
<polygon fill="white" stroke="#666666" points="243.5,-420 172.5,-420 172.5,-401 243.5,-401 243.5,-420"/>
<text text-anchor="middle" x="208" y="-408" font-family="Helvetica,sans-Serif" font-size="10.00">TEST_CASE</text>
</a>
</g>
</g>
<!-- Node5&#45;&gt;Node12 -->
<g id="edge11_Node000005_Node000012" class="edge">
<title>Node5&#45;&gt;Node12</title>
<g id="a_edge11_Node000005_Node000012"><a xlink:title=" ">
<path fill="none" stroke="#63b8ff" d="M342.55,-410.5C307.72,-410.5 270.1,-410.5 243.69,-410.5"/>
<polygon fill="#63b8ff" stroke="#63b8ff" points="342.77,-414 352.77,-410.5 342.77,-407 342.77,-414"/>
</a>
</g>
</g>
<!-- Node13 -->
<g id="Node000013" class="node">
<title>Node13</title>
<g id="a_Node000013"><a xlink:href="test__component__multimesh__from__tag_8cpp.html#a18cd3d411cfadc472201c20662d62869" target="_top" xlink:title=" ">
<polygon fill="white" stroke="#666666" points="243.5,-383 172.5,-383 172.5,-364 243.5,-364 243.5,-383"/>
<text text-anchor="middle" x="208" y="-371" font-family="Helvetica,sans-Serif" font-size="10.00">TEST_CASE</text>
</a>
</g>
</g>
<!-- Node5&#45;&gt;Node13 -->
<g id="edge12_Node000005_Node000013" class="edge">
<title>Node5&#45;&gt;Node13</title>
<g id="a_edge12_Node000005_Node000013"><a xlink:title=" ">
<path fill="none" stroke="#63b8ff" d="M342.55,-395.46C307.72,-389.73 270.1,-383.55 243.69,-379.21"/>
<polygon fill="#63b8ff" stroke="#63b8ff" points="342.33,-398.97 352.77,-397.14 343.47,-392.07 342.33,-398.97"/>
</a>
</g>
</g>
<!-- Node14 -->
<g id="Node000014" class="node">
<title>Node14</title>
<g id="a_Node000014"><a xlink:href="test__component__multimesh__from__tag_8cpp.html#a4caad3dd8a6355f2ca66fdb0b0af7999" target="_top" xlink:title=" ">
<polygon fill="white" stroke="#666666" points="243.5,-346 172.5,-346 172.5,-327 243.5,-327 243.5,-346"/>
<text text-anchor="middle" x="208" y="-334" font-family="Helvetica,sans-Serif" font-size="10.00">TEST_CASE</text>
</a>
</g>
</g>
<!-- Node5&#45;&gt;Node14 -->
<g id="edge13_Node000005_Node000014" class="edge">
<title>Node5&#45;&gt;Node14</title>
<g id="a_edge13_Node000005_Node000014"><a xlink:title=" ">
<path fill="none" stroke="#63b8ff" d="M384.18,-385.47C361.67,-374.98 334.46,-363.41 309,-355.5 287.74,-348.9 263.18,-344.19 243.72,-341.11"/>
<polygon fill="#63b8ff" stroke="#63b8ff" points="382.98,-388.78 393.52,-389.89 385.97,-382.45 382.98,-388.78"/>
</a>
</g>
</g>
<!-- Node15 -->
<g id="Node000015" class="node">
<title>Node15</title>
<g id="a_Node000015"><a xlink:href="namespacewmtk_1_1components.html#a9d6d11e3b7ba03911492ecfc79622247" target="_top" xlink:title=" ">
<polygon fill="white" stroke="#666666" points="285,-308.5 131,-308.5 131,-278.5 285,-278.5 285,-308.5"/>
<text text-anchor="start" x="139" y="-296.5" font-family="Helvetica,sans-Serif" font-size="10.00">wmtk::components::triangle</text>
<text text-anchor="middle" x="208" y="-285.5" font-family="Helvetica,sans-Serif" font-size="10.00">_insertion</text>
</a>
</g>
</g>
<!-- Node5&#45;&gt;Node15 -->
<g id="edge14_Node000005_Node000015" class="edge">
<title>Node5&#45;&gt;Node15</title>
<g id="a_edge14_Node000005_Node000015"><a xlink:title=" ">
<path fill="none" stroke="#63b8ff" d="M404.09,-383.22C380.03,-362.64 344.49,-335.2 309,-318.5 300.82,-314.65 291.98,-311.35 283.05,-308.53"/>
<polygon fill="#63b8ff" stroke="#63b8ff" points="401.95,-386 411.79,-389.91 406.54,-380.71 401.95,-386"/>
</a>
</g>
</g>
<!-- Node7 -->
<g id="Node000007" class="node">
<title>Node7</title>
<g id="a_Node000007"><a xlink:href="test__component__multimesh__from__tag_8cpp.html#a2b0208caf4b963a36a43604c3e7cf34a" target="_top" xlink:title=" ">
<polygon fill="white" stroke="#666666" points="71,-622 0,-622 0,-603 71,-603 71,-622"/>
<text text-anchor="middle" x="35.5" y="-610" font-family="Helvetica,sans-Serif" font-size="10.00">TEST_CASE</text>
</a>
</g>
</g>
<!-- Node6&#45;&gt;Node7 -->
<g id="edge6_Node000006_Node000007" class="edge">
<title>Node6&#45;&gt;Node7</title>
<g id="a_edge6_Node000006_Node000007"><a xlink:title=" ">
<path fill="none" stroke="#63b8ff" d="M112.93,-612.5C98.09,-612.5 83.6,-612.5 71.3,-612.5"/>
<polygon fill="#63b8ff" stroke="#63b8ff" points="113.25,-616 123.25,-612.5 113.25,-609 113.25,-616"/>
</a>
</g>
</g>
<!-- Node16&#45;&gt;Node5 -->
<g id="edge16_Node000016_Node000005" class="edge">
<title>Node16&#45;&gt;Node5</title>
<g id="a_edge16_Node000016_Node000005"><a xlink:title=" ">
<path fill="none" stroke="#63b8ff" d="M572.85,-324.01C568.8,-325.78 564.83,-327.61 561,-329.5 525.76,-346.91 488.3,-372.2 463.68,-389.88"/>
<polygon fill="#63b8ff" stroke="#63b8ff" points="574.52,-327.11 582.4,-320.03 571.82,-320.65 574.52,-327.11"/>
</a>
</g>
</g>
<!-- Node18 -->
<g id="Node000018" class="node">
<title>Node18</title>
<g id="a_Node000018"><a xlink:href="classwmtk_1_1function_1_1_per_simplex_autodiff_function.html#a2925164a2ef8ed1f86a9c07075972967" target="_top" xlink:title=" ">
<polygon fill="white" stroke="#666666" points="525,-308.5 345,-308.5 345,-278.5 525,-278.5 525,-308.5"/>
<text text-anchor="start" x="353" y="-296.5" font-family="Helvetica,sans-Serif" font-size="10.00">wmtk::function::PerSimplex</text>
<text text-anchor="middle" x="435" y="-285.5" font-family="Helvetica,sans-Serif" font-size="10.00">AutodiffFunction::get_coordinates</text>
</a>
</g>
</g>
<!-- Node17&#45;&gt;Node18 -->
<g id="edge18_Node000017_Node000018" class="edge">
<title>Node17&#45;&gt;Node18</title>
<g id="a_edge18_Node000017_Node000018"><a xlink:title=" ">
<path fill="none" stroke="#63b8ff" d="M569.66,-262.8C547.29,-267.94 522.99,-273.52 501.32,-278.5"/>
<polygon fill="#63b8ff" stroke="#63b8ff" points="570.48,-266.21 579.44,-260.56 568.91,-259.38 570.48,-266.21"/>
</a>
</g>
</g>
<!-- Node19 -->
<g id="Node000019" class="node">
<title>Node19</title>
<g id="a_Node000019"><a xlink:href="classwmtk_1_1function_1_1_a_m_i_p_s.html#a36709a007132c33f85efe0b4abd16b93" target="_top" xlink:title=" ">
<polygon fill="white" stroke="#666666" points="498.5,-260.5 371.5,-260.5 371.5,-230.5 498.5,-230.5 498.5,-260.5"/>
<text text-anchor="start" x="379.5" y="-248.5" font-family="Helvetica,sans-Serif" font-size="10.00">wmtk::function::AMIPS</text>
<text text-anchor="middle" x="435" y="-237.5" font-family="Helvetica,sans-Serif" font-size="10.00">::get_raw_coordinates</text>
</a>
</g>
</g>
<!-- Node17&#45;&gt;Node19 -->
<g id="edge19_Node000017_Node000019" class="edge">
<title>Node17&#45;&gt;Node19</title>
<g id="a_edge19_Node000017_Node000019"><a xlink:title=" ">
<path fill="none" stroke="#63b8ff" d="M568.25,-245.5C545.31,-245.5 520.43,-245.5 498.52,-245.5"/>
<polygon fill="#63b8ff" stroke="#63b8ff" points="568.3,-249 578.3,-245.5 568.3,-242 568.3,-249"/>
</a>
</g>
</g>
<!-- Node20 -->
<g id="Node000020" class="node">
<title>Node20</title>
<g id="a_Node000020"><a xlink:href="classwmtk_1_1operations_1_1_a_m_i_p_s_optimization_smoothing.html#a2c409cd3da46f4360119e142ef3c3682" target="_top" xlink:title="returns an empty vector in case of failure">
<polygon fill="white" stroke="#666666" points="309,-260.5 107,-260.5 107,-230.5 309,-230.5 309,-260.5"/>
<text text-anchor="start" x="115" y="-248.5" font-family="Helvetica,sans-Serif" font-size="10.00">wmtk::operations::AMIPSOptimization</text>
<text text-anchor="middle" x="208" y="-237.5" font-family="Helvetica,sans-Serif" font-size="10.00">Smoothing::execute</text>
</a>
</g>
</g>
<!-- Node19&#45;&gt;Node20 -->
<g id="edge20_Node000019_Node000020" class="edge">
<title>Node19&#45;&gt;Node20</title>
<g id="a_edge20_Node000019_Node000020"><a xlink:title=" ">
<path fill="none" stroke="#63b8ff" d="M361.2,-245.5C344.64,-245.5 326.77,-245.5 309.3,-245.5"/>
<polygon fill="#63b8ff" stroke="#63b8ff" points="361.32,-249 371.32,-245.5 361.32,-242 361.32,-249"/>
</a>
</g>
</g>
<!-- Node22 -->
<g id="Node000022" class="node">
<title>Node22</title>
<g id="a_Node000022"><a xlink:href="classwmtk_1_1operations_1_1_attribute_transfer_strategy_base.html#a6883c6416f61c4ee06588a86c3b8d731" target="_top" xlink:title=" ">
<polygon fill="white" stroke="#666666" points="510.5,-212 359.5,-212 359.5,-171 510.5,-171 510.5,-212"/>
<text text-anchor="start" x="367.5" y="-200" font-family="Helvetica,sans-Serif" font-size="10.00">wmtk::operations::Attribute</text>
<text text-anchor="start" x="367.5" y="-189" font-family="Helvetica,sans-Serif" font-size="10.00">TransferStrategyBase::get</text>
<text text-anchor="middle" x="435" y="-178" font-family="Helvetica,sans-Serif" font-size="10.00">_parent_simplices</text>
</a>
</g>
</g>
<!-- Node21&#45;&gt;Node22 -->
<g id="edge22_Node000021_Node000022" class="edge">
<title>Node21&#45;&gt;Node22</title>
<g id="a_edge22_Node000021_Node000022"><a xlink:title=" ">
<path fill="none" stroke="#63b8ff" d="M564.02,-191.5C546.44,-191.5 527.93,-191.5 510.61,-191.5"/>
<polygon fill="#63b8ff" stroke="#63b8ff" points="564.24,-195 574.24,-191.5 564.24,-188 564.24,-195"/>
</a>
</g>
</g>
<!-- Node25 -->
<g id="Node000025" class="node">
<title>Node25</title>
<g id="a_Node000025"><a xlink:href="namespacewmtk_1_1simplex.html#a9cd714440f235fdd4df798e86dc2d597" target="_top" xlink:title=" ">
<polygon fill="white" stroke="#666666" points="506.5,-152.5 363.5,-152.5 363.5,-122.5 506.5,-122.5 506.5,-152.5"/>
<text text-anchor="start" x="371.5" y="-140.5" font-family="Helvetica,sans-Serif" font-size="10.00">wmtk::simplex::neighbors</text>
<text text-anchor="middle" x="435" y="-129.5" font-family="Helvetica,sans-Serif" font-size="10.00">_single_dimension</text>
</a>
</g>
</g>
<!-- Node21&#45;&gt;Node25 -->
<g id="edge25_Node000021_Node000025" class="edge">
<title>Node21&#45;&gt;Node25</title>
<g id="a_edge25_Node000021_Node000025"><a xlink:title=" ">
<path fill="none" stroke="#63b8ff" d="M576.76,-173.87C550.11,-166.98 519.87,-159.17 494.27,-152.55"/>
<polygon fill="#63b8ff" stroke="#63b8ff" points="576.22,-177.35 586.78,-176.46 577.98,-170.57 576.22,-177.35"/>
</a>
</g>
</g>
<!-- Node23 -->
<g id="Node000023" class="node">
<title>Node23</title>
<g id="a_Node000023"><a xlink:href="classwmtk_1_1operations_1_1_attribute_transfer_strategy_base.html#aa5e03221c4b6b49e1892ed464d84c0cd" target="_top" xlink:title=" ">
<polygon fill="white" stroke="#666666" points="283.5,-212 132.5,-212 132.5,-171 283.5,-171 283.5,-212"/>
<text text-anchor="start" x="140.5" y="-200" font-family="Helvetica,sans-Serif" font-size="10.00">wmtk::operations::Attribute</text>
<text text-anchor="start" x="140.5" y="-189" font-family="Helvetica,sans-Serif" font-size="10.00">TransferStrategyBase::get</text>
<text text-anchor="middle" x="208" y="-178" font-family="Helvetica,sans-Serif" font-size="10.00">_parent_simplices</text>
</a>
</g>
</g>
<!-- Node22&#45;&gt;Node23 -->
<g id="edge23_Node000022_Node000023" class="edge">
<title>Node22&#45;&gt;Node23</title>
<g id="a_edge23_Node000022_Node000023"><a xlink:title=" ">
<path fill="none" stroke="#63b8ff" d="M349.29,-191.5C327.76,-191.5 304.78,-191.5 283.79,-191.5"/>
<polygon fill="#63b8ff" stroke="#63b8ff" points="349.39,-195 359.39,-191.5 349.39,-188 349.39,-195"/>
</a>
</g>
</g>
<!-- Node24 -->
<g id="Node000024" class="node">
<title>Node24</title>
<g id="a_Node000024"><a xlink:href="classwmtk_1_1operations_1_1_single_attribute_transfer_strategy.html#aa5bf8a5fdf8527d9843f3f578c646b41" target="_top" xlink:title=" ">
<polygon fill="white" stroke="#666666" points="278,-153 138,-153 138,-112 278,-112 278,-153"/>
<text text-anchor="start" x="146" y="-141" font-family="Helvetica,sans-Serif" font-size="10.00">wmtk::operations::Single</text>
<text text-anchor="start" x="146" y="-130" font-family="Helvetica,sans-Serif" font-size="10.00">AttributeTransferStrategy</text>
<text text-anchor="middle" x="208" y="-119" font-family="Helvetica,sans-Serif" font-size="10.00">::read_parent_values</text>
</a>
</g>
</g>
<!-- Node22&#45;&gt;Node24 -->
<g id="edge24_Node000022_Node000024" class="edge">
<title>Node22&#45;&gt;Node24</title>
<g id="a_edge24_Node000022_Node000024"><a xlink:title=" ">
<path fill="none" stroke="#63b8ff" d="M349.42,-169.32C325.89,-163.15 300.61,-156.52 278.08,-150.62"/>
<polygon fill="#63b8ff" stroke="#63b8ff" points="348.83,-172.78 359.39,-171.94 350.61,-166.01 348.83,-172.78"/>
</a>
</g>
</g>
<!-- Node27 -->
<g id="Node000027" class="node">
<title>Node27</title>
<g id="a_Node000027"><a xlink:href="namespacewmtk_1_1components.html#a7cec0c38121ddd036af26c760311d0e8" target="_top" xlink:title=" ">
<polygon fill="white" stroke="#666666" points="510.5,-104.5 359.5,-104.5 359.5,-74.5 510.5,-74.5 510.5,-104.5"/>
<text text-anchor="start" x="367.5" y="-92.5" font-family="Helvetica,sans-Serif" font-size="10.00">wmtk::components::regular</text>
<text text-anchor="middle" x="435" y="-81.5" font-family="Helvetica,sans-Serif" font-size="10.00">_space</text>
</a>
</g>
</g>
<!-- Node26&#45;&gt;Node27 -->
<g id="edge27_Node000026_Node000027" class="edge">
<title>Node26&#45;&gt;Node27</title>
<g id="a_edge27_Node000026_Node000027"><a xlink:title=" ">
<path fill="none" stroke="#63b8ff" d="M550.73,-89.5C537.36,-89.5 523.77,-89.5 510.83,-89.5"/>
<polygon fill="#63b8ff" stroke="#63b8ff" points="550.9,-93 560.9,-89.5 550.9,-86 550.9,-93"/>
</a>
</g>
</g>
<!-- Node28 -->
<g id="Node000028" class="node">
<title>Node28</title>
<g id="a_Node000028"><a xlink:href="test__component__regular__space_8cpp.html#a728024a1ea7ac078fd93d4035f705520" target="_top" xlink:title=" ">
<polygon fill="white" stroke="#666666" points="470.5,-56 399.5,-56 399.5,-37 470.5,-37 470.5,-56"/>
<text text-anchor="middle" x="435" y="-44" font-family="Helvetica,sans-Serif" font-size="10.00">TEST_CASE</text>
</a>
</g>
</g>
<!-- Node26&#45;&gt;Node28 -->
<g id="edge28_Node000026_Node000028" class="edge">
<title>Node26&#45;&gt;Node28</title>
<g id="a_edge28_Node000026_Node000028"><a xlink:title=" ">
<path fill="none" stroke="#63b8ff" d="M561.7,-72.36C529.95,-65.83 495.48,-58.74 470.67,-53.63"/>
<polygon fill="#63b8ff" stroke="#63b8ff" points="561.4,-75.87 571.9,-74.46 562.81,-69.02 561.4,-75.87"/>
</a>
</g>
</g>
<!-- Node29 -->
<g id="Node000029" class="node">
<title>Node29</title>
<g id="a_Node000029"><a xlink:href="test__component__regular__space_8cpp.html#a5e69783b3ce0c074477e3081ab8cf658" target="_top" xlink:title=" ">
<polygon fill="white" stroke="#666666" points="470.5,-19 399.5,-19 399.5,0 470.5,0 470.5,-19"/>
<text text-anchor="middle" x="435" y="-7" font-family="Helvetica,sans-Serif" font-size="10.00">TEST_CASE</text>
</a>
</g>
</g>
<!-- Node26&#45;&gt;Node29 -->
<g id="edge29_Node000026_Node000029" class="edge">
<title>Node26&#45;&gt;Node29</title>
<g id="a_edge29_Node000026_Node000029"><a xlink:title=" ">
<path fill="none" stroke="#63b8ff" d="M569.7,-70.24C566.7,-68.77 563.79,-67.19 561,-65.5 541.11,-53.43 545.35,-38.78 525,-27.5 508.45,-18.33 487.86,-13.8 470.66,-11.58"/>
<polygon fill="#63b8ff" stroke="#63b8ff" points="568.33,-73.46 578.89,-74.33 571.18,-67.07 568.33,-73.46"/>
</a>
</g>
</g>
</g>
</svg>
