<?xml version="1.0" encoding="UTF-8" standalone="no"?>
<!DOCTYPE svg PUBLIC "-//W3C//DTD SVG 1.1//EN"
 "http://www.w3.org/Graphics/SVG/1.1/DTD/svg11.dtd">
<!-- Generated by graphviz version 2.43.0 (0)
 -->
<!-- Title: wmtk::utils::generate_background_mesh Pages: 1 -->
<svg width="281pt" height="56pt"
 viewBox="0.00 0.00 281.00 56.00" xmlns="http://www.w3.org/2000/svg" xmlns:xlink="http://www.w3.org/1999/xlink">
<g id="graph0" class="graph" transform="scale(1 1) rotate(0) translate(4 52)">
<title>wmtk::utils::generate_background_mesh</title>
<!-- Node1 -->
<g id="Node000001" class="node">
<title>Node1</title>
<g id="a_Node000001"><a xlink:title=" ">
<polygon fill="#999999" stroke="#666666" points="121,-30 0,-30 0,0 121,0 121,-30"/>
<text text-anchor="start" x="8" y="-18" font-family="Helvetica,sans-Serif" font-size="10.00">wmtk::utils::generate</text>
<text text-anchor="middle" x="60.5" y="-7" font-family="Helvetica,sans-Serif" font-size="10.00">_background_mesh</text>
</a>
</g>
</g>
<!-- Node1&#45;&gt;Node1 -->
<g id="edge1_Node000001_Node000001" class="edge">
<title>Node1&#45;&gt;Node1</title>
<g id="a_edge1_Node000001_Node000001"><a xlink:title=" ">
<path fill="none" stroke="#63b8ff" d="M33.43,-30.28C27.41,-39.41 36.44,-48 60.5,-48 74.79,-48 83.77,-44.97 87.46,-40.6"/>
<polygon fill="#63b8ff" stroke="#63b8ff" points="90.96,-40.31 87.57,-30.28 83.96,-40.24 90.96,-40.31"/>
</a>
</g>
</g>
<!-- Node2 -->
<g id="Node000002" class="node">
<title>Node2</title>
<g id="a_Node000002"><a xlink:href="namespacewmtk_1_1utils.html#ad6ff5945e175fd6e1b15537435aa22bd" target="_top" xlink:title=" ">
<polygon fill="white" stroke="#666666" points="273,-24.5 157,-24.5 157,-5.5 273,-5.5 273,-24.5"/>
<text text-anchor="middle" x="215" y="-12.5" font-family="Helvetica,sans-Serif" font-size="10.00">wmtk::utils::v_index</text>
</a>
</g>
</g>
<!-- Node1&#45;&gt;Node2 -->
<g id="edge2_Node000001_Node000002" class="edge">
<title>Node1&#45;&gt;Node2</title>
<g id="a_edge2_Node000001_Node000002"><a xlink:title=" ">
<path fill="none" stroke="#63b8ff" d="M121.33,-15C129.64,-15 138.22,-15 146.65,-15"/>
<polygon fill="#63b8ff" stroke="#63b8ff" points="146.83,-18.5 156.83,-15 146.83,-11.5 146.83,-18.5"/>
</a>
</g>
</g>
<!-- Node2&#45;&gt;Node2 -->
<g id="edge3_Node000002_Node000002" class="edge">
<title>Node2&#45;&gt;Node2</title>
<g id="a_edge3_Node000002_Node000002"><a xlink:title=" ">
<path fill="none" stroke="#63b8ff" d="M191.26,-24.58C179.72,-33.23 187.63,-42.5 215,-42.5 232.96,-42.5 242.54,-38.51 243.75,-33.32"/>
<polygon fill="#63b8ff" stroke="#63b8ff" points="246.75,-31.52 238.74,-24.58 240.67,-35 246.75,-31.52"/>
</a>
</g>
</g>
</g>
</svg>
