<?xml version="1.0" encoding="UTF-8" standalone="no"?>
<!DOCTYPE svg PUBLIC "-//W3C//DTD SVG 1.1//EN"
 "http://www.w3.org/Graphics/SVG/1.1/DTD/svg11.dtd">
<!-- Generated by graphviz version 2.43.0 (0)
 -->
<!-- Title: wmtk::simplex::top_dimension_cofaces_tuples Pages: 1 -->
<svg width="1224pt" height="331pt"
 viewBox="0.00 0.00 1224.00 331.00" xmlns="http://www.w3.org/2000/svg" xmlns:xlink="http://www.w3.org/1999/xlink">
<g id="graph0" class="graph" transform="scale(1 1) rotate(0) translate(4 327)">
<title>wmtk::simplex::top_dimension_cofaces_tuples</title>
<!-- Node1 -->
<g id="Node000001" class="node">
<title>Node1</title>
<g id="a_Node000001"><a xlink:title=" ">
<polygon fill="#999999" stroke="#666666" points="151,-99 0,-99 0,-69 151,-69 151,-99"/>
<text text-anchor="start" x="8" y="-87" font-family="Helvetica,sans-Serif" font-size="10.00">wmtk::simplex::top</text>
<text text-anchor="middle" x="75.5" y="-76" font-family="Helvetica,sans-Serif" font-size="10.00">_dimension_cofaces_tuples</text>
</a>
</g>
</g>
<!-- Node2 -->
<g id="Node000002" class="node">
<title>Node2</title>
<g id="a_Node000002"><a xlink:href="classwmtk_1_1_edge_mesh.html#a534952cf2729f1509a380e3e9afb65b7" target="_top" xlink:title=" ">
<polygon fill="white" stroke="#666666" points="692.5,-102 577.5,-102 577.5,-72 692.5,-72 692.5,-102"/>
<text text-anchor="start" x="585.5" y="-90" font-family="Helvetica,sans-Serif" font-size="10.00">wmtk::EdgeMesh::is</text>
<text text-anchor="middle" x="635" y="-79" font-family="Helvetica,sans-Serif" font-size="10.00">_boundary_vertex</text>
</a>
</g>
</g>
<!-- Node1&#45;&gt;Node2 -->
<g id="edge1_Node000001_Node000002" class="edge">
<title>Node1&#45;&gt;Node2</title>
<g id="a_edge1_Node000001_Node000002"><a xlink:title=" ">
<path fill="none" stroke="#63b8ff" d="M151.09,-86.3C163.1,-86.59 175.39,-86.84 187,-87 321.91,-88.83 479.76,-88.17 567.15,-87.57"/>
<polygon fill="#63b8ff" stroke="#63b8ff" points="567.22,-91.07 577.19,-87.49 567.17,-84.07 567.22,-91.07"/>
</a>
</g>
</g>
<!-- Node8 -->
<g id="Node000008" class="node">
<title>Node8</title>
<g id="a_Node000008"><a xlink:href="classwmtk_1_1simplex_1_1_simplex.html#ad2cc0340a0772b7d6f03ba7a781d1163" target="_top" xlink:title=" ">
<polygon fill="white" stroke="#666666" points="338,-78 203,-78 203,-48 338,-48 338,-78"/>
<text text-anchor="start" x="211" y="-66" font-family="Helvetica,sans-Serif" font-size="10.00">wmtk::simplex::Simplex</text>
<text text-anchor="middle" x="270.5" y="-55" font-family="Helvetica,sans-Serif" font-size="10.00">::primitive_type</text>
</a>
</g>
</g>
<!-- Node1&#45;&gt;Node8 -->
<g id="edge8_Node000001_Node000008" class="edge">
<title>Node1&#45;&gt;Node8</title>
<g id="a_edge8_Node000001_Node000008"><a xlink:title=" ">
<path fill="none" stroke="#63b8ff" d="M151.12,-75.88C164.73,-74.4 178.95,-72.85 192.62,-71.36"/>
<polygon fill="#63b8ff" stroke="#63b8ff" points="193.39,-74.8 202.95,-70.24 192.63,-67.84 193.39,-74.8"/>
</a>
</g>
</g>
<!-- Node9 -->
<g id="Node000009" class="node">
<title>Node9</title>
<g id="a_Node000009"><a xlink:href="classwmtk_1_1_edge_mesh.html#a04f6595fe85e52dc6bf1e02512120100" target="_top" xlink:title=" ">
<polygon fill="white" stroke="#666666" points="354,-165.5 187,-165.5 187,-146.5 354,-146.5 354,-165.5"/>
<text text-anchor="middle" x="270.5" y="-153.5" font-family="Helvetica,sans-Serif" font-size="10.00">wmtk::EdgeMesh::switch_edge</text>
</a>
</g>
</g>
<!-- Node1&#45;&gt;Node9 -->
<g id="edge9_Node000001_Node000009" class="edge">
<title>Node1&#45;&gt;Node9</title>
<g id="a_edge9_Node000001_Node000009"><a xlink:title=" ">
<path fill="none" stroke="#63b8ff" d="M116.96,-99.09C151.62,-112.02 201.04,-130.46 234.14,-142.81"/>
<polygon fill="#63b8ff" stroke="#63b8ff" points="233.26,-146.22 243.85,-146.43 235.71,-139.66 233.26,-146.22"/>
</a>
</g>
</g>
<!-- Node16 -->
<g id="Node000016" class="node">
<title>Node16</title>
<g id="a_Node000016"><a xlink:href="classwmtk_1_1simplex_1_1_simplex.html#aca78b1fb0a3c28c0036cf7919bfb0789" target="_top" xlink:title=" ">
<polygon fill="white" stroke="#666666" points="338,-30 203,-30 203,0 338,0 338,-30"/>
<text text-anchor="start" x="211" y="-18" font-family="Helvetica,sans-Serif" font-size="10.00">wmtk::simplex::Simplex</text>
<text text-anchor="middle" x="270.5" y="-7" font-family="Helvetica,sans-Serif" font-size="10.00">::tuple</text>
</a>
</g>
</g>
<!-- Node1&#45;&gt;Node16 -->
<g id="edge20_Node000001_Node000016" class="edge">
<title>Node1&#45;&gt;Node16</title>
<g id="a_edge20_Node000001_Node000016"><a xlink:title=" ">
<path fill="none" stroke="#63b8ff" d="M110.99,-68.88C132.61,-59.67 161.18,-47.99 187,-39 192.82,-36.97 198.92,-34.97 205.05,-33.05"/>
<polygon fill="#63b8ff" stroke="#63b8ff" points="206.14,-36.38 214.66,-30.09 204.08,-29.69 206.14,-36.38"/>
</a>
</g>
</g>
<!-- Node3 -->
<g id="Node000003" class="node">
<title>Node3</title>
<g id="a_Node000003"><a xlink:href="classwmtk_1_1attribute_1_1_accessor.html#a4b89ff4381fe73d4827b663203a964fc" target="_top" xlink:title=" ">
<polygon fill="white" stroke="#666666" points="884,-183 742,-183 742,-153 884,-153 884,-183"/>
<text text-anchor="start" x="750" y="-171" font-family="Helvetica,sans-Serif" font-size="10.00">wmtk::attribute::Accessor</text>
<text text-anchor="middle" x="813" y="-160" font-family="Helvetica,sans-Serif" font-size="10.00">::const_vector_attribute</text>
</a>
</g>
</g>
<!-- Node2&#45;&gt;Node3 -->
<g id="edge2_Node000002_Node000003" class="edge">
<title>Node2&#45;&gt;Node3</title>
<g id="a_edge2_Node000002_Node000003"><a xlink:title=" ">
<path fill="none" stroke="#63b8ff" d="M668.69,-102.05C697.25,-115.19 738.88,-134.35 769.92,-148.63"/>
<polygon fill="#63b8ff" stroke="#63b8ff" points="768.64,-151.9 779.19,-152.9 771.56,-145.54 768.64,-151.9"/>
</a>
</g>
</g>
<!-- Node4 -->
<g id="Node000004" class="node">
<title>Node4</title>
<g id="a_Node000004"><a xlink:href="classwmtk_1_1_edge_mesh.html#acd802c89cf0cba9c312a8e7ecfa11c80" target="_top" xlink:title="check validity of tuple including its hash">
<polygon fill="white" stroke="#666666" points="870.5,-102 755.5,-102 755.5,-72 870.5,-72 870.5,-102"/>
<text text-anchor="start" x="763.5" y="-90" font-family="Helvetica,sans-Serif" font-size="10.00">wmtk::EdgeMesh::is</text>
<text text-anchor="middle" x="813" y="-79" font-family="Helvetica,sans-Serif" font-size="10.00">_valid</text>
</a>
</g>
</g>
<!-- Node2&#45;&gt;Node4 -->
<g id="edge3_Node000002_Node000004" class="edge">
<title>Node2&#45;&gt;Node4</title>
<g id="a_edge3_Node000002_Node000004"><a xlink:title=" ">
<path fill="none" stroke="#63b8ff" d="M692.66,-87C709.46,-87 728.01,-87 745.38,-87"/>
<polygon fill="#63b8ff" stroke="#63b8ff" points="745.45,-90.5 755.45,-87 745.45,-83.5 745.45,-90.5"/>
</a>
</g>
</g>
<!-- Node5 -->
<g id="Node000005" class="node">
<title>Node5</title>
<g id="a_Node000005"><a xlink:href="classwmtk_1_1_mesh.html#a8cc8686f0688613806f43720b6db49e7" target="_top" xlink:title="check validity of tuple including its hash">
<polygon fill="white" stroke="#666666" points="1040,-96.5 920,-96.5 920,-77.5 1040,-77.5 1040,-96.5"/>
<text text-anchor="middle" x="980" y="-84.5" font-family="Helvetica,sans-Serif" font-size="10.00">wmtk::Mesh::is_valid</text>
</a>
</g>
</g>
<!-- Node4&#45;&gt;Node5 -->
<g id="edge4_Node000004_Node000005" class="edge">
<title>Node4&#45;&gt;Node5</title>
<g id="a_edge4_Node000004_Node000005"><a xlink:title=" ">
<path fill="none" stroke="#63b8ff" d="M870.78,-87C883.29,-87 896.67,-87 909.61,-87"/>
<polygon fill="#63b8ff" stroke="#63b8ff" points="909.86,-90.5 919.86,-87 909.86,-83.5 909.86,-90.5"/>
</a>
</g>
</g>
<!-- Node6 -->
<g id="Node000006" class="node">
<title>Node6</title>
<g id="a_Node000006"><a xlink:href="classwmtk_1_1_tuple.html#a0023f575be92cd5ceeeaaaa3762ea06d" target="_top" xlink:title="Checks if a tuple is &quot;null&quot;. This merely implies the global index is &#45;1.">
<polygon fill="white" stroke="#666666" points="1202.5,-124.5 1089.5,-124.5 1089.5,-105.5 1202.5,-105.5 1202.5,-124.5"/>
<text text-anchor="middle" x="1146" y="-112.5" font-family="Helvetica,sans-Serif" font-size="10.00">wmtk::Tuple::is_null</text>
</a>
</g>
</g>
<!-- Node5&#45;&gt;Node6 -->
<g id="edge5_Node000005_Node000006" class="edge">
<title>Node5&#45;&gt;Node6</title>
<g id="a_edge5_Node000005_Node000006"><a xlink:title=" ">
<path fill="none" stroke="#63b8ff" d="M1036.98,-96.56C1050.57,-98.88 1065.22,-101.38 1079.22,-103.77"/>
<polygon fill="#63b8ff" stroke="#63b8ff" points="1078.83,-107.25 1089.27,-105.49 1080,-100.35 1078.83,-107.25"/>
</a>
</g>
</g>
<!-- Node7 -->
<g id="Node000007" class="node">
<title>Node7</title>
<g id="a_Node000007"><a xlink:href="classwmtk_1_1_mesh.html#ade176d345902d97af8c5da04aa3a095b" target="_top" xlink:title=" ">
<polygon fill="white" stroke="#666666" points="1216,-69.5 1076,-69.5 1076,-50.5 1216,-50.5 1216,-69.5"/>
<text text-anchor="middle" x="1146" y="-57.5" font-family="Helvetica,sans-Serif" font-size="10.00">wmtk::Mesh::is_removed</text>
</a>
</g>
</g>
<!-- Node5&#45;&gt;Node7 -->
<g id="edge6_Node000005_Node000007" class="edge">
<title>Node5&#45;&gt;Node7</title>
<g id="a_edge6_Node000005_Node000007"><a xlink:title=" ">
<path fill="none" stroke="#63b8ff" d="M1038.82,-77.48C1051.19,-75.44 1064.37,-73.27 1077.08,-71.18"/>
<polygon fill="#63b8ff" stroke="#63b8ff" points="1077.85,-74.6 1087.15,-69.52 1076.71,-67.7 1077.85,-74.6"/>
</a>
</g>
</g>
<!-- Node7&#45;&gt;Node7 -->
<g id="edge7_Node000007_Node000007" class="edge">
<title>Node7&#45;&gt;Node7</title>
<g id="a_edge7_Node000007_Node000007"><a xlink:title=" ">
<path fill="none" stroke="#63b8ff" d="M1120.41,-69.58C1107.97,-78.23 1116.5,-87.5 1146,-87.5 1165.36,-87.5 1175.69,-83.51 1176.99,-78.32"/>
<polygon fill="#63b8ff" stroke="#63b8ff" points="1179.82,-76.25 1171.59,-69.58 1173.87,-79.93 1179.82,-76.25"/>
</a>
</g>
</g>
<!-- Node10 -->
<g id="Node000010" class="node">
<title>Node10</title>
<g id="a_Node000010"><a xlink:href="classwmtk_1_1_edge_mesh.html#a46725851b572b51a356450adc30c14ed" target="_top" xlink:title="switch the orientation of the Tuple of the given dimension">
<polygon fill="white" stroke="#666666" points="528,-183 390,-183 390,-153 528,-153 528,-183"/>
<text text-anchor="start" x="398" y="-171" font-family="Helvetica,sans-Serif" font-size="10.00">wmtk::EdgeMesh::switch</text>
<text text-anchor="middle" x="459" y="-160" font-family="Helvetica,sans-Serif" font-size="10.00">_tuple</text>
</a>
</g>
</g>
<!-- Node9&#45;&gt;Node10 -->
<g id="edge10_Node000009_Node000010" class="edge">
<title>Node9&#45;&gt;Node10</title>
<g id="a_edge10_Node000009_Node000010"><a xlink:title=" ">
<path fill="none" stroke="#63b8ff" d="M354.12,-161.32C362.64,-161.86 371.28,-162.42 379.75,-162.96"/>
<polygon fill="#63b8ff" stroke="#63b8ff" points="379.77,-166.47 389.98,-163.62 380.22,-159.49 379.77,-166.47"/>
</a>
</g>
</g>
<!-- Node10&#45;&gt;Node3 -->
<g id="edge12_Node000010_Node000003" class="edge">
<title>Node10&#45;&gt;Node3</title>
<g id="a_edge12_Node000010_Node000003"><a xlink:title=" ">
<path fill="none" stroke="#63b8ff" d="M474.07,-183.19C492.57,-201.94 527.09,-232.82 564,-245 623.93,-264.77 645.98,-264.5 706,-245 739.04,-234.27 770.38,-208.93 790.3,-190.24"/>
<polygon fill="#63b8ff" stroke="#63b8ff" points="792.83,-192.66 797.6,-183.2 787.97,-187.62 792.83,-192.66"/>
</a>
</g>
</g>
<!-- Node10&#45;&gt;Node4 -->
<g id="edge19_Node000010_Node000004" class="edge">
<title>Node10&#45;&gt;Node4</title>
<g id="a_edge19_Node000010_Node000004"><a xlink:title=" ">
<path fill="none" stroke="#63b8ff" d="M525.38,-152.95C588.13,-138.51 682.43,-116.81 745.54,-102.29"/>
<polygon fill="#63b8ff" stroke="#63b8ff" points="746.43,-105.68 755.39,-100.03 744.86,-98.86 746.43,-105.68"/>
</a>
</g>
</g>
<!-- Node11 -->
<g id="Node000011" class="node">
<title>Node11</title>
<g id="a_Node000011"><a xlink:href="classwmtk_1_1attribute_1_1_caching_accessor.html#ab850fe07669c7bc92ca6cf6e86c60ee0" target="_top" xlink:title=" ">
<polygon fill="white" stroke="#666666" points="703.5,-236.5 566.5,-236.5 566.5,-195.5 703.5,-195.5 703.5,-236.5"/>
<text text-anchor="start" x="574.5" y="-224.5" font-family="Helvetica,sans-Serif" font-size="10.00">wmtk::attribute::Caching</text>
<text text-anchor="start" x="574.5" y="-213.5" font-family="Helvetica,sans-Serif" font-size="10.00">Accessor::const_vector</text>
<text text-anchor="middle" x="635" y="-202.5" font-family="Helvetica,sans-Serif" font-size="10.00">_attribute</text>
</a>
</g>
</g>
<!-- Node10&#45;&gt;Node11 -->
<g id="edge11_Node000010_Node000011" class="edge">
<title>Node10&#45;&gt;Node11</title>
<g id="a_edge11_Node000010_Node000011"><a xlink:title=" ">
<path fill="none" stroke="#63b8ff" d="M514.58,-183.06C527.94,-186.74 542.49,-190.76 556.69,-194.67"/>
<polygon fill="#63b8ff" stroke="#63b8ff" points="555.88,-198.08 566.45,-197.37 557.74,-191.33 555.88,-198.08"/>
</a>
</g>
</g>
<!-- Node12 -->
<g id="Node000012" class="node">
<title>Node12</title>
<g id="a_Node000012"><a xlink:href="classwmtk_1_1_edge_mesh.html#a34530ca80c07ae67ffe601c2b8f22e3e" target="_top" xlink:title=" ">
<polygon fill="white" stroke="#666666" points="693,-177.5 577,-177.5 577,-158.5 693,-158.5 693,-177.5"/>
<text text-anchor="middle" x="635" y="-165.5" font-family="Helvetica,sans-Serif" font-size="10.00">wmtk::EdgeMesh::id</text>
</a>
</g>
</g>
<!-- Node10&#45;&gt;Node12 -->
<g id="edge13_Node000010_Node000012" class="edge">
<title>Node10&#45;&gt;Node12</title>
<g id="a_edge13_Node000010_Node000012"><a xlink:title=" ">
<path fill="none" stroke="#63b8ff" d="M528.27,-168C540.97,-168 554.22,-168 566.88,-168"/>
<polygon fill="#63b8ff" stroke="#63b8ff" points="566.89,-171.5 576.89,-168 566.89,-164.5 566.89,-171.5"/>
</a>
</g>
</g>
<!-- Node13 -->
<g id="Node000013" class="node">
<title>Node13</title>
<g id="a_Node000013"><a xlink:href="classwmtk_1_1attribute_1_1_accessor.html#a2d587e12c47a6d839ab80e9198cf75b5" target="_top" xlink:title=" ">
<polygon fill="white" stroke="#666666" points="706,-323 564,-323 564,-293 706,-293 706,-323"/>
<text text-anchor="start" x="572" y="-311" font-family="Helvetica,sans-Serif" font-size="10.00">wmtk::attribute::Accessor</text>
<text text-anchor="middle" x="635" y="-300" font-family="Helvetica,sans-Serif" font-size="10.00">::index_access</text>
</a>
</g>
</g>
<!-- Node10&#45;&gt;Node13 -->
<g id="edge15_Node000010_Node000013" class="edge">
<title>Node10&#45;&gt;Node13</title>
<g id="a_edge15_Node000010_Node000013"><a xlink:title=" ">
<path fill="none" stroke="#63b8ff" d="M470.85,-183.22C488.19,-206.6 524.26,-251.5 564,-279 569.11,-282.54 574.72,-285.76 580.47,-288.65"/>
<polygon fill="#63b8ff" stroke="#63b8ff" points="579.03,-291.85 589.57,-292.94 582.01,-285.51 579.03,-291.85"/>
</a>
</g>
</g>
<!-- Node15 -->
<g id="Node000015" class="node">
<title>Node15</title>
<g id="a_Node000015"><a xlink:href="classwmtk_1_1_edge_mesh.html#a83db0c93833dacdfb169807d8ba4b6ca" target="_top" xlink:title="TODO this needs dimension?">
<polygon fill="white" stroke="#666666" points="704.5,-53.5 565.5,-53.5 565.5,-34.5 704.5,-34.5 704.5,-53.5"/>
<text text-anchor="middle" x="635" y="-41.5" font-family="Helvetica,sans-Serif" font-size="10.00">wmtk::EdgeMesh::is_ccw</text>
</a>
</g>
</g>
<!-- Node10&#45;&gt;Node15 -->
<g id="edge17_Node000010_Node000015" class="edge">
<title>Node10&#45;&gt;Node15</title>
<g id="a_edge17_Node000010_Node000015"><a xlink:title=" ">
<path fill="none" stroke="#63b8ff" d="M470.93,-152.65C488.11,-129.66 523.65,-86.51 564,-63 567.84,-60.76 571.95,-58.78 576.18,-57.03"/>
<polygon fill="#63b8ff" stroke="#63b8ff" points="577.42,-60.3 585.58,-53.55 574.99,-53.74 577.42,-60.3"/>
</a>
</g>
</g>
<!-- Node12&#45;&gt;Node3 -->
<g id="edge14_Node000012_Node000003" class="edge">
<title>Node12&#45;&gt;Node3</title>
<g id="a_edge14_Node000012_Node000003"><a xlink:title=" ">
<path fill="none" stroke="#63b8ff" d="M693.14,-168C705.42,-168 718.61,-168 731.58,-168"/>
<polygon fill="#63b8ff" stroke="#63b8ff" points="731.92,-171.5 741.92,-168 731.92,-164.5 731.92,-171.5"/>
</a>
</g>
</g>
<!-- Node14 -->
<g id="Node000014" class="node">
<title>Node14</title>
<g id="a_Node000014"><a xlink:href="classwmtk_1_1attribute_1_1_accessor.html#afd97a48ec5d1db975a030428df81f617" target="_top" xlink:title=" ">
<polygon fill="white" stroke="#666666" points="884,-323 742,-323 742,-293 884,-293 884,-323"/>
<text text-anchor="start" x="750" y="-311" font-family="Helvetica,sans-Serif" font-size="10.00">wmtk::attribute::Accessor</text>
<text text-anchor="middle" x="813" y="-300" font-family="Helvetica,sans-Serif" font-size="10.00">::caching_base_type</text>
</a>
</g>
</g>
<!-- Node13&#45;&gt;Node14 -->
<g id="edge16_Node000013_Node000014" class="edge">
<title>Node13&#45;&gt;Node14</title>
<g id="a_edge16_Node000013_Node000014"><a xlink:title=" ">
<path fill="none" stroke="#63b8ff" d="M706.07,-308C714.54,-308 723.25,-308 731.85,-308"/>
<polygon fill="#63b8ff" stroke="#63b8ff" points="731.89,-311.5 741.89,-308 731.89,-304.5 731.89,-311.5"/>
</a>
</g>
</g>
<!-- Node15&#45;&gt;Node4 -->
<g id="edge18_Node000015_Node000004" class="edge">
<title>Node15&#45;&gt;Node4</title>
<g id="a_edge18_Node000015_Node000004"><a xlink:title=" ">
<path fill="none" stroke="#63b8ff" d="M675.06,-53.54C695.71,-58.59 721.62,-64.92 745.34,-70.71"/>
<polygon fill="#63b8ff" stroke="#63b8ff" points="744.8,-74.19 755.35,-73.16 746.46,-67.39 744.8,-74.19"/>
</a>
</g>
</g>
</g>
</svg>
