<?xml version="1.0" encoding="UTF-8" standalone="no"?>
<!DOCTYPE svg PUBLIC "-//W3C//DTD SVG 1.1//EN"
 "http://www.w3.org/Graphics/SVG/1.1/DTD/svg11.dtd">
<!-- Generated by graphviz version 2.43.0 (0)
 -->
<!-- Title: wmtk::components::adjust_sizing_field Pages: 1 -->
<svg width="1660pt" height="910pt"
 viewBox="0.00 0.00 1660.00 910.00" xmlns="http://www.w3.org/2000/svg" xmlns:xlink="http://www.w3.org/1999/xlink">
<g id="graph0" class="graph" transform="scale(1 1) rotate(0) translate(4 906)">
<title>wmtk::components::adjust_sizing_field</title>
<!-- Node1 -->
<g id="Node000001" class="node">
<title>Node1</title>
<g id="a_Node000001"><a xlink:title=" ">
<polygon fill="#999999" stroke="#666666" points="146,-416 0,-416 0,-386 146,-386 146,-416"/>
<text text-anchor="start" x="8" y="-404" font-family="Helvetica,sans-Serif" font-size="10.00">wmtk::components::adjust</text>
<text text-anchor="middle" x="73" y="-393" font-family="Helvetica,sans-Serif" font-size="10.00">_sizing_field</text>
</a>
</g>
</g>
<!-- Node2 -->
<g id="Node000002" class="node">
<title>Node2</title>
<g id="a_Node000002"><a xlink:href="classwmtk_1_1_mesh.html#a5f7e9ae7268c929db6161af3e2c6eb73" target="_top" xlink:title=" ">
<polygon fill="white" stroke="#666666" points="306,-902 193,-902 193,-872 306,-872 306,-902"/>
<text text-anchor="start" x="201" y="-890" font-family="Helvetica,sans-Serif" font-size="10.00">wmtk::Mesh::create</text>
<text text-anchor="middle" x="249.5" y="-879" font-family="Helvetica,sans-Serif" font-size="10.00">_accessor</text>
</a>
</g>
</g>
<!-- Node1&#45;&gt;Node2 -->
<g id="edge1_Node000001_Node000002" class="edge">
<title>Node1&#45;&gt;Node2</title>
<g id="a_edge1_Node000001_Node000002"><a xlink:title=" ">
<path fill="none" stroke="#63b8ff" d="M75.61,-416.16C83.49,-487.99 120.27,-793.61 182,-863 182.87,-863.98 183.79,-864.92 184.74,-865.82"/>
<polygon fill="#63b8ff" stroke="#63b8ff" points="182.66,-868.64 192.7,-872.01 186.96,-863.11 182.66,-868.64"/>
</a>
</g>
</g>
<!-- Node3 -->
<g id="Node000003" class="node">
<title>Node3</title>
<g id="a_Node000003"><a xlink:href="classwmtk_1_1_mesh.html#a357182137d99f1e4a7ff536eadfc0e56" target="_top" xlink:title=" ">
<polygon fill="white" stroke="#666666" points="306,-854 193,-854 193,-824 306,-824 306,-854"/>
<text text-anchor="start" x="201" y="-842" font-family="Helvetica,sans-Serif" font-size="10.00">wmtk::Mesh::create</text>
<text text-anchor="middle" x="249.5" y="-831" font-family="Helvetica,sans-Serif" font-size="10.00">_const_accessor</text>
</a>
</g>
</g>
<!-- Node1&#45;&gt;Node3 -->
<g id="edge2_Node000001_Node000003" class="edge">
<title>Node1&#45;&gt;Node3</title>
<g id="a_edge2_Node000001_Node000003"><a xlink:title=" ">
<path fill="none" stroke="#63b8ff" d="M76.07,-416.36C85.47,-483.88 126.04,-753.69 182,-815 182.88,-815.97 183.81,-816.9 184.77,-817.79"/>
<polygon fill="#63b8ff" stroke="#63b8ff" points="182.73,-820.63 192.8,-823.92 186.98,-815.07 182.73,-820.63"/>
</a>
</g>
</g>
<!-- Node4 -->
<g id="Node000004" class="node">
<title>Node4</title>
<g id="a_Node000004"><a xlink:href="classwmtk_1_1_mesh.html#a6d2a546c8f661bf6386cf845a1693d2f" target="_top" xlink:title="Generate a vector of Tuples from global vertex/edge/triangle/tetrahedron index.">
<polygon fill="white" stroke="#666666" points="307.5,-787.5 191.5,-787.5 191.5,-768.5 307.5,-768.5 307.5,-787.5"/>
<text text-anchor="middle" x="249.5" y="-775.5" font-family="Helvetica,sans-Serif" font-size="10.00">wmtk::Mesh::get_all</text>
</a>
</g>
</g>
<!-- Node1&#45;&gt;Node4 -->
<g id="edge3_Node000001_Node000004" class="edge">
<title>Node1&#45;&gt;Node4</title>
<g id="a_edge3_Node000001_Node000004"><a xlink:title=" ">
<path fill="none" stroke="#63b8ff" d="M74.08,-416.07C75.19,-469.67 86.12,-653.26 182,-754 185.66,-757.85 189.98,-761.08 194.64,-763.79"/>
<polygon fill="#63b8ff" stroke="#63b8ff" points="193.41,-767.09 203.92,-768.4 196.52,-760.82 193.41,-767.09"/>
</a>
</g>
</g>
<!-- Node5 -->
<g id="Node000005" class="node">
<title>Node5</title>
<g id="a_Node000005"><a xlink:href="namespacewmtk_1_1simplex.html#a3260444c136dbe145679b762c52f6a16" target="_top" xlink:title=" ">
<polygon fill="white" stroke="#666666" points="306,-410.5 193,-410.5 193,-391.5 306,-391.5 306,-410.5"/>
<text text-anchor="middle" x="249.5" y="-398.5" font-family="Helvetica,sans-Serif" font-size="10.00">wmtk::simplex::link</text>
</a>
</g>
</g>
<!-- Node1&#45;&gt;Node5 -->
<g id="edge5_Node000001_Node000005" class="edge">
<title>Node1&#45;&gt;Node5</title>
<g id="a_edge5_Node000001_Node000005"><a xlink:title=" ">
<path fill="none" stroke="#63b8ff" d="M146.24,-401C158.27,-401 170.7,-401 182.58,-401"/>
<polygon fill="#63b8ff" stroke="#63b8ff" points="182.84,-404.5 192.84,-401 182.84,-397.5 182.84,-404.5"/>
</a>
</g>
</g>
<!-- Node14 -->
<g id="Node000014" class="node">
<title>Node14</title>
<g id="a_Node000014"><a xlink:href="namespacewmtk.html#a6a35f11c12436093d26fdd8be6fecc06" target="_top" xlink:title="Retrieves the current logger.">
<polygon fill="white" stroke="#666666" points="1515,-597.5 1434,-597.5 1434,-578.5 1515,-578.5 1515,-597.5"/>
<text text-anchor="middle" x="1474.5" y="-585.5" font-family="Helvetica,sans-Serif" font-size="10.00">wmtk::logger</text>
</a>
</g>
</g>
<!-- Node1&#45;&gt;Node14 -->
<g id="edge38_Node000001_Node000014" class="edge">
<title>Node1&#45;&gt;Node14</title>
<g id="a_edge38_Node000001_Node000014"><a xlink:title=" ">
<path fill="none" stroke="#63b8ff" d="M80.3,-416C108.97,-481.61 233.85,-740 422.5,-740 422.5,-740 422.5,-740 1063,-740 1219.54,-740 1389.93,-641.6 1450.54,-603.14"/>
<polygon fill="#63b8ff" stroke="#63b8ff" points="1452.78,-605.86 1459.3,-597.51 1449,-599.97 1452.78,-605.86"/>
</a>
</g>
</g>
<!-- Node17 -->
<g id="Node000017" class="node">
<title>Node17</title>
<g id="a_Node000017"><a xlink:href="classwmtk_1_1simplex_1_1_simplex_collection.html#a3c5684abe23553010bb7f87840e9518d" target="_top" xlink:title="Return const reference to the simplex vector.">
<polygon fill="white" stroke="#666666" points="934,-712 750,-712 750,-682 934,-682 934,-712"/>
<text text-anchor="start" x="758" y="-700" font-family="Helvetica,sans-Serif" font-size="10.00">wmtk::simplex::SimplexCollection</text>
<text text-anchor="middle" x="842" y="-689" font-family="Helvetica,sans-Serif" font-size="10.00">::simplex_vector</text>
</a>
</g>
</g>
<!-- Node1&#45;&gt;Node17 -->
<g id="edge40_Node000001_Node000017" class="edge">
<title>Node1&#45;&gt;Node17</title>
<g id="a_edge40_Node000001_Node000017"><a xlink:title=" ">
<path fill="none" stroke="#63b8ff" d="M92,-416.16C150.48,-464.38 342.19,-614.54 530,-674 597.72,-695.44 677.71,-700.95 739.61,-701.22"/>
<polygon fill="#63b8ff" stroke="#63b8ff" points="739.77,-704.72 749.77,-701.22 739.77,-697.72 739.77,-704.72"/>
</a>
</g>
</g>
<!-- Node23 -->
<g id="Node000023" class="node">
<title>Node23</title>
<g id="a_Node000023"><a xlink:href="classwmtk_1_1_mesh.html#abaf00438d0700358b160e310d69725c9" target="_top" xlink:title=" ">
<polygon fill="white" stroke="#666666" points="927,-245.5 757,-245.5 757,-226.5 927,-226.5 927,-245.5"/>
<text text-anchor="middle" x="842" y="-233.5" font-family="Helvetica,sans-Serif" font-size="10.00">wmtk::Mesh::top_simplex_type</text>
</a>
</g>
</g>
<!-- Node1&#45;&gt;Node23 -->
<g id="edge42_Node000001_Node000023" class="edge">
<title>Node1&#45;&gt;Node23</title>
<g id="a_edge42_Node000001_Node000023"><a xlink:title=" ">
<path fill="none" stroke="#63b8ff" d="M107.11,-385.94C181.04,-353.22 365.96,-276.5 530,-250 602.15,-238.35 684.85,-235.1 746.82,-234.63"/>
<polygon fill="#63b8ff" stroke="#63b8ff" points="747,-238.13 756.98,-234.57 746.96,-231.13 747,-238.13"/>
</a>
</g>
</g>
<!-- Node27 -->
<g id="Node000027" class="node">
<title>Node27</title>
<g id="a_Node000027"><a xlink:href="classwmtk_1_1_mesh.html#ab832ace56e7e07d16291ad568f3d73d9" target="_top" xlink:title=" ">
<polygon fill="white" stroke="#666666" points="305,-78 194,-78 194,-48 305,-48 305,-78"/>
<text text-anchor="start" x="202" y="-66" font-family="Helvetica,sans-Serif" font-size="10.00">wmtk::Mesh::orient</text>
<text text-anchor="middle" x="249.5" y="-55" font-family="Helvetica,sans-Serif" font-size="10.00">_vertices</text>
</a>
</g>
</g>
<!-- Node1&#45;&gt;Node27 -->
<g id="edge39_Node000001_Node000027" class="edge">
<title>Node1&#45;&gt;Node27</title>
<g id="a_edge39_Node000001_Node000027"><a xlink:title=" ">
<path fill="none" stroke="#63b8ff" d="M75.09,-385.98C79.39,-337.18 99.29,-181.16 182,-92 184.94,-88.83 188.29,-85.99 191.88,-83.45"/>
<polygon fill="#63b8ff" stroke="#63b8ff" points="193.96,-86.28 200.62,-78.04 190.28,-80.32 193.96,-86.28"/>
</a>
</g>
</g>
<!-- Node28 -->
<g id="Node000028" class="node">
<title>Node28</title>
<g id="a_Node000028"><a xlink:href="classwmtk_1_1_mesh.html#a965a8a24158c4aa8580c57ba09f885f7" target="_top" xlink:title="switch the orientation of the Tuple of the given dimension">
<polygon fill="white" stroke="#666666" points="899,-114 785,-114 785,-84 899,-84 899,-114"/>
<text text-anchor="start" x="793" y="-102" font-family="Helvetica,sans-Serif" font-size="10.00">wmtk::Mesh::switch</text>
<text text-anchor="middle" x="842" y="-91" font-family="Helvetica,sans-Serif" font-size="10.00">_tuple</text>
</a>
</g>
</g>
<!-- Node1&#45;&gt;Node28 -->
<g id="edge41_Node000001_Node000028" class="edge">
<title>Node1&#45;&gt;Node28</title>
<g id="a_edge41_Node000001_Node000028"><a xlink:title=" ">
<path fill="none" stroke="#63b8ff" d="M87.33,-385.91C106.51,-364.96 143.81,-326.93 182,-303 376.97,-180.85 650.4,-127.15 774.76,-107.95"/>
<polygon fill="#63b8ff" stroke="#63b8ff" points="775.53,-111.38 784.89,-106.42 774.48,-104.46 775.53,-111.38"/>
</a>
</g>
</g>
<!-- Node29 -->
<g id="Node000029" class="node">
<title>Node29</title>
<g id="a_Node000029"><a xlink:href="classwmtk_1_1simplex_1_1_simplex.html#a7de67a391b9f48b57f4ecb4c412ccaee" target="_top" xlink:title=" ">
<polygon fill="white" stroke="#666666" points="317,-30 182,-30 182,0 317,0 317,-30"/>
<text text-anchor="start" x="190" y="-18" font-family="Helvetica,sans-Serif" font-size="10.00">wmtk::simplex::Simplex</text>
<text text-anchor="middle" x="249.5" y="-7" font-family="Helvetica,sans-Serif" font-size="10.00">::vertex</text>
</a>
</g>
</g>
<!-- Node1&#45;&gt;Node29 -->
<g id="edge43_Node000001_Node000029" class="edge">
<title>Node1&#45;&gt;Node29</title>
<g id="a_edge43_Node000001_Node000029"><a xlink:title=" ">
<path fill="none" stroke="#63b8ff" d="M73.95,-385.93C74.57,-331.49 84.02,-142.67 182,-39 182.9,-38.05 183.84,-37.13 184.82,-36.25"/>
<polygon fill="#63b8ff" stroke="#63b8ff" points="187.01,-38.98 192.93,-30.2 182.82,-33.37 187.01,-38.98"/>
</a>
</g>
</g>
<!-- Node31 -->
<g id="Node000031" class="node">
<title>Node31</title>
<g id="a_Node000031"><a xlink:href="namespacewmtk_1_1simplex.html#a04b1e47aa146538c1a677fc9c5538241" target="_top" xlink:title=" ">
<polygon fill="white" stroke="#666666" points="490.5,-108.5 356.5,-108.5 356.5,-89.5 490.5,-89.5 490.5,-108.5"/>
<text text-anchor="middle" x="423.5" y="-96.5" font-family="Helvetica,sans-Serif" font-size="10.00">wmtk::simplex::vertices</text>
</a>
</g>
</g>
<!-- Node1&#45;&gt;Node31 -->
<g id="edge45_Node000001_Node000031" class="edge">
<title>Node1&#45;&gt;Node31</title>
<g id="a_edge45_Node000001_Node000031"><a xlink:title=" ">
<path fill="none" stroke="#63b8ff" d="M74.93,-385.9C78.69,-339.15 96.97,-195.98 182,-130 228.15,-94.19 294.92,-88.09 346.41,-90.02"/>
<polygon fill="#63b8ff" stroke="#63b8ff" points="346.33,-93.52 356.49,-90.5 346.67,-86.53 346.33,-93.52"/>
</a>
</g>
</g>
<!-- Node4&#45;&gt;Node4 -->
<g id="edge4_Node000004_Node000004" class="edge">
<title>Node4&#45;&gt;Node4</title>
<g id="a_edge4_Node000004_Node000004"><a xlink:title=" ">
<path fill="none" stroke="#63b8ff" d="M222.68,-787.58C209.63,-796.23 218.57,-805.5 249.5,-805.5 270.28,-805.5 281.13,-801.32 282.06,-795.95"/>
<polygon fill="#63b8ff" stroke="#63b8ff" points="284.86,-793.85 276.32,-787.58 279.09,-797.81 284.86,-793.85"/>
</a>
</g>
</g>
<!-- Node5&#45;&gt;Node5 -->
<g id="edge6_Node000005_Node000005" class="edge">
<title>Node5&#45;&gt;Node5</title>
<g id="a_edge6_Node000005_Node000005"><a xlink:title=" ">
<path fill="none" stroke="#63b8ff" d="M222.68,-410.58C209.63,-419.23 218.57,-428.5 249.5,-428.5 270.28,-428.5 281.13,-424.32 282.06,-418.95"/>
<polygon fill="#63b8ff" stroke="#63b8ff" points="284.86,-416.85 276.32,-410.58 279.09,-420.81 284.86,-416.85"/>
</a>
</g>
</g>
<!-- Node6 -->
<g id="Node000006" class="node">
<title>Node6</title>
<g id="a_Node000006"><a xlink:href="namespacewmtk_1_1simplex.html#a50d0026adbac4883ab00460ada1c1cfe" target="_top" xlink:title=" ">
<polygon fill="white" stroke="#666666" points="494,-538.5 353,-538.5 353,-519.5 494,-519.5 494,-538.5"/>
<text text-anchor="middle" x="423.5" y="-526.5" font-family="Helvetica,sans-Serif" font-size="10.00">wmtk::simplex::link_slow</text>
</a>
</g>
</g>
<!-- Node5&#45;&gt;Node6 -->
<g id="edge7_Node000005_Node000006" class="edge">
<title>Node5&#45;&gt;Node6</title>
<g id="a_edge7_Node000005_Node000006"><a xlink:title=" ">
<path fill="none" stroke="#63b8ff" d="M263.43,-410.62C292.81,-432.49 364.87,-486.11 401.05,-513.03"/>
<polygon fill="#63b8ff" stroke="#63b8ff" points="399.31,-516.11 409.42,-519.27 403.49,-510.49 399.31,-516.11"/>
</a>
</g>
</g>
<!-- Node5&#45;&gt;Node23 -->
<g id="edge37_Node000005_Node000023" class="edge">
<title>Node5&#45;&gt;Node23</title>
<g id="a_edge37_Node000005_Node000023"><a xlink:title=" ">
<path fill="none" stroke="#63b8ff" d="M271.06,-391.38C316.69,-370.4 430.25,-320.14 530,-292 604.52,-270.97 691.41,-256.11 754.37,-247.01"/>
<polygon fill="#63b8ff" stroke="#63b8ff" points="755.25,-250.41 764.66,-245.54 754.26,-243.49 755.25,-250.41"/>
</a>
</g>
</g>
<!-- Node7 -->
<g id="Node000007" class="node">
<title>Node7</title>
<g id="a_Node000007"><a xlink:href="classwmtk_1_1simplex_1_1_simplex_collection.html#a1e7079b3b75f70dd28c524556cab76cf" target="_top" xlink:title="Add simplex to the collection.">
<polygon fill="white" stroke="#666666" points="1398,-576.5 1190,-576.5 1190,-557.5 1398,-557.5 1398,-576.5"/>
<text text-anchor="middle" x="1294" y="-564.5" font-family="Helvetica,sans-Serif" font-size="10.00">wmtk::simplex::SimplexCollection::add</text>
</a>
</g>
</g>
<!-- Node6&#45;&gt;Node7 -->
<g id="edge8_Node000006_Node000007" class="edge">
<title>Node6&#45;&gt;Node7</title>
<g id="a_edge8_Node000006_Node000007"><a xlink:title=" ">
<path fill="none" stroke="#63b8ff" d="M436.32,-538.73C454.98,-553.56 492.99,-581.62 530,-596 622.56,-631.97 651.08,-626.3 750,-635 831.46,-642.16 852.58,-642.64 934,-635 1046.79,-624.41 1176.92,-595.51 1245.31,-578.99"/>
<polygon fill="#63b8ff" stroke="#63b8ff" points="1246.45,-582.31 1255.34,-576.55 1244.8,-575.51 1246.45,-582.31"/>
</a>
</g>
</g>
<!-- Node8 -->
<g id="Node000008" class="node">
<title>Node8</title>
<g id="a_Node000008"><a xlink:href="namespacewmtk_1_1simplex.html#a2ed8f83fbda4dc05306bfe8d2ce7ab94" target="_top" xlink:title="The closed star contains the input simplex, all its top dimension cofaces, and their faces.">
<polygon fill="white" stroke="#666666" points="697.5,-488.5 546.5,-488.5 546.5,-469.5 697.5,-469.5 697.5,-488.5"/>
<text text-anchor="middle" x="622" y="-476.5" font-family="Helvetica,sans-Serif" font-size="10.00">wmtk::simplex::closed_star</text>
</a>
</g>
</g>
<!-- Node6&#45;&gt;Node8 -->
<g id="edge9_Node000006_Node000008" class="edge">
<title>Node6&#45;&gt;Node8</title>
<g id="a_edge9_Node000006_Node000008"><a xlink:title=" ">
<path fill="none" stroke="#63b8ff" d="M461.92,-519.48C493.64,-511.41 539.31,-499.79 573.59,-491.06"/>
<polygon fill="#63b8ff" stroke="#63b8ff" points="574.55,-494.43 583.38,-488.57 572.83,-487.65 574.55,-494.43"/>
</a>
</g>
</g>
<!-- Node9 -->
<g id="Node000009" class="node">
<title>Node9</title>
<g id="a_Node000009"><a xlink:href="namespacewmtk_1_1simplex.html#aee89641a0de7b5ddf8d15bf376f9d33b" target="_top" xlink:title="Returns all faces of a simplex.">
<polygon fill="white" stroke="#666666" points="903,-607.5 781,-607.5 781,-588.5 903,-588.5 903,-607.5"/>
<text text-anchor="middle" x="842" y="-595.5" font-family="Helvetica,sans-Serif" font-size="10.00">wmtk::simplex::faces</text>
</a>
</g>
</g>
<!-- Node6&#45;&gt;Node9 -->
<g id="edge33_Node000006_Node000009" class="edge">
<title>Node6&#45;&gt;Node9</title>
<g id="a_edge33_Node000006_Node000009"><a xlink:title=" ">
<path fill="none" stroke="#63b8ff" d="M494.24,-522.98C554.28,-520.25 642.32,-522.2 714,-548 732.57,-554.68 732.16,-565.56 750,-574 759.95,-578.71 770.97,-582.6 781.8,-585.78"/>
<polygon fill="#63b8ff" stroke="#63b8ff" points="781.09,-589.21 791.66,-588.5 782.95,-582.46 781.09,-589.21"/>
</a>
</g>
</g>
<!-- Node6&#45;&gt;Node17 -->
<g id="edge35_Node000006_Node000017" class="edge">
<title>Node6&#45;&gt;Node17</title>
<g id="a_edge35_Node000006_Node000017"><a xlink:title=" ">
<path fill="none" stroke="#63b8ff" d="M430.51,-538.65C444.77,-560.64 483,-614.57 530,-640 565.58,-659.25 663.27,-675.23 739.76,-685.32"/>
<polygon fill="#63b8ff" stroke="#63b8ff" points="739.56,-688.82 749.93,-686.64 740.47,-681.88 739.56,-688.82"/>
</a>
</g>
</g>
<!-- Node18 -->
<g id="Node000018" class="node">
<title>Node18</title>
<g id="a_Node000018"><a xlink:href="classwmtk_1_1simplex_1_1_simplex_collection.html#ab318c99d54327383ff1b985bed043f3a" target="_top" xlink:title="Sort simplex vector and remove duplicates.">
<polygon fill="white" stroke="#666666" points="1154,-312 970,-312 970,-282 1154,-282 1154,-312"/>
<text text-anchor="start" x="978" y="-300" font-family="Helvetica,sans-Serif" font-size="10.00">wmtk::simplex::SimplexCollection</text>
<text text-anchor="middle" x="1062" y="-289" font-family="Helvetica,sans-Serif" font-size="10.00">::sort_and_clean</text>
</a>
</g>
</g>
<!-- Node6&#45;&gt;Node18 -->
<g id="edge36_Node000006_Node000018" class="edge">
<title>Node6&#45;&gt;Node18</title>
<g id="a_edge36_Node000006_Node000018"><a xlink:title=" ">
<path fill="none" stroke="#63b8ff" d="M435.3,-519.41C474.27,-485.45 612.63,-370.54 750,-325 817.63,-302.58 897.8,-295.8 959.79,-294.51"/>
<polygon fill="#63b8ff" stroke="#63b8ff" points="960.03,-298.01 969.97,-294.35 959.92,-291.01 960.03,-298.01"/>
</a>
</g>
</g>
<!-- Node26 -->
<g id="Node000026" class="node">
<title>Node26</title>
<g id="a_Node000026"><a xlink:href="classwmtk_1_1simplex_1_1_simplex_collection.html#a592a38f5119ed654001d88d032bcea9c" target="_top" xlink:title="Get intersection of two simplex collections.">
<polygon fill="white" stroke="#666666" points="714,-587 530,-587 530,-557 714,-557 714,-587"/>
<text text-anchor="start" x="538" y="-575" font-family="Helvetica,sans-Serif" font-size="10.00">wmtk::simplex::SimplexCollection</text>
<text text-anchor="middle" x="622" y="-564" font-family="Helvetica,sans-Serif" font-size="10.00">::get_intersection</text>
</a>
</g>
</g>
<!-- Node6&#45;&gt;Node26 -->
<g id="edge34_Node000006_Node000026" class="edge">
<title>Node6&#45;&gt;Node26</title>
<g id="a_edge34_Node000006_Node000026"><a xlink:title=" ">
<path fill="none" stroke="#63b8ff" d="M468.11,-538.54C489.97,-543.33 517.12,-549.27 542.45,-554.81"/>
<polygon fill="#63b8ff" stroke="#63b8ff" points="541.91,-558.28 552.42,-556.99 543.4,-551.44 541.91,-558.28"/>
</a>
</g>
</g>
<!-- Node8&#45;&gt;Node7 -->
<g id="edge10_Node000008_Node000007" class="edge">
<title>Node8&#45;&gt;Node7</title>
<g id="a_edge10_Node000008_Node000007"><a xlink:title=" ">
<path fill="none" stroke="#63b8ff" d="M646.98,-488.5C665.57,-496.12 691.82,-507.41 714,-519 730.62,-527.68 732.08,-535.49 750,-541 896.31,-585.97 1075.18,-584.4 1186.63,-577.2"/>
<polygon fill="#63b8ff" stroke="#63b8ff" points="1187.13,-580.68 1196.87,-576.51 1186.66,-573.69 1187.13,-580.68"/>
</a>
</g>
</g>
<!-- Node8&#45;&gt;Node9 -->
<g id="edge11_Node000008_Node000009" class="edge">
<title>Node8&#45;&gt;Node9</title>
<g id="a_edge11_Node000008_Node000009"><a xlink:title=" ">
<path fill="none" stroke="#63b8ff" d="M662.71,-488.57C679.86,-494.17 699.31,-502.63 714,-515 737.5,-534.78 725.37,-555.65 750,-574 756.36,-578.74 763.57,-582.54 771.09,-585.59"/>
<polygon fill="#63b8ff" stroke="#63b8ff" points="770.15,-588.97 780.74,-589.07 772.52,-582.39 770.15,-588.97"/>
</a>
</g>
</g>
<!-- Node10 -->
<g id="Node000010" class="node">
<title>Node10</title>
<g id="a_Node000010"><a xlink:href="classwmtk_1_1_mesh.html#a8cc8686f0688613806f43720b6db49e7" target="_top" xlink:title="check validity of tuple including its hash">
<polygon fill="white" stroke="#666666" points="902,-531.5 782,-531.5 782,-512.5 902,-512.5 902,-531.5"/>
<text text-anchor="middle" x="842" y="-519.5" font-family="Helvetica,sans-Serif" font-size="10.00">wmtk::Mesh::is_valid</text>
</a>
</g>
</g>
<!-- Node8&#45;&gt;Node10 -->
<g id="edge13_Node000008_Node000010" class="edge">
<title>Node8&#45;&gt;Node10</title>
<g id="a_edge13_Node000008_Node000010"><a xlink:title=" ">
<path fill="none" stroke="#63b8ff" d="M671.38,-488.54C704.26,-495.03 747.93,-503.64 782.73,-510.51"/>
<polygon fill="#63b8ff" stroke="#63b8ff" points="782.27,-513.98 792.75,-512.48 783.62,-507.11 782.27,-513.98"/>
</a>
</g>
</g>
<!-- Node13 -->
<g id="Node000013" class="node">
<title>Node13</title>
<g id="a_Node000013"><a xlink:href="namespacewmtk.html#a441d6ad4f19569c7d4946e743da1a925" target="_top" xlink:title=" ">
<polygon fill="white" stroke="#666666" points="1355,-451 1233,-451 1233,-421 1355,-421 1355,-451"/>
<text text-anchor="start" x="1241" y="-439" font-family="Helvetica,sans-Serif" font-size="10.00">wmtk::log_and_throw</text>
<text text-anchor="middle" x="1294" y="-428" font-family="Helvetica,sans-Serif" font-size="10.00">_error</text>
</a>
</g>
</g>
<!-- Node8&#45;&gt;Node13 -->
<g id="edge17_Node000008_Node000013" class="edge">
<title>Node8&#45;&gt;Node13</title>
<g id="a_edge17_Node000008_Node000013"><a xlink:title=" ">
<path fill="none" stroke="#63b8ff" d="M664.8,-469.44C689.46,-464.22 721.34,-458.19 750,-455 918.98,-436.19 1119.2,-434.45 1222.89,-435.06"/>
<polygon fill="#63b8ff" stroke="#63b8ff" points="1222.9,-438.56 1232.92,-435.13 1222.95,-431.56 1222.9,-438.56"/>
</a>
</g>
</g>
<!-- Node16 -->
<g id="Node000016" class="node">
<title>Node16</title>
<g id="a_Node000016"><a xlink:href="classwmtk_1_1simplex_1_1_simplex_collection.html#a1973c83eede96b64f422049c6fc52976" target="_top" xlink:title=" ">
<polygon fill="white" stroke="#666666" points="934,-494 750,-494 750,-464 934,-464 934,-494"/>
<text text-anchor="start" x="758" y="-482" font-family="Helvetica,sans-Serif" font-size="10.00">wmtk::simplex::SimplexCollection</text>
<text text-anchor="middle" x="842" y="-471" font-family="Helvetica,sans-Serif" font-size="10.00">::reserve</text>
</a>
</g>
</g>
<!-- Node8&#45;&gt;Node16 -->
<g id="edge20_Node000008_Node000016" class="edge">
<title>Node8&#45;&gt;Node16</title>
<g id="a_edge20_Node000008_Node000016"><a xlink:title=" ">
<path fill="none" stroke="#63b8ff" d="M697.72,-479C711.21,-479 725.48,-479 739.57,-479"/>
<polygon fill="#63b8ff" stroke="#63b8ff" points="739.8,-482.5 749.8,-479 739.8,-475.5 739.8,-482.5"/>
</a>
</g>
</g>
<!-- Node8&#45;&gt;Node17 -->
<g id="edge21_Node000008_Node000017" class="edge">
<title>Node8&#45;&gt;Node17</title>
<g id="a_edge21_Node000008_Node000017"><a xlink:title=" ">
<path fill="none" stroke="#63b8ff" d="M640.65,-488.51C660.82,-500.15 693.65,-521.63 714,-548 739.56,-581.13 723.61,-602.53 750,-635 763.86,-652.05 783.63,-666.29 801.19,-676.81"/>
<polygon fill="#63b8ff" stroke="#63b8ff" points="799.73,-680 810.14,-681.96 803.22,-673.94 799.73,-680"/>
</a>
</g>
</g>
<!-- Node8&#45;&gt;Node18 -->
<g id="edge22_Node000008_Node000018" class="edge">
<title>Node8&#45;&gt;Node18</title>
<g id="a_edge22_Node000008_Node000018"><a xlink:title=" ">
<path fill="none" stroke="#63b8ff" d="M631.11,-469.31C649.74,-447.71 698,-395.45 750,-369 752.67,-367.64 894.07,-335.17 985.27,-314.3"/>
<polygon fill="#63b8ff" stroke="#63b8ff" points="986.06,-317.71 995.02,-312.07 984.5,-310.89 986.06,-317.71"/>
</a>
</g>
</g>
<!-- Node19 -->
<g id="Node000019" class="node">
<title>Node19</title>
<g id="a_Node000019"><a xlink:href="namespacewmtk_1_1simplex.html#a87de7137d8d21f1643dd604d73e8f765" target="_top" xlink:title="Get all top dimension cofaces of the given simplex.">
<polygon fill="white" stroke="#666666" points="900,-408 784,-408 784,-378 900,-378 900,-408"/>
<text text-anchor="start" x="792" y="-396" font-family="Helvetica,sans-Serif" font-size="10.00">wmtk::simplex::top</text>
<text text-anchor="middle" x="842" y="-385" font-family="Helvetica,sans-Serif" font-size="10.00">_dimension_cofaces</text>
</a>
</g>
</g>
<!-- Node8&#45;&gt;Node19 -->
<g id="edge23_Node000008_Node000019" class="edge">
<title>Node8&#45;&gt;Node19</title>
<g id="a_edge23_Node000008_Node000019"><a xlink:title=" ">
<path fill="none" stroke="#63b8ff" d="M642.51,-469.41C667.19,-457.47 711.17,-436.85 750,-422 759.74,-418.28 770.19,-414.63 780.41,-411.25"/>
<polygon fill="#63b8ff" stroke="#63b8ff" points="781.68,-414.52 790.11,-408.1 779.51,-407.86 781.68,-414.52"/>
</a>
</g>
</g>
<!-- Node8&#45;&gt;Node23 -->
<g id="edge30_Node000008_Node000023" class="edge">
<title>Node8&#45;&gt;Node23</title>
<g id="a_edge30_Node000008_Node000023"><a xlink:title=" ">
<path fill="none" stroke="#63b8ff" d="M628.05,-469.46C643.45,-440.96 692.33,-354.88 750,-298 769.3,-278.96 795.14,-261.99 814.35,-250.64"/>
<polygon fill="#63b8ff" stroke="#63b8ff" points="816.28,-253.57 823.19,-245.54 812.78,-247.51 816.28,-253.57"/>
</a>
</g>
</g>
<!-- Node25 -->
<g id="Node000025" class="node">
<title>Node25</title>
<g id="a_Node000025"><a xlink:href="classwmtk_1_1simplex_1_1_simplex.html#aca78b1fb0a3c28c0036cf7919bfb0789" target="_top" xlink:title=" ">
<polygon fill="white" stroke="#666666" points="1129.5,-130 994.5,-130 994.5,-100 1129.5,-100 1129.5,-130"/>
<text text-anchor="start" x="1002.5" y="-118" font-family="Helvetica,sans-Serif" font-size="10.00">wmtk::simplex::Simplex</text>
<text text-anchor="middle" x="1062" y="-107" font-family="Helvetica,sans-Serif" font-size="10.00">::tuple</text>
</a>
</g>
</g>
<!-- Node8&#45;&gt;Node25 -->
<g id="edge32_Node000008_Node000025" class="edge">
<title>Node8&#45;&gt;Node25</title>
<g id="a_edge32_Node000008_Node000025"><a xlink:title=" ">
<path fill="none" stroke="#63b8ff" d="M628.58,-469.31C644.33,-442.77 691.79,-368.04 750,-326 821.19,-274.58 867.14,-310.93 934,-254 957.97,-233.59 949.78,-217.12 970,-193 988.17,-171.33 1012.69,-150.69 1031.7,-136.09"/>
<polygon fill="#63b8ff" stroke="#63b8ff" points="1033.86,-138.84 1039.74,-130.02 1029.65,-133.25 1033.86,-138.84"/>
</a>
</g>
</g>
<!-- Node9&#45;&gt;Node9 -->
<g id="edge12_Node000009_Node000009" class="edge">
<title>Node9&#45;&gt;Node9</title>
<g id="a_edge12_Node000009_Node000009"><a xlink:title=" ">
<path fill="none" stroke="#63b8ff" d="M808.09,-607.58C791.6,-616.23 802.9,-625.5 842,-625.5 870.1,-625.5 883.85,-620.71 883.23,-614.81"/>
<polygon fill="#63b8ff" stroke="#63b8ff" points="885.48,-612.12 875.91,-607.58 880.57,-617.1 885.48,-612.12"/>
</a>
</g>
</g>
<!-- Node11 -->
<g id="Node000011" class="node">
<title>Node11</title>
<g id="a_Node000011"><a xlink:href="classwmtk_1_1_tuple.html#a0023f575be92cd5ceeeaaaa3762ea06d" target="_top" xlink:title="Checks if a tuple is &quot;null&quot;. This merely implies the global index is &#45;1.">
<polygon fill="white" stroke="#666666" points="1118.5,-483.5 1005.5,-483.5 1005.5,-464.5 1118.5,-464.5 1118.5,-483.5"/>
<text text-anchor="middle" x="1062" y="-471.5" font-family="Helvetica,sans-Serif" font-size="10.00">wmtk::Tuple::is_null</text>
</a>
</g>
</g>
<!-- Node10&#45;&gt;Node11 -->
<g id="edge14_Node000010_Node000011" class="edge">
<title>Node10&#45;&gt;Node11</title>
<g id="a_edge14_Node000010_Node000011"><a xlink:title=" ">
<path fill="none" stroke="#63b8ff" d="M892.78,-512.46C906.22,-509.65 920.71,-506.41 934,-503 950.21,-498.84 953.77,-496.07 970,-492 978.95,-489.75 988.45,-487.61 997.8,-485.64"/>
<polygon fill="#63b8ff" stroke="#63b8ff" points="998.78,-489.01 1007.87,-483.57 997.37,-482.16 998.78,-489.01"/>
</a>
</g>
</g>
<!-- Node12 -->
<g id="Node000012" class="node">
<title>Node12</title>
<g id="a_Node000012"><a xlink:href="classwmtk_1_1_mesh.html#ade176d345902d97af8c5da04aa3a095b" target="_top" xlink:title=" ">
<polygon fill="white" stroke="#666666" points="1132,-520.5 992,-520.5 992,-501.5 1132,-501.5 1132,-520.5"/>
<text text-anchor="middle" x="1062" y="-508.5" font-family="Helvetica,sans-Serif" font-size="10.00">wmtk::Mesh::is_removed</text>
</a>
</g>
</g>
<!-- Node10&#45;&gt;Node12 -->
<g id="edge15_Node000010_Node000012" class="edge">
<title>Node10&#45;&gt;Node12</title>
<g id="a_edge15_Node000010_Node000012"><a xlink:title=" ">
<path fill="none" stroke="#63b8ff" d="M902.28,-519.01C926.66,-517.78 955.26,-516.34 981.41,-515.02"/>
<polygon fill="#63b8ff" stroke="#63b8ff" points="981.87,-518.5 991.68,-514.5 981.52,-511.51 981.87,-518.5"/>
</a>
</g>
</g>
<!-- Node12&#45;&gt;Node12 -->
<g id="edge16_Node000012_Node000012" class="edge">
<title>Node12&#45;&gt;Node12</title>
<g id="a_edge16_Node000012_Node000012"><a xlink:title=" ">
<path fill="none" stroke="#63b8ff" d="M1028.09,-520.58C1011.6,-529.23 1022.9,-538.5 1062,-538.5 1090.1,-538.5 1103.85,-533.71 1103.23,-527.81"/>
<polygon fill="#63b8ff" stroke="#63b8ff" points="1105.48,-525.12 1095.91,-520.58 1100.57,-530.1 1105.48,-525.12"/>
</a>
</g>
</g>
<!-- Node13&#45;&gt;Node14 -->
<g id="edge18_Node000013_Node000014" class="edge">
<title>Node13&#45;&gt;Node14</title>
<g id="a_edge18_Node000013_Node000014"><a xlink:title=" ">
<path fill="none" stroke="#63b8ff" d="M1312.77,-451.13C1346.42,-479.79 1419.22,-541.77 1454.1,-571.48"/>
<polygon fill="#63b8ff" stroke="#63b8ff" points="1452.22,-574.47 1462.1,-578.29 1456.76,-569.15 1452.22,-574.47"/>
</a>
</g>
</g>
<!-- Node15 -->
<g id="Node000015" class="node">
<title>Node15</title>
<g id="a_Node000015"><a xlink:href="namespacewmtk.html#a3daa7951a5f8b78cf4600dc047fcc180" target="_top" xlink:title="Setup a logger object to be used by WildmeshToolkit.">
<polygon fill="white" stroke="#666666" points="1652,-597.5 1551,-597.5 1551,-578.5 1652,-578.5 1652,-597.5"/>
<text text-anchor="middle" x="1601.5" y="-585.5" font-family="Helvetica,sans-Serif" font-size="10.00">wmtk::set_logger</text>
</a>
</g>
</g>
<!-- Node14&#45;&gt;Node15 -->
<g id="edge19_Node000014_Node000015" class="edge">
<title>Node14&#45;&gt;Node15</title>
<g id="a_edge19_Node000014_Node000015"><a xlink:title=" ">
<path fill="none" stroke="#63b8ff" d="M1515.05,-588C1523.17,-588 1531.9,-588 1540.55,-588"/>
<polygon fill="#63b8ff" stroke="#63b8ff" points="1540.65,-591.5 1550.65,-588 1540.65,-584.5 1540.65,-591.5"/>
</a>
</g>
</g>
<!-- Node19&#45;&gt;Node18 -->
<g id="edge25_Node000019_Node000018" class="edge">
<title>Node19&#45;&gt;Node18</title>
<g id="a_edge25_Node000019_Node000018"><a xlink:title=" ">
<path fill="none" stroke="#63b8ff" d="M900.14,-380.24C911.91,-376.15 923.81,-370.84 934,-364 954.7,-350.11 948.96,-334.36 970,-321 972.61,-319.35 975.32,-317.8 978.12,-316.37"/>
<polygon fill="#63b8ff" stroke="#63b8ff" points="979.68,-319.5 987.29,-312.13 976.74,-313.15 979.68,-319.5"/>
</a>
</g>
</g>
<!-- Node20 -->
<g id="Node000020" class="node">
<title>Node20</title>
<g id="a_Node000020"><a xlink:href="classwmtk_1_1simplex_1_1_simplex_collection.html#a0d0c1765c4ed8ffd0f163661111bfb08" target="_top" xlink:title=" ">
<polygon fill="white" stroke="#666666" points="1154,-408 970,-408 970,-378 1154,-378 1154,-408"/>
<text text-anchor="start" x="978" y="-396" font-family="Helvetica,sans-Serif" font-size="10.00">wmtk::simplex::SimplexCollection</text>
<text text-anchor="middle" x="1062" y="-385" font-family="Helvetica,sans-Serif" font-size="10.00">::mesh</text>
</a>
</g>
</g>
<!-- Node19&#45;&gt;Node20 -->
<g id="edge24_Node000019_Node000020" class="edge">
<title>Node19&#45;&gt;Node20</title>
<g id="a_edge24_Node000019_Node000020"><a xlink:title=" ">
<path fill="none" stroke="#63b8ff" d="M900.28,-393C918.6,-393 939.46,-393 959.94,-393"/>
<polygon fill="#63b8ff" stroke="#63b8ff" points="959.95,-396.5 969.95,-393 959.95,-389.5 959.95,-396.5"/>
</a>
</g>
</g>
<!-- Node21 -->
<g id="Node000021" class="node">
<title>Node21</title>
<g id="a_Node000021"><a xlink:href="namespacewmtk_1_1simplex.html#a0101f27eb2ad82814390b92ab1a4d1a0" target="_top" xlink:title=" ">
<polygon fill="white" stroke="#666666" points="1137.5,-360 986.5,-360 986.5,-330 1137.5,-330 1137.5,-360"/>
<text text-anchor="start" x="994.5" y="-348" font-family="Helvetica,sans-Serif" font-size="10.00">wmtk::simplex::top</text>
<text text-anchor="middle" x="1062" y="-337" font-family="Helvetica,sans-Serif" font-size="10.00">_dimension_cofaces_tuples</text>
</a>
</g>
</g>
<!-- Node19&#45;&gt;Node21 -->
<g id="edge26_Node000019_Node000021" class="edge">
<title>Node19&#45;&gt;Node21</title>
<g id="a_edge26_Node000019_Node000021"><a xlink:title=" ">
<path fill="none" stroke="#63b8ff" d="M900.28,-380.39C925.56,-374.82 955.67,-368.19 982.96,-362.18"/>
<polygon fill="#63b8ff" stroke="#63b8ff" points="983.86,-365.57 992.87,-360 982.35,-358.73 983.86,-365.57"/>
</a>
</g>
</g>
<!-- Node21&#45;&gt;Node7 -->
<g id="edge27_Node000021_Node000007" class="edge">
<title>Node21&#45;&gt;Node7</title>
<g id="a_edge27_Node000021_Node000007"><a xlink:title=" ">
<path fill="none" stroke="#63b8ff" d="M1137.59,-358.16C1143.53,-361.09 1149.11,-364.66 1154,-369 1186.53,-397.87 1166.47,-423.42 1190,-460 1213.48,-496.5 1250.61,-531.26 1273.29,-550.79"/>
<polygon fill="#63b8ff" stroke="#63b8ff" points="1271.05,-553.48 1280.94,-557.27 1275.58,-548.14 1271.05,-553.48"/>
</a>
</g>
</g>
<!-- Node21&#45;&gt;Node13 -->
<g id="edge28_Node000021_Node000013" class="edge">
<title>Node21&#45;&gt;Node13</title>
<g id="a_edge28_Node000021_Node000013"><a xlink:title=" ">
<path fill="none" stroke="#63b8ff" d="M1126.64,-360.12C1135.9,-362.8 1145.26,-365.78 1154,-369 1190.02,-382.29 1229.26,-401.7 1256.84,-416.21"/>
<polygon fill="#63b8ff" stroke="#63b8ff" points="1255.25,-419.32 1265.73,-420.92 1258.53,-413.14 1255.25,-419.32"/>
</a>
</g>
</g>
<!-- Node22 -->
<g id="Node000022" class="node">
<title>Node22</title>
<g id="a_Node000022"><a xlink:href="classwmtk_1_1simplex_1_1_simplex.html#ad2cc0340a0772b7d6f03ba7a781d1163" target="_top" xlink:title=" ">
<polygon fill="white" stroke="#666666" points="1361.5,-173 1226.5,-173 1226.5,-143 1361.5,-143 1361.5,-173"/>
<text text-anchor="start" x="1234.5" y="-161" font-family="Helvetica,sans-Serif" font-size="10.00">wmtk::simplex::Simplex</text>
<text text-anchor="middle" x="1294" y="-150" font-family="Helvetica,sans-Serif" font-size="10.00">::primitive_type</text>
</a>
</g>
</g>
<!-- Node21&#45;&gt;Node22 -->
<g id="edge29_Node000021_Node000022" class="edge">
<title>Node21&#45;&gt;Node22</title>
<g id="a_edge29_Node000021_Node000022"><a xlink:title=" ">
<path fill="none" stroke="#63b8ff" d="M1136.68,-329.81C1142.74,-327.31 1148.61,-324.39 1154,-321 1211.23,-285.02 1257.26,-217.96 1279.15,-182.1"/>
<polygon fill="#63b8ff" stroke="#63b8ff" points="1282.3,-183.65 1284.43,-173.27 1276.29,-180.06 1282.3,-183.65"/>
</a>
</g>
</g>
<!-- Node24 -->
<g id="Node000024" class="node">
<title>Node24</title>
<g id="a_Node000024"><a xlink:href="classwmtk_1_1_mesh.html#a933f681cf24a63b155c9462280385200" target="_top" xlink:title=" ">
<polygon fill="white" stroke="#666666" points="1122.5,-232 1001.5,-232 1001.5,-202 1122.5,-202 1122.5,-232"/>
<text text-anchor="start" x="1009.5" y="-220" font-family="Helvetica,sans-Serif" font-size="10.00">wmtk::Mesh::top_cell</text>
<text text-anchor="middle" x="1062" y="-209" font-family="Helvetica,sans-Serif" font-size="10.00">_dimension</text>
</a>
</g>
</g>
<!-- Node23&#45;&gt;Node24 -->
<g id="edge31_Node000023_Node000024" class="edge">
<title>Node23&#45;&gt;Node24</title>
<g id="a_edge31_Node000023_Node000024"><a xlink:title=" ">
<path fill="none" stroke="#63b8ff" d="M927.28,-228.65C948.4,-226.81 970.82,-224.86 991.15,-223.09"/>
<polygon fill="#63b8ff" stroke="#63b8ff" points="991.59,-226.56 1001.25,-222.21 990.99,-219.59 991.59,-226.56"/>
</a>
</g>
</g>
<!-- Node30 -->
<g id="Node000030" class="node">
<title>Node30</title>
<g id="a_Node000030"><a xlink:href="classwmtk_1_1simplex_1_1_simplex.html#ab6d51ca0c220792c1c09824d152bb53a" target="_top" xlink:title=" ">
<polygon fill="white" stroke="#666666" points="491,-30 356,-30 356,0 491,0 491,-30"/>
<text text-anchor="start" x="364" y="-18" font-family="Helvetica,sans-Serif" font-size="10.00">wmtk::simplex::Simplex</text>
<text text-anchor="middle" x="423.5" y="-7" font-family="Helvetica,sans-Serif" font-size="10.00">::Simplex</text>
</a>
</g>
</g>
<!-- Node29&#45;&gt;Node30 -->
<g id="edge44_Node000029_Node000030" class="edge">
<title>Node29&#45;&gt;Node30</title>
<g id="a_edge44_Node000029_Node000030"><a xlink:title=" ">
<path fill="none" stroke="#63b8ff" d="M317.49,-15C326.77,-15 336.37,-15 345.81,-15"/>
<polygon fill="#63b8ff" stroke="#63b8ff" points="345.97,-18.5 355.97,-15 345.97,-11.5 345.97,-18.5"/>
</a>
</g>
</g>
<!-- Node31&#45;&gt;Node22 -->
<g id="edge46_Node000031_Node000022" class="edge">
<title>Node31&#45;&gt;Node22</title>
<g id="a_edge46_Node000031_Node000022"><a xlink:title=" ">
<path fill="none" stroke="#63b8ff" d="M445.36,-89.35C466.26,-80.25 499.59,-67.25 530,-62 803.59,-14.78 888.15,-10.99 1154,-91 1191.57,-102.31 1231.64,-122.6 1259.06,-137.9"/>
<polygon fill="#63b8ff" stroke="#63b8ff" points="1257.42,-141 1267.85,-142.88 1260.87,-134.91 1257.42,-141"/>
</a>
</g>
</g>
<!-- Node31&#45;&gt;Node25 -->
<g id="edge56_Node000031_Node000025" class="edge">
<title>Node31&#45;&gt;Node25</title>
<g id="a_edge56_Node000031_Node000025"><a xlink:title=" ">
<path fill="none" stroke="#63b8ff" d="M478.42,-89.46C571.81,-74.5 769.45,-49.7 934,-75 961.21,-79.18 990.59,-88.13 1014.23,-96.51"/>
<polygon fill="#63b8ff" stroke="#63b8ff" points="1013.06,-99.8 1023.65,-99.92 1015.44,-93.22 1013.06,-99.8"/>
</a>
</g>
</g>
<!-- Node31&#45;&gt;Node28 -->
<g id="edge47_Node000031_Node000028" class="edge">
<title>Node31&#45;&gt;Node28</title>
<g id="a_edge47_Node000031_Node000028"><a xlink:title=" ">
<path fill="none" stroke="#63b8ff" d="M490.96,-99C568.76,-99 696.87,-99 774.64,-99"/>
<polygon fill="#63b8ff" stroke="#63b8ff" points="774.8,-102.5 784.8,-99 774.8,-95.5 774.8,-102.5"/>
</a>
</g>
</g>
<!-- Node32 -->
<g id="Node000032" class="node">
<title>Node32</title>
<g id="a_Node000032"><a xlink:href="classwmtk_1_1_mesh.html#a7f8a7b7d592fdbf672f2c6c9653487ea" target="_top" xlink:title=" ">
<polygon fill="white" stroke="#666666" points="679,-202 565,-202 565,-172 679,-172 679,-202"/>
<text text-anchor="start" x="573" y="-190" font-family="Helvetica,sans-Serif" font-size="10.00">wmtk::Mesh::switch</text>
<text text-anchor="middle" x="622" y="-179" font-family="Helvetica,sans-Serif" font-size="10.00">_tuples</text>
</a>
</g>
</g>
<!-- Node31&#45;&gt;Node32 -->
<g id="edge48_Node000031_Node000032" class="edge">
<title>Node31&#45;&gt;Node32</title>
<g id="a_edge48_Node000031_Node000032"><a xlink:title=" ">
<path fill="none" stroke="#63b8ff" d="M445.9,-108.59C477.46,-122.72 537.15,-149.45 577.98,-167.74"/>
<polygon fill="#63b8ff" stroke="#63b8ff" points="576.6,-170.95 587.16,-171.84 579.46,-164.56 576.6,-170.95"/>
</a>
</g>
</g>
<!-- Node32&#45;&gt;Node23 -->
<g id="edge55_Node000032_Node000023" class="edge">
<title>Node32&#45;&gt;Node23</title>
<g id="a_edge55_Node000032_Node000023"><a xlink:title=" ">
<path fill="none" stroke="#63b8ff" d="M679.14,-199.62C712.87,-207.2 755.5,-216.78 788.55,-224.21"/>
<polygon fill="#63b8ff" stroke="#63b8ff" points="787.95,-227.66 798.48,-226.44 789.49,-220.83 787.95,-227.66"/>
</a>
</g>
</g>
<!-- Node32&#45;&gt;Node24 -->
<g id="edge54_Node000032_Node000024" class="edge">
<title>Node32&#45;&gt;Node24</title>
<g id="a_edge54_Node000032_Node000024"><a xlink:title=" ">
<path fill="none" stroke="#63b8ff" d="M679.36,-190.86C759.15,-196.33 904.92,-206.31 991.37,-212.23"/>
<polygon fill="#63b8ff" stroke="#63b8ff" points="991.13,-215.72 1001.35,-212.91 991.61,-208.74 991.13,-215.72"/>
</a>
</g>
</g>
<!-- Node32&#45;&gt;Node28 -->
<g id="edge53_Node000032_Node000028" class="edge">
<title>Node32&#45;&gt;Node28</title>
<g id="a_edge53_Node000032_Node000028"><a xlink:title=" ">
<path fill="none" stroke="#63b8ff" d="M679.15,-173.6C691.11,-169.53 703.33,-164.39 714,-158 733.14,-146.53 730.57,-133.98 750,-123 757.83,-118.57 766.51,-114.94 775.3,-111.96"/>
<polygon fill="#63b8ff" stroke="#63b8ff" points="776.35,-115.3 784.85,-108.98 774.26,-108.62 776.35,-115.3"/>
</a>
</g>
</g>
<!-- Node33 -->
<g id="Node000033" class="node">
<title>Node33</title>
<g id="a_Node000033"><a xlink:href="classwmtk_1_1_mesh.html#a58bdbbfa0cd7bd9263241f6501db182a" target="_top" xlink:title="check if a simplex lies on a boundary or not">
<polygon fill="white" stroke="#666666" points="913,-151.5 771,-151.5 771,-132.5 913,-132.5 913,-151.5"/>
<text text-anchor="middle" x="842" y="-139.5" font-family="Helvetica,sans-Serif" font-size="10.00">wmtk::Mesh::is_boundary</text>
</a>
</g>
</g>
<!-- Node32&#45;&gt;Node33 -->
<g id="edge49_Node000032_Node000033" class="edge">
<title>Node32&#45;&gt;Node33</title>
<g id="a_edge49_Node000032_Node000033"><a xlink:title=" ">
<path fill="none" stroke="#63b8ff" d="M679.14,-175.41C711.72,-168.69 752.62,-160.24 785.16,-153.53"/>
<polygon fill="#63b8ff" stroke="#63b8ff" points="785.88,-156.95 794.97,-151.5 784.46,-150.1 785.88,-156.95"/>
</a>
</g>
</g>
<!-- Node33&#45;&gt;Node22 -->
<g id="edge51_Node000033_Node000022" class="edge">
<title>Node33&#45;&gt;Node22</title>
<g id="a_edge51_Node000033_Node000022"><a xlink:title=" ">
<path fill="none" stroke="#63b8ff" d="M913.31,-144.5C995.62,-147.43 1131.45,-152.26 1216.38,-155.28"/>
<polygon fill="#63b8ff" stroke="#63b8ff" points="1216.36,-158.78 1226.48,-155.63 1216.61,-151.78 1216.36,-158.78"/>
</a>
</g>
</g>
<!-- Node33&#45;&gt;Node25 -->
<g id="edge52_Node000033_Node000025" class="edge">
<title>Node33&#45;&gt;Node25</title>
<g id="a_edge52_Node000033_Node000025"><a xlink:title=" ">
<path fill="none" stroke="#63b8ff" d="M913.18,-133.31C935.84,-130.5 961.07,-127.38 984.19,-124.51"/>
<polygon fill="#63b8ff" stroke="#63b8ff" points="984.8,-127.96 994.29,-123.26 983.94,-121.02 984.8,-127.96"/>
</a>
</g>
</g>
<!-- Node33&#45;&gt;Node33 -->
<g id="edge50_Node000033_Node000033" class="edge">
<title>Node33&#45;&gt;Node33</title>
<g id="a_edge50_Node000033_Node000033"><a xlink:title=" ">
<path fill="none" stroke="#63b8ff" d="M808.09,-151.58C791.6,-160.23 802.9,-169.5 842,-169.5 870.1,-169.5 883.85,-164.71 883.23,-158.81"/>
<polygon fill="#63b8ff" stroke="#63b8ff" points="885.48,-156.12 875.91,-151.58 880.57,-161.1 885.48,-156.12"/>
</a>
</g>
</g>
</g>
</svg>
