<?xml version="1.0" encoding="UTF-8" standalone="no"?>
<!DOCTYPE svg PUBLIC "-//W3C//DTD SVG 1.1//EN"
 "http://www.w3.org/Graphics/SVG/1.1/DTD/svg11.dtd">
<!-- Generated by graphviz version 2.43.0 (0)
 -->
<!-- Title: wmtk::autogen::tet_mesh::tuple_is_valid_for_ccw Pages: 1 -->
<svg width="1125pt" height="797pt"
 viewBox="0.00 0.00 1125.00 796.50" xmlns="http://www.w3.org/2000/svg" xmlns:xlink="http://www.w3.org/1999/xlink">
<g id="graph0" class="graph" transform="scale(1 1) rotate(0) translate(4 792.5)">
<title>wmtk::autogen::tet_mesh::tuple_is_valid_for_ccw</title>
<!-- Node1 -->
<g id="Node000001" class="node">
<title>Node1</title>
<g id="a_Node000001"><a xlink:title=" ">
<polygon fill="#999999" stroke="#666666" points="1117,-154.5 995,-154.5 995,-113.5 1117,-113.5 1117,-154.5"/>
<text text-anchor="start" x="1003" y="-142.5" font-family="Helvetica,sans-Serif" font-size="10.00">wmtk::autogen::tet</text>
<text text-anchor="start" x="1003" y="-131.5" font-family="Helvetica,sans-Serif" font-size="10.00">_mesh::tuple_is_valid</text>
<text text-anchor="middle" x="1056" y="-120.5" font-family="Helvetica,sans-Serif" font-size="10.00">_for_ccw</text>
</a>
</g>
</g>
<!-- Node2 -->
<g id="Node000002" class="node">
<title>Node2</title>
<g id="a_Node000002"><a xlink:href="namespacewmtk_1_1autogen_1_1tet__mesh.html#a4243da89f13477619412eb6b6820fd7f" target="_top" xlink:title=" ">
<polygon fill="white" stroke="#666666" points="947,-149 837,-149 837,-119 947,-119 947,-149"/>
<text text-anchor="start" x="845" y="-137" font-family="Helvetica,sans-Serif" font-size="10.00">wmtk::autogen::tet</text>
<text text-anchor="middle" x="892" y="-126" font-family="Helvetica,sans-Serif" font-size="10.00">_mesh::is_ccw</text>
</a>
</g>
</g>
<!-- Node1&#45;&gt;Node2 -->
<g id="edge1_Node000001_Node000002" class="edge">
<title>Node1&#45;&gt;Node2</title>
<g id="a_edge1_Node000001_Node000002"><a xlink:title=" ">
<path fill="none" stroke="#63b8ff" d="M984.33,-134C971.9,-134 959.13,-134 947.23,-134"/>
<polygon fill="#63b8ff" stroke="#63b8ff" points="984.68,-137.5 994.68,-134 984.68,-130.5 984.68,-137.5"/>
</a>
</g>
</g>
<!-- Node12 -->
<g id="Node000012" class="node">
<title>Node12</title>
<g id="a_Node000012"><a xlink:href="classwmtk_1_1_tet_mesh.html#af07828ce32b19a3d5fc8e1cb6f365029" target="_top" xlink:title="check validity of tuple including its hash">
<polygon fill="white" stroke="#666666" points="959,-259.5 825,-259.5 825,-240.5 959,-240.5 959,-259.5"/>
<text text-anchor="middle" x="892" y="-247.5" font-family="Helvetica,sans-Serif" font-size="10.00">wmtk::TetMesh::is_valid</text>
</a>
</g>
</g>
<!-- Node1&#45;&gt;Node12 -->
<g id="edge14_Node000001_Node000012" class="edge">
<title>Node1&#45;&gt;Node12</title>
<g id="a_edge14_Node000001_Node000012"><a xlink:title=" ">
<path fill="none" stroke="#63b8ff" d="M1017.82,-160.62C982.26,-186.08 930.59,-223.08 906.42,-240.39"/>
<polygon fill="#63b8ff" stroke="#63b8ff" points="1019.94,-163.41 1026.04,-154.74 1015.87,-157.71 1019.94,-163.41"/>
</a>
</g>
</g>
<!-- Node30 -->
<g id="Node000030" class="node">
<title>Node30</title>
<g id="a_Node000030"><a xlink:href="namespacewmtk_1_1autogen.html#ac29d917dc0d4499209fc0a43367fafd5" target="_top" xlink:title=" ">
<polygon fill="white" stroke="#666666" points="952.5,-101 831.5,-101 831.5,-71 952.5,-71 952.5,-101"/>
<text text-anchor="start" x="839.5" y="-89" font-family="Helvetica,sans-Serif" font-size="10.00">wmtk::autogen::tuple</text>
<text text-anchor="middle" x="892" y="-78" font-family="Helvetica,sans-Serif" font-size="10.00">_is_valid_for_ccw</text>
</a>
</g>
</g>
<!-- Node1&#45;&gt;Node30 -->
<g id="edge41_Node000001_Node000030" class="edge">
<title>Node1&#45;&gt;Node30</title>
<g id="a_edge41_Node000001_Node000030"><a xlink:title=" ">
<path fill="none" stroke="#63b8ff" d="M984.75,-113.19C970.99,-109.11 956.8,-104.9 943.82,-101.06"/>
<polygon fill="#63b8ff" stroke="#63b8ff" points="984.09,-116.64 994.68,-116.13 986.08,-109.93 984.09,-116.64"/>
</a>
</g>
</g>
<!-- Node3 -->
<g id="Node000003" class="node">
<title>Node3</title>
<g id="a_Node000003"><a xlink:href="classwmtk_1_1_tet_mesh.html#a9a30d64d4b874e9bb156e6c771e7f08c" target="_top" xlink:title="returns if a tuple is counterclockwise or not">
<polygon fill="white" stroke="#666666" points="763,-143.5 634,-143.5 634,-124.5 763,-124.5 763,-143.5"/>
<text text-anchor="middle" x="698.5" y="-131.5" font-family="Helvetica,sans-Serif" font-size="10.00">wmtk::TetMesh::is_ccw</text>
</a>
</g>
</g>
<!-- Node2&#45;&gt;Node3 -->
<g id="edge2_Node000002_Node000003" class="edge">
<title>Node2&#45;&gt;Node3</title>
<g id="a_edge2_Node000002_Node000003"><a xlink:title=" ">
<path fill="none" stroke="#63b8ff" d="M826.74,-134C806.3,-134 783.71,-134 763.3,-134"/>
<polygon fill="#63b8ff" stroke="#63b8ff" points="826.89,-137.5 836.89,-134 826.89,-130.5 826.89,-137.5"/>
</a>
</g>
</g>
<!-- Node9 -->
<g id="Node000009" class="node">
<title>Node9</title>
<g id="a_Node000009"><a xlink:href="namespacewmtk_1_1autogen.html#a365ab61cb89e1b96e57747b7a3a97558" target="_top" xlink:title=" ">
<polygon fill="white" stroke="#666666" points="762.5,-67.5 634.5,-67.5 634.5,-48.5 762.5,-48.5 762.5,-67.5"/>
<text text-anchor="middle" x="698.5" y="-55.5" font-family="Helvetica,sans-Serif" font-size="10.00">wmtk::autogen::is_ccw</text>
</a>
</g>
</g>
<!-- Node2&#45;&gt;Node9 -->
<g id="edge11_Node000002_Node000009" class="edge">
<title>Node2&#45;&gt;Node9</title>
<g id="a_edge11_Node000002_Node000009"><a xlink:title=" ">
<path fill="none" stroke="#63b8ff" d="M834.61,-114.87C831.31,-113.33 828.08,-111.7 825,-110 807.26,-100.19 807.15,-91.03 789,-82 776.61,-75.84 762.45,-71.11 749.1,-67.54"/>
<polygon fill="#63b8ff" stroke="#63b8ff" points="833.47,-118.19 844.03,-118.99 836.27,-111.78 833.47,-118.19"/>
</a>
</g>
</g>
<!-- Node4 -->
<g id="Node000004" class="node">
<title>Node4</title>
<g id="a_Node000004"><a xlink:href="classwmtk_1_1_tet_mesh.html#a68609916210858129ba39958a273e78e" target="_top" xlink:title=" ">
<polygon fill="white" stroke="#666666" points="531.5,-279 410.5,-279 410.5,-249 531.5,-249 531.5,-279"/>
<text text-anchor="start" x="418.5" y="-267" font-family="Helvetica,sans-Serif" font-size="10.00">wmtk::TetMesh::edge</text>
<text text-anchor="middle" x="471" y="-256" font-family="Helvetica,sans-Serif" font-size="10.00">_tuple_from_id</text>
</a>
</g>
</g>
<!-- Node3&#45;&gt;Node4 -->
<g id="edge3_Node000003_Node000004" class="edge">
<title>Node3&#45;&gt;Node4</title>
<g id="a_edge3_Node000003_Node000004"><a xlink:title=" ">
<path fill="none" stroke="#63b8ff" d="M669.36,-148.35C650.72,-158.67 626.41,-173.77 608,-191 588.27,-209.46 594.51,-225.05 572,-240 560.03,-247.95 545.7,-253.28 531.68,-256.84"/>
<polygon fill="#63b8ff" stroke="#63b8ff" points="671.13,-151.37 678.26,-143.54 667.8,-145.21 671.13,-151.37"/>
</a>
</g>
</g>
<!-- Node6 -->
<g id="Node000006" class="node">
<title>Node6</title>
<g id="a_Node000006"><a xlink:href="classwmtk_1_1_tet_mesh.html#a6d216046ac28a11f7d0fd07f9e090ba3" target="_top" xlink:title=" ">
<polygon fill="white" stroke="#666666" points="530,-231 412,-231 412,-201 530,-201 530,-231"/>
<text text-anchor="start" x="420" y="-219" font-family="Helvetica,sans-Serif" font-size="10.00">wmtk::TetMesh::face</text>
<text text-anchor="middle" x="471" y="-208" font-family="Helvetica,sans-Serif" font-size="10.00">_tuple_from_id</text>
</a>
</g>
</g>
<!-- Node3&#45;&gt;Node6 -->
<g id="edge5_Node000003_Node000006" class="edge">
<title>Node3&#45;&gt;Node6</title>
<g id="a_edge5_Node000003_Node000006"><a xlink:title=" ">
<path fill="none" stroke="#63b8ff" d="M670.48,-148.39C645.49,-161.23 607.03,-179.84 572,-192 558.68,-196.63 544.05,-200.68 530.2,-204.08"/>
<polygon fill="#63b8ff" stroke="#63b8ff" points="672.42,-151.32 679.68,-143.61 669.19,-145.11 672.42,-151.32"/>
</a>
</g>
</g>
<!-- Node7 -->
<g id="Node000007" class="node">
<title>Node7</title>
<g id="a_Node000007"><a xlink:href="classwmtk_1_1_tet_mesh.html#a8e0e56365f9c2cb86588a9d7b1874203" target="_top" xlink:title=" ">
<polygon fill="white" stroke="#666666" points="526,-183 416,-183 416,-153 526,-153 526,-183"/>
<text text-anchor="start" x="424" y="-171" font-family="Helvetica,sans-Serif" font-size="10.00">wmtk::TetMesh::tet</text>
<text text-anchor="middle" x="471" y="-160" font-family="Helvetica,sans-Serif" font-size="10.00">_tuple_from_id</text>
</a>
</g>
</g>
<!-- Node3&#45;&gt;Node7 -->
<g id="edge7_Node000003_Node000007" class="edge">
<title>Node3&#45;&gt;Node7</title>
<g id="a_edge7_Node000003_Node000007"><a xlink:title=" ">
<path fill="none" stroke="#63b8ff" d="M624.22,-145.05C592.35,-149.85 555.67,-155.39 526.3,-159.81"/>
<polygon fill="#63b8ff" stroke="#63b8ff" points="625.02,-148.47 634.39,-143.52 623.98,-141.55 625.02,-148.47"/>
</a>
</g>
</g>
<!-- Node8 -->
<g id="Node000008" class="node">
<title>Node8</title>
<g id="a_Node000008"><a xlink:href="classwmtk_1_1_tet_mesh.html#ab247e83a140cafd3d62e06508ba128c7" target="_top" xlink:title=" ">
<polygon fill="white" stroke="#666666" points="535,-135 407,-135 407,-105 535,-105 535,-135"/>
<text text-anchor="start" x="415" y="-123" font-family="Helvetica,sans-Serif" font-size="10.00">wmtk::TetMesh::vertex</text>
<text text-anchor="middle" x="471" y="-112" font-family="Helvetica,sans-Serif" font-size="10.00">_tuple_from_id</text>
</a>
</g>
</g>
<!-- Node3&#45;&gt;Node8 -->
<g id="edge9_Node000003_Node000008" class="edge">
<title>Node3&#45;&gt;Node8</title>
<g id="a_edge9_Node000003_Node000008"><a xlink:title=" ">
<path fill="none" stroke="#63b8ff" d="M623.45,-129.4C594.91,-127.63 562.59,-125.62 535.17,-123.92"/>
<polygon fill="#63b8ff" stroke="#63b8ff" points="623.59,-132.92 633.78,-130.04 624.02,-125.93 623.59,-132.92"/>
</a>
</g>
</g>
<!-- Node5 -->
<g id="Node000005" class="node">
<title>Node5</title>
<g id="a_Node000005"><a xlink:href="classwmtk_1_1_tet_mesh.html#a1ac65b024e2d1a8384dcf699297c9028" target="_top" xlink:title="internal function that returns the tuple of requested type, and has the global index cid">
<polygon fill="white" stroke="#666666" points="302.5,-207 180.5,-207 180.5,-177 302.5,-177 302.5,-207"/>
<text text-anchor="start" x="188.5" y="-195" font-family="Helvetica,sans-Serif" font-size="10.00">wmtk::TetMesh::tuple</text>
<text text-anchor="middle" x="241.5" y="-184" font-family="Helvetica,sans-Serif" font-size="10.00">_from_id</text>
</a>
</g>
</g>
<!-- Node4&#45;&gt;Node5 -->
<g id="edge4_Node000004_Node000005" class="edge">
<title>Node4&#45;&gt;Node5</title>
<g id="a_edge4_Node000004_Node000005"><a xlink:title=" ">
<path fill="none" stroke="#63b8ff" d="M400.62,-248.53C390.3,-245.89 379.83,-243.02 370,-240 338.8,-230.42 304.18,-217.22 278.91,-207.09"/>
<polygon fill="#63b8ff" stroke="#63b8ff" points="399.9,-251.96 410.45,-250.99 401.6,-245.17 399.9,-251.96"/>
</a>
</g>
</g>
<!-- Node6&#45;&gt;Node5 -->
<g id="edge6_Node000006_Node000005" class="edge">
<title>Node6&#45;&gt;Node5</title>
<g id="a_edge6_Node000006_Node000005"><a xlink:title=" ">
<path fill="none" stroke="#63b8ff" d="M401.69,-208.79C370.16,-205.47 333.07,-201.55 302.62,-198.34"/>
<polygon fill="#63b8ff" stroke="#63b8ff" points="401.4,-212.28 411.71,-209.85 402.13,-205.32 401.4,-212.28"/>
</a>
</g>
</g>
<!-- Node7&#45;&gt;Node5 -->
<g id="edge8_Node000007_Node000005" class="edge">
<title>Node7&#45;&gt;Node5</title>
<g id="a_edge8_Node000007_Node000005"><a xlink:title=" ">
<path fill="none" stroke="#63b8ff" d="M405.56,-174.8C373.26,-178.21 334.38,-182.31 302.69,-185.65"/>
<polygon fill="#63b8ff" stroke="#63b8ff" points="406.22,-178.25 415.8,-173.72 405.49,-171.29 406.22,-178.25"/>
</a>
</g>
</g>
<!-- Node8&#45;&gt;Node5 -->
<g id="edge10_Node000008_Node000005" class="edge">
<title>Node8&#45;&gt;Node5</title>
<g id="a_edge10_Node000008_Node000005"><a xlink:title=" ">
<path fill="none" stroke="#63b8ff" d="M397.09,-136.38C387.92,-138.76 378.71,-141.33 370,-144 338.8,-153.58 304.18,-166.78 278.91,-176.91"/>
<polygon fill="#63b8ff" stroke="#63b8ff" points="398.17,-139.71 407,-133.86 396.44,-132.93 398.17,-139.71"/>
</a>
</g>
</g>
<!-- Node10 -->
<g id="Node000010" class="node">
<title>Node10</title>
<g id="a_Node000010"><a xlink:href="classwmtk_1_1operations_1_1_a_m_i_p_s_optimization_smoothing.html#a2c409cd3da46f4360119e142ef3c3682" target="_top" xlink:title="returns an empty vector in case of failure">
<polygon fill="white" stroke="#666666" points="572,-78 370,-78 370,-48 572,-48 572,-78"/>
<text text-anchor="start" x="378" y="-66" font-family="Helvetica,sans-Serif" font-size="10.00">wmtk::operations::AMIPSOptimization</text>
<text text-anchor="middle" x="471" y="-55" font-family="Helvetica,sans-Serif" font-size="10.00">Smoothing::execute</text>
</a>
</g>
</g>
<!-- Node9&#45;&gt;Node10 -->
<g id="edge12_Node000009_Node000010" class="edge">
<title>Node9&#45;&gt;Node10</title>
<g id="a_edge12_Node000009_Node000010"><a xlink:title=" ">
<path fill="none" stroke="#63b8ff" d="M624.24,-59.62C607.66,-59.99 589.77,-60.39 572.28,-60.78"/>
<polygon fill="#63b8ff" stroke="#63b8ff" points="624.47,-63.12 634.39,-59.4 624.31,-56.12 624.47,-63.12"/>
</a>
</g>
</g>
<!-- Node11 -->
<g id="Node000011" class="node">
<title>Node11</title>
<g id="a_Node000011"><a xlink:href="classwmtk_1_1operations_1_1_a_m_i_p_s_optimization_smoothing_periodic.html#a86df18fe3713cb41dca1687487dea61b" target="_top" xlink:title="returns an empty vector in case of failure">
<polygon fill="white" stroke="#666666" points="572,-30 370,-30 370,0 572,0 572,-30"/>
<text text-anchor="start" x="378" y="-18" font-family="Helvetica,sans-Serif" font-size="10.00">wmtk::operations::AMIPSOptimization</text>
<text text-anchor="middle" x="471" y="-7" font-family="Helvetica,sans-Serif" font-size="10.00">SmoothingPeriodic::execute</text>
</a>
</g>
</g>
<!-- Node9&#45;&gt;Node11 -->
<g id="edge13_Node000009_Node000011" class="edge">
<title>Node9&#45;&gt;Node11</title>
<g id="a_edge13_Node000009_Node000011"><a xlink:title=" ">
<path fill="none" stroke="#63b8ff" d="M637.51,-46.56C610.89,-41.48 579.19,-35.44 550.7,-30.01"/>
<polygon fill="#63b8ff" stroke="#63b8ff" points="636.98,-50.02 647.45,-48.46 638.29,-43.15 636.98,-50.02"/>
</a>
</g>
</g>
<!-- Node12&#45;&gt;Node3 -->
<g id="edge17_Node000012_Node000003" class="edge">
<title>Node12&#45;&gt;Node3</title>
<g id="a_edge17_Node000012_Node000003"><a xlink:title=" ">
<path fill="none" stroke="#63b8ff" d="M876.42,-232.57C858.11,-211.78 824.72,-177.42 789,-158 777.55,-151.78 764.39,-147.09 751.74,-143.59"/>
<polygon fill="#63b8ff" stroke="#63b8ff" points="873.92,-235.03 883.1,-240.31 879.22,-230.45 873.92,-235.03"/>
</a>
</g>
</g>
<!-- Node12&#45;&gt;Node4 -->
<g id="edge15_Node000012_Node000004" class="edge">
<title>Node12&#45;&gt;Node4</title>
<g id="a_edge15_Node000012_Node000004"><a xlink:title=" ">
<path fill="none" stroke="#63b8ff" d="M884.86,-269.22C872.78,-303.33 842.39,-373.53 789,-402 718.02,-439.85 678.61,-440.55 608,-402 582.03,-387.82 591.68,-368.09 572,-346 548.41,-319.51 515.84,-294.48 494.37,-279.2"/>
<polygon fill="#63b8ff" stroke="#63b8ff" points="888.25,-270.11 888.14,-259.51 881.62,-267.87 888.25,-270.11"/>
</a>
</g>
</g>
<!-- Node12&#45;&gt;Node6 -->
<g id="edge16_Node000012_Node000006" class="edge">
<title>Node12&#45;&gt;Node6</title>
<g id="a_edge16_Node000012_Node000006"><a xlink:title=" ">
<path fill="none" stroke="#63b8ff" d="M881.78,-268.63C866.77,-296.56 834.14,-348.24 789,-369 715.92,-402.61 672.07,-417.64 608,-369 560.59,-333.01 614.85,-281.31 572,-240 560.69,-229.1 545.34,-222.85 530.06,-219.35"/>
<polygon fill="#63b8ff" stroke="#63b8ff" points="885.01,-270 886.5,-259.51 878.8,-266.78 885.01,-270"/>
</a>
</g>
</g>
<!-- Node12&#45;&gt;Node7 -->
<g id="edge39_Node000012_Node000007" class="edge">
<title>Node12&#45;&gt;Node7</title>
<g id="a_edge39_Node000012_Node000007"><a xlink:title=" ">
<path fill="none" stroke="#63b8ff" d="M870.47,-234.35C850.74,-220.26 819.52,-200.39 789,-191 699.87,-163.58 590.27,-162.34 526.07,-164.66"/>
<polygon fill="#63b8ff" stroke="#63b8ff" points="868.54,-237.27 878.67,-240.35 872.67,-231.62 868.54,-237.27"/>
</a>
</g>
</g>
<!-- Node12&#45;&gt;Node8 -->
<g id="edge40_Node000012_Node000008" class="edge">
<title>Node12&#45;&gt;Node8</title>
<g id="a_edge40_Node000012_Node000008"><a xlink:title=" ">
<path fill="none" stroke="#63b8ff" d="M878.02,-231.96C852.02,-195.92 795.45,-118.21 789,-115 704.49,-72.93 590.95,-89.47 525.19,-104.98"/>
<polygon fill="#63b8ff" stroke="#63b8ff" points="875.24,-234.08 883.93,-240.15 880.92,-229.99 875.24,-234.08"/>
</a>
</g>
</g>
<!-- Node13 -->
<g id="Node000013" class="node">
<title>Node13</title>
<g id="a_Node000013"><a xlink:href="classwmtk_1_1operations_1_1utils_1_1_update_edge_operation_multi_mesh_map_functor.html#a9b36575024b847b2c0367ced7f1c5caa" target="_top" xlink:title=" ">
<polygon fill="white" stroke="#666666" points="789,-300.5 608,-300.5 608,-259.5 789,-259.5 789,-300.5"/>
<text text-anchor="start" x="616" y="-288.5" font-family="Helvetica,sans-Serif" font-size="10.00">wmtk::operations::utils</text>
<text text-anchor="start" x="616" y="-277.5" font-family="Helvetica,sans-Serif" font-size="10.00">::UpdateEdgeOperationMultiMesh</text>
<text text-anchor="middle" x="698.5" y="-266.5" font-family="Helvetica,sans-Serif" font-size="10.00">MapFunctor::operator()</text>
</a>
</g>
</g>
<!-- Node12&#45;&gt;Node13 -->
<g id="edge18_Node000012_Node000013" class="edge">
<title>Node12&#45;&gt;Node13</title>
<g id="a_edge18_Node000012_Node000013"><a xlink:title=" ">
<path fill="none" stroke="#63b8ff" d="M820.2,-261.09C810.11,-262.67 799.61,-264.32 789.22,-265.95"/>
<polygon fill="#63b8ff" stroke="#63b8ff" points="820.81,-264.54 830.15,-259.53 819.72,-257.62 820.81,-264.54"/>
</a>
</g>
</g>
<!-- Node14 -->
<g id="Node000014" class="node">
<title>Node14</title>
<g id="a_Node000014"><a xlink:href="classwmtk_1_1operations_1_1utils_1_1_update_edge_operation_multi_mesh_map_functor.html#a8784cdae3cf7a6f1ad6b5c361dd8fc03" target="_top" xlink:title=" ">
<polygon fill="white" stroke="#666666" points="789,-241.5 608,-241.5 608,-200.5 789,-200.5 789,-241.5"/>
<text text-anchor="start" x="616" y="-229.5" font-family="Helvetica,sans-Serif" font-size="10.00">wmtk::operations::utils</text>
<text text-anchor="start" x="616" y="-218.5" font-family="Helvetica,sans-Serif" font-size="10.00">::UpdateEdgeOperationMultiMesh</text>
<text text-anchor="middle" x="698.5" y="-207.5" font-family="Helvetica,sans-Serif" font-size="10.00">MapFunctor::operator()</text>
</a>
</g>
</g>
<!-- Node12&#45;&gt;Node14 -->
<g id="edge19_Node000012_Node000014" class="edge">
<title>Node12&#45;&gt;Node14</title>
<g id="a_edge19_Node000012_Node000014"><a xlink:title=" ">
<path fill="none" stroke="#63b8ff" d="M817.97,-238.94C808.57,-237.52 798.85,-236.05 789.22,-234.59"/>
<polygon fill="#63b8ff" stroke="#63b8ff" points="817.62,-242.43 828.03,-240.46 818.67,-235.51 817.62,-242.43"/>
</a>
</g>
</g>
<!-- Node15 -->
<g id="Node000015" class="node">
<title>Node15</title>
<g id="a_Node000015"><a xlink:href="classwmtk_1_1operations_1_1utils_1_1_update_edge_operation_multi_mesh_map_functor.html#a756bab482d580d864f71439794990aac" target="_top" xlink:title=" ">
<polygon fill="white" stroke="#666666" points="789,-359.5 608,-359.5 608,-318.5 789,-318.5 789,-359.5"/>
<text text-anchor="start" x="616" y="-347.5" font-family="Helvetica,sans-Serif" font-size="10.00">wmtk::operations::utils</text>
<text text-anchor="start" x="616" y="-336.5" font-family="Helvetica,sans-Serif" font-size="10.00">::UpdateEdgeOperationMultiMesh</text>
<text text-anchor="middle" x="698.5" y="-325.5" font-family="Helvetica,sans-Serif" font-size="10.00">MapFunctor::operator()</text>
</a>
</g>
</g>
<!-- Node12&#45;&gt;Node15 -->
<g id="edge20_Node000012_Node000015" class="edge">
<title>Node12&#45;&gt;Node15</title>
<g id="a_edge20_Node000012_Node000015"><a xlink:title=" ">
<path fill="none" stroke="#63b8ff" d="M868.53,-265.16C848.35,-278.29 817.6,-297.14 789,-310 782.45,-312.95 775.5,-315.74 768.49,-318.34"/>
<polygon fill="#63b8ff" stroke="#63b8ff" points="870.58,-268 877,-259.57 866.73,-262.15 870.58,-268"/>
</a>
</g>
</g>
<!-- Node16 -->
<g id="Node000016" class="node">
<title>Node16</title>
<g id="a_Node000016"><a xlink:href="classwmtk_1_1_tet_mesh.html#a53d9ec91a1c80da4ae10dea485564f27" target="_top" xlink:title="switch the orientation of the Tuple of the given dimension">
<polygon fill="white" stroke="#666666" points="762.5,-484 634.5,-484 634.5,-454 762.5,-454 762.5,-484"/>
<text text-anchor="start" x="642.5" y="-472" font-family="Helvetica,sans-Serif" font-size="10.00">wmtk::TetMesh::switch</text>
<text text-anchor="middle" x="698.5" y="-461" font-family="Helvetica,sans-Serif" font-size="10.00">_tuple</text>
</a>
</g>
</g>
<!-- Node12&#45;&gt;Node16 -->
<g id="edge21_Node000012_Node000016" class="edge">
<title>Node12&#45;&gt;Node16</title>
<g id="a_edge21_Node000012_Node000016"><a xlink:title=" ">
<path fill="none" stroke="#63b8ff" d="M885.89,-269.39C874.82,-307.66 844.97,-393.26 789,-440 781.35,-446.39 772.27,-451.38 762.86,-455.27"/>
<polygon fill="#63b8ff" stroke="#63b8ff" points="889.33,-270.09 888.63,-259.52 882.58,-268.22 889.33,-270.09"/>
</a>
</g>
</g>
<!-- Node17 -->
<g id="Node000017" class="node">
<title>Node17</title>
<g id="a_Node000017"><a xlink:href="classwmtk_1_1operations_1_1tet__mesh_1_1_edge_operation_data.html#a0b36950981ccdbd5b04a2d7eccc758a3" target="_top" xlink:title=" ">
<polygon fill="white" stroke="#666666" points="546,-729.5 396,-729.5 396,-688.5 546,-688.5 546,-729.5"/>
<text text-anchor="start" x="404" y="-717.5" font-family="Helvetica,sans-Serif" font-size="10.00">wmtk::operations::tet</text>
<text text-anchor="start" x="404" y="-706.5" font-family="Helvetica,sans-Serif" font-size="10.00">_mesh::EdgeOperationData</text>
<text text-anchor="middle" x="471" y="-695.5" font-family="Helvetica,sans-Serif" font-size="10.00">::input_endpoints</text>
</a>
</g>
</g>
<!-- Node16&#45;&gt;Node17 -->
<g id="edge22_Node000016_Node000017" class="edge">
<title>Node16&#45;&gt;Node17</title>
<g id="a_edge22_Node000016_Node000017"><a xlink:title=" ">
<path fill="none" stroke="#63b8ff" d="M676.38,-491.6C651.45,-518.26 608.76,-563.9 572,-603 544.1,-632.68 511.74,-666.95 491.57,-688.3"/>
<polygon fill="#63b8ff" stroke="#63b8ff" points="678.94,-493.99 683.21,-484.29 673.83,-489.21 678.94,-493.99"/>
</a>
</g>
</g>
<!-- Node20 -->
<g id="Node000020" class="node">
<title>Node20</title>
<g id="a_Node000020"><a xlink:href="namespacewmtk_1_1simplex.html#aead7bf4f261c58bdb33bd0bf7fcd541d" target="_top" xlink:title=" ">
<polygon fill="white" stroke="#666666" points="113,-524 0,-524 0,-494 113,-494 113,-524"/>
<text text-anchor="start" x="8" y="-512" font-family="Helvetica,sans-Serif" font-size="10.00">wmtk::simplex::link</text>
<text text-anchor="middle" x="56.5" y="-501" font-family="Helvetica,sans-Serif" font-size="10.00">_condition</text>
</a>
</g>
</g>
<!-- Node16&#45;&gt;Node20 -->
<g id="edge25_Node000016_Node000020" class="edge">
<title>Node16&#45;&gt;Node20</title>
<g id="a_edge25_Node000016_Node000020"><a xlink:title=" ">
<path fill="none" stroke="#63b8ff" d="M624.18,-473.58C494.83,-481.67 228.87,-498.29 113.24,-505.52"/>
<polygon fill="#63b8ff" stroke="#63b8ff" points="624.62,-477.06 634.38,-472.94 624.18,-470.08 624.62,-477.06"/>
</a>
</g>
</g>
<!-- Node21 -->
<g id="Node000021" class="node">
<title>Node21</title>
<g id="a_Node000021"><a xlink:href="classwmtk_1_1_tet_mesh.html#a1ff7ac5989c664b7754dd699fa1e9b1a" target="_top" xlink:title=" ">
<polygon fill="white" stroke="#666666" points="320.5,-459.5 162.5,-459.5 162.5,-440.5 320.5,-440.5 320.5,-459.5"/>
<text text-anchor="middle" x="241.5" y="-447.5" font-family="Helvetica,sans-Serif" font-size="10.00">wmtk::TetMesh::switch_edge</text>
</a>
</g>
</g>
<!-- Node16&#45;&gt;Node21 -->
<g id="edge26_Node000016_Node000021" class="edge">
<title>Node16&#45;&gt;Node21</title>
<g id="a_edge26_Node000016_Node000021"><a xlink:title=" ">
<path fill="none" stroke="#63b8ff" d="M624.11,-465.94C540.97,-462.46 406,-456.83 320.85,-453.27"/>
<polygon fill="#63b8ff" stroke="#63b8ff" points="624.1,-469.44 634.23,-466.36 624.39,-462.44 624.1,-469.44"/>
</a>
</g>
</g>
<!-- Node22 -->
<g id="Node000022" class="node">
<title>Node22</title>
<g id="a_Node000022"><a xlink:href="classwmtk_1_1_tet_mesh.html#a6c405e0d239a6ec627a6b50963c52ea5" target="_top" xlink:title=" ">
<polygon fill="white" stroke="#666666" points="548.5,-373.5 393.5,-373.5 393.5,-354.5 548.5,-354.5 548.5,-373.5"/>
<text text-anchor="middle" x="471" y="-361.5" font-family="Helvetica,sans-Serif" font-size="10.00">wmtk::TetMesh::switch_face</text>
</a>
</g>
</g>
<!-- Node16&#45;&gt;Node22 -->
<g id="edge28_Node000016_Node000022" class="edge">
<title>Node16&#45;&gt;Node22</title>
<g id="a_edge28_Node000016_Node000022"><a xlink:title=" ">
<path fill="none" stroke="#63b8ff" d="M624.61,-450.32C618.71,-447.36 613.08,-443.95 608,-440 584.34,-421.62 596.77,-399.86 572,-383 564.91,-378.18 556.92,-374.5 548.63,-371.71"/>
<polygon fill="#63b8ff" stroke="#63b8ff" points="623.5,-453.66 634.05,-454.6 626.39,-447.29 623.5,-453.66"/>
</a>
</g>
</g>
<!-- Node25 -->
<g id="Node000025" class="node">
<title>Node25</title>
<g id="a_Node000025"><a xlink:href="classwmtk_1_1_tet_mesh.html#ac89db402ec507958c553e5ed0a26c774" target="_top" xlink:title=" ">
<polygon fill="white" stroke="#666666" points="535,-422 407,-422 407,-392 535,-392 535,-422"/>
<text text-anchor="start" x="415" y="-410" font-family="Helvetica,sans-Serif" font-size="10.00">wmtk::TetMesh::switch</text>
<text text-anchor="middle" x="471" y="-399" font-family="Helvetica,sans-Serif" font-size="10.00">_tetrahedron</text>
</a>
</g>
</g>
<!-- Node16&#45;&gt;Node25 -->
<g id="edge31_Node000016_Node000025" class="edge">
<title>Node16&#45;&gt;Node25</title>
<g id="a_edge31_Node000016_Node000025"><a xlink:title=" ">
<path fill="none" stroke="#63b8ff" d="M633.19,-451.32C599.61,-442.09 558.95,-430.91 526.87,-422.09"/>
<polygon fill="#63b8ff" stroke="#63b8ff" points="632.34,-454.72 642.91,-453.99 634.2,-447.97 632.34,-454.72"/>
</a>
</g>
</g>
<!-- Node26 -->
<g id="Node000026" class="node">
<title>Node26</title>
<g id="a_Node000026"><a xlink:href="classwmtk_1_1_tet_mesh.html#a87165a8f0949177c42845b725feac1dd" target="_top" xlink:title=" ">
<polygon fill="white" stroke="#666666" points="535,-594 407,-594 407,-564 535,-564 535,-594"/>
<text text-anchor="start" x="415" y="-582" font-family="Helvetica,sans-Serif" font-size="10.00">wmtk::TetMesh::switch</text>
<text text-anchor="middle" x="471" y="-571" font-family="Helvetica,sans-Serif" font-size="10.00">_vertex</text>
</a>
</g>
</g>
<!-- Node16&#45;&gt;Node26 -->
<g id="edge33_Node000016_Node000026" class="edge">
<title>Node16&#45;&gt;Node26</title>
<g id="a_edge33_Node000016_Node000026"><a xlink:title=" ">
<path fill="none" stroke="#63b8ff" d="M657.6,-488.46C613.4,-510.03 543.07,-544.33 502.87,-563.94"/>
<polygon fill="#63b8ff" stroke="#63b8ff" points="659.16,-491.59 666.62,-484.06 656.1,-485.3 659.16,-491.59"/>
</a>
</g>
</g>
<!-- Node18 -->
<g id="Node000018" class="node">
<title>Node18</title>
<g id="a_Node000018"><a xlink:href="classwmtk_1_1operations_1_1tet__mesh_1_1_split_new_attribute_topo_info.html#a89bd25c4ffb57ea07683a822dc5aae05" target="_top" xlink:title=" ">
<polygon fill="white" stroke="#666666" points="323.5,-729.5 159.5,-729.5 159.5,-688.5 323.5,-688.5 323.5,-729.5"/>
<text text-anchor="start" x="167.5" y="-717.5" font-family="Helvetica,sans-Serif" font-size="10.00">wmtk::operations::tet</text>
<text text-anchor="start" x="167.5" y="-706.5" font-family="Helvetica,sans-Serif" font-size="10.00">_mesh::SplitNewAttributeTopo</text>
<text text-anchor="middle" x="241.5" y="-695.5" font-family="Helvetica,sans-Serif" font-size="10.00">Info::input_ear_simplices</text>
</a>
</g>
</g>
<!-- Node17&#45;&gt;Node18 -->
<g id="edge23_Node000017_Node000018" class="edge">
<title>Node17&#45;&gt;Node18</title>
<g id="a_edge23_Node000017_Node000018"><a xlink:title=" ">
<path fill="none" stroke="#63b8ff" d="M385.67,-709C365.4,-709 343.78,-709 323.65,-709"/>
<polygon fill="#63b8ff" stroke="#63b8ff" points="385.82,-712.5 395.82,-709 385.82,-705.5 385.82,-712.5"/>
</a>
</g>
</g>
<!-- Node19 -->
<g id="Node000019" class="node">
<title>Node19</title>
<g id="a_Node000019"><a xlink:href="classwmtk_1_1operations_1_1tet__mesh_1_1_collapse_new_attribute_topo_info.html#a9f0532f826f70f51e8b5a9a2275e426b" target="_top" xlink:title=" ">
<polygon fill="white" stroke="#666666" points="322,-788.5 161,-788.5 161,-747.5 322,-747.5 322,-788.5"/>
<text text-anchor="start" x="169" y="-776.5" font-family="Helvetica,sans-Serif" font-size="10.00">wmtk::operations::tet</text>
<text text-anchor="start" x="169" y="-765.5" font-family="Helvetica,sans-Serif" font-size="10.00">_mesh::CollapseNewAttribute</text>
<text text-anchor="middle" x="241.5" y="-754.5" font-family="Helvetica,sans-Serif" font-size="10.00">TopoInfo::merged_simplices</text>
</a>
</g>
</g>
<!-- Node17&#45;&gt;Node19 -->
<g id="edge24_Node000017_Node000019" class="edge">
<title>Node17&#45;&gt;Node19</title>
<g id="a_edge24_Node000017_Node000019"><a xlink:title=" ">
<path fill="none" stroke="#63b8ff" d="M385.96,-730.8C364.93,-736.25 342.45,-742.08 321.67,-747.47"/>
<polygon fill="#63b8ff" stroke="#63b8ff" points="387.02,-734.14 395.82,-728.24 385.26,-727.36 387.02,-734.14"/>
</a>
</g>
</g>
<!-- Node21&#45;&gt;Node20 -->
<g id="edge27_Node000021_Node000020" class="edge">
<title>Node21&#45;&gt;Node20</title>
<g id="a_edge27_Node000021_Node000020"><a xlink:title=" ">
<path fill="none" stroke="#63b8ff" d="M190.1,-462.17C176.66,-465.7 162.21,-469.76 149,-474 130.7,-479.88 110.73,-487.39 94.13,-493.94"/>
<polygon fill="#63b8ff" stroke="#63b8ff" points="191.33,-465.47 200.14,-459.58 189.58,-458.69 191.33,-465.47"/>
</a>
</g>
</g>
<!-- Node23 -->
<g id="Node000023" class="node">
<title>Node23</title>
<g id="a_Node000023"><a xlink:href="classwmtk_1_1_tet_mesh_1_1_tet_mesh_operation_executor.html#a0300c3eb5b2c02d01b447d69a3958727" target="_top" xlink:title="Get the incident tets and faces for an edge tuple.">
<polygon fill="white" stroke="#666666" points="334,-422.5 149,-422.5 149,-381.5 334,-381.5 334,-422.5"/>
<text text-anchor="start" x="157" y="-410.5" font-family="Helvetica,sans-Serif" font-size="10.00">wmtk::TetMesh::TetMeshOperation</text>
<text text-anchor="start" x="157" y="-399.5" font-family="Helvetica,sans-Serif" font-size="10.00">Executor::get_incident_tets</text>
<text text-anchor="middle" x="241.5" y="-388.5" font-family="Helvetica,sans-Serif" font-size="10.00">_and_faces</text>
</a>
</g>
</g>
<!-- Node22&#45;&gt;Node23 -->
<g id="edge29_Node000022_Node000023" class="edge">
<title>Node22&#45;&gt;Node23</title>
<g id="a_edge29_Node000022_Node000023"><a xlink:title=" ">
<path fill="none" stroke="#63b8ff" d="M402.88,-375.21C381.36,-378.81 357.15,-382.85 334.19,-386.68"/>
<polygon fill="#63b8ff" stroke="#63b8ff" points="403.6,-378.64 412.89,-373.54 402.45,-371.74 403.6,-378.64"/>
</a>
</g>
</g>
<!-- Node24 -->
<g id="Node000024" class="node">
<title>Node24</title>
<g id="a_Node000024"><a xlink:href="namespacewmtk_1_1simplex.html#ae52e68a7ebacf23d85b0b15c1565dd5a" target="_top" xlink:title=" ">
<polygon fill="white" stroke="#666666" points="313,-363.5 170,-363.5 170,-344.5 313,-344.5 313,-363.5"/>
<text text-anchor="middle" x="241.5" y="-351.5" font-family="Helvetica,sans-Serif" font-size="10.00">wmtk::simplex::open_star</text>
</a>
</g>
</g>
<!-- Node22&#45;&gt;Node24 -->
<g id="edge30_Node000022_Node000024" class="edge">
<title>Node22&#45;&gt;Node24</title>
<g id="a_edge30_Node000022_Node000024"><a xlink:title=" ">
<path fill="none" stroke="#63b8ff" d="M383.14,-360.18C360,-359.16 335.28,-358.08 313.12,-357.1"/>
<polygon fill="#63b8ff" stroke="#63b8ff" points="383.15,-363.69 393.3,-360.63 383.46,-356.69 383.15,-363.69"/>
</a>
</g>
</g>
<!-- Node25&#45;&gt;Node23 -->
<g id="edge32_Node000025_Node000023" class="edge">
<title>Node25&#45;&gt;Node23</title>
<g id="a_edge32_Node000025_Node000023"><a xlink:title=" ">
<path fill="none" stroke="#63b8ff" d="M396.71,-405.39C376.81,-404.95 355.01,-404.47 334.23,-404.02"/>
<polygon fill="#63b8ff" stroke="#63b8ff" points="396.86,-408.89 406.93,-405.61 397.01,-401.89 396.86,-408.89"/>
</a>
</g>
</g>
<!-- Node26&#45;&gt;Node20 -->
<g id="edge35_Node000026_Node000020" class="edge">
<title>Node26&#45;&gt;Node20</title>
<g id="a_edge35_Node000026_Node000020"><a xlink:title=" ">
<path fill="none" stroke="#63b8ff" d="M436.27,-599.09C375.4,-632.5 244.66,-691.08 149,-641 101.08,-615.91 73.24,-553.04 62.57,-524.06"/>
<polygon fill="#63b8ff" stroke="#63b8ff" points="438.06,-602.1 445.08,-594.16 434.64,-595.99 438.06,-602.1"/>
</a>
</g>
</g>
<!-- Node27 -->
<g id="Node000027" class="node">
<title>Node27</title>
<g id="a_Node000027"><a xlink:href="namespacewmtk_1_1simplex.html#a18647fe3e4b68cc5a6186aa5063fcd53" target="_top" xlink:title=" ">
<polygon fill="white" stroke="#666666" points="298,-631.5 185,-631.5 185,-612.5 298,-612.5 298,-631.5"/>
<text text-anchor="middle" x="241.5" y="-619.5" font-family="Helvetica,sans-Serif" font-size="10.00">wmtk::simplex::link</text>
</a>
</g>
</g>
<!-- Node26&#45;&gt;Node27 -->
<g id="edge34_Node000026_Node000027" class="edge">
<title>Node26&#45;&gt;Node27</title>
<g id="a_edge34_Node000026_Node000027"><a xlink:title=" ">
<path fill="none" stroke="#63b8ff" d="M397.06,-592.79C363.15,-599.2 323.65,-606.66 293.07,-612.44"/>
<polygon fill="#63b8ff" stroke="#63b8ff" points="397.75,-596.22 406.93,-590.92 396.45,-589.34 397.75,-596.22"/>
</a>
</g>
</g>
<!-- Node28 -->
<g id="Node000028" class="node">
<title>Node28</title>
<g id="a_Node000028"><a xlink:href="namespacewmtk_1_1simplex.html#a428755c0a4c93af10690b6828a3c79f5" target="_top" xlink:title=" ">
<polygon fill="white" stroke="#666666" points="316,-546 167,-546 167,-516 316,-516 316,-546"/>
<text text-anchor="start" x="175" y="-534" font-family="Helvetica,sans-Serif" font-size="10.00">wmtk::simplex::link</text>
<text text-anchor="middle" x="241.5" y="-523" font-family="Helvetica,sans-Serif" font-size="10.00">_condition_closed_tetmesh</text>
</a>
</g>
</g>
<!-- Node26&#45;&gt;Node28 -->
<g id="edge36_Node000026_Node000028" class="edge">
<title>Node26&#45;&gt;Node28</title>
<g id="a_edge36_Node000026_Node000028"><a xlink:title=" ">
<path fill="none" stroke="#63b8ff" d="M396.9,-563.58C370.26,-557.96 340.19,-551.61 313.71,-546.03"/>
<polygon fill="#63b8ff" stroke="#63b8ff" points="396.42,-567.05 406.93,-565.69 397.87,-560.2 396.42,-567.05"/>
</a>
</g>
</g>
<!-- Node29 -->
<g id="Node000029" class="node">
<title>Node29</title>
<g id="a_Node000029"><a xlink:href="namespacewmtk_1_1simplex.html#a9c219fd0b4f590bc836d41011761968b" target="_top" xlink:title=" ">
<polygon fill="white" stroke="#666666" points="298,-594 185,-594 185,-564 298,-564 298,-594"/>
<text text-anchor="start" x="193" y="-582" font-family="Helvetica,sans-Serif" font-size="10.00">wmtk::simplex::link</text>
<text text-anchor="middle" x="241.5" y="-571" font-family="Helvetica,sans-Serif" font-size="10.00">_single_dimension</text>
</a>
</g>
</g>
<!-- Node26&#45;&gt;Node29 -->
<g id="edge38_Node000026_Node000029" class="edge">
<title>Node26&#45;&gt;Node29</title>
<g id="a_edge38_Node000026_Node000029"><a xlink:title=" ">
<path fill="none" stroke="#63b8ff" d="M396.75,-579C364.82,-579 327.98,-579 298.32,-579"/>
<polygon fill="#63b8ff" stroke="#63b8ff" points="396.93,-582.5 406.93,-579 396.93,-575.5 396.93,-582.5"/>
</a>
</g>
</g>
<!-- Node28&#45;&gt;Node20 -->
<g id="edge37_Node000028_Node000020" class="edge">
<title>Node28&#45;&gt;Node20</title>
<g id="a_edge37_Node000028_Node000020"><a xlink:title=" ">
<path fill="none" stroke="#63b8ff" d="M156.72,-520.93C141.99,-519.16 126.99,-517.35 113.26,-515.7"/>
<polygon fill="#63b8ff" stroke="#63b8ff" points="156.51,-524.43 166.86,-522.15 157.35,-517.48 156.51,-524.43"/>
</a>
</g>
</g>
</g>
</svg>
