<?xml version="1.0" encoding="UTF-8" standalone="no"?>
<!DOCTYPE svg PUBLIC "-//W3C//DTD SVG 1.1//EN"
 "http://www.w3.org/Graphics/SVG/1.1/DTD/svg11.dtd">
<!-- Generated by graphviz version 2.43.0 (0)
 -->
<!-- Title: wmtk::utils::triangulate_polygon_face Pages: 1 -->
<svg width="509pt" height="116pt"
 viewBox="0.00 0.00 509.00 115.50" xmlns="http://www.w3.org/2000/svg" xmlns:xlink="http://www.w3.org/1999/xlink">
<g id="graph0" class="graph" transform="scale(1 1) rotate(0) translate(4 111.5)">
<title>wmtk::utils::triangulate_polygon_face</title>
<!-- Node1 -->
<g id="Node000001" class="node">
<title>Node1</title>
<g id="a_Node000001"><a xlink:title=" ">
<polygon fill="#999999" stroke="#666666" points="501,-57 370,-57 370,-27 501,-27 501,-57"/>
<text text-anchor="start" x="378" y="-45" font-family="Helvetica,sans-Serif" font-size="10.00">wmtk::utils::triangulate</text>
<text text-anchor="middle" x="435.5" y="-34" font-family="Helvetica,sans-Serif" font-size="10.00">_polygon_face</text>
</a>
</g>
</g>
<!-- Node1&#45;&gt;Node1 -->
<g id="edge6_Node000001_Node000001" class="edge">
<title>Node1&#45;&gt;Node1</title>
<g id="a_edge6_Node000001_Node000001"><a xlink:title=" ">
<path fill="none" stroke="#63b8ff" d="M465.61,-67.6C461.49,-71.97 451.46,-75 435.5,-75 408.62,-75 398.55,-66.41 405.27,-57.28"/>
<polygon fill="#63b8ff" stroke="#63b8ff" points="469.11,-67.32 465.73,-57.28 462.11,-67.23 469.11,-67.32"/>
</a>
</g>
</g>
<!-- Node2 -->
<g id="Node000002" class="node">
<title>Node2</title>
<g id="a_Node000002"><a xlink:href="namespacewmtk_1_1utils.html#a8d59b38c3560ad4f49865c212b854456" target="_top" xlink:title="input a triangle surface mesh, embed it into a regular grid and generate a tetmesh,...">
<polygon fill="white" stroke="#666666" points="334,-62.5 190,-62.5 190,-21.5 334,-21.5 334,-62.5"/>
<text text-anchor="start" x="198" y="-50.5" font-family="Helvetica,sans-Serif" font-size="10.00">wmtk::utils::generate</text>
<text text-anchor="start" x="198" y="-39.5" font-family="Helvetica,sans-Serif" font-size="10.00">_raw_tetmesh_from_input</text>
<text text-anchor="middle" x="262" y="-28.5" font-family="Helvetica,sans-Serif" font-size="10.00">_surface</text>
</a>
</g>
</g>
<!-- Node1&#45;&gt;Node2 -->
<g id="edge1_Node000001_Node000002" class="edge">
<title>Node1&#45;&gt;Node2</title>
<g id="a_edge1_Node000001_Node000002"><a xlink:title=" ">
<path fill="none" stroke="#63b8ff" d="M359.51,-42C351.12,-42 342.58,-42 334.24,-42"/>
<polygon fill="#63b8ff" stroke="#63b8ff" points="359.66,-45.5 369.66,-42 359.66,-38.5 359.66,-45.5"/>
</a>
</g>
</g>
<!-- Node2&#45;&gt;Node2 -->
<g id="edge2_Node000002_Node000002" class="edge">
<title>Node2&#45;&gt;Node2</title>
<g id="a_edge2_Node000002_Node000002"><a xlink:title=" ">
<path fill="none" stroke="#63b8ff" d="M291.59,-72.46C287.19,-77.24 277.33,-80.5 262,-80.5 237.48,-80.5 226.94,-72.15 230.39,-62.6"/>
<polygon fill="#63b8ff" stroke="#63b8ff" points="295.03,-73.1 293.61,-62.6 288.18,-71.69 295.03,-73.1"/>
</a>
</g>
</g>
<!-- Node3 -->
<g id="Node000003" class="node">
<title>Node3</title>
<g id="a_Node000003"><a xlink:href="namespacewmtk_1_1utils.html#a4ea0d7c148b4066c6692a8e31c7b7b7a" target="_top" xlink:title=" ">
<polygon fill="white" stroke="#666666" points="153.5,-89.5 0.5,-89.5 0.5,-48.5 153.5,-48.5 153.5,-89.5"/>
<text text-anchor="start" x="8.5" y="-77.5" font-family="Helvetica,sans-Serif" font-size="10.00">wmtk::utils::generate</text>
<text text-anchor="start" x="8.5" y="-66.5" font-family="Helvetica,sans-Serif" font-size="10.00">_raw_tetmesh_with_surface</text>
<text text-anchor="middle" x="77" y="-55.5" font-family="Helvetica,sans-Serif" font-size="10.00">_from_input</text>
</a>
</g>
</g>
<!-- Node2&#45;&gt;Node3 -->
<g id="edge3_Node000002_Node000003" class="edge">
<title>Node2&#45;&gt;Node3</title>
<g id="a_edge3_Node000002_Node000003"><a xlink:title=" ">
<path fill="none" stroke="#63b8ff" d="M180.09,-53.94C171.25,-55.24 162.28,-56.56 153.52,-57.86"/>
<polygon fill="#63b8ff" stroke="#63b8ff" points="180.6,-57.4 189.99,-52.48 179.58,-50.47 180.6,-57.4"/>
</a>
</g>
</g>
<!-- Node4 -->
<g id="Node000004" class="node">
<title>Node4</title>
<g id="a_Node000004"><a xlink:href="namespacewmtk_1_1components.html#a9d6d11e3b7ba03911492ecfc79622247" target="_top" xlink:title=" ">
<polygon fill="white" stroke="#666666" points="154,-30 0,-30 0,0 154,0 154,-30"/>
<text text-anchor="start" x="8" y="-18" font-family="Helvetica,sans-Serif" font-size="10.00">wmtk::components::triangle</text>
<text text-anchor="middle" x="77" y="-7" font-family="Helvetica,sans-Serif" font-size="10.00">_insertion</text>
</a>
</g>
</g>
<!-- Node2&#45;&gt;Node4 -->
<g id="edge5_Node000002_Node000004" class="edge">
<title>Node2&#45;&gt;Node4</title>
<g id="a_edge5_Node000002_Node000004"><a xlink:title=" ">
<path fill="none" stroke="#63b8ff" d="M179.97,-30.05C171.38,-28.78 162.66,-27.49 154.13,-26.23"/>
<polygon fill="#63b8ff" stroke="#63b8ff" points="179.58,-33.53 189.99,-31.52 180.6,-26.6 179.58,-33.53"/>
</a>
</g>
</g>
<!-- Node3&#45;&gt;Node3 -->
<g id="edge4_Node000003_Node000003" class="edge">
<title>Node3&#45;&gt;Node3</title>
<g id="a_edge4_Node000003_Node000003"><a xlink:title=" ">
<path fill="none" stroke="#63b8ff" d="M108.66,-99.46C103.95,-104.24 93.4,-107.5 77,-107.5 50.77,-107.5 39.49,-99.15 43.18,-89.6"/>
<polygon fill="#63b8ff" stroke="#63b8ff" points="112.1,-100.11 110.82,-89.6 105.26,-98.62 112.1,-100.11"/>
</a>
</g>
</g>
</g>
</svg>
