<?xml version="1.0" encoding="UTF-8" standalone="no"?>
<!DOCTYPE svg PUBLIC "-//W3C//DTD SVG 1.1//EN"
 "http://www.w3.org/Graphics/SVG/1.1/DTD/svg11.dtd">
<!-- Generated by graphviz version 2.43.0 (0)
 -->
<!-- Title: wmtk::simplex::link_single_dimension Pages: 1 -->
<!--zoomable 313 -->

<svg id="main" version="1.1" xmlns="http://www.w3.org/2000/svg" xmlns:xlink="http://www.w3.org/1999/xlink" xml:space="preserve" onload="init(evt)">
<style type="text/css"><![CDATA[
.node, .edge {opacity: 0.7;}
.node.selected, .edge.selected {opacity: 1;}
.edge:hover path { stroke: red; }
.edge:hover polygon { stroke: red; fill: red; }
]]></style>

<defs>
  <circle id="rim" cx="0" cy="0" r="7"/>
  <circle id="rim2" cx="0" cy="0" r="3.5"/>
  <g id="zoomPlus">
    <use xlink:href="#rim" fill="#404040"><set attributeName="fill" to="#808080" begin="zoomplus.mouseover" end="zoomplus.mouseout"/></use>
    <path d="M-4,0h8M0,-4v8" fill="none" stroke="white" stroke-width="1.5" pointer-events="none"/>
  </g>
  <g id="zoomMin">
    <use xlink:href="#rim" fill="#404040"><set attributeName="fill" to="#808080" begin="zoomminus.mouseover" end="zoomminus.mouseout"/></use>
    <path d="M-4,0h8" fill="none" stroke="white" stroke-width="1.5" pointer-events="none"/>
  </g>
  <g id="arrowUp" transform="translate(30 24)">
    <use xlink:href="#rim"/>
    <path pointer-events="none" fill="none" stroke="white" stroke-width="1.5" d="M0,-3.0v7 M-2.5,-0.5L0,-3.0L2.5,-0.5"/>
  </g>
  <g id="arrowRight" transform="rotate(90) translate(36 -43)">
    <use xlink:href="#rim"/>
    <path pointer-events="none" fill="none" stroke="white" stroke-width="1.5" d="M0,-3.0v7 M-2.5,-0.5L0,-3.0L2.5,-0.5"/>
  </g>
  <g id="arrowDown" transform="rotate(180) translate(-30 -48)">
    <use xlink:href="#rim"/>
    <path pointer-events="none" fill="none" stroke="white" stroke-width="1.5" d="M0,-3.0v7 M-2.5,-0.5L0,-3.0L2.5,-0.5"/>
  </g>
  <g id="arrowLeft" transform="rotate(270) translate(-36 17)">
    <use xlink:href="#rim"/>
    <path pointer-events="none" fill="none" stroke="white" stroke-width="1.5" d="M0,-3.0v7 M-2.5,-0.5L0,-3.0L2.5,-0.5"/>
  </g>
  <g id="resetDef">
    <use xlink:href="#rim2" fill="#404040"><set attributeName="fill" to="#808080" begin="reset.mouseover" end="reset.mouseout"/></use>
  </g>
</defs>
<script type="application/ecmascript">
var viewWidth = 839;
var viewHeight = 313;
var sectionId = 'dynsection-43';
</script>
<script type="application/ecmascript" xlink:href="svg.min.js"/>
<svg id="graph" class="graph">
<g id="viewport">
<title>wmtk::simplex::link_single_dimension</title>
<!-- Node1 -->
<g id="Node000001" class="node">
<title>Node1</title>
<g id="a_Node000001"><a xlink:title=" ">
<polygon fill="#999999" stroke="#666666" points="113,-171.21 0,-171.21 0,-141.21 113,-141.21 113,-171.21"/>
<text text-anchor="start" x="8" y="-159.21" font-family="Helvetica,sans-Serif" font-size="10.00">wmtk::simplex::link</text>
<text text-anchor="middle" x="56.5" y="-148.21" font-family="Helvetica,sans-Serif" font-size="10.00">_single_dimension</text>
</a>
</g>
</g>
<!-- Node2 -->
<g id="Node000002" class="node">
<title>Node2</title>
<g id="a_Node000002"><a xlink:href="classwmtk_1_1simplex_1_1_simplex.html#a753a9245716f207b57cd92fcab5936e7" target="_top" xlink:title=" ">
<polygon fill="white" stroke="#666666" points="308.5,-257.21 173.5,-257.21 173.5,-227.21 308.5,-227.21 308.5,-257.21"/>
<text text-anchor="start" x="181.5" y="-245.21" font-family="Helvetica,sans-Serif" font-size="10.00">wmtk::simplex::Simplex</text>
<text text-anchor="middle" x="241" y="-234.21" font-family="Helvetica,sans-Serif" font-size="10.00">::edge</text>
</a>
</g>
</g>
<!-- Node1&#45;&gt;Node2 -->
<g id="edge1_Node000001_Node000002" class="edge">
<title>Node1&#45;&gt;Node2</title>
<g id="a_edge1_Node000001_Node000002"><a xlink:title=" ">
<path fill="none" stroke="#63b8ff" d="M78.46,-171.38C96.48,-183.89 123.52,-201.43 149,-213.21 157.49,-217.13 166.66,-220.73 175.79,-223.97"/>
<polygon fill="#63b8ff" stroke="#63b8ff" points="174.67,-227.28 185.27,-227.2 176.93,-220.66 174.67,-227.28"/>
</a>
</g>
</g>
<!-- Node4 -->
<g id="Node000004" class="node">
<title>Node4</title>
<g id="a_Node000004"><a xlink:href="namespacewmtk.html#a441d6ad4f19569c7d4946e743da1a925" target="_top" xlink:title=" ">
<polygon fill="white" stroke="#666666" points="534,-188.21 412,-188.21 412,-158.21 534,-158.21 534,-188.21"/>
<text text-anchor="start" x="420" y="-176.21" font-family="Helvetica,sans-Serif" font-size="10.00">wmtk::log_and_throw</text>
<text text-anchor="middle" x="473" y="-165.21" font-family="Helvetica,sans-Serif" font-size="10.00">_error</text>
</a>
</g>
</g>
<!-- Node1&#45;&gt;Node4 -->
<g id="edge3_Node000001_Node000004" class="edge">
<title>Node1&#45;&gt;Node4</title>
<g id="a_edge3_Node000001_Node000004"><a xlink:title=" ">
<path fill="none" stroke="#63b8ff" d="M105.48,-171.26C119.38,-174.95 134.67,-178.36 149,-180.21 235.47,-191.36 336.01,-186.39 401.66,-180.76"/>
<polygon fill="#63b8ff" stroke="#63b8ff" points="402.23,-184.23 411.89,-179.86 401.62,-177.25 402.23,-184.23"/>
</a>
</g>
</g>
<!-- Node7 -->
<g id="Node000007" class="node">
<title>Node7</title>
<g id="a_Node000007"><a xlink:href="classwmtk_1_1simplex_1_1_simplex.html#ad2cc0340a0772b7d6f03ba7a781d1163" target="_top" xlink:title=" ">
<polygon fill="white" stroke="#666666" points="540.5,-32.21 405.5,-32.21 405.5,-2.21 540.5,-2.21 540.5,-32.21"/>
<text text-anchor="start" x="413.5" y="-20.21" font-family="Helvetica,sans-Serif" font-size="10.00">wmtk::simplex::Simplex</text>
<text text-anchor="middle" x="473" y="-9.21" font-family="Helvetica,sans-Serif" font-size="10.00">::primitive_type</text>
</a>
</g>
</g>
<!-- Node1&#45;&gt;Node7 -->
<g id="edge6_Node000001_Node000007" class="edge">
<title>Node1&#45;&gt;Node7</title>
<g id="a_edge6_Node000001_Node000007"><a xlink:title=" ">
<path fill="none" stroke="#63b8ff" d="M63.85,-141.06C75.94,-114.37 105.06,-59.59 149,-36.21 225.18,4.33 326.23,3.06 394.88,-4.44"/>
<polygon fill="#63b8ff" stroke="#63b8ff" points="394.85,-7.96 405.19,-5.64 395.66,-1.01 394.85,-7.96"/>
</a>
</g>
</g>
<!-- Node8 -->
<g id="Node000008" class="node">
<title>Node8</title>
<g id="a_Node000008"><a xlink:href="classwmtk_1_1simplex_1_1_simplex_collection.html#ab318c99d54327383ff1b985bed043f3a" target="_top" xlink:title="Sort simplex vector and remove duplicates.">
<polygon fill="white" stroke="#666666" points="333,-171.21 149,-171.21 149,-141.21 333,-141.21 333,-171.21"/>
<text text-anchor="start" x="157" y="-159.21" font-family="Helvetica,sans-Serif" font-size="10.00">wmtk::simplex::SimplexCollection</text>
<text text-anchor="middle" x="241" y="-148.21" font-family="Helvetica,sans-Serif" font-size="10.00">::sort_and_clean</text>
</a>
</g>
</g>
<!-- Node1&#45;&gt;Node8 -->
<g id="edge7_Node000001_Node000008" class="edge">
<title>Node1&#45;&gt;Node8</title>
<g id="a_edge7_Node000001_Node000008"><a xlink:title=" ">
<path fill="none" stroke="#63b8ff" d="M113.25,-156.21C121.38,-156.21 129.97,-156.21 138.67,-156.21"/>
<polygon fill="#63b8ff" stroke="#63b8ff" points="138.93,-159.71 148.93,-156.21 138.93,-152.71 138.93,-159.71"/>
</a>
</g>
</g>
<!-- Node9 -->
<g id="Node000009" class="node">
<title>Node9</title>
<g id="a_Node000009"><a xlink:href="classwmtk_1_1_mesh_c_r_t_p.html#ab3cb3dac6bbba12336c6e24e6e8a5450" target="_top" xlink:title="Performs a sequence of switch_tuple operations in the order specified in op_sequence.">
<polygon fill="white" stroke="#666666" points="310.5,-123.21 171.5,-123.21 171.5,-93.21 310.5,-93.21 310.5,-123.21"/>
<text text-anchor="start" x="179.5" y="-111.21" font-family="Helvetica,sans-Serif" font-size="10.00">wmtk::MeshCRTP::switch</text>
<text text-anchor="middle" x="241" y="-100.21" font-family="Helvetica,sans-Serif" font-size="10.00">_tuples</text>
</a>
</g>
</g>
<!-- Node1&#45;&gt;Node9 -->
<g id="edge8_Node000001_Node000009" class="edge">
<title>Node1&#45;&gt;Node9</title>
<g id="a_edge8_Node000001_Node000009"><a xlink:title=" ">
<path fill="none" stroke="#63b8ff" d="M113.25,-141.55C132.08,-136.59 153.3,-131.01 172.92,-125.85"/>
<polygon fill="#63b8ff" stroke="#63b8ff" points="173.92,-129.21 182.7,-123.28 172.14,-122.44 173.92,-129.21"/>
</a>
</g>
</g>
<!-- Node10 -->
<g id="Node000010" class="node">
<title>Node10</title>
<g id="a_Node000010"><a xlink:href="namespacewmtk_1_1simplex.html#a0101f27eb2ad82814390b92ab1a4d1a0" target="_top" xlink:title=" ">
<polygon fill="white" stroke="#666666" points="316.5,-75.21 165.5,-75.21 165.5,-45.21 316.5,-45.21 316.5,-75.21"/>
<text text-anchor="start" x="173.5" y="-63.21" font-family="Helvetica,sans-Serif" font-size="10.00">wmtk::simplex::top</text>
<text text-anchor="middle" x="241" y="-52.21" font-family="Helvetica,sans-Serif" font-size="10.00">_dimension_cofaces_tuples</text>
</a>
</g>
</g>
<!-- Node1&#45;&gt;Node10 -->
<g id="edge9_Node000001_Node000010" class="edge">
<title>Node1&#45;&gt;Node10</title>
<g id="a_edge9_Node000001_Node000010"><a xlink:title=" ">
<path fill="none" stroke="#63b8ff" d="M72.65,-141.02C89.77,-124.69 119.15,-99.08 149,-84.21 152.97,-82.23 157.13,-80.4 161.38,-78.71"/>
<polygon fill="#63b8ff" stroke="#63b8ff" points="162.65,-81.97 170.82,-75.23 160.23,-75.41 162.65,-81.97"/>
</a>
</g>
</g>
<!-- Node12 -->
<g id="Node000012" class="node">
<title>Node12</title>
<g id="a_Node000012"><a xlink:href="classwmtk_1_1simplex_1_1_simplex.html#a7de67a391b9f48b57f4ecb4c412ccaee" target="_top" xlink:title=" ">
<polygon fill="white" stroke="#666666" points="308.5,-305.21 173.5,-305.21 173.5,-275.21 308.5,-275.21 308.5,-305.21"/>
<text text-anchor="start" x="181.5" y="-293.21" font-family="Helvetica,sans-Serif" font-size="10.00">wmtk::simplex::Simplex</text>
<text text-anchor="middle" x="241" y="-282.21" font-family="Helvetica,sans-Serif" font-size="10.00">::vertex</text>
</a>
</g>
</g>
<!-- Node1&#45;&gt;Node12 -->
<g id="edge13_Node000001_Node000012" class="edge">
<title>Node1&#45;&gt;Node12</title>
<g id="a_edge13_Node000001_Node000012"><a xlink:title=" ">
<path fill="none" stroke="#63b8ff" d="M66,-171.59C80.05,-195.56 110.46,-241.64 149,-266.21 153.65,-269.17 158.66,-271.77 163.84,-274.05"/>
<polygon fill="#63b8ff" stroke="#63b8ff" points="162.75,-277.38 173.34,-277.82 165.33,-270.88 162.75,-277.38"/>
</a>
</g>
</g>
<!-- Node3 -->
<g id="Node000003" class="node">
<title>Node3</title>
<g id="a_Node000003"><a xlink:href="classwmtk_1_1simplex_1_1_simplex.html#ab6d51ca0c220792c1c09824d152bb53a" target="_top" xlink:title=" ">
<polygon fill="white" stroke="#666666" points="540.5,-281.21 405.5,-281.21 405.5,-251.21 540.5,-251.21 540.5,-281.21"/>
<text text-anchor="start" x="413.5" y="-269.21" font-family="Helvetica,sans-Serif" font-size="10.00">wmtk::simplex::Simplex</text>
<text text-anchor="middle" x="473" y="-258.21" font-family="Helvetica,sans-Serif" font-size="10.00">::Simplex</text>
</a>
</g>
</g>
<!-- Node2&#45;&gt;Node3 -->
<g id="edge2_Node000002_Node000003" class="edge">
<title>Node2&#45;&gt;Node3</title>
<g id="a_edge2_Node000002_Node000003"><a xlink:title=" ">
<path fill="none" stroke="#63b8ff" d="M308.53,-249.15C335.58,-251.97 367.03,-255.25 395.06,-258.18"/>
<polygon fill="#63b8ff" stroke="#63b8ff" points="394.92,-261.68 405.23,-259.24 395.64,-254.72 394.92,-261.68"/>
</a>
</g>
</g>
<!-- Node5 -->
<g id="Node000005" class="node">
<title>Node5</title>
<g id="a_Node000005"><a xlink:href="namespacewmtk.html#a6a35f11c12436093d26fdd8be6fecc06" target="_top" xlink:title="Retrieves the current logger.">
<polygon fill="white" stroke="#666666" points="694,-182.71 613,-182.71 613,-163.71 694,-163.71 694,-182.71"/>
<text text-anchor="middle" x="653.5" y="-170.71" font-family="Helvetica,sans-Serif" font-size="10.00">wmtk::logger</text>
</a>
</g>
</g>
<!-- Node4&#45;&gt;Node5 -->
<g id="edge4_Node000004_Node000005" class="edge">
<title>Node4&#45;&gt;Node5</title>
<g id="a_edge4_Node000004_Node000005"><a xlink:title=" ">
<path fill="none" stroke="#63b8ff" d="M534.43,-173.21C556.68,-173.21 581.61,-173.21 602.81,-173.21"/>
<polygon fill="#63b8ff" stroke="#63b8ff" points="602.89,-176.71 612.89,-173.21 602.89,-169.71 602.89,-176.71"/>
</a>
</g>
</g>
<!-- Node6 -->
<g id="Node000006" class="node">
<title>Node6</title>
<g id="a_Node000006"><a xlink:href="namespacewmtk.html#a3daa7951a5f8b78cf4600dc047fcc180" target="_top" xlink:title="Setup a logger object to be used by WildmeshToolkit.">
<polygon fill="white" stroke="#666666" points="831,-182.71 730,-182.71 730,-163.71 831,-163.71 831,-182.71"/>
<text text-anchor="middle" x="780.5" y="-170.71" font-family="Helvetica,sans-Serif" font-size="10.00">wmtk::set_logger</text>
</a>
</g>
</g>
<!-- Node5&#45;&gt;Node6 -->
<g id="edge5_Node000005_Node000006" class="edge">
<title>Node5&#45;&gt;Node6</title>
<g id="a_edge5_Node000005_Node000006"><a xlink:title=" ">
<path fill="none" stroke="#63b8ff" d="M694.05,-173.21C702.17,-173.21 710.9,-173.21 719.55,-173.21"/>
<polygon fill="#63b8ff" stroke="#63b8ff" points="719.65,-176.71 729.65,-173.21 719.65,-169.71 719.65,-176.71"/>
</a>
</g>
</g>
<!-- Node10&#45;&gt;Node4 -->
<g id="edge11_Node000010_Node000004" class="edge">
<title>Node10&#45;&gt;Node4</title>
<g id="a_edge11_Node000010_Node000004"><a xlink:title=" ">
<path fill="none" stroke="#63b8ff" d="M308.93,-75.29C317.17,-77.89 325.37,-80.86 333,-84.21 374.43,-102.4 417.64,-132.01 444.67,-152.03"/>
<polygon fill="#63b8ff" stroke="#63b8ff" points="442.75,-154.97 452.85,-158.17 446.95,-149.37 442.75,-154.97"/>
</a>
</g>
</g>
<!-- Node10&#45;&gt;Node7 -->
<g id="edge12_Node000010_Node000007" class="edge">
<title>Node10&#45;&gt;Node7</title>
<g id="a_edge12_Node000010_Node000007"><a xlink:title=" ">
<path fill="none" stroke="#63b8ff" d="M316.67,-46.25C341.92,-41.53 370.13,-36.25 395.51,-31.51"/>
<polygon fill="#63b8ff" stroke="#63b8ff" points="396.27,-34.93 405.46,-29.65 394.98,-28.05 396.27,-34.93"/>
</a>
</g>
</g>
<!-- Node11 -->
<g id="Node000011" class="node">
<title>Node11</title>
<g id="a_Node000011"><a xlink:href="classwmtk_1_1simplex_1_1_simplex_collection.html#a1e7079b3b75f70dd28c524556cab76cf" target="_top" xlink:title="Add simplex to the collection.">
<polygon fill="white" stroke="#666666" points="577,-69.71 369,-69.71 369,-50.71 577,-50.71 577,-69.71"/>
<text text-anchor="middle" x="473" y="-57.71" font-family="Helvetica,sans-Serif" font-size="10.00">wmtk::simplex::SimplexCollection::add</text>
</a>
</g>
</g>
<!-- Node10&#45;&gt;Node11 -->
<g id="edge10_Node000010_Node000011" class="edge">
<title>Node10&#45;&gt;Node11</title>
<g id="a_edge10_Node000010_Node000011"><a xlink:title=" ">
<path fill="none" stroke="#63b8ff" d="M316.67,-60.21C330.08,-60.21 344.32,-60.21 358.53,-60.21"/>
<polygon fill="#63b8ff" stroke="#63b8ff" points="358.86,-63.71 368.86,-60.21 358.86,-56.71 358.86,-63.71"/>
</a>
</g>
</g>
<!-- Node12&#45;&gt;Node3 -->
<g id="edge14_Node000012_Node000003" class="edge">
<title>Node12&#45;&gt;Node3</title>
<g id="a_edge14_Node000012_Node000003"><a xlink:title=" ">
<path fill="none" stroke="#63b8ff" d="M308.53,-283.27C335.58,-280.44 367.03,-277.16 395.06,-274.24"/>
<polygon fill="#63b8ff" stroke="#63b8ff" points="395.64,-277.7 405.23,-273.18 394.92,-270.73 395.64,-277.7"/>
</a>
</g>
</g>
</g>
</svg>

<g id="navigator" transform="translate(0 0)" fill="#404254">
  <rect fill="#f2f5e9" fill-opacity="0.5" stroke="#606060" stroke-width=".5" x="0" y="0" width="60" height="60"/>
  <use id="zoomplus" xlink:href="#zoomPlus" x="17" y="9" onmousedown="handleZoom(evt,'in')"/>
  <use id="zoomminus" xlink:href="#zoomMin" x="42" y="9" onmousedown="handleZoom(evt,'out')"/>
  <use id="reset" xlink:href="#resetDef" x="30" y="36" onmousedown="handleReset()"/>
   <use id="arrowup" xlink:href="#arrowUp" x="0" y="0" onmousedown="handlePan(0,-1)"/>
  <use id="arrowright" xlink:href="#arrowRight" x="0" y="0" onmousedown="handlePan(1,0)"/>
  <use id="arrowdown" xlink:href="#arrowDown" x="0" y="0" onmousedown="handlePan(0,1)"/>
  <use id="arrowleft" xlink:href="#arrowLeft" x="0" y="0" onmousedown="handlePan(-1,0)"/>
</g>
<svg viewBox="0 0 15 15" width="100%" height="30px" preserveAspectRatio="xMaxYMin meet">
 <g id="arrow_out" transform="scale(0.3 0.3)">
  <a xlink:href="namespacewmtk_1_1simplex_acbee6808a498fd9280738a12e051c2c0_cgraph_org.svg" target="_base">
   <rect id="button" ry="5" rx="5" y="6" x="6" height="38" width="38"
        fill="#f2f5e9" fill-opacity="0.5" stroke="#606060" stroke-width="1.0"/>
   <path id="arrow"
     d="M 11.500037,31.436501 C 11.940474,20.09759 22.043105,11.32322 32.158766,21.979434 L 37.068811,17.246167 C 37.068811,17.246167 37.088388,32 37.088388,32 L 22.160133,31.978069 C 22.160133,31.978069 26.997745,27.140456 26.997745,27.140456 C 18.528582,18.264221 13.291696,25.230495 11.500037,31.436501 z"
     style="fill:#404040;"/>
  </a>
 </g>
</svg>

<style type='text/css'>
<![CDATA[
[data-mouse-over-selected='false'] { opacity: 0.7; }
[data-mouse-over-selected='true']  { opacity: 1.0; }
]]>
</style>
<script type="application/ecmascript"><![CDATA[
document.addEventListener('DOMContentLoaded', (event) => {
  highlightEdges();
  highlightAdjacentNodes();
});
]]></script>
</svg>
