<?xml version="1.0" encoding="UTF-8" standalone="no"?>
<!DOCTYPE svg PUBLIC "-//W3C//DTD SVG 1.1//EN"
 "http://www.w3.org/Graphics/SVG/1.1/DTD/svg11.dtd">
<!-- Generated by graphviz version 2.43.0 (0)
 -->
<!-- Title: wmtk::function::utils::Tet_AMIPS_energy Pages: 1 -->
<svg width="531pt" height="597pt"
 viewBox="0.00 0.00 531.00 596.50" xmlns="http://www.w3.org/2000/svg" xmlns:xlink="http://www.w3.org/1999/xlink">
<g id="graph0" class="graph" transform="scale(1 1) rotate(0) translate(4 592.5)">
<title>wmtk::function::utils::Tet_AMIPS_energy</title>
<!-- Node1 -->
<g id="Node000001" class="node">
<title>Node1</title>
<g id="a_Node000001"><a xlink:title=" ">
<polygon fill="#999999" stroke="#666666" points="523,-301.5 406,-301.5 406,-271.5 523,-271.5 523,-301.5"/>
<text text-anchor="start" x="414" y="-289.5" font-family="Helvetica,sans-Serif" font-size="10.00">wmtk::function::utils</text>
<text text-anchor="middle" x="464.5" y="-278.5" font-family="Helvetica,sans-Serif" font-size="10.00">::Tet_AMIPS_energy</text>
</a>
</g>
</g>
<!-- Node2 -->
<g id="Node000002" class="node">
<title>Node2</title>
<g id="a_Node000002"><a xlink:href="classwmtk_1_1invariants_1_1_collapse_energy_before_invariant.html#aaf60c03541b2a73aebe4ebad561f2535" target="_top" xlink:title=" ">
<polygon fill="white" stroke="#666666" points="362.5,-588.5 198.5,-588.5 198.5,-558.5 362.5,-558.5 362.5,-588.5"/>
<text text-anchor="start" x="206.5" y="-576.5" font-family="Helvetica,sans-Serif" font-size="10.00">wmtk::invariants::Collapse</text>
<text text-anchor="middle" x="280.5" y="-565.5" font-family="Helvetica,sans-Serif" font-size="10.00">EnergyBeforeInvariant::before</text>
</a>
</g>
</g>
<!-- Node1&#45;&gt;Node2 -->
<g id="edge1_Node000001_Node000002" class="edge">
<title>Node1&#45;&gt;Node2</title>
<g id="a_edge1_Node000001_Node000002"><a xlink:title=" ">
<path fill="none" stroke="#63b8ff" d="M462.05,-311.64C457.65,-363.87 440.04,-484.64 370,-549.5 366.26,-552.96 362.08,-555.93 357.61,-558.48"/>
<polygon fill="#63b8ff" stroke="#63b8ff" points="465.55,-311.82 462.8,-301.58 458.57,-311.29 465.55,-311.82"/>
</a>
</g>
</g>
<!-- Node3 -->
<g id="Node000003" class="node">
<title>Node3</title>
<g id="a_Node000003"><a xlink:href="classwmtk_1_1invariants_1_1_collapse_energy_before_invariant_double.html#aedec3d60165b7fe7541a9caa18f6c131" target="_top" xlink:title=" ">
<polygon fill="white" stroke="#666666" points="361,-540 200,-540 200,-499 361,-499 361,-540"/>
<text text-anchor="start" x="208" y="-528" font-family="Helvetica,sans-Serif" font-size="10.00">wmtk::invariants::Collapse</text>
<text text-anchor="start" x="208" y="-517" font-family="Helvetica,sans-Serif" font-size="10.00">EnergyBeforeInvariantDouble</text>
<text text-anchor="middle" x="280.5" y="-506" font-family="Helvetica,sans-Serif" font-size="10.00">::before</text>
</a>
</g>
</g>
<!-- Node1&#45;&gt;Node3 -->
<g id="edge2_Node000001_Node000003" class="edge">
<title>Node1&#45;&gt;Node3</title>
<g id="a_edge2_Node000001_Node000003"><a xlink:title=" ">
<path fill="none" stroke="#63b8ff" d="M458.86,-311.35C449.59,-354.08 424.79,-441.58 370,-490.5 366.5,-493.62 362.66,-496.41 358.6,-498.9"/>
<polygon fill="#63b8ff" stroke="#63b8ff" points="462.29,-312 460.89,-301.5 455.44,-310.59 462.29,-312"/>
</a>
</g>
</g>
<!-- Node4 -->
<g id="Node000004" class="node">
<title>Node4</title>
<g id="a_Node000004"><a xlink:href="classwmtk_1_1invariants_1_1_collapse_soft_energy_before_invariant.html#aab8e4687323543f65ee7a38e93b9e32d" target="_top" xlink:title=" ">
<polygon fill="white" stroke="#666666" points="354,-481 207,-481 207,-440 354,-440 354,-481"/>
<text text-anchor="start" x="215" y="-469" font-family="Helvetica,sans-Serif" font-size="10.00">wmtk::invariants::Collapse</text>
<text text-anchor="start" x="215" y="-458" font-family="Helvetica,sans-Serif" font-size="10.00">SoftEnergyBeforeInvariant</text>
<text text-anchor="middle" x="280.5" y="-447" font-family="Helvetica,sans-Serif" font-size="10.00">::before</text>
</a>
</g>
</g>
<!-- Node1&#45;&gt;Node4 -->
<g id="edge3_Node000001_Node000004" class="edge">
<title>Node1&#45;&gt;Node4</title>
<g id="a_edge3_Node000001_Node000004"><a xlink:title=" ">
<path fill="none" stroke="#63b8ff" d="M453.72,-310.98C439.77,-342.91 411.19,-398.47 370,-430.5 365.13,-434.28 359.76,-437.61 354.14,-440.52"/>
<polygon fill="#63b8ff" stroke="#63b8ff" points="457.06,-312.08 457.74,-301.5 450.61,-309.35 457.06,-312.08"/>
</a>
</g>
</g>
<!-- Node5 -->
<g id="Node000005" class="node">
<title>Node5</title>
<g id="a_Node000005"><a xlink:href="classwmtk_1_1_swap23_energy_before_invariant.html#ab44b90bbea65c45e354fc3e72ecf0b29" target="_top" xlink:title=" ">
<polygon fill="white" stroke="#666666" points="358,-421.5 203,-421.5 203,-391.5 358,-391.5 358,-421.5"/>
<text text-anchor="start" x="211" y="-409.5" font-family="Helvetica,sans-Serif" font-size="10.00">wmtk::Swap23EnergyBefore</text>
<text text-anchor="middle" x="280.5" y="-398.5" font-family="Helvetica,sans-Serif" font-size="10.00">Invariant::before</text>
</a>
</g>
</g>
<!-- Node1&#45;&gt;Node5 -->
<g id="edge4_Node000001_Node000005" class="edge">
<title>Node1&#45;&gt;Node5</title>
<g id="a_edge4_Node000001_Node000005"><a xlink:title=" ">
<path fill="none" stroke="#63b8ff" d="M446.82,-309.73C429.88,-331.65 401.69,-363.86 370,-382.5 364.24,-385.89 357.98,-388.81 351.55,-391.33"/>
<polygon fill="#63b8ff" stroke="#63b8ff" points="449.73,-311.69 452.95,-301.6 444.14,-307.48 449.73,-311.69"/>
</a>
</g>
</g>
<!-- Node6 -->
<g id="Node000006" class="node">
<title>Node6</title>
<g id="a_Node000006"><a xlink:href="classwmtk_1_1_swap32_energy_before_invariant.html#ab57dde58cf0edb77bb38a8ba31a68108" target="_top" xlink:title=" ">
<polygon fill="white" stroke="#666666" points="358,-373.5 203,-373.5 203,-343.5 358,-343.5 358,-373.5"/>
<text text-anchor="start" x="211" y="-361.5" font-family="Helvetica,sans-Serif" font-size="10.00">wmtk::Swap32EnergyBefore</text>
<text text-anchor="middle" x="280.5" y="-350.5" font-family="Helvetica,sans-Serif" font-size="10.00">Invariant::before</text>
</a>
</g>
</g>
<!-- Node1&#45;&gt;Node6 -->
<g id="edge5_Node000001_Node000006" class="edge">
<title>Node1&#45;&gt;Node6</title>
<g id="a_edge5_Node000001_Node000006"><a xlink:title=" ">
<path fill="none" stroke="#63b8ff" d="M428.47,-306.7C411.25,-316.05 389.96,-326.77 370,-334.5 361.54,-337.78 352.46,-340.79 343.45,-343.48"/>
<polygon fill="#63b8ff" stroke="#63b8ff" points="430.52,-309.57 437.58,-301.67 427.13,-303.44 430.52,-309.57"/>
</a>
</g>
</g>
<!-- Node7 -->
<g id="Node000007" class="node">
<title>Node7</title>
<g id="a_Node000007"><a xlink:href="classwmtk_1_1_swap32_energy_before_invariant_double.html#a55e8fe16823411da398db8d0e7902fd4" target="_top" xlink:title=" ">
<polygon fill="white" stroke="#666666" points="358,-325.5 203,-325.5 203,-295.5 358,-295.5 358,-325.5"/>
<text text-anchor="start" x="211" y="-313.5" font-family="Helvetica,sans-Serif" font-size="10.00">wmtk::Swap32EnergyBefore</text>
<text text-anchor="middle" x="280.5" y="-302.5" font-family="Helvetica,sans-Serif" font-size="10.00">InvariantDouble::before</text>
</a>
</g>
</g>
<!-- Node1&#45;&gt;Node7 -->
<g id="edge6_Node000001_Node000007" class="edge">
<title>Node1&#45;&gt;Node7</title>
<g id="a_edge6_Node000001_Node000007"><a xlink:title=" ">
<path fill="none" stroke="#63b8ff" d="M395.75,-295.43C383.45,-297.06 370.55,-298.76 358.03,-300.41"/>
<polygon fill="#63b8ff" stroke="#63b8ff" points="396.46,-298.87 405.91,-294.09 395.54,-291.93 396.46,-298.87"/>
</a>
</g>
</g>
<!-- Node8 -->
<g id="Node000008" class="node">
<title>Node8</title>
<g id="a_Node000008"><a xlink:href="classwmtk_1_1_swap44_energy_before_invariant.html#ad084e9675c0844f9229f4a9f452a9f4a" target="_top" xlink:title=" ">
<polygon fill="white" stroke="#666666" points="358,-277.5 203,-277.5 203,-247.5 358,-247.5 358,-277.5"/>
<text text-anchor="start" x="211" y="-265.5" font-family="Helvetica,sans-Serif" font-size="10.00">wmtk::Swap44EnergyBefore</text>
<text text-anchor="middle" x="280.5" y="-254.5" font-family="Helvetica,sans-Serif" font-size="10.00">Invariant::before</text>
</a>
</g>
</g>
<!-- Node1&#45;&gt;Node8 -->
<g id="edge7_Node000001_Node000008" class="edge">
<title>Node1&#45;&gt;Node8</title>
<g id="a_edge7_Node000001_Node000008"><a xlink:title=" ">
<path fill="none" stroke="#63b8ff" d="M395.75,-277.57C383.45,-275.94 370.55,-274.24 358.03,-272.59"/>
<polygon fill="#63b8ff" stroke="#63b8ff" points="395.54,-281.07 405.91,-278.91 396.46,-274.13 395.54,-281.07"/>
</a>
</g>
</g>
<!-- Node9 -->
<g id="Node000009" class="node">
<title>Node9</title>
<g id="a_Node000009"><a xlink:href="classwmtk_1_1_swap44_energy_before_invariant_double.html#a14e29c5ddd8dca1f088cb7765a068096" target="_top" xlink:title=" ">
<polygon fill="white" stroke="#666666" points="358,-229.5 203,-229.5 203,-199.5 358,-199.5 358,-229.5"/>
<text text-anchor="start" x="211" y="-217.5" font-family="Helvetica,sans-Serif" font-size="10.00">wmtk::Swap44EnergyBefore</text>
<text text-anchor="middle" x="280.5" y="-206.5" font-family="Helvetica,sans-Serif" font-size="10.00">InvariantDouble::before</text>
</a>
</g>
</g>
<!-- Node1&#45;&gt;Node9 -->
<g id="edge8_Node000001_Node000009" class="edge">
<title>Node1&#45;&gt;Node9</title>
<g id="a_edge8_Node000001_Node000009"><a xlink:title=" ">
<path fill="none" stroke="#63b8ff" d="M428.47,-266.3C411.25,-256.95 389.96,-246.23 370,-238.5 361.54,-235.22 352.46,-232.21 343.45,-229.52"/>
<polygon fill="#63b8ff" stroke="#63b8ff" points="427.13,-269.56 437.58,-271.33 430.52,-263.43 427.13,-269.56"/>
</a>
</g>
</g>
<!-- Node10 -->
<g id="Node000010" class="node">
<title>Node10</title>
<g id="a_Node000010"><a xlink:href="classwmtk_1_1_swap56_energy_before_invariant.html#a904628eeefa17ffc85adcf81413f823a" target="_top" xlink:title=" ">
<polygon fill="white" stroke="#666666" points="358,-181.5 203,-181.5 203,-151.5 358,-151.5 358,-181.5"/>
<text text-anchor="start" x="211" y="-169.5" font-family="Helvetica,sans-Serif" font-size="10.00">wmtk::Swap56EnergyBefore</text>
<text text-anchor="middle" x="280.5" y="-158.5" font-family="Helvetica,sans-Serif" font-size="10.00">Invariant::before</text>
</a>
</g>
</g>
<!-- Node1&#45;&gt;Node10 -->
<g id="edge9_Node000001_Node000010" class="edge">
<title>Node1&#45;&gt;Node10</title>
<g id="a_edge9_Node000001_Node000010"><a xlink:title=" ">
<path fill="none" stroke="#63b8ff" d="M446.82,-263.27C429.88,-241.35 401.69,-209.14 370,-190.5 364.24,-187.11 357.98,-184.19 351.55,-181.67"/>
<polygon fill="#63b8ff" stroke="#63b8ff" points="444.14,-265.52 452.95,-271.4 449.73,-261.31 444.14,-265.52"/>
</a>
</g>
</g>
<!-- Node11 -->
<g id="Node000011" class="node">
<title>Node11</title>
<g id="a_Node000011"><a xlink:href="classwmtk_1_1_swap56_energy_before_invariant_double.html#a853497f492784f29f3e0e9566d8d4137" target="_top" xlink:title=" ">
<polygon fill="white" stroke="#666666" points="358,-133.5 203,-133.5 203,-103.5 358,-103.5 358,-133.5"/>
<text text-anchor="start" x="211" y="-121.5" font-family="Helvetica,sans-Serif" font-size="10.00">wmtk::Swap56EnergyBefore</text>
<text text-anchor="middle" x="280.5" y="-110.5" font-family="Helvetica,sans-Serif" font-size="10.00">InvariantDouble::before</text>
</a>
</g>
</g>
<!-- Node1&#45;&gt;Node11 -->
<g id="edge10_Node000001_Node000011" class="edge">
<title>Node1&#45;&gt;Node11</title>
<g id="a_edge10_Node000001_Node000011"><a xlink:title=" ">
<path fill="none" stroke="#63b8ff" d="M454.01,-261.63C440.39,-229.27 412.17,-173.24 370,-142.5 365.24,-139.03 360.01,-136.06 354.54,-133.52"/>
<polygon fill="#63b8ff" stroke="#63b8ff" points="450.92,-263.3 457.93,-271.25 457.4,-260.66 450.92,-263.3"/>
</a>
</g>
</g>
<!-- Node12 -->
<g id="Node000012" class="node">
<title>Node12</title>
<g id="a_Node000012"><a xlink:href="namespacewmtk_1_1components_1_1internal.html#a8890d5e5bb5f11779d4e40e07882253a" target="_top" xlink:title=" ">
<polygon fill="white" stroke="#666666" points="357.5,-67.5 203.5,-67.5 203.5,-37.5 357.5,-37.5 357.5,-67.5"/>
<text text-anchor="start" x="211.5" y="-55.5" font-family="Helvetica,sans-Serif" font-size="10.00">wmtk::components::internal</text>
<text text-anchor="middle" x="280.5" y="-44.5" font-family="Helvetica,sans-Serif" font-size="10.00">::periodic_optimization</text>
</a>
</g>
</g>
<!-- Node1&#45;&gt;Node12 -->
<g id="edge11_Node000001_Node000012" class="edge">
<title>Node1&#45;&gt;Node12</title>
<g id="a_edge11_Node000001_Node000012"><a xlink:title=" ">
<path fill="none" stroke="#63b8ff" d="M457.16,-261.5C445.86,-221.51 418.74,-142.75 370,-94.5 358.28,-82.89 342.73,-74.05 327.94,-67.55"/>
<polygon fill="#63b8ff" stroke="#63b8ff" points="453.8,-262.52 459.81,-271.25 460.56,-260.68 453.8,-262.52"/>
</a>
</g>
</g>
<!-- Node14 -->
<g id="Node000014" class="node">
<title>Node14</title>
<g id="a_Node000014"><a xlink:href="namespacewmtk_1_1components.html#ac6ca52668bd22e164d4baf59ec533864" target="_top" xlink:title=" ">
<polygon fill="white" stroke="#666666" points="370,-19 191,-19 191,0 370,0 370,-19"/>
<text text-anchor="middle" x="280.5" y="-7" font-family="Helvetica,sans-Serif" font-size="10.00">wmtk::components::wildmeshing</text>
</a>
</g>
</g>
<!-- Node1&#45;&gt;Node14 -->
<g id="edge14_Node000001_Node000014" class="edge">
<title>Node1&#45;&gt;Node14</title>
<g id="a_edge14_Node000001_Node000014"><a xlink:title=" ">
<path fill="none" stroke="#63b8ff" d="M462.13,-261.16C457.89,-209.14 440.56,-90.05 370,-28.5 365.62,-24.68 360.65,-21.56 355.37,-19.03"/>
<polygon fill="#63b8ff" stroke="#63b8ff" points="458.64,-261.47 462.85,-271.19 465.63,-260.97 458.64,-261.47"/>
</a>
</g>
</g>
<!-- Node12&#45;&gt;Node12 -->
<g id="edge13_Node000012_Node000012" class="edge">
<title>Node12&#45;&gt;Node12</title>
<g id="a_edge13_Node000012_Node000012"><a xlink:title=" ">
<path fill="none" stroke="#63b8ff" d="M312.71,-78.1C308.31,-82.47 297.57,-85.5 280.5,-85.5 251.75,-85.5 240.97,-76.91 248.16,-67.78"/>
<polygon fill="#63b8ff" stroke="#63b8ff" points="316.21,-77.82 312.84,-67.78 309.21,-77.73 316.21,-77.82"/>
</a>
</g>
</g>
<!-- Node13 -->
<g id="Node000013" class="node">
<title>Node13</title>
<g id="a_Node000013"><a xlink:href="namespacewmtk_1_1components.html#a4166e4880553cfacbf79ac3515a637cd" target="_top" xlink:title=" ">
<polygon fill="white" stroke="#666666" points="155,-67.5 0,-67.5 0,-37.5 155,-37.5 155,-67.5"/>
<text text-anchor="start" x="8" y="-55.5" font-family="Helvetica,sans-Serif" font-size="10.00">wmtk::components::periodic</text>
<text text-anchor="middle" x="77.5" y="-44.5" font-family="Helvetica,sans-Serif" font-size="10.00">_optimization</text>
</a>
</g>
</g>
<!-- Node12&#45;&gt;Node13 -->
<g id="edge12_Node000012_Node000013" class="edge">
<title>Node12&#45;&gt;Node13</title>
<g id="a_edge12_Node000012_Node000013"><a xlink:title=" ">
<path fill="none" stroke="#63b8ff" d="M193.15,-52.5C180.48,-52.5 167.51,-52.5 155.06,-52.5"/>
<polygon fill="#63b8ff" stroke="#63b8ff" points="193.22,-56 203.22,-52.5 193.22,-49 193.22,-56"/>
</a>
</g>
</g>
</g>
</svg>
