<?xml version="1.0" encoding="UTF-8" standalone="no"?>
<!DOCTYPE svg PUBLIC "-//W3C//DTD SVG 1.1//EN"
 "http://www.w3.org/Graphics/SVG/1.1/DTD/svg11.dtd">
<!-- Generated by graphviz version 2.43.0 (0)
 -->
<!-- Title: wmtk::multimesh::utils::find_local_switch_sequence_to_face Pages: 1 -->
<svg width="534pt" height="134pt"
 viewBox="0.00 0.00 534.00 134.00" xmlns="http://www.w3.org/2000/svg" xmlns:xlink="http://www.w3.org/1999/xlink">
<g id="graph0" class="graph" transform="scale(1 1) rotate(0) translate(4 130)">
<title>wmtk::multimesh::utils::find_local_switch_sequence_to_face</title>
<!-- Node1 -->
<g id="Node000001" class="node">
<title>Node1</title>
<g id="a_Node000001"><a xlink:title=" ">
<polygon fill="#999999" stroke="#666666" points="158,-83.5 0,-83.5 0,-42.5 158,-42.5 158,-83.5"/>
<text text-anchor="start" x="8" y="-71.5" font-family="Helvetica,sans-Serif" font-size="10.00">wmtk::multimesh::utils</text>
<text text-anchor="start" x="8" y="-60.5" font-family="Helvetica,sans-Serif" font-size="10.00">::find_local_switch_sequence</text>
<text text-anchor="middle" x="79" y="-49.5" font-family="Helvetica,sans-Serif" font-size="10.00">_to_face</text>
</a>
</g>
</g>
<!-- Node1&#45;&gt;Node1 -->
<g id="edge1_Node000001_Node000001" class="edge">
<title>Node1&#45;&gt;Node1</title>
<g id="a_edge1_Node000001_Node000001"><a xlink:title=" ">
<path fill="none" stroke="#63b8ff" d="M44.45,-83.6C40.68,-93.15 52.2,-101.5 79,-101.5 95.75,-101.5 106.53,-98.24 111.34,-93.46"/>
<polygon fill="#63b8ff" stroke="#63b8ff" points="114.78,-94.12 113.55,-83.6 107.95,-92.59 114.78,-94.12"/>
</a>
</g>
</g>
<!-- Node2 -->
<g id="Node000002" class="node">
<title>Node2</title>
<g id="a_Node000002"><a xlink:href="classwmtk_1_1utils_1_1_tuple_inspector.html#a06c9484e81c98d630da2f238fb608c30" target="_top" xlink:title=" ">
<polygon fill="white" stroke="#666666" points="342,-78 194,-78 194,-48 342,-48 342,-78"/>
<text text-anchor="start" x="202" y="-66" font-family="Helvetica,sans-Serif" font-size="10.00">wmtk::utils::TupleInspector</text>
<text text-anchor="middle" x="268" y="-55" font-family="Helvetica,sans-Serif" font-size="10.00">::local_id</text>
</a>
</g>
</g>
<!-- Node1&#45;&gt;Node2 -->
<g id="edge2_Node000001_Node000002" class="edge">
<title>Node1&#45;&gt;Node2</title>
<g id="a_edge2_Node000001_Node000002"><a xlink:title=" ">
<path fill="none" stroke="#63b8ff" d="M158.22,-63C166.62,-63 175.18,-63 183.64,-63"/>
<polygon fill="#63b8ff" stroke="#63b8ff" points="183.87,-66.5 193.87,-63 183.87,-59.5 183.87,-66.5"/>
</a>
</g>
</g>
<!-- Node3 -->
<g id="Node000003" class="node">
<title>Node3</title>
<g id="a_Node000003"><a xlink:href="classwmtk_1_1utils_1_1_tuple_inspector.html#a3a04acf16e0eff80ade8e0fb8753ac1b" target="_top" xlink:title=" ">
<polygon fill="white" stroke="#666666" points="526,-126 378,-126 378,-96 526,-96 526,-126"/>
<text text-anchor="start" x="386" y="-114" font-family="Helvetica,sans-Serif" font-size="10.00">wmtk::utils::TupleInspector</text>
<text text-anchor="middle" x="452" y="-103" font-family="Helvetica,sans-Serif" font-size="10.00">::local_eid</text>
</a>
</g>
</g>
<!-- Node2&#45;&gt;Node3 -->
<g id="edge3_Node000002_Node000003" class="edge">
<title>Node2&#45;&gt;Node3</title>
<g id="a_edge3_Node000002_Node000003"><a xlink:title=" ">
<path fill="none" stroke="#63b8ff" d="M326.09,-78.06C344.55,-82.93 365.19,-88.37 384.29,-93.41"/>
<polygon fill="#63b8ff" stroke="#63b8ff" points="383.55,-96.83 394.12,-96 385.34,-90.06 383.55,-96.83"/>
</a>
</g>
</g>
<!-- Node4 -->
<g id="Node000004" class="node">
<title>Node4</title>
<g id="a_Node000004"><a xlink:href="classwmtk_1_1utils_1_1_tuple_inspector.html#ae4f5c770f4a2f9440eef24448929432d" target="_top" xlink:title=" ">
<polygon fill="white" stroke="#666666" points="526,-78 378,-78 378,-48 526,-48 526,-78"/>
<text text-anchor="start" x="386" y="-66" font-family="Helvetica,sans-Serif" font-size="10.00">wmtk::utils::TupleInspector</text>
<text text-anchor="middle" x="452" y="-55" font-family="Helvetica,sans-Serif" font-size="10.00">::local_fid</text>
</a>
</g>
</g>
<!-- Node2&#45;&gt;Node4 -->
<g id="edge4_Node000002_Node000004" class="edge">
<title>Node2&#45;&gt;Node4</title>
<g id="a_edge4_Node000002_Node000004"><a xlink:title=" ">
<path fill="none" stroke="#63b8ff" d="M342.24,-63C350.6,-63 359.16,-63 367.64,-63"/>
<polygon fill="#63b8ff" stroke="#63b8ff" points="367.91,-66.5 377.91,-63 367.91,-59.5 367.91,-66.5"/>
</a>
</g>
</g>
<!-- Node5 -->
<g id="Node000005" class="node">
<title>Node5</title>
<g id="a_Node000005"><a xlink:href="classwmtk_1_1utils_1_1_tuple_inspector.html#a92f5faa08a7f78424f5cd1ec79dcedbb" target="_top" xlink:title=" ">
<polygon fill="white" stroke="#666666" points="526,-30 378,-30 378,0 526,0 526,-30"/>
<text text-anchor="start" x="386" y="-18" font-family="Helvetica,sans-Serif" font-size="10.00">wmtk::utils::TupleInspector</text>
<text text-anchor="middle" x="452" y="-7" font-family="Helvetica,sans-Serif" font-size="10.00">::local_vid</text>
</a>
</g>
</g>
<!-- Node2&#45;&gt;Node5 -->
<g id="edge5_Node000002_Node000005" class="edge">
<title>Node2&#45;&gt;Node5</title>
<g id="a_edge5_Node000002_Node000005"><a xlink:title=" ">
<path fill="none" stroke="#63b8ff" d="M326.09,-47.94C344.55,-43.07 365.19,-37.63 384.29,-32.59"/>
<polygon fill="#63b8ff" stroke="#63b8ff" points="385.34,-35.94 394.12,-30 383.55,-29.17 385.34,-35.94"/>
</a>
</g>
</g>
</g>
</svg>
