<?xml version="1.0" encoding="UTF-8" standalone="no"?>
<!DOCTYPE svg PUBLIC "-//W3C//DTD SVG 1.1//EN"
 "http://www.w3.org/Graphics/SVG/1.1/DTD/svg11.dtd">
<!-- Generated by graphviz version 2.43.0 (0)
 -->
<!-- Title: wmtk::multimesh::utils::tuples_to_vectors Pages: 1 -->
<svg width="654pt" height="182pt"
 viewBox="0.00 0.00 654.00 182.00" xmlns="http://www.w3.org/2000/svg" xmlns:xlink="http://www.w3.org/1999/xlink">
<g id="graph0" class="graph" transform="scale(1 1) rotate(0) translate(4 178)">
<title>wmtk::multimesh::utils::tuples_to_vectors</title>
<!-- Node1 -->
<g id="Node000001" class="node">
<title>Node1</title>
<g id="a_Node000001"><a xlink:title=" ">
<polygon fill="#999999" stroke="#666666" points="130,-126 0,-126 0,-96 130,-96 130,-126"/>
<text text-anchor="start" x="8" y="-114" font-family="Helvetica,sans-Serif" font-size="10.00">wmtk::multimesh::utils</text>
<text text-anchor="middle" x="65" y="-103" font-family="Helvetica,sans-Serif" font-size="10.00">::tuples_to_vectors</text>
</a>
</g>
</g>
<!-- Node2 -->
<g id="Node000002" class="node">
<title>Node2</title>
<g id="a_Node000002"><a xlink:href="namespacewmtk_1_1multimesh_1_1utils.html#a1e2e083555fd22678fcf96094992aaae" target="_top" xlink:title=" ">
<polygon fill="white" stroke="#666666" points="296,-126 166,-126 166,-96 296,-96 296,-126"/>
<text text-anchor="start" x="174" y="-114" font-family="Helvetica,sans-Serif" font-size="10.00">wmtk::multimesh::utils</text>
<text text-anchor="middle" x="231" y="-103" font-family="Helvetica,sans-Serif" font-size="10.00">::tuple_to_vector</text>
</a>
</g>
</g>
<!-- Node1&#45;&gt;Node2 -->
<g id="edge1_Node000001_Node000002" class="edge">
<title>Node1&#45;&gt;Node2</title>
<g id="a_edge1_Node000001_Node000002"><a xlink:title=" ">
<path fill="none" stroke="#63b8ff" d="M130.35,-111C138.64,-111 147.19,-111 155.62,-111"/>
<polygon fill="#63b8ff" stroke="#63b8ff" points="155.84,-114.5 165.84,-111 155.84,-107.5 155.84,-114.5"/>
</a>
</g>
</g>
<!-- Node3 -->
<g id="Node000003" class="node">
<title>Node3</title>
<g id="a_Node000003"><a xlink:href="namespacewmtk_1_1multimesh_1_1utils.html#a52159668bac1efd84c74e1d2fd90444b" target="_top" xlink:title=" ">
<polygon fill="white" stroke="#666666" points="462,-150 332,-150 332,-120 462,-120 462,-150"/>
<text text-anchor="start" x="340" y="-138" font-family="Helvetica,sans-Serif" font-size="10.00">wmtk::multimesh::utils</text>
<text text-anchor="middle" x="397" y="-127" font-family="Helvetica,sans-Serif" font-size="10.00">::tuple_to_vector2</text>
</a>
</g>
</g>
<!-- Node2&#45;&gt;Node3 -->
<g id="edge2_Node000002_Node000003" class="edge">
<title>Node2&#45;&gt;Node3</title>
<g id="a_edge2_Node000002_Node000003"><a xlink:title=" ">
<path fill="none" stroke="#63b8ff" d="M296.35,-120.42C304.73,-121.64 313.37,-122.91 321.9,-124.16"/>
<polygon fill="#63b8ff" stroke="#63b8ff" points="321.44,-127.63 331.84,-125.61 322.45,-120.7 321.44,-127.63"/>
</a>
</g>
</g>
<!-- Node4 -->
<g id="Node000004" class="node">
<title>Node4</title>
<g id="a_Node000004"><a xlink:href="namespacewmtk_1_1multimesh_1_1utils.html#a549e2fe8d4c13dbff21cc5ee09334678" target="_top" xlink:title=" ">
<polygon fill="white" stroke="#666666" points="462,-102 332,-102 332,-72 462,-72 462,-102"/>
<text text-anchor="start" x="340" y="-90" font-family="Helvetica,sans-Serif" font-size="10.00">wmtk::multimesh::utils</text>
<text text-anchor="middle" x="397" y="-79" font-family="Helvetica,sans-Serif" font-size="10.00">::tuple_to_vector5</text>
</a>
</g>
</g>
<!-- Node2&#45;&gt;Node4 -->
<g id="edge3_Node000002_Node000004" class="edge">
<title>Node2&#45;&gt;Node4</title>
<g id="a_edge3_Node000002_Node000004"><a xlink:title=" ">
<path fill="none" stroke="#63b8ff" d="M296.35,-101.58C304.73,-100.36 313.37,-99.09 321.9,-97.84"/>
<polygon fill="#63b8ff" stroke="#63b8ff" points="322.45,-101.3 331.84,-96.39 321.44,-94.37 322.45,-101.3"/>
</a>
</g>
</g>
<!-- Node5 -->
<g id="Node000005" class="node">
<title>Node5</title>
<g id="a_Node000005"><a xlink:href="classwmtk_1_1utils_1_1_tuple_inspector.html#a5a92c6323c9678ae3785e395bc84d4a9" target="_top" xlink:title=" ">
<polygon fill="white" stroke="#666666" points="646,-174 498,-174 498,-144 646,-144 646,-174"/>
<text text-anchor="start" x="506" y="-162" font-family="Helvetica,sans-Serif" font-size="10.00">wmtk::utils::TupleInspector</text>
<text text-anchor="middle" x="572" y="-151" font-family="Helvetica,sans-Serif" font-size="10.00">::global_cid</text>
</a>
</g>
</g>
<!-- Node4&#45;&gt;Node5 -->
<g id="edge4_Node000004_Node000005" class="edge">
<title>Node4&#45;&gt;Node5</title>
<g id="a_edge4_Node000004_Node000005"><a xlink:title=" ">
<path fill="none" stroke="#63b8ff" d="M442.3,-102.09C449.01,-104.81 455.77,-107.81 462,-111 479.11,-119.77 480.71,-126.59 498,-135 501.78,-136.84 505.73,-138.59 509.76,-140.24"/>
<polygon fill="#63b8ff" stroke="#63b8ff" points="508.66,-143.57 519.25,-143.93 511.2,-137.05 508.66,-143.57"/>
</a>
</g>
</g>
<!-- Node6 -->
<g id="Node000006" class="node">
<title>Node6</title>
<g id="a_Node000006"><a xlink:href="classwmtk_1_1utils_1_1_tuple_inspector.html#a3a04acf16e0eff80ade8e0fb8753ac1b" target="_top" xlink:title=" ">
<polygon fill="white" stroke="#666666" points="646,-126 498,-126 498,-96 646,-96 646,-126"/>
<text text-anchor="start" x="506" y="-114" font-family="Helvetica,sans-Serif" font-size="10.00">wmtk::utils::TupleInspector</text>
<text text-anchor="middle" x="572" y="-103" font-family="Helvetica,sans-Serif" font-size="10.00">::local_eid</text>
</a>
</g>
</g>
<!-- Node4&#45;&gt;Node6 -->
<g id="edge5_Node000004_Node000006" class="edge">
<title>Node4&#45;&gt;Node6</title>
<g id="a_edge5_Node000004_Node000006"><a xlink:title=" ">
<path fill="none" stroke="#63b8ff" d="M462.42,-95.94C470.7,-97.09 479.28,-98.28 487.81,-99.46"/>
<polygon fill="#63b8ff" stroke="#63b8ff" points="487.4,-102.94 497.79,-100.84 488.36,-96 487.4,-102.94"/>
</a>
</g>
</g>
<!-- Node7 -->
<g id="Node000007" class="node">
<title>Node7</title>
<g id="a_Node000007"><a xlink:href="classwmtk_1_1utils_1_1_tuple_inspector.html#ae4f5c770f4a2f9440eef24448929432d" target="_top" xlink:title=" ">
<polygon fill="white" stroke="#666666" points="646,-78 498,-78 498,-48 646,-48 646,-78"/>
<text text-anchor="start" x="506" y="-66" font-family="Helvetica,sans-Serif" font-size="10.00">wmtk::utils::TupleInspector</text>
<text text-anchor="middle" x="572" y="-55" font-family="Helvetica,sans-Serif" font-size="10.00">::local_fid</text>
</a>
</g>
</g>
<!-- Node4&#45;&gt;Node7 -->
<g id="edge6_Node000004_Node000007" class="edge">
<title>Node4&#45;&gt;Node7</title>
<g id="a_edge6_Node000004_Node000007"><a xlink:title=" ">
<path fill="none" stroke="#63b8ff" d="M462.42,-78.06C470.7,-76.91 479.28,-75.72 487.81,-74.54"/>
<polygon fill="#63b8ff" stroke="#63b8ff" points="488.36,-78 497.79,-73.16 487.4,-71.06 488.36,-78"/>
</a>
</g>
</g>
<!-- Node8 -->
<g id="Node000008" class="node">
<title>Node8</title>
<g id="a_Node000008"><a xlink:href="classwmtk_1_1utils_1_1_tuple_inspector.html#a92f5faa08a7f78424f5cd1ec79dcedbb" target="_top" xlink:title=" ">
<polygon fill="white" stroke="#666666" points="646,-30 498,-30 498,0 646,0 646,-30"/>
<text text-anchor="start" x="506" y="-18" font-family="Helvetica,sans-Serif" font-size="10.00">wmtk::utils::TupleInspector</text>
<text text-anchor="middle" x="572" y="-7" font-family="Helvetica,sans-Serif" font-size="10.00">::local_vid</text>
</a>
</g>
</g>
<!-- Node4&#45;&gt;Node8 -->
<g id="edge7_Node000004_Node000008" class="edge">
<title>Node4&#45;&gt;Node8</title>
<g id="a_edge7_Node000004_Node000008"><a xlink:title=" ">
<path fill="none" stroke="#63b8ff" d="M426.87,-71.91C446.61,-61.9 473.52,-48.85 498,-39 502.75,-37.09 507.72,-35.21 512.73,-33.4"/>
<polygon fill="#63b8ff" stroke="#63b8ff" points="514.11,-36.62 522.38,-30 511.79,-30.02 514.11,-36.62"/>
</a>
</g>
</g>
</g>
</svg>
