<?xml version="1.0" encoding="UTF-8" standalone="no"?>
<!DOCTYPE svg PUBLIC "-//W3C//DTD SVG 1.1//EN"
 "http://www.w3.org/Graphics/SVG/1.1/DTD/svg11.dtd">
<!-- Generated by graphviz version 2.43.0 (0)
 -->
<!-- Title: wmtk::multimesh::utils::write_tuple_map_attribute Pages: 1 -->
<!--zoomable 612 -->

<svg id="main" version="1.1" xmlns="http://www.w3.org/2000/svg" xmlns:xlink="http://www.w3.org/1999/xlink" xml:space="preserve" onload="init(evt)">
<style type="text/css"><![CDATA[
.node, .edge {opacity: 0.7;}
.node.selected, .edge.selected {opacity: 1;}
.edge:hover path { stroke: red; }
.edge:hover polygon { stroke: red; fill: red; }
]]></style>

<defs>
  <circle id="rim" cx="0" cy="0" r="7"/>
  <circle id="rim2" cx="0" cy="0" r="3.5"/>
  <g id="zoomPlus">
    <use xlink:href="#rim" fill="#404040"><set attributeName="fill" to="#808080" begin="zoomplus.mouseover" end="zoomplus.mouseout"/></use>
    <path d="M-4,0h8M0,-4v8" fill="none" stroke="white" stroke-width="1.5" pointer-events="none"/>
  </g>
  <g id="zoomMin">
    <use xlink:href="#rim" fill="#404040"><set attributeName="fill" to="#808080" begin="zoomminus.mouseover" end="zoomminus.mouseout"/></use>
    <path d="M-4,0h8" fill="none" stroke="white" stroke-width="1.5" pointer-events="none"/>
  </g>
  <g id="arrowUp" transform="translate(30 24)">
    <use xlink:href="#rim"/>
    <path pointer-events="none" fill="none" stroke="white" stroke-width="1.5" d="M0,-3.0v7 M-2.5,-0.5L0,-3.0L2.5,-0.5"/>
  </g>
  <g id="arrowRight" transform="rotate(90) translate(36 -43)">
    <use xlink:href="#rim"/>
    <path pointer-events="none" fill="none" stroke="white" stroke-width="1.5" d="M0,-3.0v7 M-2.5,-0.5L0,-3.0L2.5,-0.5"/>
  </g>
  <g id="arrowDown" transform="rotate(180) translate(-30 -48)">
    <use xlink:href="#rim"/>
    <path pointer-events="none" fill="none" stroke="white" stroke-width="1.5" d="M0,-3.0v7 M-2.5,-0.5L0,-3.0L2.5,-0.5"/>
  </g>
  <g id="arrowLeft" transform="rotate(270) translate(-36 17)">
    <use xlink:href="#rim"/>
    <path pointer-events="none" fill="none" stroke="white" stroke-width="1.5" d="M0,-3.0v7 M-2.5,-0.5L0,-3.0L2.5,-0.5"/>
  </g>
  <g id="resetDef">
    <use xlink:href="#rim2" fill="#404040"><set attributeName="fill" to="#808080" begin="reset.mouseover" end="reset.mouseout"/></use>
  </g>
</defs>
<script type="application/ecmascript">
var viewWidth = 1677;
var viewHeight = 612;
var sectionId = 'dynsection-41';
</script>
<script type="application/ecmascript" xlink:href="svg.min.js"/>
<svg id="graph" class="graph">
<g id="viewport">
<title>wmtk::multimesh::utils::write_tuple_map_attribute</title>
<!-- Node1 -->
<g id="Node000001" class="node">
<title>Node1</title>
<g id="a_Node000001"><a xlink:title=" ">
<polygon fill="#999999" stroke="#666666" points="1669,-235.5 1517,-235.5 1517,-205.5 1669,-205.5 1669,-235.5"/>
<text text-anchor="start" x="1525" y="-223.5" font-family="Helvetica,sans-Serif" font-size="10.00">wmtk::multimesh::utils</text>
<text text-anchor="middle" x="1593" y="-212.5" font-family="Helvetica,sans-Serif" font-size="10.00">::write_tuple_map_attribute</text>
</a>
</g>
</g>
<!-- Node2 -->
<g id="Node000002" class="node">
<title>Node2</title>
<g id="a_Node000002"><a xlink:href="namespacewmtk_1_1multimesh_1_1utils.html#ab19d57f46b80f20b1b4685ed83e305d5" target="_top" xlink:title=" ">
<polygon fill="white" stroke="#666666" points="1459,-268 1324,-268 1324,-227 1459,-227 1459,-268"/>
<text text-anchor="start" x="1332" y="-256" font-family="Helvetica,sans-Serif" font-size="10.00">wmtk::multimesh::utils</text>
<text text-anchor="start" x="1332" y="-245" font-family="Helvetica,sans-Serif" font-size="10.00">::symmetric_write_tuple</text>
<text text-anchor="middle" x="1391.5" y="-234" font-family="Helvetica,sans-Serif" font-size="10.00">_map_attributes</text>
</a>
</g>
</g>
<!-- Node1&#45;&gt;Node2 -->
<g id="edge1_Node000001_Node000002" class="edge">
<title>Node1&#45;&gt;Node2</title>
<g id="a_edge1_Node000001_Node000002"><a xlink:title=" ">
<path fill="none" stroke="#63b8ff" d="M1506.52,-232.07C1490.64,-234.22 1474.26,-236.43 1459.05,-238.49"/>
<polygon fill="#63b8ff" stroke="#63b8ff" points="1507.42,-235.48 1516.86,-230.67 1506.48,-228.54 1507.42,-235.48"/>
</a>
</g>
</g>
<!-- Node37 -->
<g id="Node000037" class="node">
<title>Node37</title>
<g id="a_Node000037"><a xlink:href="namespacewmtk_1_1multimesh_1_1utils.html#ab96c92511f3311e2c2aa44286a401c5c" target="_top" xlink:title=" ">
<polygon fill="white" stroke="#666666" points="1481,-208.5 1302,-208.5 1302,-178.5 1481,-178.5 1481,-208.5"/>
<text text-anchor="start" x="1310" y="-196.5" font-family="Helvetica,sans-Serif" font-size="10.00">wmtk::multimesh::utils</text>
<text text-anchor="middle" x="1391.5" y="-185.5" font-family="Helvetica,sans-Serif" font-size="10.00">::write_tuple_map_attribute_slow</text>
</a>
</g>
</g>
<!-- Node1&#45;&gt;Node37 -->
<g id="edge43_Node000001_Node000037" class="edge">
<title>Node1&#45;&gt;Node37</title>
<g id="a_edge43_Node000001_Node000037"><a xlink:title=" ">
<path fill="none" stroke="#63b8ff" d="M1506.7,-208.96C1498.3,-207.82 1489.76,-206.66 1481.33,-205.52"/>
<polygon fill="#63b8ff" stroke="#63b8ff" points="1506.48,-212.46 1516.86,-210.33 1507.42,-205.52 1506.48,-212.46"/>
</a>
</g>
</g>
<!-- Node3 -->
<g id="Node000003" class="node">
<title>Node3</title>
<g id="a_Node000003"><a xlink:href="classwmtk_1_1operations_1_1utils_1_1_update_edge_operation_multi_mesh_map_functor.html#a9b36575024b847b2c0367ced7f1c5caa" target="_top" xlink:title=" ">
<polygon fill="white" stroke="#666666" points="1256,-531 1075,-531 1075,-490 1256,-490 1256,-531"/>
<text text-anchor="start" x="1083" y="-519" font-family="Helvetica,sans-Serif" font-size="10.00">wmtk::operations::utils</text>
<text text-anchor="start" x="1083" y="-508" font-family="Helvetica,sans-Serif" font-size="10.00">::UpdateEdgeOperationMultiMesh</text>
<text text-anchor="middle" x="1165.5" y="-497" font-family="Helvetica,sans-Serif" font-size="10.00">MapFunctor::operator()</text>
</a>
</g>
</g>
<!-- Node2&#45;&gt;Node3 -->
<g id="edge2_Node000002_Node000003" class="edge">
<title>Node2&#45;&gt;Node3</title>
<g id="a_edge2_Node000002_Node000003"><a xlink:title=" ">
<path fill="none" stroke="#63b8ff" d="M1382.62,-278.1C1368.14,-328.17 1332.5,-427.43 1266,-481.5 1262.23,-484.57 1258.15,-487.31 1253.86,-489.76"/>
<polygon fill="#63b8ff" stroke="#63b8ff" points="1386.07,-278.77 1385.39,-268.2 1379.33,-276.89 1386.07,-278.77"/>
</a>
</g>
</g>
<!-- Node4 -->
<g id="Node000004" class="node">
<title>Node4</title>
<g id="a_Node000004"><a xlink:href="classwmtk_1_1operations_1_1utils_1_1_update_edge_operation_multi_mesh_map_functor.html#a8784cdae3cf7a6f1ad6b5c361dd8fc03" target="_top" xlink:title=" ">
<polygon fill="white" stroke="#666666" points="1256,-472 1075,-472 1075,-431 1256,-431 1256,-472"/>
<text text-anchor="start" x="1083" y="-460" font-family="Helvetica,sans-Serif" font-size="10.00">wmtk::operations::utils</text>
<text text-anchor="start" x="1083" y="-449" font-family="Helvetica,sans-Serif" font-size="10.00">::UpdateEdgeOperationMultiMesh</text>
<text text-anchor="middle" x="1165.5" y="-438" font-family="Helvetica,sans-Serif" font-size="10.00">MapFunctor::operator()</text>
</a>
</g>
</g>
<!-- Node2&#45;&gt;Node4 -->
<g id="edge3_Node000002_Node000004" class="edge">
<title>Node2&#45;&gt;Node4</title>
<g id="a_edge3_Node000002_Node000004"><a xlink:title=" ">
<path fill="none" stroke="#63b8ff" d="M1377.02,-277.51C1357.9,-316.68 1319.23,-384.66 1266,-422.5 1261.6,-425.63 1256.87,-428.42 1251.93,-430.91"/>
<polygon fill="#63b8ff" stroke="#63b8ff" points="1380.31,-278.75 1381.45,-268.21 1373.99,-275.73 1380.31,-278.75"/>
</a>
</g>
</g>
<!-- Node5 -->
<g id="Node000005" class="node">
<title>Node5</title>
<g id="a_Node000005"><a xlink:href="classwmtk_1_1operations_1_1utils_1_1_update_edge_operation_multi_mesh_map_functor.html#a756bab482d580d864f71439794990aac" target="_top" xlink:title=" ">
<polygon fill="white" stroke="#666666" points="1256,-413 1075,-413 1075,-372 1256,-372 1256,-413"/>
<text text-anchor="start" x="1083" y="-401" font-family="Helvetica,sans-Serif" font-size="10.00">wmtk::operations::utils</text>
<text text-anchor="start" x="1083" y="-390" font-family="Helvetica,sans-Serif" font-size="10.00">::UpdateEdgeOperationMultiMesh</text>
<text text-anchor="middle" x="1165.5" y="-379" font-family="Helvetica,sans-Serif" font-size="10.00">MapFunctor::operator()</text>
</a>
</g>
</g>
<!-- Node2&#45;&gt;Node5 -->
<g id="edge4_Node000002_Node000005" class="edge">
<title>Node2&#45;&gt;Node5</title>
<g id="a_edge4_Node000002_Node000005"><a xlink:title=" ">
<path fill="none" stroke="#63b8ff" d="M1367.04,-275.95C1343.91,-302.25 1306.27,-340.61 1266,-363.5 1260.52,-366.61 1254.69,-369.41 1248.69,-371.94"/>
<polygon fill="#63b8ff" stroke="#63b8ff" points="1369.84,-278.06 1373.74,-268.21 1364.55,-273.48 1369.84,-278.06"/>
</a>
</g>
</g>
<!-- Node6 -->
<g id="Node000006" class="node">
<title>Node6</title>
<g id="a_Node000006"><a xlink:href="classwmtk_1_1operations_1_1utils_1_1_update_edge_operation_multi_mesh_map_functor.html#aac119196791985369035cec5059809fd" target="_top" xlink:title=" ">
<polygon fill="white" stroke="#666666" points="1256,-354 1075,-354 1075,-313 1256,-313 1256,-354"/>
<text text-anchor="start" x="1083" y="-342" font-family="Helvetica,sans-Serif" font-size="10.00">wmtk::operations::utils</text>
<text text-anchor="start" x="1083" y="-331" font-family="Helvetica,sans-Serif" font-size="10.00">::UpdateEdgeOperationMultiMesh</text>
<text text-anchor="middle" x="1165.5" y="-320" font-family="Helvetica,sans-Serif" font-size="10.00">MapFunctor::operator()</text>
</a>
</g>
</g>
<!-- Node2&#45;&gt;Node6 -->
<g id="edge5_Node000002_Node000006" class="edge">
<title>Node2&#45;&gt;Node6</title>
<g id="a_edge5_Node000002_Node000006"><a xlink:title=" ">
<path fill="none" stroke="#63b8ff" d="M1340.32,-272.5C1317.9,-283.14 1290.95,-295.21 1266,-304.5 1258.07,-307.45 1249.71,-310.3 1241.32,-312.97"/>
<polygon fill="#63b8ff" stroke="#63b8ff" points="1342.13,-275.51 1349.64,-268.04 1339.11,-269.2 1342.13,-275.51"/>
</a>
</g>
</g>
<!-- Node7 -->
<g id="Node000007" class="node">
<title>Node7</title>
<g id="a_Node000007"><a xlink:href="classwmtk_1_1operations_1_1utils_1_1_update_edge_operation_multi_mesh_map_functor.html#a6f288597493f5914cf6d75e7a8674e70" target="_top" xlink:title=" ">
<polygon fill="white" stroke="#666666" points="1256,-295 1075,-295 1075,-254 1256,-254 1256,-295"/>
<text text-anchor="start" x="1083" y="-283" font-family="Helvetica,sans-Serif" font-size="10.00">wmtk::operations::utils</text>
<text text-anchor="start" x="1083" y="-272" font-family="Helvetica,sans-Serif" font-size="10.00">::UpdateEdgeOperationMultiMesh</text>
<text text-anchor="middle" x="1165.5" y="-261" font-family="Helvetica,sans-Serif" font-size="10.00">MapFunctor::operator()</text>
</a>
</g>
</g>
<!-- Node2&#45;&gt;Node7 -->
<g id="edge6_Node000002_Node000007" class="edge">
<title>Node2&#45;&gt;Node7</title>
<g id="a_edge6_Node000002_Node000007"><a xlink:title=" ">
<path fill="none" stroke="#63b8ff" d="M1313.75,-256.75C1295.18,-258.99 1275.17,-261.4 1256.07,-263.7"/>
<polygon fill="#63b8ff" stroke="#63b8ff" points="1314.39,-260.2 1323.9,-255.53 1313.55,-253.25 1314.39,-260.2"/>
</a>
</g>
</g>
<!-- Node8 -->
<g id="Node000008" class="node">
<title>Node8</title>
<g id="a_Node000008"><a xlink:href="classwmtk_1_1multimesh_1_1_multi_mesh_manager.html#af1df24920145a685e467ff2bc082e056" target="_top" xlink:title="register a another mesh as a child of this mesh.">
<polygon fill="white" stroke="#666666" points="1247.5,-235.5 1083.5,-235.5 1083.5,-205.5 1247.5,-205.5 1247.5,-235.5"/>
<text text-anchor="start" x="1091.5" y="-223.5" font-family="Helvetica,sans-Serif" font-size="10.00">wmtk::multimesh::MultiMesh</text>
<text text-anchor="middle" x="1165.5" y="-212.5" font-family="Helvetica,sans-Serif" font-size="10.00">Manager::register_child_mesh</text>
</a>
</g>
</g>
<!-- Node2&#45;&gt;Node8 -->
<g id="edge7_Node000002_Node000008" class="edge">
<title>Node2&#45;&gt;Node8</title>
<g id="a_edge7_Node000002_Node000008"><a xlink:title=" ">
<path fill="none" stroke="#63b8ff" d="M1313.89,-238.27C1292.48,-235.69 1269.15,-232.87 1247.5,-230.26"/>
<polygon fill="#63b8ff" stroke="#63b8ff" points="1313.55,-241.75 1323.9,-239.47 1314.39,-234.8 1313.55,-241.75"/>
</a>
</g>
</g>
<!-- Node30 -->
<g id="Node000030" class="node">
<title>Node30</title>
<g id="a_Node000030"><a xlink:href="classwmtk_1_1operations_1_1utils_1_1_update_edge_operation_multi_mesh_map_functor.html#a572bd6605137e21189ac91b5290af06d" target="_top" xlink:title=" ">
<polygon fill="white" stroke="#666666" points="1266,-187 1065,-187 1065,-146 1266,-146 1266,-187"/>
<text text-anchor="start" x="1073" y="-175" font-family="Helvetica,sans-Serif" font-size="10.00">wmtk::operations::utils</text>
<text text-anchor="start" x="1073" y="-164" font-family="Helvetica,sans-Serif" font-size="10.00">::UpdateEdgeOperationMultiMesh</text>
<text text-anchor="middle" x="1165.5" y="-153" font-family="Helvetica,sans-Serif" font-size="10.00">MapFunctor::update_ear_replacement</text>
</a>
</g>
</g>
<!-- Node2&#45;&gt;Node30 -->
<g id="edge34_Node000002_Node000030" class="edge">
<title>Node2&#45;&gt;Node30</title>
<g id="a_edge34_Node000002_Node000030"><a xlink:title=" ">
<path fill="none" stroke="#63b8ff" d="M1315.29,-223.19C1310.76,-221.36 1306.3,-219.46 1302,-217.5 1285.14,-209.82 1282.98,-203.89 1266,-196.5 1258.22,-193.12 1249.95,-189.96 1241.62,-187.07"/>
<polygon fill="#63b8ff" stroke="#63b8ff" points="1314.09,-226.47 1324.68,-226.84 1316.63,-219.95 1314.09,-226.47"/>
</a>
</g>
</g>
<!-- Node31 -->
<g id="Node000031" class="node">
<title>Node31</title>
<g id="a_Node000031"><a xlink:href="classwmtk_1_1operations_1_1utils_1_1_update_edge_operation_multi_mesh_map_functor.html#a4c69338c29bf0105b1881d829a177d45" target="_top" xlink:title=" ">
<polygon fill="white" stroke="#666666" points="1029,-138 828,-138 828,-97 1029,-97 1029,-138"/>
<text text-anchor="start" x="836" y="-126" font-family="Helvetica,sans-Serif" font-size="10.00">wmtk::operations::utils</text>
<text text-anchor="start" x="836" y="-115" font-family="Helvetica,sans-Serif" font-size="10.00">::UpdateEdgeOperationMultiMesh</text>
<text text-anchor="middle" x="928.5" y="-104" font-family="Helvetica,sans-Serif" font-size="10.00">MapFunctor::update_ear_replacement</text>
</a>
</g>
</g>
<!-- Node2&#45;&gt;Node31 -->
<g id="edge35_Node000002_Node000031" class="edge">
<title>Node2&#45;&gt;Node31</title>
<g id="a_edge35_Node000002_Node000031"><a xlink:title=" ">
<path fill="none" stroke="#63b8ff" d="M1314.76,-226.88C1310.19,-224.13 1305.88,-221.02 1302,-217.5 1273.14,-191.29 1298.1,-159.63 1266,-137.5 1228.84,-111.88 1114.29,-109.87 1029.11,-112.32"/>
<polygon fill="#63b8ff" stroke="#63b8ff" points="1313.35,-230.1 1323.82,-231.73 1316.65,-223.93 1313.35,-230.1"/>
</a>
</g>
</g>
<!-- Node34 -->
<g id="Node000034" class="node">
<title>Node34</title>
<g id="a_Node000034"><a xlink:href="classwmtk_1_1multimesh_1_1_multi_mesh_manager.html#a976fa18136619f216426b4fdbeabac38" target="_top" xlink:title=" ">
<polygon fill="white" stroke="#666666" points="1263.5,-89.5 1067.5,-89.5 1067.5,-59.5 1263.5,-59.5 1263.5,-89.5"/>
<text text-anchor="start" x="1075.5" y="-77.5" font-family="Helvetica,sans-Serif" font-size="10.00">wmtk::multimesh::MultiMesh</text>
<text text-anchor="middle" x="1165.5" y="-66.5" font-family="Helvetica,sans-Serif" font-size="10.00">Manager::update_map_tuple_hashes</text>
</a>
</g>
</g>
<!-- Node2&#45;&gt;Node34 -->
<g id="edge38_Node000002_Node000034" class="edge">
<title>Node2&#45;&gt;Node34</title>
<g id="a_edge38_Node000002_Node000034"><a xlink:title=" ">
<path fill="none" stroke="#63b8ff" d="M1314.52,-227.55C1309.97,-224.64 1305.74,-221.31 1302,-217.5 1264.82,-179.54 1303.99,-140.65 1266,-103.5 1260.21,-97.84 1253.38,-93.27 1246.06,-89.59"/>
<polygon fill="#63b8ff" stroke="#63b8ff" points="1313.17,-230.8 1323.6,-232.63 1316.58,-224.69 1313.17,-230.8"/>
</a>
</g>
</g>
<!-- Node36 -->
<g id="Node000036" class="node">
<title>Node36</title>
<g id="a_Node000036"><a xlink:href="classwmtk_1_1multimesh_1_1_multi_mesh_manager.html#af9c47d7844feea21e37c259942446d08" target="_top" xlink:title=" ">
<polygon fill="white" stroke="#666666" points="1245.5,-41 1085.5,-41 1085.5,0 1245.5,0 1245.5,-41"/>
<text text-anchor="start" x="1093.5" y="-29" font-family="Helvetica,sans-Serif" font-size="10.00">wmtk::multimesh::MultiMesh</text>
<text text-anchor="start" x="1093.5" y="-18" font-family="Helvetica,sans-Serif" font-size="10.00">Manager::update_maps_from</text>
<text text-anchor="middle" x="1165.5" y="-7" font-family="Helvetica,sans-Serif" font-size="10.00">_edge_operation</text>
</a>
</g>
</g>
<!-- Node2&#45;&gt;Node36 -->
<g id="edge42_Node000002_Node000036" class="edge">
<title>Node2&#45;&gt;Node36</title>
<g id="a_edge42_Node000002_Node000036"><a xlink:title=" ">
<path fill="none" stroke="#63b8ff" d="M1314.96,-228.5C1310.18,-225.38 1305.78,-221.74 1302,-217.5 1251.47,-160.83 1317.48,-106.31 1266,-50.5 1260.25,-44.27 1253.26,-39.31 1245.67,-35.38"/>
<polygon fill="#63b8ff" stroke="#63b8ff" points="1313.5,-231.7 1323.92,-233.6 1316.96,-225.61 1313.5,-231.7"/>
</a>
</g>
</g>
<!-- Node9 -->
<g id="Node000009" class="node">
<title>Node9</title>
<g id="a_Node000009"><a xlink:href="classwmtk_1_1_mesh.html#a8b92d89ea4f3d41af5fea130727b137c" target="_top" xlink:title="register a mesh as the child of this mesh">
<polygon fill="white" stroke="#666666" points="988.5,-248.5 868.5,-248.5 868.5,-218.5 988.5,-218.5 988.5,-248.5"/>
<text text-anchor="start" x="876.5" y="-236.5" font-family="Helvetica,sans-Serif" font-size="10.00">wmtk::Mesh::register</text>
<text text-anchor="middle" x="928.5" y="-225.5" font-family="Helvetica,sans-Serif" font-size="10.00">_child_mesh</text>
</a>
</g>
</g>
<!-- Node8&#45;&gt;Node9 -->
<g id="edge8_Node000008_Node000009" class="edge">
<title>Node8&#45;&gt;Node9</title>
<g id="a_edge8_Node000008_Node000009"><a xlink:title=" ">
<path fill="none" stroke="#63b8ff" d="M1072.99,-225.56C1044.72,-227.13 1014.33,-228.81 988.83,-230.22"/>
<polygon fill="#63b8ff" stroke="#63b8ff" points="1073.51,-229.04 1083.3,-224.99 1073.12,-222.05 1073.51,-229.04"/>
</a>
</g>
</g>
<!-- Node10 -->
<g id="Node000010" class="node">
<title>Node10</title>
<g id="a_Node000010"><a xlink:href="classwmtk_1_1components_1_1internal_1_1_multi_mesh_from_tag.html#a96647e9413f2b7e13dd17f02cf29b12d" target="_top" xlink:title="Create a manifold mesh from the substructure.">
<polygon fill="white" stroke="#666666" points="574.5,-407 410.5,-407 410.5,-366 574.5,-366 574.5,-407"/>
<text text-anchor="start" x="418.5" y="-395" font-family="Helvetica,sans-Serif" font-size="10.00">wmtk::components::internal</text>
<text text-anchor="start" x="418.5" y="-384" font-family="Helvetica,sans-Serif" font-size="10.00">::MultiMeshFromTag::compute</text>
<text text-anchor="middle" x="492.5" y="-373" font-family="Helvetica,sans-Serif" font-size="10.00">_substructure_mesh</text>
</a>
</g>
</g>
<!-- Node9&#45;&gt;Node10 -->
<g id="edge9_Node000009_Node000010" class="edge">
<title>Node9&#45;&gt;Node10</title>
<g id="a_edge9_Node000009_Node000010"><a xlink:title=" ">
<path fill="none" stroke="#63b8ff" d="M905.19,-255.74C879.97,-279.47 836.59,-316.26 792,-335.5 722.36,-365.54 636.43,-377.92 574.67,-383"/>
<polygon fill="#63b8ff" stroke="#63b8ff" points="907.61,-258.26 912.41,-248.82 902.77,-253.21 907.61,-258.26"/>
</a>
</g>
</g>
<!-- Node21 -->
<g id="Node000021" class="node">
<title>Node21</title>
<g id="a_Node000021"><a xlink:href="classwmtk_1_1components_1_1internal_1_1_multi_mesh_from_tag.html#ad18667b876fc81c8cfb79a408d632b25" target="_top" xlink:title="Create a multimesh where the child&#45;mesh is just a soup (no connectivity) of m_mesh.">
<polygon fill="white" stroke="#666666" points="778.5,-326 624.5,-326 624.5,-285 778.5,-285 778.5,-326"/>
<text text-anchor="start" x="632.5" y="-314" font-family="Helvetica,sans-Serif" font-size="10.00">wmtk::components::internal</text>
<text text-anchor="start" x="632.5" y="-303" font-family="Helvetica,sans-Serif" font-size="10.00">::MultiMeshFromTag::create</text>
<text text-anchor="middle" x="701.5" y="-292" font-family="Helvetica,sans-Serif" font-size="10.00">_substructure_soup</text>
</a>
</g>
</g>
<!-- Node9&#45;&gt;Node21 -->
<g id="edge20_Node000009_Node000021" class="edge">
<title>Node9&#45;&gt;Node21</title>
<g id="a_edge20_Node000009_Node000021"><a xlink:title=" ">
<path fill="none" stroke="#63b8ff" d="M871.05,-251.57C839.36,-261.7 799.71,-274.39 766.83,-284.92"/>
<polygon fill="#63b8ff" stroke="#63b8ff" points="872.15,-254.89 880.61,-248.51 870.02,-248.22 872.15,-254.89"/>
</a>
</g>
</g>
<!-- Node22 -->
<g id="Node000022" class="node">
<title>Node22</title>
<g id="a_Node000022"><a xlink:href="classwmtk_1_1multimesh_1_1utils_1_1internal_1_1_tuple_tag.html#aded6749514cde25169eec3e5a9c2529e" target="_top" xlink:title=" ">
<polygon fill="white" stroke="#666666" points="774.5,-259.5 628.5,-259.5 628.5,-207.5 774.5,-207.5 774.5,-259.5"/>
<text text-anchor="start" x="636.5" y="-247.5" font-family="Helvetica,sans-Serif" font-size="10.00">wmtk::multimesh::utils</text>
<text text-anchor="start" x="636.5" y="-236.5" font-family="Helvetica,sans-Serif" font-size="10.00">::internal::TupleTag::</text>
<text text-anchor="start" x="636.5" y="-225.5" font-family="Helvetica,sans-Serif" font-size="10.00">extract_and_register_child</text>
<text text-anchor="middle" x="701.5" y="-214.5" font-family="Helvetica,sans-Serif" font-size="10.00">_mesh_from_tag_handle</text>
</a>
</g>
</g>
<!-- Node9&#45;&gt;Node22 -->
<g id="edge22_Node000009_Node000022" class="edge">
<title>Node9&#45;&gt;Node22</title>
<g id="a_edge22_Node000009_Node000022"><a xlink:title=" ">
<path fill="none" stroke="#63b8ff" d="M858.08,-233.5C831.68,-233.5 801.54,-233.5 774.87,-233.5"/>
<polygon fill="#63b8ff" stroke="#63b8ff" points="858.38,-237 868.38,-233.5 858.38,-230 858.38,-237"/>
</a>
</g>
</g>
<!-- Node27 -->
<g id="Node000027" class="node">
<title>Node27</title>
<g id="a_Node000027"><a xlink:href="namespacewmtk_1_1components.html#a52f9ca12856b67dee17249c6172e2bbe" target="_top" xlink:title=" ">
<polygon fill="white" stroke="#666666" points="169,-170 0,-170 0,-151 169,-151 169,-170"/>
<text text-anchor="middle" x="84.5" y="-158" font-family="Helvetica,sans-Serif" font-size="10.00">wmtk::components::multimesh</text>
</a>
</g>
</g>
<!-- Node9&#45;&gt;Node27 -->
<g id="edge33_Node000009_Node000027" class="edge">
<title>Node9&#45;&gt;Node27</title>
<g id="a_edge33_Node000009_Node000027"><a xlink:title=" ">
<path fill="none" stroke="#63b8ff" d="M869.17,-215.72C845.45,-209.2 817.63,-202.46 792,-198.5 568.94,-164.04 302.1,-159.47 169.26,-159.64"/>
<polygon fill="#63b8ff" stroke="#63b8ff" points="868.5,-219.16 879.07,-218.49 870.38,-212.42 868.5,-219.16"/>
</a>
</g>
</g>
<!-- Node11 -->
<g id="Node000011" class="node">
<title>Node11</title>
<g id="a_Node000011"><a xlink:href="namespacewmtk_1_1components.html#ac309092566399cef68679a1bb8107d1e" target="_top" xlink:title="Generate a multi&#45;mesh from a mesh with a tag that represents the substructure, the mesh is changed.">
<polygon fill="white" stroke="#666666" points="374,-492.5 205,-492.5 205,-462.5 374,-462.5 374,-492.5"/>
<text text-anchor="start" x="213" y="-480.5" font-family="Helvetica,sans-Serif" font-size="10.00">wmtk::components::multimesh</text>
<text text-anchor="middle" x="289.5" y="-469.5" font-family="Helvetica,sans-Serif" font-size="10.00">_from_tag</text>
</a>
</g>
</g>
<!-- Node10&#45;&gt;Node11 -->
<g id="edge10_Node000010_Node000011" class="edge">
<title>Node10&#45;&gt;Node11</title>
<g id="a_edge10_Node000010_Node000011"><a xlink:title=" ">
<path fill="none" stroke="#63b8ff" d="M451.36,-412.57C429.2,-426.13 400.81,-442.19 374,-453.5 366.22,-456.78 357.84,-459.78 349.51,-462.45"/>
<polygon fill="#63b8ff" stroke="#63b8ff" points="453.48,-415.37 460.14,-407.13 449.8,-409.42 453.48,-415.37"/>
</a>
</g>
</g>
<!-- Node13 -->
<g id="Node000013" class="node">
<title>Node13</title>
<g id="a_Node000013"><a xlink:href="namespacewmtk_1_1components.html#a4166e4880553cfacbf79ac3515a637cd" target="_top" xlink:title=" ">
<polygon fill="white" stroke="#666666" points="367,-444.5 212,-444.5 212,-414.5 367,-414.5 367,-444.5"/>
<text text-anchor="start" x="220" y="-432.5" font-family="Helvetica,sans-Serif" font-size="10.00">wmtk::components::periodic</text>
<text text-anchor="middle" x="289.5" y="-421.5" font-family="Helvetica,sans-Serif" font-size="10.00">_optimization</text>
</a>
</g>
</g>
<!-- Node10&#45;&gt;Node13 -->
<g id="edge12_Node000010_Node000013" class="edge">
<title>Node10&#45;&gt;Node13</title>
<g id="a_edge12_Node000010_Node000013"><a xlink:title=" ">
<path fill="none" stroke="#63b8ff" d="M400.23,-406.03C386.94,-408.87 373.45,-411.76 360.67,-414.49"/>
<polygon fill="#63b8ff" stroke="#63b8ff" points="401.28,-409.38 410.32,-403.87 399.81,-402.54 401.28,-409.38"/>
</a>
</g>
</g>
<!-- Node14 -->
<g id="Node000014" class="node">
<title>Node14</title>
<g id="a_Node000014"><a xlink:href="test__component__multimesh__from__tag_8cpp.html#a2231774bf0d53fb5f6c1b34753afb255" target="_top" xlink:title=" ">
<polygon fill="white" stroke="#666666" points="325,-396 254,-396 254,-377 325,-377 325,-396"/>
<text text-anchor="middle" x="289.5" y="-384" font-family="Helvetica,sans-Serif" font-size="10.00">TEST_CASE</text>
</a>
</g>
</g>
<!-- Node10&#45;&gt;Node14 -->
<g id="edge13_Node000010_Node000014" class="edge">
<title>Node10&#45;&gt;Node14</title>
<g id="a_edge13_Node000010_Node000014"><a xlink:title=" ">
<path fill="none" stroke="#63b8ff" d="M400.14,-386.5C373.42,-386.5 345.83,-386.5 325.01,-386.5"/>
<polygon fill="#63b8ff" stroke="#63b8ff" points="400.33,-390 410.32,-386.5 400.32,-383 400.33,-390"/>
</a>
</g>
</g>
<!-- Node15 -->
<g id="Node000015" class="node">
<title>Node15</title>
<g id="a_Node000015"><a xlink:href="test__component__multimesh__from__tag_8cpp.html#a9a31cb828b93e2ddcf0a5063d4d1c9e6" target="_top" xlink:title=" ">
<polygon fill="white" stroke="#666666" points="325,-359 254,-359 254,-340 325,-340 325,-359"/>
<text text-anchor="middle" x="289.5" y="-347" font-family="Helvetica,sans-Serif" font-size="10.00">TEST_CASE</text>
</a>
</g>
</g>
<!-- Node10&#45;&gt;Node15 -->
<g id="edge14_Node000010_Node000015" class="edge">
<title>Node10&#45;&gt;Node15</title>
<g id="a_edge14_Node000010_Node000015"><a xlink:title=" ">
<path fill="none" stroke="#63b8ff" d="M400.14,-369.68C373.42,-364.76 345.83,-359.68 325.01,-355.85"/>
<polygon fill="#63b8ff" stroke="#63b8ff" points="399.86,-373.19 410.32,-371.56 401.12,-366.3 399.86,-373.19"/>
</a>
</g>
</g>
<!-- Node16 -->
<g id="Node000016" class="node">
<title>Node16</title>
<g id="a_Node000016"><a xlink:href="test__component__multimesh__from__tag_8cpp.html#a7a8f66a094907f369fa10876691f42f9" target="_top" xlink:title=" ">
<polygon fill="white" stroke="#666666" points="325,-322 254,-322 254,-303 325,-303 325,-322"/>
<text text-anchor="middle" x="289.5" y="-310" font-family="Helvetica,sans-Serif" font-size="10.00">TEST_CASE</text>
</a>
</g>
</g>
<!-- Node10&#45;&gt;Node16 -->
<g id="edge15_Node000010_Node000016" class="edge">
<title>Node10&#45;&gt;Node16</title>
<g id="a_edge15_Node000010_Node000016"><a xlink:title=" ">
<path fill="none" stroke="#63b8ff" d="M443.91,-361.39C422.91,-351.05 397.66,-339.62 374,-331.5 358.25,-326.09 340.3,-321.78 325.09,-318.64"/>
<polygon fill="#63b8ff" stroke="#63b8ff" points="442.42,-364.56 452.94,-365.89 445.55,-358.29 442.42,-364.56"/>
</a>
</g>
</g>
<!-- Node17 -->
<g id="Node000017" class="node">
<title>Node17</title>
<g id="a_Node000017"><a xlink:href="test__component__multimesh__from__tag_8cpp.html#af55ce8249624ce4d6a3feaad760949a6" target="_top" xlink:title=" ">
<polygon fill="white" stroke="#666666" points="325,-604 254,-604 254,-585 325,-585 325,-604"/>
<text text-anchor="middle" x="289.5" y="-592" font-family="Helvetica,sans-Serif" font-size="10.00">TEST_CASE</text>
</a>
</g>
</g>
<!-- Node10&#45;&gt;Node17 -->
<g id="edge16_Node000010_Node000017" class="edge">
<title>Node10&#45;&gt;Node17</title>
<g id="a_edge16_Node000010_Node000017"><a xlink:title=" ">
<path fill="none" stroke="#63b8ff" d="M481.43,-416.76C465.62,-459.41 430.76,-536.44 374,-576.5 359.82,-586.51 341.17,-591.12 325.08,-593.19"/>
<polygon fill="#63b8ff" stroke="#63b8ff" points="484.78,-417.8 484.87,-407.21 478.19,-415.43 484.78,-417.8"/>
</a>
</g>
</g>
<!-- Node18 -->
<g id="Node000018" class="node">
<title>Node18</title>
<g id="a_Node000018"><a xlink:href="test__component__multimesh__from__tag_8cpp.html#a18cd3d411cfadc472201c20662d62869" target="_top" xlink:title=" ">
<polygon fill="white" stroke="#666666" points="325,-567 254,-567 254,-548 325,-548 325,-567"/>
<text text-anchor="middle" x="289.5" y="-555" font-family="Helvetica,sans-Serif" font-size="10.00">TEST_CASE</text>
</a>
</g>
</g>
<!-- Node10&#45;&gt;Node18 -->
<g id="edge17_Node000010_Node000018" class="edge">
<title>Node10&#45;&gt;Node18</title>
<g id="a_edge17_Node000010_Node000018"><a xlink:title=" ">
<path fill="none" stroke="#63b8ff" d="M476.92,-416.38C458.15,-451.57 422.12,-509.06 374,-539.5 359.46,-548.7 340.96,-553.26 325.06,-555.49"/>
<polygon fill="#63b8ff" stroke="#63b8ff" points="480.25,-417.58 481.76,-407.09 474.04,-414.35 480.25,-417.58"/>
</a>
</g>
</g>
<!-- Node19 -->
<g id="Node000019" class="node">
<title>Node19</title>
<g id="a_Node000019"><a xlink:href="test__component__multimesh__from__tag_8cpp.html#a4caad3dd8a6355f2ca66fdb0b0af7999" target="_top" xlink:title=" ">
<polygon fill="white" stroke="#666666" points="325,-530 254,-530 254,-511 325,-511 325,-530"/>
<text text-anchor="middle" x="289.5" y="-518" font-family="Helvetica,sans-Serif" font-size="10.00">TEST_CASE</text>
</a>
</g>
</g>
<!-- Node10&#45;&gt;Node19 -->
<g id="edge18_Node000010_Node000019" class="edge">
<title>Node10&#45;&gt;Node19</title>
<g id="a_edge18_Node000010_Node000019"><a xlink:title=" ">
<path fill="none" stroke="#63b8ff" d="M470.03,-415.16C448.63,-441.65 413.35,-480.05 374,-501.5 359.12,-509.61 340.93,-514.27 325.34,-516.94"/>
<polygon fill="#63b8ff" stroke="#63b8ff" points="473.01,-417.03 476.48,-407.02 467.53,-412.69 473.01,-417.03"/>
</a>
</g>
</g>
<!-- Node20 -->
<g id="Node000020" class="node">
<title>Node20</title>
<g id="a_Node000020"><a xlink:href="namespacewmtk_1_1components.html#a9d6d11e3b7ba03911492ecfc79622247" target="_top" xlink:title=" ">
<polygon fill="white" stroke="#666666" points="366.5,-284.5 212.5,-284.5 212.5,-254.5 366.5,-254.5 366.5,-284.5"/>
<text text-anchor="start" x="220.5" y="-272.5" font-family="Helvetica,sans-Serif" font-size="10.00">wmtk::components::triangle</text>
<text text-anchor="middle" x="289.5" y="-261.5" font-family="Helvetica,sans-Serif" font-size="10.00">_insertion</text>
</a>
</g>
</g>
<!-- Node10&#45;&gt;Node20 -->
<g id="edge19_Node000010_Node000020" class="edge">
<title>Node10&#45;&gt;Node20</title>
<g id="a_edge19_Node000010_Node000020"><a xlink:title=" ">
<path fill="none" stroke="#63b8ff" d="M462.74,-358.94C440.18,-338.62 407.14,-311.65 374,-294.5 366.74,-290.74 358.83,-287.46 350.87,-284.62"/>
<polygon fill="#63b8ff" stroke="#63b8ff" points="460.53,-361.65 470.27,-365.82 465.25,-356.49 460.53,-361.65"/>
</a>
</g>
</g>
<!-- Node12 -->
<g id="Node000012" class="node">
<title>Node12</title>
<g id="a_Node000012"><a xlink:href="test__component__multimesh__from__tag_8cpp.html#a2b0208caf4b963a36a43604c3e7cf34a" target="_top" xlink:title=" ">
<polygon fill="white" stroke="#666666" points="120,-487 49,-487 49,-468 120,-468 120,-487"/>
<text text-anchor="middle" x="84.5" y="-475" font-family="Helvetica,sans-Serif" font-size="10.00">TEST_CASE</text>
</a>
</g>
</g>
<!-- Node11&#45;&gt;Node12 -->
<g id="edge11_Node000011_Node000012" class="edge">
<title>Node11&#45;&gt;Node12</title>
<g id="a_edge11_Node000011_Node000012"><a xlink:title=" ">
<path fill="none" stroke="#63b8ff" d="M194.64,-477.5C168.09,-477.5 140.85,-477.5 120.22,-477.5"/>
<polygon fill="#63b8ff" stroke="#63b8ff" points="194.76,-481 204.76,-477.5 194.76,-474 194.76,-481"/>
</a>
</g>
</g>
<!-- Node21&#45;&gt;Node10 -->
<g id="edge21_Node000021_Node000010" class="edge">
<title>Node21&#45;&gt;Node10</title>
<g id="a_edge21_Node000021_Node000010"><a xlink:title=" ">
<path fill="none" stroke="#63b8ff" d="M638.62,-329.71C609.09,-341.27 574.15,-354.94 545.95,-365.98"/>
<polygon fill="#63b8ff" stroke="#63b8ff" points="639.96,-332.95 648,-326.04 637.41,-326.43 639.96,-332.95"/>
</a>
</g>
</g>
<!-- Node23 -->
<g id="Node000023" class="node">
<title>Node23</title>
<g id="a_Node000023"><a xlink:href="namespacewmtk_1_1multimesh_1_1utils.html#a7abce025022d68cda1ab1de2663865df" target="_top" xlink:title="extract a child mesh based on the tag handle and the tag value, and register it to the input (parent)...">
<polygon fill="white" stroke="#666666" points="557.5,-304 427.5,-304 427.5,-263 557.5,-263 557.5,-304"/>
<text text-anchor="start" x="435.5" y="-292" font-family="Helvetica,sans-Serif" font-size="10.00">wmtk::multimesh::utils</text>
<text text-anchor="start" x="435.5" y="-281" font-family="Helvetica,sans-Serif" font-size="10.00">::extract_and_register</text>
<text text-anchor="middle" x="492.5" y="-270" font-family="Helvetica,sans-Serif" font-size="10.00">_child_mesh_from_tag</text>
</a>
</g>
</g>
<!-- Node22&#45;&gt;Node23 -->
<g id="edge23_Node000022_Node000023" class="edge">
<title>Node22&#45;&gt;Node23</title>
<g id="a_edge23_Node000022_Node000023"><a xlink:title=" ">
<path fill="none" stroke="#63b8ff" d="M618.57,-253.29C598.36,-258.17 576.99,-263.33 557.75,-267.98"/>
<polygon fill="#63b8ff" stroke="#63b8ff" points="619.49,-256.67 628.39,-250.92 617.85,-249.86 619.49,-256.67"/>
</a>
</g>
</g>
<!-- Node24 -->
<g id="Node000024" class="node">
<title>Node24</title>
<g id="a_Node000024"><a xlink:href="namespacewmtk_1_1multimesh_1_1utils.html#a3884bf7da96f02deb13cc2b7c8b3629e" target="_top" xlink:title="extract a child mesh based on the tag handle and the tag value, and register it to the input (parent)...">
<polygon fill="white" stroke="#666666" points="575,-245 410,-245 410,-204 575,-204 575,-245"/>
<text text-anchor="start" x="418" y="-233" font-family="Helvetica,sans-Serif" font-size="10.00">wmtk::multimesh::utils</text>
<text text-anchor="start" x="418" y="-222" font-family="Helvetica,sans-Serif" font-size="10.00">::extract_and_register</text>
<text text-anchor="middle" x="492.5" y="-211" font-family="Helvetica,sans-Serif" font-size="10.00">_child_mesh_from_tag_handle</text>
</a>
</g>
</g>
<!-- Node22&#45;&gt;Node24 -->
<g id="edge24_Node000022_Node000024" class="edge">
<title>Node22&#45;&gt;Node24</title>
<g id="a_edge24_Node000022_Node000024"><a xlink:title=" ">
<path fill="none" stroke="#63b8ff" d="M618.21,-229.92C604.08,-229.31 589.39,-228.67 575.27,-228.06"/>
<polygon fill="#63b8ff" stroke="#63b8ff" points="618.25,-233.43 628.39,-230.36 618.55,-226.43 618.25,-233.43"/>
</a>
</g>
</g>
<!-- Node24&#45;&gt;Node20 -->
<g id="edge32_Node000024_Node000020" class="edge">
<title>Node24&#45;&gt;Node20</title>
<g id="a_edge32_Node000024_Node000020"><a xlink:title=" ">
<path fill="none" stroke="#63b8ff" d="M399.96,-244.99C385.74,-248.18 371.29,-251.41 357.74,-254.45"/>
<polygon fill="#63b8ff" stroke="#63b8ff" points="400.75,-248.4 409.75,-242.8 399.22,-241.57 400.75,-248.4"/>
</a>
</g>
</g>
<!-- Node25 -->
<g id="Node000025" class="node">
<title>Node25</title>
<g id="a_Node000025"><a xlink:href="namespacewmtk_1_1multimesh_1_1utils.html#a4c77e0353f0106b750a18d225d22cd8a" target="_top" xlink:title="extract a child mesh based on the given tag and tag value, and register it to the input (parent) mesh">
<polygon fill="white" stroke="#666666" points="354.5,-236 224.5,-236 224.5,-195 354.5,-195 354.5,-236"/>
<text text-anchor="start" x="232.5" y="-224" font-family="Helvetica,sans-Serif" font-size="10.00">wmtk::multimesh::utils</text>
<text text-anchor="start" x="232.5" y="-213" font-family="Helvetica,sans-Serif" font-size="10.00">::extract_and_register</text>
<text text-anchor="middle" x="289.5" y="-202" font-family="Helvetica,sans-Serif" font-size="10.00">_child_mesh_from_tag</text>
</a>
</g>
</g>
<!-- Node24&#45;&gt;Node25 -->
<g id="edge25_Node000024_Node000025" class="edge">
<title>Node24&#45;&gt;Node25</title>
<g id="a_edge25_Node000024_Node000025"><a xlink:title=" ">
<path fill="none" stroke="#63b8ff" d="M399.34,-220.37C384.22,-219.7 368.86,-219.01 354.62,-218.37"/>
<polygon fill="#63b8ff" stroke="#63b8ff" points="399.6,-223.89 409.75,-220.84 399.91,-216.9 399.6,-223.89"/>
</a>
</g>
</g>
<!-- Node26 -->
<g id="Node000026" class="node">
<title>Node26</title>
<g id="a_Node000026"><a xlink:href="namespacewmtk_1_1utils.html#a4ea0d7c148b4066c6692a8e31c7b7b7a" target="_top" xlink:title=" ">
<polygon fill="white" stroke="#666666" points="161,-321 8,-321 8,-280 161,-280 161,-321"/>
<text text-anchor="start" x="16" y="-309" font-family="Helvetica,sans-Serif" font-size="10.00">wmtk::utils::generate</text>
<text text-anchor="start" x="16" y="-298" font-family="Helvetica,sans-Serif" font-size="10.00">_raw_tetmesh_with_surface</text>
<text text-anchor="middle" x="84.5" y="-287" font-family="Helvetica,sans-Serif" font-size="10.00">_from_input</text>
</a>
</g>
</g>
<!-- Node25&#45;&gt;Node26 -->
<g id="edge26_Node000025_Node000026" class="edge">
<title>Node25&#45;&gt;Node26</title>
<g id="a_edge26_Node000025_Node000026"><a xlink:title=" ">
<path fill="none" stroke="#63b8ff" d="M215.86,-240.17C212.14,-241.88 208.5,-243.65 205,-245.5 187.54,-254.7 186.51,-262.39 169,-271.5 163.28,-274.48 157.19,-277.26 151.01,-279.82"/>
<polygon fill="#63b8ff" stroke="#63b8ff" points="217.45,-243.29 225.22,-236.09 214.65,-236.88 217.45,-243.29"/>
</a>
</g>
</g>
<!-- Node25&#45;&gt;Node27 -->
<g id="edge28_Node000025_Node000027" class="edge">
<title>Node25&#45;&gt;Node27</title>
<g id="a_edge28_Node000025_Node000027"><a xlink:title=" ">
<path fill="none" stroke="#63b8ff" d="M214.47,-195.44C182.45,-186.77 146.49,-177.02 120.69,-170.03"/>
<polygon fill="#63b8ff" stroke="#63b8ff" points="213.7,-198.86 224.27,-198.1 215.53,-192.1 213.7,-198.86"/>
</a>
</g>
</g>
<!-- Node28 -->
<g id="Node000028" class="node">
<title>Node28</title>
<g id="a_Node000028"><a xlink:href="test__component__isotropic__remeshing_8cpp.html#aae475685ae29b731655dd43137a950d6" target="_top" xlink:title=" ">
<polygon fill="white" stroke="#666666" points="120,-262 49,-262 49,-243 120,-243 120,-262"/>
<text text-anchor="middle" x="84.5" y="-250" font-family="Helvetica,sans-Serif" font-size="10.00">TEST_CASE</text>
</a>
</g>
</g>
<!-- Node25&#45;&gt;Node28 -->
<g id="edge30_Node000025_Node000028" class="edge">
<title>Node25&#45;&gt;Node28</title>
<g id="a_edge30_Node000025_Node000028"><a xlink:title=" ">
<path fill="none" stroke="#63b8ff" d="M214.41,-229C182.16,-234.88 145.93,-241.49 120.11,-246.19"/>
<polygon fill="#63b8ff" stroke="#63b8ff" points="215.06,-232.44 224.27,-227.21 213.8,-225.56 215.06,-232.44"/>
</a>
</g>
</g>
<!-- Node29 -->
<g id="Node000029" class="node">
<title>Node29</title>
<g id="a_Node000029"><a xlink:href="test__component__isotropic__remeshing_8cpp.html#ab3fcea88943daf212aeeda03eb0baa8b" target="_top" xlink:title=" ">
<polygon fill="white" stroke="#666666" points="120,-225 49,-225 49,-206 120,-206 120,-225"/>
<text text-anchor="middle" x="84.5" y="-213" font-family="Helvetica,sans-Serif" font-size="10.00">TEST_CASE</text>
</a>
</g>
</g>
<!-- Node25&#45;&gt;Node29 -->
<g id="edge31_Node000025_Node000029" class="edge">
<title>Node25&#45;&gt;Node29</title>
<g id="a_edge31_Node000025_Node000029"><a xlink:title=" ">
<path fill="none" stroke="#63b8ff" d="M213.99,-215.5C181.85,-215.5 145.82,-215.5 120.11,-215.5"/>
<polygon fill="#63b8ff" stroke="#63b8ff" points="214.27,-219 224.27,-215.5 214.27,-212 214.27,-219"/>
</a>
</g>
</g>
<!-- Node26&#45;&gt;Node26 -->
<g id="edge27_Node000026_Node000026" class="edge">
<title>Node26&#45;&gt;Node26</title>
<g id="a_edge27_Node000026_Node000026"><a xlink:title=" ">
<path fill="none" stroke="#63b8ff" d="M119.6,-330.96C114.38,-335.74 102.68,-339 84.5,-339 55.41,-339 42.92,-330.65 47.01,-321.1"/>
<polygon fill="#63b8ff" stroke="#63b8ff" points="123.03,-331.64 121.99,-321.1 116.23,-329.99 123.03,-331.64"/>
</a>
</g>
</g>
<!-- Node27&#45;&gt;Node27 -->
<g id="edge29_Node000027_Node000027" class="edge">
<title>Node27&#45;&gt;Node27</title>
<g id="a_edge29_Node000027_Node000027"><a xlink:title=" ">
<path fill="none" stroke="#63b8ff" d="M122.75,-177.69C122.74,-183.42 109.99,-188 84.5,-188 48.24,-188 37.76,-178.73 53.06,-170.08"/>
<polygon fill="#63b8ff" stroke="#63b8ff" points="125.22,-175.2 115.94,-170.08 120,-179.87 125.22,-175.2"/>
</a>
</g>
</g>
<!-- Node32 -->
<g id="Node000032" class="node">
<title>Node32</title>
<g id="a_Node000032"><a xlink:href="classwmtk_1_1operations_1_1utils_1_1_update_edge_operation_multi_mesh_map_functor.html#a6f3a220b85044a73d43a4c124d099bbc" target="_top" xlink:title=" ">
<polygon fill="white" stroke="#666666" points="792,-138 611,-138 611,-97 792,-97 792,-138"/>
<text text-anchor="start" x="619" y="-126" font-family="Helvetica,sans-Serif" font-size="10.00">wmtk::operations::utils</text>
<text text-anchor="start" x="619" y="-115" font-family="Helvetica,sans-Serif" font-size="10.00">::UpdateEdgeOperationMultiMesh</text>
<text text-anchor="middle" x="701.5" y="-104" font-family="Helvetica,sans-Serif" font-size="10.00">MapFunctor::operator()</text>
</a>
</g>
</g>
<!-- Node31&#45;&gt;Node32 -->
<g id="edge36_Node000031_Node000032" class="edge">
<title>Node31&#45;&gt;Node32</title>
<g id="a_edge36_Node000031_Node000032"><a xlink:title=" ">
<path fill="none" stroke="#63b8ff" d="M817.78,-117.5C809.2,-117.5 800.6,-117.5 792.17,-117.5"/>
<polygon fill="#63b8ff" stroke="#63b8ff" points="817.83,-121 827.83,-117.5 817.83,-114 817.83,-121"/>
</a>
</g>
</g>
<!-- Node33 -->
<g id="Node000033" class="node">
<title>Node33</title>
<g id="a_Node000033"><a xlink:href="classwmtk_1_1operations_1_1utils_1_1_update_edge_operation_multi_mesh_map_functor.html#a57611fefa85bea3d1858ca385b0f350a" target="_top" xlink:title=" ">
<polygon fill="white" stroke="#666666" points="792,-79 611,-79 611,-38 792,-38 792,-79"/>
<text text-anchor="start" x="619" y="-67" font-family="Helvetica,sans-Serif" font-size="10.00">wmtk::operations::utils</text>
<text text-anchor="start" x="619" y="-56" font-family="Helvetica,sans-Serif" font-size="10.00">::UpdateEdgeOperationMultiMesh</text>
<text text-anchor="middle" x="701.5" y="-45" font-family="Helvetica,sans-Serif" font-size="10.00">MapFunctor::operator()</text>
</a>
</g>
</g>
<!-- Node31&#45;&gt;Node33 -->
<g id="edge37_Node000031_Node000033" class="edge">
<title>Node31&#45;&gt;Node33</title>
<g id="a_edge37_Node000031_Node000033"><a xlink:title=" ">
<path fill="none" stroke="#63b8ff" d="M839.44,-94.41C820.16,-89.35 799.86,-84.03 780.98,-79.08"/>
<polygon fill="#63b8ff" stroke="#63b8ff" points="838.56,-97.8 849.12,-96.95 840.34,-91.03 838.56,-97.8"/>
</a>
</g>
</g>
<!-- Node35 -->
<g id="Node000035" class="node">
<title>Node35</title>
<g id="a_Node000035"><a xlink:href="classwmtk_1_1operations_1_1utils_1_1_update_edge_operation_multi_mesh_map_functor.html#a0e68925616ea65b5fedbf614333658e5" target="_top" xlink:title=" ">
<polygon fill="white" stroke="#666666" points="1019,-79 838,-79 838,-38 1019,-38 1019,-79"/>
<text text-anchor="start" x="846" y="-67" font-family="Helvetica,sans-Serif" font-size="10.00">wmtk::operations::utils</text>
<text text-anchor="start" x="846" y="-56" font-family="Helvetica,sans-Serif" font-size="10.00">::UpdateEdgeOperationMultiMesh</text>
<text text-anchor="middle" x="928.5" y="-45" font-family="Helvetica,sans-Serif" font-size="10.00">MapFunctor::update_all_hashes</text>
</a>
</g>
</g>
<!-- Node34&#45;&gt;Node35 -->
<g id="edge39_Node000034_Node000035" class="edge">
<title>Node34&#45;&gt;Node35</title>
<g id="a_edge39_Node000034_Node000035"><a xlink:title=" ">
<path fill="none" stroke="#63b8ff" d="M1057.1,-67.19C1044.41,-66.32 1031.58,-65.45 1019.17,-64.61"/>
<polygon fill="#63b8ff" stroke="#63b8ff" points="1057.01,-70.69 1067.22,-67.88 1057.48,-63.71 1057.01,-70.69"/>
</a>
</g>
</g>
<!-- Node35&#45;&gt;Node32 -->
<g id="edge40_Node000035_Node000032" class="edge">
<title>Node35&#45;&gt;Node32</title>
<g id="a_edge40_Node000035_Node000032"><a xlink:title=" ">
<path fill="none" stroke="#63b8ff" d="M839.44,-81.59C820.16,-86.65 799.86,-91.97 780.98,-96.92"/>
<polygon fill="#63b8ff" stroke="#63b8ff" points="840.34,-84.97 849.12,-79.05 838.56,-78.2 840.34,-84.97"/>
</a>
</g>
</g>
<!-- Node35&#45;&gt;Node33 -->
<g id="edge41_Node000035_Node000033" class="edge">
<title>Node35&#45;&gt;Node33</title>
<g id="a_edge41_Node000035_Node000033"><a xlink:title=" ">
<path fill="none" stroke="#63b8ff" d="M827.61,-58.5C815.79,-58.5 803.79,-58.5 792.13,-58.5"/>
<polygon fill="#63b8ff" stroke="#63b8ff" points="827.93,-62 837.93,-58.5 827.93,-55 827.93,-62"/>
</a>
</g>
</g>
</g>
</svg>

<g id="navigator" transform="translate(0 0)" fill="#404254">
  <rect fill="#f2f5e9" fill-opacity="0.5" stroke="#606060" stroke-width=".5" x="0" y="0" width="60" height="60"/>
  <use id="zoomplus" xlink:href="#zoomPlus" x="17" y="9" onmousedown="handleZoom(evt,'in')"/>
  <use id="zoomminus" xlink:href="#zoomMin" x="42" y="9" onmousedown="handleZoom(evt,'out')"/>
  <use id="reset" xlink:href="#resetDef" x="30" y="36" onmousedown="handleReset()"/>
   <use id="arrowup" xlink:href="#arrowUp" x="0" y="0" onmousedown="handlePan(0,-1)"/>
  <use id="arrowright" xlink:href="#arrowRight" x="0" y="0" onmousedown="handlePan(1,0)"/>
  <use id="arrowdown" xlink:href="#arrowDown" x="0" y="0" onmousedown="handlePan(0,1)"/>
  <use id="arrowleft" xlink:href="#arrowLeft" x="0" y="0" onmousedown="handlePan(-1,0)"/>
</g>
<svg viewBox="0 0 15 15" width="100%" height="30px" preserveAspectRatio="xMaxYMin meet">
 <g id="arrow_out" transform="scale(0.3 0.3)">
  <a xlink:href="namespacewmtk_1_1multimesh_1_1utils_aa965e96578f254d53e7ca53d617f5c6a_icgraph_org.svg" target="_base">
   <rect id="button" ry="5" rx="5" y="6" x="6" height="38" width="38"
        fill="#f2f5e9" fill-opacity="0.5" stroke="#606060" stroke-width="1.0"/>
   <path id="arrow"
     d="M 11.500037,31.436501 C 11.940474,20.09759 22.043105,11.32322 32.158766,21.979434 L 37.068811,17.246167 C 37.068811,17.246167 37.088388,32 37.088388,32 L 22.160133,31.978069 C 22.160133,31.978069 26.997745,27.140456 26.997745,27.140456 C 18.528582,18.264221 13.291696,25.230495 11.500037,31.436501 z"
     style="fill:#404040;"/>
  </a>
 </g>
</svg>

<style type='text/css'>
<![CDATA[
[data-mouse-over-selected='false'] { opacity: 0.7; }
[data-mouse-over-selected='true']  { opacity: 1.0; }
]]>
</style>
<script type="application/ecmascript"><![CDATA[
document.addEventListener('DOMContentLoaded', (event) => {
  highlightEdges();
  highlightAdjacentNodes();
});
]]></script>
</svg>
