<?xml version="1.0" encoding="UTF-8" standalone="no"?>
<!DOCTYPE svg PUBLIC "-//W3C//DTD SVG 1.1//EN"
 "http://www.w3.org/Graphics/SVG/1.1/DTD/svg11.dtd">
<!-- Generated by graphviz version 2.43.0 (0)
 -->
<!-- Title: wmtk::abs Pages: 1 -->
<!--zoomable 272 -->

<svg id="main" version="1.1" xmlns="http://www.w3.org/2000/svg" xmlns:xlink="http://www.w3.org/1999/xlink" xml:space="preserve" onload="init(evt)">
<style type="text/css"><![CDATA[
.node, .edge {opacity: 0.7;}
.node.selected, .edge.selected {opacity: 1;}
.edge:hover path { stroke: red; }
.edge:hover polygon { stroke: red; fill: red; }
]]></style>

<defs>
  <circle id="rim" cx="0" cy="0" r="7"/>
  <circle id="rim2" cx="0" cy="0" r="3.5"/>
  <g id="zoomPlus">
    <use xlink:href="#rim" fill="#404040"><set attributeName="fill" to="#808080" begin="zoomplus.mouseover" end="zoomplus.mouseout"/></use>
    <path d="M-4,0h8M0,-4v8" fill="none" stroke="white" stroke-width="1.5" pointer-events="none"/>
  </g>
  <g id="zoomMin">
    <use xlink:href="#rim" fill="#404040"><set attributeName="fill" to="#808080" begin="zoomminus.mouseover" end="zoomminus.mouseout"/></use>
    <path d="M-4,0h8" fill="none" stroke="white" stroke-width="1.5" pointer-events="none"/>
  </g>
  <g id="arrowUp" transform="translate(30 24)">
    <use xlink:href="#rim"/>
    <path pointer-events="none" fill="none" stroke="white" stroke-width="1.5" d="M0,-3.0v7 M-2.5,-0.5L0,-3.0L2.5,-0.5"/>
  </g>
  <g id="arrowRight" transform="rotate(90) translate(36 -43)">
    <use xlink:href="#rim"/>
    <path pointer-events="none" fill="none" stroke="white" stroke-width="1.5" d="M0,-3.0v7 M-2.5,-0.5L0,-3.0L2.5,-0.5"/>
  </g>
  <g id="arrowDown" transform="rotate(180) translate(-30 -48)">
    <use xlink:href="#rim"/>
    <path pointer-events="none" fill="none" stroke="white" stroke-width="1.5" d="M0,-3.0v7 M-2.5,-0.5L0,-3.0L2.5,-0.5"/>
  </g>
  <g id="arrowLeft" transform="rotate(270) translate(-36 17)">
    <use xlink:href="#rim"/>
    <path pointer-events="none" fill="none" stroke="white" stroke-width="1.5" d="M0,-3.0v7 M-2.5,-0.5L0,-3.0L2.5,-0.5"/>
  </g>
  <g id="resetDef">
    <use xlink:href="#rim2" fill="#404040"><set attributeName="fill" to="#808080" begin="reset.mouseover" end="reset.mouseout"/></use>
  </g>
</defs>
<script type="application/ecmascript">
var viewWidth = 748;
var viewHeight = 272;
var sectionId = 'dynsection-0';
</script>
<script type="application/ecmascript" xlink:href="svg.min.js"/>
<svg id="graph" class="graph">
<g id="viewport">
<title>wmtk::abs</title>
<!-- Node1 -->
<g id="Node000001" class="node">
<title>Node1</title>
<g id="a_Node000001"><a xlink:title=" ">
<polygon fill="#999999" stroke="#666666" points="740,-132 672,-132 672,-113 740,-113 740,-132"/>
<text text-anchor="middle" x="706" y="-120" font-family="Helvetica,sans-Serif" font-size="10.00">wmtk::abs</text>
</a>
</g>
</g>
<!-- Node2 -->
<g id="Node000002" class="node">
<title>Node2</title>
<g id="a_Node000002"><a xlink:href="namespacewmtk_1_1function_1_1utils.html#a5566d601b7700a203e925d5eaca49ddd" target="_top" xlink:title=" ">
<polygon fill="white" stroke="#666666" points="593.5,-209.5 476.5,-209.5 476.5,-179.5 593.5,-179.5 593.5,-209.5"/>
<text text-anchor="start" x="484.5" y="-197.5" font-family="Helvetica,sans-Serif" font-size="10.00">wmtk::function::utils</text>
<text text-anchor="middle" x="535" y="-186.5" font-family="Helvetica,sans-Serif" font-size="10.00">::amips</text>
</a>
</g>
</g>
<!-- Node1&#45;&gt;Node2 -->
<g id="edge1_Node000001_Node000002" class="edge">
<title>Node1&#45;&gt;Node2</title>
<g id="a_edge1_Node000001_Node000002"><a xlink:title=" ">
<path fill="none" stroke="#63b8ff" d="M685.08,-138.39C671.83,-148.28 653.68,-160.58 636,-168.5 622.74,-174.44 607.86,-179.22 593.71,-182.99"/>
<polygon fill="#63b8ff" stroke="#63b8ff" points="687.21,-141.17 693.02,-132.31 682.95,-135.61 687.21,-141.17"/>
</a>
</g>
</g>
<!-- Node6 -->
<g id="Node000006" class="node">
<title>Node6</title>
<g id="a_Node000006"><a xlink:href="classwmtk_1_1operations_1_1_a_m_i_p_s_optimization_smoothing_periodic.html#a86df18fe3713cb41dca1687487dea61b" target="_top" xlink:title="returns an empty vector in case of failure">
<polygon fill="white" stroke="#666666" points="636,-159.5 434,-159.5 434,-129.5 636,-129.5 636,-159.5"/>
<text text-anchor="start" x="442" y="-147.5" font-family="Helvetica,sans-Serif" font-size="10.00">wmtk::operations::AMIPSOptimization</text>
<text text-anchor="middle" x="535" y="-136.5" font-family="Helvetica,sans-Serif" font-size="10.00">SmoothingPeriodic::execute</text>
</a>
</g>
</g>
<!-- Node1&#45;&gt;Node6 -->
<g id="edge5_Node000001_Node000006" class="edge">
<title>Node1&#45;&gt;Node6</title>
<g id="a_edge5_Node000001_Node000006"><a xlink:title=" ">
<path fill="none" stroke="#63b8ff" d="M661.59,-128.15C653.67,-129.18 645.1,-130.3 636.3,-131.44"/>
<polygon fill="#63b8ff" stroke="#63b8ff" points="662.15,-131.61 671.61,-126.85 661.24,-124.67 662.15,-131.61"/>
</a>
</g>
</g>
<!-- Node7 -->
<g id="Node000007" class="node">
<title>Node7</title>
<g id="a_Node000007"><a xlink:href="namespacewmtk_1_1components.html#a5a89b6c23c8338b3a90a304b368fb3a8" target="_top" xlink:title=" ">
<polygon fill="white" stroke="#666666" points="608,-111 462,-111 462,-92 608,-92 608,-111"/>
<text text-anchor="middle" x="535" y="-99" font-family="Helvetica,sans-Serif" font-size="10.00">wmtk::components::fusion</text>
</a>
</g>
</g>
<!-- Node1&#45;&gt;Node7 -->
<g id="edge6_Node000001_Node000007" class="edge">
<title>Node1&#45;&gt;Node7</title>
<g id="a_edge6_Node000001_Node000007"><a xlink:title=" ">
<path fill="none" stroke="#63b8ff" d="M661.36,-117.08C645.12,-115.06 626.22,-112.71 608.11,-110.46"/>
<polygon fill="#63b8ff" stroke="#63b8ff" points="661.26,-120.59 671.61,-118.35 662.12,-113.64 661.26,-120.59"/>
</a>
</g>
</g>
<!-- Node9 -->
<g id="Node000009" class="node">
<title>Node9</title>
<g id="a_Node000009"><a xlink:href="namespacewmtk_1_1components_1_1adaptive__tessellation_1_1image.html#a4a929b5db6236c63dcfa04d4a6316119" target="_top" xlink:title=" ">
<polygon fill="white" stroke="#666666" points="614.5,-73.5 455.5,-73.5 455.5,-21.5 614.5,-21.5 614.5,-73.5"/>
<text text-anchor="start" x="463.5" y="-61.5" font-family="Helvetica,sans-Serif" font-size="10.00">wmtk::components::adaptive</text>
<text text-anchor="start" x="463.5" y="-50.5" font-family="Helvetica,sans-Serif" font-size="10.00">_tessellation::image::make</text>
<text text-anchor="start" x="463.5" y="-39.5" font-family="Helvetica,sans-Serif" font-size="10.00">_samples_to_bicubic_coeffs</text>
<text text-anchor="middle" x="535" y="-28.5" font-family="Helvetica,sans-Serif" font-size="10.00">_operator</text>
</a>
</g>
</g>
<!-- Node1&#45;&gt;Node9 -->
<g id="edge8_Node000001_Node000009" class="edge">
<title>Node1&#45;&gt;Node9</title>
<g id="a_edge8_Node000001_Node000009"><a xlink:title=" ">
<path fill="none" stroke="#63b8ff" d="M680.97,-107.59C667.95,-99.85 651.4,-90.56 636,-83.5 628.54,-80.08 620.65,-76.76 612.7,-73.61"/>
<polygon fill="#63b8ff" stroke="#63b8ff" points="679.4,-110.73 689.77,-112.9 683.02,-104.74 679.4,-110.73"/>
</a>
</g>
</g>
<!-- Node3 -->
<g id="Node000003" class="node">
<title>Node3</title>
<g id="a_Node000003"><a xlink:href="namespacewmtk_1_1function_1_1utils.html#a0944a6121ead97b0619f660e5ebda47f" target="_top" xlink:title=" ">
<polygon fill="white" stroke="#666666" points="377,-263.5 260,-263.5 260,-233.5 377,-233.5 377,-263.5"/>
<text text-anchor="start" x="268" y="-251.5" font-family="Helvetica,sans-Serif" font-size="10.00">wmtk::function::utils</text>
<text text-anchor="middle" x="318.5" y="-240.5" font-family="Helvetica,sans-Serif" font-size="10.00">::amips</text>
</a>
</g>
</g>
<!-- Node2&#45;&gt;Node3 -->
<g id="edge2_Node000002_Node000003" class="edge">
<title>Node2&#45;&gt;Node3</title>
<g id="a_edge2_Node000002_Node000003"><a xlink:title=" ">
<path fill="none" stroke="#63b8ff" d="M466.32,-211.54C437.74,-218.73 404.8,-227.03 377.37,-233.93"/>
<polygon fill="#63b8ff" stroke="#63b8ff" points="467.39,-214.88 476.24,-209.04 465.68,-208.09 467.39,-214.88"/>
</a>
</g>
</g>
<!-- Node4 -->
<g id="Node000004" class="node">
<title>Node4</title>
<g id="a_Node000004"><a xlink:href="classwmtk_1_1function_1_1_triangle_a_m_i_p_s.html#a9efeeacdc9da3b8000a13d44be7e62b7" target="_top" xlink:title="This function defines a function f(x) where f is defined over a simplex domain and the variables for ...">
<polygon fill="white" stroke="#666666" points="385.5,-215.5 251.5,-215.5 251.5,-185.5 385.5,-185.5 385.5,-215.5"/>
<text text-anchor="start" x="259.5" y="-203.5" font-family="Helvetica,sans-Serif" font-size="10.00">wmtk::function::Triangle</text>
<text text-anchor="middle" x="318.5" y="-192.5" font-family="Helvetica,sans-Serif" font-size="10.00">AMIPS::eval</text>
</a>
</g>
</g>
<!-- Node2&#45;&gt;Node4 -->
<g id="edge3_Node000002_Node000004" class="edge">
<title>Node2&#45;&gt;Node4</title>
<g id="a_edge3_Node000002_Node000004"><a xlink:title=" ">
<path fill="none" stroke="#63b8ff" d="M466.2,-196.4C440.49,-197.12 411.27,-197.93 385.72,-198.65"/>
<polygon fill="#63b8ff" stroke="#63b8ff" points="466.34,-199.89 476.24,-196.12 466.14,-192.9 466.34,-199.89"/>
</a>
</g>
</g>
<!-- Node5 -->
<g id="Node000005" class="node">
<title>Node5</title>
<g id="a_Node000005"><a xlink:href="classwmtk_1_1function_1_1_position_map_a_m_i_p_s2_d.html#a3aded6e841b5c5730bcdaf8cedc5da94" target="_top" xlink:title=" ">
<polygon fill="white" stroke="#666666" points="386.5,-167 250.5,-167 250.5,-126 386.5,-126 386.5,-167"/>
<text text-anchor="start" x="258.5" y="-155" font-family="Helvetica,sans-Serif" font-size="10.00">wmtk::function::Position</text>
<text text-anchor="start" x="258.5" y="-144" font-family="Helvetica,sans-Serif" font-size="10.00">MapAMIPS2D::get_value</text>
<text text-anchor="middle" x="318.5" y="-133" font-family="Helvetica,sans-Serif" font-size="10.00">_autodiff</text>
</a>
</g>
</g>
<!-- Node2&#45;&gt;Node5 -->
<g id="edge4_Node000002_Node000005" class="edge">
<title>Node2&#45;&gt;Node5</title>
<g id="a_edge4_Node000002_Node000005"><a xlink:title=" ">
<path fill="none" stroke="#63b8ff" d="M466.34,-179.36C440.99,-173.69 412.2,-167.24 386.88,-161.58"/>
<polygon fill="#63b8ff" stroke="#63b8ff" points="465.71,-182.81 476.24,-181.57 467.24,-175.97 465.71,-182.81"/>
</a>
</g>
</g>
<!-- Node8 -->
<g id="Node000008" class="node">
<title>Node8</title>
<g id="a_Node000008"><a xlink:href="test__component__fusion_8cpp.html#ad717d3fcca492f6237e8e5f0e3455e4e" target="_top" xlink:title=" ">
<polygon fill="white" stroke="#666666" points="354,-108 283,-108 283,-89 354,-89 354,-108"/>
<text text-anchor="middle" x="318.5" y="-96" font-family="Helvetica,sans-Serif" font-size="10.00">TEST_CASE</text>
</a>
</g>
</g>
<!-- Node7&#45;&gt;Node8 -->
<g id="edge7_Node000007_Node000008" class="edge">
<title>Node7&#45;&gt;Node8</title>
<g id="a_edge7_Node000007_Node000008"><a xlink:title=" ">
<path fill="none" stroke="#63b8ff" d="M451.6,-100.35C417.74,-99.87 380.39,-99.35 354.06,-98.98"/>
<polygon fill="#63b8ff" stroke="#63b8ff" points="451.93,-103.85 461.98,-100.49 452.03,-96.85 451.93,-103.85"/>
</a>
</g>
</g>
<!-- Node10 -->
<g id="Node000010" class="node">
<title>Node10</title>
<g id="a_Node000010"><a xlink:href="namespacewmtk_1_1components_1_1adaptive__tessellation_1_1image.html#a7d050dc4705108dbea5c56147710eddd" target="_top" xlink:title=" ">
<polygon fill="white" stroke="#666666" points="398,-68 239,-68 239,-27 398,-27 398,-68"/>
<text text-anchor="start" x="247" y="-56" font-family="Helvetica,sans-Serif" font-size="10.00">wmtk::components::adaptive</text>
<text text-anchor="start" x="247" y="-45" font-family="Helvetica,sans-Serif" font-size="10.00">_tessellation::image::get</text>
<text text-anchor="middle" x="318.5" y="-34" font-family="Helvetica,sans-Serif" font-size="10.00">_bicubic_matrix</text>
</a>
</g>
</g>
<!-- Node9&#45;&gt;Node10 -->
<g id="edge9_Node000009_Node000010" class="edge">
<title>Node9&#45;&gt;Node10</title>
<g id="a_edge9_Node000009_Node000010"><a xlink:title=" ">
<path fill="none" stroke="#63b8ff" d="M445.19,-47.5C429.58,-47.5 413.44,-47.5 398.14,-47.5"/>
<polygon fill="#63b8ff" stroke="#63b8ff" points="445.35,-51 455.35,-47.5 445.35,-44 445.35,-51"/>
</a>
</g>
</g>
<!-- Node11 -->
<g id="Node000011" class="node">
<title>Node11</title>
<g id="a_Node000011"><a xlink:href="classwmtk_1_1components_1_1adaptive__tessellation_1_1image_1_1_image.html#a805fb862148a9d6bacac7674169747c6" target="_top" xlink:title=" ">
<polygon fill="white" stroke="#666666" points="188.5,-89.5 14.5,-89.5 14.5,-59.5 188.5,-59.5 188.5,-89.5"/>
<text text-anchor="start" x="22.5" y="-77.5" font-family="Helvetica,sans-Serif" font-size="10.00">wmtk::components::adaptive</text>
<text text-anchor="middle" x="101.5" y="-66.5" font-family="Helvetica,sans-Serif" font-size="10.00">_tessellation::image::Image::get</text>
</a>
</g>
</g>
<!-- Node10&#45;&gt;Node11 -->
<g id="edge10_Node000010_Node000011" class="edge">
<title>Node10&#45;&gt;Node11</title>
<g id="a_edge10_Node000010_Node000011"><a xlink:title=" ">
<path fill="none" stroke="#63b8ff" d="M228.92,-58.62C215.66,-60.29 202.01,-62 188.8,-63.66"/>
<polygon fill="#63b8ff" stroke="#63b8ff" points="229.48,-62.08 238.97,-57.36 228.61,-55.14 229.48,-62.08"/>
</a>
</g>
</g>
<!-- Node12 -->
<g id="Node000012" class="node">
<title>Node12</title>
<g id="a_Node000012"><a xlink:href="classwmtk_1_1components_1_1adaptive__tessellation_1_1image_1_1_sampling_bicubic.html#ad4c8cb374a3db09d362c6b4f14f92edc" target="_top" xlink:title=" ">
<polygon fill="white" stroke="#666666" points="203,-41 0,-41 0,0 203,0 203,-41"/>
<text text-anchor="start" x="8" y="-29" font-family="Helvetica,sans-Serif" font-size="10.00">wmtk::components::adaptive</text>
<text text-anchor="start" x="8" y="-18" font-family="Helvetica,sans-Serif" font-size="10.00">_tessellation::image::SamplingBicubic</text>
<text text-anchor="middle" x="101.5" y="-7" font-family="Helvetica,sans-Serif" font-size="10.00">::sample_T</text>
</a>
</g>
</g>
<!-- Node10&#45;&gt;Node12 -->
<g id="edge11_Node000010_Node000012" class="edge">
<title>Node10&#45;&gt;Node12</title>
<g id="a_edge11_Node000010_Node000012"><a xlink:title=" ">
<path fill="none" stroke="#63b8ff" d="M228.77,-36.36C220.33,-35.3 211.73,-34.22 203.2,-33.15"/>
<polygon fill="#63b8ff" stroke="#63b8ff" points="228.61,-39.86 238.97,-37.64 229.48,-32.92 228.61,-39.86"/>
</a>
</g>
</g>
</g>
</svg>

<g id="navigator" transform="translate(0 0)" fill="#404254">
  <rect fill="#f2f5e9" fill-opacity="0.5" stroke="#606060" stroke-width=".5" x="0" y="0" width="60" height="60"/>
  <use id="zoomplus" xlink:href="#zoomPlus" x="17" y="9" onmousedown="handleZoom(evt,'in')"/>
  <use id="zoomminus" xlink:href="#zoomMin" x="42" y="9" onmousedown="handleZoom(evt,'out')"/>
  <use id="reset" xlink:href="#resetDef" x="30" y="36" onmousedown="handleReset()"/>
   <use id="arrowup" xlink:href="#arrowUp" x="0" y="0" onmousedown="handlePan(0,-1)"/>
  <use id="arrowright" xlink:href="#arrowRight" x="0" y="0" onmousedown="handlePan(1,0)"/>
  <use id="arrowdown" xlink:href="#arrowDown" x="0" y="0" onmousedown="handlePan(0,1)"/>
  <use id="arrowleft" xlink:href="#arrowLeft" x="0" y="0" onmousedown="handlePan(-1,0)"/>
</g>
<svg viewBox="0 0 15 15" width="100%" height="30px" preserveAspectRatio="xMaxYMin meet">
 <g id="arrow_out" transform="scale(0.3 0.3)">
  <a xlink:href="namespacewmtk_a415d7a83177f8770f317416478c57cae_icgraph_org.svg" target="_base">
   <rect id="button" ry="5" rx="5" y="6" x="6" height="38" width="38"
        fill="#f2f5e9" fill-opacity="0.5" stroke="#606060" stroke-width="1.0"/>
   <path id="arrow"
     d="M 11.500037,31.436501 C 11.940474,20.09759 22.043105,11.32322 32.158766,21.979434 L 37.068811,17.246167 C 37.068811,17.246167 37.088388,32 37.088388,32 L 22.160133,31.978069 C 22.160133,31.978069 26.997745,27.140456 26.997745,27.140456 C 18.528582,18.264221 13.291696,25.230495 11.500037,31.436501 z"
     style="fill:#404040;"/>
  </a>
 </g>
</svg>

<style type='text/css'>
<![CDATA[
[data-mouse-over-selected='false'] { opacity: 0.7; }
[data-mouse-over-selected='true']  { opacity: 1.0; }
]]>
</style>
<script type="application/ecmascript"><![CDATA[
document.addEventListener('DOMContentLoaded', (event) => {
  highlightEdges();
  highlightAdjacentNodes();
});
]]></script>
</svg>
