<?xml version="1.0" encoding="UTF-8" standalone="no"?>
<!DOCTYPE svg PUBLIC "-//W3C//DTD SVG 1.1//EN"
 "http://www.w3.org/Graphics/SVG/1.1/DTD/svg11.dtd">
<!-- Generated by graphviz version 2.43.0 (0)
 -->
<!-- Title: wmtk::mesh_utils::set_matrix_attribute Pages: 1 -->
<svg width="857pt" height="613pt"
 viewBox="0.00 0.00 857.00 612.50" xmlns="http://www.w3.org/2000/svg" xmlns:xlink="http://www.w3.org/1999/xlink">
<g id="graph0" class="graph" transform="scale(1 1) rotate(0) translate(4 608.5)">
<title>wmtk::mesh_utils::set_matrix_attribute</title>
<!-- Node1 -->
<g id="Node000001" class="node">
<title>Node1</title>
<g id="a_Node000001"><a xlink:title=" ">
<polygon fill="#999999" stroke="#666666" points="849,-374.5 724,-374.5 724,-344.5 849,-344.5 849,-374.5"/>
<text text-anchor="start" x="732" y="-362.5" font-family="Helvetica,sans-Serif" font-size="10.00">wmtk::mesh_utils::set</text>
<text text-anchor="middle" x="786.5" y="-351.5" font-family="Helvetica,sans-Serif" font-size="10.00">_matrix_attribute</text>
</a>
</g>
</g>
<!-- Node2 -->
<g id="Node000002" class="node">
<title>Node2</title>
<g id="a_Node000002"><a xlink:href="namespacewmtk_1_1components_1_1internal.html#a06f1c0433aa3057a90d1e7829c851e72" target="_top" xlink:title=" ">
<polygon fill="white" stroke="#666666" points="670.5,-586.5 516.5,-586.5 516.5,-556.5 670.5,-556.5 670.5,-586.5"/>
<text text-anchor="start" x="524.5" y="-574.5" font-family="Helvetica,sans-Serif" font-size="10.00">wmtk::components::internal</text>
<text text-anchor="middle" x="593.5" y="-563.5" font-family="Helvetica,sans-Serif" font-size="10.00">::CDT_internal</text>
</a>
</g>
</g>
<!-- Node1&#45;&gt;Node2 -->
<g id="edge1_Node000001_Node000002" class="edge">
<title>Node1&#45;&gt;Node2</title>
<g id="a_edge1_Node000001_Node000002"><a xlink:title=" ">
<path fill="none" stroke="#63b8ff" d="M779.6,-384.51C768.71,-425.07 741.49,-504.96 688,-547.5 682.75,-551.67 676.86,-555.13 670.66,-557.99"/>
<polygon fill="#63b8ff" stroke="#63b8ff" points="783.04,-385.19 782.14,-374.63 776.26,-383.44 783.04,-385.19"/>
</a>
</g>
</g>
<!-- Node4 -->
<g id="Node000004" class="node">
<title>Node4</title>
<g id="a_Node000004"><a xlink:href="namespacewmtk_1_1components.html#a1ff40f72f5ddf56191e77808727c3730" target="_top" xlink:title=" ">
<polygon fill="white" stroke="#666666" points="688,-538 499,-538 499,-519 688,-519 688,-538"/>
<text text-anchor="middle" x="593.5" y="-526" font-family="Helvetica,sans-Serif" font-size="10.00">wmtk::components::delaunay_exec</text>
</a>
</g>
</g>
<!-- Node1&#45;&gt;Node4 -->
<g id="edge4_Node000001_Node000004" class="edge">
<title>Node1&#45;&gt;Node4</title>
<g id="a_edge4_Node000001_Node000004"><a xlink:title=" ">
<path fill="none" stroke="#63b8ff" d="M776.6,-384.57C763.07,-418.81 733.94,-479.49 688,-510.5 683.07,-513.83 677.67,-516.58 672.05,-518.85"/>
<polygon fill="#63b8ff" stroke="#63b8ff" points="780.01,-385.45 780.3,-374.86 773.47,-382.96 780.01,-385.45"/>
</a>
</g>
</g>
<!-- Node5 -->
<g id="Node000005" class="node">
<title>Node5</title>
<g id="a_Node000005"><a xlink:href="namespacewmtk_1_1components.html#a5a89b6c23c8338b3a90a304b368fb3a8" target="_top" xlink:title=" ">
<polygon fill="white" stroke="#666666" points="666.5,-501 520.5,-501 520.5,-482 666.5,-482 666.5,-501"/>
<text text-anchor="middle" x="593.5" y="-489" font-family="Helvetica,sans-Serif" font-size="10.00">wmtk::components::fusion</text>
</a>
</g>
</g>
<!-- Node1&#45;&gt;Node5 -->
<g id="edge5_Node000001_Node000005" class="edge">
<title>Node1&#45;&gt;Node5</title>
<g id="a_edge5_Node000001_Node000005"><a xlink:title=" ">
<path fill="none" stroke="#63b8ff" d="M770.47,-383.07C753.45,-407.83 723.42,-446.08 688,-467.5 677.53,-473.83 665.43,-478.5 653.48,-481.95"/>
<polygon fill="#63b8ff" stroke="#63b8ff" points="773.48,-384.87 776.14,-374.62 767.66,-380.97 773.48,-384.87"/>
</a>
</g>
</g>
<!-- Node6 -->
<g id="Node000006" class="node">
<title>Node6</title>
<g id="a_Node000006"><a xlink:href="test__component__fusion_8cpp.html#ad717d3fcca492f6237e8e5f0e3455e4e" target="_top" xlink:title=" ">
<polygon fill="white" stroke="#666666" points="414.5,-501 343.5,-501 343.5,-482 414.5,-482 414.5,-501"/>
<text text-anchor="middle" x="379" y="-489" font-family="Helvetica,sans-Serif" font-size="10.00">TEST_CASE</text>
</a>
</g>
</g>
<!-- Node1&#45;&gt;Node6 -->
<g id="edge33_Node000001_Node000006" class="edge">
<title>Node1&#45;&gt;Node6</title>
<g id="a_edge33_Node000001_Node000006"><a xlink:title=" ">
<path fill="none" stroke="#63b8ff" d="M763.45,-381.45C744.9,-398.61 716.84,-421.64 688,-434.5 663.23,-445.54 490.02,-473.99 414.77,-486.01"/>
<polygon fill="#63b8ff" stroke="#63b8ff" points="765.93,-383.92 770.79,-374.51 761.12,-378.84 765.93,-383.92"/>
</a>
</g>
</g>
<!-- Node7 -->
<g id="Node000007" class="node">
<title>Node7</title>
<g id="a_Node000007"><a xlink:href="namespacewmtk_1_1utils.html#a8d59b38c3560ad4f49865c212b854456" target="_top" xlink:title="input a triangle surface mesh, embed it into a regular grid and generate a tetmesh,...">
<polygon fill="white" stroke="#666666" points="665.5,-407 521.5,-407 521.5,-366 665.5,-366 665.5,-407"/>
<text text-anchor="start" x="529.5" y="-395" font-family="Helvetica,sans-Serif" font-size="10.00">wmtk::utils::generate</text>
<text text-anchor="start" x="529.5" y="-384" font-family="Helvetica,sans-Serif" font-size="10.00">_raw_tetmesh_from_input</text>
<text text-anchor="middle" x="593.5" y="-373" font-family="Helvetica,sans-Serif" font-size="10.00">_surface</text>
</a>
</g>
</g>
<!-- Node1&#45;&gt;Node7 -->
<g id="edge7_Node000001_Node000007" class="edge">
<title>Node1&#45;&gt;Node7</title>
<g id="a_edge7_Node000001_Node000007"><a xlink:title=" ">
<path fill="none" stroke="#63b8ff" d="M713.59,-369.66C697.91,-371.88 681.32,-374.23 665.66,-376.44"/>
<polygon fill="#63b8ff" stroke="#63b8ff" points="714.34,-373.09 723.75,-368.23 713.36,-366.16 714.34,-373.09"/>
</a>
</g>
</g>
<!-- Node10 -->
<g id="Node000010" class="node">
<title>Node10</title>
<g id="a_Node000010"><a xlink:href="namespacewmtk_1_1components_1_1procedural.html#ab9c00d6ba2d614ba26750c3c80c6502c" target="_top" xlink:title=" ">
<polygon fill="white" stroke="#666666" points="677.5,-347.5 509.5,-347.5 509.5,-317.5 677.5,-317.5 677.5,-347.5"/>
<text text-anchor="start" x="517.5" y="-335.5" font-family="Helvetica,sans-Serif" font-size="10.00">wmtk::components::procedural</text>
<text text-anchor="middle" x="593.5" y="-324.5" font-family="Helvetica,sans-Serif" font-size="10.00">::make_mesh</text>
</a>
</g>
</g>
<!-- Node1&#45;&gt;Node10 -->
<g id="edge12_Node000001_Node000010" class="edge">
<title>Node1&#45;&gt;Node10</title>
<g id="a_edge12_Node000001_Node000010"><a xlink:title=" ">
<path fill="none" stroke="#63b8ff" d="M713.58,-349.33C701.84,-347.67 689.59,-345.94 677.6,-344.25"/>
<polygon fill="#63b8ff" stroke="#63b8ff" points="713.36,-352.84 723.75,-350.77 714.34,-345.91 713.36,-352.84"/>
</a>
</g>
</g>
<!-- Node12 -->
<g id="Node000012" class="node">
<title>Node12</title>
<g id="a_Node000012"><a xlink:href="namespacewmtk_1_1components_1_1procedural.html#ad852baba2d5d7211ec55d766497089b3" target="_top" xlink:title=" ">
<polygon fill="white" stroke="#666666" points="677.5,-299.5 509.5,-299.5 509.5,-269.5 677.5,-269.5 677.5,-299.5"/>
<text text-anchor="start" x="517.5" y="-287.5" font-family="Helvetica,sans-Serif" font-size="10.00">wmtk::components::procedural</text>
<text text-anchor="middle" x="593.5" y="-276.5" font-family="Helvetica,sans-Serif" font-size="10.00">::make_mesh</text>
</a>
</g>
</g>
<!-- Node1&#45;&gt;Node12 -->
<g id="edge14_Node000001_Node000012" class="edge">
<title>Node1&#45;&gt;Node12</title>
<g id="a_edge14_Node000001_Node000012"><a xlink:title=" ">
<path fill="none" stroke="#63b8ff" d="M751.74,-339.37C733.37,-329.06 709.97,-316.94 688,-308.5 679.4,-305.2 670.17,-302.2 660.99,-299.54"/>
<polygon fill="#63b8ff" stroke="#63b8ff" points="750.17,-342.51 760.59,-344.42 753.64,-336.42 750.17,-342.51"/>
</a>
</g>
</g>
<!-- Node13 -->
<g id="Node000013" class="node">
<title>Node13</title>
<g id="a_Node000013"><a xlink:href="namespacewmtk_1_1components_1_1internal.html#a7e292eba37fd37581ede0aa29943c3db" target="_top" xlink:title="Build a tagged triangle mesh from a greyscale image.">
<polygon fill="white" stroke="#666666" points="674,-233.5 513,-233.5 513,-203.5 674,-203.5 674,-233.5"/>
<text text-anchor="start" x="521" y="-221.5" font-family="Helvetica,sans-Serif" font-size="10.00">wmtk::components::internal</text>
<text text-anchor="middle" x="593.5" y="-210.5" font-family="Helvetica,sans-Serif" font-size="10.00">::mesh_with_tag_from_image</text>
</a>
</g>
</g>
<!-- Node1&#45;&gt;Node13 -->
<g id="edge15_Node000001_Node000013" class="edge">
<title>Node1&#45;&gt;Node13</title>
<g id="a_edge15_Node000001_Node000013"><a xlink:title=" ">
<path fill="none" stroke="#63b8ff" d="M767.28,-336.58C749.04,-314.8 719.26,-282.24 688,-260.5 672.37,-249.63 653.47,-240.51 636.76,-233.57"/>
<polygon fill="#63b8ff" stroke="#63b8ff" points="764.62,-338.86 773.68,-344.36 770.02,-334.41 764.62,-338.86"/>
</a>
</g>
</g>
<!-- Node14 -->
<g id="Node000014" class="node">
<title>Node14</title>
<g id="a_Node000014"><a xlink:href="classwmtk_1_1_msh_reader.html#afd780afbbde030daa41a17137bc37085" target="_top" xlink:title=" ">
<polygon fill="white" stroke="#666666" points="660,-185 527,-185 527,-166 660,-166 660,-185"/>
<text text-anchor="middle" x="593.5" y="-173" font-family="Helvetica,sans-Serif" font-size="10.00">wmtk::MshReader::read</text>
</a>
</g>
</g>
<!-- Node1&#45;&gt;Node14 -->
<g id="edge17_Node000001_Node000014" class="edge">
<title>Node1&#45;&gt;Node14</title>
<g id="a_edge17_Node000001_Node000014"><a xlink:title=" ">
<path fill="none" stroke="#63b8ff" d="M777.95,-334.38C765.52,-297.54 737.09,-229.46 688,-194.5 679.77,-188.64 670.15,-184.49 660.28,-181.58"/>
<polygon fill="#63b8ff" stroke="#63b8ff" points="774.76,-335.88 781.17,-344.31 781.42,-333.72 774.76,-335.88"/>
</a>
</g>
</g>
<!-- Node28 -->
<g id="Node000028" class="node">
<title>Node28</title>
<g id="a_Node000028"><a xlink:href="namespacewmtk_1_1components.html#a1703c2264e52b16281828951556f8b11" target="_top" xlink:title=" ">
<polygon fill="white" stroke="#666666" points="656.5,-147.5 530.5,-147.5 530.5,-117.5 656.5,-117.5 656.5,-147.5"/>
<text text-anchor="start" x="538.5" y="-135.5" font-family="Helvetica,sans-Serif" font-size="10.00">wmtk::components::to</text>
<text text-anchor="middle" x="593.5" y="-124.5" font-family="Helvetica,sans-Serif" font-size="10.00">_points</text>
</a>
</g>
</g>
<!-- Node1&#45;&gt;Node28 -->
<g id="edge34_Node000001_Node000028" class="edge">
<title>Node1&#45;&gt;Node28</title>
<g id="a_edge34_Node000001_Node000028"><a xlink:title=" ">
<path fill="none" stroke="#63b8ff" d="M780.54,-334.55C770.69,-291.72 744.56,-204.3 688,-157.5 679.07,-150.11 668.16,-144.89 656.98,-141.2"/>
<polygon fill="#63b8ff" stroke="#63b8ff" points="777.14,-335.41 782.7,-344.43 783.98,-333.91 777.14,-335.41"/>
</a>
</g>
</g>
<!-- Node2&#45;&gt;Node2 -->
<g id="edge3_Node000002_Node000002" class="edge">
<title>Node2&#45;&gt;Node2</title>
<g id="a_edge3_Node000002_Node000002"><a xlink:title=" ">
<path fill="none" stroke="#63b8ff" d="M627.11,-597.1C622.51,-601.47 611.31,-604.5 593.5,-604.5 563.5,-604.5 552.25,-595.91 559.75,-586.78"/>
<polygon fill="#63b8ff" stroke="#63b8ff" points="630.61,-596.82 627.25,-586.78 623.61,-596.73 630.61,-596.82"/>
</a>
</g>
</g>
<!-- Node3 -->
<g id="Node000003" class="node">
<title>Node3</title>
<g id="a_Node000003"><a xlink:href="namespacewmtk_1_1components.html#a7bf4c4516032a63182e16035aeacceb4" target="_top" xlink:title=" ">
<polygon fill="white" stroke="#666666" points="447.5,-581 310.5,-581 310.5,-562 447.5,-562 447.5,-581"/>
<text text-anchor="middle" x="379" y="-569" font-family="Helvetica,sans-Serif" font-size="10.00">wmtk::components::CDT</text>
</a>
</g>
</g>
<!-- Node2&#45;&gt;Node3 -->
<g id="edge2_Node000002_Node000003" class="edge">
<title>Node2&#45;&gt;Node3</title>
<g id="a_edge2_Node000002_Node000003"><a xlink:title=" ">
<path fill="none" stroke="#63b8ff" d="M506.3,-571.5C486.82,-571.5 466.42,-571.5 447.83,-571.5"/>
<polygon fill="#63b8ff" stroke="#63b8ff" points="506.38,-575 516.38,-571.5 506.38,-568 506.38,-575"/>
</a>
</g>
</g>
<!-- Node5&#45;&gt;Node6 -->
<g id="edge6_Node000005_Node000006" class="edge">
<title>Node5&#45;&gt;Node6</title>
<g id="a_edge6_Node000005_Node000006"><a xlink:title=" ">
<path fill="none" stroke="#63b8ff" d="M510.07,-491.5C476.86,-491.5 440.38,-491.5 414.52,-491.5"/>
<polygon fill="#63b8ff" stroke="#63b8ff" points="510.26,-495 520.26,-491.5 510.26,-488 510.26,-495"/>
</a>
</g>
</g>
<!-- Node7&#45;&gt;Node7 -->
<g id="edge8_Node000007_Node000007" class="edge">
<title>Node7&#45;&gt;Node7</title>
<g id="a_edge8_Node000007_Node000007"><a xlink:title=" ">
<path fill="none" stroke="#63b8ff" d="M626.53,-416.96C621.62,-421.74 610.61,-425 593.5,-425 566.12,-425 554.36,-416.65 558.21,-407.1"/>
<polygon fill="#63b8ff" stroke="#63b8ff" points="629.97,-417.63 628.79,-407.1 623.15,-416.06 629.97,-417.63"/>
</a>
</g>
</g>
<!-- Node8 -->
<g id="Node000008" class="node">
<title>Node8</title>
<g id="a_Node000008"><a xlink:href="namespacewmtk_1_1utils.html#a4ea0d7c148b4066c6692a8e31c7b7b7a" target="_top" xlink:title=" ">
<polygon fill="white" stroke="#666666" points="455.5,-446 302.5,-446 302.5,-405 455.5,-405 455.5,-446"/>
<text text-anchor="start" x="310.5" y="-434" font-family="Helvetica,sans-Serif" font-size="10.00">wmtk::utils::generate</text>
<text text-anchor="start" x="310.5" y="-423" font-family="Helvetica,sans-Serif" font-size="10.00">_raw_tetmesh_with_surface</text>
<text text-anchor="middle" x="379" y="-412" font-family="Helvetica,sans-Serif" font-size="10.00">_from_input</text>
</a>
</g>
</g>
<!-- Node7&#45;&gt;Node8 -->
<g id="edge9_Node000007_Node000008" class="edge">
<title>Node7&#45;&gt;Node8</title>
<g id="a_edge9_Node000007_Node000008"><a xlink:title=" ">
<path fill="none" stroke="#63b8ff" d="M511.41,-401.38C493.12,-404.74 473.78,-408.29 455.73,-411.6"/>
<polygon fill="#63b8ff" stroke="#63b8ff" points="512.24,-404.79 521.45,-399.54 510.98,-397.9 512.24,-404.79"/>
</a>
</g>
</g>
<!-- Node9 -->
<g id="Node000009" class="node">
<title>Node9</title>
<g id="a_Node000009"><a xlink:href="namespacewmtk_1_1components.html#a9d6d11e3b7ba03911492ecfc79622247" target="_top" xlink:title=" ">
<polygon fill="white" stroke="#666666" points="456,-386.5 302,-386.5 302,-356.5 456,-356.5 456,-386.5"/>
<text text-anchor="start" x="310" y="-374.5" font-family="Helvetica,sans-Serif" font-size="10.00">wmtk::components::triangle</text>
<text text-anchor="middle" x="379" y="-363.5" font-family="Helvetica,sans-Serif" font-size="10.00">_insertion</text>
</a>
</g>
</g>
<!-- Node7&#45;&gt;Node9 -->
<g id="edge11_Node000007_Node000009" class="edge">
<title>Node7&#45;&gt;Node9</title>
<g id="a_edge11_Node000007_Node000009"><a xlink:title=" ">
<path fill="none" stroke="#63b8ff" d="M511.47,-380.78C493.29,-379.5 474.06,-378.14 456.09,-376.87"/>
<polygon fill="#63b8ff" stroke="#63b8ff" points="511.22,-384.27 521.45,-381.48 511.72,-377.29 511.22,-384.27"/>
</a>
</g>
</g>
<!-- Node8&#45;&gt;Node8 -->
<g id="edge10_Node000008_Node000008" class="edge">
<title>Node8&#45;&gt;Node8</title>
<g id="a_edge10_Node000008_Node000008"><a xlink:title=" ">
<path fill="none" stroke="#63b8ff" d="M412.72,-455.96C407.71,-460.74 396.47,-464 379,-464 351.05,-464 339.05,-455.65 342.98,-446.1"/>
<polygon fill="#63b8ff" stroke="#63b8ff" points="416.16,-456.63 415.02,-446.1 409.34,-455.04 416.16,-456.63"/>
</a>
</g>
</g>
<!-- Node11 -->
<g id="Node000011" class="node">
<title>Node11</title>
<g id="a_Node000011"><a xlink:href="namespacewmtk_1_1components_1_1procedural.html#ae65f7700d6eefc4c80f28595d3bbef66" target="_top" xlink:title=" ">
<polygon fill="white" stroke="#666666" points="463,-338.5 295,-338.5 295,-308.5 463,-308.5 463,-338.5"/>
<text text-anchor="start" x="303" y="-326.5" font-family="Helvetica,sans-Serif" font-size="10.00">wmtk::components::procedural</text>
<text text-anchor="middle" x="379" y="-315.5" font-family="Helvetica,sans-Serif" font-size="10.00">::make_mesh</text>
</a>
</g>
</g>
<!-- Node10&#45;&gt;Node11 -->
<g id="edge13_Node000010_Node000011" class="edge">
<title>Node10&#45;&gt;Node11</title>
<g id="a_edge13_Node000010_Node000011"><a xlink:title=" ">
<path fill="none" stroke="#63b8ff" d="M499.34,-328.55C487.25,-328.04 474.93,-327.52 463.01,-327.02"/>
<polygon fill="#63b8ff" stroke="#63b8ff" points="499.29,-332.06 509.43,-328.98 499.59,-325.06 499.29,-332.06"/>
</a>
</g>
</g>
<!-- Node13&#45;&gt;Node13 -->
<g id="edge16_Node000013_Node000013" class="edge">
<title>Node13&#45;&gt;Node13</title>
<g id="a_edge16_Node000013_Node000013"><a xlink:title=" ">
<path fill="none" stroke="#63b8ff" d="M627.11,-244.1C622.51,-248.47 611.31,-251.5 593.5,-251.5 563.5,-251.5 552.25,-242.91 559.75,-233.78"/>
<polygon fill="#63b8ff" stroke="#63b8ff" points="630.61,-243.82 627.25,-233.78 623.61,-243.73 630.61,-243.82"/>
</a>
</g>
</g>
<!-- Node15 -->
<g id="Node000015" class="node">
<title>Node15</title>
<g id="a_Node000015"><a xlink:href="namespacewmtk.html#adb1edeb39c4e0ef98ecc5afeed46891c" target="_top" xlink:title=" ">
<polygon fill="white" stroke="#666666" points="431,-185 327,-185 327,-166 431,-166 431,-185"/>
<text text-anchor="middle" x="379" y="-173" font-family="Helvetica,sans-Serif" font-size="10.00">wmtk::read_mesh</text>
</a>
</g>
</g>
<!-- Node14&#45;&gt;Node15 -->
<g id="edge18_Node000014_Node000015" class="edge">
<title>Node14&#45;&gt;Node15</title>
<g id="a_edge18_Node000014_Node000015"><a xlink:title=" ">
<path fill="none" stroke="#63b8ff" d="M516.47,-175.5C488.21,-175.5 456.84,-175.5 431.32,-175.5"/>
<polygon fill="#63b8ff" stroke="#63b8ff" points="516.72,-179 526.72,-175.5 516.72,-172 516.72,-179"/>
</a>
</g>
</g>
<!-- Node16 -->
<g id="Node000016" class="node">
<title>Node16</title>
<g id="a_Node000016"><a xlink:href="classwmtk_1_1io_1_1_cache.html#a6d9002c95cb93e5e4e68eaa6b5083f8c" target="_top" xlink:title="Compare two caches for equality.">
<polygon fill="white" stroke="#666666" points="250,-277 116,-277 116,-258 250,-258 250,-277"/>
<text text-anchor="middle" x="183" y="-265" font-family="Helvetica,sans-Serif" font-size="10.00">wmtk::io::Cache::equals</text>
</a>
</g>
</g>
<!-- Node15&#45;&gt;Node16 -->
<g id="edge19_Node000015_Node000016" class="edge">
<title>Node15&#45;&gt;Node16</title>
<g id="a_edge19_Node000015_Node000016"><a xlink:title=" ">
<path fill="none" stroke="#63b8ff" d="M348.38,-189.55C308.46,-208.48 238.44,-241.68 204.12,-257.96"/>
<polygon fill="#63b8ff" stroke="#63b8ff" points="350.07,-192.62 357.61,-185.17 347.07,-186.29 350.07,-192.62"/>
</a>
</g>
</g>
<!-- Node18 -->
<g id="Node000018" class="node">
<title>Node18</title>
<g id="a_Node000018"><a xlink:href="namespacewmtk_1_1components.html#a0385d7ace50dd77deab3d479b734435d" target="_top" xlink:title=" ">
<polygon fill="white" stroke="#666666" points="253.5,-185 112.5,-185 112.5,-166 253.5,-166 253.5,-185"/>
<text text-anchor="middle" x="183" y="-173" font-family="Helvetica,sans-Serif" font-size="10.00">wmtk::components::input</text>
</a>
</g>
</g>
<!-- Node15&#45;&gt;Node18 -->
<g id="edge21_Node000015_Node000018" class="edge">
<title>Node15&#45;&gt;Node18</title>
<g id="a_edge21_Node000015_Node000018"><a xlink:title=" ">
<path fill="none" stroke="#63b8ff" d="M316.57,-175.5C296.61,-175.5 274.32,-175.5 253.79,-175.5"/>
<polygon fill="#63b8ff" stroke="#63b8ff" points="316.78,-179 326.78,-175.5 316.77,-172 316.78,-179"/>
</a>
</g>
</g>
<!-- Node27 -->
<g id="Node000027" class="node">
<title>Node27</title>
<g id="a_Node000027"><a xlink:href="classwmtk_1_1io_1_1_cached_multi_mesh.html#aa33ef463beccbfc46f941380e988765c" target="_top" xlink:title=" ">
<polygon fill="white" stroke="#666666" points="259,-129.5 107,-129.5 107,-99.5 259,-99.5 259,-129.5"/>
<text text-anchor="start" x="115" y="-117.5" font-family="Helvetica,sans-Serif" font-size="10.00">wmtk::io::CachedMultiMesh</text>
<text text-anchor="middle" x="183" y="-106.5" font-family="Helvetica,sans-Serif" font-size="10.00">::load</text>
</a>
</g>
</g>
<!-- Node15&#45;&gt;Node27 -->
<g id="edge31_Node000015_Node000027" class="edge">
<title>Node15&#45;&gt;Node27</title>
<g id="a_edge31_Node000015_Node000027"><a xlink:title=" ">
<path fill="none" stroke="#63b8ff" d="M338.13,-162.96C307.3,-153.27 264.5,-139.81 231.83,-129.54"/>
<polygon fill="#63b8ff" stroke="#63b8ff" points="337.1,-166.31 347.69,-165.97 339.2,-159.63 337.1,-166.31"/>
</a>
</g>
</g>
<!-- Node17 -->
<g id="Node000017" class="node">
<title>Node17</title>
<g id="a_Node000017"><a xlink:href="test__component__import__cache_8cpp.html#a081b8f9743b3281709466fa4850cfb84" target="_top" xlink:title=" ">
<polygon fill="white" stroke="#666666" points="71,-315 0,-315 0,-296 71,-296 71,-315"/>
<text text-anchor="middle" x="35.5" y="-303" font-family="Helvetica,sans-Serif" font-size="10.00">TEST_CASE</text>
</a>
</g>
</g>
<!-- Node16&#45;&gt;Node17 -->
<g id="edge20_Node000016_Node000017" class="edge">
<title>Node16&#45;&gt;Node17</title>
<g id="a_edge20_Node000016_Node000017"><a xlink:title=" ">
<path fill="none" stroke="#63b8ff" d="M135.36,-279.68C114.53,-285.12 90.4,-291.42 71.2,-296.44"/>
<polygon fill="#63b8ff" stroke="#63b8ff" points="136.49,-283 145.28,-277.09 134.72,-276.23 136.49,-283"/>
</a>
</g>
</g>
<!-- Node18&#45;&gt;Node17 -->
<g id="edge23_Node000018_Node000017" class="edge">
<title>Node18&#45;&gt;Node17</title>
<g id="a_edge23_Node000018_Node000017"><a xlink:title=" ">
<path fill="none" stroke="#63b8ff" d="M164.43,-192.51C149.12,-207.4 126.41,-229.7 107,-249.5 90.72,-266.12 89.57,-273.48 71,-287.5 66.9,-290.59 62.2,-293.44 57.61,-295.91"/>
<polygon fill="#63b8ff" stroke="#63b8ff" points="166.97,-194.92 171.7,-185.45 162.09,-189.9 166.97,-194.92"/>
</a>
</g>
</g>
<!-- Node19 -->
<g id="Node000019" class="node">
<title>Node19</title>
<g id="a_Node000019"><a xlink:href="test__component__export__cache_8cpp.html#abcda20b0d7549011759e21e6f7401e27" target="_top" xlink:title=" ">
<polygon fill="white" stroke="#666666" points="71,-278 0,-278 0,-259 71,-259 71,-278"/>
<text text-anchor="middle" x="35.5" y="-266" font-family="Helvetica,sans-Serif" font-size="10.00">TEST_CASE</text>
</a>
</g>
</g>
<!-- Node18&#45;&gt;Node19 -->
<g id="edge22_Node000018_Node000019" class="edge">
<title>Node18&#45;&gt;Node19</title>
<g id="a_edge22_Node000018_Node000019"><a xlink:title=" ">
<path fill="none" stroke="#63b8ff" d="M160.71,-190.95C138.7,-206.66 103.13,-231.35 71,-250.5 66.13,-253.41 60.74,-256.34 55.69,-258.98"/>
<polygon fill="#63b8ff" stroke="#63b8ff" points="162.91,-193.68 168.99,-185 158.82,-187.99 162.91,-193.68"/>
</a>
</g>
</g>
<!-- Node20 -->
<g id="Node000020" class="node">
<title>Node20</title>
<g id="a_Node000020"><a xlink:href="test__component__isotropic__remeshing_8cpp.html#a64dc4992576434e79fdb0838f9092ab8" target="_top" xlink:title=" ">
<polygon fill="white" stroke="#666666" points="71,-241 0,-241 0,-222 71,-222 71,-241"/>
<text text-anchor="middle" x="35.5" y="-229" font-family="Helvetica,sans-Serif" font-size="10.00">TEST_CASE</text>
</a>
</g>
</g>
<!-- Node18&#45;&gt;Node20 -->
<g id="edge24_Node000018_Node000020" class="edge">
<title>Node18&#45;&gt;Node20</title>
<g id="a_edge24_Node000018_Node000020"><a xlink:title=" ">
<path fill="none" stroke="#63b8ff" d="M147.32,-188.85C120.79,-199.06 84.85,-212.89 61.19,-222"/>
<polygon fill="#63b8ff" stroke="#63b8ff" points="148.91,-191.99 156.99,-185.13 146.4,-185.45 148.91,-191.99"/>
</a>
</g>
</g>
<!-- Node21 -->
<g id="Node000021" class="node">
<title>Node21</title>
<g id="a_Node000021"><a xlink:href="test__component__mesh__info_8cpp.html#ae25bd2a8d9e0eab8fb1941fed8422302" target="_top" xlink:title=" ">
<polygon fill="white" stroke="#666666" points="71,-204 0,-204 0,-185 71,-185 71,-204"/>
<text text-anchor="middle" x="35.5" y="-192" font-family="Helvetica,sans-Serif" font-size="10.00">TEST_CASE</text>
</a>
</g>
</g>
<!-- Node18&#45;&gt;Node21 -->
<g id="edge25_Node000018_Node000021" class="edge">
<title>Node18&#45;&gt;Node21</title>
<g id="a_edge25_Node000018_Node000021"><a xlink:title=" ">
<path fill="none" stroke="#63b8ff" d="M102.19,-185.92C91.28,-187.35 80.59,-188.74 71.1,-189.98"/>
<polygon fill="#63b8ff" stroke="#63b8ff" points="102.77,-189.38 112.23,-184.61 101.86,-182.43 102.77,-189.38"/>
</a>
</g>
</g>
<!-- Node22 -->
<g id="Node000022" class="node">
<title>Node22</title>
<g id="a_Node000022"><a xlink:href="test__component__output_8cpp.html#a9cbc10082dfd7713ea795808bc50b513" target="_top" xlink:title=" ">
<polygon fill="white" stroke="#666666" points="71,-167 0,-167 0,-148 71,-148 71,-167"/>
<text text-anchor="middle" x="35.5" y="-155" font-family="Helvetica,sans-Serif" font-size="10.00">TEST_CASE</text>
</a>
</g>
</g>
<!-- Node18&#45;&gt;Node22 -->
<g id="edge26_Node000018_Node000022" class="edge">
<title>Node18&#45;&gt;Node22</title>
<g id="a_edge26_Node000018_Node000022"><a xlink:title=" ">
<path fill="none" stroke="#63b8ff" d="M102.19,-165.63C91.28,-164.28 80.59,-162.95 71.1,-161.78"/>
<polygon fill="#63b8ff" stroke="#63b8ff" points="101.88,-169.11 112.23,-166.87 102.74,-162.17 101.88,-169.11"/>
</a>
</g>
</g>
<!-- Node23 -->
<g id="Node000023" class="node">
<title>Node23</title>
<g id="a_Node000023"><a xlink:href="test__component__isotropic__remeshing_8cpp.html#ab3fcea88943daf212aeeda03eb0baa8b" target="_top" xlink:title=" ">
<polygon fill="white" stroke="#666666" points="71,-130 0,-130 0,-111 71,-111 71,-130"/>
<text text-anchor="middle" x="35.5" y="-118" font-family="Helvetica,sans-Serif" font-size="10.00">TEST_CASE</text>
</a>
</g>
</g>
<!-- Node18&#45;&gt;Node23 -->
<g id="edge27_Node000018_Node000023" class="edge">
<title>Node18&#45;&gt;Node23</title>
<g id="a_edge27_Node000018_Node000023"><a xlink:title=" ">
<path fill="none" stroke="#63b8ff" d="M127.37,-163.19C120.44,-161.18 113.5,-158.95 107,-156.5 96.65,-152.6 71.43,-139.37 54.14,-130.08"/>
<polygon fill="#63b8ff" stroke="#63b8ff" points="126.9,-166.69 137.47,-165.97 128.76,-159.94 126.9,-166.69"/>
</a>
</g>
</g>
<!-- Node24 -->
<g id="Node000024" class="node">
<title>Node24</title>
<g id="a_Node000024"><a xlink:href="test__component__isotropic__remeshing_8cpp.html#aceca2caa1612565bd919bd8cf0ea0232" target="_top" xlink:title=" ">
<polygon fill="white" stroke="#666666" points="71,-93 0,-93 0,-74 71,-74 71,-93"/>
<text text-anchor="middle" x="35.5" y="-81" font-family="Helvetica,sans-Serif" font-size="10.00">TEST_CASE</text>
</a>
</g>
</g>
<!-- Node18&#45;&gt;Node24 -->
<g id="edge28_Node000018_Node000024" class="edge">
<title>Node18&#45;&gt;Node24</title>
<g id="a_edge28_Node000018_Node000024"><a xlink:title=" ">
<path fill="none" stroke="#63b8ff" d="M115.7,-161.74C112.66,-160.18 109.74,-158.44 107,-156.5 83.45,-139.85 92.24,-122.02 71,-102.5 67.07,-98.89 62.34,-95.72 57.65,-93.05"/>
<polygon fill="#63b8ff" stroke="#63b8ff" points="114.56,-165.06 125.12,-165.92 117.4,-158.67 114.56,-165.06"/>
</a>
</g>
</g>
<!-- Node25 -->
<g id="Node000025" class="node">
<title>Node25</title>
<g id="a_Node000025"><a xlink:href="test__component__isotropic__remeshing_8cpp.html#adf1e479866f5fbf4faa9038ece31a877" target="_top" xlink:title=" ">
<polygon fill="white" stroke="#666666" points="71,-56 0,-56 0,-37 71,-37 71,-56"/>
<text text-anchor="middle" x="35.5" y="-44" font-family="Helvetica,sans-Serif" font-size="10.00">TEST_CASE</text>
</a>
</g>
</g>
<!-- Node18&#45;&gt;Node25 -->
<g id="edge29_Node000018_Node000025" class="edge">
<title>Node18&#45;&gt;Node25</title>
<g id="a_edge29_Node000018_Node000025"><a xlink:title=" ">
<path fill="none" stroke="#63b8ff" d="M112.59,-160.79C110.63,-159.48 108.76,-158.05 107,-156.5 74.33,-127.78 99.75,-98.14 71,-65.5 67.75,-61.81 63.59,-58.69 59.31,-56.11"/>
<polygon fill="#63b8ff" stroke="#63b8ff" points="111.21,-164.03 121.65,-165.85 114.62,-157.91 111.21,-164.03"/>
</a>
</g>
</g>
<!-- Node26 -->
<g id="Node000026" class="node">
<title>Node26</title>
<g id="a_Node000026"><a xlink:href="test__component__wildmeshing_8cpp.html#a219d81c90b83b8e8c21801a6bba773cc" target="_top" xlink:title=" ">
<polygon fill="white" stroke="#666666" points="71,-19 0,-19 0,0 71,0 71,-19"/>
<text text-anchor="middle" x="35.5" y="-7" font-family="Helvetica,sans-Serif" font-size="10.00">TEST_CASE</text>
</a>
</g>
</g>
<!-- Node18&#45;&gt;Node26 -->
<g id="edge30_Node000018_Node000026" class="edge">
<title>Node18&#45;&gt;Node26</title>
<g id="a_edge30_Node000018_Node000026"><a xlink:title=" ">
<path fill="none" stroke="#63b8ff" d="M111.7,-160.52C110.05,-159.28 108.48,-157.94 107,-156.5 64.41,-114.92 108.48,-73.75 71,-27.5 68.28,-24.14 64.76,-21.34 61.02,-19.02"/>
<polygon fill="#63b8ff" stroke="#63b8ff" points="110.14,-163.68 120.49,-165.95 113.82,-157.72 110.14,-163.68"/>
</a>
</g>
</g>
<!-- Node27&#45;&gt;Node27 -->
<g id="edge32_Node000027_Node000027" class="edge">
<title>Node27&#45;&gt;Node27</title>
<g id="a_edge32_Node000027_Node000027"><a xlink:title=" ">
<path fill="none" stroke="#63b8ff" d="M208.56,-140.1C205.06,-144.47 196.54,-147.5 183,-147.5 160.19,-147.5 151.63,-138.91 157.34,-129.78"/>
<polygon fill="#63b8ff" stroke="#63b8ff" points="212.06,-139.81 208.66,-129.78 205.06,-139.74 212.06,-139.81"/>
</a>
</g>
</g>
</g>
</svg>
