<?xml version="1.0" encoding="UTF-8" standalone="no"?>
<!DOCTYPE svg PUBLIC "-//W3C//DTD SVG 1.1//EN"
 "http://www.w3.org/Graphics/SVG/1.1/DTD/svg11.dtd">
<!-- Generated by graphviz version 2.43.0 (0)
 -->
<!-- Title: wmtk::simplex::k_ring Pages: 1 -->
<svg width="1617pt" height="559pt"
 viewBox="0.00 0.00 1617.00 559.00" xmlns="http://www.w3.org/2000/svg" xmlns:xlink="http://www.w3.org/1999/xlink">
<g id="graph0" class="graph" transform="scale(1 1) rotate(0) translate(4 555)">
<title>wmtk::simplex::k_ring</title>
<!-- Node1 -->
<g id="Node000001" class="node">
<title>Node1</title>
<g id="a_Node000001"><a xlink:title=" ">
<polygon fill="#999999" stroke="#666666" points="125,-406.5 0,-406.5 0,-387.5 125,-387.5 125,-406.5"/>
<text text-anchor="middle" x="62.5" y="-394.5" font-family="Helvetica,sans-Serif" font-size="10.00">wmtk::simplex::k_ring</text>
</a>
</g>
</g>
<!-- Node2 -->
<g id="Node000002" class="node">
<title>Node2</title>
<g id="a_Node000002"><a xlink:href="classwmtk_1_1simplex_1_1_simplex_collection.html#a1e7079b3b75f70dd28c524556cab76cf" target="_top" xlink:title="Add simplex to the collection.">
<polygon fill="white" stroke="#666666" points="1355,-90.5 1147,-90.5 1147,-71.5 1355,-71.5 1355,-90.5"/>
<text text-anchor="middle" x="1251" y="-78.5" font-family="Helvetica,sans-Serif" font-size="10.00">wmtk::simplex::SimplexCollection::add</text>
</a>
</g>
</g>
<!-- Node1&#45;&gt;Node2 -->
<g id="edge1_Node000001_Node000002" class="edge">
<title>Node1&#45;&gt;Node2</title>
<g id="a_edge1_Node000001_Node000002"><a xlink:title=" ">
<path fill="none" stroke="#63b8ff" d="M65.92,-387.19C81.65,-326.05 175.13,0 379.5,0 379.5,0 379.5,0 800,0 939.09,0 975.13,-5.21 1111,-35 1147.93,-43.1 1188.87,-57.31 1216.69,-67.8"/>
<polygon fill="#63b8ff" stroke="#63b8ff" points="1215.73,-71.18 1226.32,-71.48 1218.22,-64.64 1215.73,-71.18"/>
</a>
</g>
</g>
<!-- Node3 -->
<g id="Node000003" class="node">
<title>Node3</title>
<g id="a_Node000003"><a xlink:href="namespacewmtk_1_1simplex.html#a3260444c136dbe145679b762c52f6a16" target="_top" xlink:title=" ">
<polygon fill="white" stroke="#666666" points="274,-294.5 161,-294.5 161,-275.5 274,-275.5 274,-294.5"/>
<text text-anchor="middle" x="217.5" y="-282.5" font-family="Helvetica,sans-Serif" font-size="10.00">wmtk::simplex::link</text>
</a>
</g>
</g>
<!-- Node1&#45;&gt;Node3 -->
<g id="edge2_Node000001_Node000003" class="edge">
<title>Node1&#45;&gt;Node3</title>
<g id="a_edge2_Node000001_Node000003"><a xlink:title=" ">
<path fill="none" stroke="#63b8ff" d="M76.54,-387.45C102.97,-368.11 163.02,-324.15 195.2,-300.59"/>
<polygon fill="#63b8ff" stroke="#63b8ff" points="197.49,-303.26 203.49,-294.52 193.35,-297.61 197.49,-303.26"/>
</a>
</g>
</g>
<!-- Node14 -->
<g id="Node000014" class="node">
<title>Node14</title>
<g id="a_Node000014"><a xlink:href="classwmtk_1_1simplex_1_1_simplex_collection.html#a3c5684abe23553010bb7f87840e9518d" target="_top" xlink:title="Return const reference to the simplex vector.">
<polygon fill="white" stroke="#666666" points="891,-485 707,-485 707,-455 891,-455 891,-485"/>
<text text-anchor="start" x="715" y="-473" font-family="Helvetica,sans-Serif" font-size="10.00">wmtk::simplex::SimplexCollection</text>
<text text-anchor="middle" x="799" y="-462" font-family="Helvetica,sans-Serif" font-size="10.00">::simplex_vector</text>
</a>
</g>
</g>
<!-- Node1&#45;&gt;Node14 -->
<g id="edge35_Node000001_Node000014" class="edge">
<title>Node1&#45;&gt;Node14</title>
<g id="a_edge35_Node000001_Node000014"><a xlink:title=" ">
<path fill="none" stroke="#63b8ff" d="M125.17,-403.13C251.8,-415.71 542.18,-444.57 696.79,-459.94"/>
<polygon fill="#63b8ff" stroke="#63b8ff" points="696.48,-463.43 706.77,-460.93 697.17,-456.46 696.48,-463.43"/>
</a>
</g>
</g>
<!-- Node15 -->
<g id="Node000015" class="node">
<title>Node15</title>
<g id="a_Node000015"><a xlink:href="classwmtk_1_1simplex_1_1_simplex_collection.html#ab318c99d54327383ff1b985bed043f3a" target="_top" xlink:title="Sort simplex vector and remove duplicates.">
<polygon fill="white" stroke="#666666" points="1111,-485 927,-485 927,-455 1111,-455 1111,-485"/>
<text text-anchor="start" x="935" y="-473" font-family="Helvetica,sans-Serif" font-size="10.00">wmtk::simplex::SimplexCollection</text>
<text text-anchor="middle" x="1019" y="-462" font-family="Helvetica,sans-Serif" font-size="10.00">::sort_and_clean</text>
</a>
</g>
</g>
<!-- Node1&#45;&gt;Node15 -->
<g id="edge36_Node000001_Node000015" class="edge">
<title>Node1&#45;&gt;Node15</title>
<g id="a_edge36_Node000001_Node000015"><a xlink:title=" ">
<path fill="none" stroke="#63b8ff" d="M74.05,-406.63C112.1,-440.35 247.07,-551 379.5,-551 379.5,-551 379.5,-551 580,-551 719.25,-551 755.23,-543.94 891,-513 917.93,-506.86 947.18,-497.18 970.81,-488.55"/>
<polygon fill="#63b8ff" stroke="#63b8ff" points="972.08,-491.82 980.24,-485.06 969.65,-485.25 972.08,-491.82"/>
</a>
</g>
</g>
<!-- Node3&#45;&gt;Node3 -->
<g id="edge3_Node000003_Node000003" class="edge">
<title>Node3&#45;&gt;Node3</title>
<g id="a_edge3_Node000003_Node000003"><a xlink:title=" ">
<path fill="none" stroke="#63b8ff" d="M193.76,-294.58C182.22,-303.23 190.13,-312.5 217.5,-312.5 235.46,-312.5 245.04,-308.51 246.25,-303.32"/>
<polygon fill="#63b8ff" stroke="#63b8ff" points="249.25,-301.52 241.24,-294.58 243.17,-305 249.25,-301.52"/>
</a>
</g>
</g>
<!-- Node4 -->
<g id="Node000004" class="node">
<title>Node4</title>
<g id="a_Node000004"><a xlink:href="namespacewmtk_1_1simplex.html#a50d0026adbac4883ab00460ada1c1cfe" target="_top" xlink:title=" ">
<polygon fill="white" stroke="#666666" points="451,-294.5 310,-294.5 310,-275.5 451,-275.5 451,-294.5"/>
<text text-anchor="middle" x="380.5" y="-282.5" font-family="Helvetica,sans-Serif" font-size="10.00">wmtk::simplex::link_slow</text>
</a>
</g>
</g>
<!-- Node3&#45;&gt;Node4 -->
<g id="edge4_Node000003_Node000004" class="edge">
<title>Node3&#45;&gt;Node4</title>
<g id="a_edge4_Node000003_Node000004"><a xlink:title=" ">
<path fill="none" stroke="#63b8ff" d="M274.36,-285C282.58,-285 291.19,-285 299.78,-285"/>
<polygon fill="#63b8ff" stroke="#63b8ff" points="299.84,-288.5 309.84,-285 299.84,-281.5 299.84,-288.5"/>
</a>
</g>
</g>
<!-- Node20 -->
<g id="Node000020" class="node">
<title>Node20</title>
<g id="a_Node000020"><a xlink:href="classwmtk_1_1_mesh.html#abaf00438d0700358b160e310d69725c9" target="_top" xlink:title=" ">
<polygon fill="white" stroke="#666666" points="884,-85.5 714,-85.5 714,-66.5 884,-66.5 884,-85.5"/>
<text text-anchor="middle" x="799" y="-73.5" font-family="Helvetica,sans-Serif" font-size="10.00">wmtk::Mesh::top_simplex_type</text>
</a>
</g>
</g>
<!-- Node3&#45;&gt;Node20 -->
<g id="edge34_Node000003_Node000020" class="edge">
<title>Node3&#45;&gt;Node20</title>
<g id="a_edge34_Node000003_Node000020"><a xlink:title=" ">
<path fill="none" stroke="#63b8ff" d="M237.71,-275.41C281.34,-253.85 391.5,-200.57 487,-164 582.82,-127.3 607.62,-119.55 707,-94 715.82,-91.73 725.18,-89.59 734.42,-87.62"/>
<polygon fill="#63b8ff" stroke="#63b8ff" points="735.28,-91.02 744.36,-85.57 733.86,-84.17 735.28,-91.02"/>
</a>
</g>
</g>
<!-- Node4&#45;&gt;Node2 -->
<g id="edge5_Node000004_Node000002" class="edge">
<title>Node4&#45;&gt;Node2</title>
<g id="a_edge5_Node000004_Node000002"><a xlink:title=" ">
<path fill="none" stroke="#63b8ff" d="M387.86,-275.36C402.85,-253.22 442.51,-198.05 487,-164 573.35,-97.92 601.04,-81.4 707,-57 883.07,-16.45 1099.53,-49.99 1197.46,-69.47"/>
<polygon fill="#63b8ff" stroke="#63b8ff" points="1196.91,-72.93 1207.4,-71.48 1198.29,-66.06 1196.91,-72.93"/>
</a>
</g>
</g>
<!-- Node5 -->
<g id="Node000005" class="node">
<title>Node5</title>
<g id="a_Node000005"><a xlink:href="namespacewmtk_1_1simplex.html#a2ed8f83fbda4dc05306bfe8d2ce7ab94" target="_top" xlink:title="The closed star contains the input simplex, all its top dimension cofaces, and their faces.">
<polygon fill="white" stroke="#666666" points="654.5,-275.5 503.5,-275.5 503.5,-256.5 654.5,-256.5 654.5,-275.5"/>
<text text-anchor="middle" x="579" y="-263.5" font-family="Helvetica,sans-Serif" font-size="10.00">wmtk::simplex::closed_star</text>
</a>
</g>
</g>
<!-- Node4&#45;&gt;Node5 -->
<g id="edge6_Node000004_Node000005" class="edge">
<title>Node4&#45;&gt;Node5</title>
<g id="a_edge6_Node000004_Node000005"><a xlink:title=" ">
<path fill="none" stroke="#63b8ff" d="M451.06,-278.27C464.65,-276.96 479.04,-275.57 493.07,-274.21"/>
<polygon fill="#63b8ff" stroke="#63b8ff" points="493.59,-277.68 503.2,-273.23 492.91,-270.71 493.59,-277.68"/>
</a>
</g>
</g>
<!-- Node6 -->
<g id="Node000006" class="node">
<title>Node6</title>
<g id="a_Node000006"><a xlink:href="namespacewmtk_1_1simplex.html#aee89641a0de7b5ddf8d15bf376f9d33b" target="_top" xlink:title="Returns all faces of a simplex.">
<polygon fill="white" stroke="#666666" points="860,-122.5 738,-122.5 738,-103.5 860,-103.5 860,-122.5"/>
<text text-anchor="middle" x="799" y="-110.5" font-family="Helvetica,sans-Serif" font-size="10.00">wmtk::simplex::faces</text>
</a>
</g>
</g>
<!-- Node4&#45;&gt;Node6 -->
<g id="edge30_Node000004_Node000006" class="edge">
<title>Node4&#45;&gt;Node6</title>
<g id="a_edge30_Node000004_Node000006"><a xlink:title=" ">
<path fill="none" stroke="#63b8ff" d="M404.79,-275.38C474.85,-246.45 683.9,-160.12 765.17,-126.56"/>
<polygon fill="#63b8ff" stroke="#63b8ff" points="766.97,-129.6 774.88,-122.55 764.3,-123.13 766.97,-129.6"/>
</a>
</g>
</g>
<!-- Node4&#45;&gt;Node14 -->
<g id="edge32_Node000004_Node000014" class="edge">
<title>Node4&#45;&gt;Node14</title>
<g id="a_edge32_Node000004_Node000014"><a xlink:title=" ">
<path fill="none" stroke="#63b8ff" d="M451.1,-285.69C526.02,-287.86 638.79,-295.73 671,-323 712.85,-358.43 668.47,-401.99 707,-441 710.23,-444.27 713.84,-447.18 717.69,-449.76"/>
<polygon fill="#63b8ff" stroke="#63b8ff" points="716.07,-452.87 726.47,-454.89 719.61,-446.82 716.07,-452.87"/>
</a>
</g>
</g>
<!-- Node4&#45;&gt;Node15 -->
<g id="edge33_Node000004_Node000015" class="edge">
<title>Node4&#45;&gt;Node15</title>
<g id="a_edge33_Node000004_Node000015"><a xlink:title=" ">
<path fill="none" stroke="#63b8ff" d="M391.01,-294.51C427.65,-330.33 564.68,-456.92 707,-494 789.95,-515.61 889.21,-501.32 952.91,-487.27"/>
<polygon fill="#63b8ff" stroke="#63b8ff" points="953.84,-490.65 962.82,-485.02 952.29,-483.82 953.84,-490.65"/>
</a>
</g>
</g>
<!-- Node23 -->
<g id="Node000023" class="node">
<title>Node23</title>
<g id="a_Node000023"><a xlink:href="classwmtk_1_1simplex_1_1_simplex_collection.html#a592a38f5119ed654001d88d032bcea9c" target="_top" xlink:title="Get intersection of two simplex collections.">
<polygon fill="white" stroke="#666666" points="671,-362 487,-362 487,-332 671,-332 671,-362"/>
<text text-anchor="start" x="495" y="-350" font-family="Helvetica,sans-Serif" font-size="10.00">wmtk::simplex::SimplexCollection</text>
<text text-anchor="middle" x="579" y="-339" font-family="Helvetica,sans-Serif" font-size="10.00">::get_intersection</text>
</a>
</g>
</g>
<!-- Node4&#45;&gt;Node23 -->
<g id="edge31_Node000004_Node000023" class="edge">
<title>Node4&#45;&gt;Node23</title>
<g id="a_edge31_Node000004_Node000023"><a xlink:title=" ">
<path fill="none" stroke="#63b8ff" d="M411.77,-294.55C440.6,-303.65 484.76,-317.58 520.31,-328.8"/>
<polygon fill="#63b8ff" stroke="#63b8ff" points="519.5,-332.21 530.09,-331.88 521.61,-325.54 519.5,-332.21"/>
</a>
</g>
</g>
<!-- Node5&#45;&gt;Node2 -->
<g id="edge7_Node000005_Node000002" class="edge">
<title>Node5&#45;&gt;Node2</title>
<g id="a_edge7_Node000005_Node000002"><a xlink:title=" ">
<path fill="none" stroke="#63b8ff" d="M600.07,-256.41C618.89,-247.13 647.55,-232.28 671,-217 687.98,-205.93 688.59,-197.48 707,-189 718.06,-183.91 1051.96,-119.18 1190.58,-92.44"/>
<polygon fill="#63b8ff" stroke="#63b8ff" points="1191.46,-95.84 1200.61,-90.51 1190.13,-88.96 1191.46,-95.84"/>
</a>
</g>
</g>
<!-- Node5&#45;&gt;Node6 -->
<g id="edge8_Node000005_Node000006" class="edge">
<title>Node5&#45;&gt;Node6</title>
<g id="a_edge8_Node000005_Node000006"><a xlink:title=" ">
<path fill="none" stroke="#63b8ff" d="M608.09,-256.44C627.55,-248.72 653.09,-236.29 671,-219 694.48,-196.34 683.02,-177.14 707,-155 720.79,-142.27 739.11,-132.82 755.69,-126.13"/>
<polygon fill="#63b8ff" stroke="#63b8ff" points="757.11,-129.34 765.21,-122.51 754.62,-122.8 757.11,-129.34"/>
</a>
</g>
</g>
<!-- Node7 -->
<g id="Node000007" class="node">
<title>Node7</title>
<g id="a_Node000007"><a xlink:href="classwmtk_1_1_mesh.html#a8cc8686f0688613806f43720b6db49e7" target="_top" xlink:title="check validity of tuple including its hash">
<polygon fill="white" stroke="#666666" points="859,-216.5 739,-216.5 739,-197.5 859,-197.5 859,-216.5"/>
<text text-anchor="middle" x="799" y="-204.5" font-family="Helvetica,sans-Serif" font-size="10.00">wmtk::Mesh::is_valid</text>
</a>
</g>
</g>
<!-- Node5&#45;&gt;Node7 -->
<g id="edge10_Node000005_Node000007" class="edge">
<title>Node5&#45;&gt;Node7</title>
<g id="a_edge10_Node000005_Node000007"><a xlink:title=" ">
<path fill="none" stroke="#63b8ff" d="M614.2,-256.46C639.75,-249.37 675.53,-239.49 707,-231 721.34,-227.13 736.98,-222.98 751.18,-219.24"/>
<polygon fill="#63b8ff" stroke="#63b8ff" points="752.44,-222.53 761.23,-216.6 750.66,-215.76 752.44,-222.53"/>
</a>
</g>
</g>
<!-- Node10 -->
<g id="Node000010" class="node">
<title>Node10</title>
<g id="a_Node000010"><a xlink:href="namespacewmtk.html#a441d6ad4f19569c7d4946e743da1a925" target="_top" xlink:title=" ">
<polygon fill="white" stroke="#666666" points="1312,-291 1190,-291 1190,-261 1312,-261 1312,-291"/>
<text text-anchor="start" x="1198" y="-279" font-family="Helvetica,sans-Serif" font-size="10.00">wmtk::log_and_throw</text>
<text text-anchor="middle" x="1251" y="-268" font-family="Helvetica,sans-Serif" font-size="10.00">_error</text>
</a>
</g>
</g>
<!-- Node5&#45;&gt;Node10 -->
<g id="edge14_Node000005_Node000010" class="edge">
<title>Node5&#45;&gt;Node10</title>
<g id="a_edge14_Node000005_Node000010"><a xlink:title=" ">
<path fill="none" stroke="#63b8ff" d="M654.54,-264.63C671.77,-264.37 690.02,-264.13 707,-264 788.78,-263.36 809.23,-262.63 891,-264 991.29,-265.68 1107.27,-269.98 1179.64,-272.95"/>
<polygon fill="#63b8ff" stroke="#63b8ff" points="1179.85,-276.46 1189.99,-273.38 1180.14,-269.47 1179.85,-276.46"/>
</a>
</g>
</g>
<!-- Node13 -->
<g id="Node000013" class="node">
<title>Node13</title>
<g id="a_Node000013"><a xlink:href="classwmtk_1_1simplex_1_1_simplex_collection.html#a1973c83eede96b64f422049c6fc52976" target="_top" xlink:title=" ">
<polygon fill="white" stroke="#666666" points="891,-303 707,-303 707,-273 891,-273 891,-303"/>
<text text-anchor="start" x="715" y="-291" font-family="Helvetica,sans-Serif" font-size="10.00">wmtk::simplex::SimplexCollection</text>
<text text-anchor="middle" x="799" y="-280" font-family="Helvetica,sans-Serif" font-size="10.00">::reserve</text>
</a>
</g>
</g>
<!-- Node5&#45;&gt;Node13 -->
<g id="edge17_Node000005_Node000013" class="edge">
<title>Node5&#45;&gt;Node13</title>
<g id="a_edge17_Node000005_Node000013"><a xlink:title=" ">
<path fill="none" stroke="#63b8ff" d="M654.72,-273.54C668.21,-274.9 682.48,-276.34 696.57,-277.76"/>
<polygon fill="#63b8ff" stroke="#63b8ff" points="696.5,-281.27 706.8,-278.8 697.2,-274.31 696.5,-281.27"/>
</a>
</g>
</g>
<!-- Node5&#45;&gt;Node14 -->
<g id="edge18_Node000005_Node000014" class="edge">
<title>Node5&#45;&gt;Node14</title>
<g id="a_edge18_Node000005_Node000014"><a xlink:title=" ">
<path fill="none" stroke="#63b8ff" d="M649.5,-275.65C657.5,-279.15 664.95,-283.8 671,-290 719.2,-339.36 660.07,-390.43 707,-441 709.98,-444.21 713.32,-447.07 716.91,-449.61"/>
<polygon fill="#63b8ff" stroke="#63b8ff" points="715.32,-452.75 725.68,-455 718.98,-446.78 715.32,-452.75"/>
</a>
</g>
</g>
<!-- Node5&#45;&gt;Node15 -->
<g id="edge19_Node000005_Node000015" class="edge">
<title>Node5&#45;&gt;Node15</title>
<g id="a_edge19_Node000005_Node000015"><a xlink:title=" ">
<path fill="none" stroke="#63b8ff" d="M654.87,-272.65C660.75,-275.29 666.24,-278.68 671,-283 713.79,-321.88 664.45,-368.86 707,-408 709.1,-409.93 838.53,-435.29 929.74,-452.97"/>
<polygon fill="#63b8ff" stroke="#63b8ff" points="929.34,-456.46 939.83,-454.92 930.67,-449.59 929.34,-456.46"/>
</a>
</g>
</g>
<!-- Node16 -->
<g id="Node000016" class="node">
<title>Node16</title>
<g id="a_Node000016"><a xlink:href="namespacewmtk_1_1simplex.html#a87de7137d8d21f1643dd604d73e8f765" target="_top" xlink:title="Get all top dimension cofaces of the given simplex.">
<polygon fill="white" stroke="#666666" points="857,-351 741,-351 741,-321 857,-321 857,-351"/>
<text text-anchor="start" x="749" y="-339" font-family="Helvetica,sans-Serif" font-size="10.00">wmtk::simplex::top</text>
<text text-anchor="middle" x="799" y="-328" font-family="Helvetica,sans-Serif" font-size="10.00">_dimension_cofaces</text>
</a>
</g>
</g>
<!-- Node5&#45;&gt;Node16 -->
<g id="edge20_Node000005_Node000016" class="edge">
<title>Node5&#45;&gt;Node16</title>
<g id="a_edge20_Node000005_Node000016"><a xlink:title=" ">
<path fill="none" stroke="#63b8ff" d="M626.7,-275.55C641.19,-279.24 657.02,-284.04 671,-290 688.25,-297.36 689.75,-304.64 707,-312 714.67,-315.27 722.9,-318.19 731.16,-320.77"/>
<polygon fill="#63b8ff" stroke="#63b8ff" points="730.25,-324.15 740.83,-323.65 732.24,-317.44 730.25,-324.15"/>
</a>
</g>
</g>
<!-- Node5&#45;&gt;Node20 -->
<g id="edge27_Node000005_Node000020" class="edge">
<title>Node5&#45;&gt;Node20</title>
<g id="a_edge27_Node000005_Node000020"><a xlink:title=" ">
<path fill="none" stroke="#63b8ff" d="M586.43,-256.47C609.83,-221.94 689.91,-104.83 707,-94 709.49,-92.42 712.08,-90.98 714.76,-89.66"/>
<polygon fill="#63b8ff" stroke="#63b8ff" points="716.33,-92.8 724.13,-85.62 713.56,-86.37 716.33,-92.8"/>
</a>
</g>
</g>
<!-- Node22 -->
<g id="Node000022" class="node">
<title>Node22</title>
<g id="a_Node000022"><a xlink:href="classwmtk_1_1simplex_1_1_simplex.html#aca78b1fb0a3c28c0036cf7919bfb0789" target="_top" xlink:title=" ">
<polygon fill="white" stroke="#666666" points="866.5,-399 731.5,-399 731.5,-369 866.5,-369 866.5,-399"/>
<text text-anchor="start" x="739.5" y="-387" font-family="Helvetica,sans-Serif" font-size="10.00">wmtk::simplex::Simplex</text>
<text text-anchor="middle" x="799" y="-376" font-family="Helvetica,sans-Serif" font-size="10.00">::tuple</text>
</a>
</g>
</g>
<!-- Node5&#45;&gt;Node22 -->
<g id="edge29_Node000005_Node000022" class="edge">
<title>Node5&#45;&gt;Node22</title>
<g id="a_edge29_Node000005_Node000022"><a xlink:title=" ">
<path fill="none" stroke="#63b8ff" d="M643.97,-275.53C653.69,-278.98 663.1,-283.66 671,-290 698.27,-311.91 679.73,-338.09 707,-360 711.57,-363.67 716.65,-366.78 722,-369.42"/>
<polygon fill="#63b8ff" stroke="#63b8ff" points="720.65,-372.66 731.22,-373.44 723.44,-366.24 720.65,-372.66"/>
</a>
</g>
</g>
<!-- Node6&#45;&gt;Node6 -->
<g id="edge9_Node000006_Node000006" class="edge">
<title>Node6&#45;&gt;Node6</title>
<g id="a_edge9_Node000006_Node000006"><a xlink:title=" ">
<path fill="none" stroke="#63b8ff" d="M765.09,-122.58C748.6,-131.23 759.9,-140.5 799,-140.5 827.1,-140.5 840.85,-135.71 840.23,-129.81"/>
<polygon fill="#63b8ff" stroke="#63b8ff" points="842.48,-127.12 832.91,-122.58 837.57,-132.1 842.48,-127.12"/>
</a>
</g>
</g>
<!-- Node8 -->
<g id="Node000008" class="node">
<title>Node8</title>
<g id="a_Node000008"><a xlink:href="classwmtk_1_1_tuple.html#a0023f575be92cd5ceeeaaaa3762ea06d" target="_top" xlink:title="Checks if a tuple is &quot;null&quot;. This merely implies the global index is &#45;1.">
<polygon fill="white" stroke="#666666" points="1075.5,-226.5 962.5,-226.5 962.5,-207.5 1075.5,-207.5 1075.5,-226.5"/>
<text text-anchor="middle" x="1019" y="-214.5" font-family="Helvetica,sans-Serif" font-size="10.00">wmtk::Tuple::is_null</text>
</a>
</g>
</g>
<!-- Node7&#45;&gt;Node8 -->
<g id="edge11_Node000007_Node000008" class="edge">
<title>Node7&#45;&gt;Node8</title>
<g id="a_edge11_Node000007_Node000008"><a xlink:title=" ">
<path fill="none" stroke="#63b8ff" d="M859.28,-209.72C888.04,-211.04 922.68,-212.63 952.25,-213.98"/>
<polygon fill="#63b8ff" stroke="#63b8ff" points="952.33,-217.49 962.48,-214.45 952.65,-210.5 952.33,-217.49"/>
</a>
</g>
</g>
<!-- Node9 -->
<g id="Node000009" class="node">
<title>Node9</title>
<g id="a_Node000009"><a xlink:href="classwmtk_1_1_mesh.html#ade176d345902d97af8c5da04aa3a095b" target="_top" xlink:title=" ">
<polygon fill="white" stroke="#666666" points="1089,-171.5 949,-171.5 949,-152.5 1089,-152.5 1089,-171.5"/>
<text text-anchor="middle" x="1019" y="-159.5" font-family="Helvetica,sans-Serif" font-size="10.00">wmtk::Mesh::is_removed</text>
</a>
</g>
</g>
<!-- Node7&#45;&gt;Node9 -->
<g id="edge12_Node000007_Node000009" class="edge">
<title>Node7&#45;&gt;Node9</title>
<g id="a_edge12_Node000007_Node000009"><a xlink:title=" ">
<path fill="none" stroke="#63b8ff" d="M846.23,-197.46C880.05,-190.48 926.09,-180.97 962,-173.56"/>
<polygon fill="#63b8ff" stroke="#63b8ff" points="962.75,-176.98 971.83,-171.53 961.33,-170.12 962.75,-176.98"/>
</a>
</g>
</g>
<!-- Node9&#45;&gt;Node9 -->
<g id="edge13_Node000009_Node000009" class="edge">
<title>Node9&#45;&gt;Node9</title>
<g id="a_edge13_Node000009_Node000009"><a xlink:title=" ">
<path fill="none" stroke="#63b8ff" d="M985.09,-171.58C968.6,-180.23 979.9,-189.5 1019,-189.5 1047.1,-189.5 1060.85,-184.71 1060.23,-178.81"/>
<polygon fill="#63b8ff" stroke="#63b8ff" points="1062.48,-176.12 1052.91,-171.58 1057.57,-181.1 1062.48,-176.12"/>
</a>
</g>
</g>
<!-- Node11 -->
<g id="Node000011" class="node">
<title>Node11</title>
<g id="a_Node000011"><a xlink:href="namespacewmtk.html#a6a35f11c12436093d26fdd8be6fecc06" target="_top" xlink:title="Retrieves the current logger.">
<polygon fill="white" stroke="#666666" points="1472,-285.5 1391,-285.5 1391,-266.5 1472,-266.5 1472,-285.5"/>
<text text-anchor="middle" x="1431.5" y="-273.5" font-family="Helvetica,sans-Serif" font-size="10.00">wmtk::logger</text>
</a>
</g>
</g>
<!-- Node10&#45;&gt;Node11 -->
<g id="edge15_Node000010_Node000011" class="edge">
<title>Node10&#45;&gt;Node11</title>
<g id="a_edge15_Node000010_Node000011"><a xlink:title=" ">
<path fill="none" stroke="#63b8ff" d="M1312.43,-276C1334.68,-276 1359.61,-276 1380.81,-276"/>
<polygon fill="#63b8ff" stroke="#63b8ff" points="1380.89,-279.5 1390.89,-276 1380.89,-272.5 1380.89,-279.5"/>
</a>
</g>
</g>
<!-- Node12 -->
<g id="Node000012" class="node">
<title>Node12</title>
<g id="a_Node000012"><a xlink:href="namespacewmtk.html#a3daa7951a5f8b78cf4600dc047fcc180" target="_top" xlink:title="Setup a logger object to be used by WildmeshToolkit.">
<polygon fill="white" stroke="#666666" points="1609,-285.5 1508,-285.5 1508,-266.5 1609,-266.5 1609,-285.5"/>
<text text-anchor="middle" x="1558.5" y="-273.5" font-family="Helvetica,sans-Serif" font-size="10.00">wmtk::set_logger</text>
</a>
</g>
</g>
<!-- Node11&#45;&gt;Node12 -->
<g id="edge16_Node000011_Node000012" class="edge">
<title>Node11&#45;&gt;Node12</title>
<g id="a_edge16_Node000011_Node000012"><a xlink:title=" ">
<path fill="none" stroke="#63b8ff" d="M1472.05,-276C1480.17,-276 1488.9,-276 1497.55,-276"/>
<polygon fill="#63b8ff" stroke="#63b8ff" points="1497.65,-279.5 1507.65,-276 1497.65,-272.5 1497.65,-279.5"/>
</a>
</g>
</g>
<!-- Node16&#45;&gt;Node15 -->
<g id="edge22_Node000016_Node000015" class="edge">
<title>Node16&#45;&gt;Node15</title>
<g id="a_edge22_Node000016_Node000015"><a xlink:title=" ">
<path fill="none" stroke="#63b8ff" d="M857.33,-346.86C868.85,-350.21 880.6,-354.51 891,-360 933.83,-382.61 974.52,-422.16 997.84,-447.17"/>
<polygon fill="#63b8ff" stroke="#63b8ff" points="995.44,-449.73 1004.78,-454.74 1000.6,-445 995.44,-449.73"/>
</a>
</g>
</g>
<!-- Node17 -->
<g id="Node000017" class="node">
<title>Node17</title>
<g id="a_Node000017"><a xlink:href="classwmtk_1_1simplex_1_1_simplex_collection.html#a0d0c1765c4ed8ffd0f163661111bfb08" target="_top" xlink:title=" ">
<polygon fill="white" stroke="#666666" points="1111,-313 927,-313 927,-283 1111,-283 1111,-313"/>
<text text-anchor="start" x="935" y="-301" font-family="Helvetica,sans-Serif" font-size="10.00">wmtk::simplex::SimplexCollection</text>
<text text-anchor="middle" x="1019" y="-290" font-family="Helvetica,sans-Serif" font-size="10.00">::mesh</text>
</a>
</g>
</g>
<!-- Node16&#45;&gt;Node17 -->
<g id="edge21_Node000016_Node000017" class="edge">
<title>Node16&#45;&gt;Node17</title>
<g id="a_edge21_Node000016_Node000017"><a xlink:title=" ">
<path fill="none" stroke="#63b8ff" d="M857.28,-326.02C876.97,-322.58 899.59,-318.64 921.53,-314.82"/>
<polygon fill="#63b8ff" stroke="#63b8ff" points="922.3,-318.24 931.55,-313.07 921.09,-311.34 922.3,-318.24"/>
</a>
</g>
</g>
<!-- Node18 -->
<g id="Node000018" class="node">
<title>Node18</title>
<g id="a_Node000018"><a xlink:href="namespacewmtk_1_1simplex.html#a0101f27eb2ad82814390b92ab1a4d1a0" target="_top" xlink:title=" ">
<polygon fill="white" stroke="#666666" points="1094.5,-361 943.5,-361 943.5,-331 1094.5,-331 1094.5,-361"/>
<text text-anchor="start" x="951.5" y="-349" font-family="Helvetica,sans-Serif" font-size="10.00">wmtk::simplex::top</text>
<text text-anchor="middle" x="1019" y="-338" font-family="Helvetica,sans-Serif" font-size="10.00">_dimension_cofaces_tuples</text>
</a>
</g>
</g>
<!-- Node16&#45;&gt;Node18 -->
<g id="edge23_Node000016_Node000018" class="edge">
<title>Node16&#45;&gt;Node18</title>
<g id="a_edge23_Node000016_Node000018"><a xlink:title=" ">
<path fill="none" stroke="#63b8ff" d="M857.28,-338.63C880.55,-339.7 907.93,-340.95 933.42,-342.12"/>
<polygon fill="#63b8ff" stroke="#63b8ff" points="933.31,-345.62 943.46,-342.58 933.63,-338.63 933.31,-345.62"/>
</a>
</g>
</g>
<!-- Node18&#45;&gt;Node2 -->
<g id="edge24_Node000018_Node000002" class="edge">
<title>Node18&#45;&gt;Node2</title>
<g id="a_edge24_Node000018_Node000002"><a xlink:title=" ">
<path fill="none" stroke="#63b8ff" d="M1094.6,-332.1C1100.47,-329.32 1106.03,-325.99 1111,-322 1138.27,-300.09 1129.97,-282.56 1147,-252 1178.52,-195.46 1218.88,-130.39 1238.4,-99.34"/>
<polygon fill="#63b8ff" stroke="#63b8ff" points="1241.59,-100.84 1243.96,-90.51 1235.67,-97.1 1241.59,-100.84"/>
</a>
</g>
</g>
<!-- Node18&#45;&gt;Node10 -->
<g id="edge25_Node000018_Node000010" class="edge">
<title>Node18&#45;&gt;Node10</title>
<g id="a_edge25_Node000018_Node000010"><a xlink:title=" ">
<path fill="none" stroke="#63b8ff" d="M1079.38,-330.91C1089.94,-328.06 1100.82,-325.02 1111,-322 1139.63,-313.5 1171.26,-303.11 1197.1,-294.36"/>
<polygon fill="#63b8ff" stroke="#63b8ff" points="1198.37,-297.63 1206.71,-291.09 1196.11,-291 1198.37,-297.63"/>
</a>
</g>
</g>
<!-- Node19 -->
<g id="Node000019" class="node">
<title>Node19</title>
<g id="a_Node000019"><a xlink:href="classwmtk_1_1simplex_1_1_simplex.html#ad2cc0340a0772b7d6f03ba7a781d1163" target="_top" xlink:title=" ">
<polygon fill="white" stroke="#666666" points="1318.5,-361 1183.5,-361 1183.5,-331 1318.5,-331 1318.5,-361"/>
<text text-anchor="start" x="1191.5" y="-349" font-family="Helvetica,sans-Serif" font-size="10.00">wmtk::simplex::Simplex</text>
<text text-anchor="middle" x="1251" y="-338" font-family="Helvetica,sans-Serif" font-size="10.00">::primitive_type</text>
</a>
</g>
</g>
<!-- Node18&#45;&gt;Node19 -->
<g id="edge26_Node000018_Node000019" class="edge">
<title>Node18&#45;&gt;Node19</title>
<g id="a_edge26_Node000018_Node000019"><a xlink:title=" ">
<path fill="none" stroke="#63b8ff" d="M1094.67,-346C1119.81,-346 1147.88,-346 1173.18,-346"/>
<polygon fill="#63b8ff" stroke="#63b8ff" points="1173.46,-349.5 1183.46,-346 1173.46,-342.5 1173.46,-349.5"/>
</a>
</g>
</g>
<!-- Node21 -->
<g id="Node000021" class="node">
<title>Node21</title>
<g id="a_Node000021"><a xlink:href="classwmtk_1_1_mesh.html#a933f681cf24a63b155c9462280385200" target="_top" xlink:title=" ">
<polygon fill="white" stroke="#666666" points="1079.5,-96 958.5,-96 958.5,-66 1079.5,-66 1079.5,-96"/>
<text text-anchor="start" x="966.5" y="-84" font-family="Helvetica,sans-Serif" font-size="10.00">wmtk::Mesh::top_cell</text>
<text text-anchor="middle" x="1019" y="-73" font-family="Helvetica,sans-Serif" font-size="10.00">_dimension</text>
</a>
</g>
</g>
<!-- Node20&#45;&gt;Node21 -->
<g id="edge28_Node000020_Node000021" class="edge">
<title>Node20&#45;&gt;Node21</title>
<g id="a_edge28_Node000020_Node000021"><a xlink:title=" ">
<path fill="none" stroke="#63b8ff" d="M884.28,-77.93C905.4,-78.42 927.82,-78.93 948.15,-79.4"/>
<polygon fill="#63b8ff" stroke="#63b8ff" points="948.17,-82.9 958.25,-79.63 948.34,-75.9 948.17,-82.9"/>
</a>
</g>
</g>
</g>
</svg>
