<?xml version="1.0" encoding="UTF-8" standalone="no"?>
<!DOCTYPE svg PUBLIC "-//W3C//DTD SVG 1.1//EN"
 "http://www.w3.org/Graphics/SVG/1.1/DTD/svg11.dtd">
<!-- Generated by graphviz version 2.43.0 (0)
 -->
<!-- Title: wmtk::utils::exactinit Pages: 1 -->
<svg width="315pt" height="64pt"
 viewBox="0.00 0.00 315.00 64.00" xmlns="http://www.w3.org/2000/svg" xmlns:xlink="http://www.w3.org/1999/xlink">

<svg id="main" version="1.1" xmlns="http://www.w3.org/2000/svg" xmlns:xlink="http://www.w3.org/1999/xlink" xml:space="preserve" onload="init(evt)">
<style type="text/css"><![CDATA[
.node, .edge {opacity: 0.7;}
.node.selected, .edge.selected {opacity: 1;}
.edge:hover path { stroke: red; }
.edge:hover polygon { stroke: red; fill: red; }
]]></style>
<script type="application/ecmascript" xlink:href="svg.min.js"/>
<svg id="graph" class="graph">
<g id="graph0" class="graph" transform="scale(1 1) rotate(0) translate(4 60)">
<title>wmtk::utils::exactinit</title>
<!-- Node1 -->
<g id="Node000001" class="node">
<title>Node1</title>
<g id="a_Node000001"><a xlink:title=" ">
<polygon fill="#999999" stroke="#666666" points="307,-37 187,-37 187,-18 307,-18 307,-37"/>
<text text-anchor="middle" x="247" y="-25" font-family="Helvetica,sans-Serif" font-size="10.00">wmtk::utils::exactinit</text>
</a>
</g>
</g>
<!-- Node1&#45;&gt;Node1 -->
<g id="edge1_Node000001_Node000001" class="edge">
<title>Node1&#45;&gt;Node1</title>
<g id="a_edge1_Node000001_Node000001"><a xlink:title=" ">
<path fill="none" stroke="#63b8ff" d="M278.81,-45.45C277.9,-50.82 267.3,-55 247,-55 216.79,-55 208.05,-45.73 220.8,-37.08"/>
<polygon fill="#63b8ff" stroke="#63b8ff" points="281.68,-43.44 273.2,-37.08 275.86,-47.34 281.68,-43.44"/>
</a>
</g>
</g>
<!-- Node2 -->
<g id="Node000002" class="node">
<title>Node2</title>
<g id="a_Node000002"><a xlink:href="namespacewmtk_1_1utils.html#ad1c150f31aa82a7cf7cd6ced41202170" target="_top" xlink:title=" ">
<polygon fill="white" stroke="#666666" points="151,-56 0,-56 0,-37 151,-37 151,-56"/>
<text text-anchor="middle" x="75.5" y="-44" font-family="Helvetica,sans-Serif" font-size="10.00">wmtk::utils::wmtk_orient2d</text>
</a>
</g>
</g>
<!-- Node1&#45;&gt;Node2 -->
<g id="edge2_Node000001_Node000002" class="edge">
<title>Node1&#45;&gt;Node2</title>
<g id="a_edge2_Node000001_Node000002"><a xlink:title=" ">
<path fill="none" stroke="#63b8ff" d="M176.63,-35.28C168.26,-36.21 159.69,-37.18 151.25,-38.12"/>
<polygon fill="#63b8ff" stroke="#63b8ff" points="177.17,-38.74 186.72,-34.15 176.39,-31.78 177.17,-38.74"/>
</a>
</g>
</g>
<!-- Node3 -->
<g id="Node000003" class="node">
<title>Node3</title>
<g id="a_Node000003"><a xlink:href="namespacewmtk_1_1utils.html#aa4bf59c2abd6992adacdfb4ba292821b" target="_top" xlink:title=" ">
<polygon fill="white" stroke="#666666" points="151,-19 0,-19 0,0 151,0 151,-19"/>
<text text-anchor="middle" x="75.5" y="-7" font-family="Helvetica,sans-Serif" font-size="10.00">wmtk::utils::wmtk_orient3d</text>
</a>
</g>
</g>
<!-- Node1&#45;&gt;Node3 -->
<g id="edge3_Node000001_Node000003" class="edge">
<title>Node1&#45;&gt;Node3</title>
<g id="a_edge3_Node000001_Node000003"><a xlink:title=" ">
<path fill="none" stroke="#63b8ff" d="M176.63,-20.13C168.26,-19.24 159.69,-18.33 151.25,-17.44"/>
<polygon fill="#63b8ff" stroke="#63b8ff" points="176.4,-23.63 186.72,-21.2 177.14,-16.67 176.4,-23.63"/>
</a>
</g>
</g>
</g>
</svg>
</svg>

<style type='text/css'>
<![CDATA[
[data-mouse-over-selected='false'] { opacity: 0.7; }
[data-mouse-over-selected='true']  { opacity: 1.0; }
]]>
</style>
<script type="application/ecmascript"><![CDATA[
document.addEventListener('DOMContentLoaded', (event) => {
  highlightEdges();
  highlightAdjacentNodes();
});
]]></script>
</svg>
