<?xml version="1.0" encoding="UTF-8" standalone="no"?>
<!DOCTYPE svg PUBLIC "-//W3C//DTD SVG 1.1//EN"
 "http://www.w3.org/Graphics/SVG/1.1/DTD/svg11.dtd">
<!-- Generated by graphviz version 2.43.0 (0)
 -->
<!-- Title: wmtk::components::utils::get_attributes Pages: 1 -->
<svg width="547pt" height="172pt"
 viewBox="0.00 0.00 547.00 171.50" xmlns="http://www.w3.org/2000/svg" xmlns:xlink="http://www.w3.org/1999/xlink">
<g id="graph0" class="graph" transform="scale(1 1) rotate(0) translate(4 167.5)">
<title>wmtk::components::utils::get_attributes</title>
<!-- Node1 -->
<g id="Node000001" class="node">
<title>Node1</title>
<g id="a_Node000001"><a xlink:title=" ">
<polygon fill="#999999" stroke="#666666" points="539,-91.5 402,-91.5 402,-61.5 539,-61.5 539,-91.5"/>
<text text-anchor="start" x="410" y="-79.5" font-family="Helvetica,sans-Serif" font-size="10.00">wmtk::components::utils</text>
<text text-anchor="middle" x="470.5" y="-68.5" font-family="Helvetica,sans-Serif" font-size="10.00">::get_attributes</text>
</a>
</g>
</g>
<!-- Node1&#45;&gt;Node1 -->
<g id="edge6_Node000001_Node000001" class="edge">
<title>Node1&#45;&gt;Node1</title>
<g id="a_edge6_Node000001_Node000001"><a xlink:title=" ">
<path fill="none" stroke="#63b8ff" d="M504.46,-102.1C499.82,-106.47 488.5,-109.5 470.5,-109.5 440.19,-109.5 428.82,-100.91 436.4,-91.78"/>
<polygon fill="#63b8ff" stroke="#63b8ff" points="507.96,-101.82 504.6,-91.78 500.96,-101.73 507.96,-101.82"/>
</a>
</g>
</g>
<!-- Node2 -->
<g id="Node000002" class="node">
<title>Node2</title>
<g id="a_Node000002"><a xlink:href="namespacewmtk_1_1components.html#a0271fbc50dba277ddd2d1d3e32d1fb3d" target="_top" xlink:title=" ">
<polygon fill="white" stroke="#666666" points="350.5,-163.5 202.5,-163.5 202.5,-133.5 350.5,-133.5 350.5,-163.5"/>
<text text-anchor="start" x="210.5" y="-151.5" font-family="Helvetica,sans-Serif" font-size="10.00">wmtk::components::gather</text>
<text text-anchor="middle" x="276.5" y="-140.5" font-family="Helvetica,sans-Serif" font-size="10.00">_attributes</text>
</a>
</g>
</g>
<!-- Node1&#45;&gt;Node2 -->
<g id="edge1_Node000001_Node000002" class="edge">
<title>Node1&#45;&gt;Node2</title>
<g id="a_edge1_Node000001_Node000002"><a xlink:title=" ">
<path fill="none" stroke="#63b8ff" d="M431.55,-95.98C412.25,-105.41 388.23,-116.4 366,-124.5 357.18,-127.72 347.72,-130.73 338.39,-133.45"/>
<polygon fill="#63b8ff" stroke="#63b8ff" points="433.2,-99.07 440.61,-91.51 430.1,-92.8 433.2,-99.07"/>
</a>
</g>
</g>
<!-- Node3 -->
<g id="Node000003" class="node">
<title>Node3</title>
<g id="a_Node000003"><a xlink:href="namespacewmtk_1_1components.html#a7447d90d4590819b69239d895ea5dc86" target="_top" xlink:title=" ">
<polygon fill="white" stroke="#666666" points="350.5,-115.5 202.5,-115.5 202.5,-85.5 350.5,-85.5 350.5,-115.5"/>
<text text-anchor="start" x="210.5" y="-103.5" font-family="Helvetica,sans-Serif" font-size="10.00">wmtk::components::gather</text>
<text text-anchor="middle" x="276.5" y="-92.5" font-family="Helvetica,sans-Serif" font-size="10.00">_attributes</text>
</a>
</g>
</g>
<!-- Node1&#45;&gt;Node3 -->
<g id="edge2_Node000001_Node000003" class="edge">
<title>Node1&#45;&gt;Node3</title>
<g id="a_edge2_Node000001_Node000003"><a xlink:title=" ">
<path fill="none" stroke="#63b8ff" d="M391.61,-86.24C378.12,-87.92 364.14,-89.67 350.78,-91.34"/>
<polygon fill="#63b8ff" stroke="#63b8ff" points="392.32,-89.67 401.81,-84.96 391.45,-82.73 392.32,-89.67"/>
</a>
</g>
</g>
<!-- Node6 -->
<g id="Node000006" class="node">
<title>Node6</title>
<g id="a_Node000006"><a xlink:href="namespacewmtk_1_1components.html#ae6dfdbd73d7018f6f21bb2396872c796" target="_top" xlink:title=" ">
<polygon fill="white" stroke="#666666" points="355.5,-67.5 197.5,-67.5 197.5,-37.5 355.5,-37.5 355.5,-67.5"/>
<text text-anchor="start" x="205.5" y="-55.5" font-family="Helvetica,sans-Serif" font-size="10.00">wmtk::components::isotropic</text>
<text text-anchor="middle" x="276.5" y="-44.5" font-family="Helvetica,sans-Serif" font-size="10.00">_remeshing</text>
</a>
</g>
</g>
<!-- Node1&#45;&gt;Node6 -->
<g id="edge7_Node000001_Node000006" class="edge">
<title>Node1&#45;&gt;Node6</title>
<g id="a_edge7_Node000001_Node000006"><a xlink:title=" ">
<path fill="none" stroke="#63b8ff" d="M391.55,-66.76C379.74,-65.28 367.55,-63.76 355.73,-62.28"/>
<polygon fill="#63b8ff" stroke="#63b8ff" points="391.45,-70.27 401.81,-68.04 392.32,-63.33 391.45,-70.27"/>
</a>
</g>
</g>
<!-- Node7 -->
<g id="Node000007" class="node">
<title>Node7</title>
<g id="a_Node000007"><a xlink:href="namespacewmtk_1_1components.html#ac6ca52668bd22e164d4baf59ec533864" target="_top" xlink:title=" ">
<polygon fill="white" stroke="#666666" points="366,-19 187,-19 187,0 366,0 366,-19"/>
<text text-anchor="middle" x="276.5" y="-7" font-family="Helvetica,sans-Serif" font-size="10.00">wmtk::components::wildmeshing</text>
</a>
</g>
</g>
<!-- Node1&#45;&gt;Node7 -->
<g id="edge8_Node000001_Node000007" class="edge">
<title>Node1&#45;&gt;Node7</title>
<g id="a_edge8_Node000001_Node000007"><a xlink:title=" ">
<path fill="none" stroke="#63b8ff" d="M432.14,-56.71C412.82,-47.12 388.6,-36.06 366,-28.5 354.97,-24.81 342.92,-21.67 331.37,-19.06"/>
<polygon fill="#63b8ff" stroke="#63b8ff" points="430.7,-59.91 441.2,-61.28 433.85,-53.66 430.7,-59.91"/>
</a>
</g>
</g>
<!-- Node4 -->
<g id="Node000004" class="node">
<title>Node4</title>
<g id="a_Node000004"><a xlink:href="namespacewmtk_1_1components.html#a7cec0c38121ddd036af26c760311d0e8" target="_top" xlink:title=" ">
<polygon fill="white" stroke="#666666" points="151,-148.5 0,-148.5 0,-118.5 151,-118.5 151,-148.5"/>
<text text-anchor="start" x="8" y="-136.5" font-family="Helvetica,sans-Serif" font-size="10.00">wmtk::components::regular</text>
<text text-anchor="middle" x="75.5" y="-125.5" font-family="Helvetica,sans-Serif" font-size="10.00">_space</text>
</a>
</g>
</g>
<!-- Node3&#45;&gt;Node4 -->
<g id="edge3_Node000003_Node000004" class="edge">
<title>Node3&#45;&gt;Node4</title>
<g id="a_edge3_Node000003_Node000004"><a xlink:title=" ">
<path fill="none" stroke="#63b8ff" d="M192,-114.35C178.48,-116.59 164.56,-118.9 151.26,-121.1"/>
<polygon fill="#63b8ff" stroke="#63b8ff" points="192.95,-117.74 202.25,-112.65 191.81,-110.83 192.95,-117.74"/>
</a>
</g>
</g>
<!-- Node5 -->
<g id="Node000005" class="node">
<title>Node5</title>
<g id="a_Node000005"><a xlink:href="namespacewmtk_1_1components.html#ae22ac68a5d85a281c4aeafa97f5230bc" target="_top" xlink:title=" ">
<polygon fill="white" stroke="#666666" points="141.5,-82.5 9.5,-82.5 9.5,-52.5 141.5,-52.5 141.5,-82.5"/>
<text text-anchor="start" x="17.5" y="-70.5" font-family="Helvetica,sans-Serif" font-size="10.00">wmtk::components::tag</text>
<text text-anchor="middle" x="75.5" y="-59.5" font-family="Helvetica,sans-Serif" font-size="10.00">_intersection</text>
</a>
</g>
</g>
<!-- Node3&#45;&gt;Node5 -->
<g id="edge4_Node000003_Node000005" class="edge">
<title>Node3&#45;&gt;Node5</title>
<g id="a_edge4_Node000003_Node000005"><a xlink:title=" ">
<path fill="none" stroke="#63b8ff" d="M192.38,-86.72C175.46,-83.91 157.9,-81 141.71,-78.31"/>
<polygon fill="#63b8ff" stroke="#63b8ff" points="191.81,-90.17 202.25,-88.35 192.95,-83.26 191.81,-90.17"/>
</a>
</g>
</g>
<!-- Node5&#45;&gt;Node5 -->
<g id="edge5_Node000005_Node000005" class="edge">
<title>Node5&#45;&gt;Node5</title>
<g id="a_edge5_Node000005_Node000005"><a xlink:title=" ">
<path fill="none" stroke="#63b8ff" d="M110.51,-93.1C105.72,-97.47 94.05,-100.5 75.5,-100.5 44.25,-100.5 32.53,-91.91 40.34,-82.78"/>
<polygon fill="#63b8ff" stroke="#63b8ff" points="114.01,-92.82 110.66,-82.78 107.01,-92.72 114.01,-92.82"/>
</a>
</g>
</g>
</g>
</svg>
