<?xml version="1.0" encoding="UTF-8" standalone="no"?>
<!DOCTYPE svg PUBLIC "-//W3C//DTD SVG 1.1//EN"
 "http://www.w3.org/Graphics/SVG/1.1/DTD/svg11.dtd">
<!-- Generated by graphviz version 2.43.0 (0)
 -->
<!-- Title: wmtk::utils::vector_hash Pages: 1 -->
<svg width="346pt" height="508pt"
 viewBox="0.00 0.00 346.00 507.50" xmlns="http://www.w3.org/2000/svg" xmlns:xlink="http://www.w3.org/1999/xlink">
<g id="graph0" class="graph" transform="scale(1 1) rotate(0) translate(4 503.5)">
<title>wmtk::utils::vector_hash</title>
<!-- Node1 -->
<g id="Node000001" class="node">
<title>Node1</title>
<g id="a_Node000001"><a xlink:title=" ">
<polygon fill="#999999" stroke="#666666" points="338,-215 201,-215 201,-196 338,-196 338,-215"/>
<text text-anchor="middle" x="269.5" y="-203" font-family="Helvetica,sans-Serif" font-size="10.00">wmtk::utils::vector_hash</text>
</a>
</g>
</g>
<!-- Node1&#45;&gt;Node1 -->
<g id="edge11_Node000001_Node000001" class="edge">
<title>Node1&#45;&gt;Node1</title>
<g id="a_edge11_Node000001_Node000001"><a xlink:title=" ">
<path fill="none" stroke="#63b8ff" d="M304.36,-223.07C303.85,-228.62 292.23,-233 269.5,-233 236.44,-233 226.89,-223.73 240.83,-215.08"/>
<polygon fill="#63b8ff" stroke="#63b8ff" points="307.06,-220.84 298.17,-215.08 301.53,-225.13 307.06,-220.84"/>
</a>
</g>
</g>
<!-- Node2 -->
<g id="Node000002" class="node">
<title>Node2</title>
<g id="a_Node000002"><a xlink:href="classwmtk_1_1attribute_1_1_attribute.html#af4e2ee79105f21583036f4dd92446d60" target="_top" xlink:title=" ">
<polygon fill="white" stroke="#666666" points="153,-499.5 12,-499.5 12,-469.5 153,-469.5 153,-499.5"/>
<text text-anchor="start" x="20" y="-487.5" font-family="Helvetica,sans-Serif" font-size="10.00">wmtk::attribute::Attribute</text>
<text text-anchor="middle" x="82.5" y="-476.5" font-family="Helvetica,sans-Serif" font-size="10.00">::child_hashes</text>
</a>
</g>
</g>
<!-- Node1&#45;&gt;Node2 -->
<g id="edge1_Node000001_Node000002" class="edge">
<title>Node1&#45;&gt;Node2</title>
<g id="a_edge1_Node000001_Node000002"><a xlink:title=" ">
<path fill="none" stroke="#63b8ff" d="M266.3,-225.22C259.91,-272.91 236.98,-395.32 165,-460.5 161.17,-463.97 156.87,-466.93 152.29,-469.47"/>
<polygon fill="#63b8ff" stroke="#63b8ff" points="269.8,-225.38 267.56,-215.02 262.86,-224.52 269.8,-225.38"/>
</a>
</g>
</g>
<!-- Node3 -->
<g id="Node000003" class="node">
<title>Node3</title>
<g id="a_Node000003"><a xlink:href="classwmtk_1_1multimesh_1_1_multi_mesh_manager.html#ab3eb2223fe1a835fe21994790eab83a6" target="_top" xlink:title=" ">
<polygon fill="white" stroke="#666666" points="162.5,-451.5 2.5,-451.5 2.5,-421.5 162.5,-421.5 162.5,-451.5"/>
<text text-anchor="start" x="10.5" y="-439.5" font-family="Helvetica,sans-Serif" font-size="10.00">wmtk::multimesh::MultiMesh</text>
<text text-anchor="middle" x="82.5" y="-428.5" font-family="Helvetica,sans-Serif" font-size="10.00">Manager::child_hashes</text>
</a>
</g>
</g>
<!-- Node1&#45;&gt;Node3 -->
<g id="edge2_Node000001_Node000003" class="edge">
<title>Node1&#45;&gt;Node3</title>
<g id="a_edge2_Node000001_Node000003"><a xlink:title=" ">
<path fill="none" stroke="#63b8ff" d="M264.34,-224.79C254.52,-265.67 225.97,-361.48 165,-412.5 160.93,-415.91 156.39,-418.83 151.6,-421.34"/>
<polygon fill="#63b8ff" stroke="#63b8ff" points="267.76,-225.53 266.58,-215 260.94,-223.97 267.76,-225.53"/>
</a>
</g>
</g>
<!-- Node4 -->
<g id="Node000004" class="node">
<title>Node4</title>
<g id="a_Node000004"><a xlink:href="classwmtk_1_1hash_3_01wmtk_1_1attribute_1_1_mesh_attribute_handle_01_4.html#ae0414ed707e0bc6bee07025e8e031822" target="_top" xlink:title=" ">
<polygon fill="white" stroke="#666666" points="163,-403 2,-403 2,-362 163,-362 163,-403"/>
<text text-anchor="start" x="10" y="-391" font-family="Helvetica,sans-Serif" font-size="10.00">wmtk::hash&lt; wmtk::attribute</text>
<text text-anchor="start" x="10" y="-380" font-family="Helvetica,sans-Serif" font-size="10.00">::MeshAttributeHandle &gt;</text>
<text text-anchor="middle" x="82.5" y="-369" font-family="Helvetica,sans-Serif" font-size="10.00">::mesh_hash</text>
</a>
</g>
</g>
<!-- Node1&#45;&gt;Node4 -->
<g id="edge3_Node000001_Node000004" class="edge">
<title>Node1&#45;&gt;Node4</title>
<g id="a_edge3_Node000001_Node000004"><a xlink:title=" ">
<path fill="none" stroke="#63b8ff" d="M259.92,-224.73C244.99,-256.06 211.38,-318.16 165,-353.5 160.94,-356.6 156.52,-359.38 151.91,-361.88"/>
<polygon fill="#63b8ff" stroke="#63b8ff" points="263.22,-225.91 264.25,-215.37 256.87,-222.97 263.22,-225.91"/>
</a>
</g>
</g>
<!-- Node5 -->
<g id="Node000005" class="node">
<title>Node5</title>
<g id="a_Node000005"><a xlink:href="classwmtk_1_1hash_3_01attribute_1_1utils_1_1_hybrid_rational_attribute_3_01_d_01_4_01_4.html#a14e6709369383c71b355921c6f45e268" target="_top" xlink:title=" ">
<polygon fill="white" stroke="#666666" points="165,-344 0,-344 0,-303 165,-303 165,-344"/>
<text text-anchor="start" x="8" y="-332" font-family="Helvetica,sans-Serif" font-size="10.00">wmtk::hash&lt; attribute</text>
<text text-anchor="start" x="8" y="-321" font-family="Helvetica,sans-Serif" font-size="10.00">::utils::HybridRationalAttribute</text>
<text text-anchor="middle" x="82.5" y="-310" font-family="Helvetica,sans-Serif" font-size="10.00">&lt; D &gt; &gt;::operator()</text>
</a>
</g>
</g>
<!-- Node1&#45;&gt;Node5 -->
<g id="edge4_Node000001_Node000005" class="edge">
<title>Node1&#45;&gt;Node5</title>
<g id="a_edge4_Node000001_Node000005"><a xlink:title=" ">
<path fill="none" stroke="#63b8ff" d="M252.68,-222.47C233.55,-242.14 199.58,-274.42 165,-294.5 159.8,-297.52 154.24,-300.3 148.56,-302.84"/>
<polygon fill="#63b8ff" stroke="#63b8ff" points="255.32,-224.77 259.71,-215.12 250.27,-219.93 255.32,-224.77"/>
</a>
</g>
</g>
<!-- Node6 -->
<g id="Node000006" class="node">
<title>Node6</title>
<g id="a_Node000006"><a xlink:href="classwmtk_1_1hash_3_01wmtk_1_1attribute_1_1_mesh_attribute_handle_01_4.html#a09fb6c513f84e0503c880ec900ef4477" target="_top" xlink:title=" ">
<polygon fill="white" stroke="#666666" points="163,-285 2,-285 2,-244 163,-244 163,-285"/>
<text text-anchor="start" x="10" y="-273" font-family="Helvetica,sans-Serif" font-size="10.00">wmtk::hash&lt; wmtk::attribute</text>
<text text-anchor="start" x="10" y="-262" font-family="Helvetica,sans-Serif" font-size="10.00">::MeshAttributeHandle &gt;</text>
<text text-anchor="middle" x="82.5" y="-251" font-family="Helvetica,sans-Serif" font-size="10.00">::operator()</text>
</a>
</g>
</g>
<!-- Node1&#45;&gt;Node6 -->
<g id="edge5_Node000001_Node000006" class="edge">
<title>Node1&#45;&gt;Node6</title>
<g id="a_edge5_Node000001_Node000006"><a xlink:title=" ">
<path fill="none" stroke="#63b8ff" d="M228.75,-218.18C205.27,-225.66 174.99,-235.32 148.15,-243.88"/>
<polygon fill="#63b8ff" stroke="#63b8ff" points="229.9,-221.48 238.36,-215.11 227.77,-214.81 229.9,-221.48"/>
</a>
</g>
</g>
<!-- Node7 -->
<g id="Node000007" class="node">
<title>Node7</title>
<g id="a_Node000007"><a xlink:href="classwmtk_1_1hash_3_01wmtk_1_1attribute_1_1_typed_attribute_handle_3_01_t_01_4_01_4.html#af0e27a058a32171a78d2b1feeb0ff9ce" target="_top" xlink:title=" ">
<polygon fill="white" stroke="#666666" points="163,-226 2,-226 2,-185 163,-185 163,-226"/>
<text text-anchor="start" x="10" y="-214" font-family="Helvetica,sans-Serif" font-size="10.00">wmtk::hash&lt; wmtk::attribute</text>
<text text-anchor="start" x="10" y="-203" font-family="Helvetica,sans-Serif" font-size="10.00">::TypedAttributeHandle&lt;</text>
<text text-anchor="middle" x="82.5" y="-192" font-family="Helvetica,sans-Serif" font-size="10.00"> T &gt; &gt;::operator()</text>
</a>
</g>
</g>
<!-- Node1&#45;&gt;Node7 -->
<g id="edge6_Node000001_Node000007" class="edge">
<title>Node1&#45;&gt;Node7</title>
<g id="a_edge6_Node000001_Node000007"><a xlink:title=" ">
<path fill="none" stroke="#63b8ff" d="M190.73,-205.5C181.6,-205.5 172.28,-205.5 163.13,-205.5"/>
<polygon fill="#63b8ff" stroke="#63b8ff" points="190.93,-209 200.93,-205.5 190.93,-202 190.93,-209"/>
</a>
</g>
</g>
<!-- Node8 -->
<g id="Node000008" class="node">
<title>Node8</title>
<g id="a_Node000008"><a xlink:href="namespacewmtk_1_1utils.html#a7d89b3a11163a2c07d601f86b7815085" target="_top" xlink:title=" ">
<polygon fill="white" stroke="#666666" points="151,-167 14,-167 14,-148 151,-148 151,-167"/>
<text text-anchor="middle" x="82.5" y="-155" font-family="Helvetica,sans-Serif" font-size="10.00">wmtk::utils::vector_hash</text>
</a>
</g>
</g>
<!-- Node1&#45;&gt;Node8 -->
<g id="edge7_Node000001_Node000008" class="edge">
<title>Node1&#45;&gt;Node8</title>
<g id="a_edge7_Node000001_Node000008"><a xlink:title=" ">
<path fill="none" stroke="#63b8ff" d="M226.26,-193.21C207.54,-187.88 185.22,-181.69 165,-176.5 152.33,-173.25 138.5,-169.94 125.89,-167.01"/>
<polygon fill="#63b8ff" stroke="#63b8ff" points="225.39,-196.6 235.97,-195.99 227.32,-189.87 225.39,-196.6"/>
</a>
</g>
</g>
<!-- Node9 -->
<g id="Node000009" class="node">
<title>Node9</title>
<g id="a_Node000009"><a xlink:href="namespacewmtk_1_1utils.html#aaa740c5fb7d719b1add0bc9acee3d8e8" target="_top" xlink:title=" ">
<polygon fill="white" stroke="#666666" points="151,-130 14,-130 14,-111 151,-111 151,-130"/>
<text text-anchor="middle" x="82.5" y="-118" font-family="Helvetica,sans-Serif" font-size="10.00">wmtk::utils::vector_hash</text>
</a>
</g>
</g>
<!-- Node1&#45;&gt;Node9 -->
<g id="edge8_Node000001_Node000009" class="edge">
<title>Node1&#45;&gt;Node9</title>
<g id="a_edge8_Node000001_Node000009"><a xlink:title=" ">
<path fill="none" stroke="#63b8ff" d="M248.46,-189.78C228.41,-174.79 196.14,-152.61 165,-139.5 156.03,-135.72 146.17,-132.62 136.5,-130.1"/>
<polygon fill="#63b8ff" stroke="#63b8ff" points="246.44,-192.65 256.52,-195.92 250.68,-187.07 246.44,-192.65"/>
</a>
</g>
</g>
<!-- Node10 -->
<g id="Node000010" class="node">
<title>Node10</title>
<g id="a_Node000010"><a xlink:href="namespacewmtk_1_1utils.html#ad2cc039a4328550c4ace64c3d1718036" target="_top" xlink:title=" ">
<polygon fill="white" stroke="#666666" points="151,-93 14,-93 14,-74 151,-74 151,-93"/>
<text text-anchor="middle" x="82.5" y="-81" font-family="Helvetica,sans-Serif" font-size="10.00">wmtk::utils::vector_hash</text>
</a>
</g>
</g>
<!-- Node1&#45;&gt;Node10 -->
<g id="edge9_Node000001_Node000010" class="edge">
<title>Node1&#45;&gt;Node10</title>
<g id="a_edge9_Node000001_Node000010"><a xlink:title=" ">
<path fill="none" stroke="#63b8ff" d="M255.56,-187.47C237.84,-164.15 203.76,-123.98 165,-102.5 158.01,-98.63 150.26,-95.54 142.4,-93.08"/>
<polygon fill="#63b8ff" stroke="#63b8ff" points="252.96,-189.83 261.73,-195.78 258.58,-185.66 252.96,-189.83"/>
</a>
</g>
</g>
<!-- Node11 -->
<g id="Node000011" class="node">
<title>Node11</title>
<g id="a_Node000011"><a xlink:href="namespacewmtk_1_1utils.html#ac02c195a92eb9c9582984a2d94fba796" target="_top" xlink:title=" ">
<polygon fill="white" stroke="#666666" points="151,-56 14,-56 14,-37 151,-37 151,-56"/>
<text text-anchor="middle" x="82.5" y="-44" font-family="Helvetica,sans-Serif" font-size="10.00">wmtk::utils::vector_hash</text>
</a>
</g>
</g>
<!-- Node1&#45;&gt;Node11 -->
<g id="edge10_Node000001_Node000011" class="edge">
<title>Node1&#45;&gt;Node11</title>
<g id="a_edge10_Node000001_Node000011"><a xlink:title=" ">
<path fill="none" stroke="#63b8ff" d="M260.05,-186.74C245.32,-156.28 211.97,-96.38 165,-65.5 159.05,-61.59 152.39,-58.48 145.52,-56.01"/>
<polygon fill="#63b8ff" stroke="#63b8ff" points="256.91,-188.29 264.32,-195.85 263.25,-185.31 256.91,-188.29"/>
</a>
</g>
</g>
<!-- Node12 -->
<g id="Node000012" class="node">
<title>Node12</title>
<g id="a_Node000012"><a xlink:href="namespacewmtk_1_1utils.html#abfdeacbb173bcc7af1a15955b29c78be" target="_top" xlink:title=" ">
<polygon fill="white" stroke="#666666" points="151,-19 14,-19 14,0 151,0 151,-19"/>
<text text-anchor="middle" x="82.5" y="-7" font-family="Helvetica,sans-Serif" font-size="10.00">wmtk::utils::vector_hash</text>
</a>
</g>
</g>
<!-- Node1&#45;&gt;Node12 -->
<g id="edge12_Node000001_Node000012" class="edge">
<title>Node1&#45;&gt;Node12</title>
<g id="a_edge12_Node000001_Node000012"><a xlink:title=" ">
<path fill="none" stroke="#63b8ff" d="M262.82,-186C251.03,-149.13 220.28,-69.26 165,-28.5 159.74,-24.62 153.81,-21.52 147.61,-19.04"/>
<polygon fill="#63b8ff" stroke="#63b8ff" points="259.48,-187.05 265.76,-195.58 266.17,-184.99 259.48,-187.05"/>
</a>
</g>
</g>
</g>
</svg>
