<?xml version="1.0" encoding="UTF-8" standalone="no"?>
<!DOCTYPE svg PUBLIC "-//W3C//DTD SVG 1.1//EN"
 "http://www.w3.org/Graphics/SVG/1.1/DTD/svg11.dtd">
<!-- Generated by graphviz version 2.43.0 (0)
 -->
<!-- Title: wmtk::components::output_hdf5 Pages: 1 -->
<svg width="745pt" height="334pt"
 viewBox="0.00 0.00 745.00 334.00" xmlns="http://www.w3.org/2000/svg" xmlns:xlink="http://www.w3.org/1999/xlink">
<g id="graph0" class="graph" transform="scale(1 1) rotate(0) translate(4 330)">
<title>wmtk::components::output_hdf5</title>
<!-- Node1 -->
<g id="Node000001" class="node">
<title>Node1</title>
<g id="a_Node000001"><a xlink:title="Write the mesh to file.">
<polygon fill="#999999" stroke="#666666" points="175,-158.5 0,-158.5 0,-139.5 175,-139.5 175,-158.5"/>
<text text-anchor="middle" x="87.5" y="-146.5" font-family="Helvetica,sans-Serif" font-size="10.00">wmtk::components::output_hdf5</text>
</a>
</g>
</g>
<!-- Node2 -->
<g id="Node000002" class="node">
<title>Node2</title>
<g id="a_Node000002"><a xlink:href="classwmtk_1_1_mesh.html#a32203cf93aa0cff5c2e5c1fac502ec27" target="_top" xlink:title=" ">
<polygon fill="white" stroke="#666666" points="335,-158.5 211,-158.5 211,-139.5 335,-139.5 335,-158.5"/>
<text text-anchor="middle" x="273" y="-146.5" font-family="Helvetica,sans-Serif" font-size="10.00">wmtk::Mesh::serialize</text>
</a>
</g>
</g>
<!-- Node1&#45;&gt;Node2 -->
<g id="edge1_Node000001_Node000002" class="edge">
<title>Node1&#45;&gt;Node2</title>
<g id="a_edge1_Node000001_Node000002"><a xlink:title=" ">
<path fill="none" stroke="#63b8ff" d="M175.15,-149C183.72,-149 192.36,-149 200.75,-149"/>
<polygon fill="#63b8ff" stroke="#63b8ff" points="200.85,-152.5 210.85,-149 200.85,-145.5 200.85,-152.5"/>
</a>
</g>
</g>
<!-- Node3 -->
<g id="Node000003" class="node">
<title>Node3</title>
<g id="a_Node000003"><a xlink:href="classwmtk_1_1multimesh_1_1_multi_mesh_manager.html#a812e0992812b2c48a889e10ae9e50758" target="_top" xlink:title=" ">
<polygon fill="white" stroke="#666666" points="536,-308 376,-308 376,-278 536,-278 536,-308"/>
<text text-anchor="start" x="384" y="-296" font-family="Helvetica,sans-Serif" font-size="10.00">wmtk::multimesh::MultiMesh</text>
<text text-anchor="middle" x="456" y="-285" font-family="Helvetica,sans-Serif" font-size="10.00">Manager::absolute_id</text>
</a>
</g>
</g>
<!-- Node2&#45;&gt;Node3 -->
<g id="edge2_Node000002_Node000003" class="edge">
<title>Node2&#45;&gt;Node3</title>
<g id="a_edge2_Node000002_Node000003"><a xlink:title=" ">
<path fill="none" stroke="#63b8ff" d="M279.1,-158.78C291.57,-181.69 325.88,-239.13 371,-269 373.43,-270.61 375.97,-272.11 378.59,-273.51"/>
<polygon fill="#63b8ff" stroke="#63b8ff" points="377.22,-276.74 387.75,-277.91 380.25,-270.43 377.22,-276.74"/>
</a>
</g>
</g>
<!-- Node5 -->
<g id="Node000005" class="node">
<title>Node5</title>
<g id="a_Node000005"><a xlink:href="classwmtk_1_1multimesh_1_1_multi_mesh_manager.html#ab29db13e4be68177d7ae3c188d7b275e" target="_top" xlink:title=" ">
<polygon fill="white" stroke="#666666" points="536,-260 376,-260 376,-230 536,-230 536,-260"/>
<text text-anchor="start" x="384" y="-248" font-family="Helvetica,sans-Serif" font-size="10.00">wmtk::multimesh::MultiMesh</text>
<text text-anchor="middle" x="456" y="-237" font-family="Helvetica,sans-Serif" font-size="10.00">Manager::relative_id</text>
</a>
</g>
</g>
<!-- Node2&#45;&gt;Node5 -->
<g id="edge5_Node000002_Node000005" class="edge">
<title>Node2&#45;&gt;Node5</title>
<g id="a_edge5_Node000002_Node000005"><a xlink:title=" ">
<path fill="none" stroke="#63b8ff" d="M284.22,-158.58C301.04,-173.88 336.21,-203.83 371,-221 374.83,-222.89 378.82,-224.65 382.91,-226.29"/>
<polygon fill="#63b8ff" stroke="#63b8ff" points="381.98,-229.68 392.57,-229.91 384.43,-223.12 381.98,-229.68"/>
</a>
</g>
</g>
<!-- Node7 -->
<g id="Node000007" class="node">
<title>Node7</title>
<g id="a_Node000007"><a xlink:href="classwmtk_1_1attribute_1_1_attribute_manager.html#a2f9290f582622604dc0daba270c84f9b" target="_top" xlink:title=" ">
<polygon fill="white" stroke="#666666" points="526.5,-212 385.5,-212 385.5,-182 526.5,-182 526.5,-212"/>
<text text-anchor="start" x="393.5" y="-200" font-family="Helvetica,sans-Serif" font-size="10.00">wmtk::attribute::Attribute</text>
<text text-anchor="middle" x="456" y="-189" font-family="Helvetica,sans-Serif" font-size="10.00">Manager::serialize</text>
</a>
</g>
</g>
<!-- Node2&#45;&gt;Node7 -->
<g id="edge7_Node000002_Node000007" class="edge">
<title>Node2&#45;&gt;Node7</title>
<g id="a_edge7_Node000002_Node000007"><a xlink:title=" ">
<path fill="none" stroke="#63b8ff" d="M310.19,-158.6C332.51,-164.52 361.83,-172.29 388.24,-179.3"/>
<polygon fill="#63b8ff" stroke="#63b8ff" points="387.64,-182.76 398.2,-181.94 389.43,-175.99 387.64,-182.76"/>
</a>
</g>
</g>
<!-- Node10 -->
<g id="Node000010" class="node">
<title>Node10</title>
<g id="a_Node000010"><a xlink:href="classwmtk_1_1multimesh_1_1_multi_mesh_manager.html#a9c0175530619088d9f52b38f1417cc1c" target="_top" xlink:title=" ">
<polygon fill="white" stroke="#666666" points="536,-164 376,-164 376,-134 536,-134 536,-164"/>
<text text-anchor="start" x="384" y="-152" font-family="Helvetica,sans-Serif" font-size="10.00">wmtk::multimesh::MultiMesh</text>
<text text-anchor="middle" x="456" y="-141" font-family="Helvetica,sans-Serif" font-size="10.00">Manager::serialize</text>
</a>
</g>
</g>
<!-- Node2&#45;&gt;Node10 -->
<g id="edge10_Node000002_Node000010" class="edge">
<title>Node2&#45;&gt;Node10</title>
<g id="a_edge10_Node000002_Node000010"><a xlink:title=" ">
<path fill="none" stroke="#63b8ff" d="M335.03,-149C344.98,-149 355.47,-149 365.93,-149"/>
<polygon fill="#63b8ff" stroke="#63b8ff" points="365.94,-152.5 375.94,-149 365.94,-145.5 365.94,-152.5"/>
</a>
</g>
</g>
<!-- Node11 -->
<g id="Node000011" class="node">
<title>Node11</title>
<g id="a_Node000011"><a xlink:href="classwmtk_1_1_mesh.html#abaf00438d0700358b160e310d69725c9" target="_top" xlink:title=" ">
<polygon fill="white" stroke="#666666" points="541,-115.5 371,-115.5 371,-96.5 541,-96.5 541,-115.5"/>
<text text-anchor="middle" x="456" y="-103.5" font-family="Helvetica,sans-Serif" font-size="10.00">wmtk::Mesh::top_simplex_type</text>
</a>
</g>
</g>
<!-- Node2&#45;&gt;Node11 -->
<g id="edge11_Node000002_Node000011" class="edge">
<title>Node2&#45;&gt;Node11</title>
<g id="a_edge11_Node000002_Node000011"><a xlink:title=" ">
<path fill="none" stroke="#63b8ff" d="M311.73,-139.48C329.67,-135 351.42,-129.64 371,-125 380.93,-122.65 391.54,-120.2 401.75,-117.87"/>
<polygon fill="#63b8ff" stroke="#63b8ff" points="402.82,-121.22 411.8,-115.6 401.27,-114.39 402.82,-121.22"/>
</a>
</g>
</g>
<!-- Node13 -->
<g id="Node000013" class="node">
<title>Node13</title>
<g id="a_Node000013"><a xlink:href="classwmtk_1_1_mesh_writer.html#ac54560ef6ed79d5dfdb1a2c9dcb8687c" target="_top" xlink:title=" ">
<polygon fill="white" stroke="#666666" points="524.5,-78 387.5,-78 387.5,-48 524.5,-48 524.5,-78"/>
<text text-anchor="start" x="395.5" y="-66" font-family="Helvetica,sans-Serif" font-size="10.00">wmtk::MeshWriter::write</text>
<text text-anchor="middle" x="456" y="-55" font-family="Helvetica,sans-Serif" font-size="10.00">_absolute_id</text>
</a>
</g>
</g>
<!-- Node2&#45;&gt;Node13 -->
<g id="edge13_Node000002_Node000013" class="edge">
<title>Node2&#45;&gt;Node13</title>
<g id="a_edge13_Node000002_Node000013"><a xlink:title=" ">
<path fill="none" stroke="#63b8ff" d="M286.49,-139.31C304.34,-125.88 338.57,-101.62 371,-87 375.35,-85.04 379.9,-83.2 384.54,-81.47"/>
<polygon fill="#63b8ff" stroke="#63b8ff" points="385.86,-84.72 394.13,-78.11 383.54,-78.12 385.86,-84.72"/>
</a>
</g>
</g>
<!-- Node14 -->
<g id="Node000014" class="node">
<title>Node14</title>
<g id="a_Node000014"><a xlink:href="classwmtk_1_1_mesh_writer.html#a0e4fd87b00f2cb95a14c19e5a3670bde" target="_top" xlink:title=" ">
<polygon fill="white" stroke="#666666" points="524.5,-30 387.5,-30 387.5,0 524.5,0 524.5,-30"/>
<text text-anchor="start" x="395.5" y="-18" font-family="Helvetica,sans-Serif" font-size="10.00">wmtk::MeshWriter::write</text>
<text text-anchor="middle" x="456" y="-7" font-family="Helvetica,sans-Serif" font-size="10.00">_top_simplex_type</text>
</a>
</g>
</g>
<!-- Node2&#45;&gt;Node14 -->
<g id="edge14_Node000002_Node000014" class="edge">
<title>Node2&#45;&gt;Node14</title>
<g id="a_edge14_Node000002_Node000014"><a xlink:title=" ">
<path fill="none" stroke="#63b8ff" d="M279.71,-139.41C292.96,-118.03 327.94,-66.19 371,-39 373.61,-37.35 376.33,-35.82 379.14,-34.38"/>
<polygon fill="#63b8ff" stroke="#63b8ff" points="380.72,-37.51 388.33,-30.14 377.79,-31.15 380.72,-37.51"/>
</a>
</g>
</g>
<!-- Node3&#45;&gt;Node3 -->
<g id="edge3_Node000003_Node000003" class="edge">
<title>Node3&#45;&gt;Node3</title>
<g id="a_edge3_Node000003_Node000003"><a xlink:title=" ">
<path fill="none" stroke="#63b8ff" d="M424.01,-308.28C416.9,-317.41 427.56,-326 456,-326 472.88,-326 483.5,-322.97 487.86,-318.6"/>
<polygon fill="#63b8ff" stroke="#63b8ff" points="491.36,-318.32 487.99,-308.28 484.36,-318.23 491.36,-318.32"/>
</a>
</g>
</g>
<!-- Node4 -->
<g id="Node000004" class="node">
<title>Node4</title>
<g id="a_Node000004"><a xlink:href="classwmtk_1_1multimesh_1_1_multi_mesh_manager.html#a7d39339adb56b1798fe817d81bfcc67c" target="_top" xlink:title="Specifies whether this structure is the root of a multi&#45;mesh tree.">
<polygon fill="white" stroke="#666666" points="737,-308 577,-308 577,-278 737,-278 737,-308"/>
<text text-anchor="start" x="585" y="-296" font-family="Helvetica,sans-Serif" font-size="10.00">wmtk::multimesh::MultiMesh</text>
<text text-anchor="middle" x="657" y="-285" font-family="Helvetica,sans-Serif" font-size="10.00">Manager::is_root</text>
</a>
</g>
</g>
<!-- Node3&#45;&gt;Node4 -->
<g id="edge4_Node000003_Node000004" class="edge">
<title>Node3&#45;&gt;Node4</title>
<g id="a_edge4_Node000003_Node000004"><a xlink:title=" ">
<path fill="none" stroke="#63b8ff" d="M536.22,-293C546.22,-293 556.5,-293 566.65,-293"/>
<polygon fill="#63b8ff" stroke="#63b8ff" points="566.73,-296.5 576.73,-293 566.73,-289.5 566.73,-296.5"/>
</a>
</g>
</g>
<!-- Node6 -->
<g id="Node000006" class="node">
<title>Node6</title>
<g id="a_Node000006"><a xlink:href="classwmtk_1_1multimesh_1_1_multi_mesh_manager.html#a4f99281b52dfca1c9baff535917d58a7" target="_top" xlink:title=" ">
<polygon fill="white" stroke="#666666" points="737,-260 577,-260 577,-230 737,-230 737,-260"/>
<text text-anchor="start" x="585" y="-248" font-family="Helvetica,sans-Serif" font-size="10.00">wmtk::multimesh::MultiMesh</text>
<text text-anchor="middle" x="657" y="-237" font-family="Helvetica,sans-Serif" font-size="10.00">Manager::is_child</text>
</a>
</g>
</g>
<!-- Node5&#45;&gt;Node6 -->
<g id="edge6_Node000005_Node000006" class="edge">
<title>Node5&#45;&gt;Node6</title>
<g id="a_edge6_Node000005_Node000006"><a xlink:title=" ">
<path fill="none" stroke="#63b8ff" d="M536.22,-245C546.22,-245 556.5,-245 566.65,-245"/>
<polygon fill="#63b8ff" stroke="#63b8ff" points="566.73,-248.5 576.73,-245 566.73,-241.5 566.73,-248.5"/>
</a>
</g>
</g>
<!-- Node8 -->
<g id="Node000008" class="node">
<title>Node8</title>
<g id="a_Node000008"><a xlink:href="classwmtk_1_1_mesh_writer.html#a9775a31599c23785098b9be77bdbfb62" target="_top" xlink:title=" ">
<polygon fill="white" stroke="#666666" points="725.5,-209.5 588.5,-209.5 588.5,-190.5 725.5,-190.5 725.5,-209.5"/>
<text text-anchor="middle" x="657" y="-197.5" font-family="Helvetica,sans-Serif" font-size="10.00">wmtk::MeshWriter::write</text>
</a>
</g>
</g>
<!-- Node7&#45;&gt;Node8 -->
<g id="edge8_Node000007_Node000008" class="edge">
<title>Node7&#45;&gt;Node8</title>
<g id="a_edge8_Node000007_Node000008"><a xlink:title=" ">
<path fill="none" stroke="#63b8ff" d="M526.6,-198.05C543.21,-198.3 561.06,-198.57 578.02,-198.82"/>
<polygon fill="#63b8ff" stroke="#63b8ff" points="578.4,-202.33 588.45,-198.98 578.5,-195.33 578.4,-202.33"/>
</a>
</g>
</g>
<!-- Node9 -->
<g id="Node000009" class="node">
<title>Node9</title>
<g id="a_Node000009"><a xlink:href="classwmtk_1_1_mesh_writer.html#adaf132d57772f8692155189c4c5789b9" target="_top" xlink:title=" ">
<polygon fill="white" stroke="#666666" points="725.5,-172 588.5,-172 588.5,-142 725.5,-142 725.5,-172"/>
<text text-anchor="start" x="596.5" y="-160" font-family="Helvetica,sans-Serif" font-size="10.00">wmtk::MeshWriter::write</text>
<text text-anchor="middle" x="657" y="-149" font-family="Helvetica,sans-Serif" font-size="10.00">_capacities</text>
</a>
</g>
</g>
<!-- Node7&#45;&gt;Node9 -->
<g id="edge9_Node000007_Node000009" class="edge">
<title>Node7&#45;&gt;Node9</title>
<g id="a_edge9_Node000007_Node000009"><a xlink:title=" ">
<path fill="none" stroke="#63b8ff" d="M526.6,-183.01C543.37,-179.64 561.39,-176.02 578.5,-172.58"/>
<polygon fill="#63b8ff" stroke="#63b8ff" points="579.34,-175.98 588.45,-170.58 577.96,-169.12 579.34,-175.98"/>
</a>
</g>
</g>
<!-- Node12 -->
<g id="Node000012" class="node">
<title>Node12</title>
<g id="a_Node000012"><a xlink:href="classwmtk_1_1_mesh.html#a933f681cf24a63b155c9462280385200" target="_top" xlink:title=" ">
<polygon fill="white" stroke="#666666" points="717.5,-121 596.5,-121 596.5,-91 717.5,-91 717.5,-121"/>
<text text-anchor="start" x="604.5" y="-109" font-family="Helvetica,sans-Serif" font-size="10.00">wmtk::Mesh::top_cell</text>
<text text-anchor="middle" x="657" y="-98" font-family="Helvetica,sans-Serif" font-size="10.00">_dimension</text>
</a>
</g>
</g>
<!-- Node11&#45;&gt;Node12 -->
<g id="edge12_Node000011_Node000012" class="edge">
<title>Node11&#45;&gt;Node12</title>
<g id="a_edge12_Node000011_Node000012"><a xlink:title=" ">
<path fill="none" stroke="#63b8ff" d="M541.11,-106C556.04,-106 571.46,-106 585.95,-106"/>
<polygon fill="#63b8ff" stroke="#63b8ff" points="586.32,-109.5 596.32,-106 586.32,-102.5 586.32,-109.5"/>
</a>
</g>
</g>
</g>
</svg>
