<?xml version="1.0" encoding="UTF-8" standalone="no"?>
<!DOCTYPE svg PUBLIC "-//W3C//DTD SVG 1.1//EN"
 "http://www.w3.org/Graphics/SVG/1.1/DTD/svg11.dtd">
<!-- Generated by graphviz version 2.43.0 (0)
 -->
<!-- Title: wmtk::components::internal::CDT_internal Pages: 1 -->
<svg width="957pt" height="624pt"
 viewBox="0.00 0.00 957.00 624.00" xmlns="http://www.w3.org/2000/svg" xmlns:xlink="http://www.w3.org/1999/xlink">
<g id="graph0" class="graph" transform="scale(1 1) rotate(0) translate(4 620)">
<title>wmtk::components::internal::CDT_internal</title>
<!-- Node1 -->
<g id="Node000001" class="node">
<title>Node1</title>
<g id="a_Node000001"><a xlink:title=" ">
<polygon fill="#999999" stroke="#666666" points="154,-176 0,-176 0,-146 154,-146 154,-176"/>
<text text-anchor="start" x="8" y="-164" font-family="Helvetica,sans-Serif" font-size="10.00">wmtk::components::internal</text>
<text text-anchor="middle" x="77" y="-153" font-family="Helvetica,sans-Serif" font-size="10.00">::CDT_internal</text>
</a>
</g>
</g>
<!-- Node1&#45;&gt;Node1 -->
<g id="edge1_Node000001_Node000001" class="edge">
<title>Node1&#45;&gt;Node1</title>
<g id="a_edge1_Node000001_Node000001"><a xlink:title=" ">
<path fill="none" stroke="#63b8ff" d="M43.6,-176.28C36.18,-185.41 47.31,-194 77,-194 94.63,-194 105.71,-190.97 110.26,-186.6"/>
<polygon fill="#63b8ff" stroke="#63b8ff" points="113.76,-186.32 110.4,-176.28 106.76,-186.23 113.76,-186.32"/>
</a>
</g>
</g>
<!-- Node2 -->
<g id="Node000002" class="node">
<title>Node2</title>
<g id="a_Node000002"><a xlink:href="namespacecdt__lib.html#ab7368c314b3a84cba28a1a4c156c85dd" target="_top" xlink:title=" ">
<polygon fill="white" stroke="#666666" points="326,-472.5 208,-472.5 208,-453.5 326,-453.5 326,-472.5"/>
<text text-anchor="middle" x="267" y="-460.5" font-family="Helvetica,sans-Serif" font-size="10.00">cdt_lib::cdt_to_string</text>
</a>
</g>
</g>
<!-- Node1&#45;&gt;Node2 -->
<g id="edge2_Node000001_Node000002" class="edge">
<title>Node1&#45;&gt;Node2</title>
<g id="a_edge2_Node000001_Node000002"><a xlink:title=" ">
<path fill="none" stroke="#63b8ff" d="M87.58,-176.39C119.2,-227.19 220.19,-389.41 254.48,-444.49"/>
<polygon fill="#63b8ff" stroke="#63b8ff" points="251.65,-446.57 259.9,-453.21 257.59,-442.87 251.65,-446.57"/>
</a>
</g>
</g>
<!-- Node6 -->
<g id="Node000006" class="node">
<title>Node6</title>
<g id="a_Node000006"><a xlink:href="namespacewmtk_1_1components_1_1internal.html#ae96e456a97cc6bb91612325fce6c6abb" target="_top" xlink:title=" ">
<polygon fill="white" stroke="#666666" points="344,-219 190,-219 190,-189 344,-189 344,-219"/>
<text text-anchor="start" x="198" y="-207" font-family="Helvetica,sans-Serif" font-size="10.00">wmtk::components::internal</text>
<text text-anchor="middle" x="267" y="-196" font-family="Helvetica,sans-Serif" font-size="10.00">::get_vf</text>
</a>
</g>
</g>
<!-- Node1&#45;&gt;Node6 -->
<g id="edge6_Node000001_Node000006" class="edge">
<title>Node1&#45;&gt;Node6</title>
<g id="a_edge6_Node000001_Node000006"><a xlink:title=" ">
<path fill="none" stroke="#63b8ff" d="M143.75,-176.04C158.78,-179.48 174.87,-183.16 190.28,-186.68"/>
<polygon fill="#63b8ff" stroke="#63b8ff" points="189.76,-190.15 200.28,-188.97 191.32,-183.33 189.76,-190.15"/>
</a>
</g>
</g>
<!-- Node11 -->
<g id="Node000011" class="node">
<title>Node11</title>
<g id="a_Node000011"><a xlink:href="namespacewmtk.html#a6a35f11c12436093d26fdd8be6fecc06" target="_top" xlink:title="Retrieves the current logger.">
<polygon fill="white" stroke="#666666" points="504,-170.5 423,-170.5 423,-151.5 504,-151.5 504,-170.5"/>
<text text-anchor="middle" x="463.5" y="-158.5" font-family="Helvetica,sans-Serif" font-size="10.00">wmtk::logger</text>
</a>
</g>
</g>
<!-- Node1&#45;&gt;Node11 -->
<g id="edge28_Node000001_Node000011" class="edge">
<title>Node1&#45;&gt;Node11</title>
<g id="a_edge28_Node000001_Node000011"><a xlink:title=" ">
<path fill="none" stroke="#63b8ff" d="M154.42,-161C231.24,-161 347.38,-161 412.93,-161"/>
<polygon fill="#63b8ff" stroke="#63b8ff" points="413,-164.5 423,-161 413,-157.5 413,-164.5"/>
</a>
</g>
</g>
<!-- Node26 -->
<g id="Node000026" class="node">
<title>Node26</title>
<g id="a_Node000026"><a xlink:href="namespacewmtk_1_1mesh__utils.html#ad92eb4095d516f6a20e25587f9effe80" target="_top" xlink:title=" ">
<polygon fill="white" stroke="#666666" points="329.5,-121 204.5,-121 204.5,-91 329.5,-91 329.5,-121"/>
<text text-anchor="start" x="212.5" y="-109" font-family="Helvetica,sans-Serif" font-size="10.00">wmtk::mesh_utils::set</text>
<text text-anchor="middle" x="267" y="-98" font-family="Helvetica,sans-Serif" font-size="10.00">_matrix_attribute</text>
</a>
</g>
</g>
<!-- Node1&#45;&gt;Node26 -->
<g id="edge29_Node000001_Node000026" class="edge">
<title>Node1&#45;&gt;Node26</title>
<g id="a_edge29_Node000001_Node000026"><a xlink:title=" ">
<path fill="none" stroke="#63b8ff" d="M129.37,-145.97C152.69,-139.15 180.44,-131.03 204.82,-123.9"/>
<polygon fill="#63b8ff" stroke="#63b8ff" points="206.08,-127.18 214.69,-121.01 204.11,-120.46 206.08,-127.18"/>
</a>
</g>
</g>
<!-- Node30 -->
<g id="Node000030" class="node">
<title>Node30</title>
<g id="a_Node000030"><a xlink:href="namespacewmtk_1_1utils.html#a76b4d882261cf6aef7affd8b13c71efd" target="_top" xlink:title=" ">
<polygon fill="white" stroke="#666666" points="342.5,-54.5 191.5,-54.5 191.5,-35.5 342.5,-35.5 342.5,-54.5"/>
<text text-anchor="middle" x="267" y="-42.5" font-family="Helvetica,sans-Serif" font-size="10.00">wmtk::utils::wmtk_orient3d</text>
</a>
</g>
</g>
<!-- Node1&#45;&gt;Node30 -->
<g id="edge34_Node000001_Node000030" class="edge">
<title>Node1&#45;&gt;Node30</title>
<g id="a_edge34_Node000001_Node000030"><a xlink:title=" ">
<path fill="none" stroke="#63b8ff" d="M97.58,-145.72C119.44,-129.02 156.2,-101.97 190,-82 204.27,-73.57 220.74,-65.38 234.69,-58.85"/>
<polygon fill="#63b8ff" stroke="#63b8ff" points="236.27,-61.98 243.89,-54.62 233.34,-55.62 236.27,-61.98"/>
</a>
</g>
</g>
<!-- Node3 -->
<g id="Node000003" class="node">
<title>Node3</title>
<g id="a_Node000003"><a xlink:href="namespacecdt__lib.html#a755b47a5d5cb774f469c375ffabd31d0" target="_top" xlink:title=" ">
<polygon fill="white" stroke="#666666" points="519.5,-502 407.5,-502 407.5,-472 519.5,-472 519.5,-502"/>
<text text-anchor="start" x="415.5" y="-490" font-family="Helvetica,sans-Serif" font-size="10.00">cdt_lib::convert_cdt</text>
<text text-anchor="middle" x="463.5" y="-479" font-family="Helvetica,sans-Serif" font-size="10.00">_to_stl</text>
</a>
</g>
</g>
<!-- Node2&#45;&gt;Node3 -->
<g id="edge3_Node000002_Node000003" class="edge">
<title>Node2&#45;&gt;Node3</title>
<g id="a_edge3_Node000002_Node000003"><a xlink:title=" ">
<path fill="none" stroke="#63b8ff" d="M326.09,-470.17C348.52,-472.94 374.28,-476.11 397.34,-478.96"/>
<polygon fill="#63b8ff" stroke="#63b8ff" points="397.02,-482.45 407.37,-480.2 397.88,-475.5 397.02,-482.45"/>
</a>
</g>
</g>
<!-- Node4 -->
<g id="Node000004" class="node">
<title>Node4</title>
<g id="a_Node000004"><a xlink:href="namespacecdt__lib.html#a52084504838ae63f4bee25cc36eafe9b" target="_top" xlink:title=" ">
<polygon fill="white" stroke="#666666" points="530.5,-454 396.5,-454 396.5,-424 530.5,-424 530.5,-454"/>
<text text-anchor="start" x="404.5" y="-442" font-family="Helvetica,sans-Serif" font-size="10.00">cdt_lib::convert_trimesh</text>
<text text-anchor="middle" x="463.5" y="-431" font-family="Helvetica,sans-Serif" font-size="10.00">_to_input_plc</text>
</a>
</g>
</g>
<!-- Node2&#45;&gt;Node4 -->
<g id="edge4_Node000002_Node000004" class="edge">
<title>Node2&#45;&gt;Node4</title>
<g id="a_edge4_Node000002_Node000004"><a xlink:title=" ">
<path fill="none" stroke="#63b8ff" d="M326.09,-455.83C344.96,-453.5 366.18,-450.88 386.17,-448.42"/>
<polygon fill="#63b8ff" stroke="#63b8ff" points="386.68,-451.88 396.18,-447.18 385.82,-444.93 386.68,-451.88"/>
</a>
</g>
</g>
<!-- Node5 -->
<g id="Node000005" class="node">
<title>Node5</title>
<g id="a_Node000005"><a xlink:href="namespacecdt__lib.html#afaf9b472bc51a18a38c95758875d7b30" target="_top" xlink:title=" ">
<polygon fill="white" stroke="#666666" points="533.5,-539.5 393.5,-539.5 393.5,-520.5 533.5,-520.5 533.5,-539.5"/>
<text text-anchor="middle" x="463.5" y="-527.5" font-family="Helvetica,sans-Serif" font-size="10.00">cdt_lib::createSteinerCDT</text>
</a>
</g>
</g>
<!-- Node2&#45;&gt;Node5 -->
<g id="edge5_Node000002_Node000005" class="edge">
<title>Node2&#45;&gt;Node5</title>
<g id="a_edge5_Node000002_Node000005"><a xlink:title=" ">
<path fill="none" stroke="#63b8ff" d="M287.42,-472.58C309.44,-483.15 346.62,-500.1 380,-511 387.93,-513.59 396.41,-515.97 404.79,-518.1"/>
<polygon fill="#63b8ff" stroke="#63b8ff" points="404.01,-521.51 414.55,-520.48 405.67,-514.71 404.01,-521.51"/>
</a>
</g>
</g>
<!-- Node6&#45;&gt;Node6 -->
<g id="edge11_Node000006_Node000006" class="edge">
<title>Node6&#45;&gt;Node6</title>
<g id="a_edge11_Node000006_Node000006"><a xlink:title=" ">
<path fill="none" stroke="#63b8ff" d="M233.6,-219.28C226.18,-228.41 237.31,-237 267,-237 284.63,-237 295.71,-233.97 300.26,-229.6"/>
<polygon fill="#63b8ff" stroke="#63b8ff" points="303.76,-229.32 300.4,-219.28 296.76,-229.23 303.76,-229.32"/>
</a>
</g>
</g>
<!-- Node7 -->
<g id="Node000007" class="node">
<title>Node7</title>
<g id="a_Node000007"><a xlink:href="classwmtk_1_1utils_1_1_eigen_matrix_writer.html#abad266697117582fd962efd4129a4389" target="_top" xlink:title=" ">
<polygon fill="white" stroke="#666666" points="531.5,-267 395.5,-267 395.5,-237 531.5,-237 531.5,-267"/>
<text text-anchor="start" x="403.5" y="-255" font-family="Helvetica,sans-Serif" font-size="10.00">wmtk::utils::EigenMatrix</text>
<text text-anchor="middle" x="463.5" y="-244" font-family="Helvetica,sans-Serif" font-size="10.00">Writer::get_FV_matrix</text>
</a>
</g>
</g>
<!-- Node6&#45;&gt;Node7 -->
<g id="edge7_Node000006_Node000007" class="edge">
<title>Node6&#45;&gt;Node7</title>
<g id="a_edge7_Node000006_Node000007"><a xlink:title=" ">
<path fill="none" stroke="#63b8ff" d="M329.01,-219.06C348.92,-223.97 371.2,-229.47 391.77,-234.54"/>
<polygon fill="#63b8ff" stroke="#63b8ff" points="391.16,-238 401.71,-237 392.84,-231.2 391.16,-238"/>
</a>
</g>
</g>
<!-- Node9 -->
<g id="Node000009" class="node">
<title>Node9</title>
<g id="a_Node000009"><a xlink:href="classwmtk_1_1utils_1_1_eigen_matrix_writer.html#a3907d601b0f4f64c662e4c32da9ca52c" target="_top" xlink:title=" ">
<polygon fill="white" stroke="#666666" points="538.5,-219 388.5,-219 388.5,-189 538.5,-189 538.5,-219"/>
<text text-anchor="start" x="396.5" y="-207" font-family="Helvetica,sans-Serif" font-size="10.00">wmtk::utils::EigenMatrix</text>
<text text-anchor="middle" x="463.5" y="-196" font-family="Helvetica,sans-Serif" font-size="10.00">Writer::get_position_matrix</text>
</a>
</g>
</g>
<!-- Node6&#45;&gt;Node9 -->
<g id="edge9_Node000006_Node000009" class="edge">
<title>Node6&#45;&gt;Node9</title>
<g id="a_edge9_Node000006_Node000009"><a xlink:title=" ">
<path fill="none" stroke="#63b8ff" d="M344.03,-204C355.21,-204 366.78,-204 378.11,-204"/>
<polygon fill="#63b8ff" stroke="#63b8ff" points="378.43,-207.5 388.43,-204 378.43,-200.5 378.43,-207.5"/>
</a>
</g>
</g>
<!-- Node6&#45;&gt;Node11 -->
<g id="edge12_Node000006_Node000011" class="edge">
<title>Node6&#45;&gt;Node11</title>
<g id="a_edge12_Node000006_Node000011"><a xlink:title=" ">
<path fill="none" stroke="#63b8ff" d="M336.03,-188.96C361.31,-183.37 389.51,-177.14 412.85,-171.98"/>
<polygon fill="#63b8ff" stroke="#63b8ff" points="413.86,-175.34 422.87,-169.76 412.35,-168.5 413.86,-175.34"/>
</a>
</g>
</g>
<!-- Node13 -->
<g id="Node000013" class="node">
<title>Node13</title>
<g id="a_Node000013"><a xlink:href="classwmtk_1_1_mesh.html#a32203cf93aa0cff5c2e5c1fac502ec27" target="_top" xlink:title=" ">
<polygon fill="white" stroke="#666666" points="525.5,-405.5 401.5,-405.5 401.5,-386.5 525.5,-386.5 525.5,-405.5"/>
<text text-anchor="middle" x="463.5" y="-393.5" font-family="Helvetica,sans-Serif" font-size="10.00">wmtk::Mesh::serialize</text>
</a>
</g>
</g>
<!-- Node6&#45;&gt;Node13 -->
<g id="edge14_Node000006_Node000013" class="edge">
<title>Node6&#45;&gt;Node13</title>
<g id="a_edge14_Node000006_Node000013"><a xlink:title=" ">
<path fill="none" stroke="#63b8ff" d="M283.26,-219.07C319.05,-254.39 408.14,-342.34 445.55,-379.26"/>
<polygon fill="#63b8ff" stroke="#63b8ff" points="443.13,-381.8 452.7,-386.33 448.05,-376.81 443.13,-381.8"/>
</a>
</g>
</g>
<!-- Node8 -->
<g id="Node000008" class="node">
<title>Node8</title>
<g id="a_Node000008"><a xlink:href="classwmtk_1_1utils_1_1_eigen_matrix_writer.html#ab6ea4733784a08f80e81b23769f5fb5c" target="_top" xlink:title=" ">
<polygon fill="white" stroke="#666666" points="740.5,-267 595.5,-267 595.5,-237 740.5,-237 740.5,-267"/>
<text text-anchor="start" x="603.5" y="-255" font-family="Helvetica,sans-Serif" font-size="10.00">wmtk::utils::EigenMatrix</text>
<text text-anchor="middle" x="668" y="-244" font-family="Helvetica,sans-Serif" font-size="10.00">Writer::get_int64_t_matrix</text>
</a>
</g>
</g>
<!-- Node7&#45;&gt;Node8 -->
<g id="edge8_Node000007_Node000008" class="edge">
<title>Node7&#45;&gt;Node8</title>
<g id="a_edge8_Node000007_Node000008"><a xlink:title=" ">
<path fill="none" stroke="#63b8ff" d="M531.65,-252C548.68,-252 567.18,-252 584.86,-252"/>
<polygon fill="#63b8ff" stroke="#63b8ff" points="585.16,-255.5 595.16,-252 585.16,-248.5 585.16,-255.5"/>
</a>
</g>
</g>
<!-- Node10 -->
<g id="Node000010" class="node">
<title>Node10</title>
<g id="a_Node000010"><a xlink:href="classwmtk_1_1utils_1_1_eigen_matrix_writer.html#ae83d204878455162293807bb06421c6f" target="_top" xlink:title=" ">
<polygon fill="white" stroke="#666666" points="740,-219 596,-219 596,-189 740,-189 740,-219"/>
<text text-anchor="start" x="604" y="-207" font-family="Helvetica,sans-Serif" font-size="10.00">wmtk::utils::EigenMatrix</text>
<text text-anchor="middle" x="668" y="-196" font-family="Helvetica,sans-Serif" font-size="10.00">Writer::get_double_matrix</text>
</a>
</g>
</g>
<!-- Node9&#45;&gt;Node10 -->
<g id="edge10_Node000009_Node000010" class="edge">
<title>Node9&#45;&gt;Node10</title>
<g id="a_edge10_Node000009_Node000010"><a xlink:title=" ">
<path fill="none" stroke="#63b8ff" d="M538.75,-204C554.03,-204 570.19,-204 585.71,-204"/>
<polygon fill="#63b8ff" stroke="#63b8ff" points="585.79,-207.5 595.79,-204 585.79,-200.5 585.79,-207.5"/>
</a>
</g>
</g>
<!-- Node12 -->
<g id="Node000012" class="node">
<title>Node12</title>
<g id="a_Node000012"><a xlink:href="namespacewmtk.html#a3daa7951a5f8b78cf4600dc047fcc180" target="_top" xlink:title="Setup a logger object to be used by WildmeshToolkit.">
<polygon fill="white" stroke="#666666" points="718.5,-170.5 617.5,-170.5 617.5,-151.5 718.5,-151.5 718.5,-170.5"/>
<text text-anchor="middle" x="668" y="-158.5" font-family="Helvetica,sans-Serif" font-size="10.00">wmtk::set_logger</text>
</a>
</g>
</g>
<!-- Node11&#45;&gt;Node12 -->
<g id="edge13_Node000011_Node000012" class="edge">
<title>Node11&#45;&gt;Node12</title>
<g id="a_edge13_Node000011_Node000012"><a xlink:title=" ">
<path fill="none" stroke="#63b8ff" d="M504.02,-161C533.34,-161 573.81,-161 607.09,-161"/>
<polygon fill="#63b8ff" stroke="#63b8ff" points="607.16,-164.5 617.16,-161 607.16,-157.5 607.16,-164.5"/>
</a>
</g>
</g>
<!-- Node14 -->
<g id="Node000014" class="node">
<title>Node14</title>
<g id="a_Node000014"><a xlink:href="classwmtk_1_1multimesh_1_1_multi_mesh_manager.html#a812e0992812b2c48a889e10ae9e50758" target="_top" xlink:title=" ">
<polygon fill="white" stroke="#666666" points="748,-459 588,-459 588,-429 748,-429 748,-459"/>
<text text-anchor="start" x="596" y="-447" font-family="Helvetica,sans-Serif" font-size="10.00">wmtk::multimesh::MultiMesh</text>
<text text-anchor="middle" x="668" y="-436" font-family="Helvetica,sans-Serif" font-size="10.00">Manager::absolute_id</text>
</a>
</g>
</g>
<!-- Node13&#45;&gt;Node14 -->
<g id="edge15_Node000013_Node000014" class="edge">
<title>Node13&#45;&gt;Node14</title>
<g id="a_edge15_Node000013_Node000014"><a xlink:title=" ">
<path fill="none" stroke="#63b8ff" d="M506.49,-405.58C519.48,-408.57 533.84,-411.89 547,-415 562.72,-418.71 579.58,-422.75 595.56,-426.6"/>
<polygon fill="#63b8ff" stroke="#63b8ff" points="594.82,-430.02 605.37,-428.97 596.47,-423.22 594.82,-430.02"/>
</a>
</g>
</g>
<!-- Node16 -->
<g id="Node000016" class="node">
<title>Node16</title>
<g id="a_Node000016"><a xlink:href="classwmtk_1_1multimesh_1_1_multi_mesh_manager.html#ab29db13e4be68177d7ae3c188d7b275e" target="_top" xlink:title=" ">
<polygon fill="white" stroke="#666666" points="748,-411 588,-411 588,-381 748,-381 748,-411"/>
<text text-anchor="start" x="596" y="-399" font-family="Helvetica,sans-Serif" font-size="10.00">wmtk::multimesh::MultiMesh</text>
<text text-anchor="middle" x="668" y="-388" font-family="Helvetica,sans-Serif" font-size="10.00">Manager::relative_id</text>
</a>
</g>
</g>
<!-- Node13&#45;&gt;Node16 -->
<g id="edge18_Node000013_Node000016" class="edge">
<title>Node13&#45;&gt;Node16</title>
<g id="a_edge18_Node000013_Node000016"><a xlink:title=" ">
<path fill="none" stroke="#63b8ff" d="M525.53,-396C541.89,-396 559.91,-396 577.46,-396"/>
<polygon fill="#63b8ff" stroke="#63b8ff" points="577.72,-399.5 587.72,-396 577.72,-392.5 577.72,-399.5"/>
</a>
</g>
</g>
<!-- Node18 -->
<g id="Node000018" class="node">
<title>Node18</title>
<g id="a_Node000018"><a xlink:href="classwmtk_1_1attribute_1_1_attribute_manager.html#a2f9290f582622604dc0daba270c84f9b" target="_top" xlink:title=" ">
<polygon fill="white" stroke="#666666" points="738.5,-363 597.5,-363 597.5,-333 738.5,-333 738.5,-363"/>
<text text-anchor="start" x="605.5" y="-351" font-family="Helvetica,sans-Serif" font-size="10.00">wmtk::attribute::Attribute</text>
<text text-anchor="middle" x="668" y="-340" font-family="Helvetica,sans-Serif" font-size="10.00">Manager::serialize</text>
</a>
</g>
</g>
<!-- Node13&#45;&gt;Node18 -->
<g id="edge20_Node000013_Node000018" class="edge">
<title>Node13&#45;&gt;Node18</title>
<g id="a_edge20_Node000013_Node000018"><a xlink:title=" ">
<path fill="none" stroke="#63b8ff" d="M504.99,-386.4C530.29,-380.4 563.63,-372.5 593.48,-365.43"/>
<polygon fill="#63b8ff" stroke="#63b8ff" points="594.53,-368.78 603.45,-363.06 592.92,-361.96 594.53,-368.78"/>
</a>
</g>
</g>
<!-- Node21 -->
<g id="Node000021" class="node">
<title>Node21</title>
<g id="a_Node000021"><a xlink:href="classwmtk_1_1multimesh_1_1_multi_mesh_manager.html#a9c0175530619088d9f52b38f1417cc1c" target="_top" xlink:title=" ">
<polygon fill="white" stroke="#666666" points="748,-315 588,-315 588,-285 748,-285 748,-315"/>
<text text-anchor="start" x="596" y="-303" font-family="Helvetica,sans-Serif" font-size="10.00">wmtk::multimesh::MultiMesh</text>
<text text-anchor="middle" x="668" y="-292" font-family="Helvetica,sans-Serif" font-size="10.00">Manager::serialize</text>
</a>
</g>
</g>
<!-- Node13&#45;&gt;Node21 -->
<g id="edge23_Node000013_Node000021" class="edge">
<title>Node13&#45;&gt;Node21</title>
<g id="a_edge23_Node000013_Node000021"><a xlink:title=" ">
<path fill="none" stroke="#63b8ff" d="M477.72,-386.33C498.95,-371.18 542.42,-341.74 583,-324 587.46,-322.05 592.11,-320.22 596.85,-318.49"/>
<polygon fill="#63b8ff" stroke="#63b8ff" points="598.34,-321.68 606.65,-315.12 596.06,-315.06 598.34,-321.68"/>
</a>
</g>
</g>
<!-- Node22 -->
<g id="Node000022" class="node">
<title>Node22</title>
<g id="a_Node000022"><a xlink:href="classwmtk_1_1_mesh.html#abaf00438d0700358b160e310d69725c9" target="_top" xlink:title=" ">
<polygon fill="white" stroke="#666666" points="753,-610.5 583,-610.5 583,-591.5 753,-591.5 753,-610.5"/>
<text text-anchor="middle" x="668" y="-598.5" font-family="Helvetica,sans-Serif" font-size="10.00">wmtk::Mesh::top_simplex_type</text>
</a>
</g>
</g>
<!-- Node13&#45;&gt;Node22 -->
<g id="edge24_Node000013_Node000022" class="edge">
<title>Node13&#45;&gt;Node22</title>
<g id="a_edge24_Node000013_Node000022"><a xlink:title=" ">
<path fill="none" stroke="#63b8ff" d="M525.89,-401.78C533.76,-404.78 541.12,-409.03 547,-415 600.31,-469.06 529.58,-528.04 583,-582 584.42,-583.43 585.92,-584.77 587.5,-586.01"/>
<polygon fill="#63b8ff" stroke="#63b8ff" points="585.62,-588.97 595.91,-591.5 589.44,-583.1 585.62,-588.97"/>
</a>
</g>
</g>
<!-- Node24 -->
<g id="Node000024" class="node">
<title>Node24</title>
<g id="a_Node000024"><a xlink:href="classwmtk_1_1_mesh_writer.html#ac54560ef6ed79d5dfdb1a2c9dcb8687c" target="_top" xlink:title=" ">
<polygon fill="white" stroke="#666666" points="736.5,-573 599.5,-573 599.5,-543 736.5,-543 736.5,-573"/>
<text text-anchor="start" x="607.5" y="-561" font-family="Helvetica,sans-Serif" font-size="10.00">wmtk::MeshWriter::write</text>
<text text-anchor="middle" x="668" y="-550" font-family="Helvetica,sans-Serif" font-size="10.00">_absolute_id</text>
</a>
</g>
</g>
<!-- Node13&#45;&gt;Node24 -->
<g id="edge26_Node000013_Node000024" class="edge">
<title>Node13&#45;&gt;Node24</title>
<g id="a_edge26_Node000013_Node000024"><a xlink:title=" ">
<path fill="none" stroke="#63b8ff" d="M525.87,-402.38C533.66,-405.31 540.99,-409.38 547,-415 587.37,-452.73 543.63,-495.23 583,-534 585.38,-536.34 587.97,-538.46 590.71,-540.37"/>
<polygon fill="#63b8ff" stroke="#63b8ff" points="588.99,-543.42 599.37,-545.52 592.57,-537.4 588.99,-543.42"/>
</a>
</g>
</g>
<!-- Node25 -->
<g id="Node000025" class="node">
<title>Node25</title>
<g id="a_Node000025"><a xlink:href="classwmtk_1_1_mesh_writer.html#a0e4fd87b00f2cb95a14c19e5a3670bde" target="_top" xlink:title=" ">
<polygon fill="white" stroke="#666666" points="736.5,-525 599.5,-525 599.5,-495 736.5,-495 736.5,-525"/>
<text text-anchor="start" x="607.5" y="-513" font-family="Helvetica,sans-Serif" font-size="10.00">wmtk::MeshWriter::write</text>
<text text-anchor="middle" x="668" y="-502" font-family="Helvetica,sans-Serif" font-size="10.00">_top_simplex_type</text>
</a>
</g>
</g>
<!-- Node13&#45;&gt;Node25 -->
<g id="edge27_Node000013_Node000025" class="edge">
<title>Node13&#45;&gt;Node25</title>
<g id="a_edge27_Node000013_Node000025"><a xlink:title=" ">
<path fill="none" stroke="#63b8ff" d="M525.86,-403.68C533.46,-406.44 540.75,-410.11 547,-415 574.86,-436.8 555.71,-463.48 583,-486 585.38,-487.96 587.91,-489.77 590.56,-491.42"/>
<polygon fill="#63b8ff" stroke="#63b8ff" points="588.89,-494.5 599.34,-496.23 592.25,-488.36 588.89,-494.5"/>
</a>
</g>
</g>
<!-- Node14&#45;&gt;Node14 -->
<g id="edge16_Node000014_Node000014" class="edge">
<title>Node14&#45;&gt;Node14</title>
<g id="a_edge16_Node000014_Node000014"><a xlink:title=" ">
<path fill="none" stroke="#63b8ff" d="M632.84,-459.28C625.03,-468.41 636.75,-477 668,-477 686.55,-477 698.22,-473.97 703.01,-469.6"/>
<polygon fill="#63b8ff" stroke="#63b8ff" points="706.51,-469.32 703.16,-459.28 699.51,-469.22 706.51,-469.32"/>
</a>
</g>
</g>
<!-- Node15 -->
<g id="Node000015" class="node">
<title>Node15</title>
<g id="a_Node000015"><a xlink:href="classwmtk_1_1multimesh_1_1_multi_mesh_manager.html#a7d39339adb56b1798fe817d81bfcc67c" target="_top" xlink:title="Specifies whether this structure is the root of a multi&#45;mesh tree.">
<polygon fill="white" stroke="#666666" points="949,-459 789,-459 789,-429 949,-429 949,-459"/>
<text text-anchor="start" x="797" y="-447" font-family="Helvetica,sans-Serif" font-size="10.00">wmtk::multimesh::MultiMesh</text>
<text text-anchor="middle" x="869" y="-436" font-family="Helvetica,sans-Serif" font-size="10.00">Manager::is_root</text>
</a>
</g>
</g>
<!-- Node14&#45;&gt;Node15 -->
<g id="edge17_Node000014_Node000015" class="edge">
<title>Node14&#45;&gt;Node15</title>
<g id="a_edge17_Node000014_Node000015"><a xlink:title=" ">
<path fill="none" stroke="#63b8ff" d="M748.22,-444C758.22,-444 768.5,-444 778.65,-444"/>
<polygon fill="#63b8ff" stroke="#63b8ff" points="778.73,-447.5 788.73,-444 778.73,-440.5 778.73,-447.5"/>
</a>
</g>
</g>
<!-- Node17 -->
<g id="Node000017" class="node">
<title>Node17</title>
<g id="a_Node000017"><a xlink:href="classwmtk_1_1multimesh_1_1_multi_mesh_manager.html#a4f99281b52dfca1c9baff535917d58a7" target="_top" xlink:title=" ">
<polygon fill="white" stroke="#666666" points="949,-411 789,-411 789,-381 949,-381 949,-411"/>
<text text-anchor="start" x="797" y="-399" font-family="Helvetica,sans-Serif" font-size="10.00">wmtk::multimesh::MultiMesh</text>
<text text-anchor="middle" x="869" y="-388" font-family="Helvetica,sans-Serif" font-size="10.00">Manager::is_child</text>
</a>
</g>
</g>
<!-- Node16&#45;&gt;Node17 -->
<g id="edge19_Node000016_Node000017" class="edge">
<title>Node16&#45;&gt;Node17</title>
<g id="a_edge19_Node000016_Node000017"><a xlink:title=" ">
<path fill="none" stroke="#63b8ff" d="M748.22,-396C758.22,-396 768.5,-396 778.65,-396"/>
<polygon fill="#63b8ff" stroke="#63b8ff" points="778.73,-399.5 788.73,-396 778.73,-392.5 778.73,-399.5"/>
</a>
</g>
</g>
<!-- Node19 -->
<g id="Node000019" class="node">
<title>Node19</title>
<g id="a_Node000019"><a xlink:href="classwmtk_1_1_mesh_writer.html#a9775a31599c23785098b9be77bdbfb62" target="_top" xlink:title=" ">
<polygon fill="white" stroke="#666666" points="937.5,-360.5 800.5,-360.5 800.5,-341.5 937.5,-341.5 937.5,-360.5"/>
<text text-anchor="middle" x="869" y="-348.5" font-family="Helvetica,sans-Serif" font-size="10.00">wmtk::MeshWriter::write</text>
</a>
</g>
</g>
<!-- Node18&#45;&gt;Node19 -->
<g id="edge21_Node000018_Node000019" class="edge">
<title>Node18&#45;&gt;Node19</title>
<g id="a_edge21_Node000018_Node000019"><a xlink:title=" ">
<path fill="none" stroke="#63b8ff" d="M738.6,-349.05C755.21,-349.3 773.06,-349.57 790.02,-349.82"/>
<polygon fill="#63b8ff" stroke="#63b8ff" points="790.4,-353.33 800.45,-349.98 790.5,-346.33 790.4,-353.33"/>
</a>
</g>
</g>
<!-- Node20 -->
<g id="Node000020" class="node">
<title>Node20</title>
<g id="a_Node000020"><a xlink:href="classwmtk_1_1_mesh_writer.html#adaf132d57772f8692155189c4c5789b9" target="_top" xlink:title=" ">
<polygon fill="white" stroke="#666666" points="937.5,-323 800.5,-323 800.5,-293 937.5,-293 937.5,-323"/>
<text text-anchor="start" x="808.5" y="-311" font-family="Helvetica,sans-Serif" font-size="10.00">wmtk::MeshWriter::write</text>
<text text-anchor="middle" x="869" y="-300" font-family="Helvetica,sans-Serif" font-size="10.00">_capacities</text>
</a>
</g>
</g>
<!-- Node18&#45;&gt;Node20 -->
<g id="edge22_Node000018_Node000020" class="edge">
<title>Node18&#45;&gt;Node20</title>
<g id="a_edge22_Node000018_Node000020"><a xlink:title=" ">
<path fill="none" stroke="#63b8ff" d="M738.6,-334.01C755.37,-330.64 773.39,-327.02 790.5,-323.58"/>
<polygon fill="#63b8ff" stroke="#63b8ff" points="791.34,-326.98 800.45,-321.58 789.96,-320.12 791.34,-326.98"/>
</a>
</g>
</g>
<!-- Node23 -->
<g id="Node000023" class="node">
<title>Node23</title>
<g id="a_Node000023"><a xlink:href="classwmtk_1_1_mesh.html#a933f681cf24a63b155c9462280385200" target="_top" xlink:title=" ">
<polygon fill="white" stroke="#666666" points="929.5,-616 808.5,-616 808.5,-586 929.5,-586 929.5,-616"/>
<text text-anchor="start" x="816.5" y="-604" font-family="Helvetica,sans-Serif" font-size="10.00">wmtk::Mesh::top_cell</text>
<text text-anchor="middle" x="869" y="-593" font-family="Helvetica,sans-Serif" font-size="10.00">_dimension</text>
</a>
</g>
</g>
<!-- Node22&#45;&gt;Node23 -->
<g id="edge25_Node000022_Node000023" class="edge">
<title>Node22&#45;&gt;Node23</title>
<g id="a_edge25_Node000022_Node000023"><a xlink:title=" ">
<path fill="none" stroke="#63b8ff" d="M753.11,-601C768.04,-601 783.46,-601 797.95,-601"/>
<polygon fill="#63b8ff" stroke="#63b8ff" points="798.32,-604.5 808.32,-601 798.32,-597.5 798.32,-604.5"/>
</a>
</g>
</g>
<!-- Node27 -->
<g id="Node000027" class="node">
<title>Node27</title>
<g id="a_Node000027"><a xlink:href="classwmtk_1_1attribute_1_1_mesh_attribute_handle.html#a9c02e0fc8ac13ad9f16ce928e7a2c84c" target="_top" xlink:title=" ">
<polygon fill="white" stroke="#666666" points="547,-78 380,-78 380,-48 547,-48 547,-78"/>
<text text-anchor="start" x="388" y="-66" font-family="Helvetica,sans-Serif" font-size="10.00">wmtk::attribute::MeshAttribute</text>
<text text-anchor="middle" x="463.5" y="-55" font-family="Helvetica,sans-Serif" font-size="10.00">Handle::as</text>
</a>
</g>
</g>
<!-- Node26&#45;&gt;Node27 -->
<g id="edge30_Node000026_Node000027" class="edge">
<title>Node26&#45;&gt;Node27</title>
<g id="a_edge30_Node000026_Node000027"><a xlink:title=" ">
<path fill="none" stroke="#63b8ff" d="M329.54,-92.39C347.09,-88.52 366.44,-84.24 384.81,-80.18"/>
<polygon fill="#63b8ff" stroke="#63b8ff" points="385.6,-83.59 394.61,-78.01 384.09,-76.75 385.6,-83.59"/>
</a>
</g>
</g>
<!-- Node28 -->
<g id="Node000028" class="node">
<title>Node28</title>
<g id="a_Node000028"><a xlink:href="classwmtk_1_1_mesh.html#a5f7e9ae7268c929db6161af3e2c6eb73" target="_top" xlink:title=" ">
<polygon fill="white" stroke="#666666" points="520,-30 407,-30 407,0 520,0 520,-30"/>
<text text-anchor="start" x="415" y="-18" font-family="Helvetica,sans-Serif" font-size="10.00">wmtk::Mesh::create</text>
<text text-anchor="middle" x="463.5" y="-7" font-family="Helvetica,sans-Serif" font-size="10.00">_accessor</text>
</a>
</g>
</g>
<!-- Node26&#45;&gt;Node28 -->
<g id="edge31_Node000026_Node000028" class="edge">
<title>Node26&#45;&gt;Node28</title>
<g id="a_edge31_Node000026_Node000028"><a xlink:title=" ">
<path fill="none" stroke="#63b8ff" d="M327.63,-90.85C333.38,-88.32 338.94,-85.39 344,-82 364.71,-68.14 359.13,-52.63 380,-39 385.33,-35.52 391.17,-32.54 397.21,-29.98"/>
<polygon fill="#63b8ff" stroke="#63b8ff" points="398.73,-33.14 406.81,-26.29 396.22,-26.6 398.73,-33.14"/>
</a>
</g>
</g>
<!-- Node29 -->
<g id="Node000029" class="node">
<title>Node29</title>
<g id="a_Node000029"><a xlink:href="classwmtk_1_1_mesh.html#a6d2a546c8f661bf6386cf845a1693d2f" target="_top" xlink:title="Generate a vector of Tuples from global vertex/edge/triangle/tetrahedron index.">
<polygon fill="white" stroke="#666666" points="521.5,-115.5 405.5,-115.5 405.5,-96.5 521.5,-96.5 521.5,-115.5"/>
<text text-anchor="middle" x="463.5" y="-103.5" font-family="Helvetica,sans-Serif" font-size="10.00">wmtk::Mesh::get_all</text>
</a>
</g>
</g>
<!-- Node26&#45;&gt;Node29 -->
<g id="edge32_Node000026_Node000029" class="edge">
<title>Node26&#45;&gt;Node29</title>
<g id="a_edge32_Node000026_Node000029"><a xlink:title=" ">
<path fill="none" stroke="#63b8ff" d="M329.54,-106C350.39,-106 373.78,-106 395.07,-106"/>
<polygon fill="#63b8ff" stroke="#63b8ff" points="395.33,-109.5 405.33,-106 395.33,-102.5 395.33,-109.5"/>
</a>
</g>
</g>
<!-- Node29&#45;&gt;Node29 -->
<g id="edge33_Node000029_Node000029" class="edge">
<title>Node29&#45;&gt;Node29</title>
<g id="a_edge33_Node000029_Node000029"><a xlink:title=" ">
<path fill="none" stroke="#63b8ff" d="M433.29,-115.58C418.59,-124.23 428.66,-133.5 463.5,-133.5 487.99,-133.5 500.24,-128.92 500.25,-123.19"/>
<polygon fill="#63b8ff" stroke="#63b8ff" points="502.88,-120.88 493.71,-115.58 497.57,-125.45 502.88,-120.88"/>
</a>
</g>
</g>
<!-- Node30&#45;&gt;Node30 -->
<g id="edge35_Node000030_Node000030" class="edge">
<title>Node30&#45;&gt;Node30</title>
<g id="a_edge35_Node000030_Node000030"><a xlink:title=" ">
<path fill="none" stroke="#63b8ff" d="M237.72,-54.58C223.47,-63.23 233.23,-72.5 267,-72.5 290.22,-72.5 302.09,-68.12 302.61,-62.57"/>
<polygon fill="#63b8ff" stroke="#63b8ff" points="305.23,-60.25 296.28,-54.58 299.75,-64.6 305.23,-60.25"/>
</a>
</g>
</g>
</g>
</svg>
