<?xml version="1.0" encoding="UTF-8" standalone="no"?>
<!DOCTYPE svg PUBLIC "-//W3C//DTD SVG 1.1//EN"
 "http://www.w3.org/Graphics/SVG/1.1/DTD/svg11.dtd">
<!-- Generated by graphviz version 2.43.0 (0)
 -->
<!-- Title: wmtk::pow Pages: 1 -->
<!--zoomable 1076 -->

<svg id="main" version="1.1" xmlns="http://www.w3.org/2000/svg" xmlns:xlink="http://www.w3.org/1999/xlink" xml:space="preserve" onload="init(evt)">
<style type="text/css"><![CDATA[
.node, .edge {opacity: 0.7;}
.node.selected, .edge.selected {opacity: 1;}
.edge:hover path { stroke: red; }
.edge:hover polygon { stroke: red; fill: red; }
]]></style>

<defs>
  <circle id="rim" cx="0" cy="0" r="7"/>
  <circle id="rim2" cx="0" cy="0" r="3.5"/>
  <g id="zoomPlus">
    <use xlink:href="#rim" fill="#404040"><set attributeName="fill" to="#808080" begin="zoomplus.mouseover" end="zoomplus.mouseout"/></use>
    <path d="M-4,0h8M0,-4v8" fill="none" stroke="white" stroke-width="1.5" pointer-events="none"/>
  </g>
  <g id="zoomMin">
    <use xlink:href="#rim" fill="#404040"><set attributeName="fill" to="#808080" begin="zoomminus.mouseover" end="zoomminus.mouseout"/></use>
    <path d="M-4,0h8" fill="none" stroke="white" stroke-width="1.5" pointer-events="none"/>
  </g>
  <g id="arrowUp" transform="translate(30 24)">
    <use xlink:href="#rim"/>
    <path pointer-events="none" fill="none" stroke="white" stroke-width="1.5" d="M0,-3.0v7 M-2.5,-0.5L0,-3.0L2.5,-0.5"/>
  </g>
  <g id="arrowRight" transform="rotate(90) translate(36 -43)">
    <use xlink:href="#rim"/>
    <path pointer-events="none" fill="none" stroke="white" stroke-width="1.5" d="M0,-3.0v7 M-2.5,-0.5L0,-3.0L2.5,-0.5"/>
  </g>
  <g id="arrowDown" transform="rotate(180) translate(-30 -48)">
    <use xlink:href="#rim"/>
    <path pointer-events="none" fill="none" stroke="white" stroke-width="1.5" d="M0,-3.0v7 M-2.5,-0.5L0,-3.0L2.5,-0.5"/>
  </g>
  <g id="arrowLeft" transform="rotate(270) translate(-36 17)">
    <use xlink:href="#rim"/>
    <path pointer-events="none" fill="none" stroke="white" stroke-width="1.5" d="M0,-3.0v7 M-2.5,-0.5L0,-3.0L2.5,-0.5"/>
  </g>
  <g id="resetDef">
    <use xlink:href="#rim2" fill="#404040"><set attributeName="fill" to="#808080" begin="reset.mouseover" end="reset.mouseout"/></use>
  </g>
</defs>
<script type="application/ecmascript">
var viewWidth = 711;
var viewHeight = 1076;
var sectionId = 'dynsection-20';
</script>
<script type="application/ecmascript" xlink:href="svg.min.js"/>
<svg id="graph" class="graph">
<g id="viewport">
<title>wmtk::pow</title>
<!-- Node1 -->
<g id="Node000001" class="node">
<title>Node1</title>
<g id="a_Node000001"><a xlink:title=" ">
<polygon fill="#999999" stroke="#666666" points="703,-787.5 632,-787.5 632,-768.5 703,-768.5 703,-787.5"/>
<text text-anchor="middle" x="667.5" y="-775.5" font-family="Helvetica,sans-Serif" font-size="10.00">wmtk::pow</text>
</a>
</g>
</g>
<!-- Node2 -->
<g id="Node000002" class="node">
<title>Node2</title>
<g id="a_Node000002"><a xlink:href="classwmtk_1_1operations_1_1_a_m_i_p_s_optimization_smoothing_1_1_w_m_t_k_a_m_i_p_s_problem.html#adfb3a02b9a933d5913c7e85cd55c063f" target="_top" xlink:title=" ">
<polygon fill="white" stroke="#666666" points="417,-1067.5 215,-1067.5 215,-1026.5 417,-1026.5 417,-1067.5"/>
<text text-anchor="start" x="223" y="-1055.5" font-family="Helvetica,sans-Serif" font-size="10.00">wmtk::operations::AMIPSOptimization</text>
<text text-anchor="start" x="223" y="-1044.5" font-family="Helvetica,sans-Serif" font-size="10.00">Smoothing::WMTKAMIPSProblem</text>
<text text-anchor="middle" x="316" y="-1033.5" font-family="Helvetica,sans-Serif" font-size="10.00">::gradient</text>
</a>
</g>
</g>
<!-- Node1&#45;&gt;Node2 -->
<g id="edge1_Node000001_Node000002" class="edge">
<title>Node1&#45;&gt;Node2</title>
<g id="a_edge1_Node000001_Node000002"><a xlink:title=" ">
<path fill="none" stroke="#63b8ff" d="M663.89,-797.76C658.12,-833.9 641.01,-911.09 596,-956 548.57,-1003.32 476.25,-1026.04 417.13,-1036.94"/>
<polygon fill="#63b8ff" stroke="#63b8ff" points="667.4,-797.96 665.39,-787.56 660.47,-796.94 667.4,-797.96"/>
</a>
</g>
</g>
<!-- Node3 -->
<g id="Node000003" class="node">
<title>Node3</title>
<g id="a_Node000003"><a xlink:href="classwmtk_1_1operations_1_1_a_m_i_p_s_optimization_smoothing_periodic_1_1_w_m_t_k_a_m_i_p_s_problem.html#a2877cde3e1e8548d7060a898b8971826" target="_top" xlink:title=" ">
<polygon fill="white" stroke="#666666" points="424.5,-959.5 207.5,-959.5 207.5,-918.5 424.5,-918.5 424.5,-959.5"/>
<text text-anchor="start" x="215.5" y="-947.5" font-family="Helvetica,sans-Serif" font-size="10.00">wmtk::operations::AMIPSOptimization</text>
<text text-anchor="start" x="215.5" y="-936.5" font-family="Helvetica,sans-Serif" font-size="10.00">SmoothingPeriodic::WMTKAMIPSProblem</text>
<text text-anchor="middle" x="316" y="-925.5" font-family="Helvetica,sans-Serif" font-size="10.00">::gradient</text>
</a>
</g>
</g>
<!-- Node1&#45;&gt;Node3 -->
<g id="edge2_Node000001_Node000003" class="edge">
<title>Node1&#45;&gt;Node3</title>
<g id="a_edge2_Node000001_Node000003"><a xlink:title=" ">
<path fill="none" stroke="#63b8ff" d="M652.87,-795.73C639.78,-811.76 618.68,-835.06 596,-850 544.52,-883.92 479.22,-905.67 424.74,-919.18"/>
<polygon fill="#63b8ff" stroke="#63b8ff" points="655.8,-797.68 659.29,-787.68 650.32,-793.32 655.8,-797.68"/>
</a>
</g>
</g>
<!-- Node4 -->
<g id="Node000004" class="node">
<title>Node4</title>
<g id="a_Node000004"><a xlink:href="namespacewmtk_1_1function.html#a9e3b11628e6438129ff662e14c320619" target="_top" xlink:title=" ">
<polygon fill="white" stroke="#666666" points="591.5,-739 481.5,-739 481.5,-709 591.5,-709 591.5,-739"/>
<text text-anchor="start" x="489.5" y="-727" font-family="Helvetica,sans-Serif" font-size="10.00">wmtk::function::Tet</text>
<text text-anchor="middle" x="536.5" y="-716" font-family="Helvetica,sans-Serif" font-size="10.00">_AMIPS_energy</text>
</a>
</g>
</g>
<!-- Node1&#45;&gt;Node4 -->
<g id="edge3_Node000001_Node000004" class="edge">
<title>Node1&#45;&gt;Node4</title>
<g id="a_edge3_Node000001_Node000004"><a xlink:title=" ">
<path fill="none" stroke="#63b8ff" d="M634.28,-764.51C615.78,-756.77 592.51,-747.03 573.43,-739.04"/>
<polygon fill="#63b8ff" stroke="#63b8ff" points="633.16,-767.84 643.73,-768.47 635.86,-761.38 633.16,-767.84"/>
</a>
</g>
</g>
<!-- Node13 -->
<g id="Node000013" class="node">
<title>Node13</title>
<g id="a_Node000013"><a xlink:href="namespacewmtk_1_1function_1_1utils.html#a818b9b16f06339c34d08eceeb5342470" target="_top" xlink:title=" ">
<polygon fill="white" stroke="#666666" points="595,-389 478,-389 478,-359 595,-359 595,-389"/>
<text text-anchor="start" x="486" y="-377" font-family="Helvetica,sans-Serif" font-size="10.00">wmtk::function::utils</text>
<text text-anchor="middle" x="536.5" y="-366" font-family="Helvetica,sans-Serif" font-size="10.00">::Tet_AMIPS_energy</text>
</a>
</g>
</g>
<!-- Node1&#45;&gt;Node13 -->
<g id="edge15_Node000001_Node000013" class="edge">
<title>Node1&#45;&gt;Node13</title>
<g id="a_edge15_Node000001_Node000013"><a xlink:title=" ">
<path fill="none" stroke="#63b8ff" d="M660.35,-758.75C638.16,-689.24 562.42,-452.04 542.39,-389.32"/>
<polygon fill="#63b8ff" stroke="#63b8ff" points="657.06,-759.95 663.44,-768.41 663.73,-757.82 657.06,-759.95"/>
</a>
</g>
</g>
<!-- Node24 -->
<g id="Node000024" class="node">
<title>Node24</title>
<g id="a_Node000024"><a xlink:href="namespacewmtk_1_1function.html#aaf870bcc28609797d92b0a7812fef5f0" target="_top" xlink:title=" ">
<polygon fill="white" stroke="#666666" points="591.5,-793 481.5,-793 481.5,-763 591.5,-763 591.5,-793"/>
<text text-anchor="start" x="489.5" y="-781" font-family="Helvetica,sans-Serif" font-size="10.00">wmtk::function::Tet</text>
<text text-anchor="middle" x="536.5" y="-770" font-family="Helvetica,sans-Serif" font-size="10.00">_AMIPS_hessian</text>
</a>
</g>
</g>
<!-- Node1&#45;&gt;Node24 -->
<g id="edge28_Node000001_Node000024" class="edge">
<title>Node1&#45;&gt;Node24</title>
<g id="a_edge28_Node000001_Node000024"><a xlink:title=" ">
<path fill="none" stroke="#63b8ff" d="M621.7,-778C612,-778 601.64,-778 591.61,-778"/>
<polygon fill="#63b8ff" stroke="#63b8ff" points="621.93,-781.5 631.93,-778 621.93,-774.5 621.93,-781.5"/>
</a>
</g>
</g>
<!-- Node26 -->
<g id="Node000026" class="node">
<title>Node26</title>
<g id="a_Node000026"><a xlink:href="namespacewmtk_1_1function_1_1utils.html#aed8c811c20a1f0b8ddb471028e0dbab8" target="_top" xlink:title=" ">
<polygon fill="white" stroke="#666666" points="595,-341 478,-341 478,-311 595,-311 595,-341"/>
<text text-anchor="start" x="486" y="-329" font-family="Helvetica,sans-Serif" font-size="10.00">wmtk::function::utils</text>
<text text-anchor="middle" x="536.5" y="-318" font-family="Helvetica,sans-Serif" font-size="10.00">::Tet_AMIPS_hessian</text>
</a>
</g>
</g>
<!-- Node1&#45;&gt;Node26 -->
<g id="edge32_Node000001_Node000026" class="edge">
<title>Node1&#45;&gt;Node26</title>
<g id="a_edge32_Node000001_Node000026"><a xlink:title=" ">
<path fill="none" stroke="#63b8ff" d="M665.74,-758.08C662.48,-682.53 647.42,-414.59 596,-350 593.27,-346.56 589.96,-343.62 586.32,-341.09"/>
<polygon fill="#63b8ff" stroke="#63b8ff" points="662.26,-758.65 666.16,-768.5 669.25,-758.36 662.26,-758.65"/>
</a>
</g>
</g>
<!-- Node27 -->
<g id="Node000027" class="node">
<title>Node27</title>
<g id="a_Node000027"><a xlink:href="namespacewmtk_1_1function.html#a198aa9739019d6fdb0c869dcefe468b7" target="_top" xlink:title=" ">
<polygon fill="white" stroke="#666666" points="591.5,-947 481.5,-947 481.5,-917 591.5,-917 591.5,-947"/>
<text text-anchor="start" x="489.5" y="-935" font-family="Helvetica,sans-Serif" font-size="10.00">wmtk::function::Tet</text>
<text text-anchor="middle" x="536.5" y="-924" font-family="Helvetica,sans-Serif" font-size="10.00">_AMIPS_jacobian</text>
</a>
</g>
</g>
<!-- Node1&#45;&gt;Node27 -->
<g id="edge33_Node000001_Node000027" class="edge">
<title>Node1&#45;&gt;Node27</title>
<g id="a_edge33_Node000001_Node000027"><a xlink:title=" ">
<path fill="none" stroke="#63b8ff" d="M658.6,-797.04C647.51,-822.05 625.34,-866.28 596,-896 587.96,-904.15 577.72,-911.25 568.07,-916.94"/>
<polygon fill="#63b8ff" stroke="#63b8ff" points="661.93,-798.16 662.67,-787.59 655.5,-795.39 661.93,-798.16"/>
</a>
</g>
</g>
<!-- Node29 -->
<g id="Node000029" class="node">
<title>Node29</title>
<g id="a_Node000029"><a xlink:href="namespacewmtk_1_1function_1_1utils.html#a30d0a98f6851e8c66d5035c2f1b26909" target="_top" xlink:title=" ">
<polygon fill="white" stroke="#666666" points="596,-293 477,-293 477,-263 596,-263 596,-293"/>
<text text-anchor="start" x="485" y="-281" font-family="Helvetica,sans-Serif" font-size="10.00">wmtk::function::utils</text>
<text text-anchor="middle" x="536.5" y="-270" font-family="Helvetica,sans-Serif" font-size="10.00">::Tet_AMIPS_jacobian</text>
</a>
</g>
</g>
<!-- Node1&#45;&gt;Node29 -->
<g id="edge39_Node000001_Node000029" class="edge">
<title>Node1&#45;&gt;Node29</title>
<g id="a_edge39_Node000001_Node000029"><a xlink:title=" ">
<path fill="none" stroke="#63b8ff" d="M666.1,-757.95C664.11,-676.96 652.94,-374.73 596,-302 593.29,-298.54 590,-295.58 586.38,-293.04"/>
<polygon fill="#63b8ff" stroke="#63b8ff" points="662.61,-758.33 666.33,-768.25 669.61,-758.17 662.61,-758.33"/>
</a>
</g>
</g>
<!-- Node30 -->
<g id="Node000030" class="node">
<title>Node30</title>
<g id="a_Node000030"><a xlink:href="namespacewmtk_1_1function.html#a8573ef05c1016e7127e37128472dcc35" target="_top" xlink:title=" ">
<polygon fill="white" stroke="#666666" points="590,-841 483,-841 483,-811 590,-811 590,-841"/>
<text text-anchor="start" x="491" y="-829" font-family="Helvetica,sans-Serif" font-size="10.00">wmtk::function::Tri</text>
<text text-anchor="middle" x="536.5" y="-818" font-family="Helvetica,sans-Serif" font-size="10.00">_AMIPS_hessian</text>
</a>
</g>
</g>
<!-- Node1&#45;&gt;Node30 -->
<g id="edge40_Node000001_Node000030" class="edge">
<title>Node1&#45;&gt;Node30</title>
<g id="a_edge40_Node000001_Node000030"><a xlink:title=" ">
<path fill="none" stroke="#63b8ff" d="M630.94,-791.23C614.53,-797.34 594.96,-804.62 577.98,-810.94"/>
<polygon fill="#63b8ff" stroke="#63b8ff" points="632.55,-794.37 640.7,-787.6 630.11,-787.81 632.55,-794.37"/>
</a>
</g>
</g>
<!-- Node4&#45;&gt;Node2 -->
<g id="edge5_Node000004_Node000002" class="edge">
<title>Node4&#45;&gt;Node2</title>
<g id="a_edge5_Node000004_Node000002"><a xlink:title=" ">
<path fill="none" stroke="#63b8ff" d="M485.29,-745.06C482.17,-747.72 479.35,-750.69 477,-754 408.79,-850.26 520.09,-929.46 441,-1017 434.32,-1024.4 426.15,-1030.12 417.24,-1034.53"/>
<polygon fill="#63b8ff" stroke="#63b8ff" points="487.51,-747.77 493.56,-739.07 483.41,-742.1 487.51,-747.77"/>
</a>
</g>
</g>
<!-- Node4&#45;&gt;Node3 -->
<g id="edge6_Node000004_Node000003" class="edge">
<title>Node4&#45;&gt;Node3</title>
<g id="a_edge6_Node000004_Node000003"><a xlink:title=" ">
<path fill="none" stroke="#63b8ff" d="M486.2,-744.84C482.78,-747.56 479.64,-750.61 477,-754 433.27,-810.13 491.24,-859.61 441,-910 436.16,-914.85 430.68,-918.96 424.77,-922.42"/>
<polygon fill="#63b8ff" stroke="#63b8ff" points="488.36,-747.6 494.61,-739.05 484.39,-741.83 488.36,-747.6"/>
</a>
</g>
</g>
<!-- Node5 -->
<g id="Node000005" class="node">
<title>Node5</title>
<g id="a_Node000005"><a xlink:href="classwmtk_1_1function_1_1_a_m_i_p_s.html#af9abca3d72a09a1b5f792fb7f94f7076" target="_top" xlink:title="This function is defined over a simplex (normally a triangle or tetrahedron).">
<polygon fill="white" stroke="#666666" points="379.5,-733 252.5,-733 252.5,-703 379.5,-703 379.5,-733"/>
<text text-anchor="start" x="260.5" y="-721" font-family="Helvetica,sans-Serif" font-size="10.00">wmtk::function::AMIPS</text>
<text text-anchor="middle" x="316" y="-710" font-family="Helvetica,sans-Serif" font-size="10.00">::get_value</text>
</a>
</g>
</g>
<!-- Node4&#45;&gt;Node5 -->
<g id="edge4_Node000004_Node000005" class="edge">
<title>Node4&#45;&gt;Node5</title>
<g id="a_edge4_Node000004_Node000005"><a xlink:title=" ">
<path fill="none" stroke="#63b8ff" d="M471.48,-722.24C442.54,-721.45 408.46,-720.51 379.68,-719.72"/>
<polygon fill="#63b8ff" stroke="#63b8ff" points="471.4,-725.74 481.49,-722.52 471.59,-718.74 471.4,-725.74"/>
</a>
</g>
</g>
<!-- Node6 -->
<g id="Node000006" class="node">
<title>Node6</title>
<g id="a_Node000006"><a xlink:href="classwmtk_1_1operations_1_1_a_m_i_p_s_optimization_smoothing_1_1_w_m_t_k_a_m_i_p_s_problem.html#a51a9afb1da894de12d142b715f972ecc" target="_top" xlink:title=" ">
<polygon fill="white" stroke="#666666" points="417,-900.5 215,-900.5 215,-859.5 417,-859.5 417,-900.5"/>
<text text-anchor="start" x="223" y="-888.5" font-family="Helvetica,sans-Serif" font-size="10.00">wmtk::operations::AMIPSOptimization</text>
<text text-anchor="start" x="223" y="-877.5" font-family="Helvetica,sans-Serif" font-size="10.00">Smoothing::WMTKAMIPSProblem</text>
<text text-anchor="middle" x="316" y="-866.5" font-family="Helvetica,sans-Serif" font-size="10.00">::hessian</text>
</a>
</g>
</g>
<!-- Node4&#45;&gt;Node6 -->
<g id="edge7_Node000004_Node000006" class="edge">
<title>Node4&#45;&gt;Node6</title>
<g id="a_edge7_Node000004_Node000006"><a xlink:title=" ">
<path fill="none" stroke="#63b8ff" d="M487.46,-744.65C483.64,-747.44 480.07,-750.55 477,-754 446.68,-788.02 475.12,-819.79 441,-850 433.95,-856.24 425.83,-861.24 417.18,-865.23"/>
<polygon fill="#63b8ff" stroke="#63b8ff" points="489.64,-747.41 496.15,-739.05 485.85,-741.53 489.64,-747.41"/>
</a>
</g>
</g>
<!-- Node7 -->
<g id="Node000007" class="node">
<title>Node7</title>
<g id="a_Node000007"><a xlink:href="classwmtk_1_1operations_1_1_a_m_i_p_s_optimization_smoothing_periodic_1_1_w_m_t_k_a_m_i_p_s_problem.html#a6181aedd6d0e35b51395da3153b5fef6" target="_top" xlink:title=" ">
<polygon fill="white" stroke="#666666" points="424.5,-792.5 207.5,-792.5 207.5,-751.5 424.5,-751.5 424.5,-792.5"/>
<text text-anchor="start" x="215.5" y="-780.5" font-family="Helvetica,sans-Serif" font-size="10.00">wmtk::operations::AMIPSOptimization</text>
<text text-anchor="start" x="215.5" y="-769.5" font-family="Helvetica,sans-Serif" font-size="10.00">SmoothingPeriodic::WMTKAMIPSProblem</text>
<text text-anchor="middle" x="316" y="-758.5" font-family="Helvetica,sans-Serif" font-size="10.00">::hessian</text>
</a>
</g>
</g>
<!-- Node4&#45;&gt;Node7 -->
<g id="edge8_Node000004_Node000007" class="edge">
<title>Node4&#45;&gt;Node7</title>
<g id="a_edge8_Node000004_Node000007"><a xlink:title=" ">
<path fill="none" stroke="#63b8ff" d="M471.68,-738.02C452.5,-742.23 431.05,-746.95 410.37,-751.49"/>
<polygon fill="#63b8ff" stroke="#63b8ff" points="472.47,-741.43 481.49,-735.87 470.97,-734.59 472.47,-741.43"/>
</a>
</g>
</g>
<!-- Node8 -->
<g id="Node000008" class="node">
<title>Node8</title>
<g id="a_Node000008"><a xlink:href="namespacewmtk_1_1components_1_1internal.html#a8890d5e5bb5f11779d4e40e07882253a" target="_top" xlink:title=" ">
<polygon fill="white" stroke="#666666" points="393,-533 239,-533 239,-503 393,-503 393,-533"/>
<text text-anchor="start" x="247" y="-521" font-family="Helvetica,sans-Serif" font-size="10.00">wmtk::components::internal</text>
<text text-anchor="middle" x="316" y="-510" font-family="Helvetica,sans-Serif" font-size="10.00">::periodic_optimization</text>
</a>
</g>
</g>
<!-- Node4&#45;&gt;Node8 -->
<g id="edge9_Node000004_Node000008" class="edge">
<title>Node4&#45;&gt;Node8</title>
<g id="a_edge9_Node000004_Node000008"><a xlink:title=" ">
<path fill="none" stroke="#63b8ff" d="M527.32,-698.92C514.47,-663.32 486.25,-598.31 441,-561 425.79,-548.46 406.71,-539.49 388.1,-533.1"/>
<polygon fill="#63b8ff" stroke="#63b8ff" points="524.08,-700.26 530.68,-708.55 530.69,-697.96 524.08,-700.26"/>
</a>
</g>
</g>
<!-- Node10 -->
<g id="Node000010" class="node">
<title>Node10</title>
<g id="a_Node000010"><a xlink:href="classwmtk_1_1operations_1_1_a_m_i_p_s_optimization_smoothing_1_1_w_m_t_k_a_m_i_p_s_problem.html#ab59d438a581f80e7c225a440c0cfafb6" target="_top" xlink:title=" ">
<polygon fill="white" stroke="#666666" points="421.5,-685 210.5,-685 210.5,-655 421.5,-655 421.5,-685"/>
<text text-anchor="start" x="218.5" y="-673" font-family="Helvetica,sans-Serif" font-size="10.00">wmtk::operations::AMIPSOptimization</text>
<text text-anchor="middle" x="316" y="-662" font-family="Helvetica,sans-Serif" font-size="10.00">Smoothing::WMTKAMIPSProblem::value</text>
</a>
</g>
</g>
<!-- Node4&#45;&gt;Node10 -->
<g id="edge12_Node000004_Node000010" class="edge">
<title>Node4&#45;&gt;Node10</title>
<g id="a_edge12_Node000004_Node000010"><a xlink:title=" ">
<path fill="none" stroke="#63b8ff" d="M481.68,-705.73C468.47,-701.57 454.29,-697.38 441,-694 428.36,-690.78 414.89,-687.76 401.67,-685.02"/>
<polygon fill="#63b8ff" stroke="#63b8ff" points="480.99,-709.18 491.58,-708.89 483.12,-702.51 480.99,-709.18"/>
</a>
</g>
</g>
<!-- Node11 -->
<g id="Node000011" class="node">
<title>Node11</title>
<g id="a_Node000011"><a xlink:href="classwmtk_1_1operations_1_1_a_m_i_p_s_optimization_smoothing_periodic_1_1_w_m_t_k_a_m_i_p_s_problem.html#a678a1813c9b5d871c22fe6525e074e86" target="_top" xlink:title=" ">
<polygon fill="white" stroke="#666666" points="441,-637 191,-637 191,-607 441,-607 441,-637"/>
<text text-anchor="start" x="199" y="-625" font-family="Helvetica,sans-Serif" font-size="10.00">wmtk::operations::AMIPSOptimization</text>
<text text-anchor="middle" x="316" y="-614" font-family="Helvetica,sans-Serif" font-size="10.00">SmoothingPeriodic::WMTKAMIPSProblem::value</text>
</a>
</g>
</g>
<!-- Node4&#45;&gt;Node11 -->
<g id="edge13_Node000004_Node000011" class="edge">
<title>Node4&#45;&gt;Node11</title>
<g id="a_edge13_Node000004_Node000011"><a xlink:title=" ">
<path fill="none" stroke="#63b8ff" d="M514.71,-701.51C496.89,-683.64 469.62,-659.5 441,-646 433.66,-642.54 425.85,-639.58 417.87,-637.04"/>
<polygon fill="#63b8ff" stroke="#63b8ff" points="512.26,-704.01 521.75,-708.73 517.27,-699.12 512.26,-704.01"/>
</a>
</g>
</g>
<!-- Node12 -->
<g id="Node000012" class="node">
<title>Node12</title>
<g id="a_Node000012"><a xlink:href="namespacewmtk_1_1components.html#ac6ca52668bd22e164d4baf59ec533864" target="_top" xlink:title=" ">
<polygon fill="white" stroke="#666666" points="405.5,-588.5 226.5,-588.5 226.5,-569.5 405.5,-569.5 405.5,-588.5"/>
<text text-anchor="middle" x="316" y="-576.5" font-family="Helvetica,sans-Serif" font-size="10.00">wmtk::components::wildmeshing</text>
</a>
</g>
</g>
<!-- Node4&#45;&gt;Node12 -->
<g id="edge14_Node000004_Node000012" class="edge">
<title>Node4&#45;&gt;Node12</title>
<g id="a_edge14_Node000004_Node000012"><a xlink:title=" ">
<path fill="none" stroke="#63b8ff" d="M524.58,-699.81C510,-670.51 481.25,-622.11 441,-598 430.26,-591.57 418.08,-587.06 405.67,-583.95"/>
<polygon fill="#63b8ff" stroke="#63b8ff" points="521.49,-701.45 528.98,-708.95 527.8,-698.42 521.49,-701.45"/>
</a>
</g>
</g>
<!-- Node8&#45;&gt;Node8 -->
<g id="edge11_Node000008_Node000008" class="edge">
<title>Node8&#45;&gt;Node8</title>
<g id="a_edge11_Node000008_Node000008"><a xlink:title=" ">
<path fill="none" stroke="#63b8ff" d="M354.51,-543.6C349.25,-547.97 336.41,-551 316,-551 281.62,-551 268.73,-542.41 277.33,-533.28"/>
<polygon fill="#63b8ff" stroke="#63b8ff" points="358.01,-543.33 354.67,-533.28 351.01,-543.22 358.01,-543.33"/>
</a>
</g>
</g>
<!-- Node9 -->
<g id="Node000009" class="node">
<title>Node9</title>
<g id="a_Node000009"><a xlink:href="namespacewmtk_1_1components.html#a4166e4880553cfacbf79ac3515a637cd" target="_top" xlink:title=" ">
<polygon fill="white" stroke="#666666" points="155,-533 0,-533 0,-503 155,-503 155,-533"/>
<text text-anchor="start" x="8" y="-521" font-family="Helvetica,sans-Serif" font-size="10.00">wmtk::components::periodic</text>
<text text-anchor="middle" x="77.5" y="-510" font-family="Helvetica,sans-Serif" font-size="10.00">_optimization</text>
</a>
</g>
</g>
<!-- Node8&#45;&gt;Node9 -->
<g id="edge10_Node000008_Node000009" class="edge">
<title>Node8&#45;&gt;Node9</title>
<g id="a_edge10_Node000008_Node000009"><a xlink:title=" ">
<path fill="none" stroke="#63b8ff" d="M228.7,-518C204.67,-518 178.74,-518 155.3,-518"/>
<polygon fill="#63b8ff" stroke="#63b8ff" points="228.87,-521.5 238.87,-518 228.87,-514.5 228.87,-521.5"/>
</a>
</g>
</g>
<!-- Node13&#45;&gt;Node8 -->
<g id="edge26_Node000013_Node000008" class="edge">
<title>Node13&#45;&gt;Node8</title>
<g id="a_edge26_Node000013_Node000008"><a xlink:title=" ">
<path fill="none" stroke="#63b8ff" d="M523.21,-398.48C507.91,-426.29 479.08,-470.79 441,-494 426.68,-502.73 409.84,-508.39 393.27,-512.03"/>
<polygon fill="#63b8ff" stroke="#63b8ff" points="526.43,-399.88 528.05,-389.41 520.26,-396.59 526.43,-399.88"/>
</a>
</g>
</g>
<!-- Node13&#45;&gt;Node12 -->
<g id="edge27_Node000013_Node000012" class="edge">
<title>Node13&#45;&gt;Node12</title>
<g id="a_edge27_Node000013_Node000012"><a xlink:title=" ">
<path fill="none" stroke="#63b8ff" d="M530.46,-399.03C520.83,-439.91 495.68,-520.43 441,-560 430.59,-567.53 418.39,-572.6 405.78,-575.94"/>
<polygon fill="#63b8ff" stroke="#63b8ff" points="533.92,-399.6 532.69,-389.07 527.09,-398.07 533.92,-399.6"/>
</a>
</g>
</g>
<!-- Node14 -->
<g id="Node000014" class="node">
<title>Node14</title>
<g id="a_Node000014"><a xlink:href="classwmtk_1_1invariants_1_1_collapse_energy_before_invariant.html#aaf60c03541b2a73aebe4ebad561f2535" target="_top" xlink:title=" ">
<polygon fill="white" stroke="#666666" points="398,-341 234,-341 234,-311 398,-311 398,-341"/>
<text text-anchor="start" x="242" y="-329" font-family="Helvetica,sans-Serif" font-size="10.00">wmtk::invariants::Collapse</text>
<text text-anchor="middle" x="316" y="-318" font-family="Helvetica,sans-Serif" font-size="10.00">EnergyBeforeInvariant::before</text>
</a>
</g>
</g>
<!-- Node13&#45;&gt;Node14 -->
<g id="edge16_Node000013_Node000014" class="edge">
<title>Node13&#45;&gt;Node14</title>
<g id="a_edge16_Node000013_Node000014"><a xlink:title=" ">
<path fill="none" stroke="#63b8ff" d="M468.49,-356.48C459.27,-354.21 449.92,-351.99 441,-350 427.2,-346.91 412.48,-343.86 398.18,-341.02"/>
<polygon fill="#63b8ff" stroke="#63b8ff" points="467.86,-359.92 478.41,-358.94 469.55,-353.13 467.86,-359.92"/>
</a>
</g>
</g>
<!-- Node15 -->
<g id="Node000015" class="node">
<title>Node15</title>
<g id="a_Node000015"><a xlink:href="classwmtk_1_1invariants_1_1_collapse_energy_before_invariant_double.html#aedec3d60165b7fe7541a9caa18f6c131" target="_top" xlink:title=" ">
<polygon fill="white" stroke="#666666" points="396.5,-292.5 235.5,-292.5 235.5,-251.5 396.5,-251.5 396.5,-292.5"/>
<text text-anchor="start" x="243.5" y="-280.5" font-family="Helvetica,sans-Serif" font-size="10.00">wmtk::invariants::Collapse</text>
<text text-anchor="start" x="243.5" y="-269.5" font-family="Helvetica,sans-Serif" font-size="10.00">EnergyBeforeInvariantDouble</text>
<text text-anchor="middle" x="316" y="-258.5" font-family="Helvetica,sans-Serif" font-size="10.00">::before</text>
</a>
</g>
</g>
<!-- Node13&#45;&gt;Node15 -->
<g id="edge17_Node000013_Node000015" class="edge">
<title>Node13&#45;&gt;Node15</title>
<g id="a_edge17_Node000013_Node000015"><a xlink:title=" ">
<path fill="none" stroke="#63b8ff" d="M482.53,-353.9C480.62,-352.66 478.76,-351.36 477,-350 455.91,-333.69 463.27,-316.67 441,-302 427.77,-293.29 412.26,-287.11 396.77,-282.71"/>
<polygon fill="#63b8ff" stroke="#63b8ff" points="480.84,-356.96 491.26,-358.91 484.33,-350.9 480.84,-356.96"/>
</a>
</g>
</g>
<!-- Node16 -->
<g id="Node000016" class="node">
<title>Node16</title>
<g id="a_Node000016"><a xlink:href="classwmtk_1_1invariants_1_1_collapse_soft_energy_before_invariant.html#aab8e4687323543f65ee7a38e93b9e32d" target="_top" xlink:title=" ">
<polygon fill="white" stroke="#666666" points="389.5,-233.5 242.5,-233.5 242.5,-192.5 389.5,-192.5 389.5,-233.5"/>
<text text-anchor="start" x="250.5" y="-221.5" font-family="Helvetica,sans-Serif" font-size="10.00">wmtk::invariants::Collapse</text>
<text text-anchor="start" x="250.5" y="-210.5" font-family="Helvetica,sans-Serif" font-size="10.00">SoftEnergyBeforeInvariant</text>
<text text-anchor="middle" x="316" y="-199.5" font-family="Helvetica,sans-Serif" font-size="10.00">::before</text>
</a>
</g>
</g>
<!-- Node13&#45;&gt;Node16 -->
<g id="edge18_Node000013_Node000016" class="edge">
<title>Node13&#45;&gt;Node16</title>
<g id="a_edge18_Node000013_Node000016"><a xlink:title=" ">
<path fill="none" stroke="#63b8ff" d="M479.85,-352.8C478.86,-351.9 477.91,-350.97 477,-350 442.45,-313.03 478.38,-276.09 441,-242 426.87,-229.11 408.13,-221.62 389.51,-217.36"/>
<polygon fill="#63b8ff" stroke="#63b8ff" points="477.99,-355.78 488.09,-358.97 482.18,-350.17 477.99,-355.78"/>
</a>
</g>
</g>
<!-- Node17 -->
<g id="Node000017" class="node">
<title>Node17</title>
<g id="a_Node000017"><a xlink:href="classwmtk_1_1_swap23_energy_before_invariant.html#ab44b90bbea65c45e354fc3e72ecf0b29" target="_top" xlink:title=" ">
<polygon fill="white" stroke="#666666" points="393.5,-174 238.5,-174 238.5,-144 393.5,-144 393.5,-174"/>
<text text-anchor="start" x="246.5" y="-162" font-family="Helvetica,sans-Serif" font-size="10.00">wmtk::Swap23EnergyBefore</text>
<text text-anchor="middle" x="316" y="-151" font-family="Helvetica,sans-Serif" font-size="10.00">Invariant::before</text>
</a>
</g>
</g>
<!-- Node13&#45;&gt;Node17 -->
<g id="edge19_Node000013_Node000017" class="edge">
<title>Node13&#45;&gt;Node17</title>
<g id="a_edge19_Node000013_Node000017"><a xlink:title=" ">
<path fill="none" stroke="#63b8ff" d="M479.27,-352.5C478.48,-351.7 477.72,-350.86 477,-350 428.27,-291.78 495.25,-236.12 441,-183 428.31,-170.57 411.23,-163.61 393.82,-159.89"/>
<polygon fill="#63b8ff" stroke="#63b8ff" points="477.18,-355.31 487.13,-358.95 481.63,-349.9 477.18,-355.31"/>
</a>
</g>
</g>
<!-- Node18 -->
<g id="Node000018" class="node">
<title>Node18</title>
<g id="a_Node000018"><a xlink:href="classwmtk_1_1_swap32_energy_before_invariant.html#ab57dde58cf0edb77bb38a8ba31a68108" target="_top" xlink:title=" ">
<polygon fill="white" stroke="#666666" points="393.5,-126 238.5,-126 238.5,-96 393.5,-96 393.5,-126"/>
<text text-anchor="start" x="246.5" y="-114" font-family="Helvetica,sans-Serif" font-size="10.00">wmtk::Swap32EnergyBefore</text>
<text text-anchor="middle" x="316" y="-103" font-family="Helvetica,sans-Serif" font-size="10.00">Invariant::before</text>
</a>
</g>
</g>
<!-- Node13&#45;&gt;Node18 -->
<g id="edge20_Node000013_Node000018" class="edge">
<title>Node13&#45;&gt;Node18</title>
<g id="a_edge20_Node000013_Node000018"><a xlink:title=" ">
<path fill="none" stroke="#63b8ff" d="M478.88,-352.18C478.23,-351.48 477.6,-350.75 477,-350 416.56,-274.28 508.64,-204.37 441,-135 428.45,-122.13 411.21,-115.04 393.59,-111.35"/>
<polygon fill="#63b8ff" stroke="#63b8ff" points="476.83,-355.04 486.69,-358.9 481.39,-349.73 476.83,-355.04"/>
</a>
</g>
</g>
<!-- Node19 -->
<g id="Node000019" class="node">
<title>Node19</title>
<g id="a_Node000019"><a xlink:href="classwmtk_1_1_swap32_energy_before_invariant_double.html#a55e8fe16823411da398db8d0e7902fd4" target="_top" xlink:title=" ">
<polygon fill="white" stroke="#666666" points="393.5,-78 238.5,-78 238.5,-48 393.5,-48 393.5,-78"/>
<text text-anchor="start" x="246.5" y="-66" font-family="Helvetica,sans-Serif" font-size="10.00">wmtk::Swap32EnergyBefore</text>
<text text-anchor="middle" x="316" y="-55" font-family="Helvetica,sans-Serif" font-size="10.00">InvariantDouble::before</text>
</a>
</g>
</g>
<!-- Node13&#45;&gt;Node19 -->
<g id="edge21_Node000013_Node000019" class="edge">
<title>Node13&#45;&gt;Node19</title>
<g id="a_edge21_Node000013_Node000019"><a xlink:title=" ">
<path fill="none" stroke="#63b8ff" d="M478.85,-352.21C478.2,-351.5 477.59,-350.76 477,-350 404.78,-256.71 522.09,-172.69 441,-87 428.57,-73.86 411.27,-66.7 393.53,-63.02"/>
<polygon fill="#63b8ff" stroke="#63b8ff" points="476.75,-355.03 486.58,-358.99 481.37,-349.77 476.75,-355.03"/>
</a>
</g>
</g>
<!-- Node20 -->
<g id="Node000020" class="node">
<title>Node20</title>
<g id="a_Node000020"><a xlink:href="classwmtk_1_1_swap44_energy_before_invariant.html#ad084e9675c0844f9229f4a9f452a9f4a" target="_top" xlink:title=" ">
<polygon fill="white" stroke="#666666" points="393.5,-30 238.5,-30 238.5,0 393.5,0 393.5,-30"/>
<text text-anchor="start" x="246.5" y="-18" font-family="Helvetica,sans-Serif" font-size="10.00">wmtk::Swap44EnergyBefore</text>
<text text-anchor="middle" x="316" y="-7" font-family="Helvetica,sans-Serif" font-size="10.00">Invariant::before</text>
</a>
</g>
</g>
<!-- Node13&#45;&gt;Node20 -->
<g id="edge22_Node000013_Node000020" class="edge">
<title>Node13&#45;&gt;Node20</title>
<g id="a_edge22_Node000013_Node000020"><a xlink:title=" ">
<path fill="none" stroke="#63b8ff" d="M478.78,-352.17C478.16,-351.47 477.57,-350.75 477,-350 392.97,-239.09 535.58,-141.05 441,-39 428.7,-25.73 411.45,-18.52 393.72,-14.85"/>
<polygon fill="#63b8ff" stroke="#63b8ff" points="476.45,-354.79 486.23,-358.86 481.12,-349.58 476.45,-354.79"/>
</a>
</g>
</g>
<!-- Node21 -->
<g id="Node000021" class="node">
<title>Node21</title>
<g id="a_Node000021"><a xlink:href="classwmtk_1_1_swap44_energy_before_invariant_double.html#a14e29c5ddd8dca1f088cb7765a068096" target="_top" xlink:title=" ">
<polygon fill="white" stroke="#666666" points="393.5,-485 238.5,-485 238.5,-455 393.5,-455 393.5,-485"/>
<text text-anchor="start" x="246.5" y="-473" font-family="Helvetica,sans-Serif" font-size="10.00">wmtk::Swap44EnergyBefore</text>
<text text-anchor="middle" x="316" y="-462" font-family="Helvetica,sans-Serif" font-size="10.00">InvariantDouble::before</text>
</a>
</g>
</g>
<!-- Node13&#45;&gt;Node21 -->
<g id="edge23_Node000013_Node000021" class="edge">
<title>Node13&#45;&gt;Node21</title>
<g id="a_edge23_Node000013_Node000021"><a xlink:title=" ">
<path fill="none" stroke="#63b8ff" d="M512.61,-396.33C494.6,-412.61 468.1,-433.86 441,-446 426.29,-452.59 409.81,-457.37 393.78,-460.84"/>
<polygon fill="#63b8ff" stroke="#63b8ff" points="515.3,-398.61 520.26,-389.25 510.54,-393.47 515.3,-398.61"/>
</a>
</g>
</g>
<!-- Node22 -->
<g id="Node000022" class="node">
<title>Node22</title>
<g id="a_Node000022"><a xlink:href="classwmtk_1_1_swap56_energy_before_invariant.html#a904628eeefa17ffc85adcf81413f823a" target="_top" xlink:title=" ">
<polygon fill="white" stroke="#666666" points="393.5,-437 238.5,-437 238.5,-407 393.5,-407 393.5,-437"/>
<text text-anchor="start" x="246.5" y="-425" font-family="Helvetica,sans-Serif" font-size="10.00">wmtk::Swap56EnergyBefore</text>
<text text-anchor="middle" x="316" y="-414" font-family="Helvetica,sans-Serif" font-size="10.00">Invariant::before</text>
</a>
</g>
</g>
<!-- Node13&#45;&gt;Node22 -->
<g id="edge24_Node000013_Node000022" class="edge">
<title>Node13&#45;&gt;Node22</title>
<g id="a_edge24_Node000013_Node000022"><a xlink:title=" ">
<path fill="none" stroke="#63b8ff" d="M468.49,-391.52C459.27,-393.79 449.92,-396.01 441,-398 425.7,-401.42 409.27,-404.8 393.54,-407.9"/>
<polygon fill="#63b8ff" stroke="#63b8ff" points="469.55,-394.87 478.41,-389.06 467.86,-388.08 469.55,-394.87"/>
</a>
</g>
</g>
<!-- Node23 -->
<g id="Node000023" class="node">
<title>Node23</title>
<g id="a_Node000023"><a xlink:href="classwmtk_1_1_swap56_energy_before_invariant_double.html#a853497f492784f29f3e0e9566d8d4137" target="_top" xlink:title=" ">
<polygon fill="white" stroke="#666666" points="393.5,-389 238.5,-389 238.5,-359 393.5,-359 393.5,-389"/>
<text text-anchor="start" x="246.5" y="-377" font-family="Helvetica,sans-Serif" font-size="10.00">wmtk::Swap56EnergyBefore</text>
<text text-anchor="middle" x="316" y="-366" font-family="Helvetica,sans-Serif" font-size="10.00">InvariantDouble::before</text>
</a>
</g>
</g>
<!-- Node13&#45;&gt;Node23 -->
<g id="edge25_Node000013_Node000023" class="edge">
<title>Node13&#45;&gt;Node23</title>
<g id="a_edge25_Node000013_Node000023"><a xlink:title=" ">
<path fill="none" stroke="#63b8ff" d="M467.6,-374C444.13,-374 417.68,-374 393.56,-374"/>
<polygon fill="#63b8ff" stroke="#63b8ff" points="467.81,-377.5 477.81,-374 467.81,-370.5 467.81,-377.5"/>
</a>
</g>
</g>
<!-- Node24&#45;&gt;Node6 -->
<g id="edge30_Node000024_Node000006" class="edge">
<title>Node24&#45;&gt;Node6</title>
<g id="a_edge30_Node000024_Node000006"><a xlink:title=" ">
<path fill="none" stroke="#63b8ff" d="M482.53,-798.1C480.62,-799.34 478.76,-800.64 477,-802 455.91,-818.31 463.27,-835.33 441,-850 433.6,-854.87 425.49,-858.95 417.06,-862.37"/>
<polygon fill="#63b8ff" stroke="#63b8ff" points="484.33,-801.1 491.26,-793.09 480.84,-795.04 484.33,-801.1"/>
</a>
</g>
</g>
<!-- Node24&#45;&gt;Node7 -->
<g id="edge31_Node000024_Node000007" class="edge">
<title>Node24&#45;&gt;Node7</title>
<g id="a_edge31_Node000024_Node000007"><a xlink:title=" ">
<path fill="none" stroke="#63b8ff" d="M471.08,-776.23C456.43,-775.83 440.49,-775.39 424.6,-774.95"/>
<polygon fill="#63b8ff" stroke="#63b8ff" points="471.4,-779.74 481.49,-776.52 471.59,-772.74 471.4,-779.74"/>
</a>
</g>
</g>
<!-- Node25 -->
<g id="Node000025" class="node">
<title>Node25</title>
<g id="a_Node000025"><a xlink:href="classwmtk_1_1function_1_1_a_m_i_p_s.html#ac1f046fa6237c8465a56f56f829d42b7" target="_top" xlink:title=" ">
<polygon fill="white" stroke="#666666" points="379.5,-841 252.5,-841 252.5,-811 379.5,-811 379.5,-841"/>
<text text-anchor="start" x="260.5" y="-829" font-family="Helvetica,sans-Serif" font-size="10.00">wmtk::function::AMIPS</text>
<text text-anchor="middle" x="316" y="-818" font-family="Helvetica,sans-Serif" font-size="10.00">::get_hessian</text>
</a>
</g>
</g>
<!-- Node24&#45;&gt;Node25 -->
<g id="edge29_Node000024_Node000025" class="edge">
<title>Node24&#45;&gt;Node25</title>
<g id="a_edge29_Node000024_Node000025"><a xlink:title=" ">
<path fill="none" stroke="#63b8ff" d="M471.19,-794.86C461.11,-797.35 450.79,-799.81 441,-802 421.1,-806.45 399.29,-810.83 379.59,-814.61"/>
<polygon fill="#63b8ff" stroke="#63b8ff" points="472.31,-798.19 481.16,-792.37 470.61,-791.4 472.31,-798.19"/>
</a>
</g>
</g>
<!-- Node27&#45;&gt;Node2 -->
<g id="edge35_Node000027_Node000002" class="edge">
<title>Node27&#45;&gt;Node2</title>
<g id="a_edge35_Node000027_Node000002"><a xlink:title=" ">
<path fill="none" stroke="#63b8ff" d="M516.4,-954.59C498.76,-974 470.86,-1001.27 441,-1017 433.46,-1020.98 425.38,-1024.43 417.09,-1027.44"/>
<polygon fill="#63b8ff" stroke="#63b8ff" points="519.06,-956.87 523.08,-947.07 513.82,-952.22 519.06,-956.87"/>
</a>
</g>
</g>
<!-- Node27&#45;&gt;Node3 -->
<g id="edge36_Node000027_Node000003" class="edge">
<title>Node27&#45;&gt;Node3</title>
<g id="a_edge36_Node000027_Node000003"><a xlink:title=" ">
<path fill="none" stroke="#63b8ff" d="M471.08,-934.06C456.43,-934.53 440.49,-935.04 424.6,-935.55"/>
<polygon fill="#63b8ff" stroke="#63b8ff" points="471.61,-937.55 481.49,-933.73 471.38,-930.55 471.61,-937.55"/>
</a>
</g>
</g>
<!-- Node27&#45;&gt;Node6 -->
<g id="edge37_Node000027_Node000006" class="edge">
<title>Node27&#45;&gt;Node6</title>
<g id="a_edge37_Node000027_Node000006"><a xlink:title=" ">
<path fill="none" stroke="#63b8ff" d="M471.6,-916.79C450.32,-911.73 426.25,-906 403.55,-900.6"/>
<polygon fill="#63b8ff" stroke="#63b8ff" points="470.95,-920.24 481.49,-919.15 472.57,-913.43 470.95,-920.24"/>
</a>
</g>
</g>
<!-- Node27&#45;&gt;Node7 -->
<g id="edge38_Node000027_Node000007" class="edge">
<title>Node27&#45;&gt;Node7</title>
<g id="a_edge38_Node000027_Node000007"><a xlink:title=" ">
<path fill="none" stroke="#63b8ff" d="M518.81,-908.61C492.4,-871.67 443.7,-803.8 441,-802 435.66,-798.43 429.94,-795.28 424,-792.51"/>
<polygon fill="#63b8ff" stroke="#63b8ff" points="516.03,-910.74 524.69,-916.85 521.73,-906.68 516.03,-910.74"/>
</a>
</g>
</g>
<!-- Node28 -->
<g id="Node000028" class="node">
<title>Node28</title>
<g id="a_Node000028"><a xlink:href="classwmtk_1_1function_1_1_a_m_i_p_s.html#a3491cbd4f25629486e37fb245b61395e" target="_top" xlink:title=" ">
<polygon fill="white" stroke="#666666" points="379.5,-1008 252.5,-1008 252.5,-978 379.5,-978 379.5,-1008"/>
<text text-anchor="start" x="260.5" y="-996" font-family="Helvetica,sans-Serif" font-size="10.00">wmtk::function::AMIPS</text>
<text text-anchor="middle" x="316" y="-985" font-family="Helvetica,sans-Serif" font-size="10.00">::get_gradient</text>
</a>
</g>
</g>
<!-- Node27&#45;&gt;Node28 -->
<g id="edge34_Node000027_Node000028" class="edge">
<title>Node27&#45;&gt;Node28</title>
<g id="a_edge34_Node000027_Node000028"><a xlink:title=" ">
<path fill="none" stroke="#63b8ff" d="M491.94,-950.97C476.12,-957.35 457.96,-964.08 441,-969 421.31,-974.71 399.46,-979.45 379.66,-983.17"/>
<polygon fill="#63b8ff" stroke="#63b8ff" points="493.54,-954.1 501.46,-947.06 490.88,-947.62 493.54,-954.1"/>
</a>
</g>
</g>
<!-- Node30&#45;&gt;Node6 -->
<g id="edge42_Node000030_Node000006" class="edge">
<title>Node30&#45;&gt;Node6</title>
<g id="a_edge42_Node000030_Node000006"><a xlink:title=" ">
<path fill="none" stroke="#63b8ff" d="M472.56,-842.09C462.03,-844.75 451.21,-847.47 441,-850 428.53,-853.09 415.35,-856.32 402.41,-859.47"/>
<polygon fill="#63b8ff" stroke="#63b8ff" points="473.71,-845.41 482.55,-839.56 471.99,-838.62 473.71,-845.41"/>
</a>
</g>
</g>
<!-- Node30&#45;&gt;Node7 -->
<g id="edge43_Node000030_Node000007" class="edge">
<title>Node30&#45;&gt;Node7</title>
<g id="a_edge43_Node000030_Node000007"><a xlink:title=" ">
<path fill="none" stroke="#63b8ff" d="M472.56,-809.91C462.03,-807.25 451.21,-804.53 441,-802 428.53,-798.91 415.35,-795.68 402.41,-792.53"/>
<polygon fill="#63b8ff" stroke="#63b8ff" points="471.99,-813.38 482.55,-812.44 473.71,-806.59 471.99,-813.38"/>
</a>
</g>
</g>
<!-- Node30&#45;&gt;Node25 -->
<g id="edge41_Node000030_Node000025" class="edge">
<title>Node30&#45;&gt;Node25</title>
<g id="a_edge41_Node000030_Node000025"><a xlink:title=" ">
<path fill="none" stroke="#63b8ff" d="M472.79,-826C443.56,-826 408.87,-826 379.65,-826"/>
<polygon fill="#63b8ff" stroke="#63b8ff" points="472.89,-829.5 482.89,-826 472.89,-822.5 472.89,-829.5"/>
</a>
</g>
</g>
</g>
</svg>

<g id="navigator" transform="translate(0 0)" fill="#404254">
  <rect fill="#f2f5e9" fill-opacity="0.5" stroke="#606060" stroke-width=".5" x="0" y="0" width="60" height="60"/>
  <use id="zoomplus" xlink:href="#zoomPlus" x="17" y="9" onmousedown="handleZoom(evt,'in')"/>
  <use id="zoomminus" xlink:href="#zoomMin" x="42" y="9" onmousedown="handleZoom(evt,'out')"/>
  <use id="reset" xlink:href="#resetDef" x="30" y="36" onmousedown="handleReset()"/>
   <use id="arrowup" xlink:href="#arrowUp" x="0" y="0" onmousedown="handlePan(0,-1)"/>
  <use id="arrowright" xlink:href="#arrowRight" x="0" y="0" onmousedown="handlePan(1,0)"/>
  <use id="arrowdown" xlink:href="#arrowDown" x="0" y="0" onmousedown="handlePan(0,1)"/>
  <use id="arrowleft" xlink:href="#arrowLeft" x="0" y="0" onmousedown="handlePan(-1,0)"/>
</g>
<svg viewBox="0 0 15 15" width="100%" height="30px" preserveAspectRatio="xMaxYMin meet">
 <g id="arrow_out" transform="scale(0.3 0.3)">
  <a xlink:href="namespacewmtk_ad12ad5f8ec07682b8da79699a2628b6a_icgraph_org.svg" target="_base">
   <rect id="button" ry="5" rx="5" y="6" x="6" height="38" width="38"
        fill="#f2f5e9" fill-opacity="0.5" stroke="#606060" stroke-width="1.0"/>
   <path id="arrow"
     d="M 11.500037,31.436501 C 11.940474,20.09759 22.043105,11.32322 32.158766,21.979434 L 37.068811,17.246167 C 37.068811,17.246167 37.088388,32 37.088388,32 L 22.160133,31.978069 C 22.160133,31.978069 26.997745,27.140456 26.997745,27.140456 C 18.528582,18.264221 13.291696,25.230495 11.500037,31.436501 z"
     style="fill:#404040;"/>
  </a>
 </g>
</svg>

<style type='text/css'>
<![CDATA[
[data-mouse-over-selected='false'] { opacity: 0.7; }
[data-mouse-over-selected='true']  { opacity: 1.0; }
]]>
</style>
<script type="application/ecmascript"><![CDATA[
document.addEventListener('DOMContentLoaded', (event) => {
  highlightEdges();
  highlightAdjacentNodes();
});
]]></script>
</svg>
