<?xml version="1.0" encoding="UTF-8" standalone="no"?>
<!DOCTYPE svg PUBLIC "-//W3C//DTD SVG 1.1//EN"
 "http://www.w3.org/Graphics/SVG/1.1/DTD/svg11.dtd">
<!-- Generated by graphviz version 2.43.0 (0)
 -->
<!-- Title: wmtk::components::output Pages: 1 -->
<svg width="1161pt" height="353pt"
 viewBox="0.00 0.00 1161.00 352.78" xmlns="http://www.w3.org/2000/svg" xmlns:xlink="http://www.w3.org/1999/xlink">
<g id="graph0" class="graph" transform="scale(1 1) rotate(0) translate(4 348.78)">
<title>wmtk::components::output</title>
<!-- Node1 -->
<g id="Node000001" class="node">
<title>Node1</title>
<g id="a_Node000001"><a xlink:title="Write the mesh to file.">
<polygon fill="#999999" stroke="#666666" points="148,-213.28 0,-213.28 0,-194.28 148,-194.28 148,-213.28"/>
<text text-anchor="middle" x="74" y="-201.28" font-family="Helvetica,sans-Serif" font-size="10.00">wmtk::components::output</text>
</a>
</g>
</g>
<!-- Node2 -->
<g id="Node000002" class="node">
<title>Node2</title>
<g id="a_Node000002"><a xlink:href="classwmtk_1_1attribute_1_1_mesh_attribute_handle.html#a9c02e0fc8ac13ad9f16ce928e7a2c84c" target="_top" xlink:title=" ">
<polygon fill="white" stroke="#666666" points="357,-261.78 190,-261.78 190,-231.78 357,-231.78 357,-261.78"/>
<text text-anchor="start" x="198" y="-249.78" font-family="Helvetica,sans-Serif" font-size="10.00">wmtk::attribute::MeshAttribute</text>
<text text-anchor="middle" x="273.5" y="-238.78" font-family="Helvetica,sans-Serif" font-size="10.00">Handle::as</text>
</a>
</g>
</g>
<!-- Node1&#45;&gt;Node2 -->
<g id="edge1_Node000001_Node000002" class="edge">
<title>Node1&#45;&gt;Node2</title>
<g id="a_edge1_Node000001_Node000002"><a xlink:title=" ">
<path fill="none" stroke="#63b8ff" d="M118.83,-213.33C140.8,-218.11 168.09,-224.05 193.55,-229.6"/>
<polygon fill="#63b8ff" stroke="#63b8ff" points="193.06,-233.07 203.58,-231.78 194.55,-226.23 193.06,-233.07"/>
</a>
</g>
</g>
<!-- Node3 -->
<g id="Node000003" class="node">
<title>Node3</title>
<g id="a_Node000003"><a xlink:href="classwmtk_1_1_mesh.html#a9c80d92eb6c801b64d52444a9f98d4d3" target="_top" xlink:title=" ">
<polygon fill="white" stroke="#666666" points="363,-213.28 184,-213.28 184,-194.28 363,-194.28 363,-213.28"/>
<text text-anchor="middle" x="273.5" y="-201.28" font-family="Helvetica,sans-Serif" font-size="10.00">wmtk::Mesh::get_attribute_name</text>
</a>
</g>
</g>
<!-- Node1&#45;&gt;Node3 -->
<g id="edge2_Node000001_Node000003" class="edge">
<title>Node1&#45;&gt;Node3</title>
<g id="a_edge2_Node000001_Node000003"><a xlink:title=" ">
<path fill="none" stroke="#63b8ff" d="M148.26,-203.78C156.62,-203.78 165.25,-203.78 173.87,-203.78"/>
<polygon fill="#63b8ff" stroke="#63b8ff" points="173.98,-207.28 183.98,-203.78 173.98,-200.28 173.98,-207.28"/>
</a>
</g>
</g>
<!-- Node6 -->
<g id="Node000006" class="node">
<title>Node6</title>
<g id="a_Node000006"><a xlink:href="namespacewmtk_1_1components.html#a50def332b20b44816cb0c8d31a808a51" target="_top" xlink:title="Write the mesh to file.">
<polygon fill="white" stroke="#666666" points="347.5,-155.28 199.5,-155.28 199.5,-136.28 347.5,-136.28 347.5,-155.28"/>
<text text-anchor="middle" x="273.5" y="-143.28" font-family="Helvetica,sans-Serif" font-size="10.00">wmtk::components::output</text>
</a>
</g>
</g>
<!-- Node1&#45;&gt;Node6 -->
<g id="edge5_Node000001_Node000006" class="edge">
<title>Node1&#45;&gt;Node6</title>
<g id="a_edge5_Node000001_Node000006"><a xlink:title=" ">
<path fill="none" stroke="#63b8ff" d="M107.61,-194.21C141.06,-184.38 193.25,-169.06 229.93,-158.29"/>
<polygon fill="#63b8ff" stroke="#63b8ff" points="231.23,-161.55 239.84,-155.38 229.26,-154.84 231.23,-161.55"/>
</a>
</g>
</g>
<!-- Node4 -->
<g id="Node000004" class="node">
<title>Node4</title>
<g id="a_Node000004"><a xlink:href="classwmtk_1_1attribute_1_1_attribute_manager.html#ab37901c560fe81350c6e2ec34ff3769c" target="_top" xlink:title=" ">
<polygon fill="white" stroke="#666666" points="557,-240.78 416,-240.78 416,-210.78 557,-210.78 557,-240.78"/>
<text text-anchor="start" x="424" y="-228.78" font-family="Helvetica,sans-Serif" font-size="10.00">wmtk::attribute::Attribute</text>
<text text-anchor="middle" x="486.5" y="-217.78" font-family="Helvetica,sans-Serif" font-size="10.00">Manager::get_name</text>
</a>
</g>
</g>
<!-- Node3&#45;&gt;Node4 -->
<g id="edge3_Node000003_Node000004" class="edge">
<title>Node3&#45;&gt;Node4</title>
<g id="a_edge3_Node000003_Node000004"><a xlink:title=" ">
<path fill="none" stroke="#63b8ff" d="M363.07,-213.02C377.22,-214.5 391.8,-216.01 405.73,-217.47"/>
<polygon fill="#63b8ff" stroke="#63b8ff" points="405.45,-220.96 415.76,-218.51 406.17,-213.99 405.45,-220.96"/>
</a>
</g>
</g>
<!-- Node5 -->
<g id="Node000005" class="node">
<title>Node5</title>
<g id="a_Node000005"><a xlink:href="classwmtk_1_1attribute_1_1_attribute_manager.html#a8f09c6131e0dbf55f249c5eb97c3216b" target="_top" xlink:title=" ">
<polygon fill="white" stroke="#666666" points="751,-240.78 610,-240.78 610,-210.78 751,-210.78 751,-240.78"/>
<text text-anchor="start" x="618" y="-228.78" font-family="Helvetica,sans-Serif" font-size="10.00">wmtk::attribute::Attribute</text>
<text text-anchor="middle" x="680.5" y="-217.78" font-family="Helvetica,sans-Serif" font-size="10.00">Manager::get</text>
</a>
</g>
</g>
<!-- Node4&#45;&gt;Node5 -->
<g id="edge4_Node000004_Node000005" class="edge">
<title>Node4&#45;&gt;Node5</title>
<g id="a_edge4_Node000004_Node000005"><a xlink:title=" ">
<path fill="none" stroke="#63b8ff" d="M557.09,-225.78C570.91,-225.78 585.51,-225.78 599.64,-225.78"/>
<polygon fill="#63b8ff" stroke="#63b8ff" points="599.83,-229.28 609.83,-225.78 599.83,-222.28 599.83,-229.28"/>
</a>
</g>
</g>
<!-- Node7 -->
<g id="Node000007" class="node">
<title>Node7</title>
<g id="a_Node000007"><a xlink:href="namespacewmtk.html#a6a35f11c12436093d26fdd8be6fecc06" target="_top" xlink:title="Retrieves the current logger.">
<polygon fill="white" stroke="#666666" points="527,-192.28 446,-192.28 446,-173.28 527,-173.28 527,-192.28"/>
<text text-anchor="middle" x="486.5" y="-180.28" font-family="Helvetica,sans-Serif" font-size="10.00">wmtk::logger</text>
</a>
</g>
</g>
<!-- Node6&#45;&gt;Node7 -->
<g id="edge6_Node000006_Node000007" class="edge">
<title>Node6&#45;&gt;Node7</title>
<g id="a_edge6_Node000006_Node000007"><a xlink:title=" ">
<path fill="none" stroke="#63b8ff" d="M328.84,-155.31C361.78,-161.09 403.51,-168.41 435.61,-174.04"/>
<polygon fill="#63b8ff" stroke="#63b8ff" points="435.22,-177.52 445.67,-175.8 436.43,-170.63 435.22,-177.52"/>
</a>
</g>
</g>
<!-- Node9 -->
<g id="Node000009" class="node">
<title>Node9</title>
<g id="a_Node000009"><a xlink:href="namespacewmtk_1_1components.html#a0ea7ecd700fbe5fa3171ce6b1050c562" target="_top" xlink:title="Write the mesh to file.">
<polygon fill="white" stroke="#666666" points="574,-155.28 399,-155.28 399,-136.28 574,-136.28 574,-155.28"/>
<text text-anchor="middle" x="486.5" y="-143.28" font-family="Helvetica,sans-Serif" font-size="10.00">wmtk::components::output_hdf5</text>
</a>
</g>
</g>
<!-- Node6&#45;&gt;Node9 -->
<g id="edge8_Node000006_Node000009" class="edge">
<title>Node6&#45;&gt;Node9</title>
<g id="a_edge8_Node000006_Node000009"><a xlink:title=" ">
<path fill="none" stroke="#63b8ff" d="M347.71,-145.78C360.79,-145.78 374.62,-145.78 388.26,-145.78"/>
<polygon fill="#63b8ff" stroke="#63b8ff" points="388.63,-149.28 398.63,-145.78 388.63,-142.28 388.63,-149.28"/>
</a>
</g>
</g>
<!-- Node10 -->
<g id="Node000010" class="node">
<title>Node10</title>
<g id="a_Node000010"><a xlink:href="classwmtk_1_1_mesh.html#a32203cf93aa0cff5c2e5c1fac502ec27" target="_top" xlink:title=" ">
<polygon fill="white" stroke="#666666" points="742.5,-155.28 618.5,-155.28 618.5,-136.28 742.5,-136.28 742.5,-155.28"/>
<text text-anchor="middle" x="680.5" y="-143.28" font-family="Helvetica,sans-Serif" font-size="10.00">wmtk::Mesh::serialize</text>
</a>
</g>
</g>
<!-- Node6&#45;&gt;Node10 -->
<g id="edge23_Node000006_Node000010" class="edge">
<title>Node6&#45;&gt;Node10</title>
<g id="a_edge23_Node000006_Node000010"><a xlink:title=" ">
<path fill="none" stroke="#63b8ff" d="M328.55,-136.25C350.36,-132.85 375.8,-129.45 399,-127.78 476.58,-122.21 496.5,-121.22 574,-127.78 590.17,-129.15 607.6,-131.69 623.53,-134.43"/>
<polygon fill="#63b8ff" stroke="#63b8ff" points="623.3,-137.94 633.76,-136.25 624.53,-131.05 623.3,-137.94"/>
</a>
</g>
</g>
<!-- Node20 -->
<g id="Node000020" class="node">
<title>Node20</title>
<g id="a_Node000020"><a xlink:href="classwmtk_1_1_mesh.html#a933f681cf24a63b155c9462280385200" target="_top" xlink:title=" ">
<polygon fill="white" stroke="#666666" points="1133.5,-74.78 1012.5,-74.78 1012.5,-44.78 1133.5,-44.78 1133.5,-74.78"/>
<text text-anchor="start" x="1020.5" y="-62.78" font-family="Helvetica,sans-Serif" font-size="10.00">wmtk::Mesh::top_cell</text>
<text text-anchor="middle" x="1073" y="-51.78" font-family="Helvetica,sans-Serif" font-size="10.00">_dimension</text>
</a>
</g>
</g>
<!-- Node6&#45;&gt;Node20 -->
<g id="edge24_Node000006_Node000020" class="edge">
<title>Node6&#45;&gt;Node20</title>
<g id="a_edge24_Node000006_Node000020"><a xlink:title=" ">
<path fill="none" stroke="#63b8ff" d="M300.69,-136.23C375.36,-109.57 596.22,-34.67 787,-9.78 861.92,-0.01 883.03,5.6 957,-9.78 984.98,-15.6 1014.49,-28.6 1036.62,-39.88"/>
<polygon fill="#63b8ff" stroke="#63b8ff" points="1035.14,-43.06 1045.62,-44.59 1038.38,-36.85 1035.14,-43.06"/>
</a>
</g>
</g>
<!-- Node8 -->
<g id="Node000008" class="node">
<title>Node8</title>
<g id="a_Node000008"><a xlink:href="namespacewmtk.html#a3daa7951a5f8b78cf4600dc047fcc180" target="_top" xlink:title="Setup a logger object to be used by WildmeshToolkit.">
<polygon fill="white" stroke="#666666" points="731,-192.28 630,-192.28 630,-173.28 731,-173.28 731,-192.28"/>
<text text-anchor="middle" x="680.5" y="-180.28" font-family="Helvetica,sans-Serif" font-size="10.00">wmtk::set_logger</text>
</a>
</g>
</g>
<!-- Node7&#45;&gt;Node8 -->
<g id="edge7_Node000007_Node000008" class="edge">
<title>Node7&#45;&gt;Node8</title>
<g id="a_edge7_Node000007_Node000008"><a xlink:title=" ">
<path fill="none" stroke="#63b8ff" d="M527.28,-182.78C553.91,-182.78 589.45,-182.78 619.49,-182.78"/>
<polygon fill="#63b8ff" stroke="#63b8ff" points="619.86,-186.28 629.86,-182.78 619.86,-179.28 619.86,-186.28"/>
</a>
</g>
</g>
<!-- Node9&#45;&gt;Node10 -->
<g id="edge9_Node000009_Node000010" class="edge">
<title>Node9&#45;&gt;Node10</title>
<g id="a_edge9_Node000009_Node000010"><a xlink:title=" ">
<path fill="none" stroke="#63b8ff" d="M574.23,-145.78C585.64,-145.78 597.23,-145.78 608.35,-145.78"/>
<polygon fill="#63b8ff" stroke="#63b8ff" points="608.4,-149.28 618.4,-145.78 608.4,-142.28 608.4,-149.28"/>
</a>
</g>
</g>
<!-- Node11 -->
<g id="Node000011" class="node">
<title>Node11</title>
<g id="a_Node000011"><a xlink:href="classwmtk_1_1multimesh_1_1_multi_mesh_manager.html#a812e0992812b2c48a889e10ae9e50758" target="_top" xlink:title=" ">
<polygon fill="white" stroke="#666666" points="952,-326.78 792,-326.78 792,-296.78 952,-296.78 952,-326.78"/>
<text text-anchor="start" x="800" y="-314.78" font-family="Helvetica,sans-Serif" font-size="10.00">wmtk::multimesh::MultiMesh</text>
<text text-anchor="middle" x="872" y="-303.78" font-family="Helvetica,sans-Serif" font-size="10.00">Manager::absolute_id</text>
</a>
</g>
</g>
<!-- Node10&#45;&gt;Node11 -->
<g id="edge10_Node000010_Node000011" class="edge">
<title>Node10&#45;&gt;Node11</title>
<g id="a_edge10_Node000010_Node000011"><a xlink:title=" ">
<path fill="none" stroke="#63b8ff" d="M737.47,-155.36C742.44,-157.84 747.07,-160.93 751,-164.78 791.64,-204.7 746.59,-247.64 787,-287.78 788.08,-288.85 789.2,-289.88 790.35,-290.85"/>
<polygon fill="#63b8ff" stroke="#63b8ff" points="788.34,-293.72 798.52,-296.67 792.41,-288.02 788.34,-293.72"/>
</a>
</g>
</g>
<!-- Node13 -->
<g id="Node000013" class="node">
<title>Node13</title>
<g id="a_Node000013"><a xlink:href="classwmtk_1_1multimesh_1_1_multi_mesh_manager.html#ab29db13e4be68177d7ae3c188d7b275e" target="_top" xlink:title=" ">
<polygon fill="white" stroke="#666666" points="952,-278.78 792,-278.78 792,-248.78 952,-248.78 952,-278.78"/>
<text text-anchor="start" x="800" y="-266.78" font-family="Helvetica,sans-Serif" font-size="10.00">wmtk::multimesh::MultiMesh</text>
<text text-anchor="middle" x="872" y="-255.78" font-family="Helvetica,sans-Serif" font-size="10.00">Manager::relative_id</text>
</a>
</g>
</g>
<!-- Node10&#45;&gt;Node13 -->
<g id="edge13_Node000010_Node000013" class="edge">
<title>Node10&#45;&gt;Node13</title>
<g id="a_edge13_Node000010_Node000013"><a xlink:title=" ">
<path fill="none" stroke="#63b8ff" d="M735.45,-155.42C741.06,-157.87 746.39,-160.94 751,-164.78 779.4,-188.46 758.74,-215.94 787,-239.78 788.52,-241.07 790.11,-242.28 791.75,-243.43"/>
<polygon fill="#63b8ff" stroke="#63b8ff" points="789.99,-246.46 800.35,-248.66 793.62,-240.48 789.99,-246.46"/>
</a>
</g>
</g>
<!-- Node15 -->
<g id="Node000015" class="node">
<title>Node15</title>
<g id="a_Node000015"><a xlink:href="classwmtk_1_1attribute_1_1_attribute_manager.html#a2f9290f582622604dc0daba270c84f9b" target="_top" xlink:title=" ">
<polygon fill="white" stroke="#666666" points="942.5,-230.78 801.5,-230.78 801.5,-200.78 942.5,-200.78 942.5,-230.78"/>
<text text-anchor="start" x="809.5" y="-218.78" font-family="Helvetica,sans-Serif" font-size="10.00">wmtk::attribute::Attribute</text>
<text text-anchor="middle" x="872" y="-207.78" font-family="Helvetica,sans-Serif" font-size="10.00">Manager::serialize</text>
</a>
</g>
</g>
<!-- Node10&#45;&gt;Node15 -->
<g id="edge15_Node000010_Node000015" class="edge">
<title>Node10&#45;&gt;Node15</title>
<g id="a_edge15_Node000010_Node000015"><a xlink:title=" ">
<path fill="none" stroke="#63b8ff" d="M726.17,-155.31C734.63,-157.86 743.25,-160.99 751,-164.78 768.96,-173.58 769.09,-182.89 787,-191.78 790.82,-193.68 794.82,-195.45 798.9,-197.1"/>
<polygon fill="#63b8ff" stroke="#63b8ff" points="797.96,-200.49 808.56,-200.73 800.42,-193.93 797.96,-200.49"/>
</a>
</g>
</g>
<!-- Node18 -->
<g id="Node000018" class="node">
<title>Node18</title>
<g id="a_Node000018"><a xlink:href="classwmtk_1_1multimesh_1_1_multi_mesh_manager.html#a9c0175530619088d9f52b38f1417cc1c" target="_top" xlink:title=" ">
<polygon fill="white" stroke="#666666" points="952,-182.78 792,-182.78 792,-152.78 952,-152.78 952,-182.78"/>
<text text-anchor="start" x="800" y="-170.78" font-family="Helvetica,sans-Serif" font-size="10.00">wmtk::multimesh::MultiMesh</text>
<text text-anchor="middle" x="872" y="-159.78" font-family="Helvetica,sans-Serif" font-size="10.00">Manager::serialize</text>
</a>
</g>
</g>
<!-- Node10&#45;&gt;Node18 -->
<g id="edge18_Node000010_Node000018" class="edge">
<title>Node10&#45;&gt;Node18</title>
<g id="a_edge18_Node000010_Node000018"><a xlink:title=" ">
<path fill="none" stroke="#63b8ff" d="M742.5,-152.87C755,-154.32 768.41,-155.87 781.67,-157.41"/>
<polygon fill="#63b8ff" stroke="#63b8ff" points="781.43,-160.91 791.77,-158.59 782.24,-153.96 781.43,-160.91"/>
</a>
</g>
</g>
<!-- Node19 -->
<g id="Node000019" class="node">
<title>Node19</title>
<g id="a_Node000019"><a xlink:href="classwmtk_1_1_mesh.html#abaf00438d0700358b160e310d69725c9" target="_top" xlink:title=" ">
<polygon fill="white" stroke="#666666" points="957,-134.28 787,-134.28 787,-115.28 957,-115.28 957,-134.28"/>
<text text-anchor="middle" x="872" y="-122.28" font-family="Helvetica,sans-Serif" font-size="10.00">wmtk::Mesh::top_simplex_type</text>
</a>
</g>
</g>
<!-- Node10&#45;&gt;Node19 -->
<g id="edge19_Node000010_Node000019" class="edge">
<title>Node10&#45;&gt;Node19</title>
<g id="a_edge19_Node000010_Node000019"><a xlink:title=" ">
<path fill="none" stroke="#63b8ff" d="M742.5,-139.02C753.46,-137.81 765.12,-136.52 776.77,-135.23"/>
<polygon fill="#63b8ff" stroke="#63b8ff" points="777.43,-138.68 786.98,-134.1 776.65,-131.72 777.43,-138.68"/>
</a>
</g>
</g>
<!-- Node21 -->
<g id="Node000021" class="node">
<title>Node21</title>
<g id="a_Node000021"><a xlink:href="classwmtk_1_1_mesh_writer.html#ac54560ef6ed79d5dfdb1a2c9dcb8687c" target="_top" xlink:title=" ">
<polygon fill="white" stroke="#666666" points="940.5,-96.78 803.5,-96.78 803.5,-66.78 940.5,-66.78 940.5,-96.78"/>
<text text-anchor="start" x="811.5" y="-84.78" font-family="Helvetica,sans-Serif" font-size="10.00">wmtk::MeshWriter::write</text>
<text text-anchor="middle" x="872" y="-73.78" font-family="Helvetica,sans-Serif" font-size="10.00">_absolute_id</text>
</a>
</g>
</g>
<!-- Node10&#45;&gt;Node21 -->
<g id="edge21_Node000010_Node000021" class="edge">
<title>Node10&#45;&gt;Node21</title>
<g id="a_edge21_Node000010_Node000021"><a xlink:title=" ">
<path fill="none" stroke="#63b8ff" d="M706.07,-136.19C727.35,-128 759.03,-116.11 787,-106.78 793.95,-104.47 801.25,-102.14 808.53,-99.89"/>
<polygon fill="#63b8ff" stroke="#63b8ff" points="809.87,-103.14 818.41,-96.87 807.82,-96.44 809.87,-103.14"/>
</a>
</g>
</g>
<!-- Node22 -->
<g id="Node000022" class="node">
<title>Node22</title>
<g id="a_Node000022"><a xlink:href="classwmtk_1_1_mesh_writer.html#a0e4fd87b00f2cb95a14c19e5a3670bde" target="_top" xlink:title=" ">
<polygon fill="white" stroke="#666666" points="940.5,-48.78 803.5,-48.78 803.5,-18.78 940.5,-18.78 940.5,-48.78"/>
<text text-anchor="start" x="811.5" y="-36.78" font-family="Helvetica,sans-Serif" font-size="10.00">wmtk::MeshWriter::write</text>
<text text-anchor="middle" x="872" y="-25.78" font-family="Helvetica,sans-Serif" font-size="10.00">_top_simplex_type</text>
</a>
</g>
</g>
<!-- Node10&#45;&gt;Node22 -->
<g id="edge22_Node000010_Node000022" class="edge">
<title>Node10&#45;&gt;Node22</title>
<g id="a_edge22_Node000010_Node000022"><a xlink:title=" ">
<path fill="none" stroke="#63b8ff" d="M690.4,-136.05C707.42,-118 746.52,-79.21 787,-57.78 790.52,-55.92 794.2,-54.19 797.97,-52.58"/>
<polygon fill="#63b8ff" stroke="#63b8ff" points="799.48,-55.75 807.5,-48.83 796.91,-49.24 799.48,-55.75"/>
</a>
</g>
</g>
<!-- Node11&#45;&gt;Node11 -->
<g id="edge11_Node000011_Node000011" class="edge">
<title>Node11&#45;&gt;Node11</title>
<g id="a_edge11_Node000011_Node000011"><a xlink:title=" ">
<path fill="none" stroke="#63b8ff" d="M838.6,-327.06C831.18,-336.19 842.31,-344.78 872,-344.78 889.63,-344.78 900.71,-341.76 905.26,-337.38"/>
<polygon fill="#63b8ff" stroke="#63b8ff" points="908.76,-337.11 905.4,-327.06 901.76,-337.01 908.76,-337.11"/>
</a>
</g>
</g>
<!-- Node12 -->
<g id="Node000012" class="node">
<title>Node12</title>
<g id="a_Node000012"><a xlink:href="classwmtk_1_1multimesh_1_1_multi_mesh_manager.html#a7d39339adb56b1798fe817d81bfcc67c" target="_top" xlink:title="Specifies whether this structure is the root of a multi&#45;mesh tree.">
<polygon fill="white" stroke="#666666" points="1153,-326.78 993,-326.78 993,-296.78 1153,-296.78 1153,-326.78"/>
<text text-anchor="start" x="1001" y="-314.78" font-family="Helvetica,sans-Serif" font-size="10.00">wmtk::multimesh::MultiMesh</text>
<text text-anchor="middle" x="1073" y="-303.78" font-family="Helvetica,sans-Serif" font-size="10.00">Manager::is_root</text>
</a>
</g>
</g>
<!-- Node11&#45;&gt;Node12 -->
<g id="edge12_Node000011_Node000012" class="edge">
<title>Node11&#45;&gt;Node12</title>
<g id="a_edge12_Node000011_Node000012"><a xlink:title=" ">
<path fill="none" stroke="#63b8ff" d="M952.22,-311.78C962.22,-311.78 972.5,-311.78 982.65,-311.78"/>
<polygon fill="#63b8ff" stroke="#63b8ff" points="982.73,-315.28 992.73,-311.78 982.73,-308.28 982.73,-315.28"/>
</a>
</g>
</g>
<!-- Node14 -->
<g id="Node000014" class="node">
<title>Node14</title>
<g id="a_Node000014"><a xlink:href="classwmtk_1_1multimesh_1_1_multi_mesh_manager.html#a4f99281b52dfca1c9baff535917d58a7" target="_top" xlink:title=" ">
<polygon fill="white" stroke="#666666" points="1153,-278.78 993,-278.78 993,-248.78 1153,-248.78 1153,-278.78"/>
<text text-anchor="start" x="1001" y="-266.78" font-family="Helvetica,sans-Serif" font-size="10.00">wmtk::multimesh::MultiMesh</text>
<text text-anchor="middle" x="1073" y="-255.78" font-family="Helvetica,sans-Serif" font-size="10.00">Manager::is_child</text>
</a>
</g>
</g>
<!-- Node13&#45;&gt;Node14 -->
<g id="edge14_Node000013_Node000014" class="edge">
<title>Node13&#45;&gt;Node14</title>
<g id="a_edge14_Node000013_Node000014"><a xlink:title=" ">
<path fill="none" stroke="#63b8ff" d="M952.22,-263.78C962.22,-263.78 972.5,-263.78 982.65,-263.78"/>
<polygon fill="#63b8ff" stroke="#63b8ff" points="982.73,-267.28 992.73,-263.78 982.73,-260.28 982.73,-267.28"/>
</a>
</g>
</g>
<!-- Node16 -->
<g id="Node000016" class="node">
<title>Node16</title>
<g id="a_Node000016"><a xlink:href="classwmtk_1_1_mesh_writer.html#a9775a31599c23785098b9be77bdbfb62" target="_top" xlink:title=" ">
<polygon fill="white" stroke="#666666" points="1141.5,-227.28 1004.5,-227.28 1004.5,-208.28 1141.5,-208.28 1141.5,-227.28"/>
<text text-anchor="middle" x="1073" y="-215.28" font-family="Helvetica,sans-Serif" font-size="10.00">wmtk::MeshWriter::write</text>
</a>
</g>
</g>
<!-- Node15&#45;&gt;Node16 -->
<g id="edge16_Node000015_Node000016" class="edge">
<title>Node15&#45;&gt;Node16</title>
<g id="a_edge16_Node000015_Node000016"><a xlink:title=" ">
<path fill="none" stroke="#63b8ff" d="M942.6,-216.48C959.21,-216.65 977.06,-216.83 994.02,-217"/>
<polygon fill="#63b8ff" stroke="#63b8ff" points="994.42,-220.51 1004.45,-217.11 994.49,-213.51 994.42,-220.51"/>
</a>
</g>
</g>
<!-- Node17 -->
<g id="Node000017" class="node">
<title>Node17</title>
<g id="a_Node000017"><a xlink:href="classwmtk_1_1_mesh_writer.html#adaf132d57772f8692155189c4c5789b9" target="_top" xlink:title=" ">
<polygon fill="white" stroke="#666666" points="1141.5,-189.78 1004.5,-189.78 1004.5,-159.78 1141.5,-159.78 1141.5,-189.78"/>
<text text-anchor="start" x="1012.5" y="-177.78" font-family="Helvetica,sans-Serif" font-size="10.00">wmtk::MeshWriter::write</text>
<text text-anchor="middle" x="1073" y="-166.78" font-family="Helvetica,sans-Serif" font-size="10.00">_capacities</text>
</a>
</g>
</g>
<!-- Node15&#45;&gt;Node17 -->
<g id="edge17_Node000015_Node000017" class="edge">
<title>Node15&#45;&gt;Node17</title>
<g id="a_edge17_Node000015_Node000017"><a xlink:title=" ">
<path fill="none" stroke="#63b8ff" d="M942.6,-201.44C959.37,-197.99 977.39,-194.28 994.5,-190.75"/>
<polygon fill="#63b8ff" stroke="#63b8ff" points="995.36,-194.15 1004.45,-188.7 993.95,-187.29 995.36,-194.15"/>
</a>
</g>
</g>
<!-- Node19&#45;&gt;Node20 -->
<g id="edge20_Node000019_Node000020" class="edge">
<title>Node19&#45;&gt;Node20</title>
<g id="a_edge20_Node000019_Node000020"><a xlink:title=" ">
<path fill="none" stroke="#63b8ff" d="M921.32,-115.23C933.09,-112.52 945.58,-109.34 957,-105.78 981.22,-98.25 1007.53,-87.9 1028.86,-78.92"/>
<polygon fill="#63b8ff" stroke="#63b8ff" points="1030.46,-82.04 1038.29,-74.91 1027.72,-75.6 1030.46,-82.04"/>
</a>
</g>
</g>
</g>
</svg>
