<?xml version="1.0" encoding="UTF-8" standalone="no"?>
<!DOCTYPE svg PUBLIC "-//W3C//DTD SVG 1.1//EN"
 "http://www.w3.org/Graphics/SVG/1.1/DTD/svg11.dtd">
<!-- Generated by graphviz version 2.43.0 (0)
 -->
<!-- Title: wmtk::simplex::link_condition Pages: 1 -->
<!--zoomable 383 -->

<svg id="main" version="1.1" xmlns="http://www.w3.org/2000/svg" xmlns:xlink="http://www.w3.org/1999/xlink" xml:space="preserve" onload="init(evt)">
<style type="text/css"><![CDATA[
.node, .edge {opacity: 0.7;}
.node.selected, .edge.selected {opacity: 1;}
.edge:hover path { stroke: red; }
.edge:hover polygon { stroke: red; fill: red; }
]]></style>

<defs>
  <circle id="rim" cx="0" cy="0" r="7"/>
  <circle id="rim2" cx="0" cy="0" r="3.5"/>
  <g id="zoomPlus">
    <use xlink:href="#rim" fill="#404040"><set attributeName="fill" to="#808080" begin="zoomplus.mouseover" end="zoomplus.mouseout"/></use>
    <path d="M-4,0h8M0,-4v8" fill="none" stroke="white" stroke-width="1.5" pointer-events="none"/>
  </g>
  <g id="zoomMin">
    <use xlink:href="#rim" fill="#404040"><set attributeName="fill" to="#808080" begin="zoomminus.mouseover" end="zoomminus.mouseout"/></use>
    <path d="M-4,0h8" fill="none" stroke="white" stroke-width="1.5" pointer-events="none"/>
  </g>
  <g id="arrowUp" transform="translate(30 24)">
    <use xlink:href="#rim"/>
    <path pointer-events="none" fill="none" stroke="white" stroke-width="1.5" d="M0,-3.0v7 M-2.5,-0.5L0,-3.0L2.5,-0.5"/>
  </g>
  <g id="arrowRight" transform="rotate(90) translate(36 -43)">
    <use xlink:href="#rim"/>
    <path pointer-events="none" fill="none" stroke="white" stroke-width="1.5" d="M0,-3.0v7 M-2.5,-0.5L0,-3.0L2.5,-0.5"/>
  </g>
  <g id="arrowDown" transform="rotate(180) translate(-30 -48)">
    <use xlink:href="#rim"/>
    <path pointer-events="none" fill="none" stroke="white" stroke-width="1.5" d="M0,-3.0v7 M-2.5,-0.5L0,-3.0L2.5,-0.5"/>
  </g>
  <g id="arrowLeft" transform="rotate(270) translate(-36 17)">
    <use xlink:href="#rim"/>
    <path pointer-events="none" fill="none" stroke="white" stroke-width="1.5" d="M0,-3.0v7 M-2.5,-0.5L0,-3.0L2.5,-0.5"/>
  </g>
  <g id="resetDef">
    <use xlink:href="#rim2" fill="#404040"><set attributeName="fill" to="#808080" begin="reset.mouseover" end="reset.mouseout"/></use>
  </g>
</defs>
<script type="application/ecmascript">
var viewWidth = 1188;
var viewHeight = 383;
var sectionId = 'dynsection-33';
</script>
<script type="application/ecmascript" xlink:href="svg.min.js"/>
<svg id="graph" class="graph">
<g id="viewport">
<title>wmtk::simplex::link_condition</title>
<!-- Node1 -->
<g id="Node000001" class="node">
<title>Node1</title>
<g id="a_Node000001"><a xlink:title=" ">
<polygon fill="#999999" stroke="#666666" points="113,-213 0,-213 0,-183 113,-183 113,-213"/>
<text text-anchor="start" x="8" y="-201" font-family="Helvetica,sans-Serif" font-size="10.00">wmtk::simplex::link</text>
<text text-anchor="middle" x="56.5" y="-190" font-family="Helvetica,sans-Serif" font-size="10.00">_condition</text>
</a>
</g>
</g>
<!-- Node2 -->
<g id="Node000002" class="node">
<title>Node2</title>
<g id="a_Node000002"><a xlink:href="namespacewmtk_1_1utils_1_1metaprogramming.html#a960863b4ff77683286c7b21062aeab8d" target="_top" xlink:title=" ">
<polygon fill="white" stroke="#666666" points="318,-237 149,-237 149,-207 318,-207 318,-237"/>
<text text-anchor="start" x="157" y="-225" font-family="Helvetica,sans-Serif" font-size="10.00">wmtk::utils::metaprogramming</text>
<text text-anchor="middle" x="233.5" y="-214" font-family="Helvetica,sans-Serif" font-size="10.00">::as_const_mesh_variant</text>
</a>
</g>
</g>
<!-- Node1&#45;&gt;Node2 -->
<g id="edge1_Node000001_Node000002" class="edge">
<title>Node1&#45;&gt;Node2</title>
<g id="a_edge1_Node000001_Node000002"><a xlink:title=" ">
<path fill="none" stroke="#63b8ff" d="M113.35,-205.66C121.48,-206.77 130.02,-207.95 138.65,-209.13"/>
<polygon fill="#63b8ff" stroke="#63b8ff" points="138.41,-212.63 148.8,-210.52 139.36,-205.69 138.41,-212.63"/>
</a>
</g>
</g>
<!-- Node3 -->
<g id="Node000003" class="node">
<title>Node3</title>
<g id="a_Node000003"><a xlink:href="namespacewmtk_1_1simplex.html#a0ca1602c328b51a103411fcac3d70ebe" target="_top" xlink:title="Check if the edge to collapse satisfying the link condition.">
<polygon fill="white" stroke="#666666" points="290,-189 177,-189 177,-159 290,-159 290,-189"/>
<text text-anchor="start" x="185" y="-177" font-family="Helvetica,sans-Serif" font-size="10.00">wmtk::simplex::link</text>
<text text-anchor="middle" x="233.5" y="-166" font-family="Helvetica,sans-Serif" font-size="10.00">_condition</text>
</a>
</g>
</g>
<!-- Node1&#45;&gt;Node3 -->
<g id="edge2_Node000001_Node000003" class="edge">
<title>Node1&#45;&gt;Node3</title>
<g id="a_edge2_Node000001_Node000003"><a xlink:title=" ">
<path fill="none" stroke="#63b8ff" d="M113.35,-190.34C130.33,-188.01 149.14,-185.43 166.7,-183.02"/>
<polygon fill="#63b8ff" stroke="#63b8ff" points="167.45,-186.45 176.88,-181.63 166.5,-179.52 167.45,-186.45"/>
</a>
</g>
</g>
<!-- Node4 -->
<g id="Node000004" class="node">
<title>Node4</title>
<g id="a_Node000004"><a xlink:href="classwmtk_1_1simplex_1_1utils_1_1_simplex_comparisons.html#a855a7009bb50500e9b336a05d424b34d" target="_top" xlink:title=" ">
<polygon fill="white" stroke="#666666" points="486,-342.5 360,-342.5 360,-301.5 486,-301.5 486,-342.5"/>
<text text-anchor="start" x="368" y="-330.5" font-family="Helvetica,sans-Serif" font-size="10.00">wmtk::simplex::utils</text>
<text text-anchor="start" x="368" y="-319.5" font-family="Helvetica,sans-Serif" font-size="10.00">::SimplexComparisons</text>
<text text-anchor="middle" x="423" y="-308.5" font-family="Helvetica,sans-Serif" font-size="10.00">::equal</text>
</a>
</g>
</g>
<!-- Node3&#45;&gt;Node4 -->
<g id="edge3_Node000003_Node000004" class="edge">
<title>Node3&#45;&gt;Node4</title>
<g id="a_edge3_Node000003_Node000004"><a xlink:title=" ">
<path fill="none" stroke="#63b8ff" d="M290.42,-185.07C300.06,-188.35 309.65,-192.57 318,-198 355.41,-222.32 386.43,-264.19 404.59,-292.47"/>
<polygon fill="#63b8ff" stroke="#63b8ff" points="401.75,-294.52 410.03,-301.14 407.68,-290.8 401.75,-294.52"/>
</a>
</g>
</g>
<!-- Node8 -->
<g id="Node000008" class="node">
<title>Node8</title>
<g id="a_Node000008"><a xlink:href="classwmtk_1_1_edge_mesh.html#a534952cf2729f1509a380e3e9afb65b7" target="_top" xlink:title=" ">
<polygon fill="white" stroke="#666666" points="656.5,-30 541.5,-30 541.5,0 656.5,0 656.5,-30"/>
<text text-anchor="start" x="549.5" y="-18" font-family="Helvetica,sans-Serif" font-size="10.00">wmtk::EdgeMesh::is</text>
<text text-anchor="middle" x="599" y="-7" font-family="Helvetica,sans-Serif" font-size="10.00">_boundary_vertex</text>
</a>
</g>
</g>
<!-- Node3&#45;&gt;Node8 -->
<g id="edge7_Node000003_Node000008" class="edge">
<title>Node3&#45;&gt;Node8</title>
<g id="a_edge7_Node000003_Node000008"><a xlink:title=" ">
<path fill="none" stroke="#63b8ff" d="M264.48,-158.99C317.11,-132.91 429.85,-78.28 528,-39 532.65,-37.14 537.51,-35.29 542.41,-33.49"/>
<polygon fill="#63b8ff" stroke="#63b8ff" points="543.6,-36.78 551.82,-30.09 541.22,-30.19 543.6,-36.78"/>
</a>
</g>
</g>
<!-- Node14 -->
<g id="Node000014" class="node">
<title>Node14</title>
<g id="a_Node000014"><a xlink:href="classwmtk_1_1_edge_mesh.html#a46725851b572b51a356450adc30c14ed" target="_top" xlink:title="switch the orientation of the Tuple of the given dimension">
<polygon fill="white" stroke="#666666" points="492,-189 354,-189 354,-159 492,-159 492,-189"/>
<text text-anchor="start" x="362" y="-177" font-family="Helvetica,sans-Serif" font-size="10.00">wmtk::EdgeMesh::switch</text>
<text text-anchor="middle" x="423" y="-166" font-family="Helvetica,sans-Serif" font-size="10.00">_tuple</text>
</a>
</g>
</g>
<!-- Node3&#45;&gt;Node14 -->
<g id="edge14_Node000003_Node000014" class="edge">
<title>Node3&#45;&gt;Node14</title>
<g id="a_edge14_Node000003_Node000014"><a xlink:title=" ">
<path fill="none" stroke="#63b8ff" d="M290.25,-174C307.02,-174 325.75,-174 343.69,-174"/>
<polygon fill="#63b8ff" stroke="#63b8ff" points="343.86,-177.5 353.86,-174 343.86,-170.5 343.86,-177.5"/>
</a>
</g>
</g>
<!-- Node5 -->
<g id="Node000005" class="node">
<title>Node5</title>
<g id="a_Node000005"><a xlink:href="classwmtk_1_1_mesh.html#a58243712dc3e0d258ad645e7b08870db" target="_top" xlink:title="return the global id of the Tuple of the given dimension">
<polygon fill="white" stroke="#666666" points="645,-374.5 553,-374.5 553,-355.5 645,-355.5 645,-374.5"/>
<text text-anchor="middle" x="599" y="-362.5" font-family="Helvetica,sans-Serif" font-size="10.00">wmtk::Mesh::id</text>
</a>
</g>
</g>
<!-- Node4&#45;&gt;Node5 -->
<g id="edge4_Node000004_Node000005" class="edge">
<title>Node4&#45;&gt;Node5</title>
<g id="a_edge4_Node000004_Node000005"><a xlink:title=" ">
<path fill="none" stroke="#63b8ff" d="M486.33,-337.4C507.09,-342.53 529.89,-348.17 549.45,-353"/>
<polygon fill="#63b8ff" stroke="#63b8ff" points="548.8,-356.45 559.35,-355.45 550.48,-349.65 548.8,-356.45"/>
</a>
</g>
</g>
<!-- Node7 -->
<g id="Node000007" class="node">
<title>Node7</title>
<g id="a_Node000007"><a xlink:href="classwmtk_1_1simplex_1_1_simplex.html#ad2cc0340a0772b7d6f03ba7a781d1163" target="_top" xlink:title=" ">
<polygon fill="white" stroke="#666666" points="666.5,-337 531.5,-337 531.5,-307 666.5,-307 666.5,-337"/>
<text text-anchor="start" x="539.5" y="-325" font-family="Helvetica,sans-Serif" font-size="10.00">wmtk::simplex::Simplex</text>
<text text-anchor="middle" x="599" y="-314" font-family="Helvetica,sans-Serif" font-size="10.00">::primitive_type</text>
</a>
</g>
</g>
<!-- Node4&#45;&gt;Node7 -->
<g id="edge6_Node000004_Node000007" class="edge">
<title>Node4&#45;&gt;Node7</title>
<g id="a_edge6_Node000004_Node000007"><a xlink:title=" ">
<path fill="none" stroke="#63b8ff" d="M486.33,-322C497.64,-322 509.56,-322 521.23,-322"/>
<polygon fill="#63b8ff" stroke="#63b8ff" points="521.4,-325.5 531.4,-322 521.4,-318.5 521.4,-325.5"/>
</a>
</g>
</g>
<!-- Node6 -->
<g id="Node000006" class="node">
<title>Node6</title>
<g id="a_Node000006"><a xlink:href="classwmtk_1_1_mesh.html#a6f6c3b9a1d738d05ec8d84cabfa5e4b4" target="_top" xlink:title="Internal utility to allow id to be virtual with a non&#45;virtual overload in derived &#45;Mesh classes.">
<polygon fill="white" stroke="#666666" points="841,-374.5 713,-374.5 713,-355.5 841,-355.5 841,-374.5"/>
<text text-anchor="middle" x="777" y="-362.5" font-family="Helvetica,sans-Serif" font-size="10.00">wmtk::Mesh::id_virtual</text>
</a>
</g>
</g>
<!-- Node5&#45;&gt;Node6 -->
<g id="edge5_Node000005_Node000006" class="edge">
<title>Node5&#45;&gt;Node6</title>
<g id="a_edge5_Node000005_Node000006"><a xlink:title=" ">
<path fill="none" stroke="#63b8ff" d="M645.32,-365C662.84,-365 683.34,-365 702.84,-365"/>
<polygon fill="#63b8ff" stroke="#63b8ff" points="702.92,-368.5 712.92,-365 702.92,-361.5 702.92,-368.5"/>
</a>
</g>
</g>
<!-- Node9 -->
<g id="Node000009" class="node">
<title>Node9</title>
<g id="a_Node000009"><a xlink:href="classwmtk_1_1attribute_1_1_accessor.html#a4b89ff4381fe73d4827b663203a964fc" target="_top" xlink:title=" ">
<polygon fill="white" stroke="#666666" points="848,-208 706,-208 706,-178 848,-178 848,-208"/>
<text text-anchor="start" x="714" y="-196" font-family="Helvetica,sans-Serif" font-size="10.00">wmtk::attribute::Accessor</text>
<text text-anchor="middle" x="777" y="-185" font-family="Helvetica,sans-Serif" font-size="10.00">::const_vector_attribute</text>
</a>
</g>
</g>
<!-- Node8&#45;&gt;Node9 -->
<g id="edge8_Node000008_Node000009" class="edge">
<title>Node8&#45;&gt;Node9</title>
<g id="a_edge8_Node000008_Node000009"><a xlink:title=" ">
<path fill="none" stroke="#63b8ff" d="M656.59,-29.12C661.5,-31.85 666.08,-35.11 670,-39 704.15,-72.84 677.46,-102.31 706,-141 714.97,-153.16 727.58,-163.74 739.63,-172.12"/>
<polygon fill="#63b8ff" stroke="#63b8ff" points="737.98,-175.23 748.25,-177.83 741.85,-169.39 737.98,-175.23"/>
</a>
</g>
</g>
<!-- Node10 -->
<g id="Node000010" class="node">
<title>Node10</title>
<g id="a_Node000010"><a xlink:href="classwmtk_1_1_edge_mesh.html#acd802c89cf0cba9c312a8e7ecfa11c80" target="_top" xlink:title="check validity of tuple including its hash">
<polygon fill="white" stroke="#666666" points="834.5,-132 719.5,-132 719.5,-102 834.5,-102 834.5,-132"/>
<text text-anchor="start" x="727.5" y="-120" font-family="Helvetica,sans-Serif" font-size="10.00">wmtk::EdgeMesh::is</text>
<text text-anchor="middle" x="777" y="-109" font-family="Helvetica,sans-Serif" font-size="10.00">_valid</text>
</a>
</g>
</g>
<!-- Node8&#45;&gt;Node10 -->
<g id="edge9_Node000008_Node000010" class="edge">
<title>Node8&#45;&gt;Node10</title>
<g id="a_edge9_Node000008_Node000010"><a xlink:title=" ">
<path fill="none" stroke="#63b8ff" d="M650.12,-30.09C656.94,-32.75 663.74,-35.72 670,-39 699.89,-54.65 730.56,-78.19 751.17,-95.32"/>
<polygon fill="#63b8ff" stroke="#63b8ff" points="749.19,-98.23 759.09,-102 753.7,-92.88 749.19,-98.23"/>
</a>
</g>
</g>
<!-- Node11 -->
<g id="Node000011" class="node">
<title>Node11</title>
<g id="a_Node000011"><a xlink:href="classwmtk_1_1_mesh.html#a8cc8686f0688613806f43720b6db49e7" target="_top" xlink:title="check validity of tuple including its hash">
<polygon fill="white" stroke="#666666" points="1004,-126.5 884,-126.5 884,-107.5 1004,-107.5 1004,-126.5"/>
<text text-anchor="middle" x="944" y="-114.5" font-family="Helvetica,sans-Serif" font-size="10.00">wmtk::Mesh::is_valid</text>
</a>
</g>
</g>
<!-- Node10&#45;&gt;Node11 -->
<g id="edge10_Node000010_Node000011" class="edge">
<title>Node10&#45;&gt;Node11</title>
<g id="a_edge10_Node000010_Node000011"><a xlink:title=" ">
<path fill="none" stroke="#63b8ff" d="M834.78,-117C847.29,-117 860.67,-117 873.61,-117"/>
<polygon fill="#63b8ff" stroke="#63b8ff" points="873.86,-120.5 883.86,-117 873.86,-113.5 873.86,-120.5"/>
</a>
</g>
</g>
<!-- Node12 -->
<g id="Node000012" class="node">
<title>Node12</title>
<g id="a_Node000012"><a xlink:href="classwmtk_1_1_tuple.html#a0023f575be92cd5ceeeaaaa3762ea06d" target="_top" xlink:title="Checks if a tuple is &quot;null&quot;. This merely implies the global index is &#45;1.">
<polygon fill="white" stroke="#666666" points="1166.5,-154.5 1053.5,-154.5 1053.5,-135.5 1166.5,-135.5 1166.5,-154.5"/>
<text text-anchor="middle" x="1110" y="-142.5" font-family="Helvetica,sans-Serif" font-size="10.00">wmtk::Tuple::is_null</text>
</a>
</g>
</g>
<!-- Node11&#45;&gt;Node12 -->
<g id="edge11_Node000011_Node000012" class="edge">
<title>Node11&#45;&gt;Node12</title>
<g id="a_edge11_Node000011_Node000012"><a xlink:title=" ">
<path fill="none" stroke="#63b8ff" d="M1000.98,-126.56C1014.57,-128.88 1029.22,-131.38 1043.22,-133.77"/>
<polygon fill="#63b8ff" stroke="#63b8ff" points="1042.83,-137.25 1053.27,-135.49 1044,-130.35 1042.83,-137.25"/>
</a>
</g>
</g>
<!-- Node13 -->
<g id="Node000013" class="node">
<title>Node13</title>
<g id="a_Node000013"><a xlink:href="classwmtk_1_1_mesh.html#ade176d345902d97af8c5da04aa3a095b" target="_top" xlink:title=" ">
<polygon fill="white" stroke="#666666" points="1180,-99.5 1040,-99.5 1040,-80.5 1180,-80.5 1180,-99.5"/>
<text text-anchor="middle" x="1110" y="-87.5" font-family="Helvetica,sans-Serif" font-size="10.00">wmtk::Mesh::is_removed</text>
</a>
</g>
</g>
<!-- Node11&#45;&gt;Node13 -->
<g id="edge12_Node000011_Node000013" class="edge">
<title>Node11&#45;&gt;Node13</title>
<g id="a_edge12_Node000011_Node000013"><a xlink:title=" ">
<path fill="none" stroke="#63b8ff" d="M1002.82,-107.48C1015.19,-105.44 1028.37,-103.27 1041.08,-101.18"/>
<polygon fill="#63b8ff" stroke="#63b8ff" points="1041.85,-104.6 1051.15,-99.52 1040.71,-97.7 1041.85,-104.6"/>
</a>
</g>
</g>
<!-- Node13&#45;&gt;Node13 -->
<g id="edge13_Node000013_Node000013" class="edge">
<title>Node13&#45;&gt;Node13</title>
<g id="a_edge13_Node000013_Node000013"><a xlink:title=" ">
<path fill="none" stroke="#63b8ff" d="M1084.41,-99.58C1071.97,-108.23 1080.5,-117.5 1110,-117.5 1129.36,-117.5 1139.69,-113.51 1140.99,-108.32"/>
<polygon fill="#63b8ff" stroke="#63b8ff" points="1143.82,-106.25 1135.59,-99.58 1137.87,-109.93 1143.82,-106.25"/>
</a>
</g>
</g>
<!-- Node14&#45;&gt;Node9 -->
<g id="edge16_Node000014_Node000009" class="edge">
<title>Node14&#45;&gt;Node9</title>
<g id="a_edge16_Node000014_Node000009"><a xlink:title=" ">
<path fill="none" stroke="#63b8ff" d="M492.29,-177.69C550.52,-180.83 634.32,-185.35 695.75,-188.67"/>
<polygon fill="#63b8ff" stroke="#63b8ff" points="695.62,-192.17 705.8,-189.21 696,-185.18 695.62,-192.17"/>
</a>
</g>
</g>
<!-- Node14&#45;&gt;Node10 -->
<g id="edge23_Node000014_Node000010" class="edge">
<title>Node14&#45;&gt;Node10</title>
<g id="a_edge23_Node000014_Node000010"><a xlink:title=" ">
<path fill="none" stroke="#63b8ff" d="M492.17,-163.4C541.56,-155.67 609.94,-144.86 670,-135 682.77,-132.9 696.4,-130.62 709.48,-128.41"/>
<polygon fill="#63b8ff" stroke="#63b8ff" points="710.08,-131.86 719.36,-126.74 708.91,-124.96 710.08,-131.86"/>
</a>
</g>
</g>
<!-- Node15 -->
<g id="Node000015" class="node">
<title>Node15</title>
<g id="a_Node000015"><a xlink:href="classwmtk_1_1attribute_1_1_caching_accessor.html#ab850fe07669c7bc92ca6cf6e86c60ee0" target="_top" xlink:title=" ">
<polygon fill="white" stroke="#666666" points="667.5,-89.5 530.5,-89.5 530.5,-48.5 667.5,-48.5 667.5,-89.5"/>
<text text-anchor="start" x="538.5" y="-77.5" font-family="Helvetica,sans-Serif" font-size="10.00">wmtk::attribute::Caching</text>
<text text-anchor="start" x="538.5" y="-66.5" font-family="Helvetica,sans-Serif" font-size="10.00">Accessor::const_vector</text>
<text text-anchor="middle" x="599" y="-55.5" font-family="Helvetica,sans-Serif" font-size="10.00">_attribute</text>
</a>
</g>
</g>
<!-- Node14&#45;&gt;Node15 -->
<g id="edge15_Node000014_Node000015" class="edge">
<title>Node14&#45;&gt;Node15</title>
<g id="a_edge15_Node000014_Node000015"><a xlink:title=" ">
<path fill="none" stroke="#63b8ff" d="M441.89,-158.87C461.93,-142.42 495.83,-116.07 528,-98 530.39,-96.66 532.86,-95.34 535.37,-94.05"/>
<polygon fill="#63b8ff" stroke="#63b8ff" points="537.16,-97.07 544.62,-89.54 534.1,-90.78 537.16,-97.07"/>
</a>
</g>
</g>
<!-- Node16 -->
<g id="Node000016" class="node">
<title>Node16</title>
<g id="a_Node000016"><a xlink:href="classwmtk_1_1_edge_mesh.html#a34530ca80c07ae67ffe601c2b8f22e3e" target="_top" xlink:title=" ">
<polygon fill="white" stroke="#666666" points="657,-240.5 541,-240.5 541,-221.5 657,-221.5 657,-240.5"/>
<text text-anchor="middle" x="599" y="-228.5" font-family="Helvetica,sans-Serif" font-size="10.00">wmtk::EdgeMesh::id</text>
</a>
</g>
</g>
<!-- Node14&#45;&gt;Node16 -->
<g id="edge17_Node000014_Node000016" class="edge">
<title>Node14&#45;&gt;Node16</title>
<g id="a_edge17_Node000014_Node000016"><a xlink:title=" ">
<path fill="none" stroke="#63b8ff" d="M470.17,-189.13C497.94,-198.22 532.88,-209.67 559.21,-218.29"/>
<polygon fill="#63b8ff" stroke="#63b8ff" points="558.25,-221.66 568.84,-221.45 560.43,-215.01 558.25,-221.66"/>
</a>
</g>
</g>
<!-- Node17 -->
<g id="Node000017" class="node">
<title>Node17</title>
<g id="a_Node000017"><a xlink:href="classwmtk_1_1attribute_1_1_accessor.html#a2d587e12c47a6d839ab80e9198cf75b5" target="_top" xlink:title=" ">
<polygon fill="white" stroke="#666666" points="670,-289 528,-289 528,-259 670,-259 670,-289"/>
<text text-anchor="start" x="536" y="-277" font-family="Helvetica,sans-Serif" font-size="10.00">wmtk::attribute::Accessor</text>
<text text-anchor="middle" x="599" y="-266" font-family="Helvetica,sans-Serif" font-size="10.00">::index_access</text>
</a>
</g>
</g>
<!-- Node14&#45;&gt;Node17 -->
<g id="edge19_Node000014_Node000017" class="edge">
<title>Node14&#45;&gt;Node17</title>
<g id="a_edge19_Node000014_Node000017"><a xlink:title=" ">
<path fill="none" stroke="#63b8ff" d="M441.32,-189.21C461.13,-205.98 495.08,-232.84 528,-250 531.33,-251.74 534.81,-253.39 538.36,-254.95"/>
<polygon fill="#63b8ff" stroke="#63b8ff" points="537.31,-258.31 547.89,-258.89 539.99,-251.84 537.31,-258.31"/>
</a>
</g>
</g>
<!-- Node19 -->
<g id="Node000019" class="node">
<title>Node19</title>
<g id="a_Node000019"><a xlink:href="classwmtk_1_1_edge_mesh.html#a83db0c93833dacdfb169807d8ba4b6ca" target="_top" xlink:title="TODO this needs dimension?">
<polygon fill="white" stroke="#666666" points="668.5,-126.5 529.5,-126.5 529.5,-107.5 668.5,-107.5 668.5,-126.5"/>
<text text-anchor="middle" x="599" y="-114.5" font-family="Helvetica,sans-Serif" font-size="10.00">wmtk::EdgeMesh::is_ccw</text>
</a>
</g>
</g>
<!-- Node14&#45;&gt;Node19 -->
<g id="edge21_Node000014_Node000019" class="edge">
<title>Node14&#45;&gt;Node19</title>
<g id="a_edge21_Node000014_Node000019"><a xlink:title=" ">
<path fill="none" stroke="#63b8ff" d="M470.17,-158.87C497.94,-149.78 532.88,-138.33 559.21,-129.71"/>
<polygon fill="#63b8ff" stroke="#63b8ff" points="560.43,-132.99 568.84,-126.55 558.25,-126.34 560.43,-132.99"/>
</a>
</g>
</g>
<!-- Node16&#45;&gt;Node9 -->
<g id="edge18_Node000016_Node000009" class="edge">
<title>Node16&#45;&gt;Node9</title>
<g id="a_edge18_Node000016_Node000009"><a xlink:title=" ">
<path fill="none" stroke="#63b8ff" d="M644.41,-221.41C660.22,-218 678.54,-214.04 696.4,-210.19"/>
<polygon fill="#63b8ff" stroke="#63b8ff" points="697.21,-213.59 706.25,-208.06 695.74,-206.75 697.21,-213.59"/>
</a>
</g>
</g>
<!-- Node18 -->
<g id="Node000018" class="node">
<title>Node18</title>
<g id="a_Node000018"><a xlink:href="classwmtk_1_1attribute_1_1_accessor.html#afd97a48ec5d1db975a030428df81f617" target="_top" xlink:title=" ">
<polygon fill="white" stroke="#666666" points="848,-289 706,-289 706,-259 848,-259 848,-289"/>
<text text-anchor="start" x="714" y="-277" font-family="Helvetica,sans-Serif" font-size="10.00">wmtk::attribute::Accessor</text>
<text text-anchor="middle" x="777" y="-266" font-family="Helvetica,sans-Serif" font-size="10.00">::caching_base_type</text>
</a>
</g>
</g>
<!-- Node17&#45;&gt;Node18 -->
<g id="edge20_Node000017_Node000018" class="edge">
<title>Node17&#45;&gt;Node18</title>
<g id="a_edge20_Node000017_Node000018"><a xlink:title=" ">
<path fill="none" stroke="#63b8ff" d="M670.07,-274C678.54,-274 687.25,-274 695.85,-274"/>
<polygon fill="#63b8ff" stroke="#63b8ff" points="695.89,-277.5 705.89,-274 695.89,-270.5 695.89,-277.5"/>
</a>
</g>
</g>
<!-- Node19&#45;&gt;Node10 -->
<g id="edge22_Node000019_Node000010" class="edge">
<title>Node19&#45;&gt;Node10</title>
<g id="a_edge22_Node000019_Node000010"><a xlink:title=" ">
<path fill="none" stroke="#63b8ff" d="M668.55,-117C681.93,-117 695.95,-117 709.27,-117"/>
<polygon fill="#63b8ff" stroke="#63b8ff" points="709.3,-120.5 719.3,-117 709.3,-113.5 709.3,-120.5"/>
</a>
</g>
</g>
</g>
</svg>

<g id="navigator" transform="translate(0 0)" fill="#404254">
  <rect fill="#f2f5e9" fill-opacity="0.5" stroke="#606060" stroke-width=".5" x="0" y="0" width="60" height="60"/>
  <use id="zoomplus" xlink:href="#zoomPlus" x="17" y="9" onmousedown="handleZoom(evt,'in')"/>
  <use id="zoomminus" xlink:href="#zoomMin" x="42" y="9" onmousedown="handleZoom(evt,'out')"/>
  <use id="reset" xlink:href="#resetDef" x="30" y="36" onmousedown="handleReset()"/>
   <use id="arrowup" xlink:href="#arrowUp" x="0" y="0" onmousedown="handlePan(0,-1)"/>
  <use id="arrowright" xlink:href="#arrowRight" x="0" y="0" onmousedown="handlePan(1,0)"/>
  <use id="arrowdown" xlink:href="#arrowDown" x="0" y="0" onmousedown="handlePan(0,1)"/>
  <use id="arrowleft" xlink:href="#arrowLeft" x="0" y="0" onmousedown="handlePan(-1,0)"/>
</g>
<svg viewBox="0 0 15 15" width="100%" height="30px" preserveAspectRatio="xMaxYMin meet">
 <g id="arrow_out" transform="scale(0.3 0.3)">
  <a xlink:href="namespacewmtk_1_1simplex_a3307260114e435efa2ea5848902fa5cb_cgraph_org.svg" target="_base">
   <rect id="button" ry="5" rx="5" y="6" x="6" height="38" width="38"
        fill="#f2f5e9" fill-opacity="0.5" stroke="#606060" stroke-width="1.0"/>
   <path id="arrow"
     d="M 11.500037,31.436501 C 11.940474,20.09759 22.043105,11.32322 32.158766,21.979434 L 37.068811,17.246167 C 37.068811,17.246167 37.088388,32 37.088388,32 L 22.160133,31.978069 C 22.160133,31.978069 26.997745,27.140456 26.997745,27.140456 C 18.528582,18.264221 13.291696,25.230495 11.500037,31.436501 z"
     style="fill:#404040;"/>
  </a>
 </g>
</svg>

<style type='text/css'>
<![CDATA[
[data-mouse-over-selected='false'] { opacity: 0.7; }
[data-mouse-over-selected='true']  { opacity: 1.0; }
]]>
</style>
<script type="application/ecmascript"><![CDATA[
document.addEventListener('DOMContentLoaded', (event) => {
  highlightEdges();
  highlightAdjacentNodes();
});
]]></script>
</svg>
