<?xml version="1.0" encoding="UTF-8" standalone="no"?>
<!DOCTYPE svg PUBLIC "-//W3C//DTD SVG 1.1//EN"
 "http://www.w3.org/Graphics/SVG/1.1/DTD/svg11.dtd">
<!-- Generated by graphviz version 2.43.0 (0)
 -->
<!-- Title: wmtk::simplex::link_single_dimension_slow Pages: 1 -->
<svg width="1301pt" height="589pt"
 viewBox="0.00 0.00 1301.00 588.50" xmlns="http://www.w3.org/2000/svg" xmlns:xlink="http://www.w3.org/1999/xlink">
<g id="graph0" class="graph" transform="scale(1 1) rotate(0) translate(4 584.5)">
<title>wmtk::simplex::link_single_dimension_slow</title>
<!-- Node1 -->
<g id="Node000001" class="node">
<title>Node1</title>
<g id="a_Node000001"><a xlink:title=" ">
<polygon fill="#999999" stroke="#666666" points="135,-132 0,-132 0,-102 135,-102 135,-132"/>
<text text-anchor="start" x="8" y="-120" font-family="Helvetica,sans-Serif" font-size="10.00">wmtk::simplex::link</text>
<text text-anchor="middle" x="67.5" y="-109" font-family="Helvetica,sans-Serif" font-size="10.00">_single_dimension_slow</text>
</a>
</g>
</g>
<!-- Node2 -->
<g id="Node000002" class="node">
<title>Node2</title>
<g id="a_Node000002"><a xlink:href="classwmtk_1_1simplex_1_1_simplex_collection.html#a1e7079b3b75f70dd28c524556cab76cf" target="_top" xlink:title="Add simplex to the collection.">
<polygon fill="white" stroke="#666666" points="1039,-297.5 831,-297.5 831,-278.5 1039,-278.5 1039,-297.5"/>
<text text-anchor="middle" x="935" y="-285.5" font-family="Helvetica,sans-Serif" font-size="10.00">wmtk::simplex::SimplexCollection::add</text>
</a>
</g>
</g>
<!-- Node1&#45;&gt;Node2 -->
<g id="edge1_Node000001_Node000002" class="edge">
<title>Node1&#45;&gt;Node2</title>
<g id="a_edge1_Node000001_Node000002"><a xlink:title=" ">
<path fill="none" stroke="#63b8ff" d="M105.78,-101.9C124.93,-94.95 148.84,-87.48 171,-84 191.33,-80.81 564.17,-82.89 575,-85 678.36,-105.15 704.45,-119.23 795,-173 843.6,-201.86 892.76,-247.18 917.53,-271.41"/>
<polygon fill="#63b8ff" stroke="#63b8ff" points="915.12,-273.95 924.69,-278.49 920.04,-268.97 915.12,-273.95"/>
</a>
</g>
</g>
<!-- Node3 -->
<g id="Node000003" class="node">
<title>Node3</title>
<g id="a_Node000003"><a xlink:href="namespacewmtk_1_1simplex.html#a2ed8f83fbda4dc05306bfe8d2ce7ab94" target="_top" xlink:title="The closed star contains the input simplex, all its top dimension cofaces, and their faces.">
<polygon fill="white" stroke="#666666" points="338.5,-330.5 187.5,-330.5 187.5,-311.5 338.5,-311.5 338.5,-330.5"/>
<text text-anchor="middle" x="263" y="-318.5" font-family="Helvetica,sans-Serif" font-size="10.00">wmtk::simplex::closed_star</text>
</a>
</g>
</g>
<!-- Node1&#45;&gt;Node3 -->
<g id="edge2_Node000001_Node000003" class="edge">
<title>Node1&#45;&gt;Node3</title>
<g id="a_edge2_Node000001_Node000003"><a xlink:title=" ">
<path fill="none" stroke="#63b8ff" d="M82.73,-132C117.77,-168.94 208.07,-264.14 245.44,-303.54"/>
<polygon fill="#63b8ff" stroke="#63b8ff" points="243.14,-306.21 252.57,-311.05 248.22,-301.39 243.14,-306.21"/>
</a>
</g>
</g>
<!-- Node4 -->
<g id="Node000004" class="node">
<title>Node4</title>
<g id="a_Node000004"><a xlink:href="namespacewmtk_1_1simplex.html#aee89641a0de7b5ddf8d15bf376f9d33b" target="_top" xlink:title="Returns all faces of a simplex.">
<polygon fill="white" stroke="#666666" points="544,-562.5 422,-562.5 422,-543.5 544,-543.5 544,-562.5"/>
<text text-anchor="middle" x="483" y="-550.5" font-family="Helvetica,sans-Serif" font-size="10.00">wmtk::simplex::faces</text>
</a>
</g>
</g>
<!-- Node1&#45;&gt;Node4 -->
<g id="edge26_Node000001_Node000004" class="edge">
<title>Node1&#45;&gt;Node4</title>
<g id="a_edge26_Node000001_Node000004"><a xlink:title=" ">
<path fill="none" stroke="#63b8ff" d="M72.99,-132.27C84.66,-170.19 118.68,-270.59 171,-340 248.59,-442.93 276.89,-469.04 391,-529 399.9,-533.67 409.77,-537.49 419.64,-540.58"/>
<polygon fill="#63b8ff" stroke="#63b8ff" points="418.89,-544.01 429.47,-543.45 420.84,-537.29 418.89,-544.01"/>
</a>
</g>
</g>
<!-- Node12 -->
<g id="Node000012" class="node">
<title>Node12</title>
<g id="a_Node000012"><a xlink:href="classwmtk_1_1simplex_1_1_simplex_collection.html#a3c5684abe23553010bb7f87840e9518d" target="_top" xlink:title="Return const reference to the simplex vector.">
<polygon fill="white" stroke="#666666" points="575,-154 391,-154 391,-124 575,-124 575,-154"/>
<text text-anchor="start" x="399" y="-142" font-family="Helvetica,sans-Serif" font-size="10.00">wmtk::simplex::SimplexCollection</text>
<text text-anchor="middle" x="483" y="-131" font-family="Helvetica,sans-Serif" font-size="10.00">::simplex_vector</text>
</a>
</g>
</g>
<!-- Node1&#45;&gt;Node12 -->
<g id="edge28_Node000001_Node000012" class="edge">
<title>Node1&#45;&gt;Node12</title>
<g id="a_edge28_Node000001_Node000012"><a xlink:title=" ">
<path fill="none" stroke="#63b8ff" d="M135.4,-120.56C201.79,-124.09 304.4,-129.55 380.77,-133.61"/>
<polygon fill="#63b8ff" stroke="#63b8ff" points="380.72,-137.12 390.89,-134.15 381.09,-130.13 380.72,-137.12"/>
</a>
</g>
</g>
<!-- Node13 -->
<g id="Node000013" class="node">
<title>Node13</title>
<g id="a_Node000013"><a xlink:href="classwmtk_1_1simplex_1_1_simplex_collection.html#ab318c99d54327383ff1b985bed043f3a" target="_top" xlink:title="Sort simplex vector and remove duplicates.">
<polygon fill="white" stroke="#666666" points="795,-212 611,-212 611,-182 795,-182 795,-212"/>
<text text-anchor="start" x="619" y="-200" font-family="Helvetica,sans-Serif" font-size="10.00">wmtk::simplex::SimplexCollection</text>
<text text-anchor="middle" x="703" y="-189" font-family="Helvetica,sans-Serif" font-size="10.00">::sort_and_clean</text>
</a>
</g>
</g>
<!-- Node1&#45;&gt;Node13 -->
<g id="edge29_Node000001_Node000013" class="edge">
<title>Node1&#45;&gt;Node13</title>
<g id="a_edge29_Node000001_Node000013"><a xlink:title=" ">
<path fill="none" stroke="#63b8ff" d="M135.36,-104.81C233.92,-89.47 422.97,-70.18 575,-115 614.63,-126.68 653.55,-155.01 677.64,-175.09"/>
<polygon fill="#63b8ff" stroke="#63b8ff" points="675.64,-177.98 685.52,-181.81 680.19,-172.66 675.64,-177.98"/>
</a>
</g>
</g>
<!-- Node21 -->
<g id="Node000021" class="node">
<title>Node21</title>
<g id="a_Node000021"><a xlink:href="classwmtk_1_1simplex_1_1_simplex_collection.html#a592a38f5119ed654001d88d032bcea9c" target="_top" xlink:title="Get intersection of two simplex collections.">
<polygon fill="white" stroke="#666666" points="355,-30 171,-30 171,0 355,0 355,-30"/>
<text text-anchor="start" x="179" y="-18" font-family="Helvetica,sans-Serif" font-size="10.00">wmtk::simplex::SimplexCollection</text>
<text text-anchor="middle" x="263" y="-7" font-family="Helvetica,sans-Serif" font-size="10.00">::get_intersection</text>
</a>
</g>
</g>
<!-- Node1&#45;&gt;Node21 -->
<g id="edge27_Node000001_Node000021" class="edge">
<title>Node1&#45;&gt;Node21</title>
<g id="a_edge27_Node000001_Node000021"><a xlink:title=" ">
<path fill="none" stroke="#63b8ff" d="M85.93,-102C105.5,-85.79 138.76,-60.12 171,-44 178.76,-40.12 187.15,-36.62 195.58,-33.49"/>
<polygon fill="#63b8ff" stroke="#63b8ff" points="196.83,-36.76 205.09,-30.13 194.5,-30.16 196.83,-36.76"/>
</a>
</g>
</g>
<!-- Node3&#45;&gt;Node2 -->
<g id="edge3_Node000003_Node000002" class="edge">
<title>Node3&#45;&gt;Node2</title>
<g id="a_edge3_Node000003_Node000002"><a xlink:title=" ">
<path fill="none" stroke="#63b8ff" d="M326.29,-330.57C335.93,-332.26 345.75,-334.08 355,-336 371.15,-339.34 374.63,-342.98 391,-345 472.17,-354.99 499.88,-377.31 575,-345 596.37,-335.81 589.91,-316.82 611,-307 690.2,-270.14 792.38,-271.05 860.38,-277.45"/>
<polygon fill="#63b8ff" stroke="#63b8ff" points="860.28,-280.95 870.58,-278.47 860.98,-273.99 860.28,-280.95"/>
</a>
</g>
</g>
<!-- Node3&#45;&gt;Node4 -->
<g id="edge4_Node000003_Node000004" class="edge">
<title>Node3&#45;&gt;Node4</title>
<g id="a_edge4_Node000003_Node000004"><a xlink:title=" ">
<path fill="none" stroke="#63b8ff" d="M274.41,-330.67C292.93,-348.37 331.83,-387.87 355,-428 378.83,-469.27 355.91,-496.76 391,-529 397.23,-534.72 404.65,-539.11 412.54,-542.47"/>
<polygon fill="#63b8ff" stroke="#63b8ff" points="411.38,-545.77 421.97,-545.96 413.81,-539.21 411.38,-545.77"/>
</a>
</g>
</g>
<!-- Node5 -->
<g id="Node000005" class="node">
<title>Node5</title>
<g id="a_Node000005"><a xlink:href="classwmtk_1_1_mesh.html#a8cc8686f0688613806f43720b6db49e7" target="_top" xlink:title="check validity of tuple including its hash">
<polygon fill="white" stroke="#666666" points="543,-411.5 423,-411.5 423,-392.5 543,-392.5 543,-411.5"/>
<text text-anchor="middle" x="483" y="-399.5" font-family="Helvetica,sans-Serif" font-size="10.00">wmtk::Mesh::is_valid</text>
</a>
</g>
</g>
<!-- Node3&#45;&gt;Node5 -->
<g id="edge6_Node000003_Node000005" class="edge">
<title>Node3&#45;&gt;Node5</title>
<g id="a_edge6_Node000003_Node000005"><a xlink:title=" ">
<path fill="none" stroke="#63b8ff" d="M282.96,-330.69C307.44,-342.93 351.58,-364.06 391,-378 403.52,-382.43 417.26,-386.46 430.19,-389.91"/>
<polygon fill="#63b8ff" stroke="#63b8ff" points="429.33,-393.3 439.89,-392.43 431.09,-386.52 429.33,-393.3"/>
</a>
</g>
</g>
<!-- Node8 -->
<g id="Node000008" class="node">
<title>Node8</title>
<g id="a_Node000008"><a xlink:href="namespacewmtk.html#a441d6ad4f19569c7d4946e743da1a925" target="_top" xlink:title=" ">
<polygon fill="white" stroke="#666666" points="996,-462 874,-462 874,-432 996,-432 996,-462"/>
<text text-anchor="start" x="882" y="-450" font-family="Helvetica,sans-Serif" font-size="10.00">wmtk::log_and_throw</text>
<text text-anchor="middle" x="935" y="-439" font-family="Helvetica,sans-Serif" font-size="10.00">_error</text>
</a>
</g>
</g>
<!-- Node3&#45;&gt;Node8 -->
<g id="edge10_Node000003_Node000008" class="edge">
<title>Node3&#45;&gt;Node8</title>
<g id="a_edge10_Node000003_Node000008"><a xlink:title=" ">
<path fill="none" stroke="#63b8ff" d="M338.59,-325.49C344.6,-328.09 350.2,-331.52 355,-336 405.76,-383.36 337.34,-443.95 391,-488 460.41,-544.97 706.49,-511.14 795,-496 828.58,-490.25 864.83,-477.23 891.89,-466.05"/>
<polygon fill="#63b8ff" stroke="#63b8ff" points="893.57,-469.14 901.42,-462.04 890.85,-462.69 893.57,-469.14"/>
</a>
</g>
</g>
<!-- Node11 -->
<g id="Node000011" class="node">
<title>Node11</title>
<g id="a_Node000011"><a xlink:href="classwmtk_1_1simplex_1_1_simplex_collection.html#a1973c83eede96b64f422049c6fc52976" target="_top" xlink:title=" ">
<polygon fill="white" stroke="#666666" points="575,-336 391,-336 391,-306 575,-306 575,-336"/>
<text text-anchor="start" x="399" y="-324" font-family="Helvetica,sans-Serif" font-size="10.00">wmtk::simplex::SimplexCollection</text>
<text text-anchor="middle" x="483" y="-313" font-family="Helvetica,sans-Serif" font-size="10.00">::reserve</text>
</a>
</g>
</g>
<!-- Node3&#45;&gt;Node11 -->
<g id="edge13_Node000003_Node000011" class="edge">
<title>Node3&#45;&gt;Node11</title>
<g id="a_edge13_Node000003_Node000011"><a xlink:title=" ">
<path fill="none" stroke="#63b8ff" d="M338.72,-321C352.21,-321 366.48,-321 380.57,-321"/>
<polygon fill="#63b8ff" stroke="#63b8ff" points="380.8,-324.5 390.8,-321 380.8,-317.5 380.8,-324.5"/>
</a>
</g>
</g>
<!-- Node3&#45;&gt;Node12 -->
<g id="edge14_Node000003_Node000012" class="edge">
<title>Node3&#45;&gt;Node12</title>
<g id="a_edge14_Node000003_Node000012"><a xlink:title=" ">
<path fill="none" stroke="#63b8ff" d="M268.82,-311.43C283.26,-283.78 329.01,-203.24 391,-163 393.59,-161.32 396.29,-159.76 399.08,-158.3"/>
<polygon fill="#63b8ff" stroke="#63b8ff" points="400.64,-161.43 408.21,-154.02 397.67,-155.09 400.64,-161.43"/>
</a>
</g>
</g>
<!-- Node3&#45;&gt;Node13 -->
<g id="edge15_Node000003_Node000013" class="edge">
<title>Node3&#45;&gt;Node13</title>
<g id="a_edge15_Node000003_Node000013"><a xlink:title=" ">
<path fill="none" stroke="#63b8ff" d="M277.33,-311.33C299.66,-295.62 346.57,-264.75 391,-249 428.77,-235.61 525.08,-220.52 600.61,-210.06"/>
<polygon fill="#63b8ff" stroke="#63b8ff" points="601.22,-213.51 610.65,-208.68 600.26,-206.58 601.22,-213.51"/>
</a>
</g>
</g>
<!-- Node14 -->
<g id="Node000014" class="node">
<title>Node14</title>
<g id="a_Node000014"><a xlink:href="namespacewmtk_1_1simplex.html#a87de7137d8d21f1643dd604d73e8f765" target="_top" xlink:title="Get all top dimension cofaces of the given simplex.">
<polygon fill="white" stroke="#666666" points="541,-288 425,-288 425,-258 541,-258 541,-288"/>
<text text-anchor="start" x="433" y="-276" font-family="Helvetica,sans-Serif" font-size="10.00">wmtk::simplex::top</text>
<text text-anchor="middle" x="483" y="-265" font-family="Helvetica,sans-Serif" font-size="10.00">_dimension_cofaces</text>
</a>
</g>
</g>
<!-- Node3&#45;&gt;Node14 -->
<g id="edge16_Node000003_Node000014" class="edge">
<title>Node3&#45;&gt;Node14</title>
<g id="a_edge16_Node000003_Node000014"><a xlink:title=" ">
<path fill="none" stroke="#63b8ff" d="M307.33,-311.46C337.96,-304.72 379.61,-295.54 414.56,-287.85"/>
<polygon fill="#63b8ff" stroke="#63b8ff" points="415.69,-291.19 424.7,-285.62 414.18,-284.35 415.69,-291.19"/>
</a>
</g>
</g>
<!-- Node18 -->
<g id="Node000018" class="node">
<title>Node18</title>
<g id="a_Node000018"><a xlink:href="classwmtk_1_1_mesh.html#abaf00438d0700358b160e310d69725c9" target="_top" xlink:title=" ">
<polygon fill="white" stroke="#666666" points="568,-478.5 398,-478.5 398,-459.5 568,-459.5 568,-478.5"/>
<text text-anchor="middle" x="483" y="-466.5" font-family="Helvetica,sans-Serif" font-size="10.00">wmtk::Mesh::top_simplex_type</text>
</a>
</g>
</g>
<!-- Node3&#45;&gt;Node18 -->
<g id="edge23_Node000003_Node000018" class="edge">
<title>Node3&#45;&gt;Node18</title>
<g id="a_edge23_Node000003_Node000018"><a xlink:title=" ">
<path fill="none" stroke="#63b8ff" d="M274.71,-330.54C295.95,-349.2 345.35,-391.34 391,-421 410.46,-433.65 433.61,-445.82 451.69,-454.74"/>
<polygon fill="#63b8ff" stroke="#63b8ff" points="450.63,-458.12 461.16,-459.35 453.7,-451.83 450.63,-458.12"/>
</a>
</g>
</g>
<!-- Node20 -->
<g id="Node000020" class="node">
<title>Node20</title>
<g id="a_Node000020"><a xlink:href="classwmtk_1_1simplex_1_1_simplex.html#aca78b1fb0a3c28c0036cf7919bfb0789" target="_top" xlink:title=" ">
<polygon fill="white" stroke="#666666" points="550.5,-202 415.5,-202 415.5,-172 550.5,-172 550.5,-202"/>
<text text-anchor="start" x="423.5" y="-190" font-family="Helvetica,sans-Serif" font-size="10.00">wmtk::simplex::Simplex</text>
<text text-anchor="middle" x="483" y="-179" font-family="Helvetica,sans-Serif" font-size="10.00">::tuple</text>
</a>
</g>
</g>
<!-- Node3&#45;&gt;Node20 -->
<g id="edge25_Node000003_Node000020" class="edge">
<title>Node3&#45;&gt;Node20</title>
<g id="a_edge25_Node000003_Node000020"><a xlink:title=" ">
<path fill="none" stroke="#63b8ff" d="M272.95,-311.45C292.5,-291.11 341.28,-243.14 391,-216 398.14,-212.1 405.88,-208.63 413.74,-205.57"/>
<polygon fill="#63b8ff" stroke="#63b8ff" points="415.17,-208.78 423.34,-202.04 412.75,-202.21 415.17,-208.78"/>
</a>
</g>
</g>
<!-- Node4&#45;&gt;Node4 -->
<g id="edge5_Node000004_Node000004" class="edge">
<title>Node4&#45;&gt;Node4</title>
<g id="a_edge5_Node000004_Node000004"><a xlink:title=" ">
<path fill="none" stroke="#63b8ff" d="M449.09,-562.58C432.6,-571.23 443.9,-580.5 483,-580.5 511.1,-580.5 524.85,-575.71 524.23,-569.81"/>
<polygon fill="#63b8ff" stroke="#63b8ff" points="526.48,-567.12 516.91,-562.58 521.57,-572.1 526.48,-567.12"/>
</a>
</g>
</g>
<!-- Node6 -->
<g id="Node000006" class="node">
<title>Node6</title>
<g id="a_Node000006"><a xlink:href="classwmtk_1_1_tuple.html#a0023f575be92cd5ceeeaaaa3762ea06d" target="_top" xlink:title="Checks if a tuple is &quot;null&quot;. This merely implies the global index is &#45;1.">
<polygon fill="white" stroke="#666666" points="759.5,-438.5 646.5,-438.5 646.5,-419.5 759.5,-419.5 759.5,-438.5"/>
<text text-anchor="middle" x="703" y="-426.5" font-family="Helvetica,sans-Serif" font-size="10.00">wmtk::Tuple::is_null</text>
</a>
</g>
</g>
<!-- Node5&#45;&gt;Node6 -->
<g id="edge7_Node000005_Node000006" class="edge">
<title>Node5&#45;&gt;Node6</title>
<g id="a_edge7_Node000005_Node000006"><a xlink:title=" ">
<path fill="none" stroke="#63b8ff" d="M543.28,-409.34C572.04,-412.9 606.68,-417.19 636.25,-420.86"/>
<polygon fill="#63b8ff" stroke="#63b8ff" points="636.12,-424.37 646.48,-422.12 636.98,-417.42 636.12,-424.37"/>
</a>
</g>
</g>
<!-- Node7 -->
<g id="Node000007" class="node">
<title>Node7</title>
<g id="a_Node000007"><a xlink:href="classwmtk_1_1_mesh.html#ade176d345902d97af8c5da04aa3a095b" target="_top" xlink:title=" ">
<polygon fill="white" stroke="#666666" points="773,-383.5 633,-383.5 633,-364.5 773,-364.5 773,-383.5"/>
<text text-anchor="middle" x="703" y="-371.5" font-family="Helvetica,sans-Serif" font-size="10.00">wmtk::Mesh::is_removed</text>
</a>
</g>
</g>
<!-- Node5&#45;&gt;Node7 -->
<g id="edge8_Node000005_Node000007" class="edge">
<title>Node5&#45;&gt;Node7</title>
<g id="a_edge8_Node000005_Node000007"><a xlink:title=" ">
<path fill="none" stroke="#63b8ff" d="M543.28,-394.39C567.77,-391.24 596.51,-387.55 622.76,-384.18"/>
<polygon fill="#63b8ff" stroke="#63b8ff" points="623.21,-387.65 632.68,-382.9 622.32,-380.71 623.21,-387.65"/>
</a>
</g>
</g>
<!-- Node7&#45;&gt;Node7 -->
<g id="edge9_Node000007_Node000007" class="edge">
<title>Node7&#45;&gt;Node7</title>
<g id="a_edge9_Node000007_Node000007"><a xlink:title=" ">
<path fill="none" stroke="#63b8ff" d="M669.09,-383.58C652.6,-392.23 663.9,-401.5 703,-401.5 731.1,-401.5 744.85,-396.71 744.23,-390.81"/>
<polygon fill="#63b8ff" stroke="#63b8ff" points="746.48,-388.12 736.91,-383.58 741.57,-393.1 746.48,-388.12"/>
</a>
</g>
</g>
<!-- Node9 -->
<g id="Node000009" class="node">
<title>Node9</title>
<g id="a_Node000009"><a xlink:href="namespacewmtk.html#a6a35f11c12436093d26fdd8be6fecc06" target="_top" xlink:title="Retrieves the current logger.">
<polygon fill="white" stroke="#666666" points="1156,-456.5 1075,-456.5 1075,-437.5 1156,-437.5 1156,-456.5"/>
<text text-anchor="middle" x="1115.5" y="-444.5" font-family="Helvetica,sans-Serif" font-size="10.00">wmtk::logger</text>
</a>
</g>
</g>
<!-- Node8&#45;&gt;Node9 -->
<g id="edge11_Node000008_Node000009" class="edge">
<title>Node8&#45;&gt;Node9</title>
<g id="a_edge11_Node000008_Node000009"><a xlink:title=" ">
<path fill="none" stroke="#63b8ff" d="M996.43,-447C1018.68,-447 1043.61,-447 1064.81,-447"/>
<polygon fill="#63b8ff" stroke="#63b8ff" points="1064.89,-450.5 1074.89,-447 1064.89,-443.5 1064.89,-450.5"/>
</a>
</g>
</g>
<!-- Node10 -->
<g id="Node000010" class="node">
<title>Node10</title>
<g id="a_Node000010"><a xlink:href="namespacewmtk.html#a3daa7951a5f8b78cf4600dc047fcc180" target="_top" xlink:title="Setup a logger object to be used by WildmeshToolkit.">
<polygon fill="white" stroke="#666666" points="1293,-456.5 1192,-456.5 1192,-437.5 1293,-437.5 1293,-456.5"/>
<text text-anchor="middle" x="1242.5" y="-444.5" font-family="Helvetica,sans-Serif" font-size="10.00">wmtk::set_logger</text>
</a>
</g>
</g>
<!-- Node9&#45;&gt;Node10 -->
<g id="edge12_Node000009_Node000010" class="edge">
<title>Node9&#45;&gt;Node10</title>
<g id="a_edge12_Node000009_Node000010"><a xlink:title=" ">
<path fill="none" stroke="#63b8ff" d="M1156.05,-447C1164.17,-447 1172.9,-447 1181.55,-447"/>
<polygon fill="#63b8ff" stroke="#63b8ff" points="1181.65,-450.5 1191.65,-447 1181.65,-443.5 1181.65,-450.5"/>
</a>
</g>
</g>
<!-- Node14&#45;&gt;Node13 -->
<g id="edge18_Node000014_Node000013" class="edge">
<title>Node14&#45;&gt;Node13</title>
<g id="a_edge18_Node000014_Node000013"><a xlink:title=" ">
<path fill="none" stroke="#63b8ff" d="M539.26,-257.93C551.27,-253.96 563.74,-249.28 575,-244 592.19,-235.94 593.61,-228.62 611,-221 615.65,-218.96 620.51,-217.06 625.47,-215.3"/>
<polygon fill="#63b8ff" stroke="#63b8ff" points="626.71,-218.58 635.08,-212.09 624.48,-211.94 626.71,-218.58"/>
</a>
</g>
</g>
<!-- Node15 -->
<g id="Node000015" class="node">
<title>Node15</title>
<g id="a_Node000015"><a xlink:href="classwmtk_1_1simplex_1_1_simplex_collection.html#a0d0c1765c4ed8ffd0f163661111bfb08" target="_top" xlink:title=" ">
<polygon fill="white" stroke="#666666" points="795,-260 611,-260 611,-230 795,-230 795,-260"/>
<text text-anchor="start" x="619" y="-248" font-family="Helvetica,sans-Serif" font-size="10.00">wmtk::simplex::SimplexCollection</text>
<text text-anchor="middle" x="703" y="-237" font-family="Helvetica,sans-Serif" font-size="10.00">::mesh</text>
</a>
</g>
</g>
<!-- Node14&#45;&gt;Node15 -->
<g id="edge17_Node000014_Node000015" class="edge">
<title>Node14&#45;&gt;Node15</title>
<g id="a_edge17_Node000014_Node000015"><a xlink:title=" ">
<path fill="none" stroke="#63b8ff" d="M541.28,-265.64C559.6,-263.29 580.46,-260.61 600.94,-257.98"/>
<polygon fill="#63b8ff" stroke="#63b8ff" points="601.48,-261.44 610.95,-256.69 600.59,-254.5 601.48,-261.44"/>
</a>
</g>
</g>
<!-- Node16 -->
<g id="Node000016" class="node">
<title>Node16</title>
<g id="a_Node000016"><a xlink:href="namespacewmtk_1_1simplex.html#a0101f27eb2ad82814390b92ab1a4d1a0" target="_top" xlink:title=" ">
<polygon fill="white" stroke="#666666" points="778.5,-346 627.5,-346 627.5,-316 778.5,-316 778.5,-346"/>
<text text-anchor="start" x="635.5" y="-334" font-family="Helvetica,sans-Serif" font-size="10.00">wmtk::simplex::top</text>
<text text-anchor="middle" x="703" y="-323" font-family="Helvetica,sans-Serif" font-size="10.00">_dimension_cofaces_tuples</text>
</a>
</g>
</g>
<!-- Node14&#45;&gt;Node16 -->
<g id="edge19_Node000014_Node000016" class="edge">
<title>Node14&#45;&gt;Node16</title>
<g id="a_edge19_Node000014_Node000016"><a xlink:title=" ">
<path fill="none" stroke="#63b8ff" d="M541.29,-288.07C552.47,-291.03 564.1,-294.1 575,-297 594.91,-302.29 616.57,-308.08 636.26,-313.35"/>
<polygon fill="#63b8ff" stroke="#63b8ff" points="635.49,-316.77 646.06,-315.98 637.31,-310.01 635.49,-316.77"/>
</a>
</g>
</g>
<!-- Node16&#45;&gt;Node2 -->
<g id="edge20_Node000016_Node000002" class="edge">
<title>Node16&#45;&gt;Node2</title>
<g id="a_edge20_Node000016_Node000002"><a xlink:title=" ">
<path fill="none" stroke="#63b8ff" d="M778.53,-316.86C795.76,-313.61 814.02,-310.17 831,-307 844.25,-304.53 858.46,-301.89 871.96,-299.4"/>
<polygon fill="#63b8ff" stroke="#63b8ff" points="872.92,-302.78 882.12,-297.52 871.65,-295.9 872.92,-302.78"/>
</a>
</g>
</g>
<!-- Node16&#45;&gt;Node8 -->
<g id="edge21_Node000016_Node000008" class="edge">
<title>Node16&#45;&gt;Node8</title>
<g id="a_edge21_Node000016_Node000008"><a xlink:title=" ">
<path fill="none" stroke="#63b8ff" d="M768.53,-346.02C777.58,-348.91 786.64,-352.23 795,-356 836.52,-374.73 879.7,-404.98 906.7,-425.41"/>
<polygon fill="#63b8ff" stroke="#63b8ff" points="904.81,-428.37 914.88,-431.67 909.07,-422.81 904.81,-428.37"/>
</a>
</g>
</g>
<!-- Node17 -->
<g id="Node000017" class="node">
<title>Node17</title>
<g id="a_Node000017"><a xlink:href="classwmtk_1_1simplex_1_1_simplex.html#ad2cc0340a0772b7d6f03ba7a781d1163" target="_top" xlink:title=" ">
<polygon fill="white" stroke="#666666" points="1002.5,-346 867.5,-346 867.5,-316 1002.5,-316 1002.5,-346"/>
<text text-anchor="start" x="875.5" y="-334" font-family="Helvetica,sans-Serif" font-size="10.00">wmtk::simplex::Simplex</text>
<text text-anchor="middle" x="935" y="-323" font-family="Helvetica,sans-Serif" font-size="10.00">::primitive_type</text>
</a>
</g>
</g>
<!-- Node16&#45;&gt;Node17 -->
<g id="edge22_Node000016_Node000017" class="edge">
<title>Node16&#45;&gt;Node17</title>
<g id="a_edge22_Node000016_Node000017"><a xlink:title=" ">
<path fill="none" stroke="#63b8ff" d="M778.67,-331C803.81,-331 831.88,-331 857.18,-331"/>
<polygon fill="#63b8ff" stroke="#63b8ff" points="857.46,-334.5 867.46,-331 857.46,-327.5 857.46,-334.5"/>
</a>
</g>
</g>
<!-- Node19 -->
<g id="Node000019" class="node">
<title>Node19</title>
<g id="a_Node000019"><a xlink:href="classwmtk_1_1_mesh.html#a933f681cf24a63b155c9462280385200" target="_top" xlink:title=" ">
<polygon fill="white" stroke="#666666" points="763.5,-487 642.5,-487 642.5,-457 763.5,-457 763.5,-487"/>
<text text-anchor="start" x="650.5" y="-475" font-family="Helvetica,sans-Serif" font-size="10.00">wmtk::Mesh::top_cell</text>
<text text-anchor="middle" x="703" y="-464" font-family="Helvetica,sans-Serif" font-size="10.00">_dimension</text>
</a>
</g>
</g>
<!-- Node18&#45;&gt;Node19 -->
<g id="edge24_Node000018_Node000019" class="edge">
<title>Node18&#45;&gt;Node19</title>
<g id="a_edge24_Node000018_Node000019"><a xlink:title=" ">
<path fill="none" stroke="#63b8ff" d="M568.28,-470.16C589.4,-470.45 611.82,-470.76 632.15,-471.04"/>
<polygon fill="#63b8ff" stroke="#63b8ff" points="632.21,-474.54 642.25,-471.18 632.3,-467.54 632.21,-474.54"/>
</a>
</g>
</g>
</g>
</svg>
