<?xml version="1.0" encoding="UTF-8" standalone="no"?>
<!DOCTYPE svg PUBLIC "-//W3C//DTD SVG 1.1//EN"
 "http://www.w3.org/Graphics/SVG/1.1/DTD/svg11.dtd">
<!-- Generated by graphviz version 2.43.0 (0)
 -->
<!-- Title: wmtk::components::internal::NLOHMANN_DEFINE_TYPE_NON_INTRUSIVE Pages: 1 -->
<!--zoomable 521 -->

<svg id="main" version="1.1" xmlns="http://www.w3.org/2000/svg" xmlns:xlink="http://www.w3.org/1999/xlink" xml:space="preserve" onload="init(evt)">
<style type="text/css"><![CDATA[
.node, .edge {opacity: 0.7;}
.node.selected, .edge.selected {opacity: 1;}
.edge:hover path { stroke: red; }
.edge:hover polygon { stroke: red; fill: red; }
]]></style>

<defs>
  <circle id="rim" cx="0" cy="0" r="7"/>
  <circle id="rim2" cx="0" cy="0" r="3.5"/>
  <g id="zoomPlus">
    <use xlink:href="#rim" fill="#404040"><set attributeName="fill" to="#808080" begin="zoomplus.mouseover" end="zoomplus.mouseout"/></use>
    <path d="M-4,0h8M0,-4v8" fill="none" stroke="white" stroke-width="1.5" pointer-events="none"/>
  </g>
  <g id="zoomMin">
    <use xlink:href="#rim" fill="#404040"><set attributeName="fill" to="#808080" begin="zoomminus.mouseover" end="zoomminus.mouseout"/></use>
    <path d="M-4,0h8" fill="none" stroke="white" stroke-width="1.5" pointer-events="none"/>
  </g>
  <g id="arrowUp" transform="translate(30 24)">
    <use xlink:href="#rim"/>
    <path pointer-events="none" fill="none" stroke="white" stroke-width="1.5" d="M0,-3.0v7 M-2.5,-0.5L0,-3.0L2.5,-0.5"/>
  </g>
  <g id="arrowRight" transform="rotate(90) translate(36 -43)">
    <use xlink:href="#rim"/>
    <path pointer-events="none" fill="none" stroke="white" stroke-width="1.5" d="M0,-3.0v7 M-2.5,-0.5L0,-3.0L2.5,-0.5"/>
  </g>
  <g id="arrowDown" transform="rotate(180) translate(-30 -48)">
    <use xlink:href="#rim"/>
    <path pointer-events="none" fill="none" stroke="white" stroke-width="1.5" d="M0,-3.0v7 M-2.5,-0.5L0,-3.0L2.5,-0.5"/>
  </g>
  <g id="arrowLeft" transform="rotate(270) translate(-36 17)">
    <use xlink:href="#rim"/>
    <path pointer-events="none" fill="none" stroke="white" stroke-width="1.5" d="M0,-3.0v7 M-2.5,-0.5L0,-3.0L2.5,-0.5"/>
  </g>
  <g id="resetDef">
    <use xlink:href="#rim2" fill="#404040"><set attributeName="fill" to="#808080" begin="reset.mouseover" end="reset.mouseout"/></use>
  </g>
</defs>
<script type="application/ecmascript">
var viewWidth = 402;
var viewHeight = 521;
var sectionId = 'dynsection-20';
</script>
<script type="application/ecmascript" xlink:href="svg.min.js"/>
<svg id="graph" class="graph">
<g id="viewport">
<title>wmtk::components::internal::NLOHMANN_DEFINE_TYPE_NON_INTRUSIVE</title>
<!-- Node1 -->
<g id="Node000001" class="node">
<title>Node1</title>
<g id="a_Node000001"><a xlink:title=" ">
<polygon fill="#999999" stroke="#666666" points="394,-277 215,-277 215,-236 394,-236 394,-277"/>
<text text-anchor="start" x="223" y="-265" font-family="Helvetica,sans-Serif" font-size="10.00">wmtk::components::internal</text>
<text text-anchor="start" x="223" y="-254" font-family="Helvetica,sans-Serif" font-size="10.00">::NLOHMANN_DEFINE_TYPE_NON</text>
<text text-anchor="middle" x="304.5" y="-243" font-family="Helvetica,sans-Serif" font-size="10.00">_INTRUSIVE</text>
</a>
</g>
</g>
<!-- Node1&#45;&gt;Node1 -->
<g id="edge1_Node000001_Node000001" class="edge">
<title>Node1&#45;&gt;Node1</title>
<g id="a_edge1_Node000001_Node000001"><a xlink:title=" ">
<path fill="none" stroke="#63b8ff" d="M341.32,-286.96C335.84,-291.74 323.57,-295 304.5,-295 273.99,-295 260.88,-286.65 265.17,-277.1"/>
<polygon fill="#63b8ff" stroke="#63b8ff" points="344.75,-287.65 343.83,-277.1 337.97,-285.92 344.75,-287.65"/>
</a>
</g>
</g>
<!-- Node2 -->
<g id="Node000002" class="node">
<title>Node2</title>
<g id="a_Node000002"><a xlink:href="namespacewmtk_1_1components_1_1internal.html#ab4d5aa85b7e849adbde7c7fedc6453bf" target="_top" xlink:title=" ">
<polygon fill="white" stroke="#666666" points="179,-513 0,-513 0,-472 179,-472 179,-513"/>
<text text-anchor="start" x="8" y="-501" font-family="Helvetica,sans-Serif" font-size="10.00">wmtk::components::internal</text>
<text text-anchor="start" x="8" y="-490" font-family="Helvetica,sans-Serif" font-size="10.00">::NLOHMANN_DEFINE_TYPE_NON</text>
<text text-anchor="middle" x="89.5" y="-479" font-family="Helvetica,sans-Serif" font-size="10.00">_INTRUSIVE</text>
</a>
</g>
</g>
<!-- Node1&#45;&gt;Node2 -->
<g id="edge2_Node000001_Node000002" class="edge">
<title>Node1&#45;&gt;Node2</title>
<g id="a_edge2_Node000001_Node000002"><a xlink:title=" ">
<path fill="none" stroke="#63b8ff" d="M293.2,-286.65C276.33,-331.6 238.6,-415.99 179,-463.5 175.08,-466.62 170.81,-469.42 166.34,-471.91"/>
<polygon fill="#63b8ff" stroke="#63b8ff" points="296.52,-287.75 296.67,-277.16 289.95,-285.35 296.52,-287.75"/>
</a>
</g>
</g>
<!-- Node3 -->
<g id="Node000003" class="node">
<title>Node3</title>
<g id="a_Node000003"><a xlink:href="namespacewmtk_1_1components_1_1internal.html#a54b94df0200765de12723783395d875f" target="_top" xlink:title=" ">
<polygon fill="white" stroke="#666666" points="179,-454 0,-454 0,-413 179,-413 179,-454"/>
<text text-anchor="start" x="8" y="-442" font-family="Helvetica,sans-Serif" font-size="10.00">wmtk::components::internal</text>
<text text-anchor="start" x="8" y="-431" font-family="Helvetica,sans-Serif" font-size="10.00">::NLOHMANN_DEFINE_TYPE_NON</text>
<text text-anchor="middle" x="89.5" y="-420" font-family="Helvetica,sans-Serif" font-size="10.00">_INTRUSIVE</text>
</a>
</g>
</g>
<!-- Node1&#45;&gt;Node3 -->
<g id="edge3_Node000001_Node000003" class="edge">
<title>Node1&#45;&gt;Node3</title>
<g id="a_edge3_Node000001_Node000003"><a xlink:title=" ">
<path fill="none" stroke="#63b8ff" d="M285.95,-285.91C264.63,-319.23 225.67,-372.98 179,-404.5 174.44,-407.58 169.54,-410.35 164.45,-412.84"/>
<polygon fill="#63b8ff" stroke="#63b8ff" points="289.13,-287.42 291.48,-277.09 283.2,-283.7 289.13,-287.42"/>
</a>
</g>
</g>
<!-- Node4 -->
<g id="Node000004" class="node">
<title>Node4</title>
<g id="a_Node000004"><a xlink:href="namespacewmtk_1_1components_1_1internal.html#a45f0fde8802f8e062c930ecdef5210bb" target="_top" xlink:title=" ">
<polygon fill="white" stroke="#666666" points="179,-395 0,-395 0,-354 179,-354 179,-395"/>
<text text-anchor="start" x="8" y="-383" font-family="Helvetica,sans-Serif" font-size="10.00">wmtk::components::internal</text>
<text text-anchor="start" x="8" y="-372" font-family="Helvetica,sans-Serif" font-size="10.00">::NLOHMANN_DEFINE_TYPE_NON</text>
<text text-anchor="middle" x="89.5" y="-361" font-family="Helvetica,sans-Serif" font-size="10.00">_INTRUSIVE</text>
</a>
</g>
</g>
<!-- Node1&#45;&gt;Node4 -->
<g id="edge4_Node000001_Node000004" class="edge">
<title>Node1&#45;&gt;Node4</title>
<g id="a_edge4_Node000001_Node000004"><a xlink:title=" ">
<path fill="none" stroke="#63b8ff" d="M271.42,-283.61C247.26,-302.96 212.65,-328.46 179,-345.5 173.09,-348.49 166.8,-351.27 160.4,-353.83"/>
<polygon fill="#63b8ff" stroke="#63b8ff" points="273.64,-286.32 279.2,-277.31 269.23,-280.88 273.64,-286.32"/>
</a>
</g>
</g>
<!-- Node5 -->
<g id="Node000005" class="node">
<title>Node5</title>
<g id="a_Node000005"><a xlink:href="namespacewmtk_1_1components_1_1internal.html#a1f51db9e8abba0eb8b907b905e0064d5" target="_top" xlink:title=" ">
<polygon fill="white" stroke="#666666" points="179,-336 0,-336 0,-295 179,-295 179,-336"/>
<text text-anchor="start" x="8" y="-324" font-family="Helvetica,sans-Serif" font-size="10.00">wmtk::components::internal</text>
<text text-anchor="start" x="8" y="-313" font-family="Helvetica,sans-Serif" font-size="10.00">::NLOHMANN_DEFINE_TYPE_NON</text>
<text text-anchor="middle" x="89.5" y="-302" font-family="Helvetica,sans-Serif" font-size="10.00">_INTRUSIVE</text>
</a>
</g>
</g>
<!-- Node1&#45;&gt;Node5 -->
<g id="edge5_Node000001_Node000005" class="edge">
<title>Node1&#45;&gt;Node5</title>
<g id="a_edge5_Node000001_Node000005"><a xlink:title=" ">
<path fill="none" stroke="#63b8ff" d="M219.64,-279.73C201.53,-284.75 182.51,-290.01 164.79,-294.92"/>
<polygon fill="#63b8ff" stroke="#63b8ff" points="220.6,-283.1 229.3,-277.05 218.73,-276.35 220.6,-283.1"/>
</a>
</g>
</g>
<!-- Node6 -->
<g id="Node000006" class="node">
<title>Node6</title>
<g id="a_Node000006"><a xlink:href="namespacewmtk_1_1components_1_1internal.html#aef589070cd8047eeef633efc806e2f94" target="_top" xlink:title=" ">
<polygon fill="white" stroke="#666666" points="179,-277 0,-277 0,-236 179,-236 179,-277"/>
<text text-anchor="start" x="8" y="-265" font-family="Helvetica,sans-Serif" font-size="10.00">wmtk::components::internal</text>
<text text-anchor="start" x="8" y="-254" font-family="Helvetica,sans-Serif" font-size="10.00">::NLOHMANN_DEFINE_TYPE_NON</text>
<text text-anchor="middle" x="89.5" y="-243" font-family="Helvetica,sans-Serif" font-size="10.00">_INTRUSIVE</text>
</a>
</g>
</g>
<!-- Node1&#45;&gt;Node6 -->
<g id="edge6_Node000001_Node000006" class="edge">
<title>Node1&#45;&gt;Node6</title>
<g id="a_edge6_Node000001_Node000006"><a xlink:title=" ">
<path fill="none" stroke="#63b8ff" d="M204.46,-256.5C196.01,-256.5 187.5,-256.5 179.14,-256.5"/>
<polygon fill="#63b8ff" stroke="#63b8ff" points="204.71,-260 214.71,-256.5 204.71,-253 204.71,-260"/>
</a>
</g>
</g>
<!-- Node7 -->
<g id="Node000007" class="node">
<title>Node7</title>
<g id="a_Node000007"><a xlink:href="namespacewmtk_1_1components_1_1internal.html#a82ea78e67966e7a58c4f86b0c3cad0ab" target="_top" xlink:title=" ">
<polygon fill="white" stroke="#666666" points="179,-218 0,-218 0,-177 179,-177 179,-218"/>
<text text-anchor="start" x="8" y="-206" font-family="Helvetica,sans-Serif" font-size="10.00">wmtk::components::internal</text>
<text text-anchor="start" x="8" y="-195" font-family="Helvetica,sans-Serif" font-size="10.00">::NLOHMANN_DEFINE_TYPE_NON</text>
<text text-anchor="middle" x="89.5" y="-184" font-family="Helvetica,sans-Serif" font-size="10.00">_INTRUSIVE</text>
</a>
</g>
</g>
<!-- Node1&#45;&gt;Node7 -->
<g id="edge7_Node000001_Node000007" class="edge">
<title>Node1&#45;&gt;Node7</title>
<g id="a_edge7_Node000001_Node000007"><a xlink:title=" ">
<path fill="none" stroke="#63b8ff" d="M219.64,-233.27C201.53,-228.25 182.51,-222.99 164.79,-218.08"/>
<polygon fill="#63b8ff" stroke="#63b8ff" points="218.73,-236.65 229.3,-235.95 220.6,-229.9 218.73,-236.65"/>
</a>
</g>
</g>
<!-- Node8 -->
<g id="Node000008" class="node">
<title>Node8</title>
<g id="a_Node000008"><a xlink:href="namespacewmtk_1_1components_1_1internal.html#a5167173a30d388b3b1f1cd81cd6a167a" target="_top" xlink:title=" ">
<polygon fill="white" stroke="#666666" points="179,-159 0,-159 0,-118 179,-118 179,-159"/>
<text text-anchor="start" x="8" y="-147" font-family="Helvetica,sans-Serif" font-size="10.00">wmtk::components::internal</text>
<text text-anchor="start" x="8" y="-136" font-family="Helvetica,sans-Serif" font-size="10.00">::NLOHMANN_DEFINE_TYPE_NON</text>
<text text-anchor="middle" x="89.5" y="-125" font-family="Helvetica,sans-Serif" font-size="10.00">_INTRUSIVE</text>
</a>
</g>
</g>
<!-- Node1&#45;&gt;Node8 -->
<g id="edge8_Node000001_Node000008" class="edge">
<title>Node1&#45;&gt;Node8</title>
<g id="a_edge8_Node000001_Node000008"><a xlink:title=" ">
<path fill="none" stroke="#63b8ff" d="M270.55,-229.21C246.37,-210.22 212.12,-185.37 179,-168.5 172.35,-165.11 165.23,-161.97 158.03,-159.11"/>
<polygon fill="#63b8ff" stroke="#63b8ff" points="268.65,-232.17 278.66,-235.66 273.01,-226.69 268.65,-232.17"/>
</a>
</g>
</g>
<!-- Node9 -->
<g id="Node000009" class="node">
<title>Node9</title>
<g id="a_Node000009"><a xlink:href="namespacewmtk_1_1components_1_1internal.html#a41722ce1685a7dec1703284ea7b17090" target="_top" xlink:title=" ">
<polygon fill="white" stroke="#666666" points="179,-100 0,-100 0,-59 179,-59 179,-100"/>
<text text-anchor="start" x="8" y="-88" font-family="Helvetica,sans-Serif" font-size="10.00">wmtk::components::internal</text>
<text text-anchor="start" x="8" y="-77" font-family="Helvetica,sans-Serif" font-size="10.00">::NLOHMANN_DEFINE_TYPE_NON</text>
<text text-anchor="middle" x="89.5" y="-66" font-family="Helvetica,sans-Serif" font-size="10.00">_INTRUSIVE</text>
</a>
</g>
</g>
<!-- Node1&#45;&gt;Node9 -->
<g id="edge9_Node000001_Node000009" class="edge">
<title>Node1&#45;&gt;Node9</title>
<g id="a_edge9_Node000001_Node000009"><a xlink:title=" ">
<path fill="none" stroke="#63b8ff" d="M285.67,-227.11C264.22,-194.08 225.25,-140.97 179,-109.5 173.9,-106.03 168.37,-102.93 162.64,-100.17"/>
<polygon fill="#63b8ff" stroke="#63b8ff" points="282.92,-229.31 291.25,-235.86 288.82,-225.54 282.92,-229.31"/>
</a>
</g>
</g>
<!-- Node10 -->
<g id="Node000010" class="node">
<title>Node10</title>
<g id="a_Node000010"><a xlink:href="namespacewmtk_1_1components_1_1internal.html#ac37ed3f255d6cb7b44f2423cf4079170" target="_top" xlink:title=" ">
<polygon fill="white" stroke="#666666" points="179,-41 0,-41 0,0 179,0 179,-41"/>
<text text-anchor="start" x="8" y="-29" font-family="Helvetica,sans-Serif" font-size="10.00">wmtk::components::internal</text>
<text text-anchor="start" x="8" y="-18" font-family="Helvetica,sans-Serif" font-size="10.00">::NLOHMANN_DEFINE_TYPE_NON</text>
<text text-anchor="middle" x="89.5" y="-7" font-family="Helvetica,sans-Serif" font-size="10.00">_INTRUSIVE</text>
</a>
</g>
</g>
<!-- Node1&#45;&gt;Node10 -->
<g id="edge10_Node000001_Node000010" class="edge">
<title>Node1&#45;&gt;Node10</title>
<g id="a_edge10_Node000001_Node000010"><a xlink:title=" ">
<path fill="none" stroke="#63b8ff" d="M293.1,-226.57C276.1,-181.94 238.2,-98.08 179,-50.5 174.57,-46.94 169.7,-43.8 164.59,-41.02"/>
<polygon fill="#63b8ff" stroke="#63b8ff" points="289.83,-227.84 296.6,-236 296.4,-225.4 289.83,-227.84"/>
</a>
</g>
</g>
</g>
</svg>

<g id="navigator" transform="translate(0 0)" fill="#404254">
  <rect fill="#f2f5e9" fill-opacity="0.5" stroke="#606060" stroke-width=".5" x="0" y="0" width="60" height="60"/>
  <use id="zoomplus" xlink:href="#zoomPlus" x="17" y="9" onmousedown="handleZoom(evt,'in')"/>
  <use id="zoomminus" xlink:href="#zoomMin" x="42" y="9" onmousedown="handleZoom(evt,'out')"/>
  <use id="reset" xlink:href="#resetDef" x="30" y="36" onmousedown="handleReset()"/>
   <use id="arrowup" xlink:href="#arrowUp" x="0" y="0" onmousedown="handlePan(0,-1)"/>
  <use id="arrowright" xlink:href="#arrowRight" x="0" y="0" onmousedown="handlePan(1,0)"/>
  <use id="arrowdown" xlink:href="#arrowDown" x="0" y="0" onmousedown="handlePan(0,1)"/>
  <use id="arrowleft" xlink:href="#arrowLeft" x="0" y="0" onmousedown="handlePan(-1,0)"/>
</g>
<svg viewBox="0 0 15 15" width="100%" height="30px" preserveAspectRatio="xMaxYMin meet">
 <g id="arrow_out" transform="scale(0.3 0.3)">
  <a xlink:href="namespacewmtk_1_1components_1_1internal_a163f2df8912b357a44313f201d62cdc2_icgraph_org.svg" target="_base">
   <rect id="button" ry="5" rx="5" y="6" x="6" height="38" width="38"
        fill="#f2f5e9" fill-opacity="0.5" stroke="#606060" stroke-width="1.0"/>
   <path id="arrow"
     d="M 11.500037,31.436501 C 11.940474,20.09759 22.043105,11.32322 32.158766,21.979434 L 37.068811,17.246167 C 37.068811,17.246167 37.088388,32 37.088388,32 L 22.160133,31.978069 C 22.160133,31.978069 26.997745,27.140456 26.997745,27.140456 C 18.528582,18.264221 13.291696,25.230495 11.500037,31.436501 z"
     style="fill:#404040;"/>
  </a>
 </g>
</svg>

<style type='text/css'>
<![CDATA[
[data-mouse-over-selected='false'] { opacity: 0.7; }
[data-mouse-over-selected='true']  { opacity: 1.0; }
]]>
</style>
<script type="application/ecmascript"><![CDATA[
document.addEventListener('DOMContentLoaded', (event) => {
  highlightEdges();
  highlightAdjacentNodes();
});
]]></script>
</svg>
