<?xml version="1.0" encoding="UTF-8" standalone="no"?>
<!DOCTYPE svg PUBLIC "-//W3C//DTD SVG 1.1//EN"
 "http://www.w3.org/Graphics/SVG/1.1/DTD/svg11.dtd">
<!-- Generated by graphviz version 2.43.0 (0)
 -->
<!-- Title: wmtk::multimesh::utils::transport_tuple Pages: 1 -->
<svg width="1091pt" height="400pt"
 viewBox="0.00 0.00 1091.00 400.00" xmlns="http://www.w3.org/2000/svg" xmlns:xlink="http://www.w3.org/1999/xlink">
<g id="graph0" class="graph" transform="scale(1 1) rotate(0) translate(4 396)">
<title>wmtk::multimesh::utils::transport_tuple</title>
<!-- Node1 -->
<g id="Node000001" class="node">
<title>Node1</title>
<g id="a_Node000001"><a xlink:title=" ">
<polygon fill="#999999" stroke="#666666" points="130,-242 0,-242 0,-212 130,-212 130,-242"/>
<text text-anchor="start" x="8" y="-230" font-family="Helvetica,sans-Serif" font-size="10.00">wmtk::multimesh::utils</text>
<text text-anchor="middle" x="65" y="-219" font-family="Helvetica,sans-Serif" font-size="10.00">::transport_tuple</text>
</a>
</g>
</g>
<!-- Node2 -->
<g id="Node000002" class="node">
<title>Node2</title>
<g id="a_Node000002"><a xlink:href="classwmtk_1_1autogen_1_1_simplex_dart.html#ae086dfc37bed5e52665bc0cc004ea208" target="_top" xlink:title=" ">
<polygon fill="white" stroke="#666666" points="332.5,-356 175.5,-356 175.5,-326 332.5,-326 332.5,-356"/>
<text text-anchor="start" x="183.5" y="-344" font-family="Helvetica,sans-Serif" font-size="10.00">wmtk::autogen::SimplexDart</text>
<text text-anchor="middle" x="254" y="-333" font-family="Helvetica,sans-Serif" font-size="10.00">::convert</text>
</a>
</g>
</g>
<!-- Node1&#45;&gt;Node2 -->
<g id="edge1_Node000001_Node000002" class="edge">
<title>Node1&#45;&gt;Node2</title>
<g id="a_edge1_Node000001_Node000002"><a xlink:title=" ">
<path fill="none" stroke="#63b8ff" d="M78.63,-242.09C96.2,-262.12 129.94,-297.26 166,-317 169.29,-318.8 172.72,-320.47 176.24,-322.02"/>
<polygon fill="#63b8ff" stroke="#63b8ff" points="175.14,-325.36 185.72,-325.87 177.77,-318.87 175.14,-325.36"/>
</a>
</g>
</g>
<!-- Node5 -->
<g id="Node000005" class="node">
<title>Node5</title>
<g id="a_Node000005"><a xlink:href="namespacewmtk_1_1multimesh_1_1utils.html#a99c0d3cb32c7003b624dd8b6e79b3540" target="_top" xlink:title=" ">
<polygon fill="white" stroke="#666666" points="319,-290 189,-290 189,-260 319,-260 319,-290"/>
<text text-anchor="start" x="197" y="-278" font-family="Helvetica,sans-Serif" font-size="10.00">wmtk::multimesh::utils</text>
<text text-anchor="middle" x="254" y="-267" font-family="Helvetica,sans-Serif" font-size="10.00">::find_local_dart_action</text>
</a>
</g>
</g>
<!-- Node1&#45;&gt;Node5 -->
<g id="edge5_Node000001_Node000005" class="edge">
<title>Node1&#45;&gt;Node5</title>
<g id="a_edge5_Node000001_Node000005"><a xlink:title=" ">
<path fill="none" stroke="#63b8ff" d="M124.65,-242.06C143.71,-246.95 165.03,-252.42 184.73,-257.48"/>
<polygon fill="#63b8ff" stroke="#63b8ff" points="184,-260.9 194.55,-260 185.74,-254.12 184,-260.9"/>
</a>
</g>
</g>
<!-- Node6 -->
<g id="Node000006" class="node">
<title>Node6</title>
<g id="a_Node000006"><a xlink:href="classwmtk_1_1autogen_1_1_simplex_dart.html#aa611c74dad9ba3d05f75c814c52c2b8d" target="_top" xlink:title=" ">
<polygon fill="white" stroke="#666666" points="332.5,-242 175.5,-242 175.5,-212 332.5,-212 332.5,-242"/>
<text text-anchor="start" x="183.5" y="-230" font-family="Helvetica,sans-Serif" font-size="10.00">wmtk::autogen::SimplexDart</text>
<text text-anchor="middle" x="254" y="-219" font-family="Helvetica,sans-Serif" font-size="10.00">::product</text>
</a>
</g>
</g>
<!-- Node1&#45;&gt;Node6 -->
<g id="edge7_Node000001_Node000006" class="edge">
<title>Node1&#45;&gt;Node6</title>
<g id="a_edge7_Node000001_Node000006"><a xlink:title=" ">
<path fill="none" stroke="#63b8ff" d="M130.09,-227C141.38,-227 153.3,-227 165.1,-227"/>
<polygon fill="#63b8ff" stroke="#63b8ff" points="165.42,-230.5 175.42,-227 165.42,-223.5 165.42,-230.5"/>
</a>
</g>
</g>
<!-- Node7 -->
<g id="Node000007" class="node">
<title>Node7</title>
<g id="a_Node000007"><a xlink:href="classwmtk_1_1autogen_1_1_simplex_dart.html#a4ccdc5dc677a964c256bf5f2054d5500" target="_top" xlink:title=" ">
<polygon fill="white" stroke="#666666" points="342,-194 166,-194 166,-164 342,-164 342,-194"/>
<text text-anchor="start" x="174" y="-182" font-family="Helvetica,sans-Serif" font-size="10.00">wmtk::autogen::SimplexDart</text>
<text text-anchor="middle" x="254" y="-171" font-family="Helvetica,sans-Serif" font-size="10.00">::update_tuple_from_valid_index</text>
</a>
</g>
</g>
<!-- Node1&#45;&gt;Node7 -->
<g id="edge8_Node000001_Node000007" class="edge">
<title>Node1&#45;&gt;Node7</title>
<g id="a_edge8_Node000001_Node000007"><a xlink:title=" ">
<path fill="none" stroke="#63b8ff" d="M124.65,-211.94C143.71,-207.05 165.03,-201.58 184.73,-196.52"/>
<polygon fill="#63b8ff" stroke="#63b8ff" points="185.74,-199.88 194.55,-194 184,-193.1 185.74,-199.88"/>
</a>
</g>
</g>
<!-- Node13 -->
<g id="Node000013" class="node">
<title>Node13</title>
<g id="a_Node000013"><a xlink:href="classwmtk_1_1autogen_1_1_simplex_dart.html#a0d31b6cd1fff49256a80683f375163d0" target="_top" xlink:title=" ">
<polygon fill="white" stroke="#666666" points="332.5,-134 175.5,-134 175.5,-104 332.5,-104 332.5,-134"/>
<text text-anchor="start" x="183.5" y="-122" font-family="Helvetica,sans-Serif" font-size="10.00">wmtk::autogen::SimplexDart</text>
<text text-anchor="middle" x="254" y="-111" font-family="Helvetica,sans-Serif" font-size="10.00">::valid_index_from_tuple</text>
</a>
</g>
</g>
<!-- Node1&#45;&gt;Node13 -->
<g id="edge14_Node000001_Node000013" class="edge">
<title>Node1&#45;&gt;Node13</title>
<g id="a_edge14_Node000001_Node000013"><a xlink:title=" ">
<path fill="none" stroke="#63b8ff" d="M84.3,-211.83C103.72,-196.22 135.72,-171.86 166,-155 177.16,-148.79 189.6,-143.01 201.52,-137.99"/>
<polygon fill="#63b8ff" stroke="#63b8ff" points="203,-141.16 210.92,-134.13 200.34,-134.69 203,-141.16"/>
</a>
</g>
</g>
<!-- Node3 -->
<g id="Node000003" class="node">
<title>Node3</title>
<g id="a_Node000003"><a xlink:href="namespacewmtk_1_1autogen_1_1subgroup.html#a9b4c9cc6aebaf0622a95cb3174d984e1" target="_top" xlink:title=" ">
<polygon fill="white" stroke="#666666" points="527,-326 386,-326 386,-296 527,-296 527,-326"/>
<text text-anchor="start" x="394" y="-314" font-family="Helvetica,sans-Serif" font-size="10.00">wmtk::autogen::subgroup</text>
<text text-anchor="middle" x="456.5" y="-303" font-family="Helvetica,sans-Serif" font-size="10.00">::convert</text>
</a>
</g>
</g>
<!-- Node2&#45;&gt;Node3 -->
<g id="edge2_Node000002_Node000003" class="edge">
<title>Node2&#45;&gt;Node3</title>
<g id="a_edge2_Node000002_Node000003"><a xlink:title=" ">
<path fill="none" stroke="#63b8ff" d="M332.52,-329.4C346.62,-327.29 361.35,-325.09 375.52,-322.97"/>
<polygon fill="#63b8ff" stroke="#63b8ff" points="376.35,-326.38 385.72,-321.44 375.31,-319.46 376.35,-326.38"/>
</a>
</g>
</g>
<!-- Node4 -->
<g id="Node000004" class="node">
<title>Node4</title>
<g id="a_Node000004"><a xlink:href="classwmtk_1_1autogen_1_1_simplex_dart.html#ac8234cca557054b1d70ab8cb7c03698b" target="_top" xlink:title=" ">
<polygon fill="white" stroke="#666666" points="535,-392 378,-392 378,-362 535,-362 535,-392"/>
<text text-anchor="start" x="386" y="-380" font-family="Helvetica,sans-Serif" font-size="10.00">wmtk::autogen::SimplexDart</text>
<text text-anchor="middle" x="456.5" y="-369" font-family="Helvetica,sans-Serif" font-size="10.00">::identity</text>
</a>
</g>
</g>
<!-- Node2&#45;&gt;Node4 -->
<g id="edge4_Node000002_Node000004" class="edge">
<title>Node2&#45;&gt;Node4</title>
<g id="a_edge4_Node000002_Node000004"><a xlink:title=" ">
<path fill="none" stroke="#63b8ff" d="M332.52,-354.92C344.14,-357.01 356.19,-359.17 368.01,-361.29"/>
<polygon fill="#63b8ff" stroke="#63b8ff" points="367.4,-364.74 377.86,-363.06 368.63,-357.85 367.4,-364.74"/>
</a>
</g>
</g>
<!-- Node3&#45;&gt;Node3 -->
<g id="edge3_Node000003_Node000003" class="edge">
<title>Node3&#45;&gt;Node3</title>
<g id="a_edge3_Node000003_Node000003"><a xlink:title=" ">
<path fill="none" stroke="#63b8ff" d="M421.7,-326.28C413.96,-335.41 425.56,-344 456.5,-344 474.87,-344 486.42,-340.97 491.16,-336.6"/>
<polygon fill="#63b8ff" stroke="#63b8ff" points="494.66,-336.32 491.3,-326.28 487.66,-336.22 494.66,-336.32"/>
</a>
</g>
</g>
<!-- Node5&#45;&gt;Node5 -->
<g id="edge6_Node000005_Node000005" class="edge">
<title>Node5&#45;&gt;Node5</title>
<g id="a_edge6_Node000005_Node000005"><a xlink:title=" ">
<path fill="none" stroke="#63b8ff" d="M220.95,-290.28C213.61,-299.41 224.62,-308 254,-308 271.44,-308 282.41,-304.97 286.91,-300.6"/>
<polygon fill="#63b8ff" stroke="#63b8ff" points="290.41,-300.32 287.05,-290.28 283.41,-300.23 290.41,-300.32"/>
</a>
</g>
</g>
<!-- Node8 -->
<g id="Node000008" class="node">
<title>Node8</title>
<g id="a_Node000008"><a xlink:href="classwmtk_1_1utils_1_1_tuple_inspector.html#a5a92c6323c9678ae3785e395bc84d4a9" target="_top" xlink:title=" ">
<polygon fill="white" stroke="#666666" points="530.5,-194 382.5,-194 382.5,-164 530.5,-164 530.5,-194"/>
<text text-anchor="start" x="390.5" y="-182" font-family="Helvetica,sans-Serif" font-size="10.00">wmtk::utils::TupleInspector</text>
<text text-anchor="middle" x="456.5" y="-171" font-family="Helvetica,sans-Serif" font-size="10.00">::global_cid</text>
</a>
</g>
</g>
<!-- Node7&#45;&gt;Node8 -->
<g id="edge9_Node000007_Node000008" class="edge">
<title>Node7&#45;&gt;Node8</title>
<g id="a_edge9_Node000007_Node000008"><a xlink:title=" ">
<path fill="none" stroke="#63b8ff" d="M342.07,-179C352.03,-179 362.17,-179 372.08,-179"/>
<polygon fill="#63b8ff" stroke="#63b8ff" points="372.31,-182.5 382.31,-179 372.31,-175.5 372.31,-182.5"/>
</a>
</g>
</g>
<!-- Node9 -->
<g id="Node000009" class="node">
<title>Node9</title>
<g id="a_Node000009"><a xlink:href="namespacewmtk_1_1autogen.html#a7e1f67c0c5656583d3b3bde550afbe24" target="_top" xlink:title=" ">
<polygon fill="white" stroke="#666666" points="517,-248 396,-248 396,-218 517,-218 517,-248"/>
<text text-anchor="start" x="404" y="-236" font-family="Helvetica,sans-Serif" font-size="10.00">wmtk::autogen::tuple</text>
<text text-anchor="middle" x="456.5" y="-225" font-family="Helvetica,sans-Serif" font-size="10.00">_from_valid_index</text>
</a>
</g>
</g>
<!-- Node7&#45;&gt;Node9 -->
<g id="edge10_Node000007_Node000009" class="edge">
<title>Node7&#45;&gt;Node9</title>
<g id="a_edge10_Node000007_Node000009"><a xlink:title=" ">
<path fill="none" stroke="#63b8ff" d="M310.85,-194.04C335.3,-200.63 364.16,-208.4 389.65,-215.26"/>
<polygon fill="#63b8ff" stroke="#63b8ff" points="389.04,-218.72 399.6,-217.95 390.86,-211.96 389.04,-218.72"/>
</a>
</g>
</g>
<!-- Node10 -->
<g id="Node000010" class="node">
<title>Node10</title>
<g id="a_Node000010"><a xlink:href="namespacewmtk_1_1autogen_1_1edge__mesh.html#ad40c19fe80f32212cb9c23a3313cd16c" target="_top" xlink:title=" ">
<polygon fill="white" stroke="#666666" points="741,-299 571,-299 571,-269 741,-269 741,-299"/>
<text text-anchor="start" x="579" y="-287" font-family="Helvetica,sans-Serif" font-size="10.00">wmtk::autogen::edge</text>
<text text-anchor="middle" x="656" y="-276" font-family="Helvetica,sans-Serif" font-size="10.00">_mesh::tuple_from_valid_index</text>
</a>
</g>
</g>
<!-- Node9&#45;&gt;Node10 -->
<g id="edge11_Node000009_Node000010" class="edge">
<title>Node9&#45;&gt;Node10</title>
<g id="a_edge11_Node000009_Node000010"><a xlink:title=" ">
<path fill="none" stroke="#63b8ff" d="M515.69,-248.03C538.09,-253.81 563.86,-260.47 587.1,-266.47"/>
<polygon fill="#63b8ff" stroke="#63b8ff" points="586.33,-269.88 596.89,-268.99 588.08,-263.1 586.33,-269.88"/>
</a>
</g>
</g>
<!-- Node11 -->
<g id="Node000011" class="node">
<title>Node11</title>
<g id="a_Node000011"><a xlink:href="namespacewmtk_1_1autogen_1_1tet__mesh.html#af85b0d2452e4895a5c63bb37bb7024e7" target="_top" xlink:title=" ">
<polygon fill="white" stroke="#666666" points="741,-251 571,-251 571,-221 741,-221 741,-251"/>
<text text-anchor="start" x="579" y="-239" font-family="Helvetica,sans-Serif" font-size="10.00">wmtk::autogen::tet</text>
<text text-anchor="middle" x="656" y="-228" font-family="Helvetica,sans-Serif" font-size="10.00">_mesh::tuple_from_valid_index</text>
</a>
</g>
</g>
<!-- Node9&#45;&gt;Node11 -->
<g id="edge12_Node000009_Node000011" class="edge">
<title>Node9&#45;&gt;Node11</title>
<g id="a_edge12_Node000009_Node000011"><a xlink:title=" ">
<path fill="none" stroke="#63b8ff" d="M517.02,-233.9C530.77,-234.11 545.74,-234.34 560.57,-234.57"/>
<polygon fill="#63b8ff" stroke="#63b8ff" points="560.75,-238.07 570.8,-234.72 560.85,-231.07 560.75,-238.07"/>
</a>
</g>
</g>
<!-- Node12 -->
<g id="Node000012" class="node">
<title>Node12</title>
<g id="a_Node000012"><a xlink:href="namespacewmtk_1_1autogen_1_1tri__mesh.html#aa2ec3dcd719ab81c10b79cab4415cfbd" target="_top" xlink:title=" ">
<polygon fill="white" stroke="#666666" points="741,-203 571,-203 571,-173 741,-173 741,-203"/>
<text text-anchor="start" x="579" y="-191" font-family="Helvetica,sans-Serif" font-size="10.00">wmtk::autogen::tri</text>
<text text-anchor="middle" x="656" y="-180" font-family="Helvetica,sans-Serif" font-size="10.00">_mesh::tuple_from_valid_index</text>
</a>
</g>
</g>
<!-- Node9&#45;&gt;Node12 -->
<g id="edge13_Node000009_Node000012" class="edge">
<title>Node9&#45;&gt;Node12</title>
<g id="a_edge13_Node000009_Node000012"><a xlink:title=" ">
<path fill="none" stroke="#63b8ff" d="M517.02,-219.44C536.55,-214.99 558.51,-209.99 579.08,-205.3"/>
<polygon fill="#63b8ff" stroke="#63b8ff" points="580.07,-208.66 589.04,-203.03 578.51,-201.84 580.07,-208.66"/>
</a>
</g>
</g>
<!-- Node14 -->
<g id="Node000014" class="node">
<title>Node14</title>
<g id="a_Node000014"><a xlink:href="namespacewmtk_1_1autogen.html#a29e68dee4452595c200059c9729b2797" target="_top" xlink:title=" ">
<polygon fill="white" stroke="#666666" points="516.5,-110 396.5,-110 396.5,-80 516.5,-80 516.5,-110"/>
<text text-anchor="start" x="404.5" y="-98" font-family="Helvetica,sans-Serif" font-size="10.00">wmtk::autogen::valid</text>
<text text-anchor="middle" x="456.5" y="-87" font-family="Helvetica,sans-Serif" font-size="10.00">_index_from_tuple</text>
</a>
</g>
</g>
<!-- Node13&#45;&gt;Node14 -->
<g id="edge15_Node000013_Node000014" class="edge">
<title>Node13&#45;&gt;Node14</title>
<g id="a_edge15_Node000013_Node000014"><a xlink:title=" ">
<path fill="none" stroke="#63b8ff" d="M332.52,-109.72C350.21,-107.6 368.89,-105.37 386.2,-103.29"/>
<polygon fill="#63b8ff" stroke="#63b8ff" points="386.71,-106.76 396.22,-102.1 385.88,-99.81 386.71,-106.76"/>
</a>
</g>
</g>
<!-- Node15 -->
<g id="Node000015" class="node">
<title>Node15</title>
<g id="a_Node000015"><a xlink:href="namespacewmtk_1_1autogen_1_1edge__mesh.html#ad8db449e7b22a064811821ad935d2554" target="_top" xlink:title=" ">
<polygon fill="white" stroke="#666666" points="741,-155 571,-155 571,-125 741,-125 741,-155"/>
<text text-anchor="start" x="579" y="-143" font-family="Helvetica,sans-Serif" font-size="10.00">wmtk::autogen::edge</text>
<text text-anchor="middle" x="656" y="-132" font-family="Helvetica,sans-Serif" font-size="10.00">_mesh::valid_index_from_tuple</text>
</a>
</g>
</g>
<!-- Node14&#45;&gt;Node15 -->
<g id="edge16_Node000014_Node000015" class="edge">
<title>Node14&#45;&gt;Node15</title>
<g id="a_edge16_Node000014_Node000015"><a xlink:title=" ">
<path fill="none" stroke="#63b8ff" d="M516.76,-108.5C536.29,-112.95 558.28,-117.96 578.89,-122.66"/>
<polygon fill="#63b8ff" stroke="#63b8ff" points="578.35,-126.12 588.87,-124.93 579.9,-119.3 578.35,-126.12"/>
</a>
</g>
</g>
<!-- Node18 -->
<g id="Node000018" class="node">
<title>Node18</title>
<g id="a_Node000018"><a xlink:href="namespacewmtk_1_1autogen_1_1tet__mesh.html#aa75dd77ec88f9fffac8d3c09d501000b" target="_top" xlink:title=" ">
<polygon fill="white" stroke="#666666" points="741,-54 571,-54 571,-24 741,-24 741,-54"/>
<text text-anchor="start" x="579" y="-42" font-family="Helvetica,sans-Serif" font-size="10.00">wmtk::autogen::tet</text>
<text text-anchor="middle" x="656" y="-31" font-family="Helvetica,sans-Serif" font-size="10.00">_mesh::valid_index_from_tuple</text>
</a>
</g>
</g>
<!-- Node14&#45;&gt;Node18 -->
<g id="edge19_Node000014_Node000018" class="edge">
<title>Node14&#45;&gt;Node18</title>
<g id="a_edge19_Node000014_Node000018"><a xlink:title=" ">
<path fill="none" stroke="#63b8ff" d="M510.43,-79.99C535.55,-72.87 565.77,-64.3 592.06,-56.85"/>
<polygon fill="#63b8ff" stroke="#63b8ff" points="593.26,-60.14 601.93,-54.05 591.35,-53.41 593.26,-60.14"/>
</a>
</g>
</g>
<!-- Node22 -->
<g id="Node000022" class="node">
<title>Node22</title>
<g id="a_Node000022"><a xlink:href="namespacewmtk_1_1autogen_1_1tri__mesh.html#a62728e3e11c8fece1c85f27dbf39187c" target="_top" xlink:title=" ">
<polygon fill="white" stroke="#666666" points="741,-107 571,-107 571,-77 741,-77 741,-107"/>
<text text-anchor="start" x="579" y="-95" font-family="Helvetica,sans-Serif" font-size="10.00">wmtk::autogen::tri</text>
<text text-anchor="middle" x="656" y="-84" font-family="Helvetica,sans-Serif" font-size="10.00">_mesh::valid_index_from_tuple</text>
</a>
</g>
</g>
<!-- Node14&#45;&gt;Node22 -->
<g id="edge24_Node000014_Node000022" class="edge">
<title>Node14&#45;&gt;Node22</title>
<g id="a_edge24_Node000014_Node000022"><a xlink:title=" ">
<path fill="none" stroke="#63b8ff" d="M516.76,-94.1C530.6,-93.89 545.69,-93.66 560.65,-93.43"/>
<polygon fill="#63b8ff" stroke="#63b8ff" points="561.01,-96.93 570.96,-93.28 560.91,-89.93 561.01,-96.93"/>
</a>
</g>
</g>
<!-- Node16 -->
<g id="Node000016" class="node">
<title>Node16</title>
<g id="a_Node000016"><a xlink:href="namespacewmtk_1_1autogen_1_1edge__mesh.html#a98217b7273dcb36d27cdf2723bc25c48" target="_top" xlink:title=" ">
<polygon fill="white" stroke="#666666" points="899,-171.5 777,-171.5 777,-130.5 899,-130.5 899,-171.5"/>
<text text-anchor="start" x="785" y="-159.5" font-family="Helvetica,sans-Serif" font-size="10.00">wmtk::autogen::edge</text>
<text text-anchor="start" x="785" y="-148.5" font-family="Helvetica,sans-Serif" font-size="10.00">_mesh::local_id_table</text>
<text text-anchor="middle" x="838" y="-137.5" font-family="Helvetica,sans-Serif" font-size="10.00">_offset</text>
</a>
</g>
</g>
<!-- Node15&#45;&gt;Node16 -->
<g id="edge17_Node000015_Node000016" class="edge">
<title>Node15&#45;&gt;Node16</title>
<g id="a_edge17_Node000015_Node000016"><a xlink:title=" ">
<path fill="none" stroke="#63b8ff" d="M741.2,-145.15C749.79,-145.67 758.45,-146.2 766.86,-146.71"/>
<polygon fill="#63b8ff" stroke="#63b8ff" points="766.79,-150.22 776.98,-147.33 767.21,-143.23 766.79,-150.22"/>
</a>
</g>
</g>
<!-- Node17 -->
<g id="Node000017" class="node">
<title>Node17</title>
<g id="a_Node000017"><a xlink:href="classwmtk_1_1utils_1_1_tuple_inspector.html#a92f5faa08a7f78424f5cd1ec79dcedbb" target="_top" xlink:title=" ">
<polygon fill="white" stroke="#666666" points="1083,-126 935,-126 935,-96 1083,-96 1083,-126"/>
<text text-anchor="start" x="943" y="-114" font-family="Helvetica,sans-Serif" font-size="10.00">wmtk::utils::TupleInspector</text>
<text text-anchor="middle" x="1009" y="-103" font-family="Helvetica,sans-Serif" font-size="10.00">::local_vid</text>
</a>
</g>
</g>
<!-- Node16&#45;&gt;Node17 -->
<g id="edge18_Node000016_Node000017" class="edge">
<title>Node16&#45;&gt;Node17</title>
<g id="a_edge18_Node000016_Node000017"><a xlink:title=" ">
<path fill="none" stroke="#63b8ff" d="M899.06,-136.78C910.55,-134.07 922.7,-131.19 934.55,-128.38"/>
<polygon fill="#63b8ff" stroke="#63b8ff" points="935.49,-131.76 944.41,-126.05 933.88,-124.95 935.49,-131.76"/>
</a>
</g>
</g>
<!-- Node19 -->
<g id="Node000019" class="node">
<title>Node19</title>
<g id="a_Node000019"><a xlink:href="namespacewmtk_1_1autogen_1_1tet__mesh.html#ace6b80b1be9aec0d6a5ac5d144b40965" target="_top" xlink:title=" ">
<polygon fill="white" stroke="#666666" points="899,-53.5 777,-53.5 777,-12.5 899,-12.5 899,-53.5"/>
<text text-anchor="start" x="785" y="-41.5" font-family="Helvetica,sans-Serif" font-size="10.00">wmtk::autogen::tet</text>
<text text-anchor="start" x="785" y="-30.5" font-family="Helvetica,sans-Serif" font-size="10.00">_mesh::local_id_table</text>
<text text-anchor="middle" x="838" y="-19.5" font-family="Helvetica,sans-Serif" font-size="10.00">_offset</text>
</a>
</g>
</g>
<!-- Node18&#45;&gt;Node19 -->
<g id="edge20_Node000018_Node000019" class="edge">
<title>Node18&#45;&gt;Node19</title>
<g id="a_edge20_Node000018_Node000019"><a xlink:title=" ">
<path fill="none" stroke="#63b8ff" d="M741.2,-36.19C749.79,-35.91 758.45,-35.62 766.86,-35.34"/>
<polygon fill="#63b8ff" stroke="#63b8ff" points="767.1,-38.83 776.98,-35 766.87,-31.84 767.1,-38.83"/>
</a>
</g>
</g>
<!-- Node19&#45;&gt;Node17 -->
<g id="edge23_Node000019_Node000017" class="edge">
<title>Node19&#45;&gt;Node17</title>
<g id="a_edge23_Node000019_Node000017"><a xlink:title=" ">
<path fill="none" stroke="#63b8ff" d="M881.96,-53.66C887.75,-56.68 893.56,-59.84 899,-63 915.63,-72.65 917.71,-78.59 935,-87 938.78,-88.84 942.73,-90.59 946.76,-92.24"/>
<polygon fill="#63b8ff" stroke="#63b8ff" points="945.66,-95.57 956.25,-95.93 948.2,-89.05 945.66,-95.57"/>
</a>
</g>
</g>
<!-- Node20 -->
<g id="Node000020" class="node">
<title>Node20</title>
<g id="a_Node000020"><a xlink:href="classwmtk_1_1utils_1_1_tuple_inspector.html#a3a04acf16e0eff80ade8e0fb8753ac1b" target="_top" xlink:title=" ">
<polygon fill="white" stroke="#666666" points="1083,-78 935,-78 935,-48 1083,-48 1083,-78"/>
<text text-anchor="start" x="943" y="-66" font-family="Helvetica,sans-Serif" font-size="10.00">wmtk::utils::TupleInspector</text>
<text text-anchor="middle" x="1009" y="-55" font-family="Helvetica,sans-Serif" font-size="10.00">::local_eid</text>
</a>
</g>
</g>
<!-- Node19&#45;&gt;Node20 -->
<g id="edge21_Node000019_Node000020" class="edge">
<title>Node19&#45;&gt;Node20</title>
<g id="a_edge21_Node000019_Node000020"><a xlink:title=" ">
<path fill="none" stroke="#63b8ff" d="M899.06,-43.66C907.38,-45.14 916.04,-46.68 924.69,-48.21"/>
<polygon fill="#63b8ff" stroke="#63b8ff" points="924.36,-51.71 934.81,-50.01 925.58,-44.81 924.36,-51.71"/>
</a>
</g>
</g>
<!-- Node21 -->
<g id="Node000021" class="node">
<title>Node21</title>
<g id="a_Node000021"><a xlink:href="classwmtk_1_1utils_1_1_tuple_inspector.html#ae4f5c770f4a2f9440eef24448929432d" target="_top" xlink:title=" ">
<polygon fill="white" stroke="#666666" points="1083,-30 935,-30 935,0 1083,0 1083,-30"/>
<text text-anchor="start" x="943" y="-18" font-family="Helvetica,sans-Serif" font-size="10.00">wmtk::utils::TupleInspector</text>
<text text-anchor="middle" x="1009" y="-7" font-family="Helvetica,sans-Serif" font-size="10.00">::local_fid</text>
</a>
</g>
</g>
<!-- Node19&#45;&gt;Node21 -->
<g id="edge22_Node000019_Node000021" class="edge">
<title>Node19&#45;&gt;Node21</title>
<g id="a_edge22_Node000019_Node000021"><a xlink:title=" ">
<path fill="none" stroke="#63b8ff" d="M899.06,-26.6C907.38,-25.72 916.04,-24.79 924.69,-23.87"/>
<polygon fill="#63b8ff" stroke="#63b8ff" points="925.24,-27.33 934.81,-22.79 924.5,-20.37 925.24,-27.33"/>
</a>
</g>
</g>
<!-- Node23 -->
<g id="Node000023" class="node">
<title>Node23</title>
<g id="a_Node000023"><a xlink:href="namespacewmtk_1_1autogen_1_1tri__mesh.html#a1c9b651c47ee993e160a8dca570cf35c" target="_top" xlink:title=" ">
<polygon fill="white" stroke="#666666" points="899,-112.5 777,-112.5 777,-71.5 899,-71.5 899,-112.5"/>
<text text-anchor="start" x="785" y="-100.5" font-family="Helvetica,sans-Serif" font-size="10.00">wmtk::autogen::tri</text>
<text text-anchor="start" x="785" y="-89.5" font-family="Helvetica,sans-Serif" font-size="10.00">_mesh::local_id_table</text>
<text text-anchor="middle" x="838" y="-78.5" font-family="Helvetica,sans-Serif" font-size="10.00">_offset</text>
</a>
</g>
</g>
<!-- Node22&#45;&gt;Node23 -->
<g id="edge25_Node000022_Node000023" class="edge">
<title>Node22&#45;&gt;Node23</title>
<g id="a_edge25_Node000022_Node000023"><a xlink:title=" ">
<path fill="none" stroke="#63b8ff" d="M741.2,-92C749.79,-92 758.45,-92 766.86,-92"/>
<polygon fill="#63b8ff" stroke="#63b8ff" points="766.98,-95.5 776.98,-92 766.98,-88.5 766.98,-95.5"/>
</a>
</g>
</g>
<!-- Node23&#45;&gt;Node17 -->
<g id="edge27_Node000023_Node000017" class="edge">
<title>Node23&#45;&gt;Node17</title>
<g id="a_edge27_Node000023_Node000017"><a xlink:title=" ">
<path fill="none" stroke="#63b8ff" d="M899.06,-98.75C907.38,-99.69 916.04,-100.66 924.69,-101.63"/>
<polygon fill="#63b8ff" stroke="#63b8ff" points="924.49,-105.13 934.81,-102.77 925.27,-98.18 924.49,-105.13"/>
</a>
</g>
</g>
<!-- Node23&#45;&gt;Node20 -->
<g id="edge26_Node000023_Node000020" class="edge">
<title>Node23&#45;&gt;Node20</title>
<g id="a_edge26_Node000023_Node000020"><a xlink:title=" ">
<path fill="none" stroke="#63b8ff" d="M899.06,-81.69C907.38,-80.27 916.04,-78.78 924.69,-77.3"/>
<polygon fill="#63b8ff" stroke="#63b8ff" points="925.55,-80.7 934.81,-75.56 924.37,-73.8 925.55,-80.7"/>
</a>
</g>
</g>
</g>
</svg>
