<?xml version="1.0" encoding="UTF-8" standalone="no"?>
<!DOCTYPE svg PUBLIC "-//W3C//DTD SVG 1.1//EN"
 "http://www.w3.org/Graphics/SVG/1.1/DTD/svg11.dtd">
<!-- Generated by graphviz version 2.43.0 (0)
 -->
<!-- Title: wmtk::simplex::link Pages: 1 -->
<svg width="1456pt" height="557pt"
 viewBox="0.00 0.00 1456.00 557.00" xmlns="http://www.w3.org/2000/svg" xmlns:xlink="http://www.w3.org/1999/xlink">
<g id="graph0" class="graph" transform="scale(1 1) rotate(0) translate(4 553)">
<title>wmtk::simplex::link</title>
<!-- Node1 -->
<g id="Node000001" class="node">
<title>Node1</title>
<g id="a_Node000001"><a xlink:title=" ">
<polygon fill="#999999" stroke="#666666" points="113,-131.5 0,-131.5 0,-112.5 113,-112.5 113,-131.5"/>
<text text-anchor="middle" x="56.5" y="-119.5" font-family="Helvetica,sans-Serif" font-size="10.00">wmtk::simplex::link</text>
</a>
</g>
</g>
<!-- Node1&#45;&gt;Node1 -->
<g id="edge1_Node000001_Node000001" class="edge">
<title>Node1&#45;&gt;Node1</title>
<g id="a_edge1_Node000001_Node000001"><a xlink:title=" ">
<path fill="none" stroke="#63b8ff" d="M31.53,-131.58C19.38,-140.23 27.71,-149.5 56.5,-149.5 75.4,-149.5 85.48,-145.51 86.74,-140.32"/>
<polygon fill="#63b8ff" stroke="#63b8ff" points="89.63,-138.34 81.47,-131.58 83.64,-141.95 89.63,-138.34"/>
</a>
</g>
</g>
<!-- Node2 -->
<g id="Node000002" class="node">
<title>Node2</title>
<g id="a_Node000002"><a xlink:href="namespacewmtk_1_1simplex.html#a50d0026adbac4883ab00460ada1c1cfe" target="_top" xlink:title=" ">
<polygon fill="white" stroke="#666666" points="290,-263.5 149,-263.5 149,-244.5 290,-244.5 290,-263.5"/>
<text text-anchor="middle" x="219.5" y="-251.5" font-family="Helvetica,sans-Serif" font-size="10.00">wmtk::simplex::link_slow</text>
</a>
</g>
</g>
<!-- Node1&#45;&gt;Node2 -->
<g id="edge2_Node000001_Node000002" class="edge">
<title>Node1&#45;&gt;Node2</title>
<g id="a_edge2_Node000001_Node000002"><a xlink:title=" ">
<path fill="none" stroke="#63b8ff" d="M69.34,-131.71C96.79,-154.21 165,-210.13 198.83,-237.87"/>
<polygon fill="#63b8ff" stroke="#63b8ff" points="196.69,-240.65 206.64,-244.28 201.13,-235.23 196.69,-240.65"/>
</a>
</g>
</g>
<!-- Node19 -->
<g id="Node000019" class="node">
<title>Node19</title>
<g id="a_Node000019"><a xlink:href="classwmtk_1_1_mesh.html#abaf00438d0700358b160e310d69725c9" target="_top" xlink:title=" ">
<polygon fill="white" stroke="#666666" points="723,-24.5 553,-24.5 553,-5.5 723,-5.5 723,-24.5"/>
<text text-anchor="middle" x="638" y="-12.5" font-family="Helvetica,sans-Serif" font-size="10.00">wmtk::Mesh::top_simplex_type</text>
</a>
</g>
</g>
<!-- Node1&#45;&gt;Node19 -->
<g id="edge32_Node000001_Node000019" class="edge">
<title>Node1&#45;&gt;Node19</title>
<g id="a_edge32_Node000001_Node000019"><a xlink:title=" ">
<path fill="none" stroke="#63b8ff" d="M81.84,-112.46C128.41,-94.66 233.74,-56.59 326,-39 397.93,-25.28 480.64,-19.36 542.68,-16.83"/>
<polygon fill="#63b8ff" stroke="#63b8ff" points="542.98,-20.32 552.84,-16.43 542.71,-13.32 542.98,-20.32"/>
</a>
</g>
</g>
<!-- Node3 -->
<g id="Node000003" class="node">
<title>Node3</title>
<g id="a_Node000003"><a xlink:href="classwmtk_1_1simplex_1_1_simplex_collection.html#a1e7079b3b75f70dd28c524556cab76cf" target="_top" xlink:title="Add simplex to the collection.">
<polygon fill="white" stroke="#666666" points="1194,-442.5 986,-442.5 986,-423.5 1194,-423.5 1194,-442.5"/>
<text text-anchor="middle" x="1090" y="-430.5" font-family="Helvetica,sans-Serif" font-size="10.00">wmtk::simplex::SimplexCollection::add</text>
</a>
</g>
</g>
<!-- Node2&#45;&gt;Node3 -->
<g id="edge3_Node000002_Node000003" class="edge">
<title>Node2&#45;&gt;Node3</title>
<g id="a_edge3_Node000002_Node000003"><a xlink:title=" ">
<path fill="none" stroke="#63b8ff" d="M227.43,-263.72C242.98,-284.98 282.73,-336.26 326,-368 413.21,-431.97 440.47,-448.31 546,-472 727.07,-512.64 949.81,-468 1043.78,-444.99"/>
<polygon fill="#63b8ff" stroke="#63b8ff" points="1044.67,-448.37 1053.53,-442.56 1042.98,-441.58 1044.67,-448.37"/>
</a>
</g>
</g>
<!-- Node4 -->
<g id="Node000004" class="node">
<title>Node4</title>
<g id="a_Node000004"><a xlink:href="namespacewmtk_1_1simplex.html#a2ed8f83fbda4dc05306bfe8d2ce7ab94" target="_top" xlink:title="The closed star contains the input simplex, all its top dimension cofaces, and their faces.">
<polygon fill="white" stroke="#666666" points="493.5,-263.5 342.5,-263.5 342.5,-244.5 493.5,-244.5 493.5,-263.5"/>
<text text-anchor="middle" x="418" y="-251.5" font-family="Helvetica,sans-Serif" font-size="10.00">wmtk::simplex::closed_star</text>
</a>
</g>
</g>
<!-- Node2&#45;&gt;Node4 -->
<g id="edge4_Node000002_Node000004" class="edge">
<title>Node2&#45;&gt;Node4</title>
<g id="a_edge4_Node000002_Node000004"><a xlink:title=" ">
<path fill="none" stroke="#63b8ff" d="M290.06,-254C303.65,-254 318.04,-254 332.07,-254"/>
<polygon fill="#63b8ff" stroke="#63b8ff" points="332.2,-257.5 342.2,-254 332.2,-250.5 332.2,-257.5"/>
</a>
</g>
</g>
<!-- Node5 -->
<g id="Node000005" class="node">
<title>Node5</title>
<g id="a_Node000005"><a xlink:href="namespacewmtk_1_1simplex.html#aee89641a0de7b5ddf8d15bf376f9d33b" target="_top" xlink:title="Returns all faces of a simplex.">
<polygon fill="white" stroke="#666666" points="699,-444.5 577,-444.5 577,-425.5 699,-425.5 699,-444.5"/>
<text text-anchor="middle" x="638" y="-432.5" font-family="Helvetica,sans-Serif" font-size="10.00">wmtk::simplex::faces</text>
</a>
</g>
</g>
<!-- Node2&#45;&gt;Node5 -->
<g id="edge28_Node000002_Node000005" class="edge">
<title>Node2&#45;&gt;Node5</title>
<g id="a_edge28_Node000002_Node000005"><a xlink:title=" ">
<path fill="none" stroke="#63b8ff" d="M237.29,-263.53C284.54,-290.04 423.28,-365.7 546,-411 558.09,-415.46 571.38,-419.46 583.97,-422.84"/>
<polygon fill="#63b8ff" stroke="#63b8ff" points="583.32,-426.29 593.88,-425.43 585.09,-419.52 583.32,-426.29"/>
</a>
</g>
</g>
<!-- Node13 -->
<g id="Node000013" class="node">
<title>Node13</title>
<g id="a_Node000013"><a xlink:href="classwmtk_1_1simplex_1_1_simplex_collection.html#a3c5684abe23553010bb7f87840e9518d" target="_top" xlink:title="Return const reference to the simplex vector.">
<polygon fill="white" stroke="#666666" points="730,-111 546,-111 546,-81 730,-81 730,-111"/>
<text text-anchor="start" x="554" y="-99" font-family="Helvetica,sans-Serif" font-size="10.00">wmtk::simplex::SimplexCollection</text>
<text text-anchor="middle" x="638" y="-88" font-family="Helvetica,sans-Serif" font-size="10.00">::simplex_vector</text>
</a>
</g>
</g>
<!-- Node2&#45;&gt;Node13 -->
<g id="edge30_Node000002_Node000013" class="edge">
<title>Node2&#45;&gt;Node13</title>
<g id="a_edge30_Node000002_Node000013"><a xlink:title=" ">
<path fill="none" stroke="#63b8ff" d="M242.75,-244.38C295.11,-221.91 430.37,-164.8 546,-124 555.47,-120.66 565.57,-117.33 575.47,-114.19"/>
<polygon fill="#63b8ff" stroke="#63b8ff" points="576.77,-117.45 585.27,-111.12 574.68,-110.77 576.77,-117.45"/>
</a>
</g>
</g>
<!-- Node14 -->
<g id="Node000014" class="node">
<title>Node14</title>
<g id="a_Node000014"><a xlink:href="classwmtk_1_1simplex_1_1_simplex_collection.html#ab318c99d54327383ff1b985bed043f3a" target="_top" xlink:title="Sort simplex vector and remove duplicates.">
<polygon fill="white" stroke="#666666" points="950,-151 766,-151 766,-121 950,-121 950,-151"/>
<text text-anchor="start" x="774" y="-139" font-family="Helvetica,sans-Serif" font-size="10.00">wmtk::simplex::SimplexCollection</text>
<text text-anchor="middle" x="858" y="-128" font-family="Helvetica,sans-Serif" font-size="10.00">::sort_and_clean</text>
</a>
</g>
</g>
<!-- Node2&#45;&gt;Node14 -->
<g id="edge31_Node000002_Node000014" class="edge">
<title>Node2&#45;&gt;Node14</title>
<g id="a_edge31_Node000002_Node000014"><a xlink:title=" ">
<path fill="none" stroke="#63b8ff" d="M226.33,-244.41C240.5,-221.95 279.03,-165.59 326,-136 412.16,-81.72 445.19,-86.37 546,-72 626.96,-60.46 650.44,-53.09 730,-72 765.09,-80.34 801.48,-100 826.26,-115.34"/>
<polygon fill="#63b8ff" stroke="#63b8ff" points="824.52,-118.38 834.85,-120.77 828.27,-112.47 824.52,-118.38"/>
</a>
</g>
</g>
<!-- Node22 -->
<g id="Node000022" class="node">
<title>Node22</title>
<g id="a_Node000022"><a xlink:href="classwmtk_1_1simplex_1_1_simplex_collection.html#a592a38f5119ed654001d88d032bcea9c" target="_top" xlink:title="Get intersection of two simplex collections.">
<polygon fill="white" stroke="#666666" points="510,-549 326,-549 326,-519 510,-519 510,-549"/>
<text text-anchor="start" x="334" y="-537" font-family="Helvetica,sans-Serif" font-size="10.00">wmtk::simplex::SimplexCollection</text>
<text text-anchor="middle" x="418" y="-526" font-family="Helvetica,sans-Serif" font-size="10.00">::get_intersection</text>
</a>
</g>
</g>
<!-- Node2&#45;&gt;Node22 -->
<g id="edge29_Node000002_Node000022" class="edge">
<title>Node2&#45;&gt;Node22</title>
<g id="a_edge29_Node000002_Node000022"><a xlink:title=" ">
<path fill="none" stroke="#63b8ff" d="M221.65,-263.58C226.6,-300.51 249.43,-434.98 326,-505 329.8,-508.48 334.02,-511.54 338.5,-514.23"/>
<polygon fill="#63b8ff" stroke="#63b8ff" points="336.93,-517.36 347.4,-518.97 340.22,-511.18 336.93,-517.36"/>
</a>
</g>
</g>
<!-- Node4&#45;&gt;Node3 -->
<g id="edge5_Node000004_Node000003" class="edge">
<title>Node4&#45;&gt;Node3</title>
<g id="a_edge5_Node000004_Node000003"><a xlink:title=" ">
<path fill="none" stroke="#63b8ff" d="M443.61,-263.65C463.55,-272.48 491.31,-287.19 510,-307 534.28,-332.73 517.45,-357.1 546,-378 625.95,-436.52 667.53,-403.08 766,-414 835.41,-421.7 913.59,-426.4 975.64,-429.2"/>
<polygon fill="#63b8ff" stroke="#63b8ff" points="975.71,-432.71 985.85,-429.65 976.02,-425.72 975.71,-432.71"/>
</a>
</g>
</g>
<!-- Node4&#45;&gt;Node5 -->
<g id="edge6_Node000004_Node000005" class="edge">
<title>Node4&#45;&gt;Node5</title>
<g id="a_edge6_Node000004_Node000005"><a xlink:title=" ">
<path fill="none" stroke="#63b8ff" d="M432.17,-263.62C451.26,-278.06 486.83,-307 510,-338 531.65,-366.98 517.99,-388.11 546,-411 552.3,-416.15 559.58,-420.2 567.24,-423.39"/>
<polygon fill="#63b8ff" stroke="#63b8ff" points="566.12,-426.71 576.71,-426.87 568.53,-420.13 566.12,-426.71"/>
</a>
</g>
</g>
<!-- Node6 -->
<g id="Node000006" class="node">
<title>Node6</title>
<g id="a_Node000006"><a xlink:href="classwmtk_1_1_mesh.html#a8cc8686f0688613806f43720b6db49e7" target="_top" xlink:title="check validity of tuple including its hash">
<polygon fill="white" stroke="#666666" points="698,-368.5 578,-368.5 578,-349.5 698,-349.5 698,-368.5"/>
<text text-anchor="middle" x="638" y="-356.5" font-family="Helvetica,sans-Serif" font-size="10.00">wmtk::Mesh::is_valid</text>
</a>
</g>
</g>
<!-- Node4&#45;&gt;Node6 -->
<g id="edge8_Node000004_Node000006" class="edge">
<title>Node4&#45;&gt;Node6</title>
<g id="a_edge8_Node000004_Node000006"><a xlink:title=" ">
<path fill="none" stroke="#63b8ff" d="M431.24,-263.67C453.08,-280.47 500.73,-315.17 546,-335 556.65,-339.66 568.41,-343.59 579.84,-346.83"/>
<polygon fill="#63b8ff" stroke="#63b8ff" points="579.2,-350.28 589.76,-349.5 581.02,-343.52 579.2,-350.28"/>
</a>
</g>
</g>
<!-- Node9 -->
<g id="Node000009" class="node">
<title>Node9</title>
<g id="a_Node000009"><a xlink:href="namespacewmtk.html#a441d6ad4f19569c7d4946e743da1a925" target="_top" xlink:title=" ">
<polygon fill="white" stroke="#666666" points="1151,-317 1029,-317 1029,-287 1151,-287 1151,-317"/>
<text text-anchor="start" x="1037" y="-305" font-family="Helvetica,sans-Serif" font-size="10.00">wmtk::log_and_throw</text>
<text text-anchor="middle" x="1090" y="-294" font-family="Helvetica,sans-Serif" font-size="10.00">_error</text>
</a>
</g>
</g>
<!-- Node4&#45;&gt;Node9 -->
<g id="edge12_Node000004_Node000009" class="edge">
<title>Node4&#45;&gt;Node9</title>
<g id="a_edge12_Node000004_Node000009"><a xlink:title=" ">
<path fill="none" stroke="#63b8ff" d="M437.74,-263.55C461.99,-275.33 505.89,-294.67 546,-302 713.38,-332.58 914.65,-320.04 1018.83,-309.98"/>
<polygon fill="#63b8ff" stroke="#63b8ff" points="1019.3,-313.45 1028.91,-308.99 1018.61,-306.48 1019.3,-313.45"/>
</a>
</g>
</g>
<!-- Node12 -->
<g id="Node000012" class="node">
<title>Node12</title>
<g id="a_Node000012"><a xlink:href="classwmtk_1_1simplex_1_1_simplex_collection.html#a1973c83eede96b64f422049c6fc52976" target="_top" xlink:title=" ">
<polygon fill="white" stroke="#666666" points="730,-293 546,-293 546,-263 730,-263 730,-293"/>
<text text-anchor="start" x="554" y="-281" font-family="Helvetica,sans-Serif" font-size="10.00">wmtk::simplex::SimplexCollection</text>
<text text-anchor="middle" x="638" y="-270" font-family="Helvetica,sans-Serif" font-size="10.00">::reserve</text>
</a>
</g>
</g>
<!-- Node4&#45;&gt;Node12 -->
<g id="edge15_Node000004_Node000012" class="edge">
<title>Node4&#45;&gt;Node12</title>
<g id="a_edge15_Node000004_Node000012"><a xlink:title=" ">
<path fill="none" stroke="#63b8ff" d="M493.72,-262.23C507.21,-263.71 521.48,-265.28 535.57,-266.83"/>
<polygon fill="#63b8ff" stroke="#63b8ff" points="535.47,-270.34 545.8,-267.96 536.24,-263.39 535.47,-270.34"/>
</a>
</g>
</g>
<!-- Node4&#45;&gt;Node13 -->
<g id="edge16_Node000004_Node000013" class="edge">
<title>Node4&#45;&gt;Node13</title>
<g id="a_edge16_Node000004_Node000013"><a xlink:title=" ">
<path fill="none" stroke="#63b8ff" d="M430.44,-244.43C448.2,-229.34 483.18,-198.79 510,-170 527.46,-151.26 524.89,-139.51 546,-125 551.51,-121.21 557.54,-117.9 563.79,-115"/>
<polygon fill="#63b8ff" stroke="#63b8ff" points="565.24,-118.19 573.07,-111.06 562.5,-111.75 565.24,-118.19"/>
</a>
</g>
</g>
<!-- Node4&#45;&gt;Node14 -->
<g id="edge17_Node000004_Node000014" class="edge">
<title>Node4&#45;&gt;Node14</title>
<g id="a_edge17_Node000004_Node000014"><a xlink:title=" ">
<path fill="none" stroke="#63b8ff" d="M427.71,-244.41C446.81,-224.14 494.76,-177.22 546,-158 612.85,-132.92 693.38,-127.84 755.74,-128.82"/>
<polygon fill="#63b8ff" stroke="#63b8ff" points="755.91,-132.32 765.98,-129.03 756.06,-125.32 755.91,-132.32"/>
</a>
</g>
</g>
<!-- Node15 -->
<g id="Node000015" class="node">
<title>Node15</title>
<g id="a_Node000015"><a xlink:href="namespacewmtk_1_1simplex.html#a87de7137d8d21f1643dd604d73e8f765" target="_top" xlink:title="Get all top dimension cofaces of the given simplex.">
<polygon fill="white" stroke="#666666" points="696,-197 580,-197 580,-167 696,-167 696,-197"/>
<text text-anchor="start" x="588" y="-185" font-family="Helvetica,sans-Serif" font-size="10.00">wmtk::simplex::top</text>
<text text-anchor="middle" x="638" y="-174" font-family="Helvetica,sans-Serif" font-size="10.00">_dimension_cofaces</text>
</a>
</g>
</g>
<!-- Node4&#45;&gt;Node15 -->
<g id="edge18_Node000004_Node000015" class="edge">
<title>Node4&#45;&gt;Node15</title>
<g id="a_edge18_Node000004_Node000015"><a xlink:title=" ">
<path fill="none" stroke="#63b8ff" d="M442.15,-244.42C467.42,-234.16 509.18,-217.78 546,-206 553.74,-203.52 561.92,-201.1 570.06,-198.81"/>
<polygon fill="#63b8ff" stroke="#63b8ff" points="571.23,-202.11 579.94,-196.08 569.37,-195.37 571.23,-202.11"/>
</a>
</g>
</g>
<!-- Node4&#45;&gt;Node19 -->
<g id="edge25_Node000004_Node000019" class="edge">
<title>Node4&#45;&gt;Node19</title>
<g id="a_edge25_Node000004_Node000019"><a xlink:title=" ">
<path fill="none" stroke="#63b8ff" d="M423.93,-244.3C439.02,-215.34 487.1,-128.04 546,-72 564.37,-54.52 588.91,-39.52 607.88,-29.31"/>
<polygon fill="#63b8ff" stroke="#63b8ff" points="609.72,-32.29 616.95,-24.55 606.47,-26.09 609.72,-32.29"/>
</a>
</g>
</g>
<!-- Node21 -->
<g id="Node000021" class="node">
<title>Node21</title>
<g id="a_Node000021"><a xlink:href="classwmtk_1_1simplex_1_1_simplex.html#aca78b1fb0a3c28c0036cf7919bfb0789" target="_top" xlink:title=" ">
<polygon fill="white" stroke="#666666" points="705.5,-245 570.5,-245 570.5,-215 705.5,-215 705.5,-245"/>
<text text-anchor="start" x="578.5" y="-233" font-family="Helvetica,sans-Serif" font-size="10.00">wmtk::simplex::Simplex</text>
<text text-anchor="middle" x="638" y="-222" font-family="Helvetica,sans-Serif" font-size="10.00">::tuple</text>
</a>
</g>
</g>
<!-- Node4&#45;&gt;Node21 -->
<g id="edge27_Node000004_Node000021" class="edge">
<title>Node4&#45;&gt;Node21</title>
<g id="a_edge27_Node000004_Node000021"><a xlink:title=" ">
<path fill="none" stroke="#63b8ff" d="M493.72,-245.77C515.21,-243.41 538.69,-240.82 560.3,-238.44"/>
<polygon fill="#63b8ff" stroke="#63b8ff" points="560.85,-241.9 570.41,-237.33 560.09,-234.95 560.85,-241.9"/>
</a>
</g>
</g>
<!-- Node5&#45;&gt;Node5 -->
<g id="edge7_Node000005_Node000005" class="edge">
<title>Node5&#45;&gt;Node5</title>
<g id="a_edge7_Node000005_Node000005"><a xlink:title=" ">
<path fill="none" stroke="#63b8ff" d="M604.09,-444.58C587.6,-453.23 598.9,-462.5 638,-462.5 666.1,-462.5 679.85,-457.71 679.23,-451.81"/>
<polygon fill="#63b8ff" stroke="#63b8ff" points="681.48,-449.12 671.91,-444.58 676.57,-454.1 681.48,-449.12"/>
</a>
</g>
</g>
<!-- Node7 -->
<g id="Node000007" class="node">
<title>Node7</title>
<g id="a_Node000007"><a xlink:href="classwmtk_1_1_tuple.html#a0023f575be92cd5ceeeaaaa3762ea06d" target="_top" xlink:title="Checks if a tuple is &quot;null&quot;. This merely implies the global index is &#45;1.">
<polygon fill="white" stroke="#666666" points="914.5,-349.5 801.5,-349.5 801.5,-330.5 914.5,-330.5 914.5,-349.5"/>
<text text-anchor="middle" x="858" y="-337.5" font-family="Helvetica,sans-Serif" font-size="10.00">wmtk::Tuple::is_null</text>
</a>
</g>
</g>
<!-- Node6&#45;&gt;Node7 -->
<g id="edge9_Node000006_Node000007" class="edge">
<title>Node6&#45;&gt;Node7</title>
<g id="a_edge9_Node000006_Node000007"><a xlink:title=" ">
<path fill="none" stroke="#63b8ff" d="M698.28,-353.83C727.04,-351.33 761.68,-348.31 791.25,-345.73"/>
<polygon fill="#63b8ff" stroke="#63b8ff" points="791.82,-349.19 801.48,-344.84 791.21,-342.22 791.82,-349.19"/>
</a>
</g>
</g>
<!-- Node8 -->
<g id="Node000008" class="node">
<title>Node8</title>
<g id="a_Node000008"><a xlink:href="classwmtk_1_1_mesh.html#ade176d345902d97af8c5da04aa3a095b" target="_top" xlink:title=" ">
<polygon fill="white" stroke="#666666" points="928,-386.5 788,-386.5 788,-367.5 928,-367.5 928,-386.5"/>
<text text-anchor="middle" x="858" y="-374.5" font-family="Helvetica,sans-Serif" font-size="10.00">wmtk::Mesh::is_removed</text>
</a>
</g>
</g>
<!-- Node6&#45;&gt;Node8 -->
<g id="edge10_Node000006_Node000008" class="edge">
<title>Node6&#45;&gt;Node8</title>
<g id="a_edge10_Node000006_Node000008"><a xlink:title=" ">
<path fill="none" stroke="#63b8ff" d="M698.28,-363.89C722.66,-365.91 751.26,-368.27 777.41,-370.43"/>
<polygon fill="#63b8ff" stroke="#63b8ff" points="777.43,-373.94 787.68,-371.28 778.01,-366.97 777.43,-373.94"/>
</a>
</g>
</g>
<!-- Node8&#45;&gt;Node8 -->
<g id="edge11_Node000008_Node000008" class="edge">
<title>Node8&#45;&gt;Node8</title>
<g id="a_edge11_Node000008_Node000008"><a xlink:title=" ">
<path fill="none" stroke="#63b8ff" d="M824.09,-386.58C807.6,-395.23 818.9,-404.5 858,-404.5 886.1,-404.5 899.85,-399.71 899.23,-393.81"/>
<polygon fill="#63b8ff" stroke="#63b8ff" points="901.48,-391.12 891.91,-386.58 896.57,-396.1 901.48,-391.12"/>
</a>
</g>
</g>
<!-- Node10 -->
<g id="Node000010" class="node">
<title>Node10</title>
<g id="a_Node000010"><a xlink:href="namespacewmtk.html#a6a35f11c12436093d26fdd8be6fecc06" target="_top" xlink:title="Retrieves the current logger.">
<polygon fill="white" stroke="#666666" points="1311,-311.5 1230,-311.5 1230,-292.5 1311,-292.5 1311,-311.5"/>
<text text-anchor="middle" x="1270.5" y="-299.5" font-family="Helvetica,sans-Serif" font-size="10.00">wmtk::logger</text>
</a>
</g>
</g>
<!-- Node9&#45;&gt;Node10 -->
<g id="edge13_Node000009_Node000010" class="edge">
<title>Node9&#45;&gt;Node10</title>
<g id="a_edge13_Node000009_Node000010"><a xlink:title=" ">
<path fill="none" stroke="#63b8ff" d="M1151.43,-302C1173.68,-302 1198.61,-302 1219.81,-302"/>
<polygon fill="#63b8ff" stroke="#63b8ff" points="1219.89,-305.5 1229.89,-302 1219.89,-298.5 1219.89,-305.5"/>
</a>
</g>
</g>
<!-- Node11 -->
<g id="Node000011" class="node">
<title>Node11</title>
<g id="a_Node000011"><a xlink:href="namespacewmtk.html#a3daa7951a5f8b78cf4600dc047fcc180" target="_top" xlink:title="Setup a logger object to be used by WildmeshToolkit.">
<polygon fill="white" stroke="#666666" points="1448,-311.5 1347,-311.5 1347,-292.5 1448,-292.5 1448,-311.5"/>
<text text-anchor="middle" x="1397.5" y="-299.5" font-family="Helvetica,sans-Serif" font-size="10.00">wmtk::set_logger</text>
</a>
</g>
</g>
<!-- Node10&#45;&gt;Node11 -->
<g id="edge14_Node000010_Node000011" class="edge">
<title>Node10&#45;&gt;Node11</title>
<g id="a_edge14_Node000010_Node000011"><a xlink:title=" ">
<path fill="none" stroke="#63b8ff" d="M1311.05,-302C1319.17,-302 1327.9,-302 1336.55,-302"/>
<polygon fill="#63b8ff" stroke="#63b8ff" points="1336.65,-305.5 1346.65,-302 1336.65,-298.5 1336.65,-305.5"/>
</a>
</g>
</g>
<!-- Node15&#45;&gt;Node14 -->
<g id="edge20_Node000015_Node000014" class="edge">
<title>Node15&#45;&gt;Node14</title>
<g id="a_edge20_Node000015_Node000014"><a xlink:title=" ">
<path fill="none" stroke="#63b8ff" d="M696.28,-169.91C720.55,-164.79 749.28,-158.73 775.69,-153.16"/>
<polygon fill="#63b8ff" stroke="#63b8ff" points="776.62,-156.54 785.68,-151.05 775.17,-149.69 776.62,-156.54"/>
</a>
</g>
</g>
<!-- Node16 -->
<g id="Node000016" class="node">
<title>Node16</title>
<g id="a_Node000016"><a xlink:href="classwmtk_1_1simplex_1_1_simplex_collection.html#a0d0c1765c4ed8ffd0f163661111bfb08" target="_top" xlink:title=" ">
<polygon fill="white" stroke="#666666" points="950,-199 766,-199 766,-169 950,-169 950,-199"/>
<text text-anchor="start" x="774" y="-187" font-family="Helvetica,sans-Serif" font-size="10.00">wmtk::simplex::SimplexCollection</text>
<text text-anchor="middle" x="858" y="-176" font-family="Helvetica,sans-Serif" font-size="10.00">::mesh</text>
</a>
</g>
</g>
<!-- Node15&#45;&gt;Node16 -->
<g id="edge19_Node000015_Node000016" class="edge">
<title>Node15&#45;&gt;Node16</title>
<g id="a_edge19_Node000015_Node000016"><a xlink:title=" ">
<path fill="none" stroke="#63b8ff" d="M696.28,-182.53C714.6,-182.69 735.46,-182.88 755.94,-183.07"/>
<polygon fill="#63b8ff" stroke="#63b8ff" points="755.92,-186.57 765.95,-183.16 755.99,-179.57 755.92,-186.57"/>
</a>
</g>
</g>
<!-- Node17 -->
<g id="Node000017" class="node">
<title>Node17</title>
<g id="a_Node000017"><a xlink:href="namespacewmtk_1_1simplex.html#a0101f27eb2ad82814390b92ab1a4d1a0" target="_top" xlink:title=" ">
<polygon fill="white" stroke="#666666" points="933.5,-272 782.5,-272 782.5,-242 933.5,-242 933.5,-272"/>
<text text-anchor="start" x="790.5" y="-260" font-family="Helvetica,sans-Serif" font-size="10.00">wmtk::simplex::top</text>
<text text-anchor="middle" x="858" y="-249" font-family="Helvetica,sans-Serif" font-size="10.00">_dimension_cofaces_tuples</text>
</a>
</g>
</g>
<!-- Node15&#45;&gt;Node17 -->
<g id="edge21_Node000015_Node000017" class="edge">
<title>Node15&#45;&gt;Node17</title>
<g id="a_edge21_Node000015_Node000017"><a xlink:title=" ">
<path fill="none" stroke="#63b8ff" d="M696.12,-195.9C707.42,-198.98 719.14,-202.4 730,-206 758.27,-215.37 789.31,-227.79 813.63,-238.03"/>
<polygon fill="#63b8ff" stroke="#63b8ff" points="812.36,-241.29 822.93,-241.98 815.09,-234.85 812.36,-241.29"/>
</a>
</g>
</g>
<!-- Node17&#45;&gt;Node3 -->
<g id="edge22_Node000017_Node000003" class="edge">
<title>Node17&#45;&gt;Node3</title>
<g id="a_edge22_Node000017_Node000003"><a xlink:title=" ">
<path fill="none" stroke="#63b8ff" d="M880.93,-272.17C899.52,-285.15 926.76,-304.44 950,-322 993.36,-354.76 1042.78,-394.92 1069.45,-416.84"/>
<polygon fill="#63b8ff" stroke="#63b8ff" points="1067.32,-419.63 1077.27,-423.28 1071.77,-414.22 1067.32,-419.63"/>
</a>
</g>
</g>
<!-- Node17&#45;&gt;Node9 -->
<g id="edge23_Node000017_Node000009" class="edge">
<title>Node17&#45;&gt;Node9</title>
<g id="a_edge23_Node000017_Node000009"><a xlink:title=" ">
<path fill="none" stroke="#63b8ff" d="M933.67,-271.61C961.01,-276.96 991.82,-282.99 1018.75,-288.26"/>
<polygon fill="#63b8ff" stroke="#63b8ff" points="1018.38,-291.75 1028.87,-290.24 1019.73,-284.88 1018.38,-291.75"/>
</a>
</g>
</g>
<!-- Node18 -->
<g id="Node000018" class="node">
<title>Node18</title>
<g id="a_Node000018"><a xlink:href="classwmtk_1_1simplex_1_1_simplex.html#ad2cc0340a0772b7d6f03ba7a781d1163" target="_top" xlink:title=" ">
<polygon fill="white" stroke="#666666" points="1157.5,-269 1022.5,-269 1022.5,-239 1157.5,-239 1157.5,-269"/>
<text text-anchor="start" x="1030.5" y="-257" font-family="Helvetica,sans-Serif" font-size="10.00">wmtk::simplex::Simplex</text>
<text text-anchor="middle" x="1090" y="-246" font-family="Helvetica,sans-Serif" font-size="10.00">::primitive_type</text>
</a>
</g>
</g>
<!-- Node17&#45;&gt;Node18 -->
<g id="edge24_Node000017_Node000018" class="edge">
<title>Node17&#45;&gt;Node18</title>
<g id="a_edge24_Node000017_Node000018"><a xlink:title=" ">
<path fill="none" stroke="#63b8ff" d="M933.67,-256.03C958.81,-255.7 986.88,-255.33 1012.18,-255"/>
<polygon fill="#63b8ff" stroke="#63b8ff" points="1012.5,-258.5 1022.46,-254.87 1012.41,-251.5 1012.5,-258.5"/>
</a>
</g>
</g>
<!-- Node20 -->
<g id="Node000020" class="node">
<title>Node20</title>
<g id="a_Node000020"><a xlink:href="classwmtk_1_1_mesh.html#a933f681cf24a63b155c9462280385200" target="_top" xlink:title=" ">
<polygon fill="white" stroke="#666666" points="918.5,-30 797.5,-30 797.5,0 918.5,0 918.5,-30"/>
<text text-anchor="start" x="805.5" y="-18" font-family="Helvetica,sans-Serif" font-size="10.00">wmtk::Mesh::top_cell</text>
<text text-anchor="middle" x="858" y="-7" font-family="Helvetica,sans-Serif" font-size="10.00">_dimension</text>
</a>
</g>
</g>
<!-- Node19&#45;&gt;Node20 -->
<g id="edge26_Node000019_Node000020" class="edge">
<title>Node19&#45;&gt;Node20</title>
<g id="a_edge26_Node000019_Node000020"><a xlink:title=" ">
<path fill="none" stroke="#63b8ff" d="M723.28,-15C744.4,-15 766.82,-15 787.15,-15"/>
<polygon fill="#63b8ff" stroke="#63b8ff" points="787.25,-18.5 797.25,-15 787.25,-11.5 787.25,-18.5"/>
</a>
</g>
</g>
</g>
</svg>
