<?xml version="1.0" encoding="UTF-8" standalone="no"?>
<!DOCTYPE svg PUBLIC "-//W3C//DTD SVG 1.1//EN"
 "http://www.w3.org/Graphics/SVG/1.1/DTD/svg11.dtd">
<!-- Generated by graphviz version 2.43.0 (0)
 -->
<!-- Title: wmtk::autogen::tri_mesh::tuple_is_valid_for_ccw Pages: 1 -->
<svg width="472pt" height="105pt"
 viewBox="0.00 0.00 472.00 104.50" xmlns="http://www.w3.org/2000/svg" xmlns:xlink="http://www.w3.org/1999/xlink">
<g id="graph0" class="graph" transform="scale(1 1) rotate(0) translate(4 100.5)">
<title>wmtk::autogen::tri_mesh::tuple_is_valid_for_ccw</title>
<!-- Node1 -->
<g id="Node000001" class="node">
<title>Node1</title>
<g id="a_Node000001"><a xlink:title=" ">
<polygon fill="#999999" stroke="#666666" points="122,-83.5 0,-83.5 0,-42.5 122,-42.5 122,-83.5"/>
<text text-anchor="start" x="8" y="-71.5" font-family="Helvetica,sans-Serif" font-size="10.00">wmtk::autogen::tri</text>
<text text-anchor="start" x="8" y="-60.5" font-family="Helvetica,sans-Serif" font-size="10.00">_mesh::tuple_is_valid</text>
<text text-anchor="middle" x="61" y="-49.5" font-family="Helvetica,sans-Serif" font-size="10.00">_for_ccw</text>
</a>
</g>
</g>
<!-- Node2 -->
<g id="Node000002" class="node">
<title>Node2</title>
<g id="a_Node000002"><a xlink:href="classwmtk_1_1_tuple.html#a0023f575be92cd5ceeeaaaa3762ea06d" target="_top" xlink:title="Checks if a tuple is &quot;null&quot;. This merely implies the global index is &#45;1.">
<polygon fill="white" stroke="#666666" points="275.5,-96.5 162.5,-96.5 162.5,-77.5 275.5,-77.5 275.5,-96.5"/>
<text text-anchor="middle" x="219" y="-84.5" font-family="Helvetica,sans-Serif" font-size="10.00">wmtk::Tuple::is_null</text>
</a>
</g>
</g>
<!-- Node1&#45;&gt;Node2 -->
<g id="edge1_Node000001_Node000002" class="edge">
<title>Node1&#45;&gt;Node2</title>
<g id="a_edge1_Node000001_Node000002"><a xlink:title=" ">
<path fill="none" stroke="#63b8ff" d="M122.31,-72.28C132.22,-73.8 142.52,-75.39 152.54,-76.93"/>
<polygon fill="#63b8ff" stroke="#63b8ff" points="152.03,-80.39 162.44,-78.45 153.09,-73.47 152.03,-80.39"/>
</a>
</g>
</g>
<!-- Node3 -->
<g id="Node000003" class="node">
<title>Node3</title>
<g id="a_Node000003"><a xlink:href="namespacewmtk_1_1autogen_1_1tri__mesh.html#a1c9b651c47ee993e160a8dca570cf35c" target="_top" xlink:title=" ">
<polygon fill="white" stroke="#666666" points="280,-59.5 158,-59.5 158,-18.5 280,-18.5 280,-59.5"/>
<text text-anchor="start" x="166" y="-47.5" font-family="Helvetica,sans-Serif" font-size="10.00">wmtk::autogen::tri</text>
<text text-anchor="start" x="166" y="-36.5" font-family="Helvetica,sans-Serif" font-size="10.00">_mesh::local_id_table</text>
<text text-anchor="middle" x="219" y="-25.5" font-family="Helvetica,sans-Serif" font-size="10.00">_offset</text>
</a>
</g>
</g>
<!-- Node1&#45;&gt;Node3 -->
<g id="edge2_Node000001_Node000003" class="edge">
<title>Node1&#45;&gt;Node3</title>
<g id="a_edge2_Node000001_Node000003"><a xlink:title=" ">
<path fill="none" stroke="#63b8ff" d="M122.31,-53.72C130.69,-52.43 139.36,-51.1 147.9,-49.78"/>
<polygon fill="#63b8ff" stroke="#63b8ff" points="148.5,-53.23 157.85,-48.25 147.43,-46.32 148.5,-53.23"/>
</a>
</g>
</g>
<!-- Node4 -->
<g id="Node000004" class="node">
<title>Node4</title>
<g id="a_Node000004"><a xlink:href="classwmtk_1_1utils_1_1_tuple_inspector.html#a3a04acf16e0eff80ade8e0fb8753ac1b" target="_top" xlink:title=" ">
<polygon fill="white" stroke="#666666" points="464,-78 316,-78 316,-48 464,-48 464,-78"/>
<text text-anchor="start" x="324" y="-66" font-family="Helvetica,sans-Serif" font-size="10.00">wmtk::utils::TupleInspector</text>
<text text-anchor="middle" x="390" y="-55" font-family="Helvetica,sans-Serif" font-size="10.00">::local_eid</text>
</a>
</g>
</g>
<!-- Node3&#45;&gt;Node4 -->
<g id="edge3_Node000003_Node000004" class="edge">
<title>Node3&#45;&gt;Node4</title>
<g id="a_edge3_Node000003_Node000004"><a xlink:title=" ">
<path fill="none" stroke="#63b8ff" d="M280.06,-47.53C288.38,-48.71 297.04,-49.94 305.69,-51.17"/>
<polygon fill="#63b8ff" stroke="#63b8ff" points="305.42,-54.67 315.81,-52.61 306.41,-47.74 305.42,-54.67"/>
</a>
</g>
</g>
<!-- Node5 -->
<g id="Node000005" class="node">
<title>Node5</title>
<g id="a_Node000005"><a xlink:href="classwmtk_1_1utils_1_1_tuple_inspector.html#a92f5faa08a7f78424f5cd1ec79dcedbb" target="_top" xlink:title=" ">
<polygon fill="white" stroke="#666666" points="464,-30 316,-30 316,0 464,0 464,-30"/>
<text text-anchor="start" x="324" y="-18" font-family="Helvetica,sans-Serif" font-size="10.00">wmtk::utils::TupleInspector</text>
<text text-anchor="middle" x="390" y="-7" font-family="Helvetica,sans-Serif" font-size="10.00">::local_vid</text>
</a>
</g>
</g>
<!-- Node3&#45;&gt;Node5 -->
<g id="edge4_Node000003_Node000005" class="edge">
<title>Node3&#45;&gt;Node5</title>
<g id="a_edge4_Node000003_Node000005"><a xlink:title=" ">
<path fill="none" stroke="#63b8ff" d="M280.06,-30.47C288.38,-29.29 297.04,-28.06 305.69,-26.83"/>
<polygon fill="#63b8ff" stroke="#63b8ff" points="306.41,-30.26 315.81,-25.39 305.42,-23.33 306.41,-30.26"/>
</a>
</g>
</g>
</g>
</svg>
