<?xml version="1.0" encoding="UTF-8" standalone="no"?>
<!DOCTYPE svg PUBLIC "-//W3C//DTD SVG 1.1//EN"
 "http://www.w3.org/Graphics/SVG/1.1/DTD/svg11.dtd">
<!-- Generated by graphviz version 2.43.0 (0)
 -->
<!-- Title: wmtk::operations::utils::multi_mesh_edge_collapse Pages: 1 -->
<svg width="2358pt" height="565pt"
 viewBox="0.00 0.00 2358.00 564.50" xmlns="http://www.w3.org/2000/svg" xmlns:xlink="http://www.w3.org/1999/xlink">
<g id="graph0" class="graph" transform="scale(1 1) rotate(0) translate(4 560.5)">
<title>wmtk::operations::utils::multi_mesh_edge_collapse</title>
<!-- Node1 -->
<g id="Node000001" class="node">
<title>Node1</title>
<g id="a_Node000001"><a xlink:title=" ">
<polygon fill="#999999" stroke="#666666" points="155,-386 0,-386 0,-356 155,-356 155,-386"/>
<text text-anchor="start" x="8" y="-374" font-family="Helvetica,sans-Serif" font-size="10.00">wmtk::operations::utils</text>
<text text-anchor="middle" x="77.5" y="-363" font-family="Helvetica,sans-Serif" font-size="10.00">::multi_mesh_edge_collapse</text>
</a>
</g>
</g>
<!-- Node2 -->
<g id="Node000002" class="node">
<title>Node2</title>
<g id="a_Node000002"><a xlink:href="classwmtk_1_1multimesh_1_1_multi_mesh_visitor.html#a4ae1801ee1021dd57a0ede0444efc2d6" target="_top" xlink:title=" ">
<polygon fill="white" stroke="#666666" points="351.5,-429 191.5,-429 191.5,-399 351.5,-399 351.5,-429"/>
<text text-anchor="start" x="199.5" y="-417" font-family="Helvetica,sans-Serif" font-size="10.00">wmtk::multimesh::MultiMesh</text>
<text text-anchor="middle" x="271.5" y="-406" font-family="Helvetica,sans-Serif" font-size="10.00">Visitor::execute_from_root</text>
</a>
</g>
</g>
<!-- Node1&#45;&gt;Node2 -->
<g id="edge1_Node000001_Node000002" class="edge">
<title>Node1&#45;&gt;Node2</title>
<g id="a_edge1_Node000001_Node000002"><a xlink:title=" ">
<path fill="none" stroke="#63b8ff" d="M145.65,-386.04C161.14,-389.51 177.74,-393.23 193.61,-396.78"/>
<polygon fill="#63b8ff" stroke="#63b8ff" points="192.86,-400.2 203.39,-398.97 194.39,-393.37 192.86,-400.2"/>
</a>
</g>
</g>
<!-- Node10 -->
<g id="Node000010" class="node">
<title>Node10</title>
<g id="a_Node000010"><a xlink:href="classwmtk_1_1multimesh_1_1_multi_mesh_simplex_visitor.html#ad4359b5c36f328c241da00f5fc6d93a7" target="_top" xlink:title=" ">
<polygon fill="white" stroke="#666666" points="351.5,-351.5 191.5,-351.5 191.5,-310.5 351.5,-310.5 351.5,-351.5"/>
<text text-anchor="start" x="199.5" y="-339.5" font-family="Helvetica,sans-Serif" font-size="10.00">wmtk::multimesh::MultiMesh</text>
<text text-anchor="start" x="199.5" y="-328.5" font-family="Helvetica,sans-Serif" font-size="10.00">SimplexVisitor::execute</text>
<text text-anchor="middle" x="271.5" y="-317.5" font-family="Helvetica,sans-Serif" font-size="10.00">_from_root</text>
</a>
</g>
</g>
<!-- Node1&#45;&gt;Node10 -->
<g id="edge12_Node000001_Node000010" class="edge">
<title>Node1&#45;&gt;Node10</title>
<g id="a_edge12_Node000001_Node000010"><a xlink:title=" ">
<path fill="none" stroke="#63b8ff" d="M150.54,-355.99C160.62,-353.89 171.08,-351.71 181.42,-349.56"/>
<polygon fill="#63b8ff" stroke="#63b8ff" points="182.22,-352.97 191.3,-347.5 180.79,-346.11 182.22,-352.97"/>
</a>
</g>
</g>
<!-- Node41 -->
<g id="Node000041" class="node">
<title>Node41</title>
<g id="a_Node000041"><a xlink:href="namespacewmtk_1_1multimesh_1_1operations.html#a081a57c4ca754769d7673bff8cd97eb9" target="_top" xlink:title=" ">
<polygon fill="white" stroke="#666666" points="352,-292 191,-292 191,-262 352,-262 352,-292"/>
<text text-anchor="start" x="199" y="-280" font-family="Helvetica,sans-Serif" font-size="10.00">wmtk::multimesh::operations</text>
<text text-anchor="middle" x="271.5" y="-269" font-family="Helvetica,sans-Serif" font-size="10.00">::extract_operation_tuples</text>
</a>
</g>
</g>
<!-- Node1&#45;&gt;Node41 -->
<g id="edge55_Node000001_Node000041" class="edge">
<title>Node1&#45;&gt;Node41</title>
<g id="a_edge55_Node000001_Node000041"><a xlink:title=" ">
<path fill="none" stroke="#63b8ff" d="M99.13,-355.83C121.02,-340.31 157.05,-316.36 191,-301 195.29,-299.06 199.78,-297.22 204.35,-295.5"/>
<polygon fill="#63b8ff" stroke="#63b8ff" points="205.56,-298.78 213.79,-292.11 203.2,-292.19 205.56,-298.78"/>
</a>
</g>
</g>
<!-- Node42 -->
<g id="Node000042" class="node">
<title>Node42</title>
<g id="a_Node000042"><a xlink:href="classwmtk_1_1multimesh_1_1_multi_mesh_simplex_event_visitor.html#a7655c88ae0f53ca9bcfecba966fb2044" target="_top" xlink:title=" ">
<polygon fill="white" stroke="#666666" points="748,-556.5 588,-556.5 588,-515.5 748,-515.5 748,-556.5"/>
<text text-anchor="start" x="596" y="-544.5" font-family="Helvetica,sans-Serif" font-size="10.00">wmtk::multimesh::MultiMesh</text>
<text text-anchor="start" x="596" y="-533.5" font-family="Helvetica,sans-Serif" font-size="10.00">SimplexEventVisitor::run</text>
<text text-anchor="middle" x="668" y="-522.5" font-family="Helvetica,sans-Serif" font-size="10.00">_on_nodes</text>
</a>
</g>
</g>
<!-- Node1&#45;&gt;Node42 -->
<g id="edge56_Node000001_Node000042" class="edge">
<title>Node1&#45;&gt;Node42</title>
<g id="a_edge56_Node000001_Node000042"><a xlink:title=" ">
<path fill="none" stroke="#63b8ff" d="M100.55,-386.11C122.68,-400.79 158.11,-423 191,-438 274.88,-476.26 297.99,-483.04 388,-503 450.65,-516.89 522.59,-525.22 577.73,-530.04"/>
<polygon fill="#63b8ff" stroke="#63b8ff" points="577.56,-533.53 587.82,-530.89 578.15,-526.56 577.56,-533.53"/>
</a>
</g>
</g>
<!-- Node3 -->
<g id="Node000003" class="node">
<title>Node3</title>
<g id="a_Node000003"><a xlink:href="namespacewmtk_1_1utils_1_1metaprogramming.html#aa5a891c5f82fc2a28e4fbdfc325b46f0" target="_top" xlink:title=" ">
<polygon fill="white" stroke="#666666" points="1158,-472 989,-472 989,-442 1158,-442 1158,-472"/>
<text text-anchor="start" x="997" y="-460" font-family="Helvetica,sans-Serif" font-size="10.00">wmtk::utils::metaprogramming</text>
<text text-anchor="middle" x="1073.5" y="-449" font-family="Helvetica,sans-Serif" font-size="10.00">::as_mesh_variant</text>
</a>
</g>
</g>
<!-- Node2&#45;&gt;Node3 -->
<g id="edge2_Node000002_Node000003" class="edge">
<title>Node2&#45;&gt;Node3</title>
<g id="a_edge2_Node000002_Node000003"><a xlink:title=" ">
<path fill="none" stroke="#63b8ff" d="M351.76,-418.26C500.27,-426.24 819.71,-443.41 978.67,-451.96"/>
<polygon fill="#63b8ff" stroke="#63b8ff" points="978.74,-455.47 988.91,-452.51 979.11,-448.48 978.74,-455.47"/>
</a>
</g>
</g>
<!-- Node4 -->
<g id="Node000004" class="node">
<title>Node4</title>
<g id="a_Node000004"><a xlink:href="classwmtk_1_1multimesh_1_1_multi_mesh_visitor.html#ad96e498fcc27eeb8993f175015c864b4" target="_top" xlink:title=" ">
<polygon fill="white" stroke="#666666" points="550,-494 390,-494 390,-464 550,-464 550,-494"/>
<text text-anchor="start" x="398" y="-482" font-family="Helvetica,sans-Serif" font-size="10.00">wmtk::multimesh::MultiMesh</text>
<text text-anchor="middle" x="470" y="-471" font-family="Helvetica,sans-Serif" font-size="10.00">Visitor::execute_mesh</text>
</a>
</g>
</g>
<!-- Node2&#45;&gt;Node4 -->
<g id="edge3_Node000002_Node000004" class="edge">
<title>Node2&#45;&gt;Node4</title>
<g id="a_edge3_Node000002_Node000004"><a xlink:title=" ">
<path fill="none" stroke="#63b8ff" d="M318.07,-429.08C346.62,-438.52 383.58,-450.74 413.78,-460.73"/>
<polygon fill="#63b8ff" stroke="#63b8ff" points="412.74,-464.08 423.33,-463.89 414.94,-457.43 412.74,-464.08"/>
</a>
</g>
</g>
<!-- Node7 -->
<g id="Node000007" class="node">
<title>Node7</title>
<g id="a_Node000007"><a xlink:href="classwmtk_1_1_mesh.html#aac3ec1ebbe00982ddfe70cc710d8f54e" target="_top" xlink:title="returns a reference to the root of a multimesh tree">
<polygon fill="white" stroke="#666666" points="534.5,-408 405.5,-408 405.5,-378 534.5,-378 534.5,-408"/>
<text text-anchor="start" x="413.5" y="-396" font-family="Helvetica,sans-Serif" font-size="10.00">wmtk::Mesh::get_multi</text>
<text text-anchor="middle" x="470" y="-385" font-family="Helvetica,sans-Serif" font-size="10.00">_mesh_root</text>
</a>
</g>
</g>
<!-- Node2&#45;&gt;Node7 -->
<g id="edge8_Node000002_Node000007" class="edge">
<title>Node2&#45;&gt;Node7</title>
<g id="a_edge8_Node000002_Node000007"><a xlink:title=" ">
<path fill="none" stroke="#63b8ff" d="M351.57,-405.55C365.99,-404.01 380.98,-402.41 395.24,-400.88"/>
<polygon fill="#63b8ff" stroke="#63b8ff" points="395.9,-404.33 405.47,-399.79 395.15,-397.37 395.9,-404.33"/>
</a>
</g>
</g>
<!-- Node5 -->
<g id="Node000005" class="node">
<title>Node5</title>
<g id="a_Node000005"><a xlink:href="classwmtk_1_1multimesh_1_1_multi_mesh_visitor_executor.html#ad59739579a81676fc3ab172e80ce8550" target="_top" xlink:title=" ">
<polygon fill="white" stroke="#666666" points="748,-494 588,-494 588,-464 748,-464 748,-494"/>
<text text-anchor="start" x="596" y="-482" font-family="Helvetica,sans-Serif" font-size="10.00">wmtk::multimesh::MultiMesh</text>
<text text-anchor="middle" x="668" y="-471" font-family="Helvetica,sans-Serif" font-size="10.00">VisitorExecutor::execute</text>
</a>
</g>
</g>
<!-- Node4&#45;&gt;Node5 -->
<g id="edge4_Node000004_Node000005" class="edge">
<title>Node4&#45;&gt;Node5</title>
<g id="a_edge4_Node000004_Node000005"><a xlink:title=" ">
<path fill="none" stroke="#63b8ff" d="M550.16,-479C559.19,-479 568.44,-479 577.59,-479"/>
<polygon fill="#63b8ff" stroke="#63b8ff" points="577.87,-482.5 587.87,-479 577.87,-475.5 577.87,-482.5"/>
</a>
</g>
</g>
<!-- Node6 -->
<g id="Node000006" class="node">
<title>Node6</title>
<g id="a_Node000006"><a xlink:href="classwmtk_1_1multimesh_1_1_multi_mesh_visitor_executor.html#a6e0ef7ccec71b521a3bc5eb5df90bef0" target="_top" xlink:title=" ">
<polygon fill="white" stroke="#666666" points="944,-494 784,-494 784,-464 944,-464 944,-494"/>
<text text-anchor="start" x="792" y="-482" font-family="Helvetica,sans-Serif" font-size="10.00">wmtk::multimesh::MultiMesh</text>
<text text-anchor="middle" x="864" y="-471" font-family="Helvetica,sans-Serif" font-size="10.00">VisitorExecutor::run</text>
</a>
</g>
</g>
<!-- Node5&#45;&gt;Node6 -->
<g id="edge5_Node000005_Node000006" class="edge">
<title>Node5&#45;&gt;Node6</title>
<g id="a_edge5_Node000005_Node000006"><a xlink:title=" ">
<path fill="none" stroke="#63b8ff" d="M748.19,-479C756.53,-479 765.05,-479 773.5,-479"/>
<polygon fill="#63b8ff" stroke="#63b8ff" points="773.75,-482.5 783.75,-479 773.75,-475.5 773.75,-482.5"/>
</a>
</g>
</g>
<!-- Node6&#45;&gt;Node3 -->
<g id="edge6_Node000006_Node000003" class="edge">
<title>Node6&#45;&gt;Node3</title>
<g id="a_edge6_Node000006_Node000003"><a xlink:title=" ">
<path fill="none" stroke="#63b8ff" d="M944.04,-470.62C955.38,-469.42 967.13,-468.17 978.72,-466.94"/>
<polygon fill="#63b8ff" stroke="#63b8ff" points="979.27,-470.4 988.85,-465.87 978.54,-463.44 979.27,-470.4"/>
</a>
</g>
</g>
<!-- Node6&#45;&gt;Node6 -->
<g id="edge7_Node000006_Node000006" class="edge">
<title>Node6&#45;&gt;Node6</title>
<g id="a_edge7_Node000006_Node000006"><a xlink:title=" ">
<path fill="none" stroke="#63b8ff" d="M829.55,-494.28C821.89,-503.41 833.38,-512 864,-512 882.18,-512 893.62,-508.97 898.31,-504.6"/>
<polygon fill="#63b8ff" stroke="#63b8ff" points="901.81,-504.32 898.45,-494.28 894.81,-504.22 901.81,-504.32"/>
</a>
</g>
</g>
<!-- Node8 -->
<g id="Node000008" class="node">
<title>Node8</title>
<g id="a_Node000008"><a xlink:href="classwmtk_1_1multimesh_1_1_multi_mesh_manager.html#a434e74f6b295055a45914d41a784124a" target="_top" xlink:title=" ">
<polygon fill="white" stroke="#666666" points="944,-266 784,-266 784,-236 944,-236 944,-266"/>
<text text-anchor="start" x="792" y="-254" font-family="Helvetica,sans-Serif" font-size="10.00">wmtk::multimesh::MultiMesh</text>
<text text-anchor="middle" x="864" y="-243" font-family="Helvetica,sans-Serif" font-size="10.00">Manager::get_root_mesh</text>
</a>
</g>
</g>
<!-- Node7&#45;&gt;Node8 -->
<g id="edge9_Node000007_Node000008" class="edge">
<title>Node7&#45;&gt;Node8</title>
<g id="a_edge9_Node000007_Node000008"><a xlink:title=" ">
<path fill="none" stroke="#63b8ff" d="M512.58,-377.94C584.86,-351.76 733.43,-297.94 811.88,-269.52"/>
<polygon fill="#63b8ff" stroke="#63b8ff" points="813.34,-272.71 821.55,-266.01 810.96,-266.13 813.34,-272.71"/>
</a>
</g>
</g>
<!-- Node8&#45;&gt;Node8 -->
<g id="edge10_Node000008_Node000008" class="edge">
<title>Node8&#45;&gt;Node8</title>
<g id="a_edge10_Node000008_Node000008"><a xlink:title=" ">
<path fill="none" stroke="#63b8ff" d="M829.55,-266.28C821.89,-275.41 833.38,-284 864,-284 882.18,-284 893.62,-280.97 898.31,-276.6"/>
<polygon fill="#63b8ff" stroke="#63b8ff" points="901.81,-276.32 898.45,-266.28 894.81,-276.22 901.81,-276.32"/>
</a>
</g>
</g>
<!-- Node9 -->
<g id="Node000009" class="node">
<title>Node9</title>
<g id="a_Node000009"><a xlink:href="classwmtk_1_1multimesh_1_1_multi_mesh_manager.html#a7d39339adb56b1798fe817d81bfcc67c" target="_top" xlink:title="Specifies whether this structure is the root of a multi&#45;mesh tree.">
<polygon fill="white" stroke="#666666" points="1622,-284 1462,-284 1462,-254 1622,-254 1622,-284"/>
<text text-anchor="start" x="1470" y="-272" font-family="Helvetica,sans-Serif" font-size="10.00">wmtk::multimesh::MultiMesh</text>
<text text-anchor="middle" x="1542" y="-261" font-family="Helvetica,sans-Serif" font-size="10.00">Manager::is_root</text>
</a>
</g>
</g>
<!-- Node8&#45;&gt;Node9 -->
<g id="edge11_Node000008_Node000009" class="edge">
<title>Node8&#45;&gt;Node9</title>
<g id="a_edge11_Node000008_Node000009"><a xlink:title=" ">
<path fill="none" stroke="#63b8ff" d="M944.2,-253.11C1071.03,-256.49 1318.9,-263.09 1451.79,-266.62"/>
<polygon fill="#63b8ff" stroke="#63b8ff" points="1451.85,-270.13 1461.94,-266.89 1452.04,-263.13 1451.85,-270.13"/>
</a>
</g>
</g>
<!-- Node10&#45;&gt;Node3 -->
<g id="edge13_Node000010_Node000003" class="edge">
<title>Node10&#45;&gt;Node3</title>
<g id="a_edge13_Node000010_Node000003"><a xlink:title=" ">
<path fill="none" stroke="#63b8ff" d="M351.51,-341.05C407.54,-348.34 484.47,-358.7 552,-369 701.65,-391.82 874.86,-421.82 978.94,-440.24"/>
<polygon fill="#63b8ff" stroke="#63b8ff" points="978.34,-443.69 988.8,-441.99 979.56,-436.8 978.34,-443.69"/>
</a>
</g>
</g>
<!-- Node10&#45;&gt;Node7 -->
<g id="edge18_Node000010_Node000007" class="edge">
<title>Node10&#45;&gt;Node7</title>
<g id="a_edge18_Node000010_Node000007"><a xlink:title=" ">
<path fill="none" stroke="#63b8ff" d="M337.66,-351.56C361.61,-359.12 388.53,-367.61 411.73,-374.93"/>
<polygon fill="#63b8ff" stroke="#63b8ff" points="410.84,-378.32 421.43,-377.99 412.95,-371.64 410.84,-378.32"/>
</a>
</g>
</g>
<!-- Node11 -->
<g id="Node000011" class="node">
<title>Node11</title>
<g id="a_Node000011"><a xlink:href="classwmtk_1_1multimesh_1_1_multi_mesh_simplex_visitor.html#acca9f40b78de111eaae6ce7d4c7e547e" target="_top" xlink:title=" ">
<polygon fill="white" stroke="#666666" points="552,-80 388,-80 388,-50 552,-50 552,-80"/>
<text text-anchor="start" x="396" y="-68" font-family="Helvetica,sans-Serif" font-size="10.00">wmtk::multimesh::MultiMesh</text>
<text text-anchor="middle" x="470" y="-57" font-family="Helvetica,sans-Serif" font-size="10.00">SimplexVisitor::execute_mesh</text>
</a>
</g>
</g>
<!-- Node10&#45;&gt;Node11 -->
<g id="edge14_Node000010_Node000011" class="edge">
<title>Node10&#45;&gt;Node11</title>
<g id="a_edge14_Node000010_Node000011"><a xlink:title=" ">
<path fill="none" stroke="#63b8ff" d="M342.02,-310.37C345.7,-307.63 349.08,-304.52 352,-301 410.77,-230.13 329.78,-168.32 388,-97 391.59,-92.61 395.86,-88.82 400.54,-85.54"/>
<polygon fill="#63b8ff" stroke="#63b8ff" points="402.62,-88.37 409.35,-80.19 398.99,-82.39 402.62,-88.37"/>
</a>
</g>
</g>
<!-- Node14 -->
<g id="Node000014" class="node">
<title>Node14</title>
<g id="a_Node000014"><a xlink:href="classwmtk_1_1simplex_1_1_simplex.html#aca78b1fb0a3c28c0036cf7919bfb0789" target="_top" xlink:title=" ">
<polygon fill="white" stroke="#666666" points="1141,-121 1006,-121 1006,-91 1141,-91 1141,-121"/>
<text text-anchor="start" x="1014" y="-109" font-family="Helvetica,sans-Serif" font-size="10.00">wmtk::simplex::Simplex</text>
<text text-anchor="middle" x="1073.5" y="-98" font-family="Helvetica,sans-Serif" font-size="10.00">::tuple</text>
</a>
</g>
</g>
<!-- Node10&#45;&gt;Node14 -->
<g id="edge54_Node000010_Node000014" class="edge">
<title>Node10&#45;&gt;Node14</title>
<g id="a_edge54_Node000010_Node000014"><a xlink:title=" ">
<path fill="none" stroke="#63b8ff" d="M339.55,-310.45C344.03,-307.68 348.25,-304.54 352,-301 380.64,-273.95 357.42,-244.83 388,-220 566.04,-75.44 857.78,-82.83 995.69,-96.13"/>
<polygon fill="#63b8ff" stroke="#63b8ff" points="995.45,-99.62 1005.75,-97.14 996.15,-92.66 995.45,-99.62"/>
</a>
</g>
</g>
<!-- Node15 -->
<g id="Node000015" class="node">
<title>Node15</title>
<g id="a_Node000015"><a xlink:href="classwmtk_1_1_mesh.html#a8cc8686f0688613806f43720b6db49e7" target="_top" xlink:title="check validity of tuple including its hash">
<polygon fill="white" stroke="#666666" points="1827,-447.5 1707,-447.5 1707,-428.5 1827,-428.5 1827,-447.5"/>
<text text-anchor="middle" x="1767" y="-435.5" font-family="Helvetica,sans-Serif" font-size="10.00">wmtk::Mesh::is_valid</text>
</a>
</g>
</g>
<!-- Node10&#45;&gt;Node15 -->
<g id="edge19_Node000010_Node000015" class="edge">
<title>Node10&#45;&gt;Node15</title>
<g id="a_edge19_Node000010_Node000015"><a xlink:title=" ">
<path fill="none" stroke="#63b8ff" d="M351.79,-324.94C431.41,-319.38 557.63,-312 667,-312 667,-312 667,-312 1303.5,-312 1324.96,-312 1612.21,-393.83 1722.91,-425.6"/>
<polygon fill="#63b8ff" stroke="#63b8ff" points="1722.18,-429.03 1732.75,-428.43 1724.11,-422.3 1722.18,-429.03"/>
</a>
</g>
</g>
<!-- Node18 -->
<g id="Node000018" class="node">
<title>Node18</title>
<g id="a_Node000018"><a xlink:href="classwmtk_1_1_mesh.html#aa23d8c5ea9c2a2d635eb7c67221206e8" target="_top" xlink:title="maps a simplex from this mesh to the root mesh">
<polygon fill="white" stroke="#666666" points="542,-248.5 398,-248.5 398,-229.5 542,-229.5 542,-248.5"/>
<text text-anchor="middle" x="470" y="-236.5" font-family="Helvetica,sans-Serif" font-size="10.00">wmtk::Mesh::map_to_root</text>
</a>
</g>
</g>
<!-- Node10&#45;&gt;Node18 -->
<g id="edge23_Node000010_Node000018" class="edge">
<title>Node10&#45;&gt;Node18</title>
<g id="a_edge23_Node000010_Node000018"><a xlink:title=" ">
<path fill="none" stroke="#63b8ff" d="M329.75,-310.39C337.29,-307.39 344.87,-304.22 352,-301 384.41,-286.37 420.37,-266.78 443.76,-253.57"/>
<polygon fill="#63b8ff" stroke="#63b8ff" points="445.71,-256.49 452.67,-248.5 442.24,-250.41 445.71,-256.49"/>
</a>
</g>
</g>
<!-- Node12 -->
<g id="Node000012" class="node">
<title>Node12</title>
<g id="a_Node000012"><a xlink:href="classwmtk_1_1multimesh_1_1_multi_mesh_simplex_visitor_executor.html#afc758292782366e2ce4f6f2b83354ce6" target="_top" xlink:title=" ">
<polygon fill="white" stroke="#666666" points="748,-82.5 588,-82.5 588,-41.5 748,-41.5 748,-82.5"/>
<text text-anchor="start" x="596" y="-70.5" font-family="Helvetica,sans-Serif" font-size="10.00">wmtk::multimesh::MultiMesh</text>
<text text-anchor="start" x="596" y="-59.5" font-family="Helvetica,sans-Serif" font-size="10.00">SimplexVisitorExecutor</text>
<text text-anchor="middle" x="668" y="-48.5" font-family="Helvetica,sans-Serif" font-size="10.00">::execute</text>
</a>
</g>
</g>
<!-- Node11&#45;&gt;Node12 -->
<g id="edge15_Node000011_Node000012" class="edge">
<title>Node11&#45;&gt;Node12</title>
<g id="a_edge15_Node000011_Node000012"><a xlink:title=" ">
<path fill="none" stroke="#63b8ff" d="M552.14,-63.76C560.52,-63.63 569.08,-63.5 577.55,-63.37"/>
<polygon fill="#63b8ff" stroke="#63b8ff" points="577.87,-66.86 587.82,-63.21 577.77,-59.87 577.87,-66.86"/>
</a>
</g>
</g>
<!-- Node13 -->
<g id="Node000013" class="node">
<title>Node13</title>
<g id="a_Node000013"><a xlink:href="classwmtk_1_1multimesh_1_1_multi_mesh_simplex_visitor_executor.html#a29d39ea2e7d21e898e2ac7e9c35c60b3" target="_top" xlink:title=" ">
<polygon fill="white" stroke="#666666" points="944,-80 784,-80 784,-50 944,-50 944,-80"/>
<text text-anchor="start" x="792" y="-68" font-family="Helvetica,sans-Serif" font-size="10.00">wmtk::multimesh::MultiMesh</text>
<text text-anchor="middle" x="864" y="-57" font-family="Helvetica,sans-Serif" font-size="10.00">SimplexVisitorExecutor::run</text>
</a>
</g>
</g>
<!-- Node12&#45;&gt;Node13 -->
<g id="edge16_Node000012_Node000013" class="edge">
<title>Node12&#45;&gt;Node13</title>
<g id="a_edge16_Node000012_Node000013"><a xlink:title=" ">
<path fill="none" stroke="#63b8ff" d="M748.19,-63.22C756.53,-63.35 765.05,-63.49 773.5,-63.62"/>
<polygon fill="#63b8ff" stroke="#63b8ff" points="773.7,-67.12 783.75,-63.77 773.81,-60.12 773.7,-67.12"/>
</a>
</g>
</g>
<!-- Node13&#45;&gt;Node14 -->
<g id="edge17_Node000013_Node000014" class="edge">
<title>Node13&#45;&gt;Node14</title>
<g id="a_edge17_Node000013_Node000014"><a xlink:title=" ">
<path fill="none" stroke="#63b8ff" d="M941.09,-80.03C958.78,-83.53 977.63,-87.26 995.37,-90.76"/>
<polygon fill="#63b8ff" stroke="#63b8ff" points="995.18,-94.29 1005.67,-92.8 996.54,-87.42 995.18,-94.29"/>
</a>
</g>
</g>
<!-- Node16 -->
<g id="Node000016" class="node">
<title>Node16</title>
<g id="a_Node000016"><a xlink:href="classwmtk_1_1_tuple.html#a0023f575be92cd5ceeeaaaa3762ea06d" target="_top" xlink:title="Checks if a tuple is &quot;null&quot;. This merely implies the global index is &#45;1.">
<polygon fill="white" stroke="#666666" points="2048.5,-508.5 1935.5,-508.5 1935.5,-489.5 2048.5,-489.5 2048.5,-508.5"/>
<text text-anchor="middle" x="1992" y="-496.5" font-family="Helvetica,sans-Serif" font-size="10.00">wmtk::Tuple::is_null</text>
</a>
</g>
</g>
<!-- Node15&#45;&gt;Node16 -->
<g id="edge20_Node000015_Node000016" class="edge">
<title>Node15&#45;&gt;Node16</title>
<g id="a_edge20_Node000015_Node000016"><a xlink:title=" ">
<path fill="none" stroke="#63b8ff" d="M1792.02,-447.64C1816,-456.97 1854.08,-470.99 1888,-480 1900,-483.19 1912.92,-486.02 1925.42,-488.47"/>
<polygon fill="#63b8ff" stroke="#63b8ff" points="1924.85,-491.93 1935.32,-490.35 1926.15,-485.05 1924.85,-491.93"/>
</a>
</g>
</g>
<!-- Node17 -->
<g id="Node000017" class="node">
<title>Node17</title>
<g id="a_Node000017"><a xlink:href="classwmtk_1_1_mesh.html#ade176d345902d97af8c5da04aa3a095b" target="_top" xlink:title=" ">
<polygon fill="white" stroke="#666666" points="2062,-453.5 1922,-453.5 1922,-434.5 2062,-434.5 2062,-453.5"/>
<text text-anchor="middle" x="1992" y="-441.5" font-family="Helvetica,sans-Serif" font-size="10.00">wmtk::Mesh::is_removed</text>
</a>
</g>
</g>
<!-- Node15&#45;&gt;Node17 -->
<g id="edge21_Node000015_Node000017" class="edge">
<title>Node15&#45;&gt;Node17</title>
<g id="a_edge21_Node000015_Node000017"><a xlink:title=" ">
<path fill="none" stroke="#63b8ff" d="M1827.17,-439.59C1853.03,-440.29 1883.74,-441.11 1911.55,-441.86"/>
<polygon fill="#63b8ff" stroke="#63b8ff" points="1911.56,-445.36 1921.65,-442.13 1911.75,-438.37 1911.56,-445.36"/>
</a>
</g>
</g>
<!-- Node17&#45;&gt;Node17 -->
<g id="edge22_Node000017_Node000017" class="edge">
<title>Node17&#45;&gt;Node17</title>
<g id="a_edge22_Node000017_Node000017"><a xlink:title=" ">
<path fill="none" stroke="#63b8ff" d="M1964.26,-453.58C1950.76,-462.23 1960.01,-471.5 1992,-471.5 2013.49,-471.5 2024.72,-467.32 2025.68,-461.95"/>
<polygon fill="#63b8ff" stroke="#63b8ff" points="2028.39,-459.71 2019.74,-453.58 2022.68,-463.76 2028.39,-459.71"/>
</a>
</g>
</g>
<!-- Node19 -->
<g id="Node000019" class="node">
<title>Node19</title>
<g id="a_Node000019"><a xlink:href="classwmtk_1_1multimesh_1_1_multi_mesh_manager.html#ac385f8fb3dd7d7ac3c0ce66f35fa46bf" target="_top" xlink:title="maps a simplex from this mesh to the root mesh">
<polygon fill="white" stroke="#666666" points="748,-234 588,-234 588,-204 748,-204 748,-234"/>
<text text-anchor="start" x="596" y="-222" font-family="Helvetica,sans-Serif" font-size="10.00">wmtk::multimesh::MultiMesh</text>
<text text-anchor="middle" x="668" y="-211" font-family="Helvetica,sans-Serif" font-size="10.00">Manager::map_to_root</text>
</a>
</g>
</g>
<!-- Node18&#45;&gt;Node19 -->
<g id="edge24_Node000018_Node000019" class="edge">
<title>Node18&#45;&gt;Node19</title>
<g id="a_edge24_Node000018_Node000019"><a xlink:title=" ">
<path fill="none" stroke="#63b8ff" d="M542.04,-231.75C553.68,-230.56 565.87,-229.32 577.88,-228.09"/>
<polygon fill="#63b8ff" stroke="#63b8ff" points="578.32,-231.57 587.91,-227.07 577.61,-224.6 578.32,-231.57"/>
</a>
</g>
</g>
<!-- Node19&#45;&gt;Node8 -->
<g id="edge25_Node000019_Node000008" class="edge">
<title>Node19&#45;&gt;Node8</title>
<g id="a_edge25_Node000019_Node000008"><a xlink:title=" ">
<path fill="none" stroke="#63b8ff" d="M748.19,-232.06C756.62,-233.45 765.24,-234.87 773.78,-236.28"/>
<polygon fill="#63b8ff" stroke="#63b8ff" points="773.32,-239.75 783.75,-237.93 774.45,-232.85 773.32,-239.75"/>
</a>
</g>
</g>
<!-- Node20 -->
<g id="Node000020" class="node">
<title>Node20</title>
<g id="a_Node000020"><a xlink:href="classwmtk_1_1multimesh_1_1_multi_mesh_manager.html#a04ea5ec1326046461d38b0dd74ded250" target="_top" xlink:title="maps a simplex from this mesh to the root mesh">
<polygon fill="white" stroke="#666666" points="944,-214 784,-214 784,-184 944,-184 944,-214"/>
<text text-anchor="start" x="792" y="-202" font-family="Helvetica,sans-Serif" font-size="10.00">wmtk::multimesh::MultiMesh</text>
<text text-anchor="middle" x="864" y="-191" font-family="Helvetica,sans-Serif" font-size="10.00">Manager::map_to_root_tuple</text>
</a>
</g>
</g>
<!-- Node19&#45;&gt;Node20 -->
<g id="edge26_Node000019_Node000020" class="edge">
<title>Node19&#45;&gt;Node20</title>
<g id="a_edge26_Node000019_Node000020"><a xlink:title=" ">
<path fill="none" stroke="#63b8ff" d="M748.19,-210.84C756.62,-209.97 765.24,-209.08 773.78,-208.2"/>
<polygon fill="#63b8ff" stroke="#63b8ff" points="774.16,-211.68 783.75,-207.17 773.45,-204.71 774.16,-211.68"/>
</a>
</g>
</g>
<!-- Node36 -->
<g id="Node000036" class="node">
<title>Node36</title>
<g id="a_Node000036"><a xlink:href="classwmtk_1_1simplex_1_1_simplex.html#ad2cc0340a0772b7d6f03ba7a781d1163" target="_top" xlink:title=" ">
<polygon fill="white" stroke="#666666" points="2059.5,-30 1924.5,-30 1924.5,0 2059.5,0 2059.5,-30"/>
<text text-anchor="start" x="1932.5" y="-18" font-family="Helvetica,sans-Serif" font-size="10.00">wmtk::simplex::Simplex</text>
<text text-anchor="middle" x="1992" y="-7" font-family="Helvetica,sans-Serif" font-size="10.00">::primitive_type</text>
</a>
</g>
</g>
<!-- Node19&#45;&gt;Node36 -->
<g id="edge53_Node000019_Node000036" class="edge">
<title>Node19&#45;&gt;Node36</title>
<g id="a_edge53_Node000019_Node000036"><a xlink:title=" ">
<path fill="none" stroke="#63b8ff" d="M702.01,-203.85C724.63,-194.1 755.56,-182 784,-175 950.43,-134.06 997,-151.85 1167,-130 1442.27,-94.62 1768.5,-47.57 1914.14,-26.29"/>
<polygon fill="#63b8ff" stroke="#63b8ff" points="1914.92,-29.72 1924.31,-24.81 1913.91,-22.79 1914.92,-29.72"/>
</a>
</g>
</g>
<!-- Node20&#45;&gt;Node14 -->
<g id="edge52_Node000020_Node000014" class="edge">
<title>Node20&#45;&gt;Node14</title>
<g id="a_edge52_Node000020_Node000014"><a xlink:title=" ">
<path fill="none" stroke="#63b8ff" d="M898.8,-183.85C934.37,-167.91 990.48,-142.76 1029.25,-125.38"/>
<polygon fill="#63b8ff" stroke="#63b8ff" points="1031.02,-128.43 1038.71,-121.14 1028.16,-122.04 1031.02,-128.43"/>
</a>
</g>
</g>
<!-- Node21 -->
<g id="Node000021" class="node">
<title>Node21</title>
<g id="a_Node000021"><a xlink:href="classwmtk_1_1multimesh_1_1_multi_mesh_manager.html#abbd5b4aab00a9ebb113bc6fe5bb635bd" target="_top" xlink:title=" ">
<polygon fill="white" stroke="#666666" points="1167,-214 980,-214 980,-184 1167,-184 1167,-214"/>
<text text-anchor="start" x="988" y="-202" font-family="Helvetica,sans-Serif" font-size="10.00">wmtk::multimesh::MultiMesh</text>
<text text-anchor="middle" x="1073.5" y="-191" font-family="Helvetica,sans-Serif" font-size="10.00">Manager::map_tuple_to_root_tuple</text>
</a>
</g>
</g>
<!-- Node20&#45;&gt;Node21 -->
<g id="edge27_Node000020_Node000021" class="edge">
<title>Node20&#45;&gt;Node21</title>
<g id="a_edge27_Node000020_Node000021"><a xlink:title=" ">
<path fill="none" stroke="#63b8ff" d="M944.04,-199C952.44,-199 961.06,-199 969.68,-199"/>
<polygon fill="#63b8ff" stroke="#63b8ff" points="969.78,-202.5 979.78,-199 969.78,-195.5 969.78,-202.5"/>
</a>
</g>
</g>
<!-- Node21&#45;&gt;Node9 -->
<g id="edge28_Node000021_Node000009" class="edge">
<title>Node21&#45;&gt;Node9</title>
<g id="a_edge28_Node000021_Node000009"><a xlink:title=" ">
<path fill="none" stroke="#63b8ff" d="M1167.22,-212.91C1249.78,-225.3 1369.79,-243.31 1451.39,-255.55"/>
<polygon fill="#63b8ff" stroke="#63b8ff" points="1451.24,-259.07 1461.65,-257.09 1452.28,-252.15 1451.24,-259.07"/>
</a>
</g>
</g>
<!-- Node21&#45;&gt;Node21 -->
<g id="edge51_Node000021_Node000021" class="edge">
<title>Node21&#45;&gt;Node21</title>
<g id="a_edge51_Node000021_Node000021"><a xlink:title=" ">
<path fill="none" stroke="#63b8ff" d="M1036.94,-214.28C1028.81,-223.41 1041,-232 1073.5,-232 1092.8,-232 1104.93,-228.97 1109.91,-224.6"/>
<polygon fill="#63b8ff" stroke="#63b8ff" points="1113.41,-224.33 1110.06,-214.28 1106.41,-224.22 1113.41,-224.33"/>
</a>
</g>
</g>
<!-- Node22 -->
<g id="Node000022" class="node">
<title>Node22</title>
<g id="a_Node000022"><a xlink:href="classwmtk_1_1multimesh_1_1_multi_mesh_manager.html#af6fd8d8b5cc1e8b2c877718b99374f03" target="_top" xlink:title=" ">
<polygon fill="white" stroke="#666666" points="1402,-205 1203,-205 1203,-175 1402,-175 1402,-205"/>
<text text-anchor="start" x="1211" y="-193" font-family="Helvetica,sans-Serif" font-size="10.00">wmtk::multimesh::MultiMesh</text>
<text text-anchor="middle" x="1302.5" y="-182" font-family="Helvetica,sans-Serif" font-size="10.00">Manager::map_tuple_to_parent_tuple</text>
</a>
</g>
</g>
<!-- Node21&#45;&gt;Node22 -->
<g id="edge29_Node000021_Node000022" class="edge">
<title>Node21&#45;&gt;Node22</title>
<g id="a_edge29_Node000021_Node000022"><a xlink:title=" ">
<path fill="none" stroke="#63b8ff" d="M1167.16,-195.33C1175.62,-194.99 1184.23,-194.65 1192.82,-194.31"/>
<polygon fill="#63b8ff" stroke="#63b8ff" points="1193.01,-197.8 1202.86,-193.91 1192.73,-190.81 1193.01,-197.8"/>
</a>
</g>
</g>
<!-- Node22&#45;&gt;Node9 -->
<g id="edge31_Node000022_Node000009" class="edge">
<title>Node22&#45;&gt;Node9</title>
<g id="a_edge31_Node000022_Node000009"><a xlink:title=" ">
<path fill="none" stroke="#63b8ff" d="M1366.45,-205.06C1378.53,-208.91 1390.88,-213.55 1402,-219 1419.72,-227.69 1420.04,-236.82 1438,-245 1442.58,-247.09 1447.36,-249 1452.25,-250.76"/>
<polygon fill="#63b8ff" stroke="#63b8ff" points="1451.16,-254.08 1461.75,-253.94 1453.38,-247.44 1451.16,-254.08"/>
</a>
</g>
</g>
<!-- Node23 -->
<g id="Node000023" class="node">
<title>Node23</title>
<g id="a_Node000023"><a xlink:href="classwmtk_1_1_mesh.html#a357182137d99f1e4a7ff536eadfc0e56" target="_top" xlink:title=" ">
<polygon fill="white" stroke="#666666" points="1598.5,-236 1485.5,-236 1485.5,-206 1598.5,-206 1598.5,-236"/>
<text text-anchor="start" x="1493.5" y="-224" font-family="Helvetica,sans-Serif" font-size="10.00">wmtk::Mesh::create</text>
<text text-anchor="middle" x="1542" y="-213" font-family="Helvetica,sans-Serif" font-size="10.00">_const_accessor</text>
</a>
</g>
</g>
<!-- Node22&#45;&gt;Node23 -->
<g id="edge30_Node000022_Node000023" class="edge">
<title>Node22&#45;&gt;Node23</title>
<g id="a_edge30_Node000022_Node000023"><a xlink:title=" ">
<path fill="none" stroke="#63b8ff" d="M1402.16,-202.88C1426.8,-206.09 1452.64,-209.47 1475.25,-212.42"/>
<polygon fill="#63b8ff" stroke="#63b8ff" points="1475.03,-215.92 1485.4,-213.74 1475.93,-208.98 1475.03,-215.92"/>
</a>
</g>
</g>
<!-- Node24 -->
<g id="Node000024" class="node">
<title>Node24</title>
<g id="a_Node000024"><a xlink:href="classwmtk_1_1multimesh_1_1_multi_mesh_manager.html#a6f9186ced3e97aef2a0af71a3aa5c6a0" target="_top" xlink:title=" ">
<polygon fill="white" stroke="#666666" points="1646,-188 1438,-188 1438,-158 1646,-158 1646,-188"/>
<text text-anchor="start" x="1446" y="-176" font-family="Helvetica,sans-Serif" font-size="10.00">wmtk::multimesh::MultiMesh</text>
<text text-anchor="middle" x="1542" y="-165" font-family="Helvetica,sans-Serif" font-size="10.00">Manager::map_tuple_between_meshes</text>
</a>
</g>
</g>
<!-- Node22&#45;&gt;Node24 -->
<g id="edge32_Node000022_Node000024" class="edge">
<title>Node22&#45;&gt;Node24</title>
<g id="a_edge32_Node000022_Node000024"><a xlink:title=" ">
<path fill="none" stroke="#63b8ff" d="M1402.16,-182.94C1410.59,-182.33 1419.15,-181.72 1427.68,-181.11"/>
<polygon fill="#63b8ff" stroke="#63b8ff" points="1427.94,-184.6 1437.67,-180.4 1427.44,-177.62 1427.94,-184.6"/>
</a>
</g>
</g>
<!-- Node24&#45;&gt;Node15 -->
<g id="edge33_Node000024_Node000015" class="edge">
<title>Node24&#45;&gt;Node15</title>
<g id="a_edge33_Node000024_Node000015"><a xlink:title=" ">
<path fill="none" stroke="#63b8ff" d="M1635.57,-188.18C1639.35,-190.73 1642.86,-193.65 1646,-197 1712.59,-267.98 1617.58,-340.05 1682,-413 1686.36,-417.94 1691.65,-421.92 1697.43,-425.13"/>
<polygon fill="#63b8ff" stroke="#63b8ff" points="1696.32,-428.48 1706.85,-429.57 1699.3,-422.14 1696.32,-428.48"/>
</a>
</g>
</g>
<!-- Node25 -->
<g id="Node000025" class="node">
<title>Node25</title>
<g id="a_Node000025"><a xlink:href="namespacewmtk_1_1multimesh_1_1utils.html#a7d748ef4839b09a5460e8af97b9fa678" target="_top" xlink:title=" ">
<polygon fill="white" stroke="#666666" points="1841.5,-236 1692.5,-236 1692.5,-206 1841.5,-206 1841.5,-236"/>
<text text-anchor="start" x="1700.5" y="-224" font-family="Helvetica,sans-Serif" font-size="10.00">wmtk::multimesh::utils</text>
<text text-anchor="middle" x="1767" y="-213" font-family="Helvetica,sans-Serif" font-size="10.00">::read_tuple_map_attribute</text>
</a>
</g>
</g>
<!-- Node24&#45;&gt;Node25 -->
<g id="edge34_Node000024_Node000025" class="edge">
<title>Node24&#45;&gt;Node25</title>
<g id="a_edge34_Node000024_Node000025"><a xlink:title=" ">
<path fill="none" stroke="#63b8ff" d="M1612.95,-188.06C1636.3,-193.08 1662.49,-198.72 1686.51,-203.89"/>
<polygon fill="#63b8ff" stroke="#63b8ff" points="1685.79,-207.31 1696.3,-206 1687.26,-200.47 1685.79,-207.31"/>
</a>
</g>
</g>
<!-- Node30 -->
<g id="Node000030" class="node">
<title>Node30</title>
<g id="a_Node000030"><a xlink:href="classwmtk_1_1_mesh.html#a965a8a24158c4aa8580c57ba09f885f7" target="_top" xlink:title="switch the orientation of the Tuple of the given dimension">
<polygon fill="white" stroke="#666666" points="1824,-188 1710,-188 1710,-158 1824,-158 1824,-188"/>
<text text-anchor="start" x="1718" y="-176" font-family="Helvetica,sans-Serif" font-size="10.00">wmtk::Mesh::switch</text>
<text text-anchor="middle" x="1767" y="-165" font-family="Helvetica,sans-Serif" font-size="10.00">_tuple</text>
</a>
</g>
</g>
<!-- Node24&#45;&gt;Node30 -->
<g id="edge39_Node000024_Node000030" class="edge">
<title>Node24&#45;&gt;Node30</title>
<g id="a_edge39_Node000024_Node000030"><a xlink:title=" ">
<path fill="none" stroke="#63b8ff" d="M1646.01,-173C1664.25,-173 1682.8,-173 1699.68,-173"/>
<polygon fill="#63b8ff" stroke="#63b8ff" points="1699.96,-176.5 1709.96,-173 1699.96,-169.5 1699.96,-176.5"/>
</a>
</g>
</g>
<!-- Node31 -->
<g id="Node000031" class="node">
<title>Node31</title>
<g id="a_Node000031"><a xlink:href="namespacewmtk_1_1simplex.html#a0101f27eb2ad82814390b92ab1a4d1a0" target="_top" xlink:title=" ">
<polygon fill="white" stroke="#666666" points="1842.5,-140 1691.5,-140 1691.5,-110 1842.5,-110 1842.5,-140"/>
<text text-anchor="start" x="1699.5" y="-128" font-family="Helvetica,sans-Serif" font-size="10.00">wmtk::simplex::top</text>
<text text-anchor="middle" x="1767" y="-117" font-family="Helvetica,sans-Serif" font-size="10.00">_dimension_cofaces_tuples</text>
</a>
</g>
</g>
<!-- Node24&#45;&gt;Node31 -->
<g id="edge40_Node000024_Node000031" class="edge">
<title>Node24&#45;&gt;Node31</title>
<g id="a_edge40_Node000024_Node000031"><a xlink:title=" ">
<path fill="none" stroke="#63b8ff" d="M1612.95,-157.94C1636.3,-152.92 1662.49,-147.28 1686.51,-142.11"/>
<polygon fill="#63b8ff" stroke="#63b8ff" points="1687.26,-145.53 1696.3,-140 1685.79,-138.69 1687.26,-145.53"/>
</a>
</g>
</g>
<!-- Node37 -->
<g id="Node000037" class="node">
<title>Node37</title>
<g id="a_Node000037"><a xlink:href="classwmtk_1_1_mesh.html#abaf00438d0700358b160e310d69725c9" target="_top" xlink:title=" ">
<polygon fill="white" stroke="#666666" points="1852,-404.5 1682,-404.5 1682,-385.5 1852,-385.5 1852,-404.5"/>
<text text-anchor="middle" x="1767" y="-392.5" font-family="Helvetica,sans-Serif" font-size="10.00">wmtk::Mesh::top_simplex_type</text>
</a>
</g>
</g>
<!-- Node24&#45;&gt;Node37 -->
<g id="edge46_Node000024_Node000037" class="edge">
<title>Node24&#45;&gt;Node37</title>
<g id="a_edge46_Node000024_Node000037"><a xlink:title=" ">
<path fill="none" stroke="#63b8ff" d="M1634.96,-188.03C1638.95,-190.61 1642.67,-193.58 1646,-197 1701.14,-253.53 1628.27,-313.12 1682,-371 1685.52,-374.79 1689.6,-378 1694.02,-380.71"/>
<polygon fill="#63b8ff" stroke="#63b8ff" points="1692.4,-383.82 1702.88,-385.34 1695.64,-377.61 1692.4,-383.82"/>
</a>
</g>
</g>
<!-- Node39 -->
<g id="Node000039" class="node">
<title>Node39</title>
<g id="a_Node000039"><a xlink:href="namespacewmtk_1_1multimesh_1_1utils.html#aa0392bf28bb6c304127cf0eea634fee8" target="_top" xlink:title=" ">
<polygon fill="white" stroke="#666666" points="1832,-362 1702,-362 1702,-332 1832,-332 1832,-362"/>
<text text-anchor="start" x="1710" y="-350" font-family="Helvetica,sans-Serif" font-size="10.00">wmtk::multimesh::utils</text>
<text text-anchor="middle" x="1767" y="-339" font-family="Helvetica,sans-Serif" font-size="10.00">::transport_tuple</text>
</a>
</g>
</g>
<!-- Node24&#45;&gt;Node39 -->
<g id="edge48_Node000024_Node000039" class="edge">
<title>Node24&#45;&gt;Node39</title>
<g id="a_edge48_Node000024_Node000039"><a xlink:title=" ">
<path fill="none" stroke="#63b8ff" d="M1628.98,-188.04C1634.95,-190.57 1640.69,-193.54 1646,-197 1668.33,-211.57 1665.52,-224.04 1682,-245 1703.68,-272.58 1729.44,-303.61 1746.66,-324.12"/>
<polygon fill="#63b8ff" stroke="#63b8ff" points="1744.14,-326.57 1753.26,-331.97 1749.5,-322.06 1744.14,-326.57"/>
</a>
</g>
</g>
<!-- Node26 -->
<g id="Node000026" class="node">
<title>Node26</title>
<g id="a_Node000026"><a xlink:href="classwmtk_1_1attribute_1_1_accessor.html#a4b89ff4381fe73d4827b663203a964fc" target="_top" xlink:title=" ">
<polygon fill="white" stroke="#666666" points="2063,-260 1921,-260 1921,-230 2063,-230 2063,-260"/>
<text text-anchor="start" x="1929" y="-248" font-family="Helvetica,sans-Serif" font-size="10.00">wmtk::attribute::Accessor</text>
<text text-anchor="middle" x="1992" y="-237" font-family="Helvetica,sans-Serif" font-size="10.00">::const_vector_attribute</text>
</a>
</g>
</g>
<!-- Node25&#45;&gt;Node26 -->
<g id="edge35_Node000025_Node000026" class="edge">
<title>Node25&#45;&gt;Node26</title>
<g id="a_edge35_Node000025_Node000026"><a xlink:title=" ">
<path fill="none" stroke="#63b8ff" d="M1841.64,-228.93C1863.75,-231.3 1888.12,-233.93 1910.64,-236.35"/>
<polygon fill="#63b8ff" stroke="#63b8ff" points="1910.53,-239.86 1920.85,-237.45 1911.28,-232.9 1910.53,-239.86"/>
</a>
</g>
</g>
<!-- Node27 -->
<g id="Node000027" class="node">
<title>Node27</title>
<g id="a_Node000027"><a xlink:href="classwmtk_1_1attribute_1_1_tuple_accessor.html#adf0b07ce3ed74d51723e2beed2d3f25e" target="_top" xlink:title=" ">
<polygon fill="white" stroke="#666666" points="2075.5,-212 1908.5,-212 1908.5,-182 2075.5,-182 2075.5,-212"/>
<text text-anchor="start" x="1916.5" y="-200" font-family="Helvetica,sans-Serif" font-size="10.00">wmtk::attribute::TupleAccessor</text>
<text text-anchor="middle" x="1992" y="-189" font-family="Helvetica,sans-Serif" font-size="10.00">::const_vector_attribute</text>
</a>
</g>
</g>
<!-- Node25&#45;&gt;Node27 -->
<g id="edge36_Node000025_Node000027" class="edge">
<title>Node25&#45;&gt;Node27</title>
<g id="a_edge36_Node000025_Node000027"><a xlink:title=" ">
<path fill="none" stroke="#63b8ff" d="M1841.64,-213.07C1859.7,-211.13 1879.27,-209.02 1898.12,-207"/>
<polygon fill="#63b8ff" stroke="#63b8ff" points="1898.62,-210.46 1908.19,-205.91 1897.87,-203.5 1898.62,-210.46"/>
</a>
</g>
</g>
<!-- Node28 -->
<g id="Node000028" class="node">
<title>Node28</title>
<g id="a_Node000028"><a xlink:href="classwmtk_1_1attribute_1_1_accessor_base.html#abd60539d5779de287d2a0ec31b16c77a" target="_top" xlink:title=" ">
<polygon fill="white" stroke="#666666" points="2063,-164 1921,-164 1921,-134 2063,-134 2063,-164"/>
<text text-anchor="start" x="1929" y="-152" font-family="Helvetica,sans-Serif" font-size="10.00">wmtk::attribute::Accessor</text>
<text text-anchor="middle" x="1992" y="-141" font-family="Helvetica,sans-Serif" font-size="10.00">Base::dimension</text>
</a>
</g>
</g>
<!-- Node25&#45;&gt;Node28 -->
<g id="edge37_Node000025_Node000028" class="edge">
<title>Node25&#45;&gt;Node28</title>
<g id="a_edge37_Node000025_Node000028"><a xlink:title=" ">
<path fill="none" stroke="#63b8ff" d="M1829.37,-205.87C1837.13,-203.27 1844.84,-200.31 1852,-197 1869.45,-188.93 1870.35,-180.64 1888,-173 1895.37,-169.81 1903.22,-167.01 1911.18,-164.56"/>
<polygon fill="#63b8ff" stroke="#63b8ff" points="1912.29,-167.89 1920.92,-161.74 1910.34,-161.16 1912.29,-167.89"/>
</a>
</g>
</g>
<!-- Node29 -->
<g id="Node000029" class="node">
<title>Node29</title>
<g id="a_Node000029"><a xlink:href="classwmtk_1_1attribute_1_1_tuple_accessor.html#a8d04c3529eb7adeead49e8faa7a119db" target="_top" xlink:title=" ">
<polygon fill="white" stroke="#666666" points="2075.5,-308 1908.5,-308 1908.5,-278 2075.5,-278 2075.5,-308"/>
<text text-anchor="start" x="1916.5" y="-296" font-family="Helvetica,sans-Serif" font-size="10.00">wmtk::attribute::TupleAccessor</text>
<text text-anchor="middle" x="1992" y="-285" font-family="Helvetica,sans-Serif" font-size="10.00">::dimension</text>
</a>
</g>
</g>
<!-- Node25&#45;&gt;Node29 -->
<g id="edge38_Node000025_Node000029" class="edge">
<title>Node25&#45;&gt;Node29</title>
<g id="a_edge38_Node000025_Node000029"><a xlink:title=" ">
<path fill="none" stroke="#63b8ff" d="M1801.64,-236.05C1825.43,-246.3 1858.25,-259.64 1888,-269 1895.12,-271.24 1902.59,-273.38 1910.1,-275.38"/>
<polygon fill="#63b8ff" stroke="#63b8ff" points="1909.41,-278.82 1919.97,-277.94 1911.17,-272.04 1909.41,-278.82"/>
</a>
</g>
</g>
<!-- Node32 -->
<g id="Node000032" class="node">
<title>Node32</title>
<g id="a_Node000032"><a xlink:href="classwmtk_1_1simplex_1_1_simplex_collection.html#a1e7079b3b75f70dd28c524556cab76cf" target="_top" xlink:title="Add simplex to the collection.">
<polygon fill="white" stroke="#666666" points="2096,-67.5 1888,-67.5 1888,-48.5 2096,-48.5 2096,-67.5"/>
<text text-anchor="middle" x="1992" y="-55.5" font-family="Helvetica,sans-Serif" font-size="10.00">wmtk::simplex::SimplexCollection::add</text>
</a>
</g>
</g>
<!-- Node31&#45;&gt;Node32 -->
<g id="edge41_Node000031_Node000032" class="edge">
<title>Node31&#45;&gt;Node32</title>
<g id="a_edge41_Node000031_Node000032"><a xlink:title=" ">
<path fill="none" stroke="#63b8ff" d="M1815.58,-109.99C1827.6,-105.82 1840.39,-101.03 1852,-96 1868.6,-88.8 1870.91,-82.93 1888,-77 1895.96,-74.24 1904.42,-71.85 1912.93,-69.8"/>
<polygon fill="#63b8ff" stroke="#63b8ff" points="1913.94,-73.16 1922.92,-67.53 1912.4,-66.33 1913.94,-73.16"/>
</a>
</g>
</g>
<!-- Node33 -->
<g id="Node000033" class="node">
<title>Node33</title>
<g id="a_Node000033"><a xlink:href="namespacewmtk.html#a441d6ad4f19569c7d4946e743da1a925" target="_top" xlink:title=" ">
<polygon fill="white" stroke="#666666" points="2053,-116 1931,-116 1931,-86 2053,-86 2053,-116"/>
<text text-anchor="start" x="1939" y="-104" font-family="Helvetica,sans-Serif" font-size="10.00">wmtk::log_and_throw</text>
<text text-anchor="middle" x="1992" y="-93" font-family="Helvetica,sans-Serif" font-size="10.00">_error</text>
</a>
</g>
</g>
<!-- Node31&#45;&gt;Node33 -->
<g id="edge42_Node000031_Node000033" class="edge">
<title>Node31&#45;&gt;Node33</title>
<g id="a_edge42_Node000031_Node000033"><a xlink:title=" ">
<path fill="none" stroke="#63b8ff" d="M1842.57,-116.97C1867.83,-114.26 1895.94,-111.23 1920.85,-108.55"/>
<polygon fill="#63b8ff" stroke="#63b8ff" points="1921.37,-112.01 1930.94,-107.46 1920.63,-105.05 1921.37,-112.01"/>
</a>
</g>
</g>
<!-- Node31&#45;&gt;Node36 -->
<g id="edge45_Node000031_Node000036" class="edge">
<title>Node31&#45;&gt;Node36</title>
<g id="a_edge45_Node000031_Node000036"><a xlink:title=" ">
<path fill="none" stroke="#63b8ff" d="M1828,-109.95C1836.56,-106.24 1844.87,-101.65 1852,-96 1875.49,-77.39 1863.58,-56.37 1888,-39 1896.02,-33.29 1905.21,-28.92 1914.71,-25.58"/>
<polygon fill="#63b8ff" stroke="#63b8ff" points="1915.8,-28.91 1924.29,-22.57 1913.7,-22.23 1915.8,-28.91"/>
</a>
</g>
</g>
<!-- Node34 -->
<g id="Node000034" class="node">
<title>Node34</title>
<g id="a_Node000034"><a xlink:href="namespacewmtk.html#a6a35f11c12436093d26fdd8be6fecc06" target="_top" xlink:title="Retrieves the current logger.">
<polygon fill="white" stroke="#666666" points="2213,-110.5 2132,-110.5 2132,-91.5 2213,-91.5 2213,-110.5"/>
<text text-anchor="middle" x="2172.5" y="-98.5" font-family="Helvetica,sans-Serif" font-size="10.00">wmtk::logger</text>
</a>
</g>
</g>
<!-- Node33&#45;&gt;Node34 -->
<g id="edge43_Node000033_Node000034" class="edge">
<title>Node33&#45;&gt;Node34</title>
<g id="a_edge43_Node000033_Node000034"><a xlink:title=" ">
<path fill="none" stroke="#63b8ff" d="M2053.43,-101C2075.68,-101 2100.61,-101 2121.81,-101"/>
<polygon fill="#63b8ff" stroke="#63b8ff" points="2121.89,-104.5 2131.89,-101 2121.89,-97.5 2121.89,-104.5"/>
</a>
</g>
</g>
<!-- Node35 -->
<g id="Node000035" class="node">
<title>Node35</title>
<g id="a_Node000035"><a xlink:href="namespacewmtk.html#a3daa7951a5f8b78cf4600dc047fcc180" target="_top" xlink:title="Setup a logger object to be used by WildmeshToolkit.">
<polygon fill="white" stroke="#666666" points="2350,-110.5 2249,-110.5 2249,-91.5 2350,-91.5 2350,-110.5"/>
<text text-anchor="middle" x="2299.5" y="-98.5" font-family="Helvetica,sans-Serif" font-size="10.00">wmtk::set_logger</text>
</a>
</g>
</g>
<!-- Node34&#45;&gt;Node35 -->
<g id="edge44_Node000034_Node000035" class="edge">
<title>Node34&#45;&gt;Node35</title>
<g id="a_edge44_Node000034_Node000035"><a xlink:title=" ">
<path fill="none" stroke="#63b8ff" d="M2213.05,-101C2221.17,-101 2229.9,-101 2238.55,-101"/>
<polygon fill="#63b8ff" stroke="#63b8ff" points="2238.65,-104.5 2248.65,-101 2238.65,-97.5 2238.65,-104.5"/>
</a>
</g>
</g>
<!-- Node38 -->
<g id="Node000038" class="node">
<title>Node38</title>
<g id="a_Node000038"><a xlink:href="classwmtk_1_1_mesh.html#a933f681cf24a63b155c9462280385200" target="_top" xlink:title=" ">
<polygon fill="white" stroke="#666666" points="2052.5,-416 1931.5,-416 1931.5,-386 2052.5,-386 2052.5,-416"/>
<text text-anchor="start" x="1939.5" y="-404" font-family="Helvetica,sans-Serif" font-size="10.00">wmtk::Mesh::top_cell</text>
<text text-anchor="middle" x="1992" y="-393" font-family="Helvetica,sans-Serif" font-size="10.00">_dimension</text>
</a>
</g>
</g>
<!-- Node37&#45;&gt;Node38 -->
<g id="edge47_Node000037_Node000038" class="edge">
<title>Node37&#45;&gt;Node38</title>
<g id="a_edge47_Node000037_Node000038"><a xlink:title=" ">
<path fill="none" stroke="#63b8ff" d="M1852.31,-397.27C1874.99,-397.88 1899.26,-398.53 1921.07,-399.12"/>
<polygon fill="#63b8ff" stroke="#63b8ff" points="1921.13,-402.62 1931.22,-399.39 1921.32,-395.62 1921.13,-402.62"/>
</a>
</g>
</g>
<!-- Node40 -->
<g id="Node000040" class="node">
<title>Node40</title>
<g id="a_Node000040"><a xlink:href="namespacewmtk_1_1multimesh_1_1utils_1_1internal.html#a11885fe5aebd05551827804b0142945d" target="_top" xlink:title=" ">
<polygon fill="white" stroke="#666666" points="2057,-367.5 1927,-367.5 1927,-326.5 2057,-326.5 2057,-367.5"/>
<text text-anchor="start" x="1935" y="-355.5" font-family="Helvetica,sans-Serif" font-size="10.00">wmtk::multimesh::utils</text>
<text text-anchor="start" x="1935" y="-344.5" font-family="Helvetica,sans-Serif" font-size="10.00">::internal::transport</text>
<text text-anchor="middle" x="1992" y="-333.5" font-family="Helvetica,sans-Serif" font-size="10.00">_tuple_dart</text>
</a>
</g>
</g>
<!-- Node39&#45;&gt;Node40 -->
<g id="edge49_Node000039_Node000040" class="edge">
<title>Node39&#45;&gt;Node40</title>
<g id="a_edge49_Node000039_Node000040"><a xlink:title=" ">
<path fill="none" stroke="#63b8ff" d="M1832.2,-340.82C1858.56,-340.15 1889.24,-340.07 1916.57,-340.59"/>
<polygon fill="#63b8ff" stroke="#63b8ff" points="1916.79,-344.1 1926.87,-340.82 1916.95,-337.1 1916.79,-344.1"/>
</a>
</g>
</g>
<!-- Node40&#45;&gt;Node39 -->
<g id="edge50_Node000040_Node000039" class="edge">
<title>Node40&#45;&gt;Node39</title>
<g id="a_edge50_Node000040_Node000039"><a xlink:title=" ">
<path fill="none" stroke="#63b8ff" d="M1926.87,-353.18C1900.52,-353.85 1869.83,-353.93 1842.5,-353.41"/>
<polygon fill="#63b8ff" stroke="#63b8ff" points="1842.28,-349.9 1832.2,-353.18 1842.12,-356.9 1842.28,-349.9"/>
</a>
</g>
</g>
<!-- Node42&#45;&gt;Node3 -->
<g id="edge57_Node000042_Node000003" class="edge">
<title>Node42&#45;&gt;Node3</title>
<g id="a_edge57_Node000042_Node000003"><a xlink:title=" ">
<path fill="none" stroke="#63b8ff" d="M748.25,-540.1C803.92,-540.95 879.63,-538.01 944,-521 978.98,-511.76 1015.61,-492.42 1040.77,-477.4"/>
<polygon fill="#63b8ff" stroke="#63b8ff" points="1042.77,-480.28 1049.5,-472.09 1039.13,-474.3 1042.77,-480.28"/>
</a>
</g>
</g>
</g>
</svg>
