<?xml version="1.0" encoding="UTF-8" standalone="no"?>
<!DOCTYPE svg PUBLIC "-//W3C//DTD SVG 1.1//EN"
 "http://www.w3.org/Graphics/SVG/1.1/DTD/svg11.dtd">
<!-- Generated by graphviz version 2.43.0 (0)
 -->
<!-- Title: wmtk::components::output Pages: 1 -->
<!--zoomable 353 -->

<svg id="main" version="1.1" xmlns="http://www.w3.org/2000/svg" xmlns:xlink="http://www.w3.org/1999/xlink" xml:space="preserve" onload="init(evt)">
<style type="text/css"><![CDATA[
.node, .edge {opacity: 0.7;}
.node.selected, .edge.selected {opacity: 1;}
.edge:hover path { stroke: red; }
.edge:hover polygon { stroke: red; fill: red; }
]]></style>

<defs>
  <circle id="rim" cx="0" cy="0" r="7"/>
  <circle id="rim2" cx="0" cy="0" r="3.5"/>
  <g id="zoomPlus">
    <use xlink:href="#rim" fill="#404040"><set attributeName="fill" to="#808080" begin="zoomplus.mouseover" end="zoomplus.mouseout"/></use>
    <path d="M-4,0h8M0,-4v8" fill="none" stroke="white" stroke-width="1.5" pointer-events="none"/>
  </g>
  <g id="zoomMin">
    <use xlink:href="#rim" fill="#404040"><set attributeName="fill" to="#808080" begin="zoomminus.mouseover" end="zoomminus.mouseout"/></use>
    <path d="M-4,0h8" fill="none" stroke="white" stroke-width="1.5" pointer-events="none"/>
  </g>
  <g id="arrowUp" transform="translate(30 24)">
    <use xlink:href="#rim"/>
    <path pointer-events="none" fill="none" stroke="white" stroke-width="1.5" d="M0,-3.0v7 M-2.5,-0.5L0,-3.0L2.5,-0.5"/>
  </g>
  <g id="arrowRight" transform="rotate(90) translate(36 -43)">
    <use xlink:href="#rim"/>
    <path pointer-events="none" fill="none" stroke="white" stroke-width="1.5" d="M0,-3.0v7 M-2.5,-0.5L0,-3.0L2.5,-0.5"/>
  </g>
  <g id="arrowDown" transform="rotate(180) translate(-30 -48)">
    <use xlink:href="#rim"/>
    <path pointer-events="none" fill="none" stroke="white" stroke-width="1.5" d="M0,-3.0v7 M-2.5,-0.5L0,-3.0L2.5,-0.5"/>
  </g>
  <g id="arrowLeft" transform="rotate(270) translate(-36 17)">
    <use xlink:href="#rim"/>
    <path pointer-events="none" fill="none" stroke="white" stroke-width="1.5" d="M0,-3.0v7 M-2.5,-0.5L0,-3.0L2.5,-0.5"/>
  </g>
  <g id="resetDef">
    <use xlink:href="#rim2" fill="#404040"><set attributeName="fill" to="#808080" begin="reset.mouseover" end="reset.mouseout"/></use>
  </g>
</defs>
<script type="application/ecmascript">
var viewWidth = 929;
var viewHeight = 353;
var sectionId = 'dynsection-32';
</script>
<script type="application/ecmascript" xlink:href="svg.min.js"/>
<svg id="graph" class="graph">
<g id="viewport">
<title>wmtk::components::output</title>
<!-- Node1 -->
<g id="Node000001" class="node">
<title>Node1</title>
<g id="a_Node000001"><a xlink:title="Write the mesh to file.">
<polygon fill="#999999" stroke="#666666" points="148,-136.05 0,-136.05 0,-117.05 148,-117.05 148,-136.05"/>
<text text-anchor="middle" x="74" y="-124.05" font-family="Helvetica,sans-Serif" font-size="10.00">wmtk::components::output</text>
</a>
</g>
</g>
<!-- Node2 -->
<g id="Node000002" class="node">
<title>Node2</title>
<g id="a_Node000002"><a xlink:href="namespacewmtk.html#a6a35f11c12436093d26fdd8be6fecc06" target="_top" xlink:title="Retrieves the current logger.">
<polygon fill="white" stroke="#666666" points="312,-192.05 231,-192.05 231,-173.05 312,-173.05 312,-192.05"/>
<text text-anchor="middle" x="271.5" y="-180.05" font-family="Helvetica,sans-Serif" font-size="10.00">wmtk::logger</text>
</a>
</g>
</g>
<!-- Node1&#45;&gt;Node2 -->
<g id="edge1_Node000001_Node000002" class="edge">
<title>Node1&#45;&gt;Node2</title>
<g id="a_edge1_Node000001_Node000002"><a xlink:title=" ">
<path fill="none" stroke="#63b8ff" d="M99.39,-136.08C121.29,-144.39 154.45,-156.36 184,-164.55 195.78,-167.81 208.61,-170.79 220.69,-173.34"/>
<polygon fill="#63b8ff" stroke="#63b8ff" points="220.12,-176.79 230.62,-175.38 221.53,-169.94 220.12,-176.79"/>
</a>
</g>
</g>
<!-- Node4 -->
<g id="Node000004" class="node">
<title>Node4</title>
<g id="a_Node000004"><a xlink:href="namespacewmtk_1_1components.html#a0ea7ecd700fbe5fa3171ce6b1050c562" target="_top" xlink:title="Write the mesh to file.">
<polygon fill="white" stroke="#666666" points="359,-155.05 184,-155.05 184,-136.05 359,-136.05 359,-155.05"/>
<text text-anchor="middle" x="271.5" y="-143.05" font-family="Helvetica,sans-Serif" font-size="10.00">wmtk::components::output_hdf5</text>
</a>
</g>
</g>
<!-- Node1&#45;&gt;Node4 -->
<g id="edge3_Node000001_Node000004" class="edge">
<title>Node1&#45;&gt;Node4</title>
<g id="a_edge3_Node000001_Node000004"><a xlink:title=" ">
<path fill="none" stroke="#63b8ff" d="M148.07,-133.65C156.49,-134.47 165.17,-135.31 173.84,-136.15"/>
<polygon fill="#63b8ff" stroke="#63b8ff" points="173.71,-139.66 184,-137.14 174.38,-132.69 173.71,-139.66"/>
</a>
</g>
</g>
<!-- Node5 -->
<g id="Node000005" class="node">
<title>Node5</title>
<g id="a_Node000005"><a xlink:href="classwmtk_1_1_mesh.html#a32203cf93aa0cff5c2e5c1fac502ec27" target="_top" xlink:title=" ">
<polygon fill="white" stroke="#666666" points="519,-155.05 395,-155.05 395,-136.05 519,-136.05 519,-155.05"/>
<text text-anchor="middle" x="457" y="-143.05" font-family="Helvetica,sans-Serif" font-size="10.00">wmtk::Mesh::serialize</text>
</a>
</g>
</g>
<!-- Node1&#45;&gt;Node5 -->
<g id="edge18_Node000001_Node000005" class="edge">
<title>Node1&#45;&gt;Node5</title>
<g id="a_edge18_Node000001_Node000005"><a xlink:title=" ">
<path fill="none" stroke="#63b8ff" d="M148.14,-123.2C205.6,-121.44 287.57,-120.85 359,-127.55 373.55,-128.91 389.17,-131.36 403.53,-134.03"/>
<polygon fill="#63b8ff" stroke="#63b8ff" points="403.26,-137.54 413.74,-136 404.58,-130.67 403.26,-137.54"/>
</a>
</g>
</g>
<!-- Node15 -->
<g id="Node000015" class="node">
<title>Node15</title>
<g id="a_Node000015"><a xlink:href="classwmtk_1_1_mesh.html#a933f681cf24a63b155c9462280385200" target="_top" xlink:title=" ">
<polygon fill="white" stroke="#666666" points="901.5,-74.55 780.5,-74.55 780.5,-44.55 901.5,-44.55 901.5,-74.55"/>
<text text-anchor="start" x="788.5" y="-62.55" font-family="Helvetica,sans-Serif" font-size="10.00">wmtk::Mesh::top_cell</text>
<text text-anchor="middle" x="841" y="-51.55" font-family="Helvetica,sans-Serif" font-size="10.00">_dimension</text>
</a>
</g>
</g>
<!-- Node1&#45;&gt;Node15 -->
<g id="edge19_Node000001_Node000015" class="edge">
<title>Node1&#45;&gt;Node15</title>
<g id="a_edge19_Node000001_Node000015"><a xlink:title=" ">
<path fill="none" stroke="#63b8ff" d="M103.77,-116.96C177.64,-92.93 380.42,-30.52 555,-9.55 630.02,-0.54 651.03,5.84 725,-9.55 752.98,-15.37 782.49,-28.36 804.62,-39.64"/>
<polygon fill="#63b8ff" stroke="#63b8ff" points="803.14,-42.82 813.62,-44.35 806.38,-36.62 803.14,-42.82"/>
</a>
</g>
</g>
<!-- Node3 -->
<g id="Node000003" class="node">
<title>Node3</title>
<g id="a_Node000003"><a xlink:href="namespacewmtk.html#a3daa7951a5f8b78cf4600dc047fcc180" target="_top" xlink:title="Setup a logger object to be used by WildmeshToolkit.">
<polygon fill="white" stroke="#666666" points="507.5,-192.05 406.5,-192.05 406.5,-173.05 507.5,-173.05 507.5,-192.05"/>
<text text-anchor="middle" x="457" y="-180.05" font-family="Helvetica,sans-Serif" font-size="10.00">wmtk::set_logger</text>
</a>
</g>
</g>
<!-- Node2&#45;&gt;Node3 -->
<g id="edge2_Node000002_Node000003" class="edge">
<title>Node2&#45;&gt;Node3</title>
<g id="a_edge2_Node000002_Node000003"><a xlink:title=" ">
<path fill="none" stroke="#63b8ff" d="M312.32,-182.55C336.81,-182.55 368.65,-182.55 396.14,-182.55"/>
<polygon fill="#63b8ff" stroke="#63b8ff" points="396.44,-186.05 406.44,-182.55 396.44,-179.05 396.44,-186.05"/>
</a>
</g>
</g>
<!-- Node4&#45;&gt;Node5 -->
<g id="edge4_Node000004_Node000005" class="edge">
<title>Node4&#45;&gt;Node5</title>
<g id="a_edge4_Node000004_Node000005"><a xlink:title=" ">
<path fill="none" stroke="#63b8ff" d="M359.15,-145.55C367.72,-145.55 376.36,-145.55 384.75,-145.55"/>
<polygon fill="#63b8ff" stroke="#63b8ff" points="384.85,-149.05 394.85,-145.55 384.85,-142.05 384.85,-149.05"/>
</a>
</g>
</g>
<!-- Node6 -->
<g id="Node000006" class="node">
<title>Node6</title>
<g id="a_Node000006"><a xlink:href="classwmtk_1_1multimesh_1_1_multi_mesh_manager.html#a812e0992812b2c48a889e10ae9e50758" target="_top" xlink:title=" ">
<polygon fill="white" stroke="#666666" points="720,-326.55 560,-326.55 560,-296.55 720,-296.55 720,-326.55"/>
<text text-anchor="start" x="568" y="-314.55" font-family="Helvetica,sans-Serif" font-size="10.00">wmtk::multimesh::MultiMesh</text>
<text text-anchor="middle" x="640" y="-303.55" font-family="Helvetica,sans-Serif" font-size="10.00">Manager::absolute_id</text>
</a>
</g>
</g>
<!-- Node5&#45;&gt;Node6 -->
<g id="edge5_Node000005_Node000006" class="edge">
<title>Node5&#45;&gt;Node6</title>
<g id="a_edge5_Node000005_Node000006"><a xlink:title=" ">
<path fill="none" stroke="#63b8ff" d="M505.68,-155.12C510.6,-157.58 515.19,-160.67 519,-164.55 558.93,-205.17 514.59,-247.4 555,-287.55 556.08,-288.62 557.2,-289.64 558.35,-290.62"/>
<polygon fill="#63b8ff" stroke="#63b8ff" points="556.34,-293.48 566.52,-296.44 560.41,-287.78 556.34,-293.48"/>
</a>
</g>
</g>
<!-- Node8 -->
<g id="Node000008" class="node">
<title>Node8</title>
<g id="a_Node000008"><a xlink:href="classwmtk_1_1multimesh_1_1_multi_mesh_manager.html#ab29db13e4be68177d7ae3c188d7b275e" target="_top" xlink:title=" ">
<polygon fill="white" stroke="#666666" points="720,-278.55 560,-278.55 560,-248.55 720,-248.55 720,-278.55"/>
<text text-anchor="start" x="568" y="-266.55" font-family="Helvetica,sans-Serif" font-size="10.00">wmtk::multimesh::MultiMesh</text>
<text text-anchor="middle" x="640" y="-255.55" font-family="Helvetica,sans-Serif" font-size="10.00">Manager::relative_id</text>
</a>
</g>
</g>
<!-- Node5&#45;&gt;Node8 -->
<g id="edge8_Node000005_Node000008" class="edge">
<title>Node5&#45;&gt;Node8</title>
<g id="a_edge8_Node000005_Node000008"><a xlink:title=" ">
<path fill="none" stroke="#63b8ff" d="M503.54,-155.05C509.13,-157.52 514.47,-160.63 519,-164.55 546.98,-188.72 526.74,-215.71 555,-239.55 556.52,-240.83 558.11,-242.05 559.75,-243.2"/>
<polygon fill="#63b8ff" stroke="#63b8ff" points="557.99,-246.22 568.35,-248.42 561.62,-240.24 557.99,-246.22"/>
</a>
</g>
</g>
<!-- Node10 -->
<g id="Node000010" class="node">
<title>Node10</title>
<g id="a_Node000010"><a xlink:href="classwmtk_1_1attribute_1_1_attribute_manager.html#a2f9290f582622604dc0daba270c84f9b" target="_top" xlink:title=" ">
<polygon fill="white" stroke="#666666" points="710.5,-230.55 569.5,-230.55 569.5,-200.55 710.5,-200.55 710.5,-230.55"/>
<text text-anchor="start" x="577.5" y="-218.55" font-family="Helvetica,sans-Serif" font-size="10.00">wmtk::attribute::Attribute</text>
<text text-anchor="middle" x="640" y="-207.55" font-family="Helvetica,sans-Serif" font-size="10.00">Manager::serialize</text>
</a>
</g>
</g>
<!-- Node5&#45;&gt;Node10 -->
<g id="edge10_Node000005_Node000010" class="edge">
<title>Node5&#45;&gt;Node10</title>
<g id="a_edge10_Node000005_Node000010"><a xlink:title=" ">
<path fill="none" stroke="#63b8ff" d="M495.9,-155.14C503.73,-157.73 511.79,-160.86 519,-164.55 536.81,-173.65 537.09,-182.65 555,-191.55 558.82,-193.44 562.82,-195.21 566.9,-196.86"/>
<polygon fill="#63b8ff" stroke="#63b8ff" points="565.96,-200.25 576.56,-200.49 568.42,-193.7 565.96,-200.25"/>
</a>
</g>
</g>
<!-- Node13 -->
<g id="Node000013" class="node">
<title>Node13</title>
<g id="a_Node000013"><a xlink:href="classwmtk_1_1multimesh_1_1_multi_mesh_manager.html#a9c0175530619088d9f52b38f1417cc1c" target="_top" xlink:title=" ">
<polygon fill="white" stroke="#666666" points="720,-182.55 560,-182.55 560,-152.55 720,-152.55 720,-182.55"/>
<text text-anchor="start" x="568" y="-170.55" font-family="Helvetica,sans-Serif" font-size="10.00">wmtk::multimesh::MultiMesh</text>
<text text-anchor="middle" x="640" y="-159.55" font-family="Helvetica,sans-Serif" font-size="10.00">Manager::serialize</text>
</a>
</g>
</g>
<!-- Node5&#45;&gt;Node13 -->
<g id="edge13_Node000005_Node000013" class="edge">
<title>Node5&#45;&gt;Node13</title>
<g id="a_edge13_Node000005_Node000013"><a xlink:title=" ">
<path fill="none" stroke="#63b8ff" d="M519.03,-152.96C528.98,-154.17 539.47,-155.45 549.93,-156.72"/>
<polygon fill="#63b8ff" stroke="#63b8ff" points="549.59,-160.21 559.94,-157.94 550.44,-153.26 549.59,-160.21"/>
</a>
</g>
</g>
<!-- Node14 -->
<g id="Node000014" class="node">
<title>Node14</title>
<g id="a_Node000014"><a xlink:href="classwmtk_1_1_mesh.html#abaf00438d0700358b160e310d69725c9" target="_top" xlink:title=" ">
<polygon fill="white" stroke="#666666" points="725,-134.05 555,-134.05 555,-115.05 725,-115.05 725,-134.05"/>
<text text-anchor="middle" x="640" y="-122.05" font-family="Helvetica,sans-Serif" font-size="10.00">wmtk::Mesh::top_simplex_type</text>
</a>
</g>
</g>
<!-- Node5&#45;&gt;Node14 -->
<g id="edge14_Node000005_Node000014" class="edge">
<title>Node5&#45;&gt;Node14</title>
<g id="a_edge14_Node000005_Node000014"><a xlink:title=" ">
<path fill="none" stroke="#63b8ff" d="M519.03,-138.47C527.99,-137.43 537.4,-136.34 546.82,-135.24"/>
<polygon fill="#63b8ff" stroke="#63b8ff" points="547.51,-138.69 557.04,-134.06 546.71,-131.73 547.51,-138.69"/>
</a>
</g>
</g>
<!-- Node16 -->
<g id="Node000016" class="node">
<title>Node16</title>
<g id="a_Node000016"><a xlink:href="classwmtk_1_1_mesh_writer.html#ac54560ef6ed79d5dfdb1a2c9dcb8687c" target="_top" xlink:title=" ">
<polygon fill="white" stroke="#666666" points="708.5,-96.55 571.5,-96.55 571.5,-66.55 708.5,-66.55 708.5,-96.55"/>
<text text-anchor="start" x="579.5" y="-84.55" font-family="Helvetica,sans-Serif" font-size="10.00">wmtk::MeshWriter::write</text>
<text text-anchor="middle" x="640" y="-73.55" font-family="Helvetica,sans-Serif" font-size="10.00">_absolute_id</text>
</a>
</g>
</g>
<!-- Node5&#45;&gt;Node16 -->
<g id="edge16_Node000005_Node000016" class="edge">
<title>Node5&#45;&gt;Node16</title>
<g id="a_edge16_Node000005_Node000016"><a xlink:title=" ">
<path fill="none" stroke="#63b8ff" d="M480.12,-135.97C499.64,-127.68 528.95,-115.64 555,-106.55 561.72,-104.2 568.78,-101.88 575.84,-99.65"/>
<polygon fill="#63b8ff" stroke="#63b8ff" points="576.92,-102.98 585.44,-96.68 574.85,-96.3 576.92,-102.98"/>
</a>
</g>
</g>
<!-- Node17 -->
<g id="Node000017" class="node">
<title>Node17</title>
<g id="a_Node000017"><a xlink:href="classwmtk_1_1_mesh_writer.html#a0e4fd87b00f2cb95a14c19e5a3670bde" target="_top" xlink:title=" ">
<polygon fill="white" stroke="#666666" points="708.5,-48.55 571.5,-48.55 571.5,-18.55 708.5,-18.55 708.5,-48.55"/>
<text text-anchor="start" x="579.5" y="-36.55" font-family="Helvetica,sans-Serif" font-size="10.00">wmtk::MeshWriter::write</text>
<text text-anchor="middle" x="640" y="-25.55" font-family="Helvetica,sans-Serif" font-size="10.00">_top_simplex_type</text>
</a>
</g>
</g>
<!-- Node5&#45;&gt;Node17 -->
<g id="edge17_Node000005_Node000017" class="edge">
<title>Node5&#45;&gt;Node17</title>
<g id="a_edge17_Node000005_Node000017"><a xlink:title=" ">
<path fill="none" stroke="#63b8ff" d="M466,-135.78C481.36,-117.66 516.85,-78.77 555,-57.55 558.24,-55.75 561.63,-54.07 565.1,-52.51"/>
<polygon fill="#63b8ff" stroke="#63b8ff" points="566.55,-55.7 574.47,-48.66 563.89,-49.22 566.55,-55.7"/>
</a>
</g>
</g>
<!-- Node6&#45;&gt;Node6 -->
<g id="edge6_Node000006_Node000006" class="edge">
<title>Node6&#45;&gt;Node6</title>
<g id="a_edge6_Node000006_Node000006"><a xlink:title=" ">
<path fill="none" stroke="#63b8ff" d="M608.01,-326.82C600.9,-335.95 611.56,-344.55 640,-344.55 656.88,-344.55 667.5,-341.52 671.86,-337.14"/>
<polygon fill="#63b8ff" stroke="#63b8ff" points="675.36,-336.87 671.99,-326.82 668.36,-336.78 675.36,-336.87"/>
</a>
</g>
</g>
<!-- Node7 -->
<g id="Node000007" class="node">
<title>Node7</title>
<g id="a_Node000007"><a xlink:href="classwmtk_1_1multimesh_1_1_multi_mesh_manager.html#a7d39339adb56b1798fe817d81bfcc67c" target="_top" xlink:title="Specifies whether this structure is the root of a multi&#45;mesh tree.">
<polygon fill="white" stroke="#666666" points="921,-326.55 761,-326.55 761,-296.55 921,-296.55 921,-326.55"/>
<text text-anchor="start" x="769" y="-314.55" font-family="Helvetica,sans-Serif" font-size="10.00">wmtk::multimesh::MultiMesh</text>
<text text-anchor="middle" x="841" y="-303.55" font-family="Helvetica,sans-Serif" font-size="10.00">Manager::is_root</text>
</a>
</g>
</g>
<!-- Node6&#45;&gt;Node7 -->
<g id="edge7_Node000006_Node000007" class="edge">
<title>Node6&#45;&gt;Node7</title>
<g id="a_edge7_Node000006_Node000007"><a xlink:title=" ">
<path fill="none" stroke="#63b8ff" d="M720.22,-311.55C730.22,-311.55 740.5,-311.55 750.65,-311.55"/>
<polygon fill="#63b8ff" stroke="#63b8ff" points="750.73,-315.05 760.73,-311.55 750.73,-308.05 750.73,-315.05"/>
</a>
</g>
</g>
<!-- Node9 -->
<g id="Node000009" class="node">
<title>Node9</title>
<g id="a_Node000009"><a xlink:href="classwmtk_1_1multimesh_1_1_multi_mesh_manager.html#a4f99281b52dfca1c9baff535917d58a7" target="_top" xlink:title=" ">
<polygon fill="white" stroke="#666666" points="921,-278.55 761,-278.55 761,-248.55 921,-248.55 921,-278.55"/>
<text text-anchor="start" x="769" y="-266.55" font-family="Helvetica,sans-Serif" font-size="10.00">wmtk::multimesh::MultiMesh</text>
<text text-anchor="middle" x="841" y="-255.55" font-family="Helvetica,sans-Serif" font-size="10.00">Manager::is_child</text>
</a>
</g>
</g>
<!-- Node8&#45;&gt;Node9 -->
<g id="edge9_Node000008_Node000009" class="edge">
<title>Node8&#45;&gt;Node9</title>
<g id="a_edge9_Node000008_Node000009"><a xlink:title=" ">
<path fill="none" stroke="#63b8ff" d="M720.22,-263.55C730.22,-263.55 740.5,-263.55 750.65,-263.55"/>
<polygon fill="#63b8ff" stroke="#63b8ff" points="750.73,-267.05 760.73,-263.55 750.73,-260.05 750.73,-267.05"/>
</a>
</g>
</g>
<!-- Node11 -->
<g id="Node000011" class="node">
<title>Node11</title>
<g id="a_Node000011"><a xlink:href="classwmtk_1_1_mesh_writer.html#a9775a31599c23785098b9be77bdbfb62" target="_top" xlink:title=" ">
<polygon fill="white" stroke="#666666" points="909.5,-227.05 772.5,-227.05 772.5,-208.05 909.5,-208.05 909.5,-227.05"/>
<text text-anchor="middle" x="841" y="-215.05" font-family="Helvetica,sans-Serif" font-size="10.00">wmtk::MeshWriter::write</text>
</a>
</g>
</g>
<!-- Node10&#45;&gt;Node11 -->
<g id="edge11_Node000010_Node000011" class="edge">
<title>Node10&#45;&gt;Node11</title>
<g id="a_edge11_Node000010_Node000011"><a xlink:title=" ">
<path fill="none" stroke="#63b8ff" d="M710.6,-216.25C727.21,-216.41 745.06,-216.59 762.02,-216.76"/>
<polygon fill="#63b8ff" stroke="#63b8ff" points="762.42,-220.27 772.45,-216.87 762.49,-213.27 762.42,-220.27"/>
</a>
</g>
</g>
<!-- Node12 -->
<g id="Node000012" class="node">
<title>Node12</title>
<g id="a_Node000012"><a xlink:href="classwmtk_1_1_mesh_writer.html#adaf132d57772f8692155189c4c5789b9" target="_top" xlink:title=" ">
<polygon fill="white" stroke="#666666" points="909.5,-189.55 772.5,-189.55 772.5,-159.55 909.5,-159.55 909.5,-189.55"/>
<text text-anchor="start" x="780.5" y="-177.55" font-family="Helvetica,sans-Serif" font-size="10.00">wmtk::MeshWriter::write</text>
<text text-anchor="middle" x="841" y="-166.55" font-family="Helvetica,sans-Serif" font-size="10.00">_capacities</text>
</a>
</g>
</g>
<!-- Node10&#45;&gt;Node12 -->
<g id="edge12_Node000010_Node000012" class="edge">
<title>Node10&#45;&gt;Node12</title>
<g id="a_edge12_Node000010_Node000012"><a xlink:title=" ">
<path fill="none" stroke="#63b8ff" d="M710.6,-201.21C727.37,-197.75 745.39,-194.04 762.5,-190.51"/>
<polygon fill="#63b8ff" stroke="#63b8ff" points="763.36,-193.91 772.45,-188.46 761.95,-187.05 763.36,-193.91"/>
</a>
</g>
</g>
<!-- Node14&#45;&gt;Node15 -->
<g id="edge15_Node000014_Node000015" class="edge">
<title>Node14&#45;&gt;Node15</title>
<g id="a_edge15_Node000014_Node000015"><a xlink:title=" ">
<path fill="none" stroke="#63b8ff" d="M689.32,-114.99C701.09,-112.29 713.58,-109.1 725,-105.55 749.22,-98.02 775.53,-87.66 796.86,-78.68"/>
<polygon fill="#63b8ff" stroke="#63b8ff" points="798.46,-81.81 806.29,-74.67 795.72,-75.37 798.46,-81.81"/>
</a>
</g>
</g>
</g>
</svg>

<g id="navigator" transform="translate(0 0)" fill="#404254">
  <rect fill="#f2f5e9" fill-opacity="0.5" stroke="#606060" stroke-width=".5" x="0" y="0" width="60" height="60"/>
  <use id="zoomplus" xlink:href="#zoomPlus" x="17" y="9" onmousedown="handleZoom(evt,'in')"/>
  <use id="zoomminus" xlink:href="#zoomMin" x="42" y="9" onmousedown="handleZoom(evt,'out')"/>
  <use id="reset" xlink:href="#resetDef" x="30" y="36" onmousedown="handleReset()"/>
   <use id="arrowup" xlink:href="#arrowUp" x="0" y="0" onmousedown="handlePan(0,-1)"/>
  <use id="arrowright" xlink:href="#arrowRight" x="0" y="0" onmousedown="handlePan(1,0)"/>
  <use id="arrowdown" xlink:href="#arrowDown" x="0" y="0" onmousedown="handlePan(0,1)"/>
  <use id="arrowleft" xlink:href="#arrowLeft" x="0" y="0" onmousedown="handlePan(-1,0)"/>
</g>
<svg viewBox="0 0 15 15" width="100%" height="30px" preserveAspectRatio="xMaxYMin meet">
 <g id="arrow_out" transform="scale(0.3 0.3)">
  <a xlink:href="namespacewmtk_1_1components_a50def332b20b44816cb0c8d31a808a51_cgraph_org.svg" target="_base">
   <rect id="button" ry="5" rx="5" y="6" x="6" height="38" width="38"
        fill="#f2f5e9" fill-opacity="0.5" stroke="#606060" stroke-width="1.0"/>
   <path id="arrow"
     d="M 11.500037,31.436501 C 11.940474,20.09759 22.043105,11.32322 32.158766,21.979434 L 37.068811,17.246167 C 37.068811,17.246167 37.088388,32 37.088388,32 L 22.160133,31.978069 C 22.160133,31.978069 26.997745,27.140456 26.997745,27.140456 C 18.528582,18.264221 13.291696,25.230495 11.500037,31.436501 z"
     style="fill:#404040;"/>
  </a>
 </g>
</svg>

<style type='text/css'>
<![CDATA[
[data-mouse-over-selected='false'] { opacity: 0.7; }
[data-mouse-over-selected='true']  { opacity: 1.0; }
]]>
</style>
<script type="application/ecmascript"><![CDATA[
document.addEventListener('DOMContentLoaded', (event) => {
  highlightEdges();
  highlightAdjacentNodes();
});
]]></script>
</svg>
