<?xml version="1.0" encoding="UTF-8" standalone="no"?>
<!DOCTYPE svg PUBLIC "-//W3C//DTD SVG 1.1//EN"
 "http://www.w3.org/Graphics/SVG/1.1/DTD/svg11.dtd">
<!-- Generated by graphviz version 2.43.0 (0)
 -->
<!-- Title: wmtk::autogen::tet_mesh::local_switch_tuple Pages: 1 -->
<!--zoomable 523 -->

<svg id="main" version="1.1" xmlns="http://www.w3.org/2000/svg" xmlns:xlink="http://www.w3.org/1999/xlink" xml:space="preserve" onload="init(evt)">
<style type="text/css"><![CDATA[
.node, .edge {opacity: 0.7;}
.node.selected, .edge.selected {opacity: 1;}
.edge:hover path { stroke: red; }
.edge:hover polygon { stroke: red; fill: red; }
]]></style>

<defs>
  <circle id="rim" cx="0" cy="0" r="7"/>
  <circle id="rim2" cx="0" cy="0" r="3.5"/>
  <g id="zoomPlus">
    <use xlink:href="#rim" fill="#404040"><set attributeName="fill" to="#808080" begin="zoomplus.mouseover" end="zoomplus.mouseout"/></use>
    <path d="M-4,0h8M0,-4v8" fill="none" stroke="white" stroke-width="1.5" pointer-events="none"/>
  </g>
  <g id="zoomMin">
    <use xlink:href="#rim" fill="#404040"><set attributeName="fill" to="#808080" begin="zoomminus.mouseover" end="zoomminus.mouseout"/></use>
    <path d="M-4,0h8" fill="none" stroke="white" stroke-width="1.5" pointer-events="none"/>
  </g>
  <g id="arrowUp" transform="translate(30 24)">
    <use xlink:href="#rim"/>
    <path pointer-events="none" fill="none" stroke="white" stroke-width="1.5" d="M0,-3.0v7 M-2.5,-0.5L0,-3.0L2.5,-0.5"/>
  </g>
  <g id="arrowRight" transform="rotate(90) translate(36 -43)">
    <use xlink:href="#rim"/>
    <path pointer-events="none" fill="none" stroke="white" stroke-width="1.5" d="M0,-3.0v7 M-2.5,-0.5L0,-3.0L2.5,-0.5"/>
  </g>
  <g id="arrowDown" transform="rotate(180) translate(-30 -48)">
    <use xlink:href="#rim"/>
    <path pointer-events="none" fill="none" stroke="white" stroke-width="1.5" d="M0,-3.0v7 M-2.5,-0.5L0,-3.0L2.5,-0.5"/>
  </g>
  <g id="arrowLeft" transform="rotate(270) translate(-36 17)">
    <use xlink:href="#rim"/>
    <path pointer-events="none" fill="none" stroke="white" stroke-width="1.5" d="M0,-3.0v7 M-2.5,-0.5L0,-3.0L2.5,-0.5"/>
  </g>
  <g id="resetDef">
    <use xlink:href="#rim2" fill="#404040"><set attributeName="fill" to="#808080" begin="reset.mouseover" end="reset.mouseout"/></use>
  </g>
</defs>
<script type="application/ecmascript">
var viewWidth = 916;
var viewHeight = 523;
var sectionId = 'dynsection-6';
</script>
<script type="application/ecmascript" xlink:href="svg.min.js"/>
<svg id="graph" class="graph">
<g id="viewport">
<title>wmtk::autogen::tet_mesh::local_switch_tuple</title>
<!-- Node1 -->
<g id="Node000001" class="node">
<title>Node1</title>
<g id="a_Node000001"><a xlink:title=" ">
<polygon fill="#999999" stroke="#666666" points="908,-443 763,-443 763,-413 908,-413 908,-443"/>
<text text-anchor="start" x="771" y="-431" font-family="Helvetica,sans-Serif" font-size="10.00">wmtk::autogen::tet</text>
<text text-anchor="middle" x="835.5" y="-420" font-family="Helvetica,sans-Serif" font-size="10.00">_mesh::local_switch_tuple</text>
</a>
</g>
</g>
<!-- Node2 -->
<g id="Node000002" class="node">
<title>Node2</title>
<g id="a_Node000002"><a xlink:href="namespacewmtk_1_1multimesh_1_1utils.html#af9c45a14e7a1550a7f54d461b61c5c04" target="_top" xlink:title=" ">
<polygon fill="white" stroke="#666666" points="727,-515 597,-515 597,-485 727,-485 727,-515"/>
<text text-anchor="start" x="605" y="-503" font-family="Helvetica,sans-Serif" font-size="10.00">wmtk::multimesh::utils</text>
<text text-anchor="middle" x="662" y="-492" font-family="Helvetica,sans-Serif" font-size="10.00">::local_switch_tuple</text>
</a>
</g>
</g>
<!-- Node1&#45;&gt;Node2 -->
<g id="edge1_Node000001_Node000002" class="edge">
<title>Node1&#45;&gt;Node2</title>
<g id="a_edge1_Node000001_Node000002"><a xlink:title=" ">
<path fill="none" stroke="#63b8ff" d="M792.9,-447.29C773.07,-456.3 748.94,-467 727,-476 719.75,-478.97 711.99,-482.01 704.46,-484.88"/>
<polygon fill="#63b8ff" stroke="#63b8ff" points="794.62,-450.35 802.26,-443.01 791.71,-443.98 794.62,-450.35"/>
</a>
</g>
</g>
<!-- Node4 -->
<g id="Node000004" class="node">
<title>Node4</title>
<g id="a_Node000004"><a xlink:href="namespacewmtk_1_1autogen.html#a6a2254ec87baae0e007fa559c14e1ef5" target="_top" xlink:title=" ">
<polygon fill="white" stroke="#666666" points="721.5,-467 602.5,-467 602.5,-437 721.5,-437 721.5,-467"/>
<text text-anchor="start" x="610.5" y="-455" font-family="Helvetica,sans-Serif" font-size="10.00">wmtk::autogen::local</text>
<text text-anchor="middle" x="662" y="-444" font-family="Helvetica,sans-Serif" font-size="10.00">_switch_tuple</text>
</a>
</g>
</g>
<!-- Node1&#45;&gt;Node4 -->
<g id="edge3_Node000001_Node000004" class="edge">
<title>Node1&#45;&gt;Node4</title>
<g id="a_edge3_Node000001_Node000004"><a xlink:title=" ">
<path fill="none" stroke="#63b8ff" d="M752.76,-439.44C742.28,-440.91 731.72,-442.38 721.71,-443.78"/>
<polygon fill="#63b8ff" stroke="#63b8ff" points="753.34,-442.89 762.76,-438.04 752.37,-435.96 753.34,-442.89"/>
</a>
</g>
</g>
<!-- Node5 -->
<g id="Node000005" class="node">
<title>Node5</title>
<g id="a_Node000005"><a xlink:href="namespacewmtk_1_1autogen.html#ac90627b246b2f7685a1478d0bc3f053f" target="_top" xlink:title=" ">
<polygon fill="white" stroke="#666666" points="721.5,-419 602.5,-419 602.5,-389 721.5,-389 721.5,-419"/>
<text text-anchor="start" x="610.5" y="-407" font-family="Helvetica,sans-Serif" font-size="10.00">wmtk::autogen::local</text>
<text text-anchor="middle" x="662" y="-396" font-family="Helvetica,sans-Serif" font-size="10.00">_switch_tuple</text>
</a>
</g>
</g>
<!-- Node1&#45;&gt;Node5 -->
<g id="edge4_Node000001_Node000005" class="edge">
<title>Node1&#45;&gt;Node5</title>
<g id="a_edge4_Node000001_Node000005"><a xlink:title=" ">
<path fill="none" stroke="#63b8ff" d="M752.76,-416.56C742.28,-415.09 731.72,-413.62 721.71,-412.22"/>
<polygon fill="#63b8ff" stroke="#63b8ff" points="752.37,-420.04 762.76,-417.96 753.34,-413.11 752.37,-420.04"/>
</a>
</g>
</g>
<!-- Node7 -->
<g id="Node000007" class="node">
<title>Node7</title>
<g id="a_Node000007"><a xlink:href="classwmtk_1_1_tet_mesh.html#a53d9ec91a1c80da4ae10dea485564f27" target="_top" xlink:title="switch the orientation of the Tuple of the given dimension">
<polygon fill="white" stroke="#666666" points="726,-294 598,-294 598,-264 726,-264 726,-294"/>
<text text-anchor="start" x="606" y="-282" font-family="Helvetica,sans-Serif" font-size="10.00">wmtk::TetMesh::switch</text>
<text text-anchor="middle" x="662" y="-271" font-family="Helvetica,sans-Serif" font-size="10.00">_tuple</text>
</a>
</g>
</g>
<!-- Node1&#45;&gt;Node7 -->
<g id="edge6_Node000001_Node000007" class="edge">
<title>Node1&#45;&gt;Node7</title>
<g id="a_edge6_Node000001_Node000007"><a xlink:title=" ">
<path fill="none" stroke="#63b8ff" d="M809.2,-406.02C773.93,-375.37 710.9,-320.61 680.43,-294.15"/>
<polygon fill="#63b8ff" stroke="#63b8ff" points="807.27,-408.98 817.11,-412.89 811.86,-403.69 807.27,-408.98"/>
</a>
</g>
</g>
<!-- Node3 -->
<g id="Node000003" class="node">
<title>Node3</title>
<g id="a_Node000003"><a xlink:href="namespacewmtk_1_1multimesh_1_1utils.html#a35bfe2b004961f1f59b80cc181de7443" target="_top" xlink:title=" ">
<polygon fill="white" stroke="#666666" points="530.5,-515 400.5,-515 400.5,-485 530.5,-485 530.5,-515"/>
<text text-anchor="start" x="408.5" y="-503" font-family="Helvetica,sans-Serif" font-size="10.00">wmtk::multimesh::utils</text>
<text text-anchor="middle" x="465.5" y="-492" font-family="Helvetica,sans-Serif" font-size="10.00">::local_switch_tuples</text>
</a>
</g>
</g>
<!-- Node2&#45;&gt;Node3 -->
<g id="edge2_Node000002_Node000003" class="edge">
<title>Node2&#45;&gt;Node3</title>
<g id="a_edge2_Node000002_Node000003"><a xlink:title=" ">
<path fill="none" stroke="#63b8ff" d="M586.66,-500C568.2,-500 548.58,-500 530.66,-500"/>
<polygon fill="#63b8ff" stroke="#63b8ff" points="586.77,-503.5 596.77,-500 586.77,-496.5 586.77,-503.5"/>
</a>
</g>
</g>
<!-- Node6 -->
<g id="Node000006" class="node">
<title>Node6</title>
<g id="a_Node000006"><a xlink:href="classwmtk_1_1operations_1_1internal_1_1_collapse_alternate_facet_option_data.html#a363fb2114790d2591c476c3910c298c3" target="_top" xlink:title=" ">
<polygon fill="white" stroke="#666666" points="561,-445.5 370,-445.5 370,-404.5 561,-404.5 561,-445.5"/>
<text text-anchor="start" x="378" y="-433.5" font-family="Helvetica,sans-Serif" font-size="10.00">wmtk::operations::internal</text>
<text text-anchor="start" x="378" y="-422.5" font-family="Helvetica,sans-Serif" font-size="10.00">::CollapseAlternateFacetOptionData</text>
<text text-anchor="middle" x="465.5" y="-411.5" font-family="Helvetica,sans-Serif" font-size="10.00">::get_neighbor_action</text>
</a>
</g>
</g>
<!-- Node5&#45;&gt;Node6 -->
<g id="edge5_Node000005_Node000006" class="edge">
<title>Node5&#45;&gt;Node6</title>
<g id="a_edge5_Node000005_Node000006"><a xlink:title=" ">
<path fill="none" stroke="#63b8ff" d="M592.15,-411.43C582.15,-412.51 571.72,-413.64 561.33,-414.76"/>
<polygon fill="#63b8ff" stroke="#63b8ff" points="592.81,-414.88 602.38,-410.33 592.06,-407.92 592.81,-414.88"/>
</a>
</g>
</g>
<!-- Node8 -->
<g id="Node000008" class="node">
<title>Node8</title>
<g id="a_Node000008"><a xlink:href="classwmtk_1_1operations_1_1tet__mesh_1_1_edge_operation_data.html#a0b36950981ccdbd5b04a2d7eccc758a3" target="_top" xlink:title=" ">
<polygon fill="white" stroke="#666666" points="540.5,-386.5 390.5,-386.5 390.5,-345.5 540.5,-345.5 540.5,-386.5"/>
<text text-anchor="start" x="398.5" y="-374.5" font-family="Helvetica,sans-Serif" font-size="10.00">wmtk::operations::tet</text>
<text text-anchor="start" x="398.5" y="-363.5" font-family="Helvetica,sans-Serif" font-size="10.00">_mesh::EdgeOperationData</text>
<text text-anchor="middle" x="465.5" y="-352.5" font-family="Helvetica,sans-Serif" font-size="10.00">::input_endpoints</text>
</a>
</g>
</g>
<!-- Node7&#45;&gt;Node8 -->
<g id="edge7_Node000007_Node000008" class="edge">
<title>Node7&#45;&gt;Node8</title>
<g id="a_edge7_Node000007_Node000008"><a xlink:title=" ">
<path fill="none" stroke="#63b8ff" d="M625.44,-298.87C606.57,-309.06 582.83,-321.33 561,-331 549.64,-336.03 537.32,-340.97 525.43,-345.47"/>
<polygon fill="#63b8ff" stroke="#63b8ff" points="627.18,-301.91 634.28,-294.05 623.83,-295.76 627.18,-301.91"/>
</a>
</g>
</g>
<!-- Node11 -->
<g id="Node000011" class="node">
<title>Node11</title>
<g id="a_Node000011"><a xlink:href="namespacewmtk_1_1simplex.html#aead7bf4f261c58bdb33bd0bf7fcd541d" target="_top" xlink:title=" ">
<polygon fill="white" stroke="#666666" points="113,-226 0,-226 0,-196 113,-196 113,-226"/>
<text text-anchor="start" x="8" y="-214" font-family="Helvetica,sans-Serif" font-size="10.00">wmtk::simplex::link</text>
<text text-anchor="middle" x="56.5" y="-203" font-family="Helvetica,sans-Serif" font-size="10.00">_condition</text>
</a>
</g>
</g>
<!-- Node7&#45;&gt;Node11 -->
<g id="edge10_Node000007_Node000011" class="edge">
<title>Node7&#45;&gt;Node11</title>
<g id="a_edge10_Node000007_Node000011"><a xlink:title=" ">
<path fill="none" stroke="#63b8ff" d="M589.42,-296.05C487.63,-316.76 297.02,-342.31 149,-285 116.61,-272.46 86.89,-243.94 70.57,-226.2"/>
<polygon fill="#63b8ff" stroke="#63b8ff" points="590.2,-299.46 599.28,-294 588.78,-292.61 590.2,-299.46"/>
</a>
</g>
</g>
<!-- Node12 -->
<g id="Node000012" class="node">
<title>Node12</title>
<g id="a_Node000012"><a xlink:href="classwmtk_1_1_tet_mesh.html#a1ff7ac5989c664b7754dd699fa1e9b1a" target="_top" xlink:title=" ">
<polygon fill="white" stroke="#666666" points="544.5,-288.5 386.5,-288.5 386.5,-269.5 544.5,-269.5 544.5,-288.5"/>
<text text-anchor="middle" x="465.5" y="-276.5" font-family="Helvetica,sans-Serif" font-size="10.00">wmtk::TetMesh::switch_edge</text>
</a>
</g>
</g>
<!-- Node7&#45;&gt;Node12 -->
<g id="edge11_Node000007_Node000012" class="edge">
<title>Node7&#45;&gt;Node12</title>
<g id="a_edge11_Node000007_Node000012"><a xlink:title=" ">
<path fill="none" stroke="#63b8ff" d="M587.74,-279C573.66,-279 558.87,-279 544.64,-279"/>
<polygon fill="#63b8ff" stroke="#63b8ff" points="587.85,-282.5 597.85,-279 587.85,-275.5 587.85,-282.5"/>
</a>
</g>
</g>
<!-- Node13 -->
<g id="Node000013" class="node">
<title>Node13</title>
<g id="a_Node000013"><a xlink:href="classwmtk_1_1_tet_mesh.html#a6c405e0d239a6ec627a6b50963c52ea5" target="_top" xlink:title=" ">
<polygon fill="white" stroke="#666666" points="543,-202.5 388,-202.5 388,-183.5 543,-183.5 543,-202.5"/>
<text text-anchor="middle" x="465.5" y="-190.5" font-family="Helvetica,sans-Serif" font-size="10.00">wmtk::TetMesh::switch_face</text>
</a>
</g>
</g>
<!-- Node7&#45;&gt;Node13 -->
<g id="edge13_Node000007_Node000013" class="edge">
<title>Node7&#45;&gt;Node13</title>
<g id="a_edge13_Node000007_Node000013"><a xlink:title=" ">
<path fill="none" stroke="#63b8ff" d="M635.11,-257.48C615.82,-242.53 588.23,-223.33 561,-212 551.65,-208.11 541.45,-205 531.31,-202.51"/>
<polygon fill="#63b8ff" stroke="#63b8ff" points="633.08,-260.34 643.1,-263.79 637.42,-254.85 633.08,-260.34"/>
</a>
</g>
</g>
<!-- Node16 -->
<g id="Node000016" class="node">
<title>Node16</title>
<g id="a_Node000016"><a xlink:href="classwmtk_1_1_tet_mesh.html#ac89db402ec507958c553e5ed0a26c774" target="_top" xlink:title=" ">
<polygon fill="white" stroke="#666666" points="529.5,-251 401.5,-251 401.5,-221 529.5,-221 529.5,-251"/>
<text text-anchor="start" x="409.5" y="-239" font-family="Helvetica,sans-Serif" font-size="10.00">wmtk::TetMesh::switch</text>
<text text-anchor="middle" x="465.5" y="-228" font-family="Helvetica,sans-Serif" font-size="10.00">_tetrahedron</text>
</a>
</g>
</g>
<!-- Node7&#45;&gt;Node16 -->
<g id="edge16_Node000007_Node000016" class="edge">
<title>Node7&#45;&gt;Node16</title>
<g id="a_edge16_Node000007_Node000016"><a xlink:title=" ">
<path fill="none" stroke="#63b8ff" d="M587.96,-262.85C568.79,-258.61 548.27,-254.08 529.66,-249.96"/>
<polygon fill="#63b8ff" stroke="#63b8ff" points="587.33,-266.3 597.85,-265.04 588.84,-259.46 587.33,-266.3"/>
</a>
</g>
</g>
<!-- Node17 -->
<g id="Node000017" class="node">
<title>Node17</title>
<g id="a_Node000017"><a xlink:href="classwmtk_1_1_tet_mesh.html#a87165a8f0949177c42845b725feac1dd" target="_top" xlink:title=" ">
<polygon fill="white" stroke="#666666" points="529.5,-121 401.5,-121 401.5,-91 529.5,-91 529.5,-121"/>
<text text-anchor="start" x="409.5" y="-109" font-family="Helvetica,sans-Serif" font-size="10.00">wmtk::TetMesh::switch</text>
<text text-anchor="middle" x="465.5" y="-98" font-family="Helvetica,sans-Serif" font-size="10.00">_vertex</text>
</a>
</g>
</g>
<!-- Node7&#45;&gt;Node17 -->
<g id="edge18_Node000007_Node000017" class="edge">
<title>Node7&#45;&gt;Node17</title>
<g id="a_edge18_Node000007_Node000017"><a xlink:title=" ">
<path fill="none" stroke="#63b8ff" d="M641.63,-256.33C622.26,-234.23 591.09,-200.22 561,-174 538.14,-154.08 509.63,-134.16 489.93,-121.08"/>
<polygon fill="#63b8ff" stroke="#63b8ff" points="639.01,-258.65 648.22,-263.9 644.29,-254.05 639.01,-258.65"/>
</a>
</g>
</g>
<!-- Node9 -->
<g id="Node000009" class="node">
<title>Node9</title>
<g id="a_Node000009"><a xlink:href="classwmtk_1_1operations_1_1tet__mesh_1_1_split_new_attribute_topo_info.html#a89bd25c4ffb57ea07683a822dc5aae05" target="_top" xlink:title=" ">
<polygon fill="white" stroke="#666666" points="323.5,-445.5 159.5,-445.5 159.5,-404.5 323.5,-404.5 323.5,-445.5"/>
<text text-anchor="start" x="167.5" y="-433.5" font-family="Helvetica,sans-Serif" font-size="10.00">wmtk::operations::tet</text>
<text text-anchor="start" x="167.5" y="-422.5" font-family="Helvetica,sans-Serif" font-size="10.00">_mesh::SplitNewAttributeTopo</text>
<text text-anchor="middle" x="241.5" y="-411.5" font-family="Helvetica,sans-Serif" font-size="10.00">Info::input_ear_simplices</text>
</a>
</g>
</g>
<!-- Node8&#45;&gt;Node9 -->
<g id="edge8_Node000008_Node000009" class="edge">
<title>Node8&#45;&gt;Node9</title>
<g id="a_edge8_Node000008_Node000009"><a xlink:title=" ">
<path fill="none" stroke="#63b8ff" d="M380.57,-388.31C360.59,-393.62 339.36,-399.26 319.7,-404.48"/>
<polygon fill="#63b8ff" stroke="#63b8ff" points="381.5,-391.68 390.27,-385.73 379.71,-384.91 381.5,-391.68"/>
</a>
</g>
</g>
<!-- Node10 -->
<g id="Node000010" class="node">
<title>Node10</title>
<g id="a_Node000010"><a xlink:href="classwmtk_1_1operations_1_1tet__mesh_1_1_collapse_new_attribute_topo_info.html#a9f0532f826f70f51e8b5a9a2275e426b" target="_top" xlink:title=" ">
<polygon fill="white" stroke="#666666" points="322,-386.5 161,-386.5 161,-345.5 322,-345.5 322,-386.5"/>
<text text-anchor="start" x="169" y="-374.5" font-family="Helvetica,sans-Serif" font-size="10.00">wmtk::operations::tet</text>
<text text-anchor="start" x="169" y="-363.5" font-family="Helvetica,sans-Serif" font-size="10.00">_mesh::CollapseNewAttribute</text>
<text text-anchor="middle" x="241.5" y="-352.5" font-family="Helvetica,sans-Serif" font-size="10.00">TopoInfo::merged_simplices</text>
</a>
</g>
</g>
<!-- Node8&#45;&gt;Node10 -->
<g id="edge9_Node000008_Node000010" class="edge">
<title>Node8&#45;&gt;Node10</title>
<g id="a_edge9_Node000008_Node000010"><a xlink:title=" ">
<path fill="none" stroke="#63b8ff" d="M380.17,-366C361.21,-366 341.15,-366 322.38,-366"/>
<polygon fill="#63b8ff" stroke="#63b8ff" points="380.27,-369.5 390.27,-366 380.27,-362.5 380.27,-369.5"/>
</a>
</g>
</g>
<!-- Node12&#45;&gt;Node11 -->
<g id="edge12_Node000012_Node000011" class="edge">
<title>Node12&#45;&gt;Node11</title>
<g id="a_edge12_Node000012_Node000011"><a xlink:title=" ">
<path fill="none" stroke="#63b8ff" d="M376.36,-283.69C312.14,-284.72 223.67,-281.14 149,-260 123.51,-252.78 97.13,-237.7 79.28,-226.16"/>
<polygon fill="#63b8ff" stroke="#63b8ff" points="376.53,-287.19 386.45,-283.49 376.38,-280.19 376.53,-287.19"/>
</a>
</g>
</g>
<!-- Node14 -->
<g id="Node000014" class="node">
<title>Node14</title>
<g id="a_Node000014"><a xlink:href="classwmtk_1_1_tet_mesh_1_1_tet_mesh_operation_executor.html#a0300c3eb5b2c02d01b447d69a3958727" target="_top" xlink:title="Get the incident tets and faces for an edge tuple.">
<polygon fill="white" stroke="#666666" points="334,-250.5 149,-250.5 149,-209.5 334,-209.5 334,-250.5"/>
<text text-anchor="start" x="157" y="-238.5" font-family="Helvetica,sans-Serif" font-size="10.00">wmtk::TetMesh::TetMeshOperation</text>
<text text-anchor="start" x="157" y="-227.5" font-family="Helvetica,sans-Serif" font-size="10.00">Executor::get_incident_tets</text>
<text text-anchor="middle" x="241.5" y="-216.5" font-family="Helvetica,sans-Serif" font-size="10.00">_and_faces</text>
</a>
</g>
</g>
<!-- Node13&#45;&gt;Node14 -->
<g id="edge14_Node000013_Node000014" class="edge">
<title>Node13&#45;&gt;Node14</title>
<g id="a_edge14_Node000013_Node000014"><a xlink:title=" ">
<path fill="none" stroke="#63b8ff" d="M397.2,-204.22C377.41,-207.52 355.41,-211.18 334.36,-214.69"/>
<polygon fill="#63b8ff" stroke="#63b8ff" points="398.04,-207.62 407.33,-202.53 396.89,-200.72 398.04,-207.62"/>
</a>
</g>
</g>
<!-- Node15 -->
<g id="Node000015" class="node">
<title>Node15</title>
<g id="a_Node000015"><a xlink:href="namespacewmtk_1_1simplex.html#ae52e68a7ebacf23d85b0b15c1565dd5a" target="_top" xlink:title=" ">
<polygon fill="white" stroke="#666666" points="313,-191.5 170,-191.5 170,-172.5 313,-172.5 313,-191.5"/>
<text text-anchor="middle" x="241.5" y="-179.5" font-family="Helvetica,sans-Serif" font-size="10.00">wmtk::simplex::open_star</text>
</a>
</g>
</g>
<!-- Node13&#45;&gt;Node15 -->
<g id="edge15_Node000013_Node000015" class="edge">
<title>Node13&#45;&gt;Node15</title>
<g id="a_edge15_Node000013_Node000015"><a xlink:title=" ">
<path fill="none" stroke="#63b8ff" d="M377.75,-188.7C356.38,-187.64 333.76,-186.52 313.25,-185.51"/>
<polygon fill="#63b8ff" stroke="#63b8ff" points="377.63,-192.2 387.79,-189.2 377.97,-185.21 377.63,-192.2"/>
</a>
</g>
</g>
<!-- Node16&#45;&gt;Node14 -->
<g id="edge17_Node000016_Node000014" class="edge">
<title>Node16&#45;&gt;Node14</title>
<g id="a_edge17_Node000016_Node000014"><a xlink:title=" ">
<path fill="none" stroke="#63b8ff" d="M391.24,-234.02C373.02,-233.53 353.26,-232.99 334.27,-232.48"/>
<polygon fill="#63b8ff" stroke="#63b8ff" points="391.39,-237.53 401.48,-234.3 391.58,-230.53 391.39,-237.53"/>
</a>
</g>
</g>
<!-- Node17&#45;&gt;Node11 -->
<g id="edge20_Node000017_Node000011" class="edge">
<title>Node17&#45;&gt;Node11</title>
<g id="a_edge20_Node000017_Node000011"><a xlink:title=" ">
<path fill="none" stroke="#63b8ff" d="M390.86,-116.66C312.1,-128.52 192.64,-148.01 149,-163 124.91,-171.28 99.39,-185.14 81.44,-195.85"/>
<polygon fill="#63b8ff" stroke="#63b8ff" points="391.84,-120.05 401.21,-115.11 390.8,-113.13 391.84,-120.05"/>
</a>
</g>
</g>
<!-- Node18 -->
<g id="Node000018" class="node">
<title>Node18</title>
<g id="a_Node000018"><a xlink:href="namespacewmtk_1_1simplex.html#a18647fe3e4b68cc5a6186aa5063fcd53" target="_top" xlink:title=" ">
<polygon fill="white" stroke="#666666" points="298,-115.5 185,-115.5 185,-96.5 298,-96.5 298,-115.5"/>
<text text-anchor="middle" x="241.5" y="-103.5" font-family="Helvetica,sans-Serif" font-size="10.00">wmtk::simplex::link</text>
</a>
</g>
</g>
<!-- Node17&#45;&gt;Node18 -->
<g id="edge19_Node000017_Node000018" class="edge">
<title>Node17&#45;&gt;Node18</title>
<g id="a_edge19_Node000017_Node000018"><a xlink:title=" ">
<path fill="none" stroke="#63b8ff" d="M391.36,-106C361,-106 326.35,-106 298.12,-106"/>
<polygon fill="#63b8ff" stroke="#63b8ff" points="391.48,-109.5 401.48,-106 391.48,-102.5 391.48,-109.5"/>
</a>
</g>
</g>
<!-- Node19 -->
<g id="Node000019" class="node">
<title>Node19</title>
<g id="a_Node000019"><a xlink:href="namespacewmtk_1_1simplex.html#a428755c0a4c93af10690b6828a3c79f5" target="_top" xlink:title=" ">
<polygon fill="white" stroke="#666666" points="316,-78 167,-78 167,-48 316,-48 316,-78"/>
<text text-anchor="start" x="175" y="-66" font-family="Helvetica,sans-Serif" font-size="10.00">wmtk::simplex::link</text>
<text text-anchor="middle" x="241.5" y="-55" font-family="Helvetica,sans-Serif" font-size="10.00">_condition_closed_tetmesh</text>
</a>
</g>
</g>
<!-- Node17&#45;&gt;Node19 -->
<g id="edge21_Node000017_Node000019" class="edge">
<title>Node17&#45;&gt;Node19</title>
<g id="a_edge21_Node000017_Node000019"><a xlink:title=" ">
<path fill="none" stroke="#63b8ff" d="M391.65,-91.89C367.47,-87.21 340.54,-81.99 316.28,-77.29"/>
<polygon fill="#63b8ff" stroke="#63b8ff" points="390.99,-95.33 401.48,-93.79 392.33,-88.46 390.99,-95.33"/>
</a>
</g>
</g>
<!-- Node20 -->
<g id="Node000020" class="node">
<title>Node20</title>
<g id="a_Node000020"><a xlink:href="namespacewmtk_1_1simplex.html#a9c219fd0b4f590bc836d41011761968b" target="_top" xlink:title=" ">
<polygon fill="white" stroke="#666666" points="298,-30 185,-30 185,0 298,0 298,-30"/>
<text text-anchor="start" x="193" y="-18" font-family="Helvetica,sans-Serif" font-size="10.00">wmtk::simplex::link</text>
<text text-anchor="middle" x="241.5" y="-7" font-family="Helvetica,sans-Serif" font-size="10.00">_single_dimension</text>
</a>
</g>
</g>
<!-- Node17&#45;&gt;Node20 -->
<g id="edge23_Node000017_Node000020" class="edge">
<title>Node17&#45;&gt;Node20</title>
<g id="a_edge23_Node000017_Node000020"><a xlink:title=" ">
<path fill="none" stroke="#63b8ff" d="M430.28,-85.82C404.49,-71.26 367.9,-51.97 334,-39 322.65,-34.66 310.22,-30.82 298.27,-27.56"/>
<polygon fill="#63b8ff" stroke="#63b8ff" points="428.84,-89.03 439.26,-90.94 432.31,-82.95 428.84,-89.03"/>
</a>
</g>
</g>
<!-- Node19&#45;&gt;Node11 -->
<g id="edge22_Node000019_Node000011" class="edge">
<title>Node19&#45;&gt;Node11</title>
<g id="a_edge22_Node000019_Node000011"><a xlink:title=" ">
<path fill="none" stroke="#63b8ff" d="M157.52,-81.88C154.57,-83.46 151.72,-85.16 149,-87 107.15,-115.38 77.22,-169.44 64.42,-195.8"/>
<polygon fill="#63b8ff" stroke="#63b8ff" points="159.09,-85.01 166.62,-77.55 156.08,-78.69 159.09,-85.01"/>
</a>
</g>
</g>
</g>
</svg>

<g id="navigator" transform="translate(0 0)" fill="#404254">
  <rect fill="#f2f5e9" fill-opacity="0.5" stroke="#606060" stroke-width=".5" x="0" y="0" width="60" height="60"/>
  <use id="zoomplus" xlink:href="#zoomPlus" x="17" y="9" onmousedown="handleZoom(evt,'in')"/>
  <use id="zoomminus" xlink:href="#zoomMin" x="42" y="9" onmousedown="handleZoom(evt,'out')"/>
  <use id="reset" xlink:href="#resetDef" x="30" y="36" onmousedown="handleReset()"/>
   <use id="arrowup" xlink:href="#arrowUp" x="0" y="0" onmousedown="handlePan(0,-1)"/>
  <use id="arrowright" xlink:href="#arrowRight" x="0" y="0" onmousedown="handlePan(1,0)"/>
  <use id="arrowdown" xlink:href="#arrowDown" x="0" y="0" onmousedown="handlePan(0,1)"/>
  <use id="arrowleft" xlink:href="#arrowLeft" x="0" y="0" onmousedown="handlePan(-1,0)"/>
</g>
<svg viewBox="0 0 15 15" width="100%" height="30px" preserveAspectRatio="xMaxYMin meet">
 <g id="arrow_out" transform="scale(0.3 0.3)">
  <a xlink:href="namespacewmtk_1_1autogen_1_1tet__mesh_a4060d948aa959f21810c425f3f197dd5_icgraph_org.svg" target="_base">
   <rect id="button" ry="5" rx="5" y="6" x="6" height="38" width="38"
        fill="#f2f5e9" fill-opacity="0.5" stroke="#606060" stroke-width="1.0"/>
   <path id="arrow"
     d="M 11.500037,31.436501 C 11.940474,20.09759 22.043105,11.32322 32.158766,21.979434 L 37.068811,17.246167 C 37.068811,17.246167 37.088388,32 37.088388,32 L 22.160133,31.978069 C 22.160133,31.978069 26.997745,27.140456 26.997745,27.140456 C 18.528582,18.264221 13.291696,25.230495 11.500037,31.436501 z"
     style="fill:#404040;"/>
  </a>
 </g>
</svg>

<style type='text/css'>
<![CDATA[
[data-mouse-over-selected='false'] { opacity: 0.7; }
[data-mouse-over-selected='true']  { opacity: 1.0; }
]]>
</style>
<script type="application/ecmascript"><![CDATA[
document.addEventListener('DOMContentLoaded', (event) => {
  highlightEdges();
  highlightAdjacentNodes();
});
]]></script>
</svg>
