<?xml version="1.0" encoding="UTF-8" standalone="no"?>
<!DOCTYPE svg PUBLIC "-//W3C//DTD SVG 1.1//EN"
 "http://www.w3.org/Graphics/SVG/1.1/DTD/svg11.dtd">
<!-- Generated by graphviz version 2.43.0 (0)
 -->
<!-- Title: wmtk::simplex::open_star Pages: 1 -->
<!--zoomable 478 -->

<svg id="main" version="1.1" xmlns="http://www.w3.org/2000/svg" xmlns:xlink="http://www.w3.org/1999/xlink" xml:space="preserve" onload="init(evt)">
<style type="text/css"><![CDATA[
.node, .edge {opacity: 0.7;}
.node.selected, .edge.selected {opacity: 1;}
.edge:hover path { stroke: red; }
.edge:hover polygon { stroke: red; fill: red; }
]]></style>

<defs>
  <circle id="rim" cx="0" cy="0" r="7"/>
  <circle id="rim2" cx="0" cy="0" r="3.5"/>
  <g id="zoomPlus">
    <use xlink:href="#rim" fill="#404040"><set attributeName="fill" to="#808080" begin="zoomplus.mouseover" end="zoomplus.mouseout"/></use>
    <path d="M-4,0h8M0,-4v8" fill="none" stroke="white" stroke-width="1.5" pointer-events="none"/>
  </g>
  <g id="zoomMin">
    <use xlink:href="#rim" fill="#404040"><set attributeName="fill" to="#808080" begin="zoomminus.mouseover" end="zoomminus.mouseout"/></use>
    <path d="M-4,0h8" fill="none" stroke="white" stroke-width="1.5" pointer-events="none"/>
  </g>
  <g id="arrowUp" transform="translate(30 24)">
    <use xlink:href="#rim"/>
    <path pointer-events="none" fill="none" stroke="white" stroke-width="1.5" d="M0,-3.0v7 M-2.5,-0.5L0,-3.0L2.5,-0.5"/>
  </g>
  <g id="arrowRight" transform="rotate(90) translate(36 -43)">
    <use xlink:href="#rim"/>
    <path pointer-events="none" fill="none" stroke="white" stroke-width="1.5" d="M0,-3.0v7 M-2.5,-0.5L0,-3.0L2.5,-0.5"/>
  </g>
  <g id="arrowDown" transform="rotate(180) translate(-30 -48)">
    <use xlink:href="#rim"/>
    <path pointer-events="none" fill="none" stroke="white" stroke-width="1.5" d="M0,-3.0v7 M-2.5,-0.5L0,-3.0L2.5,-0.5"/>
  </g>
  <g id="arrowLeft" transform="rotate(270) translate(-36 17)">
    <use xlink:href="#rim"/>
    <path pointer-events="none" fill="none" stroke="white" stroke-width="1.5" d="M0,-3.0v7 M-2.5,-0.5L0,-3.0L2.5,-0.5"/>
  </g>
  <g id="resetDef">
    <use xlink:href="#rim2" fill="#404040"><set attributeName="fill" to="#808080" begin="reset.mouseover" end="reset.mouseout"/></use>
  </g>
</defs>
<script type="application/ecmascript">
var viewWidth = 1553;
var viewHeight = 478;
var sectionId = 'dynsection-53';
</script>
<script type="application/ecmascript" xlink:href="svg.min.js"/>
<svg id="graph" class="graph">
<g id="viewport">
<title>wmtk::simplex::open_star</title>
<!-- Node1 -->
<g id="Node000001" class="node">
<title>Node1</title>
<g id="a_Node000001"><a xlink:title=" ">
<polygon fill="#999999" stroke="#666666" points="143,-236 0,-236 0,-217 143,-217 143,-236"/>
<text text-anchor="middle" x="71.5" y="-224" font-family="Helvetica,sans-Serif" font-size="10.00">wmtk::simplex::open_star</text>
</a>
</g>
</g>
<!-- Node2 -->
<g id="Node000002" class="node">
<title>Node2</title>
<g id="a_Node000002"><a xlink:href="classwmtk_1_1simplex_1_1_simplex.html#a753a9245716f207b57cd92fcab5936e7" target="_top" xlink:title=" ">
<polygon fill="white" stroke="#666666" points="338.5,-423.5 203.5,-423.5 203.5,-393.5 338.5,-393.5 338.5,-423.5"/>
<text text-anchor="start" x="211.5" y="-411.5" font-family="Helvetica,sans-Serif" font-size="10.00">wmtk::simplex::Simplex</text>
<text text-anchor="middle" x="271" y="-400.5" font-family="Helvetica,sans-Serif" font-size="10.00">::edge</text>
</a>
</g>
</g>
<!-- Node1&#45;&gt;Node2 -->
<g id="edge1_Node000001_Node000002" class="edge">
<title>Node1&#45;&gt;Node2</title>
<g id="a_edge1_Node000001_Node000002"><a xlink:title=" ">
<path fill="none" stroke="#63b8ff" d="M76.09,-236.07C86.98,-263.72 122.37,-344.26 179,-384.5 183.58,-387.75 188.57,-390.57 193.78,-393"/>
<polygon fill="#63b8ff" stroke="#63b8ff" points="192.77,-396.37 203.34,-396.97 195.45,-389.9 192.77,-396.37"/>
</a>
</g>
</g>
<!-- Node4 -->
<g id="Node000004" class="node">
<title>Node4</title>
<g id="a_Node000004"><a xlink:href="classwmtk_1_1simplex_1_1_simplex.html#a2b9d969f3c7b1d746abc29d228f91328" target="_top" xlink:title=" ">
<polygon fill="white" stroke="#666666" points="338.5,-375.5 203.5,-375.5 203.5,-345.5 338.5,-345.5 338.5,-375.5"/>
<text text-anchor="start" x="211.5" y="-363.5" font-family="Helvetica,sans-Serif" font-size="10.00">wmtk::simplex::Simplex</text>
<text text-anchor="middle" x="271" y="-352.5" font-family="Helvetica,sans-Serif" font-size="10.00">::face</text>
</a>
</g>
</g>
<!-- Node1&#45;&gt;Node4 -->
<g id="edge3_Node000001_Node000004" class="edge">
<title>Node1&#45;&gt;Node4</title>
<g id="a_edge3_Node000001_Node000004"><a xlink:title=" ">
<path fill="none" stroke="#63b8ff" d="M78.97,-236.13C93.93,-257.61 133.12,-309.64 179,-336.5 183.67,-339.23 188.66,-341.66 193.8,-343.82"/>
<polygon fill="#63b8ff" stroke="#63b8ff" points="192.59,-347.11 203.18,-347.41 195.1,-340.57 192.59,-347.11"/>
</a>
</g>
</g>
<!-- Node5 -->
<g id="Node000005" class="node">
<title>Node5</title>
<g id="a_Node000005"><a xlink:href="namespacewmtk.html#a441d6ad4f19569c7d4946e743da1a925" target="_top" xlink:title=" ">
<polygon fill="white" stroke="#666666" points="564,-150.5 442,-150.5 442,-120.5 564,-120.5 564,-150.5"/>
<text text-anchor="start" x="450" y="-138.5" font-family="Helvetica,sans-Serif" font-size="10.00">wmtk::log_and_throw</text>
<text text-anchor="middle" x="503" y="-127.5" font-family="Helvetica,sans-Serif" font-size="10.00">_error</text>
</a>
</g>
</g>
<!-- Node1&#45;&gt;Node5 -->
<g id="edge5_Node000001_Node000005" class="edge">
<title>Node1&#45;&gt;Node5</title>
<g id="a_edge5_Node000001_Node000005"><a xlink:title=" ">
<path fill="none" stroke="#63b8ff" d="M113.93,-216.98C133.63,-212.5 157.51,-207.14 179,-202.5 260.62,-184.88 281.24,-181.47 363,-164.5 385.4,-159.85 409.82,-154.76 431.86,-150.16"/>
<polygon fill="#63b8ff" stroke="#63b8ff" points="432.72,-153.56 441.8,-148.09 431.29,-146.71 432.72,-153.56"/>
</a>
</g>
</g>
<!-- Node8 -->
<g id="Node000008" class="node">
<title>Node8</title>
<g id="a_Node000008"><a xlink:href="classwmtk_1_1simplex_1_1_simplex.html#ad2cc0340a0772b7d6f03ba7a781d1163" target="_top" xlink:title=" ">
<polygon fill="white" stroke="#666666" points="570.5,-64.5 435.5,-64.5 435.5,-34.5 570.5,-34.5 570.5,-64.5"/>
<text text-anchor="start" x="443.5" y="-52.5" font-family="Helvetica,sans-Serif" font-size="10.00">wmtk::simplex::Simplex</text>
<text text-anchor="middle" x="503" y="-41.5" font-family="Helvetica,sans-Serif" font-size="10.00">::primitive_type</text>
</a>
</g>
</g>
<!-- Node1&#45;&gt;Node8 -->
<g id="edge8_Node000001_Node000008" class="edge">
<title>Node1&#45;&gt;Node8</title>
<g id="a_edge8_Node000001_Node000008"><a xlink:title=" ">
<path fill="none" stroke="#63b8ff" d="M75.59,-216.78C85.33,-187.99 118.37,-103.07 179,-68.5 254.35,-25.54 356.31,-27.49 425.37,-35.8"/>
<polygon fill="#63b8ff" stroke="#63b8ff" points="424.95,-39.28 435.31,-37.07 425.83,-32.33 424.95,-39.28"/>
</a>
</g>
</g>
<!-- Node9 -->
<g id="Node000009" class="node">
<title>Node9</title>
<g id="a_Node000009"><a xlink:href="classwmtk_1_1simplex_1_1_simplex_collection.html#ab318c99d54327383ff1b985bed043f3a" target="_top" xlink:title="Sort simplex vector and remove duplicates.">
<polygon fill="white" stroke="#666666" points="363,-241.5 179,-241.5 179,-211.5 363,-211.5 363,-241.5"/>
<text text-anchor="start" x="187" y="-229.5" font-family="Helvetica,sans-Serif" font-size="10.00">wmtk::simplex::SimplexCollection</text>
<text text-anchor="middle" x="271" y="-218.5" font-family="Helvetica,sans-Serif" font-size="10.00">::sort_and_clean</text>
</a>
</g>
</g>
<!-- Node1&#45;&gt;Node9 -->
<g id="edge9_Node000001_Node000009" class="edge">
<title>Node1&#45;&gt;Node9</title>
<g id="a_edge9_Node000001_Node000009"><a xlink:title=" ">
<path fill="none" stroke="#63b8ff" d="M143.24,-226.5C151.52,-226.5 160.08,-226.5 168.66,-226.5"/>
<polygon fill="#63b8ff" stroke="#63b8ff" points="168.74,-230 178.74,-226.5 168.74,-223 168.74,-230"/>
</a>
</g>
</g>
<!-- Node10 -->
<g id="Node000010" class="node">
<title>Node10</title>
<g id="a_Node000010"><a xlink:href="classwmtk_1_1_tet_mesh.html#a6c405e0d239a6ec627a6b50963c52ea5" target="_top" xlink:title=" ">
<polygon fill="white" stroke="#666666" points="348.5,-279 193.5,-279 193.5,-260 348.5,-260 348.5,-279"/>
<text text-anchor="middle" x="271" y="-267" font-family="Helvetica,sans-Serif" font-size="10.00">wmtk::TetMesh::switch_face</text>
</a>
</g>
</g>
<!-- Node1&#45;&gt;Node10 -->
<g id="edge10_Node000001_Node000010" class="edge">
<title>Node1&#45;&gt;Node10</title>
<g id="a_edge10_Node000001_Node000010"><a xlink:title=" ">
<path fill="none" stroke="#63b8ff" d="M114.19,-236.06C133.84,-240.52 157.61,-245.86 179,-250.5 190.22,-252.94 202.24,-255.49 213.74,-257.9"/>
<polygon fill="#63b8ff" stroke="#63b8ff" points="213.17,-261.36 223.68,-259.98 214.6,-254.5 213.17,-261.36"/>
</a>
</g>
</g>
<!-- Node35 -->
<g id="Node000035" class="node">
<title>Node35</title>
<g id="a_Node000035"><a xlink:href="classwmtk_1_1_mesh_c_r_t_p.html#ab3cb3dac6bbba12336c6e24e6e8a5450" target="_top" xlink:title="Performs a sequence of switch_tuple operations in the order specified in op_sequence.">
<polygon fill="white" stroke="#666666" points="340.5,-155.5 201.5,-155.5 201.5,-125.5 340.5,-125.5 340.5,-155.5"/>
<text text-anchor="start" x="209.5" y="-143.5" font-family="Helvetica,sans-Serif" font-size="10.00">wmtk::MeshCRTP::switch</text>
<text text-anchor="middle" x="271" y="-132.5" font-family="Helvetica,sans-Serif" font-size="10.00">_tuples</text>
</a>
</g>
</g>
<!-- Node1&#45;&gt;Node35 -->
<g id="edge39_Node000001_Node000035" class="edge">
<title>Node1&#45;&gt;Node35</title>
<g id="a_edge39_Node000001_Node000035"><a xlink:title=" ">
<path fill="none" stroke="#63b8ff" d="M88.29,-216.87C108.69,-204.69 145.58,-183.63 179,-169.5 188.05,-165.67 197.78,-162.07 207.4,-158.78"/>
<polygon fill="#63b8ff" stroke="#63b8ff" points="208.57,-162.08 216.95,-155.6 206.36,-155.44 208.57,-162.08"/>
</a>
</g>
</g>
<!-- Node36 -->
<g id="Node000036" class="node">
<title>Node36</title>
<g id="a_Node000036"><a xlink:href="classwmtk_1_1simplex_1_1_simplex.html#a7cff84ea4d1ff4f5ba3ec96a7ddd5c01" target="_top" xlink:title=" ">
<polygon fill="white" stroke="#666666" points="338.5,-327.5 203.5,-327.5 203.5,-297.5 338.5,-297.5 338.5,-327.5"/>
<text text-anchor="start" x="211.5" y="-315.5" font-family="Helvetica,sans-Serif" font-size="10.00">wmtk::simplex::Simplex</text>
<text text-anchor="middle" x="271" y="-304.5" font-family="Helvetica,sans-Serif" font-size="10.00">::tetrahedron</text>
</a>
</g>
</g>
<!-- Node1&#45;&gt;Node36 -->
<g id="edge40_Node000001_Node000036" class="edge">
<title>Node1&#45;&gt;Node36</title>
<g id="a_edge40_Node000001_Node000036"><a xlink:title=" ">
<path fill="none" stroke="#63b8ff" d="M86.34,-236.2C106.07,-249.65 143.81,-273.93 179,-288.5 184,-290.57 189.23,-292.51 194.55,-294.31"/>
<polygon fill="#63b8ff" stroke="#63b8ff" points="193.59,-297.68 204.18,-297.41 195.73,-291.01 193.59,-297.68"/>
</a>
</g>
</g>
<!-- Node37 -->
<g id="Node000037" class="node">
<title>Node37</title>
<g id="a_Node000037"><a xlink:href="namespacewmtk_1_1simplex.html#a0101f27eb2ad82814390b92ab1a4d1a0" target="_top" xlink:title=" ">
<polygon fill="white" stroke="#666666" points="346.5,-107.5 195.5,-107.5 195.5,-77.5 346.5,-77.5 346.5,-107.5"/>
<text text-anchor="start" x="203.5" y="-95.5" font-family="Helvetica,sans-Serif" font-size="10.00">wmtk::simplex::top</text>
<text text-anchor="middle" x="271" y="-84.5" font-family="Helvetica,sans-Serif" font-size="10.00">_dimension_cofaces_tuples</text>
</a>
</g>
</g>
<!-- Node1&#45;&gt;Node37 -->
<g id="edge42_Node000001_Node000037" class="edge">
<title>Node1&#45;&gt;Node37</title>
<g id="a_edge42_Node000001_Node000037"><a xlink:title=" ">
<path fill="none" stroke="#63b8ff" d="M78.97,-216.87C93.93,-195.39 133.12,-143.36 179,-116.5 182.05,-114.71 185.24,-113.05 188.52,-111.52"/>
<polygon fill="#63b8ff" stroke="#63b8ff" points="190.13,-114.64 197.96,-107.5 187.39,-108.2 190.13,-114.64"/>
</a>
</g>
</g>
<!-- Node3 -->
<g id="Node000003" class="node">
<title>Node3</title>
<g id="a_Node000003"><a xlink:href="classwmtk_1_1simplex_1_1_simplex.html#ab6d51ca0c220792c1c09824d152bb53a" target="_top" xlink:title=" ">
<polygon fill="white" stroke="#666666" points="570.5,-375.5 435.5,-375.5 435.5,-345.5 570.5,-345.5 570.5,-375.5"/>
<text text-anchor="start" x="443.5" y="-363.5" font-family="Helvetica,sans-Serif" font-size="10.00">wmtk::simplex::Simplex</text>
<text text-anchor="middle" x="503" y="-352.5" font-family="Helvetica,sans-Serif" font-size="10.00">::Simplex</text>
</a>
</g>
</g>
<!-- Node2&#45;&gt;Node3 -->
<g id="edge2_Node000002_Node000003" class="edge">
<title>Node2&#45;&gt;Node3</title>
<g id="a_edge2_Node000002_Node000003"><a xlink:title=" ">
<path fill="none" stroke="#63b8ff" d="M338.53,-394.62C365.7,-388.94 397.3,-382.35 425.43,-376.48"/>
<polygon fill="#63b8ff" stroke="#63b8ff" points="426.15,-379.9 435.23,-374.44 424.72,-373.05 426.15,-379.9"/>
</a>
</g>
</g>
<!-- Node4&#45;&gt;Node3 -->
<g id="edge4_Node000004_Node000003" class="edge">
<title>Node4&#45;&gt;Node3</title>
<g id="a_edge4_Node000004_Node000003"><a xlink:title=" ">
<path fill="none" stroke="#63b8ff" d="M338.53,-360.5C365.58,-360.5 397.03,-360.5 425.06,-360.5"/>
<polygon fill="#63b8ff" stroke="#63b8ff" points="425.23,-364 435.23,-360.5 425.23,-357 425.23,-364"/>
</a>
</g>
</g>
<!-- Node6 -->
<g id="Node000006" class="node">
<title>Node6</title>
<g id="a_Node000006"><a xlink:href="namespacewmtk.html#a6a35f11c12436093d26fdd8be6fecc06" target="_top" xlink:title="Retrieves the current logger.">
<polygon fill="white" stroke="#666666" points="1178.5,-19 1097.5,-19 1097.5,0 1178.5,0 1178.5,-19"/>
<text text-anchor="middle" x="1138" y="-7" font-family="Helvetica,sans-Serif" font-size="10.00">wmtk::logger</text>
</a>
</g>
</g>
<!-- Node5&#45;&gt;Node6 -->
<g id="edge6_Node000005_Node000006" class="edge">
<title>Node5&#45;&gt;Node6</title>
<g id="a_edge6_Node000005_Node000006"><a xlink:title=" ">
<path fill="none" stroke="#63b8ff" d="M564.12,-123.53C688.59,-98.76 972.46,-42.25 1087.35,-19.38"/>
<polygon fill="#63b8ff" stroke="#63b8ff" points="1088.16,-22.79 1097.28,-17.41 1086.79,-15.93 1088.16,-22.79"/>
</a>
</g>
</g>
<!-- Node7 -->
<g id="Node000007" class="node">
<title>Node7</title>
<g id="a_Node000007"><a xlink:href="namespacewmtk.html#a3daa7951a5f8b78cf4600dc047fcc180" target="_top" xlink:title="Setup a logger object to be used by WildmeshToolkit.">
<polygon fill="white" stroke="#666666" points="1369.5,-19 1268.5,-19 1268.5,0 1369.5,0 1369.5,-19"/>
<text text-anchor="middle" x="1319" y="-7" font-family="Helvetica,sans-Serif" font-size="10.00">wmtk::set_logger</text>
</a>
</g>
</g>
<!-- Node6&#45;&gt;Node7 -->
<g id="edge7_Node000006_Node000007" class="edge">
<title>Node6&#45;&gt;Node7</title>
<g id="a_edge7_Node000006_Node000007"><a xlink:title=" ">
<path fill="none" stroke="#63b8ff" d="M1178.73,-9.5C1202.09,-9.5 1232.1,-9.5 1258.27,-9.5"/>
<polygon fill="#63b8ff" stroke="#63b8ff" points="1258.47,-13 1268.47,-9.5 1258.47,-6 1258.47,-13"/>
</a>
</g>
</g>
<!-- Node11 -->
<g id="Node000011" class="node">
<title>Node11</title>
<g id="a_Node000011"><a xlink:href="classwmtk_1_1_tet_mesh.html#a53d9ec91a1c80da4ae10dea485564f27" target="_top" xlink:title="switch the orientation of the Tuple of the given dimension">
<polygon fill="white" stroke="#666666" points="567,-326.5 439,-326.5 439,-296.5 567,-296.5 567,-326.5"/>
<text text-anchor="start" x="447" y="-314.5" font-family="Helvetica,sans-Serif" font-size="10.00">wmtk::TetMesh::switch</text>
<text text-anchor="middle" x="503" y="-303.5" font-family="Helvetica,sans-Serif" font-size="10.00">_tuple</text>
</a>
</g>
</g>
<!-- Node10&#45;&gt;Node11 -->
<g id="edge11_Node000010_Node000011" class="edge">
<title>Node10&#45;&gt;Node11</title>
<g id="a_edge11_Node000010_Node000011"><a xlink:title=" ">
<path fill="none" stroke="#63b8ff" d="M324.19,-279.03C355.19,-284.69 394.98,-291.96 429.05,-298.18"/>
<polygon fill="#63b8ff" stroke="#63b8ff" points="428.5,-301.64 438.96,-299.99 429.76,-294.75 428.5,-301.64"/>
</a>
</g>
</g>
<!-- Node12 -->
<g id="Node000012" class="node">
<title>Node12</title>
<g id="a_Node000012"><a xlink:href="classwmtk_1_1_tet_mesh.html#aa8424e5e4d709981e9e10d659f87f97d" target="_top" xlink:title=" ">
<polygon fill="white" stroke="#666666" points="787,-358 681,-358 681,-339 787,-339 787,-358"/>
<text text-anchor="middle" x="734" y="-346" font-family="Helvetica,sans-Serif" font-size="10.00">wmtk::TetMesh::id</text>
</a>
</g>
</g>
<!-- Node11&#45;&gt;Node12 -->
<g id="edge12_Node000011_Node000012" class="edge">
<title>Node11&#45;&gt;Node12</title>
<g id="a_edge12_Node000011_Node000012"><a xlink:title=" ">
<path fill="none" stroke="#63b8ff" d="M567.18,-321.71C599.44,-326.92 638.54,-333.24 670.67,-338.43"/>
<polygon fill="#63b8ff" stroke="#63b8ff" points="670.41,-341.93 680.84,-340.07 671.53,-335.02 670.41,-341.93"/>
</a>
</g>
</g>
<!-- Node13 -->
<g id="Node000013" class="node">
<title>Node13</title>
<g id="a_Node000013"><a xlink:href="classwmtk_1_1_tet_mesh.html#af4002e7a36e20373deb54576caffa682" target="_top" xlink:title=" ">
<polygon fill="white" stroke="#666666" points="825,-321 643,-321 643,-302 825,-302 825,-321"/>
<text text-anchor="middle" x="734" y="-309" font-family="Helvetica,sans-Serif" font-size="10.00">wmtk::TetMesh::is_boundary_face</text>
</a>
</g>
</g>
<!-- Node11&#45;&gt;Node13 -->
<g id="edge13_Node000011_Node000013" class="edge">
<title>Node11&#45;&gt;Node13</title>
<g id="a_edge13_Node000011_Node000013"><a xlink:title=" ">
<path fill="none" stroke="#63b8ff" d="M567.18,-311.5C587.39,-311.5 610.28,-311.5 632.47,-311.5"/>
<polygon fill="#63b8ff" stroke="#63b8ff" points="632.6,-315 642.6,-311.5 632.6,-308 632.6,-315"/>
</a>
</g>
</g>
<!-- Node15 -->
<g id="Node000015" class="node">
<title>Node15</title>
<g id="a_Node000015"><a xlink:href="classwmtk_1_1_tet_mesh.html#af07828ce32b19a3d5fc8e1cb6f365029" target="_top" xlink:title="check validity of tuple including its hash">
<polygon fill="white" stroke="#666666" points="801,-273 667,-273 667,-254 801,-254 801,-273"/>
<text text-anchor="middle" x="734" y="-261" font-family="Helvetica,sans-Serif" font-size="10.00">wmtk::TetMesh::is_valid</text>
</a>
</g>
</g>
<!-- Node11&#45;&gt;Node15 -->
<g id="edge15_Node000011_Node000015" class="edge">
<title>Node11&#45;&gt;Node15</title>
<g id="a_edge15_Node000011_Node000015"><a xlink:title=" ">
<path fill="none" stroke="#63b8ff" d="M567.18,-298.26C601.73,-291.01 644.15,-282.12 677.43,-275.15"/>
<polygon fill="#63b8ff" stroke="#63b8ff" points="678.38,-278.52 687.45,-273.05 676.94,-271.67 678.38,-278.52"/>
</a>
</g>
</g>
<!-- Node34 -->
<g id="Node000034" class="node">
<title>Node34</title>
<g id="a_Node000034"><a xlink:href="namespacewmtk_1_1autogen_1_1tet__mesh.html#a4060d948aa959f21810c425f3f197dd5" target="_top" xlink:title=" ">
<polygon fill="white" stroke="#666666" points="806.5,-414.5 661.5,-414.5 661.5,-384.5 806.5,-384.5 806.5,-414.5"/>
<text text-anchor="start" x="669.5" y="-402.5" font-family="Helvetica,sans-Serif" font-size="10.00">wmtk::autogen::tet</text>
<text text-anchor="middle" x="734" y="-391.5" font-family="Helvetica,sans-Serif" font-size="10.00">_mesh::local_switch_tuple</text>
</a>
</g>
</g>
<!-- Node11&#45;&gt;Node34 -->
<g id="edge37_Node000011_Node000034" class="edge">
<title>Node11&#45;&gt;Node34</title>
<g id="a_edge37_Node000011_Node000034"><a xlink:title=" ">
<path fill="none" stroke="#63b8ff" d="M567.25,-321.86C580.8,-325.44 594.72,-330.19 607,-336.5 625.78,-346.15 624.74,-356.89 643,-367.5 651.6,-372.5 661.12,-376.91 670.64,-380.74"/>
<polygon fill="#63b8ff" stroke="#63b8ff" points="669.55,-384.07 680.14,-384.37 672.05,-377.53 669.55,-384.07"/>
</a>
</g>
</g>
<!-- Node14 -->
<g id="Node000014" class="node">
<title>Node14</title>
<g id="a_Node000014"><a xlink:href="classwmtk_1_1attribute_1_1_accessor.html#a4b89ff4381fe73d4827b663203a964fc" target="_top" xlink:title=" ">
<polygon fill="white" stroke="#666666" points="1017,-379.5 875,-379.5 875,-349.5 1017,-349.5 1017,-379.5"/>
<text text-anchor="start" x="883" y="-367.5" font-family="Helvetica,sans-Serif" font-size="10.00">wmtk::attribute::Accessor</text>
<text text-anchor="middle" x="946" y="-356.5" font-family="Helvetica,sans-Serif" font-size="10.00">::const_vector_attribute</text>
</a>
</g>
</g>
<!-- Node13&#45;&gt;Node14 -->
<g id="edge14_Node000013_Node000014" class="edge">
<title>Node13&#45;&gt;Node14</title>
<g id="a_edge14_Node000013_Node000014"><a xlink:title=" ">
<path fill="none" stroke="#63b8ff" d="M783.25,-321.05C796.8,-323.91 811.51,-327.17 825,-330.5 828.17,-331.28 855.06,-338.89 882.57,-346.72"/>
<polygon fill="#63b8ff" stroke="#63b8ff" points="881.72,-350.11 892.29,-349.48 883.63,-343.38 881.72,-350.11"/>
</a>
</g>
</g>
<!-- Node16 -->
<g id="Node000016" class="node">
<title>Node16</title>
<g id="a_Node000016"><a xlink:href="classwmtk_1_1_tet_mesh.html#ad4ba72346d616d38086be74705865e55" target="_top" xlink:title=" ">
<polygon fill="white" stroke="#666666" points="1031,-180.5 861,-180.5 861,-150.5 1031,-150.5 1031,-180.5"/>
<text text-anchor="start" x="869" y="-168.5" font-family="Helvetica,sans-Serif" font-size="10.00">wmtk::TetMesh::is_connectivity</text>
<text text-anchor="middle" x="946" y="-157.5" font-family="Helvetica,sans-Serif" font-size="10.00">_valid</text>
</a>
</g>
</g>
<!-- Node15&#45;&gt;Node16 -->
<g id="edge16_Node000015_Node000016" class="edge">
<title>Node15&#45;&gt;Node16</title>
<g id="a_edge16_Node000015_Node000016"><a xlink:title=" ">
<path fill="none" stroke="#63b8ff" d="M755.52,-253.92C789.72,-237.96 859.04,-205.61 903.68,-184.78"/>
<polygon fill="#63b8ff" stroke="#63b8ff" points="905.23,-187.92 912.81,-180.52 902.27,-181.58 905.23,-187.92"/>
</a>
</g>
</g>
<!-- Node26 -->
<g id="Node000026" class="node">
<title>Node26</title>
<g id="a_Node000026"><a xlink:href="classwmtk_1_1_mesh.html#a8cc8686f0688613806f43720b6db49e7" target="_top" xlink:title="check validity of tuple including its hash">
<polygon fill="white" stroke="#666666" points="1006,-272 886,-272 886,-253 1006,-253 1006,-272"/>
<text text-anchor="middle" x="946" y="-260" font-family="Helvetica,sans-Serif" font-size="10.00">wmtk::Mesh::is_valid</text>
</a>
</g>
</g>
<!-- Node15&#45;&gt;Node26 -->
<g id="edge28_Node000015_Node000026" class="edge">
<title>Node15&#45;&gt;Node26</title>
<g id="a_edge28_Node000015_Node000026"><a xlink:title=" ">
<path fill="none" stroke="#63b8ff" d="M801.16,-263.18C824.93,-263.07 851.8,-262.94 875.82,-262.83"/>
<polygon fill="#63b8ff" stroke="#63b8ff" points="875.94,-266.33 885.93,-262.78 875.91,-259.33 875.94,-266.33"/>
</a>
</g>
</g>
<!-- Node29 -->
<g id="Node000029" class="node">
<title>Node29</title>
<g id="a_Node000029"><a xlink:href="namespacewmtk_1_1autogen_1_1tet__mesh.html#a217b7c5c5312a716ad27c99abcfc0eb1" target="_top" xlink:title=" ">
<polygon fill="white" stroke="#666666" points="1007,-331 885,-331 885,-290 1007,-290 1007,-331"/>
<text text-anchor="start" x="893" y="-319" font-family="Helvetica,sans-Serif" font-size="10.00">wmtk::autogen::tet</text>
<text text-anchor="start" x="893" y="-308" font-family="Helvetica,sans-Serif" font-size="10.00">_mesh::tuple_is_valid</text>
<text text-anchor="middle" x="946" y="-297" font-family="Helvetica,sans-Serif" font-size="10.00">_for_ccw</text>
</a>
</g>
</g>
<!-- Node15&#45;&gt;Node29 -->
<g id="edge32_Node000015_Node000029" class="edge">
<title>Node15&#45;&gt;Node29</title>
<g id="a_edge32_Node000015_Node000029"><a xlink:title=" ">
<path fill="none" stroke="#63b8ff" d="M777.5,-273.01C805.41,-279.26 842.59,-287.58 874.83,-294.8"/>
<polygon fill="#63b8ff" stroke="#63b8ff" points="874.14,-298.23 884.66,-297 875.67,-291.4 874.14,-298.23"/>
</a>
</g>
</g>
<!-- Node16&#45;&gt;Node6 -->
<g id="edge27_Node000016_Node000006" class="edge">
<title>Node16&#45;&gt;Node6</title>
<g id="a_edge27_Node000016_Node000006"><a xlink:title=" ">
<path fill="none" stroke="#63b8ff" d="M1001.82,-150.46C1012.56,-145.5 1022.97,-138.99 1031,-130.5 1064.04,-95.58 1031.77,-61.21 1067,-28.5 1072.84,-23.08 1080.07,-19.18 1087.65,-16.37"/>
<polygon fill="#63b8ff" stroke="#63b8ff" points="1088.83,-19.67 1097.35,-13.38 1086.76,-12.98 1088.83,-19.67"/>
</a>
</g>
</g>
<!-- Node17 -->
<g id="Node000017" class="node">
<title>Node17</title>
<g id="a_Node000017"><a xlink:href="classwmtk_1_1_mesh.html#a3e8ff83c4a5526a40d18bb9883c6c6c9" target="_top" xlink:title="read in the m_capacities return the upper bound for the number of entities of the given dimension">
<polygon fill="white" stroke="#666666" points="1381,-196 1257,-196 1257,-177 1381,-177 1381,-196"/>
<text text-anchor="middle" x="1319" y="-184" font-family="Helvetica,sans-Serif" font-size="10.00">wmtk::Mesh::capacity</text>
</a>
</g>
</g>
<!-- Node16&#45;&gt;Node17 -->
<g id="edge17_Node000016_Node000017" class="edge">
<title>Node16&#45;&gt;Node17</title>
<g id="a_edge17_Node000016_Node000017"><a xlink:title=" ">
<path fill="none" stroke="#63b8ff" d="M995.53,-180.51C1017.18,-186.45 1043.13,-192.56 1067,-195.5 1127.33,-202.93 1196.38,-199.6 1246.76,-195.02"/>
<polygon fill="#63b8ff" stroke="#63b8ff" points="1247.28,-198.49 1256.9,-194.06 1246.62,-191.52 1247.28,-198.49"/>
</a>
</g>
</g>
<!-- Node19 -->
<g id="Node000019" class="node">
<title>Node19</title>
<g id="a_Node000019"><a xlink:href="classwmtk_1_1attribute_1_1_caching_accessor.html#a196b6b32e2495b971113d552be7f45d9" target="_top" xlink:title=" ">
<polygon fill="white" stroke="#666666" points="1206.5,-186 1069.5,-186 1069.5,-145 1206.5,-145 1206.5,-186"/>
<text text-anchor="start" x="1077.5" y="-174" font-family="Helvetica,sans-Serif" font-size="10.00">wmtk::attribute::Caching</text>
<text text-anchor="start" x="1077.5" y="-163" font-family="Helvetica,sans-Serif" font-size="10.00">Accessor::const_scalar</text>
<text text-anchor="middle" x="1138" y="-152" font-family="Helvetica,sans-Serif" font-size="10.00">_attribute</text>
</a>
</g>
</g>
<!-- Node16&#45;&gt;Node19 -->
<g id="edge19_Node000016_Node000019" class="edge">
<title>Node16&#45;&gt;Node19</title>
<g id="a_edge19_Node000016_Node000019"><a xlink:title=" ">
<path fill="none" stroke="#63b8ff" d="M1031.17,-165.5C1040.47,-165.5 1049.91,-165.5 1059.13,-165.5"/>
<polygon fill="#63b8ff" stroke="#63b8ff" points="1059.43,-169 1069.43,-165.5 1059.43,-162 1059.43,-169"/>
</a>
</g>
</g>
<!-- Node20 -->
<g id="Node000020" class="node">
<title>Node20</title>
<g id="a_Node000020"><a xlink:href="classwmtk_1_1attribute_1_1_caching_accessor.html#ab850fe07669c7bc92ca6cf6e86c60ee0" target="_top" xlink:title=" ">
<polygon fill="white" stroke="#666666" points="1206.5,-127 1069.5,-127 1069.5,-86 1206.5,-86 1206.5,-127"/>
<text text-anchor="start" x="1077.5" y="-115" font-family="Helvetica,sans-Serif" font-size="10.00">wmtk::attribute::Caching</text>
<text text-anchor="start" x="1077.5" y="-104" font-family="Helvetica,sans-Serif" font-size="10.00">Accessor::const_vector</text>
<text text-anchor="middle" x="1138" y="-93" font-family="Helvetica,sans-Serif" font-size="10.00">_attribute</text>
</a>
</g>
</g>
<!-- Node16&#45;&gt;Node20 -->
<g id="edge20_Node000016_Node000020" class="edge">
<title>Node16&#45;&gt;Node20</title>
<g id="a_edge20_Node000016_Node000020"><a xlink:title=" ">
<path fill="none" stroke="#63b8ff" d="M995.44,-150.46C1015.36,-144.27 1038.91,-136.96 1061.02,-130.09"/>
<polygon fill="#63b8ff" stroke="#63b8ff" points="1062.22,-133.39 1070.73,-127.08 1060.14,-126.7 1062.22,-133.39"/>
</a>
</g>
</g>
<!-- Node21 -->
<g id="Node000021" class="node">
<title>Node21</title>
<g id="a_Node000021"><a xlink:href="classwmtk_1_1_mesh.html#ae0e8f71e9e17a90be9423117efcc4c81" target="_top" xlink:title=" ">
<polygon fill="white" stroke="#666666" points="1199,-67.5 1077,-67.5 1077,-37.5 1199,-37.5 1199,-67.5"/>
<text text-anchor="start" x="1085" y="-55.5" font-family="Helvetica,sans-Serif" font-size="10.00">wmtk::Mesh::get_flag</text>
<text text-anchor="middle" x="1138" y="-44.5" font-family="Helvetica,sans-Serif" font-size="10.00">_accessor</text>
</a>
</g>
</g>
<!-- Node16&#45;&gt;Node21 -->
<g id="edge21_Node000016_Node000021" class="edge">
<title>Node16&#45;&gt;Node21</title>
<g id="a_edge21_Node000016_Node000021"><a xlink:title=" ">
<path fill="none" stroke="#63b8ff" d="M996.8,-150.38C1008.79,-145.28 1021,-138.73 1031,-130.5 1053.27,-112.17 1044.15,-94.11 1067,-76.5 1068.82,-75.1 1070.73,-73.78 1072.7,-72.53"/>
<polygon fill="#63b8ff" stroke="#63b8ff" points="1074.67,-75.44 1081.7,-67.52 1071.26,-69.32 1074.67,-75.44"/>
</a>
</g>
</g>
<!-- Node24 -->
<g id="Node000024" class="node">
<title>Node24</title>
<g id="a_Node000024"><a xlink:href="classwmtk_1_1attribute_1_1_accessor.html#a2d587e12c47a6d839ab80e9198cf75b5" target="_top" xlink:title=" ">
<polygon fill="white" stroke="#666666" points="1209,-272.5 1067,-272.5 1067,-242.5 1209,-242.5 1209,-272.5"/>
<text text-anchor="start" x="1075" y="-260.5" font-family="Helvetica,sans-Serif" font-size="10.00">wmtk::attribute::Accessor</text>
<text text-anchor="middle" x="1138" y="-249.5" font-family="Helvetica,sans-Serif" font-size="10.00">::index_access</text>
</a>
</g>
</g>
<!-- Node16&#45;&gt;Node24 -->
<g id="edge25_Node000016_Node000024" class="edge">
<title>Node16&#45;&gt;Node24</title>
<g id="a_edge25_Node000016_Node000024"><a xlink:title=" ">
<path fill="none" stroke="#63b8ff" d="M974.29,-180.73C998.38,-193.96 1034.61,-213.33 1067,-228.5 1074.2,-231.87 1081.91,-235.27 1089.48,-238.5"/>
<polygon fill="#63b8ff" stroke="#63b8ff" points="1088.37,-241.83 1098.94,-242.47 1091.08,-235.37 1088.37,-241.83"/>
</a>
</g>
</g>
<!-- Node18 -->
<g id="Node000018" class="node">
<title>Node18</title>
<g id="a_Node000018"><a xlink:href="namespacewmtk.html#a5cf45c152e856196bb734c6f48919a24" target="_top" xlink:title="Get a unique integer id corresponding to each primitive type.">
<polygon fill="white" stroke="#666666" points="1545,-187.5 1429,-187.5 1429,-157.5 1545,-157.5 1545,-187.5"/>
<text text-anchor="start" x="1437" y="-175.5" font-family="Helvetica,sans-Serif" font-size="10.00">wmtk::get_primitive</text>
<text text-anchor="middle" x="1487" y="-164.5" font-family="Helvetica,sans-Serif" font-size="10.00">_type_id</text>
</a>
</g>
</g>
<!-- Node17&#45;&gt;Node18 -->
<g id="edge18_Node000017_Node000018" class="edge">
<title>Node17&#45;&gt;Node18</title>
<g id="a_edge18_Node000017_Node000018"><a xlink:title=" ">
<path fill="none" stroke="#63b8ff" d="M1381.34,-181.33C1393.46,-180.3 1406.25,-179.23 1418.56,-178.19"/>
<polygon fill="#63b8ff" stroke="#63b8ff" points="1419.09,-181.66 1428.76,-177.33 1418.5,-174.68 1419.09,-181.66"/>
</a>
</g>
</g>
<!-- Node22 -->
<g id="Node000022" class="node">
<title>Node22</title>
<g id="a_Node000022"><a xlink:href="classwmtk_1_1_mesh.html#a6dbab927a2ee85f77a87f075fd5c1d94" target="_top" xlink:title=" ">
<polygon fill="white" stroke="#666666" points="1384,-124.5 1254,-124.5 1254,-94.5 1384,-94.5 1384,-124.5"/>
<text text-anchor="start" x="1262" y="-112.5" font-family="Helvetica,sans-Serif" font-size="10.00">wmtk::Mesh::get_const</text>
<text text-anchor="middle" x="1319" y="-101.5" font-family="Helvetica,sans-Serif" font-size="10.00">_flag_accessor</text>
</a>
</g>
</g>
<!-- Node21&#45;&gt;Node22 -->
<g id="edge22_Node000021_Node000022" class="edge">
<title>Node21&#45;&gt;Node22</title>
<g id="a_edge22_Node000021_Node000022"><a xlink:title=" ">
<path fill="none" stroke="#63b8ff" d="M1186.5,-67.63C1209.35,-74.9 1236.92,-83.68 1260.9,-91.32"/>
<polygon fill="#63b8ff" stroke="#63b8ff" points="1260,-94.7 1270.59,-94.4 1262.12,-88.03 1260,-94.7"/>
</a>
</g>
</g>
<!-- Node22&#45;&gt;Node18 -->
<g id="edge24_Node000022_Node000018" class="edge">
<title>Node22&#45;&gt;Node18</title>
<g id="a_edge24_Node000022_Node000018"><a xlink:title=" ">
<path fill="none" stroke="#63b8ff" d="M1359.76,-124.59C1382.88,-133.36 1412.2,-144.49 1436.77,-153.82"/>
<polygon fill="#63b8ff" stroke="#63b8ff" points="1435.68,-157.15 1446.28,-157.42 1438.17,-150.6 1435.68,-157.15"/>
</a>
</g>
</g>
<!-- Node23 -->
<g id="Node000023" class="node">
<title>Node23</title>
<g id="a_Node000023"><a xlink:href="classwmtk_1_1_mesh.html#a357182137d99f1e4a7ff536eadfc0e56" target="_top" xlink:title=" ">
<polygon fill="white" stroke="#666666" points="1543.5,-124.5 1430.5,-124.5 1430.5,-94.5 1543.5,-94.5 1543.5,-124.5"/>
<text text-anchor="start" x="1438.5" y="-112.5" font-family="Helvetica,sans-Serif" font-size="10.00">wmtk::Mesh::create</text>
<text text-anchor="middle" x="1487" y="-101.5" font-family="Helvetica,sans-Serif" font-size="10.00">_const_accessor</text>
</a>
</g>
</g>
<!-- Node22&#45;&gt;Node23 -->
<g id="edge23_Node000022_Node000023" class="edge">
<title>Node22&#45;&gt;Node23</title>
<g id="a_edge23_Node000022_Node000023"><a xlink:title=" ">
<path fill="none" stroke="#63b8ff" d="M1384.18,-109.5C1395.96,-109.5 1408.28,-109.5 1420.12,-109.5"/>
<polygon fill="#63b8ff" stroke="#63b8ff" points="1420.36,-113 1430.36,-109.5 1420.36,-106 1420.36,-113"/>
</a>
</g>
</g>
<!-- Node25 -->
<g id="Node000025" class="node">
<title>Node25</title>
<g id="a_Node000025"><a xlink:href="classwmtk_1_1attribute_1_1_accessor.html#afd97a48ec5d1db975a030428df81f617" target="_top" xlink:title=" ">
<polygon fill="white" stroke="#666666" points="1390,-272.5 1248,-272.5 1248,-242.5 1390,-242.5 1390,-272.5"/>
<text text-anchor="start" x="1256" y="-260.5" font-family="Helvetica,sans-Serif" font-size="10.00">wmtk::attribute::Accessor</text>
<text text-anchor="middle" x="1319" y="-249.5" font-family="Helvetica,sans-Serif" font-size="10.00">::caching_base_type</text>
</a>
</g>
</g>
<!-- Node24&#45;&gt;Node25 -->
<g id="edge26_Node000024_Node000025" class="edge">
<title>Node24&#45;&gt;Node25</title>
<g id="a_edge26_Node000024_Node000025"><a xlink:title=" ">
<path fill="none" stroke="#63b8ff" d="M1209.23,-257.5C1218.58,-257.5 1228.23,-257.5 1237.73,-257.5"/>
<polygon fill="#63b8ff" stroke="#63b8ff" points="1237.97,-261 1247.97,-257.5 1237.97,-254 1237.97,-261"/>
</a>
</g>
</g>
<!-- Node27 -->
<g id="Node000027" class="node">
<title>Node27</title>
<g id="a_Node000027"><a xlink:href="classwmtk_1_1_tuple.html#a0023f575be92cd5ceeeaaaa3762ea06d" target="_top" xlink:title="Checks if a tuple is &quot;null&quot;. This merely implies the global index is &#45;1.">
<polygon fill="white" stroke="#666666" points="1194.5,-365 1081.5,-365 1081.5,-346 1194.5,-346 1194.5,-365"/>
<text text-anchor="middle" x="1138" y="-353" font-family="Helvetica,sans-Serif" font-size="10.00">wmtk::Tuple::is_null</text>
</a>
</g>
</g>
<!-- Node26&#45;&gt;Node27 -->
<g id="edge29_Node000026_Node000027" class="edge">
<title>Node26&#45;&gt;Node27</title>
<g id="a_edge29_Node000026_Node000027"><a xlink:title=" ">
<path fill="none" stroke="#63b8ff" d="M1006.4,-269.81C1015.13,-272.58 1023.65,-276.35 1031,-281.5 1055.24,-298.47 1043.02,-320.17 1067,-337.5 1068.9,-338.87 1070.9,-340.14 1072.96,-341.31"/>
<polygon fill="#63b8ff" stroke="#63b8ff" points="1071.89,-344.68 1082.41,-345.86 1074.92,-338.37 1071.89,-344.68"/>
</a>
</g>
</g>
<!-- Node28 -->
<g id="Node000028" class="node">
<title>Node28</title>
<g id="a_Node000028"><a xlink:href="classwmtk_1_1_mesh.html#ade176d345902d97af8c5da04aa3a095b" target="_top" xlink:title=" ">
<polygon fill="white" stroke="#666666" points="1208,-310 1068,-310 1068,-291 1208,-291 1208,-310"/>
<text text-anchor="middle" x="1138" y="-298" font-family="Helvetica,sans-Serif" font-size="10.00">wmtk::Mesh::is_removed</text>
</a>
</g>
</g>
<!-- Node26&#45;&gt;Node28 -->
<g id="edge30_Node000026_Node000028" class="edge">
<title>Node26&#45;&gt;Node28</title>
<g id="a_edge30_Node000026_Node000028"><a xlink:title=" ">
<path fill="none" stroke="#63b8ff" d="M994.95,-272.09C1020.58,-277.22 1052.34,-283.57 1079.32,-288.96"/>
<polygon fill="#63b8ff" stroke="#63b8ff" points="1078.91,-292.45 1089.4,-290.98 1080.28,-285.59 1078.91,-292.45"/>
</a>
</g>
</g>
<!-- Node28&#45;&gt;Node28 -->
<g id="edge31_Node000028_Node000028" class="edge">
<title>Node28&#45;&gt;Node28</title>
<g id="a_edge31_Node000028_Node000028"><a xlink:title=" ">
<path fill="none" stroke="#63b8ff" d="M1110.26,-310.08C1096.76,-318.73 1106.01,-328 1138,-328 1159.49,-328 1170.72,-323.82 1171.68,-318.45"/>
<polygon fill="#63b8ff" stroke="#63b8ff" points="1174.39,-316.21 1165.74,-310.08 1168.68,-320.26 1174.39,-316.21"/>
</a>
</g>
</g>
<!-- Node30 -->
<g id="Node000030" class="node">
<title>Node30</title>
<g id="a_Node000030"><a xlink:href="namespacewmtk_1_1autogen_1_1tet__mesh.html#ace6b80b1be9aec0d6a5ac5d144b40965" target="_top" xlink:title=" ">
<polygon fill="white" stroke="#666666" points="1199,-427 1077,-427 1077,-386 1199,-386 1199,-427"/>
<text text-anchor="start" x="1085" y="-415" font-family="Helvetica,sans-Serif" font-size="10.00">wmtk::autogen::tet</text>
<text text-anchor="start" x="1085" y="-404" font-family="Helvetica,sans-Serif" font-size="10.00">_mesh::local_id_table</text>
<text text-anchor="middle" x="1138" y="-393" font-family="Helvetica,sans-Serif" font-size="10.00">_offset</text>
</a>
</g>
</g>
<!-- Node29&#45;&gt;Node30 -->
<g id="edge33_Node000029_Node000030" class="edge">
<title>Node29&#45;&gt;Node30</title>
<g id="a_edge33_Node000029_Node000030"><a xlink:title=" ">
<path fill="none" stroke="#63b8ff" d="M1007.16,-328.52C1015.43,-331.98 1023.61,-335.97 1031,-340.5 1049.76,-352 1048.75,-362.2 1067,-374.5 1070.43,-376.81 1074.05,-379.03 1077.77,-381.14"/>
<polygon fill="#63b8ff" stroke="#63b8ff" points="1076.11,-384.23 1086.58,-385.89 1079.43,-378.07 1076.11,-384.23"/>
</a>
</g>
</g>
<!-- Node31 -->
<g id="Node000031" class="node">
<title>Node31</title>
<g id="a_Node000031"><a xlink:href="classwmtk_1_1utils_1_1_tuple_inspector.html#a3a04acf16e0eff80ade8e0fb8753ac1b" target="_top" xlink:title=" ">
<polygon fill="white" stroke="#666666" points="1393,-421.5 1245,-421.5 1245,-391.5 1393,-391.5 1393,-421.5"/>
<text text-anchor="start" x="1253" y="-409.5" font-family="Helvetica,sans-Serif" font-size="10.00">wmtk::utils::TupleInspector</text>
<text text-anchor="middle" x="1319" y="-398.5" font-family="Helvetica,sans-Serif" font-size="10.00">::local_eid</text>
</a>
</g>
</g>
<!-- Node30&#45;&gt;Node31 -->
<g id="edge34_Node000030_Node000031" class="edge">
<title>Node30&#45;&gt;Node31</title>
<g id="a_edge34_Node000030_Node000031"><a xlink:title=" ">
<path fill="none" stroke="#63b8ff" d="M1199.1,-406.5C1210.53,-406.5 1222.67,-406.5 1234.67,-406.5"/>
<polygon fill="#63b8ff" stroke="#63b8ff" points="1234.69,-410 1244.69,-406.5 1234.69,-403 1234.69,-410"/>
</a>
</g>
</g>
<!-- Node32 -->
<g id="Node000032" class="node">
<title>Node32</title>
<g id="a_Node000032"><a xlink:href="classwmtk_1_1utils_1_1_tuple_inspector.html#ae4f5c770f4a2f9440eef24448929432d" target="_top" xlink:title=" ">
<polygon fill="white" stroke="#666666" points="1393,-373.5 1245,-373.5 1245,-343.5 1393,-343.5 1393,-373.5"/>
<text text-anchor="start" x="1253" y="-361.5" font-family="Helvetica,sans-Serif" font-size="10.00">wmtk::utils::TupleInspector</text>
<text text-anchor="middle" x="1319" y="-350.5" font-family="Helvetica,sans-Serif" font-size="10.00">::local_fid</text>
</a>
</g>
</g>
<!-- Node30&#45;&gt;Node32 -->
<g id="edge35_Node000030_Node000032" class="edge">
<title>Node30&#45;&gt;Node32</title>
<g id="a_edge35_Node000030_Node000032"><a xlink:title=" ">
<path fill="none" stroke="#63b8ff" d="M1199.1,-390.38C1216.08,-385.83 1234.65,-380.85 1251.96,-376.21"/>
<polygon fill="#63b8ff" stroke="#63b8ff" points="1253.23,-379.49 1261.98,-373.52 1251.42,-372.73 1253.23,-379.49"/>
</a>
</g>
</g>
<!-- Node33 -->
<g id="Node000033" class="node">
<title>Node33</title>
<g id="a_Node000033"><a xlink:href="classwmtk_1_1utils_1_1_tuple_inspector.html#a92f5faa08a7f78424f5cd1ec79dcedbb" target="_top" xlink:title=" ">
<polygon fill="white" stroke="#666666" points="1393,-469.5 1245,-469.5 1245,-439.5 1393,-439.5 1393,-469.5"/>
<text text-anchor="start" x="1253" y="-457.5" font-family="Helvetica,sans-Serif" font-size="10.00">wmtk::utils::TupleInspector</text>
<text text-anchor="middle" x="1319" y="-446.5" font-family="Helvetica,sans-Serif" font-size="10.00">::local_vid</text>
</a>
</g>
</g>
<!-- Node30&#45;&gt;Node33 -->
<g id="edge36_Node000030_Node000033" class="edge">
<title>Node30&#45;&gt;Node33</title>
<g id="a_edge36_Node000030_Node000033"><a xlink:title=" ">
<path fill="none" stroke="#63b8ff" d="M1199.1,-422.62C1216.08,-427.17 1234.65,-432.15 1251.96,-436.79"/>
<polygon fill="#63b8ff" stroke="#63b8ff" points="1251.42,-440.27 1261.98,-439.48 1253.23,-433.51 1251.42,-440.27"/>
</a>
</g>
</g>
<!-- Node34&#45;&gt;Node30 -->
<g id="edge38_Node000034_Node000030" class="edge">
<title>Node34&#45;&gt;Node30</title>
<g id="a_edge38_Node000034_Node000030"><a xlink:title=" ">
<path fill="none" stroke="#63b8ff" d="M806.87,-400.75C880.42,-402.03 993.98,-404.01 1066.89,-405.28"/>
<polygon fill="#63b8ff" stroke="#63b8ff" points="1066.84,-408.78 1076.89,-405.45 1066.96,-401.78 1066.84,-408.78"/>
</a>
</g>
</g>
<!-- Node36&#45;&gt;Node3 -->
<g id="edge41_Node000036_Node000003" class="edge">
<title>Node36&#45;&gt;Node3</title>
<g id="a_edge41_Node000036_Node000003"><a xlink:title=" ">
<path fill="none" stroke="#63b8ff" d="M338.53,-326.38C365.7,-332.06 397.3,-338.65 425.43,-344.52"/>
<polygon fill="#63b8ff" stroke="#63b8ff" points="424.72,-347.95 435.23,-346.56 426.15,-341.1 424.72,-347.95"/>
</a>
</g>
</g>
<!-- Node37&#45;&gt;Node5 -->
<g id="edge44_Node000037_Node000005" class="edge">
<title>Node37&#45;&gt;Node5</title>
<g id="a_edge44_Node000037_Node000005"><a xlink:title=" ">
<path fill="none" stroke="#63b8ff" d="M346.67,-106.46C374.01,-111.57 404.82,-117.33 431.75,-122.37"/>
<polygon fill="#63b8ff" stroke="#63b8ff" points="431.4,-125.86 441.87,-124.26 432.68,-118.98 431.4,-125.86"/>
</a>
</g>
</g>
<!-- Node37&#45;&gt;Node8 -->
<g id="edge45_Node000037_Node000008" class="edge">
<title>Node37&#45;&gt;Node8</title>
<g id="a_edge45_Node000037_Node000008"><a xlink:title=" ">
<path fill="none" stroke="#63b8ff" d="M346.67,-78.54C371.92,-73.82 400.13,-68.55 425.51,-63.8"/>
<polygon fill="#63b8ff" stroke="#63b8ff" points="426.27,-67.22 435.46,-61.94 424.98,-60.34 426.27,-67.22"/>
</a>
</g>
</g>
<!-- Node38 -->
<g id="Node000038" class="node">
<title>Node38</title>
<g id="a_Node000038"><a xlink:href="classwmtk_1_1simplex_1_1_simplex_collection.html#a1e7079b3b75f70dd28c524556cab76cf" target="_top" xlink:title="Add simplex to the collection.">
<polygon fill="white" stroke="#666666" points="607,-102 399,-102 399,-83 607,-83 607,-102"/>
<text text-anchor="middle" x="503" y="-90" font-family="Helvetica,sans-Serif" font-size="10.00">wmtk::simplex::SimplexCollection::add</text>
</a>
</g>
</g>
<!-- Node37&#45;&gt;Node38 -->
<g id="edge43_Node000037_Node000038" class="edge">
<title>Node37&#45;&gt;Node38</title>
<g id="a_edge43_Node000037_Node000038"><a xlink:title=" ">
<path fill="none" stroke="#63b8ff" d="M346.67,-92.5C360.08,-92.5 374.32,-92.5 388.53,-92.5"/>
<polygon fill="#63b8ff" stroke="#63b8ff" points="388.86,-96 398.86,-92.5 388.86,-89 388.86,-96"/>
</a>
</g>
</g>
</g>
</svg>

<g id="navigator" transform="translate(0 0)" fill="#404254">
  <rect fill="#f2f5e9" fill-opacity="0.5" stroke="#606060" stroke-width=".5" x="0" y="0" width="60" height="60"/>
  <use id="zoomplus" xlink:href="#zoomPlus" x="17" y="9" onmousedown="handleZoom(evt,'in')"/>
  <use id="zoomminus" xlink:href="#zoomMin" x="42" y="9" onmousedown="handleZoom(evt,'out')"/>
  <use id="reset" xlink:href="#resetDef" x="30" y="36" onmousedown="handleReset()"/>
   <use id="arrowup" xlink:href="#arrowUp" x="0" y="0" onmousedown="handlePan(0,-1)"/>
  <use id="arrowright" xlink:href="#arrowRight" x="0" y="0" onmousedown="handlePan(1,0)"/>
  <use id="arrowdown" xlink:href="#arrowDown" x="0" y="0" onmousedown="handlePan(0,1)"/>
  <use id="arrowleft" xlink:href="#arrowLeft" x="0" y="0" onmousedown="handlePan(-1,0)"/>
</g>
<svg viewBox="0 0 15 15" width="100%" height="30px" preserveAspectRatio="xMaxYMin meet">
 <g id="arrow_out" transform="scale(0.3 0.3)">
  <a xlink:href="namespacewmtk_1_1simplex_ae52e68a7ebacf23d85b0b15c1565dd5a_cgraph_org.svg" target="_base">
   <rect id="button" ry="5" rx="5" y="6" x="6" height="38" width="38"
        fill="#f2f5e9" fill-opacity="0.5" stroke="#606060" stroke-width="1.0"/>
   <path id="arrow"
     d="M 11.500037,31.436501 C 11.940474,20.09759 22.043105,11.32322 32.158766,21.979434 L 37.068811,17.246167 C 37.068811,17.246167 37.088388,32 37.088388,32 L 22.160133,31.978069 C 22.160133,31.978069 26.997745,27.140456 26.997745,27.140456 C 18.528582,18.264221 13.291696,25.230495 11.500037,31.436501 z"
     style="fill:#404040;"/>
  </a>
 </g>
</svg>

<style type='text/css'>
<![CDATA[
[data-mouse-over-selected='false'] { opacity: 0.7; }
[data-mouse-over-selected='true']  { opacity: 1.0; }
]]>
</style>
<script type="application/ecmascript"><![CDATA[
document.addEventListener('DOMContentLoaded', (event) => {
  highlightEdges();
  highlightAdjacentNodes();
});
]]></script>
</svg>
