<?xml version="1.0" encoding="UTF-8" standalone="no"?>
<!DOCTYPE svg PUBLIC "-//W3C//DTD SVG 1.1//EN"
 "http://www.w3.org/Graphics/SVG/1.1/DTD/svg11.dtd">
<!-- Generated by graphviz version 2.43.0 (0)
 -->
<!-- Title: src/wmtk/simplex/open_star.hpp Pages: 1 -->
<!--zoomable 203 -->

<svg id="main" version="1.1" xmlns="http://www.w3.org/2000/svg" xmlns:xlink="http://www.w3.org/1999/xlink" xml:space="preserve" onload="init(evt)">
<style type="text/css"><![CDATA[
.node, .edge {opacity: 0.7;}
.node.selected, .edge.selected {opacity: 1;}
.edge:hover path { stroke: red; }
.edge:hover polygon { stroke: red; fill: red; }
]]></style>

<defs>
  <circle id="rim" cx="0" cy="0" r="7"/>
  <circle id="rim2" cx="0" cy="0" r="3.5"/>
  <g id="zoomPlus">
    <use xlink:href="#rim" fill="#404040"><set attributeName="fill" to="#808080" begin="zoomplus.mouseover" end="zoomplus.mouseout"/></use>
    <path d="M-4,0h8M0,-4v8" fill="none" stroke="white" stroke-width="1.5" pointer-events="none"/>
  </g>
  <g id="zoomMin">
    <use xlink:href="#rim" fill="#404040"><set attributeName="fill" to="#808080" begin="zoomminus.mouseover" end="zoomminus.mouseout"/></use>
    <path d="M-4,0h8" fill="none" stroke="white" stroke-width="1.5" pointer-events="none"/>
  </g>
  <g id="arrowUp" transform="translate(30 24)">
    <use xlink:href="#rim"/>
    <path pointer-events="none" fill="none" stroke="white" stroke-width="1.5" d="M0,-3.0v7 M-2.5,-0.5L0,-3.0L2.5,-0.5"/>
  </g>
  <g id="arrowRight" transform="rotate(90) translate(36 -43)">
    <use xlink:href="#rim"/>
    <path pointer-events="none" fill="none" stroke="white" stroke-width="1.5" d="M0,-3.0v7 M-2.5,-0.5L0,-3.0L2.5,-0.5"/>
  </g>
  <g id="arrowDown" transform="rotate(180) translate(-30 -48)">
    <use xlink:href="#rim"/>
    <path pointer-events="none" fill="none" stroke="white" stroke-width="1.5" d="M0,-3.0v7 M-2.5,-0.5L0,-3.0L2.5,-0.5"/>
  </g>
  <g id="arrowLeft" transform="rotate(270) translate(-36 17)">
    <use xlink:href="#rim"/>
    <path pointer-events="none" fill="none" stroke="white" stroke-width="1.5" d="M0,-3.0v7 M-2.5,-0.5L0,-3.0L2.5,-0.5"/>
  </g>
  <g id="resetDef">
    <use xlink:href="#rim2" fill="#404040"><set attributeName="fill" to="#808080" begin="reset.mouseover" end="reset.mouseout"/></use>
  </g>
</defs>
<script type="application/ecmascript">
var viewWidth = 1962;
var viewHeight = 203;
var sectionId = 'dynsection-1';
</script>
<script type="application/ecmascript" xlink:href="svg.min.js"/>
<svg id="graph" class="graph">
<g id="viewport">
<title>src/wmtk/simplex/open_star.hpp</title>
<!-- Node1 -->
<g id="Node000001" class="node">
<title>Node1</title>
<g id="a_Node000001"><a xlink:title=" ">
<polygon fill="#999999" stroke="#666666" points="1037.5,-195 906.5,-195 906.5,-165 1037.5,-165 1037.5,-195"/>
<text text-anchor="start" x="914.5" y="-183" font-family="Helvetica,sans-Serif" font-size="10.00">src/wmtk/simplex/open</text>
<text text-anchor="middle" x="972" y="-172" font-family="Helvetica,sans-Serif" font-size="10.00">_star.hpp</text>
</a>
</g>
</g>
<!-- Node2 -->
<g id="Node000002" class="node">
<title>Node2</title>
<g id="a_Node000002"><a xlink:href="multimesh__from__tag_8cpp.html" target="_top" xlink:title=" ">
<polygon fill="white" stroke="#666666" points="227.5,-129 50.5,-129 50.5,-77 227.5,-77 227.5,-129"/>
<text text-anchor="start" x="58.5" y="-117" font-family="Helvetica,sans-Serif" font-size="10.00">components/multimesh</text>
<text text-anchor="start" x="58.5" y="-106" font-family="Helvetica,sans-Serif" font-size="10.00">_from_tag/wmtk/components</text>
<text text-anchor="start" x="58.5" y="-95" font-family="Helvetica,sans-Serif" font-size="10.00">/multimesh_from_tag/multimesh</text>
<text text-anchor="middle" x="139" y="-84" font-family="Helvetica,sans-Serif" font-size="10.00">_from_tag.cpp</text>
</a>
</g>
</g>
<!-- Node1&#45;&gt;Node2 -->
<g id="edge1_Node000001_Node000002" class="edge">
<title>Node1&#45;&gt;Node2</title>
<g id="a_edge1_Node000001_Node000002"><a xlink:title=" ">
<path fill="none" stroke="#63b8ff" d="M896.26,-178.37C762.41,-176.26 475.63,-167.23 237,-129 233.88,-128.5 230.71,-127.95 227.52,-127.35"/>
<polygon fill="#63b8ff" stroke="#63b8ff" points="896.36,-181.88 906.41,-178.53 896.46,-174.88 896.36,-181.88"/>
</a>
</g>
</g>
<!-- Node3 -->
<g id="Node000003" class="node">
<title>Node3</title>
<g id="a_Node000003"><a xlink:href="_tag_intersection_8hpp.html" target="_top" xlink:title=" ">
<polygon fill="white" stroke="#666666" points="438,-123.5 246,-123.5 246,-82.5 438,-82.5 438,-123.5"/>
<text text-anchor="start" x="254" y="-111.5" font-family="Helvetica,sans-Serif" font-size="10.00">components/tag_intersection</text>
<text text-anchor="start" x="254" y="-100.5" font-family="Helvetica,sans-Serif" font-size="10.00">/wmtk/components/tag_intersection</text>
<text text-anchor="middle" x="342" y="-89.5" font-family="Helvetica,sans-Serif" font-size="10.00">/internal/TagIntersection.hpp</text>
</a>
</g>
</g>
<!-- Node1&#45;&gt;Node3 -->
<g id="edge2_Node000001_Node000003" class="edge">
<title>Node1&#45;&gt;Node3</title>
<g id="a_edge2_Node000001_Node000003"><a xlink:title=" ">
<path fill="none" stroke="#63b8ff" d="M896.23,-174.75C794.65,-168.37 608.9,-154.27 452,-129 442.43,-127.46 432.45,-125.58 422.57,-123.55"/>
<polygon fill="#63b8ff" stroke="#63b8ff" points="896.2,-178.26 906.4,-175.39 896.63,-171.27 896.2,-178.26"/>
</a>
</g>
</g>
<!-- Node5 -->
<g id="Node000005" class="node">
<title>Node5</title>
<g id="a_Node000005"><a xlink:href="tag__intersection_8cpp.html" target="_top" xlink:title=" ">
<polygon fill="white" stroke="#666666" points="602,-41 410,-41 410,0 602,0 602,-41"/>
<text text-anchor="start" x="418" y="-29" font-family="Helvetica,sans-Serif" font-size="10.00">components/tag_intersection</text>
<text text-anchor="start" x="418" y="-18" font-family="Helvetica,sans-Serif" font-size="10.00">/wmtk/components/tag_intersection</text>
<text text-anchor="middle" x="506" y="-7" font-family="Helvetica,sans-Serif" font-size="10.00">/tag_intersection.cpp</text>
</a>
</g>
</g>
<!-- Node1&#45;&gt;Node5 -->
<g id="edge6_Node000001_Node000005" class="edge">
<title>Node1&#45;&gt;Node5</title>
<g id="a_edge6_Node000001_Node000005"><a xlink:title=" ">
<path fill="none" stroke="#63b8ff" d="M895.84,-176.66C765.95,-171.88 512.9,-158.81 486,-129 464.25,-104.9 480.48,-65.03 493.66,-41.21"/>
<polygon fill="#63b8ff" stroke="#63b8ff" points="896,-180.17 906.12,-177.03 896.25,-173.17 896,-180.17"/>
</a>
</g>
</g>
<!-- Node7 -->
<g id="Node000007" class="node">
<title>Node7</title>
<g id="a_Node000007"><a xlink:href="_tet_mesh_8cpp.html" target="_top" xlink:title=" ">
<polygon fill="white" stroke="#666666" points="619.5,-112.5 494.5,-112.5 494.5,-93.5 619.5,-93.5 619.5,-112.5"/>
<text text-anchor="middle" x="557" y="-100.5" font-family="Helvetica,sans-Serif" font-size="10.00">src/wmtk/TetMesh.cpp</text>
</a>
</g>
</g>
<!-- Node1&#45;&gt;Node7 -->
<g id="edge7_Node000001_Node000007" class="edge">
<title>Node1&#45;&gt;Node7</title>
<g id="a_edge7_Node000001_Node000007"><a xlink:title=" ">
<path fill="none" stroke="#63b8ff" d="M896.44,-172.14C826.41,-164.81 719.68,-151.14 629,-129 611.52,-124.73 592.29,-117.94 578.11,-112.52"/>
<polygon fill="#63b8ff" stroke="#63b8ff" points="896.19,-175.63 906.5,-173.18 896.91,-168.67 896.19,-175.63"/>
</a>
</g>
</g>
<!-- Node8 -->
<g id="Node000008" class="node">
<title>Node8</title>
<g id="a_Node000008"><a xlink:href="_tet_mesh_operation_executor_8cpp.html" target="_top" xlink:title=" ">
<polygon fill="white" stroke="#666666" points="790.5,-118 637.5,-118 637.5,-88 790.5,-88 790.5,-118"/>
<text text-anchor="start" x="645.5" y="-106" font-family="Helvetica,sans-Serif" font-size="10.00">src/wmtk/TetMeshOperation</text>
<text text-anchor="middle" x="714" y="-95" font-family="Helvetica,sans-Serif" font-size="10.00">Executor.cpp</text>
</a>
</g>
</g>
<!-- Node1&#45;&gt;Node8 -->
<g id="edge8_Node000001_Node000008" class="edge">
<title>Node1&#45;&gt;Node8</title>
<g id="a_edge8_Node000001_Node000008"><a xlink:title=" ">
<path fill="none" stroke="#63b8ff" d="M914.02,-162.14C868.35,-148.87 805.43,-130.58 762.43,-118.08"/>
<polygon fill="#63b8ff" stroke="#63b8ff" points="913.2,-165.55 923.77,-164.98 915.15,-158.83 913.2,-165.55"/>
</a>
</g>
</g>
<!-- Node9 -->
<g id="Node000009" class="node">
<title>Node9</title>
<g id="a_Node000009"><a xlink:href="_tri_mesh_operation_executor_8cpp.html" target="_top" xlink:title=" ">
<polygon fill="white" stroke="#666666" points="959,-118 809,-118 809,-88 959,-88 959,-118"/>
<text text-anchor="start" x="817" y="-106" font-family="Helvetica,sans-Serif" font-size="10.00">src/wmtk/TriMeshOperation</text>
<text text-anchor="middle" x="884" y="-95" font-family="Helvetica,sans-Serif" font-size="10.00">Executor.cpp</text>
</a>
</g>
</g>
<!-- Node1&#45;&gt;Node9 -->
<g id="edge9_Node000001_Node000009" class="edge">
<title>Node1&#45;&gt;Node9</title>
<g id="a_edge9_Node000001_Node000009"><a xlink:title=" ">
<path fill="none" stroke="#63b8ff" d="M947.56,-158.17C932.55,-145.38 913.73,-129.34 900.48,-118.04"/>
<polygon fill="#63b8ff" stroke="#63b8ff" points="945.57,-161.07 955.45,-164.89 950.11,-155.74 945.57,-161.07"/>
</a>
</g>
</g>
<!-- Node10 -->
<g id="Node000010" class="node">
<title>Node10</title>
<g id="a_Node000010"><a xlink:href="_tet_mesh_substructure_topology_preserving_invariant_8cpp.html" target="_top" xlink:title=" ">
<polygon fill="white" stroke="#666666" points="1142.5,-123.5 977.5,-123.5 977.5,-82.5 1142.5,-82.5 1142.5,-123.5"/>
<text text-anchor="start" x="985.5" y="-111.5" font-family="Helvetica,sans-Serif" font-size="10.00">src/wmtk/invariants</text>
<text text-anchor="start" x="985.5" y="-100.5" font-family="Helvetica,sans-Serif" font-size="10.00">/TetMeshSubstructureTopology</text>
<text text-anchor="middle" x="1060" y="-89.5" font-family="Helvetica,sans-Serif" font-size="10.00">PreservingInvariant.cpp</text>
</a>
</g>
</g>
<!-- Node1&#45;&gt;Node10 -->
<g id="edge10_Node000001_Node000010" class="edge">
<title>Node1&#45;&gt;Node10</title>
<g id="a_edge10_Node000001_Node000010"><a xlink:title=" ">
<path fill="none" stroke="#63b8ff" d="M996.41,-158.19C1009.06,-147.41 1024.43,-134.32 1036.88,-123.7"/>
<polygon fill="#63b8ff" stroke="#63b8ff" points="993.89,-155.74 988.55,-164.89 998.43,-161.07 993.89,-155.74"/>
</a>
</g>
</g>
<!-- Node11 -->
<g id="Node000011" class="node">
<title>Node11</title>
<g id="a_Node000011"><a xlink:href="_tri_mesh_substructure_topology_preserving_invariant_8cpp.html" target="_top" xlink:title=" ">
<polygon fill="white" stroke="#666666" points="1323,-123.5 1161,-123.5 1161,-82.5 1323,-82.5 1323,-123.5"/>
<text text-anchor="start" x="1169" y="-111.5" font-family="Helvetica,sans-Serif" font-size="10.00">src/wmtk/invariants</text>
<text text-anchor="start" x="1169" y="-100.5" font-family="Helvetica,sans-Serif" font-size="10.00">/TriMeshSubstructureTopology</text>
<text text-anchor="middle" x="1242" y="-89.5" font-family="Helvetica,sans-Serif" font-size="10.00">PreservingInvariant.cpp</text>
</a>
</g>
</g>
<!-- Node1&#45;&gt;Node11 -->
<g id="edge11_Node000001_Node000011" class="edge">
<title>Node1&#45;&gt;Node11</title>
<g id="a_edge11_Node000001_Node000011"><a xlink:title=" ">
<path fill="none" stroke="#63b8ff" d="M1032.12,-162.3C1073.4,-150.83 1128.35,-135.57 1171.67,-123.54"/>
<polygon fill="#63b8ff" stroke="#63b8ff" points="1031.17,-158.93 1022.47,-164.98 1033.04,-165.68 1031.17,-158.93"/>
</a>
</g>
</g>
<!-- Node12 -->
<g id="Node000012" class="node">
<title>Node12</title>
<g id="a_Node000012"><a xlink:href="_tet_edge_swap_8cpp.html" target="_top" xlink:title=" ">
<polygon fill="white" stroke="#666666" points="1499,-118 1341,-118 1341,-88 1499,-88 1499,-118"/>
<text text-anchor="start" x="1349" y="-106" font-family="Helvetica,sans-Serif" font-size="10.00">src/wmtk/operations</text>
<text text-anchor="middle" x="1420" y="-95" font-family="Helvetica,sans-Serif" font-size="10.00">/composite/TetEdgeSwap.cpp</text>
</a>
</g>
</g>
<!-- Node1&#45;&gt;Node12 -->
<g id="edge12_Node000001_Node000012" class="edge">
<title>Node1&#45;&gt;Node12</title>
<g id="a_edge12_Node000001_Node000012"><a xlink:title=" ">
<path fill="none" stroke="#63b8ff" d="M1047.56,-171.59C1120.77,-163.69 1234.69,-149.48 1332,-129 1346.14,-126.02 1361.35,-122 1375.08,-118.06"/>
<polygon fill="#63b8ff" stroke="#63b8ff" points="1047.08,-168.12 1037.51,-172.66 1047.82,-175.08 1047.08,-168.12"/>
</a>
</g>
</g>
<!-- Node13 -->
<g id="Node000013" class="node">
<title>Node13</title>
<g id="a_Node000013"><a xlink:href="_open_star_iterable_8cpp.html" target="_top" xlink:title=" ">
<polygon fill="white" stroke="#666666" points="1661,-118 1517,-118 1517,-88 1661,-88 1661,-118"/>
<text text-anchor="start" x="1525" y="-106" font-family="Helvetica,sans-Serif" font-size="10.00">src/wmtk/simplex/iterable</text>
<text text-anchor="middle" x="1589" y="-95" font-family="Helvetica,sans-Serif" font-size="10.00">/OpenStarIterable.cpp</text>
</a>
</g>
</g>
<!-- Node1&#45;&gt;Node13 -->
<g id="edge13_Node000001_Node000013" class="edge">
<title>Node1&#45;&gt;Node13</title>
<g id="a_edge13_Node000001_Node000013"><a xlink:title=" ">
<path fill="none" stroke="#63b8ff" d="M1047.95,-176.84C1152.47,-172.75 1346.1,-161.18 1508,-129 1521.57,-126.3 1536.09,-122.22 1549.04,-118.12"/>
<polygon fill="#63b8ff" stroke="#63b8ff" points="1047.67,-173.35 1037.81,-177.22 1047.93,-180.34 1047.67,-173.35"/>
</a>
</g>
</g>
<!-- Node14 -->
<g id="Node000014" class="node">
<title>Node14</title>
<g id="a_Node000014"><a xlink:href="link__condition_8cpp.html" target="_top" xlink:title=" ">
<polygon fill="white" stroke="#666666" points="1804.5,-118 1679.5,-118 1679.5,-88 1804.5,-88 1804.5,-118"/>
<text text-anchor="start" x="1687.5" y="-106" font-family="Helvetica,sans-Serif" font-size="10.00">src/wmtk/simplex/link</text>
<text text-anchor="middle" x="1742" y="-95" font-family="Helvetica,sans-Serif" font-size="10.00">_condition.cpp</text>
</a>
</g>
</g>
<!-- Node1&#45;&gt;Node14 -->
<g id="edge14_Node000001_Node000014" class="edge">
<title>Node1&#45;&gt;Node14</title>
<g id="a_edge14_Node000001_Node000014"><a xlink:title=" ">
<path fill="none" stroke="#63b8ff" d="M1048.1,-176.07C1203.59,-169.68 1552.95,-153.08 1670,-129 1682.44,-126.44 1695.68,-122.29 1707.36,-118.09"/>
<polygon fill="#63b8ff" stroke="#63b8ff" points="1047.54,-172.59 1037.69,-176.5 1047.83,-179.59 1047.54,-172.59"/>
</a>
</g>
</g>
<!-- Node15 -->
<g id="Node000015" class="node">
<title>Node15</title>
<g id="a_Node000015"><a xlink:href="open__star_8cpp.html" target="_top" xlink:title=" ">
<polygon fill="white" stroke="#666666" points="1953.5,-118 1822.5,-118 1822.5,-88 1953.5,-88 1953.5,-118"/>
<text text-anchor="start" x="1830.5" y="-106" font-family="Helvetica,sans-Serif" font-size="10.00">src/wmtk/simplex/open</text>
<text text-anchor="middle" x="1888" y="-95" font-family="Helvetica,sans-Serif" font-size="10.00">_star.cpp</text>
</a>
</g>
</g>
<!-- Node1&#45;&gt;Node15 -->
<g id="edge15_Node000001_Node000015" class="edge">
<title>Node1&#45;&gt;Node15</title>
<g id="a_edge15_Node000001_Node000015"><a xlink:title=" ">
<path fill="none" stroke="#63b8ff" d="M1047.71,-177.08C1226.03,-172.15 1668.42,-157.38 1814,-129 1826.91,-126.48 1840.66,-122.28 1852.76,-118.04"/>
<polygon fill="#63b8ff" stroke="#63b8ff" points="1047.52,-173.59 1037.62,-177.36 1047.71,-180.59 1047.52,-173.59"/>
</a>
</g>
</g>
<!-- Node4 -->
<g id="Node000004" class="node">
<title>Node4</title>
<g id="a_Node000004"><a xlink:href="_tag_intersection_8cpp.html" target="_top" xlink:title=" ">
<polygon fill="white" stroke="#666666" points="192,-41 0,-41 0,0 192,0 192,-41"/>
<text text-anchor="start" x="8" y="-29" font-family="Helvetica,sans-Serif" font-size="10.00">components/tag_intersection</text>
<text text-anchor="start" x="8" y="-18" font-family="Helvetica,sans-Serif" font-size="10.00">/wmtk/components/tag_intersection</text>
<text text-anchor="middle" x="96" y="-7" font-family="Helvetica,sans-Serif" font-size="10.00">/internal/TagIntersection.cpp</text>
</a>
</g>
</g>
<!-- Node3&#45;&gt;Node4 -->
<g id="edge3_Node000003_Node000004" class="edge">
<title>Node3&#45;&gt;Node4</title>
<g id="a_edge3_Node000003_Node000004"><a xlink:title=" ">
<path fill="none" stroke="#63b8ff" d="M272.47,-79.25C235.66,-67.2 190.93,-52.56 155.71,-41.04"/>
<polygon fill="#63b8ff" stroke="#63b8ff" points="271.54,-82.63 282.14,-82.41 273.72,-75.97 271.54,-82.63"/>
</a>
</g>
</g>
<!-- Node3&#45;&gt;Node5 -->
<g id="edge4_Node000003_Node000005" class="edge">
<title>Node3&#45;&gt;Node5</title>
<g id="a_edge4_Node000003_Node000005"><a xlink:title=" ">
<path fill="none" stroke="#63b8ff" d="M391.37,-77.77C415.24,-66.05 443.51,-52.17 466.01,-41.13"/>
<polygon fill="#63b8ff" stroke="#63b8ff" points="389.55,-74.76 382.12,-82.31 392.64,-81.04 389.55,-74.76"/>
</a>
</g>
</g>
<!-- Node6 -->
<g id="Node000006" class="node">
<title>Node6</title>
<g id="a_Node000006"><a xlink:href="test__component__tag__intersection_8cpp.html" target="_top" xlink:title=" ">
<polygon fill="white" stroke="#666666" points="391.5,-35.5 210.5,-35.5 210.5,-5.5 391.5,-5.5 391.5,-35.5"/>
<text text-anchor="start" x="218.5" y="-23.5" font-family="Helvetica,sans-Serif" font-size="10.00">components/tests/test</text>
<text text-anchor="middle" x="301" y="-12.5" font-family="Helvetica,sans-Serif" font-size="10.00">_component_tag_intersection.cpp</text>
</a>
</g>
</g>
<!-- Node3&#45;&gt;Node6 -->
<g id="edge5_Node000003_Node000006" class="edge">
<title>Node3&#45;&gt;Node6</title>
<g id="a_edge5_Node000003_Node000006"><a xlink:title=" ">
<path fill="none" stroke="#63b8ff" d="M327.17,-72.87C320.76,-60.29 313.54,-46.13 308.32,-35.87"/>
<polygon fill="#63b8ff" stroke="#63b8ff" points="324.21,-74.78 331.87,-82.1 330.45,-71.6 324.21,-74.78"/>
</a>
</g>
</g>
</g>
</svg>

<g id="navigator" transform="translate(0 0)" fill="#404254">
  <rect fill="#f2f5e9" fill-opacity="0.5" stroke="#606060" stroke-width=".5" x="0" y="0" width="60" height="60"/>
  <use id="zoomplus" xlink:href="#zoomPlus" x="17" y="9" onmousedown="handleZoom(evt,'in')"/>
  <use id="zoomminus" xlink:href="#zoomMin" x="42" y="9" onmousedown="handleZoom(evt,'out')"/>
  <use id="reset" xlink:href="#resetDef" x="30" y="36" onmousedown="handleReset()"/>
   <use id="arrowup" xlink:href="#arrowUp" x="0" y="0" onmousedown="handlePan(0,-1)"/>
  <use id="arrowright" xlink:href="#arrowRight" x="0" y="0" onmousedown="handlePan(1,0)"/>
  <use id="arrowdown" xlink:href="#arrowDown" x="0" y="0" onmousedown="handlePan(0,1)"/>
  <use id="arrowleft" xlink:href="#arrowLeft" x="0" y="0" onmousedown="handlePan(-1,0)"/>
</g>
<svg viewBox="0 0 15 15" width="100%" height="30px" preserveAspectRatio="xMaxYMin meet">
 <g id="arrow_out" transform="scale(0.3 0.3)">
  <a xlink:href="open__star_8hpp__dep__incl_org.svg" target="_base">
   <rect id="button" ry="5" rx="5" y="6" x="6" height="38" width="38"
        fill="#f2f5e9" fill-opacity="0.5" stroke="#606060" stroke-width="1.0"/>
   <path id="arrow"
     d="M 11.500037,31.436501 C 11.940474,20.09759 22.043105,11.32322 32.158766,21.979434 L 37.068811,17.246167 C 37.068811,17.246167 37.088388,32 37.088388,32 L 22.160133,31.978069 C 22.160133,31.978069 26.997745,27.140456 26.997745,27.140456 C 18.528582,18.264221 13.291696,25.230495 11.500037,31.436501 z"
     style="fill:#404040;"/>
  </a>
 </g>
</svg>

<style type='text/css'>
<![CDATA[
[data-mouse-over-selected='false'] { opacity: 0.7; }
[data-mouse-over-selected='true']  { opacity: 1.0; }
]]>
</style>
<script type="application/ecmascript"><![CDATA[
document.addEventListener('DOMContentLoaded', (event) => {
  highlightEdges();
  highlightAdjacentNodes();
});
]]></script>
</svg>
