<?xml version="1.0" encoding="UTF-8" standalone="no"?>
<!DOCTYPE svg PUBLIC "-//W3C//DTD SVG 1.1//EN"
 "http://www.w3.org/Graphics/SVG/1.1/DTD/svg11.dtd">
<!-- Generated by graphviz version 2.43.0 (0)
 -->
<!-- Title: src/wmtk/utils/orient.hpp Pages: 1 -->
<svg width="3823pt" height="115pt"
 viewBox="0.00 0.00 3823.00 115.00" xmlns="http://www.w3.org/2000/svg" xmlns:xlink="http://www.w3.org/1999/xlink">
<g id="graph0" class="graph" transform="scale(1 1) rotate(0) translate(4 111)">
<title>src/wmtk/utils/orient.hpp</title>
<!-- Node1 -->
<g id="Node000001" class="node">
<title>Node1</title>
<g id="a_Node000001"><a xlink:title=" ">
<polygon fill="#999999" stroke="#666666" points="2012.5,-107 1874.5,-107 1874.5,-88 2012.5,-88 2012.5,-107"/>
<text text-anchor="middle" x="1943.5" y="-95" font-family="Helvetica,sans-Serif" font-size="10.00">src/wmtk/utils/orient.hpp</text>
</a>
</g>
</g>
<!-- Node2 -->
<g id="Node000002" class="node">
<title>Node2</title>
<g id="a_Node000002"><a xlink:href="internal_2_c_d_t_8cpp.html" target="_top" xlink:title=" ">
<polygon fill="white" stroke="#666666" points="143,-46.5 0,-46.5 0,-5.5 143,-5.5 143,-46.5"/>
<text text-anchor="start" x="8" y="-34.5" font-family="Helvetica,sans-Serif" font-size="10.00">components/CDT/wmtk</text>
<text text-anchor="start" x="8" y="-23.5" font-family="Helvetica,sans-Serif" font-size="10.00">/components/CDT/internal</text>
<text text-anchor="middle" x="71.5" y="-12.5" font-family="Helvetica,sans-Serif" font-size="10.00">/CDT.cpp</text>
</a>
</g>
</g>
<!-- Node1&#45;&gt;Node2 -->
<g id="edge1_Node000001_Node000002" class="edge">
<title>Node1&#45;&gt;Node2</title>
<g id="a_edge1_Node000001_Node000002"><a xlink:title=" ">
<path fill="none" stroke="#63b8ff" d="M1864.04,-95.83C1539.22,-92.89 321.55,-80.12 151.5,-52 143.46,-50.67 135.11,-48.73 126.97,-46.5"/>
<polygon fill="#63b8ff" stroke="#63b8ff" points="1864.27,-99.33 1874.3,-95.92 1864.33,-92.33 1864.27,-99.33"/>
</a>
</g>
</g>
<!-- Node3 -->
<g id="Node000003" class="node">
<title>Node3</title>
<g id="a_Node000003"><a xlink:href="internal_2periodic__optimization_8cpp.html" target="_top" xlink:title=" ">
<polygon fill="white" stroke="#666666" points="338,-52 161,-52 161,0 338,0 338,-52"/>
<text text-anchor="start" x="169" y="-40" font-family="Helvetica,sans-Serif" font-size="10.00">components/periodic</text>
<text text-anchor="start" x="169" y="-29" font-family="Helvetica,sans-Serif" font-size="10.00">_optimization/wmtk/components</text>
<text text-anchor="start" x="169" y="-18" font-family="Helvetica,sans-Serif" font-size="10.00">/periodic_optimization/internal</text>
<text text-anchor="middle" x="249.5" y="-7" font-family="Helvetica,sans-Serif" font-size="10.00">/periodic_optimization.cpp</text>
</a>
</g>
</g>
<!-- Node1&#45;&gt;Node3 -->
<g id="edge2_Node000001_Node000003" class="edge">
<title>Node1&#45;&gt;Node3</title>
<g id="a_edge2_Node000001_Node000003"><a xlink:title=" ">
<path fill="none" stroke="#63b8ff" d="M1864.19,-96.61C1584.53,-96.65 645.28,-93.61 347.5,-52 344.46,-51.57 341.37,-51.09 338.26,-50.56"/>
<polygon fill="#63b8ff" stroke="#63b8ff" points="1864.25,-100.11 1874.25,-96.61 1864.25,-93.11 1864.25,-100.11"/>
</a>
</g>
</g>
<!-- Node4 -->
<g id="Node000004" class="node">
<title>Node4</title>
<g id="a_Node000004"><a xlink:href="test__component__wildmeshing_8cpp.html" target="_top" xlink:title=" ">
<polygon fill="white" stroke="#666666" points="520.5,-41 356.5,-41 356.5,-11 520.5,-11 520.5,-41"/>
<text text-anchor="start" x="364.5" y="-29" font-family="Helvetica,sans-Serif" font-size="10.00">components/tests/test</text>
<text text-anchor="middle" x="438.5" y="-18" font-family="Helvetica,sans-Serif" font-size="10.00">_component_wildmeshing.cpp</text>
</a>
</g>
</g>
<!-- Node1&#45;&gt;Node4 -->
<g id="edge3_Node000001_Node000004" class="edge">
<title>Node1&#45;&gt;Node4</title>
<g id="a_edge3_Node000001_Node000004"><a xlink:title=" ">
<path fill="none" stroke="#63b8ff" d="M1864.19,-96.47C1605.79,-95.98 789.83,-91.29 529.5,-52 513.62,-49.6 496.57,-45.38 481.56,-41.08"/>
<polygon fill="#63b8ff" stroke="#63b8ff" points="1864.24,-99.97 1874.25,-96.49 1864.25,-92.97 1864.24,-99.97"/>
</a>
</g>
</g>
<!-- Node5 -->
<g id="Node000005" class="node">
<title>Node5</title>
<g id="a_Node000005"><a xlink:href="wildmeshing_8cpp.html" target="_top" xlink:title=" ">
<polygon fill="white" stroke="#666666" points="714.5,-46.5 538.5,-46.5 538.5,-5.5 714.5,-5.5 714.5,-46.5"/>
<text text-anchor="start" x="546.5" y="-34.5" font-family="Helvetica,sans-Serif" font-size="10.00">components/wildmeshing</text>
<text text-anchor="start" x="546.5" y="-23.5" font-family="Helvetica,sans-Serif" font-size="10.00">/wmtk/components/wildmeshing</text>
<text text-anchor="middle" x="626.5" y="-12.5" font-family="Helvetica,sans-Serif" font-size="10.00">/wildmeshing.cpp</text>
</a>
</g>
</g>
<!-- Node1&#45;&gt;Node5 -->
<g id="edge4_Node000001_Node000005" class="edge">
<title>Node1&#45;&gt;Node5</title>
<g id="a_edge4_Node000001_Node000005"><a xlink:title=" ">
<path fill="none" stroke="#63b8ff" d="M1864.14,-95.84C1630.01,-93.54 944.77,-84.16 723.5,-52 714.12,-50.64 704.34,-48.72 694.75,-46.55"/>
<polygon fill="#63b8ff" stroke="#63b8ff" points="1864.24,-99.34 1874.28,-95.94 1864.31,-92.34 1864.24,-99.34"/>
</a>
</g>
</g>
<!-- Node6 -->
<g id="Node000006" class="node">
<title>Node6</title>
<g id="a_Node000006"><a xlink:href="_collapse_energy_before_invariant_8cpp.html" target="_top" xlink:title=" ">
<polygon fill="white" stroke="#666666" points="924,-41 733,-41 733,-11 924,-11 924,-41"/>
<text text-anchor="start" x="741" y="-29" font-family="Helvetica,sans-Serif" font-size="10.00">src/wmtk/invariants</text>
<text text-anchor="middle" x="828.5" y="-18" font-family="Helvetica,sans-Serif" font-size="10.00">/CollapseEnergyBeforeInvariant.cpp</text>
</a>
</g>
</g>
<!-- Node1&#45;&gt;Node6 -->
<g id="edge5_Node000001_Node000006" class="edge">
<title>Node1&#45;&gt;Node6</title>
<g id="a_edge5_Node000001_Node000006"><a xlink:title=" ">
<path fill="none" stroke="#63b8ff" d="M1864.17,-94.98C1658.56,-90.71 1111.93,-77.28 932.5,-52 914.66,-49.49 895.41,-45.29 878.38,-41.04"/>
<polygon fill="#63b8ff" stroke="#63b8ff" points="1864.22,-98.48 1874.29,-95.18 1864.37,-91.48 1864.22,-98.48"/>
</a>
</g>
</g>
<!-- Node7 -->
<g id="Node000007" class="node">
<title>Node7</title>
<g id="a_Node000007"><a xlink:href="_collapse_energy_before_invariant_double_8cpp.html" target="_top" xlink:title=" ">
<polygon fill="white" stroke="#666666" points="1113,-46.5 942,-46.5 942,-5.5 1113,-5.5 1113,-46.5"/>
<text text-anchor="start" x="950" y="-34.5" font-family="Helvetica,sans-Serif" font-size="10.00">src/wmtk/invariants</text>
<text text-anchor="start" x="950" y="-23.5" font-family="Helvetica,sans-Serif" font-size="10.00">/CollapseEnergyBeforeInvariant</text>
<text text-anchor="middle" x="1027.5" y="-12.5" font-family="Helvetica,sans-Serif" font-size="10.00">Double.cpp</text>
</a>
</g>
</g>
<!-- Node1&#45;&gt;Node7 -->
<g id="edge6_Node000001_Node000007" class="edge">
<title>Node1&#45;&gt;Node7</title>
<g id="a_edge6_Node000001_Node000007"><a xlink:title=" ">
<path fill="none" stroke="#63b8ff" d="M1864.36,-94.26C1687.33,-88.92 1263.86,-74.19 1122.5,-52 1113.49,-50.58 1104.09,-48.67 1094.87,-46.52"/>
<polygon fill="#63b8ff" stroke="#63b8ff" points="1864.28,-97.76 1874.38,-94.56 1864.49,-90.76 1864.28,-97.76"/>
</a>
</g>
</g>
<!-- Node8 -->
<g id="Node000008" class="node">
<title>Node8</title>
<g id="a_Node000008"><a xlink:href="_collapse_soft_energy_before_invariant_8cpp.html" target="_top" xlink:title=" ">
<polygon fill="white" stroke="#666666" points="1341.5,-41 1131.5,-41 1131.5,-11 1341.5,-11 1341.5,-41"/>
<text text-anchor="start" x="1139.5" y="-29" font-family="Helvetica,sans-Serif" font-size="10.00">src/wmtk/invariants</text>
<text text-anchor="middle" x="1236.5" y="-18" font-family="Helvetica,sans-Serif" font-size="10.00">/CollapseSoftEnergyBeforeInvariant.cpp</text>
</a>
</g>
</g>
<!-- Node1&#45;&gt;Node8 -->
<g id="edge7_Node000001_Node000008" class="edge">
<title>Node1&#45;&gt;Node8</title>
<g id="a_edge7_Node000001_Node000008"><a xlink:title=" ">
<path fill="none" stroke="#63b8ff" d="M1864.17,-94.1C1750.06,-89.84 1533.2,-78.75 1350.5,-52 1331.65,-49.24 1311.28,-45.14 1293.04,-41.05"/>
<polygon fill="#63b8ff" stroke="#63b8ff" points="1864.1,-97.6 1874.22,-94.47 1864.35,-90.6 1864.1,-97.6"/>
</a>
</g>
</g>
<!-- Node9 -->
<g id="Node000009" class="node">
<title>Node9</title>
<g id="a_Node000009"><a xlink:href="_simplex_inversion_invariant_8cpp.html" target="_top" xlink:title=" ">
<polygon fill="white" stroke="#666666" points="1527.5,-41 1359.5,-41 1359.5,-11 1527.5,-11 1527.5,-41"/>
<text text-anchor="start" x="1367.5" y="-29" font-family="Helvetica,sans-Serif" font-size="10.00">src/wmtk/invariants</text>
<text text-anchor="middle" x="1443.5" y="-18" font-family="Helvetica,sans-Serif" font-size="10.00">/SimplexInversionInvariant.cpp</text>
</a>
</g>
</g>
<!-- Node1&#45;&gt;Node9 -->
<g id="edge8_Node000001_Node000009" class="edge">
<title>Node1&#45;&gt;Node9</title>
<g id="a_edge8_Node000001_Node000009"><a xlink:title=" ">
<path fill="none" stroke="#63b8ff" d="M1864.21,-91.45C1781.79,-85.37 1649.33,-73.2 1536.5,-52 1521.22,-49.13 1504.77,-45.04 1490.01,-41.01"/>
<polygon fill="#63b8ff" stroke="#63b8ff" points="1864.02,-94.95 1874.25,-92.18 1864.53,-87.97 1864.02,-94.95"/>
</a>
</g>
</g>
<!-- Node10 -->
<g id="Node000010" class="node">
<title>Node10</title>
<g id="a_Node000010"><a xlink:href="_swap23_energy_before_invariant_8cpp.html" target="_top" xlink:title=" ">
<polygon fill="white" stroke="#666666" points="1733.5,-41 1545.5,-41 1545.5,-11 1733.5,-11 1733.5,-41"/>
<text text-anchor="start" x="1553.5" y="-29" font-family="Helvetica,sans-Serif" font-size="10.00">src/wmtk/invariants</text>
<text text-anchor="middle" x="1639.5" y="-18" font-family="Helvetica,sans-Serif" font-size="10.00">/Swap23EnergyBeforeInvariant.cpp</text>
</a>
</g>
</g>
<!-- Node1&#45;&gt;Node10 -->
<g id="edge9_Node000001_Node000010" class="edge">
<title>Node1&#45;&gt;Node10</title>
<g id="a_edge9_Node000001_Node000010"><a xlink:title=" ">
<path fill="none" stroke="#63b8ff" d="M1893.84,-85.8C1853.13,-76.95 1794.01,-63.95 1742.5,-52 1727.53,-48.53 1711.37,-44.66 1696.39,-41.03"/>
<polygon fill="#63b8ff" stroke="#63b8ff" points="1893.27,-89.26 1903.78,-87.96 1894.75,-82.41 1893.27,-89.26"/>
</a>
</g>
</g>
<!-- Node11 -->
<g id="Node000011" class="node">
<title>Node11</title>
<g id="a_Node000011"><a xlink:href="_swap32_energy_before_invariant_8cpp.html" target="_top" xlink:title=" ">
<polygon fill="white" stroke="#666666" points="1939.5,-41 1751.5,-41 1751.5,-11 1939.5,-11 1939.5,-41"/>
<text text-anchor="start" x="1759.5" y="-29" font-family="Helvetica,sans-Serif" font-size="10.00">src/wmtk/invariants</text>
<text text-anchor="middle" x="1845.5" y="-18" font-family="Helvetica,sans-Serif" font-size="10.00">/Swap32EnergyBeforeInvariant.cpp</text>
</a>
</g>
</g>
<!-- Node1&#45;&gt;Node11 -->
<g id="edge10_Node000001_Node000011" class="edge">
<title>Node1&#45;&gt;Node11</title>
<g id="a_edge10_Node000001_Node000011"><a xlink:title=" ">
<path fill="none" stroke="#63b8ff" d="M1922.88,-81.88C1905.97,-69.88 1882.16,-53 1865.44,-41.14"/>
<polygon fill="#63b8ff" stroke="#63b8ff" points="1921.3,-85.05 1931.48,-87.98 1925.35,-79.34 1921.3,-85.05"/>
</a>
</g>
</g>
<!-- Node12 -->
<g id="Node000012" class="node">
<title>Node12</title>
<g id="a_Node000012"><a xlink:href="_swap32_energy_before_invariant_double_8cpp.html" target="_top" xlink:title=" ">
<polygon fill="white" stroke="#666666" points="2125,-46.5 1958,-46.5 1958,-5.5 2125,-5.5 2125,-46.5"/>
<text text-anchor="start" x="1966" y="-34.5" font-family="Helvetica,sans-Serif" font-size="10.00">src/wmtk/invariants</text>
<text text-anchor="start" x="1966" y="-23.5" font-family="Helvetica,sans-Serif" font-size="10.00">/Swap32EnergyBeforeInvariant</text>
<text text-anchor="middle" x="2041.5" y="-12.5" font-family="Helvetica,sans-Serif" font-size="10.00">Double.cpp</text>
</a>
</g>
</g>
<!-- Node1&#45;&gt;Node12 -->
<g id="edge11_Node000001_Node000012" class="edge">
<title>Node1&#45;&gt;Node12</title>
<g id="a_edge11_Node000001_Node000012"><a xlink:title=" ">
<path fill="none" stroke="#63b8ff" d="M1963.77,-82.12C1978.23,-71.87 1997.85,-57.95 2013.76,-46.67"/>
<polygon fill="#63b8ff" stroke="#63b8ff" points="1961.65,-79.34 1955.52,-87.98 1965.7,-85.05 1961.65,-79.34"/>
</a>
</g>
</g>
<!-- Node13 -->
<g id="Node000013" class="node">
<title>Node13</title>
<g id="a_Node000013"><a xlink:href="_swap44_energy_before_invariant_8cpp.html" target="_top" xlink:title=" ">
<polygon fill="white" stroke="#666666" points="2331.5,-41 2143.5,-41 2143.5,-11 2331.5,-11 2331.5,-41"/>
<text text-anchor="start" x="2151.5" y="-29" font-family="Helvetica,sans-Serif" font-size="10.00">src/wmtk/invariants</text>
<text text-anchor="middle" x="2237.5" y="-18" font-family="Helvetica,sans-Serif" font-size="10.00">/Swap44EnergyBeforeInvariant.cpp</text>
</a>
</g>
</g>
<!-- Node1&#45;&gt;Node13 -->
<g id="edge12_Node000001_Node000013" class="edge">
<title>Node1&#45;&gt;Node13</title>
<g id="a_edge12_Node000001_Node000013"><a xlink:title=" ">
<path fill="none" stroke="#63b8ff" d="M1990.43,-85.69C2029.11,-76.76 2085.39,-63.68 2134.5,-52 2149.27,-48.49 2165.22,-44.64 2180.05,-41.04"/>
<polygon fill="#63b8ff" stroke="#63b8ff" points="1989.45,-82.33 1980.5,-87.99 1991.03,-89.15 1989.45,-82.33"/>
</a>
</g>
</g>
<!-- Node14 -->
<g id="Node000014" class="node">
<title>Node14</title>
<g id="a_Node000014"><a xlink:href="_swap44_energy_before_invariant_double_8cpp.html" target="_top" xlink:title=" ">
<polygon fill="white" stroke="#666666" points="2517,-46.5 2350,-46.5 2350,-5.5 2517,-5.5 2517,-46.5"/>
<text text-anchor="start" x="2358" y="-34.5" font-family="Helvetica,sans-Serif" font-size="10.00">src/wmtk/invariants</text>
<text text-anchor="start" x="2358" y="-23.5" font-family="Helvetica,sans-Serif" font-size="10.00">/Swap44EnergyBeforeInvariant</text>
<text text-anchor="middle" x="2433.5" y="-12.5" font-family="Helvetica,sans-Serif" font-size="10.00">Double.cpp</text>
</a>
</g>
</g>
<!-- Node1&#45;&gt;Node14 -->
<g id="edge13_Node000001_Node000014" class="edge">
<title>Node1&#45;&gt;Node14</title>
<g id="a_edge13_Node000001_Node000014"><a xlink:title=" ">
<path fill="none" stroke="#63b8ff" d="M2022.89,-91.15C2103.41,-84.89 2231.37,-72.66 2340.5,-52 2348.63,-50.46 2357.1,-48.58 2365.46,-46.55"/>
<polygon fill="#63b8ff" stroke="#63b8ff" points="2022.53,-87.66 2012.82,-91.92 2023.06,-94.64 2022.53,-87.66"/>
</a>
</g>
</g>
<!-- Node15 -->
<g id="Node000015" class="node">
<title>Node15</title>
<g id="a_Node000015"><a xlink:href="_swap56_energy_before_invariant_8cpp.html" target="_top" xlink:title=" ">
<polygon fill="white" stroke="#666666" points="2723.5,-41 2535.5,-41 2535.5,-11 2723.5,-11 2723.5,-41"/>
<text text-anchor="start" x="2543.5" y="-29" font-family="Helvetica,sans-Serif" font-size="10.00">src/wmtk/invariants</text>
<text text-anchor="middle" x="2629.5" y="-18" font-family="Helvetica,sans-Serif" font-size="10.00">/Swap56EnergyBeforeInvariant.cpp</text>
</a>
</g>
</g>
<!-- Node1&#45;&gt;Node15 -->
<g id="edge14_Node000001_Node000015" class="edge">
<title>Node1&#45;&gt;Node15</title>
<g id="a_edge14_Node000001_Node000015"><a xlink:title=" ">
<path fill="none" stroke="#63b8ff" d="M2022.83,-94.51C2135.45,-90.77 2347.85,-80.31 2526.5,-52 2543.67,-49.28 2562.21,-45.16 2578.75,-41.05"/>
<polygon fill="#63b8ff" stroke="#63b8ff" points="2022.46,-91.02 2012.58,-94.84 2022.69,-98.02 2022.46,-91.02"/>
</a>
</g>
</g>
<!-- Node16 -->
<g id="Node000016" class="node">
<title>Node16</title>
<g id="a_Node000016"><a xlink:href="_swap56_energy_before_invariant_double_8cpp.html" target="_top" xlink:title=" ">
<polygon fill="white" stroke="#666666" points="2909,-46.5 2742,-46.5 2742,-5.5 2909,-5.5 2909,-46.5"/>
<text text-anchor="start" x="2750" y="-34.5" font-family="Helvetica,sans-Serif" font-size="10.00">src/wmtk/invariants</text>
<text text-anchor="start" x="2750" y="-23.5" font-family="Helvetica,sans-Serif" font-size="10.00">/Swap56EnergyBeforeInvariant</text>
<text text-anchor="middle" x="2825.5" y="-12.5" font-family="Helvetica,sans-Serif" font-size="10.00">Double.cpp</text>
</a>
</g>
</g>
<!-- Node1&#45;&gt;Node16 -->
<g id="edge15_Node000001_Node000016" class="edge">
<title>Node1&#45;&gt;Node16</title>
<g id="a_edge15_Node000001_Node000016"><a xlink:title=" ">
<path fill="none" stroke="#63b8ff" d="M2023.03,-97.41C2165.99,-97.85 2475.47,-93.34 2732.5,-52 2741.33,-50.58 2750.53,-48.66 2759.56,-46.51"/>
<polygon fill="#63b8ff" stroke="#63b8ff" points="2022.63,-93.91 2012.61,-97.37 2022.6,-100.91 2022.63,-93.91"/>
</a>
</g>
</g>
<!-- Node17 -->
<g id="Node000017" class="node">
<title>Node17</title>
<g id="a_Node000017"><a xlink:href="_msh_reader_8cpp.html" target="_top" xlink:title=" ">
<polygon fill="white" stroke="#666666" points="3078,-35.5 2927,-35.5 2927,-16.5 3078,-16.5 3078,-35.5"/>
<text text-anchor="middle" x="3002.5" y="-23.5" font-family="Helvetica,sans-Serif" font-size="10.00">src/wmtk/io/MshReader.cpp</text>
</a>
</g>
</g>
<!-- Node1&#45;&gt;Node17 -->
<g id="edge16_Node000001_Node000017" class="edge">
<title>Node1&#45;&gt;Node17</title>
<g id="a_edge16_Node000001_Node000017"><a xlink:title=" ">
<path fill="none" stroke="#63b8ff" d="M2022.88,-95.37C2223.49,-92.1 2746.99,-80.99 2918.5,-52 2939.5,-48.45 2962.66,-41.31 2979.33,-35.56"/>
<polygon fill="#63b8ff" stroke="#63b8ff" points="2022.66,-91.87 2012.71,-95.53 2022.77,-98.87 2022.66,-91.87"/>
</a>
</g>
</g>
<!-- Node18 -->
<g id="Node000018" class="node">
<title>Node18</title>
<g id="a_Node000018"><a xlink:href="_a_m_i_p_s_optimization_smoothing_8cpp.html" target="_top" xlink:title=" ">
<polygon fill="white" stroke="#666666" points="3282.5,-41 3096.5,-41 3096.5,-11 3282.5,-11 3282.5,-41"/>
<text text-anchor="start" x="3104.5" y="-29" font-family="Helvetica,sans-Serif" font-size="10.00">src/wmtk/operations</text>
<text text-anchor="middle" x="3189.5" y="-18" font-family="Helvetica,sans-Serif" font-size="10.00">/AMIPSOptimizationSmoothing.cpp</text>
</a>
</g>
</g>
<!-- Node1&#45;&gt;Node18 -->
<g id="edge17_Node000001_Node000018" class="edge">
<title>Node1&#45;&gt;Node18</title>
<g id="a_edge17_Node000001_Node000018"><a xlink:title=" ">
<path fill="none" stroke="#63b8ff" d="M2022.91,-95.49C2247.02,-92.32 2881.42,-80.96 3087.5,-52 3105.1,-49.53 3124.09,-45.31 3140.86,-41.04"/>
<polygon fill="#63b8ff" stroke="#63b8ff" points="2022.82,-91.99 2012.87,-95.63 2022.92,-98.99 2022.82,-91.99"/>
</a>
</g>
</g>
<!-- Node19 -->
<g id="Node000019" class="node">
<title>Node19</title>
<g id="a_Node000019"><a xlink:href="_a_m_i_p_s_optimization_smoothing_periodic_8cpp.html" target="_top" xlink:title=" ">
<polygon fill="white" stroke="#666666" points="3466.5,-46.5 3300.5,-46.5 3300.5,-5.5 3466.5,-5.5 3466.5,-46.5"/>
<text text-anchor="start" x="3308.5" y="-34.5" font-family="Helvetica,sans-Serif" font-size="10.00">src/wmtk/operations</text>
<text text-anchor="start" x="3308.5" y="-23.5" font-family="Helvetica,sans-Serif" font-size="10.00">/AMIPSOptimizationSmoothing</text>
<text text-anchor="middle" x="3383.5" y="-12.5" font-family="Helvetica,sans-Serif" font-size="10.00">Periodic.cpp</text>
</a>
</g>
</g>
<!-- Node1&#45;&gt;Node19 -->
<g id="edge18_Node000001_Node000019" class="edge">
<title>Node1&#45;&gt;Node19</title>
<g id="a_edge18_Node000001_Node000019"><a xlink:title=" ">
<path fill="none" stroke="#63b8ff" d="M2022.91,-96.3C2273.35,-95.27 3044.55,-89.11 3291.5,-52 3300.5,-50.65 3309.88,-48.72 3319.06,-46.53"/>
<polygon fill="#63b8ff" stroke="#63b8ff" points="2022.78,-92.8 2012.8,-96.34 2022.81,-99.8 2022.78,-92.8"/>
</a>
</g>
</g>
<!-- Node20 -->
<g id="Node000020" class="node">
<title>Node20</title>
<g id="a_Node000020"><a xlink:href="_volume_remesher_triangle_insertion_8cpp.html" target="_top" xlink:title=" ">
<polygon fill="white" stroke="#666666" points="3660,-41 3485,-41 3485,-11 3660,-11 3660,-41"/>
<text text-anchor="start" x="3493" y="-29" font-family="Helvetica,sans-Serif" font-size="10.00">src/wmtk/utils/VolumeRemesher</text>
<text text-anchor="middle" x="3572.5" y="-18" font-family="Helvetica,sans-Serif" font-size="10.00">TriangleInsertion.cpp</text>
</a>
</g>
</g>
<!-- Node1&#45;&gt;Node20 -->
<g id="edge19_Node000001_Node000020" class="edge">
<title>Node1&#45;&gt;Node20</title>
<g id="a_edge19_Node000001_Node000020"><a xlink:title=" ">
<path fill="none" stroke="#63b8ff" d="M2022.81,-96.53C2295.13,-96.27 3190.84,-92.3 3475.5,-52 3492.37,-49.61 3510.54,-45.39 3526.54,-41.08"/>
<polygon fill="#63b8ff" stroke="#63b8ff" points="2022.62,-93.03 2012.62,-96.54 2022.62,-100.03 2022.62,-93.03"/>
</a>
</g>
</g>
<!-- Node21 -->
<g id="Node000021" class="node">
<title>Node21</title>
<g id="a_Node000021"><a xlink:href="orient_8cpp.html" target="_top" xlink:title=" ">
<polygon fill="white" stroke="#666666" points="3815,-35.5 3678,-35.5 3678,-16.5 3815,-16.5 3815,-35.5"/>
<text text-anchor="middle" x="3746.5" y="-23.5" font-family="Helvetica,sans-Serif" font-size="10.00">src/wmtk/utils/orient.cpp</text>
</a>
</g>
</g>
<!-- Node1&#45;&gt;Node21 -->
<g id="edge20_Node000001_Node000021" class="edge">
<title>Node1&#45;&gt;Node21</title>
<g id="a_edge20_Node000001_Node000021"><a xlink:title=" ">
<path fill="none" stroke="#63b8ff" d="M2022.68,-95.8C2339.47,-92.81 3506.33,-79.98 3669.5,-52 3689.03,-48.65 3710.41,-41.41 3725.67,-35.57"/>
<polygon fill="#63b8ff" stroke="#63b8ff" points="2022.63,-92.3 2012.67,-95.89 2022.7,-99.3 2022.63,-92.3"/>
</a>
</g>
</g>
</g>
</svg>
