<?xml version="1.0" encoding="UTF-8" standalone="no"?>
<!DOCTYPE svg PUBLIC "-//W3C//DTD SVG 1.1//EN"
 "http://www.w3.org/Graphics/SVG/1.1/DTD/svg11.dtd">
<!-- Generated by graphviz version 2.43.0 (0)
 -->
<!-- Title: src/wmtk/function/simplex/AMIPS.hpp Pages: 1 -->
<svg width="949pt" height="203pt"
 viewBox="0.00 0.00 949.00 203.00" xmlns="http://www.w3.org/2000/svg" xmlns:xlink="http://www.w3.org/1999/xlink">
<g id="graph0" class="graph" transform="scale(1 1) rotate(0) translate(4 199)">
<title>src/wmtk/function/simplex/AMIPS.hpp</title>
<!-- Node1 -->
<g id="Node000001" class="node">
<title>Node1</title>
<g id="a_Node000001"><a xlink:title=" ">
<polygon fill="#999999" stroke="#666666" points="547,-195 401,-195 401,-165 547,-165 547,-195"/>
<text text-anchor="start" x="409" y="-183" font-family="Helvetica,sans-Serif" font-size="10.00">src/wmtk/function/simplex</text>
<text text-anchor="middle" x="474" y="-172" font-family="Helvetica,sans-Serif" font-size="10.00">/AMIPS.hpp</text>
</a>
</g>
</g>
<!-- Node2 -->
<g id="Node000002" class="node">
<title>Node2</title>
<g id="a_Node000002"><a xlink:href="internal_2periodic__optimization_8cpp.html" target="_top" xlink:title=" ">
<polygon fill="white" stroke="#666666" points="756.5,-52 579.5,-52 579.5,0 756.5,0 756.5,-52"/>
<text text-anchor="start" x="587.5" y="-40" font-family="Helvetica,sans-Serif" font-size="10.00">components/periodic</text>
<text text-anchor="start" x="587.5" y="-29" font-family="Helvetica,sans-Serif" font-size="10.00">_optimization/wmtk/components</text>
<text text-anchor="start" x="587.5" y="-18" font-family="Helvetica,sans-Serif" font-size="10.00">/periodic_optimization/internal</text>
<text text-anchor="middle" x="668" y="-7" font-family="Helvetica,sans-Serif" font-size="10.00">/periodic_optimization.cpp</text>
</a>
</g>
</g>
<!-- Node1&#45;&gt;Node2 -->
<g id="edge1_Node000001_Node000002" class="edge">
<title>Node1&#45;&gt;Node2</title>
<g id="a_edge1_Node000001_Node000002"><a xlink:title=" ">
<path fill="none" stroke="#63b8ff" d="M557.32,-173.79C590.23,-167.47 625.68,-154.63 649,-129 667.91,-108.22 670.83,-74.89 670.23,-52.02"/>
<polygon fill="#63b8ff" stroke="#63b8ff" points="556.46,-170.38 547.2,-175.54 557.65,-177.28 556.46,-170.38"/>
</a>
</g>
</g>
<!-- Node3 -->
<g id="Node000003" class="node">
<title>Node3</title>
<g id="a_Node000003"><a xlink:href="test__component__wildmeshing_8cpp.html" target="_top" xlink:title=" ">
<polygon fill="white" stroke="#666666" points="164,-41 0,-41 0,-11 164,-11 164,-41"/>
<text text-anchor="start" x="8" y="-29" font-family="Helvetica,sans-Serif" font-size="10.00">components/tests/test</text>
<text text-anchor="middle" x="82" y="-18" font-family="Helvetica,sans-Serif" font-size="10.00">_component_wildmeshing.cpp</text>
</a>
</g>
</g>
<!-- Node1&#45;&gt;Node3 -->
<g id="edge2_Node000001_Node000003" class="edge">
<title>Node1&#45;&gt;Node3</title>
<g id="a_edge2_Node000001_Node000003"><a xlink:title=" ">
<path fill="none" stroke="#63b8ff" d="M390.53,-165.35C350.25,-157.31 301.73,-145.42 260,-129 199.18,-105.07 134.1,-63.04 102.11,-41.15"/>
<polygon fill="#63b8ff" stroke="#63b8ff" points="390.1,-168.84 400.59,-167.32 391.45,-161.97 390.1,-168.84"/>
</a>
</g>
</g>
<!-- Node4 -->
<g id="Node000004" class="node">
<title>Node4</title>
<g id="a_Node000004"><a xlink:href="wildmeshing_8cpp.html" target="_top" xlink:title=" ">
<polygon fill="white" stroke="#666666" points="358,-46.5 182,-46.5 182,-5.5 358,-5.5 358,-46.5"/>
<text text-anchor="start" x="190" y="-34.5" font-family="Helvetica,sans-Serif" font-size="10.00">components/wildmeshing</text>
<text text-anchor="start" x="190" y="-23.5" font-family="Helvetica,sans-Serif" font-size="10.00">/wmtk/components/wildmeshing</text>
<text text-anchor="middle" x="270" y="-12.5" font-family="Helvetica,sans-Serif" font-size="10.00">/wildmeshing.cpp</text>
</a>
</g>
</g>
<!-- Node1&#45;&gt;Node4 -->
<g id="edge3_Node000001_Node000004" class="edge">
<title>Node1&#45;&gt;Node4</title>
<g id="a_edge3_Node000001_Node000004"><a xlink:title=" ">
<path fill="none" stroke="#63b8ff" d="M390.9,-167.43C344.81,-159.2 293.86,-146.5 279,-129 259.67,-106.23 261.84,-69.42 265.61,-46.8"/>
<polygon fill="#63b8ff" stroke="#63b8ff" points="390.51,-170.91 400.96,-169.17 391.7,-164.01 390.51,-170.91"/>
</a>
</g>
</g>
<!-- Node5 -->
<g id="Node000005" class="node">
<title>Node5</title>
<g id="a_Node000005"><a xlink:href="simplex_2_a_m_i_p_s_8cpp.html" target="_top" xlink:title=" ">
<polygon fill="white" stroke="#666666" points="640,-123.5 494,-123.5 494,-93.5 640,-93.5 640,-123.5"/>
<text text-anchor="start" x="502" y="-111.5" font-family="Helvetica,sans-Serif" font-size="10.00">src/wmtk/function/simplex</text>
<text text-anchor="middle" x="567" y="-100.5" font-family="Helvetica,sans-Serif" font-size="10.00">/AMIPS.cpp</text>
</a>
</g>
</g>
<!-- Node1&#45;&gt;Node5 -->
<g id="edge4_Node000001_Node000005" class="edge">
<title>Node1&#45;&gt;Node5</title>
<g id="a_edge4_Node000001_Node000005"><a xlink:title=" ">
<path fill="none" stroke="#63b8ff" d="M500.84,-158.94C516.01,-147.6 534.6,-133.71 548.21,-123.54"/>
<polygon fill="#63b8ff" stroke="#63b8ff" points="498.74,-156.15 492.82,-164.94 502.93,-161.75 498.74,-156.15"/>
</a>
</g>
</g>
<!-- Node6 -->
<g id="Node000006" class="node">
<title>Node6</title>
<g id="a_Node000006"><a xlink:href="_a_m_i_p_s_optimization_smoothing_8hpp.html" target="_top" xlink:title=" ">
<polygon fill="white" stroke="#666666" points="475.5,-123.5 288.5,-123.5 288.5,-93.5 475.5,-93.5 475.5,-123.5"/>
<text text-anchor="start" x="296.5" y="-111.5" font-family="Helvetica,sans-Serif" font-size="10.00">src/wmtk/operations</text>
<text text-anchor="middle" x="382" y="-100.5" font-family="Helvetica,sans-Serif" font-size="10.00">/AMIPSOptimizationSmoothing.hpp</text>
</a>
</g>
</g>
<!-- Node1&#45;&gt;Node6 -->
<g id="edge5_Node000001_Node000006" class="edge">
<title>Node1&#45;&gt;Node6</title>
<g id="a_edge5_Node000001_Node000006"><a xlink:title=" ">
<path fill="none" stroke="#63b8ff" d="M447.03,-158.63C432.1,-147.35 413.93,-133.62 400.59,-123.54"/>
<polygon fill="#63b8ff" stroke="#63b8ff" points="445.29,-161.7 455.38,-164.94 449.51,-156.12 445.29,-161.7"/>
</a>
</g>
</g>
<!-- Node8 -->
<g id="Node000008" class="node">
<title>Node8</title>
<g id="a_Node000008"><a xlink:href="_a_m_i_p_s_optimization_smoothing_periodic_8hpp.html" target="_top" xlink:title=" ">
<polygon fill="white" stroke="#666666" points="862,-129 696,-129 696,-88 862,-88 862,-129"/>
<text text-anchor="start" x="704" y="-117" font-family="Helvetica,sans-Serif" font-size="10.00">src/wmtk/operations</text>
<text text-anchor="start" x="704" y="-106" font-family="Helvetica,sans-Serif" font-size="10.00">/AMIPSOptimizationSmoothing</text>
<text text-anchor="middle" x="779" y="-95" font-family="Helvetica,sans-Serif" font-size="10.00">Periodic.hpp</text>
</a>
</g>
</g>
<!-- Node1&#45;&gt;Node8 -->
<g id="edge10_Node000001_Node000008" class="edge">
<title>Node1&#45;&gt;Node8</title>
<g id="a_edge10_Node000001_Node000008"><a xlink:title=" ">
<path fill="none" stroke="#63b8ff" d="M545.7,-162.66C590.72,-152.4 648.95,-139.13 695.98,-128.42"/>
<polygon fill="#63b8ff" stroke="#63b8ff" points="544.69,-159.3 535.72,-164.94 546.25,-166.13 544.69,-159.3"/>
</a>
</g>
</g>
<!-- Node6&#45;&gt;Node2 -->
<g id="edge6_Node000006_Node000002" class="edge">
<title>Node6&#45;&gt;Node2</title>
<g id="a_edge6_Node000006_Node000002"><a xlink:title=" ">
<path fill="none" stroke="#63b8ff" d="M441.66,-90.71C481.54,-79.48 534.71,-64.52 579.49,-51.91"/>
<polygon fill="#63b8ff" stroke="#63b8ff" points="440.5,-87.4 431.82,-93.48 442.39,-94.14 440.5,-87.4"/>
</a>
</g>
</g>
<!-- Node6&#45;&gt;Node3 -->
<g id="edge7_Node000006_Node000003" class="edge">
<title>Node6&#45;&gt;Node3</title>
<g id="a_edge7_Node000006_Node000003"><a xlink:title=" ">
<path fill="none" stroke="#63b8ff" d="M319.01,-90.92C277.51,-79.96 221.99,-65.23 173,-52 160.03,-48.5 146.03,-44.67 133,-41.09"/>
<polygon fill="#63b8ff" stroke="#63b8ff" points="318.14,-94.31 328.71,-93.48 319.93,-87.55 318.14,-94.31"/>
</a>
</g>
</g>
<!-- Node6&#45;&gt;Node4 -->
<g id="edge8_Node000006_Node000004" class="edge">
<title>Node6&#45;&gt;Node4</title>
<g id="a_edge8_Node000006_Node000004"><a xlink:title=" ">
<path fill="none" stroke="#63b8ff" d="M353.91,-87.31C336.57,-74.85 314.44,-58.94 297.26,-46.59"/>
<polygon fill="#63b8ff" stroke="#63b8ff" points="352.33,-90.48 362.49,-93.48 356.41,-84.8 352.33,-90.48"/>
</a>
</g>
</g>
<!-- Node7 -->
<g id="Node000007" class="node">
<title>Node7</title>
<g id="a_Node000007"><a xlink:href="_a_m_i_p_s_optimization_smoothing_8cpp.html" target="_top" xlink:title=" ">
<polygon fill="white" stroke="#666666" points="562,-41 376,-41 376,-11 562,-11 562,-41"/>
<text text-anchor="start" x="384" y="-29" font-family="Helvetica,sans-Serif" font-size="10.00">src/wmtk/operations</text>
<text text-anchor="middle" x="469" y="-18" font-family="Helvetica,sans-Serif" font-size="10.00">/AMIPSOptimizationSmoothing.cpp</text>
</a>
</g>
</g>
<!-- Node6&#45;&gt;Node7 -->
<g id="edge9_Node000006_Node000007" class="edge">
<title>Node6&#45;&gt;Node7</title>
<g id="a_edge9_Node000006_Node000007"><a xlink:title=" ">
<path fill="none" stroke="#63b8ff" d="M404.75,-86.45C420.19,-72.16 440.17,-53.67 453.73,-41.13"/>
<polygon fill="#63b8ff" stroke="#63b8ff" points="402.12,-84.12 397.15,-93.48 406.87,-89.26 402.12,-84.12"/>
</a>
</g>
</g>
<!-- Node8&#45;&gt;Node2 -->
<g id="edge11_Node000008_Node000002" class="edge">
<title>Node8&#45;&gt;Node2</title>
<g id="a_edge11_Node000008_Node000002"><a xlink:title=" ">
<path fill="none" stroke="#63b8ff" d="M743.57,-81.81C730.55,-72.36 715.82,-61.68 702.85,-52.28"/>
<polygon fill="#63b8ff" stroke="#63b8ff" points="741.7,-84.77 751.85,-87.81 745.81,-79.1 741.7,-84.77"/>
</a>
</g>
</g>
<!-- Node9 -->
<g id="Node000009" class="node">
<title>Node9</title>
<g id="a_Node000009"><a xlink:href="_a_m_i_p_s_optimization_smoothing_periodic_8cpp.html" target="_top" xlink:title=" ">
<polygon fill="white" stroke="#666666" points="941,-46.5 775,-46.5 775,-5.5 941,-5.5 941,-46.5"/>
<text text-anchor="start" x="783" y="-34.5" font-family="Helvetica,sans-Serif" font-size="10.00">src/wmtk/operations</text>
<text text-anchor="start" x="783" y="-23.5" font-family="Helvetica,sans-Serif" font-size="10.00">/AMIPSOptimizationSmoothing</text>
<text text-anchor="middle" x="858" y="-12.5" font-family="Helvetica,sans-Serif" font-size="10.00">Periodic.cpp</text>
</a>
</g>
</g>
<!-- Node8&#45;&gt;Node9 -->
<g id="edge12_Node000008_Node000009" class="edge">
<title>Node8&#45;&gt;Node9</title>
<g id="a_edge12_Node000008_Node000009"><a xlink:title=" ">
<path fill="none" stroke="#63b8ff" d="M805.74,-80.26C816.54,-69.24 828.78,-56.77 838.7,-46.67"/>
<polygon fill="#63b8ff" stroke="#63b8ff" points="803.03,-78.01 798.53,-87.6 808.03,-82.92 803.03,-78.01"/>
</a>
</g>
</g>
</g>
</svg>
