<?xml version="1.0" encoding="UTF-8" standalone="no"?>
<!DOCTYPE svg PUBLIC "-//W3C//DTD SVG 1.1//EN"
 "http://www.w3.org/Graphics/SVG/1.1/DTD/svg11.dtd">
<!-- Generated by graphviz version 2.43.0 (0)
 -->
<!-- Title: src/wmtk/autogen/tet_mesh/is_ccw.hpp Pages: 1 -->
<svg width="574pt" height="423pt"
 viewBox="0.00 0.00 574.00 423.00" xmlns="http://www.w3.org/2000/svg" xmlns:xlink="http://www.w3.org/1999/xlink">
<g id="graph0" class="graph" transform="scale(1 1) rotate(0) translate(4 419)">
<title>src/wmtk/autogen/tet_mesh/is_ccw.hpp</title>
<!-- Node1 -->
<g id="Node000001" class="node">
<title>Node1</title>
<g id="a_Node000001"><a xlink:title=" ">
<polygon fill="#999999" stroke="#666666" points="318,-415 197,-415 197,-385 318,-385 318,-415"/>
<text text-anchor="start" x="205" y="-403" font-family="Helvetica,sans-Serif" font-size="10.00">src/wmtk/autogen/tet</text>
<text text-anchor="middle" x="257.5" y="-392" font-family="Helvetica,sans-Serif" font-size="10.00">_mesh/is_ccw.hpp</text>
</a>
</g>
</g>
<!-- Node2 -->
<g id="Node000002" class="node">
<title>Node2</title>
<g id="a_Node000002"><a xlink:href="tet__mesh_2is__ccw_8hxx.html" target="_top" xlink:title=" ">
<polygon fill="white" stroke="#666666" points="292,-349 223,-349 223,-330 292,-330 292,-349"/>
<text text-anchor="middle" x="257.5" y="-337" font-family="Helvetica,sans-Serif" font-size="10.00">is_ccw.hxx</text>
</a>
</g>
</g>
<!-- Node1&#45;&gt;Node2 -->
<g id="edge1_Node000001_Node000002" class="edge">
<title>Node1&#45;&gt;Node2</title>
<g id="a_edge1_Node000001_Node000002"><a xlink:title=" ">
<path fill="none" stroke="#63b8ff" d="M257.5,-384.84C257.5,-377.21 257.5,-367.7 257.5,-359.45"/>
<polygon fill="#63b8ff" stroke="#63b8ff" points="261,-359.27 257.5,-349.27 254,-359.27 261,-359.27"/>
</a>
</g>
</g>
<!-- Node3 -->
<g id="Node000003" class="node">
<title>Node3</title>
<g id="a_Node000003"><a xlink:title=" ">
<polygon fill="#e0e0e0" stroke="#999999" points="112.5,-129 60.5,-129 60.5,-110 112.5,-110 112.5,-129"/>
<text text-anchor="middle" x="86.5" y="-117" font-family="Helvetica,sans-Serif" font-size="10.00">cassert</text>
</a>
</g>
</g>
<!-- Node2&#45;&gt;Node3 -->
<g id="edge2_Node000002_Node000003" class="edge">
<title>Node2&#45;&gt;Node3</title>
<g id="a_edge2_Node000002_Node000003"><a xlink:title=" ">
<path fill="none" stroke="#63b8ff" d="M222.87,-332.05C197.83,-325.88 164.49,-314.4 141.5,-294 95.87,-253.49 87.78,-175.38 86.56,-139.44"/>
<polygon fill="#63b8ff" stroke="#63b8ff" points="90.06,-139.28 86.37,-129.35 83.06,-139.42 90.06,-139.28"/>
</a>
</g>
</g>
<!-- Node4 -->
<g id="Node000004" class="node">
<title>Node4</title>
<g id="a_Node000004"><a xlink:href="_tuple_8hpp.html" target="_top" xlink:title=" ">
<polygon fill="white" stroke="#666666" points="401.5,-129 307.5,-129 307.5,-110 401.5,-110 401.5,-129"/>
<text text-anchor="middle" x="354.5" y="-117" font-family="Helvetica,sans-Serif" font-size="10.00">wmtk/Tuple.hpp</text>
</a>
</g>
</g>
<!-- Node2&#45;&gt;Node4 -->
<g id="edge3_Node000002_Node000004" class="edge">
<title>Node2&#45;&gt;Node4</title>
<g id="a_edge3_Node000002_Node000004"><a xlink:title=" ">
<path fill="none" stroke="#63b8ff" d="M282.17,-329.94C299.35,-322.8 321.6,-311.03 335.5,-294 372.98,-248.06 379.1,-223.51 369.5,-165 368.03,-156.05 365.01,-146.47 362.06,-138.51"/>
<polygon fill="#63b8ff" stroke="#63b8ff" points="365.29,-137.16 358.36,-129.15 358.78,-139.74 365.29,-137.16"/>
</a>
</g>
</g>
<!-- Node15 -->
<g id="Node000015" class="node">
<title>Node15</title>
<g id="a_Node000015"><a xlink:href="_tuple_inspector_8hpp.html" target="_top" xlink:title=" ">
<polygon fill="white" stroke="#666666" points="324.5,-184 162.5,-184 162.5,-165 324.5,-165 324.5,-184"/>
<text text-anchor="middle" x="243.5" y="-172" font-family="Helvetica,sans-Serif" font-size="10.00">wmtk/utils/TupleInspector.hpp</text>
</a>
</g>
</g>
<!-- Node2&#45;&gt;Node15 -->
<g id="edge15_Node000002_Node000015" class="edge">
<title>Node2&#45;&gt;Node15</title>
<g id="a_edge15_Node000002_Node000015"><a xlink:title=" ">
<path fill="none" stroke="#63b8ff" d="M233.05,-329.93C199.45,-316.59 140.73,-287.26 119.5,-239 107.27,-211.19 136.89,-195.39 170.24,-186.5"/>
<polygon fill="#63b8ff" stroke="#63b8ff" points="171.3,-189.84 180.18,-184.06 169.64,-183.04 171.3,-189.84"/>
</a>
</g>
</g>
<!-- Node16 -->
<g id="Node000016" class="node">
<title>Node16</title>
<g id="a_Node000016"><a xlink:href="tet__mesh_2autogenerated__tables_8hpp.html" target="_top" xlink:title=" ">
<polygon fill="white" stroke="#666666" points="564.5,-184 420.5,-184 420.5,-165 564.5,-165 564.5,-184"/>
<text text-anchor="middle" x="492.5" y="-172" font-family="Helvetica,sans-Serif" font-size="10.00">autogenerated_tables.hpp</text>
</a>
</g>
</g>
<!-- Node2&#45;&gt;Node16 -->
<g id="edge20_Node000002_Node000016" class="edge">
<title>Node2&#45;&gt;Node16</title>
<g id="a_edge20_Node000002_Node000016"><a xlink:title=" ">
<path fill="none" stroke="#63b8ff" d="M292.22,-334.58C324.33,-329.55 372.14,-318.35 406.5,-294 444.03,-267.4 471.48,-219.19 484.34,-193.21"/>
<polygon fill="#63b8ff" stroke="#63b8ff" points="487.52,-194.68 488.68,-184.15 481.21,-191.65 487.52,-194.68"/>
</a>
</g>
</g>
<!-- Node18 -->
<g id="Node000018" class="node">
<title>Node18</title>
<g id="a_Node000018"><a xlink:href="tet__mesh_2local__id__table__offset_8hpp.html" target="_top" xlink:title=" ">
<polygon fill="white" stroke="#666666" points="326.5,-294 188.5,-294 188.5,-275 326.5,-275 326.5,-294"/>
<text text-anchor="middle" x="257.5" y="-282" font-family="Helvetica,sans-Serif" font-size="10.00">local_id_table_offset.hpp</text>
</a>
</g>
</g>
<!-- Node2&#45;&gt;Node18 -->
<g id="edge22_Node000002_Node000018" class="edge">
<title>Node2&#45;&gt;Node18</title>
<g id="a_edge22_Node000002_Node000018"><a xlink:title=" ">
<path fill="none" stroke="#63b8ff" d="M257.5,-329.75C257.5,-322.8 257.5,-312.85 257.5,-304.13"/>
<polygon fill="#63b8ff" stroke="#63b8ff" points="261,-304.09 257.5,-294.09 254,-304.09 261,-304.09"/>
</a>
</g>
</g>
<!-- Node5 -->
<g id="Node000005" class="node">
<title>Node5</title>
<g id="a_Node000005"><a xlink:href="_primitive_type_8hpp.html" target="_top" xlink:title=" ">
<polygon fill="white" stroke="#666666" points="233.5,-74 129.5,-74 129.5,-55 233.5,-55 233.5,-74"/>
<text text-anchor="middle" x="181.5" y="-62" font-family="Helvetica,sans-Serif" font-size="10.00">PrimitiveType.hpp</text>
</a>
</g>
</g>
<!-- Node4&#45;&gt;Node5 -->
<g id="edge4_Node000004_Node000005" class="edge">
<title>Node4&#45;&gt;Node5</title>
<g id="a_edge4_Node000004_Node000005"><a xlink:title=" ">
<path fill="none" stroke="#63b8ff" d="M326.7,-109.98C297.53,-101.05 251.5,-86.94 219.1,-77.02"/>
<polygon fill="#63b8ff" stroke="#63b8ff" points="220.1,-73.66 209.51,-74.08 218.05,-80.36 220.1,-73.66"/>
</a>
</g>
</g>
<!-- Node9 -->
<g id="Node000009" class="node">
<title>Node9</title>
<g id="a_Node000009"><a xlink:href="_tuple_8hxx.html" target="_top" xlink:title=" ">
<polygon fill="white" stroke="#666666" points="386,-74 323,-74 323,-55 386,-55 386,-74"/>
<text text-anchor="middle" x="354.5" y="-62" font-family="Helvetica,sans-Serif" font-size="10.00">Tuple.hxx</text>
</a>
</g>
</g>
<!-- Node4&#45;&gt;Node9 -->
<g id="edge8_Node000004_Node000009" class="edge">
<title>Node4&#45;&gt;Node9</title>
<g id="a_edge8_Node000004_Node000009"><a xlink:title=" ">
<path fill="none" stroke="#63b8ff" d="M349.33,-109.75C347.84,-102.8 347.4,-92.85 348.02,-84.13"/>
<polygon fill="#63b8ff" stroke="#63b8ff" points="351.51,-84.47 349.37,-74.09 344.57,-83.53 351.51,-84.47"/>
</a>
</g>
</g>
<!-- Node6 -->
<g id="Node000006" class="node">
<title>Node6</title>
<g id="a_Node000006"><a xlink:title=" ">
<polygon fill="#e0e0e0" stroke="#999999" points="221,-19 156,-19 156,0 221,0 221,-19"/>
<text text-anchor="middle" x="188.5" y="-7" font-family="Helvetica,sans-Serif" font-size="10.00">stdexcept</text>
</a>
</g>
</g>
<!-- Node5&#45;&gt;Node6 -->
<g id="edge5_Node000005_Node000006" class="edge">
<title>Node5&#45;&gt;Node6</title>
<g id="a_edge5_Node000005_Node000006"><a xlink:title=" ">
<path fill="none" stroke="#63b8ff" d="M182.66,-54.75C183.57,-47.8 184.89,-37.85 186.04,-29.13"/>
<polygon fill="#63b8ff" stroke="#63b8ff" points="189.53,-29.46 187.37,-19.09 182.59,-28.54 189.53,-29.46"/>
</a>
</g>
</g>
<!-- Node7 -->
<g id="Node000007" class="node">
<title>Node7</title>
<g id="a_Node000007"><a xlink:title=" ">
<polygon fill="#e0e0e0" stroke="#999999" points="73,-19 0,-19 0,0 73,0 73,-19"/>
<text text-anchor="middle" x="36.5" y="-7" font-family="Helvetica,sans-Serif" font-size="10.00">string_view</text>
</a>
</g>
</g>
<!-- Node5&#45;&gt;Node7 -->
<g id="edge6_Node000005_Node000007" class="edge">
<title>Node5&#45;&gt;Node7</title>
<g id="a_edge6_Node000005_Node000007"><a xlink:title=" ">
<path fill="none" stroke="#63b8ff" d="M158.2,-54.98C134.25,-46.23 96.72,-32.51 69.67,-22.62"/>
<polygon fill="#63b8ff" stroke="#63b8ff" points="70.81,-19.32 60.22,-19.17 68.41,-25.89 70.81,-19.32"/>
</a>
</g>
</g>
<!-- Node8 -->
<g id="Node000008" class="node">
<title>Node8</title>
<g id="a_Node000008"><a xlink:title=" ">
<polygon fill="#e0e0e0" stroke="#999999" points="138,-19 91,-19 91,0 138,0 138,-19"/>
<text text-anchor="middle" x="114.5" y="-7" font-family="Helvetica,sans-Serif" font-size="10.00">vector</text>
</a>
</g>
</g>
<!-- Node5&#45;&gt;Node8 -->
<g id="edge7_Node000005_Node000008" class="edge">
<title>Node5&#45;&gt;Node8</title>
<g id="a_edge7_Node000005_Node000008"><a xlink:title=" ">
<path fill="none" stroke="#63b8ff" d="M170.74,-54.98C160.73,-47.07 145.61,-35.11 133.57,-25.58"/>
<polygon fill="#63b8ff" stroke="#63b8ff" points="135.47,-22.63 125.46,-19.17 131.13,-28.12 135.47,-22.63"/>
</a>
</g>
</g>
<!-- Node9&#45;&gt;Node4 -->
<g id="edge14_Node000009_Node000004" class="edge">
<title>Node9&#45;&gt;Node4</title>
<g id="a_edge14_Node000009_Node000004"><a xlink:title=" ">
<path fill="none" stroke="#63b8ff" d="M359.63,-74.09C361.14,-80.99 361.59,-90.93 360.99,-99.66"/>
<polygon fill="#63b8ff" stroke="#63b8ff" points="357.5,-99.38 359.67,-109.75 364.44,-100.29 357.5,-99.38"/>
</a>
</g>
</g>
<!-- Node10 -->
<g id="Node000010" class="node">
<title>Node10</title>
<g id="a_Node000010"><a xlink:title=" ">
<polygon fill="#e0e0e0" stroke="#999999" points="566,-19 513,-19 513,0 566,0 566,-19"/>
<text text-anchor="middle" x="539.5" y="-7" font-family="Helvetica,sans-Serif" font-size="10.00">cstddef</text>
</a>
</g>
</g>
<!-- Node9&#45;&gt;Node10 -->
<g id="edge9_Node000009_Node000010" class="edge">
<title>Node9&#45;&gt;Node10</title>
<g id="a_edge9_Node000009_Node000010"><a xlink:title=" ">
<path fill="none" stroke="#63b8ff" d="M384.22,-54.98C416.57,-45.72 468.32,-30.89 503.09,-20.93"/>
<polygon fill="#63b8ff" stroke="#63b8ff" points="504.2,-24.25 512.85,-18.13 502.28,-17.52 504.2,-24.25"/>
</a>
</g>
</g>
<!-- Node11 -->
<g id="Node000011" class="node">
<title>Node11</title>
<g id="a_Node000011"><a xlink:title=" ">
<polygon fill="#e0e0e0" stroke="#999999" points="361.5,-19 301.5,-19 301.5,0 361.5,0 361.5,-19"/>
<text text-anchor="middle" x="331.5" y="-7" font-family="Helvetica,sans-Serif" font-size="10.00">iostream</text>
</a>
</g>
</g>
<!-- Node9&#45;&gt;Node11 -->
<g id="edge10_Node000009_Node000011" class="edge">
<title>Node9&#45;&gt;Node11</title>
<g id="a_edge10_Node000009_Node000011"><a xlink:title=" ">
<path fill="none" stroke="#63b8ff" d="M350.7,-54.75C347.59,-47.57 343.08,-37.18 339.21,-28.27"/>
<polygon fill="#63b8ff" stroke="#63b8ff" points="342.42,-26.87 335.23,-19.09 336,-29.66 342.42,-26.87"/>
</a>
</g>
</g>
<!-- Node12 -->
<g id="Node000012" class="node">
<title>Node12</title>
<g id="a_Node000012"><a xlink:title=" ">
<polygon fill="#e0e0e0" stroke="#999999" points="435.5,-19 379.5,-19 379.5,0 435.5,0 435.5,-19"/>
<text text-anchor="middle" x="407.5" y="-7" font-family="Helvetica,sans-Serif" font-size="10.00">optional</text>
</a>
</g>
</g>
<!-- Node9&#45;&gt;Node12 -->
<g id="edge11_Node000009_Node000012" class="edge">
<title>Node9&#45;&gt;Node12</title>
<g id="a_edge11_Node000009_Node000012"><a xlink:title=" ">
<path fill="none" stroke="#63b8ff" d="M363.25,-54.75C370.97,-47.03 382.4,-35.6 391.72,-26.28"/>
<polygon fill="#63b8ff" stroke="#63b8ff" points="394.31,-28.64 398.91,-19.09 389.36,-23.69 394.31,-28.64"/>
</a>
</g>
</g>
<!-- Node13 -->
<g id="Node000013" class="node">
<title>Node13</title>
<g id="a_Node000013"><a xlink:title=" ">
<polygon fill="#e0e0e0" stroke="#999999" points="283.5,-19 239.5,-19 239.5,0 283.5,0 283.5,-19"/>
<text text-anchor="middle" x="261.5" y="-7" font-family="Helvetica,sans-Serif" font-size="10.00">string</text>
</a>
</g>
</g>
<!-- Node9&#45;&gt;Node13 -->
<g id="edge12_Node000009_Node000013" class="edge">
<title>Node9&#45;&gt;Node13</title>
<g id="a_edge12_Node000009_Node000013"><a xlink:title=" ">
<path fill="none" stroke="#63b8ff" d="M339.56,-54.98C325,-46.69 302.63,-33.94 285.57,-24.22"/>
<polygon fill="#63b8ff" stroke="#63b8ff" points="287.14,-21.08 276.71,-19.17 283.67,-27.16 287.14,-21.08"/>
</a>
</g>
</g>
<!-- Node14 -->
<g id="Node000014" class="node">
<title>Node14</title>
<g id="a_Node000014"><a xlink:title=" ">
<polygon fill="#e0e0e0" stroke="#999999" points="495,-19 454,-19 454,0 495,0 495,-19"/>
<text text-anchor="middle" x="474.5" y="-7" font-family="Helvetica,sans-Serif" font-size="10.00">tuple</text>
</a>
</g>
</g>
<!-- Node9&#45;&gt;Node14 -->
<g id="edge13_Node000009_Node000014" class="edge">
<title>Node9&#45;&gt;Node14</title>
<g id="a_edge13_Node000009_Node000014"><a xlink:title=" ">
<path fill="none" stroke="#63b8ff" d="M373.78,-54.98C393.17,-46.42 423.31,-33.11 445.57,-23.28"/>
<polygon fill="#63b8ff" stroke="#63b8ff" points="447.14,-26.41 454.87,-19.17 444.31,-20.01 447.14,-26.41"/>
</a>
</g>
</g>
<!-- Node15&#45;&gt;Node3 -->
<g id="edge16_Node000015_Node000003" class="edge">
<title>Node15&#45;&gt;Node3</title>
<g id="a_edge16_Node000015_Node000003"><a xlink:title=" ">
<path fill="none" stroke="#63b8ff" d="M218.28,-164.98C192.14,-156.16 151.1,-142.31 121.77,-132.41"/>
<polygon fill="#63b8ff" stroke="#63b8ff" points="122.52,-128.96 111.92,-129.08 120.28,-135.6 122.52,-128.96"/>
</a>
</g>
</g>
<!-- Node15&#45;&gt;Node4 -->
<g id="edge19_Node000015_Node000004" class="edge">
<title>Node15&#45;&gt;Node4</title>
<g id="a_edge19_Node000015_Node000004"><a xlink:title=" ">
<path fill="none" stroke="#63b8ff" d="M261.33,-164.98C279.11,-156.5 306.65,-143.35 327.18,-133.54"/>
<polygon fill="#63b8ff" stroke="#63b8ff" points="328.83,-136.64 336.34,-129.17 325.81,-130.32 328.83,-136.64"/>
</a>
</g>
</g>
<!-- Node15&#45;&gt;Node5 -->
<g id="edge18_Node000015_Node000005" class="edge">
<title>Node15&#45;&gt;Node5</title>
<g id="a_edge18_Node000015_Node000005"><a xlink:title=" ">
<path fill="none" stroke="#63b8ff" d="M238.43,-164.66C228.2,-146.85 204.96,-106.37 191.55,-83.01"/>
<polygon fill="#63b8ff" stroke="#63b8ff" points="194.48,-81.09 186.47,-74.16 188.41,-84.57 194.48,-81.09"/>
</a>
</g>
</g>
<!-- Node15&#45;&gt;Node13 -->
<g id="edge17_Node000015_Node000013" class="edge">
<title>Node15&#45;&gt;Node13</title>
<g id="a_edge17_Node000015_Node000013"><a xlink:title=" ">
<path fill="none" stroke="#63b8ff" d="M244.47,-164.74C247.28,-139.31 255.47,-65.08 259.38,-29.69"/>
<polygon fill="#63b8ff" stroke="#63b8ff" points="262.91,-29.63 260.53,-19.31 255.95,-28.86 262.91,-29.63"/>
</a>
</g>
</g>
<!-- Node17 -->
<g id="Node000017" class="node">
<title>Node17</title>
<g id="a_Node000017"><a xlink:title=" ">
<polygon fill="#e0e0e0" stroke="#999999" points="517.5,-129 467.5,-129 467.5,-110 517.5,-110 517.5,-129"/>
<text text-anchor="middle" x="492.5" y="-117" font-family="Helvetica,sans-Serif" font-size="10.00">cstdint</text>
</a>
</g>
</g>
<!-- Node16&#45;&gt;Node17 -->
<g id="edge21_Node000016_Node000017" class="edge">
<title>Node16&#45;&gt;Node17</title>
<g id="a_edge21_Node000016_Node000017"><a xlink:title=" ">
<path fill="none" stroke="#63b8ff" d="M492.5,-164.75C492.5,-157.8 492.5,-147.85 492.5,-139.13"/>
<polygon fill="#63b8ff" stroke="#63b8ff" points="496,-139.09 492.5,-129.09 489,-139.09 496,-139.09"/>
</a>
</g>
</g>
<!-- Node18&#45;&gt;Node4 -->
<g id="edge24_Node000018_Node000004" class="edge">
<title>Node18&#45;&gt;Node4</title>
<g id="a_edge24_Node000018_Node000004"><a xlink:title=" ">
<path fill="none" stroke="#63b8ff" d="M284.51,-274.98C301.86,-268.07 323.34,-256.56 335.5,-239 356.29,-208.98 357.52,-164.53 356.23,-139.47"/>
<polygon fill="#63b8ff" stroke="#63b8ff" points="359.69,-138.89 355.49,-129.16 352.71,-139.39 359.69,-138.89"/>
</a>
</g>
</g>
<!-- Node19 -->
<g id="Node000019" class="node">
<title>Node19</title>
<g id="a_Node000019"><a xlink:title=" ">
<polygon fill="#e0e0e0" stroke="#999999" points="170.5,-239 128.5,-239 128.5,-220 170.5,-220 170.5,-239"/>
<text text-anchor="middle" x="149.5" y="-227" font-family="Helvetica,sans-Serif" font-size="10.00">array</text>
</a>
</g>
</g>
<!-- Node18&#45;&gt;Node19 -->
<g id="edge23_Node000018_Node000019" class="edge">
<title>Node18&#45;&gt;Node19</title>
<g id="a_edge23_Node000018_Node000019"><a xlink:title=" ">
<path fill="none" stroke="#63b8ff" d="M240.15,-274.98C222.93,-266.54 196.3,-253.47 176.35,-243.68"/>
<polygon fill="#63b8ff" stroke="#63b8ff" points="177.69,-240.43 167.17,-239.17 174.6,-246.72 177.69,-240.43"/>
</a>
</g>
</g>
<!-- Node20 -->
<g id="Node000020" class="node">
<title>Node20</title>
<g id="a_Node000020"><a xlink:href="tet__mesh_2local__id__table__offset_8hxx.html" target="_top" xlink:title=" ">
<polygon fill="white" stroke="#666666" points="326.5,-239 188.5,-239 188.5,-220 326.5,-220 326.5,-239"/>
<text text-anchor="middle" x="257.5" y="-227" font-family="Helvetica,sans-Serif" font-size="10.00">local_id_table_offset.hxx</text>
</a>
</g>
</g>
<!-- Node18&#45;&gt;Node20 -->
<g id="edge25_Node000018_Node000020" class="edge">
<title>Node18&#45;&gt;Node20</title>
<g id="a_edge25_Node000018_Node000020"><a xlink:title=" ">
<path fill="none" stroke="#63b8ff" d="M257.5,-274.75C257.5,-267.8 257.5,-257.85 257.5,-249.13"/>
<polygon fill="#63b8ff" stroke="#63b8ff" points="261,-249.09 257.5,-239.09 254,-249.09 261,-249.09"/>
</a>
</g>
</g>
<!-- Node20&#45;&gt;Node15 -->
<g id="edge26_Node000020_Node000015" class="edge">
<title>Node20&#45;&gt;Node15</title>
<g id="a_edge26_Node000020_Node000015"><a xlink:title=" ">
<path fill="none" stroke="#63b8ff" d="M255.19,-219.75C253.33,-212.72 250.66,-202.62 248.35,-193.84"/>
<polygon fill="#63b8ff" stroke="#63b8ff" points="251.71,-192.86 245.77,-184.09 244.94,-194.65 251.71,-192.86"/>
</a>
</g>
</g>
<!-- Node20&#45;&gt;Node16 -->
<g id="edge27_Node000020_Node000016" class="edge">
<title>Node20&#45;&gt;Node16</title>
<g id="a_edge27_Node000020_Node000016"><a xlink:title=" ">
<path fill="none" stroke="#63b8ff" d="M295.26,-219.98C335.82,-210.84 400.39,-196.27 444.53,-186.32"/>
<polygon fill="#63b8ff" stroke="#63b8ff" points="445.46,-189.7 454.45,-184.08 443.92,-182.87 445.46,-189.7"/>
</a>
</g>
</g>
</g>
</svg>
