<?xml version="1.0" encoding="UTF-8" standalone="no"?>
<!DOCTYPE svg PUBLIC "-//W3C//DTD SVG 1.1//EN"
 "http://www.w3.org/Graphics/SVG/1.1/DTD/svg11.dtd">
<!-- Generated by graphviz version 2.43.0 (0)
 -->
<!-- Title: src/wmtk/simplex/top_dimension_cofaces.hpp Pages: 1 -->
<!--zoomable 115 -->

<svg id="main" version="1.1" xmlns="http://www.w3.org/2000/svg" xmlns:xlink="http://www.w3.org/1999/xlink" xml:space="preserve" onload="init(evt)">
<style type="text/css"><![CDATA[
.node, .edge {opacity: 0.7;}
.node.selected, .edge.selected {opacity: 1;}
.edge:hover path { stroke: red; }
.edge:hover polygon { stroke: red; fill: red; }
]]></style>

<defs>
  <circle id="rim" cx="0" cy="0" r="7"/>
  <circle id="rim2" cx="0" cy="0" r="3.5"/>
  <g id="zoomPlus">
    <use xlink:href="#rim" fill="#404040"><set attributeName="fill" to="#808080" begin="zoomplus.mouseover" end="zoomplus.mouseout"/></use>
    <path d="M-4,0h8M0,-4v8" fill="none" stroke="white" stroke-width="1.5" pointer-events="none"/>
  </g>
  <g id="zoomMin">
    <use xlink:href="#rim" fill="#404040"><set attributeName="fill" to="#808080" begin="zoomminus.mouseover" end="zoomminus.mouseout"/></use>
    <path d="M-4,0h8" fill="none" stroke="white" stroke-width="1.5" pointer-events="none"/>
  </g>
  <g id="arrowUp" transform="translate(30 24)">
    <use xlink:href="#rim"/>
    <path pointer-events="none" fill="none" stroke="white" stroke-width="1.5" d="M0,-3.0v7 M-2.5,-0.5L0,-3.0L2.5,-0.5"/>
  </g>
  <g id="arrowRight" transform="rotate(90) translate(36 -43)">
    <use xlink:href="#rim"/>
    <path pointer-events="none" fill="none" stroke="white" stroke-width="1.5" d="M0,-3.0v7 M-2.5,-0.5L0,-3.0L2.5,-0.5"/>
  </g>
  <g id="arrowDown" transform="rotate(180) translate(-30 -48)">
    <use xlink:href="#rim"/>
    <path pointer-events="none" fill="none" stroke="white" stroke-width="1.5" d="M0,-3.0v7 M-2.5,-0.5L0,-3.0L2.5,-0.5"/>
  </g>
  <g id="arrowLeft" transform="rotate(270) translate(-36 17)">
    <use xlink:href="#rim"/>
    <path pointer-events="none" fill="none" stroke="white" stroke-width="1.5" d="M0,-3.0v7 M-2.5,-0.5L0,-3.0L2.5,-0.5"/>
  </g>
  <g id="resetDef">
    <use xlink:href="#rim2" fill="#404040"><set attributeName="fill" to="#808080" begin="reset.mouseover" end="reset.mouseout"/></use>
  </g>
</defs>
<script type="application/ecmascript">
var viewWidth = 4622;
var viewHeight = 115;
var sectionId = 'dynsection-1';
</script>
<script type="application/ecmascript" xlink:href="svg.min.js"/>
<svg id="graph" class="graph">
<g id="viewport">
<title>src/wmtk/simplex/top_dimension_cofaces.hpp</title>
<!-- Node1 -->
<g id="Node000001" class="node">
<title>Node1</title>
<g id="a_Node000001"><a xlink:title=" ">
<polygon fill="#999999" stroke="#666666" points="2555,-107 2418,-107 2418,-77 2555,-77 2555,-107"/>
<text text-anchor="start" x="2426" y="-95" font-family="Helvetica,sans-Serif" font-size="10.00">src/wmtk/simplex/top</text>
<text text-anchor="middle" x="2486.5" y="-84" font-family="Helvetica,sans-Serif" font-size="10.00">_dimension_cofaces.hpp</text>
</a>
</g>
</g>
<!-- Node2 -->
<g id="Node000002" class="node">
<title>Node2</title>
<g id="a_Node000002"><a xlink:href="internal_2marching_8cpp.html" target="_top" xlink:title=" ">
<polygon fill="white" stroke="#666666" points="159,-41 0,-41 0,0 159,0 159,-41"/>
<text text-anchor="start" x="8" y="-29" font-family="Helvetica,sans-Serif" font-size="10.00">components/marching</text>
<text text-anchor="start" x="8" y="-18" font-family="Helvetica,sans-Serif" font-size="10.00">/wmtk/components/marching</text>
<text text-anchor="middle" x="79.5" y="-7" font-family="Helvetica,sans-Serif" font-size="10.00">/internal/Marching.cpp</text>
</a>
</g>
</g>
<!-- Node1&#45;&gt;Node2 -->
<g id="edge1_Node000001_Node000002" class="edge">
<title>Node1&#45;&gt;Node2</title>
<g id="a_edge1_Node000001_Node000002"><a xlink:title=" ">
<path fill="none" stroke="#63b8ff" d="M2407.74,-91.38C2054.66,-92.76 615.25,-94.9 167.5,-41 164.7,-40.66 161.87,-40.28 159,-39.85"/>
<polygon fill="#63b8ff" stroke="#63b8ff" points="2407.89,-94.88 2417.87,-91.34 2407.86,-87.88 2407.89,-94.88"/>
</a>
</g>
</g>
<!-- Node3 -->
<g id="Node000003" class="node">
<title>Node3</title>
<g id="a_Node000003"><a xlink:href="_tet_mesh_operation_executor_8cpp.html" target="_top" xlink:title=" ">
<polygon fill="white" stroke="#666666" points="330,-35.5 177,-35.5 177,-5.5 330,-5.5 330,-35.5"/>
<text text-anchor="start" x="185" y="-23.5" font-family="Helvetica,sans-Serif" font-size="10.00">src/wmtk/TetMeshOperation</text>
<text text-anchor="middle" x="253.5" y="-12.5" font-family="Helvetica,sans-Serif" font-size="10.00">Executor.cpp</text>
</a>
</g>
</g>
<!-- Node1&#45;&gt;Node3 -->
<g id="edge2_Node000001_Node000003" class="edge">
<title>Node1&#45;&gt;Node3</title>
<g id="a_edge2_Node000001_Node000003"><a xlink:title=" ">
<path fill="none" stroke="#63b8ff" d="M2407.85,-91.27C2071.38,-92.1 751.51,-91.99 339.5,-41 329.17,-39.72 318.26,-37.75 307.8,-35.53"/>
<polygon fill="#63b8ff" stroke="#63b8ff" points="2408,-94.77 2417.99,-91.24 2407.98,-87.77 2408,-94.77"/>
</a>
</g>
</g>
<!-- Node4 -->
<g id="Node000004" class="node">
<title>Node4</title>
<g id="a_Node000004"><a xlink:href="_tri_mesh_operation_executor_8cpp.html" target="_top" xlink:title=" ">
<polygon fill="white" stroke="#666666" points="498.5,-35.5 348.5,-35.5 348.5,-5.5 498.5,-5.5 498.5,-35.5"/>
<text text-anchor="start" x="356.5" y="-23.5" font-family="Helvetica,sans-Serif" font-size="10.00">src/wmtk/TriMeshOperation</text>
<text text-anchor="middle" x="423.5" y="-12.5" font-family="Helvetica,sans-Serif" font-size="10.00">Executor.cpp</text>
</a>
</g>
</g>
<!-- Node1&#45;&gt;Node4 -->
<g id="edge3_Node000001_Node000004" class="edge">
<title>Node1&#45;&gt;Node4</title>
<g id="a_edge3_Node000001_Node000004"><a xlink:title=" ">
<path fill="none" stroke="#63b8ff" d="M2407.74,-91.14C2087.79,-91.39 884.61,-89.03 507.5,-41 497.4,-39.71 486.74,-37.74 476.53,-35.52"/>
<polygon fill="#63b8ff" stroke="#63b8ff" points="2407.85,-94.64 2417.84,-91.13 2407.84,-87.64 2407.85,-94.64"/>
</a>
</g>
</g>
<!-- Node5 -->
<g id="Node000005" class="node">
<title>Node5</title>
<g id="a_Node000005"><a xlink:href="_collapse_energy_before_invariant_8cpp.html" target="_top" xlink:title=" ">
<polygon fill="white" stroke="#666666" points="708,-35.5 517,-35.5 517,-5.5 708,-5.5 708,-35.5"/>
<text text-anchor="start" x="525" y="-23.5" font-family="Helvetica,sans-Serif" font-size="10.00">src/wmtk/invariants</text>
<text text-anchor="middle" x="612.5" y="-12.5" font-family="Helvetica,sans-Serif" font-size="10.00">/CollapseEnergyBeforeInvariant.cpp</text>
</a>
</g>
</g>
<!-- Node1&#45;&gt;Node5 -->
<g id="edge4_Node000001_Node000005" class="edge">
<title>Node1&#45;&gt;Node5</title>
<g id="a_edge4_Node000001_Node000005"><a xlink:title=" ">
<path fill="none" stroke="#63b8ff" d="M2407.35,-90.42C2108.85,-87.97 1051.24,-76.89 716.5,-41 704.26,-39.69 691.31,-37.73 678.85,-35.55"/>
<polygon fill="#63b8ff" stroke="#63b8ff" points="2407.62,-93.92 2417.65,-90.5 2407.68,-86.92 2407.62,-93.92"/>
</a>
</g>
</g>
<!-- Node6 -->
<g id="Node000006" class="node">
<title>Node6</title>
<g id="a_Node000006"><a xlink:href="_collapse_energy_before_invariant_double_8cpp.html" target="_top" xlink:title=" ">
<polygon fill="white" stroke="#666666" points="897,-41 726,-41 726,0 897,0 897,-41"/>
<text text-anchor="start" x="734" y="-29" font-family="Helvetica,sans-Serif" font-size="10.00">src/wmtk/invariants</text>
<text text-anchor="start" x="734" y="-18" font-family="Helvetica,sans-Serif" font-size="10.00">/CollapseEnergyBeforeInvariant</text>
<text text-anchor="middle" x="811.5" y="-7" font-family="Helvetica,sans-Serif" font-size="10.00">Double.cpp</text>
</a>
</g>
</g>
<!-- Node1&#45;&gt;Node6 -->
<g id="edge5_Node000001_Node000006" class="edge">
<title>Node1&#45;&gt;Node6</title>
<g id="a_edge5_Node000001_Node000006"><a xlink:title=" ">
<path fill="none" stroke="#63b8ff" d="M2407.63,-90.29C2130.47,-87.5 1202.01,-75.75 906.5,-41 903.41,-40.64 900.26,-40.22 897.1,-39.77"/>
<polygon fill="#63b8ff" stroke="#63b8ff" points="2407.96,-93.79 2418,-90.39 2408.03,-86.79 2407.96,-93.79"/>
</a>
</g>
</g>
<!-- Node7 -->
<g id="Node000007" class="node">
<title>Node7</title>
<g id="a_Node000007"><a xlink:href="_collapse_soft_energy_before_invariant_8cpp.html" target="_top" xlink:title=" ">
<polygon fill="white" stroke="#666666" points="1125.5,-35.5 915.5,-35.5 915.5,-5.5 1125.5,-5.5 1125.5,-35.5"/>
<text text-anchor="start" x="923.5" y="-23.5" font-family="Helvetica,sans-Serif" font-size="10.00">src/wmtk/invariants</text>
<text text-anchor="middle" x="1020.5" y="-12.5" font-family="Helvetica,sans-Serif" font-size="10.00">/CollapseSoftEnergyBeforeInvariant.cpp</text>
</a>
</g>
</g>
<!-- Node1&#45;&gt;Node7 -->
<g id="edge6_Node000001_Node000007" class="edge">
<title>Node1&#45;&gt;Node7</title>
<g id="a_edge6_Node000001_Node000007"><a xlink:title=" ">
<path fill="none" stroke="#63b8ff" d="M2407.44,-91.72C2198.77,-92.85 1616.12,-90.88 1134.5,-41 1121.32,-39.63 1107.36,-37.68 1093.89,-35.52"/>
<polygon fill="#63b8ff" stroke="#63b8ff" points="2407.71,-95.22 2417.69,-91.67 2407.67,-88.22 2407.71,-95.22"/>
</a>
</g>
</g>
<!-- Node8 -->
<g id="Node000008" class="node">
<title>Node8</title>
<g id="a_Node000008"><a xlink:href="_edge_valence_invariant_8cpp.html" target="_top" xlink:title=" ">
<polygon fill="white" stroke="#666666" points="1289.5,-35.5 1143.5,-35.5 1143.5,-5.5 1289.5,-5.5 1289.5,-35.5"/>
<text text-anchor="start" x="1151.5" y="-23.5" font-family="Helvetica,sans-Serif" font-size="10.00">src/wmtk/invariants</text>
<text text-anchor="middle" x="1216.5" y="-12.5" font-family="Helvetica,sans-Serif" font-size="10.00">/EdgeValenceInvariant.cpp</text>
</a>
</g>
</g>
<!-- Node1&#45;&gt;Node8 -->
<g id="edge7_Node000001_Node000008" class="edge">
<title>Node1&#45;&gt;Node8</title>
<g id="a_edge7_Node000001_Node000008"><a xlink:title=" ">
<path fill="none" stroke="#63b8ff" d="M2407.7,-89.65C2178.32,-85.41 1513.73,-70.84 1298.5,-41 1288.93,-39.67 1278.85,-37.74 1269.15,-35.59"/>
<polygon fill="#63b8ff" stroke="#63b8ff" points="2407.9,-93.16 2417.96,-89.84 2408.03,-86.16 2407.9,-93.16"/>
</a>
</g>
</g>
<!-- Node9 -->
<g id="Node000009" class="node">
<title>Node9</title>
<g id="a_Node000009"><a xlink:href="_invariant_8cpp.html" target="_top" xlink:title=" ">
<polygon fill="white" stroke="#666666" points="1421,-35.5 1308,-35.5 1308,-5.5 1421,-5.5 1421,-35.5"/>
<text text-anchor="start" x="1316" y="-23.5" font-family="Helvetica,sans-Serif" font-size="10.00">src/wmtk/invariants</text>
<text text-anchor="middle" x="1364.5" y="-12.5" font-family="Helvetica,sans-Serif" font-size="10.00">/Invariant.cpp</text>
</a>
</g>
</g>
<!-- Node1&#45;&gt;Node9 -->
<g id="edge8_Node000001_Node000009" class="edge">
<title>Node1&#45;&gt;Node9</title>
<g id="a_edge8_Node000001_Node000009"><a xlink:title=" ">
<path fill="none" stroke="#63b8ff" d="M2407.6,-89.76C2195.68,-86.03 1617.46,-73.14 1429.5,-41 1421.72,-39.67 1413.56,-37.7 1405.75,-35.52"/>
<polygon fill="#63b8ff" stroke="#63b8ff" points="2407.65,-93.26 2417.71,-89.94 2407.77,-86.26 2407.65,-93.26"/>
</a>
</g>
</g>
<!-- Node10 -->
<g id="Node000010" class="node">
<title>Node10</title>
<g id="a_Node000010"><a xlink:href="_multi_mesh_map_valid_invariant_8cpp.html" target="_top" xlink:title=" ">
<polygon fill="white" stroke="#666666" points="1618,-35.5 1439,-35.5 1439,-5.5 1618,-5.5 1618,-35.5"/>
<text text-anchor="start" x="1447" y="-23.5" font-family="Helvetica,sans-Serif" font-size="10.00">src/wmtk/invariants</text>
<text text-anchor="middle" x="1528.5" y="-12.5" font-family="Helvetica,sans-Serif" font-size="10.00">/MultiMeshMapValidInvariant.cpp</text>
</a>
</g>
</g>
<!-- Node1&#45;&gt;Node10 -->
<g id="edge9_Node000001_Node000010" class="edge">
<title>Node1&#45;&gt;Node10</title>
<g id="a_edge9_Node000001_Node000010"><a xlink:title=" ">
<path fill="none" stroke="#63b8ff" d="M2407.58,-90C2255.87,-87.28 1913.25,-77.29 1627.5,-41 1616.29,-39.58 1604.45,-37.63 1593,-35.52"/>
<polygon fill="#63b8ff" stroke="#63b8ff" points="2407.67,-93.5 2417.73,-90.17 2407.79,-86.5 2407.67,-93.5"/>
</a>
</g>
</g>
<!-- Node11 -->
<g id="Node000011" class="node">
<title>Node11</title>
<g id="a_Node000011"><a xlink:href="_swap44_energy_before_invariant_8cpp.html" target="_top" xlink:title=" ">
<polygon fill="white" stroke="#666666" points="1824.5,-35.5 1636.5,-35.5 1636.5,-5.5 1824.5,-5.5 1824.5,-35.5"/>
<text text-anchor="start" x="1644.5" y="-23.5" font-family="Helvetica,sans-Serif" font-size="10.00">src/wmtk/invariants</text>
<text text-anchor="middle" x="1730.5" y="-12.5" font-family="Helvetica,sans-Serif" font-size="10.00">/Swap44EnergyBeforeInvariant.cpp</text>
</a>
</g>
</g>
<!-- Node1&#45;&gt;Node11 -->
<g id="edge10_Node000001_Node000011" class="edge">
<title>Node1&#45;&gt;Node11</title>
<g id="a_edge10_Node000001_Node000011"><a xlink:title=" ">
<path fill="none" stroke="#63b8ff" d="M2407.52,-87.78C2284.44,-82.12 2039.61,-68.32 1833.5,-41 1822.22,-39.51 1810.31,-37.58 1798.75,-35.52"/>
<polygon fill="#63b8ff" stroke="#63b8ff" points="2407.46,-91.28 2417.61,-88.24 2407.78,-84.29 2407.46,-91.28"/>
</a>
</g>
</g>
<!-- Node12 -->
<g id="Node000012" class="node">
<title>Node12</title>
<g id="a_Node000012"><a xlink:href="_swap44_energy_before_invariant_double_8cpp.html" target="_top" xlink:title=" ">
<polygon fill="white" stroke="#666666" points="2010,-41 1843,-41 1843,0 2010,0 2010,-41"/>
<text text-anchor="start" x="1851" y="-29" font-family="Helvetica,sans-Serif" font-size="10.00">src/wmtk/invariants</text>
<text text-anchor="start" x="1851" y="-18" font-family="Helvetica,sans-Serif" font-size="10.00">/Swap44EnergyBeforeInvariant</text>
<text text-anchor="middle" x="1926.5" y="-7" font-family="Helvetica,sans-Serif" font-size="10.00">Double.cpp</text>
</a>
</g>
</g>
<!-- Node1&#45;&gt;Node12 -->
<g id="edge11_Node000001_Node000012" class="edge">
<title>Node1&#45;&gt;Node12</title>
<g id="a_edge11_Node000001_Node000012"><a xlink:title=" ">
<path fill="none" stroke="#63b8ff" d="M2407.58,-84.97C2314.47,-77.31 2155.16,-62.43 2019.5,-41 2016.4,-40.51 2013.26,-39.99 2010.08,-39.44"/>
<polygon fill="#63b8ff" stroke="#63b8ff" points="2407.52,-88.48 2417.77,-85.81 2408.09,-81.5 2407.52,-88.48"/>
</a>
</g>
</g>
<!-- Node13 -->
<g id="Node000013" class="node">
<title>Node13</title>
<g id="a_Node000013"><a xlink:href="_swap56_energy_before_invariant_8cpp.html" target="_top" xlink:title=" ">
<polygon fill="white" stroke="#666666" points="2216.5,-35.5 2028.5,-35.5 2028.5,-5.5 2216.5,-5.5 2216.5,-35.5"/>
<text text-anchor="start" x="2036.5" y="-23.5" font-family="Helvetica,sans-Serif" font-size="10.00">src/wmtk/invariants</text>
<text text-anchor="middle" x="2122.5" y="-12.5" font-family="Helvetica,sans-Serif" font-size="10.00">/Swap56EnergyBeforeInvariant.cpp</text>
</a>
</g>
</g>
<!-- Node1&#45;&gt;Node13 -->
<g id="edge12_Node000001_Node000013" class="edge">
<title>Node1&#45;&gt;Node13</title>
<g id="a_edge12_Node000001_Node000013"><a xlink:title=" ">
<path fill="none" stroke="#63b8ff" d="M2407.74,-75.96C2344.91,-63.97 2257.55,-47.29 2196.11,-35.56"/>
<polygon fill="#63b8ff" stroke="#63b8ff" points="2407.13,-79.41 2417.61,-77.85 2408.44,-72.53 2407.13,-79.41"/>
</a>
</g>
</g>
<!-- Node14 -->
<g id="Node000014" class="node">
<title>Node14</title>
<g id="a_Node000014"><a xlink:href="_swap56_energy_before_invariant_double_8cpp.html" target="_top" xlink:title=" ">
<polygon fill="white" stroke="#666666" points="2402,-41 2235,-41 2235,0 2402,0 2402,-41"/>
<text text-anchor="start" x="2243" y="-29" font-family="Helvetica,sans-Serif" font-size="10.00">src/wmtk/invariants</text>
<text text-anchor="start" x="2243" y="-18" font-family="Helvetica,sans-Serif" font-size="10.00">/Swap56EnergyBeforeInvariant</text>
<text text-anchor="middle" x="2318.5" y="-7" font-family="Helvetica,sans-Serif" font-size="10.00">Double.cpp</text>
</a>
</g>
</g>
<!-- Node1&#45;&gt;Node14 -->
<g id="edge13_Node000001_Node000014" class="edge">
<title>Node1&#45;&gt;Node14</title>
<g id="a_edge13_Node000001_Node000014"><a xlink:title=" ">
<path fill="none" stroke="#63b8ff" d="M2443.07,-73.03C2419.4,-63.24 2390.07,-51.11 2365.81,-41.07"/>
<polygon fill="#63b8ff" stroke="#63b8ff" points="2441.92,-76.35 2452.5,-76.94 2444.6,-69.88 2441.92,-76.35"/>
</a>
</g>
</g>
<!-- Node15 -->
<g id="Node000015" class="node">
<title>Node15</title>
<g id="a_Node000015"><a xlink:href="_multi_mesh_manager_8cpp.html" target="_top" xlink:title=" ">
<polygon fill="white" stroke="#666666" points="2553,-35.5 2420,-35.5 2420,-5.5 2553,-5.5 2553,-35.5"/>
<text text-anchor="start" x="2428" y="-23.5" font-family="Helvetica,sans-Serif" font-size="10.00">src/wmtk/multimesh</text>
<text text-anchor="middle" x="2486.5" y="-12.5" font-family="Helvetica,sans-Serif" font-size="10.00">/MultiMeshManager.cpp</text>
</a>
</g>
</g>
<!-- Node1&#45;&gt;Node15 -->
<g id="edge14_Node000001_Node000015" class="edge">
<title>Node1&#45;&gt;Node15</title>
<g id="a_edge14_Node000001_Node000015"><a xlink:title=" ">
<path fill="none" stroke="#63b8ff" d="M2486.5,-66.75C2486.5,-56.31 2486.5,-44.49 2486.5,-35.54"/>
<polygon fill="#63b8ff" stroke="#63b8ff" points="2483,-66.94 2486.5,-76.94 2490,-66.94 2483,-66.94"/>
</a>
</g>
</g>
<!-- Node16 -->
<g id="Node000016" class="node">
<title>Node16</title>
<g id="a_Node000016"><a xlink:href="check__map__valid_8cpp.html" target="_top" xlink:title=" ">
<polygon fill="white" stroke="#666666" points="2720,-35.5 2571,-35.5 2571,-5.5 2720,-5.5 2720,-35.5"/>
<text text-anchor="start" x="2579" y="-23.5" font-family="Helvetica,sans-Serif" font-size="10.00">src/wmtk/multimesh</text>
<text text-anchor="middle" x="2645.5" y="-12.5" font-family="Helvetica,sans-Serif" font-size="10.00">/utils/check_map_valid.cpp</text>
</a>
</g>
</g>
<!-- Node1&#45;&gt;Node16 -->
<g id="edge15_Node000001_Node000016" class="edge">
<title>Node1&#45;&gt;Node16</title>
<g id="a_edge15_Node000001_Node000016"><a xlink:title=" ">
<path fill="none" stroke="#63b8ff" d="M2528.13,-72.81C2554.77,-61.16 2588.82,-46.28 2613.37,-35.54"/>
<polygon fill="#63b8ff" stroke="#63b8ff" points="2526.44,-69.72 2518.68,-76.94 2529.24,-76.14 2526.44,-69.72"/>
</a>
</g>
</g>
<!-- Node17 -->
<g id="Node000017" class="node">
<title>Node17</title>
<g id="a_Node000017"><a xlink:href="transport__tuple_8cpp.html" target="_top" xlink:title=" ">
<polygon fill="white" stroke="#666666" points="2876.5,-35.5 2738.5,-35.5 2738.5,-5.5 2876.5,-5.5 2876.5,-35.5"/>
<text text-anchor="start" x="2746.5" y="-23.5" font-family="Helvetica,sans-Serif" font-size="10.00">src/wmtk/multimesh</text>
<text text-anchor="middle" x="2807.5" y="-12.5" font-family="Helvetica,sans-Serif" font-size="10.00">/utils/transport_tuple.cpp</text>
</a>
</g>
</g>
<!-- Node1&#45;&gt;Node17 -->
<g id="edge16_Node000001_Node000017" class="edge">
<title>Node1&#45;&gt;Node17</title>
<g id="a_edge16_Node000001_Node000017"><a xlink:title=" ">
<path fill="none" stroke="#63b8ff" d="M2564.96,-75.73C2612.65,-66.23 2674.71,-53.48 2729.5,-41 2736.99,-39.3 2744.85,-37.42 2752.6,-35.53"/>
<polygon fill="#63b8ff" stroke="#63b8ff" points="2564.14,-72.32 2555.01,-77.7 2565.5,-79.19 2564.14,-72.32"/>
</a>
</g>
</g>
<!-- Node18 -->
<g id="Node000018" class="node">
<title>Node18</title>
<g id="a_Node000018"><a xlink:href="_operation_8cpp.html" target="_top" xlink:title=" ">
<polygon fill="white" stroke="#666666" points="3010.5,-35.5 2894.5,-35.5 2894.5,-5.5 3010.5,-5.5 3010.5,-35.5"/>
<text text-anchor="start" x="2902.5" y="-23.5" font-family="Helvetica,sans-Serif" font-size="10.00">src/wmtk/operations</text>
<text text-anchor="middle" x="2952.5" y="-12.5" font-family="Helvetica,sans-Serif" font-size="10.00">/Operation.cpp</text>
</a>
</g>
</g>
<!-- Node1&#45;&gt;Node18 -->
<g id="edge17_Node000001_Node000018" class="edge">
<title>Node1&#45;&gt;Node18</title>
<g id="a_edge17_Node000001_Node000018"><a xlink:title=" ">
<path fill="none" stroke="#63b8ff" d="M2565.28,-84.84C2646.2,-77.65 2775.52,-63.75 2885.5,-41 2892.86,-39.48 2900.58,-37.55 2908.06,-35.5"/>
<polygon fill="#63b8ff" stroke="#63b8ff" points="2564.83,-81.37 2555.17,-85.73 2565.44,-88.34 2564.83,-81.37"/>
</a>
</g>
</g>
<!-- Node19 -->
<g id="Node000019" class="node">
<title>Node19</title>
<g id="a_Node000019"><a xlink:href="_update_edge_operation_multi_mesh_map_functor_8cpp.html" target="_top" xlink:title=" ">
<polygon fill="white" stroke="#666666" points="3180,-41 3029,-41 3029,0 3180,0 3180,-41"/>
<text text-anchor="start" x="3037" y="-29" font-family="Helvetica,sans-Serif" font-size="10.00">src/wmtk/operations</text>
<text text-anchor="start" x="3037" y="-18" font-family="Helvetica,sans-Serif" font-size="10.00">/utils/UpdateEdgeOperation</text>
<text text-anchor="middle" x="3104.5" y="-7" font-family="Helvetica,sans-Serif" font-size="10.00">MultiMeshMapFunctor.cpp</text>
</a>
</g>
</g>
<!-- Node1&#45;&gt;Node19 -->
<g id="edge18_Node000001_Node000019" class="edge">
<title>Node1&#45;&gt;Node19</title>
<g id="a_edge18_Node000001_Node000019"><a xlink:title=" ">
<path fill="none" stroke="#63b8ff" d="M2565.15,-86.88C2669.5,-80.66 2859.21,-66.79 3019.5,-41 3022.49,-40.52 3025.53,-39.99 3028.6,-39.44"/>
<polygon fill="#63b8ff" stroke="#63b8ff" points="2564.79,-83.39 2555.02,-87.47 2565.2,-90.38 2564.79,-83.39"/>
</a>
</g>
</g>
<!-- Node20 -->
<g id="Node000020" class="node">
<title>Node20</title>
<g id="a_Node000020"><a xlink:href="multi__mesh__edge__collapse_8cpp.html" target="_top" xlink:title=" ">
<polygon fill="white" stroke="#666666" points="3329,-41 3198,-41 3198,0 3329,0 3329,-41"/>
<text text-anchor="start" x="3206" y="-29" font-family="Helvetica,sans-Serif" font-size="10.00">src/wmtk/operations</text>
<text text-anchor="start" x="3206" y="-18" font-family="Helvetica,sans-Serif" font-size="10.00">/utils/multi_mesh_edge</text>
<text text-anchor="middle" x="3263.5" y="-7" font-family="Helvetica,sans-Serif" font-size="10.00">_collapse.cpp</text>
</a>
</g>
</g>
<!-- Node1&#45;&gt;Node20 -->
<g id="edge19_Node000001_Node000020" class="edge">
<title>Node1&#45;&gt;Node20</title>
<g id="a_edge19_Node000001_Node000020"><a xlink:title=" ">
<path fill="none" stroke="#63b8ff" d="M2565.67,-90.17C2696.42,-87.73 2965.32,-78.17 3189.5,-41 3192.25,-40.54 3195.05,-40.03 3197.87,-39.47"/>
<polygon fill="#63b8ff" stroke="#63b8ff" points="2565.29,-86.68 2555.36,-90.35 2565.42,-93.67 2565.29,-86.68"/>
</a>
</g>
</g>
<!-- Node21 -->
<g id="Node000021" class="node">
<title>Node21</title>
<g id="a_Node000021"><a xlink:href="multi__mesh__edge__split_8cpp.html" target="_top" xlink:title=" ">
<polygon fill="white" stroke="#666666" points="3478,-41 3347,-41 3347,0 3478,0 3478,-41"/>
<text text-anchor="start" x="3355" y="-29" font-family="Helvetica,sans-Serif" font-size="10.00">src/wmtk/operations</text>
<text text-anchor="start" x="3355" y="-18" font-family="Helvetica,sans-Serif" font-size="10.00">/utils/multi_mesh_edge</text>
<text text-anchor="middle" x="3412.5" y="-7" font-family="Helvetica,sans-Serif" font-size="10.00">_split.cpp</text>
</a>
</g>
</g>
<!-- Node1&#45;&gt;Node21 -->
<g id="edge20_Node000001_Node000021" class="edge">
<title>Node1&#45;&gt;Node21</title>
<g id="a_edge20_Node000001_Node000021"><a xlink:title=" ">
<path fill="none" stroke="#63b8ff" d="M2565.3,-91.59C2716.32,-91.57 3056.54,-85.96 3338.5,-41 3341.26,-40.56 3344.06,-40.06 3346.88,-39.52"/>
<polygon fill="#63b8ff" stroke="#63b8ff" points="2565.2,-88.09 2555.19,-91.58 2565.19,-95.09 2565.2,-88.09"/>
</a>
</g>
</g>
<!-- Node22 -->
<g id="Node000022" class="node">
<title>Node22</title>
<g id="a_Node000022"><a xlink:href="closed__star_8cpp.html" target="_top" xlink:title=" ">
<polygon fill="white" stroke="#666666" points="3634.5,-35.5 3496.5,-35.5 3496.5,-5.5 3634.5,-5.5 3634.5,-35.5"/>
<text text-anchor="start" x="3504.5" y="-23.5" font-family="Helvetica,sans-Serif" font-size="10.00">src/wmtk/simplex/closed</text>
<text text-anchor="middle" x="3565.5" y="-12.5" font-family="Helvetica,sans-Serif" font-size="10.00">_star.cpp</text>
</a>
</g>
</g>
<!-- Node1&#45;&gt;Node22 -->
<g id="edge21_Node000001_Node000022" class="edge">
<title>Node1&#45;&gt;Node22</title>
<g id="a_edge21_Node000001_Node000022"><a xlink:title=" ">
<path fill="none" stroke="#63b8ff" d="M2565.06,-89.06C2768.68,-83.7 3309.99,-67.36 3487.5,-41 3496.61,-39.65 3506.21,-37.69 3515.44,-35.54"/>
<polygon fill="#63b8ff" stroke="#63b8ff" points="2564.94,-85.56 2555.04,-89.32 2565.12,-92.56 2564.94,-85.56"/>
</a>
</g>
</g>
<!-- Node23 -->
<g id="Node000023" class="node">
<title>Node23</title>
<g id="a_Node000023"><a xlink:href="cofaces__single__dimension_8cpp.html" target="_top" xlink:title=" ">
<polygon fill="white" stroke="#666666" points="3796.5,-35.5 3652.5,-35.5 3652.5,-5.5 3796.5,-5.5 3796.5,-35.5"/>
<text text-anchor="start" x="3660.5" y="-23.5" font-family="Helvetica,sans-Serif" font-size="10.00">src/wmtk/simplex/cofaces</text>
<text text-anchor="middle" x="3724.5" y="-12.5" font-family="Helvetica,sans-Serif" font-size="10.00">_single_dimension.cpp</text>
</a>
</g>
</g>
<!-- Node1&#45;&gt;Node23 -->
<g id="edge22_Node000001_Node000023" class="edge">
<title>Node1&#45;&gt;Node23</title>
<g id="a_edge22_Node000001_Node000023"><a xlink:title=" ">
<path fill="none" stroke="#63b8ff" d="M2565.22,-89.58C2790.43,-85.2 3434.55,-70.39 3643.5,-41 3652.95,-39.67 3662.92,-37.73 3672.5,-35.58"/>
<polygon fill="#63b8ff" stroke="#63b8ff" points="2565.07,-86.08 2555.14,-89.77 2565.2,-93.08 2565.07,-86.08"/>
</a>
</g>
</g>
<!-- Node24 -->
<g id="Node000024" class="node">
<title>Node24</title>
<g id="a_Node000024"><a xlink:href="_top_dimension_cofaces_iterable_8cpp.html" target="_top" xlink:title=" ">
<polygon fill="white" stroke="#666666" points="4000,-35.5 3815,-35.5 3815,-5.5 4000,-5.5 4000,-35.5"/>
<text text-anchor="start" x="3823" y="-23.5" font-family="Helvetica,sans-Serif" font-size="10.00">src/wmtk/simplex/iterable</text>
<text text-anchor="middle" x="3907.5" y="-12.5" font-family="Helvetica,sans-Serif" font-size="10.00">/TopDimensionCofacesIterable.cpp</text>
</a>
</g>
</g>
<!-- Node1&#45;&gt;Node24 -->
<g id="edge23_Node000001_Node000024" class="edge">
<title>Node1&#45;&gt;Node24</title>
<g id="a_edge23_Node000001_Node000024"><a xlink:title=" ">
<path fill="none" stroke="#63b8ff" d="M2565.32,-89.58C2811.34,-84.88 3563.08,-68.61 3805.5,-41 3817.41,-39.64 3830.02,-37.68 3842.15,-35.51"/>
<polygon fill="#63b8ff" stroke="#63b8ff" points="2564.96,-86.08 2555.03,-89.77 2565.1,-93.08 2564.96,-86.08"/>
</a>
</g>
</g>
<!-- Node25 -->
<g id="Node000025" class="node">
<title>Node25</title>
<g id="a_Node000025"><a xlink:href="link_8cpp.html" target="_top" xlink:title=" ">
<polygon fill="white" stroke="#666666" points="4163,-30 4018,-30 4018,-11 4163,-11 4163,-30"/>
<text text-anchor="middle" x="4090.5" y="-18" font-family="Helvetica,sans-Serif" font-size="10.00">src/wmtk/simplex/link.cpp</text>
</a>
</g>
</g>
<!-- Node1&#45;&gt;Node25 -->
<g id="edge24_Node000001_Node000025" class="edge">
<title>Node1&#45;&gt;Node25</title>
<g id="a_edge24_Node000001_Node000025"><a xlink:title=" ">
<path fill="none" stroke="#63b8ff" d="M2565.33,-90.53C2835.98,-88.58 3726.24,-79.34 4009.5,-41 4026.84,-38.65 4045.89,-34.17 4061.15,-30.09"/>
<polygon fill="#63b8ff" stroke="#63b8ff" points="2565.17,-87.03 2555.2,-90.6 2565.22,-94.03 2565.17,-87.03"/>
</a>
</g>
</g>
<!-- Node26 -->
<g id="Node000026" class="node">
<title>Node26</title>
<g id="a_Node000026"><a xlink:href="link__single__dimension_8cpp.html" target="_top" xlink:title=" ">
<polygon fill="white" stroke="#666666" points="4309.5,-35.5 4181.5,-35.5 4181.5,-5.5 4309.5,-5.5 4309.5,-35.5"/>
<text text-anchor="start" x="4189.5" y="-23.5" font-family="Helvetica,sans-Serif" font-size="10.00">src/wmtk/simplex/link</text>
<text text-anchor="middle" x="4245.5" y="-12.5" font-family="Helvetica,sans-Serif" font-size="10.00">_single_dimension.cpp</text>
</a>
</g>
</g>
<!-- Node1&#45;&gt;Node26 -->
<g id="edge25_Node000001_Node000026" class="edge">
<title>Node1&#45;&gt;Node26</title>
<g id="a_edge25_Node000001_Node000026"><a xlink:title=" ">
<path fill="none" stroke="#63b8ff" d="M2565.82,-91.08C2855.61,-90.98 3856.59,-87.24 4172.5,-41 4181.33,-39.71 4190.61,-37.73 4199.5,-35.51"/>
<polygon fill="#63b8ff" stroke="#63b8ff" points="2565.4,-87.58 2555.41,-91.08 2565.41,-94.58 2565.4,-87.58"/>
</a>
</g>
</g>
<!-- Node27 -->
<g id="Node000027" class="node">
<title>Node27</title>
<g id="a_Node000027"><a xlink:href="open__star_8cpp.html" target="_top" xlink:title=" ">
<polygon fill="white" stroke="#666666" points="4459,-35.5 4328,-35.5 4328,-5.5 4459,-5.5 4459,-35.5"/>
<text text-anchor="start" x="4336" y="-23.5" font-family="Helvetica,sans-Serif" font-size="10.00">src/wmtk/simplex/open</text>
<text text-anchor="middle" x="4393.5" y="-12.5" font-family="Helvetica,sans-Serif" font-size="10.00">_star.cpp</text>
</a>
</g>
</g>
<!-- Node1&#45;&gt;Node27 -->
<g id="edge26_Node000001_Node000027" class="edge">
<title>Node1&#45;&gt;Node27</title>
<g id="a_edge26_Node000001_Node000027"><a xlink:title=" ">
<path fill="none" stroke="#63b8ff" d="M2565.46,-91.23C2870.53,-91.74 3972.36,-90.07 4318.5,-41 4327.56,-39.72 4337.1,-37.74 4346.22,-35.53"/>
<polygon fill="#63b8ff" stroke="#63b8ff" points="2565.38,-87.73 2555.38,-91.21 2565.37,-94.73 2565.38,-87.73"/>
</a>
</g>
</g>
<!-- Node28 -->
<g id="Node000028" class="node">
<title>Node28</title>
<g id="a_Node000028"><a xlink:href="top__dimension__cofaces_8cpp.html" target="_top" xlink:title=" ">
<polygon fill="white" stroke="#666666" points="4613.5,-35.5 4477.5,-35.5 4477.5,-5.5 4613.5,-5.5 4613.5,-35.5"/>
<text text-anchor="start" x="4485.5" y="-23.5" font-family="Helvetica,sans-Serif" font-size="10.00">src/wmtk/simplex/top</text>
<text text-anchor="middle" x="4545.5" y="-12.5" font-family="Helvetica,sans-Serif" font-size="10.00">_dimension_cofaces.cpp</text>
</a>
</g>
</g>
<!-- Node1&#45;&gt;Node28 -->
<g id="edge27_Node000001_Node000028" class="edge">
<title>Node1&#45;&gt;Node28</title>
<g id="a_edge27_Node000001_Node000028"><a xlink:title=" ">
<path fill="none" stroke="#63b8ff" d="M2565.14,-91.35C2885.27,-92.43 4091.21,-92.87 4468.5,-41 4477.79,-39.72 4487.58,-37.75 4496.94,-35.54"/>
<polygon fill="#63b8ff" stroke="#63b8ff" points="2565.04,-87.85 2555.03,-91.32 2565.02,-94.85 2565.04,-87.85"/>
</a>
</g>
</g>
</g>
</svg>

<g id="navigator" transform="translate(0 0)" fill="#404254">
  <rect fill="#f2f5e9" fill-opacity="0.5" stroke="#606060" stroke-width=".5" x="0" y="0" width="60" height="60"/>
  <use id="zoomplus" xlink:href="#zoomPlus" x="17" y="9" onmousedown="handleZoom(evt,'in')"/>
  <use id="zoomminus" xlink:href="#zoomMin" x="42" y="9" onmousedown="handleZoom(evt,'out')"/>
  <use id="reset" xlink:href="#resetDef" x="30" y="36" onmousedown="handleReset()"/>
   <use id="arrowup" xlink:href="#arrowUp" x="0" y="0" onmousedown="handlePan(0,-1)"/>
  <use id="arrowright" xlink:href="#arrowRight" x="0" y="0" onmousedown="handlePan(1,0)"/>
  <use id="arrowdown" xlink:href="#arrowDown" x="0" y="0" onmousedown="handlePan(0,1)"/>
  <use id="arrowleft" xlink:href="#arrowLeft" x="0" y="0" onmousedown="handlePan(-1,0)"/>
</g>
<svg viewBox="0 0 15 15" width="100%" height="30px" preserveAspectRatio="xMaxYMin meet">
 <g id="arrow_out" transform="scale(0.3 0.3)">
  <a xlink:href="top__dimension__cofaces_8hpp__dep__incl_org.svg" target="_base">
   <rect id="button" ry="5" rx="5" y="6" x="6" height="38" width="38"
        fill="#f2f5e9" fill-opacity="0.5" stroke="#606060" stroke-width="1.0"/>
   <path id="arrow"
     d="M 11.500037,31.436501 C 11.940474,20.09759 22.043105,11.32322 32.158766,21.979434 L 37.068811,17.246167 C 37.068811,17.246167 37.088388,32 37.088388,32 L 22.160133,31.978069 C 22.160133,31.978069 26.997745,27.140456 26.997745,27.140456 C 18.528582,18.264221 13.291696,25.230495 11.500037,31.436501 z"
     style="fill:#404040;"/>
  </a>
 </g>
</svg>

<style type='text/css'>
<![CDATA[
[data-mouse-over-selected='false'] { opacity: 0.7; }
[data-mouse-over-selected='true']  { opacity: 1.0; }
]]>
</style>
<script type="application/ecmascript"><![CDATA[
document.addEventListener('DOMContentLoaded', (event) => {
  highlightEdges();
  highlightAdjacentNodes();
});
]]></script>
</svg>
