<?xml version="1.0" encoding="UTF-8" standalone="no"?>
<!DOCTYPE svg PUBLIC "-//W3C//DTD SVG 1.1//EN"
 "http://www.w3.org/Graphics/SVG/1.1/DTD/svg11.dtd">
<!-- Generated by graphviz version 2.43.0 (0)
 -->
<!-- Title: src/wmtk/autogen/tri_mesh/local_switch_tuple.hxx Pages: 1 -->
<svg width="822pt" height="478pt"
 viewBox="0.00 0.00 821.50 478.00" xmlns="http://www.w3.org/2000/svg" xmlns:xlink="http://www.w3.org/1999/xlink">
<g id="graph0" class="graph" transform="scale(1 1) rotate(0) translate(4 474)">
<title>src/wmtk/autogen/tri_mesh/local_switch_tuple.hxx</title>
<!-- Node1 -->
<g id="Node000001" class="node">
<title>Node1</title>
<g id="a_Node000001"><a xlink:title=" ">
<polygon fill="#999999" stroke="#666666" points="418,-470 255,-470 255,-440 418,-440 418,-470"/>
<text text-anchor="start" x="263" y="-458" font-family="Helvetica,sans-Serif" font-size="10.00">src/wmtk/autogen/tri</text>
<text text-anchor="middle" x="336.5" y="-447" font-family="Helvetica,sans-Serif" font-size="10.00">_mesh/local_switch_tuple.hxx</text>
</a>
</g>
</g>
<!-- Node2 -->
<g id="Node000002" class="node">
<title>Node2</title>
<g id="a_Node000002"><a xlink:title=" ">
<polygon fill="#e0e0e0" stroke="#999999" points="65,-19 0,-19 0,0 65,0 65,-19"/>
<text text-anchor="middle" x="32.5" y="-7" font-family="Helvetica,sans-Serif" font-size="10.00">stdexcept</text>
</a>
</g>
</g>
<!-- Node1&#45;&gt;Node2 -->
<g id="edge1_Node000001_Node000002" class="edge">
<title>Node1&#45;&gt;Node2</title>
<g id="a_edge1_Node000001_Node000002"><a xlink:title=" ">
<path fill="none" stroke="#63b8ff" d="M260.8,-439.95C174.58,-421.73 45.5,-386.73 45.5,-340.5 45.5,-340.5 45.5,-340.5 45.5,-118.5 45.5,-86.96 39.97,-50.62 36.12,-29.15"/>
<polygon fill="#63b8ff" stroke="#63b8ff" points="39.53,-28.33 34.25,-19.14 32.65,-29.61 39.53,-28.33"/>
</a>
</g>
</g>
<!-- Node3 -->
<g id="Node000003" class="node">
<title>Node3</title>
<g id="a_Node000003"><a xlink:href="_tuple_inspector_8hpp.html" target="_top" xlink:title=" ">
<polygon fill="white" stroke="#666666" points="284.5,-184 122.5,-184 122.5,-165 284.5,-165 284.5,-184"/>
<text text-anchor="middle" x="203.5" y="-172" font-family="Helvetica,sans-Serif" font-size="10.00">wmtk/utils/TupleInspector.hpp</text>
</a>
</g>
</g>
<!-- Node1&#45;&gt;Node3 -->
<g id="edge2_Node000001_Node000003" class="edge">
<title>Node1&#45;&gt;Node3</title>
<g id="a_edge2_Node000001_Node000003"><a xlink:title=" ">
<path fill="none" stroke="#63b8ff" d="M301.35,-439.98C264.38,-422.64 211.5,-389.31 211.5,-340.5 211.5,-340.5 211.5,-340.5 211.5,-283.5 211.5,-252.1 208.1,-215.71 205.73,-194.2"/>
<polygon fill="#63b8ff" stroke="#63b8ff" points="209.19,-193.7 204.58,-184.16 202.24,-194.5 209.19,-193.7"/>
</a>
</g>
</g>
<!-- Node15 -->
<g id="Node000015" class="node">
<title>Node15</title>
<g id="a_Node000015"><a xlink:href="tri__mesh_2autogenerated__tables_8hpp.html" target="_top" xlink:title=" ">
<polygon fill="white" stroke="#666666" points="729.5,-184 585.5,-184 585.5,-165 729.5,-165 729.5,-184"/>
<text text-anchor="middle" x="657.5" y="-172" font-family="Helvetica,sans-Serif" font-size="10.00">autogenerated_tables.hpp</text>
</a>
</g>
</g>
<!-- Node1&#45;&gt;Node15 -->
<g id="edge18_Node000001_Node000015" class="edge">
<title>Node1&#45;&gt;Node15</title>
<g id="a_edge18_Node000001_Node000015"><a xlink:title=" ">
<path fill="none" stroke="#63b8ff" d="M414.92,-439.98C502.91,-421.97 633.5,-387.35 633.5,-340.5 633.5,-340.5 633.5,-340.5 633.5,-283.5 633.5,-251.28 643.81,-214.91 650.91,-193.66"/>
<polygon fill="#63b8ff" stroke="#63b8ff" points="654.28,-194.63 654.26,-184.04 647.67,-192.33 654.28,-194.63"/>
</a>
</g>
</g>
<!-- Node17 -->
<g id="Node000017" class="node">
<title>Node17</title>
<g id="a_Node000017"><a xlink:href="tri__mesh_2local__id__table__offset_8hpp.html" target="_top" xlink:title=" ">
<polygon fill="white" stroke="#666666" points="476.5,-294 338.5,-294 338.5,-275 476.5,-275 476.5,-294"/>
<text text-anchor="middle" x="407.5" y="-282" font-family="Helvetica,sans-Serif" font-size="10.00">local_id_table_offset.hpp</text>
</a>
</g>
</g>
<!-- Node1&#45;&gt;Node17 -->
<g id="edge20_Node000001_Node000017" class="edge">
<title>Node1&#45;&gt;Node17</title>
<g id="a_edge20_Node000001_Node000017"><a xlink:title=" ">
<path fill="none" stroke="#63b8ff" d="M323.89,-439.85C316.36,-430.42 307.51,-417.35 303.5,-404 293.74,-371.48 300.35,-355.74 322.5,-330 335.03,-315.43 353.53,-304.96 370.07,-297.85"/>
<polygon fill="#63b8ff" stroke="#63b8ff" points="371.56,-301.02 379.53,-294.04 368.94,-294.53 371.56,-301.02"/>
</a>
</g>
</g>
<!-- Node20 -->
<g id="Node000020" class="node">
<title>Node20</title>
<g id="a_Node000020"><a xlink:href="tri__mesh_2tuple__from__valid__index_8hpp.html" target="_top" xlink:title=" ">
<polygon fill="white" stroke="#666666" points="813.5,-404 661.5,-404 661.5,-385 813.5,-385 813.5,-404"/>
<text text-anchor="middle" x="737.5" y="-392" font-family="Helvetica,sans-Serif" font-size="10.00">tuple_from_valid_index.hpp</text>
</a>
</g>
</g>
<!-- Node1&#45;&gt;Node20 -->
<g id="edge26_Node000001_Node000020" class="edge">
<title>Node1&#45;&gt;Node20</title>
<g id="a_edge26_Node000001_Node000020"><a xlink:title=" ">
<path fill="none" stroke="#63b8ff" d="M418.13,-442.09C492.01,-431.31 599.6,-415.62 669.07,-405.48"/>
<polygon fill="#63b8ff" stroke="#63b8ff" points="669.65,-408.94 679.04,-404.03 668.64,-402.01 669.65,-408.94"/>
</a>
</g>
</g>
<!-- Node22 -->
<g id="Node000022" class="node">
<title>Node22</title>
<g id="a_Node000022"><a xlink:href="tri__mesh_2valid__index__from__tuple_8hpp.html" target="_top" xlink:title=" ">
<polygon fill="white" stroke="#666666" points="464.5,-404 312.5,-404 312.5,-385 464.5,-385 464.5,-404"/>
<text text-anchor="middle" x="388.5" y="-392" font-family="Helvetica,sans-Serif" font-size="10.00">valid_index_from_tuple.hpp</text>
</a>
</g>
</g>
<!-- Node1&#45;&gt;Node22 -->
<g id="edge30_Node000001_Node000022" class="edge">
<title>Node1&#45;&gt;Node22</title>
<g id="a_edge30_Node000001_Node000022"><a xlink:title=" ">
<path fill="none" stroke="#63b8ff" d="M349.09,-439.84C356.56,-431.43 366.06,-420.74 373.87,-411.96"/>
<polygon fill="#63b8ff" stroke="#63b8ff" points="376.68,-414.07 380.71,-404.27 371.45,-409.41 376.68,-414.07"/>
</a>
</g>
</g>
<!-- Node4 -->
<g id="Node000004" class="node">
<title>Node4</title>
<g id="a_Node000004"><a xlink:title=" ">
<polygon fill="#e0e0e0" stroke="#999999" points="229.5,-129 177.5,-129 177.5,-110 229.5,-110 229.5,-129"/>
<text text-anchor="middle" x="203.5" y="-117" font-family="Helvetica,sans-Serif" font-size="10.00">cassert</text>
</a>
</g>
</g>
<!-- Node3&#45;&gt;Node4 -->
<g id="edge3_Node000003_Node000004" class="edge">
<title>Node3&#45;&gt;Node4</title>
<g id="a_edge3_Node000003_Node000004"><a xlink:title=" ">
<path fill="none" stroke="#63b8ff" d="M203.5,-164.75C203.5,-157.8 203.5,-147.85 203.5,-139.13"/>
<polygon fill="#63b8ff" stroke="#63b8ff" points="207,-139.09 203.5,-129.09 200,-139.09 207,-139.09"/>
</a>
</g>
</g>
<!-- Node5 -->
<g id="Node000005" class="node">
<title>Node5</title>
<g id="a_Node000005"><a xlink:title=" ">
<polygon fill="#e0e0e0" stroke="#999999" points="283.5,-19 239.5,-19 239.5,0 283.5,0 283.5,-19"/>
<text text-anchor="middle" x="261.5" y="-7" font-family="Helvetica,sans-Serif" font-size="10.00">string</text>
</a>
</g>
</g>
<!-- Node3&#45;&gt;Node5 -->
<g id="edge4_Node000003_Node000005" class="edge">
<title>Node3&#45;&gt;Node5</title>
<g id="a_edge4_Node000003_Node000005"><a xlink:title=" ">
<path fill="none" stroke="#63b8ff" d="M212.43,-164.82C220.52,-156.42 232.12,-142.94 238.5,-129 253.56,-96.08 258.77,-53.64 260.56,-29.51"/>
<polygon fill="#63b8ff" stroke="#63b8ff" points="264.07,-29.45 261.2,-19.25 257.09,-29.02 264.07,-29.45"/>
</a>
</g>
</g>
<!-- Node6 -->
<g id="Node000006" class="node">
<title>Node6</title>
<g id="a_Node000006"><a xlink:href="_primitive_type_8hpp.html" target="_top" xlink:title=" ">
<polygon fill="white" stroke="#666666" points="217,-74 82,-74 82,-55 217,-55 217,-74"/>
<text text-anchor="middle" x="149.5" y="-62" font-family="Helvetica,sans-Serif" font-size="10.00">wmtk/PrimitiveType.hpp</text>
</a>
</g>
</g>
<!-- Node3&#45;&gt;Node6 -->
<g id="edge5_Node000003_Node000006" class="edge">
<title>Node3&#45;&gt;Node6</title>
<g id="a_edge5_Node000003_Node000006"><a xlink:title=" ">
<path fill="none" stroke="#63b8ff" d="M195.18,-164.99C187.31,-156.51 175.65,-142.78 168.5,-129 161.12,-114.78 156.15,-97.25 153.15,-84.21"/>
<polygon fill="#63b8ff" stroke="#63b8ff" points="156.5,-83.16 151.01,-74.11 149.66,-84.61 156.5,-83.16"/>
</a>
</g>
</g>
<!-- Node9 -->
<g id="Node000009" class="node">
<title>Node9</title>
<g id="a_Node000009"><a xlink:href="_tuple_8hpp.html" target="_top" xlink:title=" ">
<polygon fill="white" stroke="#666666" points="379.5,-129 285.5,-129 285.5,-110 379.5,-110 379.5,-129"/>
<text text-anchor="middle" x="332.5" y="-117" font-family="Helvetica,sans-Serif" font-size="10.00">wmtk/Tuple.hpp</text>
</a>
</g>
</g>
<!-- Node3&#45;&gt;Node9 -->
<g id="edge9_Node000003_Node000009" class="edge">
<title>Node3&#45;&gt;Node9</title>
<g id="a_edge9_Node000003_Node000009"><a xlink:title=" ">
<path fill="none" stroke="#63b8ff" d="M224.23,-164.98C245.26,-156.34 278.05,-142.87 302.04,-133.02"/>
<polygon fill="#63b8ff" stroke="#63b8ff" points="303.48,-136.21 311.4,-129.17 300.82,-129.73 303.48,-136.21"/>
</a>
</g>
</g>
<!-- Node6&#45;&gt;Node2 -->
<g id="edge6_Node000006_Node000002" class="edge">
<title>Node6&#45;&gt;Node2</title>
<g id="a_edge6_Node000006_Node000002"><a xlink:title=" ">
<path fill="none" stroke="#63b8ff" d="M130.7,-54.98C111.88,-46.46 82.68,-33.23 61,-23.41"/>
<polygon fill="#63b8ff" stroke="#63b8ff" points="62.19,-20.11 51.64,-19.17 59.3,-26.48 62.19,-20.11"/>
</a>
</g>
</g>
<!-- Node7 -->
<g id="Node000007" class="node">
<title>Node7</title>
<g id="a_Node000007"><a xlink:title=" ">
<polygon fill="#e0e0e0" stroke="#999999" points="156,-19 83,-19 83,0 156,0 156,-19"/>
<text text-anchor="middle" x="119.5" y="-7" font-family="Helvetica,sans-Serif" font-size="10.00">string_view</text>
</a>
</g>
</g>
<!-- Node6&#45;&gt;Node7 -->
<g id="edge7_Node000006_Node000007" class="edge">
<title>Node6&#45;&gt;Node7</title>
<g id="a_edge7_Node000006_Node000007"><a xlink:title=" ">
<path fill="none" stroke="#63b8ff" d="M144.55,-54.75C140.44,-47.49 134.47,-36.95 129.4,-27.98"/>
<polygon fill="#63b8ff" stroke="#63b8ff" points="132.33,-26.07 124.36,-19.09 126.24,-29.52 132.33,-26.07"/>
</a>
</g>
</g>
<!-- Node8 -->
<g id="Node000008" class="node">
<title>Node8</title>
<g id="a_Node000008"><a xlink:title=" ">
<polygon fill="#e0e0e0" stroke="#999999" points="221,-19 174,-19 174,0 221,0 221,-19"/>
<text text-anchor="middle" x="197.5" y="-7" font-family="Helvetica,sans-Serif" font-size="10.00">vector</text>
</a>
</g>
</g>
<!-- Node6&#45;&gt;Node8 -->
<g id="edge8_Node000006_Node000008" class="edge">
<title>Node6&#45;&gt;Node8</title>
<g id="a_edge8_Node000006_Node000008"><a xlink:title=" ">
<path fill="none" stroke="#63b8ff" d="M157.43,-54.75C164.35,-47.11 174.57,-35.82 182.95,-26.56"/>
<polygon fill="#63b8ff" stroke="#63b8ff" points="185.6,-28.85 189.72,-19.09 180.41,-24.15 185.6,-28.85"/>
</a>
</g>
</g>
<!-- Node9&#45;&gt;Node6 -->
<g id="edge10_Node000009_Node000006" class="edge">
<title>Node9&#45;&gt;Node6</title>
<g id="a_edge10_Node000009_Node000006"><a xlink:title=" ">
<path fill="none" stroke="#63b8ff" d="M303.1,-109.98C272.11,-101.01 223.12,-86.82 188.83,-76.89"/>
<polygon fill="#63b8ff" stroke="#63b8ff" points="189.71,-73.5 179.13,-74.08 187.76,-80.23 189.71,-73.5"/>
</a>
</g>
</g>
<!-- Node10 -->
<g id="Node000010" class="node">
<title>Node10</title>
<g id="a_Node000010"><a xlink:href="_tuple_8hxx.html" target="_top" xlink:title=" ">
<polygon fill="white" stroke="#666666" points="364,-74 301,-74 301,-55 364,-55 364,-74"/>
<text text-anchor="middle" x="332.5" y="-62" font-family="Helvetica,sans-Serif" font-size="10.00">Tuple.hxx</text>
</a>
</g>
</g>
<!-- Node9&#45;&gt;Node10 -->
<g id="edge11_Node000009_Node000010" class="edge">
<title>Node9&#45;&gt;Node10</title>
<g id="a_edge11_Node000009_Node000010"><a xlink:title=" ">
<path fill="none" stroke="#63b8ff" d="M327.33,-109.75C325.84,-102.8 325.4,-92.85 326.02,-84.13"/>
<polygon fill="#63b8ff" stroke="#63b8ff" points="329.51,-84.47 327.37,-74.09 322.57,-83.53 329.51,-84.47"/>
</a>
</g>
</g>
<!-- Node10&#45;&gt;Node5 -->
<g id="edge15_Node000010_Node000005" class="edge">
<title>Node10&#45;&gt;Node5</title>
<g id="a_edge15_Node000010_Node000005"><a xlink:title=" ">
<path fill="none" stroke="#63b8ff" d="M321.09,-54.98C310.39,-47 294.16,-34.88 281.34,-25.31"/>
<polygon fill="#63b8ff" stroke="#63b8ff" points="283.22,-22.35 273.11,-19.17 279.03,-27.96 283.22,-22.35"/>
</a>
</g>
</g>
<!-- Node10&#45;&gt;Node9 -->
<g id="edge17_Node000010_Node000009" class="edge">
<title>Node10&#45;&gt;Node9</title>
<g id="a_edge17_Node000010_Node000009"><a xlink:title=" ">
<path fill="none" stroke="#63b8ff" d="M337.63,-74.09C339.14,-80.99 339.59,-90.93 338.99,-99.66"/>
<polygon fill="#63b8ff" stroke="#63b8ff" points="335.5,-99.38 337.67,-109.75 342.44,-100.29 335.5,-99.38"/>
</a>
</g>
</g>
<!-- Node11 -->
<g id="Node000011" class="node">
<title>Node11</title>
<g id="a_Node000011"><a xlink:title=" ">
<polygon fill="#e0e0e0" stroke="#999999" points="355,-19 302,-19 302,0 355,0 355,-19"/>
<text text-anchor="middle" x="328.5" y="-7" font-family="Helvetica,sans-Serif" font-size="10.00">cstddef</text>
</a>
</g>
</g>
<!-- Node10&#45;&gt;Node11 -->
<g id="edge12_Node000010_Node000011" class="edge">
<title>Node10&#45;&gt;Node11</title>
<g id="a_edge12_Node000010_Node000011"><a xlink:title=" ">
<path fill="none" stroke="#63b8ff" d="M331.84,-54.75C331.32,-47.8 330.56,-37.85 329.91,-29.13"/>
<polygon fill="#63b8ff" stroke="#63b8ff" points="333.39,-28.8 329.15,-19.09 326.41,-29.32 333.39,-28.8"/>
</a>
</g>
</g>
<!-- Node12 -->
<g id="Node000012" class="node">
<title>Node12</title>
<g id="a_Node000012"><a xlink:title=" ">
<polygon fill="#e0e0e0" stroke="#999999" points="433.5,-19 373.5,-19 373.5,0 433.5,0 433.5,-19"/>
<text text-anchor="middle" x="403.5" y="-7" font-family="Helvetica,sans-Serif" font-size="10.00">iostream</text>
</a>
</g>
</g>
<!-- Node10&#45;&gt;Node12 -->
<g id="edge13_Node000010_Node000012" class="edge">
<title>Node10&#45;&gt;Node12</title>
<g id="a_edge13_Node000010_Node000012"><a xlink:title=" ">
<path fill="none" stroke="#63b8ff" d="M343.91,-54.98C354.61,-47 370.84,-34.88 383.66,-25.31"/>
<polygon fill="#63b8ff" stroke="#63b8ff" points="385.97,-27.96 391.89,-19.17 381.78,-22.35 385.97,-27.96"/>
</a>
</g>
</g>
<!-- Node13 -->
<g id="Node000013" class="node">
<title>Node13</title>
<g id="a_Node000013"><a xlink:title=" ">
<polygon fill="#e0e0e0" stroke="#999999" points="507.5,-19 451.5,-19 451.5,0 507.5,0 507.5,-19"/>
<text text-anchor="middle" x="479.5" y="-7" font-family="Helvetica,sans-Serif" font-size="10.00">optional</text>
</a>
</g>
</g>
<!-- Node10&#45;&gt;Node13 -->
<g id="edge14_Node000010_Node000013" class="edge">
<title>Node10&#45;&gt;Node13</title>
<g id="a_edge14_Node000010_Node000013"><a xlink:title=" ">
<path fill="none" stroke="#63b8ff" d="M356.12,-54.98C380.4,-46.23 418.45,-32.51 445.87,-22.62"/>
<polygon fill="#63b8ff" stroke="#63b8ff" points="447.23,-25.85 455.45,-19.17 444.86,-19.27 447.23,-25.85"/>
</a>
</g>
</g>
<!-- Node14 -->
<g id="Node000014" class="node">
<title>Node14</title>
<g id="a_Node000014"><a xlink:title=" ">
<polygon fill="#e0e0e0" stroke="#999999" points="567,-19 526,-19 526,0 567,0 567,-19"/>
<text text-anchor="middle" x="546.5" y="-7" font-family="Helvetica,sans-Serif" font-size="10.00">tuple</text>
</a>
</g>
</g>
<!-- Node10&#45;&gt;Node14 -->
<g id="edge16_Node000010_Node000014" class="edge">
<title>Node10&#45;&gt;Node14</title>
<g id="a_edge16_Node000010_Node000014"><a xlink:title=" ">
<path fill="none" stroke="#63b8ff" d="M364.18,-56.23C398.98,-48.16 456.75,-34.51 515.97,-19.06"/>
<polygon fill="#63b8ff" stroke="#63b8ff" points="517.09,-22.38 525.87,-16.46 515.31,-15.61 517.09,-22.38"/>
</a>
</g>
</g>
<!-- Node16 -->
<g id="Node000016" class="node">
<title>Node16</title>
<g id="a_Node000016"><a xlink:title=" ">
<polygon fill="#e0e0e0" stroke="#999999" points="682.5,-129 632.5,-129 632.5,-110 682.5,-110 682.5,-129"/>
<text text-anchor="middle" x="657.5" y="-117" font-family="Helvetica,sans-Serif" font-size="10.00">cstdint</text>
</a>
</g>
</g>
<!-- Node15&#45;&gt;Node16 -->
<g id="edge19_Node000015_Node000016" class="edge">
<title>Node15&#45;&gt;Node16</title>
<g id="a_edge19_Node000015_Node000016"><a xlink:title=" ">
<path fill="none" stroke="#63b8ff" d="M657.5,-164.75C657.5,-157.8 657.5,-147.85 657.5,-139.13"/>
<polygon fill="#63b8ff" stroke="#63b8ff" points="661,-139.09 657.5,-129.09 654,-139.09 661,-139.09"/>
</a>
</g>
</g>
<!-- Node17&#45;&gt;Node9 -->
<g id="edge22_Node000017_Node000009" class="edge">
<title>Node17&#45;&gt;Node9</title>
<g id="a_edge22_Node000017_Node000009"><a xlink:title=" ">
<path fill="none" stroke="#63b8ff" d="M474.08,-274.93C515.48,-266.5 557.51,-250.29 538.5,-220 506.11,-168.38 438.55,-142.9 389.61,-130.76"/>
<polygon fill="#63b8ff" stroke="#63b8ff" points="390.31,-127.33 379.78,-128.44 388.71,-134.14 390.31,-127.33"/>
</a>
</g>
</g>
<!-- Node18 -->
<g id="Node000018" class="node">
<title>Node18</title>
<g id="a_Node000018"><a xlink:title=" ">
<polygon fill="#e0e0e0" stroke="#999999" points="529.5,-239 487.5,-239 487.5,-220 529.5,-220 529.5,-239"/>
<text text-anchor="middle" x="508.5" y="-227" font-family="Helvetica,sans-Serif" font-size="10.00">array</text>
</a>
</g>
</g>
<!-- Node17&#45;&gt;Node18 -->
<g id="edge21_Node000017_Node000018" class="edge">
<title>Node17&#45;&gt;Node18</title>
<g id="a_edge21_Node000017_Node000018"><a xlink:title=" ">
<path fill="none" stroke="#63b8ff" d="M423.73,-274.98C439.68,-266.61 464.28,-253.7 482.88,-243.95"/>
<polygon fill="#63b8ff" stroke="#63b8ff" points="484.75,-246.92 491.98,-239.17 481.5,-240.72 484.75,-246.92"/>
</a>
</g>
</g>
<!-- Node19 -->
<g id="Node000019" class="node">
<title>Node19</title>
<g id="a_Node000019"><a xlink:href="tri__mesh_2local__id__table__offset_8hxx.html" target="_top" xlink:title=" ">
<polygon fill="white" stroke="#666666" points="469.5,-239 331.5,-239 331.5,-220 469.5,-220 469.5,-239"/>
<text text-anchor="middle" x="400.5" y="-227" font-family="Helvetica,sans-Serif" font-size="10.00">local_id_table_offset.hxx</text>
</a>
</g>
</g>
<!-- Node17&#45;&gt;Node19 -->
<g id="edge23_Node000017_Node000019" class="edge">
<title>Node17&#45;&gt;Node19</title>
<g id="a_edge23_Node000017_Node000019"><a xlink:title=" ">
<path fill="none" stroke="#63b8ff" d="M406.34,-274.75C405.43,-267.8 404.11,-257.85 402.96,-249.13"/>
<polygon fill="#63b8ff" stroke="#63b8ff" points="406.41,-248.54 401.63,-239.09 399.47,-249.46 406.41,-248.54"/>
</a>
</g>
</g>
<!-- Node19&#45;&gt;Node3 -->
<g id="edge24_Node000019_Node000003" class="edge">
<title>Node19&#45;&gt;Node3</title>
<g id="a_edge24_Node000019_Node000003"><a xlink:title=" ">
<path fill="none" stroke="#63b8ff" d="M368.85,-219.98C335.34,-210.97 282.3,-196.7 245.36,-186.76"/>
<polygon fill="#63b8ff" stroke="#63b8ff" points="245.97,-183.3 235.4,-184.08 244.15,-190.06 245.97,-183.3"/>
</a>
</g>
</g>
<!-- Node19&#45;&gt;Node15 -->
<g id="edge25_Node000019_Node000015" class="edge">
<title>Node19&#45;&gt;Node15</title>
<g id="a_edge25_Node000019_Node000015"><a xlink:title=" ">
<path fill="none" stroke="#63b8ff" d="M441.79,-219.98C486.43,-210.78 557.66,-196.09 605.95,-186.13"/>
<polygon fill="#63b8ff" stroke="#63b8ff" points="606.8,-189.53 615.88,-184.08 605.38,-182.67 606.8,-189.53"/>
</a>
</g>
</g>
<!-- Node21 -->
<g id="Node000021" class="node">
<title>Node21</title>
<g id="a_Node000021"><a xlink:href="tri__mesh_2tuple__from__valid__index_8hxx.html" target="_top" xlink:title=" ">
<polygon fill="white" stroke="#666666" points="813.5,-349 661.5,-349 661.5,-330 813.5,-330 813.5,-349"/>
<text text-anchor="middle" x="737.5" y="-337" font-family="Helvetica,sans-Serif" font-size="10.00">tuple_from_valid_index.hxx</text>
</a>
</g>
</g>
<!-- Node20&#45;&gt;Node21 -->
<g id="edge27_Node000020_Node000021" class="edge">
<title>Node20&#45;&gt;Node21</title>
<g id="a_edge27_Node000020_Node000021"><a xlink:title=" ">
<path fill="none" stroke="#63b8ff" d="M732.33,-384.75C730.84,-377.8 730.4,-367.85 731.02,-359.13"/>
<polygon fill="#63b8ff" stroke="#63b8ff" points="734.51,-359.47 732.37,-349.09 727.57,-358.53 734.51,-359.47"/>
</a>
</g>
</g>
<!-- Node21&#45;&gt;Node15 -->
<g id="edge28_Node000021_Node000015" class="edge">
<title>Node21&#45;&gt;Node15</title>
<g id="a_edge28_Node000021_Node000015"><a xlink:title=" ">
<path fill="none" stroke="#63b8ff" d="M733.2,-329.74C720.56,-303.98 683.33,-228.13 666.25,-193.33"/>
<polygon fill="#63b8ff" stroke="#63b8ff" points="669.37,-191.74 661.82,-184.31 663.09,-194.83 669.37,-191.74"/>
</a>
</g>
</g>
<!-- Node21&#45;&gt;Node20 -->
<g id="edge29_Node000021_Node000020" class="edge">
<title>Node21&#45;&gt;Node20</title>
<g id="a_edge29_Node000021_Node000020"><a xlink:title=" ">
<path fill="none" stroke="#63b8ff" d="M742.63,-349.09C744.14,-355.99 744.59,-365.93 743.99,-374.66"/>
<polygon fill="#63b8ff" stroke="#63b8ff" points="740.5,-374.38 742.67,-384.75 747.44,-375.29 740.5,-374.38"/>
</a>
</g>
</g>
<!-- Node22&#45;&gt;Node9 -->
<g id="edge31_Node000022_Node000009" class="edge">
<title>Node22&#45;&gt;Node9</title>
<g id="a_edge31_Node000022_Node000009"><a xlink:title=" ">
<path fill="none" stroke="#63b8ff" d="M365.72,-384.89C350.47,-377.79 331.58,-366.08 322.5,-349 285.27,-278.99 312.21,-179.17 325.86,-138.64"/>
<polygon fill="#63b8ff" stroke="#63b8ff" points="329.21,-139.65 329.22,-129.06 322.61,-137.34 329.21,-139.65"/>
</a>
</g>
</g>
<!-- Node23 -->
<g id="Node000023" class="node">
<title>Node23</title>
<g id="a_Node000023"><a xlink:href="tri__mesh_2valid__index__from__tuple_8hxx.html" target="_top" xlink:title=" ">
<polygon fill="white" stroke="#666666" points="483.5,-349 331.5,-349 331.5,-330 483.5,-330 483.5,-349"/>
<text text-anchor="middle" x="407.5" y="-337" font-family="Helvetica,sans-Serif" font-size="10.00">valid_index_from_tuple.hxx</text>
</a>
</g>
</g>
<!-- Node22&#45;&gt;Node23 -->
<g id="edge32_Node000022_Node000023" class="edge">
<title>Node22&#45;&gt;Node23</title>
<g id="a_edge32_Node000022_Node000023"><a xlink:title=" ">
<path fill="none" stroke="#63b8ff" d="M386.47,-384.75C387.5,-377.57 390.81,-367.18 394.72,-358.27"/>
<polygon fill="#63b8ff" stroke="#63b8ff" points="397.96,-359.6 399.29,-349.09 391.7,-356.48 397.96,-359.6"/>
</a>
</g>
</g>
<!-- Node23&#45;&gt;Node15 -->
<g id="edge33_Node000023_Node000015" class="edge">
<title>Node23&#45;&gt;Node15</title>
<g id="a_edge33_Node000023_Node000015"><a xlink:title=" ">
<path fill="none" stroke="#63b8ff" d="M423.57,-329.85C439.5,-321.16 464.51,-307.19 485.5,-294 541.67,-258.71 605.4,-213.34 637.2,-190.32"/>
<polygon fill="#63b8ff" stroke="#63b8ff" points="639.61,-192.9 645.64,-184.19 635.49,-187.23 639.61,-192.9"/>
</a>
</g>
</g>
<!-- Node23&#45;&gt;Node17 -->
<g id="edge34_Node000023_Node000017" class="edge">
<title>Node23&#45;&gt;Node17</title>
<g id="a_edge34_Node000023_Node000017"><a xlink:title=" ">
<path fill="none" stroke="#63b8ff" d="M407.5,-329.75C407.5,-322.8 407.5,-312.85 407.5,-304.13"/>
<polygon fill="#63b8ff" stroke="#63b8ff" points="411,-304.09 407.5,-294.09 404,-304.09 411,-304.09"/>
</a>
</g>
</g>
<!-- Node23&#45;&gt;Node22 -->
<g id="edge35_Node000023_Node000022" class="edge">
<title>Node23&#45;&gt;Node22</title>
<g id="a_edge35_Node000023_Node000022"><a xlink:title=" ">
<path fill="none" stroke="#63b8ff" d="M409.55,-349.09C408.56,-356.22 405.27,-366.6 401.37,-375.53"/>
<polygon fill="#63b8ff" stroke="#63b8ff" points="398.11,-374.23 396.8,-384.75 404.38,-377.34 398.11,-374.23"/>
</a>
</g>
</g>
</g>
</svg>
