<?xml version="1.0" encoding="UTF-8" standalone="no"?>
<!DOCTYPE svg PUBLIC "-//W3C//DTD SVG 1.1//EN"
 "http://www.w3.org/Graphics/SVG/1.1/DTD/svg11.dtd">
<!-- Generated by graphviz version 2.43.0 (0)
 -->
<!-- Title: src/wmtk/multimesh/utils/tuple_map_attribute_io.hpp Pages: 1 -->
<svg width="1299pt" height="126pt"
 viewBox="0.00 0.00 1299.00 126.00" xmlns="http://www.w3.org/2000/svg" xmlns:xlink="http://www.w3.org/1999/xlink">
<g id="graph0" class="graph" transform="scale(1 1) rotate(0) translate(4 122)">
<title>src/wmtk/multimesh/utils/tuple_map_attribute_io.hpp</title>
<!-- Node1 -->
<g id="Node000001" class="node">
<title>Node1</title>
<g id="a_Node000001"><a xlink:title=" ">
<polygon fill="#999999" stroke="#666666" points="717,-118 574,-118 574,-77 717,-77 717,-118"/>
<text text-anchor="start" x="582" y="-106" font-family="Helvetica,sans-Serif" font-size="10.00">src/wmtk/multimesh</text>
<text text-anchor="start" x="582" y="-95" font-family="Helvetica,sans-Serif" font-size="10.00">/utils/tuple_map_attribute</text>
<text text-anchor="middle" x="645.5" y="-84" font-family="Helvetica,sans-Serif" font-size="10.00">_io.hpp</text>
</a>
</g>
</g>
<!-- Node2 -->
<g id="Node000002" class="node">
<title>Node2</title>
<g id="a_Node000002"><a xlink:href="test__component__isotropic__remeshing_8cpp.html" target="_top" xlink:title=" ">
<polygon fill="white" stroke="#666666" points="125,-41 0,-41 0,0 125,0 125,-41"/>
<text text-anchor="start" x="8" y="-29" font-family="Helvetica,sans-Serif" font-size="10.00">components/tests/test</text>
<text text-anchor="start" x="8" y="-18" font-family="Helvetica,sans-Serif" font-size="10.00">_component_isotropic</text>
<text text-anchor="middle" x="62.5" y="-7" font-family="Helvetica,sans-Serif" font-size="10.00">_remeshing.cpp</text>
</a>
</g>
</g>
<!-- Node1&#45;&gt;Node2 -->
<g id="edge1_Node000001_Node000002" class="edge">
<title>Node1&#45;&gt;Node2</title>
<g id="a_edge1_Node000001_Node000002"><a xlink:title=" ">
<path fill="none" stroke="#63b8ff" d="M563.72,-91.57C462.33,-84.56 284.56,-69.29 134.5,-41 131.45,-40.42 128.33,-39.78 125.19,-39.1"/>
<polygon fill="#63b8ff" stroke="#63b8ff" points="563.67,-95.08 573.89,-92.27 564.15,-88.09 563.67,-95.08"/>
</a>
</g>
</g>
<!-- Node3 -->
<g id="Node000003" class="node">
<title>Node3</title>
<g id="a_Node000003"><a xlink:href="_mesh__attributes_8cpp.html" target="_top" xlink:title=" ">
<polygon fill="white" stroke="#666666" points="307.5,-30 143.5,-30 143.5,-11 307.5,-11 307.5,-30"/>
<text text-anchor="middle" x="225.5" y="-18" font-family="Helvetica,sans-Serif" font-size="10.00">src/wmtk/Mesh_attributes.cpp</text>
</a>
</g>
</g>
<!-- Node1&#45;&gt;Node3 -->
<g id="edge2_Node000001_Node000003" class="edge">
<title>Node1&#45;&gt;Node3</title>
<g id="a_edge2_Node000001_Node000003"><a xlink:title=" ">
<path fill="none" stroke="#63b8ff" d="M563.75,-83.73C497.07,-73.08 400.51,-57.08 316.5,-41 299.04,-37.66 279.79,-33.59 263.5,-30.03"/>
<polygon fill="#63b8ff" stroke="#63b8ff" points="563.35,-87.21 573.78,-85.33 564.45,-80.3 563.35,-87.21"/>
</a>
</g>
</g>
<!-- Node4 -->
<g id="Node000004" class="node">
<title>Node4</title>
<g id="a_Node000004"><a xlink:href="_h_d_f5_reader_8cpp.html" target="_top" xlink:title=" ">
<polygon fill="white" stroke="#666666" points="483.5,-30 325.5,-30 325.5,-11 483.5,-11 483.5,-30"/>
<text text-anchor="middle" x="404.5" y="-18" font-family="Helvetica,sans-Serif" font-size="10.00">src/wmtk/io/HDF5Reader.cpp</text>
</a>
</g>
</g>
<!-- Node1&#45;&gt;Node4 -->
<g id="edge3_Node000001_Node000004" class="edge">
<title>Node1&#45;&gt;Node4</title>
<g id="a_edge3_Node000001_Node000004"><a xlink:title=" ">
<path fill="none" stroke="#63b8ff" d="M573.18,-73.99C525.69,-59.21 466.24,-40.71 432.1,-30.09"/>
<polygon fill="#63b8ff" stroke="#63b8ff" points="572.22,-77.36 582.81,-76.99 574.3,-70.68 572.22,-77.36"/>
</a>
</g>
</g>
<!-- Node5 -->
<g id="Node000005" class="node">
<title>Node5</title>
<g id="a_Node000005"><a xlink:href="_multi_mesh_manager_8cpp.html" target="_top" xlink:title=" ">
<polygon fill="white" stroke="#666666" points="635,-35.5 502,-35.5 502,-5.5 635,-5.5 635,-35.5"/>
<text text-anchor="start" x="510" y="-23.5" font-family="Helvetica,sans-Serif" font-size="10.00">src/wmtk/multimesh</text>
<text text-anchor="middle" x="568.5" y="-12.5" font-family="Helvetica,sans-Serif" font-size="10.00">/MultiMeshManager.cpp</text>
</a>
</g>
</g>
<!-- Node1&#45;&gt;Node5 -->
<g id="edge4_Node000001_Node000005" class="edge">
<title>Node1&#45;&gt;Node5</title>
<g id="a_edge4_Node000001_Node000005"><a xlink:title=" ">
<path fill="none" stroke="#63b8ff" d="M617.85,-69.57C606.16,-58.18 593.02,-45.39 583.24,-35.86"/>
<polygon fill="#63b8ff" stroke="#63b8ff" points="615.66,-72.32 625.27,-76.79 620.55,-67.31 615.66,-72.32"/>
</a>
</g>
</g>
<!-- Node6 -->
<g id="Node000006" class="node">
<title>Node6</title>
<g id="a_Node000006"><a xlink:href="_multi_mesh_manager__map__updates_8cpp.html" target="_top" xlink:title=" ">
<polygon fill="white" stroke="#666666" points="793.5,-41 653.5,-41 653.5,0 793.5,0 793.5,-41"/>
<text text-anchor="start" x="661.5" y="-29" font-family="Helvetica,sans-Serif" font-size="10.00">src/wmtk/multimesh</text>
<text text-anchor="start" x="661.5" y="-18" font-family="Helvetica,sans-Serif" font-size="10.00">/MultiMeshManager_map</text>
<text text-anchor="middle" x="723.5" y="-7" font-family="Helvetica,sans-Serif" font-size="10.00">_updates.cpp</text>
</a>
</g>
</g>
<!-- Node1&#45;&gt;Node6 -->
<g id="edge5_Node000001_Node000006" class="edge">
<title>Node1&#45;&gt;Node6</title>
<g id="a_edge5_Node000001_Node000006"><a xlink:title=" ">
<path fill="none" stroke="#63b8ff" d="M673.28,-69.79C683.13,-60.32 694.03,-49.84 703.14,-41.07"/>
<polygon fill="#63b8ff" stroke="#63b8ff" points="670.78,-67.34 665.99,-76.79 675.63,-72.39 670.78,-67.34"/>
</a>
</g>
</g>
<!-- Node7 -->
<g id="Node000007" class="node">
<title>Node7</title>
<g id="a_Node000007"><a xlink:href="check__map__valid_8cpp.html" target="_top" xlink:title=" ">
<polygon fill="white" stroke="#666666" points="961,-35.5 812,-35.5 812,-5.5 961,-5.5 961,-35.5"/>
<text text-anchor="start" x="820" y="-23.5" font-family="Helvetica,sans-Serif" font-size="10.00">src/wmtk/multimesh</text>
<text text-anchor="middle" x="886.5" y="-12.5" font-family="Helvetica,sans-Serif" font-size="10.00">/utils/check_map_valid.cpp</text>
</a>
</g>
</g>
<!-- Node1&#45;&gt;Node7 -->
<g id="edge6_Node000001_Node000007" class="edge">
<title>Node1&#45;&gt;Node7</title>
<g id="a_edge6_Node000001_Node000007"><a xlink:title=" ">
<path fill="none" stroke="#63b8ff" d="M717.92,-73.96C757.99,-61.49 806.56,-46.38 841.25,-35.58"/>
<polygon fill="#63b8ff" stroke="#63b8ff" points="716.7,-70.68 708.19,-76.99 718.78,-77.36 716.7,-70.68"/>
</a>
</g>
</g>
<!-- Node8 -->
<g id="Node000008" class="node">
<title>Node8</title>
<g id="a_Node000008"><a xlink:href="tuple__map__attribute__io_8cpp.html" target="_top" xlink:title=" ">
<polygon fill="white" stroke="#666666" points="1122,-41 979,-41 979,0 1122,0 1122,-41"/>
<text text-anchor="start" x="987" y="-29" font-family="Helvetica,sans-Serif" font-size="10.00">src/wmtk/multimesh</text>
<text text-anchor="start" x="987" y="-18" font-family="Helvetica,sans-Serif" font-size="10.00">/utils/tuple_map_attribute</text>
<text text-anchor="middle" x="1050.5" y="-7" font-family="Helvetica,sans-Serif" font-size="10.00">_io.cpp</text>
</a>
</g>
</g>
<!-- Node1&#45;&gt;Node8 -->
<g id="edge7_Node000001_Node000008" class="edge">
<title>Node1&#45;&gt;Node8</title>
<g id="a_edge7_Node000001_Node000008"><a xlink:title=" ">
<path fill="none" stroke="#63b8ff" d="M727.01,-84.2C792.92,-73.87 887.99,-58.08 970.5,-41 973.16,-40.45 975.87,-39.87 978.6,-39.28"/>
<polygon fill="#63b8ff" stroke="#63b8ff" points="726.44,-80.75 717.1,-85.75 727.52,-87.66 726.44,-80.75"/>
</a>
</g>
</g>
<!-- Node9 -->
<g id="Node000009" class="node">
<title>Node9</title>
<g id="a_Node000009"><a xlink:href="_update_edge_operation_multi_mesh_map_functor_8cpp.html" target="_top" xlink:title=" ">
<polygon fill="white" stroke="#666666" points="1291,-41 1140,-41 1140,0 1291,0 1291,-41"/>
<text text-anchor="start" x="1148" y="-29" font-family="Helvetica,sans-Serif" font-size="10.00">src/wmtk/operations</text>
<text text-anchor="start" x="1148" y="-18" font-family="Helvetica,sans-Serif" font-size="10.00">/utils/UpdateEdgeOperation</text>
<text text-anchor="middle" x="1215.5" y="-7" font-family="Helvetica,sans-Serif" font-size="10.00">MultiMeshMapFunctor.cpp</text>
</a>
</g>
</g>
<!-- Node1&#45;&gt;Node9 -->
<g id="edge8_Node000001_Node000009" class="edge">
<title>Node1&#45;&gt;Node9</title>
<g id="a_edge8_Node000001_Node000009"><a xlink:title=" ">
<path fill="none" stroke="#63b8ff" d="M727.12,-90.05C824.01,-81.73 990.26,-65.38 1131.5,-41 1134.16,-40.54 1136.85,-40.05 1139.57,-39.54"/>
<polygon fill="#63b8ff" stroke="#63b8ff" points="726.77,-86.57 717.1,-90.9 727.36,-93.54 726.77,-86.57"/>
</a>
</g>
</g>
</g>
</svg>
