<?xml version="1.0" encoding="UTF-8" standalone="no"?>
<!DOCTYPE svg PUBLIC "-//W3C//DTD SVG 1.1//EN"
 "http://www.w3.org/Graphics/SVG/1.1/DTD/svg11.dtd">
<!-- Generated by graphviz version 2.43.0 (0)
 -->
<!-- Title: src/wmtk/function/utils/amips.hpp Pages: 1 -->
<!--zoomable 126 -->

<svg id="main" version="1.1" xmlns="http://www.w3.org/2000/svg" xmlns:xlink="http://www.w3.org/1999/xlink" xml:space="preserve" onload="init(evt)">
<style type="text/css"><![CDATA[
.node, .edge {opacity: 0.7;}
.node.selected, .edge.selected {opacity: 1;}
.edge:hover path { stroke: red; }
.edge:hover polygon { stroke: red; fill: red; }
]]></style>

<defs>
  <circle id="rim" cx="0" cy="0" r="7"/>
  <circle id="rim2" cx="0" cy="0" r="3.5"/>
  <g id="zoomPlus">
    <use xlink:href="#rim" fill="#404040"><set attributeName="fill" to="#808080" begin="zoomplus.mouseover" end="zoomplus.mouseout"/></use>
    <path d="M-4,0h8M0,-4v8" fill="none" stroke="white" stroke-width="1.5" pointer-events="none"/>
  </g>
  <g id="zoomMin">
    <use xlink:href="#rim" fill="#404040"><set attributeName="fill" to="#808080" begin="zoomminus.mouseover" end="zoomminus.mouseout"/></use>
    <path d="M-4,0h8" fill="none" stroke="white" stroke-width="1.5" pointer-events="none"/>
  </g>
  <g id="arrowUp" transform="translate(30 24)">
    <use xlink:href="#rim"/>
    <path pointer-events="none" fill="none" stroke="white" stroke-width="1.5" d="M0,-3.0v7 M-2.5,-0.5L0,-3.0L2.5,-0.5"/>
  </g>
  <g id="arrowRight" transform="rotate(90) translate(36 -43)">
    <use xlink:href="#rim"/>
    <path pointer-events="none" fill="none" stroke="white" stroke-width="1.5" d="M0,-3.0v7 M-2.5,-0.5L0,-3.0L2.5,-0.5"/>
  </g>
  <g id="arrowDown" transform="rotate(180) translate(-30 -48)">
    <use xlink:href="#rim"/>
    <path pointer-events="none" fill="none" stroke="white" stroke-width="1.5" d="M0,-3.0v7 M-2.5,-0.5L0,-3.0L2.5,-0.5"/>
  </g>
  <g id="arrowLeft" transform="rotate(270) translate(-36 17)">
    <use xlink:href="#rim"/>
    <path pointer-events="none" fill="none" stroke="white" stroke-width="1.5" d="M0,-3.0v7 M-2.5,-0.5L0,-3.0L2.5,-0.5"/>
  </g>
  <g id="resetDef">
    <use xlink:href="#rim2" fill="#404040"><set attributeName="fill" to="#808080" begin="reset.mouseover" end="reset.mouseout"/></use>
  </g>
</defs>
<script type="application/ecmascript">
var viewWidth = 3044;
var viewHeight = 126;
var sectionId = 'dynsection-1';
</script>
<script type="application/ecmascript" xlink:href="svg.min.js"/>
<svg id="graph" class="graph">
<g id="viewport">
<title>src/wmtk/function/utils/amips.hpp</title>
<!-- Node1 -->
<g id="Node000001" class="node">
<title>Node1</title>
<g id="a_Node000001"><a xlink:title=" ">
<polygon fill="#999999" stroke="#666666" points="1508.5,-118 1380.5,-118 1380.5,-88 1508.5,-88 1508.5,-118"/>
<text text-anchor="start" x="1388.5" y="-106" font-family="Helvetica,sans-Serif" font-size="10.00">src/wmtk/function/utils</text>
<text text-anchor="middle" x="1444.5" y="-95" font-family="Helvetica,sans-Serif" font-size="10.00">/amips.hpp</text>
</a>
</g>
</g>
<!-- Node2 -->
<g id="Node000002" class="node">
<title>Node2</title>
<g id="a_Node000002"><a xlink:href="internal_2periodic__optimization_8cpp.html" target="_top" xlink:title=" ">
<polygon fill="white" stroke="#666666" points="177,-52 0,-52 0,0 177,0 177,-52"/>
<text text-anchor="start" x="8" y="-40" font-family="Helvetica,sans-Serif" font-size="10.00">components/periodic</text>
<text text-anchor="start" x="8" y="-29" font-family="Helvetica,sans-Serif" font-size="10.00">_optimization/wmtk/components</text>
<text text-anchor="start" x="8" y="-18" font-family="Helvetica,sans-Serif" font-size="10.00">/periodic_optimization/internal</text>
<text text-anchor="middle" x="88.5" y="-7" font-family="Helvetica,sans-Serif" font-size="10.00">/periodic_optimization.cpp</text>
</a>
</g>
</g>
<!-- Node1&#45;&gt;Node2 -->
<g id="edge1_Node000001_Node000002" class="edge">
<title>Node1&#45;&gt;Node2</title>
<g id="a_edge1_Node000001_Node000002"><a xlink:title=" ">
<path fill="none" stroke="#63b8ff" d="M1370.12,-101.09C1136.15,-97.92 417.07,-85.61 186.5,-52 183.37,-51.54 180.2,-51.03 177.01,-50.46"/>
<polygon fill="#63b8ff" stroke="#63b8ff" points="1370.18,-104.59 1380.23,-101.23 1370.28,-97.59 1370.18,-104.59"/>
</a>
</g>
</g>
<!-- Node3 -->
<g id="Node000003" class="node">
<title>Node3</title>
<g id="a_Node000003"><a xlink:href="test__component__wildmeshing_8cpp.html" target="_top" xlink:title=" ">
<polygon fill="white" stroke="#666666" points="359.5,-41 195.5,-41 195.5,-11 359.5,-11 359.5,-41"/>
<text text-anchor="start" x="203.5" y="-29" font-family="Helvetica,sans-Serif" font-size="10.00">components/tests/test</text>
<text text-anchor="middle" x="277.5" y="-18" font-family="Helvetica,sans-Serif" font-size="10.00">_component_wildmeshing.cpp</text>
</a>
</g>
</g>
<!-- Node1&#45;&gt;Node3 -->
<g id="edge2_Node000001_Node000003" class="edge">
<title>Node1&#45;&gt;Node3</title>
<g id="a_edge2_Node000001_Node000003"><a xlink:title=" ">
<path fill="none" stroke="#63b8ff" d="M1370.25,-100.69C1159.78,-96.64 562.03,-82.69 368.5,-52 352.8,-49.51 335.94,-45.32 321.04,-41.07"/>
<polygon fill="#63b8ff" stroke="#63b8ff" points="1370.21,-104.19 1380.27,-100.88 1370.34,-97.19 1370.21,-104.19"/>
</a>
</g>
</g>
<!-- Node4 -->
<g id="Node000004" class="node">
<title>Node4</title>
<g id="a_Node000004"><a xlink:href="wildmeshing_8cpp.html" target="_top" xlink:title=" ">
<polygon fill="white" stroke="#666666" points="553.5,-46.5 377.5,-46.5 377.5,-5.5 553.5,-5.5 553.5,-46.5"/>
<text text-anchor="start" x="385.5" y="-34.5" font-family="Helvetica,sans-Serif" font-size="10.00">components/wildmeshing</text>
<text text-anchor="start" x="385.5" y="-23.5" font-family="Helvetica,sans-Serif" font-size="10.00">/wmtk/components/wildmeshing</text>
<text text-anchor="middle" x="465.5" y="-12.5" font-family="Helvetica,sans-Serif" font-size="10.00">/wildmeshing.cpp</text>
</a>
</g>
</g>
<!-- Node1&#45;&gt;Node4 -->
<g id="edge3_Node000001_Node000004" class="edge">
<title>Node1&#45;&gt;Node4</title>
<g id="a_edge3_Node000001_Node000004"><a xlink:title=" ">
<path fill="none" stroke="#63b8ff" d="M1370.23,-102.67C1217.84,-102.97 859.15,-98.18 562.5,-52 553.39,-50.58 543.9,-48.68 534.57,-46.55"/>
<polygon fill="#63b8ff" stroke="#63b8ff" points="1370.42,-106.17 1380.41,-102.64 1370.4,-99.17 1370.42,-106.17"/>
</a>
</g>
</g>
<!-- Node5 -->
<g id="Node000005" class="node">
<title>Node5</title>
<g id="a_Node000005"><a xlink:href="_position_map_a_m_i_p_s2_d_8cpp.html" target="_top" xlink:title=" ">
<polygon fill="white" stroke="#666666" points="717.5,-41 571.5,-41 571.5,-11 717.5,-11 717.5,-41"/>
<text text-anchor="start" x="579.5" y="-29" font-family="Helvetica,sans-Serif" font-size="10.00">src/wmtk/function/simplex</text>
<text text-anchor="middle" x="644.5" y="-18" font-family="Helvetica,sans-Serif" font-size="10.00">/PositionMapAMIPS2D.cpp</text>
</a>
</g>
</g>
<!-- Node1&#45;&gt;Node5 -->
<g id="edge4_Node000001_Node000005" class="edge">
<title>Node1&#45;&gt;Node5</title>
<g id="a_edge4_Node000001_Node000005"><a xlink:title=" ">
<path fill="none" stroke="#63b8ff" d="M1369.68,-102.33C1238.35,-101.69 958.29,-94.83 726.5,-52 712.45,-49.4 697.41,-45.24 684.09,-41.05"/>
<polygon fill="#63b8ff" stroke="#63b8ff" points="1370,-105.83 1380.01,-102.37 1370.03,-98.83 1370,-105.83"/>
</a>
</g>
</g>
<!-- Node6 -->
<g id="Node000006" class="node">
<title>Node6</title>
<g id="a_Node000006"><a xlink:href="_triangle_a_m_i_p_s_8cpp.html" target="_top" xlink:title=" ">
<polygon fill="white" stroke="#666666" points="881.5,-41 735.5,-41 735.5,-11 881.5,-11 881.5,-41"/>
<text text-anchor="start" x="743.5" y="-29" font-family="Helvetica,sans-Serif" font-size="10.00">src/wmtk/function/simplex</text>
<text text-anchor="middle" x="808.5" y="-18" font-family="Helvetica,sans-Serif" font-size="10.00">/TriangleAMIPS.cpp</text>
</a>
</g>
</g>
<!-- Node1&#45;&gt;Node6 -->
<g id="edge5_Node000001_Node000006" class="edge">
<title>Node1&#45;&gt;Node6</title>
<g id="a_edge5_Node000001_Node000006"><a xlink:title=" ">
<path fill="none" stroke="#63b8ff" d="M1370.29,-100.15C1263.36,-96.38 1060.13,-85.15 890.5,-52 876.62,-49.29 861.75,-45.15 848.54,-41.01"/>
<polygon fill="#63b8ff" stroke="#63b8ff" points="1370.22,-103.65 1380.34,-100.49 1370.46,-96.65 1370.22,-103.65"/>
</a>
</g>
</g>
<!-- Node7 -->
<g id="Node000007" class="node">
<title>Node7</title>
<g id="a_Node000007"><a xlink:href="utils_2_a_m_i_p_s_8cpp.html" target="_top" xlink:title=" ">
<polygon fill="white" stroke="#666666" points="1027.5,-41 899.5,-41 899.5,-11 1027.5,-11 1027.5,-41"/>
<text text-anchor="start" x="907.5" y="-29" font-family="Helvetica,sans-Serif" font-size="10.00">src/wmtk/function/utils</text>
<text text-anchor="middle" x="963.5" y="-18" font-family="Helvetica,sans-Serif" font-size="10.00">/amips.cpp</text>
</a>
</g>
</g>
<!-- Node1&#45;&gt;Node7 -->
<g id="edge6_Node000001_Node000007" class="edge">
<title>Node1&#45;&gt;Node7</title>
<g id="a_edge6_Node000001_Node000007"><a xlink:title=" ">
<path fill="none" stroke="#63b8ff" d="M1370.16,-97.55C1287.76,-91.54 1151.34,-78.4 1036.5,-52 1024.36,-49.21 1011.4,-45.15 999.83,-41.1"/>
<polygon fill="#63b8ff" stroke="#63b8ff" points="1369.96,-101.04 1380.18,-98.26 1370.46,-94.06 1369.96,-101.04"/>
</a>
</g>
</g>
<!-- Node8 -->
<g id="Node000008" class="node">
<title>Node8</title>
<g id="a_Node000008"><a xlink:href="_collapse_energy_before_invariant_8cpp.html" target="_top" xlink:title=" ">
<polygon fill="white" stroke="#666666" points="1237,-41 1046,-41 1046,-11 1237,-11 1237,-41"/>
<text text-anchor="start" x="1054" y="-29" font-family="Helvetica,sans-Serif" font-size="10.00">src/wmtk/invariants</text>
<text text-anchor="middle" x="1141.5" y="-18" font-family="Helvetica,sans-Serif" font-size="10.00">/CollapseEnergyBeforeInvariant.cpp</text>
</a>
</g>
</g>
<!-- Node1&#45;&gt;Node8 -->
<g id="edge7_Node000001_Node000008" class="edge">
<title>Node1&#45;&gt;Node8</title>
<g id="a_edge7_Node000001_Node000008"><a xlink:title=" ">
<path fill="none" stroke="#63b8ff" d="M1378.07,-85.56C1324.21,-72.23 1249.14,-53.64 1198.12,-41.01"/>
<polygon fill="#63b8ff" stroke="#63b8ff" points="1377.32,-88.98 1387.86,-87.98 1379,-82.18 1377.32,-88.98"/>
</a>
</g>
</g>
<!-- Node9 -->
<g id="Node000009" class="node">
<title>Node9</title>
<g id="a_Node000009"><a xlink:href="_collapse_energy_before_invariant_double_8cpp.html" target="_top" xlink:title=" ">
<polygon fill="white" stroke="#666666" points="1426,-46.5 1255,-46.5 1255,-5.5 1426,-5.5 1426,-46.5"/>
<text text-anchor="start" x="1263" y="-34.5" font-family="Helvetica,sans-Serif" font-size="10.00">src/wmtk/invariants</text>
<text text-anchor="start" x="1263" y="-23.5" font-family="Helvetica,sans-Serif" font-size="10.00">/CollapseEnergyBeforeInvariant</text>
<text text-anchor="middle" x="1340.5" y="-12.5" font-family="Helvetica,sans-Serif" font-size="10.00">Double.cpp</text>
</a>
</g>
</g>
<!-- Node1&#45;&gt;Node9 -->
<g id="edge8_Node000001_Node000009" class="edge">
<title>Node1&#45;&gt;Node9</title>
<g id="a_edge8_Node000001_Node000009"><a xlink:title=" ">
<path fill="none" stroke="#63b8ff" d="M1416.5,-81.81C1401.39,-70.91 1382.82,-57.52 1367.82,-46.7"/>
<polygon fill="#63b8ff" stroke="#63b8ff" points="1414.78,-84.88 1424.94,-87.89 1418.87,-79.21 1414.78,-84.88"/>
</a>
</g>
</g>
<!-- Node10 -->
<g id="Node000010" class="node">
<title>Node10</title>
<g id="a_Node000010"><a xlink:href="_collapse_soft_energy_before_invariant_8cpp.html" target="_top" xlink:title=" ">
<polygon fill="white" stroke="#666666" points="1654.5,-41 1444.5,-41 1444.5,-11 1654.5,-11 1654.5,-41"/>
<text text-anchor="start" x="1452.5" y="-29" font-family="Helvetica,sans-Serif" font-size="10.00">src/wmtk/invariants</text>
<text text-anchor="middle" x="1549.5" y="-18" font-family="Helvetica,sans-Serif" font-size="10.00">/CollapseSoftEnergyBeforeInvariant.cpp</text>
</a>
</g>
</g>
<!-- Node1&#45;&gt;Node10 -->
<g id="edge9_Node000001_Node000010" class="edge">
<title>Node1&#45;&gt;Node10</title>
<g id="a_edge9_Node000001_Node000010"><a xlink:title=" ">
<path fill="none" stroke="#63b8ff" d="M1472.67,-81.88C1490.73,-68.98 1513.73,-52.55 1529.84,-41.04"/>
<polygon fill="#63b8ff" stroke="#63b8ff" points="1470.35,-79.23 1464.25,-87.89 1474.42,-84.93 1470.35,-79.23"/>
</a>
</g>
</g>
<!-- Node11 -->
<g id="Node000011" class="node">
<title>Node11</title>
<g id="a_Node000011"><a xlink:href="_swap23_energy_before_invariant_8cpp.html" target="_top" xlink:title=" ">
<polygon fill="white" stroke="#666666" points="1860.5,-41 1672.5,-41 1672.5,-11 1860.5,-11 1860.5,-41"/>
<text text-anchor="start" x="1680.5" y="-29" font-family="Helvetica,sans-Serif" font-size="10.00">src/wmtk/invariants</text>
<text text-anchor="middle" x="1766.5" y="-18" font-family="Helvetica,sans-Serif" font-size="10.00">/Swap23EnergyBeforeInvariant.cpp</text>
</a>
</g>
</g>
<!-- Node1&#45;&gt;Node11 -->
<g id="edge10_Node000001_Node000011" class="edge">
<title>Node1&#45;&gt;Node11</title>
<g id="a_edge10_Node000001_Node000011"><a xlink:title=" ">
<path fill="none" stroke="#63b8ff" d="M1517.34,-85.63C1559.97,-75.99 1614.83,-63.46 1663.5,-52 1678.37,-48.5 1694.42,-44.64 1709.33,-41.02"/>
<polygon fill="#63b8ff" stroke="#63b8ff" points="1516.31,-82.28 1507.33,-87.89 1517.85,-89.1 1516.31,-82.28"/>
</a>
</g>
</g>
<!-- Node12 -->
<g id="Node000012" class="node">
<title>Node12</title>
<g id="a_Node000012"><a xlink:href="_swap32_energy_before_invariant_8cpp.html" target="_top" xlink:title=" ">
<polygon fill="white" stroke="#666666" points="2066.5,-41 1878.5,-41 1878.5,-11 2066.5,-11 2066.5,-41"/>
<text text-anchor="start" x="1886.5" y="-29" font-family="Helvetica,sans-Serif" font-size="10.00">src/wmtk/invariants</text>
<text text-anchor="middle" x="1972.5" y="-18" font-family="Helvetica,sans-Serif" font-size="10.00">/Swap32EnergyBeforeInvariant.cpp</text>
</a>
</g>
</g>
<!-- Node1&#45;&gt;Node12 -->
<g id="edge11_Node000001_Node000012" class="edge">
<title>Node1&#45;&gt;Node12</title>
<g id="a_edge11_Node000001_Node000012"><a xlink:title=" ">
<path fill="none" stroke="#63b8ff" d="M1518.66,-96.02C1603.79,-88.51 1747.41,-73.92 1869.5,-52 1886.07,-49.03 1903.96,-44.98 1920.1,-41.02"/>
<polygon fill="#63b8ff" stroke="#63b8ff" points="1518.24,-92.54 1508.58,-96.9 1518.84,-99.51 1518.24,-92.54"/>
</a>
</g>
</g>
<!-- Node13 -->
<g id="Node000013" class="node">
<title>Node13</title>
<g id="a_Node000013"><a xlink:href="_swap32_energy_before_invariant_double_8cpp.html" target="_top" xlink:title=" ">
<polygon fill="white" stroke="#666666" points="2252,-46.5 2085,-46.5 2085,-5.5 2252,-5.5 2252,-46.5"/>
<text text-anchor="start" x="2093" y="-34.5" font-family="Helvetica,sans-Serif" font-size="10.00">src/wmtk/invariants</text>
<text text-anchor="start" x="2093" y="-23.5" font-family="Helvetica,sans-Serif" font-size="10.00">/Swap32EnergyBeforeInvariant</text>
<text text-anchor="middle" x="2168.5" y="-12.5" font-family="Helvetica,sans-Serif" font-size="10.00">Double.cpp</text>
</a>
</g>
</g>
<!-- Node1&#45;&gt;Node13 -->
<g id="edge12_Node000001_Node000013" class="edge">
<title>Node1&#45;&gt;Node13</title>
<g id="a_edge12_Node000001_Node000013"><a xlink:title=" ">
<path fill="none" stroke="#63b8ff" d="M1518.62,-100.52C1637.1,-97.18 1876.1,-86.4 2075.5,-52 2084.07,-50.52 2092.99,-48.61 2101.77,-46.51"/>
<polygon fill="#63b8ff" stroke="#63b8ff" points="1518.47,-97.03 1508.57,-100.8 1518.66,-104.02 1518.47,-97.03"/>
</a>
</g>
</g>
<!-- Node14 -->
<g id="Node000014" class="node">
<title>Node14</title>
<g id="a_Node000014"><a xlink:href="_swap44_energy_before_invariant_8cpp.html" target="_top" xlink:title=" ">
<polygon fill="white" stroke="#666666" points="2458.5,-41 2270.5,-41 2270.5,-11 2458.5,-11 2458.5,-41"/>
<text text-anchor="start" x="2278.5" y="-29" font-family="Helvetica,sans-Serif" font-size="10.00">src/wmtk/invariants</text>
<text text-anchor="middle" x="2364.5" y="-18" font-family="Helvetica,sans-Serif" font-size="10.00">/Swap44EnergyBeforeInvariant.cpp</text>
</a>
</g>
</g>
<!-- Node1&#45;&gt;Node14 -->
<g id="edge13_Node000001_Node000014" class="edge">
<title>Node1&#45;&gt;Node14</title>
<g id="a_edge13_Node000001_Node000014"><a xlink:title=" ">
<path fill="none" stroke="#63b8ff" d="M1518.78,-101.84C1662.85,-100.56 1989.97,-92.93 2261.5,-52 2278.97,-49.37 2297.82,-45.19 2314.56,-41"/>
<polygon fill="#63b8ff" stroke="#63b8ff" points="1518.7,-98.34 1508.73,-101.92 1518.75,-105.34 1518.7,-98.34"/>
</a>
</g>
</g>
<!-- Node15 -->
<g id="Node000015" class="node">
<title>Node15</title>
<g id="a_Node000015"><a xlink:href="_swap44_energy_before_invariant_double_8cpp.html" target="_top" xlink:title=" ">
<polygon fill="white" stroke="#666666" points="2644,-46.5 2477,-46.5 2477,-5.5 2644,-5.5 2644,-46.5"/>
<text text-anchor="start" x="2485" y="-34.5" font-family="Helvetica,sans-Serif" font-size="10.00">src/wmtk/invariants</text>
<text text-anchor="start" x="2485" y="-23.5" font-family="Helvetica,sans-Serif" font-size="10.00">/Swap44EnergyBeforeInvariant</text>
<text text-anchor="middle" x="2560.5" y="-12.5" font-family="Helvetica,sans-Serif" font-size="10.00">Double.cpp</text>
</a>
</g>
</g>
<!-- Node1&#45;&gt;Node15 -->
<g id="edge14_Node000001_Node000015" class="edge">
<title>Node1&#45;&gt;Node15</title>
<g id="a_edge14_Node000001_Node000015"><a xlink:title=" ">
<path fill="none" stroke="#63b8ff" d="M1518.89,-100.43C1722.28,-95.8 2284.59,-80.72 2467.5,-52 2476.42,-50.6 2485.71,-48.68 2494.83,-46.52"/>
<polygon fill="#63b8ff" stroke="#63b8ff" points="1518.53,-96.93 1508.61,-100.66 1518.69,-103.93 1518.53,-96.93"/>
</a>
</g>
</g>
<!-- Node16 -->
<g id="Node000016" class="node">
<title>Node16</title>
<g id="a_Node000016"><a xlink:href="_swap56_energy_before_invariant_8cpp.html" target="_top" xlink:title=" ">
<polygon fill="white" stroke="#666666" points="2850.5,-41 2662.5,-41 2662.5,-11 2850.5,-11 2850.5,-41"/>
<text text-anchor="start" x="2670.5" y="-29" font-family="Helvetica,sans-Serif" font-size="10.00">src/wmtk/invariants</text>
<text text-anchor="middle" x="2756.5" y="-18" font-family="Helvetica,sans-Serif" font-size="10.00">/Swap56EnergyBeforeInvariant.cpp</text>
</a>
</g>
</g>
<!-- Node1&#45;&gt;Node16 -->
<g id="edge15_Node000001_Node000016" class="edge">
<title>Node1&#45;&gt;Node16</title>
<g id="a_edge15_Node000001_Node000016"><a xlink:title=" ">
<path fill="none" stroke="#63b8ff" d="M1519.06,-100.84C1747.04,-96.98 2432.74,-83.05 2653.5,-52 2671.27,-49.5 2690.44,-45.28 2707.37,-41.01"/>
<polygon fill="#63b8ff" stroke="#63b8ff" points="1518.81,-97.34 1508.87,-101.01 1518.93,-104.34 1518.81,-97.34"/>
</a>
</g>
</g>
<!-- Node17 -->
<g id="Node000017" class="node">
<title>Node17</title>
<g id="a_Node000017"><a xlink:href="_swap56_energy_before_invariant_double_8cpp.html" target="_top" xlink:title=" ">
<polygon fill="white" stroke="#666666" points="3036,-46.5 2869,-46.5 2869,-5.5 3036,-5.5 3036,-46.5"/>
<text text-anchor="start" x="2877" y="-34.5" font-family="Helvetica,sans-Serif" font-size="10.00">src/wmtk/invariants</text>
<text text-anchor="start" x="2877" y="-23.5" font-family="Helvetica,sans-Serif" font-size="10.00">/Swap56EnergyBeforeInvariant</text>
<text text-anchor="middle" x="2952.5" y="-12.5" font-family="Helvetica,sans-Serif" font-size="10.00">Double.cpp</text>
</a>
</g>
</g>
<!-- Node1&#45;&gt;Node17 -->
<g id="edge16_Node000001_Node000017" class="edge">
<title>Node1&#45;&gt;Node17</title>
<g id="a_edge16_Node000001_Node000017"><a xlink:title=" ">
<path fill="none" stroke="#63b8ff" d="M1518.96,-101.6C1771.94,-99.89 2597.25,-91.36 2859.5,-52 2868.59,-50.64 2878.07,-48.7 2887.35,-46.51"/>
<polygon fill="#63b8ff" stroke="#63b8ff" points="1518.75,-98.1 1508.77,-101.67 1518.79,-105.1 1518.75,-98.1"/>
</a>
</g>
</g>
</g>
</svg>

<g id="navigator" transform="translate(0 0)" fill="#404254">
  <rect fill="#f2f5e9" fill-opacity="0.5" stroke="#606060" stroke-width=".5" x="0" y="0" width="60" height="60"/>
  <use id="zoomplus" xlink:href="#zoomPlus" x="17" y="9" onmousedown="handleZoom(evt,'in')"/>
  <use id="zoomminus" xlink:href="#zoomMin" x="42" y="9" onmousedown="handleZoom(evt,'out')"/>
  <use id="reset" xlink:href="#resetDef" x="30" y="36" onmousedown="handleReset()"/>
   <use id="arrowup" xlink:href="#arrowUp" x="0" y="0" onmousedown="handlePan(0,-1)"/>
  <use id="arrowright" xlink:href="#arrowRight" x="0" y="0" onmousedown="handlePan(1,0)"/>
  <use id="arrowdown" xlink:href="#arrowDown" x="0" y="0" onmousedown="handlePan(0,1)"/>
  <use id="arrowleft" xlink:href="#arrowLeft" x="0" y="0" onmousedown="handlePan(-1,0)"/>
</g>
<svg viewBox="0 0 15 15" width="100%" height="30px" preserveAspectRatio="xMaxYMin meet">
 <g id="arrow_out" transform="scale(0.3 0.3)">
  <a xlink:href="utils_2_a_m_i_p_s_8hpp__dep__incl_org.svg" target="_base">
   <rect id="button" ry="5" rx="5" y="6" x="6" height="38" width="38"
        fill="#f2f5e9" fill-opacity="0.5" stroke="#606060" stroke-width="1.0"/>
   <path id="arrow"
     d="M 11.500037,31.436501 C 11.940474,20.09759 22.043105,11.32322 32.158766,21.979434 L 37.068811,17.246167 C 37.068811,17.246167 37.088388,32 37.088388,32 L 22.160133,31.978069 C 22.160133,31.978069 26.997745,27.140456 26.997745,27.140456 C 18.528582,18.264221 13.291696,25.230495 11.500037,31.436501 z"
     style="fill:#404040;"/>
  </a>
 </g>
</svg>

<style type='text/css'>
<![CDATA[
[data-mouse-over-selected='false'] { opacity: 0.7; }
[data-mouse-over-selected='true']  { opacity: 1.0; }
]]>
</style>
<script type="application/ecmascript"><![CDATA[
document.addEventListener('DOMContentLoaded', (event) => {
  highlightEdges();
  highlightAdjacentNodes();
});
]]></script>
</svg>
